<svg width="480" height="400" viewBox="0 0 480 400" fill="none" xmlns="http://www.w3.org/2000/svg">
    <g clip-path="url(#clip0_1_2)">
        <path
            d="M238.964 85.5346C78.2688 87.1978 -51.405 146.044 -50.6709 216.972C-49.9367 287.9 80.9272 344.05 241.622 342.387C402.317 340.724 531.991 281.877 531.257 210.949C530.522 140.021 399.658 83.8713 238.964 85.5346Z"
            fill="url(#paint0_radial_1_2)" />
        <path
            d="M339.034 290.635C327.035 296.817 284.102 322.995 257.399 337.938L214.626 338.701C241.329 323.758 284.262 297.58 296.261 291.398C321.438 278.428 301.596 274.946 274.136 266.221C237.514 254.586 168.85 234.941 150.539 229.6C117.732 220.032 142.91 212.052 179.531 197.556C216.152 183.061 369.26 121.962 408.462 106.003L415.328 118.973C376.126 134.932 258.925 182.297 222.304 196.793C185.683 211.289 160.506 219.268 193.312 228.837C211.623 234.177 280.288 253.823 316.909 265.458C344.369 274.183 364.211 277.665 339.034 290.635Z"
            fill="white" />
        <path
            d="M250.399 338.003C277.102 323.061 320.035 296.882 332.034 290.701C357.211 277.731 337.369 274.248 309.909 265.524C273.287 253.888 204.623 234.243 186.312 228.902C153.505 219.334 178.682 211.355 215.304 196.859C251.925 182.363 369.126 134.997 408.328 119.039"
            stroke="black" stroke-width="2" stroke-linecap="round" stroke-linejoin="round" />
        <path
            d="M203.626 338.766C230.329 323.824 273.262 297.645 285.261 291.464C310.438 278.494 290.596 275.012 263.136 266.287C226.514 254.651 157.85 235.006 139.539 229.666C106.732 220.097 131.91 212.118 168.531 197.622C205.152 183.126 358.26 122.028 397.462 106.069"
            stroke="black" stroke-width="2" stroke-linecap="round" stroke-linejoin="round" />
        <path
            d="M266.007 285.68L213.102 307.942L166.427 293.243V234L227.043 211.531L266.007 226.243V228.42V240.303V285.68Z"
            fill="white" />
        <path d="M219.762 210.987C235.758 215.364 252.409 221.869 270.909 227.31" stroke="black" stroke-width="2"
            stroke-linecap="round" stroke-linejoin="round" />
        <path d="M166.427 230.96C166.427 263.733 166.427 272.557 166.427 294.507" stroke="black" stroke-width="2"
            stroke-linecap="round" stroke-linejoin="round" />
        <path
            d="M215.586 242.828C215.586 271.623 215.586 280.643 215.586 309.059M266.006 225.155C266.006 245.323 266.006 269.656 266.006 286.369"
            stroke="black" stroke-width="2" stroke-linecap="round" stroke-linejoin="round" />
        <path d="M165.167 294.5C181.163 298.877 199.2 303.324 218.108 308.366" stroke="black" stroke-width="2"
            stroke-linecap="round" stroke-linejoin="round" />
        <path d="M167.687 233.978C183.683 238.355 201.72 242.801 220.628 247.843" stroke="black" stroke-width="2"
            stroke-linecap="round" stroke-linejoin="round" />
        <path d="M209.576 309.578C220.808 304.878 260.889 288.649 272.309 284.416" stroke="black" stroke-width="2"
            stroke-linecap="round" stroke-linejoin="round" />
        <path d="M213.717 248.14C224.949 243.44 256.662 229.388 268.082 225.155" stroke="black" stroke-width="2"
            stroke-linecap="round" stroke-linejoin="round" />
        <path d="M166.076 235.08C177.308 230.38 213.132 215.24 224.552 211.007" stroke="black" stroke-width="2"
            stroke-linecap="round" stroke-linejoin="round" />
        <path d="M194.082 240.389C205.314 235.689 231.082 224.066 244.383 218.625" stroke="black" stroke-width="2"
            stroke-linecap="round" stroke-linejoin="round" />
        <path d="M223.314 242.172L214.829 277.502M216.329 300.003L231.233 238.612" stroke="black" stroke-width="2"
            stroke-linecap="round" stroke-linejoin="round" />
        <path d="M238.784 236.061L221.328 304.002M245.828 232.502L229.328 301.502M253.595 229.535L236.553 299.256"
            stroke="black" stroke-width="2" stroke-linecap="round" stroke-linejoin="round" />
        <path
            d="M261.201 227.002L243.284 297.562M267.328 227.002C255.91 271.31 259.844 257.076 250.328 294.002M266.328 258.502C257.7 291.984 266.074 260.071 258.4 289.85L266.328 258.502Z"
            stroke="black" stroke-width="2" stroke-linecap="round" stroke-linejoin="round" />
        <path
            d="M129.606 152.743V137.79L148.077 126.356H211.388L225.478 138.67V156.261L204.368 167.695H150.716L129.606 152.743Z"
            fill="white" />
        <path d="M124.329 148.245C134.958 156.922 140.273 161.742 148.625 168.491" stroke="black" stroke-width="2"
            stroke-linecap="round" stroke-linejoin="round" />
        <path d="M148.957 166.815C160.216 166.989 193.574 167.504 205.964 167.695" stroke="black" stroke-width="2"
            stroke-linecap="round" stroke-linejoin="round" />
        <path d="M129.868 131.808C129.868 143.067 129.868 151.863 129.868 158.02" stroke="black" stroke-width="2"
            stroke-linecap="round" stroke-linejoin="round" />
        <path d="M150.716 145.707C150.716 153.54 150.716 160.205 150.716 165.937" stroke="black" stroke-width="2"
            stroke-linecap="round" stroke-linejoin="round" />
        <path d="M204.368 144.826C204.368 154.361 204.368 162.474 204.368 169.453" stroke="black" stroke-width="2"
            stroke-linecap="round" stroke-linejoin="round" />
        <path d="M225.478 132.513C225.478 142.188 225.478 150.534 225.478 157.141" stroke="black" stroke-width="2"
            stroke-linecap="round" stroke-linejoin="round" />
        <path d="M128.379 134.074C140.693 141.99 140.975 142.089 150.65 148.246" stroke="black" stroke-width="2"
            stroke-linecap="round" stroke-linejoin="round" />
        <path d="M150.649 148.247C161.04 148.247 193.747 148.247 205.182 148.247" stroke="black" stroke-width="2"
            stroke-linecap="round" stroke-linejoin="round" />
        <path d="M206.327 122.937C206.327 122.937 221.512 134.072 228.598 139.134" stroke="black" stroke-width="2"
            stroke-linecap="round" stroke-linejoin="round" />
        <path d="M127.366 137.111C132.428 135.086 154.699 126.988 163.81 123.951" stroke="black" stroke-width="2"
            stroke-linecap="round" stroke-linejoin="round" />
        <path d="M153.686 125.974C176.531 125.974 199.046 125.657 221.465 125.657" stroke="black" stroke-width="2"
            stroke-linecap="round" stroke-linejoin="round" />
        <path
            d="M202.476 168.368C211.405 164.178 218.441 160.66 228.996 155.383M202.476 149.258C211.405 145.069 220.266 141.375 230.821 136.098"
            stroke="black" stroke-width="2" stroke-linecap="round" stroke-linejoin="round" />
        <path
            d="M132.245 154.501L136.643 139.548M137.489 159.38C138.84 154.14 141.42 148.42 142.8 143.066M143.563 164.442L148.957 147.464"
            stroke="black" stroke-width="2" stroke-linecap="round" stroke-linejoin="round" />
        <path
            d="M151.595 166.655L156.466 149.222M159.799 166.655C161.359 160.599 163.187 154.558 164.789 148.343M167.671 166.748C169.234 160.682 170.702 154.546 172.3 148.343"
            stroke="black" stroke-width="2" stroke-linecap="round" stroke-linejoin="round" />
        <path
            d="M193.956 149.231C192.426 155.167 190.913 161.039 189.416 166.846M181.5 166.846C182.994 161.049 184.507 155.179 186.039 149.231M179.003 149.199L174.464 166.814"
            stroke="black" stroke-width="2" stroke-linecap="round" stroke-linejoin="round" />
        <path
            d="M201.354 149.223L196.594 167.694M209.646 146.585L203.404 167.694M217.759 142.187C216.002 149.007 214.264 155.751 212.546 162.417L217.759 142.187Z"
            stroke="black" stroke-width="2" stroke-linecap="round" stroke-linejoin="round" />
        <path d="M224.793 138.669L219.321 159.779" stroke="black" stroke-width="2" stroke-linecap="round"
            stroke-linejoin="round" />
        <path d="M177.329 124.637L178.329 123L179.329 124.637V129L177.329 128.455V124.637Z" fill="white" />
        <path d="M179.443 136.476C179.443 116.75 179.443 73.611 179.443 55.847" stroke="black" stroke-width="2"
            stroke-linecap="round" stroke-linejoin="round" />
        <path d="M176.329 135.629C176.329 115.903 176.329 72.764 176.329 55" stroke="black" stroke-width="2"
            stroke-linecap="round" stroke-linejoin="round" />
        <path d="M176.329 55.847C183.953 57.08 213.548 60.076 225.39 61.768" stroke="black" stroke-width="2"
            stroke-linecap="round" stroke-linejoin="round" />
        <path d="M179.713 79.532C193.578 81.229 209.196 83.498 223.029 85.406" stroke="black" stroke-width="2"
            stroke-linecap="round" stroke-linejoin="round" />
        <path d="M222.006 85.778C222.006 80.378 222.006 71.073 222.006 60.077" stroke="black" stroke-width="2"
            stroke-linecap="round" stroke-linejoin="round" />
        <path
            d="M378.792 141.293C375.942 152.285 366.425 166.325 357.227 166.938C337.423 168.257 336.828 154.15 336.828 142.459C338.049 131.467 348.009 117.98 357.227 117.98C370.049 117.98 381.235 123.788 378.792 141.293Z"
            fill="white" />
        <path
            d="M368.884 134.921C363.064 126.074 355.86 136.452 362.838 143.136C369.816 149.82 365.462 161.318 353.73 151.541"
            stroke="black" stroke-width="2" stroke-linecap="round" stroke-linejoin="round" />
        <path d="M366.929 129.055C364.485 137.854 361.063 148.119 357.605 157.527" stroke="black" stroke-width="2"
            stroke-linecap="round" stroke-linejoin="round" />
        <path d="M359.522 122.657L350.521 120.157" stroke="black" stroke-width="2" stroke-linecap="round"
            stroke-linejoin="round" />
        <path d="M352.464 128.832L343.722 125.917" stroke="black" stroke-width="2" stroke-linecap="round"
            stroke-linejoin="round" />
        <path d="M344.988 141.749L336.828 139.418M348.053 135.008L339.894 132.677M344.405 149.454L336.246 147.122"
            stroke="black" stroke-width="2" stroke-linecap="round" stroke-linejoin="round" />
        <path d="M344.405 157.062L336.829 155.314" stroke="black" stroke-width="2" stroke-linecap="round"
            stroke-linejoin="round" />
        <path
            d="M349.069 165.772C351.517 169.269 359.515 167.759 361.892 165.773C378.211 158.594 386.962 120.903 367.137 120.312C357.264 120.017 346.373 134.299 344.988 145.373C343.822 154.699 344.989 161.692 349.069 165.772Z"
            stroke="black" stroke-width="2" stroke-linecap="round" stroke-linejoin="round" />
        <path
            d="M354.314 168.104C349.068 166.939 343.357 164.607 340.909 161.11C336.829 157.031 335.08 147.705 336.829 141.294C337.995 130.803 348.521 117.686 358.394 117.981C361.888 118.085 364.805 119.147 370.05 120.895"
            stroke="black" stroke-width="2" stroke-linecap="round" stroke-linejoin="round" />
        <path d="M356.972 55.006V99.506M355.45 224.032V185.507" stroke="black" stroke-width="2" stroke-linecap="round"
            stroke-linejoin="round" />
        <path
            d="M332.792 178.86C329.943 189.851 320.426 203.891 311.228 204.504C291.423 205.824 290.829 191.717 290.829 180.025C292.05 169.033 302.009 155.546 311.228 155.546C324.05 155.546 335.235 161.354 332.792 178.86Z"
            fill="white" />
        <path
            d="M322.884 172.488C317.064 163.64 309.86 174.019 316.838 180.703C323.816 187.387 319.462 198.884 307.73 189.107"
            stroke="black" stroke-width="2" stroke-linecap="round" stroke-linejoin="round" />
        <path d="M320.929 166.622C318.485 175.42 315.063 185.686 311.605 195.094" stroke="black" stroke-width="2"
            stroke-linecap="round" stroke-linejoin="round" />
        <path d="M313.522 160.224L304.521 157.724" stroke="black" stroke-width="2" stroke-linecap="round"
            stroke-linejoin="round" />
        <path d="M306.465 166.398L297.722 163.484" stroke="black" stroke-width="2" stroke-linecap="round"
            stroke-linejoin="round" />
        <path d="M298.988 179.316L290.829 176.985M302.054 172.574L293.894 170.243M298.406 187.02L290.246 184.689"
            stroke="black" stroke-width="2" stroke-linecap="round" stroke-linejoin="round" />
        <path d="M298.406 194.629L290.829 192.88" stroke="black" stroke-width="2" stroke-linecap="round"
            stroke-linejoin="round" />
        <path
            d="M303.07 203.339C305.518 206.836 313.515 205.326 315.892 203.339C332.211 196.161 340.963 158.47 321.137 157.878C311.265 157.583 300.373 171.866 298.989 182.94C297.823 192.265 298.99 199.259 303.07 203.339Z"
            stroke="black" stroke-width="2" stroke-linecap="round" stroke-linejoin="round" />
        <path
            d="M308.314 205.671C303.069 204.505 297.357 202.174 294.909 198.677C290.83 194.597 289.081 185.272 290.829 178.861C291.995 168.37 302.522 155.253 312.394 155.547C315.889 155.652 318.805 156.713 324.051 158.461"
            stroke="black" stroke-width="2" stroke-linecap="round" stroke-linejoin="round" />
        <path d="M309.328 259.006V222.285M310.894 132.507V100.007" stroke="black" stroke-width="2"
            stroke-linecap="round" stroke-linejoin="round" />
    </g>
    <defs>
        <radialGradient id="paint0_radial_1_2" cx="0" cy="0" r="1" gradientUnits="userSpaceOnUse"
            gradientTransform="translate(240.293 213.961) rotate(-112.86) scale(115.189 230.803)">
            <stop offset="0.0001" stop-color="#F0FEEA" />
            <stop offset="1" stop-color="#F0FEEA" stop-opacity="0" />
        </radialGradient>
        <clipPath id="clip0_1_2">
            <rect width="480" height="400" fill="white" />
        </clipPath>
    </defs>
</svg>