<svg width="24" height="20" viewBox="0 0 24 20" fill="none" xmlns="http://www.w3.org/2000/svg">
<path fill-rule="evenodd" clip-rule="evenodd" d="M1.63785 20C0.917474 20 0.333496 19.416 0.333496 18.6957C0.333496 17.9753 0.917473 17.3913 1.63784 17.3913H22.3625C23.0829 17.3913 23.6668 17.9753 23.6668 18.6957C23.6668 19.416 23.0829 20 22.3625 20H1.63785ZM1.63785 11.3043C0.917475 11.3043 0.333496 10.7204 0.333496 10C0.333496 9.27963 0.917473 8.69565 1.63784 8.69565L22.3625 8.69565C23.0829 8.69565 23.6668 9.27963 23.6668 10C23.6668 10.7204 23.0829 11.3043 22.3625 11.3043L1.63785 11.3043ZM0.333496 1.30435C0.333496 2.02472 0.917475 2.60869 1.63785 2.60869H22.3625C23.0829 2.60869 23.6668 2.02472 23.6668 1.30435C23.6668 0.583975 23.0829 -1.90735e-06 22.3625 -1.90735e-06H1.63784C0.917473 -1.90735e-06 0.333496 0.583975 0.333496 1.30435Z" fill="#B5A1ED"/>
</svg>
