<svg width="474" height="297" viewBox="0 0 474 297" fill="none" xmlns="http://www.w3.org/2000/svg">
<rect x="0.5" y="1.38596" width="473" height="43" rx="3.5" fill="#F6FFF2"/>
<path d="M131.953 18.067L139.362 14.0468C139.757 13.8323 140.243 13.8323 140.638 14.0468L148.047 18.067L140 22.8057L131.953 18.067ZM131.136 18.7463L139.5 23.6718V32.9534C139.453 32.9346 139.407 32.913 139.362 32.8886L131.648 28.7028C131.247 28.4854 131 28.0809 131 27.6427V19.2927C131 19.0997 131.048 18.9131 131.136 18.7463ZM148.864 18.7463C148.952 18.9131 149 19.0997 149 19.2927V27.6427C149 28.0809 148.753 28.4854 148.352 28.7028L140.638 32.8886C140.593 32.913 140.547 32.9346 140.5 32.9534V23.6718L148.864 18.7463Z" fill="#22222A"/>
<path d="M163.303 29.886H160.49L165.611 15.3405H168.864L173.991 29.886H171.179L167.294 18.3235H167.18L163.303 29.886ZM163.395 24.1828H171.065V26.2993H163.395V24.1828ZM175.794 29.886V18.9769H178.287V20.795H178.4C178.599 20.1653 178.94 19.68 179.423 19.3391C179.911 18.9934 180.467 18.8206 181.092 18.8206C181.234 18.8206 181.393 18.8277 181.568 18.8419C181.748 18.8514 181.897 18.868 182.015 18.8916V21.2567C181.906 21.2188 181.734 21.1857 181.497 21.1573C181.265 21.1241 181.04 21.1075 180.822 21.1075C180.353 21.1075 179.932 21.2093 179.558 21.4129C179.189 21.6118 178.897 21.8888 178.684 22.2439C178.471 22.599 178.365 23.0086 178.365 23.4726V29.886H175.794ZM189.757 18.9769V20.9655H183.485V18.9769H189.757ZM185.034 16.3632H187.605V26.6047C187.605 26.9503 187.657 27.2155 187.761 27.4002C187.87 27.5801 188.012 27.7032 188.187 27.7695C188.362 27.8358 188.556 27.8689 188.77 27.8689C188.931 27.8689 189.077 27.8571 189.21 27.8334C189.347 27.8097 189.451 27.7884 189.522 27.7695L189.956 29.7794C189.818 29.8268 189.622 29.8789 189.366 29.9357C189.115 29.9925 188.807 30.0256 188.443 30.0351C187.799 30.054 187.219 29.957 186.703 29.7439C186.187 29.5261 185.777 29.1899 185.474 28.7354C185.176 28.2808 185.029 27.7127 185.034 27.0308V16.3632ZM191.907 29.886V18.9769H194.478V29.886H191.907ZM193.2 17.4286C192.792 17.4286 192.442 17.2936 192.148 17.0237C191.855 16.7491 191.708 16.42 191.708 16.0365C191.708 15.6483 191.855 15.3192 192.148 15.0493C192.442 14.7747 192.792 14.6374 193.2 14.6374C193.612 14.6374 193.962 14.7747 194.251 15.0493C194.544 15.3192 194.691 15.6483 194.691 16.0365C194.691 16.42 194.544 16.7491 194.251 17.0237C193.962 17.2936 193.612 17.4286 193.2 17.4286ZM202.647 18.9769V20.9655H196.199V18.9769H202.647ZM197.811 29.886V17.947C197.811 17.2131 197.962 16.6023 198.265 16.1146C198.573 15.627 198.985 15.2624 199.501 15.0209C200.017 14.7794 200.59 14.6587 201.22 14.6587C201.665 14.6587 202.06 14.6942 202.406 14.7652C202.752 14.8362 203.007 14.9002 203.173 14.957L202.662 16.9456C202.553 16.9125 202.415 16.8793 202.25 16.8462C202.084 16.8083 201.899 16.7894 201.696 16.7894C201.217 16.7894 200.879 16.9054 200.68 17.1374C200.486 17.3646 200.389 17.6914 200.389 18.1175V29.886H197.811ZM207.429 30.1061C206.738 30.1061 206.115 29.983 205.561 29.7368C205.012 29.4859 204.576 29.1165 204.254 28.6289C203.937 28.1412 203.778 27.5398 203.778 26.8249C203.778 26.2093 203.892 25.7003 204.119 25.2979C204.347 24.8954 204.657 24.5735 205.05 24.332C205.443 24.0905 205.885 23.9082 206.378 23.7851C206.875 23.6573 207.389 23.5649 207.919 23.5081C208.558 23.4418 209.077 23.3826 209.474 23.3306C209.872 23.2737 210.161 23.1885 210.341 23.0749C210.526 22.9565 210.618 22.7742 210.618 22.528V22.4854C210.618 21.9503 210.459 21.5361 210.142 21.2425C209.825 20.9489 209.368 20.8021 208.771 20.8021C208.142 20.8021 207.642 20.9395 207.273 21.2141C206.908 21.4887 206.662 21.813 206.534 22.1871L204.134 21.8462C204.323 21.1833 204.635 20.6293 205.071 20.1843C205.507 19.7344 206.039 19.3983 206.669 19.1757C207.299 18.9485 207.995 18.8348 208.757 18.8348C209.283 18.8348 209.806 18.8964 210.327 19.0195C210.848 19.1426 211.323 19.3462 211.754 19.6303C212.185 19.9096 212.531 20.2908 212.791 20.7737C213.056 21.2567 213.189 21.8604 213.189 22.5848V29.886H210.717V28.3874H210.632C210.476 28.6904 210.256 28.9745 209.972 29.2396C209.692 29.5001 209.339 29.7108 208.913 29.8718C208.492 30.028 207.997 30.1061 207.429 30.1061ZM208.097 28.2169C208.613 28.2169 209.06 28.1151 209.439 27.9115C209.818 27.7032 210.109 27.4286 210.312 27.0877C210.521 26.7468 210.625 26.3751 210.625 25.9726V24.6871C210.545 24.7534 210.407 24.8149 210.213 24.8718C210.024 24.9286 209.811 24.9783 209.574 25.0209C209.337 25.0635 209.103 25.1014 208.871 25.1345C208.639 25.1677 208.438 25.1961 208.267 25.2198C207.884 25.2718 207.54 25.3571 207.237 25.4754C206.934 25.5938 206.695 25.7595 206.52 25.9726C206.345 26.1809 206.257 26.4508 206.257 26.7823C206.257 27.2557 206.43 27.6132 206.776 27.8547C207.121 28.0962 207.562 28.2169 208.097 28.2169ZM220.533 30.099C219.444 30.099 218.509 29.8599 217.727 29.3817C216.951 28.9035 216.352 28.243 215.93 27.4002C215.514 26.5526 215.305 25.5772 215.305 24.474C215.305 23.3661 215.518 22.3883 215.945 21.5408C216.371 20.6885 216.972 20.0256 217.749 19.5521C218.53 19.0739 219.453 18.8348 220.518 18.8348C221.404 18.8348 222.188 18.9982 222.869 19.3249C223.556 19.6468 224.103 20.1038 224.51 20.6956C224.917 21.2827 225.149 21.9693 225.206 22.7553H222.749C222.649 22.2297 222.412 21.7917 222.038 21.4414C221.669 21.0862 221.174 20.9087 220.554 20.9087C220.028 20.9087 219.567 21.0507 219.169 21.3348C218.771 21.6142 218.461 22.0166 218.239 22.5422C218.021 23.0678 217.912 23.6975 217.912 24.4314C217.912 25.1748 218.021 25.814 218.239 26.349C218.456 26.8793 218.762 27.2889 219.155 27.5777C219.553 27.8618 220.019 28.0039 220.554 28.0039C220.933 28.0039 221.271 27.9328 221.57 27.7908C221.873 27.644 222.126 27.4333 222.33 27.1587C222.533 26.8841 222.673 26.5503 222.749 26.1573H225.206C225.144 26.929 224.917 27.6132 224.524 28.2098C224.131 28.8017 223.596 29.2657 222.919 29.6019C222.242 29.9333 221.446 30.099 220.533 30.099ZM232.765 18.9769V20.9655H226.493V18.9769H232.765ZM228.042 16.3632H230.613V26.6047C230.613 26.9503 230.665 27.2155 230.769 27.4002C230.878 27.5801 231.02 27.7032 231.195 27.7695C231.37 27.8358 231.564 27.8689 231.777 27.8689C231.938 27.8689 232.085 27.8571 232.218 27.8334C232.355 27.8097 232.459 27.7884 232.53 27.7695L232.963 29.7794C232.826 29.8268 232.63 29.8789 232.374 29.9357C232.123 29.9925 231.815 30.0256 231.451 30.0351C230.807 30.054 230.227 29.957 229.711 29.7439C229.194 29.5261 228.785 29.1899 228.482 28.7354C228.184 28.2808 228.037 27.7127 228.042 27.0308V16.3632ZM243.381 21.8604L241.037 22.1161C240.971 21.8793 240.855 21.6568 240.689 21.4485C240.528 21.2401 240.31 21.072 240.036 20.9442C239.761 20.8164 239.425 20.7524 239.027 20.7524C238.492 20.7524 238.042 20.8684 237.678 21.1004C237.318 21.3325 237.14 21.6331 237.145 22.0024C237.14 22.3197 237.256 22.5777 237.493 22.7766C237.734 22.9754 238.132 23.1388 238.686 23.2666L240.547 23.6644C241.579 23.8869 242.346 24.2396 242.848 24.7226C243.355 25.2056 243.61 25.8377 243.615 26.6189C243.61 27.3055 243.409 27.9115 243.011 28.4371C242.618 28.9579 242.071 29.3651 241.371 29.6587C240.67 29.9522 239.865 30.099 238.956 30.099C237.621 30.099 236.546 29.8197 235.732 29.261C234.917 28.6975 234.432 27.9139 234.276 26.9101L236.783 26.6686C236.896 27.1611 237.138 27.5327 237.507 27.7837C237.876 28.0346 238.357 28.1601 238.949 28.1601C239.56 28.1601 240.05 28.0346 240.419 27.7837C240.793 27.5327 240.98 27.2226 240.98 26.8533C240.98 26.5408 240.859 26.2827 240.618 26.0791C240.381 25.8755 240.012 25.7193 239.51 25.6104L237.649 25.2198C236.603 25.002 235.829 24.635 235.327 24.1189C234.825 23.5981 234.576 22.9399 234.581 22.1445C234.576 21.4721 234.759 20.8897 235.128 20.3973C235.502 19.9002 236.02 19.5166 236.683 19.2468C237.351 18.9721 238.12 18.8348 238.991 18.8348C240.27 18.8348 241.276 19.1071 242.01 19.6516C242.749 20.1961 243.205 20.9324 243.381 21.8604ZM251.673 14.6587L246.985 32.0735H244.734L249.421 14.6587H251.673ZM253.427 29.886V15.3405H258.881C259.999 15.3405 260.936 15.5488 261.694 15.9655C262.456 16.3822 263.031 16.9551 263.42 17.6843C263.813 18.4087 264.009 19.2325 264.009 20.1558C264.009 21.0886 263.813 21.9172 263.42 22.6416C263.027 23.3661 262.447 23.9366 261.68 24.3533C260.913 24.7652 259.968 24.9712 258.846 24.9712H255.231V22.805H258.491C259.144 22.805 259.679 22.6914 260.096 22.4641C260.513 22.2368 260.82 21.9243 261.019 21.5266C261.223 21.1289 261.325 20.6719 261.325 20.1558C261.325 19.6397 261.223 19.1852 261.019 18.7922C260.82 18.3992 260.51 18.0938 260.089 17.876C259.672 17.6535 259.135 17.5422 258.477 17.5422H256.062V29.886H253.427ZM269.128 30.1061C268.437 30.1061 267.814 29.983 267.26 29.7368C266.711 29.4859 266.275 29.1165 265.953 28.6289C265.636 28.1412 265.478 27.5398 265.478 26.8249C265.478 26.2093 265.591 25.7003 265.819 25.2979C266.046 24.8954 266.356 24.5735 266.749 24.332C267.142 24.0905 267.585 23.9082 268.077 23.7851C268.574 23.6573 269.088 23.5649 269.618 23.5081C270.257 23.4418 270.776 23.3826 271.174 23.3306C271.571 23.2737 271.86 23.1885 272.04 23.0749C272.225 22.9565 272.317 22.7742 272.317 22.528V22.4854C272.317 21.9503 272.158 21.5361 271.841 21.2425C271.524 20.9489 271.067 20.8021 270.471 20.8021C269.841 20.8021 269.341 20.9395 268.972 21.2141C268.607 21.4887 268.361 21.813 268.233 22.1871L265.833 21.8462C266.022 21.1833 266.335 20.6293 266.77 20.1843C267.206 19.7344 267.739 19.3983 268.368 19.1757C268.998 18.9485 269.694 18.8348 270.456 18.8348C270.982 18.8348 271.505 18.8964 272.026 19.0195C272.547 19.1426 273.023 19.3462 273.453 19.6303C273.884 19.9096 274.23 20.2908 274.49 20.7737C274.756 21.2567 274.888 21.8604 274.888 22.5848V29.886H272.417V28.3874H272.331C272.175 28.6904 271.955 28.9745 271.671 29.2396C271.391 29.5001 271.039 29.7108 270.613 29.8718C270.191 30.028 269.696 30.1061 269.128 30.1061ZM269.796 28.2169C270.312 28.2169 270.759 28.1151 271.138 27.9115C271.517 27.7032 271.808 27.4286 272.012 27.0877C272.22 26.7468 272.324 26.3751 272.324 25.9726V24.6871C272.244 24.7534 272.106 24.8149 271.912 24.8718C271.723 24.9286 271.51 24.9783 271.273 25.0209C271.036 25.0635 270.802 25.1014 270.57 25.1345C270.338 25.1677 270.137 25.1961 269.966 25.2198C269.583 25.2718 269.239 25.3571 268.936 25.4754C268.633 25.5938 268.394 25.7595 268.219 25.9726C268.044 26.1809 267.956 26.4508 267.956 26.7823C267.956 27.2557 268.129 27.6132 268.475 27.8547C268.82 28.0962 269.261 28.2169 269.796 28.2169ZM282.232 30.099C281.143 30.099 280.208 29.8599 279.426 29.3817C278.65 28.9035 278.051 28.243 277.63 27.4002C277.213 26.5526 277.005 25.5772 277.005 24.474C277.005 23.3661 277.218 22.3883 277.644 21.5408C278.07 20.6885 278.671 20.0256 279.448 19.5521C280.229 19.0739 281.152 18.8348 282.218 18.8348C283.103 18.8348 283.887 18.9982 284.569 19.3249C285.255 19.6468 285.802 20.1038 286.209 20.6956C286.616 21.2827 286.848 21.9693 286.905 22.7553H284.448C284.348 22.2297 284.112 21.7917 283.738 21.4414C283.368 21.0862 282.873 20.9087 282.253 20.9087C281.728 20.9087 281.266 21.0507 280.868 21.3348C280.471 21.6142 280.16 22.0166 279.938 22.5422C279.72 23.0678 279.611 23.6975 279.611 24.4314C279.611 25.1748 279.72 25.814 279.938 26.349C280.156 26.8793 280.461 27.2889 280.854 27.5777C281.252 27.8618 281.718 28.0039 282.253 28.0039C282.632 28.0039 282.971 27.9328 283.269 27.7908C283.572 27.644 283.825 27.4333 284.029 27.1587C284.232 26.8841 284.372 26.5503 284.448 26.1573H286.905C286.844 26.929 286.616 27.6132 286.223 28.2098C285.83 28.8017 285.295 29.2657 284.618 29.6019C283.941 29.9333 283.146 30.099 282.232 30.099ZM291.36 26.4627L291.353 23.359H291.765L295.685 18.9769H298.69L293.867 24.3462H293.335L291.36 26.4627ZM289.016 29.886V15.3405H291.587V29.886H289.016ZM295.863 29.886L292.312 24.9215L294.045 23.1104L298.938 29.886H295.863ZM303.542 30.1061C302.851 30.1061 302.228 29.983 301.674 29.7368C301.125 29.4859 300.69 29.1165 300.368 28.6289C300.05 28.1412 299.892 27.5398 299.892 26.8249C299.892 26.2093 300.005 25.7003 300.233 25.2979C300.46 24.8954 300.77 24.5735 301.163 24.332C301.556 24.0905 301.999 23.9082 302.491 23.7851C302.988 23.6573 303.502 23.5649 304.032 23.5081C304.672 23.4418 305.19 23.3826 305.588 23.3306C305.985 23.2737 306.274 23.1885 306.454 23.0749C306.639 22.9565 306.731 22.7742 306.731 22.528V22.4854C306.731 21.9503 306.573 21.5361 306.255 21.2425C305.938 20.9489 305.481 20.8021 304.885 20.8021C304.255 20.8021 303.755 20.9395 303.386 21.2141C303.021 21.4887 302.775 21.813 302.647 22.1871L300.247 21.8462C300.436 21.1833 300.749 20.6293 301.184 20.1843C301.62 19.7344 302.153 19.3983 302.782 19.1757C303.412 18.9485 304.108 18.8348 304.87 18.8348C305.396 18.8348 305.919 18.8964 306.44 19.0195C306.961 19.1426 307.437 19.3462 307.868 19.6303C308.298 19.9096 308.644 20.2908 308.904 20.7737C309.17 21.2567 309.302 21.8604 309.302 22.5848V29.886H306.831V28.3874H306.745C306.589 28.6904 306.369 28.9745 306.085 29.2396C305.806 29.5001 305.453 29.7108 305.027 29.8718C304.605 30.028 304.11 30.1061 303.542 30.1061ZM304.21 28.2169C304.726 28.2169 305.173 28.1151 305.552 27.9115C305.931 27.7032 306.222 27.4286 306.426 27.0877C306.634 26.7468 306.738 26.3751 306.738 25.9726V24.6871C306.658 24.7534 306.52 24.8149 306.326 24.8718C306.137 24.9286 305.924 24.9783 305.687 25.0209C305.45 25.0635 305.216 25.1014 304.984 25.1345C304.752 25.1677 304.551 25.1961 304.38 25.2198C303.997 25.2718 303.654 25.3571 303.35 25.4754C303.047 25.5938 302.808 25.7595 302.633 25.9726C302.458 26.1809 302.37 26.4508 302.37 26.7823C302.37 27.2557 302.543 27.6132 302.889 27.8547C303.234 28.0962 303.675 28.2169 304.21 28.2169ZM316.632 34.2041C315.708 34.2041 314.915 34.0787 314.252 33.8277C313.59 33.5815 313.057 33.2501 312.654 32.8334C312.252 32.4167 311.973 31.9551 311.816 31.4485L314.132 30.8874C314.236 31.1004 314.387 31.3111 314.586 31.5195C314.785 31.7325 315.053 31.9077 315.389 32.045C315.73 32.1871 316.158 32.2581 316.674 32.2581C317.404 32.2581 318.007 32.0806 318.485 31.7254C318.964 31.3751 319.203 30.7974 319.203 29.9925V27.9257H319.075C318.942 28.1909 318.748 28.4631 318.493 28.7425C318.242 29.0218 317.908 29.2562 317.491 29.4456C317.079 29.635 316.561 29.7297 315.936 29.7297C315.098 29.7297 314.338 29.5332 313.656 29.1402C312.979 28.7425 312.439 28.1506 312.037 27.3646C311.639 26.5739 311.44 25.5843 311.44 24.3959C311.44 23.198 311.639 22.1871 312.037 21.3632C312.439 20.5346 312.981 19.9073 313.663 19.4811C314.345 19.0503 315.105 18.8348 315.943 18.8348C316.582 18.8348 317.108 18.9437 317.52 19.1615C317.936 19.3746 318.268 19.6326 318.514 19.9357C318.76 20.234 318.947 20.5157 319.075 20.7808H319.217V18.9769H321.752V30.0635C321.752 30.9963 321.53 31.7681 321.085 32.3789C320.64 32.9896 320.031 33.4466 319.26 33.7496C318.488 34.0526 317.612 34.2041 316.632 34.2041ZM316.653 27.7127C317.198 27.7127 317.662 27.5801 318.045 27.3149C318.429 27.0498 318.72 26.6686 318.919 26.1715C319.118 25.6743 319.217 25.0777 319.217 24.3817C319.217 23.6951 319.118 23.0938 318.919 22.5777C318.725 22.0616 318.436 21.6615 318.052 21.3774C317.673 21.0886 317.207 20.9442 316.653 20.9442C316.08 20.9442 315.602 21.0933 315.218 21.3916C314.835 21.6899 314.546 22.0995 314.352 22.6203C314.158 23.1364 314.061 23.7236 314.061 24.3817C314.061 25.0493 314.158 25.6341 314.352 26.136C314.551 26.6331 314.842 27.0214 315.225 27.3007C315.614 27.5753 316.09 27.7127 316.653 27.7127ZM329.217 30.099C328.123 30.099 327.179 29.8718 326.383 29.4172C325.592 28.9579 324.984 28.3093 324.558 27.4712C324.132 26.6284 323.919 25.6364 323.919 24.4953C323.919 23.3732 324.132 22.3883 324.558 21.5408C324.989 20.6885 325.59 20.0256 326.362 19.5521C327.134 19.0739 328.04 18.8348 329.082 18.8348C329.754 18.8348 330.389 18.9437 330.985 19.1615C331.587 19.3746 332.117 19.706 332.576 20.1558C333.04 20.6057 333.405 21.1786 333.67 21.8746C333.935 22.5659 334.068 23.3897 334.068 24.3462V25.1345H325.126V23.4016H331.603C331.599 22.9092 331.492 22.4712 331.284 22.0877C331.075 21.6994 330.784 21.394 330.41 21.1715C330.041 20.9489 329.61 20.8377 329.118 20.8377C328.592 20.8377 328.13 20.9655 327.733 21.2212C327.335 21.4721 327.025 21.8036 326.802 22.2155C326.584 22.6227 326.473 23.0701 326.468 23.5578V25.0706C326.468 25.7051 326.584 26.2496 326.816 26.7041C327.048 27.1539 327.373 27.4996 327.789 27.7411C328.206 27.9778 328.694 28.0962 329.252 28.0962C329.627 28.0962 329.965 28.0441 330.268 27.9399C330.571 27.831 330.834 27.6724 331.056 27.4641C331.279 27.2557 331.447 26.9977 331.561 26.6899L333.961 26.9598C333.81 27.5943 333.521 28.1483 333.095 28.6218C332.673 29.0905 332.134 29.4551 331.475 29.7155C330.817 29.9712 330.065 30.099 329.217 30.099ZM344.865 21.8604L342.521 22.1161C342.455 21.8793 342.339 21.6568 342.173 21.4485C342.012 21.2401 341.795 21.072 341.52 20.9442C341.245 20.8164 340.909 20.7524 340.511 20.7524C339.976 20.7524 339.527 20.8684 339.162 21.1004C338.802 21.3325 338.625 21.6331 338.629 22.0024C338.625 22.3197 338.741 22.5777 338.977 22.7766C339.219 22.9754 339.616 23.1388 340.17 23.2666L342.031 23.6644C343.063 23.8869 343.83 24.2396 344.332 24.7226C344.839 25.2056 345.095 25.8377 345.099 26.6189C345.095 27.3055 344.893 27.9115 344.496 28.4371C344.103 28.9579 343.556 29.3651 342.855 29.6587C342.154 29.9522 341.349 30.099 340.44 30.099C339.105 30.099 338.03 29.8197 337.216 29.261C336.402 28.6975 335.916 27.9139 335.76 26.9101L338.267 26.6686C338.381 27.1611 338.622 27.5327 338.991 27.7837C339.361 28.0346 339.841 28.1601 340.433 28.1601C341.044 28.1601 341.534 28.0346 341.903 27.7837C342.277 27.5327 342.464 27.2226 342.464 26.8533C342.464 26.5408 342.344 26.2827 342.102 26.0791C341.866 25.8755 341.496 25.7193 340.994 25.6104L339.134 25.2198C338.087 25.002 337.313 24.635 336.811 24.1189C336.309 23.5981 336.061 22.9399 336.065 22.1445C336.061 21.4721 336.243 20.8897 336.612 20.3973C336.986 19.9002 337.505 19.5166 338.168 19.2468C338.835 18.9721 339.605 18.8348 340.476 18.8348C341.754 18.8348 342.76 19.1071 343.494 19.6516C344.233 20.1961 344.69 20.9324 344.865 21.8604Z" fill="#22222A"/>
<rect x="0.5" y="1.38596" width="473" height="43" rx="3.5" stroke="#5FB34E"/>
<path d="M233 68.886L236.99 72.886L237 56.886V72.886L241 68.886" stroke="#5FB34E" stroke-linecap="round" stroke-linejoin="round"/>
<rect x="0.5" y="85.386" width="473" height="43" rx="3.5" fill="#F6FFF2"/>
<path d="M153.278 104.248H150.621C150.546 103.813 150.406 103.427 150.202 103.091C149.999 102.75 149.745 102.461 149.442 102.224C149.139 101.987 148.794 101.81 148.405 101.691C148.022 101.568 147.608 101.507 147.162 101.507C146.372 101.507 145.671 101.706 145.06 102.103C144.449 102.496 143.971 103.074 143.626 103.836C143.28 104.594 143.107 105.519 143.107 106.613C143.107 107.726 143.28 108.663 143.626 109.426C143.976 110.183 144.454 110.756 145.06 111.144C145.671 111.528 146.369 111.72 147.155 111.72C147.591 111.72 147.998 111.663 148.377 111.549C148.76 111.431 149.104 111.258 149.407 111.031C149.715 110.804 149.973 110.524 150.181 110.193C150.394 109.861 150.541 109.483 150.621 109.056L153.278 109.071C153.178 109.762 152.963 110.411 152.631 111.017C152.305 111.623 151.876 112.158 151.346 112.622C150.815 113.081 150.195 113.441 149.485 113.701C148.775 113.957 147.986 114.085 147.12 114.085C145.841 114.085 144.7 113.789 143.697 113.197C142.693 112.605 141.902 111.751 141.324 110.633C140.747 109.516 140.458 108.176 140.458 106.613C140.458 105.046 140.749 103.706 141.331 102.593C141.914 101.476 142.707 100.621 143.711 100.029C144.715 99.4376 145.851 99.1416 147.12 99.1416C147.93 99.1416 148.682 99.2553 149.378 99.4825C150.074 99.7098 150.695 100.044 151.239 100.484C151.784 100.92 152.231 101.455 152.581 102.089C152.937 102.719 153.169 103.439 153.278 104.248ZM160.335 114.099C159.27 114.099 158.347 113.865 157.566 113.396C156.784 112.927 156.178 112.271 155.747 111.429C155.321 110.586 155.108 109.601 155.108 108.474C155.108 107.347 155.321 106.36 155.747 105.512C156.178 104.665 156.784 104.007 157.566 103.538C158.347 103.069 159.27 102.835 160.335 102.835C161.401 102.835 162.324 103.069 163.105 103.538C163.887 104.007 164.49 104.665 164.916 105.512C165.347 106.36 165.563 107.347 165.563 108.474C165.563 109.601 165.347 110.586 164.916 111.429C164.49 112.271 163.887 112.927 163.105 113.396C162.324 113.865 161.401 114.099 160.335 114.099ZM160.35 112.039C160.927 112.039 161.41 111.881 161.798 111.564C162.187 111.242 162.476 110.811 162.665 110.271C162.859 109.731 162.956 109.13 162.956 108.467C162.956 107.799 162.859 107.196 162.665 106.656C162.476 106.111 162.187 105.678 161.798 105.356C161.41 105.034 160.927 104.873 160.35 104.873C159.758 104.873 159.265 105.034 158.872 105.356C158.484 105.678 158.193 106.111 157.999 106.656C157.809 107.196 157.715 107.799 157.715 108.467C157.715 109.13 157.809 109.731 157.999 110.271C158.193 110.811 158.484 111.242 158.872 111.564C159.265 111.881 159.758 112.039 160.35 112.039ZM170.316 107.494V113.886H167.745V102.977H170.202V104.831H170.33C170.581 104.22 170.981 103.734 171.53 103.375C172.084 103.015 172.769 102.835 173.583 102.835C174.336 102.835 174.992 102.996 175.55 103.318C176.114 103.64 176.549 104.106 176.857 104.717C177.17 105.328 177.323 106.069 177.319 106.94V113.886H174.748V107.338C174.748 106.608 174.558 106.038 174.18 105.626C173.805 105.214 173.287 105.008 172.624 105.008C172.174 105.008 171.774 105.108 171.424 105.306C171.078 105.501 170.806 105.782 170.607 106.152C170.413 106.521 170.316 106.968 170.316 107.494ZM185.458 102.977V104.966H179.009V102.977H185.458ZM180.621 113.886V101.947C180.621 101.213 180.773 100.602 181.076 100.115C181.384 99.627 181.796 99.2624 182.312 99.0209C182.828 98.7794 183.401 98.6587 184.03 98.6587C184.475 98.6587 184.871 98.6942 185.216 98.7652C185.562 98.8362 185.818 98.9002 185.983 98.957L185.472 100.946C185.363 100.912 185.226 100.879 185.06 100.846C184.894 100.808 184.71 100.789 184.506 100.789C184.028 100.789 183.689 100.905 183.491 101.137C183.296 101.365 183.199 101.691 183.199 102.117V113.886H180.621ZM187.471 113.886V102.977H190.042V113.886H187.471ZM188.764 101.429C188.357 101.429 188.006 101.294 187.713 101.024C187.419 100.749 187.273 100.42 187.273 100.037C187.273 99.6483 187.419 99.3192 187.713 99.0493C188.006 98.7747 188.357 98.6374 188.764 98.6374C189.176 98.6374 189.526 98.7747 189.815 99.0493C190.109 99.3192 190.256 99.6483 190.256 100.037C190.256 100.42 190.109 100.749 189.815 101.024C189.526 101.294 189.176 101.429 188.764 101.429ZM196.735 114.078C195.878 114.078 195.11 113.858 194.433 113.417C193.756 112.977 193.221 112.338 192.828 111.5C192.435 110.662 192.239 109.644 192.239 108.446C192.239 107.233 192.438 106.211 192.835 105.377C193.238 104.539 193.78 103.907 194.462 103.481C195.144 103.05 195.904 102.835 196.742 102.835C197.381 102.835 197.906 102.944 198.318 103.162C198.73 103.375 199.057 103.633 199.298 103.936C199.54 104.234 199.727 104.516 199.86 104.781H199.966V99.3405H202.544V113.886H200.016V112.167H199.86C199.727 112.432 199.535 112.714 199.284 113.012C199.033 113.306 198.702 113.557 198.29 113.765C197.878 113.974 197.36 114.078 196.735 114.078ZM197.452 111.968C197.996 111.968 198.46 111.822 198.844 111.528C199.227 111.23 199.519 110.815 199.718 110.285C199.916 109.755 200.016 109.137 200.016 108.431C200.016 107.726 199.916 107.113 199.718 106.592C199.523 106.071 199.235 105.666 198.851 105.377C198.472 105.089 198.006 104.944 197.452 104.944C196.879 104.944 196.401 105.093 196.017 105.392C195.634 105.69 195.345 106.102 195.151 106.627C194.957 107.153 194.86 107.754 194.86 108.431C194.86 109.113 194.957 109.722 195.151 110.257C195.35 110.787 195.641 111.206 196.024 111.514C196.413 111.817 196.888 111.968 197.452 111.968ZM210.113 114.099C209.02 114.099 208.075 113.872 207.28 113.417C206.489 112.958 205.881 112.309 205.454 111.471C205.028 110.628 204.815 109.636 204.815 108.495C204.815 107.373 205.028 106.388 205.454 105.541C205.885 104.689 206.487 104.026 207.258 103.552C208.03 103.074 208.937 102.835 209.979 102.835C210.651 102.835 211.285 102.944 211.882 103.162C212.483 103.375 213.014 103.706 213.473 104.156C213.937 104.606 214.301 105.179 214.567 105.875C214.832 106.566 214.964 107.39 214.964 108.346V109.135H206.023V107.402H212.5C212.495 106.909 212.389 106.471 212.18 106.088C211.972 105.699 211.681 105.394 211.307 105.171C210.937 104.949 210.506 104.838 210.014 104.838C209.488 104.838 209.027 104.966 208.629 105.221C208.231 105.472 207.921 105.804 207.699 106.216C207.481 106.623 207.37 107.07 207.365 107.558V109.071C207.365 109.705 207.481 110.25 207.713 110.704C207.945 111.154 208.269 111.5 208.686 111.741C209.103 111.978 209.59 112.096 210.149 112.096C210.523 112.096 210.862 112.044 211.165 111.94C211.468 111.831 211.73 111.672 211.953 111.464C212.175 111.256 212.344 110.998 212.457 110.69L214.858 110.96C214.706 111.594 214.417 112.148 213.991 112.622C213.57 113.091 213.03 113.455 212.372 113.716C211.714 113.971 210.961 114.099 210.113 114.099ZM219.71 107.494V113.886H217.139V102.977H219.597V104.831H219.725C219.976 104.22 220.376 103.734 220.925 103.375C221.479 103.015 222.163 102.835 222.977 102.835C223.73 102.835 224.386 102.996 224.945 103.318C225.508 103.64 225.944 104.106 226.252 104.717C226.564 105.328 226.718 106.069 226.713 106.94V113.886H224.142V107.338C224.142 106.608 223.953 106.038 223.574 105.626C223.2 105.214 222.682 105.008 222.019 105.008C221.569 105.008 221.169 105.108 220.818 105.306C220.473 105.501 220.2 105.782 220.002 106.152C219.807 106.521 219.71 106.968 219.71 107.494ZM234.085 114.099C232.996 114.099 232.061 113.86 231.28 113.382C230.503 112.903 229.905 112.243 229.483 111.4C229.066 110.553 228.858 109.577 228.858 108.474C228.858 107.366 229.071 106.388 229.497 105.541C229.923 104.689 230.525 104.026 231.301 103.552C232.083 103.074 233.006 102.835 234.071 102.835C234.957 102.835 235.74 102.998 236.422 103.325C237.109 103.647 237.655 104.104 238.063 104.696C238.47 105.283 238.702 105.969 238.759 106.755H236.301C236.202 106.23 235.965 105.792 235.591 105.441C235.222 105.086 234.727 104.909 234.107 104.909C233.581 104.909 233.119 105.051 232.722 105.335C232.324 105.614 232.014 106.017 231.791 106.542C231.574 107.068 231.465 107.698 231.465 108.431C231.465 109.175 231.574 109.814 231.791 110.349C232.009 110.879 232.315 111.289 232.708 111.578C233.105 111.862 233.572 112.004 234.107 112.004C234.485 112.004 234.824 111.933 235.122 111.791C235.425 111.644 235.679 111.433 235.882 111.159C236.086 110.884 236.226 110.55 236.301 110.157H238.759C238.697 110.929 238.47 111.613 238.077 112.21C237.684 112.802 237.149 113.266 236.472 113.602C235.795 113.933 234.999 114.099 234.085 114.099ZM245.699 114.099C244.606 114.099 243.661 113.872 242.866 113.417C242.075 112.958 241.466 112.309 241.04 111.471C240.614 110.628 240.401 109.636 240.401 108.495C240.401 107.373 240.614 106.388 241.04 105.541C241.471 104.689 242.073 104.026 242.844 103.552C243.616 103.074 244.523 102.835 245.564 102.835C246.237 102.835 246.871 102.944 247.468 103.162C248.069 103.375 248.599 103.706 249.059 104.156C249.523 104.606 249.887 105.179 250.153 105.875C250.418 106.566 250.55 107.39 250.55 108.346V109.135H241.608V107.402H248.086C248.081 106.909 247.974 106.471 247.766 106.088C247.558 105.699 247.267 105.394 246.893 105.171C246.523 104.949 246.092 104.838 245.6 104.838C245.074 104.838 244.613 104.966 244.215 105.221C243.817 105.472 243.507 105.804 243.285 106.216C243.067 106.623 242.956 107.07 242.951 107.558V109.071C242.951 109.705 243.067 110.25 243.299 110.704C243.531 111.154 243.855 111.5 244.272 111.741C244.689 111.978 245.176 112.096 245.735 112.096C246.109 112.096 246.448 112.044 246.751 111.94C247.054 111.831 247.316 111.672 247.539 111.464C247.761 111.256 247.93 110.998 248.043 110.69L250.444 110.96C250.292 111.594 250.003 112.148 249.577 112.622C249.156 113.091 248.616 113.455 247.958 113.716C247.3 113.971 246.547 114.099 245.699 114.099ZM257.8 113.886V99.3405H263.368C264.419 99.3405 265.293 99.5062 265.989 99.8377C266.69 100.164 267.213 100.612 267.558 101.18C267.909 101.748 268.084 102.392 268.084 103.112C268.084 103.704 267.97 104.21 267.743 104.632C267.516 105.048 267.21 105.387 266.827 105.647C266.443 105.908 266.015 106.095 265.541 106.208V106.35C266.057 106.379 266.552 106.537 267.026 106.826C267.504 107.11 267.895 107.513 268.198 108.034C268.501 108.555 268.652 109.184 268.652 109.923C268.652 110.676 268.47 111.353 268.105 111.954C267.741 112.551 267.191 113.022 266.458 113.367C265.724 113.713 264.8 113.886 263.688 113.886H257.8ZM260.435 111.684H263.269C264.225 111.684 264.914 111.502 265.335 111.137C265.762 110.768 265.975 110.295 265.975 109.717C265.975 109.286 265.868 108.898 265.655 108.552C265.442 108.202 265.139 107.927 264.746 107.728C264.353 107.525 263.884 107.423 263.34 107.423H260.435V111.684ZM260.435 105.527H263.041C263.496 105.527 263.905 105.444 264.27 105.278C264.635 105.108 264.921 104.868 265.129 104.561C265.343 104.248 265.449 103.879 265.449 103.453C265.449 102.889 265.25 102.425 264.852 102.061C264.459 101.696 263.875 101.514 263.098 101.514H260.435V105.527ZM277.784 109.298V102.977H280.355V113.886H277.862V111.947H277.748C277.502 112.558 277.097 113.057 276.534 113.446C275.975 113.834 275.286 114.028 274.467 114.028C273.752 114.028 273.12 113.869 272.571 113.552C272.026 113.23 271.6 112.764 271.292 112.153C270.985 111.537 270.831 110.794 270.831 109.923V102.977H273.402V109.525C273.402 110.216 273.591 110.766 273.97 111.173C274.349 111.58 274.846 111.784 275.461 111.784C275.84 111.784 276.207 111.691 276.562 111.507C276.917 111.322 277.209 111.047 277.436 110.683C277.668 110.314 277.784 109.852 277.784 109.298ZM282.999 113.886V102.977H285.57V113.886H282.999ZM284.291 101.429C283.884 101.429 283.534 101.294 283.24 101.024C282.947 100.749 282.8 100.42 282.8 100.037C282.8 99.6483 282.947 99.3192 283.24 99.0493C283.534 98.7747 283.884 98.6374 284.291 98.6374C284.703 98.6374 285.054 98.7747 285.343 99.0493C285.636 99.3192 285.783 99.6483 285.783 100.037C285.783 100.42 285.636 100.749 285.343 101.024C285.054 101.294 284.703 101.429 284.291 101.429ZM290.785 99.3405V113.886H288.214V99.3405H290.785ZM297.477 114.078C296.62 114.078 295.853 113.858 295.176 113.417C294.499 112.977 293.963 112.338 293.57 111.5C293.177 110.662 292.981 109.644 292.981 108.446C292.981 107.233 293.18 106.211 293.578 105.377C293.98 104.539 294.522 103.907 295.204 103.481C295.886 103.05 296.646 102.835 297.484 102.835C298.123 102.835 298.649 102.944 299.061 103.162C299.472 103.375 299.799 103.633 300.041 103.936C300.282 104.234 300.469 104.516 300.602 104.781H300.708V99.3405H303.286V113.886H300.758V112.167H300.602C300.469 112.432 300.277 112.714 300.026 113.012C299.776 113.306 299.444 113.557 299.032 113.765C298.62 113.974 298.102 114.078 297.477 114.078ZM298.194 111.968C298.739 111.968 299.203 111.822 299.586 111.528C299.97 111.23 300.261 110.815 300.46 110.285C300.659 109.755 300.758 109.137 300.758 108.431C300.758 107.726 300.659 107.113 300.46 106.592C300.266 106.071 299.977 105.666 299.593 105.377C299.214 105.089 298.748 104.944 298.194 104.944C297.621 104.944 297.143 105.093 296.759 105.392C296.376 105.69 296.087 106.102 295.893 106.627C295.699 107.153 295.602 107.754 295.602 108.431C295.602 109.113 295.699 109.722 295.893 110.257C296.092 110.787 296.383 111.206 296.767 111.514C297.155 111.817 297.631 111.968 298.194 111.968ZM306.026 113.886V102.977H308.597V113.886H306.026ZM307.319 101.429C306.912 101.429 306.561 101.294 306.268 101.024C305.974 100.749 305.827 100.42 305.827 100.037C305.827 99.6483 305.974 99.3192 306.268 99.0493C306.561 98.7747 306.912 98.6374 307.319 98.6374C307.731 98.6374 308.081 98.7747 308.37 99.0493C308.663 99.3192 308.81 99.6483 308.81 100.037C308.81 100.42 308.663 100.749 308.37 101.024C308.081 101.294 307.731 101.429 307.319 101.429ZM313.812 107.494V113.886H311.241V102.977H313.698V104.831H313.826C314.077 104.22 314.477 103.734 315.026 103.375C315.58 103.015 316.265 102.835 317.079 102.835C317.832 102.835 318.488 102.996 319.046 103.318C319.61 103.64 320.045 104.106 320.353 104.717C320.666 105.328 320.82 106.069 320.815 106.94V113.886H318.244V107.338C318.244 106.608 318.054 106.038 317.676 105.626C317.302 105.214 316.783 105.008 316.12 105.008C315.67 105.008 315.27 105.108 314.92 105.306C314.574 105.501 314.302 105.782 314.103 106.152C313.909 106.521 313.812 106.968 313.812 107.494ZM328.173 118.204C327.249 118.204 326.456 118.079 325.794 117.828C325.131 117.582 324.598 117.25 324.195 116.833C323.793 116.417 323.514 115.955 323.357 115.448L325.673 114.887C325.777 115.1 325.928 115.311 326.127 115.519C326.326 115.733 326.594 115.908 326.93 116.045C327.271 116.187 327.699 116.258 328.215 116.258C328.945 116.258 329.548 116.081 330.026 115.725C330.505 115.375 330.744 114.797 330.744 113.992V111.926H330.616C330.483 112.191 330.289 112.463 330.034 112.742C329.783 113.022 329.449 113.256 329.032 113.446C328.62 113.635 328.102 113.73 327.477 113.73C326.639 113.73 325.879 113.533 325.197 113.14C324.52 112.742 323.98 112.151 323.578 111.365C323.18 110.574 322.981 109.584 322.981 108.396C322.981 107.198 323.18 106.187 323.578 105.363C323.98 104.535 324.522 103.907 325.204 103.481C325.886 103.05 326.646 102.835 327.484 102.835C328.123 102.835 328.649 102.944 329.061 103.162C329.477 103.375 329.809 103.633 330.055 103.936C330.301 104.234 330.488 104.516 330.616 104.781H330.758V102.977H333.294V114.064C333.294 114.996 333.071 115.768 332.626 116.379C332.181 116.99 331.572 117.447 330.801 117.75C330.029 118.053 329.153 118.204 328.173 118.204ZM328.194 111.713C328.739 111.713 329.203 111.58 329.586 111.315C329.97 111.05 330.261 110.669 330.46 110.171C330.659 109.674 330.758 109.078 330.758 108.382C330.758 107.695 330.659 107.094 330.46 106.578C330.266 106.062 329.977 105.662 329.593 105.377C329.214 105.089 328.748 104.944 328.194 104.944C327.621 104.944 327.143 105.093 326.759 105.392C326.376 105.69 326.087 106.099 325.893 106.62C325.699 107.136 325.602 107.724 325.602 108.382C325.602 109.049 325.699 109.634 325.893 110.136C326.092 110.633 326.383 111.021 326.767 111.301C327.155 111.575 327.631 111.713 328.194 111.713Z" fill="#22222A"/>
<rect x="0.5" y="85.386" width="473" height="43" rx="3.5" stroke="#5FB34E"/>
<path d="M233 152.886L236.99 156.886L237 140.886V156.886L241 152.886" stroke="#5FB34E" stroke-linecap="round" stroke-linejoin="round"/>
<rect x="0.5" y="169.386" width="473" height="43" rx="3.5" fill="#F6FFF2"/>
<path d="M156.325 197.886V183.341H161.78C162.897 183.341 163.835 183.535 164.592 183.923C165.355 184.311 165.93 184.856 166.318 185.556C166.711 186.252 166.908 187.064 166.908 187.992C166.908 188.925 166.709 189.735 166.311 190.421C165.918 191.103 165.338 191.631 164.571 192.005C163.804 192.375 162.862 192.559 161.744 192.559H157.859V190.372H161.389C162.043 190.372 162.578 190.282 162.994 190.102C163.411 189.917 163.719 189.65 163.918 189.299C164.121 188.944 164.223 188.509 164.223 187.992C164.223 187.476 164.121 187.036 163.918 186.671C163.714 186.302 163.404 186.023 162.987 185.833C162.571 185.639 162.033 185.542 161.375 185.542H158.96V197.886H156.325ZM163.839 191.295L167.44 197.886H164.5L160.963 191.295H163.839ZM173.893 198.099C172.799 198.099 171.854 197.872 171.059 197.417C170.268 196.958 169.66 196.309 169.234 195.471C168.808 194.628 168.594 193.636 168.594 192.495C168.594 191.373 168.808 190.388 169.234 189.541C169.665 188.689 170.266 188.026 171.038 187.552C171.809 187.074 172.716 186.835 173.758 186.835C174.43 186.835 175.065 186.944 175.661 187.162C176.263 187.375 176.793 187.706 177.252 188.156C177.716 188.606 178.081 189.179 178.346 189.875C178.611 190.566 178.744 191.39 178.744 192.346V193.135H169.802V191.402H176.279C176.274 190.909 176.168 190.471 175.96 190.088C175.751 189.699 175.46 189.394 175.086 189.171C174.717 188.949 174.286 188.838 173.793 188.838C173.268 188.838 172.806 188.966 172.408 189.221C172.011 189.472 171.701 189.804 171.478 190.216C171.26 190.623 171.149 191.07 171.144 191.558V193.071C171.144 193.705 171.26 194.25 171.492 194.704C171.724 195.154 172.049 195.5 172.465 195.741C172.882 195.978 173.37 196.096 173.928 196.096C174.302 196.096 174.641 196.044 174.944 195.94C175.247 195.831 175.51 195.672 175.732 195.464C175.955 195.256 176.123 194.998 176.237 194.69L178.637 194.96C178.486 195.594 178.197 196.148 177.771 196.622C177.349 197.091 176.809 197.455 176.151 197.716C175.493 197.971 174.74 198.099 173.893 198.099ZM183.49 183.341V197.886H180.919V183.341H183.49ZM190.963 198.099C189.869 198.099 188.925 197.872 188.129 197.417C187.339 196.958 186.73 196.309 186.304 195.471C185.878 194.628 185.665 193.636 185.665 192.495C185.665 191.373 185.878 190.388 186.304 189.541C186.735 188.689 187.336 188.026 188.108 187.552C188.88 187.074 189.786 186.835 190.828 186.835C191.5 186.835 192.135 186.944 192.732 187.162C193.333 187.375 193.863 187.706 194.322 188.156C194.786 188.606 195.151 189.179 195.416 189.875C195.681 190.566 195.814 191.39 195.814 192.346V193.135H186.872V191.402H193.349C193.345 190.909 193.238 190.471 193.03 190.088C192.821 189.699 192.53 189.394 192.156 189.171C191.787 188.949 191.356 188.838 190.864 188.838C190.338 188.838 189.876 188.966 189.479 189.221C189.081 189.472 188.771 189.804 188.548 190.216C188.33 190.623 188.219 191.07 188.214 191.558V193.071C188.214 193.705 188.33 194.25 188.562 194.704C188.795 195.154 189.119 195.5 189.536 195.741C189.952 195.978 190.44 196.096 190.999 196.096C191.373 196.096 191.711 196.044 192.014 195.94C192.317 195.831 192.58 195.672 192.803 195.464C193.025 195.256 193.193 194.998 193.307 194.69L195.707 194.96C195.556 195.594 195.267 196.148 194.841 196.622C194.42 197.091 193.88 197.455 193.222 197.716C192.563 197.971 191.811 198.099 190.963 198.099ZM201.128 198.106C200.437 198.106 199.814 197.983 199.26 197.737C198.711 197.486 198.275 197.117 197.953 196.629C197.636 196.141 197.478 195.54 197.478 194.825C197.478 194.209 197.591 193.7 197.819 193.298C198.046 192.895 198.356 192.573 198.749 192.332C199.142 192.091 199.585 191.908 200.077 191.785C200.574 191.657 201.088 191.565 201.618 191.508C202.257 191.442 202.776 191.383 203.174 191.331C203.571 191.274 203.86 191.189 204.04 191.075C204.225 190.957 204.317 190.774 204.317 190.528V190.485C204.317 189.95 204.158 189.536 203.841 189.242C203.524 188.949 203.067 188.802 202.471 188.802C201.841 188.802 201.341 188.939 200.972 189.214C200.607 189.489 200.361 189.813 200.233 190.187L197.833 189.846C198.022 189.183 198.335 188.629 198.77 188.184C199.206 187.734 199.739 187.398 200.368 187.176C200.998 186.948 201.694 186.835 202.456 186.835C202.982 186.835 203.505 186.896 204.026 187.019C204.547 187.143 205.023 187.346 205.453 187.63C205.884 187.91 206.23 188.291 206.49 188.774C206.756 189.257 206.888 189.86 206.888 190.585V197.886H204.417V196.387H204.331C204.175 196.69 203.955 196.974 203.671 197.24C203.391 197.5 203.039 197.711 202.613 197.872C202.191 198.028 201.696 198.106 201.128 198.106ZM201.796 196.217C202.312 196.217 202.759 196.115 203.138 195.912C203.517 195.703 203.808 195.429 204.012 195.088C204.22 194.747 204.324 194.375 204.324 193.973V192.687C204.244 192.753 204.106 192.815 203.912 192.872C203.723 192.929 203.51 192.978 203.273 193.021C203.036 193.064 202.802 193.101 202.57 193.135C202.338 193.168 202.137 193.196 201.966 193.22C201.583 193.272 201.239 193.357 200.936 193.475C200.633 193.594 200.394 193.76 200.219 193.973C200.044 194.181 199.956 194.451 199.956 194.782C199.956 195.256 200.129 195.613 200.475 195.855C200.82 196.096 201.261 196.217 201.796 196.217ZM218.096 189.86L215.752 190.116C215.685 189.879 215.569 189.657 215.404 189.448C215.243 189.24 215.025 189.072 214.75 188.944C214.476 188.816 214.14 188.752 213.742 188.752C213.207 188.752 212.757 188.868 212.392 189.1C212.033 189.332 211.855 189.633 211.86 190.002C211.855 190.32 211.971 190.578 212.208 190.777C212.449 190.975 212.847 191.139 213.401 191.267L215.262 191.664C216.294 191.887 217.061 192.24 217.563 192.723C218.069 193.206 218.325 193.838 218.33 194.619C218.325 195.305 218.124 195.912 217.726 196.437C217.333 196.958 216.786 197.365 216.086 197.659C215.385 197.952 214.58 198.099 213.671 198.099C212.336 198.099 211.261 197.82 210.446 197.261C209.632 196.698 209.147 195.914 208.99 194.91L211.498 194.669C211.611 195.161 211.853 195.533 212.222 195.784C212.591 196.035 213.072 196.16 213.664 196.16C214.275 196.16 214.765 196.035 215.134 195.784C215.508 195.533 215.695 195.223 215.695 194.853C215.695 194.541 215.574 194.283 215.333 194.079C215.096 193.876 214.727 193.719 214.225 193.61L212.364 193.22C211.318 193.002 210.543 192.635 210.042 192.119C209.54 191.598 209.291 190.94 209.296 190.144C209.291 189.472 209.473 188.89 209.843 188.397C210.217 187.9 210.735 187.517 211.398 187.247C212.066 186.972 212.835 186.835 213.706 186.835C214.985 186.835 215.991 187.107 216.725 187.652C217.463 188.196 217.92 188.932 218.096 189.86ZM225.279 198.099C224.186 198.099 223.241 197.872 222.446 197.417C221.655 196.958 221.047 196.309 220.62 195.471C220.194 194.628 219.981 193.636 219.981 192.495C219.981 191.373 220.194 190.388 220.62 189.541C221.051 188.689 221.653 188.026 222.424 187.552C223.196 187.074 224.103 186.835 225.145 186.835C225.817 186.835 226.451 186.944 227.048 187.162C227.649 187.375 228.18 187.706 228.639 188.156C229.103 188.606 229.467 189.179 229.733 189.875C229.998 190.566 230.13 191.39 230.13 192.346V193.135H221.189V191.402H227.666C227.661 190.909 227.555 190.471 227.346 190.088C227.138 189.699 226.847 189.394 226.473 189.171C226.103 188.949 225.672 188.838 225.18 188.838C224.654 188.838 224.193 188.966 223.795 189.221C223.397 189.472 223.087 189.804 222.865 190.216C222.647 190.623 222.536 191.07 222.531 191.558V193.071C222.531 193.705 222.647 194.25 222.879 194.704C223.111 195.154 223.435 195.5 223.852 195.741C224.269 195.978 224.756 196.096 225.315 196.096C225.689 196.096 226.028 196.044 226.331 195.94C226.634 195.831 226.896 195.672 227.119 195.464C227.342 195.256 227.51 194.998 227.623 194.69L230.024 194.96C229.872 195.594 229.583 196.148 229.157 196.622C228.736 197.091 228.196 197.455 227.538 197.716C226.88 197.971 226.127 198.099 225.279 198.099ZM245.285 187.339C245.219 186.719 244.939 186.236 244.447 185.89C243.959 185.545 243.325 185.372 242.543 185.372C241.994 185.372 241.523 185.455 241.13 185.62C240.737 185.786 240.436 186.011 240.228 186.295C240.02 186.579 239.913 186.903 239.908 187.268C239.908 187.571 239.977 187.834 240.114 188.056C240.256 188.279 240.448 188.468 240.69 188.625C240.931 188.776 241.199 188.904 241.492 189.008C241.786 189.112 242.082 189.2 242.38 189.271L243.744 189.612C244.293 189.74 244.821 189.912 245.327 190.13C245.839 190.348 246.296 190.623 246.698 190.954C247.105 191.286 247.427 191.686 247.664 192.154C247.901 192.623 248.019 193.172 248.019 193.802C248.019 194.654 247.801 195.405 247.366 196.054C246.93 196.698 246.3 197.202 245.477 197.566C244.657 197.926 243.665 198.106 242.501 198.106C241.369 198.106 240.387 197.931 239.553 197.581C238.725 197.23 238.076 196.719 237.607 196.046C237.143 195.374 236.892 194.555 236.854 193.589H239.447C239.485 194.096 239.641 194.517 239.915 194.853C240.19 195.189 240.548 195.44 240.988 195.606C241.433 195.772 241.93 195.855 242.479 195.855C243.052 195.855 243.554 195.769 243.985 195.599C244.421 195.424 244.762 195.182 245.008 194.875C245.254 194.562 245.379 194.198 245.384 193.781C245.379 193.402 245.268 193.09 245.05 192.843C244.833 192.592 244.527 192.384 244.134 192.218C243.746 192.048 243.291 191.896 242.771 191.764L241.116 191.338C239.918 191.03 238.971 190.564 238.275 189.939C237.584 189.309 237.238 188.473 237.238 187.431C237.238 186.574 237.47 185.824 237.934 185.18C238.403 184.536 239.04 184.037 239.844 183.681C240.649 183.322 241.561 183.142 242.579 183.142C243.611 183.142 244.515 183.322 245.292 183.681C246.073 184.037 246.686 184.531 247.131 185.166C247.576 185.796 247.806 186.52 247.82 187.339H245.285ZM255.702 186.977V188.966H249.431V186.977H255.702ZM250.979 184.363H253.55V194.605C253.55 194.95 253.602 195.216 253.706 195.4C253.815 195.58 253.957 195.703 254.132 195.769C254.308 195.836 254.502 195.869 254.715 195.869C254.876 195.869 255.023 195.857 255.155 195.833C255.292 195.81 255.397 195.788 255.468 195.769L255.901 197.779C255.764 197.827 255.567 197.879 255.311 197.936C255.06 197.992 254.753 198.026 254.388 198.035C253.744 198.054 253.164 197.957 252.648 197.744C252.132 197.526 251.722 197.19 251.419 196.735C251.121 196.281 250.974 195.713 250.979 195.031V184.363ZM257.852 197.886V186.977H260.345V188.795H260.459C260.658 188.165 260.999 187.68 261.482 187.339C261.969 186.993 262.526 186.821 263.151 186.821C263.293 186.821 263.451 186.828 263.626 186.842C263.806 186.851 263.955 186.868 264.074 186.892V189.257C263.965 189.219 263.792 189.186 263.555 189.157C263.323 189.124 263.098 189.108 262.881 189.108C262.412 189.108 261.991 189.209 261.616 189.413C261.247 189.612 260.956 189.889 260.743 190.244C260.53 190.599 260.423 191.009 260.423 191.473V197.886H257.852ZM268.726 198.106C268.035 198.106 267.412 197.983 266.858 197.737C266.309 197.486 265.873 197.117 265.551 196.629C265.234 196.141 265.075 195.54 265.075 194.825C265.075 194.209 265.189 193.7 265.416 193.298C265.643 192.895 265.954 192.573 266.347 192.332C266.74 192.091 267.182 191.908 267.675 191.785C268.172 191.657 268.686 191.565 269.216 191.508C269.855 191.442 270.374 191.383 270.771 191.331C271.169 191.274 271.458 191.189 271.638 191.075C271.822 190.957 271.915 190.774 271.915 190.528V190.485C271.915 189.95 271.756 189.536 271.439 189.242C271.122 188.949 270.665 188.802 270.068 188.802C269.438 188.802 268.939 188.939 268.57 189.214C268.205 189.489 267.959 189.813 267.831 190.187L265.43 189.846C265.62 189.183 265.932 188.629 266.368 188.184C266.804 187.734 267.336 187.398 267.966 187.176C268.596 186.948 269.292 186.835 270.054 186.835C270.58 186.835 271.103 186.896 271.624 187.019C272.144 187.143 272.62 187.346 273.051 187.63C273.482 187.91 273.828 188.291 274.088 188.774C274.353 189.257 274.486 189.86 274.486 190.585V197.886H272.014V196.387H271.929C271.773 196.69 271.553 196.974 271.268 197.24C270.989 197.5 270.636 197.711 270.21 197.872C269.789 198.028 269.294 198.106 268.726 198.106ZM269.393 196.217C269.91 196.217 270.357 196.115 270.736 195.912C271.115 195.703 271.406 195.429 271.609 195.088C271.818 194.747 271.922 194.375 271.922 193.973V192.687C271.841 192.753 271.704 192.815 271.51 192.872C271.321 192.929 271.107 192.978 270.871 193.021C270.634 193.064 270.4 193.101 270.168 193.135C269.936 193.168 269.734 193.196 269.564 193.22C269.18 193.272 268.837 193.357 268.534 193.475C268.231 193.594 267.992 193.76 267.817 193.973C267.642 194.181 267.554 194.451 267.554 194.782C267.554 195.256 267.727 195.613 268.072 195.855C268.418 196.096 268.858 196.217 269.393 196.217ZM282.518 186.977V188.966H276.247V186.977H282.518ZM277.795 184.363H280.366V194.605C280.366 194.95 280.419 195.216 280.523 195.4C280.632 195.58 280.774 195.703 280.949 195.769C281.124 195.836 281.318 195.869 281.531 195.869C281.692 195.869 281.839 195.857 281.972 195.833C282.109 195.81 282.213 195.788 282.284 195.769L282.717 197.779C282.58 197.827 282.384 197.879 282.128 197.936C281.877 197.992 281.569 198.026 281.205 198.035C280.561 198.054 279.981 197.957 279.464 197.744C278.948 197.526 278.539 197.19 278.236 196.735C277.938 196.281 277.791 195.713 277.795 195.031V184.363ZM289.381 198.099C288.287 198.099 287.343 197.872 286.547 197.417C285.757 196.958 285.148 196.309 284.722 195.471C284.296 194.628 284.083 193.636 284.083 192.495C284.083 191.373 284.296 190.388 284.722 189.541C285.153 188.689 285.754 188.026 286.526 187.552C287.298 187.074 288.204 186.835 289.246 186.835C289.918 186.835 290.553 186.944 291.15 187.162C291.751 187.375 292.281 187.706 292.74 188.156C293.204 188.606 293.569 189.179 293.834 189.875C294.099 190.566 294.232 191.39 294.232 192.346V193.135H285.29V191.402H291.767C291.763 190.909 291.656 190.471 291.448 190.088C291.239 189.699 290.948 189.394 290.574 189.171C290.205 188.949 289.774 188.838 289.282 188.838C288.756 188.838 288.294 188.966 287.897 189.221C287.499 189.472 287.189 189.804 286.966 190.216C286.748 190.623 286.637 191.07 286.632 191.558V193.071C286.632 193.705 286.748 194.25 286.98 194.704C287.212 195.154 287.537 195.5 287.953 195.741C288.37 195.978 288.858 196.096 289.417 196.096C289.791 196.096 290.129 196.044 290.432 195.94C290.735 195.831 290.998 195.672 291.221 195.464C291.443 195.256 291.611 194.998 291.725 194.69L294.125 194.96C293.974 195.594 293.685 196.148 293.259 196.622C292.837 197.091 292.298 197.455 291.64 197.716C290.981 197.971 290.229 198.099 289.381 198.099ZM301.151 202.204C300.228 202.204 299.435 202.079 298.772 201.828C298.109 201.582 297.576 201.25 297.174 200.833C296.772 200.417 296.492 199.955 296.336 199.448L298.651 198.887C298.755 199.1 298.907 199.311 299.106 199.519C299.305 199.733 299.572 199.908 299.908 200.045C300.249 200.187 300.678 200.258 301.194 200.258C301.923 200.258 302.527 200.081 303.005 199.725C303.483 199.375 303.722 198.797 303.722 197.992V195.926H303.594C303.462 196.191 303.268 196.463 303.012 196.742C302.761 197.022 302.427 197.256 302.011 197.446C301.599 197.635 301.08 197.73 300.455 197.73C299.617 197.73 298.857 197.533 298.175 197.14C297.498 196.742 296.959 196.151 296.556 195.365C296.158 194.574 295.96 193.584 295.96 192.396C295.96 191.198 296.158 190.187 296.556 189.363C296.959 188.535 297.501 187.907 298.183 187.481C298.864 187.05 299.624 186.835 300.462 186.835C301.102 186.835 301.627 186.944 302.039 187.162C302.456 187.375 302.787 187.633 303.033 187.936C303.28 188.234 303.467 188.516 303.594 188.781H303.737V186.977H306.272V198.064C306.272 198.996 306.049 199.768 305.604 200.379C305.159 200.99 304.551 201.447 303.779 201.75C303.007 202.053 302.131 202.204 301.151 202.204ZM301.173 195.713C301.717 195.713 302.181 195.58 302.565 195.315C302.948 195.05 303.239 194.669 303.438 194.171C303.637 193.674 303.737 193.078 303.737 192.382C303.737 191.695 303.637 191.094 303.438 190.578C303.244 190.062 302.955 189.662 302.572 189.377C302.193 189.089 301.727 188.944 301.173 188.944C300.6 188.944 300.121 189.093 299.738 189.392C299.354 189.69 299.066 190.099 298.871 190.62C298.677 191.136 298.58 191.724 298.58 192.382C298.58 193.049 298.677 193.634 298.871 194.136C299.07 194.633 299.362 195.021 299.745 195.301C300.133 195.575 300.609 195.713 301.173 195.713ZM310.505 201.977C310.155 201.977 309.83 201.948 309.532 201.892C309.238 201.84 309.004 201.778 308.829 201.707L309.425 199.704C309.799 199.813 310.133 199.865 310.427 199.86C310.72 199.856 310.978 199.763 311.201 199.583C311.428 199.408 311.62 199.115 311.776 198.703L311.996 198.113L308.04 186.977H310.768L313.282 195.216H313.396L315.917 186.977H318.651L314.283 199.207C314.08 199.785 313.81 200.279 313.474 200.691C313.138 201.108 312.726 201.425 312.238 201.643C311.755 201.866 311.177 201.977 310.505 201.977Z" fill="#22222A"/>
<rect x="0.5" y="169.386" width="473" height="43" rx="3.5" stroke="#5FB34E"/>
<path d="M233 236.886L236.99 240.886L237 224.886V240.886L241 236.886" stroke="#5FB34E" stroke-linecap="round" stroke-linejoin="round"/>
<rect x="0.5" y="253.386" width="473" height="43" rx="3.5" fill="#F6FFF2"/>
<path d="M137.122 269.549V267.341H148.727V269.549H144.231V281.886H141.617V269.549H137.122ZM152.505 282.106C151.814 282.106 151.191 281.983 150.637 281.737C150.088 281.486 149.652 281.117 149.33 280.629C149.013 280.141 148.855 279.54 148.855 278.825C148.855 278.209 148.968 277.7 149.195 277.298C149.423 276.895 149.733 276.573 150.126 276.332C150.519 276.091 150.962 275.908 151.454 275.785C151.951 275.657 152.465 275.565 152.995 275.508C153.634 275.442 154.153 275.383 154.551 275.331C154.948 275.274 155.237 275.189 155.417 275.075C155.602 274.957 155.694 274.774 155.694 274.528V274.485C155.694 273.95 155.535 273.536 155.218 273.243C154.901 272.949 154.444 272.802 153.847 272.802C153.218 272.802 152.718 272.939 152.349 273.214C151.984 273.489 151.738 273.813 151.61 274.187L149.21 273.846C149.399 273.183 149.712 272.629 150.147 272.184C150.583 271.734 151.115 271.398 151.745 271.176C152.375 270.948 153.071 270.835 153.833 270.835C154.359 270.835 154.882 270.896 155.403 271.02C155.924 271.143 156.4 271.346 156.83 271.63C157.261 271.91 157.607 272.291 157.867 272.774C158.133 273.257 158.265 273.86 158.265 274.585V281.886H155.794V280.387H155.708C155.552 280.69 155.332 280.975 155.048 281.24C154.768 281.5 154.416 281.711 153.99 281.872C153.568 282.028 153.073 282.106 152.505 282.106ZM153.173 280.217C153.689 280.217 154.136 280.115 154.515 279.912C154.894 279.703 155.185 279.429 155.389 279.088C155.597 278.747 155.701 278.375 155.701 277.973V276.687C155.621 276.753 155.483 276.815 155.289 276.872C155.1 276.929 154.887 276.978 154.65 277.021C154.413 277.064 154.179 277.101 153.947 277.135C153.715 277.168 153.514 277.196 153.343 277.22C152.96 277.272 152.616 277.357 152.313 277.475C152.01 277.594 151.771 277.76 151.596 277.973C151.421 278.181 151.333 278.451 151.333 278.782C151.333 279.256 151.506 279.613 151.852 279.855C152.197 280.096 152.638 280.217 153.173 280.217ZM160.85 281.886V270.977H163.343V272.795H163.457C163.656 272.165 163.997 271.68 164.48 271.339C164.967 270.993 165.524 270.821 166.149 270.821C166.291 270.821 166.449 270.828 166.624 270.842C166.804 270.851 166.954 270.868 167.072 270.892V273.257C166.963 273.219 166.79 273.186 166.553 273.157C166.321 273.124 166.097 273.108 165.879 273.108C165.41 273.108 164.989 273.209 164.615 273.413C164.245 273.612 163.954 273.889 163.741 274.244C163.528 274.599 163.421 275.009 163.421 275.473V281.886H160.85ZM173.075 286.204C172.152 286.204 171.359 286.079 170.696 285.828C170.033 285.582 169.5 285.25 169.098 284.833C168.695 284.417 168.416 283.955 168.26 283.448L170.575 282.887C170.679 283.1 170.831 283.311 171.03 283.52C171.229 283.733 171.496 283.908 171.832 284.045C172.173 284.187 172.602 284.258 173.118 284.258C173.847 284.258 174.451 284.081 174.929 283.725C175.407 283.375 175.646 282.797 175.646 281.993V279.926H175.518C175.386 280.191 175.192 280.463 174.936 280.743C174.685 281.022 174.351 281.256 173.934 281.446C173.523 281.635 173.004 281.73 172.379 281.73C171.541 281.73 170.781 281.533 170.099 281.14C169.422 280.743 168.882 280.151 168.48 279.365C168.082 278.574 167.883 277.584 167.883 276.396C167.883 275.198 168.082 274.187 168.48 273.363C168.882 272.535 169.425 271.907 170.106 271.481C170.788 271.05 171.548 270.835 172.386 270.835C173.025 270.835 173.551 270.944 173.963 271.162C174.38 271.375 174.711 271.633 174.957 271.936C175.203 272.234 175.39 272.516 175.518 272.781H175.66V270.977H178.196V282.064C178.196 282.996 177.973 283.768 177.528 284.379C177.083 284.99 176.475 285.447 175.703 285.75C174.931 286.053 174.055 286.204 173.075 286.204ZM173.096 279.713C173.641 279.713 174.105 279.58 174.488 279.315C174.872 279.05 175.163 278.669 175.362 278.171C175.561 277.674 175.66 277.078 175.66 276.382C175.66 275.695 175.561 275.094 175.362 274.578C175.168 274.062 174.879 273.662 174.496 273.377C174.117 273.089 173.65 272.944 173.096 272.944C172.523 272.944 172.045 273.093 171.662 273.392C171.278 273.69 170.989 274.1 170.795 274.62C170.601 275.136 170.504 275.724 170.504 276.382C170.504 277.049 170.601 277.634 170.795 278.136C170.994 278.633 171.285 279.021 171.669 279.301C172.057 279.575 172.533 279.713 173.096 279.713ZM185.66 282.099C184.567 282.099 183.622 281.872 182.827 281.417C182.036 280.958 181.427 280.309 181.001 279.471C180.575 278.628 180.362 277.636 180.362 276.495C180.362 275.373 180.575 274.388 181.001 273.541C181.432 272.689 182.033 272.026 182.805 271.552C183.577 271.074 184.484 270.835 185.525 270.835C186.198 270.835 186.832 270.944 187.429 271.162C188.03 271.375 188.56 271.706 189.02 272.156C189.484 272.606 189.848 273.179 190.113 273.875C190.379 274.566 190.511 275.39 190.511 276.346V277.135H181.569V275.402H188.047C188.042 274.909 187.935 274.471 187.727 274.088C187.519 273.699 187.228 273.394 186.854 273.171C186.484 272.949 186.053 272.838 185.561 272.838C185.035 272.838 184.574 272.966 184.176 273.221C183.778 273.472 183.468 273.804 183.246 274.216C183.028 274.623 182.916 275.07 182.912 275.558V277.071C182.912 277.705 183.028 278.25 183.26 278.704C183.492 279.154 183.816 279.5 184.233 279.741C184.649 279.978 185.137 280.096 185.696 280.096C186.07 280.096 186.408 280.044 186.711 279.94C187.015 279.831 187.277 279.672 187.5 279.464C187.722 279.256 187.89 278.998 188.004 278.69L190.405 278.96C190.253 279.594 189.964 280.148 189.538 280.622C189.117 281.091 188.577 281.455 187.919 281.716C187.261 281.971 186.508 282.099 185.66 282.099ZM198.134 270.977V272.966H191.862V270.977H198.134ZM193.411 268.363H195.982V278.605C195.982 278.95 196.034 279.216 196.138 279.4C196.247 279.58 196.389 279.703 196.564 279.77C196.739 279.836 196.933 279.869 197.146 279.869C197.307 279.869 197.454 279.857 197.587 279.833C197.724 279.81 197.828 279.788 197.899 279.77L198.333 281.779C198.195 281.827 197.999 281.879 197.743 281.936C197.492 281.993 197.184 282.026 196.82 282.035C196.176 282.054 195.596 281.957 195.08 281.744C194.564 281.526 194.154 281.19 193.851 280.735C193.553 280.281 193.406 279.713 193.411 279.031V268.363ZM207.993 267.341V281.886H205.358V267.341H207.993ZM213.304 275.494V281.886H210.733V270.977H213.191V272.831H213.318C213.569 272.22 213.969 271.734 214.519 271.375C215.073 271.015 215.757 270.835 216.571 270.835C217.324 270.835 217.98 270.996 218.539 271.318C219.102 271.64 219.538 272.106 219.845 272.717C220.158 273.328 220.312 274.069 220.307 274.94V281.886H217.736V275.338C217.736 274.609 217.547 274.038 217.168 273.626C216.794 273.214 216.275 273.008 215.612 273.008C215.163 273.008 214.762 273.108 214.412 273.306C214.066 273.501 213.794 273.782 213.595 274.152C213.401 274.521 213.304 274.968 213.304 275.494ZM228.446 270.977V272.966H221.997V270.977H228.446ZM223.61 281.886V269.947C223.61 269.213 223.761 268.602 224.064 268.115C224.372 267.627 224.784 267.262 225.3 267.021C225.816 266.779 226.389 266.659 227.019 266.659C227.464 266.659 227.859 266.694 228.205 266.765C228.55 266.836 228.806 266.9 228.972 266.957L228.46 268.946C228.352 268.913 228.214 268.879 228.048 268.846C227.883 268.808 227.698 268.789 227.494 268.789C227.016 268.789 226.678 268.905 226.479 269.137C226.285 269.365 226.188 269.691 226.188 270.118V281.886H223.61ZM230.46 281.886V270.977H232.953V272.795H233.066C233.265 272.165 233.606 271.68 234.089 271.339C234.577 270.993 235.133 270.821 235.758 270.821C235.9 270.821 236.059 270.828 236.234 270.842C236.414 270.851 236.563 270.868 236.681 270.892V273.257C236.572 273.219 236.4 273.186 236.163 273.157C235.931 273.124 235.706 273.108 235.488 273.108C235.019 273.108 234.598 273.209 234.224 273.413C233.855 273.612 233.563 273.889 233.35 274.244C233.137 274.599 233.031 275.009 233.031 275.473V281.886H230.46ZM241.333 282.106C240.642 282.106 240.019 281.983 239.465 281.737C238.916 281.486 238.481 281.117 238.159 280.629C237.841 280.141 237.683 279.54 237.683 278.825C237.683 278.209 237.796 277.7 238.024 277.298C238.251 276.895 238.561 276.573 238.954 276.332C239.347 276.091 239.79 275.908 240.282 275.785C240.779 275.657 241.293 275.565 241.823 275.508C242.463 275.442 242.981 275.383 243.379 275.331C243.776 275.274 244.065 275.189 244.245 275.075C244.43 274.957 244.522 274.774 244.522 274.528V274.485C244.522 273.95 244.364 273.536 244.046 273.243C243.729 272.949 243.272 272.802 242.676 272.802C242.046 272.802 241.546 272.939 241.177 273.214C240.812 273.489 240.566 273.813 240.438 274.187L238.038 273.846C238.227 273.183 238.54 272.629 238.975 272.184C239.411 271.734 239.944 271.398 240.573 271.176C241.203 270.948 241.899 270.835 242.661 270.835C243.187 270.835 243.71 270.896 244.231 271.02C244.752 271.143 245.228 271.346 245.659 271.63C246.089 271.91 246.435 272.291 246.695 272.774C246.961 273.257 247.093 273.86 247.093 274.585V281.886H244.622V280.387H244.536C244.38 280.69 244.16 280.975 243.876 281.24C243.597 281.5 243.244 281.711 242.818 281.872C242.396 282.028 241.901 282.106 241.333 282.106ZM242.001 280.217C242.517 280.217 242.964 280.115 243.343 279.912C243.722 279.703 244.013 279.429 244.217 279.088C244.425 278.747 244.529 278.375 244.529 277.973V276.687C244.449 276.753 244.311 276.815 244.117 276.872C243.928 276.929 243.715 276.978 243.478 277.021C243.241 277.064 243.007 277.101 242.775 277.135C242.543 277.168 242.342 277.196 242.171 277.22C241.788 277.272 241.445 277.357 241.142 277.475C240.838 277.594 240.599 277.76 240.424 277.973C240.249 278.181 240.161 278.451 240.161 278.782C240.161 279.256 240.334 279.613 240.68 279.855C241.026 280.096 241.466 280.217 242.001 280.217ZM258.301 273.86L255.957 274.116C255.891 273.879 255.775 273.657 255.609 273.448C255.448 273.24 255.23 273.072 254.955 272.944C254.681 272.816 254.345 272.752 253.947 272.752C253.412 272.752 252.962 272.868 252.597 273.1C252.238 273.332 252.06 273.633 252.065 274.002C252.06 274.32 252.176 274.578 252.413 274.777C252.654 274.975 253.052 275.139 253.606 275.267L255.467 275.664C256.499 275.887 257.266 276.24 257.768 276.723C258.275 277.206 258.53 277.838 258.535 278.619C258.53 279.305 258.329 279.912 257.931 280.437C257.538 280.958 256.991 281.365 256.291 281.659C255.59 281.952 254.785 282.099 253.876 282.099C252.541 282.099 251.466 281.82 250.651 281.261C249.837 280.698 249.352 279.914 249.195 278.91L251.703 278.669C251.816 279.161 252.058 279.533 252.427 279.784C252.796 280.035 253.277 280.16 253.869 280.16C254.48 280.16 254.97 280.035 255.339 279.784C255.713 279.533 255.9 279.223 255.9 278.853C255.9 278.541 255.779 278.283 255.538 278.079C255.301 277.876 254.932 277.719 254.43 277.61L252.569 277.22C251.523 277.002 250.749 276.635 250.247 276.119C249.745 275.598 249.496 274.94 249.501 274.145C249.496 273.472 249.678 272.89 250.048 272.397C250.422 271.9 250.94 271.517 251.603 271.247C252.271 270.972 253.04 270.835 253.911 270.835C255.19 270.835 256.196 271.107 256.93 271.652C257.669 272.196 258.125 272.932 258.301 273.86ZM266.102 270.977V272.966H259.831V270.977H266.102ZM261.379 268.363H263.95V278.605C263.95 278.95 264.003 279.216 264.107 279.4C264.216 279.58 264.358 279.703 264.533 279.77C264.708 279.836 264.902 279.869 265.115 279.869C265.276 279.869 265.423 279.857 265.556 279.833C265.693 279.81 265.797 279.788 265.868 279.77L266.301 281.779C266.164 281.827 265.968 281.879 265.712 281.936C265.461 281.993 265.153 282.026 264.789 282.035C264.145 282.054 263.565 281.957 263.048 281.744C262.532 281.526 262.123 281.19 261.82 280.735C261.521 280.281 261.375 279.713 261.379 279.031V268.363ZM268.253 281.886V270.977H270.746V272.795H270.859C271.058 272.165 271.399 271.68 271.882 271.339C272.37 270.993 272.926 270.821 273.551 270.821C273.693 270.821 273.852 270.828 274.027 270.842C274.207 270.851 274.356 270.868 274.474 270.892V273.257C274.365 273.219 274.193 273.186 273.956 273.157C273.724 273.124 273.499 273.108 273.281 273.108C272.812 273.108 272.391 273.209 272.017 273.413C271.648 273.612 271.356 273.889 271.143 274.244C270.93 274.599 270.824 275.009 270.824 275.473V281.886H268.253ZM283.135 277.298V270.977H285.706V281.886H283.214V279.947H283.1C282.854 280.558 282.449 281.057 281.885 281.446C281.327 281.834 280.638 282.028 279.819 282.028C279.104 282.028 278.472 281.869 277.922 281.552C277.378 281.23 276.952 280.764 276.644 280.153C276.336 279.538 276.182 278.794 276.182 277.923V270.977H278.753V277.525C278.753 278.216 278.943 278.766 279.322 279.173C279.7 279.58 280.198 279.784 280.813 279.784C281.192 279.784 281.559 279.691 281.914 279.507C282.269 279.322 282.56 279.047 282.787 278.683C283.019 278.314 283.135 277.852 283.135 277.298ZM293.109 282.099C292.02 282.099 291.085 281.86 290.303 281.382C289.527 280.904 288.928 280.243 288.507 279.4C288.09 278.553 287.882 277.577 287.882 276.474C287.882 275.366 288.095 274.388 288.521 273.541C288.947 272.689 289.548 272.026 290.325 271.552C291.106 271.074 292.029 270.835 293.095 270.835C293.98 270.835 294.764 270.998 295.445 271.325C296.132 271.647 296.679 272.104 297.086 272.696C297.493 273.283 297.725 273.969 297.782 274.755H295.325C295.225 274.23 294.989 273.792 294.615 273.441C294.245 273.086 293.75 272.909 293.13 272.909C292.605 272.909 292.143 273.051 291.745 273.335C291.347 273.614 291.037 274.017 290.815 274.542C290.597 275.068 290.488 275.698 290.488 276.431C290.488 277.175 290.597 277.814 290.815 278.349C291.033 278.879 291.338 279.289 291.731 279.578C292.129 279.862 292.595 280.004 293.13 280.004C293.509 280.004 293.847 279.933 294.146 279.791C294.449 279.644 294.702 279.433 294.906 279.159C295.109 278.884 295.249 278.55 295.325 278.157H297.782C297.721 278.929 297.493 279.613 297.1 280.21C296.707 280.802 296.172 281.266 295.495 281.602C294.818 281.933 294.023 282.099 293.109 282.099ZM305.341 270.977V272.966H299.069V270.977H305.341ZM300.618 268.363H303.189V278.605C303.189 278.95 303.241 279.216 303.345 279.4C303.454 279.58 303.596 279.703 303.771 279.77C303.946 279.836 304.14 279.869 304.354 279.869C304.515 279.869 304.661 279.857 304.794 279.833C304.931 279.81 305.035 279.788 305.106 279.77L305.54 281.779C305.402 281.827 305.206 281.879 304.95 281.936C304.699 281.993 304.391 282.026 304.027 282.035C303.383 282.054 302.803 281.957 302.287 281.744C301.771 281.526 301.361 281.19 301.058 280.735C300.76 280.281 300.613 279.713 300.618 279.031V268.363ZM314.444 277.298V270.977H317.015V281.886H314.522V279.947H314.409C314.162 280.558 313.758 281.057 313.194 281.446C312.635 281.834 311.946 282.028 311.127 282.028C310.412 282.028 309.78 281.869 309.231 281.552C308.686 281.23 308.26 280.764 307.953 280.153C307.645 279.538 307.491 278.794 307.491 277.923V270.977H310.062V277.525C310.062 278.216 310.251 278.766 310.63 279.173C311.009 279.58 311.506 279.784 312.122 279.784C312.5 279.784 312.867 279.691 313.222 279.507C313.578 279.322 313.869 279.047 314.096 278.683C314.328 278.314 314.444 277.852 314.444 277.298ZM319.659 281.886V270.977H322.152V272.795H322.265C322.464 272.165 322.805 271.68 323.288 271.339C323.776 270.993 324.332 270.821 324.957 270.821C325.099 270.821 325.258 270.828 325.433 270.842C325.613 270.851 325.762 270.868 325.881 270.892V273.257C325.772 273.219 325.599 273.186 325.362 273.157C325.13 273.124 324.905 273.108 324.687 273.108C324.219 273.108 323.797 273.209 323.423 273.413C323.054 273.612 322.763 273.889 322.55 274.244C322.336 274.599 322.23 275.009 322.23 275.473V281.886H319.659ZM331.969 282.099C330.875 282.099 329.931 281.872 329.135 281.417C328.344 280.958 327.736 280.309 327.31 279.471C326.884 278.628 326.671 277.636 326.671 276.495C326.671 275.373 326.884 274.388 327.31 273.541C327.741 272.689 328.342 272.026 329.114 271.552C329.886 271.074 330.792 270.835 331.834 270.835C332.506 270.835 333.141 270.944 333.737 271.162C334.339 271.375 334.869 271.706 335.328 272.156C335.792 272.606 336.157 273.179 336.422 273.875C336.687 274.566 336.82 275.39 336.82 276.346V277.135H327.878V275.402H334.355C334.351 274.909 334.244 274.471 334.036 274.088C333.827 273.699 333.536 273.394 333.162 273.171C332.793 272.949 332.362 272.838 331.869 272.838C331.344 272.838 330.882 272.966 330.485 273.221C330.087 273.472 329.777 273.804 329.554 274.216C329.336 274.623 329.225 275.07 329.22 275.558V277.071C329.22 277.705 329.336 278.25 329.568 278.704C329.8 279.154 330.125 279.5 330.541 279.741C330.958 279.978 331.446 280.096 332.004 280.096C332.378 280.096 332.717 280.044 333.02 279.94C333.323 279.831 333.586 279.672 333.808 279.464C334.031 279.256 334.199 278.998 334.313 278.69L336.713 278.96C336.562 279.594 336.273 280.148 335.847 280.622C335.425 281.091 334.886 281.455 334.227 281.716C333.569 281.971 332.816 282.099 331.969 282.099Z" fill="#22222A"/>
<rect x="0.5" y="253.386" width="473" height="43" rx="3.5" stroke="#5FB34E"/>
</svg>
