<svg width="40" height="40" viewBox="0 0 40 40" fill="none" xmlns="http://www.w3.org/2000/svg">
<path fill-rule="evenodd" clip-rule="evenodd" d="M30.6401 33.4999L30.6108 33.5L8.39434 33.4999C4.36581 33.4998 1.1001 30.1756 1.1001 26.075C1.1001 22.4776 3.61341 19.4778 6.9502 18.7956C7.01837 18.7816 7.068 18.7207 7.068 18.6499C7.068 11.9397 12.4122 6.5 19.0045 6.5C24.739 6.5 29.5291 10.6161 30.6786 16.104C30.7418 16.4058 30.9966 16.6285 31.2987 16.6537C35.5549 17.0096 38.9001 20.6384 38.9001 25.0625C38.9001 29.6087 35.3678 33.3151 30.9443 33.4933C30.9437 33.4933 30.943 33.4936 30.9425 33.4939C30.9417 33.4946 30.9411 33.4955 30.9411 33.4966C30.9411 33.4978 30.9406 33.4988 30.9397 33.4994C30.9392 33.4997 30.9385 33.4999 30.9378 33.4999H30.6401ZM15.9159 29.3889C15.9159 28.7349 16.4461 28.2047 17.1001 28.2047H24.1001C24.7541 28.2047 25.2843 28.7349 25.2843 29.3889C25.2843 30.0429 24.7541 30.5731 24.1001 30.5731H17.1001C16.4461 30.5731 15.9159 30.0429 15.9159 29.3889ZM17.9059 13.7433C17.4266 13.2983 16.6773 13.326 16.2323 13.8053C15.7873 14.2845 15.815 15.0338 16.2943 15.4789L20.8042 19.6666L16.2943 23.8544C15.815 24.2994 15.7873 25.0487 16.2323 25.528C16.6773 26.0072 17.4266 26.035 17.9059 25.5899L23.3503 20.5344C23.5916 20.3103 23.7287 19.9959 23.7287 19.6666C23.7287 19.3373 23.5916 19.0229 23.3503 18.7988L17.9059 13.7433Z" fill="url(#paint0_linear_28_22)"/>
<defs>
<linearGradient id="paint0_linear_28_22" x1="7.35354" y1="9.96755" x2="23.8831" y2="35.6687" gradientUnits="userSpaceOnUse">
<stop stop-color="#4791FF"/>
<stop offset="1" stop-color="#2E1CF3"/>
</linearGradient>
</defs>
</svg>
