<svg width="320" height="320" viewBox="0 0 320 320" fill="none" xmlns="http://www.w3.org/2000/svg">
<g opacity="0.2">
<path d="M122.287 28.4544C143.115 7.62656 176.884 7.62649 197.712 28.4544L291.545 122.287C312.373 143.115 312.373 176.884 291.545 197.712L197.712 291.545C176.884 312.373 143.115 312.373 122.287 291.545L28.4545 197.712C7.62651 176.884 7.62651 143.115 28.4545 122.287L122.287 28.4544ZM159.335 142.399C157.214 142.399 155.178 143.242 153.678 144.743C152.178 146.243 151.335 148.277 151.335 150.399V178.384C146.959 180.829 144 185.507 144 190.875C144 198.772 150.402 205.173 158.298 205.173C166.195 205.173 172.597 198.772 172.597 190.875C172.597 186.406 170.546 182.416 167.335 179.794V158.399H197.661V195.843C197.661 217.01 180.502 234.17 159.335 234.17H158.011C137.575 234.17 121.008 217.603 121.008 197.167C121.008 192.749 117.426 189.167 113.008 189.167C108.59 189.167 105.008 192.749 105.008 197.167C105.008 226.44 128.738 250.17 158.011 250.17H159.335C189.339 250.17 213.661 225.847 213.661 195.843V150.399C213.661 145.981 210.079 142.399 205.661 142.399H159.335ZM159.335 69.5999C129.332 69.5999 105.008 93.9234 105.008 123.927V174.665C105.008 179.084 108.59 182.665 113.008 182.665C117.426 182.665 121.008 179.084 121.008 174.665V123.927C121.008 102.76 138.168 85.5999 159.335 85.5999H160.659C181.095 85.6001 197.661 102.167 197.661 122.603C197.661 127.021 201.243 130.603 205.661 130.603C210.08 130.603 213.661 127.021 213.661 122.603C213.661 93.3303 189.931 69.6001 160.659 69.5999H159.335Z" fill="url(#paint0_linear_843_1052)"/>
</g>
<defs>
<linearGradient id="paint0_linear_843_1052" x1="94.2083" y1="59.1998" x2="257.586" y2="255.996" gradientUnits="userSpaceOnUse">
<stop stop-color="#6CB5FF"/>
<stop offset="1" stop-color="#4D4AFF"/>
</linearGradient>
</defs>
</svg>
