<svg width="28" height="24" viewBox="0 0 28 24" fill="none" xmlns="http://www.w3.org/2000/svg">
<path fill-rule="evenodd" clip-rule="evenodd" d="M0 2.00001C0 1.26363 0.596954 0.666677 1.33333 0.666677H26.6667C27.403 0.666677 28 1.26363 28 2.00001V22C28 22.7364 27.403 23.3333 26.6667 23.3333H1.33333C0.596952 23.3333 0 22.7364 0 22V2.00001ZM26.6667 2.00001H1.33333V22H26.6667V2.00001ZM17.3027 9.10277C17.3027 7.80155 18.4508 6.66668 19.9694 6.66668C21.488 6.66668 22.6361 7.80155 22.6361 9.10277C22.6361 10.404 21.488 11.5389 19.9694 11.5389C18.4508 11.5389 17.3027 10.404 17.3027 9.10277ZM19.9694 5.33334C17.8061 5.33334 15.9694 6.97678 15.9694 9.10277C15.9694 9.98767 16.2876 10.789 16.8151 11.423V18C16.8151 18.25 16.9549 18.4789 17.1773 18.5931C17.3996 18.7072 17.6672 18.6874 17.8703 18.5418L20.2491 16.8357L22.4256 18.5265C22.6266 18.6826 22.899 18.7107 23.1276 18.5988C23.3563 18.4869 23.5012 18.2546 23.5012 18V10.8777C23.7991 10.3527 23.9694 9.75008 23.9694 9.10277C23.9694 6.97678 22.1327 5.33334 19.9694 5.33334ZM22.1679 12.2512C21.5318 12.6454 20.7731 12.8722 19.9694 12.8722C19.3192 12.8722 18.6986 12.7238 18.1484 12.4584V16.7015L19.472 15.7522C19.9518 15.4081 20.6008 15.4206 21.0671 15.7828L22.1679 16.6379V12.2512ZM4.59538 11.1969C4.22719 11.1969 3.92871 11.4954 3.92871 11.8636C3.92871 12.2318 4.22719 12.5303 4.59538 12.5303H12.5954C12.9636 12.5303 13.262 12.2318 13.262 11.8636C13.262 11.4954 12.9636 11.1969 12.5954 11.1969H4.59538ZM3.92871 15.8539C3.92871 15.4857 4.22719 15.1873 4.59538 15.1873H12.5954C12.9636 15.1873 13.262 15.4857 13.262 15.8539C13.262 16.2221 12.9636 16.5206 12.5954 16.5206H4.59538C4.22719 16.5206 3.92871 16.2221 3.92871 15.8539ZM4.59538 7.16318C4.22719 7.16318 3.92871 7.46165 3.92871 7.82984C3.92871 8.19803 4.22719 8.49651 4.59538 8.49651H12.5954C12.9636 8.49651 13.262 8.19803 13.262 7.82984C13.262 7.46165 12.9636 7.16318 12.5954 7.16318H4.59538Z" fill="white"/>
</svg>
