<svg width="426" height="426" viewBox="0 0 426 426" fill="none" xmlns="http://www.w3.org/2000/svg">
<g opacity="0.2">
<path d="M193.986 78.0667C205.845 71.8534 219.844 71.8534 231.702 78.0667L315.365 121.903C329.454 129.285 338.338 144.265 338.338 160.64V265.049C338.338 281.424 329.454 296.404 315.365 303.786L231.702 347.622C219.844 353.836 205.845 353.836 193.986 347.622L110.323 303.786C96.2345 296.404 87.3507 281.424 87.3506 265.049L87.3506 160.64C87.3507 144.265 96.2344 129.285 110.323 121.903L193.986 78.0667ZM222.559 122.755C216.535 119.277 209.113 119.277 203.089 122.755L190.343 130.115L171.664 140.899L140.239 159.041C134.215 162.519 130.505 168.947 130.505 175.903L130.505 248.475C130.505 255.431 134.215 261.858 140.239 265.336L152.986 272.695L170.552 282.836L203.089 301.622C209.113 305.1 216.535 305.1 222.559 301.622L235.306 294.263L253.983 283.479L272.662 272.695L285.408 265.336C291.432 261.858 295.143 255.431 295.144 248.475V179.837C295.144 169.19 283.617 162.534 274.396 167.858L246.378 184.034L246.296 184.081L246.216 184.13L227.698 195.442L212.934 203.47L179.27 184.034C175.632 181.934 170.981 183.18 168.881 186.818C166.781 190.455 168.027 195.107 171.664 197.207L208.406 218.42C211.081 219.965 214.367 220.007 217.081 218.532L235.136 208.713L235.304 208.621L235.468 208.522L254.082 197.15L279.932 182.226V248.475C279.932 249.996 279.12 251.402 277.803 252.162L265.057 259.522L246.378 270.305L227.699 281.089L214.953 288.449C213.636 289.209 212.013 289.209 210.695 288.449L178.157 269.663L160.592 259.522L147.845 252.162C146.528 251.402 145.716 249.996 145.716 248.475L145.716 175.903C145.716 174.382 146.528 172.976 147.845 172.215L179.27 154.072L197.948 143.288L210.695 135.929C212.013 135.169 213.636 135.168 214.953 135.929L246.378 154.072C250.016 156.172 254.667 154.926 256.768 151.288C258.868 147.651 257.621 142.999 253.983 140.899L222.559 122.755Z" fill="url(#paint0_linear_867_859)"/>
</g>
<defs>
<linearGradient id="paint0_linear_867_859" x1="143.854" y1="95.4053" x2="336.879" y2="304.661" gradientUnits="userSpaceOnUse">
<stop stop-color="#6CB5FF"/>
<stop offset="1" stop-color="#4D4AFF"/>
</linearGradient>
</defs>
</svg>
