<svg width="118" height="118" viewBox="0 0 118 118" fill="none" xmlns="http://www.w3.org/2000/svg">
<g opacity="0.05">
<path fill-rule="evenodd" clip-rule="evenodd" d="M20.6508 31.8213L21.6094 90.2062C21.6542 92.6483 23.309 94.7305 25.7577 95.426L89.0865 110.379C93.1401 111.531 97.3795 108.482 97.3498 104.436L96.6762 12.9005C96.6475 8.99299 92.6321 6.39986 88.6619 7.72483L25.0481 25.9225C22.3975 26.8071 20.6031 29.2142 20.6508 31.8213ZM33.8256 52.8103C33.8256 51.4706 34.9017 50.3846 36.2292 50.3846H41.7761V41.1116C41.7761 38.6378 43.4227 36.4731 45.7889 35.8364L63.871 30.9702V26.2792C63.871 24.9395 64.9472 23.8535 66.2747 23.8535H81.2974C82.6249 23.8535 83.7011 24.9395 83.7011 26.2792V41.4398C83.7011 42.7795 82.6249 43.8655 81.2974 43.8655H66.2747C64.9472 43.8655 63.871 42.7795 63.871 41.4398V36.6198L47.1799 41.1116V50.3846H51.252C52.5795 50.3846 53.6556 51.4706 53.6556 52.8103V67.9709C53.6556 69.3106 52.5795 70.3966 51.252 70.3966H47.1799V79.3661L63.871 83.8579V79.3414C63.871 78.0017 64.9472 76.9157 66.2747 76.9157H81.2974C82.6249 76.9157 83.7011 78.0017 83.7011 79.3414V94.502C83.7011 95.8417 82.6249 96.9277 81.2974 96.9277H66.2747C64.9472 96.9277 63.871 95.8417 63.871 94.502V89.5075L45.7889 84.6414C43.4227 84.0046 41.7761 81.84 41.7761 79.3661V70.3966H36.2292C34.9017 70.3966 33.8256 69.3106 33.8256 67.9709V52.8103ZM38.6329 55.236V65.5452H48.8483V55.236H38.6329ZM68.6783 39.0141V28.7049H78.8938V39.0141H68.6783ZM63.871 52.8103C63.871 51.4706 64.9472 50.3846 66.2747 50.3846H81.2974C82.6249 50.3846 83.7011 51.4706 83.7011 52.8103V67.9709C83.7011 69.3106 82.6249 70.3966 81.2974 70.3966H66.2747C64.9472 70.3966 63.871 69.3106 63.871 67.9709V52.8103ZM68.6783 55.236V65.5452H78.8938V55.236H68.6783ZM68.6783 92.0763V81.7671H78.8938V92.0763H68.6783Z" fill="url(#paint0_linear_1295_2460)"/>
</g>
<defs>
<linearGradient id="paint0_linear_1295_2460" x1="39.8249" y1="14.2914" x2="97.5916" y2="88.6179" gradientUnits="userSpaceOnUse">
<stop stop-color="#62F91F"/>
<stop offset="1" stop-color="#45BD35"/>
</linearGradient>
</defs>
</svg>
