<svg width="284" height="83" viewBox="0 0 284 83" fill="none" xmlns="http://www.w3.org/2000/svg">
<g opacity="0.2">
<mask id="mask0_738_470" style="mask-type:luminance" maskUnits="userSpaceOnUse" x="0" y="0" width="284" height="47">
<path d="M283.32 0H0V46.4458H283.32V0Z" fill="white"/>
</mask>
<g mask="url(#mask0_738_470)">
<path d="M17.5535 29.1809L18.6665 28.0983L19.0236 27.7431C19.0236 27.7431 28.6409 21.5051 34.4101 21.5051H34.9079C29.517 21.2326 24.412 19.0496 20.5466 15.3642L6.27308 1.42139H5.33008L3.76025 2.96224V3.88463L17.6064 17.4322C19.1841 19.0012 20.0641 21.1164 20.0541 23.3173C20.0443 25.5178 19.1453 27.6256 17.5535 29.1809Z" fill="url(#paint0_linear_738_470)"/>
<path d="M27.4526 10.3292L16.9684 0.0756836H16.0253L14.4558 1.61068V2.53307L25.4259 13.268C28.1153 15.8973 31.762 17.3746 35.5644 17.3752H43.5066L44.1743 16.7278V14.5453L43.5066 13.8982H36.2614C32.9574 13.8979 29.7888 12.6142 27.4526 10.3292Z" fill="url(#paint1_linear_738_470)"/>
<path d="M27.4526 36.3469L16.9684 46.6008H16.0253L14.4558 45.0599V44.1375L25.4259 33.4084C28.1153 30.7792 31.762 29.3018 35.5644 29.3013H43.5066L44.1743 29.9484V32.1253L43.5066 32.7783H36.2614C32.9574 32.7783 29.7888 34.062 27.4526 36.3469Z" fill="url(#paint2_linear_738_470)"/>
<path d="M10.9183 17.7753L4.51674 11.52H3.57958L2.00391 13.0609V13.9774L8.10127 19.9464C8.55091 20.3854 8.90778 20.9066 9.15126 21.4808C9.39474 22.0547 9.5201 22.6701 9.5201 23.2916C9.5201 23.9131 9.39474 24.5285 9.15126 25.1027C8.90778 25.6765 8.55091 26.1981 8.10127 26.6371L2.45493 32.1648V33.0813L4.0306 34.6222H4.96776L10.9125 28.8137C11.6543 28.0896 12.2433 27.2294 12.645 26.2827C13.0467 25.3358 13.254 24.321 13.2545 23.2958C13.2551 22.2706 13.0489 21.2554 12.648 20.3082C12.2474 19.3608 11.6596 18.5002 10.9183 17.7753Z" fill="url(#paint3_linear_738_470)"/>
<path d="M49.545 21.5049H34.4106C28.6392 21.5085 23.1054 23.7522 19.0241 27.7429L3.6084 42.8199V43.7423L5.18379 45.2831H6.1268L20.5001 31.2431C22.5192 29.2621 24.9181 27.6906 27.5594 26.618C30.2006 25.5457 33.0325 24.9936 35.8924 24.9933H49.5567L50.2127 24.369V22.1921L49.545 21.5049Z" fill="url(#paint4_linear_738_470)"/>
<path d="M57.0477 14.0581H75.2044L75.6438 14.4877V16.8306L75.2044 17.2602H68.3986L67.9593 17.69V32.5837L67.52 33.0132H64.7436L64.3046 32.5837V17.69L63.8652 17.2602H57.0477L56.6084 16.8306V14.5105L57.0477 14.0581Z" fill="white"/>
<path d="M82.0693 14.5109L82.5086 14.0811H92.9048C97.163 14.0811 99.5351 16.0002 99.5351 19.7408C99.5351 22.1293 98.3637 23.8708 96.1966 24.7015L95.9623 25.3088L99.9215 32.389L99.5351 33.0248H96.6593L96.2726 32.8013L92.1201 25.4576L91.7334 25.24H86.1575L85.7182 25.6696V32.6008L85.2792 33.0306H82.497L82.0576 32.6008L82.0693 14.5109ZM85.7299 17.6843V21.6942L86.1692 22.1238H92.6121C94.7148 22.1238 95.7748 21.3276 95.7748 19.7522C95.7748 18.0336 94.7148 17.2661 92.6121 17.2661H86.1692L85.7299 17.6843Z" fill="white"/>
<path d="M119.83 29.1353H110.629L110.23 29.3874L108.69 32.7787L108.286 33.0305H105.591L105.187 32.4235L113.499 14.2531L113.902 14.001H116.796L117.2 14.2531L125.505 32.4235L125.107 33.0305H122.179L121.78 32.7787L120.234 29.3874L119.83 29.1353ZM118.477 25.4349L115.66 19.2598H114.857L112.034 25.4349L112.438 26.0077H118.067L118.477 25.4349Z" fill="white"/>
<path d="M129.887 23.5555C129.887 18.0048 133.987 13.7603 139.656 13.7603C145.15 13.7603 147.739 17.0768 148.524 19.3339L148.108 19.9067H145.179L144.81 19.7061C144.26 18.8661 143.496 18.18 142.594 17.7142C141.692 17.2484 140.682 17.0189 139.662 17.0481C136.031 17.0481 133.688 20.0097 133.688 23.5614C133.688 27.1128 136.048 30.0973 139.656 30.0973C142.778 30.0973 144.271 28.4589 144.863 27.4337L145.244 27.2159H148.114L148.53 27.7889C147.809 29.9198 145.338 33.3854 139.656 33.3854C133.975 33.3854 129.887 29.1063 129.887 23.5555Z" fill="white"/>
<path d="M156.008 14.0581H171.91L172.349 14.4877V16.7219L171.91 17.1515H159.663L159.224 17.5811V21.018L159.663 21.4475H166.984L167.424 21.8774V24.1688L166.984 24.5983H159.663L159.224 25.0335V29.4042L159.663 29.834H171.91L172.349 30.2636V32.555L171.91 32.9845H156.008L155.569 32.555V14.5105L156.008 14.0581Z" fill="white"/>
<path d="M250.899 14.0581H266.8L267.24 14.4877V16.7219L266.8 17.1515H254.554L254.113 17.5811V21.018L254.554 21.4475H261.869L262.307 21.8774V24.1688L261.869 24.5983H254.554L254.113 25.0335V29.4042L254.554 29.834H266.8L267.24 30.2636V32.555L266.8 32.9845H250.899L250.453 32.555V14.5105L250.899 14.0581Z" fill="white"/>
<path d="M191.906 29.1353H182.705L182.306 29.3874L180.766 32.7787L180.362 33.0305H177.632L177.228 32.4235L185.54 14.2531L185.944 14.001H188.837L189.241 14.2531L197.576 32.4235L197.177 33.0305H194.249L193.845 32.7787L192.304 29.3874L191.906 29.1353ZM190.518 25.4349L187.707 19.2598H186.904L184.075 25.4349L184.479 26.0077H190.108L190.518 25.4349Z" fill="white"/>
<path d="M203.954 14.5109L204.393 14.0811H214.35C218.579 14.0811 220.846 16.0002 220.846 19.2023C220.851 19.9032 220.664 20.5927 220.302 21.1975C219.94 21.8026 219.418 22.3007 218.79 22.6394V23.3897C219.565 23.7928 220.209 24.4004 220.648 25.1439C221.087 25.8872 221.304 26.7363 221.273 27.5943C221.273 30.9053 218.983 33.0134 214.508 33.0134H204.393L203.954 32.5838V14.5109ZM207.556 17.5525V21.339L207.995 21.7686H213.946C216.049 21.7686 217.085 20.9952 217.085 19.443C217.085 17.8904 216.02 17.1229 213.946 17.1229H207.995L207.556 17.5525ZM207.556 25.2113V29.5592L207.995 29.9888H214.051C216.429 29.9888 217.519 29.0836 217.519 27.3709C217.519 25.6582 216.348 24.7817 214.051 24.7817H207.995L207.556 25.2113Z" fill="white"/>
<path d="M243.555 33.0306H228.794L228.355 32.6008V14.5109L228.794 14.0811H231.571L232.01 14.5109V29.37L232.449 29.7996H243.577L244.018 30.2295V32.6008L243.555 33.0306Z" fill="white"/>
<path d="M283.306 33.0297H274.138L273.706 32.606V30.3146L274.138 29.8906H283.306L283.738 30.3146V32.606L283.306 33.0297Z" fill="url(#paint5_linear_738_470)"/>
</g>
<path d="M54.7642 57.598H56.8235V63.7268C57.5345 62.5011 59.0789 61.7166 60.8195 61.7166C64.2026 61.7166 66.311 64.3397 66.311 68.5073C66.311 72.6749 64.2026 75.2981 60.8195 75.2981C59.0054 75.2981 57.4364 74.4646 56.7009 73.1407L56.6274 75.0039H54.7642V57.598ZM56.6274 68.5073C56.6274 71.4737 58.0983 73.3369 60.4028 73.3369C62.6827 73.3369 64.1536 71.4737 64.1536 68.5073C64.1536 65.4919 62.6827 63.5797 60.4028 63.5797C58.0983 63.5797 56.6274 65.4919 56.6274 68.5073ZM66.6362 62.0107H68.8426L72.7405 72.7975L76.5404 62.0107H78.7223L73.4515 76.6464C72.9611 78.0438 72.0296 78.6812 70.5586 78.6812H68.8671V76.8671H70.3625C70.9999 76.8671 71.3676 76.5974 71.6128 75.96L72.0786 74.7588H71.3922L66.6362 62.0107Z" fill="white"/>
<g clip-path="url(#clip0_738_470)">
<path d="M115.509 61.1183L107.604 53.248C106.668 52.368 105.553 51.6978 104.334 51.2828C101.633 50.3887 98.9453 51.0866 96.7685 53.248L88.8438 61.1183C87.9588 62.0492 87.2849 63.1581 86.8675 64.37C85.9651 67.0556 86.667 69.7284 88.8438 71.8897L96.7588 79.76C97.6935 80.6404 98.8076 81.3106 100.026 81.7252C100.764 81.9732 101.537 82.1014 102.316 82.1047C104.214 82.1047 106.032 81.3071 107.591 79.76L115.503 71.8897C116.389 70.9591 117.064 69.8503 117.483 68.638C118.382 65.9524 117.68 63.2829 115.503 61.1183H115.509ZM102.785 55.5316C103.383 55.7222 103.934 56.0356 104.402 56.4515L106.741 58.7801L102.18 63.3118L97.6192 58.7768L99.9707 56.4354C100.601 55.8114 101.491 55.1488 102.791 55.5284L102.785 55.5316ZM91.1468 65.8945C91.3391 65.2995 91.6555 64.7516 92.0752 64.2864L94.4137 61.961L98.9744 66.496L94.4105 71.031L92.059 68.6895C91.4282 68.0655 90.7652 67.1811 91.1436 65.8881L91.1468 65.8945ZM101.569 77.4668C100.97 77.2779 100.419 76.9643 99.9513 76.5469L97.6192 74.2473L102.18 69.7091L106.741 74.2441L104.389 76.5855C103.758 77.2095 102.872 77.8721 101.569 77.4925V77.4668ZM113.213 67.1264C113.021 67.7207 112.706 68.2685 112.288 68.7345L109.949 71.031L105.389 66.496L109.949 61.961L112.301 64.2992C112.932 64.9232 113.595 65.8077 113.216 67.1006" fill="#00ABE4"/>
<path d="M132.578 77.5856H136.663V66.3124C136.663 62.8356 134.538 60.269 130.912 60.269C129.146 60.269 127.254 61.0474 126.271 62.4786V54.1162H122.189V77.576H126.271V68.6829C126.271 66.6051 127.319 64.0064 129.767 64.0064C131.925 64.0064 132.578 65.206 132.578 67.1583V77.5856ZM149.074 70.9182C149.074 73.398 147.292 74.7521 144.766 74.7521C143.501 74.7521 142.366 73.948 142.366 72.6582C142.366 71.3042 143.566 70.5644 144.798 70.4679L149.074 70.1463V70.9182ZM152.477 77.8461C153.174 77.8688 153.866 77.7138 154.486 77.3959V74.4304C154.316 74.4701 154.142 74.4917 153.968 74.4947C153.289 74.4947 153.03 74.2053 153.03 73.4301V67.213C153.081 66.0647 152.915 64.9171 152.542 63.8295C151.571 61.3143 149.107 60.4137 146.225 60.4137C142.463 60.4137 139.448 62.0894 139.222 65.859H143.145C143.242 64.3119 144.342 63.4757 146.225 63.4757C148.524 63.4757 149.074 64.5371 149.074 66.1163V67.1487L144.112 67.4928C140.904 67.718 138.41 69.5545 138.41 72.7451C138.41 75.4854 140.483 77.9973 144.504 77.9973C146.901 77.9973 148.845 76.8394 149.624 75.4854C149.754 76.7429 150.724 77.8365 152.474 77.8365L152.477 77.8461ZM165.205 64.3988C165.421 64.4003 165.637 64.4143 165.852 64.4406V60.6453C165.677 60.6453 165.503 60.6067 165.331 60.6067C163.352 60.6067 161.343 61.4108 160.567 63.3438L160.208 60.8319H156.769V77.5888H160.855V69.146C160.855 66.4379 162.346 64.4084 165.195 64.4084L165.205 64.3988ZM177.988 77.5953H182.041V66.4057C182.041 62.9257 179.932 60.4137 176.335 60.4137C174.394 60.4137 172.382 61.2178 171.376 62.9868L171.085 60.8286H167.692V77.5856H171.742V70.7574C171.742 69.339 171.71 67.599 172.295 66.2771C172.845 65.0517 173.786 64.1511 175.206 64.1511C177.344 64.1511 177.991 65.3443 177.991 67.3095L177.988 77.5953ZM195.341 67.5411H188.057C188.039 66.5963 188.349 65.6742 188.934 64.9294C189.27 64.5113 189.701 64.1773 190.191 63.9539C190.68 63.7305 191.216 63.624 191.754 63.6429C192.225 63.6179 192.695 63.6908 193.136 63.857C193.576 64.0231 193.977 64.2788 194.313 64.6078C194.96 65.3186 195.319 66.2835 195.351 67.5411H195.341ZM199.401 69.3454C199.465 67.2516 199.174 65.3508 197.942 63.511C196.551 61.4172 194.28 60.4202 191.796 60.4202C190.801 60.3913 189.81 60.565 188.884 60.9306C187.959 61.2961 187.118 61.8459 186.414 62.5462C184.797 64.1897 183.985 66.573 183.985 69.2489C183.985 71.9892 184.89 74.3404 186.572 75.9517C187.276 76.6305 188.109 77.1625 189.022 77.5166C189.935 77.8706 190.91 78.0396 191.89 78.0134C194.028 78.0134 196.134 77.338 197.56 75.6623C198.207 74.8871 198.89 73.5684 198.987 72.5682H195.105C194.969 73.1054 194.688 73.5957 194.293 73.9866C193.711 74.5655 192.999 74.7906 191.832 74.7906C190.896 74.7876 189.998 74.4178 189.335 73.7614C188.915 73.3257 188.589 72.8095 188.378 72.2443C188.166 71.6791 188.072 71.0768 188.102 70.4744H199.368C199.368 70.1173 199.401 69.3454 199.401 69.3454ZM204.841 65.5116C204.851 65.1206 204.98 64.7418 205.211 64.4253C205.442 64.1089 205.764 63.8696 206.135 63.7394C206.693 63.5312 207.29 63.4435 207.885 63.4821C208.69 63.4598 209.475 63.7348 210.088 64.254C210.511 64.673 210.755 65.2392 210.767 65.8332H214.626C214.577 64.5395 214.046 63.3102 213.135 62.3853C211.905 61.0602 209.864 60.417 207.856 60.417C205.747 60.417 203.974 61.0281 202.735 62.0927C202.182 62.5519 201.741 63.1294 201.443 63.7821C201.146 64.4348 201 65.1458 201.018 65.8622C201.018 67.9881 202.574 69.8568 204.873 70.3425C206.365 70.6641 208.05 70.7606 209.541 70.9857C210.576 71.1466 211.226 71.7898 211.226 72.7579C211.226 74.5944 209.153 74.8839 207.791 74.8839C206.623 74.8839 205.879 74.6588 205.229 74.1442C204.781 73.7451 204.481 73.2084 204.375 72.6196H200.559C200.715 73.9415 201.336 75.1659 202.312 76.0772C203.706 77.3991 205.617 78.007 207.759 78.007C210.058 78.007 212.164 77.428 213.526 76.0772C214.01 75.5964 214.389 75.0222 214.641 74.3899C214.893 73.7576 215.012 73.0807 214.991 72.4009C214.991 69.7571 213.05 68.0814 210.388 67.6633C208.736 67.406 208.315 67.3738 206.792 67.1809C205.886 67.0522 204.851 66.6952 204.851 65.5052L204.841 65.5116ZM226.315 65.8268H230.161C230.113 64.5331 229.581 63.3038 228.67 62.3789C227.438 61.0602 225.397 60.417 223.401 60.417C221.295 60.417 219.52 61.0281 218.281 62.0927C217.728 62.5519 217.286 63.1294 216.988 63.7821C216.691 64.4348 216.546 65.1458 216.563 65.8622C216.563 67.9881 218.119 69.8568 220.419 70.3425C221.91 70.6641 223.595 70.7606 225.086 70.9857C226.121 71.1466 226.771 71.7898 226.771 72.7579C226.771 74.5944 224.695 74.8839 223.336 74.8839C222.169 74.8839 221.425 74.6588 220.775 74.1442C220.327 73.7451 220.026 73.2084 219.921 72.6196H216.091C216.247 73.9422 216.87 75.1671 217.847 76.0772C219.238 77.3991 221.15 78.007 223.291 78.007C225.591 78.007 227.696 77.428 229.058 76.0772C229.541 75.5959 229.919 75.0214 230.17 74.3891C230.421 73.7569 230.539 73.0803 230.517 72.4009C230.517 69.7571 228.576 68.0814 225.914 67.6633C224.261 67.406 223.841 67.3738 222.317 67.1809C221.412 67.0522 220.377 66.6952 220.377 65.5052C220.386 65.1142 220.515 64.7354 220.746 64.4189C220.977 64.1024 221.3 63.8632 221.67 63.733C222.229 63.5248 222.825 63.4371 223.42 63.4757C224.225 63.4534 225.01 63.7284 225.623 64.2476C226.048 64.6663 226.292 65.2324 226.306 65.8268" fill="white"/>
</g>
</g>
<defs>
<linearGradient id="paint0_linear_738_470" x1="8.77978" y1="3.93254" x2="21.2113" y2="33.2092" gradientUnits="userSpaceOnUse">
<stop stop-color="#75A7FF"/>
<stop offset="0.479167" stop-color="#497EDC"/>
<stop offset="1" stop-color="#456BE0" stop-opacity="0"/>
</linearGradient>
<linearGradient id="paint1_linear_738_470" x1="43.0486" y1="-0.0714086" x2="15.4325" y2="0.260107" gradientUnits="userSpaceOnUse">
<stop stop-color="#DBDBDB" stop-opacity="0.08"/>
<stop offset="0.510417" stop-color="#DCDCDC"/>
</linearGradient>
<linearGradient id="paint2_linear_738_470" x1="43.0486" y1="29.1542" x2="15.4325" y2="29.4857" gradientUnits="userSpaceOnUse">
<stop stop-color="#DBDBDB" stop-opacity="0.08"/>
<stop offset="0.510417" stop-color="#DCDCDC"/>
</linearGradient>
<linearGradient id="paint3_linear_738_470" x1="31.3516" y1="34.8344" x2="23.8466" y2="6.37207" gradientUnits="userSpaceOnUse">
<stop stop-color="#DBDBDB" stop-opacity="0.08"/>
<stop offset="0.510417" stop-color="#DCDCDC"/>
</linearGradient>
<linearGradient id="paint4_linear_738_470" x1="48.4473" y1="21.3029" x2="5.14172" y2="21.896" gradientUnits="userSpaceOnUse">
<stop stop-color="#DBDBDB" stop-opacity="0.08"/>
<stop offset="0.510417" stop-color="#DCDCDC"/>
</linearGradient>
<linearGradient id="paint5_linear_738_470" x1="283.32" y1="26.1258" x2="276.311" y2="22.1869" gradientUnits="userSpaceOnUse">
<stop stop-color="#497EDC"/>
<stop offset="1" stop-color="#AEC2FF"/>
</linearGradient>
<clipPath id="clip0_738_470">
<rect width="144.028" height="31.2014" fill="white" transform="translate(86.489 50.9033)"/>
</clipPath>
</defs>
</svg>
