<svg width="119" height="118" viewBox="0 0 119 118" fill="none" xmlns="http://www.w3.org/2000/svg">
<g opacity="0.05">
<path fill-rule="evenodd" clip-rule="evenodd" d="M12.9699 41.8755C11.7388 32.7289 11.6928 24.3071 12.2832 17.6606C12.4324 15.9807 13.8606 14.7413 15.547 14.7413H102.885C104.661 14.7413 106.134 16.1553 106.2 17.9305C108.431 77.3669 77.6546 104.012 60.5795 110.525C59.7724 110.833 58.8737 110.769 58.0982 110.388C31.1401 97.1576 18.9796 72.3653 14.3422 49.937L24.6851 51.8781C24.7551 55.1854 26.052 58.4715 28.5758 60.9953C32.8095 65.2289 39.1882 66.0101 44.2134 63.3389L53.067 71.8518C53.1124 71.8955 53.1585 71.9377 53.2055 71.9787C49.9117 77.5605 50.6623 84.8684 55.4573 89.6635C61.1423 95.3484 70.3595 95.3484 76.0444 89.6635C81.7294 83.9785 81.7294 74.7613 76.0444 69.0763C71.3404 64.3722 64.2178 63.5606 58.6792 66.6414C58.5876 66.5311 58.4889 66.4247 58.3831 66.323L49.663 57.9384C51.3363 54.8586 51.7029 51.2572 50.7628 47.9488L59.7857 43.2949C59.9649 43.4972 60.1514 43.6953 60.345 43.889C65.5366 49.0806 73.9539 49.0806 79.1455 43.889C84.3372 38.6974 84.3372 30.2801 79.1455 25.0885C73.9539 19.8968 65.5366 19.8968 60.345 25.0885C57.2824 28.1511 56.0265 32.3363 56.5772 36.3196L46.5919 41.47C41.3688 37.0155 33.5134 37.2571 28.5758 42.1947C27.8736 42.897 27.2664 43.6582 26.7541 44.4625L12.9699 41.8755ZM41.9528 47.6182C39.7566 45.4219 36.1956 45.4219 33.9993 47.6182C31.8031 49.8145 31.803 53.3754 33.9993 55.5717C36.1956 57.768 39.7566 57.768 41.9528 55.5717C44.1491 53.3754 44.1491 49.8145 41.9528 47.6182ZM65.7685 30.512C67.9648 28.3157 71.5257 28.3157 73.722 30.512C75.9183 32.7083 75.9183 36.2692 73.722 38.4655C71.5257 40.6618 67.9648 40.6618 65.7685 38.4655C63.5722 36.2692 63.5722 32.7083 65.7685 30.512ZM70.6209 74.4998C67.9313 71.8102 63.5705 71.8102 60.8808 74.4998C58.1912 77.1895 58.1912 81.5503 60.8808 84.24C63.5705 86.9296 67.9313 86.9296 70.6209 84.24C73.3106 81.5503 73.3106 77.1895 70.6209 74.4998Z" fill="url(#paint0_linear_1548_3510)"/>
</g>
<defs>
<linearGradient id="paint0_linear_1548_3510" x1="33.4083" y1="22.4835" x2="86.0301" y2="102.181" gradientUnits="userSpaceOnUse">
<stop stop-color="#FF7F77"/>
<stop offset="0.0001" stop-color="#FD7A64"/>
<stop offset="1" stop-color="#E62D14"/>
</linearGradient>
</defs>
</svg>
