<svg width="914" height="659" viewBox="0 0 914 659" fill="none" xmlns="http://www.w3.org/2000/svg">
<g opacity="0.05">
<path d="M452.413 474.759C452.413 482.647 458.807 489.04 466.694 489.04H696.872L697.535 489.042L698.198 489.04H705.023V488.895C805.33 484.964 885.443 402.405 885.443 301.134C885.443 202.606 809.611 121.79 713.128 113.864C706.28 113.302 700.504 108.342 699.071 101.623C673.012 -20.5978 564.428 -112.265 434.434 -112.265C284.993 -112.265 163.848 8.88042 163.848 158.321C163.848 159.898 162.723 161.254 161.177 161.564C85.5363 176.759 28.5625 243.566 28.5625 323.681C28.5625 415.004 102.592 489.036 193.914 489.04L384.164 489.04C392.052 489.04 398.446 482.647 398.446 474.759V429.964C398.446 422.766 393.074 416.754 386.005 415.398C356.265 409.694 330.806 397.42 313.38 379.857C297.791 364.148 288.483 344.687 285.591 321.829C284.591 313.919 291.152 307.395 299.125 307.432L330.934 307.581C338.569 307.617 344.65 313.72 346.39 321.154C353.698 352.373 381.952 372.936 423.811 373.131C440.12 373.207 500.936 365.587 501.132 323.554C501.289 289.937 457.091 277.186 415.275 266.866C408.148 265.109 400.885 263.314 393.625 261.365C346.328 248.802 296.297 234.426 296.58 173.914C296.854 115.134 346.328 84.8175 398.446 78.6445V22.2764C398.446 14.3891 404.839 7.99516 412.727 7.99516H438.078C445.965 7.99516 452.359 14.3891 452.359 22.2764V80.1761C489.946 86.2444 540.562 105.27 549.145 163.206C550.324 171.164 543.725 177.831 535.681 177.793L503.716 177.644C496.383 177.61 490.471 171.934 488.28 164.936C479.992 138.471 454.004 122.426 415.951 122.248C390.637 122.13 353.949 135.561 353.806 166.24C353.676 194.044 374.955 203.516 454.362 224.033L464.875 226.717C466.203 227.045 467.62 227.387 469.114 227.747C499.365 235.043 561.433 250.011 561.123 316.554C560.878 369.084 524.993 405.014 465.026 415.707C457.878 416.982 452.413 423.026 452.413 430.287V474.759Z" fill="url(#paint0_linear_934_8280)"/>
</g>
<defs>
<linearGradient id="paint0_linear_934_8280" x1="223.657" y1="-63.7612" x2="494.208" y2="529.921" gradientUnits="userSpaceOnUse">
<stop stop-color="#00CFDE"/>
<stop offset="1" stop-color="#05A660"/>
</linearGradient>
</defs>
</svg>
