<svg width="427" height="427" viewBox="0 0 427 427" fill="none" xmlns="http://www.w3.org/2000/svg">
<g opacity="0.2">
<path d="M213.041 74.9976C289.279 74.9977 351.083 136.802 351.083 213.041C351.082 248.15 337.975 280.198 316.386 304.558L283.655 271.83C312.661 236.858 310.781 184.899 278.012 152.13C248.609 122.728 203.775 118.201 169.611 138.515C165.639 140.877 164.334 146.01 166.695 149.982C169.056 153.953 174.191 155.258 178.163 152.897C205.907 136.4 242.32 140.1 266.181 163.961C292.41 190.19 294.269 231.56 271.759 259.935L250.756 238.934C254.814 232.863 257.286 225.818 257.867 218.446C258.669 208.255 255.808 198.112 249.799 189.842C243.791 181.572 235.028 175.717 225.088 173.331C215.149 170.944 204.684 172.184 195.576 176.825C186.468 181.466 179.315 189.204 175.403 198.648C171.491 208.092 171.077 218.621 174.236 228.343C177.395 238.065 183.919 246.341 192.634 251.682C196.519 254.062 200.725 255.791 205.088 256.833C210.515 258.13 216.186 258.367 221.783 257.481C226.346 256.758 229.46 252.472 228.738 247.909C228.015 243.345 223.728 240.232 219.165 240.955C215.75 241.495 212.29 241.35 208.978 240.559C206.315 239.923 203.748 238.868 201.377 237.416C196.059 234.156 192.078 229.106 190.15 223.173C188.222 217.24 188.474 210.814 190.861 205.05C193.248 199.287 197.614 194.565 203.172 191.733C208.731 188.901 215.117 188.145 221.183 189.601C227.249 191.057 232.596 194.631 236.262 199.677C239.929 204.724 241.674 210.914 241.185 217.133C240.724 222.988 238.311 228.508 234.349 232.815C230.926 236.535 230.721 242.562 234.611 246.453L266.137 277.976C266.152 277.991 266.167 278.009 266.182 278.024C266.197 278.039 266.213 278.052 266.228 278.067L304.553 316.39C280.193 337.976 248.148 351.082 213.041 351.083C136.802 351.083 74.9977 289.279 74.9976 213.041C74.9976 186.243 82.6329 161.229 95.8472 140.055L133.95 178.357C119.118 211.137 125.162 251.065 152.12 278.023C177.239 303.142 213.624 310.099 244.972 298.943C249.325 297.393 251.597 292.609 250.048 288.256C248.499 283.904 243.715 281.63 239.362 283.179C213.869 292.252 184.333 286.572 163.952 266.191C140.806 243.045 136.628 208.088 151.461 180.685L154.422 175.213L150.035 170.802L105.702 126.235C131.009 94.9798 169.691 74.9976 213.041 74.9976Z" fill="url(#paint0_linear_843_1040)"/>
</g>
<defs>
<linearGradient id="paint0_linear_843_1040" x1="137.151" y1="96.776" x2="325.595" y2="323.765" gradientUnits="userSpaceOnUse">
<stop stop-color="#6CB5FF"/>
<stop offset="1" stop-color="#4D4AFF"/>
</linearGradient>
</defs>
</svg>
