<svg width="914" height="659" viewBox="0 0 914 659" fill="none" xmlns="http://www.w3.org/2000/svg">
<g opacity="0.05">
<path d="M303.678 -195.676C223.061 -209.891 146.184 -156.062 131.969 -75.4449L59.4016 336.107C45.1867 416.724 99.016 493.601 179.633 507.816L404.579 547.48C404.746 547.509 404.872 547.329 404.786 547.182L196.581 192.101C188.11 178.7 188.229 152.614 198.019 146.4C200.262 144.958 206.924 139.001 206.924 139.001L218.31 126.551L220.179 124.499C230.742 112.889 240.284 102.399 270.442 87.3029L276.931 85.043C321.165 71.2268 345.761 72.225 370.36 73.2233C394.968 74.2219 419.58 75.2207 463.858 61.3909C500.196 50.0411 533.245 27.7518 551.666 13.7744C559.843 7.56975 571.917 9.38176 577.354 18.0882L708.647 228.331C712.73 234.871 711.709 243.327 705.742 248.209C691.561 259.81 662.894 280.258 624.808 292.155C580.573 305.97 555.338 305.371 530.1 304.771C504.852 304.171 479.601 303.571 435.323 317.401C386.594 332.621 374.464 353.933 373.441 355.883C373.405 355.952 373.255 355.852 373.21 355.787C370.197 351.432 440.236 474.674 490.036 562.185C490.183 562.444 490.435 562.619 490.728 562.67L591.185 580.384C671.802 594.599 748.679 540.769 762.894 460.152L835.461 48.5998C849.676 -32.0172 795.847 -108.894 715.23 -123.109L303.678 -195.676Z" fill="url(#paint0_linear_934_9416)"/>
<path d="M475.464 118.358C438.236 128.071 415.678 127.363 393.123 126.656C370.575 125.948 348.032 125.241 310.84 134.945C288.064 141.548 275.461 153.426 262.989 168.57C262.935 168.635 262.928 168.729 262.972 168.801L339.285 293.914C339.35 294.02 339.474 294.059 339.569 293.979C342.03 291.889 372.591 266.45 413.78 255.704C455.732 244.759 480.843 245.002 507.284 245.259C527.762 245.458 549.039 245.664 579.554 240.687C600.022 237.348 616.733 228.452 626.047 222.532C630.784 219.522 631.799 213.322 628.753 208.608L556.161 96.24C552.766 90.9848 545.629 89.5157 540.185 92.5971C528.244 99.355 505.809 110.441 475.464 118.358Z" fill="url(#paint1_linear_934_9416)"/>
</g>
<defs>
<linearGradient id="paint0_linear_934_9416" x1="234.855" y1="-134.985" x2="660.008" y2="519.692" gradientUnits="userSpaceOnUse">
<stop stop-color="#FFC100"/>
<stop offset="1" stop-color="#E66B35"/>
</linearGradient>
<linearGradient id="paint1_linear_934_9416" x1="234.855" y1="-134.985" x2="660.008" y2="519.692" gradientUnits="userSpaceOnUse">
<stop stop-color="#FFC100"/>
<stop offset="1" stop-color="#E66B35"/>
</linearGradient>
</defs>
</svg>
