<svg width="32" height="32" viewBox="0 0 32 32" fill="none" xmlns="http://www.w3.org/2000/svg">
<path fill-rule="evenodd" clip-rule="evenodd" d="M2 6.00001C2 5.26363 2.59695 4.66668 3.33333 4.66668H28.6667C29.403 4.66668 30 5.26363 30 6.00001V26C30 26.7364 29.403 27.3333 28.6667 27.3333H3.33333C2.59695 27.3333 2 26.7364 2 26V6.00001ZM28.6667 6.00001H3.33333V26H28.6667V6.00001ZM19.3027 13.1028C19.3027 11.8016 20.4508 10.6667 21.9694 10.6667C23.488 10.6667 24.6361 11.8016 24.6361 13.1028C24.6361 14.404 23.488 15.5389 21.9694 15.5389C20.4508 15.5389 19.3027 14.404 19.3027 13.1028ZM21.9694 9.33334C19.8061 9.33334 17.9694 10.9768 17.9694 13.1028C17.9694 13.9877 18.2876 14.789 18.8151 15.423V22C18.8151 22.25 18.9549 22.4789 19.1773 22.5931C19.3996 22.7072 19.6672 22.6874 19.8703 22.5418L22.2491 20.8357L24.4256 22.5265C24.6266 22.6826 24.899 22.7107 25.1276 22.5988C25.3563 22.4869 25.5012 22.2546 25.5012 22V14.8777C25.7991 14.3527 25.9694 13.7501 25.9694 13.1028C25.9694 10.9768 24.1327 9.33334 21.9694 9.33334ZM24.1679 16.2512C23.5318 16.6454 22.7731 16.8722 21.9694 16.8722C21.3192 16.8722 20.6986 16.7238 20.1484 16.4584V20.7015L21.472 19.7522C21.9518 19.4081 22.6008 19.4206 23.0671 19.7828L24.1679 20.6379V16.2512ZM6.59538 15.1969C6.22719 15.1969 5.92871 15.4954 5.92871 15.8636C5.92871 16.2318 6.22719 16.5303 6.59538 16.5303H14.5954C14.9636 16.5303 15.262 16.2318 15.262 15.8636C15.262 15.4954 14.9636 15.1969 14.5954 15.1969H6.59538ZM5.92871 19.8539C5.92871 19.4857 6.22719 19.1873 6.59538 19.1873H14.5954C14.9636 19.1873 15.262 19.4857 15.262 19.8539C15.262 20.2221 14.9636 20.5206 14.5954 20.5206H6.59538C6.22719 20.5206 5.92871 20.2221 5.92871 19.8539ZM6.59538 11.1632C6.22719 11.1632 5.92871 11.4617 5.92871 11.8298C5.92871 12.198 6.22719 12.4965 6.59538 12.4965H14.5954C14.9636 12.4965 15.262 12.198 15.262 11.8298C15.262 11.4617 14.9636 11.1632 14.5954 11.1632H6.59538Z" fill="#0A3364"/>
</svg>
