<svg width="914" height="659" viewBox="0 0 914 659" fill="none" xmlns="http://www.w3.org/2000/svg">
<g opacity="0.05">
<path fill-rule="evenodd" clip-rule="evenodd" d="M434.359 -191.284C372.408 -154.915 239.449 -76.8608 120.071 -73.5086C119.46 -73.4914 118.96 -73.0666 118.884 -72.4603C98.4296 91.3168 135.182 453.141 445.297 599.232C445.585 599.368 445.904 599.396 446.206 599.293C525.117 572.515 653.066 480.064 723.617 293.094L591.417 237.691C590.631 237.362 589.87 237 589.134 236.606C571.74 264.823 545.222 287.717 511.816 300.338C431.522 330.675 341.837 290.177 311.499 209.882C281.162 129.587 321.661 39.9018 401.956 9.56459C482.251 -20.7726 571.936 19.7261 602.273 100.021C613.271 129.131 614.959 159.475 608.816 187.778C609.847 188.069 610.872 188.426 611.885 188.85L740.477 242.741C765.996 156.059 779.433 51.7673 772.554 -72.365C772.52 -72.9901 772.061 -73.5071 771.437 -73.5505C708.666 -77.9127 557.721 -126.598 446.385 -197.549C445.994 -197.798 445.528 -197.823 445.128 -197.59C441.83 -195.67 438.233 -193.558 434.359 -191.284ZM420.673 59.1035C367.737 79.1036 341.038 138.229 361.038 191.165C381.038 244.1 440.164 270.799 493.1 250.799C546.035 230.799 572.734 171.673 552.734 118.738C532.734 65.8026 473.608 39.1033 420.673 59.1035Z" fill="url(#paint0_linear_950_2884)"/>
</g>
<defs>
<linearGradient id="paint0_linear_950_2884" x1="223.452" y1="-95.3805" x2="757.885" y2="396.144" gradientUnits="userSpaceOnUse">
<stop stop-color="#4791FF"/>
<stop offset="1" stop-color="#2E1CF3"/>
</linearGradient>
</defs>
</svg>
