<svg width="320" height="320" viewBox="0 0 320 320" fill="none" xmlns="http://www.w3.org/2000/svg">
<g opacity="0.2">
<path d="M155.696 23.2955C158.661 21.5553 162.319 21.651 165.259 23.4332C199.462 44.1635 242.59 58.9499 266.428 62.9224C271.015 63.6869 274.709 67.4625 274.878 72.1099C276.333 111.996 271.69 145.819 263.328 174.221L260.439 182.847L212.004 159.856C214.658 149.119 213.97 137.746 209.904 127.3C204.706 113.95 194.419 103.209 181.304 97.4439C168.189 91.6787 153.32 91.3602 139.97 96.5572C126.619 101.754 115.879 112.042 110.114 125.157C104.348 138.272 104.03 153.141 109.227 166.492C114.424 179.842 124.711 190.582 137.826 196.347C150.942 202.113 165.811 202.431 179.161 197.234C189.497 193.21 198.267 186.135 204.376 177.059L253.925 200.58C229.79 257.509 190.319 287.217 163.96 297.414C161.751 298.268 159.275 298.096 157.152 297.048C56.3132 247.296 40.6177 131.107 45.6946 71.7085C46.0811 67.1862 49.8767 63.8555 54.3938 63.4117C93.4508 59.5741 135.068 35.4016 155.696 23.2955ZM146.794 114.088C155.495 110.701 165.186 110.909 173.734 114.667C182.281 118.424 188.986 125.424 192.373 134.125C195.76 142.826 195.553 152.516 191.795 161.064C188.038 169.611 181.038 176.316 172.337 179.704C163.636 183.091 153.945 182.883 145.398 179.126C136.85 175.368 130.145 168.368 126.758 159.668C123.371 150.966 123.579 141.276 127.336 132.728C131.094 124.18 138.093 117.476 146.794 114.088Z" fill="url(#paint0_linear_843_1047)"/>
</g>
<defs>
<linearGradient id="paint0_linear_843_1047" x1="96.6976" y1="43.8053" x2="288.298" y2="236.427" gradientUnits="userSpaceOnUse">
<stop stop-color="#5992FF"/>
<stop offset="1" stop-color="#004FE6"/>
</linearGradient>
</defs>
</svg>
