<svg width="914" height="659" viewBox="0 0 914 659" fill="none" xmlns="http://www.w3.org/2000/svg">
<g opacity="0.05">
<path fill-rule="evenodd" clip-rule="evenodd" d="M583.319 150.28C594.078 161.144 611.521 161.144 622.279 150.28C633.038 139.416 633.038 121.801 622.279 110.937L480.349 -32.3884L652.199 -132.581C692.388 -156.013 742.625 -126.723 742.625 -79.8608L742.625 226.337L534.89 276.523C520.092 280.098 510.967 295.11 514.507 310.053C518.047 324.995 532.912 334.211 547.71 330.636L742.625 283.547V512.267C742.625 559.13 692.388 588.419 652.199 564.988L413.109 425.592L446.564 181.599C448.651 166.38 438.125 152.334 423.053 150.226C407.982 148.119 394.073 158.749 391.986 173.968L361.603 395.563L144.392 268.924C104.203 245.492 104.203 186.914 144.392 163.483L430.949 -3.58722L583.319 150.28Z" fill="url(#paint0_linear_934_8848)"/>
</g>
<defs>
<linearGradient id="paint0_linear_934_8848" x1="359.437" y1="-29.5485" x2="747.688" y2="567.904" gradientUnits="userSpaceOnUse">
<stop stop-color="#FF61A2"/>
<stop offset="1" stop-color="#D8005A"/>
</linearGradient>
</defs>
</svg>
