<svg width="118" height="118" viewBox="0 0 118 118" fill="none" xmlns="http://www.w3.org/2000/svg">
<g opacity="0.05">
<path fill-rule="evenodd" clip-rule="evenodd" d="M10.6203 49.0789C4.32643 55.3728 4.32644 65.5772 10.6203 71.8711L46.1288 107.38C52.4227 113.673 62.6271 113.673 68.921 107.38L104.43 71.8711C110.723 65.5772 110.723 55.3728 104.429 49.0789L68.921 13.5704C62.6271 7.2765 52.4227 7.27651 46.1288 13.5704L10.6203 49.0789ZM66.1141 39.1557C66.5212 37.5 65.509 35.8278 63.8533 35.4206C62.1976 35.0135 60.5254 36.0257 60.1183 37.6814L49.8276 79.5302C49.4204 81.1859 50.4326 82.8582 52.0883 83.2653C53.744 83.6724 55.4162 82.6603 55.8234 81.0046L66.1141 39.1557ZM37.4696 76.0002C38.6753 77.2058 40.63 77.2058 41.8356 76.0002C43.0412 74.7945 43.0412 72.8398 41.8356 71.6342L30.4356 60.2342L41.8356 48.8341C43.0412 47.6285 43.0412 45.6738 41.8356 44.4681C40.63 43.2625 38.6753 43.2625 37.4696 44.4681L23.8866 58.0512C22.681 59.2568 22.681 61.2115 23.8866 62.4171L37.4696 76.0002ZM73.5543 76.3432C74.7599 77.5488 76.7146 77.5488 77.9203 76.3432L91.5033 62.7602C92.7089 61.5545 92.7089 59.5998 91.5033 58.3942L77.9203 44.8112C76.7146 43.6055 74.7599 43.6055 73.5543 44.8112C72.3487 46.0168 72.3487 47.9715 73.5543 49.1771L84.9543 60.5772L73.5543 71.9772C72.3487 73.1829 72.3487 75.1376 73.5543 76.3432Z" fill="url(#paint0_linear_1295_2458)"/>
</g>
<defs>
<linearGradient id="paint0_linear_1295_2458" x1="22.6395" y1="17.4941" x2="87.814" y2="101.535" gradientUnits="userSpaceOnUse">
<stop stop-color="#73DFE7"/>
<stop offset="1" stop-color="#0095F7"/>
</linearGradient>
</defs>
</svg>
