<svg width="474" height="370" viewBox="0 0 474 370" fill="none" xmlns="http://www.w3.org/2000/svg">
<rect x="0.5" y="0.5" width="473" height="41" rx="3.5" fill="#E2F5FF"/>
<path d="M129.406 18.5078C129.346 17.9496 129.094 17.5149 128.651 17.2038C128.212 16.8928 127.641 16.7372 126.938 16.7372C126.444 16.7372 126.02 16.8118 125.666 16.9609C125.313 17.1101 125.042 17.3125 124.854 17.5682C124.667 17.8239 124.571 18.1158 124.567 18.4439C124.567 18.7166 124.629 18.9531 124.752 19.1534C124.88 19.3537 125.053 19.5241 125.27 19.6648C125.487 19.8011 125.728 19.9162 125.992 20.0099C126.256 20.1037 126.523 20.1825 126.791 20.2464L128.018 20.5533C128.513 20.6683 128.988 20.8239 129.444 21.0199C129.904 21.2159 130.315 21.4631 130.678 21.7614C131.044 22.0597 131.334 22.4197 131.547 22.8416C131.76 23.2635 131.866 23.7578 131.866 24.3246C131.866 25.0916 131.67 25.767 131.278 26.3509C130.886 26.9304 130.32 27.3842 129.578 27.7124C128.841 28.0362 127.948 28.1982 126.9 28.1982C125.881 28.1982 124.997 28.0405 124.247 27.7251C123.501 27.4098 122.918 26.9496 122.496 26.3445C122.078 25.7393 121.852 25.0021 121.818 24.1328H124.151C124.185 24.5888 124.326 24.968 124.573 25.2706C124.82 25.5732 125.142 25.799 125.538 25.9482C125.939 26.0973 126.386 26.1719 126.881 26.1719C127.396 26.1719 127.848 26.0952 128.236 25.9418C128.628 25.7841 128.935 25.5668 129.156 25.2898C129.378 25.0085 129.491 24.6804 129.495 24.3054C129.491 23.9645 129.391 23.6832 129.195 23.4616C128.999 23.2358 128.724 23.0483 128.37 22.8991C128.021 22.7457 127.612 22.6094 127.143 22.4901L125.653 22.1065C124.575 21.8295 123.723 21.4098 123.097 20.8473C122.474 20.2805 122.163 19.5284 122.163 18.5909C122.163 17.8196 122.372 17.1442 122.79 16.5646C123.212 15.9851 123.785 15.5355 124.509 15.2159C125.234 14.892 126.054 14.7301 126.97 14.7301C127.899 14.7301 128.713 14.892 129.412 15.2159C130.115 15.5355 130.667 15.9808 131.067 16.5518C131.468 17.1186 131.675 17.7706 131.688 18.5078H129.406ZM138.161 28.1918C137.202 28.1918 136.371 27.9808 135.668 27.5589C134.965 27.1371 134.42 26.5469 134.032 25.7884C133.648 25.0298 133.456 24.1435 133.456 23.1293C133.456 22.1151 133.648 21.2266 134.032 20.4638C134.42 19.701 134.965 19.1087 135.668 18.6868C136.371 18.2649 137.202 18.054 138.161 18.054C139.12 18.054 139.951 18.2649 140.654 18.6868C141.357 19.1087 141.9 19.701 142.284 20.4638C142.672 21.2266 142.866 22.1151 142.866 23.1293C142.866 24.1435 142.672 25.0298 142.284 25.7884C141.9 26.5469 141.357 27.1371 140.654 27.5589C139.951 27.9808 139.12 28.1918 138.161 28.1918ZM138.174 26.3381C138.694 26.3381 139.128 26.1953 139.478 25.9098C139.827 25.62 140.087 25.2322 140.258 24.7464C140.432 24.2607 140.52 23.7195 140.52 23.1229C140.52 22.522 140.432 21.9787 140.258 21.4929C140.087 21.0028 139.827 20.6129 139.478 20.3232C139.128 20.0334 138.694 19.8885 138.174 19.8885C137.641 19.8885 137.198 20.0334 136.844 20.3232C136.495 20.6129 136.233 21.0028 136.058 21.4929C135.888 21.9787 135.802 22.522 135.802 23.1229C135.802 23.7195 135.888 24.2607 136.058 24.7464C136.233 25.2322 136.495 25.62 136.844 25.9098C137.198 26.1953 137.641 26.3381 138.174 26.3381ZM151.087 23.8707V18.1818H153.401V28H151.158V26.255H151.055C150.834 26.8047 150.469 27.2543 149.962 27.6037C149.46 27.9531 148.839 28.1278 148.102 28.1278C147.459 28.1278 146.89 27.9851 146.396 27.6996C145.906 27.4098 145.522 26.9901 145.245 26.4403C144.968 25.8864 144.83 25.2173 144.83 24.4332V18.1818H147.143V24.0753C147.143 24.6974 147.314 25.1918 147.655 25.5582C147.996 25.9247 148.443 26.108 148.997 26.108C149.338 26.108 149.668 26.0249 149.988 25.8587C150.308 25.6925 150.57 25.4453 150.774 25.1172C150.983 24.7848 151.087 24.3693 151.087 23.8707ZM155.781 28V18.1818H158.024V19.8182H158.127C158.306 19.2514 158.612 18.8146 159.047 18.5078C159.486 18.1967 159.987 18.0412 160.549 18.0412C160.677 18.0412 160.82 18.0476 160.977 18.0604C161.139 18.0689 161.274 18.0838 161.38 18.1051V20.2337C161.282 20.1996 161.127 20.1697 160.914 20.1442C160.705 20.1143 160.502 20.0994 160.306 20.0994C159.884 20.0994 159.505 20.1911 159.169 20.3743C158.836 20.5533 158.574 20.8026 158.382 21.1222C158.191 21.4418 158.095 21.8104 158.095 22.228V28H155.781ZM166.796 28.1918C165.816 28.1918 164.974 27.9766 164.271 27.5462C163.572 27.1158 163.033 26.5213 162.654 25.7628C162.279 25 162.091 24.1222 162.091 23.1293C162.091 22.1321 162.283 21.2521 162.667 20.4893C163.05 19.7223 163.591 19.1257 164.29 18.6996C164.993 18.2692 165.824 18.054 166.783 18.054C167.58 18.054 168.285 18.201 168.899 18.495C169.517 18.7848 170.009 19.196 170.375 19.7287C170.742 20.2571 170.951 20.875 171.002 21.5824H168.79C168.701 21.1094 168.488 20.7152 168.151 20.3999C167.819 20.0803 167.373 19.9205 166.815 19.9205C166.342 19.9205 165.926 20.0483 165.569 20.304C165.211 20.5554 164.931 20.9176 164.731 21.3906C164.535 21.8636 164.437 22.4304 164.437 23.0909C164.437 23.7599 164.535 24.3352 164.731 24.8168C164.927 25.294 165.202 25.6626 165.556 25.9226C165.914 26.1783 166.333 26.3061 166.815 26.3061C167.156 26.3061 167.461 26.2422 167.729 26.1143C168.002 25.9822 168.23 25.7926 168.413 25.5455C168.596 25.2983 168.722 24.9979 168.79 24.6442H171.002C170.946 25.3388 170.742 25.9545 170.388 26.4915C170.034 27.0241 169.553 27.4418 168.944 27.7443C168.334 28.0426 167.618 28.1918 166.796 28.1918ZM177.248 28.1918C176.264 28.1918 175.414 27.9872 174.698 27.5781C173.986 27.1648 173.439 26.581 173.055 25.8267C172.672 25.0682 172.48 24.1754 172.48 23.1484C172.48 22.1385 172.672 21.2521 173.055 20.4893C173.443 19.7223 173.984 19.1257 174.679 18.6996C175.373 18.2692 176.189 18.054 177.127 18.054C177.732 18.054 178.303 18.152 178.84 18.348C179.381 18.5398 179.858 18.8381 180.272 19.2429C180.689 19.6477 181.018 20.1634 181.256 20.7898C181.495 21.4119 181.614 22.1534 181.614 23.0142V23.7237H173.567V22.1641H179.396C179.392 21.7209 179.296 21.3267 179.108 20.9815C178.921 20.6321 178.659 20.3572 178.322 20.157C177.99 19.9567 177.602 19.8565 177.159 19.8565C176.686 19.8565 176.27 19.9716 175.912 20.2017C175.555 20.4276 175.275 20.7259 175.075 21.0966C174.879 21.4631 174.779 21.8658 174.775 22.3047V23.6662C174.775 24.2372 174.879 24.7273 175.088 25.1364C175.297 25.5412 175.589 25.8523 175.964 26.0696C176.339 26.2827 176.778 26.3892 177.28 26.3892C177.617 26.3892 177.922 26.3423 178.194 26.2486C178.467 26.1506 178.704 26.0078 178.904 25.8203C179.104 25.6328 179.256 25.4006 179.358 25.1236L181.518 25.3665C181.382 25.9375 181.122 26.4361 180.738 26.8622C180.359 27.2841 179.873 27.6122 179.281 27.8466C178.689 28.0767 178.011 28.1918 177.248 28.1918ZM199.344 19.326H196.953C196.885 18.9339 196.76 18.5866 196.576 18.2841C196.393 17.9773 196.165 17.7173 195.892 17.5043C195.62 17.2912 195.309 17.1314 194.959 17.0249C194.614 16.9141 194.241 16.8587 193.841 16.8587C193.129 16.8587 192.498 17.0376 191.949 17.3956C191.399 17.7493 190.968 18.2692 190.657 18.9553C190.346 19.6371 190.191 20.4702 190.191 21.4545C190.191 22.456 190.346 23.2997 190.657 23.9858C190.973 24.6676 191.403 25.1832 191.949 25.5327C192.498 25.8778 193.127 26.0504 193.834 26.0504C194.226 26.0504 194.593 25.9993 194.934 25.897C195.279 25.7905 195.588 25.6349 195.86 25.4304C196.137 25.2259 196.37 24.9744 196.557 24.6761C196.749 24.3778 196.881 24.0369 196.953 23.6534L199.344 23.6662C199.255 24.2884 199.061 24.8722 198.762 25.4176C198.468 25.9631 198.083 26.4446 197.605 26.8622C197.128 27.2756 196.57 27.5994 195.931 27.8338C195.292 28.0639 194.582 28.179 193.802 28.179C192.652 28.179 191.625 27.9126 190.721 27.38C189.818 26.8473 189.106 26.0781 188.586 25.0724C188.066 24.0668 187.806 22.8608 187.806 21.4545C187.806 20.044 188.069 18.8381 188.593 17.8366C189.117 16.831 189.831 16.0618 190.734 15.5291C191.637 14.9964 192.66 14.7301 193.802 14.7301C194.531 14.7301 195.208 14.8324 195.835 15.0369C196.461 15.2415 197.02 15.5419 197.51 15.9382C198 16.3303 198.402 16.8118 198.718 17.3828C199.037 17.9496 199.246 18.5973 199.344 19.326ZM205.696 28.1918C204.737 28.1918 203.906 27.9808 203.203 27.5589C202.5 27.1371 201.955 26.5469 201.567 25.7884C201.183 25.0298 200.992 24.1435 200.992 23.1293C200.992 22.1151 201.183 21.2266 201.567 20.4638C201.955 19.701 202.5 19.1087 203.203 18.6868C203.906 18.2649 204.737 18.054 205.696 18.054C206.655 18.054 207.486 18.2649 208.189 18.6868C208.892 19.1087 209.436 19.701 209.819 20.4638C210.207 21.2266 210.401 22.1151 210.401 23.1293C210.401 24.1435 210.207 25.0298 209.819 25.7884C209.436 26.5469 208.892 27.1371 208.189 27.5589C207.486 27.9808 206.655 28.1918 205.696 28.1918ZM205.709 26.3381C206.229 26.3381 206.664 26.1953 207.013 25.9098C207.362 25.62 207.622 25.2322 207.793 24.7464C207.968 24.2607 208.055 23.7195 208.055 23.1229C208.055 22.522 207.968 21.9787 207.793 21.4929C207.622 21.0028 207.362 20.6129 207.013 20.3232C206.664 20.0334 206.229 19.8885 205.709 19.8885C205.176 19.8885 204.733 20.0334 204.379 20.3232C204.03 20.6129 203.768 21.0028 203.593 21.4929C203.423 21.9787 203.338 22.522 203.338 23.1229C203.338 23.7195 203.423 24.2607 203.593 24.7464C203.768 25.2322 204.03 25.62 204.379 25.9098C204.733 26.1953 205.176 26.3381 205.709 26.3381ZM216.008 28.1726C215.237 28.1726 214.547 27.9744 213.937 27.5781C213.328 27.1818 212.846 26.6065 212.493 25.8523C212.139 25.098 211.962 24.1818 211.962 23.1037C211.962 22.0128 212.141 21.0923 212.499 20.3423C212.861 19.5881 213.349 19.0192 213.963 18.6357C214.576 18.2479 215.26 18.054 216.015 18.054C216.59 18.054 217.063 18.152 217.434 18.348C217.804 18.5398 218.098 18.772 218.316 19.0447C218.533 19.3132 218.701 19.5668 218.821 19.8054H218.917V14.9091H221.237V28H218.961V26.4531H218.821C218.701 26.6918 218.529 26.9453 218.303 27.2138C218.077 27.478 217.779 27.7038 217.408 27.8913C217.037 28.0788 216.571 28.1726 216.008 28.1726ZM216.654 26.2741C217.144 26.2741 217.561 26.142 217.907 25.8778C218.252 25.6094 218.514 25.2365 218.693 24.7592C218.872 24.282 218.961 23.7259 218.961 23.0909C218.961 22.456 218.872 21.9041 218.693 21.4354C218.518 20.9666 218.258 20.6023 217.913 20.3423C217.572 20.0824 217.152 19.9524 216.654 19.9524C216.138 19.9524 215.708 20.0866 215.363 20.3551C215.017 20.6236 214.757 20.9943 214.583 21.4673C214.408 21.9403 214.321 22.4815 214.321 23.0909C214.321 23.7045 214.408 24.2521 214.583 24.7337C214.762 25.2109 215.024 25.5881 215.369 25.8651C215.718 26.1378 216.147 26.2741 216.654 26.2741ZM228.049 28.1918C227.065 28.1918 226.215 27.9872 225.499 27.5781C224.787 27.1648 224.24 26.581 223.856 25.8267C223.472 25.0682 223.281 24.1754 223.281 23.1484C223.281 22.1385 223.472 21.2521 223.856 20.4893C224.244 19.7223 224.785 19.1257 225.48 18.6996C226.174 18.2692 226.99 18.054 227.928 18.054C228.533 18.054 229.104 18.152 229.641 18.348C230.182 18.5398 230.659 18.8381 231.073 19.2429C231.49 19.6477 231.818 20.1634 232.057 20.7898C232.296 21.4119 232.415 22.1534 232.415 23.0142V23.7237H224.367V22.1641H230.197C230.193 21.7209 230.097 21.3267 229.909 20.9815C229.722 20.6321 229.46 20.3572 229.123 20.157C228.791 19.9567 228.403 19.8565 227.96 19.8565C227.487 19.8565 227.071 19.9716 226.713 20.2017C226.355 20.4276 226.076 20.7259 225.876 21.0966C225.68 21.4631 225.58 21.8658 225.575 22.3047V23.6662C225.575 24.2372 225.68 24.7273 225.889 25.1364C226.097 25.5412 226.389 25.8523 226.764 26.0696C227.139 26.2827 227.578 26.3892 228.081 26.3892C228.418 26.3892 228.722 26.3423 228.995 26.2486C229.268 26.1506 229.504 26.0078 229.705 25.8203C229.905 25.6328 230.056 25.4006 230.159 25.1236L232.319 25.3665C232.183 25.9375 231.923 26.4361 231.539 26.8622C231.16 27.2841 230.674 27.6122 230.082 27.8466C229.49 28.0767 228.812 28.1918 228.049 28.1918ZM238.94 14.9091H241.842L245.728 24.3949H245.881L249.768 14.9091H252.67V28H250.394V19.0064H250.273L246.655 27.9616H244.955L241.337 18.9872H241.215V28H238.94V14.9091ZM257.975 28.1982C257.353 28.1982 256.793 28.0874 256.294 27.8658C255.8 27.6399 255.408 27.3075 255.118 26.8686C254.832 26.4297 254.69 25.8885 254.69 25.245C254.69 24.6911 254.792 24.233 254.996 23.8707C255.201 23.5085 255.48 23.2188 255.834 23.0014C256.188 22.7841 256.586 22.62 257.029 22.5092C257.477 22.3942 257.939 22.3111 258.416 22.2599C258.991 22.2003 259.458 22.147 259.816 22.1001C260.174 22.049 260.434 21.9723 260.596 21.87C260.762 21.7635 260.845 21.5994 260.845 21.3778V21.3395C260.845 20.858 260.702 20.4851 260.417 20.2209C260.131 19.9567 259.72 19.8246 259.183 19.8246C258.616 19.8246 258.167 19.9482 257.835 20.1953C257.506 20.4425 257.285 20.7344 257.17 21.071L255.009 20.7642C255.18 20.1676 255.461 19.669 255.853 19.2685C256.245 18.8636 256.724 18.5611 257.291 18.3608C257.858 18.1562 258.484 18.054 259.17 18.054C259.643 18.054 260.114 18.1094 260.583 18.2202C261.052 18.331 261.48 18.5142 261.868 18.7699C262.256 19.0213 262.567 19.3643 262.801 19.799C263.04 20.2337 263.159 20.777 263.159 21.429V28H260.935V26.6513H260.858C260.717 26.924 260.519 27.1797 260.263 27.4183C260.012 27.6527 259.695 27.8423 259.311 27.9872C258.932 28.1278 258.487 28.1982 257.975 28.1982ZM258.576 26.4979C259.04 26.4979 259.443 26.4062 259.784 26.223C260.125 26.0355 260.387 25.7884 260.57 25.4815C260.758 25.1747 260.852 24.8402 260.852 24.478V23.321C260.779 23.3807 260.656 23.4361 260.481 23.4872C260.31 23.5384 260.119 23.5831 259.906 23.6214C259.692 23.6598 259.482 23.6939 259.273 23.7237C259.064 23.7536 258.883 23.7791 258.729 23.8004C258.384 23.8473 258.075 23.924 257.803 24.0305C257.53 24.1371 257.315 24.2862 257.157 24.478C256.999 24.6655 256.92 24.9084 256.92 25.2067C256.92 25.6328 257.076 25.9545 257.387 26.1719C257.698 26.3892 258.094 26.4979 258.576 26.4979ZM267.8 22.2472V28H265.486V18.1818H267.697V19.8501H267.812C268.038 19.3004 268.398 18.8636 268.893 18.5398C269.391 18.2159 270.007 18.054 270.74 18.054C271.418 18.054 272.008 18.1989 272.511 18.4886C273.018 18.7784 273.41 19.1982 273.687 19.7479C273.968 20.2976 274.107 20.9645 274.102 21.7486V28H271.788V22.1065C271.788 21.4503 271.618 20.9368 271.277 20.5661C270.94 20.1953 270.474 20.0099 269.877 20.0099C269.472 20.0099 269.112 20.0994 268.797 20.2784C268.486 20.4531 268.241 20.7067 268.062 21.0391C267.887 21.3714 267.8 21.7741 267.8 22.2472ZM279.28 28.1982C278.658 28.1982 278.097 28.0874 277.599 27.8658C277.104 27.6399 276.712 27.3075 276.423 26.8686C276.137 26.4297 275.994 25.8885 275.994 25.245C275.994 24.6911 276.097 24.233 276.301 23.8707C276.506 23.5085 276.785 23.2188 277.138 23.0014C277.492 22.7841 277.891 22.62 278.334 22.5092C278.781 22.3942 279.244 22.3111 279.721 22.2599C280.296 22.2003 280.763 22.147 281.121 22.1001C281.479 22.049 281.739 21.9723 281.901 21.87C282.067 21.7635 282.15 21.5994 282.15 21.3778V21.3395C282.15 20.858 282.007 20.4851 281.722 20.2209C281.436 19.9567 281.025 19.8246 280.488 19.8246C279.921 19.8246 279.472 19.9482 279.139 20.1953C278.811 20.4425 278.589 20.7344 278.474 21.071L276.314 20.7642C276.484 20.1676 276.766 19.669 277.158 19.2685C277.55 18.8636 278.029 18.5611 278.596 18.3608C279.163 18.1562 279.789 18.054 280.475 18.054C280.948 18.054 281.419 18.1094 281.888 18.2202C282.357 18.331 282.785 18.5142 283.173 18.7699C283.56 19.0213 283.871 19.3643 284.106 19.799C284.344 20.2337 284.464 20.777 284.464 21.429V28H282.239V26.6513H282.163C282.022 26.924 281.824 27.1797 281.568 27.4183C281.317 27.6527 280.999 27.8423 280.616 27.9872C280.237 28.1278 279.791 28.1982 279.28 28.1982ZM279.881 26.4979C280.345 26.4979 280.748 26.4062 281.089 26.223C281.43 26.0355 281.692 25.7884 281.875 25.4815C282.062 25.1747 282.156 24.8402 282.156 24.478V23.321C282.084 23.3807 281.96 23.4361 281.786 23.4872C281.615 23.5384 281.423 23.5831 281.21 23.6214C280.997 23.6598 280.786 23.6939 280.577 23.7237C280.369 23.7536 280.188 23.7791 280.034 23.8004C279.689 23.8473 279.38 23.924 279.107 24.0305C278.835 24.1371 278.619 24.2862 278.462 24.478C278.304 24.6655 278.225 24.9084 278.225 25.2067C278.225 25.6328 278.381 25.9545 278.692 26.1719C279.003 26.3892 279.399 26.4979 279.881 26.4979ZM291.06 31.8864C290.229 31.8864 289.516 31.7734 288.919 31.5476C288.322 31.326 287.843 31.0277 287.481 30.6527C287.119 30.2777 286.867 29.8622 286.727 29.4062L288.81 28.9013C288.904 29.093 289.04 29.2827 289.219 29.4702C289.398 29.6619 289.639 29.8196 289.942 29.9432C290.249 30.071 290.634 30.1349 291.099 30.1349C291.755 30.1349 292.298 29.9751 292.729 29.6555C293.159 29.3402 293.374 28.8203 293.374 28.0959V26.2358H293.259C293.14 26.4744 292.965 26.7195 292.735 26.9709C292.509 27.2223 292.209 27.4332 291.834 27.6037C291.463 27.7741 290.996 27.8594 290.434 27.8594C289.68 27.8594 288.996 27.6825 288.382 27.3288C287.773 26.9709 287.287 26.4382 286.925 25.7308C286.567 25.0192 286.388 24.1286 286.388 23.0589C286.388 21.9808 286.567 21.071 286.925 20.3295C287.287 19.5838 287.775 19.0192 288.388 18.6357C289.002 18.2479 289.686 18.054 290.44 18.054C291.016 18.054 291.489 18.152 291.859 18.348C292.234 18.5398 292.533 18.772 292.754 19.0447C292.976 19.3132 293.144 19.5668 293.259 19.8054H293.387V18.1818H295.669V28.1598C295.669 28.9993 295.469 29.6939 295.068 30.2436C294.668 30.7933 294.12 31.2045 293.425 31.4773C292.731 31.75 291.942 31.8864 291.06 31.8864ZM291.08 26.044C291.57 26.044 291.987 25.9247 292.332 25.6861C292.678 25.4474 292.94 25.1044 293.119 24.657C293.298 24.2095 293.387 23.6726 293.387 23.0462C293.387 22.4283 293.298 21.8871 293.119 21.4226C292.944 20.9581 292.684 20.598 292.339 20.3423C291.998 20.0824 291.578 19.9524 291.08 19.9524C290.564 19.9524 290.134 20.0866 289.788 20.3551C289.443 20.6236 289.183 20.9922 289.009 21.4609C288.834 21.9254 288.746 22.4538 288.746 23.0462C288.746 23.647 288.834 24.1733 289.009 24.625C289.188 25.0724 289.45 25.4219 289.795 25.6733C290.144 25.9205 290.572 26.044 291.08 26.044ZM302.387 28.1918C301.403 28.1918 300.553 27.9872 299.837 27.5781C299.125 27.1648 298.577 26.581 298.194 25.8267C297.81 25.0682 297.619 24.1754 297.619 23.1484C297.619 22.1385 297.81 21.2521 298.194 20.4893C298.582 19.7223 299.123 19.1257 299.817 18.6996C300.512 18.2692 301.328 18.054 302.266 18.054C302.871 18.054 303.442 18.152 303.979 18.348C304.52 18.5398 304.997 18.8381 305.411 19.2429C305.828 19.6477 306.156 20.1634 306.395 20.7898C306.634 21.4119 306.753 22.1534 306.753 23.0142V23.7237H298.705V22.1641H304.535C304.531 21.7209 304.435 21.3267 304.247 20.9815C304.06 20.6321 303.798 20.3572 303.461 20.157C303.129 19.9567 302.741 19.8565 302.298 19.8565C301.825 19.8565 301.409 19.9716 301.051 20.2017C300.693 20.4276 300.414 20.7259 300.214 21.0966C300.018 21.4631 299.918 21.8658 299.913 22.3047V23.6662C299.913 24.2372 300.018 24.7273 300.227 25.1364C300.435 25.5412 300.727 25.8523 301.102 26.0696C301.477 26.2827 301.916 26.3892 302.419 26.3892C302.756 26.3892 303.06 26.3423 303.333 26.2486C303.606 26.1506 303.842 26.0078 304.043 25.8203C304.243 25.6328 304.394 25.4006 304.496 25.1236L306.657 25.3665C306.521 25.9375 306.261 26.4361 305.877 26.8622C305.498 27.2841 305.012 27.6122 304.42 27.8466C303.827 28.0767 303.15 28.1918 302.387 28.1918ZM308.71 28V18.1818H310.922V19.8501H311.037C311.242 19.2876 311.58 18.8487 312.053 18.5334C312.526 18.2138 313.091 18.054 313.747 18.054C314.412 18.054 314.972 18.2159 315.428 18.5398C315.889 18.8594 316.213 19.2962 316.4 19.8501H316.502C316.72 19.3047 317.086 18.87 317.602 18.5462C318.122 18.218 318.737 18.054 319.449 18.054C320.352 18.054 321.09 18.3395 321.661 18.9105C322.232 19.4815 322.517 20.3146 322.517 21.4098V28H320.197V21.7678C320.197 21.1584 320.035 20.7131 319.711 20.4318C319.387 20.1463 318.991 20.0036 318.522 20.0036C317.964 20.0036 317.527 20.1783 317.212 20.5277C316.901 20.8729 316.745 21.3224 316.745 21.8764V28H314.476V21.6719C314.476 21.1648 314.323 20.7599 314.016 20.4574C313.713 20.1548 313.317 20.0036 312.827 20.0036C312.494 20.0036 312.192 20.0888 311.919 20.2592C311.646 20.4254 311.429 20.6619 311.267 20.9688C311.105 21.2713 311.024 21.625 311.024 22.0298V28H308.71ZM329.211 28.1918C328.227 28.1918 327.377 27.9872 326.661 27.5781C325.949 27.1648 325.402 26.581 325.018 25.8267C324.635 25.0682 324.443 24.1754 324.443 23.1484C324.443 22.1385 324.635 21.2521 325.018 20.4893C325.406 19.7223 325.947 19.1257 326.642 18.6996C327.336 18.2692 328.152 18.054 329.09 18.054C329.695 18.054 330.266 18.152 330.803 18.348C331.344 18.5398 331.821 18.8381 332.235 19.2429C332.652 19.6477 332.98 20.1634 333.219 20.7898C333.458 21.4119 333.577 22.1534 333.577 23.0142V23.7237H325.529V22.1641H331.359C331.355 21.7209 331.259 21.3267 331.071 20.9815C330.884 20.6321 330.622 20.3572 330.285 20.157C329.953 19.9567 329.565 19.8565 329.122 19.8565C328.649 19.8565 328.233 19.9716 327.875 20.2017C327.517 20.4276 327.238 20.7259 327.038 21.0966C326.842 21.4631 326.742 21.8658 326.738 22.3047V23.6662C326.738 24.2372 326.842 24.7273 327.051 25.1364C327.26 25.5412 327.551 25.8523 327.926 26.0696C328.301 26.2827 328.74 26.3892 329.243 26.3892C329.58 26.3892 329.885 26.3423 330.157 26.2486C330.43 26.1506 330.667 26.0078 330.867 25.8203C331.067 25.6328 331.218 25.4006 331.321 25.1236L333.481 25.3665C333.345 25.9375 333.085 26.4361 332.701 26.8622C332.322 27.2841 331.836 27.6122 331.244 27.8466C330.652 28.0767 329.974 28.1918 329.211 28.1918ZM337.849 22.2472V28H335.535V18.1818H337.746V19.8501H337.861C338.087 19.3004 338.447 18.8636 338.942 18.5398C339.44 18.2159 340.056 18.054 340.789 18.054C341.466 18.054 342.057 18.1989 342.559 18.4886C343.067 18.7784 343.459 19.1982 343.736 19.7479C344.017 20.2976 344.155 20.9645 344.151 21.7486V28H341.837V22.1065C341.837 21.4503 341.667 20.9368 341.326 20.5661C340.989 20.1953 340.523 20.0099 339.926 20.0099C339.521 20.0099 339.161 20.0994 338.846 20.2784C338.535 20.4531 338.29 20.7067 338.111 21.0391C337.936 21.3714 337.849 21.7741 337.849 22.2472ZM351.406 18.1818V19.9716H345.762V18.1818H351.406ZM347.155 15.8295H349.469V25.0469C349.469 25.358 349.516 25.5966 349.61 25.7628C349.708 25.9247 349.836 26.0355 349.993 26.0952C350.151 26.1548 350.326 26.1847 350.518 26.1847C350.662 26.1847 350.795 26.174 350.914 26.1527C351.037 26.1314 351.131 26.1122 351.195 26.0952L351.585 27.9041C351.461 27.9467 351.285 27.9936 351.055 28.0447C350.829 28.0959 350.552 28.1257 350.224 28.1342C349.644 28.1513 349.122 28.0639 348.657 27.8722C348.193 27.6761 347.824 27.3736 347.552 26.9645C347.283 26.5554 347.151 26.044 347.155 25.4304V15.8295Z" fill="#22222A"/>
<rect x="0.5" y="0.5" width="473" height="41" rx="3.5" stroke="#2BB1F2"/>
<path d="M233 66L236.99 70L237 54V70L241 66" stroke="#2BB1F2" stroke-linecap="round" stroke-linejoin="round"/>
<rect x="0.5" y="82.5" width="473" height="41" rx="3.5" fill="#E2F5FF"/>
<path d="M156.113 101.326H153.722C153.654 100.934 153.528 100.587 153.345 100.284C153.162 99.9773 152.934 99.7173 152.661 99.5043C152.388 99.2912 152.077 99.1314 151.728 99.0249C151.383 98.9141 151.01 98.8587 150.609 98.8587C149.897 98.8587 149.267 99.0376 148.717 99.3956C148.167 99.7493 147.737 100.269 147.426 100.955C147.115 101.637 146.959 102.47 146.959 103.455C146.959 104.456 147.115 105.3 147.426 105.986C147.741 106.668 148.172 107.183 148.717 107.533C149.267 107.878 149.895 108.05 150.603 108.05C150.995 108.05 151.361 107.999 151.702 107.897C152.047 107.79 152.356 107.635 152.629 107.43C152.906 107.226 153.138 106.974 153.326 106.676C153.517 106.378 153.65 106.037 153.722 105.653L156.113 105.666C156.023 106.288 155.829 106.872 155.531 107.418C155.237 107.963 154.851 108.445 154.374 108.862C153.897 109.276 153.339 109.599 152.699 109.834C152.06 110.064 151.351 110.179 150.571 110.179C149.42 110.179 148.393 109.913 147.49 109.38C146.586 108.847 145.875 108.078 145.355 107.072C144.835 106.067 144.575 104.861 144.575 103.455C144.575 102.044 144.837 100.838 145.361 99.8366C145.885 98.831 146.599 98.0618 147.503 97.5291C148.406 96.9964 149.429 96.7301 150.571 96.7301C151.299 96.7301 151.977 96.8324 152.603 97.0369C153.23 97.2415 153.788 97.5419 154.278 97.9382C154.768 98.3303 155.171 98.8118 155.486 99.3828C155.806 99.9496 156.015 100.597 156.113 101.326ZM162.465 110.192C161.506 110.192 160.675 109.981 159.972 109.559C159.269 109.137 158.723 108.547 158.335 107.788C157.952 107.03 157.76 106.143 157.76 105.129C157.76 104.115 157.952 103.227 158.335 102.464C158.723 101.701 159.269 101.109 159.972 100.687C160.675 100.265 161.506 100.054 162.465 100.054C163.424 100.054 164.255 100.265 164.958 100.687C165.661 101.109 166.204 101.701 166.588 102.464C166.975 103.227 167.169 104.115 167.169 105.129C167.169 106.143 166.975 107.03 166.588 107.788C166.204 108.547 165.661 109.137 164.958 109.559C164.255 109.981 163.424 110.192 162.465 110.192ZM162.478 108.338C162.997 108.338 163.432 108.195 163.782 107.91C164.131 107.62 164.391 107.232 164.561 106.746C164.736 106.261 164.823 105.719 164.823 105.123C164.823 104.522 164.736 103.979 164.561 103.493C164.391 103.003 164.131 102.613 163.782 102.323C163.432 102.033 162.997 101.888 162.478 101.888C161.945 101.888 161.502 102.033 161.148 102.323C160.799 102.613 160.536 103.003 160.362 103.493C160.191 103.979 160.106 104.522 160.106 105.123C160.106 105.719 160.191 106.261 160.362 106.746C160.536 107.232 160.799 107.62 161.148 107.91C161.502 108.195 161.945 108.338 162.478 108.338ZM172.777 110.173C172.005 110.173 171.315 109.974 170.706 109.578C170.096 109.182 169.615 108.607 169.261 107.852C168.907 107.098 168.731 106.182 168.731 105.104C168.731 104.013 168.91 103.092 169.267 102.342C169.63 101.588 170.118 101.019 170.731 100.636C171.345 100.248 172.029 100.054 172.783 100.054C173.358 100.054 173.831 100.152 174.202 100.348C174.573 100.54 174.867 100.772 175.084 101.045C175.302 101.313 175.47 101.567 175.589 101.805H175.685V96.9091H178.005V110H175.73V108.453H175.589C175.47 108.692 175.297 108.945 175.071 109.214C174.846 109.478 174.547 109.704 174.177 109.891C173.806 110.079 173.339 110.173 172.777 110.173ZM173.422 108.274C173.912 108.274 174.33 108.142 174.675 107.878C175.02 107.609 175.282 107.237 175.461 106.759C175.64 106.282 175.73 105.726 175.73 105.091C175.73 104.456 175.64 103.904 175.461 103.435C175.287 102.967 175.027 102.602 174.682 102.342C174.341 102.082 173.921 101.952 173.422 101.952C172.907 101.952 172.476 102.087 172.131 102.355C171.786 102.624 171.526 102.994 171.351 103.467C171.177 103.94 171.089 104.482 171.089 105.091C171.089 105.705 171.177 106.252 171.351 106.734C171.53 107.211 171.792 107.588 172.138 107.865C172.487 108.138 172.915 108.274 173.422 108.274ZM184.818 110.192C183.833 110.192 182.983 109.987 182.267 109.578C181.556 109.165 181.008 108.581 180.625 107.827C180.241 107.068 180.049 106.175 180.049 105.148C180.049 104.138 180.241 103.252 180.625 102.489C181.012 101.722 181.554 101.126 182.248 100.7C182.943 100.269 183.759 100.054 184.696 100.054C185.301 100.054 185.872 100.152 186.409 100.348C186.951 100.54 187.428 100.838 187.841 101.243C188.259 101.648 188.587 102.163 188.826 102.79C189.064 103.412 189.184 104.153 189.184 105.014V105.724H181.136V104.164H186.965C186.961 103.721 186.865 103.327 186.678 102.982C186.49 102.632 186.228 102.357 185.892 102.157C185.559 101.957 185.171 101.857 184.728 101.857C184.255 101.857 183.84 101.972 183.482 102.202C183.124 102.428 182.845 102.726 182.644 103.097C182.448 103.463 182.348 103.866 182.344 104.305V105.666C182.344 106.237 182.448 106.727 182.657 107.136C182.866 107.541 183.158 107.852 183.533 108.07C183.908 108.283 184.347 108.389 184.85 108.389C185.186 108.389 185.491 108.342 185.764 108.249C186.036 108.151 186.273 108.008 186.473 107.82C186.674 107.633 186.825 107.401 186.927 107.124L189.088 107.366C188.951 107.937 188.691 108.436 188.308 108.862C187.929 109.284 187.443 109.612 186.85 109.847C186.258 110.077 185.581 110.192 184.818 110.192ZM206.913 101.326H204.523C204.455 100.934 204.329 100.587 204.146 100.284C203.962 99.9773 203.734 99.7173 203.462 99.5043C203.189 99.2912 202.878 99.1314 202.528 99.0249C202.183 98.9141 201.81 98.8587 201.41 98.8587C200.698 98.8587 200.068 99.0376 199.518 99.3956C198.968 99.7493 198.538 100.269 198.227 100.955C197.916 101.637 197.76 102.47 197.76 103.455C197.76 104.456 197.916 105.3 198.227 105.986C198.542 106.668 198.972 107.183 199.518 107.533C200.068 107.878 200.696 108.05 201.403 108.05C201.796 108.05 202.162 107.999 202.503 107.897C202.848 107.79 203.157 107.635 203.43 107.43C203.707 107.226 203.939 106.974 204.127 106.676C204.318 106.378 204.45 106.037 204.523 105.653L206.913 105.666C206.824 106.288 206.63 106.872 206.332 107.418C206.038 107.963 205.652 108.445 205.175 108.862C204.698 109.276 204.139 109.599 203.5 109.834C202.861 110.064 202.151 110.179 201.372 110.179C200.221 110.179 199.194 109.913 198.291 109.38C197.387 108.847 196.676 108.078 196.156 107.072C195.636 106.067 195.376 104.861 195.376 103.455C195.376 102.044 195.638 100.838 196.162 99.8366C196.686 98.831 197.4 98.0618 198.303 97.5291C199.207 96.9964 200.229 96.7301 201.372 96.7301C202.1 96.7301 202.778 96.8324 203.404 97.0369C204.031 97.2415 204.589 97.5419 205.079 97.9382C205.569 98.3303 205.972 98.8118 206.287 99.3828C206.607 99.9496 206.815 100.597 206.913 101.326ZM213.266 110.192C212.307 110.192 211.476 109.981 210.773 109.559C210.07 109.137 209.524 108.547 209.136 107.788C208.753 107.03 208.561 106.143 208.561 105.129C208.561 104.115 208.753 103.227 209.136 102.464C209.524 101.701 210.07 101.109 210.773 100.687C211.476 100.265 212.307 100.054 213.266 100.054C214.224 100.054 215.055 100.265 215.758 100.687C216.462 101.109 217.005 101.701 217.388 102.464C217.776 103.227 217.97 104.115 217.97 105.129C217.97 106.143 217.776 107.03 217.388 107.788C217.005 108.547 216.462 109.137 215.758 109.559C215.055 109.981 214.224 110.192 213.266 110.192ZM213.278 108.338C213.798 108.338 214.233 108.195 214.582 107.91C214.932 107.62 215.192 107.232 215.362 106.746C215.537 106.261 215.624 105.719 215.624 105.123C215.624 104.522 215.537 103.979 215.362 103.493C215.192 103.003 214.932 102.613 214.582 102.323C214.233 102.033 213.798 101.888 213.278 101.888C212.746 101.888 212.302 102.033 211.949 102.323C211.599 102.613 211.337 103.003 211.163 103.493C210.992 103.979 210.907 104.522 210.907 105.123C210.907 105.719 210.992 106.261 211.163 106.746C211.337 107.232 211.599 107.62 211.949 107.91C212.302 108.195 212.746 108.338 213.278 108.338ZM228.37 100.182L224.873 110H222.317L218.82 100.182H221.288L223.544 107.475H223.646L225.909 100.182H228.37ZM233.984 110.192C232.999 110.192 232.149 109.987 231.433 109.578C230.722 109.165 230.174 108.581 229.791 107.827C229.407 107.068 229.215 106.175 229.215 105.148C229.215 104.138 229.407 103.252 229.791 102.489C230.178 101.722 230.72 101.126 231.414 100.7C232.109 100.269 232.925 100.054 233.862 100.054C234.467 100.054 235.038 100.152 235.575 100.348C236.117 100.54 236.594 100.838 237.007 101.243C237.425 101.648 237.753 102.163 237.992 102.79C238.23 103.412 238.35 104.153 238.35 105.014V105.724H230.302V104.164H236.131C236.127 103.721 236.031 103.327 235.844 102.982C235.656 102.632 235.394 102.357 235.058 102.157C234.725 101.957 234.337 101.857 233.894 101.857C233.421 101.857 233.006 101.972 232.648 102.202C232.29 102.428 232.011 102.726 231.81 103.097C231.614 103.463 231.514 103.866 231.51 104.305V105.666C231.51 106.237 231.614 106.727 231.823 107.136C232.032 107.541 232.324 107.852 232.699 108.07C233.074 108.283 233.513 108.389 234.016 108.389C234.352 108.389 234.657 108.342 234.93 108.249C235.203 108.151 235.439 108.008 235.639 107.82C235.84 107.633 235.991 107.401 236.093 107.124L238.254 107.366C238.117 107.937 237.857 108.436 237.474 108.862C237.095 109.284 236.609 109.612 236.016 109.847C235.424 110.077 234.747 110.192 233.984 110.192ZM240.307 110V100.182H242.551V101.818H242.653C242.832 101.251 243.139 100.815 243.573 100.508C244.012 100.197 244.513 100.041 245.076 100.041C245.203 100.041 245.346 100.048 245.504 100.06C245.666 100.069 245.8 100.084 245.907 100.105V102.234C245.809 102.2 245.653 102.17 245.44 102.144C245.231 102.114 245.029 102.099 244.833 102.099C244.411 102.099 244.032 102.191 243.695 102.374C243.362 102.553 243.1 102.803 242.909 103.122C242.717 103.442 242.621 103.81 242.621 104.228V110H240.307ZM250.093 110.198C249.471 110.198 248.911 110.087 248.412 109.866C247.918 109.64 247.526 109.308 247.236 108.869C246.951 108.43 246.808 107.888 246.808 107.245C246.808 106.691 246.91 106.233 247.115 105.871C247.319 105.509 247.598 105.219 247.952 105.001C248.306 104.784 248.704 104.62 249.147 104.509C249.595 104.394 250.057 104.311 250.534 104.26C251.11 104.2 251.576 104.147 251.934 104.1C252.292 104.049 252.552 103.972 252.714 103.87C252.88 103.763 252.963 103.599 252.963 103.378V103.339C252.963 102.858 252.821 102.485 252.535 102.221C252.25 101.957 251.838 101.825 251.301 101.825C250.735 101.825 250.285 101.948 249.953 102.195C249.625 102.442 249.403 102.734 249.288 103.071L247.127 102.764C247.298 102.168 247.579 101.669 247.971 101.268C248.363 100.864 248.843 100.561 249.409 100.361C249.976 100.156 250.603 100.054 251.289 100.054C251.762 100.054 252.233 100.109 252.701 100.22C253.17 100.331 253.598 100.514 253.986 100.77C254.374 101.021 254.685 101.364 254.919 101.799C255.158 102.234 255.277 102.777 255.277 103.429V110H253.053V108.651H252.976C252.835 108.924 252.637 109.18 252.382 109.418C252.13 109.653 251.813 109.842 251.429 109.987C251.05 110.128 250.605 110.198 250.093 110.198ZM250.694 108.498C251.159 108.498 251.561 108.406 251.902 108.223C252.243 108.036 252.505 107.788 252.688 107.482C252.876 107.175 252.97 106.84 252.97 106.478V105.321C252.897 105.381 252.774 105.436 252.599 105.487C252.429 105.538 252.237 105.583 252.024 105.621C251.811 105.66 251.6 105.694 251.391 105.724C251.182 105.754 251.001 105.779 250.848 105.8C250.502 105.847 250.193 105.924 249.921 106.031C249.648 106.137 249.433 106.286 249.275 106.478C249.117 106.665 249.039 106.908 249.039 107.207C249.039 107.633 249.194 107.955 249.505 108.172C249.816 108.389 250.213 108.498 250.694 108.498ZM261.874 113.886C261.043 113.886 260.329 113.773 259.733 113.548C259.136 113.326 258.657 113.028 258.294 112.653C257.932 112.278 257.681 111.862 257.54 111.406L259.624 110.901C259.718 111.093 259.854 111.283 260.033 111.47C260.212 111.662 260.453 111.82 260.755 111.943C261.062 112.071 261.448 112.135 261.912 112.135C262.568 112.135 263.112 111.975 263.542 111.656C263.973 111.34 264.188 110.82 264.188 110.096V108.236H264.073C263.953 108.474 263.779 108.719 263.549 108.971C263.323 109.222 263.022 109.433 262.647 109.604C262.277 109.774 261.81 109.859 261.247 109.859C260.493 109.859 259.809 109.683 259.196 109.329C258.586 108.971 258.1 108.438 257.738 107.731C257.38 107.019 257.201 106.129 257.201 105.059C257.201 103.981 257.38 103.071 257.738 102.33C258.1 101.584 258.588 101.019 259.202 100.636C259.816 100.248 260.5 100.054 261.254 100.054C261.829 100.054 262.302 100.152 262.673 100.348C263.048 100.54 263.346 100.772 263.568 101.045C263.789 101.313 263.958 101.567 264.073 101.805H264.201V100.182H266.483V110.16C266.483 110.999 266.282 111.694 265.882 112.244C265.481 112.793 264.934 113.205 264.239 113.477C263.544 113.75 262.756 113.886 261.874 113.886ZM261.893 108.044C262.383 108.044 262.801 107.925 263.146 107.686C263.491 107.447 263.753 107.104 263.932 106.657C264.111 106.21 264.201 105.673 264.201 105.046C264.201 104.428 264.111 103.887 263.932 103.423C263.757 102.958 263.497 102.598 263.152 102.342C262.811 102.082 262.392 101.952 261.893 101.952C261.377 101.952 260.947 102.087 260.602 102.355C260.257 102.624 259.997 102.992 259.822 103.461C259.647 103.925 259.56 104.454 259.56 105.046C259.56 105.647 259.647 106.173 259.822 106.625C260.001 107.072 260.263 107.422 260.608 107.673C260.958 107.92 261.386 108.044 261.893 108.044ZM273.201 110.192C272.216 110.192 271.366 109.987 270.65 109.578C269.938 109.165 269.391 108.581 269.007 107.827C268.624 107.068 268.432 106.175 268.432 105.148C268.432 104.138 268.624 103.252 269.007 102.489C269.395 101.722 269.936 101.126 270.631 100.7C271.326 100.269 272.142 100.054 273.079 100.054C273.684 100.054 274.255 100.152 274.792 100.348C275.333 100.54 275.811 100.838 276.224 101.243C276.642 101.648 276.97 102.163 277.208 102.79C277.447 103.412 277.566 104.153 277.566 105.014V105.724H269.519V104.164H275.348C275.344 103.721 275.248 103.327 275.061 102.982C274.873 102.632 274.611 102.357 274.274 102.157C273.942 101.957 273.554 101.857 273.111 101.857C272.638 101.857 272.223 101.972 271.865 102.202C271.507 102.428 271.228 102.726 271.027 103.097C270.831 103.463 270.731 103.866 270.727 104.305V105.666C270.727 106.237 270.831 106.727 271.04 107.136C271.249 107.541 271.541 107.852 271.916 108.07C272.291 108.283 272.73 108.389 273.233 108.389C273.569 108.389 273.874 108.342 274.147 108.249C274.419 108.151 274.656 108.008 274.856 107.82C275.056 107.633 275.208 107.401 275.31 107.124L277.47 107.366C277.334 107.937 277.074 108.436 276.691 108.862C276.311 109.284 275.826 109.612 275.233 109.847C274.641 110.077 273.963 110.192 273.201 110.192ZM283.516 98.897V96.9091H293.96V98.897H289.914V110H287.562V98.897H283.516ZM298.794 110.192C297.81 110.192 296.96 109.987 296.244 109.578C295.532 109.165 294.985 108.581 294.601 107.827C294.218 107.068 294.026 106.175 294.026 105.148C294.026 104.138 294.218 103.252 294.601 102.489C294.989 101.722 295.53 101.126 296.225 100.7C296.919 100.269 297.735 100.054 298.673 100.054C299.278 100.054 299.849 100.152 300.386 100.348C300.927 100.54 301.404 100.838 301.818 101.243C302.235 101.648 302.563 102.163 302.802 102.79C303.041 103.412 303.16 104.153 303.16 105.014V105.724H295.112V104.164H300.942C300.938 103.721 300.842 103.327 300.654 102.982C300.467 102.632 300.205 102.357 299.868 102.157C299.536 101.957 299.148 101.857 298.705 101.857C298.232 101.857 297.816 101.972 297.458 102.202C297.1 102.428 296.821 102.726 296.621 103.097C296.425 103.463 296.325 103.866 296.321 104.305V105.666C296.321 106.237 296.425 106.727 296.634 107.136C296.843 107.541 297.134 107.852 297.509 108.07C297.884 108.283 298.323 108.389 298.826 108.389C299.163 108.389 299.468 108.342 299.74 108.249C300.013 108.151 300.25 108.008 300.45 107.82C300.65 107.633 300.801 107.401 300.904 107.124L303.064 107.366C302.928 107.937 302.668 108.436 302.284 108.862C301.905 109.284 301.419 109.612 300.827 109.847C300.235 110.077 299.557 110.192 298.794 110.192ZM312.878 102.777L310.768 103.007C310.709 102.794 310.604 102.594 310.455 102.406C310.31 102.219 310.114 102.067 309.867 101.952C309.62 101.837 309.317 101.78 308.959 101.78C308.478 101.78 308.073 101.884 307.745 102.093C307.421 102.302 307.261 102.572 307.265 102.905C307.261 103.19 307.366 103.423 307.579 103.602C307.796 103.781 308.154 103.928 308.652 104.043L310.327 104.401C311.256 104.601 311.946 104.918 312.398 105.353C312.854 105.788 313.084 106.357 313.089 107.06C313.084 107.678 312.903 108.223 312.545 108.696C312.191 109.165 311.699 109.531 311.069 109.795C310.438 110.06 309.714 110.192 308.895 110.192C307.694 110.192 306.726 109.94 305.993 109.438C305.26 108.93 304.824 108.225 304.683 107.322L306.939 107.104C307.042 107.548 307.259 107.882 307.591 108.108C307.924 108.334 308.356 108.447 308.889 108.447C309.439 108.447 309.88 108.334 310.212 108.108C310.549 107.882 310.717 107.603 310.717 107.271C310.717 106.989 310.608 106.757 310.391 106.574C310.178 106.391 309.846 106.25 309.394 106.152L307.719 105.8C306.777 105.604 306.081 105.274 305.629 104.81C305.177 104.341 304.954 103.749 304.958 103.033C304.954 102.428 305.118 101.903 305.45 101.46C305.787 101.013 306.253 100.668 306.85 100.425C307.451 100.178 308.143 100.054 308.927 100.054C310.078 100.054 310.983 100.299 311.644 100.789C312.309 101.279 312.72 101.942 312.878 102.777ZM319.899 100.182V101.972H314.255V100.182H319.899ZM315.649 97.8295H317.962V107.047C317.962 107.358 318.009 107.597 318.103 107.763C318.201 107.925 318.329 108.036 318.487 108.095C318.644 108.155 318.819 108.185 319.011 108.185C319.156 108.185 319.288 108.174 319.407 108.153C319.531 108.131 319.624 108.112 319.688 108.095L320.078 109.904C319.955 109.947 319.778 109.994 319.548 110.045C319.322 110.096 319.045 110.126 318.717 110.134C318.137 110.151 317.615 110.064 317.151 109.872C316.686 109.676 316.318 109.374 316.045 108.964C315.776 108.555 315.644 108.044 315.649 107.43V97.8295ZM329.454 102.777L327.344 103.007C327.285 102.794 327.18 102.594 327.031 102.406C326.886 102.219 326.69 102.067 326.443 101.952C326.196 101.837 325.893 101.78 325.535 101.78C325.054 101.78 324.649 101.884 324.321 102.093C323.997 102.302 323.837 102.572 323.842 102.905C323.837 103.19 323.942 103.423 324.155 103.602C324.372 103.781 324.73 103.928 325.229 104.043L326.903 104.401C327.832 104.601 328.523 104.918 328.974 105.353C329.43 105.788 329.66 106.357 329.665 107.06C329.66 107.678 329.479 108.223 329.121 108.696C328.768 109.165 328.275 109.531 327.645 109.795C327.014 110.06 326.29 110.192 325.472 110.192C324.27 110.192 323.302 109.94 322.57 109.438C321.837 108.93 321.4 108.225 321.259 107.322L323.516 107.104C323.618 107.548 323.835 107.882 324.168 108.108C324.5 108.334 324.932 108.447 325.465 108.447C326.015 108.447 326.456 108.334 326.788 108.108C327.125 107.882 327.293 107.603 327.293 107.271C327.293 106.989 327.185 106.757 326.967 106.574C326.754 106.391 326.422 106.25 325.97 106.152L324.295 105.8C323.354 105.604 322.657 105.274 322.205 104.81C321.753 104.341 321.53 103.749 321.534 103.033C321.53 102.428 321.694 101.903 322.026 101.46C322.363 101.013 322.829 100.668 323.426 100.425C324.027 100.178 324.719 100.054 325.503 100.054C326.654 100.054 327.56 100.299 328.22 100.789C328.885 101.279 329.296 101.942 329.454 102.777Z" fill="#22222A"/>
<rect x="0.5" y="82.5" width="473" height="41" rx="3.5" stroke="#2BB1F2"/>
<path d="M233 148L236.99 152L237 136V152L241 148" stroke="#2BB1F2" stroke-linecap="round" stroke-linejoin="round"/>
<rect x="0.5" y="164.5" width="473" height="41" rx="3.5" fill="#E2F5FF"/>
<path d="M182.87 192H180.339L184.947 178.909H187.875L192.49 192H189.959L186.462 181.594H186.36L182.87 192ZM182.953 186.867H189.856V188.772H182.953V186.867ZM194.112 192V182.182H196.355V183.818H196.458C196.637 183.251 196.943 182.815 197.378 182.508C197.817 182.197 198.318 182.041 198.88 182.041C199.008 182.041 199.151 182.048 199.309 182.06C199.47 182.069 199.605 182.084 199.711 182.105V184.234C199.613 184.2 199.458 184.17 199.245 184.144C199.036 184.114 198.833 184.099 198.637 184.099C198.215 184.099 197.836 184.191 197.5 184.374C197.167 184.553 196.905 184.803 196.713 185.122C196.522 185.442 196.426 185.81 196.426 186.228V192H194.112ZM206.679 182.182V183.972H201.034V182.182H206.679ZM202.428 179.83H204.742V189.047C204.742 189.358 204.789 189.597 204.882 189.763C204.98 189.925 205.108 190.036 205.266 190.095C205.424 190.155 205.598 190.185 205.79 190.185C205.935 190.185 206.067 190.174 206.186 190.153C206.31 190.131 206.404 190.112 206.468 190.095L206.858 191.904C206.734 191.947 206.557 191.994 206.327 192.045C206.101 192.096 205.824 192.126 205.496 192.134C204.916 192.151 204.394 192.064 203.93 191.872C203.465 191.676 203.097 191.374 202.824 190.964C202.556 190.555 202.424 190.044 202.428 189.43V179.83ZM208.614 192V182.182H210.928V192H208.614ZM209.777 180.788C209.411 180.788 209.095 180.667 208.831 180.424C208.567 180.177 208.435 179.881 208.435 179.536C208.435 179.186 208.567 178.89 208.831 178.647C209.095 178.4 209.411 178.276 209.777 178.276C210.148 178.276 210.463 178.4 210.723 178.647C210.987 178.89 211.119 179.186 211.119 179.536C211.119 179.881 210.987 180.177 210.723 180.424C210.463 180.667 210.148 180.788 209.777 180.788ZM218.28 182.182V183.972H212.476V182.182H218.28ZM213.927 192V181.255C213.927 180.594 214.063 180.045 214.336 179.606C214.613 179.167 214.984 178.839 215.448 178.621C215.913 178.404 216.429 178.295 216.995 178.295C217.396 178.295 217.752 178.327 218.063 178.391C218.374 178.455 218.604 178.513 218.753 178.564L218.293 180.354C218.195 180.324 218.071 180.294 217.922 180.264C217.773 180.23 217.607 180.213 217.424 180.213C216.993 180.213 216.688 180.317 216.509 180.526C216.335 180.731 216.247 181.025 216.247 181.408V192H213.927ZM222.584 192.198C221.961 192.198 221.401 192.087 220.902 191.866C220.408 191.64 220.016 191.308 219.726 190.869C219.441 190.43 219.298 189.888 219.298 189.245C219.298 188.691 219.4 188.233 219.605 187.871C219.809 187.509 220.089 187.219 220.442 187.001C220.796 186.784 221.194 186.62 221.638 186.509C222.085 186.394 222.547 186.311 223.025 186.26C223.6 186.2 224.066 186.147 224.424 186.1C224.782 186.049 225.042 185.972 225.204 185.87C225.37 185.763 225.454 185.599 225.454 185.378V185.339C225.454 184.858 225.311 184.485 225.025 184.221C224.74 183.957 224.329 183.825 223.792 183.825C223.225 183.825 222.775 183.948 222.443 184.195C222.115 184.442 221.893 184.734 221.778 185.071L219.618 184.764C219.788 184.168 220.069 183.669 220.461 183.268C220.853 182.864 221.333 182.561 221.9 182.361C222.466 182.156 223.093 182.054 223.779 182.054C224.252 182.054 224.723 182.109 225.191 182.22C225.66 182.331 226.089 182.514 226.476 182.77C226.864 183.021 227.175 183.364 227.41 183.799C227.648 184.234 227.767 184.777 227.767 185.429V192H225.543V190.651H225.466C225.326 190.924 225.128 191.18 224.872 191.418C224.62 191.653 224.303 191.842 223.919 191.987C223.54 192.128 223.095 192.198 222.584 192.198ZM223.184 190.498C223.649 190.498 224.052 190.406 224.392 190.223C224.733 190.036 224.995 189.788 225.179 189.482C225.366 189.175 225.46 188.84 225.46 188.478V187.321C225.388 187.381 225.264 187.436 225.089 187.487C224.919 187.538 224.727 187.583 224.514 187.621C224.301 187.66 224.09 187.694 223.881 187.724C223.672 187.754 223.491 187.779 223.338 187.8C222.993 187.847 222.684 187.924 222.411 188.031C222.138 188.137 221.923 188.286 221.765 188.478C221.608 188.665 221.529 188.908 221.529 189.207C221.529 189.633 221.684 189.955 221.995 190.172C222.307 190.389 222.703 190.498 223.184 190.498ZM234.377 192.192C233.397 192.192 232.555 191.977 231.852 191.546C231.153 191.116 230.614 190.521 230.235 189.763C229.86 189 229.672 188.122 229.672 187.129C229.672 186.132 229.864 185.252 230.248 184.489C230.631 183.722 231.172 183.126 231.871 182.7C232.574 182.269 233.405 182.054 234.364 182.054C235.161 182.054 235.866 182.201 236.48 182.495C237.098 182.785 237.59 183.196 237.956 183.729C238.323 184.257 238.532 184.875 238.583 185.582H236.371C236.282 185.109 236.069 184.715 235.732 184.4C235.4 184.08 234.954 183.92 234.396 183.92C233.923 183.92 233.508 184.048 233.15 184.304C232.792 184.555 232.513 184.918 232.312 185.391C232.116 185.864 232.018 186.43 232.018 187.091C232.018 187.76 232.116 188.335 232.312 188.817C232.508 189.294 232.783 189.663 233.137 189.923C233.495 190.178 233.915 190.306 234.396 190.306C234.737 190.306 235.042 190.242 235.31 190.114C235.583 189.982 235.811 189.793 235.994 189.545C236.177 189.298 236.303 188.998 236.371 188.644H238.583C238.527 189.339 238.323 189.955 237.969 190.491C237.616 191.024 237.134 191.442 236.525 191.744C235.915 192.043 235.199 192.192 234.377 192.192ZM245.386 182.182V183.972H239.741V182.182H245.386ZM241.135 179.83H243.449V189.047C243.449 189.358 243.496 189.597 243.589 189.763C243.687 189.925 243.815 190.036 243.973 190.095C244.131 190.155 244.305 190.185 244.497 190.185C244.642 190.185 244.774 190.174 244.893 190.153C245.017 190.131 245.111 190.112 245.175 190.095L245.565 191.904C245.441 191.947 245.264 191.994 245.034 192.045C244.808 192.096 244.531 192.126 244.203 192.134C243.623 192.151 243.101 192.064 242.637 191.872C242.172 191.676 241.804 191.374 241.531 190.964C241.263 190.555 241.131 190.044 241.135 189.43V179.83ZM251.888 192V178.909H256.899C257.845 178.909 258.631 179.058 259.258 179.357C259.889 179.651 260.359 180.053 260.671 180.565C260.986 181.076 261.144 181.656 261.144 182.303C261.144 182.836 261.041 183.292 260.837 183.671C260.632 184.046 260.357 184.351 260.012 184.585C259.667 184.82 259.281 184.988 258.855 185.09V185.218C259.32 185.244 259.765 185.386 260.191 185.646C260.622 185.902 260.973 186.264 261.246 186.733C261.519 187.202 261.655 187.768 261.655 188.433C261.655 189.111 261.491 189.72 261.163 190.261C260.835 190.798 260.34 191.222 259.68 191.533C259.019 191.844 258.188 192 257.187 192H251.888ZM254.259 190.018H256.81C257.671 190.018 258.291 189.854 258.67 189.526C259.053 189.194 259.245 188.768 259.245 188.248C259.245 187.86 259.149 187.511 258.957 187.2C258.766 186.884 258.493 186.637 258.139 186.458C257.786 186.275 257.364 186.183 256.874 186.183H254.259V190.018ZM254.259 184.477H256.605C257.014 184.477 257.383 184.402 257.711 184.253C258.039 184.099 258.297 183.884 258.484 183.607C258.676 183.326 258.772 182.994 258.772 182.61C258.772 182.103 258.593 181.685 258.235 181.357C257.881 181.029 257.355 180.865 256.656 180.865H254.259V184.477ZM269.873 187.871V182.182H272.187V192H269.944V190.255H269.842C269.62 190.805 269.256 191.254 268.748 191.604C268.246 191.953 267.626 192.128 266.888 192.128C266.245 192.128 265.676 191.985 265.182 191.7C264.692 191.41 264.308 190.99 264.031 190.44C263.754 189.886 263.616 189.217 263.616 188.433V182.182H265.93V188.075C265.93 188.697 266.1 189.192 266.441 189.558C266.782 189.925 267.229 190.108 267.783 190.108C268.124 190.108 268.454 190.025 268.774 189.859C269.094 189.692 269.356 189.445 269.56 189.117C269.769 188.785 269.873 188.369 269.873 187.871ZM274.567 192V182.182H276.881V192H274.567ZM275.73 180.788C275.364 180.788 275.048 180.667 274.784 180.424C274.52 180.177 274.388 179.881 274.388 179.536C274.388 179.186 274.52 178.89 274.784 178.647C275.048 178.4 275.364 178.276 275.73 178.276C276.101 178.276 276.416 178.4 276.676 178.647C276.94 178.89 277.073 179.186 277.073 179.536C277.073 179.881 276.94 180.177 276.676 180.424C276.416 180.667 276.101 180.788 275.73 180.788ZM281.574 178.909V192H279.26V178.909H281.574ZM287.597 192.173C286.826 192.173 286.135 191.974 285.526 191.578C284.917 191.182 284.435 190.607 284.081 189.852C283.728 189.098 283.551 188.182 283.551 187.104C283.551 186.013 283.73 185.092 284.088 184.342C284.45 183.588 284.938 183.019 285.552 182.636C286.165 182.248 286.849 182.054 287.603 182.054C288.179 182.054 288.652 182.152 289.022 182.348C289.393 182.54 289.687 182.772 289.905 183.045C290.122 183.313 290.29 183.567 290.41 183.805H290.505V178.909H292.826V192H290.55V190.453H290.41C290.29 190.692 290.118 190.945 289.892 191.214C289.666 191.478 289.368 191.704 288.997 191.891C288.626 192.079 288.16 192.173 287.597 192.173ZM288.243 190.274C288.733 190.274 289.15 190.142 289.495 189.878C289.841 189.609 290.103 189.237 290.282 188.759C290.461 188.282 290.55 187.726 290.55 187.091C290.55 186.456 290.461 185.904 290.282 185.435C290.107 184.967 289.847 184.602 289.502 184.342C289.161 184.082 288.741 183.952 288.243 183.952C287.727 183.952 287.297 184.087 286.951 184.355C286.606 184.624 286.346 184.994 286.172 185.467C285.997 185.94 285.91 186.482 285.91 187.091C285.91 187.705 285.997 188.252 286.172 188.734C286.351 189.211 286.613 189.588 286.958 189.865C287.307 190.138 287.736 190.274 288.243 190.274Z" fill="#22222A"/>
<rect x="0.5" y="164.5" width="473" height="41" rx="3.5" stroke="#2BB1F2"/>
<path d="M233 230L236.99 234L237 218V234L241 230" stroke="#2BB1F2" stroke-linecap="round" stroke-linejoin="round"/>
<rect x="0.5" y="246.5" width="473" height="41" rx="3.5" fill="#E2F5FF"/>
<path d="M182.931 274H180.4L185.009 260.909H187.936L192.551 274H190.02L186.524 263.594H186.421L182.931 274ZM183.014 268.867H189.918V270.772H183.014V268.867ZM194.173 274V264.182H196.417V265.818H196.519C196.698 265.251 197.005 264.815 197.44 264.508C197.879 264.197 198.379 264.041 198.942 264.041C199.07 264.041 199.212 264.048 199.37 264.06C199.532 264.069 199.666 264.084 199.773 264.105V266.234C199.675 266.2 199.519 266.17 199.306 266.144C199.097 266.114 198.895 266.099 198.699 266.099C198.277 266.099 197.898 266.191 197.561 266.374C197.229 266.553 196.967 266.803 196.775 267.122C196.583 267.442 196.487 267.81 196.487 268.228V274H194.173ZM206.74 264.182V265.972H201.096V264.182H206.74ZM202.489 261.83H204.803V271.047C204.803 271.358 204.85 271.597 204.944 271.763C205.042 271.925 205.17 272.036 205.327 272.095C205.485 272.155 205.66 272.185 205.852 272.185C205.996 272.185 206.129 272.174 206.248 272.153C206.371 272.131 206.465 272.112 206.529 272.095L206.919 273.904C206.795 273.947 206.619 273.994 206.388 274.045C206.163 274.096 205.886 274.126 205.558 274.134C204.978 274.151 204.456 274.064 203.991 273.872C203.527 273.676 203.158 273.374 202.886 272.964C202.617 272.555 202.485 272.044 202.489 271.43V261.83ZM208.675 274V264.182H210.989V274H208.675ZM209.839 262.788C209.472 262.788 209.157 262.667 208.893 262.424C208.628 262.177 208.496 261.881 208.496 261.536C208.496 261.186 208.628 260.89 208.893 260.647C209.157 260.4 209.472 260.276 209.839 260.276C210.209 260.276 210.525 260.4 210.785 260.647C211.049 260.89 211.181 261.186 211.181 261.536C211.181 261.881 211.049 262.177 210.785 262.424C210.525 262.667 210.209 262.788 209.839 262.788ZM218.342 264.182V265.972H212.538V264.182H218.342ZM213.989 274V263.255C213.989 262.594 214.125 262.045 214.398 261.606C214.675 261.167 215.045 260.839 215.51 260.621C215.974 260.404 216.49 260.295 217.057 260.295C217.457 260.295 217.813 260.327 218.124 260.391C218.435 260.455 218.665 260.513 218.815 260.564L218.354 262.354C218.256 262.324 218.133 262.294 217.984 262.264C217.835 262.23 217.668 262.213 217.485 262.213C217.055 262.213 216.75 262.317 216.571 262.526C216.396 262.731 216.309 263.025 216.309 263.408V274H213.989ZM222.645 274.198C222.023 274.198 221.463 274.087 220.964 273.866C220.47 273.64 220.078 273.308 219.788 272.869C219.502 272.43 219.36 271.888 219.36 271.245C219.36 270.691 219.462 270.233 219.666 269.871C219.871 269.509 220.15 269.219 220.504 269.001C220.857 268.784 221.256 268.62 221.699 268.509C222.146 268.394 222.609 268.311 223.086 268.26C223.661 268.2 224.128 268.147 224.486 268.1C224.844 268.049 225.104 267.972 225.266 267.87C225.432 267.763 225.515 267.599 225.515 267.378V267.339C225.515 266.858 225.372 266.485 225.087 266.221C224.801 265.957 224.39 265.825 223.853 265.825C223.286 265.825 222.837 265.948 222.504 266.195C222.176 266.442 221.955 266.734 221.84 267.071L219.679 266.764C219.85 266.168 220.131 265.669 220.523 265.268C220.915 264.864 221.394 264.561 221.961 264.361C222.528 264.156 223.154 264.054 223.84 264.054C224.313 264.054 224.784 264.109 225.253 264.22C225.722 264.331 226.15 264.514 226.538 264.77C226.926 265.021 227.237 265.364 227.471 265.799C227.71 266.234 227.829 266.777 227.829 267.429V274H225.605V272.651H225.528C225.387 272.924 225.189 273.18 224.933 273.418C224.682 273.653 224.365 273.842 223.981 273.987C223.602 274.128 223.156 274.198 222.645 274.198ZM223.246 272.498C223.71 272.498 224.113 272.406 224.454 272.223C224.795 272.036 225.057 271.788 225.24 271.482C225.428 271.175 225.521 270.84 225.521 270.478V269.321C225.449 269.381 225.325 269.436 225.151 269.487C224.98 269.538 224.789 269.583 224.575 269.621C224.362 269.66 224.151 269.694 223.943 269.724C223.734 269.754 223.553 269.779 223.399 269.8C223.054 269.847 222.745 269.924 222.472 270.031C222.2 270.137 221.985 270.286 221.827 270.478C221.669 270.665 221.59 270.908 221.59 271.207C221.59 271.633 221.746 271.955 222.057 272.172C222.368 272.389 222.764 272.498 223.246 272.498ZM234.438 274.192C233.458 274.192 232.617 273.977 231.914 273.546C231.215 273.116 230.676 272.521 230.296 271.763C229.921 271 229.734 270.122 229.734 269.129C229.734 268.132 229.926 267.252 230.309 266.489C230.693 265.722 231.234 265.126 231.933 264.7C232.636 264.269 233.467 264.054 234.426 264.054C235.222 264.054 235.928 264.201 236.541 264.495C237.159 264.785 237.651 265.196 238.018 265.729C238.384 266.257 238.593 266.875 238.644 267.582H236.433C236.343 267.109 236.13 266.715 235.794 266.4C235.461 266.08 235.016 265.92 234.458 265.92C233.985 265.92 233.569 266.048 233.211 266.304C232.853 266.555 232.574 266.918 232.374 267.391C232.178 267.864 232.08 268.43 232.08 269.091C232.08 269.76 232.178 270.335 232.374 270.817C232.57 271.294 232.845 271.663 233.198 271.923C233.556 272.178 233.976 272.306 234.458 272.306C234.798 272.306 235.103 272.242 235.372 272.114C235.644 271.982 235.872 271.793 236.056 271.545C236.239 271.298 236.365 270.998 236.433 270.644H238.644C238.589 271.339 238.384 271.955 238.031 272.491C237.677 273.024 237.195 273.442 236.586 273.744C235.977 274.043 235.261 274.192 234.438 274.192ZM245.447 264.182V265.972H239.803V264.182H245.447ZM241.196 261.83H243.51V271.047C243.51 271.358 243.557 271.597 243.651 271.763C243.749 271.925 243.877 272.036 244.034 272.095C244.192 272.155 244.367 272.185 244.559 272.185C244.703 272.185 244.836 272.174 244.955 272.153C245.078 272.131 245.172 272.112 245.236 272.095L245.626 273.904C245.502 273.947 245.326 273.994 245.096 274.045C244.87 274.096 244.593 274.126 244.265 274.134C243.685 274.151 243.163 274.064 242.699 273.872C242.234 273.676 241.865 273.374 241.593 272.964C241.324 272.555 241.192 272.044 241.196 271.43V261.83ZM259.064 264.508C259.004 263.95 258.753 263.515 258.309 263.204C257.871 262.893 257.3 262.737 256.596 262.737C256.102 262.737 255.678 262.812 255.324 262.961C254.971 263.11 254.7 263.312 254.513 263.568C254.325 263.824 254.229 264.116 254.225 264.444C254.225 264.717 254.287 264.953 254.41 265.153C254.538 265.354 254.711 265.524 254.928 265.665C255.145 265.801 255.386 265.916 255.65 266.01C255.915 266.104 256.181 266.183 256.449 266.246L257.677 266.553C258.171 266.668 258.646 266.824 259.102 267.02C259.562 267.216 259.974 267.463 260.336 267.761C260.702 268.06 260.992 268.42 261.205 268.842C261.418 269.263 261.525 269.758 261.525 270.325C261.525 271.092 261.329 271.767 260.937 272.351C260.545 272.93 259.978 273.384 259.236 273.712C258.499 274.036 257.606 274.198 256.558 274.198C255.54 274.198 254.655 274.04 253.905 273.725C253.16 273.41 252.576 272.95 252.154 272.344C251.736 271.739 251.51 271.002 251.476 270.133H253.809C253.844 270.589 253.984 270.968 254.231 271.271C254.479 271.573 254.8 271.799 255.197 271.948C255.597 272.097 256.045 272.172 256.539 272.172C257.055 272.172 257.506 272.095 257.894 271.942C258.286 271.784 258.593 271.567 258.814 271.29C259.036 271.009 259.149 270.68 259.153 270.305C259.149 269.964 259.049 269.683 258.853 269.462C258.657 269.236 258.382 269.048 258.028 268.899C257.679 268.746 257.27 268.609 256.801 268.49L255.312 268.107C254.233 267.83 253.381 267.41 252.755 266.847C252.133 266.281 251.822 265.528 251.822 264.591C251.822 263.82 252.03 263.144 252.448 262.565C252.87 261.985 253.443 261.536 254.167 261.216C254.892 260.892 255.712 260.73 256.628 260.73C257.557 260.73 258.371 260.892 259.07 261.216C259.773 261.536 260.325 261.981 260.726 262.552C261.126 263.119 261.333 263.771 261.346 264.508H259.064ZM267.819 274.192C266.839 274.192 265.998 273.977 265.294 273.546C264.596 273.116 264.056 272.521 263.677 271.763C263.302 271 263.115 270.122 263.115 269.129C263.115 268.132 263.306 267.252 263.69 266.489C264.074 265.722 264.615 265.126 265.314 264.7C266.017 264.269 266.848 264.054 267.806 264.054C268.603 264.054 269.309 264.201 269.922 264.495C270.54 264.785 271.032 265.196 271.399 265.729C271.765 266.257 271.974 266.875 272.025 267.582H269.814C269.724 267.109 269.511 266.715 269.174 266.4C268.842 266.08 268.397 265.92 267.838 265.92C267.365 265.92 266.95 266.048 266.592 266.304C266.234 266.555 265.955 266.918 265.755 267.391C265.559 267.864 265.461 268.43 265.461 269.091C265.461 269.76 265.559 270.335 265.755 270.817C265.951 271.294 266.225 271.663 266.579 271.923C266.937 272.178 267.357 272.306 267.838 272.306C268.179 272.306 268.484 272.242 268.752 272.114C269.025 271.982 269.253 271.793 269.436 271.545C269.62 271.298 269.745 270.998 269.814 270.644H272.025C271.97 271.339 271.765 271.955 271.412 272.491C271.058 273.024 270.576 273.442 269.967 273.744C269.358 274.043 268.642 274.192 267.819 274.192ZM276.751 274.198C276.128 274.198 275.568 274.087 275.069 273.866C274.575 273.64 274.183 273.308 273.893 272.869C273.608 272.43 273.465 271.888 273.465 271.245C273.465 270.691 273.567 270.233 273.772 269.871C273.976 269.509 274.256 269.219 274.609 269.001C274.963 268.784 275.361 268.62 275.805 268.509C276.252 268.394 276.714 268.311 277.192 268.26C277.767 268.2 278.233 268.147 278.591 268.1C278.949 268.049 279.209 267.972 279.371 267.87C279.537 267.763 279.621 267.599 279.621 267.378V267.339C279.621 266.858 279.478 266.485 279.192 266.221C278.907 265.957 278.496 265.825 277.959 265.825C277.392 265.825 276.942 265.948 276.61 266.195C276.282 266.442 276.06 266.734 275.945 267.071L273.785 266.764C273.955 266.168 274.236 265.669 274.628 265.268C275.02 264.864 275.5 264.561 276.067 264.361C276.633 264.156 277.26 264.054 277.946 264.054C278.419 264.054 278.89 264.109 279.358 264.22C279.827 264.331 280.256 264.514 280.643 264.77C281.031 265.021 281.342 265.364 281.577 265.799C281.815 266.234 281.934 266.777 281.934 267.429V274H279.71V272.651H279.633C279.493 272.924 279.295 273.18 279.039 273.418C278.787 273.653 278.47 273.842 278.086 273.987C277.707 274.128 277.262 274.198 276.751 274.198ZM277.351 272.498C277.816 272.498 278.219 272.406 278.559 272.223C278.9 272.036 279.162 271.788 279.346 271.482C279.533 271.175 279.627 270.84 279.627 270.478V269.321C279.555 269.381 279.431 269.436 279.256 269.487C279.086 269.538 278.894 269.583 278.681 269.621C278.468 269.66 278.257 269.694 278.048 269.724C277.839 269.754 277.658 269.779 277.505 269.8C277.16 269.847 276.851 269.924 276.578 270.031C276.305 270.137 276.09 270.286 275.932 270.478C275.775 270.665 275.696 270.908 275.696 271.207C275.696 271.633 275.851 271.955 276.162 272.172C276.474 272.389 276.87 272.498 277.351 272.498ZM286.575 268.247V274H284.261V264.182H286.473V265.85H286.588C286.814 265.3 287.174 264.864 287.668 264.54C288.167 264.216 288.782 264.054 289.515 264.054C290.193 264.054 290.783 264.199 291.286 264.489C291.793 264.778 292.185 265.198 292.462 265.748C292.743 266.298 292.882 266.964 292.878 267.749V274H290.564V268.107C290.564 267.45 290.393 266.937 290.052 266.566C289.716 266.195 289.249 266.01 288.653 266.01C288.248 266.01 287.888 266.099 287.572 266.278C287.261 266.453 287.016 266.707 286.837 267.039C286.662 267.371 286.575 267.774 286.575 268.247Z" fill="#22222A"/>
<rect x="0.5" y="246.5" width="473" height="41" rx="3.5" stroke="#2BB1F2"/>
<path d="M233 312L236.99 316L237 300V316L241 312" stroke="#2BB1F2" stroke-linecap="round" stroke-linejoin="round"/>
<rect x="0.5" y="328.5" width="473" height="41" rx="3.5" fill="#E2F5FF"/>
<path d="M172.534 356H170.003L174.611 342.909H177.539L182.154 356H179.623L176.126 345.594H176.024L172.534 356ZM172.617 350.867H179.52V352.772H172.617V350.867ZM183.776 356V346.182H186.019V347.818H186.122C186.301 347.251 186.608 346.815 187.042 346.508C187.481 346.197 187.982 346.041 188.544 346.041C188.672 346.041 188.815 346.048 188.973 346.06C189.134 346.069 189.269 346.084 189.375 346.105V348.234C189.277 348.2 189.122 348.17 188.909 348.144C188.7 348.114 188.497 348.099 188.301 348.099C187.88 348.099 187.5 348.191 187.164 348.374C186.831 348.553 186.569 348.803 186.377 349.122C186.186 349.442 186.09 349.81 186.09 350.228V356H183.776ZM196.343 346.182V347.972H190.698V346.182H196.343ZM192.092 343.83H194.406V353.047C194.406 353.358 194.453 353.597 194.546 353.763C194.644 353.925 194.772 354.036 194.93 354.095C195.088 354.155 195.262 354.185 195.454 354.185C195.599 354.185 195.731 354.174 195.85 354.153C195.974 354.131 196.068 354.112 196.132 354.095L196.522 355.904C196.398 355.947 196.221 355.994 195.991 356.045C195.765 356.096 195.488 356.126 195.16 356.134C194.581 356.151 194.059 356.064 193.594 355.872C193.13 355.676 192.761 355.374 192.488 354.964C192.22 354.555 192.088 354.044 192.092 353.43V343.83ZM198.278 356V346.182H200.592V356H198.278ZM199.441 344.788C199.075 344.788 198.759 344.667 198.495 344.424C198.231 344.177 198.099 343.881 198.099 343.536C198.099 343.186 198.231 342.89 198.495 342.647C198.759 342.4 199.075 342.276 199.441 342.276C199.812 342.276 200.127 342.4 200.387 342.647C200.651 342.89 200.783 343.186 200.783 343.536C200.783 343.881 200.651 344.177 200.387 344.424C200.127 344.667 199.812 344.788 199.441 344.788ZM207.944 346.182V347.972H202.14V346.182H207.944ZM203.591 356V345.255C203.591 344.594 203.728 344.045 204 343.606C204.277 343.167 204.648 342.839 205.112 342.621C205.577 342.404 206.093 342.295 206.659 342.295C207.06 342.295 207.416 342.327 207.727 342.391C208.038 342.455 208.268 342.513 208.417 342.564L207.957 344.354C207.859 344.324 207.735 344.294 207.586 344.264C207.437 344.23 207.271 344.213 207.088 344.213C206.657 344.213 206.353 344.317 206.174 344.526C205.999 344.731 205.911 345.025 205.911 345.408V356H203.591ZM212.248 356.198C211.625 356.198 211.065 356.087 210.566 355.866C210.072 355.64 209.68 355.308 209.39 354.869C209.105 354.43 208.962 353.888 208.962 353.245C208.962 352.691 209.064 352.233 209.269 351.871C209.473 351.509 209.753 351.219 210.106 351.001C210.46 350.784 210.858 350.62 211.302 350.509C211.749 350.394 212.211 350.311 212.689 350.26C213.264 350.2 213.731 350.147 214.089 350.1C214.446 350.049 214.706 349.972 214.868 349.87C215.035 349.763 215.118 349.599 215.118 349.378V349.339C215.118 348.858 214.975 348.485 214.689 348.221C214.404 347.957 213.993 347.825 213.456 347.825C212.889 347.825 212.439 347.948 212.107 348.195C211.779 348.442 211.557 348.734 211.442 349.071L209.282 348.764C209.452 348.168 209.733 347.669 210.125 347.268C210.517 346.864 210.997 346.561 211.564 346.361C212.13 346.156 212.757 346.054 213.443 346.054C213.916 346.054 214.387 346.109 214.856 346.22C215.324 346.331 215.753 346.514 216.14 346.77C216.528 347.021 216.839 347.364 217.074 347.799C217.312 348.234 217.432 348.777 217.432 349.429V356H215.207V354.651H215.13C214.99 354.924 214.792 355.18 214.536 355.418C214.285 355.653 213.967 355.842 213.584 355.987C213.204 356.128 212.759 356.198 212.248 356.198ZM212.848 354.498C213.313 354.498 213.716 354.406 214.057 354.223C214.397 354.036 214.66 353.788 214.843 353.482C215.03 353.175 215.124 352.84 215.124 352.478V351.321C215.052 351.381 214.928 351.436 214.753 351.487C214.583 351.538 214.391 351.583 214.178 351.621C213.965 351.66 213.754 351.694 213.545 351.724C213.336 351.754 213.155 351.779 213.002 351.8C212.657 351.847 212.348 351.924 212.075 352.031C211.802 352.137 211.587 352.286 211.429 352.478C211.272 352.665 211.193 352.908 211.193 353.207C211.193 353.633 211.348 353.955 211.66 354.172C211.971 354.389 212.367 354.498 212.848 354.498ZM224.041 356.192C223.061 356.192 222.219 355.977 221.516 355.546C220.817 355.116 220.278 354.521 219.899 353.763C219.524 353 219.336 352.122 219.336 351.129C219.336 350.132 219.528 349.252 219.912 348.489C220.295 347.722 220.836 347.126 221.535 346.7C222.238 346.269 223.069 346.054 224.028 346.054C224.825 346.054 225.53 346.201 226.144 346.495C226.762 346.785 227.254 347.196 227.62 347.729C227.987 348.257 228.196 348.875 228.247 349.582H226.035C225.946 349.109 225.733 348.715 225.396 348.4C225.064 348.08 224.618 347.92 224.06 347.92C223.587 347.92 223.172 348.048 222.814 348.304C222.456 348.555 222.177 348.918 221.976 349.391C221.78 349.864 221.682 350.43 221.682 351.091C221.682 351.76 221.78 352.335 221.976 352.817C222.172 353.294 222.447 353.663 222.801 353.923C223.159 354.178 223.579 354.306 224.06 354.306C224.401 354.306 224.706 354.242 224.974 354.114C225.247 353.982 225.475 353.793 225.658 353.545C225.841 353.298 225.967 352.998 226.035 352.644H228.247C228.191 353.339 227.987 353.955 227.633 354.491C227.28 355.024 226.798 355.442 226.189 355.744C225.579 356.043 224.863 356.192 224.041 356.192ZM235.05 346.182V347.972H229.405V346.182H235.05ZM230.799 343.83H233.113V353.047C233.113 353.358 233.16 353.597 233.253 353.763C233.351 353.925 233.479 354.036 233.637 354.095C233.795 354.155 233.969 354.185 234.161 354.185C234.306 354.185 234.438 354.174 234.557 354.153C234.681 354.131 234.775 354.112 234.839 354.095L235.229 355.904C235.105 355.947 234.928 355.994 234.698 356.045C234.472 356.096 234.195 356.126 233.867 356.134C233.288 356.151 232.766 356.064 232.301 355.872C231.837 355.676 231.468 355.374 231.195 354.964C230.927 354.555 230.795 354.044 230.799 353.43V343.83ZM241.552 356V342.909H246.461C247.467 342.909 248.31 343.097 248.992 343.472C249.678 343.847 250.196 344.362 250.546 345.018C250.899 345.67 251.076 346.412 251.076 347.243C251.076 348.082 250.899 348.828 250.546 349.48C250.192 350.132 249.67 350.646 248.979 351.021C248.289 351.391 247.439 351.577 246.429 351.577H243.176V349.627H246.109C246.698 349.627 247.179 349.525 247.554 349.32C247.929 349.116 248.206 348.835 248.385 348.477C248.568 348.119 248.66 347.707 248.66 347.243C248.66 346.778 248.568 346.369 248.385 346.016C248.206 345.662 247.927 345.387 247.548 345.191C247.173 344.991 246.689 344.891 246.097 344.891H243.923V356H241.552ZM259.291 351.871V346.182H261.605V356H259.362V354.255H259.259C259.038 354.805 258.674 355.254 258.166 355.604C257.664 355.953 257.044 356.128 256.306 356.128C255.663 356.128 255.094 355.985 254.6 355.7C254.11 355.41 253.726 354.99 253.449 354.44C253.172 353.886 253.034 353.217 253.034 352.433V346.182H255.348V352.075C255.348 352.697 255.518 353.192 255.859 353.558C256.2 353.925 256.647 354.108 257.201 354.108C257.542 354.108 257.872 354.025 258.192 353.859C258.512 353.692 258.774 353.445 258.978 353.117C259.187 352.785 259.291 352.369 259.291 351.871ZM264.087 356V342.909H266.401V347.805H266.497C266.616 347.567 266.785 347.313 267.002 347.045C267.219 346.772 267.513 346.54 267.884 346.348C268.255 346.152 268.728 346.054 269.303 346.054C270.062 346.054 270.745 346.248 271.355 346.636C271.968 347.019 272.454 347.588 272.812 348.342C273.174 349.092 273.356 350.013 273.356 351.104C273.356 352.182 273.179 353.098 272.825 353.852C272.471 354.607 271.99 355.182 271.38 355.578C270.771 355.974 270.081 356.173 269.309 356.173C268.747 356.173 268.28 356.079 267.91 355.891C267.539 355.704 267.241 355.478 267.015 355.214C266.793 354.945 266.62 354.692 266.497 354.453H266.363V356H264.087ZM266.356 351.091C266.356 351.726 266.446 352.282 266.625 352.759C266.808 353.237 267.07 353.609 267.411 353.878C267.756 354.142 268.174 354.274 268.664 354.274C269.175 354.274 269.603 354.138 269.949 353.865C270.294 353.588 270.554 353.211 270.728 352.734C270.907 352.252 270.997 351.705 270.997 351.091C270.997 350.482 270.91 349.94 270.735 349.467C270.56 348.994 270.3 348.624 269.955 348.355C269.61 348.087 269.179 347.952 268.664 347.952C268.169 347.952 267.75 348.082 267.405 348.342C267.059 348.602 266.797 348.967 266.618 349.435C266.444 349.904 266.356 350.456 266.356 351.091ZM277.637 342.909V356H275.323V342.909H277.637ZM280.016 356V346.182H282.33V356H280.016ZM281.179 344.788C280.813 344.788 280.498 344.667 280.233 344.424C279.969 344.177 279.837 343.881 279.837 343.536C279.837 343.186 279.969 342.89 280.233 342.647C280.498 342.4 280.813 342.276 281.179 342.276C281.55 342.276 281.866 342.4 282.125 342.647C282.39 342.89 282.522 343.186 282.522 343.536C282.522 343.881 282.39 344.177 282.125 344.424C281.866 344.667 281.55 344.788 281.179 344.788ZM292.469 348.777L290.36 349.007C290.3 348.794 290.196 348.594 290.047 348.406C289.902 348.219 289.706 348.067 289.459 347.952C289.212 347.837 288.909 347.78 288.551 347.78C288.07 347.78 287.665 347.884 287.337 348.093C287.013 348.302 286.853 348.572 286.857 348.905C286.853 349.19 286.957 349.423 287.17 349.602C287.388 349.781 287.746 349.928 288.244 350.043L289.919 350.401C290.848 350.601 291.538 350.918 291.99 351.353C292.446 351.788 292.676 352.357 292.68 353.06C292.676 353.678 292.495 354.223 292.137 354.696C291.783 355.165 291.291 355.531 290.66 355.795C290.03 356.06 289.305 356.192 288.487 356.192C287.285 356.192 286.318 355.94 285.585 355.438C284.852 354.93 284.415 354.225 284.275 353.322L286.531 353.104C286.633 353.548 286.851 353.882 287.183 354.108C287.516 354.334 287.948 354.447 288.481 354.447C289.03 354.447 289.472 354.334 289.804 354.108C290.141 353.882 290.309 353.603 290.309 353.271C290.309 352.989 290.2 352.757 289.983 352.574C289.77 352.391 289.437 352.25 288.986 352.152L287.311 351.8C286.369 351.604 285.672 351.274 285.221 350.81C284.769 350.341 284.545 349.749 284.55 349.033C284.545 348.428 284.709 347.903 285.042 347.46C285.378 347.013 285.845 346.668 286.442 346.425C287.043 346.178 287.735 346.054 288.519 346.054C289.67 346.054 290.575 346.299 291.236 346.789C291.9 347.279 292.312 347.942 292.469 348.777ZM296.902 350.247V356H294.588V342.909H296.851V347.85H296.966C297.196 347.296 297.552 346.859 298.034 346.54C298.519 346.216 299.137 346.054 299.887 346.054C300.569 346.054 301.164 346.197 301.671 346.482C302.178 346.768 302.57 347.185 302.847 347.735C303.128 348.285 303.269 348.956 303.269 349.749V356H300.955V350.107C300.955 349.446 300.784 348.933 300.443 348.566C300.107 348.195 299.634 348.01 299.024 348.01C298.615 348.01 298.249 348.099 297.925 348.278C297.605 348.453 297.354 348.707 297.171 349.039C296.992 349.371 296.902 349.774 296.902 350.247Z" fill="#22222A"/>
<rect x="0.5" y="328.5" width="473" height="41" rx="3.5" stroke="#2BB1F2"/>
</svg>
