<svg width="255" height="287" viewBox="0 0 255 287" fill="none" xmlns="http://www.w3.org/2000/svg">
<path fill-rule="evenodd" clip-rule="evenodd" d="M144.938 145C144.938 147.706 144.413 150.338 143.496 152.761C143.327 153.206 142.759 153.318 142.421 152.983L135.689 146.333C135.408 146.056 135.361 145.622 135.544 145.273C136.274 143.877 136.639 142.281 136.639 140.612C136.735 135.176 132.252 130.693 126.72 130.693C124.963 130.693 123.354 131.133 121.955 131.884C121.611 132.069 121.182 132.025 120.904 131.751L114.912 125.836C114.489 125.419 114.619 124.709 115.172 124.497C117.609 123.561 120.198 123.062 123 123.062C135.113 123.062 144.938 132.887 144.938 145ZM110.302 127.147C110.694 126.872 111.224 126.929 111.562 127.267L118.372 134.077C118.673 134.378 118.699 134.854 118.463 135.208C117.399 136.803 116.8 138.681 116.8 140.708C116.8 146.24 121.283 150.723 126.815 150.723C128.842 150.723 130.72 150.124 132.316 149.06C132.67 148.824 133.145 148.85 133.446 149.151L140.817 156.522C141.16 156.865 141.214 157.405 140.927 157.797C136.879 163.326 130.424 166.938 123 166.938C110.887 166.938 101.062 157.113 101.062 145C101.062 137.569 104.68 131.109 110.302 127.147ZM126.815 146.908C130.535 146.908 133.492 143.951 133.492 140.231C133.492 136.511 130.535 133.554 126.815 133.554C123.095 133.554 120.139 136.511 120.139 140.231C120.139 143.951 123.095 146.908 126.815 146.908Z" fill="url(#paint0_linear_631_211890)"/>
<rect x="0.5" y="239.5" width="47" height="47" rx="3.5" fill="#E2F5FF"/>
<path d="M27.0317 264.182C27.0024 264.177 26.9724 264.174 26.9425 264.176C26.8909 264.178 26.8403 264.191 26.7939 264.214C26.7038 264.258 26.6339 264.334 26.5989 264.428C26.5638 264.522 26.5663 264.625 26.6058 264.717L26.6031 264.721L27.4926 266.87C28.3436 266.327 28.9894 265.516 29.3278 264.565L27.0357 264.178L27.0317 264.182ZM23.4652 264.487C23.4459 264.402 23.3988 264.326 23.3313 264.272C23.2638 264.217 23.1799 264.186 23.093 264.185C23.0674 264.185 23.0418 264.187 23.0166 264.192L23.0127 264.187L20.7405 264.573C21.0817 265.516 21.7248 266.321 22.57 266.862L23.4505 264.734L23.4436 264.726C23.4761 264.65 23.4837 264.567 23.4652 264.487ZM25.3682 265.321C25.335 265.259 25.2856 265.208 25.2254 265.172C25.1651 265.136 25.0962 265.117 25.026 265.117C24.9558 265.117 24.8869 265.136 24.8267 265.172C24.7665 265.208 24.7173 265.26 24.6843 265.322H24.6824L23.565 267.343C24.3651 267.615 25.2252 267.659 26.049 267.47C26.2017 267.436 26.351 267.394 26.4966 267.345L25.3766 265.321L25.3682 265.321ZM28.9055 260.628L27.1863 262.166L27.1872 262.171C27.1344 262.218 27.0951 262.277 27.0734 262.344C27.0517 262.411 27.0485 262.482 27.0642 262.55C27.0798 262.619 27.1136 262.682 27.1621 262.732C27.2106 262.783 27.2719 262.82 27.3395 262.838L27.3416 262.848L29.5684 263.489C29.6647 262.489 29.4319 261.484 28.9055 260.628V260.628ZM25.7114 260.8C25.7147 260.87 25.7368 260.938 25.7755 260.997C25.8143 261.055 25.8681 261.102 25.9313 261.132C25.9946 261.163 26.0649 261.175 26.1347 261.169C26.2046 261.163 26.2715 261.138 26.3282 261.096L26.335 261.099L28.2162 259.765C27.5001 259.064 26.5734 258.617 25.5787 258.494L25.7094 260.799L25.7114 260.8ZM23.7193 261.105C23.776 261.146 23.8429 261.171 23.9128 261.177C23.9826 261.184 24.0529 261.171 24.1161 261.14C24.1793 261.11 24.233 261.063 24.2716 261.004C24.3101 260.946 24.3321 260.878 24.3351 260.808L24.3447 260.803L24.4754 258.494C24.3176 258.513 24.1609 258.54 24.0059 258.575C23.1813 258.76 22.4249 259.172 21.8221 259.765L23.7156 261.107L23.7193 261.105ZM22.7098 262.85C22.7776 262.831 22.8391 262.795 22.8877 262.744C22.9364 262.693 22.9703 262.63 22.986 262.562C23.0016 262.493 22.9984 262.422 22.9766 262.355C22.9548 262.288 22.9153 262.229 22.8623 262.183L22.8642 262.173L21.1355 260.627C20.6081 261.486 20.3817 262.495 20.4922 263.497L22.7081 262.857L22.7098 262.85ZM24.3889 263.529L25.0266 263.836L25.6624 263.529L25.8203 262.843L25.3803 262.293H24.6721L24.2308 262.842L24.3889 263.529Z" fill="#326CE5"/>
<path d="M35.5692 264.881L33.752 256.988C33.7032 256.784 33.6096 256.593 33.4781 256.43C33.3465 256.266 33.1803 256.134 32.9914 256.042L25.6359 252.53C25.4452 252.439 25.2367 252.392 25.0254 252.392C24.8142 252.392 24.6056 252.439 24.415 252.53L17.0609 256.044C16.872 256.135 16.7057 256.268 16.5741 256.431C16.4425 256.595 16.3489 256.786 16.3001 256.99L14.4858 264.883C14.4411 265.082 14.4409 265.289 14.4854 265.489C14.4985 265.55 14.5156 265.61 14.5366 265.668C14.5721 265.768 14.6191 265.863 14.6767 265.952C14.7016 265.99 14.7279 266.028 14.7565 266.063L19.8469 272.392C19.8691 272.42 19.8936 272.445 19.9179 272.47C19.9978 272.556 20.0879 272.63 20.1864 272.693C20.3108 272.771 20.4465 272.83 20.5887 272.868C20.7052 272.9 20.8255 272.916 20.9464 272.917H21.0256L29.1094 272.915C29.1586 272.915 29.2077 272.912 29.2565 272.907C29.3265 272.899 29.3959 272.886 29.464 272.867C29.5127 272.854 29.5608 272.839 29.608 272.821C29.6448 272.807 29.6815 272.793 29.717 272.776C29.7701 272.751 29.8216 272.722 29.8713 272.69C29.9993 272.61 30.1134 272.509 30.2089 272.391L30.3641 272.198L35.2975 266.061C35.3921 265.943 35.4663 265.809 35.5174 265.667C35.5387 265.608 35.5561 265.548 35.5695 265.487C35.6141 265.287 35.6141 265.081 35.5692 264.881ZM27.9398 267.951C27.9604 268.012 27.9849 268.071 28.0131 268.129C27.9681 268.208 27.9559 268.301 27.979 268.388C28.086 268.634 28.2168 268.868 28.3693 269.087C28.4547 269.2 28.5335 269.317 28.6053 269.438C28.6231 269.471 28.6462 269.522 28.663 269.557C28.6947 269.61 28.715 269.669 28.7225 269.73C28.73 269.791 28.7246 269.853 28.7067 269.912C28.6887 269.971 28.6586 270.026 28.6183 270.073C28.578 270.119 28.5283 270.157 28.4725 270.184C28.4167 270.21 28.3561 270.224 28.2944 270.226C28.2327 270.227 28.1713 270.216 28.1143 270.192C28.0573 270.169 28.0059 270.133 27.9633 270.089C27.9207 270.044 27.888 269.991 27.8672 269.933C27.8504 269.898 27.827 269.853 27.8128 269.82C27.7625 269.688 27.7198 269.553 27.685 269.417C27.6087 269.161 27.5075 268.913 27.3829 268.676C27.3287 268.603 27.2481 268.554 27.1583 268.54C27.1442 268.516 27.092 268.42 27.0641 268.371C25.7547 268.867 24.3085 268.863 23.0017 268.36L22.9021 268.541C22.831 268.552 22.7649 268.584 22.7124 268.633C22.5623 268.88 22.4475 269.146 22.3715 269.424C22.337 269.561 22.2946 269.696 22.2445 269.828C22.2304 269.86 22.2068 269.905 22.19 269.939L22.1893 269.941C22.1685 269.999 22.1358 270.053 22.0932 270.097C22.0506 270.142 21.9991 270.177 21.942 270.201C21.8849 270.225 21.8235 270.236 21.7618 270.234C21.7 270.233 21.6393 270.218 21.5835 270.192C21.5277 270.165 21.478 270.128 21.4378 270.081C21.3975 270.034 21.3675 269.979 21.3497 269.92C21.3319 269.861 21.3267 269.799 21.3344 269.737C21.3422 269.676 21.3627 269.617 21.3946 269.564C21.4112 269.529 21.4334 269.479 21.4509 269.446C21.5227 269.324 21.6015 269.207 21.6869 269.094C21.8422 268.868 21.9756 268.629 22.0853 268.378C22.097 268.293 22.0833 268.206 22.0461 268.129L22.1262 267.937C20.9214 267.226 20.0184 266.098 19.5877 264.767L19.3959 264.8C19.3214 264.747 19.2337 264.716 19.1426 264.711C18.8801 264.761 18.6232 264.837 18.3754 264.937C18.2467 264.995 18.1148 265.045 17.9804 265.088C17.9486 265.097 17.9027 265.105 17.8664 265.113C17.8634 265.114 17.8609 265.116 17.858 265.116C17.8558 265.117 17.8535 265.117 17.8512 265.117C17.7928 265.136 17.731 265.143 17.6698 265.137C17.6086 265.131 17.5493 265.112 17.4958 265.082C17.4422 265.052 17.3956 265.011 17.3588 264.961C17.3221 264.912 17.2961 264.855 17.2824 264.796C17.2687 264.736 17.2677 264.673 17.2795 264.613C17.2912 264.553 17.3155 264.495 17.3506 264.445C17.3857 264.394 17.431 264.352 17.4836 264.32C17.5361 264.288 17.5948 264.267 17.6558 264.259L17.6621 264.258L17.666 264.257C17.7028 264.248 17.75 264.236 17.7835 264.229C17.9236 264.21 18.0646 264.199 18.206 264.195C18.4725 264.178 18.7368 264.135 18.9949 264.066C19.0714 264.017 19.1361 263.952 19.1841 263.875L19.3684 263.821C19.1684 262.432 19.4883 261.018 20.2668 259.85L20.1257 259.724C20.1205 259.633 20.0899 259.545 20.0372 259.47C19.8345 259.296 19.6152 259.142 19.3825 259.01C19.2569 258.946 19.135 258.875 19.0175 258.797C18.9908 258.777 18.9554 258.747 18.9264 258.723L18.9198 258.719C18.8197 258.647 18.7521 258.538 18.7318 258.417C18.7115 258.295 18.7402 258.17 18.8116 258.07C18.8537 258.018 18.9074 257.977 18.9684 257.95C19.0293 257.923 19.0958 257.911 19.1623 257.915C19.2744 257.919 19.3819 257.96 19.4692 258.03C19.4991 258.054 19.5401 258.085 19.5667 258.108C19.6692 258.205 19.766 258.308 19.8567 258.416C20.0366 258.613 20.2353 258.793 20.4501 258.952C20.5306 258.994 20.6245 259.003 20.7116 258.977C20.7641 259.016 20.817 259.053 20.8704 259.09C21.6439 258.268 22.6456 257.696 23.7467 257.447C24.0088 257.388 24.2747 257.347 24.5426 257.325L24.553 257.139C24.6214 257.078 24.6709 256.999 24.6959 256.911C24.7055 256.644 24.6891 256.376 24.6469 256.112C24.6189 255.974 24.5988 255.834 24.5868 255.694C24.5856 255.662 24.5874 255.617 24.5878 255.581C24.5878 255.577 24.5868 255.573 24.5868 255.569C24.5805 255.507 24.5873 255.445 24.6065 255.386C24.6258 255.327 24.6572 255.273 24.6986 255.227C24.7401 255.182 24.7907 255.145 24.8472 255.12C24.9037 255.095 24.9649 255.082 25.0268 255.082C25.0886 255.081 25.1498 255.094 25.2063 255.12C25.2629 255.145 25.3135 255.181 25.355 255.227C25.3965 255.273 25.428 255.327 25.4473 255.386C25.4666 255.445 25.4734 255.507 25.4672 255.568C25.4672 255.607 25.4695 255.658 25.4681 255.693C25.4561 255.834 25.4359 255.974 25.4077 256.112C25.3653 256.376 25.3486 256.643 25.3579 256.911C25.3753 257 25.4269 257.079 25.5017 257.131C25.5033 257.162 25.5085 257.269 25.5124 257.327C26.904 257.454 28.2023 258.081 29.1663 259.093L29.3338 258.973C29.4238 258.988 29.5163 258.978 29.6008 258.944C29.8156 258.785 30.0143 258.605 30.1943 258.407C30.2852 258.299 30.3822 258.196 30.485 258.099C30.512 258.076 30.5528 258.045 30.5826 258.022C30.6268 257.978 30.6796 257.944 30.7377 257.922C30.7958 257.901 30.8578 257.891 30.9197 257.895C30.9816 257.899 31.0421 257.915 31.0971 257.944C31.1522 257.973 31.2006 258.012 31.2393 258.061C31.2779 258.109 31.306 258.165 31.3215 258.226C31.3371 258.286 31.3399 258.348 31.3297 258.409C31.3195 258.471 31.2965 258.529 31.2623 258.581C31.2281 258.632 31.1833 258.676 31.131 258.71C31.1015 258.734 31.0625 258.767 31.0341 258.788C30.9164 258.866 30.7943 258.937 30.6683 259.001C30.4357 259.133 30.2164 259.287 30.0136 259.461C29.9546 259.53 29.925 259.62 29.931 259.711C29.9065 259.733 29.8205 259.809 29.7749 259.851C30.5555 261.014 30.8819 262.424 30.6919 263.812L30.8696 263.864C30.9141 263.944 30.9798 264.01 31.0595 264.055C31.3178 264.124 31.5821 264.167 31.8488 264.185C31.99 264.188 32.1309 264.2 32.2708 264.219C32.3079 264.226 32.3614 264.24 32.3991 264.249C32.4601 264.257 32.5188 264.278 32.5713 264.31C32.6239 264.342 32.6691 264.384 32.7043 264.435C32.7394 264.485 32.7636 264.543 32.7753 264.603C32.787 264.663 32.786 264.726 32.7723 264.785C32.7586 264.845 32.7325 264.902 32.6958 264.951C32.659 265.001 32.6123 265.042 32.5588 265.072C32.5052 265.102 32.4459 265.121 32.3847 265.127C32.3235 265.133 32.2617 265.126 32.2033 265.107L32.1969 265.106C32.194 265.105 32.1913 265.104 32.1882 265.103C32.1519 265.095 32.1064 265.087 32.0746 265.079C31.9401 265.035 31.8083 264.985 31.6798 264.926C31.4317 264.826 31.1745 264.751 30.9118 264.7C30.8209 264.697 30.7324 264.73 30.6654 264.792C30.6028 264.78 30.5401 264.769 30.4773 264.759C30.0516 266.098 29.1485 267.234 27.9398 267.951Z" fill="#326CE5"/>
<path d="M36.5278 265.084L34.5453 256.472C34.492 256.25 34.3899 256.041 34.2464 255.863C34.1028 255.684 33.9214 255.54 33.7153 255.44L25.6908 251.609C25.4828 251.51 25.2552 251.458 25.0247 251.458C24.7943 251.458 24.5667 251.51 24.3587 251.609L16.3349 255.442C16.1288 255.542 15.9474 255.686 15.8038 255.865C15.6602 256.043 15.558 256.251 15.5046 256.474L13.5256 265.086C13.4809 265.284 13.4763 265.49 13.5121 265.69C13.5478 265.891 13.6231 266.082 13.7336 266.253C13.7609 266.294 13.7897 266.335 13.821 266.374L19.3747 273.279C19.5203 273.457 19.7032 273.6 19.9105 273.699C20.1178 273.798 20.3444 273.85 20.5741 273.851L29.4802 273.849C29.7098 273.848 29.9364 273.796 30.1437 273.697C30.351 273.599 30.534 273.455 30.6797 273.278L36.2314 266.372C36.3735 266.193 36.4739 265.984 36.5252 265.761C36.5765 265.539 36.5774 265.307 36.5278 265.084V265.084ZM35.5685 265.487C35.5552 265.548 35.5378 265.608 35.5166 265.667C35.4655 265.809 35.3911 265.943 35.2965 266.061L30.3631 272.198L30.2081 272.392C30.1125 272.509 29.9984 272.61 29.8702 272.69C29.8207 272.722 29.7694 272.751 29.7164 272.776C29.6808 272.793 29.6444 272.808 29.6074 272.821C29.5602 272.839 29.512 272.854 29.4632 272.867C29.3951 272.886 29.3258 272.899 29.2557 272.907C29.2069 272.912 29.1578 272.915 29.1087 272.915L21.0248 272.917H20.9455C20.8247 272.917 20.7044 272.9 20.5879 272.868C20.4458 272.83 20.3102 272.771 20.1858 272.693C20.0873 272.63 19.997 272.556 19.9171 272.471C19.8928 272.445 19.8683 272.42 19.8462 272.392L14.7557 266.063C14.7273 266.028 14.7007 265.991 14.6759 265.952C14.6183 265.863 14.5713 265.768 14.5358 265.668C14.5148 265.609 14.4977 265.549 14.4846 265.489C14.4402 265.289 14.4403 265.082 14.485 264.883L16.2993 256.99C16.3482 256.785 16.4418 256.595 16.5734 256.431C16.705 256.268 16.8712 256.135 17.0602 256.044L24.4143 252.53C24.6049 252.439 24.8135 252.392 25.0247 252.392C25.236 252.392 25.4445 252.439 25.6352 252.53L32.9905 256.042C33.1794 256.134 33.3456 256.266 33.4772 256.43C33.6087 256.593 33.7023 256.784 33.7512 256.988L35.5683 264.881C35.6131 265.081 35.6131 265.288 35.5685 265.487V265.487Z" fill="white"/>
<path d="M32.3989 264.249C32.3613 264.24 32.3077 264.226 32.2709 264.219C32.131 264.2 31.9901 264.188 31.8489 264.185C31.5821 264.167 31.3177 264.124 31.0593 264.055C30.9796 264.01 30.9139 263.944 30.8695 263.864L30.6918 263.813C30.8818 262.424 30.5555 261.014 29.7749 259.851C29.8204 259.809 29.9066 259.733 29.9309 259.711C29.9248 259.62 29.9545 259.531 30.0135 259.462C30.2163 259.287 30.4355 259.133 30.6682 259.002C30.7941 258.938 30.9163 258.866 31.034 258.788C31.0623 258.767 31.1011 258.734 31.1309 258.71C31.1832 258.677 31.2279 258.633 31.2621 258.581C31.2963 258.529 31.3193 258.471 31.3295 258.41C31.3397 258.348 31.337 258.286 31.3214 258.226C31.3058 258.166 31.2778 258.11 31.2392 258.061C31.2006 258.013 31.1522 257.973 31.0971 257.944C31.0421 257.916 30.9817 257.899 30.9198 257.895C30.8578 257.891 30.7958 257.901 30.7378 257.923C30.6797 257.944 30.6269 257.978 30.5827 258.022C30.5526 258.045 30.5117 258.076 30.485 258.099C30.3822 258.196 30.2851 258.299 30.1941 258.407C30.0142 258.605 29.8154 258.785 29.6007 258.944C29.5161 258.978 29.4236 258.989 29.3336 258.973L29.1661 259.093C28.2022 258.081 26.9038 257.454 25.5122 257.327C25.5081 257.269 25.5031 257.163 25.5016 257.131C25.4268 257.079 25.3753 257 25.3579 256.911C25.3486 256.643 25.3653 256.376 25.4078 256.112C25.4358 255.974 25.4559 255.834 25.4678 255.694C25.4691 255.658 25.467 255.607 25.467 255.568C25.4732 255.507 25.4664 255.445 25.4471 255.386C25.4278 255.327 25.3964 255.273 25.3549 255.227C25.3134 255.181 25.2627 255.145 25.2062 255.12C25.1496 255.095 25.0885 255.082 25.0266 255.082C24.9647 255.082 24.9036 255.095 24.8471 255.12C24.7905 255.145 24.7399 255.182 24.6985 255.227C24.657 255.273 24.6256 255.327 24.6064 255.386C24.5871 255.445 24.5804 255.507 24.5866 255.569C24.5866 255.573 24.5876 255.577 24.5877 255.581C24.5872 255.618 24.5855 255.662 24.5866 255.694C24.5986 255.834 24.6187 255.974 24.6467 256.112C24.6889 256.376 24.7053 256.644 24.6957 256.911C24.6707 256.999 24.6212 257.078 24.5528 257.138L24.5424 257.325C24.2746 257.347 24.0087 257.388 23.7466 257.447C22.6455 257.696 21.644 258.268 20.8705 259.09C20.817 259.053 20.7639 259.016 20.7114 258.977C20.6243 259.003 20.5304 258.994 20.45 258.952C20.2352 258.793 20.0364 258.613 19.8565 258.416C19.7659 258.308 19.6692 258.205 19.5669 258.108C19.5401 258.085 19.4991 258.054 19.469 258.03C19.3817 257.959 19.2742 257.919 19.1622 257.914C19.0956 257.911 19.0291 257.923 18.9682 257.95C18.9073 257.977 18.8535 258.018 18.8114 258.07C18.74 258.17 18.7114 258.295 18.7317 258.416C18.7519 258.538 18.8195 258.647 18.9197 258.718L18.9264 258.723C18.9552 258.747 18.9907 258.777 19.0174 258.796C19.1348 258.875 19.2567 258.946 19.3823 259.01C19.615 259.142 19.8343 259.296 20.0369 259.47C20.0896 259.545 20.1203 259.633 20.1255 259.724L20.2664 259.85C19.488 261.018 19.1682 262.432 19.3683 263.821L19.184 263.875C19.1359 263.952 19.0712 264.017 18.9948 264.065C18.7366 264.134 18.4723 264.178 18.2057 264.196C18.0644 264.199 17.9234 264.21 17.7834 264.23C17.7496 264.236 17.7027 264.248 17.6658 264.257L17.662 264.258L17.6557 264.26C17.5948 264.268 17.5361 264.288 17.4836 264.32C17.4311 264.352 17.3858 264.395 17.3507 264.445C17.3155 264.496 17.2913 264.553 17.2796 264.613C17.2679 264.674 17.2689 264.736 17.2825 264.796C17.2962 264.856 17.3222 264.912 17.359 264.962C17.3957 265.011 17.4423 265.052 17.4959 265.082C17.5494 265.112 17.6087 265.131 17.6699 265.137C17.7311 265.143 17.7929 265.137 17.8513 265.117L17.8579 265.116C17.8608 265.116 17.8633 265.114 17.8662 265.114C17.9025 265.105 17.9482 265.097 17.9801 265.088C18.1145 265.045 18.2463 264.995 18.375 264.937C18.6229 264.837 18.8799 264.761 19.1425 264.711C19.2335 264.716 19.3212 264.747 19.3955 264.8L19.5874 264.767C20.0182 266.098 20.9213 267.226 22.1261 267.937L22.0459 268.129C22.0832 268.206 22.0969 268.293 22.0852 268.378C21.9755 268.629 21.8421 268.868 21.6868 269.094C21.6014 269.206 21.5226 269.324 21.4508 269.445C21.4332 269.479 21.411 269.529 21.3942 269.564C21.3625 269.617 21.3421 269.676 21.3345 269.737C21.3269 269.798 21.3322 269.86 21.35 269.92C21.3678 269.979 21.3978 270.033 21.4381 270.08C21.4783 270.127 21.5279 270.165 21.5837 270.191C21.6394 270.218 21.7001 270.232 21.7617 270.234C21.8234 270.235 21.8847 270.224 21.9418 270.2C21.9988 270.177 22.0503 270.142 22.0929 270.097C22.1355 270.052 22.1683 269.999 22.1891 269.941L22.1899 269.94V269.939C22.2065 269.905 22.2302 269.86 22.2443 269.828C22.2944 269.696 22.3369 269.561 22.3713 269.424C22.4474 269.146 22.5621 268.88 22.7122 268.633C22.7647 268.584 22.8308 268.552 22.9019 268.541L23.0017 268.36C24.3085 268.863 25.7546 268.866 27.0639 268.371C27.0919 268.42 27.144 268.516 27.1578 268.54C27.2477 268.554 27.3284 268.603 27.3826 268.676C27.5072 268.913 27.6084 269.161 27.6848 269.417C27.7196 269.553 27.7623 269.688 27.8126 269.82C27.8269 269.853 27.8501 269.898 27.867 269.933C27.8879 269.991 27.9206 270.044 27.9632 270.089C28.0057 270.133 28.0572 270.169 28.1142 270.192C28.1712 270.216 28.2325 270.227 28.2942 270.226C28.3559 270.224 28.4166 270.21 28.4724 270.184C28.5282 270.157 28.5778 270.119 28.6182 270.073C28.6585 270.026 28.6886 269.971 28.7065 269.912C28.7245 269.853 28.7298 269.791 28.7223 269.73C28.7148 269.669 28.6946 269.61 28.6629 269.557C28.6461 269.522 28.6229 269.471 28.6055 269.438C28.5337 269.317 28.4548 269.2 28.3695 269.087C28.2169 268.868 28.0862 268.634 27.9792 268.388C27.9559 268.301 27.9681 268.208 28.013 268.129C27.9848 268.071 27.9603 268.012 27.9396 267.951C29.1484 267.234 30.0515 266.098 30.4771 264.759C30.5341 264.768 30.6332 264.785 30.6655 264.792C30.7324 264.73 30.8208 264.698 30.9116 264.7C31.1742 264.751 31.4313 264.826 31.6793 264.926C31.8079 264.985 31.9399 265.036 32.0744 265.079C32.1062 265.087 32.1516 265.095 32.1881 265.103C32.1911 265.104 32.1938 265.105 32.1967 265.106L32.203 265.107C32.2614 265.126 32.3232 265.133 32.3843 265.127C32.4455 265.121 32.5047 265.102 32.5582 265.072C32.6117 265.041 32.6583 265 32.6951 264.951C32.7318 264.902 32.7578 264.845 32.7715 264.785C32.7852 264.726 32.7862 264.663 32.7745 264.603C32.7628 264.543 32.7387 264.485 32.7036 264.435C32.6685 264.385 32.6233 264.342 32.5709 264.31C32.5184 264.278 32.4598 264.257 32.3989 264.249ZM28.2163 259.765L26.335 261.099L26.3285 261.096C26.2718 261.137 26.2049 261.163 26.1351 261.169C26.0652 261.175 25.9949 261.163 25.9316 261.132C25.8684 261.102 25.8145 261.055 25.7758 260.997C25.7371 260.938 25.7149 260.87 25.7117 260.8L25.7096 260.799L25.579 258.494C26.5737 258.617 27.5004 259.064 28.2163 259.765ZM24.6724 262.293H25.3804L25.8205 262.843L25.6627 263.529L25.0269 263.835L24.3892 263.528L24.2311 262.842L24.6724 262.293ZM24.0063 258.574C24.1614 258.539 24.3181 258.512 24.476 258.494L24.3451 260.803L24.3355 260.807C24.3325 260.877 24.3106 260.945 24.272 261.004C24.2335 261.063 24.1798 261.11 24.1166 261.14C24.0534 261.171 23.9831 261.183 23.9132 261.177C23.8433 261.171 23.7764 261.146 23.7197 261.105L23.716 261.107L21.8225 259.764C22.4253 259.172 23.1817 258.76 24.0063 258.574ZM21.1359 260.627L22.8646 262.173L22.8627 262.183C22.9157 262.229 22.9552 262.288 22.9769 262.355C22.9987 262.422 23.0019 262.493 22.9863 262.562C22.9706 262.63 22.9367 262.693 22.8881 262.744C22.8394 262.795 22.778 262.831 22.7102 262.85L22.7084 262.857L20.4925 263.496C20.3821 262.495 20.6085 261.485 21.1359 260.627ZM23.4505 264.734L22.57 266.862C21.725 266.321 21.0821 265.516 20.741 264.573L23.013 264.187L23.0169 264.192C23.042 264.187 23.0675 264.185 23.093 264.185C23.1567 264.186 23.2192 264.203 23.275 264.233C23.3308 264.264 23.3781 264.308 23.4128 264.362C23.4474 264.415 23.4684 264.476 23.4738 264.54C23.4793 264.603 23.469 264.667 23.4439 264.726L23.4505 264.734ZM26.0493 267.47C25.2255 267.659 24.3654 267.615 23.5653 267.343L24.6827 265.322H24.6846C24.7178 265.26 24.7671 265.209 24.8273 265.173C24.8874 265.137 24.9562 265.118 25.0263 265.118C25.0964 265.118 25.1653 265.137 25.2255 265.173C25.2857 265.208 25.3351 265.26 25.3685 265.322H25.3768L26.497 267.345C26.3516 267.394 26.2024 267.435 26.0493 267.47ZM27.4929 266.87L26.6034 264.721L26.6061 264.717C26.5667 264.625 26.5642 264.522 26.5992 264.428C26.6343 264.334 26.7041 264.258 26.7942 264.214C26.8406 264.192 26.8912 264.179 26.9428 264.176C26.9727 264.174 27.0026 264.177 27.032 264.182L27.0359 264.178L29.3281 264.565C28.9897 265.516 28.344 266.327 27.4929 266.87ZM29.5688 263.489L27.3418 262.848L27.3397 262.838C27.2721 262.819 27.2108 262.783 27.1623 262.732C27.1138 262.681 27.08 262.618 27.0643 262.55C27.0487 262.482 27.0519 262.41 27.0736 262.344C27.0953 262.277 27.1346 262.217 27.1874 262.171L27.1866 262.167L28.9057 260.628C29.4321 261.484 29.665 262.489 29.5688 263.489Z" fill="white"/>
<rect x="0.5" y="239.5" width="47" height="47" rx="3.5" stroke="#DA291D"/>
<g filter="url(#filter0_dd_631_211890)">
<path d="M46.1238 235.36L51.9053 245.431C52.1021 245.774 51.9822 246.21 51.6377 246.406C51.5292 246.468 51.4064 246.5 51.2815 246.5H39.7184C39.3216 246.5 39 246.18 39 245.786C39 245.661 39.0326 245.539 39.0945 245.431L44.8761 235.36C45.0728 235.018 45.5116 234.898 45.8561 235.094C45.9677 235.157 46.0601 235.249 46.1238 235.36Z" fill="white" stroke="white"/>
<path fill-rule="evenodd" clip-rule="evenodd" d="M46.1238 235.362L51.9053 245.488C52.1021 245.832 51.9822 246.271 51.6377 246.468C51.5292 246.53 51.4064 246.563 51.2815 246.563H39.7184C39.3216 246.563 39 246.241 39 245.844C39 245.719 39.0326 245.596 39.0945 245.488L44.8761 235.362C45.0728 235.018 45.5116 234.898 45.8561 235.095C45.9677 235.158 46.0601 235.251 46.1238 235.362ZM45.1455 243.274H45.8552L46.2195 238.67L44.7813 238.66L45.1455 243.274ZM44.8464 245.254V243.965H46.1539V245.254H44.8464Z" fill="#DA291D"/>
</g>
<path d="M77.5 259L81.5 263H65.5H81.5L77.5 267" stroke="#0672B6" stroke-linecap="round" stroke-linejoin="round"/>
<rect x="99.5" y="239.5" width="47" height="47" rx="3.5" fill="#E2F5FF"/>
<g clip-path="url(#clip0_631_211890)">
<path d="M123.484 253.389C123.494 253.795 123.454 254.196 123.351 254.588C123.324 254.694 123.349 254.711 123.448 254.723C124.744 254.871 125.948 255.283 127.049 255.981C127.179 256.064 127.204 256.018 127.251 255.902C127.571 255.117 128.047 254.442 128.698 253.895C128.917 253.711 129.151 253.549 129.442 253.496C129.734 253.443 129.919 253.584 129.949 253.881C129.978 254.171 129.912 254.446 129.809 254.713C129.499 255.516 129.02 256.204 128.365 256.766C128.266 256.851 128.249 256.892 128.355 256.991C128.876 257.474 129.321 258.022 129.705 258.62C129.767 258.715 129.769 258.763 129.663 258.824C129.357 259.001 129.054 259.185 128.755 259.373C128.656 259.436 128.605 259.436 128.537 259.327C128.097 258.625 127.544 258.022 126.885 257.517C125.817 256.699 124.616 256.194 123.272 256.075C120.628 255.84 118.478 256.774 116.818 258.833C116.786 258.872 116.755 258.912 116.726 258.953C116.492 259.28 116.492 259.28 116.16 259.067C115.937 258.923 115.716 258.776 115.489 258.638C115.391 258.578 115.359 258.534 115.436 258.422C115.824 257.857 116.266 257.339 116.776 256.882C116.88 256.788 116.892 256.746 116.783 256.641C116.113 255.994 115.599 255.248 115.37 254.332C115.329 254.165 115.322 253.994 115.349 253.825C115.387 253.582 115.567 253.453 115.811 253.489C116.118 253.534 116.363 253.704 116.592 253.895C117.205 254.406 117.66 255.037 117.98 255.763C118.04 255.898 118.083 255.908 118.207 255.835C119.302 255.192 120.484 254.811 121.754 254.711C121.921 254.698 121.94 254.643 121.909 254.488C121.736 253.642 121.741 252.799 121.995 251.966C122.056 251.766 122.141 251.576 122.272 251.411C122.505 251.118 122.78 251.119 123.012 251.417C123.243 251.715 123.333 252.07 123.405 252.43C123.467 252.746 123.491 253.067 123.484 253.389Z" fill="#27799F"/>
<path d="M121.792 272.743C121.807 272.422 121.802 272.1 121.877 271.784C121.905 271.667 121.908 271.599 121.74 271.584C120.447 271.472 119.241 271.08 118.128 270.414C118.012 270.345 117.98 270.371 117.928 270.48C117.605 271.153 117.172 271.747 116.594 272.228C116.374 272.41 116.14 272.574 115.85 272.627C115.557 272.681 115.372 272.54 115.342 272.243C115.312 271.953 115.38 271.679 115.481 271.411C115.743 270.716 116.147 270.109 116.675 269.589C116.802 269.463 116.782 269.408 116.664 269.302C116.267 268.947 115.926 268.541 115.608 268.114C115.537 268.018 115.529 267.967 115.638 267.896C115.929 267.705 116.215 267.508 116.496 267.303C116.601 267.226 116.654 267.232 116.732 267.34C117.362 268.208 118.15 268.9 119.098 269.405C120.522 270.166 122.037 270.433 123.635 270.173C125.571 269.858 127.118 268.9 128.286 267.334C128.359 267.236 128.41 267.206 128.522 267.289C128.801 267.495 129.089 267.691 129.379 267.882C129.481 267.949 129.497 267.992 129.419 268.097C129.12 268.498 128.801 268.881 128.435 269.223C128.342 269.309 128.361 269.345 128.444 269.423C129.149 270.083 129.684 270.85 129.922 271.799C129.962 271.96 129.967 272.125 129.943 272.288C129.907 272.542 129.726 272.672 129.471 272.633C129.171 272.587 128.931 272.421 128.706 272.235C128.082 271.717 127.623 271.073 127.297 270.335C127.245 270.217 127.21 270.208 127.105 270.276C126.003 270.986 124.797 271.414 123.493 271.561C123.37 271.575 123.377 271.617 123.394 271.716C123.533 272.489 123.532 273.259 123.328 274.022C123.259 274.279 123.166 274.527 122.99 274.734C122.766 274.998 122.505 275 122.287 274.728C122.009 274.381 121.924 273.959 121.848 273.535C121.802 273.273 121.808 273.007 121.792 272.743Z" fill="#27799F"/>
<path d="M129.257 262.39C129.488 263.657 129.49 264.914 129.483 266.173C129.482 266.344 129.436 266.384 129.272 266.378C128.899 266.366 128.525 266.37 128.151 266.377C128.031 266.38 128.004 266.343 128.004 266.228C128.007 264.26 128.008 262.291 128.004 260.323C128.004 260.199 128.037 260.163 128.162 260.165C128.637 260.172 129.112 260.174 129.587 260.163C129.73 260.16 129.783 260.214 129.827 260.338C130.224 261.453 130.679 262.548 130.982 263.695C130.992 263.73 131.01 263.763 131.03 263.811C131.114 263.701 131.126 263.58 131.157 263.468C131.459 262.388 131.87 261.344 132.231 260.283C132.264 260.188 132.316 260.164 132.411 260.165C132.899 260.17 133.387 260.172 133.875 260.164C133.998 260.163 134.019 260.208 134.019 260.317C134.016 262.286 134.016 264.254 134.019 266.223C134.019 266.329 134.004 266.38 133.877 266.378C133.478 266.369 133.079 266.369 132.68 266.377C132.554 266.38 132.537 266.33 132.537 266.222C132.532 265.043 132.517 263.863 132.711 262.693C132.723 262.619 132.721 262.542 132.723 262.467C132.724 262.451 132.714 262.436 132.697 262.38C132.634 262.567 132.583 262.718 132.533 262.87C132.213 263.833 131.839 264.776 131.495 265.73C131.453 265.845 131.394 265.884 131.274 265.878C131.078 265.868 130.881 265.87 130.685 265.877C130.593 265.881 130.549 265.848 130.519 265.764C130.126 264.688 129.694 263.624 129.372 262.523C129.359 262.478 129.357 262.422 129.257 262.39Z" fill="#27799F"/>
<path d="M116.295 263.271C116.295 264.243 116.292 265.214 116.297 266.186C116.298 266.324 116.277 266.383 116.116 266.379C115.686 266.366 115.255 266.369 114.824 266.377C114.693 266.38 114.653 266.348 114.654 266.212C114.661 265.512 114.654 264.812 114.66 264.112C114.662 263.969 114.633 263.915 114.475 263.918C113.981 263.929 113.487 263.93 112.993 263.918C112.827 263.914 112.798 263.972 112.8 264.122C112.807 264.816 112.798 265.51 112.807 266.204C112.809 266.35 112.764 266.38 112.626 266.378C112.189 266.369 111.752 266.371 111.315 266.377C111.204 266.378 111.163 266.355 111.163 266.233C111.167 264.259 111.167 262.284 111.163 260.31C111.163 260.189 111.203 260.164 111.315 260.165C111.752 260.171 112.189 260.173 112.626 260.164C112.765 260.161 112.809 260.194 112.807 260.339C112.798 260.983 112.808 261.626 112.8 262.269C112.798 262.42 112.828 262.477 112.993 262.473C113.487 262.462 113.981 262.462 114.475 262.473C114.633 262.477 114.662 262.422 114.66 262.28C114.653 261.63 114.661 260.981 114.654 260.331C114.653 260.197 114.692 260.162 114.824 260.164C115.255 260.173 115.686 260.176 116.116 260.163C116.277 260.158 116.298 260.219 116.297 260.357C116.292 261.329 116.295 262.3 116.295 263.271Z" fill="#27799F"/>
<path d="M117.628 263.279C117.628 262.302 117.631 261.324 117.625 260.346C117.624 260.211 117.648 260.163 117.798 260.164C119.014 260.17 120.231 260.17 121.447 260.164C121.583 260.164 121.635 260.19 121.63 260.338C121.618 260.685 121.621 261.032 121.629 261.379C121.632 261.507 121.588 261.536 121.468 261.535C120.796 261.53 120.125 261.536 119.453 261.529C119.309 261.528 119.258 261.558 119.261 261.714C119.269 262.05 119.271 261.984 119.262 262.319C119.258 262.465 119.293 262.513 119.448 262.511C119.999 262.501 120.551 262.513 121.102 262.503C121.257 262.5 121.291 262.551 121.287 262.694C121.277 263.047 121.278 263.401 121.286 263.754C121.289 263.879 121.251 263.914 121.126 263.913C120.569 263.907 120.011 263.914 119.454 263.907C119.313 263.905 119.258 263.932 119.261 264.09C119.266 264.345 119.258 264.599 119.262 264.847C119.264 264.983 119.303 265.014 119.433 265.013C120.136 265.007 120.839 265.014 121.542 265.006C121.689 265.005 121.738 265.04 121.732 265.192C121.72 265.533 121.724 265.874 121.731 266.214C121.733 266.331 121.709 266.378 121.577 266.377C120.31 266.372 119.043 266.372 117.776 266.378C117.641 266.378 117.626 266.326 117.626 266.213C117.63 265.235 117.628 264.257 117.628 263.279Z" fill="#27799F"/>
<path d="M122.951 263.266C122.951 262.294 122.954 261.323 122.947 260.351C122.946 260.203 122.984 260.16 123.135 260.164C123.559 260.174 123.984 260.175 124.408 260.163C124.566 260.159 124.591 260.215 124.591 260.355C124.586 261.838 124.59 263.32 124.584 264.803C124.584 264.962 124.611 265.018 124.788 265.015C125.446 265.002 126.106 265.014 126.764 265.006C126.911 265.004 126.944 265.049 126.94 265.187C126.93 265.534 126.932 265.881 126.94 266.228C126.942 266.344 126.909 266.377 126.791 266.377C125.562 266.373 124.333 266.372 123.104 266.377C122.978 266.378 122.948 266.34 122.948 266.219C122.953 265.234 122.951 264.25 122.951 263.266Z" fill="#27799F"/>
</g>
<rect x="99.5" y="239.5" width="47" height="47" rx="3.5" stroke="#FF7020"/>
<g filter="url(#filter1_dd_631_211890)">
<circle cx="145" cy="241" r="8" fill="white"/>
<circle cx="145" cy="241" r="7.5" fill="#FF7020"/>
<g clip-path="url(#clip1_631_211890)">
<path d="M144.458 243.708C144.458 244.006 144.702 244.25 145 244.25C145.298 244.25 145.542 244.006 145.542 243.708C145.542 243.41 145.298 243.167 145 243.167C144.702 243.167 144.458 243.41 144.458 243.708ZM144.458 236.125V238.292H145.542V237.252C147.378 237.517 148.792 239.088 148.792 241C148.792 243.096 147.096 244.792 145 244.792C142.904 244.792 141.208 243.096 141.208 241C141.208 240.09 141.528 239.256 142.064 238.606L145 241.542L145.764 240.778L142.08 237.095V237.105C140.894 237.994 140.125 239.402 140.125 241C140.125 243.692 142.303 245.875 145 245.875C147.692 245.875 149.875 243.692 149.875 241C149.875 238.308 147.692 236.125 145 236.125H144.458ZM148.25 241C148.25 240.702 148.006 240.458 147.708 240.458C147.41 240.458 147.167 240.702 147.167 241C147.167 241.298 147.41 241.542 147.708 241.542C148.006 241.542 148.25 241.298 148.25 241ZM141.75 241C141.75 241.298 141.994 241.542 142.292 241.542C142.59 241.542 142.833 241.298 142.833 241C142.833 240.702 142.59 240.458 142.292 240.458C141.994 240.458 141.75 240.702 141.75 241Z" fill="white"/>
</g>
</g>
<path d="M176.5 259L180.5 263H164.5H180.5L176.5 267" stroke="#0672B6" stroke-linecap="round" stroke-linejoin="round"/>
<rect x="198.5" y="239.5" width="47" height="47" rx="3.5" fill="#E2F5FF"/>
<path fill-rule="evenodd" clip-rule="evenodd" d="M223.029 252.029L233.314 262.314C233.657 262.657 233.657 263.343 233.314 263.686L229.886 267.114L229.714 267.286L222 275L217.714 270.714L210.686 263.686C210.343 263.343 210.343 262.657 210.686 262.314L214.286 258.714L222 251L223.029 252.029ZM218.4 263L222 266.6L225.6 263L222 259.4L218.4 263Z" fill="#2684FF"/>
<path d="M222 259.4C219.6 257.171 219.6 253.4 222 251L214.286 258.714L218.4 263L222 259.4Z" fill="url(#paint1_linear_631_211890)"/>
<path d="M225.6 263L222 266.6C224.4 269 224.4 272.771 222 275L229.714 267.286L225.6 263Z" fill="url(#paint2_linear_631_211890)"/>
<rect x="198.5" y="239.5" width="47" height="47" rx="3.5" stroke="#2BB1F2"/>
<g filter="url(#filter2_dd_631_211890)">
<circle cx="245" cy="241" r="8" fill="white"/>
<path fill-rule="evenodd" clip-rule="evenodd" d="M237.5 241C237.5 245.142 240.858 248.5 245 248.5C249.142 248.5 252.5 245.142 252.5 241C252.5 236.858 249.142 233.5 245 233.5C240.858 233.5 237.5 236.858 237.5 241ZM243.821 242.821L248.71 237.702C248.978 237.421 249.424 237.411 249.704 237.679C249.985 237.947 249.995 238.392 249.727 238.673L244.355 244.298C244.088 244.578 243.645 244.589 243.364 244.324L240.299 241.432C240.016 241.165 240.003 240.72 240.27 240.438C240.536 240.156 240.981 240.143 241.264 240.409L243.821 242.821Z" fill="#4DC952"/>
</g>
<rect x="0.5" y="0.5" width="47" height="47" rx="3.5" fill="#E2F5FF"/>
<g clip-path="url(#clip2_631_211890)">
<path fill-rule="evenodd" clip-rule="evenodd" d="M32.4714 23.565C32.4714 28.32 28.7027 32.175 24.0542 32.175C19.4057 32.175 15.6377 28.32 15.6377 23.565C15.6377 18.81 19.4057 14.955 24.0542 14.955C28.7027 14.955 32.4714 18.81 32.4714 23.565Z" fill="#D33833"/>
<path d="M15.9798 25.6972C15.9798 25.6972 15.3708 16.719 23.6433 16.4625L23.0658 15.5002L18.5763 17.0002L17.3013 18.4755L16.1793 20.6242L15.5381 23.1255L15.7308 24.7927" fill="#EF3D3A"/>
<path d="M18.289 17.6925C16.8115 19.2037 15.898 21.2902 15.898 23.598C15.898 25.9057 16.813 27.993 18.289 29.5027C19.765 31.0125 21.8027 31.9455 24.0542 31.9455C26.3057 31.9455 28.342 31.0132 29.8195 29.5027C31.297 27.9922 32.2105 25.905 32.2105 23.598C32.2105 21.291 31.2955 19.203 29.8195 17.6925C28.3435 16.182 26.3057 15.2497 24.0542 15.2497C21.8027 15.2497 19.7665 16.182 18.289 17.6925ZM17.9155 29.8687C16.3457 28.2637 15.376 26.0452 15.376 23.5987C15.376 21.1522 16.3465 18.9337 17.9155 17.3287C19.4845 15.7237 21.6565 14.7277 24.0542 14.7285C26.452 14.7292 28.624 15.7237 30.193 17.3287C31.762 18.9337 32.7332 21.1522 32.7332 23.5987C32.7332 26.0452 31.7627 28.2637 30.193 29.8687C28.6232 31.4737 26.452 32.469 24.0542 32.469C21.6565 32.469 19.4845 31.4737 17.9155 29.8687Z" fill="#231F20"/>
<path fill-rule="evenodd" clip-rule="evenodd" d="M27.5967 23.613L26.3217 23.8058L24.5892 23.9985L23.4672 24.0308L22.3767 23.9985L21.5427 23.742L20.8054 22.9395L20.2279 21.3045L20.1004 20.952L19.3309 20.6955L18.8809 19.9583L18.5547 18.9L18.9072 17.97L19.7412 17.6813L20.4147 18.0023L20.7357 18.7073L21.1204 18.6428L21.2479 18.4823L21.1204 17.745L21.0882 16.815L21.2809 15.54L21.2734 14.8073L21.8584 13.8728L22.8844 13.1355L24.6784 12.3578L26.6659 12.6465L28.3984 13.8968L29.2009 15.1718L29.7139 16.1018L29.8414 18.4103L29.4567 20.3978L28.7517 22.1603L28.0782 23.0903" fill="#F0D6B7"/>
<path fill-rule="evenodd" clip-rule="evenodd" d="M26.5066 29.16L21.9211 29.3527V30.1222L22.3059 32.8147L22.1131 33.0397L18.9076 31.95L18.6826 31.5652L18.3616 27.9427L17.6244 25.7625L17.4639 25.2495L20.0289 23.487L20.8314 23.166L21.5364 24.0315L22.1454 24.5767L22.8504 24.8017L23.1706 24.8977L23.5554 26.565L23.8441 26.9175L24.5814 26.661L24.0684 27.6547L26.8584 28.9695L26.5059 29.1622" fill="#335061"/>
<path fill-rule="evenodd" clip-rule="evenodd" d="M18.9075 17.97L19.7415 17.6813L20.415 18.0023L20.736 18.7073L21.1208 18.6428L21.2168 18.258L21.024 17.5208L21.2168 15.7568L21.0563 14.7945L21.6338 14.121L22.884 13.1273L22.5315 12.6473L20.7675 13.5128L20.0303 14.0903L19.6133 14.988L18.972 15.8535L18.7793 16.8795L18.9068 17.97" fill="#6D6B6D"/>
<path fill-rule="evenodd" clip-rule="evenodd" d="M20.222 14.955C20.222 14.955 20.702 13.7685 22.6272 13.1925C24.5525 12.6165 22.7232 12.7755 22.7232 12.7755L20.6382 13.578L19.8357 14.3805L19.4832 15.0218L20.2205 14.9573L20.222 14.955ZM19.2605 17.745C19.2605 17.745 18.587 15.5003 21.1527 15.18L21.0567 14.7953L19.2943 15.2123L18.7812 16.8795L18.9088 17.97L19.2612 17.745" fill="#DCD9D8"/>
<path fill-rule="evenodd" clip-rule="evenodd" d="M20.2861 20.727L20.7061 20.3205C20.7103 20.3804 20.7344 20.4372 20.7744 20.4818C20.8145 20.5265 20.8683 20.5566 20.9274 20.5673C20.9596 20.7923 21.0549 22.812 22.4274 23.9025C22.5534 24.0023 21.4014 23.742 21.4014 23.742L20.3754 22.1385L20.2861 20.727ZM26.1789 20.1173C26.1789 20.1173 26.2539 19.1453 26.5164 19.2203C26.7789 19.2953 26.7789 19.5578 26.7789 19.5578C26.7789 19.5578 26.1429 19.9688 26.1804 20.1188" fill="#F7E4CD"/>
<path d="M28.8475 16.5577C28.8475 16.5577 28.3188 16.6702 28.27 17.1352C28.2213 17.6002 28.8475 17.2312 28.9435 17.1997L28.8475 16.5577ZM24.9745 16.59C24.9745 16.59 24.2695 16.686 24.2695 17.1352C24.2695 17.5845 25.072 17.5522 25.2955 17.3602" fill="#F7E4CD"/>
<path fill-rule="evenodd" clip-rule="evenodd" d="M20.6062 18.675C20.6062 18.675 19.3874 17.937 19.2599 18.6428C19.1324 19.3485 18.8429 19.8615 19.4527 20.5988L19.0357 20.4713L18.6509 19.4775L18.5234 18.5153L19.2607 17.7458L20.0947 17.8103L20.5747 18.195L20.6069 18.675H20.6062ZM21.1844 16.6545C21.1844 16.6545 21.7297 13.833 24.4874 13.2795C26.7577 12.831 27.9502 13.3755 28.3994 13.8885C28.3994 13.8885 26.3789 11.484 24.4544 12.2213C22.5299 12.9585 21.1199 14.3213 21.1499 15.1785L21.1822 16.6538L21.1844 16.6545ZM28.6222 14.2163C28.6222 14.2163 27.6922 14.184 27.6599 15.0188C27.6633 15.1078 27.685 15.1951 27.7237 15.2753C27.7237 15.2753 28.4617 14.4413 28.9102 14.8905L28.6222 14.2163ZM24.5504 15.3615C24.5504 15.3615 24.3907 14.082 23.2994 14.826C22.5944 15.306 22.6582 15.981 22.7864 16.101C22.9147 16.221 22.8802 16.4873 22.9777 16.311C23.0752 16.1348 23.0429 15.5565 23.3962 15.396C23.7494 15.2355 24.3262 15.0563 24.5512 15.3548" fill="#F7E4CD"/>
<path fill-rule="evenodd" clip-rule="evenodd" d="M21.5366 24.0301L18.5216 25.3771C18.5216 25.3771 19.7718 30.3473 19.1306 31.8871L18.6806 31.7266L18.6483 29.8343L17.8173 26.2501L17.4648 25.2563L20.6148 23.1398L21.5448 24.0376L21.5366 24.0301ZM21.8478 26.7788L22.2753 27.3008V29.2246H21.7623L21.6986 27.7246C21.6986 27.5641 21.7623 26.9873 21.7623 26.9873L21.8478 26.7788ZM21.8576 29.5126L20.4146 29.5763L20.8316 29.8651L21.8576 30.0256" fill="#49728B"/>
<path fill-rule="evenodd" clip-rule="evenodd" d="M26.7959 29.1922L27.9824 29.16L28.2711 32.1105L27.0524 32.271L26.7959 29.193" fill="#335061"/>
<path fill-rule="evenodd" clip-rule="evenodd" d="M27.117 29.1922L28.9125 29.0962L29.6497 27.1402C29.6497 27.0442 30.291 24.4477 30.291 24.4477L28.848 22.9402L28.5592 22.6837L27.7897 23.4532V26.4352L27.1162 29.193" fill="#335061"/>
<path fill-rule="evenodd" clip-rule="evenodd" d="M27.9179 28.968L26.7959 29.193L26.9564 30.0907C27.3734 30.2835 28.0784 29.7697 28.0784 29.7697L27.9179 28.968ZM27.9494 23.3572L30.1941 25.0245L30.2586 24.255L28.5591 22.6837L27.9501 23.3572" fill="#49728B"/>
<path fill-rule="evenodd" clip-rule="evenodd" d="M22.9704 35.5095L22.3066 32.8155L21.9766 30.828L21.9219 29.3527L24.9264 29.193H26.7961L26.6259 32.568L26.9146 35.1652L26.8824 35.6452L24.4449 35.838L22.9696 35.517" fill="white"/>
<path fill-rule="evenodd" clip-rule="evenodd" d="M26.3782 29.16C26.3782 29.16 26.2177 32.4952 26.6992 34.86C26.6992 34.86 25.7369 35.469 24.3262 35.6295L27.0187 35.5335L27.3397 35.3407L26.9549 30.0817L26.8589 28.959" fill="#DCD9D8"/>
<path fill-rule="evenodd" clip-rule="evenodd" d="M28.3259 31.854L29.5762 31.5015L31.9492 31.374L32.3017 30.2835L31.6604 28.3913L30.9232 28.2953L29.8972 28.6163L28.9124 29.0963L28.3897 29.0003L27.9824 29.16" fill="white"/>
<path fill-rule="evenodd" clip-rule="evenodd" d="M28.3027 31.2121C28.3027 31.2121 29.1367 30.8273 29.265 30.8596L28.9125 29.0956L29.3295 28.9351L29.6182 30.7951L31.5742 30.8911C31.5742 30.8911 31.959 30.1538 31.863 29.3911L32.2155 30.4171L32.2477 30.9946L31.7347 31.7641L31.1572 31.8916L30.195 31.8593L29.874 31.4423L28.752 31.6028L28.3995 31.7303" fill="#DCD9D8"/>
<path d="M27.0419 28.935L26.3369 27.1395L25.5996 26.082C25.5996 26.082 25.7601 25.632 25.9844 25.632H26.7216L27.4266 25.8885L27.3629 27.075L27.0419 28.935Z" fill="white"/>
<path fill-rule="evenodd" clip-rule="evenodd" d="M27.1797 28.3275C27.1797 28.3275 26.2819 26.595 26.2819 26.34C26.2819 26.34 26.4424 25.9552 26.6667 26.0512C26.8909 26.1472 27.3717 26.4037 27.3717 26.4037V25.7947L26.2812 25.5697L25.5439 25.6657L26.7942 28.6162L27.0507 28.6485" fill="#DCD9D8"/>
<path d="M23.2572 24.0937L22.3692 23.9962L21.5352 23.7397V24.0285L21.9424 24.4785L23.2174 25.056" fill="white"/>
<path fill-rule="evenodd" clip-rule="evenodd" d="M21.8245 24.1905C21.8245 24.1905 22.8183 24.6075 23.1393 24.5115L23.1715 24.8963L22.2738 24.7043L21.7285 24.3195L21.8245 24.192" fill="#DCD9D8"/>
<path fill-rule="evenodd" clip-rule="evenodd" d="M28.3208 25.7422C27.7771 25.7272 27.2858 25.662 26.8546 25.5397C26.8846 25.3635 26.8291 25.1902 26.8733 25.0627C26.9933 24.9765 27.1943 24.978 27.3758 24.9577C27.2183 24.8805 26.9986 24.8505 26.8178 24.8947C26.8133 24.7725 26.7578 24.6967 26.7256 24.6007C27.0316 24.4912 27.7531 23.7757 28.1596 24.0127C28.3531 24.1252 28.4356 24.7702 28.4506 25.0822C28.4633 25.3417 28.4281 25.6042 28.3208 25.7422Z" fill="#D33833"/>
<path d="M28.3218 25.7422C27.7781 25.7272 27.2868 25.662 26.8556 25.5397C26.8856 25.3635 26.8301 25.1902 26.8743 25.0627C26.9943 24.9765 27.1953 24.978 27.3768 24.9577C27.2193 24.8805 26.9996 24.8505 26.8188 24.8947C26.8143 24.7725 26.7588 24.6967 26.7266 24.6007C27.0326 24.4912 27.7541 23.7757 28.1606 24.0127C28.3541 24.1252 28.4366 24.7702 28.4516 25.0822C28.4643 25.3417 28.4291 25.6042 28.3218 25.7422V25.7422Z" stroke="#D33833" stroke-width="0.514"/>
<path fill-rule="evenodd" clip-rule="evenodd" d="M25.7197 24.8528L25.7152 24.9773C25.545 25.0898 25.2712 25.0875 25.0852 25.1813C25.3597 25.1933 25.5765 25.2593 25.764 25.3538L25.752 25.665C25.4407 25.878 25.1565 26.196 24.7897 26.3955C24.6172 26.49 24.0082 26.733 23.8237 26.6903C23.7187 26.6663 23.7097 26.5365 23.6685 26.4143C23.58 26.1518 23.376 25.737 23.3572 25.3433C23.3347 24.846 23.2845 24.0135 23.82 24.1155C24.2628 24.2094 24.6901 24.3658 25.089 24.5798C25.2937 24.6923 25.4115 24.8295 25.722 24.8535" fill="#D33833"/>
<path d="M25.7197 24.8528L25.7152 24.9773C25.545 25.0898 25.2712 25.0875 25.0852 25.1813C25.3597 25.1933 25.5765 25.2593 25.764 25.3538L25.752 25.665C25.4407 25.878 25.1565 26.196 24.7897 26.3955C24.6172 26.49 24.0082 26.733 23.8237 26.6903C23.7187 26.6663 23.7097 26.5365 23.6685 26.4143C23.58 26.1518 23.376 25.737 23.3572 25.3433C23.3347 24.846 23.2845 24.0135 23.82 24.1155C24.2628 24.2094 24.6901 24.3658 25.089 24.5798C25.2937 24.6923 25.4115 24.8295 25.722 24.8535L25.7197 24.8528Z" stroke="#D33833" stroke-width="0.514"/>
<path fill-rule="evenodd" clip-rule="evenodd" d="M26.0292 25.446C25.982 25.176 25.9265 25.098 25.9482 24.861C26.6705 24.3795 26.8055 25.6875 26.0292 25.446Z" fill="#D33833"/>
<path d="M26.0292 25.446C25.982 25.176 25.9265 25.098 25.9482 24.861C26.6705 24.3795 26.8055 25.6875 26.0292 25.446Z" stroke="#D33833" stroke-width="0.514"/>
<path fill-rule="evenodd" clip-rule="evenodd" d="M27.0746 25.665C27.0746 25.665 26.8496 25.344 27.0101 25.248C27.1706 25.152 27.3311 25.248 27.4271 25.0875C27.5231 24.927 27.4271 24.831 27.4593 24.6375C27.4916 24.444 27.6521 24.4125 27.8118 24.381C27.9716 24.3495 28.4208 24.285 28.4853 24.4455L28.2926 23.868L27.9078 23.7405L26.6891 24.4455L26.6246 24.798V25.503L27.0746 25.665ZM23.6996 26.7225L23.5751 25.2225C23.5001 24.4763 23.7551 24.606 24.4016 24.606C24.5006 24.606 25.0016 24.7238 25.0466 24.7988C25.2213 25.1558 24.7466 25.0763 25.2491 25.3463C25.6661 25.5735 26.4026 25.2083 26.2338 24.7028C26.1393 24.5903 25.7426 24.6675 25.6001 24.594L24.8486 24.204C24.5298 24.039 23.7933 23.7975 23.4536 24.0285C22.5926 24.6135 23.5076 26.0775 23.8151 26.688" fill="#EF3D3A"/>
<path fill-rule="evenodd" clip-rule="evenodd" d="M24.5513 15.3622C23.6776 15.1597 23.2433 15.7282 22.9778 16.3185C22.7416 16.2615 22.8278 15.9397 22.9028 15.7755C23.0528 15.345 23.6903 14.7727 24.2048 14.85C24.4268 14.8837 24.7268 15.0862 24.5588 15.3622H24.5513ZM28.8098 16.35L28.8511 16.3515C29.0483 16.7617 29.2261 17.1967 29.4683 17.5515C29.3011 17.94 28.2046 18.2842 28.2211 17.586C28.4581 17.4825 28.8676 17.565 29.0783 17.4322C28.9568 17.0985 28.7813 16.8142 28.8083 16.3425L28.8098 16.35ZM24.9983 16.368C25.1858 16.7115 25.2458 17.073 25.5128 17.3317C25.6328 17.4487 25.8653 17.5912 25.7506 17.9167C25.6687 18.0421 25.5511 18.14 25.4131 18.198C24.9968 18.321 24.0256 18.2235 24.3631 17.7045C24.7081 17.7195 25.1701 17.928 25.4281 17.6782C25.2301 17.3632 24.8783 16.737 25.0081 16.3687L24.9983 16.368ZM28.6606 19.86C28.0336 20.2627 27.3346 20.7 26.3071 20.5995C26.0873 20.409 26.0041 19.9845 26.2171 19.7032C26.3281 19.8937 26.2583 20.2455 26.5681 20.298C27.1508 20.3977 27.8296 19.9417 28.2481 19.782C28.5083 19.3432 28.2256 19.182 27.9916 18.9C27.5116 18.3225 26.8688 17.6055 26.8921 16.74C27.0856 16.5997 27.1021 16.9545 27.1306 17.019C27.3811 17.604 28.0111 18.354 28.4708 18.8565C28.5833 18.9802 28.7708 19.0987 28.7903 19.1805C28.8503 19.4182 28.6351 19.7025 28.6598 19.8607L28.6606 19.86ZM20.3873 19.4355C20.1908 19.323 20.1443 18.8295 19.9133 18.8152C19.5833 18.795 19.6433 19.4565 19.6448 19.8427C19.4176 19.6365 19.3778 19.0027 19.5443 18.6765C19.3546 18.5835 19.2691 18.7792 19.1641 18.849C19.2991 17.865 20.6041 18.399 20.3866 19.4362L20.3873 19.4355ZM29.0528 20.2612C28.7528 20.8162 28.3478 21.4282 27.4913 21.4462C27.4741 21.2662 27.4613 20.994 27.4921 20.886C28.1468 20.823 28.5511 20.49 29.0521 20.2612H29.0528ZM24.9496 20.6212C25.4956 20.9085 26.4998 20.9392 27.2423 20.9175C27.2821 21.0802 27.2813 21.2812 27.2828 21.48C26.3281 21.5272 25.2001 21.2925 24.9578 20.6212H24.9496ZM24.8528 21.1567C25.2308 22.1055 26.5291 21.9967 27.6241 21.9697C27.5761 22.0927 27.4711 22.2382 27.3413 22.2907C26.9903 22.4407 26.0228 22.542 25.5361 22.2832C25.2271 22.1182 25.0291 21.7477 24.8596 21.5302C24.7846 21.4252 24.3706 21.1567 24.8536 21.1552" fill="#231F20"/>
<path fill-rule="evenodd" clip-rule="evenodd" d="M28.6083 26.397L27.2148 28.6058C27.4353 27.9578 27.5298 26.8733 27.5628 26.0453C28.0241 25.8293 28.4193 26.094 28.6083 26.3978" fill="#81B0C4"/>
<path fill-rule="evenodd" clip-rule="evenodd" d="M30.9931 29.1255C30.4966 29.2245 30.1478 29.7075 29.6641 29.676C29.9303 29.301 30.3961 29.151 30.9931 29.1255ZM31.2121 29.9025C30.8071 29.9453 30.3323 30.0105 29.9221 29.9775C30.1171 29.6805 30.8648 29.7825 31.2121 29.9025ZM31.3523 30.5715C30.8978 30.5813 30.3323 30.5723 29.9003 30.5363C30.1553 30.2618 31.0576 30.4343 31.3523 30.5715Z" fill="#231F20"/>
<path fill-rule="evenodd" clip-rule="evenodd" d="M27.7527 32.4045C27.818 32.9745 28.0452 33.5542 28.0152 34.179C27.764 34.2637 27.6192 34.338 27.2825 34.3365L27.209 32.4862C27.374 32.4975 27.6192 32.3677 27.752 32.4112" fill="#DCD9D8"/>
<path fill-rule="evenodd" clip-rule="evenodd" d="M27.0191 23.9895C26.7911 24.1395 26.5961 24.3247 26.3771 24.4845C25.8911 24.5085 25.6256 24.4507 25.2686 24.1717C25.2746 24.1492 25.3106 24.159 25.3113 24.132C25.8318 24.3645 26.4933 24.0375 27.0191 23.9895Z" fill="#F0D6B7"/>
<path fill-rule="evenodd" clip-rule="evenodd" d="M24.2871 27.537C24.4296 26.9175 24.9906 26.5965 25.4991 26.2545C26.0241 26.922 26.3436 27.777 26.6954 28.605C25.8644 28.3545 25.0154 27.948 24.2879 27.5363" fill="#81B0C4"/>
<path fill-rule="evenodd" clip-rule="evenodd" d="M27.2104 32.487C27.1894 32.9932 27.2599 33.807 27.2839 34.3372C27.6214 34.338 27.7654 34.2637 28.0167 34.1797C28.0452 33.5542 27.8187 32.976 27.7542 32.4052C27.6214 32.37 27.3769 32.499 27.2112 32.4802L27.2104 32.487ZM21.9664 29.607C22.1884 31.6485 22.5102 33.357 23.1004 35.172C24.4099 35.5695 25.9879 35.604 27.1459 35.2455C26.9337 34.2255 27.0259 32.9827 26.9022 31.893L26.7282 29.4157C25.3257 29.1232 23.3434 29.3482 21.9672 29.6047L21.9664 29.607ZM27.0664 29.4307C27.0544 30.3082 27.1054 31.1722 27.1729 32.0505L28.0504 31.8975C27.9492 31.0522 27.9604 30.1012 27.7542 29.3535C27.5142 29.3557 27.3049 29.3505 27.0664 29.4307ZM28.7742 29.2897C28.6144 29.2522 28.4292 29.2882 28.2754 29.2912L28.5754 31.545C28.8154 31.5525 28.9429 31.44 29.1417 31.401C29.1522 30.7425 29.0839 29.835 28.7667 29.2897H28.7742ZM31.3602 31.6522C31.8612 31.5307 32.1754 30.9172 32.0352 30.2872C31.9414 29.8642 31.7742 29.067 31.5949 28.7962C31.4629 28.596 31.1037 28.3335 30.8172 28.5172C30.3507 28.8157 29.5294 28.9027 29.1897 29.2635C29.3599 29.8312 29.4132 30.6105 29.4837 31.3297C30.0664 31.3657 30.7827 31.1692 31.2672 31.3777C30.9297 31.4872 30.4902 31.488 30.1984 31.6477C30.4369 31.7632 30.9964 31.74 31.3609 31.6515L31.3602 31.6522ZM26.7042 28.6072C26.3517 27.78 26.0329 26.9227 25.5079 26.2567C24.9994 26.598 24.4392 26.919 24.2959 27.5392C25.0234 27.9517 25.8732 28.3567 26.7034 28.608L26.7042 28.6072ZM27.5712 26.046C27.5382 26.8732 27.4437 27.9585 27.2232 28.6065C27.7482 27.9367 28.1734 27.1567 28.6167 26.3977C28.4277 26.0947 28.0317 25.8307 27.5712 26.046ZM26.5962 25.6965C26.3967 25.674 26.2287 25.9252 25.9684 25.8165L25.7944 26.0175C26.3667 26.7075 26.6194 27.6855 27.0694 28.4955C27.3064 27.717 27.2794 26.8642 27.3319 26.0145C27.0064 26.0355 26.8257 25.7197 26.5969 25.6957L26.5962 25.6965ZM25.9639 24.8625C25.9429 25.0987 25.9977 25.176 26.0449 25.4475C26.8212 25.6905 26.6854 24.3825 25.9639 24.8625ZM25.1029 24.5797C24.704 24.3657 24.2767 24.2094 23.8339 24.1155C23.2984 24.0127 23.3487 24.846 23.3712 25.3432C23.3892 25.737 23.5939 26.1532 23.6824 26.4142C23.7244 26.5365 23.7334 26.6655 23.8377 26.6902C24.0222 26.733 24.6304 26.49 24.8037 26.3955C25.1712 26.1952 25.4547 25.8705 25.7659 25.665L25.7779 25.3537C25.5904 25.2607 25.3744 25.194 25.0992 25.1812C25.2867 25.0875 25.5597 25.089 25.7292 24.9772L25.7337 24.8527C25.4232 24.8287 25.3062 24.6907 25.1007 24.579L25.1029 24.5797ZM21.9079 23.9992C21.6304 24.2812 22.6864 24.6652 23.0232 24.6862C23.0209 24.5077 23.1252 24.3397 23.1042 24.2115C22.7044 24.141 22.1787 24.1875 21.9079 23.9992ZM25.3279 24.1312C25.3264 24.159 25.2904 24.1485 25.2852 24.171C25.6422 24.45 25.9077 24.5085 26.3937 24.4837L27.0357 23.9887C26.5107 24.036 25.8484 24.3622 25.3279 24.1312ZM28.4674 25.0837C28.4524 24.7702 28.3699 24.1267 28.1764 24.0142C27.7699 23.7772 27.0477 24.4927 26.7424 24.6022C26.7754 24.6982 26.8309 24.7747 26.8347 24.8962C27.0147 24.8512 27.2359 24.8812 27.3927 24.9592C27.2112 24.9795 27.0177 24.978 26.8902 25.0642C26.8452 25.1917 26.9007 25.3642 26.8714 25.5412C27.3019 25.6627 27.7939 25.7272 28.3377 25.7437C28.4427 25.6065 28.4802 25.344 28.4674 25.0837ZM21.4399 24.2722C21.3529 24.21 20.7627 23.4427 20.6899 23.4742C19.6227 23.8942 18.6252 24.6217 17.7334 25.3117C18.5839 27.1357 18.9259 29.3715 18.9874 31.5255C19.9624 31.9807 20.8174 32.6377 22.1374 32.706L21.7579 29.64C21.4257 29.4997 20.9494 29.646 20.6389 29.5965C20.6359 29.2215 21.1137 29.4315 21.1534 29.181C21.1834 28.9905 20.8909 28.9762 20.9862 28.6762C21.2292 28.7647 21.3567 28.9597 21.6162 29.0325C21.8532 28.515 21.6132 27.5985 21.6462 27.1575C21.6537 27.0765 21.6867 26.7075 21.8689 26.772C22.0302 26.829 21.8599 27.7545 21.8764 28.1632C21.8914 28.5405 21.8314 28.9132 21.9837 29.1427C23.2609 28.9687 24.5584 28.8562 25.9399 28.8187C25.6362 28.6882 25.2747 28.5637 24.8787 28.3417C24.6642 28.2217 23.9877 27.969 23.9262 27.7642C23.8272 27.4395 24.1857 27.2662 24.2464 26.988C23.6014 27.3405 23.4762 26.6505 23.3239 26.163C23.1859 25.7205 23.1064 25.3905 23.0734 25.1355C22.5184 24.8707 21.9244 24.6105 21.4459 24.2632L21.4399 24.2722ZM27.9027 23.5672C28.7922 23.136 28.9527 25.1797 28.6039 25.8367C28.6579 26.0332 28.8439 26.1082 28.9189 26.2845L27.3664 28.8817C27.7429 28.647 28.2814 28.8397 28.7164 28.6567C28.8784 28.593 28.9954 28.2217 29.1184 27.9255C29.4559 27.1095 29.8099 26.0805 29.9674 25.3005C30.0027 25.1227 30.1002 24.7365 30.0784 24.5782C30.0394 24.2955 29.6562 24.0855 29.4604 23.9032L28.5004 22.9942C28.3482 23.2192 28.0219 23.3692 27.8974 23.5522L27.9027 23.5672ZM19.3917 15.681C18.9679 16.1475 19.0564 17.0205 19.1082 17.6422C19.8732 17.1607 20.8902 17.6797 20.8812 18.4995C21.2472 18.4897 21.0177 18.042 20.9517 17.7547C20.7357 16.8142 21.3162 15.7927 20.9779 14.9325C20.3217 14.982 19.7824 15.2505 19.3917 15.681ZM22.4232 12.975C21.4632 13.2465 20.2347 13.944 19.8409 14.805C20.1462 14.76 20.3584 14.607 20.6584 14.58C20.7724 14.5725 20.9209 14.628 21.0522 14.595C21.3124 14.5305 21.5322 13.9462 21.7294 13.7287C21.9214 13.5165 22.1517 13.4257 22.3092 13.2322C22.4104 13.1835 22.5604 13.1872 22.5657 13.035C22.5207 12.9877 22.4757 12.96 22.4157 12.96L22.4232 12.975ZM27.4159 13.23C26.4207 12.6697 24.7354 12.2475 23.6764 12.7747C22.8214 13.2007 21.6664 13.9057 21.2727 14.7997C21.6402 15.6622 21.1639 16.452 21.1332 17.3272C21.1167 17.7922 21.3522 18.1995 21.3702 18.7072C21.2442 18.915 20.8602 18.9397 20.5932 18.9262C20.5032 18.4777 20.3457 17.9737 19.8852 17.9227C19.2327 17.8515 18.7542 18.3922 18.7242 18.9577C18.6889 19.6222 19.2342 20.724 20.0082 20.6475C20.3067 20.6175 20.3802 20.3175 20.7057 20.3212C20.8819 20.6737 20.4334 20.784 20.3877 21.0352C20.3757 21.1005 20.4252 21.3547 20.4537 21.474C20.5939 22.0545 20.9074 22.8052 21.2157 23.247C21.6072 23.8072 22.3752 23.892 23.2032 23.9467C23.3509 23.6287 23.8947 23.6542 24.2494 23.7382C23.8249 23.5702 23.4297 23.1622 23.1019 22.8007C22.7269 22.3867 22.3444 21.942 22.3257 21.4005C23.0359 22.386 23.6232 23.247 24.9147 23.6805C25.8919 24.0082 27.0342 23.5305 27.7849 23.0025C28.0969 22.7835 28.2829 22.4355 28.5049 22.1175C29.3337 20.9175 29.7199 19.2225 29.6359 17.5725C29.6007 16.8922 29.6022 16.215 29.3734 15.7575C29.1349 15.279 28.3279 14.85 27.8554 15.2835C27.7677 14.8185 28.2484 14.5305 28.8124 14.6985C28.4104 14.1795 27.9874 13.5555 27.4159 13.233V13.23ZM29.2707 28.5802C30.0484 28.1932 31.5019 27.5392 31.9902 28.5817C32.1702 28.9657 32.3817 29.6152 32.4747 30.012C32.6067 30.5715 32.3247 31.7475 31.7569 31.9357C31.2492 32.1007 30.6559 32.0917 30.0439 31.9687C29.9719 31.9087 29.8917 31.8037 29.8354 31.6957C29.3982 31.6785 28.9894 31.7182 28.6444 31.8982C28.6774 32.2207 28.4584 32.2732 28.2544 32.3407C28.1022 32.943 28.5582 33.7297 28.4494 34.2787C28.3714 34.6702 27.8899 34.7302 27.5367 34.8037C27.5254 35.0287 27.5517 35.2027 27.5764 35.3865C27.4954 35.6842 27.1324 35.8545 26.7889 35.8965C25.6579 36.0315 23.9404 36.0937 22.8514 35.7015C22.5477 34.9567 22.3084 34.0515 22.0564 33.2002C20.9952 33.3127 20.1364 32.7427 19.3279 32.3677C19.0474 32.238 18.6529 32.1652 18.5554 31.9432C18.4542 31.7272 18.4954 31.3132 18.4707 30.9232C18.4069 29.9257 18.3507 28.962 18.0957 27.9397C17.9772 27.4807 17.7709 27.0772 17.6269 26.6347C17.4942 26.2252 17.2617 25.7197 17.2009 25.3102C17.1109 24.705 17.6809 24.6712 18.0454 24.4087C18.6079 24.0037 19.0504 23.7787 19.6617 23.4127C19.8417 23.304 20.3877 23.0377 20.4492 22.9027C20.5722 22.6522 20.2377 22.299 20.1492 22.1025C20.0067 21.792 19.9339 21.528 19.9137 21.2212C19.4014 21.1402 19.0137 20.8357 18.7789 20.4922C18.3912 19.9237 18.1219 18.8722 18.4579 18.072C18.4842 18.009 18.6079 17.8845 18.6349 17.7885C18.6724 17.598 18.5629 17.3445 18.5562 17.142C18.5209 16.1017 18.7324 15.207 19.4322 14.892C19.7172 13.767 20.7334 13.3845 21.6919 12.8205C22.0504 12.6105 22.4449 12.4755 22.8529 12.3255C24.3154 11.787 26.5609 11.8882 27.7752 12.807C28.2897 13.197 29.1132 14.0182 29.4072 14.6145C30.1849 16.1857 30.1294 18.8122 29.5857 20.724C29.5129 20.9805 29.4057 21.3577 29.2587 21.666C29.1552 21.8812 28.8349 22.311 28.8739 22.5022C28.9137 22.6987 29.6052 23.2237 29.7537 23.367C30.0207 23.6242 30.5277 23.967 30.5689 24.291C30.6139 24.636 30.4167 25.11 30.3169 25.4437L29.2819 28.5787" fill="#231F20"/>
<path fill-rule="evenodd" clip-rule="evenodd" d="M24.0807 20.8725C24.1227 20.8163 24.3552 20.73 24.6807 20.8875C24.6807 20.8875 24.296 20.952 24.3282 21.5925L24.1677 21.5603C24.1677 21.5603 24.0027 20.9783 24.0822 20.8718" fill="#F7E4CD"/>
<path fill-rule="evenodd" clip-rule="evenodd" d="M26.8916 26.3865C26.8916 26.484 26.8128 26.5627 26.7153 26.5627C26.6178 26.5627 26.5391 26.484 26.5391 26.3865C26.5391 26.289 26.6178 26.2102 26.7153 26.2102C26.8128 26.2102 26.8916 26.289 26.8916 26.3865ZM27.0671 27.2115C27.0671 27.309 26.9883 27.3877 26.8908 27.3877C26.7933 27.3877 26.7146 27.309 26.7146 27.2115C26.7146 27.114 26.7933 27.0352 26.8908 27.0352C26.9883 27.0352 27.0671 27.114 27.0671 27.2115Z" fill="#1D1919"/>
</g>
<rect x="0.5" y="0.5" width="47" height="47" rx="3.5" stroke="#2BB1F2"/>
<rect x="99.5" y="0.5" width="47" height="47" rx="3.5" fill="#E2F5FF"/>
<g clip-path="url(#clip3_631_211890)">
<path d="M134.505 21.6091C133.964 21.2341 132.726 21.0935 131.757 21.281C131.645 20.3435 131.127 19.5233 130.226 18.7967L129.708 18.4217L129.348 18.9608C128.898 19.6639 128.672 20.6482 128.74 21.5857C128.762 21.9138 128.875 22.4997 129.213 23.0153C128.898 23.2028 128.245 23.4372 127.389 23.4372H111.108L111.063 23.6247C110.906 24.5621 110.906 27.4917 112.752 29.7416C114.148 31.4525 116.22 32.3196 118.945 32.3196C124.844 32.3196 129.213 29.4838 131.262 24.3512C132.073 24.3746 133.807 24.3512 134.685 22.5934C134.707 22.5466 134.752 22.4528 134.91 22.1013L135 21.9138L134.505 21.6091ZM124.124 15H121.647V17.3437H124.124V15ZM124.124 17.8124H121.647V20.156H124.124V17.8124ZM121.196 17.8124H118.719V20.156H121.196V17.8124ZM118.269 17.8124H115.792V20.156H118.269V17.8124ZM115.342 20.6248H112.865V22.9684H115.342V20.6248ZM118.269 20.6248H115.792V22.9684H118.269V20.6248ZM121.196 20.6248H118.719V22.9684H121.196V20.6248ZM124.124 20.6248H121.647V22.9684H124.124V20.6248ZM127.051 20.6248H124.574V22.9684H127.051V20.6248Z" fill="#2396ED"/>
</g>
<rect x="99.5" y="0.5" width="47" height="47" rx="3.5" stroke="#2BB1F2"/>
<rect x="198.5" y="0.5" width="47" height="47" rx="3.5" fill="#E2F5FF"/>
<path fill-rule="evenodd" clip-rule="evenodd" d="M231.962 25.4365L230.843 21.6972L228.625 14.286C228.511 13.9047 228.014 13.9047 227.9 14.286L225.682 21.6972H218.317L216.099 14.286C215.985 13.9047 215.488 13.9047 215.374 14.286L213.156 21.6972L212.037 25.4365C211.988 25.6028 211.988 25.7819 212.037 25.9481C212.087 26.1144 212.184 26.2593 212.314 26.362L222 34.0022L231.685 26.362C231.816 26.2593 231.913 26.1144 231.962 25.9481C232.012 25.7819 232.012 25.6028 231.962 25.4365Z" fill="#FC6D26"/>
<path fill-rule="evenodd" clip-rule="evenodd" d="M222 34.0022L225.682 21.6972H218.317L222 34.0022H222Z" fill="#E24329"/>
<path fill-rule="evenodd" clip-rule="evenodd" d="M222 34.0022L218.317 21.6972H213.156L222 34.0022Z" fill="#FC6D26"/>
<path fill-rule="evenodd" clip-rule="evenodd" d="M213.156 21.6962L212.037 25.4356C211.988 25.6019 211.988 25.781 212.037 25.9472C212.087 26.1134 212.184 26.2583 212.314 26.361L222 34.0012L213.156 21.6962Z" fill="#FCA326"/>
<path fill-rule="evenodd" clip-rule="evenodd" d="M213.156 21.6973H218.317L216.099 14.2861C215.985 13.9048 215.488 13.9048 215.374 14.2861L213.156 21.6973H213.156Z" fill="#E24329"/>
<path fill-rule="evenodd" clip-rule="evenodd" d="M222 34.0022L225.682 21.6972H230.843L222 34.0022Z" fill="#FC6D26"/>
<path fill-rule="evenodd" clip-rule="evenodd" d="M230.843 21.6972L231.963 25.4366C232.012 25.6029 232.012 25.7819 231.963 25.9482C231.913 26.1144 231.816 26.2593 231.686 26.362L222 34.0022L230.843 21.6972Z" fill="#FCA326"/>
<path fill-rule="evenodd" clip-rule="evenodd" d="M230.844 21.6973H225.683L227.901 14.2861C228.015 13.9048 228.512 13.9048 228.626 14.2861L230.844 21.6973Z" fill="#E24329"/>
<rect x="198.5" y="0.5" width="47" height="47" rx="3.5" stroke="#2BB1F2"/>
<path d="M123 184L123 232" stroke="#0672B6" stroke-linecap="round" stroke-linejoin="round"/>
<path d="M221 232V232C221 218.745 210.255 208 197 208L49 208C35.7452 208 25 218.745 25 232V232" stroke="#0672B6" stroke-linecap="round" stroke-linejoin="round"/>
<circle cx="123" cy="184" r="2" transform="rotate(-90 123 184)" fill="#0672B6" stroke="#0672B6"/>
<path d="M215 227L221 233L227 227" stroke="#0672B6" stroke-linecap="round" stroke-linejoin="round"/>
<path d="M19 227L25 233L31 227" stroke="#0672B6" stroke-linecap="round" stroke-linejoin="round"/>
<circle cx="123" cy="208" r="3" transform="rotate(90 123 208)" fill="white" stroke="#0672B6"/>
<path d="M117 227L123 233L129 227" stroke="#0672B6" stroke-linecap="round" stroke-linejoin="round"/>
<path d="M123 106L123 58" stroke="#0672B6" stroke-linecap="round" stroke-linejoin="round"/>
<path d="M25 58V58C25 71.2548 35.7452 82 49 82L197 82C210.255 82 221 71.2548 221 58V58" stroke="#0672B6" stroke-linecap="round" stroke-linejoin="round"/>
<path d="M117 101L123 107L129 101" stroke="#0672B6" stroke-linecap="round" stroke-linejoin="round"/>
<path d="M31 63L25 57L19 63" stroke="#0672B6" stroke-linecap="round" stroke-linejoin="round"/>
<path d="M227 63L221 57L215 63" stroke="#0672B6" stroke-linecap="round" stroke-linejoin="round"/>
<circle cx="123" cy="82" r="3" transform="rotate(-90 123 82)" fill="white" stroke="#0672B6"/>
<path d="M129 63L123 57L117 63" stroke="#0672B6" stroke-linecap="round" stroke-linejoin="round"/>
<defs>
<filter id="filter0_dd_631_211890" x="35" y="231.5" width="20" height="20" filterUnits="userSpaceOnUse" color-interpolation-filters="sRGB">
<feFlood flood-opacity="0" result="BackgroundImageFix"/>
<feColorMatrix in="SourceAlpha" type="matrix" values="0 0 0 0 0 0 0 0 0 0 0 0 0 0 0 0 0 0 127 0" result="hardAlpha"/>
<feOffset dy="0.5"/>
<feGaussianBlur stdDeviation="1"/>
<feColorMatrix type="matrix" values="0 0 0 0 0.376471 0 0 0 0 0.380392 0 0 0 0 0.439216 0 0 0 0.16 0"/>
<feBlend mode="normal" in2="BackgroundImageFix" result="effect1_dropShadow_631_211890"/>
<feColorMatrix in="SourceAlpha" type="matrix" values="0 0 0 0 0 0 0 0 0 0 0 0 0 0 0 0 0 0 127 0" result="hardAlpha"/>
<feOffset/>
<feGaussianBlur stdDeviation="0.5"/>
<feColorMatrix type="matrix" values="0 0 0 0 0.156863 0 0 0 0 0.160784 0 0 0 0 0.239216 0 0 0 0.08 0"/>
<feBlend mode="normal" in2="effect1_dropShadow_631_211890" result="effect2_dropShadow_631_211890"/>
<feBlend mode="normal" in="SourceGraphic" in2="effect2_dropShadow_631_211890" result="shape"/>
</filter>
<filter id="filter1_dd_631_211890" x="135" y="231.5" width="20" height="20" filterUnits="userSpaceOnUse" color-interpolation-filters="sRGB">
<feFlood flood-opacity="0" result="BackgroundImageFix"/>
<feColorMatrix in="SourceAlpha" type="matrix" values="0 0 0 0 0 0 0 0 0 0 0 0 0 0 0 0 0 0 127 0" result="hardAlpha"/>
<feOffset dy="0.5"/>
<feGaussianBlur stdDeviation="1"/>
<feColorMatrix type="matrix" values="0 0 0 0 0.376471 0 0 0 0 0.380392 0 0 0 0 0.439216 0 0 0 0.16 0"/>
<feBlend mode="normal" in2="BackgroundImageFix" result="effect1_dropShadow_631_211890"/>
<feColorMatrix in="SourceAlpha" type="matrix" values="0 0 0 0 0 0 0 0 0 0 0 0 0 0 0 0 0 0 127 0" result="hardAlpha"/>
<feOffset/>
<feGaussianBlur stdDeviation="0.5"/>
<feColorMatrix type="matrix" values="0 0 0 0 0.156863 0 0 0 0 0.160784 0 0 0 0 0.239216 0 0 0 0.08 0"/>
<feBlend mode="normal" in2="effect1_dropShadow_631_211890" result="effect2_dropShadow_631_211890"/>
<feBlend mode="normal" in="SourceGraphic" in2="effect2_dropShadow_631_211890" result="shape"/>
</filter>
<filter id="filter2_dd_631_211890" x="235" y="231.5" width="20" height="20" filterUnits="userSpaceOnUse" color-interpolation-filters="sRGB">
<feFlood flood-opacity="0" result="BackgroundImageFix"/>
<feColorMatrix in="SourceAlpha" type="matrix" values="0 0 0 0 0 0 0 0 0 0 0 0 0 0 0 0 0 0 127 0" result="hardAlpha"/>
<feOffset dy="0.5"/>
<feGaussianBlur stdDeviation="1"/>
<feColorMatrix type="matrix" values="0 0 0 0 0.376471 0 0 0 0 0.380392 0 0 0 0 0.439216 0 0 0 0.16 0"/>
<feBlend mode="normal" in2="BackgroundImageFix" result="effect1_dropShadow_631_211890"/>
<feColorMatrix in="SourceAlpha" type="matrix" values="0 0 0 0 0 0 0 0 0 0 0 0 0 0 0 0 0 0 127 0" result="hardAlpha"/>
<feOffset/>
<feGaussianBlur stdDeviation="0.5"/>
<feColorMatrix type="matrix" values="0 0 0 0 0.156863 0 0 0 0 0.160784 0 0 0 0 0.239216 0 0 0 0.08 0"/>
<feBlend mode="normal" in2="effect1_dropShadow_631_211890" result="effect2_dropShadow_631_211890"/>
<feBlend mode="normal" in="SourceGraphic" in2="effect2_dropShadow_631_211890" result="shape"/>
</filter>
<linearGradient id="paint0_linear_631_211890" x1="111.052" y1="126.602" x2="134.948" y2="163.398" gradientUnits="userSpaceOnUse">
<stop stop-color="#73DFE7"/>
<stop offset="1" stop-color="#0095F7"/>
</linearGradient>
<linearGradient id="paint1_linear_631_211890" x1="219.773" y1="252.008" x2="213.792" y2="254.479" gradientUnits="userSpaceOnUse">
<stop offset="0.18" stop-color="#0052CC"/>
<stop offset="1" stop-color="#2684FF"/>
</linearGradient>
<linearGradient id="paint2_linear_631_211890" x1="224.267" y1="273.942" x2="230.237" y2="271.475" gradientUnits="userSpaceOnUse">
<stop offset="0.18" stop-color="#0052CC"/>
<stop offset="1" stop-color="#2684FF"/>
</linearGradient>
<clipPath id="clip0_631_211890">
<rect width="23.1429" height="24" fill="white" transform="translate(111 251)"/>
</clipPath>
<clipPath id="clip1_631_211890">
<rect width="13" height="13" fill="white" transform="translate(138.5 234.5)"/>
</clipPath>
<clipPath id="clip2_631_211890">
<rect width="24" height="24" fill="white" transform="translate(12 12)"/>
</clipPath>
<clipPath id="clip3_631_211890">
<rect width="24" height="17.3438" fill="white" transform="translate(111 15)"/>
</clipPath>
</defs>
</svg>
