<svg width="22" height="16" viewBox="0 0 22 16" fill="none" xmlns="http://www.w3.org/2000/svg">
<path d="M16.6844 15.1061L16.6687 15.1061L10.7257 15.1061L4.78266 15.1061C2.62452 15.106 0.875031 13.3565 0.875031 11.1983C0.875031 9.30502 2.22145 7.72619 4.00902 7.36712C4.04553 7.35979 4.07212 7.32773 4.07212 7.29048C4.07212 3.75886 6.93507 0.895905 10.4667 0.895905C13.5387 0.895905 16.1048 3.06222 16.7207 5.95056C16.7545 6.10936 16.891 6.22657 17.0529 6.23986C19.333 6.42716 21.125 8.33704 21.125 10.6655C21.125 13.0587 19.2318 15.0098 16.8613 15.1027V15.1061H16.7L16.6844 15.1061Z" stroke="#00ADE4"/>
</svg>
