<svg xmlns="http://www.w3.org/2000/svg" xmlns:xlink="http://www.w3.org/1999/xlink" viewBox="0 0 320 200" xmlns:v="https://vecta.io/nano"><style><![CDATA[.B{fill:#fff}.C{fill-opacity:.2}.D{fill-rule:evenodd}]]></style><path d="M289.136 38.594c-2.218-.697-6.5 2-9 5.5-3.5 3-3.767 5.897-3.5 6.5 1.718 3.875 3 10.5 9.414 12.568 1.488.48 10.993-5.525 12.086-9.568.938-3.468-2.137-7.99-3-9.5-2-3.5-3.227-4.628-6-5.5z" fill="url(#A)" class="C"/><path d="M187.686 47.516c-4.549-.922-7.549 3.078-10.049 6.578-3.5 3-2.718 4.819-2.451 5.422 1.717 3.875 3.951 10.733 9.951 11.578 3.549.5 10-5 12-9 1.607-3.214-2.588-7.568-3.451-9.078-2-3.5-3.151-4.923-6-5.5z" fill="url(#B)" class="C"/><g class="D"><path d="M182.137 48.594c.925-.924 3.735-.265 5 1 2 2 7.5 9 7.5 10.5s-.732 3.232-2.5 5c-2 2-6.5 5-7.5 5.5s-2 .5-5-3.5-5.5-8-5-9c.4-.8 4.5-6.5 7.5-9.5zm100 12.5c-.4-.4-2.833-4.5-4-6.5-.166-.333-.344-.644-.522-.956-.356-.622-.711-1.244-.978-2.044-.666-2-1-4 5-9 5.005-4.171 6.531-2.775 7.48-1.907.189.173.354.324.52.407 1 .5 5.5 9.5 6 11 .4 1.2-.666 3.333-1 4-2.833 2-8.2 5.6-9 6-1 .5-3-.5-3.5-1zm1.043-15.616c.775-.734 2.708-2.11 3.5-2s1.894 2.222 2.252 3.281l-3.752 2.719-2-4zm7.5 4.31l-3.879 2.49 2.131 4.141c.221-.167.461-.332.706-.5 1.004-.688 2.086-1.429 2.251-2.623.055-.396-.663-2.591-1.209-3.508zm-9 6.19l2.5-2 2 4c-.422.614-1.783 1.355-2.5 1-1.244-.616-1.57-1.646-1.873-2.605h0l-.127-.394zm-.5-8.5l2 4-3 2c-.427-.564-1-2-1-2.5 0-1.581 1.101-2.783 2-3.5zm-97.737 10.116l-2.5-3.5c.666-.833 2.2-2.5 3-2.5s2 2 2.5 3l-3 3zm5.5-.5l-3.5 3 3 3.5a18.28 18.28 0 0 1 .631-.592c.9-.819 1.869-1.702 1.869-2.908 0-.4-1.334-2.167-2-3zm-5.5 5l2.5 3.5c-.334.667-2.241 2.253-3 2-1.294-.431-1.844-1.607-2.291-2.563h-.001 0 0 0l-.208-.436 3-2.5zm-4.5-6l2.5 3.5-2.5 2.5c-.5-.5-.961-1.192-1.5-1.999h0 0v-.001c-.955-1.433.56-3.017 1.388-3.883h0l.001-.001.111-.116z" fill="#00ace4"/><g fill="#d9dae5"><path d="M295.426 53.179a.5.5 0 0 1 .288-.646l2.608-1a.5.5 0 0 1 .358.934l-2.608 1a.5.5 0 0 1-.646-.288zm-.879-2.469a.5.5 0 0 1 .22-.652c.522-.275.94-.409 1.324-.532l1.224-.489a.5.5 0 0 1 .419.907c-.512.269-.924.403-1.304.524l-1.244.497a.5.5 0 0 1-.639-.255zm-.989-2.476a.5.5 0 0 1 .209-.675l.947-.501.946-.5a.5.5 0 1 1 .467.884l-.943.498h-.002l-.948.501a.5.5 0 0 1-.676-.209z"/><use xlink:href="#F"/><path d="M288.5 60.5a.5.5 0 0 1 .5-.5h2a.5.5 0 1 1 0 1h-2a.5.5 0 0 1-.5-.5zm3.501-2a.5.5 0 0 1 .5-.5h2a.5.5 0 1 1 0 1h-2a.5.5 0 0 1-.5-.5zm2.021-1.855a.5.5 0 0 1 .321-.619l1.661-.554 1.359-.453a.5.5 0 0 1 .296.955l-1.325.441-.12.044-.048.018-1.534.505a.5.5 0 0 1-.61-.338z"/><path d="M289.359 42.249c-1.607-2.084-3.782-1.809-4.689-1.11-1.736 1.339-5.669 5.258-6.84 6.602-1.202 1.38-.839 2.942-.481 3.97l-.469.163.469-.163c.418 1.2 1.232 2.971 2.036 4.567l1.886 3.371.384.523.276.379c.222.296.445.566.692.792a2.24 2.24 0 0 0 1.905.611c.428-.05 1.044-.264 1.799-.619.745-.35 1.584-.819 2.446-1.346 1.725-1.054 3.514-2.323 4.77-3.291 1.274-.982 1.615-2.044 1.625-2.967.01-.857-.261-1.615-.458-2.165l-.069-.194c-.068-.195-.318-.718-.705-1.465l-1.413-2.599-3.164-5.057zm-5.3-1.902c1.333-1.028 4.138-1.242 6.092 1.291.888 1.151 2.161 3.26 3.243 5.177l1.429 2.63.762 1.597.064.179c.195.541.531 1.471.519 2.521-.014 1.217-.488 2.571-2.014 3.747-1.28.987-3.098 2.277-4.859 3.353l-2.542 1.398c-.777.366-1.514.638-2.109.708-1.191.139-2.042-.271-2.694-.865-.317-.288-.584-.617-.819-.931l-.309-.424-.343-.466c-.38-.493-1.186-1.942-1.987-3.532l-2.087-4.688.472-.164-.472.164c-.378-1.084-.913-3.137.671-4.956 1.197-1.375 5.178-5.345 6.983-6.737z"/><path d="M289.183 39.73a7.21 7.21 0 0 0-3.46.717c-.931.466-1.998 1.334-2.997 2.281-.992.94-1.886 1.927-2.473 2.6l-.754-.657 2.539-2.669c1.016-.963 2.17-1.915 3.238-2.45a8.21 8.21 0 0 1 3.96-.821c1.441.078 2.911.605 3.914 1.906.889 1.151 2.161 3.26 3.243 5.177l1.43 2.63.761 1.596c.199.57.514 1.8.408 3.186-.107 1.398-.647 2.981-2.187 4.169l-5.22 3.669-2.791 1.618c-.839.423-1.63.743-2.236.814-1.13.132-2.254-.111-3.204-.529s-1.757-1.022-2.25-1.662l.792-.611c.37.48 1.034.993 1.861 1.358s1.767.559 2.685.451c.417-.049 1.071-.295 1.902-.714.815-.411 1.748-.96 2.705-1.568l5.145-3.617c1.26-.971 1.71-2.258 1.801-3.453a7.28 7.28 0 0 0-.355-2.781c-.068-.195-.317-.718-.705-1.465l-1.413-2.599-3.163-5.057c-.777-1.007-1.935-1.452-3.176-1.518zm-3.645 3.47c.32-.131.694-.242 1.031-.196.374.052.692.313.928.56.254.264.498.604.717.956a11.14 11.14 0 0 1 1.012 2.101l.118.349-4.527 3.281-2.43-4.859.269-.255c.415-.393 1.12-.94 1.824-1.378.353-.219.719-.419 1.058-.559zm-1.919 2.418l1.565 3.131 2.967-2.15a10.64 10.64 0 0 0-.786-1.551c-.2-.322-.403-.597-.59-.793a1.47 1.47 0 0 0-.24-.21c-.033-.021-.058-.035-.077-.042l-.027-.009c-.059-.008-.223.011-.513.13-.27.111-.584.28-.91.483a12.19 12.19 0 0 0-1.389 1.01zm-2.448 1.106l2.474 4.947-3.759 2.506-.285-.376c-.254-.336-.523-.885-.725-1.39l-.261-.753c-.062-.222-.115-.461-.115-.658 0-1.819 1.259-3.15 2.189-3.891l.482-.385zm-.329 1.577c-.707.677-1.342 1.597-1.342 2.699 0 .053.02.181.078.386.054.193.133.42.227.654.109.274.231.538.348.757l2.203-1.469-1.514-3.028zm9.823.809l.265.444c.3.505.63 1.323.874 2.045l.302 1.012.084.403a1.33 1.33 0 0 1 .015.372c-.128.92-.693 1.589-1.304 2.11-.307.262-.64.498-.956.716l-.209.144-.682.482-.474.358-2.612-5.073 4.697-3.015zm-3.392 3.365l1.658 3.221.251-.172.195-.134.875-.654c.531-.452.879-.915.961-1.475-.001-.003-.001-.031-.011-.094l-.067-.316-.278-.932-.548-1.393-3.036 1.949zm-3.102.748l2.408 4.817-.167.243c-.279.407-.812.796-1.346 1.036a3.07 3.07 0 0 1-.871.257c-.293.036-.62.019-.917-.128-1.447-.717-1.835-1.961-2.133-2.917l-.118-.371-.112-.332 3.256-2.605zm-2.088 2.951l.026.082c.308.96.57 1.78 1.613 2.296.062.031.174.054.351.032a2.06 2.06 0 0 0 .582-.176c.301-.136.566-.317.748-.485l-1.573-3.146-1.747 1.397zm-89.646 8.896a.5.5 0 0 1 .251-.661l4-1.801a.5.5 0 1 1 .411.912l-4 1.8a.5.5 0 0 1-.662-.251zm1.621-3.57a.5.5 0 0 1 .21-.675l2.892-1.524a.5.5 0 1 1 .466.885l-2.892 1.524a.5.5 0 0 1-.676-.209zm-.93-3.004a.5.5 0 0 1 .209-.675l2.323-1.224a.5.5 0 1 1 .466.885l-2.323 1.224a.5.5 0 0 1-.675-.209z"/><use xlink:href="#F" x="-101" y="9.958"/><path d="M185.553 49.224a.5.5 0 0 1 .224-.671l2-1a.5.5 0 1 1 .447.894l-2 1a.5.5 0 0 1-.671-.224zm1.144 20.534a.5.5 0 0 1 .425-.566l3.031-.433a.5.5 0 1 1 .142.99l-3.032.433a.5.5 0 0 1-.566-.424zm3.043-2.209a.5.5 0 0 1 .353-.606l1.337-.32 1.954-.468a.5.5 0 0 1 .254.967l-1.676.409-.103.022-.206.045-1.312.314a.5.5 0 0 1-.601-.362z"/><path d="M186.647 50.354c-1.861-1.861-3.983-1.31-4.793-.5-1.55 1.55-4.948 5.94-5.937 7.424-1.016 1.523-.456 3.026.031 3.999l-.444.222.444-.222c.568 1.136 1.603 2.789 2.604 4.268l2.302 3.102.449.469.322.341a5.6 5.6 0 0 0 .787.697 2.24 2.24 0 0 0 1.967.362c.419-.105 1.002-.395 1.706-.844.693-.443 1.466-1.016 2.254-1.649 1.575-1.266 3.187-2.754 4.308-3.875 1.138-1.137 1.34-2.234 1.232-3.15-.1-.851-.466-1.568-.732-2.088l-.094-.184c-.092-.185-.406-.672-.886-1.363l-1.734-2.397-3.786-4.611zm-5.5-1.207c1.19-1.19 3.945-1.762 6.207.5 1.029 1.028 2.561 2.956 3.879 4.719l1.755 2.425.96 1.486.086.169c.264.512.716 1.391.838 2.433.142 1.208-.155 2.612-1.518 3.975-1.142 1.142-2.781 2.655-4.389 3.948l-2.342 1.712c-.724.462-1.419.826-2.001.972-1.164.291-2.06-.007-2.783-.513-.351-.245-.658-.537-.931-.819l-.361-.381-.4-.418c-.44-.44-1.425-1.774-2.423-3.248l-2.671-4.382.448-.224-.448.224c-.513-1.026-1.306-2.994.032-5.001 1.011-1.517 4.45-5.964 6.062-7.576z"/><path d="M189.8 49.752c-1.869-1.869-3.837-1.534-5.201-1.262-1.184.237-1.857.583-2.411 1.025-.285.228-.547.489-.84.798l-.257.273-.736.768-.708-.707.703-.732.273-.29c.301-.316.601-.618.941-.89.696-.557 1.523-.962 2.839-1.225 1.409-.282 3.85-.719 6.104 1.535 1.028 1.028 2.561 2.956 3.879 4.719l1.755 2.425.96 1.486.086.169c.263.512.715 1.391.838 2.433.142 1.208-.155 2.612-1.518 3.974l-4.449 4.235-2.392 1.92c-.735.517-1.448.93-2.044 1.078-2.029.507-3.679.545-4.845-.038l.448-.895c.834.417 2.184.455 4.155-.038.404-.101.989-.418 1.711-.926.707-.498 1.499-1.145 2.308-1.854l4.401-4.19c1.137-1.137 1.34-2.234 1.232-3.151-.1-.851-.466-1.568-.732-2.088l-.094-.184c-.092-.185-.406-.672-.886-1.363l-1.734-2.397-3.786-4.61zm-6.78 2.1c.284-.18.631-.351.98-.351.391 0 .734.231.987.451.271.237.536.55.778.876.484.655.924 1.432 1.182 1.949l.162.322-3.673 3.672-3.062-4.288.236-.295c.344-.431.912-1.076 1.502-1.618.294-.271.606-.527.908-.718zm-1.39 2.671l1.934 2.707 2.324-2.324a12.93 12.93 0 0 0-.927-1.483c-.221-.299-.437-.548-.632-.718a1.25 1.25 0 0 0-.24-.172c-.062-.031-.089-.033-.089-.033-.051 0-.195.037-.444.196-.232.147-.495.36-.767.61-.425.39-.842.844-1.159 1.216zm-2.575 1.194l3.098 4.338L179 63.207l-.353-.353c-.535-.535-1.02-1.262-1.541-2.043l-.022-.033c-.651-.977-.384-1.991.059-2.774.398-.703.993-1.324 1.383-1.731l.112-.117.417-.439zm-1.042 2.78c-.358.634-.445 1.204-.097 1.726l1.102 1.552 1.829-1.829-1.901-2.662c-.329.355-.681.768-.933 1.212zm11.055-1.713l.323.404 1.269 1.688.555.854.186.364c.042.096.099.248.099.406 0 .929-.468 1.67-1.001 2.27a11.76 11.76 0 0 1-.848.841l-.188.171-.609.571-.382.382-3.677-4.29 4.273-3.662zm-2.863 3.77l2.332 2.72.263-.241.175-.16.777-.768c.457-.515.737-1.015.748-1.572a.91.91 0 0 0-.018-.046 2.57 2.57 0 0 0-.134-.258c-.124-.217-.303-.487-.508-.78l-.91-1.23-2.725 2.335zm-2.611 1.217l2.988 4.183-.135.269c-.12.241-.349.511-.595.758a7.79 7.79 0 0 1-.897.766c-.325.237-.679.456-1.017.6-.311.132-.722.251-1.096.126-.889-.296-1.469-.889-1.883-1.509-.294-.442-.527-.939-.719-1.349l-.187-.392-.177-.354 3.718-3.098zm-2.474 3.363l.058.124c.182.39.364.778.613 1.152.336.504.756.912 1.367 1.115-.001 0 .027.006.095-.005.074-.012.172-.041.294-.093a4.35 4.35 0 0 0 .818-.487c.289-.211.56-.445.778-.665l.248-.27-1.985-2.778-2.286 1.905z"/></g></g><path d="M235.257 1.87c-3.738-.719-6.216 2.462-8.281 5.245-2.887 2.389-2.249 3.83-2.031 4.308 1.402 3.07 3.221 8.503 8.153 9.158 2.917.387 8.237-3.993 9.892-7.172 1.33-2.554-2.108-5.997-2.813-7.192-1.636-2.771-2.579-3.897-4.92-4.347z" fill="url(#C)" class="C"/><g class="D"><path d="M230.879 2.405c.751-.759 3.032-.218 4.058.821 1.624 1.643 6.088 7.392 6.088 8.624s-.595 2.655-2.029 4.106c-1.624 1.643-5.276 4.107-6.088 4.517s-1.623.411-4.058-2.875-4.464-6.57-4.058-7.392c.325-.657 3.653-5.338 6.087-7.802zm-1.195 4.588l2.035 2.908 2.617-2.908c-.29-.679-1.105-2.036-2.035-2.036s-2.133 1.357-2.617 2.036zm-1.454 1.745l2.035 2.617-2.035 2.036c-.582-.679-1.687-2.152-1.454-2.617s1.066-1.551 1.454-2.036zm5.525 7.561l-2.036-2.908-2.035 2.326c.387.582 1.337 1.803 2.035 2.036s1.648-.872 2.036-1.454zm-.291-4.653l2.617 2.908c.873-.678 2.501-2.21 2.036-2.908s-1.551-1.842-2.036-2.326l-2.617 2.326z" fill="#00ace4"/><g fill="#d9dae5"><path d="M235.544 18.506a.5.5 0 0 1 .251-.661l4-1.801a.5.5 0 0 1 .661.251.5.5 0 0 1-.251.661l-4 1.801a.5.5 0 0 1-.661-.251zm4.337-3.749a.5.5 0 0 1 .209-.675l2.893-1.524a.5.5 0 0 1 .466.885l-2.893 1.524a.5.5 0 0 1-.675-.209zm.569-3.024a.5.5 0 0 1 .209-.675l2.324-1.224a.5.5 0 0 1 .466.885l-2.324 1.224a.5.5 0 0 1-.675-.209z"/><use xlink:href="#F" x="-53.001" y="-36.001"/><path d="M233.552 3.266a.5.5 0 0 1 .224-.671l2-1a.5.5 0 1 1 .447.894l-2 1a.5.5 0 0 1-.671-.224z"/><path d="M234.448 3.573c-1.475-1.476-3.141-1.029-3.764-.407-1.255 1.254-4.014 4.819-4.816 6.022-.795 1.193-.362 2.371.031 3.158.459.918 1.298 2.258 2.111 3.46l1.861 2.508.369.387.258.272a4.47 4.47 0 0 0 .627.555c.411.287.874.443 1.523.28.325-.081.789-.31 1.359-.675.56-.358 1.185-.821 1.824-1.335a46.23 46.23 0 0 0 3.496-3.144c.903-.904 1.059-1.766.975-2.484-.08-.674-.37-1.242-.586-1.666l-.077-.151c-.071-.143-.322-.533-.713-1.096l-1.409-1.946-3.069-3.738zm-4.471-1.114c1.003-1.003 3.302-1.47 5.178.407.842.841 2.091 2.414 3.163 3.847l1.429 1.975.787 1.22.069.136c.214.415.59 1.145.692 2.011.118 1.009-.132 2.179-1.261 3.308-.931.931-2.266 2.163-3.576 3.216l-1.913 1.398c-.59.377-1.166.68-1.654.802a2.72 2.72 0 0 1-2.339-.431c-.293-.205-.547-.447-.771-.677l-.297-.313-.32-.336c-.366-.365-1.172-1.458-1.982-2.655l-2.177-3.573c-.42-.84-1.087-2.483.031-4.16.824-1.236 3.624-4.858 4.941-6.174z"/><path d="M237.011 3.084c-1.483-1.483-3.039-1.221-4.144-1-.95.19-1.483.466-1.92.815a6.92 6.92 0 0 0-.674.64l-.207.22-.602.628-.707-.707.568-.592.223-.237c.245-.258.493-.507.774-.732.58-.464 1.267-.798 2.349-1.015 1.15-.23 3.179-.595 5.047 1.274.842.841 2.091 2.414 3.163 3.847L242.31 8.2l.787 1.22.069.136c.214.415.59 1.145.692 2.011.118 1.009-.132 2.179-1.261 3.308l-3.622 3.447-1.953 1.567c-.598.421-1.19.765-1.693.891-1.655.414-3.024.452-4.003-.038l.447-.894c.647.324 1.717.361 3.314-.038.311-.078.775-.327 1.36-.739.571-.402 1.212-.926 1.868-1.501l3.575-3.402c.903-.904 1.059-1.766.974-2.485-.079-.674-.369-1.242-.585-1.666l-.077-.151c-.071-.143-.322-.533-.714-1.096l-1.408-1.946-3.069-3.738zm-5.496 1.562c.235-.149.536-.3.848-.3.353 0 .654.208.863.39a4.63 4.63 0 0 1 .646.727c.399.538.759 1.175.971 1.598l.161.322-3.112 3.111-2.595-3.634.236-.295c.282-.353.747-.881 1.231-1.326.242-.222.5-.434.751-.594zm-.961 2.255l1.466 2.052 1.762-1.762c-.192-.352-.446-.773-.713-1.133-.178-.24-.349-.437-.5-.569-.137-.119-.205-.139-.212-.143-.011.002-.036.007-.08.024-.06.023-.135.062-.226.12a4.57 4.57 0 0 0-.61.486c-.321.295-.638.636-.887.925zm-2.202.819l2.631 3.683-2.686 2.686-.353-.354c-.442-.442-.84-1.039-1.261-1.671l-.021-.032c-.558-.837-.324-1.702.044-2.353.33-.582.822-1.096 1.138-1.426l.091-.095.417-.439zm-.775 2.453c-.284.501-.338.923-.083 1.306l.825 1.174 1.358-1.357-1.433-2.006c-.241.266-.487.565-.667.883zm8.918-1.572l.323.404 1.036 1.378.455.701.157.306c.034.08.088.218.088.367 0 .789-.398 1.413-.838 1.907a9.84 9.84 0 0 1-.696.691l-.154.141-.491.461-.382.382-3.116-3.635 3.618-3.101zm-2.208 3.21l1.772 2.067.144-.131.141-.129.625-.618c.361-.406.571-.787.584-1.201a1.89 1.89 0 0 0-.11-.216c-.1-.172-.243-.39-.409-.627l-.677-.919-2.07 1.774zm3.274.01zm-5.511.833l2.521 3.529-.135.269c-.105.21-.3.438-.502.641-.212.213-.47.436-.74.633s-.562.378-.845.498c-.257.109-.619.218-.957.105-.749-.25-1.236-.748-1.58-1.264-.244-.366-.437-.78-.594-1.115l-.148-.311-.177-.354 3.157-2.631zm-1.914 2.896l.02.041c.147.314.29.62.488.918.266.399.593.713 1.064.87-.007-.005.067.001.249-.077.19-.08.416-.216.647-.385s.448-.356.622-.531l.149-.158-1.513-2.117-1.726 1.439z"/></g><g class="B"><path d="M169.5 72.5a.5.5 0 0 1 .5.5v4.25a.5.5 0 1 1-1 0V73a.5.5 0 0 1 .5-.5zm2.378 2.316a.5.5 0 0 1 .556.436 32.21 32.21 0 0 1 .254 3.873.5.5 0 1 1-1 0 31.32 31.32 0 0 0-.247-3.752.5.5 0 0 1 .437-.556zm7.687-.003a.5.5 0 0 1 .497.503l-.041 1.341-.029.738c-.022.684-.019 1.342.066 1.977a.5.5 0 0 1-.43.562.5.5 0 0 1-.561-.43c-.096-.716-.097-1.44-.075-2.14l.031-.782.039-1.272a.5.5 0 0 1 .503-.497zm3.562-1.434a.5.5 0 0 1 .431.56 11.88 11.88 0 0 0 0 3.18.5.5 0 1 1-.991.135 12.86 12.86 0 0 1 0-3.445.5.5 0 0 1 .56-.431z"/><path d="M169.176 73.37a.5.5 0 0 1 .705.056c.619.727 1.412 1.318 2.28 1.752a.5.5 0 1 1-.447.895c-.972-.486-1.877-1.156-2.595-1.998a.5.5 0 0 1 .057-.705zm.093 2.976a.5.5 0 0 1 .698.111c.561.772 1.267 1.273 2.069 1.841l.764.552a.5.5 0 1 1-.6.8l-.664-.479c-.828-.585-1.711-1.209-2.378-2.128a.5.5 0 0 1 .111-.698z"/><path d="M177.033 79.531l-.537.031-4.996.126a.5.5 0 1 1 0-1l4.942-.124.522-.03c1.207-.073 2.498-.15 3.759.102a.5.5 0 0 1-.196.981c-1.124-.225-2.275-.157-3.494-.084z"/><path d="M184.304 76.68a.5.5 0 0 1-.172.686c-1.465.88-3.038 1.578-4.562 2.254l-.055.024a.5.5 0 0 1-.659-.254.5.5 0 0 1 .254-.66l.028-.013 4.48-2.209a.5.5 0 0 1 .686.172zm-.172-3.035a.5.5 0 0 1-.214.674l-4.593 2.139a.5.5 0 1 1-.4-.917l4.532-2.111a.5.5 0 0 1 .675.214z"/><path d="M170.75 75.685a.5.5 0 0 1 .502-.498l5.13.174 3.258.138a.5.5 0 1 1-.03.999l-3.317-.141-5.045-.171a.5.5 0 0 1-.498-.502zm3.01-4.033a.5.5 0 0 1-.224.671l-4.039 2.112a.5.5 0 0 1-.681-.187.5.5 0 0 1 .187-.682l4.086-2.138a.5.5 0 0 1 .671.224z"/><path d="M171.752 72.015a.5.5 0 0 1 .546-.45c2.851.275 5.661.488 8.483.311a.5.5 0 1 1 .063.998c-2.907.182-5.785-.038-8.642-.314a.5.5 0 0 1-.45-.546z"/><path d="M179.986 71.559a.5.5 0 0 1 .705.053c.147.17.333.326.553.491l.261.19.435.321c.389.304.769.539 1.21.747a.5.5 0 0 1 .24.665.5.5 0 0 1-.665.239c-.512-.241-.955-.516-1.401-.864l-.368-.272-.311-.226a4.39 4.39 0 0 1-.711-.639.5.5 0 0 1 .052-.705zm11.389 5.941a.5.5 0 0 1 .5.5v3.25a.5.5 0 1 1-1 0V78a.5.5 0 0 1 .5-.5zm2.813 1.688a.5.5 0 0 1 .5.5v3.438a.5.5 0 1 1-1 0v-3.437a.5.5 0 0 1 .5-.5zm7.5 0a.5.5 0 0 1 .5.5l.002.773-.006 1.826-.029.506-.017.253a1.98 1.98 0 0 0 .035.583.5.5 0 0 1-.364.606.5.5 0 0 1-.606-.364c-.077-.306-.077-.612-.063-.877l.022-.333.022-.392.006-1.794-.002-.788a.5.5 0 0 1 .5-.5zm3.624-1.625a.5.5 0 0 1 .5.5v3.5a.5.5 0 1 1-1 0v-3.5a.5.5 0 0 1 .5-.5z"/><path d="M190.732 80.941a.5.5 0 0 1 .702-.084l.79.647.008.006.768.63c.519.411 1.036.772 1.588 1.032a.5.5 0 1 1-.426.905c-.652-.307-1.239-.723-1.783-1.152l-.784-.643-.012-.01-.767-.628a.5.5 0 0 1-.084-.702zm-.055-3.163a.5.5 0 0 1 .67-.226c.628.311 1.214.677 1.777 1.037l.233.149 1.448.887a.5.5 0 0 1 .195.68.5.5 0 0 1-.68.194l-1.506-.921-.228-.146-1.683-.984a.5.5 0 0 1-.226-.67zm15.762-.017a.5.5 0 0 1-.2.678c-1.845 1.003-2.931 1.522-4.964 2.163a.5.5 0 1 1-.3-.954c1.953-.616 2.978-1.105 4.786-2.087a.5.5 0 0 1 .678.201zm-.191 3.182a.5.5 0 0 1-.19.681l-2.242 1.304-.146.086-2.11 1.234a.5.5 0 1 1-.495-.869l2.097-1.226.144-.085 2.261-1.315a.5.5 0 0 1 .681.191z"/><path d="M193.313 83.369a.5.5 0 0 1 .506-.493l5.653.238 2.552.137a.5.5 0 1 1-.048.999l-2.587-.139-5.583-.235a.5.5 0 0 1-.493-.506zm10.058-3.618a.5.5 0 0 1-.434.558c-1.617.202-3.241.27-4.851.302l-2.811.014h-.13c-.443-.001-.958-.003-1.465-.142a.5.5 0 0 1 .266-.964c.371.102.754.104 1.221.106h.114l2.786-.014 4.746-.295a.5.5 0 0 1 .558.434zm-7.19-4.068a.5.5 0 0 1-.177.685l-.65.386-3.641 2.01a.5.5 0 0 1-.426-.905c1.219-.574 2.369-1.259 3.546-1.96l.663-.394a.5.5 0 0 1 .685.176z"/><path d="M202.812 76.563l-2.987.124-5.23.126c-.115 0-.23 0-.345 0a.5.5 0 1 1 0-1h.337l5.165-.124 3.06-.126a.5.5 0 1 1 0 1z"/><path d="M201.24 75.902a.5.5 0 0 1 .671-.224c.651.325 1.227.748 1.763 1.141l.11.081c.579.425 1.121.81 1.732 1.081a.5.5 0 0 1-.406.914c-.721-.32-1.342-.767-1.917-1.188l-.094-.069c-.552-.404-1.063-.779-1.635-1.065a.5.5 0 0 1-.224-.671zm-.344-6.526a.5.5 0 0 1 .479.52l-.015 3.243.015 1.674a.5.5 0 1 1-1 0l-.015-1.622.016-3.337a.5.5 0 0 1 .52-.479zm7.617-.813a.5.5 0 0 1 .487.513l-.125 2.096-.004.055-.121 2.097a.5.5 0 1 1-1-.021l.124-2.152.003-.045.123-2.056a.5.5 0 0 1 .513-.487zm-14.807-1a.5.5 0 0 1 .481.518l-.009.237-.116 4.682a.5.5 0 1 1-1 0l.117-4.714.009-.242a.5.5 0 0 1 .518-.481z"/><path d="M192.712 72.409a.5.5 0 0 1 .629-.322l2.432.828 5.763 1.72a.5.5 0 0 1-.196.981c-2.031-.406-4.023-1.102-5.967-1.78l-2.339-.797a.5.5 0 0 1-.322-.629z"/><path d="M209.164 72.599a.5.5 0 0 1-.325.628l-.252.08-4.788 1.388-.689.181-.009.003-.755.197c-.514.121-1.073.215-1.633.173a.5.5 0 1 1 .074-.997c.409.031.851-.036 1.329-.149l.721-.188.017-.005.715-.187 4.726-1.372.241-.077a.5.5 0 0 1 .628.325zm.577-3.692a.5.5 0 0 1-.398.584l-2.675.546-5.672 1.022a.5.5 0 1 1-.117-.993c1.863-.22 3.68-.604 5.523-.995l2.755-.562a.5.5 0 0 1 .584.398z"/><path d="M192.887 68.703a.5.5 0 0 1 .598-.378l2.763.698 1.416.371c1.385.353 2.756.658 4.136.796a.5.5 0 1 1-.1.995c-1.455-.146-2.883-.465-4.283-.822l-1.453-.381-2.699-.682a.5.5 0 0 1-.378-.598z"/><path d="M193.688 65.625a.5.5 0 0 1 .5.5l-.005.595.063 1.841a.5.5 0 1 1-.992.128c-.087-.678-.079-1.374-.071-2.026l.005-.538a.5.5 0 0 1 .5-.5z"/><path d="M202.935 64.698a.5.5 0 0 1-.445.55c-1.028.108-2.024.356-3.061.614l-.616.152-3.255.729-2.259.495a.5.5 0 1 1-.223-.975l2.3-.504 3.2-.717.594-.147 3.215-.643a.5.5 0 0 1 .55.445z"/><path d="M200.41 64.378a.5.5 0 0 1 .65-.28c.901.358 1.863.541 2.865.731l.926.181 1.415.275 2.86.606a.5.5 0 0 1 .358.61.5.5 0 0 1-.61.358l-2.744-.581-1.481-.288-.85-.166c-1.019-.193-2.11-.4-3.108-.797a.5.5 0 0 1-.281-.649z"/><path d="M208.375 65.688a.5.5 0 0 1 .5.5c0 1.11.033 2.167.183 3.243a.5.5 0 0 1-.991.138c-.159-1.144-.192-2.254-.192-3.381a.5.5 0 0 1 .5-.5zm6.625-38.5a.5.5 0 0 1 .5.5v2.563a.5.5 0 1 1-1 0v-2.562a.5.5 0 0 1 .5-.5zm8.625-.188a.5.5 0 0 1 .5.5v3.563a.5.5 0 1 1-1 0V27.5a.5.5 0 0 1 .5-.5z"/><path d="M224.438 26.875a.5.5 0 0 1 .5.5v2.5a.5.5 0 1 1-1 0v-2.5a.5.5 0 0 1 .5-.5zm7.437-5.062a.5.5 0 0 1 .5.5V25.5a.5.5 0 1 1-1 0v-3.187a.5.5 0 0 1 .5-.5zm-9.493-.122a.5.5 0 0 1 .552.442c.08.712.074 1.393.069 2.058l-.003.497a.5.5 0 1 1-1 0l.003-.532-.062-1.912a.5.5 0 0 1 .441-.552zm12.43.372a.5.5 0 0 1 .5.5v3.25a.5.5 0 1 1-1 0v-3.25a.5.5 0 0 1 .5-.5zm8.376.75a.5.5 0 0 1 .5.5l.011.561.001.041.012.555c.004.403-.012.831-.097 1.254a.5.5 0 0 1-.588.392.5.5 0 0 1-.392-.588c.065-.324.08-.673.077-1.05l-.012-.535-.001-.038-.011-.591a.5.5 0 0 1 .5-.5z"/><path d="M243.852 21.508a.5.5 0 0 1 .578.407c.096.553.085 1.135.076 1.654L244.5 24a.5.5 0 1 1-1 0l.006-.518c.009-.498.017-.947-.061-1.397a.5.5 0 0 1 .407-.578zm-7.498 8.242a.5.5 0 0 1 .521.479 13.27 13.27 0 0 1-.13 2.467.5.5 0 1 1-.99-.141 12.21 12.21 0 0 0 .12-2.283.5.5 0 0 1 .479-.52zm-2.051.688a.5.5 0 0 1 .509.491l.028 1.074.035 1.81a.5.5 0 1 1-1 0l-.034-1.755-.028-1.111a.5.5 0 0 1 .49-.509zm-6.24-.063a.5.5 0 0 1 .5.5l-.127 2.726a.5.5 0 0 1-.997-.077l.124-2.649a.5.5 0 0 1 .5-.5zm-1.875-.875a.5.5 0 0 1 .5.5l-.032 1.388v.004l-.031 1.358a.5.5 0 1 1-1 0l.031-1.388.001-.004.031-1.358a.5.5 0 0 1 .5-.5zm14.562-2.75a.5.5 0 0 1 .5.5v3.531a.5.5 0 1 1-1 0V27.25a.5.5 0 0 1 .5-.5zm6.062.938a.5.5 0 0 1 .5.5v3a.5.5 0 1 1-1 0v-3a.5.5 0 0 1 .5-.5zm5.376-1.188a.5.5 0 0 1 .5.5l-.063 2.081-.001.005-.062 2.039a.5.5 0 1 1-1 0l.063-2.079.001-.006.062-2.04a.5.5 0 0 1 .5-.5zm-38.289 3.722a.5.5 0 0 1 .63-.322c1.141.368 2.297.613 3.486.864l1.156.249a.5.5 0 1 1-.217.976l-1.11-.239-3.622-.899a.5.5 0 0 1-.323-.63z"/><path d="M224.497 30.945a.5.5 0 0 1-.442.552l-2.873.237-.145.01-2.978.253a.5.5 0 1 1-.118-.993l3.025-.257.134-.009 2.845-.234a.5.5 0 0 1 .552.442z"/><path d="M225.372 29.166a.5.5 0 0 1-.038.706 5.83 5.83 0 0 0-.657.675l-.032.039c-.178.211-.362.416-.827.8a.5.5 0 1 1-.636-.772c.416-.343.557-.505.697-.671l.031-.037c.156-.186.334-.398.756-.778a.5.5 0 0 1 .706.037zm0 2.786a.5.5 0 0 1 .677-.205l.561.295 1.927 1.111a.5.5 0 1 1-.574.819c-.555-.389-1.148-.697-1.773-1.022l-.614-.322a.5.5 0 0 1-.204-.677z"/><path d="M227.062 33.5a.5.5 0 0 1 .5-.5l7.463.188a.5.5 0 0 1-.05.999L227.562 34a.5.5 0 0 1-.5-.5z"/><path d="M237.413 31.718a.5.5 0 0 1-.131.695l-3.29 2.024a.5.5 0 0 1-.484-.875l3.21-1.976a.5.5 0 0 1 .695.131zm2.152-1.204a.5.5 0 0 1 .546-.449l3.065.313 5.116.499a.5.5 0 0 1-.083.997l-5.155-.503-3.04-.311a.5.5 0 0 1-.449-.546z"/><path d="M252.994 30.419a.5.5 0 0 1-.413.574l-3.201.492-.056.008-3.243.5a.5.5 0 1 1-.162-.987l3.257-.502.053-.008 3.19-.49a.5.5 0 0 1 .575.413zM239.438 27.5a.5.5 0 0 1 .5-.5c1.559 0 3.016.233 4.505.479l.908.135 2.215.403a.5.5 0 0 1 .355.612.5.5 0 0 1-.612.354c-.664-.177-1.328-.27-2.025-.368l-1.005-.15c-1.494-.247-2.875-.465-4.341-.465a.5.5 0 0 1-.5-.5z"/><path d="M253.496 27.061a.5.5 0 0 1-.432.56c-2.352.304-4.701.745-7.009 1.303a.5.5 0 1 1-.235-.972c2.341-.566 4.726-1.014 7.116-1.322a.5.5 0 0 1 .56.432z"/><path d="M251.554 25.415a.5.5 0 0 1 .656.264l.737 1.597a.5.5 0 0 1-.223.671.5.5 0 0 1-.671-.224l-.763-1.652a.5.5 0 0 1 .264-.656zm-10.929-.04a.5.5 0 0 1 .5.5c0 .706-.113 1.338-.263 1.987a.5.5 0 0 1-.599.375.5.5 0 0 1-.375-.6c.143-.618.237-1.167.237-1.763a.5.5 0 0 1 .5-.5z"/><path d="M246.987 24.887a.5.5 0 0 1-.373.6l-2.723.593-3.703.841a.5.5 0 0 1-.25-.968l3.791-.861 2.658-.579a.5.5 0 0 1 .6.373z"/><path d="M245.196 24.97a.5.5 0 0 1 .585-.398l6.774.932a.5.5 0 1 1-.11.994l-.009-.001-6.841-.942a.5.5 0 0 1-.399-.584zm-15.172 3.588a.5.5 0 0 1-.269.654l-.478.2-3.177 1.249a.5.5 0 1 1-.325-.946l3.113-1.225.482-.202a.5.5 0 0 1 .654.269z"/><path d="M231.786 29.531l-3.724.031a.5.5 0 1 1 0-1l3.713-.031h.001l3.724-.031a.5.5 0 1 1 0 1l-3.712.031h-.002z"/><path d="M233.702 28.484a.5.5 0 0 1 .689-.157c.972.611 2.013 1.124 3.092 1.516a.5.5 0 0 1 .299.641.5.5 0 0 1-.64.299c-1.147-.417-2.252-.961-3.283-1.609a.5.5 0 0 1-.157-.689z"/><path d="M237.703 29.726a.5.5 0 0 1-.241.665c-.577.269-1.172.489-1.753.696l-.338.12-1.371.507a.5.5 0 1 1-.375-.927l1.422-.526.327-.116 1.665-.66a.5.5 0 0 1 .664.242zm-12.235.291a.5.5 0 0 1 .641-.299l.502.184 2.396.803a.5.5 0 1 1-.263.965c-.859-.234-1.681-.537-2.49-.834l-.487-.179a.5.5 0 0 1-.299-.641z"/><path d="M227.001 31.029a.5.5 0 0 1 .532-.466l6.181.126 1.224-.002a.5.5 0 1 1 0 1l-1.212.002c-2.075.006-4.168.011-6.259-.128a.5.5 0 0 1-.466-.532zM239 23.188a.5.5 0 0 1 .5.5v2.438a.5.5 0 1 1-1 0v-2.437a.5.5 0 0 1 .5-.5z"/><path d="M233.905 25.393a.5.5 0 0 1 .639-.301c.659.237 1.369.329 2.143.429l.277.036c.857.113 1.783.257 2.635.683a.5.5 0 0 1-.447.894c-.686-.343-1.46-.473-2.319-.586l-.277-.036c-.759-.097-1.582-.203-2.35-.48a.5.5 0 0 1-.301-.64z"/><path d="M241.488 26.017a.5.5 0 0 1-.379.597c-.757.168-1.522.309-2.312.385a.5.5 0 0 1-.545-.45.5.5 0 0 1 .451-.545 17.92 17.92 0 0 0 2.189-.365.5.5 0 0 1 .596.38zm-7.715-3.23a.5.5 0 0 1 .627-.326c1.463.461 2.996.695 4.557.934l1.123.175a.5.5 0 1 1-.159.987l-1.082-.168c-1.568-.239-3.196-.487-4.739-.974a.5.5 0 0 1-.327-.627z"/><path d="M244.179 23.283a.5.5 0 0 1-.399.584l-3.62.546-1.527.208a.5.5 0 0 1-.141-.99l1.567-.213 3.536-.533a.5.5 0 0 1 .584.399z"/><path d="M244.419 23.346a.5.5 0 0 1 .11.698c-.168.232-.308.492-.45.783l-.121.25-.331.663a.5.5 0 1 1-.878-.479l.294-.589.138-.285a6.13 6.13 0 0 1 .54-.931.5.5 0 0 1 .698-.11z"/><path d="M244.844 21.897a.5.5 0 0 1-.116.698c-.388.277-.854.739-1.271 1.275a.5.5 0 0 1-.701.088.5.5 0 0 1-.088-.702c.458-.589.992-1.127 1.479-1.475a.5.5 0 0 1 .697.116z"/><path d="M239.664 21.431a.5.5 0 0 1 .655-.266c1.141.481 2.36.745 3.618.902a.5.5 0 1 1-.124.992c-1.312-.164-2.629-.444-3.882-.973a.5.5 0 0 1-.267-.655z"/><path d="M241.122 21.63a.5.5 0 0 1-.439.554l-4.149.552-1.403.197a.5.5 0 1 1-.137-.991l1.391-.195 4.182-.556a.5.5 0 0 1 .555.439z"/><path d="M237.247 21.627a.5.5 0 0 1-.186.682l-1.986 1.179a.5.5 0 1 1-.525-.851l2.015-1.196a.5.5 0 0 1 .682.186zm-14.964.757a.5.5 0 0 1 .646-.288l1.444.616.05.022 1.44.61a.5.5 0 1 1-.351.936l-1.499-.634-.04-.018-1.402-.599a.5.5 0 0 1-.288-.646z"/><path d="M230.812 23.66a.5.5 0 0 1-.472.527l-5.776.067-.319-.003a.5.5 0 1 1 .01-1l.311.003 5.719-.065a.5.5 0 0 1 .527.471z"/><path d="M233.64 22.036a.5.5 0 0 1-.238.666l-3.45 1.457-.454.181a.5.5 0 1 1-.37-.929l.455-.181 3.391-1.431a.5.5 0 0 1 .666.238zm-6.031-.785a.5.5 0 0 1-.359.609l-4.642 1.129a.5.5 0 1 1-.215-.977l4.608-1.121a.5.5 0 0 1 .608.36z"/><path d="M224.563 21.495a.5.5 0 0 1 .504-.495l2.81.062 3.373.063a.5.5 0 1 1 0 1c-1.129 0-2.286-.032-3.436-.065l-2.756-.06a.5.5 0 0 1-.495-.505z"/><path d="M229.368 21.271a.5.5 0 0 1 .674-.215c.907.468 1.737.859 2.665 1.014a.5.5 0 0 1-.164.986c-1.096-.183-2.048-.641-2.96-1.111a.5.5 0 0 1-.215-.674zm-4.056 1.542a.5.5 0 0 1 .5.5v3.313a.5.5 0 1 1-1 0v-3.312a.5.5 0 0 1 .5-.5zm4.126-.063a.5.5 0 0 1 .5.5l-.032 1.45v.004l-.031 1.421a.5.5 0 1 1-1 0l.031-1.449.001-.004.031-1.422a.5.5 0 0 1 .5-.5z"/><path d="M221.848 24.202a.5.5 0 0 1 .7-.104c.651.482 1.358.895 2.098 1.254.127.062.263.112.429.172h.001l.523.215a.5.5 0 1 1-.448.894c-.122-.061-.256-.111-.419-.171l-.019-.007-.504-.205a14.21 14.21 0 0 1-2.257-1.35.5.5 0 0 1-.104-.699z"/><path d="M227.694 26.594l-3.006.031a.5.5 0 1 1 0-1l2.992-.031h.002l3.006-.031a.5.5 0 1 1 0 1l-2.993.031h-.001z"/><path d="M232.879 24.39a.5.5 0 0 1-.206.676l-1.861.961-.023.012-1.866.964a.5.5 0 0 1-.471-.882l1.884-.974.019-.009 1.847-.954a.5.5 0 0 1 .677.206zM218.5 28a.5.5 0 0 1 .5.5v3.938a.5.5 0 1 1-1 0V28.5a.5.5 0 0 1 .5-.5z"/><path d="M214.089 27.902a.5.5 0 0 1 .634-.313c1.417.481 2.882.809 4.379 1.121a.5.5 0 1 1-.204.979l-4.496-1.153a.5.5 0 0 1-.313-.634z"/><path d="M224.494 28.426a.5.5 0 0 1-.42.569c-2.238.336-3.899.568-6.199.568a.5.5 0 1 1 0-1c2.221 0 3.819-.222 6.051-.557a.5.5 0 0 1 .568.42z"/><path d="M225.37 26.664a.5.5 0 0 1-.034.706c-.141.128-.313.317-.516.539l-.327.355c-.315.337-.708.735-1.072.928a.5.5 0 0 1-.467-.884c.191-.1.472-.367.809-.727l.275-.298.626-.653a.5.5 0 0 1 .706.034zm-7.36-.137a.5.5 0 0 1-.224.671l-1.839 1.037-.758.448a.5.5 0 1 1-.503-.865l.716-.423 1.937-1.092a.5.5 0 0 1 .671.224z"/><path d="M221.99 26.402a.5.5 0 0 1-.392.588 23.45 23.45 0 0 1-5.098.51.5.5 0 1 1 0-1c.987 0 2.45 0 4.902-.49a.5.5 0 0 1 .588.392z"/><path d="M220.014 26.259a.5.5 0 0 1 .603-.37l4.714 1.257a.5.5 0 1 1-.287.958l-4.66-1.243a.5.5 0 0 1-.37-.603zm45.469 41.366a.5.5 0 0 1 .517.483l.125 5.642a.5.5 0 1 1-1 0L265 68.142a.5.5 0 0 1 .483-.517zm1.943 1.5a.5.5 0 0 1 .511.489l.082 1.91.042 4.139a.5.5 0 0 1-.536.461.5.5 0 0 1-.461-.536c.098-1.308.029-2.6-.041-3.926l-.085-2.025a.5.5 0 0 1 .488-.511zm10.324 1.625a.5.5 0 0 1 .5.5l.052 4.679.01.625a.5.5 0 0 1-.491.508.5.5 0 0 1-.508-.492l-.011-.624-.052-4.696a.5.5 0 0 1 .5-.5zm4.875-1.312a.5.5 0 0 1 .5.5V74.5a.5.5 0 1 1-1 0v-4.562a.5.5 0 0 1 .5-.5zm2.687-4.125a.5.5 0 0 1 .5.5l-.031 1.543v.004l-.031 1.516a.5.5 0 1 1-1 0l.031-1.543v-.004l.031-1.516a.5.5 0 0 1 .5-.5zm2.25 1.937a.5.5 0 0 1 .5.5l-.031 1.728v.004L288 71.188a.5.5 0 1 1-1 0l.031-1.73v-.003l.031-1.705a.5.5 0 0 1 .5-.5zm6.626.375a.5.5 0 0 1 .5.5l-.063 1.615-.001.008-.062 1.565a.5.5 0 1 1-1 0l.063-1.618.001-.006.062-1.564a.5.5 0 0 1 .5-.5zm2.962-1.312a.5.5 0 0 1 .474.524l-.148 1.747-.103 1.081a.5.5 0 0 1-.538.459.5.5 0 0 1-.458-.538l.109-1.153.14-1.645a.5.5 0 0 1 .524-.474zm-4.525 6.437a.5.5 0 0 1 .5.5v3.5a.5.5 0 1 1-1 0v-3.5a.5.5 0 0 1 .5-.5zm1.937 2.063a.5.5 0 0 1 .5.5l-.031 1.729v.003L295 78.75a.5.5 0 1 1-1 0l.031-1.729v-.003l.031-1.705a.5.5 0 0 1 .5-.5zm6.75.5a.5.5 0 0 1 .5.5l-.031 1.668v.003l-.031 1.642a.5.5 0 1 1-1 0l.031-1.666v-.004l.031-1.642a.5.5 0 0 1 .5-.5zm3.376-1.188a.5.5 0 0 1 .5.5l-.057 1.775-.008.156-.061 1.576a.5.5 0 0 1-.507.492.5.5 0 0 1-.492-.507l.061-1.609.008-.158.056-1.726a.5.5 0 0 1 .5-.5zm-27.102 5.751a.5.5 0 0 1 .476.523l-.124 4.414a.5.5 0 1 1-1 0l.125-4.461a.5.5 0 0 1 .523-.476zm4.481 2.566a.5.5 0 0 1 .429.562c-.179 1.325-.246 2.648-.246 3.996a.5.5 0 1 1-1 0c0-1.38.068-2.749.254-4.129a.5.5 0 0 1 .563-.429zm9.683-.004a.5.5 0 0 1 .5.5l-.031 2.196v.002l-.031 2.176a.5.5 0 1 1-1 0l.031-2.195v-.003l.031-2.177a.5.5 0 0 1 .5-.5zm3.257-2.31a.5.5 0 0 1 .552.441c.086.759.085 1.517.065 2.255l-.026.75-.035 1.426a.5.5 0 1 1-1 0l.037-1.489.024-.715c.02-.724.019-1.426-.058-2.115a.5.5 0 0 1 .441-.553z"/><path d="M264.992 68.116a.5.5 0 0 1 .705-.061l1.406 1.213 2.022 1.717a.5.5 0 0 1-.625.781l-2.088-1.773-1.358-1.172a.5.5 0 0 1-.062-.704z"/><path d="M266.751 70.846a.5.5 0 0 1 .529-.47l3.21.221 6.145.341a.5.5 0 0 1-.02 1l-6.237-.346-3.158-.218a.5.5 0 0 1-.469-.529z"/><path d="M283.26 69.464a.5.5 0 0 1-.224.671c-.754.377-1.592.619-2.348.837l-.125.036-.259.075-3.332 1.016a.5.5 0 0 1-.633-.314.5.5 0 0 1 .314-.634l3.369-1.028.263-.076.097-.028c.78-.225 1.537-.444 2.207-.779a.5.5 0 0 1 .671.224z"/><path d="M279.627 66.73a.5.5 0 0 1 .706-.04l.314.279c.86.763 1.778 1.577 2.503 2.544a.5.5 0 0 1-.8.6c-.66-.88-1.498-1.625-2.368-2.397l-.315-.28a.5.5 0 0 1-.04-.706zm-6.959-.431a.5.5 0 0 1-.342.619l-2.273.612-1.814.483-.172.048-3.042.744a.5.5 0 0 1-.175-.985c.993-.176 1.962-.447 2.961-.726l.159-.044 1.864-.496 2.215-.597a.5.5 0 0 1 .619.342z"/><path d="M271.214 67.281l-.498.03a.5.5 0 0 1-.528-.47.5.5 0 0 1 .471-.528l.476-.029 2.197-.072c.994.026 1.977.177 2.923.323l.562.085a20.78 20.78 0 0 0 4.097.193.5.5 0 0 1 .047.999c-1.447.069-2.849.011-4.291-.203l-.585-.089-2.778-.309c-.691-.018-1.38.025-2.093.07zm-4.639 7.42a.5.5 0 0 1 .6-.375c1.704.392 3.46.485 5.262.54l.763.022 4.682.305a.5.5 0 0 1-.139.99c-1.495-.21-3.013-.252-4.562-.295l-.775-.022c-1.806-.056-3.647-.15-5.455-.565a.5.5 0 0 1-.376-.599z"/><path d="M284.459 72.864a.5.5 0 0 1-.26.658l-3.328 1.351-.016.007-3.281 1.33a.5.5 0 0 1-.397-.918l3.305-1.34.024-.009 3.295-1.338a.5.5 0 0 1 .658.26zm-19.496-.721a.5.5 0 0 1 .707.008l.801.846 1.426 1.444a.5.5 0 0 1-.669.743c-.539-.485-1.045-1.029-1.534-1.554l-.739-.781a.5.5 0 0 1 .008-.707zm11.474 11.553a.5.5 0 0 1 .68-.196l1.194.647 2.446 1.362.226.131.45.266c.238.151.494.339.701.587a.5.5 0 0 1-.768.64c-.11-.132-.267-.255-.469-.383l-.368-.218-.285-.165-2.378-1.324-1.232-.668a.5.5 0 0 1-.197-.679zm.222-3.679a.5.5 0 0 1 .699-.107c1.669 1.225 3.414 2.265 5.322 2.999a.5.5 0 0 1-.359.933c-2.014-.774-3.836-1.865-5.554-3.126a.5.5 0 0 1-.108-.699z"/><path d="M286.247 83.817l-4.555.058a.5.5 0 1 1-.009-1l4.534-.058L293 82.75a.5.5 0 1 1 0 1l-6.753.067z"/><path d="M296.424 80.298a.5.5 0 0 1-.159.689l-1.703 1.017-2.832 1.777a.5.5 0 1 1-.585-.812c.948-.682 1.975-1.282 2.978-1.868l1.612-.963a.5.5 0 0 1 .689.159zm.925 3.105a.5.5 0 0 1-.127.696l-5.682 3.996a.5.5 0 1 1-.58-.815l5.693-4.004a.5.5 0 0 1 .696.127z"/><path d="M282.883 87.781l-1.938.032a.5.5 0 0 1-.507-.492.5.5 0 0 1 .492-.507l1.928-.032 9.977.032a.5.5 0 1 1-.045.999l-9.907-.032zm-.58-10.165a.5.5 0 0 1-.169.686l-4.787 3.046a.5.5 0 0 1-.569-.822l4.838-3.079a.5.5 0 0 1 .687.169z"/><path d="M292.187 77.992a.5.5 0 0 1-.492.507l-4.491.159-.306.014-5.551.078-1.035-.001a.5.5 0 1 1 0-1l1.042.001 5.498-.077.31-.014 4.518-.16a.5.5 0 0 1 .507.492z"/><path d="M289.725 77.388a.5.5 0 0 1 .7-.1c.778.584 1.634 1.065 2.527 1.542l.482.256 2.207 1.241a.5.5 0 1 1-.532.847l-2.131-1.197-.498-.264c-.899-.48-1.812-.991-2.655-1.624a.5.5 0 0 1-.1-.7zm2.362-1.432a.5.5 0 0 1 .707.006l2.288 2.516.169.193a.5.5 0 0 1-.752.659l-.166-.189-2.252-2.477a.5.5 0 0 1 .006-.707zm-.079-2.858a.5.5 0 0 1 .707-.027l.855.828 1.605 1.451a.5.5 0 1 1-.6.8c-.634-.476-1.221-1.056-1.776-1.606l-.764-.74a.5.5 0 0 1-.027-.707z"/><path d="M297.086 76.093c-.991-.097-1.911-.187-2.85-.095a.5.5 0 1 1-.097-.995c1.041-.102 2.061-.002 3.037.094l.316.031 4.461.311a.5.5 0 0 1-.031.999l-4.525-.315-.311-.03zm.144 3.246l-2.29.099a.5.5 0 1 1-.005-1l2.19-.094 1.269-.071c1.177-.053 2.385-.052 3.575.174a.5.5 0 1 1-.188.982c-1.073-.204-2.189-.21-3.342-.158l-1.209.068z"/><path d="M305.927 76.489a.5.5 0 0 1-.166.687c-1.442.881-2.913 1.708-4.512 2.35a.5.5 0 1 1-.373-.928c1.523-.611 2.939-1.405 4.363-2.275a.5.5 0 0 1 .688.166zm.458-2.65a.5.5 0 0 1-.224.671c-.808.404-1.639.749-2.461 1.079l-.562.224-1.875.77a.5.5 0 1 1-.401-.916l1.916-.787.55-.219 2.386-1.045a.5.5 0 0 1 .671.224z"/><path d="M302.406 72.387a.5.5 0 0 1 .707.019c.591.623 1.163 1.185 1.84 1.608a.5.5 0 1 1-.53.848c-.793-.495-1.438-1.138-2.036-1.767a.5.5 0 0 1 .019-.707zm-4.985-.141a.5.5 0 0 1-.355.612l-.91.244-3.916 1.01a.5.5 0 0 1-.23-.973l3.881-1.001.918-.246a.5.5 0 0 1 .612.354z"/><path d="M296.064 72.27a.5.5 0 0 1 .541-.456l6.645.248a.5.5 0 1 1 0 1c-2.249 0-4.478-.061-6.73-.252a.5.5 0 0 1-.456-.54zm-9.501-4.523a.5.5 0 0 1 .502-.497l1.999.058.197.008 2.155.049 1.436-.038 2.864-.013a.5.5 0 0 1-.057.998c-.91-.052-1.792-.02-2.703.012l-1.531.041c-.741.007-1.478-.02-2.204-.049l-.195-.008-1.966-.057a.5.5 0 0 1-.497-.503zm-.125 2.853a.5.5 0 0 1 .525-.474l2.277.09 4.938.287a.5.5 0 0 1-.106.994l-4.819-.281-2.341-.092a.5.5 0 0 1-.474-.524z"/><path d="M298.346 68.149a.5.5 0 0 1-.119.697l-.396.28-4.073 2.74a.5.5 0 0 1-.686-.17.5.5 0 0 1 .17-.686l4.014-2.701.393-.279a.5.5 0 0 1 .697.119zm-.141-2.106a.5.5 0 0 1-.248.662l-2.556 1.249-1.62.808a.5.5 0 0 1-.437-.899l1.572-.785 2.627-1.283a.5.5 0 0 1 .662.248zm-13.612-.593a.5.5 0 0 1 .707.018c.94.989 1.921 1.802 3.111 2.397a.5.5 0 1 1-.447.894c-1.325-.663-2.397-1.559-3.389-2.603a.5.5 0 0 1 .018-.707zm.089 2.788a.5.5 0 0 1 .705-.057l.372.318 2.509 1.953a.5.5 0 0 1 .154.69.5.5 0 0 1-.69.153c-.955-.607-1.803-1.334-2.628-2.041l-.366-.312a.5.5 0 0 1-.056-.705z"/><path d="M289.4 64.373a.5.5 0 0 1-.273.652l-.559.228-3.33 1.499a.5.5 0 0 1-.677-.201.5.5 0 0 1 .201-.678c1.114-.604 2.291-1.083 3.436-1.549l.55-.224a.5.5 0 0 1 .652.273z"/><path d="M287.125 64.748a.5.5 0 0 1 .502-.498l3.008.061 5.463.002a.5.5 0 0 1 .054.999c-1.869.102-3.748.05-5.607-.003l-2.922-.059a.5.5 0 0 1-.498-.502z"/><path d="M293.827 64.091a.5.5 0 0 1 .707-.013c.33.317.701.592 1.102.888l.353.263c.52.392 1.065.837 1.48 1.418a.5.5 0 0 1-.116.697.5.5 0 0 1-.697-.116c-.321-.449-.761-.818-1.269-1.201l-.315-.235-1.231-.995a.5.5 0 0 1-.014-.707zM169.314 78.536a.5.5 0 1 1 .372.928L169.5 79l-.186-.464zm-7.823 4.551a1.48 1.48 0 0 1 .233-.14l5.096-2.299 2.041-.849.606-.246.163-.066.056-.023L169.5 79l-.186-.464h-.001l-.002.001-.054.022-.165.066-.609.248-2.053.854-5.153 2.326c-.286.143-.57.332-.723.603a.84.84 0 0 0-.108.507.94.94 0 0 0 .185.457c.172.236.448.43.754.599a9.39 9.39 0 0 0 1.196.532c1.897.718 5.207 1.587 9.798 2.735l1.398.346 2.453.62c1.058.284 1.775.52 2.147.732l.047.028c-.119.082-.312.185-.606.307a15.62 15.62 0 0 1-1.462.502c-.015.005-.031.01-.046.016l-19.661 7.943-38.85 16.061a.5.5 0 1 0 .402.916c12.912-5.669 25.881-10.865 38.799-16.041l19.667-7.945a16.37 16.37 0 0 0 1.535-.53c.398-.166.726-.338.952-.531s.458-.51.34-.92c-.095-.332-.388-.542-.621-.675-.503-.287-1.348-.552-2.384-.83-.714-.192-1.554-.399-2.486-.629l-1.382-.342c-4.612-1.153-7.857-2.007-9.686-2.7a8.39 8.39 0 0 1-1.066-.472 1.94 1.94 0 0 1-.378-.256zM78.96 131.303a.5.5 0 0 1-.263.657l-18.871 8.192c-15.836 6.935-28.131 12.319-47.657 19.319a.5.5 0 1 1-.338-.942c19.492-6.987 31.749-12.355 47.573-19.284l18.899-8.205a.5.5 0 0 1 .656.263z"/><path d="M273.951 81.785a.5.5 0 0 1-.235.667c-5.117 2.443-12.414 6.164-20.534 10.306L231.2 103.861c-7.936 3.932-15.565 7.584-21.776 10.253-3.105 1.335-5.864 2.427-8.133 3.187-2.251.753-4.076 1.199-5.291 1.199-4.579 0-10.264-1.394-14.771-2.772a109.36 109.36 0 0 1-5.651-1.899l-1.661-.627-.448-.176-.117-.046-.03-.013-.01-.004-.705-.286-1.942-.783-6.537-2.617-16.301-6.308a.5.5 0 0 1-.296-.642.5.5 0 0 1 .642-.296c4.756 1.752 11.136 4.254 16.324 6.317l6.542 2.618 1.943.785.706.286-.188.463.188-.463h.001l-.143.349.143-.349.009.004.028.011.113.045.44.173 1.643.62c1.4.513 3.36 1.198 5.599 1.882 4.493 1.373 10.058 2.728 14.479 2.728 1.036 0 2.724-.394 4.974-1.148 2.232-.747 4.962-1.827 8.055-3.156 6.186-2.659 13.796-6.301 21.727-10.231l21.95-11.088 20.579-10.328a.5.5 0 0 1 .666.236zm-58.984-49.963a.5.5 0 0 1-.289.645L177.56 46.701l-75.887 28.768c-1.034.381-2.083.77-2.815 1.222-.367.226-.605.44-.729.634-.108.169-.129.319-.061.501.08.216.302.52.808.907.499.382 1.232.814 2.265 1.298 2.064.968 5.258 2.116 9.999 3.488l43.982 12.495c.53.132.955.315 1.239.578.315.293.434.671.347 1.063-.077.343-.299.647-.537.895-.246.257-.557.505-.883.734-.655.458-1.43.877-2.032 1.178a25.62 25.62 0 0 1-.754.361l-.221.1-.061.026-.016.007-.004.002h-.002v.001l-.197-.46.197.46a.5.5 0 1 1-.394-.919l.001-.001.003-.001.013-.006.055-.024.21-.094a23.82 23.82 0 0 0 .722-.346c.586-.293 1.311-.686 1.906-1.103.298-.209.551-.414.734-.606.192-.201.266-.343.283-.421l.002-.004c.006-.028.011-.049-.053-.109-.1-.093-.331-.223-.8-.34-4.012-1.003-19.267-5.34-44.018-12.505-4.759-1.377-8.011-2.542-10.146-3.543-1.067-.5-1.871-.967-2.448-1.409-.571-.437-.963-.883-1.138-1.354-.187-.505-.102-.98.156-1.386.242-.38.629-.69 1.047-.948.828-.511 1.968-.931 2.963-1.297l.032-.012 75.866-28.76 37.129-14.238a.5.5 0 0 1 .645.289z"/><path d="M155.812 99.339c-.093-.012-.188-.034-.283-.066-.602-.201-.835-.726-.888-1.181-.051-.447.05-.922.209-1.271.17-.371.561-.666.941-.763.2-.051.462-.064.709.067.227.12.369.323.44.556.039.018.078.041.117.069.264.191.32.505.337.664a2.27 2.27 0 0 1-.02.57c-.025.158-.068.342-.135.476a2.02 2.02 0 0 1-.293.439c.034.068.054.145.054.226a.5.5 0 0 1-.5.5c-.291 0-.522-.115-.688-.286zm22.911-11.59c.245-.117.524-.135.805-.044.55.177.842.63.923 1.087a1.7 1.7 0 0 1-.31 1.304 1.03 1.03 0 0 1-.419.346c-.221.09-.452.059-.636-.067a.86.86 0 0 1-.257-.286l-.075.001c-.156-.006-.32-.059-.46-.181-.133-.117-.209-.266-.252-.409-.122-.405-.049-.896.166-1.261.112-.19.279-.376.515-.488zM98.091 77.346c-.173-.277-.394-.533-.649-.743-.42-.347-.968-.599-1.572-.568-.535.028-.857.391-1.044.687a3.8 3.8 0 0 0-.236.449l-.065.144-.098.211a.5.5 0 1 0 .894.447l.128-.277.049-.11.171-.331c.123-.195.201-.219.251-.222.214-.011.441.052.66.182-.225.088-.483.201-.699.335s-.458.324-.602.598a1.07 1.07 0 0 0 .007 1.005c.441.883 1.601 1.339 2.528.902.501-.236.727-.683.783-1.116.054-.418-.041-.853-.204-1.196a1.23 1.23 0 0 0-.305-.398zm-1.774 1.117c.032.232.109.441.221.615-.15-.089-.278-.215-.355-.371-.033-.067-.023-.083-.018-.091a.52.52 0 0 1 .151-.153zm1.001-.43a.84.84 0 0 1 .098.201c.053.153.069.262.069.333a.4.4 0 0 1-.004.058.25.25 0 0 1-.112-.104c-.048-.078-.099-.231-.051-.488zm96.806 38.805c.333-.372.823-.491 1.386-.401.552.089.966.345 1.179.756a1.39 1.39 0 0 1 .138.788c.073.162.111.348.117.544.01.297-.085.608-.294.839a.97.97 0 0 1-.944.298 1.17 1.17 0 0 1-.64-.363 1.24 1.24 0 0 1-.182-.269c.086.289.195.547.295.713a.5.5 0 1 1-.858.514c-.293-.488-.602-1.418-.592-2.219.005-.399.089-.859.395-1.2zm-33.628-34.812c.606.295 1.306.865 1.224 1.769-.036.393-.207.739-.546.922-.316.171-.664.137-.933.046-.275-.094-.535-.269-.734-.491s-.362-.521-.381-.869c-.015-.273.049-.524.192-.725-.254-.052-.486-.07-.648-.055a.5.5 0 1 1-.09-.996c.521-.047 1.288.093 1.916.399zm-89.011 51.708a1.18 1.18 0 0 1 .265.766c0 .264-.035.506-.098.724a2.19 2.19 0 0 1 .023.818c-.033.17-.118.422-.354.579-.27.179-.567.128-.783.026a.75.75 0 0 1-.278-.231c-.026 0-.052-.002-.078-.004-.407-.032-.791-.289-.921-.743-.12-.416.004-.885.297-1.348-.352.1-.687.27-.93.483-.257.225-.376.463-.376.696a.5.5 0 1 1-1 0c0-.608.318-1.099.718-1.449s.91-.59 1.409-.717c.492-.125 1.032-.154 1.481-.009.229.075.456.203.627.409z"/></g></g><path d="M46.733 89.238l-8.046 1.841 82.328 28.925-.745 31.491 6.08-2.857.745-31.491-80.362-27.909z" fill="url(#D)" class="C"/><path d="M46.761 88.719l80.842 28.076-.761 32.164-7.091 3.333.756-31.936-83.618-29.378 9.872-2.259zm-6.277 2.462l81.039 28.472-.734 31.046 5.068-2.382.729-30.817-79.882-27.742-6.22 1.423z" class="B D"/><path d="M39.061 117.565l.615-25.993 6.569-2.845 80.351 28.409-.757 31.991-5.058 2.381-41.598-17.489-1.393-4.534-5.546 1.87-33.183-13.789z" fill="url(#E)" fill-opacity=".1"/><g class="B D"><path d="M43.533 97.665a.5.5 0 0 1 .488.512l-.13 5.498a.5.5 0 0 1-1-.023l.13-5.499a.5.5 0 0 1 .512-.488zm7.367 3.175a.5.5 0 0 1 .488.512l-.118 4.999a.5.5 0 0 1-1-.024l.118-4.999a.5.5 0 0 1 .512-.488zm7.378 2.676a.5.5 0 0 1 .488.511l-.118 4.999a.5.5 0 1 1-1-.024l.118-4.998a.5.5 0 0 1 .512-.488zm8.618 2.704a.5.5 0 0 1 .488.512l-.126 5.339a.5.5 0 1 1-1-.024l.126-5.339a.5.5 0 0 1 .512-.488zm-23.635 2.948a.5.5 0 0 1 .488.512l-.106 4.5a.5.5 0 0 1-1-.023l.107-4.501a.5.5 0 0 1 .512-.488zm34.089.807a.5.5 0 0 1 .488.512l-.13 5.5a.5.5 0 0 1-1-.024l.13-5.5a.5.5 0 0 1 .512-.488zm-26.695 1.203a.5.5 0 0 1 .488.511l-.126 5.334a.5.5 0 0 1-1-.023l.126-5.334a.5.5 0 0 1 .512-.488zm36.537 2.199a.5.5 0 0 1 .488.511l-.142 6.001a.5.5 0 1 1-1-.024l.142-6a.5.5 0 0 1 .512-.488zm-29.162.644a.5.5 0 0 1 .488.511l-.13 5.491a.5.5 0 1 1-1-.024l.13-5.49a.5.5 0 0 1 .512-.488zm38.365 3.576a.5.5 0 0 1 .488.512l-.114 4.823a.5.5 0 1 1-1-.024l.114-4.823a.5.5 0 0 1 .512-.488zm-29.77.12a.5.5 0 0 1 .488.512l-.123 5.176a.5.5 0 0 1-1-.024l.123-5.176a.5.5 0 0 1 .512-.488zm40.86 2.968a.5.5 0 0 1 .488.511l-.13 5.499a.5.5 0 0 1-1-.024l.13-5.498a.5.5 0 0 1 .512-.488zm-30.418 1.28a.5.5 0 0 1 .488.512l-.123 5.178a.5.5 0 1 1-1-.024l.123-5.178a.5.5 0 0 1 .512-.488zm39.95 2.124a.5.5 0 0 1 .488.511l-.15 6.321a.5.5 0 0 1-1-.024l.15-6.32a.5.5 0 0 1 .512-.488zm-30.116 1.61a.5.5 0 0 1 .488.512l-.127 5.345a.5.5 0 0 1-1-.023l.126-5.346a.5.5 0 0 1 .512-.488zm9.226 3.232a.5.5 0 0 1 .488.512l-.13 5.485a.5.5 0 0 1-1-.023l.13-5.486a.5.5 0 0 1 .512-.488zm11.054 4.598a.5.5 0 0 1 .488.512l-.134 5.65a.5.5 0 0 1-.511.488.5.5 0 0 1-.488-.512l.133-5.65a.5.5 0 0 1 .512-.488zm9.532 3.378a.5.5 0 0 1 .488.512l-.13 5.499a.5.5 0 0 1-.511.488.5.5 0 0 1-.488-.512l.13-5.499a.5.5 0 0 1 .511-.488zM46.119 93.225a.5.5 0 0 1 .488.512l-.122 5.168a.5.5 0 1 1-1-.024l.122-5.168a.5.5 0 0 1 .512-.488zm7.379 2.675a.5.5 0 0 1 .488.512l-.126 5.335a.5.5 0 0 1-1-.023l.126-5.336a.5.5 0 0 1 .512-.488zm7.374 2.844a.5.5 0 0 1 .488.512l-.114 4.83a.5.5 0 1 1-1-.024l.114-4.829a.5.5 0 0 1 .512-.488zm8.614 2.872a.5.5 0 0 1 .488.512l-.11 4.662a.5.5 0 1 1-1-.024l.11-4.662a.5.5 0 0 1 .512-.488zm10.462 3.416a.5.5 0 0 1 .488.512l-.138 5.834a.5.5 0 1 1-1-.024l.138-5.834a.5.5 0 0 1 .512-.488zm-34.097-.473a.5.5 0 0 1 .488.511l-.11 4.661a.5.5 0 0 1-1-.023l.11-4.661a.5.5 0 0 1 .512-.488zm7.386 2.337a.5.5 0 0 1 .488.512l-.13 5.498a.5.5 0 0 1-1-.023l.13-5.499a.5.5 0 0 1 .512-.488zm36.545 1.871a.5.5 0 0 1 .488.512l-.142 6a.5.5 0 0 1-1-.023l.142-6.001a.5.5 0 0 1 .512-.488zm-29.186 1.644a.5.5 0 0 1 .488.512l-.11 4.667a.5.5 0 1 1-1-.024l.11-4.667a.5.5 0 0 1 .512-.488zm38.412 1.569a.5.5 0 0 1 .488.512l-.134 5.674a.5.5 0 1 1-1-.024l.134-5.673a.5.5 0 0 1 .512-.489zm-29.786.796a.5.5 0 0 1 .488.512l-.138 5.841a.5.5 0 1 1-1-.024l.138-5.841a.5.5 0 0 1 .512-.488zm40.871 2.476a.5.5 0 0 1 .488.511l-.134 5.667a.5.5 0 0 1-.511.488.5.5 0 0 1-.488-.511l.134-5.667a.5.5 0 0 1 .511-.488zm-64.483-.526a.5.5 0 0 1 .488.512l-.111 4.667a.5.5 0 1 1-1-.024l.111-4.667a.5.5 0 0 1 .512-.488zm34.066 1.798a.5.5 0 0 1 .488.512l-.142 5.998a.5.5 0 1 1-1-.023l.142-5.999a.5.5 0 0 1 .512-.488zm-26.687.869a.5.5 0 0 1 .488.512l-.13 5.498a.5.5 0 0 1-1-.023l.13-5.499a.5.5 0 0 1 .512-.488zm36.517 3.042a.5.5 0 0 1 .488.511l-.15 6.322a.5.5 0 0 1-1-.024l.15-6.321a.5.5 0 0 1 .512-.488zm-29.15.133a.5.5 0 0 1 .488.512l-.13 5.499a.5.5 0 1 1-1-.024l.13-5.499a.5.5 0 0 1 .512-.488zm38.369 3.409a.5.5 0 0 1 .488.512l-.13 5.498a.5.5 0 1 1-1-.023l.13-5.499a.5.5 0 0 1 .512-.488zm-29.813.295a.5.5 0 0 1 .488.512l-.118 4.998a.5.5 0 0 1-1-.023l.118-4.999a.5.5 0 0 1 .512-.488zm40.869 4.231a.5.5 0 0 1 .488.511l-.124 5.236a.5.5 0 1 1-1-.023l.124-5.236a.5.5 0 0 1 .512-.488zm-20.55 3.599a.5.5 0 0 1 .488.512l-.138 5.834a.5.5 0 1 1-1-.024l.138-5.834a.5.5 0 0 1 .512-.488zm9.211 3.872a.5.5 0 0 1 .488.511l-.13 5.499a.5.5 0 0 1-1-.024l.13-5.498a.5.5 0 0 1 .512-.488zm11.062 4.28a.5.5 0 0 1 .488.511l-.142 5.982a.5.5 0 0 1-1-.024l.142-5.981a.5.5 0 0 1 .512-.488zm11.637-23.596a.5.5 0 0 1 .488.512l-.922 38.989a.5.5 0 0 1-1-.024l.923-38.989a.5.5 0 0 1 .511-.488zM39.757 89.726a.5.5 0 0 1 .488.512l-.639 26.993a.5.5 0 0 1-1-.024l.639-26.993a.5.5 0 0 1 .512-.488z"/><path d="M122.844 151.829a.48.48 0 0 1-.596.356c-8.045-2.203-23.931-9.101-43.216-17.551a.52.52 0 0 1-.276-.664.48.48 0 0 1 .643-.262c19.326 8.469 35.123 15.324 43.078 17.502.266.073.43.35.367.619zm4.773-34.877a.48.48 0 0 1-.611.33c-20.351-6.483-80.554-27.671-84.872-29.532-.254-.11-.38-.406-.28-.663a.48.48 0 0 1 .642-.265c4.267 1.84 64.425 23.014 84.779 29.498.263.084.416.367.342.633zm-4.054 3.934c-.089.261-.372.391-.63.291-8.747-3.372-29.995-10.811-49.605-17.643l-8.718-3.035-31.02-10.951c-.255-.11-.38-.406-.28-.663a.48.48 0 0 1 .642-.266c1.804.778 15.002 5.372 30.962 10.927l8.709 3.033 49.636 17.654c.258.1.395.392.305.652zm-50.007 11.366a.48.48 0 0 1-.628.296c-9.752-3.683-16.188-6.429-22.522-9.131l-13.074-5.447c-.257-.103-.39-.396-.297-.656a.48.48 0 0 1 .634-.283c4.948 1.979 9.023 3.719 13.132 5.472 6.31 2.692 12.698 5.418 22.445 9.099.259.098.397.389.309.65z"/><path d="M127.154 114.648a.5.5 0 0 1 .488.512l-.899 37.989a.5.5 0 0 1-1-.024l.899-37.989a.5.5 0 0 1 .512-.488z"/><path d="M129.432 116.129a.5.5 0 0 1-.237.666l-1.725.824-6.284 2.846a.5.5 0 1 1-.371-.929l6.214-2.814 1.737-.83a.5.5 0 0 1 .666.237zm-1.632 31.792a.5.5 0 0 1-.197.679c-2.654 1.462-5.365 2.702-8.145 3.835a.5.5 0 0 1-.652-.274.5.5 0 0 1 .275-.652c2.754-1.122 5.428-2.347 8.04-3.785a.5.5 0 0 1 .679.197zM49.877 88.307a.5.5 0 0 1-.332.624l-4.849 1.391-.062.017-4.767 1.365a.5.5 0 1 1-.29-.957l4.785-1.37.068-.019 4.825-1.384a.5.5 0 0 1 .624.332zm28.957 39.202a.5.5 0 0 1 .491.508l-.109 6.151a.5.5 0 1 1-1-.017l.109-6.151a.5.5 0 0 1 .509-.491zm-5.9-2.641a.5.5 0 0 0-.512.488l-.157 6.65a.5.5 0 1 0 1 .024l.157-6.65a.5.5 0 0 0-.488-.512z"/><path d="M79.328 129.484a.5.5 0 0 1-.386.592c-.72.151-2.015.656-3.347 1.192l-.454.183-2.862 1.066a.5.5 0 1 1-.252-.968c.547-.142 1.587-.561 2.75-1.03l.445-.179 3.514-1.243a.5.5 0 0 1 .592.387zm41.528-3.323a.48.48 0 0 1-.624.305l-41.158-14.979-.327-.119L37.93 96.511a.52.52 0 0 1-.32-.645.48.48 0 0 1 .624-.305l40.82 14.858.329.12 41.154 14.977c.26.094.404.383.32.645zm.342 6.52a.48.48 0 0 1-.63.292l-44.05-16.468-37.271-13.972a.52.52 0 0 1-.281-.662.48.48 0 0 1 .641-.266c2.2.946 18.952 7.167 37.106 13.908l44.179 16.516c.258.1.395.391.306.652zm.958 6.771a.48.48 0 0 1-.626.299l-83.09-32.14c-.256-.107-.385-.402-.288-.66a.48.48 0 0 1 .638-.273c4.307 1.801 65.455 25.563 83.054 32.125.259.097.399.388.313.649zm-.255 5.75c-.089.261-.37.391-.628.291l-82.762-32.974c-.255-.11-.381-.407-.282-.664s.386-.375.64-.265c4.288 1.855 65.188 26.174 82.725 32.959.258.1.395.393.306.653z"/><path d="M120.148 151.594a.5.5 0 0 1 .209-.675l5.911-3.114a.5.5 0 1 1 .466.885l-5.911 3.113a.5.5 0 0 1-.675-.209zm-.09-3.011a.5.5 0 0 1 .21-.675l6.125-3.227a.5.5 0 0 1 .676.209.5.5 0 0 1-.21.675l-6.125 3.228a.5.5 0 0 1-.676-.21zm0-3.495a.5.5 0 0 1 .21-.675l6-3.161a.5.5 0 1 1 .466.885l-6 3.161a.5.5 0 0 1-.676-.21zm.21-4.22a.5.5 0 0 1 .209-.675l5.805-3.058a.5.5 0 0 1 .675.209.5.5 0 0 1-.209.675l-5.805 3.058a.5.5 0 0 1-.675-.209zm0-3.058a.5.5 0 0 1 .209-.675l6.124-3.227a.5.5 0 0 1 .466.885l-6.124 3.226a.5.5 0 0 1-.675-.209zm.155-3.577a.5.5 0 0 1 .209-.675l5.969-3.144a.5.5 0 0 1 .675.209.5.5 0 0 1-.209.675l-5.969 3.145a.5.5 0 0 1-.675-.21zm.135-3.651a.5.5 0 0 1 .209-.675l6-3.161a.5.5 0 0 1 .676.209.5.5 0 0 1-.21.675l-6 3.161a.5.5 0 0 1-.675-.209zm.217-3.172a.5.5 0 0 1 .21-.676l5.782-3.046a.5.5 0 0 1 .676.209.5.5 0 0 1-.21.675l-5.782 3.047a.5.5 0 0 1-.676-.209zm0-3.495a.5.5 0 0 1 .21-.676l5.782-3.046a.5.5 0 0 1 .466.885l-5.782 3.046a.5.5 0 0 1-.676-.209zm-6.217-6.293a.5.5 0 0 1 .21-.676l5.482-2.888a.5.5 0 1 1 .466.885l-5.482 2.888a.5.5 0 0 1-.676-.209zm3.575 1.611a.5.5 0 0 1 .209-.675l6.426-3.385a.5.5 0 0 1 .466.885l-6.426 3.385a.5.5 0 0 1-.675-.21zm-14.575-5.949a.5.5 0 0 1 .209-.675l4.842-2.551a.5.5 0 1 1 .466.885l-4.842 2.55a.5.5 0 0 1-.675-.209zm3.5 1.651a.5.5 0 0 1 .209-.676l5.128-2.701a.5.5 0 1 1 .466.885l-5.128 2.701a.5.5 0 0 1-.675-.209zm3.34 1.298a.5.5 0 0 1 .209-.675l5.599-2.949a.5.5 0 0 1 .675.209.5.5 0 0 1-.209.675l-5.599 2.95a.5.5 0 0 1-.675-.21zm-18.34-6.99a.5.5 0 0 1 .209-.675l4.764-2.51a.5.5 0 1 1 .466.885l-4.764 2.51a.5.5 0 0 1-.675-.21zm4 1.388a.5.5 0 0 1 .209-.676l4.551-2.397a.5.5 0 1 1 .466.885l-4.551 2.397a.5.5 0 0 1-.675-.209zm3 1.477a.5.5 0 0 1 .209-.675l5-2.634a.5.5 0 1 1 .466.885l-5 2.634a.5.5 0 0 1-.675-.21zm-18.622-6.875a.5.5 0 0 1 .209-.675l4.745-2.5a.5.5 0 1 1 .466.885l-4.745 2.5a.5.5 0 0 1-.675-.21zm3.622 1.587a.5.5 0 0 1 .209-.675l5-2.635a.5.5 0 1 1 .466.885l-5 2.634a.5.5 0 0 1-.675-.209zm3 1.478a.5.5 0 0 1 .209-.676l5.816-3.064a.5.5 0 1 1 .466.885l-5.816 3.064a.5.5 0 0 1-.675-.209zm-19-7.207a.5.5 0 0 1 .209-.675l5-2.635a.5.5 0 1 1 .466.885l-5 2.634a.5.5 0 0 1-.675-.209zm4 1.388a.5.5 0 0 1 .209-.676l4.5-2.371a.5.5 0 0 1 .466.885l-4.5 2.371a.5.5 0 0 1-.675-.209zm3.5 1.214a.5.5 0 0 1 .209-.676l4.938-2.601a.5.5 0 0 1 .675.209.5.5 0 0 1-.209.675l-4.938 2.602a.5.5 0 0 1-.675-.209zm-18.875-6.46a.5.5 0 0 1 .209-.675l4.876-2.568a.5.5 0 1 1 .466.885l-4.875 2.569a.5.5 0 0 1-.676-.209zm3.376 1.717a.5.5 0 0 1 .209-.675l5.156-2.716a.5.5 0 0 1 .466.885l-5.156 2.716a.5.5 0 0 1-.675-.209zm4.317.783a.5.5 0 0 1 .209-.675l4.183-2.203a.5.5 0 1 1 .466.885l-4.183 2.204a.5.5 0 0 1-.675-.209zm-19.318-6.508a.5.5 0 0 1 .209-.675l5-2.634a.5.5 0 1 1 .466.885l-5 2.634a.5.5 0 0 1-.676-.209zm3.5 1.651a.5.5 0 0 1 .209-.675l5.5-2.898a.5.5 0 1 1 .466.885l-5.5 2.898a.5.5 0 0 1-.676-.209zm4 .951a.5.5 0 0 1 .209-.675l4.938-2.602a.5.5 0 1 1 .466.885l-4.938 2.602a.5.5 0 0 1-.676-.209zm-12-3.812a.5.5 0 0 1 .209-.675l6-3.161a.5.5 0 1 1 .466.885l-6 3.161a.5.5 0 0 1-.675-.209zm-9.613 28.35c-2.682-2.682-5.774-1.907-6.982-.699-2.179 2.179-6.939 8.328-8.325 10.408-1.484 2.226-.655 4.419.031 5.79.8 1.601 2.253 3.92 3.654 5.99 1.41 2.083 2.723 3.846 3.242 4.365.195.195.407.421.616.645l.459.485c.363.374.731.719 1.13.998.776.543 1.678.845 2.912.536.617-.154 1.456-.575 2.443-1.206.977-.624 2.063-1.429 3.168-2.317a79.75 79.75 0 0 0 6.039-5.432c1.635-1.635 1.937-3.229 1.779-4.568-.144-1.228-.673-2.262-1.045-2.988l-.129-.255c-.137-.273-.585-.966-1.254-1.929a121.06 121.06 0 0 0-2.429-3.356c-1.845-2.466-3.941-5.098-5.311-6.467zm-7.689-1.406c1.588-1.589 5.313-2.384 8.396.698 1.426 1.427 3.561 4.111 5.404 6.576a121.83 121.83 0 0 1 2.449 3.385c.657.945 1.151 1.701 1.327 2.052l.122.24c.369.718.983 1.914 1.15 3.333.192 1.631-.205 3.532-2.065 5.392-1.593 1.593-3.878 3.702-6.12 5.504-1.121.901-2.238 1.731-3.256 2.381-1.008.644-1.958 1.138-2.739 1.334-1.561.39-2.757-.008-3.728-.688-.475-.332-.894-.729-1.273-1.12l-.498-.526-.568-.594c-.599-.599-1.966-2.448-3.363-4.512-1.407-2.078-2.89-4.441-3.72-6.103-.712-1.424-1.775-4.082.031-6.791 1.409-2.114 6.209-8.32 8.45-10.561z"/><path d="M35.351 119.523c-2.689-2.689-5.534-2.201-7.451-1.817-1.681.336-2.653.831-3.455 1.472-.41.328-.784.701-1.195 1.134l-.362.384-1.023 1.067-.707-.707.989-1.031.378-.402c.419-.441.831-.854 1.295-1.225.945-.757 2.071-1.31 3.884-1.673 1.961-.392 5.279-.983 8.354 2.091 1.426 1.427 3.561 4.111 5.404 6.575l2.449 3.385 1.327 2.053.122.24c.369.717.983 1.914 1.15 3.333.192 1.631-.205 3.532-2.065 5.392l-6.21 5.911-3.327 2.671c-1.024.721-1.996 1.279-2.791 1.478-2.825.706-5.072.744-6.636-.038l.447-.895c1.232.616 3.179.654 5.946-.037.603-.151 1.447-.614 2.458-1.325.997-.702 2.11-1.612 3.243-2.606l6.162-5.866c1.635-1.635 1.937-3.229 1.779-4.568-.144-1.228-.673-2.262-1.045-2.988l-.129-.255c-.137-.274-.585-.966-1.254-1.929l-2.429-3.357-5.311-6.467zm-9.511 3.244c.39-.247.836-.46 1.264-.46.47 0 .903.281 1.248.582.364.318.725.743 1.058 1.193.669.904 1.277 1.979 1.636 2.695l.161.323-4.866 4.866-4.058-5.681.236-.295c.477-.597 1.263-1.491 2.079-2.24.407-.375.834-.724 1.241-.983zm-2.301 3.556l2.93 4.101 3.519-3.519c-.347-.657-.848-1.507-1.381-2.228-.313-.423-.625-.784-.912-1.034-.306-.267-.502-.336-.591-.336-.131 0-.373.079-.728.305-.338.214-.716.52-1.1.874a20.32 20.32 0 0 0-1.736 1.837zm-3.37 1.991l4.093 5.731-4.148 4.148-.354-.354c-.734-.734-1.402-1.735-2.137-2.838l-.023-.034c-.851-1.276-.513-2.604.09-3.669.543-.959 1.357-1.809 1.904-2.381l.156-.163.417-.44zm-1.607 3.477c-.518.915-.676 1.8-.128 2.622l1.694 2.352 2.829-2.828-2.897-4.056c-.508.538-1.092 1.194-1.498 1.91zm15.6-2.011l.323.404 1.767 2.35.766 1.179.25.487c.056.132.122.311.122.49 0 1.228-.617 2.217-1.349 3.041-.368.413-.777.799-1.172 1.161l-.26.237-.86.807-.382.382-4.871-5.682 5.665-4.856zm-4.255 4.964l3.524 4.111.516-.474.247-.226 1.1-1.089c.661-.744 1.091-1.497 1.097-2.359-.002-.005-.01-.04-.041-.113a3.99 3.99 0 0 0-.197-.382 15.87 15.87 0 0 0-.719-1.105l-1.407-1.893-4.118 3.53zm-3.407 2.013l3.983 5.576-.135.269c-.154.308-.455.667-.796 1.009a10.65 10.65 0 0 1-1.23 1.052c-.447.326-.928.622-1.382.815-.426.181-.941.321-1.391.171-1.187-.396-1.966-1.187-2.53-2.032-.403-.604-.717-1.276-.984-1.846l-.27-.567-.177-.354 4.912-4.093zm-3.667 4.357l.14.298c.258.551.521 1.114.879 1.65.485.728 1.104 1.335 2.014 1.638.081.027.297.022.684-.142.359-.153.773-.403 1.183-.703a9.68 9.68 0 0 0 1.112-.949 5.3 5.3 0 0 0 .454-.511l-2.986-4.18-3.479 2.899z"/><path d="M40.043 139.705a.5.5 0 0 1 .251-.661l5.202-2.342a.5.5 0 1 1 .41.912l-5.202 2.342a.5.5 0 0 1-.661-.251zm1.716-3.528a.5.5 0 0 1 .209-.675l4-2.108a.5.5 0 1 1 .466.885l-4 2.107a.5.5 0 0 1-.675-.209zm-.5-3.231a.5.5 0 0 1 .209-.676l3-1.58a.5.5 0 1 1 .466.885l-3 1.58a.5.5 0 0 1-.675-.209zm-5.702-7.574a.5.5 0 0 1 .209-.675l3-1.581a.5.5 0 1 1 .466.885l-3 1.581a.5.5 0 0 1-.675-.21zm1.557 2.675a.5.5 0 0 1 .209-.676l3.443-1.813a.5.5 0 0 1 .675.209.5.5 0 0 1-.209.675l-3.443 1.814a.5.5 0 0 1-.675-.209zm1.443 2.298a.5.5 0 0 1 .209-.676l3.5-1.844a.5.5 0 1 1 .466.885l-3.5 1.844a.5.5 0 0 1-.675-.209zm-9-11.491a.5.5 0 0 1 .209-.675l2.563-1.35a.5.5 0 1 1 .466.885l-2.563 1.35a.5.5 0 0 1-.675-.21zm2.563 2.145a.5.5 0 0 1 .209-.675l2.937-1.548a.5.5 0 1 1 .466.885l-2.937 1.547a.5.5 0 0 1-.675-.209zm1.937 2.038a.5.5 0 0 1 .209-.676l3-1.58a.5.5 0 0 1 .675.209.5.5 0 0 1-.209.675l-3 1.581a.5.5 0 0 1-.675-.209zm-4.053 25.037a.5.5 0 0 1 .42-.568l5-.75a.5.5 0 1 1 .148.989l-5 .75a.5.5 0 0 1-.569-.421zm2.514-1.934a.5.5 0 0 1 .34-.62l6.5-1.894a.5.5 0 0 1 .28.96l-6.5 1.894a.5.5 0 0 1-.62-.34zm4.016-2.954a.5.5 0 0 1 .279-.65l2.394-.885.696-.246c.887-.318 1.741-.653 2.87-1.224a.5.5 0 1 1 .451.893 24.54 24.54 0 0 1-2.984 1.272l-.718.254-2.339.865a.5.5 0 0 1-.65-.279zm11.071 11.351a.5.5 0 0 1 .5.5l-.005.831c-.02 2.432-.039 4.86 1.37 7.049 2.019 3.137 5.692 3.683 8.712 4.132l.303.045c1.784.267 3.566.392 5.374.519l1.719.126c2.389.186 4.816.453 7.256 1.132 1.132.315 1.979.794 2.582 1.422s.938 1.378 1.09 2.179c.297 1.567-.09 3.392-.467 5.061a.5.5 0 1 1-.975-.221c.387-1.712.712-3.327.46-4.653-.122-.646-.379-1.207-.828-1.673s-1.125-.873-2.13-1.152c-2.344-.652-4.692-.913-7.065-1.098l-1.684-.123-5.479-.53-.398-.059c-2.937-.433-7.038-1.037-9.31-4.566-1.581-2.456-1.554-5.194-1.53-7.595l.006-.826a.5.5 0 0 1 .5-.5z"/><path d="M47.893 155.444zm-.535.81c-.767 1.325-1.272 2.791-1.798 4.316l-.143.415-1.209 3.071.575-.255.153-.068 2.616-1.184.222-.212c-.635.294-1.236.528-1.695.615a.5.5 0 0 1-.584-.398.5.5 0 0 1 .398-.584c.471-.09 1.246-.418 2.136-.868l2.562-1.422.177-.106c-.56-.3-1.263-.749-1.887-1.283-.393-.335-.767-.715-1.057-1.124-.198-.28-.366-.587-.466-.913zm4.443 2.657l-.095-.014-.087-.019-.024-.008c-.529-.245-1.357-.734-2.065-1.339-.353-.301-.663-.621-.89-.942s-.353-.619-.377-.879l-.015-.275-.005-.122-.016-.21a.83.83 0 0 0-.083-.281.58.58 0 0 0-.191-.211c-.111-.073-.238-.1-.359-.087a.68.68 0 0 0-.386.191c-.13.123-.272.323-.432.573-.984 1.539-1.58 3.269-2.154 4.937l-.149.432c-.505 1.459-1.021 2.861-1.787 4.125l-.121.074c-.071.046-.176.119-.254.217a.57.57 0 0 0-.125.309.53.53 0 0 0 .007.143l-.129.174a.5.5 0 0 0 .796.606l.223-.304c1.805.02 3.37-1.105 4.718-2.32l.32-.294 4.621-2.339 1.688-.582c.399-.153.699-.288.879-.413a.96.96 0 0 0 .156-.135c.047-.052.123-.152.149-.296a.55.55 0 0 0-.12-.45c-.082-.097-.178-.146-.235-.17-.113-.048-.239-.067-.332-.078l-.343-.02c-.291-.006-.68.007-1.075.019l-.612.017a.65.65 0 0 0-.046-.117c-.071-.08-.224-.176-.296-.198-.047-.009-.124-.013-.155-.011-.055.004-.097.018-.11.022-.049.015-.09.037-.09.037l-.039.022-.092.053-.266.163zm.291 1.025l-.671.411a11.31 11.31 0 0 0-.932.766l1.81-.964a.56.56 0 0 1 .089-.038l.526-.172-.089.002a13.57 13.57 0 0 1-.732-.005zm88.9-26.519a.5.5 0 0 1 .597-.38l2.401.526c3.396.737 6.827 1.481 10.174 2.53 1.339.42 2.943.933 4.371 1.736 1.434.806 2.735 1.928 3.425 3.589 1.143 2.753.833 5.603.295 8.351l-.407 1.943c-.453 2.089-.889 4.1-.837 6.07.033 1.266.468 2.207 1.147 2.938.69.743 1.653 1.292 2.769 1.72s2.347.722 3.553.974l.994.202c.842.169 1.65.331 2.336.517a.5.5 0 0 1 .352.613.5.5 0 0 1-.613.352c-.652-.176-1.409-.328-2.236-.494l-1.038-.211c-1.216-.254-2.514-.562-3.706-1.019s-2.31-1.076-3.143-1.974c-.845-.909-1.375-2.082-1.415-3.591-.055-2.103.417-4.278.876-6.39l.387-1.842c.531-2.717.785-5.313-.238-7.776-.574-1.382-1.671-2.358-2.991-3.1s-2.831-1.23-4.181-1.654c-3.298-1.034-6.675-1.767-10.067-2.503l-2.425-.53a.5.5 0 0 1-.38-.597z"/><path d="M140.817 129.559a.5.5 0 0 1 .677.204l.077.144 1.005.019 1.584.128.082.008.965.079c1.893.03 3.841.223 5.747.413l2.445.23c.056.004.152.021.25.087.111.075.184.187.213.309a.54.54 0 0 1-.048.368l-.001.002a1.09 1.09 0 0 1-.161.221c-.105.114-.263.262-.446.424l-1.454 1.213-2.699 2.119c-.558.422-1.097 1.072-1.582 1.76l-.951 1.47-.236.381c-.141.223-.285.445-.408.577a.84.84 0 0 1-.145.125.57.57 0 0 1-.364.097c-.226-.02-.363-.166-.426-.283a.67.67 0 0 1-.074-.249c-.012-.114-.002-.245.013-.371l.077-.489.082-.414a.53.53 0 0 1-.064.047.52.52 0 0 1-.333.071c-.137-.017-.233-.086-.259-.104l-.001-.001c-.074-.052-.141-.122-.19-.176-.207-.227-.543-.684-.907-1.208l-2.084-3.327-.024-.04-.065-.1-.206-.301-.458-.649-.109-.154-.538-.768-.177-.272-.066-.119c-.008-.017-.027-.057-.04-.107a.53.53 0 0 1-.018-.143c.001-.058.013-.221.155-.357.173-.166.391-.27.603-.338a2.84 2.84 0 0 1 .296-.077.5.5 0 0 1 .263-.449zm.172 1.39l-.267.046.433.615.108.153.464.657-.738-1.471zm4.19 6.538l.125-.548a.5.5 0 0 1 .599-.375.5.5 0 0 1 .375.6l-.036.155.411-.607c.503-.714 1.114-1.466 1.797-1.983l2.674-2.099 1.142-.943-1.46-.143-5.615-.403c-.234-.004-.606-.04-1.017-.081l-.112-.011-1.538-.125-.432-.016 2.362 4.97.607 1.32.115.279zm-.036 1.547zm32.784-105.356c3.555 1.867 7.377.775 11.203-.781a.5.5 0 1 1 .377.926c-3.822 1.554-8.048 2.839-12.045.739-2.039-1.071-3.402-2.854-4.613-4.671l-.732-1.118c-.947-1.463-1.862-2.874-3.04-4.019-1.131-1.1-2.705-2.245-4.392-2.951s-3.43-.947-4.944-.344c-.655.261-1.264.584-1.612.951-.168.177-.248.336-.269.477-.02.131.002.307.155.545a.5.5 0 1 1-.841.541c-.259-.404-.365-.821-.303-1.235.061-.404.273-.743.532-1.016.505-.534 1.289-.922 1.969-1.193 1.852-.736 3.881-.409 5.699.351 1.824.763 3.501 1.987 4.703 3.156 1.267 1.232 2.26 2.765 3.213 4.238l.694 1.062c1.2 1.8 2.446 3.395 4.246 4.34z"/><path d="M190.956 33.992l-4.342 2.876-2.875 1.583c-.384.167-.766.301-1.077.322-.153.01-.373 0-.567-.131-.231-.156-.309-.4-.307-.615.01-.862.438-1.696.879-2.407l.554-.843.133-.198.561-.903c.543-1.027.948-2.065 1.376-3.163l.173-.444a1.52 1.52 0 0 1 .17-.327.78.78 0 0 1 .312-.269c.353-.16.642.039.759.143s.227.255.295.349l.001.001.023.031.162.213c1.035 1.118 2.496 2.13 3.866 2.737l.258.11 1.378.595.4.191.154.086.077.052c.02.015.07.054.115.112a.51.51 0 0 1 .043.57.51.51 0 0 1-.248.217c-.063.026-.118.034-.148.037-.1.011-.199-.008-.242-.016-.121-.023-.299-.07-.537-.14a.5.5 0 0 1-.339-.338l-.958-.409-.049-.02zm-1.047-.49c-1.254-.662-2.509-1.59-3.457-2.614a2.56 2.56 0 0 1-.159-.195l-.07.18-1.424 3.269c-.171.325-.392.663-.614.993l-.141.208-.527.803c-.355.571-.614 1.099-.699 1.583a4.41 4.41 0 0 0 .522-.195c.723-.314 1.716-.88 2.748-1.517l3.821-2.516zm-7.346 4.274zm10.486-3.855z"/></g><use xlink:href="#G" class="B"/><path d="M235.728 169.216c-.208-.08-.36-.2-.456-.36-.096-.176-.152-.424-.168-.744a4.13 4.13 0 0 1 .096-.768l.216-1.104v-.096c.016-.048.024-.08.024-.096a2.63 2.63 0 0 0 .048-.288l.072-.288c.016-.08.024-.08.024 0l.168-.648.24-.864.216-.744.12-.384.096-.264.192-.552.744-1.896c.224-.528.424-.912.6-1.152.016-.048.04-.104.072-.168l.072-.192.048-.288a.94.94 0 0 1 .12-.216 2.35 2.35 0 0 1 .144-.24l.216-.408.096-.264.36-.696.312-.552a3.51 3.51 0 0 1 .288-.504c.128-.208.224-.344.288-.408l-.024-.024c.08-.144.176-.224.288-.24.128-.032.264-.048.408-.048.224 0 .352.032.384.096s.048.208.048.432l-.024.528c0 .096-.064.208-.192.336h.024c.032-.032.024.008-.024.12l-.12.216-.12.264c-.032.096-.072.168-.12.216-.048.064-.168.28-.36.648l-.624 1.248-.648 1.392-.456 1.032-.12.36c-.032.064-.048.112-.048.144l-.144.336c-.048.112-.096.208-.144.288l-.408 1.392-.12.504-.216.528-.144.456a2.22 2.22 0 0 0-.072.264c-.016.08-.048.144-.096.192 0 .016-.008.04-.024.072v.048l-.216 1.08a13.62 13.62 0 0 0-.168 1.464c0 .016-.008.032-.024.048v.048c-.048.336-.128.56-.24.672s-.28.136-.504.072z" class="B"/><use xlink:href="#H" class="B"/><path d="M219.27 168.856a1.67 1.67 0 0 1-.552-.504c-.144-.224-.248-.512-.312-.864-.048-.368-.072-.824-.072-1.368v-.792-.36l-.24.312c-.16.208-.352.488-.576.84-.352.656-.712 1.2-1.08 1.632-.368.416-.64.656-.816.72-.08.032-.2.04-.36.024l-.504-.12a2.72 2.72 0 0 1-.432-.216c-.128-.08-.208-.168-.24-.264-.032-.08-.048-.256-.048-.528l.024-.936.12-.96c.048-.304.104-.52.168-.648 0-.048.008-.096.024-.144.032-.064.024-.128-.024-.192l.144-.528.384-1.248.432-1.344.312-.864c0-.128.016-.264.048-.408.048-.144.072-.248.072-.312 0-.144.08-.296.24-.456.176-.096.312-.112.408-.048.112.048.248.136.408.264.16.16.264.288.312.384.064.096.064.232 0 .408-.048.176-.152.464-.312.864l-.456 1.128-.384 1.08-.216.744c0 .112-.024.224-.072.336a.79.79 0 0 0-.048.24c-.048.048-.08.104-.096.168v.192c0 .064-.024.176-.072.336a1.51 1.51 0 0 0-.072.48c-.064.304-.032.48.096.528.144.032.28.016.408-.048.048-.064.152-.176.312-.336.176-.16.32-.328.432-.504.064-.192.128-.32.192-.384l.192-.168c.048-.048.072-.136.072-.264 0-.064.072-.192.216-.384l.504-.696.624-1.104a4.49 4.49 0 0 1 .384-.576c.144-.176.272-.392.384-.648l.144-.264c.048-.064.16-.096.336-.096s.304.016.384.048.144.136.192.312c.128.112.2.232.216.36.016.112.024.224.024.336a.43.43 0 0 0-.12.24v.12c0 .048-.032.192-.096.432a2.76 2.76 0 0 1-.24.696 17.22 17.22 0 0 0-.312 1.752c-.08.608-.12 1.136-.12 1.584.016.432.064.68.144.744.096.064.28-.088.552-.456l.96-1.344c.08-.128.248-.336.504-.624s.432-.544.528-.768c0-.08.048-.208.144-.384l.288-.6c.096-.224.144-.408.144-.552-.016-.032.064-.176.24-.432s.344-.584.504-.984c.08-.32.224-.552.432-.696.224-.144.424-.192.6-.144.176.032.24.184.192.456-.08.544-.264 1.176-.552 1.896-.272.704-.592 1.416-.96 2.136-.352.704-.704 1.328-1.056 1.872-.128.112-.24.248-.336.408-.096.144-.144.248-.144.312 0 .032-.072.112-.216.24l-.48.408-.6.408c-.208.16-.4.248-.576.264s-.392-.032-.648-.144z" class="B"/><use xlink:href="#I" class="B"/><use xlink:href="#J" class="B"/><path d="M192.797 168.232c-.128-.128-.224-.288-.288-.48a1.76 1.76 0 0 1-.048-.576c.016-.192.056-.352.12-.48 0-.128.016-.224.048-.288.048-.08.064-.152.048-.216s0-.176.048-.336l.144-.456.36-.912.36-1.08.288-.912.144-.48c0-.192.128-.296.384-.312.192-.064.336-.064.432 0 .096.048.224.2.384.456.128.128.176.32.144.576s-.136.576-.312.96c-.064.128-.144.312-.24.552-.08.24-.136.456-.168.648-.064.128-.144.312-.24.552l-.216.648c-.032.08-.064.2-.096.36l-.12.48a1.77 1.77 0 0 1-.192.432c-.144.656-.28 1.04-.408 1.152-.112.112-.304.016-.576-.288zm2.328-9.744c-.08-.08-.152-.192-.216-.336-.064-.16-.104-.304-.12-.432-.016-.144 0-.216.048-.216.128-.016.28-.152.456-.408s.248-.48.216-.672a.23.23 0 0 1 .072-.168c.048-.064.104-.104.168-.12.192-.128.376-.144.552-.048.192.08.368.248.528.504.144.304.184.56.12.768-.064.192-.24.464-.528.816-.24.32-.464.496-.672.528-.192.032-.4-.04-.624-.216zm-3.861 2.928c-.048.112-.232.2-.552.264s-.832.136-1.536.216l-.936.048-1.32.048-1.272.024-.792-.072-.12.12c-.064.08-.096.184-.096.312-.112.192-.256.488-.432.888l-.552 1.32-.552 1.44-.408 1.248c-.112.352-.168.592-.168.72-.144.384-.232.712-.264.984s-.088.432-.168.48c-.016.064-.12.08-.312.048a.8.8 0 0 1-.48-.264c-.192-.144-.304-.272-.336-.384-.016-.128.032-.368.144-.72l.24-.912.408-1.368.48-1.44c.176-.48.344-.872.504-1.176.176-.304.288-.576.336-.816.048-.256.112-.488.192-.696-.016-.176-.016-.296 0-.36s.08-.16.192-.288c.08-.064.176-.176.288-.336.128-.176.272-.44.432-.792l.216-.648.312-.864.264-.768.12-.336c.032-.064.08-.184.144-.36l.144-.456.144-.552c.048-.144.04-.216-.024-.216-.128.032-.384.056-.768.072l-.432.072a.89.89 0 0 0-.216.024.95.95 0 0 1-.432-.048c-.128-.048-.192-.144-.192-.288.032-.256.12-.464.264-.624a.86.86 0 0 1 .6-.288 2.39 2.39 0 0 1 .36-.072l.576-.144.696-.144c.176-.048.312-.056.408-.024l.216-.144c.064-.064.096-.128.096-.192 0-.08.032-.136.096-.168.08-.048.168-.072.264-.072a.59.59 0 0 1 .288.024c.112.032.192.088.24.168.032.048.104.088.216.12s.312.032.6 0l1.272-.24 1.08-.096c.448-.032.8-.008 1.056.072a2.91 2.91 0 0 1 .72-.048c.224 0 .376-.032.456-.096l.72.144c.16.016.288.064.384.144.064.064.08.128.048.192l-.024.072c-.064-.032-.056-.024.024.024.08.032.136.064.168.096.112.048.184.112.216.192.032.064.048.128.048.192a.53.53 0 0 1-.024.168.28.28 0 0 1-.24.264c-.144.016-.504.016-1.08 0a10.96 10.96 0 0 0-2.04-.096c-.656.016-1.424.088-2.304.216a3.48 3.48 0 0 0-.864.144l-.408.096c-.064 0-.176.112-.336.336-.16.208-.312.52-.456.936-.064.112-.176.368-.336.768l-.528 1.296-.48 1.224-.24.576c.224.064.584.096 1.08.096l1.68-.048 1.704-.144.744-.12c.272-.048.448-.056.528-.024.08.048.152.144.216.288a1.2 1.2 0 0 1 .12.408c.032.144.024.264-.024.36z" class="B"/><use xlink:href="#K" class="B"/><path d="M82.865 189.664c-.8 0-1.384-.288-1.752-.864-.112-.16-.168-.32-.168-.48.016-.176.064-.296.144-.36.096-.064.208-.008.336.168.224.128.544.192.96.192.208 0 .424-.016.648-.048.224-.048.448-.112.672-.192.24-.112.4-.208.48-.288.08-.096.064-.176-.048-.24h.024c-.416-.112-.84-.288-1.272-.528a6.57 6.57 0 0 1-1.08-.816c-.304-.304-.48-.576-.528-.816-.128-.496-.096-1 .096-1.512.192-.528.464-.992.816-1.392l.48-.288c.192-.128.344-.2.456-.216v.024c.304-.32.672-.576 1.104-.768l1.416-.528.36-.048c.192-.032.352-.048.48-.048-.016 0 .016.016.096.048l.216.048c.096.048.176.072.24.072.208.032.4.128.576.288s.312.352.408.576c.112.208.152.408.12.6-.032.304-.128.576-.288.816-.144.24-.32.376-.528.408.032-.016.008-.04-.072-.072a2.53 2.53 0 0 0-.216-.144l-.072.048-.024-.048c0-.048-.016-.104-.048-.168a.69.69 0 0 1-.072-.312c0-.128.008-.264.024-.408.032-.176.032-.28 0-.312-.016-.032-.12-.056-.312-.072-.224-.048-.552-.008-.984.12-.416.128-.768.304-1.056.528a7.56 7.56 0 0 0-.888.648c-.24.192-.432.384-.576.576a2.95 2.95 0 0 0-.384.624l-.216.336c-.048.096-.072.184-.072.264 0 .176.128.36.384.552.272.176.672.384 1.2.624.416.176.768.368 1.056.576s.488.448.6.72c.032.064.04.144.024.24 0 .08-.016.136-.048.168.032.032.048.056.048.072v-.024c.128.192.128.392 0 .6-.112.208-.312.392-.6.552-.272.144-.608.256-1.008.336h.024a4.39 4.39 0 0 1-.624.144l-.552.024z" class="B"/><use xlink:href="#I" x="-132.805" y="21" class="B"/><path d="M69.489 189.712c-.16 0-.328-.088-.504-.264-.16-.176-.304-.392-.432-.648-.112-.272-.168-.528-.168-.768s.056-.688.168-1.344l.456-1.992c.128-.416.168-.656.12-.72s-.264.024-.648.264a4.25 4.25 0 0 0-.6.36 2.15 2.15 0 0 0-.456.384l-.36.312c-.16.144-.328.28-.504.408l-.792.672-.96.864-.696.672c-.032.064-.08.12-.144.168a.53.53 0 0 1-.216.096.84.84 0 0 1-.264-.048c-.176-.048-.344-.152-.504-.312a.8.8 0 0 1-.216-.552c0-.16.064-.432.192-.816l.504-1.44.768-1.776a1.2 1.2 0 0 0 .12-.288 3.09 3.09 0 0 0 .072-.408c.032-.144.048-.28.048-.408a1.22 1.22 0 0 1 .024-.24l.096-.264c.048-.096.088-.16.12-.192.064-.128.176-.16.336-.096.16.048.296.16.408.336a1.1 1.1 0 0 1 .36.84c.016.336-.064.752-.24 1.248a3.29 3.29 0 0 0-.168.336l-.096.264c-.032.064-.056.12-.072.168l-.024.048c.064 0 .208-.072.432-.216l.792-.48.624-.48a4.62 4.62 0 0 1 .48-.36c.128-.096.208-.144.24-.144.064 0 .144-.024.24-.072s.176-.104.24-.168.112-.096.144-.096l.072-.024h.096c.064-.016.128-.056.192-.12.128-.096.296-.12.504-.072.208.032.4.112.576.24s.264.272.264.432c0 .064.016.12.048.168l.072.048c.128 0 .208.2.24.6a2.54 2.54 0 0 1-.12 1.152c0 .24-.048.528-.144.864l-.216.96c-.128.4-.216.752-.264 1.056s-.056.56-.024.768.088.376.168.504c.064.112.064.24 0 .384-.064.128-.192.192-.384.192z" class="B"/><use xlink:href="#J" x="-143.609" y="21" class="B"/><path d="M43.092 189.136c-.064-.128-.144-.224-.24-.288-.096-.08-.144-.152-.144-.216a.79.79 0 0 0-.024-.192c0-.08-.032-.152-.096-.216-.08-.096-.072-.312.024-.648.096-.352.256-.776.48-1.272l.792-1.608c.128-.128.256-.296.384-.504s.224-.344.288-.408a.23.23 0 0 1 .072-.168c.048-.064.104-.096.168-.096v-.144c0-.08.072-.216.216-.408.16-.192.352-.4.576-.624.224-.24.456-.464.696-.672.24-.224.44-.384.6-.48a2.45 2.45 0 0 1 1.032-.408c.368-.048.68.032.936.24l.24.24.384.384.48.408.888.792-.432 1.2c-.208.64-.264 1.2-.168 1.68.112.48.272.896.48 1.248.08.176.24.344.48.504.256.16.496.256.72.288a.78.78 0 0 1 .36.144c.112.08.168.208.168.384 0 .16-.032.288-.096.384s-.176.16-.336.192c-.528.064-1.024-.064-1.488-.384-.448-.32-.864-.848-1.248-1.584-.064-.096-.152-.272-.264-.528l-.168-.528-.36.456-.408.456c-1.136 1.152-2.12 1.928-2.952 2.328-.816.384-1.496.4-2.04.048zm.864-1.344c0 .112.168.112.504 0 .352-.128.728-.352 1.128-.672l1.632-1.536c.56-.56 1.008-1.08 1.344-1.56l.528-.864c-.16-.368-.336-.616-.528-.744-.176-.144-.328-.216-.456-.216-.208 0-.52.192-.936.576-.4.384-.832.896-1.296 1.536s-.904 1.344-1.32 2.112l-.432.936-.168.432zm-13.836 4.2l-.072-.048a1.66 1.66 0 0 0-.192-.048 1.01 1.01 0 0 0-.24-.024c-.256-.064-.44-.208-.552-.432a.94.94 0 0 1-.072-.696c.064-.064.112-.2.144-.408s.048-.376.048-.504l.12-.264.12-.48.24-1.128.408-1.584.456-1.608.384-1.296c.128-.352.216-.552.264-.6v-.072-.192l.024-.216c.032-.16.112-.336.24-.528.064-.176.12-.368.168-.576s.072-.344.072-.408c.064-.08.152-.272.264-.576l.36-.936.312-.816.312-.744.144-.312v-.096-.024c.064-.064.216-.384.456-.96l1.032-2.28.24-.432c.096-.16.144-.272.144-.336.08-.128.192-.184.336-.168.144 0 .288.048.432.144.16.096.28.232.36.408l.24.384-.864 1.728-.648 1.224c-.16.368-.24.584-.24.648l-.144.384-.336.912-.336.96-.504 1.224c-.144.32-.216.512-.216.576 0-.032.176-.056.528-.072l1.344-.024h1.656l1.512-.024.912-.072 1.248-.12.816-2.472.504-1.632.552-1.632c.256-.736.456-1.192.6-1.368s.312-.264.504-.264c.048 0 .112.016.192.048.096.016.184.056.264.12.096.048.16.12.192.216.192.176.28.376.264.6 0 .224-.128.52-.384.888a7.64 7.64 0 0 0-.648 1.416l-.432 1.224a1.38 1.38 0 0 1-.072.48c-.048.112-.104.2-.168.264-.032.032-.096.152-.192.36l-.264.624c-.08.208-.12.336-.12.384 0 .112-.024.248-.072.408s-.104.272-.168.336l-.216.72-.384 1.368-.456 1.512-.432 1.2c0 .112-.04.256-.12.432-.08.16-.12.304-.12.432l-.24.72c-.096.288-.144.472-.144.552l-.264 1.128-.216.984-.072.504c-.064.064-.16.072-.288.024l-.456-.168c-.304-.176-.488-.368-.552-.576-.048-.192.016-.472.192-.84.08-.128.176-.44.288-.936l.384-1.512c.096-.24.2-.56.312-.96l.336-1.248.288-1.08c.08-.304.136-.472.168-.504v-.168-.072c-.032-.032-.232-.056-.6-.072-.368-.032-.824-.04-1.368-.024l-1.704.048-1.56.12h-.6-.528-.456-.168l-.168.504-.336 1.056-.408 1.248-.336 1.152-.168.72-.264 1.08-.336 1.32-.312 1.2-.168.648z" class="B"/><use xlink:href="#K" x="56.696" y="-162" class="B"/><use xlink:href="#L" class="B"/><path d="M131.943 29.2c-.528-.08-.888-.28-1.08-.6-.176-.304-.216-.776-.12-1.416a3.53 3.53 0 0 0 .168-.816c.032-.256.104-.416.216-.48l.024-.072c.032-.048.024-.096-.024-.144 0-.208.072-.496.216-.864l.12-.336.096-.216c-.08-.128-.08-.232 0-.312s.16-.152.24-.216c.096-.08.104-.168.024-.264-.032-.064.008-.208.12-.432l.384-.744c.144-.256.24-.456.288-.6 0-.032.04-.144.12-.336l.288-.672.312-.696.216-.408c.16-.08.096-.136-.192-.168s-.592-.04-.912-.024l-1.2-.072c-.288-.032-.528-.104-.72-.216-.192-.224-.264-.384-.216-.48.064-.112.256-.176.576-.192l.48-.024c.128 0 .288-.008.48-.024l.96-.12 1.224-.096.072-.408.312-.552c.096-.176.176-.352.24-.528s.112-.36.144-.552l.216-.384c.144-.272.232-.552.264-.84l.504-.864.264-.504c.176-.144.296-.216.36-.216.08 0 .24.08.48.24.144.08.272.176.384.288s.184.232.216.36c.032.112-.016.224-.144.336-.032.064-.08.184-.144.36l-.144.408c-.096.112-.216.296-.36.552-.128.24-.216.488-.264.744l-.36.744c-.112.208-.2.312-.264.312.032.16.128.24.288.24l.792-.048.624-.096c.128-.048.272-.032.432.048a1.44 1.44 0 0 1 .192.384.72.72 0 0 1 .024.408c-.016.112-.08.192-.192.24-.08 0-.248.048-.504.144-.24.08-.544.128-.912.144l-1.272.12-.408.816-.288.576c-.08.16-.136.256-.168.288 0 .096-.056.24-.168.432l-.312.624c-.096.272-.208.52-.336.744l-.168.336c-.064 0-.096.048-.096.144.08.192.056.336-.072.432-.08.048-.152.12-.216.216l-.072.12c.064.064.072.144.024.24a1.76 1.76 0 0 1-.144.312c0 .128-.04.312-.12.552-.064.24-.136.464-.216.672l.048.552c.016.08.056.112.12.096a.49.49 0 0 0 .216 0 .79.79 0 0 1 .192-.024c.224-.096.104.464-.36 1.68l-.528.864c-.096.192-.184.288-.264.288z" class="B"/><use xlink:href="#H" x="-105.921" y="-141" class="B"/><path d="M113.472 32.512c-.176.016-.448-.024-.816-.12a5.61 5.61 0 0 1-.792-.264c-.208-.16-.416-.376-.624-.648s-.376-.552-.504-.84c-.112-.272-.16-.48-.144-.624.016-.128.136-.152.36-.072.24.08.4.184.48.312a3.75 3.75 0 0 0 .504.504c.192.16.384.28.576.36.192.096.344.136.456.12.4-.064.728-.264.984-.6.272-.32.512-.728.72-1.224l.288-.888a6.47 6.47 0 0 0 .216-.768l.288-1.2.288-1.224c.064-.256.096-.424.096-.504s-.024-.136-.072-.168l-.312.168-.696.36-.552.312a5.68 5.68 0 0 1-1.32.264c-.432.032-.768.008-1.008-.072-.112-.048-.232-.16-.36-.336-.112-.176-.208-.368-.288-.576-.064-.224-.088-.416-.072-.576.016-.128.088-.32.216-.576l.432-.816.456-.72c.144-.208.232-.312.264-.312.064 0 .096-.024.096-.072a.53.53 0 0 0 .024-.168c.016-.064.136-.2.36-.408l.96-.816c.56-.512 1.064-.904 1.512-1.176s.864-.424 1.248-.456c.112.016.216.024.312.024h.168l.144.096.432.192c.24.096.456.264.648.504.192.224.344.488.456.792.128.288.2.576.216.864a2.94 2.94 0 0 1-.24 1.032c-.128.336-.256.496-.384.48s-.288.04-.48.168c-.176.128-.264.224-.264.288s-.024.144-.072.24c-.032.096-.136.248-.312.456l-.144.648-.24 1.152-.264 1.176-.12.648-.12.432c-.048.208-.12.448-.216.72l-.264.768c-.064.464-.152.808-.264 1.032-.096.24-.256.496-.48.768-.24.4-.528.712-.864.936-.336.24-.64.376-.912.408zm-.984-8.064c.032.16.248.216.648.168a3.95 3.95 0 0 0 1.2-.408l.96-.432c.288-.112.488-.272.6-.48a3.36 3.36 0 0 0 .24-.48l.24-.696c.016-.064.056-.136.12-.216.08-.096.152-.152.216-.168a.39.39 0 0 1 .192 0c.08.016.176.048.288.096.08-.032.136-.112.168-.24.048-.128.056-.272.024-.432-.016-.112-.096-.264-.24-.456a1.54 1.54 0 0 0-.552-.456c-.24-.128-.52-.048-.84.24l-1.176 1.056-1.056 1.056c-.336.368-.608.712-.816 1.032-.192.32-.264.592-.216.816z" class="B"/><use xlink:href="#I" x="-102.055" y="-141" class="B"/><use xlink:href="#G" x="-140.211" y="-141" class="B"/><use xlink:href="#L" x="-46.219" class="B"/><path d="M80.4 30.28c-.304.048-.584.072-.84.072-.256.016-.632-.04-1.128-.168-.256-.08-.44-.176-.552-.288l-.504-.624c-.176-.256-.304-.496-.384-.72-.064-.208-.072-.376-.024-.504.048-.112.152-.144.312-.096.048.016.12.064.216.144.112.096.216.208.312.336.224.24.496.4.816.48s.744.088 1.272.024l.816-.216c.32-.08.632-.184.936-.312s.544-.256.72-.384l2.04-1.368.768-.504c.032-.064.088-.112.168-.144.096-.048.208-.096.336-.144l.456-.456.624-.624.384-.36c.032-.144.064-.256.096-.336.032-.096.048-.192.048-.288.128-.128.296-.392.504-.792l.672-1.368c.224-.512.384-.976.48-1.392.224-1.12.28-2.064.168-2.832s-.344-1.424-.696-1.968a5.93 5.93 0 0 0-1.272-1.488 4.08 4.08 0 0 0-.744-.456c-.304-.176-.624-.328-.96-.456l-.888-.312c-.24-.08-.384-.112-.432-.096-.064.016-.2.272-.408.768l-.696 1.848-.888 2.4-.864 2.4-.312.96-.288.888c-.08.24-.12.4-.12.48-.176.272-.32.632-.432 1.08-.096.448-.208 1.192-.336 2.232l-.312 1.248c-.064.272-.128.4-.192.384l-.024.024-.072.072c0 .096-.064.144-.192.144a1.37 1.37 0 0 1-.456-.096c-.16-.08-.288-.168-.384-.264-.048-.176-.08-.344-.096-.504 0-.16.064-.472.192-.936l.288-1.104.408-1.368.408-1.32.288-.912c.112-.272.272-.784.48-1.536l.384-1.248.408-1.104.264-.648.36-1.056.624-1.656.168-.792-.264-.12c-.192.064-.344.088-.456.072l-.192-.072c-.096.032-.232.008-.408-.072s-.336-.184-.48-.312c-.128-.128-.208-.24-.24-.336-.032-.064-.056-.144-.072-.24v-.168c.016-.096.136-.184.36-.264.224-.096.512-.176.864-.24.368-.064.76-.104 1.176-.12a8.12 8.12 0 0 1 1.248 0c.416.032.808.12 1.176.264l1.2.456c.512.192 1.048.528 1.608 1.008.576.464 1.096 1.016 1.56 1.656.48.64.8 1.312.96 2.016a8.07 8.07 0 0 1 .144.816c.048.352.072.696.072 1.032.016.32-.016.528-.096.624-.032.064-.056.144-.072.24 0 .08.032.136.096.168l-.168.552-.264.792c-.032.416-.128.848-.288 1.296a13.19 13.19 0 0 1-.528 1.272l-.528.984c-.064 0-.128.016-.192.048-.048.016-.04.032.024.048 0 .08-.088.232-.264.456-.064.048-.168.168-.312.36-.128.176-.232.296-.312.36-.016.112-.064.208-.144.288-.08.064-.152.096-.216.096h-.048c-.016 0-.024.032-.024.096-.128.192-.328.424-.6.696l-.936.816a12.72 12.72 0 0 1-1.056.768c-.352.24-.688.424-1.008.552a2.17 2.17 0 0 1-.504.264l-.504.24c-.08.064-.256.152-.528.264a9.31 9.31 0 0 1-.888.36c-.304.112-.576.192-.816.24z" class="B"/><defs><linearGradient id="A" x1="300.22" y1="51.526" x2="255.595" y2="17.114" xlink:href="#M"><stop offset=".088" stop-color="#72c8e6"/><stop offset=".28" stop-color="#3e7bfa"/></linearGradient><linearGradient id="B" x1="198.77" y1="60.448" x2="154.144" y2="26.036" xlink:href="#M"><stop offset=".088" stop-color="#72c8e6"/><stop offset=".28" stop-color="#3e7bfa"/></linearGradient><linearGradient id="C" x1="244.337" y1="12.099" x2="208.772" y2="-16.378" xlink:href="#M"><stop offset=".088" stop-color="#72c8e6"/><stop offset=".28" stop-color="#3e7bfa"/></linearGradient><radialGradient id="D" cx="0" cy="0" r="1" gradientTransform="translate(75.5282 122.759) rotate(27.4411) scale(81.5922 123.538)" xlink:href="#M"><stop stop-color="#939292"/><stop offset="1" stop-color="#939292" stop-opacity="0"/></radialGradient><radialGradient id="E" cx="0" cy="0" r="1" gradientTransform="translate(80.9428 123.057) rotate(85.3205) scale(52.5838 68.6806)" xlink:href="#M"><stop stop-color="#939292"/><stop offset="1" stop-color="#939292" stop-opacity="0"/></radialGradient><path id="F" d="M288.553 40.766a.5.5 0 0 1 .214-.666l1.129-.534 1.081-.511a.5.5 0 0 1 .447.894l-1.118.529-1.092.516a.5.5 0 0 1-.661-.229zm2.003 2.505a.5.5 0 0 1 .211-.671l1.121-.56 1.079-.539a.5.5 0 1 1 .457.89l-1.1.549-1.1.549a.5.5 0 0 1-.668-.219zm1.517 2.531a.5.5 0 0 1 .168-.687l2.191-1.326a.5.5 0 1 1 .518.855l-2.191 1.326a.5.5 0 0 1-.686-.169z"/><path id="G" d="M240.48 169c-.304.08-.552.016-.744-.192-.176-.208-.28-.528-.312-.96s.016-.944.144-1.536a4.56 4.56 0 0 0 .192-.552 2 2 0 0 0 .072-.456c.032-.16.096-.392.192-.696l.312-.984.312-.888.216-.504c.064 0 .12-.056.168-.168s.072-.224.072-.336a1.52 1.52 0 0 1 .072-.432 1.03 1.03 0 0 1 .192-.336.84.84 0 0 1 .048-.264c.048-.112.072-.2.072-.264s.016-.128.048-.192c.048-.064.072-.128.072-.192.112-.208.256-.536.432-.984l.6-1.536.624-1.656.456-1.368c.128-.384.192-.616.192-.696 0-.128.032-.224.096-.288s.16-.096.288-.096c.048-.048.104-.08.168-.096.08-.016.152-.024.216-.024l.096.096.288.288a.59.59 0 0 1 .216.384c.032.144.048.312.048.504 0 .208-.024.392-.072.552s-.144.392-.288.696l-.672 1.416-.408.912c-.144.272-.216.44-.216.504s-.032.16-.096.288l-.168.48-.264.576-.36.792-.288.72c-.08.192-.12.304-.12.336a.79.79 0 0 1-.024.192c0 .064-.032.128-.096.192-.064 0-.104.048-.12.144v.12c0 .16-.128.584-.384 1.272l-.72 2.424c-.208.736-.312 1.328-.312 1.776l-.024.768c-.016.112-.088.2-.216.264z"/><path id="H" d="M227.349 168.208c-.192.032-.4 0-.624-.096a1.9 1.9 0 0 1-.6-.408c-.16-.176-.264-.36-.312-.552-.064-.336-.024-.752.12-1.248.16-.512.384-1.048.672-1.608a15.75 15.75 0 0 1 1.008-1.656c.384-.528.776-.984 1.176-1.368.416-.4.8-.672 1.152-.816.176-.112.312-.184.408-.216a.49.49 0 0 1 .336-.024c.128.032.312.112.552.24.224.064.392.136.504.216s.256.24.432.48c.128.24.224.48.288.72a8.08 8.08 0 0 1 .168.816c.128.4.176.664.144.792-.032.112-.08.2-.144.264-.128.16-.16.24-.096.24l-.024.096c0 .048-.032.128-.096.24-.112.352-.2.72-.264 1.104-.048.368-.04.672.024.912.128.352.36.56.696.624s.68-.08 1.032-.432l.504-.336c.16-.112.24-.104.24.024l.072.072c.048.032.104.048.168.048.08 0 .128.032.144.096.032.064.032.152 0 .264a.96.96 0 0 1-.144.336c-.24.24-.36.4-.36.48l-.096.096-.264.24c-.288.176-.656.264-1.104.264-.432 0-.768-.088-1.008-.264s-.464-.416-.672-.72c-.192-.304-.32-.568-.384-.792l-.12-.24-.696.456a5.9 5.9 0 0 1-.576.504l-.384.336c-.048.064-.104.12-.168.168a.23.23 0 0 1-.168.072h-.168-.072c0 .064-.08.144-.24.24a2.02 2.02 0 0 1-.528.24c-.192.064-.368.096-.528.096zm-.24-1.296c.096 0 .264-.072.504-.216l.84-.552c.32-.208.6-.416.84-.624.256-.208.432-.368.528-.48l.312-.312.384-.408c.368-.416.624-.872.768-1.368.144-.512.128-.912-.048-1.2-.064-.176-.144-.272-.24-.288s-.296.04-.6.168c-.192.112-.432.328-.72.648l-.888 1.08-.864 1.248c-.272.432-.496.832-.672 1.2s-.264.656-.264.864c0 .064.016.12.048.168l.072.072z"/><path id="I" d="M207.962 169.072a2.16 2.16 0 0 1-1.728-.792c-.448-.544-.664-1.216-.648-2.016a8.23 8.23 0 0 1 .336-1.848c.208-.672.48-1.312.816-1.92.336-.624.704-1.168 1.104-1.632s.816-.792 1.248-.984a2.73 2.73 0 0 1 .504-.192c.192-.048.384-.072.576-.072.176 0 .36.032.552.096a2.37 2.37 0 0 1 .48.168c.272.112.48.248.624.408s.272.408.384.744l.072.648c0 .128-.04.32-.12.576-.192.576-.44 1.072-.744 1.488s-.712.768-1.224 1.056a1.7 1.7 0 0 1-.456.192c-.16.032-.328.048-.504.048-.32 0-.632-.056-.936-.168a1.7 1.7 0 0 1-.696-.552l-.168-.192-.072.192-.384 1.2a4.78 4.78 0 0 0-.12 1.008 3.08 3.08 0 0 0 .048.552 1.7 1.7 0 0 0 .192.456c.064.096.168.168.312.216.16.032.328.048.504.048h.336c.128-.016.248-.048.36-.096.272-.096.488-.2.648-.312l.528-.36.096-.048h-.024c.192-.096.36-.192.504-.288l.24-.144c.064 0 .128-.04.192-.12.128-.064.288-.04.48.072.208.112.312.256.312.432-.016.08-.088.208-.216.384-.128.16-.272.312-.432.456-.144.144-.264.224-.36.24-.016.016-.072.048-.168.096-.096.032-.16.064-.192.096h.024c-.144.192-.288.288-.432.288h-.192c-.064.112-.272.24-.624.384a3.01 3.01 0 0 1-1.032.192zm1.08-5.28c.288 0 .536-.08.744-.24a3.27 3.27 0 0 0 .576-.576c.32-.432.504-.848.552-1.248.064-.416.016-.704-.144-.864-.096-.048-.184-.072-.264-.072-.064-.016-.2.008-.408.072-.144.032-.344.152-.6.36a10.07 10.07 0 0 0-.768.696l-.552.648-.312.504a1.03 1.03 0 0 1 .36-.072c.128-.016.2-.008.216.024 0 .144.024.28.072.408a.91.91 0 0 0 .216.264.55.55 0 0 0 .312.096z"/><path id="J" d="M197.465 168.16c-.144-.112-.248-.224-.312-.336-.048-.112-.048-.328 0-.648.048-.448.112-.84.192-1.176l.288-1.2c.032-.192.12-.52.264-.984l.576-1.512.672-1.536c.224-.496.416-.864.576-1.104.128-.096.28-.136.456-.12.192.016.352.088.48.216.176.144.2.4.072.768-.112.352-.352.912-.72 1.68l-.432.984c-.096.208-.136.336-.12.384.016.032.088.008.216-.072.096-.176.272-.376.528-.6l.816-.696.816-.6.528-.336a1.77 1.77 0 0 1 .432-.192l.36-.144c.368-.176.744-.24 1.128-.192s.624.192.72.432c.016.128.064.224.144.288l.144.096c.064 0 .096.024.096.072l.024.072c0 .112-.088.184-.264.216l-.624.048a1.87 1.87 0 0 0-.552.12l-.576.24-1.752 1.032c-.544.336-1.072.784-1.584 1.344a3.75 3.75 0 0 0-.336.456l-.36.576c-.08.08-.16.256-.24.528l-.216.792-.072.432-.072.24c-.048.144-.128.288-.24.432-.192.256-.352.384-.48.384s-.32-.128-.576-.384z"/><path id="K" d="M90.301 190.096a3.93 3.93 0 0 1-.864-.504c-.272-.224-.448-.408-.528-.552 0-.144.024-.24.072-.288.048-.064.184-.088.408-.072.24 0 .624.032 1.152.096a6.73 6.73 0 0 0 .72-.048 5.39 5.39 0 0 0 .792-.144c.256-.064.4-.144.432-.24.08 0 .096-.024.048-.072a1.8 1.8 0 0 0-.168-.192.43.43 0 0 1-.216-.072c-.08-.064-.152-.096-.216-.096 0-.08-.08-.168-.24-.264-.144-.112-.296-.2-.456-.264l-.912-.768c-.256-.24-.352-.4-.288-.48v-.096-.024c-.112 0-.24-.16-.384-.48-.128-.32-.192-.608-.192-.864 0-.192.056-.432.168-.72a5.57 5.57 0 0 1 .456-.936c.192-.32.392-.584.6-.792.288-.272.648-.56 1.08-.864.432-.32.856-.6 1.272-.84.432-.256.792-.424 1.08-.504.288-.112.552-.168.792-.168a1.31 1.31 0 0 1 .672.168 1.3 1.3 0 0 1 .432.36 2.37 2.37 0 0 1 .36.456c.112.144.184.272.216.384a4.95 4.95 0 0 1-.048.648 3 3 0 0 1-.144.6c-.048.176-.128.264-.24.264l-.072.024c-.032 0-.048.04-.048.12 0 .16-.12.344-.36.552-.304.208-.568.336-.792.384-.224.032-.36-.056-.408-.264-.048-.064-.08-.12-.096-.168s-.056-.072-.12-.072l-.072-.072c-.048-.048-.072-.128-.072-.24a.23.23 0 0 1 .072-.168l.072-.096c.08 0 .184-.088.312-.264.128-.192.24-.392.336-.6.112-.224.168-.376.168-.456 0-.096-.016-.152-.048-.168-.016-.016-.088-.024-.216-.024l-.816.384-.912.48c-.272.144-.472.28-.6.408l-.12.216c-.016.016-.056.024-.12.024 0-.064-.056-.032-.168.096l-.384.48-.432.624-.288.432c-.032.032-.072.128-.12.288-.032.144-.048.28-.048.408-.064.192-.056.328.024.408l.528.432 1.32 1.032.72.672c.16.176.256.336.288.48.288.48.376.848.264 1.104s-.384.48-.816.672c-.16.08-.424.144-.792.192s-.744.072-1.128.072c-.384.016-.688.008-.912-.024z"/><path id="L" d="M141.953 27.16a2.11 2.11 0 0 1-1.176.504c-.432.048-.856-.016-1.272-.192-.416-.192-.76-.48-1.032-.864a2.71 2.71 0 0 1-.528-1.2c-.08-.464-.088-1.064-.024-1.8.048-.624.248-1.248.6-1.872.352-.64.776-1.208 1.272-1.704.512-.496 1.016-.84 1.512-1.032.24-.16.44-.232.6-.216a9.58 9.58 0 0 1 .792.048c.368.048.64.12.816.216.192.096.344.224.456.384.24.24.4.48.48.72.08.224.12.448.12.672-.064.352-.304.784-.72 1.296-.4.496-.928.904-1.584 1.224-.352.112-.736.16-1.152.144s-.76-.12-1.032-.312c-.304-.128-.504-.104-.6.072-.096.16-.184.56-.264 1.2-.064.608-.016 1.056.144 1.344.16.272.376.432.648.48l.744.144c.192.016.424-.056.696-.216.256-.16.416-.248.48-.264a.56.56 0 0 0 .144-.096l.312-.312.264-.24c.064-.064.136-.096.216-.096s.152.04.216.12c.064.064.128.112.192.144.16 0 .192.096.096.288-.08.192-.248.424-.504.696a5.33 5.33 0 0 1-.912.72zm-.024-5.088c.176-.08.36-.192.552-.336a2.82 2.82 0 0 0 .48-.504c.144-.192.216-.352.216-.48 0-.224-.104-.408-.312-.552-.208-.16-.52-.184-.936-.072-.176.048-.376.168-.6.36-.224.176-.44.376-.648.6l-.48.6c-.112.176-.152.28-.12.312.048.08.184.144.408.192a3.73 3.73 0 0 0 .744.024c.288-.016.52-.064.696-.144z"/><linearGradient id="M" gradientUnits="userSpaceOnUse"/></defs></svg>