<svg width="22" height="21" viewBox="0 0 22 21" fill="none" xmlns="http://www.w3.org/2000/svg">
<circle cx="5.3008" cy="12.4289" r="2.625" stroke="#00ADE4" stroke-linecap="round" stroke-linejoin="round"/>
<path d="M0.914871 20.105L4.02929 14.7107" stroke="#00ADE4" stroke-linecap="round" stroke-linejoin="round"/>
<path d="M6.63649 14.7783L9.74953 20.1702" stroke="#00ADE4" stroke-linecap="round" stroke-linejoin="round"/>
<circle cx="16.7597" cy="12.4957" r="2.625" stroke="#00ADE4" stroke-linecap="round" stroke-linejoin="round"/>
<path d="M12.3737 20.1719L15.4882 14.7775" stroke="#00ADE4" stroke-linecap="round" stroke-linejoin="round"/>
<path d="M18.0954 14.8451L21.2084 20.2371" stroke="#00ADE4" stroke-linecap="round" stroke-linejoin="round"/>
<path d="M3.61887 2.95596C3.61887 2.02705 4.3719 1.27402 5.30081 1.27402C6.22971 1.27402 6.98274 2.02705 6.98274 2.95596C6.98274 3.53576 6.68937 4.04704 6.24296 4.34945C5.78571 4.6592 5.30081 5.08561 5.30081 5.6379V6.88049" stroke="#00ADE4" stroke-linecap="round" stroke-linejoin="round"/>
<path d="M5.30081 8.03839V8.06014" stroke="#00ADE4" stroke-linecap="round"/>
<path d="M12.9086 4.51324V4.535" stroke="#00ADE4" stroke-linecap="round"/>
<path d="M14.4086 4.51324V4.535" stroke="#00ADE4" stroke-linecap="round"/>
<path d="M15.9086 4.51324V4.535" stroke="#00ADE4" stroke-linecap="round"/>
<path d="M10.8974 4.51322C10.8974 6.45241 12.4694 8.02443 14.4086 8.02443H17.9198V4.51322C17.9198 2.57404 16.3478 1.00201 14.4086 1.00201C12.4694 1.00201 10.8974 2.57404 10.8974 4.51322Z" stroke="#00ADE4"/>
</svg>
