<svg width="100" height="24" viewBox="0 0 100 24" fill="none" xmlns="http://www.w3.org/2000/svg">
<path fill-rule="evenodd" clip-rule="evenodd" d="M12 0C5.37259 0 0 5.37258 0 12C0 18.6274 5.37259 24 12 24H14.4C15.2837 24 16 23.2837 16 22.4V20.0122L16 20C16 17.7909 17.7909 16 20 16L16 16L22.4 16C23.2837 16 24 15.2837 24 14.4V9.6C24 8.71634 23.2837 8 22.4 8H17.6C16.7163 8 16 8.71634 16 9.6V11.9765L16.0001 12C16.0001 14.2091 14.2092 16 12 16C11.7185 16 11.4437 15.9709 11.1786 15.9156C9.36351 15.5368 8.00001 13.9276 8.00001 12C8.00001 9.8599 9.68069 8.11234 11.7942 8.00521C11.8283 8.00348 11.8625 8.00218 11.8968 8.00131C11.9311 8.00044 11.9655 8 12.0001 8L14.4 8C15.2837 8 16 7.28366 16 6.4V1.6C16 0.716344 15.2837 0 14.4 0H12ZM44.1113 5.99983H41.0944C40.9819 5.99983 40.8918 5.91094 40.8918 5.79984V3.19999C40.8918 3.08888 40.9819 3 41.0944 3H44.1113C44.2239 3 44.3139 3.08888 44.3139 3.19999V5.79984C44.3139 5.91094 44.2239 5.99983 44.1113 5.99983ZM44.1338 18.5546H41.0944C40.9819 18.5546 40.8918 18.4658 40.8918 18.3547L40.9594 12.8439L40.8918 7.31086C40.8918 7.19975 40.9819 7.11087 41.0944 7.11087H44.1338C44.2464 7.11087 44.3364 7.19975 44.3364 7.31086L44.2689 12.8439L44.3364 18.3547C44.3364 18.4658 44.2464 18.5546 44.1338 18.5546ZM31.4446 12.6217C31.4446 15.0882 32.3452 16.3326 33.9662 16.3103C35.6097 16.3103 36.4877 15.1548 36.5102 12.8439C36.5328 10.4662 35.6547 9.1552 34.0337 9.13297C32.3227 9.08853 31.4446 10.3329 31.4446 12.6217ZM39.7297 18.2436C39.7297 21.1323 37.816 22.9988 33.9887 22.9988C30.9493 23.0433 28.6304 21.8211 28.4503 19.3102C28.4503 19.1991 28.5403 19.1102 28.6529 19.1102H31.5572C31.6923 19.1102 31.7823 19.1991 31.8048 19.3102C31.9624 20.2434 32.7279 20.799 34.1013 20.799C35.5647 20.799 36.5778 19.999 36.5778 18.1991V16.8881C35.8123 17.888 34.6866 18.488 33.2457 18.488C29.8011 18.488 28 15.977 28 12.755C28 9.55517 29.9362 6.95532 33.0881 6.95532C34.529 6.95532 35.6547 7.44418 36.4427 8.35524L36.3752 7.31086C36.3752 7.19975 36.4652 7.11087 36.5778 7.11087H39.5496C39.6622 7.11087 39.7522 7.19975 39.7522 7.31086L39.7072 12.9994L39.7297 18.2436ZM52.6903 18.1325V16.3548C52.6903 16.2659 52.6003 16.177 52.4877 16.1992C52.15 16.3103 51.7222 16.3992 51.1819 16.3992C50.4389 16.3992 49.9436 16.0881 49.9436 15.1104L49.9211 9.46629H52.5102C52.6228 9.46629 52.7128 9.3774 52.7128 9.2663V7.31086C52.7128 7.19975 52.6228 7.11087 52.5102 7.11087H49.9436L49.9661 4.44436C49.9661 4.33326 49.8761 4.24437 49.7635 4.24437H46.7692C46.6566 4.24437 46.5665 4.33326 46.5665 4.44436L46.5891 7.11087H45.2832C45.1707 7.11087 45.0806 7.19975 45.0806 7.31086V9.2663C45.0806 9.3774 45.1707 9.46629 45.2832 9.46629H46.5891L46.5665 15.1993C46.5665 17.7991 48.4352 18.7769 50.3939 18.7769C51.1143 18.7769 51.8573 18.6213 52.5102 18.3991C52.6003 18.3547 52.6903 18.2436 52.6903 18.1325ZM56.6869 18.5546H53.625C53.5124 18.5546 53.4224 18.4658 53.4224 18.3547L53.4899 13.0661L53.4674 7.31086C53.4674 7.19975 53.5574 7.11087 53.67 7.11087H56.5293C56.6418 7.11087 56.7319 7.19975 56.7319 7.31086L56.6644 8.55523C57.4523 7.55529 58.7807 6.84422 60.4017 6.84422C62.8557 6.84422 64.4316 8.48857 64.4316 11.2884V13.6883L64.4992 18.3547C64.4992 18.4658 64.4091 18.5546 64.2966 18.5546H61.2797C61.1671 18.5546 61.0771 18.4658 61.0771 18.3547L61.1221 13.6883V11.3328C61.1221 10.0885 60.3791 9.28852 59.366 9.28852C58.1503 9.28852 56.8445 10.3996 56.8445 12.8439V13.6883L56.8895 18.3547C56.8895 18.4658 56.7994 18.5546 56.6869 18.5546ZM76.5256 14.6882H73.6889C73.5763 14.6882 73.4637 14.7771 73.4412 14.8882C73.126 16.1103 72.3155 16.6214 71.1898 16.6214C69.5688 16.6214 68.7133 15.6659 68.5782 13.5105H76.8633C76.9759 13.5105 77.0659 13.4216 77.0659 13.3105C76.9984 9.31074 74.8821 6.822 71.0773 6.822C67.385 6.822 65.1786 9.22186 65.1786 12.8661C65.1786 16.3326 67.2724 18.8435 71.1448 18.8435C74.3868 18.8435 76.413 16.977 76.7057 14.8882C76.7282 14.7771 76.6382 14.6882 76.5256 14.6882ZM71.0998 9.02187C72.5857 9.02187 73.2836 10.1774 73.4187 11.3995H68.6683C68.9385 9.82182 69.7489 9.02187 71.0998 9.02187ZM88.4133 15.066C88.4133 17.4658 86.1169 18.8213 82.9874 18.8213C79.6104 18.8213 77.449 17.4658 77.3365 14.9104C77.3365 14.7993 77.4265 14.7104 77.5391 14.7104H80.4209C80.5334 14.7104 80.6235 14.7993 80.6235 14.9104C80.7135 16.1992 81.5691 16.7548 83.145 16.7548C84.4734 16.7548 85.1938 16.2437 85.1938 15.3548C85.1938 14.4784 83.9648 14.2966 82.496 14.0794C80.3155 13.757 77.6066 13.3564 77.6066 10.4885C77.6066 8.11081 79.5428 6.84422 82.6722 6.84422C85.7116 6.84422 87.7604 8.04415 87.963 10.444C87.9855 10.5551 87.8955 10.644 87.7829 10.644H85.0362C84.9236 10.644 84.8336 10.5551 84.8111 10.444C84.631 9.46629 84.0006 8.86632 82.6272 8.86632C81.524 8.86632 80.8261 9.2663 80.8261 10.244C80.8261 11.1169 82.045 11.2829 83.5058 11.4818C85.6894 11.7792 88.4133 12.1501 88.4133 15.066ZM94.5742 18.8213C97.7036 18.8213 100 17.4658 100 15.066C100 12.1501 97.2761 11.7792 95.0925 11.4818C93.6318 11.2829 92.4128 11.1169 92.4128 10.244C92.4128 9.2663 93.1108 8.86632 94.2139 8.86632C95.5873 8.86632 96.2177 9.46629 96.3978 10.444C96.4203 10.5551 96.5104 10.644 96.6229 10.644H99.3696C99.4822 10.644 99.5722 10.5551 99.5497 10.444C99.3471 8.04415 97.2983 6.84422 94.259 6.84422C91.1295 6.84422 89.1934 8.11081 89.1934 10.4885C89.1934 13.3564 91.9022 13.757 94.0827 14.0794C95.5515 14.2966 96.7805 14.4784 96.7805 15.3548C96.7805 16.2437 96.0601 16.7548 94.7318 16.7548C93.1558 16.7548 92.3003 16.1992 92.2102 14.9104C92.2102 14.7993 92.1201 14.7104 92.0076 14.7104H89.1258C89.0132 14.7104 88.9232 14.7993 88.9232 14.9104C89.0358 17.4658 91.1971 18.8213 94.5742 18.8213Z" fill="white"/>
</svg>
