<svg width="500" height="480" viewBox="0 0 500 480" fill="none" xmlns="http://www.w3.org/2000/svg">
<g clip-path="url(#clip0)">
<ellipse cx="227.5" cy="277.592" rx="337.188" ry="128.433" transform="rotate(179.407 227.5 277.592)" fill="url(#paint0_radial)"/>
<path d="M336.705 354.158C324.706 360.34 281.773 386.518 255.07 401.461L212.297 402.224C239 387.281 281.933 361.103 293.932 354.921C319.109 341.951 299.267 338.469 271.807 329.744C235.185 318.109 166.521 298.464 148.21 293.123C115.403 283.555 140.581 275.575 177.202 261.079C213.823 246.584 366.931 185.485 406.133 169.526L412.999 182.496C373.797 198.455 256.596 245.82 219.975 260.316C183.354 274.812 158.177 282.791 190.983 292.36C209.294 297.7 277.959 317.346 314.58 328.981C342.04 337.706 361.882 341.188 336.705 354.158Z" fill="white"/>
<path d="M248.07 401.526C274.773 386.584 317.706 360.405 329.705 354.224C354.882 341.254 335.04 337.771 307.58 329.047C270.958 317.411 202.294 297.766 183.983 292.425C151.176 282.857 176.353 274.878 212.975 260.382C249.596 245.886 366.797 198.52 405.999 182.562" stroke="black" stroke-width="2" stroke-linecap="round" stroke-linejoin="round"/>
<path d="M201.297 402.289C228 387.347 270.933 361.168 282.932 354.987C308.109 342.017 288.267 338.535 260.807 329.81C224.185 318.174 155.521 298.529 137.21 293.189C104.403 283.62 129.581 275.641 166.202 261.145C202.823 246.649 355.931 185.551 395.133 169.592" stroke="black" stroke-width="2" stroke-linecap="round" stroke-linejoin="round"/>
<path d="M263.678 349.203L210.773 371.465L164.098 356.766L164.098 297.523L224.714 275.054L263.678 289.766L263.678 291.943L263.678 303.826L263.678 349.203Z" fill="white"/>
<path d="M217.433 274.51C233.429 278.887 250.08 285.392 268.58 290.833" stroke="black" stroke-width="2" stroke-linecap="round" stroke-linejoin="round"/>
<path d="M164.098 294.483C164.098 327.256 164.098 336.08 164.098 358.03" stroke="black" stroke-width="2" stroke-linecap="round" stroke-linejoin="round"/>
<path d="M213.257 306.351C213.257 335.146 213.257 344.166 213.257 372.582M263.677 288.678C263.677 308.846 263.677 333.179 263.677 349.892" stroke="black" stroke-width="2" stroke-linecap="round" stroke-linejoin="round"/>
<path d="M162.838 358.023C178.834 362.4 196.871 366.847 215.779 371.889" stroke="black" stroke-width="2" stroke-linecap="round" stroke-linejoin="round"/>
<path d="M165.358 297.501C181.354 301.878 199.391 306.324 218.299 311.366" stroke="black" stroke-width="2" stroke-linecap="round" stroke-linejoin="round"/>
<path d="M207.247 373.101C218.479 368.401 258.56 352.172 269.98 347.939" stroke="black" stroke-width="2" stroke-linecap="round" stroke-linejoin="round"/>
<path d="M211.388 311.663C222.62 306.963 254.333 292.911 265.753 288.678" stroke="black" stroke-width="2" stroke-linecap="round" stroke-linejoin="round"/>
<path d="M163.747 298.603C174.979 293.903 210.803 278.763 222.223 274.53" stroke="black" stroke-width="2" stroke-linecap="round" stroke-linejoin="round"/>
<path d="M191.753 303.912C202.985 299.212 228.753 287.589 242.054 282.148" stroke="black" stroke-width="2" stroke-linecap="round" stroke-linejoin="round"/>
<path d="M220.985 305.695L212.5 341.025M214 363.526L228.904 302.135" stroke="black" stroke-width="2" stroke-linecap="round" stroke-linejoin="round"/>
<path d="M236.455 299.584L218.999 367.525M243.499 296.025L226.999 365.025M251.266 293.058L234.224 362.779" stroke="black" stroke-width="2" stroke-linecap="round" stroke-linejoin="round"/>
<path d="M258.872 290.525L240.955 361.085M264.999 290.525C253.581 334.833 257.515 320.599 247.999 357.525M263.999 322.025C255.371 355.507 263.745 323.594 256.071 353.373L263.999 322.025Z" stroke="black" stroke-width="2" stroke-linecap="round" stroke-linejoin="round"/>
<path d="M127.277 216.266V201.313L145.748 189.879H209.059L223.149 202.193V219.784L202.039 231.218H148.387L127.277 216.266Z" fill="white"/>
<path d="M122 211.768C132.629 220.445 137.944 225.265 146.296 232.014" stroke="black" stroke-width="2" stroke-linecap="round" stroke-linejoin="round"/>
<path d="M146.628 230.338C157.887 230.512 191.245 231.027 203.635 231.218" stroke="black" stroke-width="2" stroke-linecap="round" stroke-linejoin="round"/>
<path d="M127.539 195.331C127.539 206.59 127.539 215.386 127.539 221.543" stroke="black" stroke-width="2" stroke-linecap="round" stroke-linejoin="round"/>
<path d="M148.387 209.23C148.387 217.063 148.387 223.728 148.387 229.46" stroke="black" stroke-width="2" stroke-linecap="round" stroke-linejoin="round"/>
<path d="M202.039 208.349C202.039 217.884 202.039 225.997 202.039 232.976" stroke="black" stroke-width="2" stroke-linecap="round" stroke-linejoin="round"/>
<path d="M223.149 196.036C223.149 205.711 223.149 214.057 223.149 220.664" stroke="black" stroke-width="2" stroke-linecap="round" stroke-linejoin="round"/>
<path d="M126.05 197.597C138.364 205.513 138.646 205.612 148.321 211.769" stroke="black" stroke-width="2" stroke-linecap="round" stroke-linejoin="round"/>
<path d="M148.32 211.77C158.711 211.77 191.418 211.77 202.853 211.77" stroke="black" stroke-width="2" stroke-linecap="round" stroke-linejoin="round"/>
<path d="M203.998 186.46C203.998 186.46 219.183 197.595 226.269 202.657" stroke="black" stroke-width="2" stroke-linecap="round" stroke-linejoin="round"/>
<path d="M125.037 200.634C130.099 198.609 152.37 190.511 161.481 187.474" stroke="black" stroke-width="2" stroke-linecap="round" stroke-linejoin="round"/>
<path d="M151.357 189.497C174.202 189.497 196.717 189.18 219.136 189.18" stroke="black" stroke-width="2" stroke-linecap="round" stroke-linejoin="round"/>
<path d="M200.147 231.891C209.076 227.701 216.112 224.183 226.667 218.906M200.147 212.781C209.076 208.592 217.937 204.898 228.492 199.621" stroke="black" stroke-width="2" stroke-linecap="round" stroke-linejoin="round"/>
<path d="M129.916 218.024L134.314 203.071M135.16 222.903C136.511 217.663 139.091 211.943 140.471 206.589M141.234 227.965L146.628 210.987" stroke="black" stroke-width="2" stroke-linecap="round" stroke-linejoin="round"/>
<path d="M149.266 230.178L154.137 212.745M157.47 230.178C159.03 224.122 160.858 218.081 162.46 211.866M165.342 230.271C166.905 224.205 168.373 218.069 169.971 211.866" stroke="black" stroke-width="2" stroke-linecap="round" stroke-linejoin="round"/>
<path d="M191.627 212.754C190.097 218.69 188.584 224.562 187.087 230.369M179.171 230.369C180.665 224.572 182.178 218.702 183.71 212.754M176.674 212.722L172.135 230.337" stroke="black" stroke-width="2" stroke-linecap="round" stroke-linejoin="round"/>
<path d="M199.025 212.746L194.265 231.217M207.317 210.108L201.075 231.217M215.43 205.71C213.673 212.53 211.935 219.274 210.217 225.94L215.43 205.71Z" stroke="black" stroke-width="2" stroke-linecap="round" stroke-linejoin="round"/>
<path d="M222.464 202.192L216.992 223.302" stroke="black" stroke-width="2" stroke-linecap="round" stroke-linejoin="round"/>
<path d="M175 188.16L176 186.523L177 188.16V192.523L175 191.978V188.16Z" fill="white"/>
<path d="M177.114 199.999C177.114 180.273 177.114 137.134 177.114 119.37" stroke="black" stroke-width="2" stroke-linecap="round" stroke-linejoin="round"/>
<path d="M174 199.152C174 179.426 174 136.287 174 118.523" stroke="black" stroke-width="2" stroke-linecap="round" stroke-linejoin="round"/>
<path d="M174 119.37C181.624 120.603 211.219 123.599 223.061 125.291" stroke="black" stroke-width="2" stroke-linecap="round" stroke-linejoin="round"/>
<path d="M177.384 143.055C191.249 144.752 206.867 147.021 220.7 148.929" stroke="black" stroke-width="2" stroke-linecap="round" stroke-linejoin="round"/>
<path d="M219.677 149.301C219.677 143.901 219.677 134.596 219.677 123.6" stroke="black" stroke-width="2" stroke-linecap="round" stroke-linejoin="round"/>
<path d="M376.463 204.816C373.613 215.808 364.096 229.848 354.898 230.461C335.094 231.78 334.499 217.673 334.499 205.982C335.72 194.99 345.68 181.503 354.898 181.503C367.72 181.503 378.906 187.311 376.463 204.816Z" fill="white"/>
<path d="M366.555 198.444C360.735 189.597 353.531 199.975 360.509 206.659C367.487 213.343 363.133 224.841 351.401 215.064" stroke="black" stroke-width="2" stroke-linecap="round" stroke-linejoin="round"/>
<path d="M364.6 192.578C362.156 201.377 358.734 211.642 355.276 221.05" stroke="black" stroke-width="2" stroke-linecap="round" stroke-linejoin="round"/>
<path d="M357.193 186.18L348.192 183.68" stroke="black" stroke-width="2" stroke-linecap="round" stroke-linejoin="round"/>
<path d="M350.135 192.355L341.393 189.44" stroke="black" stroke-width="2" stroke-linecap="round" stroke-linejoin="round"/>
<path d="M342.659 205.272L334.499 202.941M345.724 198.531L337.565 196.2M342.076 212.977L333.917 210.645" stroke="black" stroke-width="2" stroke-linecap="round" stroke-linejoin="round"/>
<path d="M342.076 220.585L334.5 218.837" stroke="black" stroke-width="2" stroke-linecap="round" stroke-linejoin="round"/>
<path d="M346.74 229.295C349.188 232.792 357.186 231.282 359.563 229.296C375.882 222.117 384.633 184.426 364.808 183.835C354.935 183.54 344.044 197.822 342.659 208.896C341.493 218.222 342.66 225.215 346.74 229.295Z" stroke="black" stroke-width="2" stroke-linecap="round" stroke-linejoin="round"/>
<path d="M351.985 231.627C346.739 230.462 341.028 228.13 338.58 224.633C334.5 220.554 332.751 211.228 334.5 204.817C335.666 194.326 346.192 181.209 356.065 181.504C359.559 181.608 362.476 182.67 367.721 184.418" stroke="black" stroke-width="2" stroke-linecap="round" stroke-linejoin="round"/>
<path d="M354.643 118.529L354.643 163.029M353.121 287.555L353.121 249.03" stroke="black" stroke-width="2" stroke-linecap="round" stroke-linejoin="round"/>
<path d="M330.463 242.383C327.614 253.374 318.097 267.414 308.899 268.027C289.094 269.347 288.5 255.24 288.5 243.548C289.721 232.556 299.68 219.069 308.899 219.069C321.721 219.069 332.906 224.877 330.463 242.383Z" fill="white"/>
<path d="M320.555 236.011C314.735 227.163 307.531 237.542 314.509 244.226C321.487 250.91 317.133 262.407 305.401 252.63" stroke="black" stroke-width="2" stroke-linecap="round" stroke-linejoin="round"/>
<path d="M318.6 230.145C316.156 238.943 312.734 249.209 309.276 258.617" stroke="black" stroke-width="2" stroke-linecap="round" stroke-linejoin="round"/>
<path d="M311.193 223.747L302.192 221.247" stroke="black" stroke-width="2" stroke-linecap="round" stroke-linejoin="round"/>
<path d="M304.136 229.921L295.393 227.007" stroke="black" stroke-width="2" stroke-linecap="round" stroke-linejoin="round"/>
<path d="M296.659 242.839L288.5 240.508M299.725 236.097L291.565 233.766M296.077 250.543L287.917 248.212" stroke="black" stroke-width="2" stroke-linecap="round" stroke-linejoin="round"/>
<path d="M296.077 258.152L288.5 256.403" stroke="black" stroke-width="2" stroke-linecap="round" stroke-linejoin="round"/>
<path d="M300.741 266.862C303.189 270.359 311.186 268.849 313.563 266.862C329.882 259.684 338.634 221.993 318.808 221.401C308.936 221.106 298.044 235.389 296.66 246.463C295.494 255.788 296.661 262.782 300.741 266.862Z" stroke="black" stroke-width="2" stroke-linecap="round" stroke-linejoin="round"/>
<path d="M305.985 269.194C300.74 268.028 295.028 265.697 292.58 262.2C288.501 258.12 286.752 248.795 288.5 242.384C289.666 231.893 300.193 218.776 310.065 219.07C313.56 219.175 316.476 220.236 321.722 221.984" stroke="black" stroke-width="2" stroke-linecap="round" stroke-linejoin="round"/>
<path d="M306.999 322.529L306.999 285.808M308.565 196.03L308.565 163.53" stroke="black" stroke-width="2" stroke-linecap="round" stroke-linejoin="round"/>
</g>
<defs>
<radialGradient id="paint0_radial" cx="0" cy="0" r="1" gradientUnits="userSpaceOnUse" gradientTransform="translate(227.5 277.592) rotate(64.617) scale(117.99 261.107)">
<stop offset="0.0001" stop-color="#F0FEEA"/>
<stop offset="1" stop-color="#F0FEEA" stop-opacity="0"/>
</radialGradient>
<clipPath id="clip0">
<rect width="500" height="480" fill="white"/>
</clipPath>
</defs>
</svg>
