<svg width="501" height="481" viewBox="0 0 501 481" fill="none" xmlns="http://www.w3.org/2000/svg">
<g clip-path="url(#clip0)">
<g clip-path="url(#clip1)">
<ellipse opacity="0.6" cx="237.223" cy="315.426" rx="249" ry="106.5" transform="rotate(-7.46217 237.223 315.426)" fill="url(#paint0_radial)"/>
<path d="M236.139 286.52V175.581L303.77 145.918L399.878 164.902V271.689L337.586 306.098L313.856 301.945L313.001 268.166L261.5 292.166L236.139 286.52Z" fill="white"/>
<path d="M260.084 293.665C260.084 265.632 260.08 255.571 260.083 222.281" stroke="black" stroke-width="2" stroke-linecap="round" stroke-linejoin="round"/>
<path d="M313.313 302.8C313.313 274.766 313.309 269.51 313.311 236.221" stroke="black" stroke-width="2" stroke-linecap="round" stroke-linejoin="round"/>
<path d="M236.498 286.09C236.498 258.057 236.496 207.247 236.498 173.957" stroke="black" stroke-width="2" stroke-linecap="round" stroke-linejoin="round"/>
<path d="M338.658 307.578C338.658 275.164 338.655 216.415 338.658 177.924" stroke="black" stroke-width="2" stroke-linecap="round" stroke-linejoin="round"/>
<path d="M399.488 272.224C399.488 239.81 399.485 196.138 399.488 157.646" stroke="black" stroke-width="2" stroke-linecap="round" stroke-linejoin="round"/>
<path d="M228 177.04C243.597 170.352 288.547 151.032 307.329 143.906" stroke="black" stroke-width="2" stroke-linecap="round" stroke-linejoin="round"/>
<path d="M328.518 196.958C362.456 181.126 379.082 173.306 409.627 158.914" stroke="black" stroke-width="2" stroke-linecap="round" stroke-linejoin="round"/>
<path d="M328.518 309.657C348.795 300.222 369.072 287.548 403.924 269.172" stroke="black" stroke-width="2" stroke-linecap="round" stroke-linejoin="round"/>
<path d="M257.546 230.517C283.204 234.664 296.726 237.543 322.18 241.923M349.428 194.398C310.128 188.383 248.445 176.231 226.5 172.164M406.458 164.616C372.224 158.016 316.66 147.098 295.5 143.164" stroke="black" stroke-width="2" stroke-linecap="round" stroke-linejoin="round"/>
<path d="M413.097 117.477C404.634 115.918 396.212 114.201 387.725 112.75" stroke="black" stroke-width="2" stroke-linecap="round" stroke-linejoin="round"/>
<path d="M414.875 116.216C410.357 116.666 412.45 122.192 415.499 120.187C418.422 118.265 413.697 114.17 412.023 116.901" stroke="black" stroke-width="2" stroke-linecap="round" stroke-linejoin="round"/>
<path d="M386.014 110.248C381.496 110.697 383.589 116.223 386.638 114.218C389.561 112.296 384.835 108.201 383.161 110.932" stroke="black" stroke-width="2" stroke-linecap="round" stroke-linejoin="round"/>
<path d="M382.41 111.84C376.262 110.789 373.306 110.161 368.877 109.527C365.257 113.388 362.832 117.356 359.958 120.2" stroke="black" stroke-width="2" stroke-linecap="round" stroke-linejoin="round"/>
<path d="M400.641 128.633C382.383 124.731 368.983 122.251 346.826 118.464" stroke="black" stroke-width="2" stroke-linecap="round" stroke-linejoin="round"/>
<path d="M374.574 123.396C375.867 126.967 377.503 131.23 378.072 134.935" stroke="black" stroke-width="2" stroke-linecap="round" stroke-linejoin="round"/>
<path d="M378.072 134.933C381.848 135.579 386.565 136.069 390.276 137.02" stroke="black" stroke-width="2" stroke-linecap="round" stroke-linejoin="round"/>
<path d="M397.045 134.481C388.037 131.877 389.961 141.339 394.018 140.228C398.392 139.029 394.844 131.518 391.088 135.403" stroke="black" stroke-width="2" stroke-linecap="round" stroke-linejoin="round"/>
<path d="M405.054 127.283C402.515 121.664 398.268 129.441 403.48 131.92C406.67 133.436 405.837 129.301 404.898 127.69C403.428 125.167 400.957 125.465 398.6 126.18" stroke="black" stroke-width="2" stroke-linecap="round" stroke-linejoin="round"/>
<path d="M346.787 117.948C346.393 116.512 344.376 115.686 343.045 116.45C341.92 117.096 342.364 118.018 343.427 118.331C344.633 118.686 346.387 118.539 346.82 117.095C347.201 115.827 345.384 115.555 344.559 115.414" stroke="black" stroke-width="2" stroke-linecap="round" stroke-linejoin="round"/>
<path d="M236.497 286.09C243.929 288.107 251.265 289.869 258.682 291.417" stroke="black" stroke-width="2" stroke-linecap="round" stroke-linejoin="round"/>
<path d="M308.24 299.588C320.124 302.813 337.699 306.263 349.815 308.348" stroke="black" stroke-width="2" stroke-linecap="round" stroke-linejoin="round"/>
<path d="M338.133 225.414L347.671 188.402M354.656 185.072C349.32 205.777 344.239 225.493 339.367 244.398M339.367 271.569C346.689 243.158 354.429 213.123 362.575 181.512" stroke="black" stroke-width="2" stroke-linecap="round" stroke-linejoin="round"/>
<path d="M370.75 177.359L338.773 301.443M377.794 173.799C365.581 221.19 354.703 263.401 344.618 302.537M385.56 170.833C373.805 216.448 362.886 258.818 352.843 297.79L385.56 170.833Z" stroke="black" stroke-width="2" stroke-linecap="round" stroke-linejoin="round"/>
<path d="M393.651 167.274L361.545 291.858M399.777 167.274C388.359 211.581 378.105 251.373 368.589 288.298M401.123 189.224C392.495 222.705 384.335 254.367 376.661 284.146L401.123 189.224Z" stroke="black" stroke-width="2" stroke-linecap="round" stroke-linejoin="round"/>
<path d="M384.927 279.398L399.383 223.305M399.383 249.142C397.097 258.012 394.856 266.707 392.656 275.245L399.383 249.142Z" stroke="black" stroke-width="2" stroke-linecap="round" stroke-linejoin="round"/>
<path d="M281.817 234.711C274.345 238.203 267.012 241.63 259.82 244.992L281.817 234.711ZM259.82 237.507C263.343 235.861 266.89 234.203 270.463 232.533L259.82 237.507Z" stroke="black" stroke-width="2" stroke-linecap="round" stroke-linejoin="round"/>
<path d="M291.411 236.686L260.461 251.151M313.261 240.508C294.863 249.106 277.257 257.334 260.461 265.184L313.261 240.508ZM260.461 257.7C273.564 251.576 286.976 245.308 300.802 238.846L260.461 257.7Z" stroke="black" stroke-width="2" stroke-linecap="round" stroke-linejoin="round"/>
<path d="M260.461 271.852L313.774 246.936M260.461 292.566L312.668 268.167M260.461 285.885C277.042 278.136 294.45 270 312.668 261.486L260.461 285.885ZM313.774 253.484C295.345 262.097 277.656 270.364 260.461 278.401L313.774 253.484Z" stroke="black" stroke-width="2" stroke-linecap="round" stroke-linejoin="round"/>
<path fill-rule="evenodd" clip-rule="evenodd" d="M284.711 125.118L289.845 119.129L298.401 120.84L300.112 119.129L295.834 108.006L301.823 101.161L316.369 98.5938L318.936 108.006L324.069 110.572L329.203 105.439L336.903 102.872L348.882 115.706L343.748 125.118L347.171 132.818L356.583 134.53V154.209L351.449 156.776H343.748L341.182 160.198L344.604 167.899L336.903 170.465L324.069 178.166L320.647 167.043L314.657 164.476L310.379 170.465H304.39L293.267 158.487L298.401 150.786L295.834 139.663H284.711V125.118ZM314.657 127.685L318.936 125.973L329.203 137.952L327.492 148.219L324.069 150.786L314.657 142.23V127.685Z" fill="white"/>
<path d="M295.834 125.118C295.834 123.407 298.401 119.985 300.968 118.273" stroke="#1A1A1A" stroke-width="2" stroke-linecap="round" stroke-linejoin="round"/>
<path d="M294.979 107.15C296.454 110.419 297.925 113.69 299.328 116.99C299.628 117.695 299.963 118.381 300.112 119.129" stroke="#1A1A1A" stroke-width="2" stroke-linecap="round" stroke-linejoin="round"/>
<path d="M311.021 101.803C311.846 104.576 312.619 107.354 313.374 110.145" stroke="#1A1A1A" stroke-width="2" stroke-linecap="round" stroke-linejoin="round"/>
<path d="M312.946 111.215C316.425 111.284 320.207 112.47 322.786 114.851" stroke="#1A1A1A" stroke-width="2" stroke-linecap="round" stroke-linejoin="round"/>
<path d="M321.717 116.347C324.238 112.154 326.749 107.958 329.203 103.727" stroke="#1A1A1A" stroke-width="2" stroke-linecap="round" stroke-linejoin="round"/>
<path d="M334.979 127.898C337.298 124.786 339.558 121.638 341.823 118.486" stroke="#1A1A1A" stroke-width="2" stroke-linecap="round" stroke-linejoin="round"/>
<path d="M343.107 124.477C345.274 121.726 347.518 119.001 349.525 116.135" stroke="#1A1A1A" stroke-width="2" stroke-linecap="round" stroke-linejoin="round"/>
<path d="M343.321 125.117C345.06 127.14 346.067 129.569 347.172 131.962" stroke="#1A1A1A" stroke-width="2" stroke-linecap="round" stroke-linejoin="round"/>
<path d="M334.123 126.402C336.31 129.737 339.017 133.655 339.471 137.739" stroke="#1A1A1A" stroke-width="2" stroke-linecap="round" stroke-linejoin="round"/>
<path d="M339.043 137.738C342.63 137.943 346.181 138.3 349.738 138.808" stroke="#1A1A1A" stroke-width="2" stroke-linecap="round" stroke-linejoin="round"/>
<path d="M351.45 136.24C351.191 143.109 350.322 149.929 349.738 156.775" stroke="#1A1A1A" stroke-width="2" stroke-linecap="round" stroke-linejoin="round"/>
<path d="M340.326 154.85C344.153 155.511 348.012 155.82 351.877 156.133" stroke="#1A1A1A" stroke-width="2" stroke-linecap="round" stroke-linejoin="round"/>
<path d="M334.123 162.337C336.263 158.541 339.386 155.233 340.54 151" stroke="#1A1A1A" stroke-width="2" stroke-linecap="round" stroke-linejoin="round"/>
<path d="M333.054 161.055C335.087 164.282 336.536 168.173 339.257 170.894" stroke="#1A1A1A" stroke-width="2" stroke-linecap="round" stroke-linejoin="round"/>
<path d="M320.005 166.188C320.982 169.528 321.883 172.881 322.786 176.241" stroke="#1A1A1A" stroke-width="2" stroke-linecap="round" stroke-linejoin="round"/>
<path d="M323.642 177.524C328.113 175.133 332.656 172.867 337.118 170.465" stroke="#1A1A1A" stroke-width="2" stroke-linecap="round" stroke-linejoin="round"/>
<path d="M338.829 170.251C340.947 169.357 343.556 168.326 345.888 168.326" stroke="#1A1A1A" stroke-width="2" stroke-linecap="round" stroke-linejoin="round"/>
<path d="M340.112 159.129C341.299 161.487 342.525 163.825 343.701 166.188C343.989 166.767 344.266 167.278 344.39 167.899" stroke="#1A1A1A" stroke-width="2" stroke-linecap="round" stroke-linejoin="round"/>
<path d="M340.326 161.267C341.312 159.176 342.77 157.374 343.749 155.277" stroke="#1A1A1A" stroke-width="2" stroke-linecap="round" stroke-linejoin="round"/>
<path d="M350.38 156.134C352.46 154.825 354.655 153.697 356.797 152.498" stroke="#1A1A1A" stroke-width="2" stroke-linecap="round" stroke-linejoin="round"/>
<path d="M350.808 139.021C352.889 137.407 355.143 135.969 357.011 134.102" stroke="#1A1A1A" stroke-width="2" stroke-linecap="round" stroke-linejoin="round"/>
<path d="M339.685 137.31C342.406 135.76 344.842 133.779 347.385 131.963" stroke="#1A1A1A" stroke-width="2" stroke-linecap="round" stroke-linejoin="round"/>
<path d="M346.743 133.246C349.033 133.818 351.338 134.133 353.683 134.387C354.445 134.469 355.056 134.475 355.727 134.743" stroke="#1A1A1A" stroke-width="2" stroke-linecap="round" stroke-linejoin="round"/>
<path d="M356.796 133.674C356.504 140.096 356.411 148.672 355.728 155.064" stroke="#1A1A1A" stroke-width="2" stroke-linecap="round" stroke-linejoin="round"/>
<path d="M340.326 119.128C342.893 118.272 347.171 116.561 350.594 114.85" stroke="#1A1A1A" stroke-width="2" stroke-linecap="round" stroke-linejoin="round"/>
<path d="M328.989 105.439C333.276 109.726 337.582 113.98 341.396 118.701" stroke="#1A1A1A" stroke-width="2" stroke-linecap="round" stroke-linejoin="round"/>
<path d="M336.048 102.016C340.326 106.294 346.315 113.139 349.738 116.561" stroke="#1A1A1A" stroke-width="2" stroke-linecap="round" stroke-linejoin="round"/>
<path d="M328.775 105.867C331.78 105 334.449 103.832 337.118 102.23" stroke="#1A1A1A" stroke-width="2" stroke-linecap="round" stroke-linejoin="round"/>
<path d="M318.722 108.433C318.219 105.145 317.708 101.846 317.011 98.5938" stroke="#1A1A1A" stroke-width="2" stroke-linecap="round" stroke-linejoin="round"/>
<path d="M318.294 108.646C320.544 109.114 323.125 109.467 324.497 111.427" stroke="#1A1A1A" stroke-width="2" stroke-linecap="round" stroke-linejoin="round"/>
<path d="M293.054 108.861C299.052 106.141 305.718 104.303 312.091 102.658" stroke="#1A1A1A" stroke-width="2" stroke-linecap="round" stroke-linejoin="round"/>
<path d="M294.123 108.861C297.332 106.08 300.112 102.872 303.535 99.4492" stroke="#1A1A1A" stroke-width="2" stroke-linecap="round" stroke-linejoin="round"/>
<path d="M300.112 102.016C305.246 101.161 313.541 99.199 318.08 98.5938" stroke="#1A1A1A" stroke-width="2" stroke-linecap="round" stroke-linejoin="round"/>
<path d="M310.38 103.941C312.492 101.876 314.601 99.8669 317.011 98.166" stroke="#1A1A1A" stroke-width="2" stroke-linecap="round" stroke-linejoin="round"/>
<path d="M283 124.262C286.773 124.583 292.412 125.117 296.69 125.117" stroke="#1A1A1A" stroke-width="2" stroke-linecap="round" stroke-linejoin="round"/>
<path d="M284.711 122.551C284.711 128.827 284.711 135.104 284.711 141.374" stroke="#1A1A1A" stroke-width="2" stroke-linecap="round" stroke-linejoin="round"/>
<path d="M284.711 140.192C287.366 140.056 292.323 140.304 294.978 140.192" stroke="#1A1A1A" stroke-width="2" stroke-linecap="round" stroke-linejoin="round"/>
<path d="M294.551 139.236C294.979 144.798 295.932 147.949 299.257 151.643" stroke="#1A1A1A" stroke-width="2" stroke-linecap="round" stroke-linejoin="round"/>
<path d="M291.556 160.197C294.361 156.746 297.341 153.398 300.112 149.93" stroke="#1A1A1A" stroke-width="2" stroke-linecap="round" stroke-linejoin="round"/>
<path d="M292.412 157.418C295.181 160.58 297.847 163.831 300.612 166.996C301.546 168.065 302.417 168.986 303.535 169.824" stroke="#1A1A1A" stroke-width="2" stroke-linecap="round" stroke-linejoin="round"/>
<path d="M303.107 169.181C306.063 166.363 308.939 163.455 311.877 160.625" stroke="#1A1A1A" stroke-width="2" stroke-linecap="round" stroke-linejoin="round"/>
<path d="M310.808 161.91C313.437 164.058 317.44 167.222 321.075 166.616" stroke="#1A1A1A" stroke-width="2" stroke-linecap="round" stroke-linejoin="round"/>
<path d="M303.321 170.252C305.928 170.062 308.343 169.79 310.808 168.969" stroke="#1A1A1A" stroke-width="2" stroke-linecap="round" stroke-linejoin="round"/>
<path d="M310.808 170.252C311.382 168.663 312.51 165.291 314.444 164.904" stroke="#1A1A1A" stroke-width="2" stroke-linecap="round" stroke-linejoin="round"/>
<path d="M284.711 124.263C287.262 122.322 289.41 119.922 291.556 117.418" stroke="#1A1A1A" stroke-width="2" stroke-linecap="round" stroke-linejoin="round"/>
<path d="M286.423 119.129C288.84 119.652 295.1 120.489 297.546 120.84" stroke="#1A1A1A" stroke-width="2" stroke-linecap="round" stroke-linejoin="round"/>
<path d="M306.741 127.686C306.741 135.386 306.102 139.664 306.102 146.509" stroke="#1A1A1A" stroke-width="2" stroke-linecap="round" stroke-linejoin="round"/>
<path d="M305.032 142.658C308.093 146.081 311.243 149.424 314.658 152.498" stroke="#1A1A1A" stroke-width="2" stroke-linecap="round" stroke-linejoin="round"/>
<path d="M312.091 152.499C318.08 151.643 322.358 150.787 328.348 149.076" stroke="#1A1A1A" stroke-width="2" stroke-linecap="round" stroke-linejoin="round"/>
<path d="M326.851 152.711C327.642 146.315 329.08 140.038 330.059 133.674" stroke="#1A1A1A" stroke-width="2" stroke-linecap="round" stroke-linejoin="round"/>
<path d="M316.797 123.406C321.285 128.687 325.917 133.843 330.273 139.235" stroke="#1A1A1A" stroke-width="2" stroke-linecap="round" stroke-linejoin="round"/>
<path d="M302.893 131.749C309.17 129.639 315.461 127.623 321.502 124.904" stroke="#1A1A1A" stroke-width="2" stroke-linecap="round" stroke-linejoin="round"/>
<path d="M313.802 141.375C313.802 137.269 313.802 132.648 313.802 127.686" stroke="#1A1A1A" stroke-width="2" stroke-linecap="round" stroke-linejoin="round"/>
<path d="M313.16 141.375C316.787 144.896 319.292 146.744 323.214 149.931" stroke="#1A1A1A" stroke-width="2" stroke-linecap="round" stroke-linejoin="round"/>
<path d="M304.818 143.942C307.978 143.19 312.833 142.667 315.086 140.092" stroke="#1A1A1A" stroke-width="2" stroke-linecap="round" stroke-linejoin="round"/>
<path d="M313.16 111.001C314.845 109.937 316.557 108.976 318.294 108.006" stroke="#1A1A1A" stroke-width="2" stroke-linecap="round" stroke-linejoin="round"/>
<path d="M334.123 128.112C337.642 126.953 341.045 125.419 344.39 123.834" stroke="#1A1A1A" stroke-width="2" stroke-linecap="round" stroke-linejoin="round"/>
<path d="M290.059 125.545C291.424 123.818 292.642 121.996 293.909 120.197" stroke="#1A1A1A" stroke-width="2" stroke-linecap="round" stroke-linejoin="round"/>
<path d="M303.962 103.941C305.04 102.546 306.135 101.126 307.384 99.877" stroke="#1A1A1A" stroke-width="2" stroke-linecap="round" stroke-linejoin="round"/>
<path d="M319.363 112.711C320.177 111.88 321.556 110.84 321.93 109.717" stroke="#1A1A1A" stroke-width="2" stroke-linecap="round" stroke-linejoin="round"/>
<path d="M332.84 109.716C335.073 108.547 337.254 107.274 339.471 106.08" stroke="#1A1A1A" stroke-width="2" stroke-linecap="round" stroke-linejoin="round"/>
<path d="M337.545 114.422C339.318 113.06 341.175 111.5 343.32 110.785" stroke="#1A1A1A" stroke-width="2" stroke-linecap="round" stroke-linejoin="round"/>
<path d="M305.888 137.097C308.031 136.313 310.412 135.172 312.733 135.172" stroke="#1A1A1A" stroke-width="2" stroke-linecap="round" stroke-linejoin="round"/>
<path d="M310.166 148.861C312.308 148.031 314.641 147.294 316.583 146.08" stroke="#1A1A1A" stroke-width="2" stroke-linecap="round" stroke-linejoin="round"/>
<path d="M337.759 133.245C339.723 131.454 341.9 129.905 344.176 128.539" stroke="#1A1A1A" stroke-width="2" stroke-linecap="round" stroke-linejoin="round"/>
<path d="M306.529 165.973C307.962 165.992 309.378 166.097 310.807 166.187" stroke="#1A1A1A" stroke-width="2" stroke-linecap="round" stroke-linejoin="round"/>
<path d="M333.909 161.696C335.727 161.727 338.62 160.98 340.112 159.984" stroke="#1A1A1A" stroke-width="2" stroke-linecap="round" stroke-linejoin="round"/>
<path d="M335.62 166.615C337.569 165.655 339.683 164.262 341.823 163.834" stroke="#1A1A1A" stroke-width="2" stroke-linecap="round" stroke-linejoin="round"/>
<path d="M350.594 145.225C352.24 143.983 353.976 142.887 355.727 141.803" stroke="#1A1A1A" stroke-width="2" stroke-linecap="round" stroke-linejoin="round"/>
<path d="M350.166 152.07C351.849 150.975 353.459 149.778 355.133 148.671C355.585 148.373 356.029 148.006 356.583 148.006" stroke="#1A1A1A" stroke-width="2" stroke-linecap="round" stroke-linejoin="round"/>
<path d="M212.998 329.669L169.5 333.666L167.5 348.167L167.5 367.167L216.501 377.664L255.999 372.167L255.998 350.669L252.497 336.671L212.998 329.669Z" fill="white"/>
<path d="M205.408 355.228L200.499 374.423M207.613 374.423C209.188 368.261 210.793 361.987 212.426 355.601L207.613 374.423Z" stroke="black" stroke-width="2" stroke-linecap="round" stroke-linejoin="round"/>
<path d="M228.029 354.717L223 374.892M221 356.165L216.091 375.359" stroke="black" stroke-width="2" stroke-linecap="round" stroke-linejoin="round"/>
<path d="M235.747 354.021L230 373.967M238 372.843C239.575 366.682 241.623 358.732 243.256 352.346L238 372.843Z" stroke="black" stroke-width="2" stroke-linecap="round" stroke-linejoin="round"/>
<path d="M211.203 376.121C228.914 374.732 239.198 374.037 258.624 370.562" stroke="black" stroke-width="2" stroke-linecap="round" stroke-linejoin="round"/>
<path d="M251.946 372.11L254.82 360.979M250.127 351.934L244.5 372.576" stroke="black" stroke-width="2" stroke-linecap="round" stroke-linejoin="round"/>
<path d="M172.907 348.762L168.179 367.249M185.5 351.666C183.862 358.07 182.261 364.331 180.696 370.45L185.5 351.666ZM174.463 369.406C175.958 363.561 177.968 356.153 179.5 350.167L174.463 369.406Z" stroke="black" stroke-width="2" stroke-linecap="round" stroke-linejoin="round"/>
<path d="M192.61 352.842L187.796 371.667M198.936 353.864C197.252 360.451 195.606 366.886 194 373.167L198.936 353.864Z" stroke="black" stroke-width="2" stroke-linecap="round" stroke-linejoin="round"/>
<path d="M167.655 367.775C187.774 371.428 202.144 374.471 222.263 377.515" stroke="black" stroke-width="2" stroke-linecap="round" stroke-linejoin="round"/>
<path d="M165.5 347.6C184.182 351.078 205.019 354.556 221.545 356.644" stroke="black" stroke-width="2" stroke-linecap="round" stroke-linejoin="round"/>
<path d="M210.048 328.816C228.011 332.295 239.507 334.382 255.315 336.469" stroke="black" stroke-width="2" stroke-linecap="round" stroke-linejoin="round"/>
<path d="M256.753 355.252C254.635 346.904 253.123 339.947 251.005 332.99" stroke="black" stroke-width="2" stroke-linecap="round" stroke-linejoin="round"/>
<path d="M210.048 355.949C228.296 354.905 242.485 352.296 262.5 349.688" stroke="black" stroke-width="2" stroke-linecap="round" stroke-linejoin="round"/>
<path d="M255.315 349.688C255.315 358.036 255.315 362.906 255.315 372.646" stroke="black" stroke-width="2" stroke-linecap="round" stroke-linejoin="round"/>
<path d="M168.5 348.166C168.5 348.166 168.5 335.166 168.5 332.166" stroke="black" stroke-width="2" stroke-linecap="round" stroke-linejoin="round"/>
<path d="M215.077 355.252C215.077 363.6 215.077 368.47 215.077 378.21M168 345.166C168 353.514 168 358.384 168 368.124" stroke="black" stroke-width="2" stroke-linecap="round" stroke-linejoin="round"/>
<path d="M167.655 332.99C189.929 331.599 195.678 330.903 220.826 328.816" stroke="black" stroke-width="2" stroke-linecap="round" stroke-linejoin="round"/>
<rect x="192.248" y="302.729" width="39" height="39" rx="19.5" fill="#F8F8F8" stroke="black" stroke-width="2"/>
<path d="M192.901 338.687L210.965 322.195" stroke="black" stroke-width="2" stroke-linecap="round"/>
<path d="M208.32 324.689C207.563 319.973 208.414 311.32 214.063 311.32C222.507 311.322 221.424 326.281 220.806 328.877C220.146 331.654 214.556 340.924 200.684 331.821" stroke="black" stroke-width="2" stroke-linecap="round"/>
<path d="M219.996 315.906C233.373 318.879 222.477 314.409 220.987 318.879" stroke="black" stroke-width="2" stroke-linecap="round"/>
</g>
</g>
<defs>
<radialGradient id="paint0_radial" cx="0" cy="0" r="1" gradientUnits="userSpaceOnUse" gradientTransform="translate(237.223 315.426) rotate(90) scale(106.5 249)">
<stop stop-color="#FBE782"/>
<stop offset="1" stop-color="white" stop-opacity="0"/>
</radialGradient>
<clipPath id="clip0">
<rect width="500" height="480" fill="white" transform="translate(0.5 0.166016)"/>
</clipPath>
<clipPath id="clip1">
<rect width="521.445" height="356.196" fill="white" transform="translate(-23.5 97.166)"/>
</clipPath>
</defs>
</svg>
