<svg width="21" height="21" viewBox="0 0 21 21" fill="none" xmlns="http://www.w3.org/2000/svg">
<path d="M17.1838 10.879C17.0674 11.2409 16.8766 11.5745 16.6237 11.8583L15.2077 13.2567L12.4463 10.4951L15.2077 7.73353L16.6315 9.15741C17.0134 9.53737 17.4149 10.076 17.1858 10.8633M18.5743 7.22039L13.7879 2.42779C13.221 1.89189 12.5458 1.48382 11.8079 1.23111C10.1726 0.686627 8.54511 1.11163 7.22708 2.42779L2.4289 7.22039C1.89303 7.78726 1.48499 8.46248 1.23229 9.20049C0.685882 10.8359 1.11086 12.4635 2.4289 13.7796L7.22121 18.5722C7.78714 19.1083 8.46173 19.5164 9.19923 19.7689C9.64601 19.9199 10.1142 19.998 10.5858 20C11.7354 20 12.8361 19.5143 13.78 18.5722L18.5704 13.7796C19.107 13.2129 19.5157 12.5377 19.769 11.7995C20.3134 10.1641 19.8884 8.5385 18.5704 7.22039H18.5743ZM10.8698 3.81837C11.2318 3.93444 11.5654 4.12528 11.849 4.37852L13.265 5.79651L10.5036 8.55613L7.74215 5.79455L9.16594 4.36872C9.54784 3.98876 10.0864 3.58529 10.8737 3.8164L10.8698 3.81837ZM3.82331 10.1289C3.93974 9.76654 4.13127 9.43285 4.38538 9.14957L5.80134 7.73353L8.56274 10.4951L5.79938 13.2567L4.37559 11.8308C3.99369 11.4509 3.59221 10.9123 3.82135 10.1249L3.82331 10.1289ZM10.1334 17.1758C9.77093 17.0607 9.43711 16.8698 9.15419 16.6156L7.74215 15.2152L10.5036 12.4517L13.265 15.2133L11.8412 16.6391C11.4593 17.0191 10.9227 17.4225 10.1334 17.1914V17.1758Z" stroke="#00ADE4" stroke-linecap="round" stroke-linejoin="round"/>
</svg>
