<svg width="500" height="480" viewBox="0 0 500 480" fill="none" xmlns="http://www.w3.org/2000/svg">
<g clip-path="url(#clip0)">
<path opacity="0.6" d="M669.799 420.303C656.986 469.289 464.021 461.299 238.799 402.458C13.5781 343.617 -158.613 256.207 -145.799 207.221C-132.986 158.236 59.9794 166.225 285.201 225.066C510.422 283.907 682.613 371.318 669.799 420.303Z" fill="url(#paint0_radial)" fill-opacity="0.5"/>
<path d="M181.898 115.807L163.126 124.145V251.992L368.918 316.61L383.518 308.272V166.529L181.898 115.807Z" fill="white"/>
<path fill-rule="evenodd" clip-rule="evenodd" d="M163.112 111.793C163.576 111.793 163.952 112.169 163.952 112.633L163.952 257.898C163.952 258.362 163.576 258.738 163.112 258.738C162.648 258.738 162.272 258.362 162.272 257.898L162.271 112.633C162.271 112.169 162.648 111.793 163.112 111.793Z" fill="black" stroke="black" stroke-width="0.3" stroke-linecap="round" stroke-linejoin="round"/>
<path fill-rule="evenodd" clip-rule="evenodd" d="M367.513 165.342C367.977 165.342 368.353 165.718 368.353 166.181V316.263C368.353 316.727 367.977 317.103 367.513 317.103C367.049 317.103 366.673 316.727 366.673 316.263V166.181C366.673 165.718 367.049 165.342 367.513 165.342Z" fill="black" stroke="black" stroke-width="0.3" stroke-linecap="round" stroke-linejoin="round"/>
<path fill-rule="evenodd" clip-rule="evenodd" d="M376.671 174.726C376.557 175.176 376.1 175.448 375.65 175.334L155.954 119.748C155.504 119.634 155.232 119.178 155.346 118.728C155.46 118.279 155.917 118.006 156.367 118.12L376.062 173.706C376.512 173.82 376.785 174.277 376.671 174.726Z" fill="black" stroke="black" stroke-width="0.3" stroke-linecap="round" stroke-linejoin="round"/>
<path fill-rule="evenodd" clip-rule="evenodd" d="M393.356 167.779C393.242 168.228 392.785 168.501 392.336 168.387L172.64 112.801C172.19 112.687 171.918 112.23 172.031 111.781C172.145 111.331 172.602 111.059 173.052 111.173L392.748 166.759C393.198 166.873 393.47 167.329 393.356 167.779Z" fill="black" stroke="black" stroke-width="0.3" stroke-linecap="round" stroke-linejoin="round"/>
<path fill-rule="evenodd" clip-rule="evenodd" d="M373.877 316.515C373.739 316.957 373.268 317.204 372.825 317.066L158.691 250.363C158.248 250.225 158.001 249.755 158.139 249.312C158.277 248.869 158.748 248.622 159.191 248.76L373.325 315.463C373.768 315.601 374.015 316.072 373.877 316.515Z" fill="black" stroke="black" stroke-width="0.3" stroke-linecap="round" stroke-linejoin="round"/>
<path fill-rule="evenodd" clip-rule="evenodd" d="M381.418 159.783C381.882 159.783 382.258 160.159 382.258 160.623V309.315C382.258 309.779 381.882 310.154 381.418 310.154C380.954 310.154 380.578 309.779 380.578 309.315V160.623C380.578 160.159 380.954 159.783 381.418 159.783Z" fill="black" stroke="black" stroke-width="0.3" stroke-linecap="round" stroke-linejoin="round"/>
<path fill-rule="evenodd" clip-rule="evenodd" d="M385.586 303.28C385.85 303.661 385.755 304.184 385.373 304.448C376.311 310.718 372.81 312.818 365.135 317.002C364.728 317.224 364.218 317.074 363.995 316.667C363.773 316.259 363.923 315.749 364.331 315.527C371.951 311.373 375.402 309.304 384.417 303.067C384.798 302.803 385.322 302.898 385.586 303.28Z" fill="black" stroke="black" stroke-width="0.3" stroke-linecap="round" stroke-linejoin="round"/>
<path fill-rule="evenodd" clip-rule="evenodd" d="M387.673 159.454C387.936 159.836 387.839 160.359 387.456 160.621C381.506 164.71 375.699 168.243 369.276 172.151C367.28 173.366 365.225 174.616 363.087 175.931C362.692 176.174 362.175 176.051 361.931 175.656C361.688 175.261 361.811 174.744 362.207 174.501C364.361 173.175 366.427 171.918 368.429 170.701C374.842 166.798 380.596 163.297 386.504 159.238C386.887 158.975 387.41 159.072 387.673 159.454Z" fill="black" stroke="black" stroke-width="0.3" stroke-linecap="round" stroke-linejoin="round"/>
<path fill-rule="evenodd" clip-rule="evenodd" d="M185.091 111.311C185.272 111.738 185.072 112.231 184.645 112.412C182.888 113.157 181.293 113.832 179.807 114.462C172.018 117.76 167.224 119.79 157.887 123.873C157.462 124.058 156.967 123.865 156.781 123.44C156.595 123.015 156.788 122.52 157.214 122.334C166.56 118.248 171.362 116.214 179.152 112.915C180.638 112.286 182.233 111.61 183.989 110.866C184.416 110.685 184.909 110.884 185.091 111.311Z" fill="black" stroke="black" stroke-width="0.3" stroke-linecap="round" stroke-linejoin="round"/>
<path fill-rule="evenodd" clip-rule="evenodd" d="M191.703 115.628C191.892 116.052 191.702 116.548 191.278 116.737L175.982 123.559C175.558 123.748 175.062 123.558 174.872 123.134C174.683 122.711 174.874 122.214 175.297 122.025L190.593 115.204C191.017 115.015 191.514 115.205 191.703 115.628Z" fill="black" stroke="black" stroke-width="0.3" stroke-linecap="round" stroke-linejoin="round"/>
<path fill-rule="evenodd" clip-rule="evenodd" d="M220.208 123.491C220.397 123.914 220.207 124.411 219.783 124.6L204.044 131.619C203.62 131.808 203.123 131.618 202.934 131.195C202.745 130.771 202.935 130.275 203.359 130.086L219.098 123.066C219.522 122.877 220.019 123.067 220.208 123.491ZM211.17 120.426C211.359 120.849 211.169 121.346 210.745 121.535L194.005 129C193.582 129.189 193.085 128.999 192.896 128.576C192.707 128.152 192.897 127.656 193.321 127.467L210.06 120.001C210.484 119.812 210.981 120.002 211.17 120.426ZM202.132 118.248C202.321 118.671 202.13 119.168 201.707 119.357L185.792 126.455C185.368 126.644 184.872 126.454 184.683 126.03C184.493 125.607 184.684 125.11 185.107 124.921L201.022 117.823C201.446 117.634 201.942 117.824 202.132 118.248Z" fill="black" stroke="black" stroke-width="0.3" stroke-linecap="round" stroke-linejoin="round"/>
<path fill-rule="evenodd" clip-rule="evenodd" d="M250.104 130.663C250.293 131.086 250.103 131.583 249.679 131.772L233.248 139.1C232.824 139.289 232.327 139.099 232.138 138.675C231.949 138.252 232.139 137.756 232.563 137.567L248.995 130.238C249.418 130.049 249.915 130.239 250.104 130.663ZM240.5 127.85C240.689 128.274 240.499 128.77 240.075 128.959L224.122 136.074C223.698 136.263 223.201 136.073 223.012 135.65C222.823 135.226 223.013 134.73 223.437 134.541L239.39 127.426C239.814 127.237 240.311 127.427 240.5 127.85ZM230.702 126.011C230.891 126.435 230.701 126.931 230.277 127.12L214.996 133.935C214.572 134.124 214.076 133.934 213.887 133.511C213.697 133.087 213.888 132.591 214.311 132.402L229.592 125.587C230.016 125.398 230.513 125.588 230.702 126.011Z" fill="black" stroke="black" stroke-width="0.3" stroke-linecap="round" stroke-linejoin="round"/>
<path fill-rule="evenodd" clip-rule="evenodd" d="M279.999 137.903C280.188 138.326 279.998 138.823 279.574 139.012L264.275 145.835C263.851 146.024 263.354 145.834 263.165 145.411C262.976 144.987 263.166 144.491 263.59 144.302L278.889 137.478C279.313 137.289 279.81 137.48 279.999 137.903ZM268.866 135.772C269.055 136.196 268.865 136.692 268.441 136.881L253.321 143.625C252.897 143.814 252.401 143.623 252.212 143.2C252.022 142.777 252.213 142.28 252.636 142.091L267.756 135.348C268.18 135.159 268.677 135.349 268.866 135.772ZM260.243 133.409C260.433 133.832 260.242 134.329 259.819 134.518L245.111 141.078C244.687 141.266 244.19 141.076 244.001 140.653C243.812 140.229 244.002 139.733 244.426 139.544L259.134 132.984C259.558 132.795 260.054 132.985 260.243 133.409Z" fill="black" stroke="black" stroke-width="0.3" stroke-linecap="round" stroke-linejoin="round"/>
<path fill-rule="evenodd" clip-rule="evenodd" d="M309.895 146.221C310.084 146.644 309.893 147.141 309.47 147.33L294.578 153.971C294.154 154.16 293.657 153.97 293.468 153.547C293.279 153.123 293.469 152.627 293.893 152.438L308.785 145.796C309.209 145.607 309.705 145.797 309.895 146.221ZM300.856 143.156C301.046 143.579 300.855 144.076 300.432 144.265L284.35 151.437C283.926 151.626 283.429 151.436 283.24 151.012C283.051 150.589 283.241 150.092 283.665 149.903L299.747 142.731C300.171 142.542 300.667 142.732 300.856 143.156ZM291.123 140.558C291.312 140.981 291.122 141.478 290.698 141.667L273.587 149.298C273.164 149.487 272.667 149.297 272.478 148.874C272.289 148.45 272.479 147.954 272.903 147.765L290.013 140.133C290.437 139.944 290.934 140.134 291.123 140.558Z" fill="black" stroke="black" stroke-width="0.3" stroke-linecap="round" stroke-linejoin="round"/>
<path fill-rule="evenodd" clip-rule="evenodd" d="M339.095 153.2C339.284 153.623 339.093 154.12 338.67 154.309L321.768 161.847C321.344 162.036 320.848 161.846 320.659 161.422C320.469 160.999 320.66 160.502 321.083 160.313L337.985 152.775C338.409 152.586 338.905 152.776 339.095 153.2ZM328.613 150.778C328.803 151.202 328.612 151.698 328.189 151.887L311.953 159.128C311.529 159.317 311.033 159.127 310.843 158.704C310.654 158.28 310.845 157.784 311.268 157.595L327.504 150.354C327.928 150.165 328.424 150.355 328.613 150.778ZM320.323 148.267C320.512 148.69 320.322 149.187 319.898 149.376L303.516 156.682C303.093 156.871 302.596 156.681 302.407 156.257C302.218 155.834 302.408 155.338 302.832 155.149L319.213 147.842C319.637 147.653 320.134 147.844 320.323 148.267Z" fill="black" stroke="black" stroke-width="0.3" stroke-linecap="round" stroke-linejoin="round"/>
<path fill-rule="evenodd" clip-rule="evenodd" d="M368.291 161.19C368.481 161.613 368.29 162.11 367.867 162.299L352.795 169.021C352.371 169.21 351.874 169.02 351.685 168.596C351.496 168.173 351.686 167.676 352.11 167.487L367.182 160.765C367.606 160.576 368.102 160.766 368.291 161.19ZM358.583 158.424C358.772 158.847 358.582 159.344 358.158 159.533L342.7 166.427C342.277 166.616 341.78 166.426 341.591 166.002C341.402 165.579 341.592 165.082 342.016 164.893L357.474 157.999C357.897 157.81 358.394 158 358.583 158.424ZM348.825 155.752C349.014 156.176 348.824 156.672 348.4 156.861L331.804 164.263C331.38 164.452 330.883 164.262 330.694 163.838C330.505 163.415 330.695 162.918 331.119 162.729L347.715 155.328C348.139 155.139 348.636 155.329 348.825 155.752Z" fill="black" stroke="black" stroke-width="0.3" stroke-linecap="round" stroke-linejoin="round"/>
<path fill-rule="evenodd" clip-rule="evenodd" d="M382.149 171.6C382.391 171.995 382.268 172.513 381.872 172.755L367.272 181.714C366.877 181.957 366.359 181.833 366.116 181.438C365.874 181.043 365.997 180.526 366.393 180.283L380.993 171.324C381.388 171.081 381.906 171.205 382.149 171.6ZM382.148 179.503C382.391 179.898 382.268 180.416 381.872 180.658L368.662 188.764C368.267 189.006 367.75 188.883 367.507 188.488C367.264 188.092 367.388 187.575 367.783 187.333L380.993 179.227C381.388 178.984 381.906 179.108 382.148 179.503ZM381.331 187.609C381.574 188.004 381.45 188.521 381.055 188.764L368.662 196.368C368.267 196.61 367.75 196.487 367.507 196.092C367.264 195.696 367.388 195.179 367.783 194.937L380.175 187.333C380.571 187.09 381.088 187.214 381.331 187.609Z" fill="black" stroke="black" stroke-width="0.3" stroke-linecap="round" stroke-linejoin="round"/>
<path fill-rule="evenodd" clip-rule="evenodd" d="M382.145 194.86C382.387 195.255 382.264 195.772 381.868 196.015L368.659 204.121C368.263 204.363 367.746 204.24 367.503 203.844C367.26 203.449 367.384 202.932 367.779 202.69L380.989 194.584C381.385 194.341 381.902 194.465 382.145 194.86ZM381.724 202.966C381.967 203.361 381.843 203.878 381.448 204.12L368.658 211.968C368.263 212.211 367.746 212.087 367.503 211.692C367.26 211.297 367.384 210.78 367.779 210.537L380.569 202.689C380.964 202.447 381.481 202.57 381.724 202.966ZM381.327 210.813C381.57 211.208 381.446 211.725 381.051 211.968L368.658 219.572C368.263 219.815 367.746 219.691 367.503 219.296C367.26 218.901 367.384 218.384 367.779 218.141L380.171 210.537C380.567 210.294 381.084 210.418 381.327 210.813Z" fill="black" stroke="black" stroke-width="0.3" stroke-linecap="round" stroke-linejoin="round"/>
<path fill-rule="evenodd" clip-rule="evenodd" d="M381.45 217.911C381.693 218.306 381.569 218.823 381.174 219.066L369.355 226.318C368.959 226.561 368.442 226.437 368.199 226.042C367.956 225.647 368.08 225.13 368.476 224.887L380.295 217.635C380.69 217.392 381.208 217.516 381.45 217.911ZM381.45 224.564C381.693 224.959 381.569 225.477 381.174 225.719L369.355 232.972C368.959 233.214 368.442 233.091 368.199 232.695C367.956 232.3 368.08 231.783 368.475 231.541L380.295 224.288C380.69 224.045 381.207 224.169 381.45 224.564ZM381.45 232.168C381.693 232.563 381.569 233.08 381.174 233.323L369.355 240.575C368.959 240.818 368.442 240.694 368.199 240.299C367.956 239.904 368.08 239.387 368.475 239.144L380.295 231.892C380.69 231.649 381.207 231.773 381.45 232.168Z" fill="black" stroke="black" stroke-width="0.3" stroke-linecap="round" stroke-linejoin="round"/>
<path fill-rule="evenodd" clip-rule="evenodd" d="M381.452 239.344C381.695 239.74 381.571 240.257 381.176 240.499L367.966 248.605C367.571 248.848 367.053 248.724 366.811 248.329C366.568 247.934 366.692 247.417 367.087 247.174L380.297 239.068C380.692 238.826 381.21 238.949 381.452 239.344ZM381.452 245.998C381.695 246.393 381.571 246.91 381.176 247.153L368.627 254.853C368.232 255.095 367.714 254.972 367.472 254.577C367.229 254.181 367.353 253.664 367.748 253.422L380.297 245.722C380.692 245.479 381.209 245.603 381.452 245.998ZM381.296 253.698C381.539 254.093 381.415 254.61 381.019 254.853L368.627 262.457C368.232 262.699 367.714 262.576 367.472 262.18C367.229 261.785 367.353 261.268 367.748 261.026L380.14 253.422C380.536 253.179 381.053 253.303 381.296 253.698Z" fill="black" stroke="black" stroke-width="0.3" stroke-linecap="round" stroke-linejoin="round"/>
<path fill-rule="evenodd" clip-rule="evenodd" d="M382.147 260.966C382.389 261.361 382.266 261.878 381.87 262.12L368.661 270.226C368.265 270.469 367.748 270.345 367.505 269.95C367.262 269.555 367.386 269.038 367.781 268.795L380.991 260.689C381.386 260.447 381.904 260.57 382.147 260.966ZM381.352 268.107C381.594 268.502 381.471 269.019 381.075 269.262L368.66 276.879C368.265 277.122 367.748 276.998 367.505 276.603C367.262 276.208 367.386 275.691 367.781 275.448L380.196 267.83C380.592 267.588 381.109 267.712 381.352 268.107ZM381.329 275.724C381.572 276.12 381.448 276.637 381.053 276.879L368.66 284.483C368.265 284.726 367.748 284.602 367.505 284.207C367.262 283.812 367.386 283.295 367.781 283.052L380.173 275.448C380.569 275.206 381.086 275.329 381.329 275.724Z" fill="black" stroke="black" stroke-width="0.3" stroke-linecap="round" stroke-linejoin="round"/>
<path fill-rule="evenodd" clip-rule="evenodd" d="M381.452 283.358C381.695 283.753 381.571 284.27 381.176 284.513L368.661 292.192C368.266 292.435 367.749 292.311 367.506 291.916C367.263 291.521 367.387 291.004 367.782 290.761L380.297 283.082C380.692 282.839 381.21 282.963 381.452 283.358ZM381.452 291.037C381.695 291.432 381.571 291.949 381.176 292.192L369.711 299.227C369.315 299.47 368.798 299.346 368.555 298.951C368.312 298.556 368.436 298.039 368.832 297.796L380.297 290.761C380.692 290.518 381.209 290.642 381.452 291.037ZM381.452 298.68C381.695 299.075 381.571 299.592 381.175 299.835L368.661 307.514C368.266 307.756 367.748 307.633 367.505 307.238C367.263 306.842 367.386 306.325 367.782 306.083L380.296 298.404C380.692 298.161 381.209 298.285 381.452 298.68Z" fill="black" stroke="black" stroke-width="0.3" stroke-linecap="round" stroke-linejoin="round"/>
<path fill-rule="evenodd" clip-rule="evenodd" d="M283.234 187.777C283.437 188.194 283.264 188.696 282.847 188.899C269.319 195.483 260.506 200.051 249.547 206.025C249.14 206.247 248.63 206.097 248.407 205.69C248.185 205.283 248.335 204.773 248.743 204.55C259.725 198.564 268.56 193.984 282.111 187.39C282.528 187.187 283.031 187.36 283.234 187.777Z" fill="black" stroke="black" stroke-width="0.3" stroke-linecap="round" stroke-linejoin="round"/>
<path fill-rule="evenodd" clip-rule="evenodd" d="M288.82 189.561C289.088 189.183 289.613 189.094 289.991 189.362C296.835 194.207 302.832 198.842 310.15 204.5C312.621 206.41 315.244 208.438 318.1 210.629C318.373 210.838 318.491 211.192 318.398 211.522C318.305 211.853 318.019 212.094 317.678 212.13C310.265 212.917 304.136 213.838 297.675 214.81C294.272 215.321 290.778 215.847 286.955 216.374C286.495 216.437 286.071 216.116 286.008 215.657C285.945 215.197 286.266 214.774 286.725 214.71C290.505 214.189 293.982 213.667 297.377 213.156C303.25 212.273 308.88 211.427 315.42 210.688C313.184 208.968 311.092 207.351 309.1 205.811C301.792 200.162 295.833 195.555 289.02 190.732C288.641 190.464 288.552 189.94 288.82 189.561Z" fill="black" stroke="black" stroke-width="0.3" stroke-linecap="round" stroke-linejoin="round"/>
<path fill-rule="evenodd" clip-rule="evenodd" d="M246.533 179.57C246.421 179.12 245.965 178.846 245.514 178.959C237.912 180.858 221.169 184.661 210.887 186.945C210.551 187.019 210.295 187.291 210.24 187.63C210.185 187.969 210.342 188.308 210.637 188.484C210.964 188.681 211.297 188.881 211.636 189.084C219.17 193.605 229.47 199.785 241.173 205.268C241.593 205.465 242.094 205.284 242.291 204.864C242.488 204.444 242.307 203.944 241.887 203.747C230.677 198.496 220.759 192.597 213.306 188.127C223.644 185.821 238.784 182.371 245.922 180.588C246.372 180.476 246.646 180.02 246.533 179.57Z" fill="black" stroke="black" stroke-width="0.3" stroke-linecap="round" stroke-linejoin="round"/>
<path fill-rule="evenodd" clip-rule="evenodd" d="M218.642 220.629C218.776 220.185 219.244 219.933 219.689 220.067L270.329 235.288C270.774 235.422 271.026 235.89 270.892 236.334C270.758 236.778 270.29 237.03 269.846 236.896L219.205 221.675C218.761 221.542 218.509 221.073 218.642 220.629Z" fill="black" stroke="black" stroke-width="0.3" stroke-linecap="round" stroke-linejoin="round"/>
<path fill-rule="evenodd" clip-rule="evenodd" d="M217.12 234.323C217.256 233.88 217.727 233.631 218.17 233.768L309.552 261.927C309.995 262.064 310.244 262.534 310.107 262.977C309.97 263.42 309.5 263.668 309.057 263.532L217.675 235.373C217.231 235.236 216.983 234.766 217.12 234.323Z" fill="black" stroke="black" stroke-width="0.3" stroke-linecap="round" stroke-linejoin="round"/>
<path fill-rule="evenodd" clip-rule="evenodd" d="M216.813 248.23C216.949 247.786 217.418 247.536 217.862 247.672L278.328 266.111C278.772 266.247 279.022 266.716 278.886 267.16C278.751 267.603 278.281 267.853 277.838 267.718L217.372 249.278C216.928 249.142 216.678 248.673 216.813 248.23Z" fill="black" stroke="black" stroke-width="0.3" stroke-linecap="round" stroke-linejoin="round"/>
<path d="M353.999 368.12C352.883 377.973 303.078 378.717 291.698 371.378L287.394 311.596L283.884 289.964C310.481 302.806 355.36 296.252 356.95 286.486C356.95 315.691 356.95 342.057 353.999 368.12Z" fill="white"/>
<path d="M357.594 286.754C352.011 295.603 340.005 298.345 322.264 298.345C298.463 298.345 287.898 294.403 284.528 290.232C301.79 275.707 340.332 282.639 357.594 286.754Z" fill="white"/>
<path fill-rule="evenodd" clip-rule="evenodd" d="M316.538 279.613C326.27 279.315 340.465 279.612 348.803 282.111C349.031 282.179 349.193 282.362 349.246 282.578C350.957 282.989 353.002 283.594 354.67 284.38C355.406 284.727 356.09 285.119 356.646 285.559C357.197 285.995 357.665 286.512 357.903 287.121C358.151 287.758 358.125 288.44 357.781 289.118C357.451 289.77 356.842 290.392 355.972 290.998C351.696 293.977 346.159 295.602 340.505 296.547C334.885 297.487 329.083 297.764 324.191 297.998L324.089 298.002C318.657 298.262 312.039 298.486 305.518 298.014C299.007 297.544 292.533 296.376 287.416 293.817C285.547 292.882 284.116 291.538 283.726 289.945C283.716 289.906 283.707 289.867 283.699 289.828C280.592 291.479 277.577 293.372 274.396 295.381C274.093 295.572 273.693 295.482 273.502 295.179C273.311 294.877 273.401 294.477 273.704 294.286C277.081 292.154 280.314 290.122 283.698 288.366C283.936 287.244 284.732 286.166 286.072 285.217C287.552 284.17 289.699 283.327 292.161 282.642C294.637 281.953 297.484 281.409 300.401 280.983C306.237 280.129 312.403 279.739 316.538 279.613ZM284.921 289.194C284.927 289.346 284.949 289.494 284.984 289.637C285.243 290.693 286.274 291.798 287.996 292.659C292.889 295.106 299.164 296.257 305.612 296.723C312.05 297.188 318.603 296.968 324.027 296.709L324.099 296.706C329.008 296.471 334.747 296.197 340.291 295.27C345.87 294.338 351.186 292.754 355.231 289.936C356.01 289.392 356.43 288.919 356.626 288.533C356.808 288.173 356.806 287.875 356.696 287.591C356.574 287.28 356.299 286.936 355.842 286.574C355.39 286.217 354.801 285.874 354.118 285.551C351.364 284.254 347.43 283.455 346.081 283.268C330.425 281.103 311.657 281.558 296.329 285.011C292.125 285.958 288.444 287.412 284.921 289.194ZM285.554 287.439C285.851 287.057 286.265 286.667 286.82 286.274C288.117 285.356 290.092 284.562 292.509 283.889C294.913 283.22 297.702 282.686 300.589 282.264C306.361 281.42 312.475 281.033 316.578 280.907C317.009 280.894 317.449 280.882 317.896 280.871C310.321 281.266 302.852 282.214 296.044 283.748C292.203 284.613 288.788 285.891 285.554 287.439Z" fill="black" stroke="black" stroke-width="0.3" stroke-linecap="round" stroke-linejoin="round"/>
<path fill-rule="evenodd" clip-rule="evenodd" d="M287.034 282.793C287.287 283.046 287.287 283.456 287.034 283.709C285.157 285.584 284.624 286.472 284.542 287.362C284.5 287.826 284.576 288.343 284.75 289.076C284.822 289.379 284.907 289.706 285.003 290.075C285.023 290.151 285.043 290.228 285.064 290.307C285.184 290.77 285.317 291.289 285.452 291.875C285.461 291.911 285.466 291.947 285.468 291.984L285.487 292.325C287.238 322.925 289.155 356.437 291.074 371.453C291.119 371.808 290.868 372.132 290.513 372.178C290.158 372.223 289.834 371.972 289.788 371.617C287.864 356.556 285.946 323.025 284.198 292.474L284.178 292.113C284.05 291.566 283.926 291.078 283.81 290.633C283.79 290.556 283.77 290.481 283.751 290.406C283.655 290.037 283.565 289.693 283.489 289.375C283.309 288.615 283.19 287.928 283.252 287.244C283.381 285.838 284.259 284.652 286.118 282.793C286.371 282.54 286.781 282.54 287.034 282.793Z" fill="black" stroke="black" stroke-width="0.3" stroke-linecap="round" stroke-linejoin="round"/>
<path fill-rule="evenodd" clip-rule="evenodd" d="M357.369 287.281C357.727 287.285 358.014 287.578 358.01 287.935L357.362 287.929L356.714 287.922C356.718 287.564 357.011 287.278 357.369 287.281ZM357.362 287.929C356.714 287.922 356.714 287.921 356.714 287.922L356.707 288.614C356.701 289.068 356.693 289.736 356.682 290.593C356.66 292.307 356.626 294.778 356.578 297.805C356.482 303.86 356.329 312.137 356.104 321.031C355.655 338.832 354.916 359.059 353.765 368.89C353.724 369.245 353.978 369.567 354.333 369.608C354.689 369.65 355.01 369.396 355.052 369.041C356.211 359.139 356.95 338.847 357.399 321.063C357.624 312.165 357.777 303.883 357.873 297.826C357.922 294.797 357.956 292.325 357.978 290.61C357.989 289.752 357.997 289.084 358.002 288.629L358.01 287.935C358.01 287.935 358.01 287.935 357.362 287.929Z" fill="black"/>
<path d="M358.01 287.935C358.014 287.578 357.727 287.285 357.369 287.281C357.011 287.278 356.718 287.564 356.714 287.922M358.01 287.935L357.362 287.929M358.01 287.935C358.01 287.935 358.01 287.935 357.362 287.929M358.01 287.935L358.002 288.629C357.997 289.084 357.989 289.752 357.978 290.61C357.956 292.325 357.922 294.797 357.873 297.826C357.777 303.883 357.624 312.165 357.399 321.063C356.95 338.847 356.211 359.139 355.052 369.041C355.01 369.396 354.689 369.65 354.333 369.608C353.978 369.567 353.724 369.245 353.765 368.89C354.916 359.059 355.655 338.832 356.104 321.031C356.329 312.137 356.482 303.86 356.578 297.805C356.626 294.778 356.66 292.307 356.682 290.593C356.693 289.736 356.701 289.068 356.707 288.614L356.714 287.922M357.362 287.929L356.714 287.922M357.362 287.929C356.714 287.922 356.714 287.921 356.714 287.922" stroke="black" stroke-width="0.3" stroke-linecap="round" stroke-linejoin="round"/>
<path d="M313.461 304.812L309.705 306.064C312.209 307.732 316.966 311.319 315.965 312.32C314.963 313.321 317.217 317.742 318.469 319.827L319.721 336.093C318.886 336.51 316.966 337.594 315.965 338.595C314.713 339.846 317.217 343.6 320.973 343.6C324.729 343.6 325.981 339.846 325.981 338.595C325.981 337.594 323.477 335.676 322.225 334.841L323.477 319.827L330.988 326.083C330.988 327.334 331.74 330.087 334.744 331.088C338.5 332.339 339.752 327.334 339.752 326.083C339.752 325.082 336.414 323.164 334.744 322.329L325.981 316.073C325.563 315.239 324.478 313.321 323.477 312.32C322.475 311.319 319.721 310.234 318.469 309.817L313.461 304.812Z" fill="white" stroke="black" stroke-width="0.3"/>
<path fill-rule="evenodd" clip-rule="evenodd" d="M316.707 312.683C316.458 312.94 316.048 312.948 315.791 312.699C314.428 311.385 313.281 310.224 312.05 308.978C311.268 308.185 310.451 307.359 309.524 306.436C309.27 306.184 309.269 305.774 309.521 305.521C309.774 305.267 310.184 305.266 310.438 305.518C311.385 306.46 312.207 307.293 312.99 308.086C314.21 309.321 315.335 310.461 316.69 311.767C316.948 312.016 316.955 312.426 316.707 312.683ZM320.178 311.139C319.919 311.386 319.509 311.376 319.262 311.118C318.254 310.061 317.312 309.151 316.341 308.215L316.277 308.153C315.328 307.237 314.351 306.295 313.27 305.176C313.022 304.918 313.029 304.509 313.287 304.26C313.544 304.012 313.954 304.019 314.203 304.277C315.267 305.379 316.23 306.308 317.181 307.225L317.241 307.283C318.211 308.218 319.17 309.145 320.2 310.224C320.447 310.483 320.437 310.892 320.178 311.139Z" fill="black" stroke="black" stroke-width="0.3" stroke-linecap="round" stroke-linejoin="round"/>
<path fill-rule="evenodd" clip-rule="evenodd" d="M319.146 336.068C318.788 336.068 318.498 335.779 318.498 335.421V320.22C318.498 319.862 318.788 319.573 319.146 319.573C319.504 319.573 319.794 319.862 319.794 320.22V335.421C319.794 335.779 319.504 336.068 319.146 336.068Z" fill="black" stroke="black" stroke-width="0.3" stroke-linecap="round" stroke-linejoin="round"/>
<path fill-rule="evenodd" clip-rule="evenodd" d="M322.531 336.363C322.173 336.363 321.883 336.073 321.883 335.716L321.883 320.721C321.883 320.364 322.173 320.074 322.531 320.074C322.889 320.074 323.179 320.364 323.179 320.721L323.179 335.716C323.179 336.073 322.889 336.363 322.531 336.363Z" fill="black" stroke="black" stroke-width="0.3" stroke-linecap="round" stroke-linejoin="round"/>
<path fill-rule="evenodd" clip-rule="evenodd" d="M334.268 322.656C334.039 322.931 333.631 322.969 333.355 322.741C332.867 322.336 332.289 321.878 331.643 321.366C330.018 320.08 327.962 318.452 325.817 316.461C325.554 316.218 325.539 315.808 325.783 315.546C326.026 315.284 326.436 315.269 326.698 315.512C328.804 317.466 330.786 319.035 332.4 320.313C333.062 320.837 333.661 321.312 334.183 321.744C334.458 321.973 334.496 322.381 334.268 322.656Z" fill="black" stroke="black" stroke-width="0.3" stroke-linecap="round" stroke-linejoin="round"/>
<path fill-rule="evenodd" clip-rule="evenodd" d="M331.971 325.258C331.773 325.555 331.371 325.636 331.073 325.438C329.601 324.457 328.367 323.417 326.177 321.573C325.698 321.169 325.173 320.726 324.589 320.238C324.315 320.008 324.279 319.6 324.509 319.326C324.739 319.052 325.147 319.016 325.422 319.245C326.017 319.744 326.55 320.193 327.032 320.599C329.218 322.44 330.386 323.423 331.792 324.36C332.089 324.559 332.17 324.96 331.971 325.258Z" fill="black" stroke="black" stroke-width="0.3" stroke-linecap="round" stroke-linejoin="round"/>
<path fill-rule="evenodd" clip-rule="evenodd" d="M321.882 345.222C320.583 345.578 319.147 345.454 317.593 344.923C317.254 344.807 317.074 344.439 317.189 344.101C317.272 343.859 317.483 343.698 317.72 343.668C317.641 343.613 317.565 343.556 317.49 343.497C316.061 342.372 315.16 340.366 315.762 338.595C316.869 335.34 319.996 334.142 322.904 335.092C324.767 335.701 325.8 337.047 326.12 338.551C326.433 340.024 326.059 341.626 325.185 342.816L325.185 342.816C324.284 344.042 323.189 344.865 321.882 345.222ZM323.322 342.971C323.607 342.711 323.88 342.405 324.141 342.05C324.805 341.146 325.086 339.919 324.853 338.82C324.626 337.752 323.91 336.783 322.501 336.323C320.191 335.567 317.842 336.502 316.989 339.012C316.611 340.123 317.165 341.593 318.291 342.48C318.837 342.909 319.477 343.166 320.141 343.172C320.797 343.178 321.53 342.943 322.277 342.292C322.547 342.057 322.956 342.085 323.191 342.354C323.344 342.53 323.386 342.764 323.322 342.971Z" fill="black" stroke="black" stroke-width="0.3" stroke-linecap="round" stroke-linejoin="round"/>
<path fill-rule="evenodd" clip-rule="evenodd" d="M336.367 332.35C335.156 332.687 333.822 332.569 332.385 332.068C332.047 331.95 331.869 331.581 331.986 331.243C332.058 331.037 332.224 330.89 332.419 330.834C332.37 330.798 332.321 330.76 332.273 330.722C330.947 329.657 330.113 327.762 330.671 326.088C331.174 324.58 332.145 323.51 333.359 322.942C334.566 322.377 335.969 322.329 337.31 322.776C339.045 323.354 340.003 324.632 340.299 326.05C340.589 327.44 340.244 328.95 339.433 330.074L339.433 330.074C338.601 331.23 337.585 332.01 336.367 332.35ZM337.751 330.063C337.969 329.847 338.179 329.599 338.382 329.318L338.908 329.696L338.382 329.318C338.986 328.479 339.244 327.337 339.031 326.315C338.824 325.322 338.173 324.429 336.9 324.004C335.841 323.652 334.785 323.704 333.908 324.115C333.038 324.522 332.299 325.303 331.9 326.498C331.557 327.527 332.062 328.891 333.085 329.713C333.579 330.109 334.156 330.343 334.75 330.349C335.335 330.355 335.995 330.141 336.675 329.538C336.942 329.3 337.351 329.324 337.589 329.591C337.709 329.726 337.762 329.896 337.751 330.063Z" fill="black"/>
<path d="M338.382 329.318C338.179 329.599 337.969 329.847 337.751 330.063C337.762 329.896 337.709 329.726 337.589 329.591C337.351 329.324 336.942 329.3 336.675 329.538C335.995 330.141 335.335 330.355 334.75 330.349C334.156 330.343 333.579 330.109 333.085 329.713C332.062 328.891 331.557 327.527 331.9 326.498C332.299 325.303 333.038 324.522 333.908 324.115C334.785 323.704 335.841 323.652 336.9 324.004C338.173 324.429 338.824 325.322 339.031 326.315C339.244 327.337 338.986 328.479 338.382 329.318ZM338.382 329.318L338.908 329.696L338.382 329.318ZM332.385 332.068C333.822 332.569 335.156 332.687 336.367 332.35C337.585 332.01 338.601 331.23 339.433 330.074L339.433 330.074C340.244 328.95 340.589 327.44 340.299 326.05C340.003 324.632 339.045 323.354 337.31 322.776C335.969 322.329 334.566 322.377 333.359 322.942C332.145 323.51 331.174 324.58 330.671 326.088C330.113 327.762 330.947 329.657 332.273 330.722C332.321 330.76 332.37 330.798 332.419 330.834C332.224 330.89 332.058 331.037 331.986 331.243C331.869 331.581 332.047 331.95 332.385 332.068Z" stroke="black" stroke-width="0.3" stroke-linecap="round" stroke-linejoin="round"/>
<path fill-rule="evenodd" clip-rule="evenodd" d="M315.201 303.281C315.399 303.578 315.319 303.98 315.021 304.178C314.269 304.68 313.445 305.091 312.636 305.467C312.334 305.607 312.039 305.74 311.75 305.87C311.243 306.098 310.752 306.32 310.27 306.558C309.949 306.717 309.56 306.586 309.401 306.266C309.243 305.945 309.374 305.557 309.694 305.398C310.195 305.15 310.727 304.91 311.251 304.674C311.536 304.546 311.818 304.419 312.09 304.292C312.883 303.925 313.634 303.546 314.303 303.101C314.6 302.903 315.003 302.983 315.201 303.281Z" fill="black" stroke="black" stroke-width="0.3" stroke-linecap="round" stroke-linejoin="round"/>
<path fill-rule="evenodd" clip-rule="evenodd" d="M320.738 320.854C319.754 320.917 318.704 320.746 317.593 320.366C317.254 320.25 317.074 319.882 317.189 319.544C317.239 319.399 317.334 319.284 317.454 319.208C316.8 318.545 316.273 317.74 315.949 316.91C315.585 315.979 315.452 314.951 315.762 314.038C316.869 310.783 319.996 309.585 322.904 310.535C324.767 311.144 325.8 312.49 326.12 313.994C326.433 315.467 326.059 317.069 325.185 318.259L325.185 318.259C324.719 318.894 324.201 319.421 323.628 319.83C322.719 320.612 321.719 320.918 320.738 320.854ZM322.859 318.788C323.315 318.465 323.742 318.036 324.141 317.493C324.805 316.589 325.086 315.362 324.853 314.263C324.626 313.195 323.91 312.226 322.501 311.766C320.191 311.011 317.842 311.946 316.989 314.455C316.809 314.984 316.86 315.683 317.156 316.439C317.448 317.187 317.956 317.927 318.589 318.502C319.223 319.078 319.945 319.457 320.659 319.547C320.686 319.55 320.714 319.553 320.741 319.556C321.02 319.533 321.286 319.486 321.54 319.417C322 319.291 322.436 319.086 322.848 318.796C322.852 318.793 322.855 318.791 322.859 318.788Z" fill="black" stroke="black" stroke-width="0.3" stroke-linecap="round" stroke-linejoin="round"/>
<path fill-rule="evenodd" clip-rule="evenodd" d="M356.822 345.792C357.1 346.017 357.143 346.425 356.918 346.703C354.383 349.832 349.674 352.289 343.936 354.01C338.173 355.739 331.273 356.755 324.242 356.934C317.211 357.112 310.023 356.453 303.688 354.814C297.362 353.178 291.827 350.549 288.166 346.744C287.918 346.487 287.926 346.077 288.184 345.829C288.442 345.581 288.852 345.589 289.1 345.847C292.529 349.411 297.806 351.955 304.012 353.561C310.209 355.163 317.273 355.815 324.209 355.639C331.145 355.463 337.929 354.46 343.564 352.77C349.223 351.073 353.625 348.711 355.911 345.888C356.136 345.61 356.544 345.567 356.822 345.792Z" fill="black" stroke="black" stroke-width="0.3" stroke-linecap="round" stroke-linejoin="round"/>
<path fill-rule="evenodd" clip-rule="evenodd" d="M356.822 356.685C357.1 356.91 357.143 357.318 356.918 357.595C354.383 360.725 349.674 363.182 343.936 364.903C338.173 366.632 331.273 367.648 324.242 367.826C317.211 368.005 310.023 367.346 303.688 365.707C297.362 364.07 291.827 361.442 288.166 357.637C287.918 357.379 287.926 356.969 288.184 356.721C288.442 356.474 288.852 356.482 289.1 356.739C292.529 360.304 297.806 362.848 304.012 364.453C310.209 366.056 317.273 366.708 324.209 366.532C331.145 366.356 337.929 365.353 343.564 363.663C349.223 361.965 353.625 359.604 355.911 356.781C356.136 356.503 356.544 356.46 356.822 356.685Z" fill="black" stroke="black" stroke-width="0.3" stroke-linecap="round" stroke-linejoin="round"/>
<path fill-rule="evenodd" clip-rule="evenodd" d="M292.901 284.623C293.248 284.707 293.448 285.053 293.347 285.396L290.75 294.222C290.649 294.565 290.285 294.775 289.938 294.691C289.59 294.608 289.39 294.261 289.491 293.918L292.089 285.092C292.19 284.749 292.553 284.539 292.901 284.623Z" fill="black" stroke="black" stroke-width="0.3" stroke-linecap="round" stroke-linejoin="round"/>
<path fill-rule="evenodd" clip-rule="evenodd" d="M344.814 281.551C345.164 281.629 345.37 281.971 345.276 282.316L341.436 296.324C341.341 296.669 340.982 296.885 340.632 296.808C340.283 296.73 340.077 296.388 340.171 296.043L344.011 282.035C344.105 281.69 344.465 281.473 344.814 281.551ZM350.857 283.085C351.207 283.161 351.415 283.502 351.322 283.847C350.404 287.266 350.024 288.712 349.746 289.769C349.401 291.083 349.213 291.797 348.347 294.946C348.252 295.29 347.892 295.507 347.543 295.429C347.194 295.351 346.988 295.008 347.083 294.664C347.948 291.518 348.133 290.813 348.476 289.509C348.753 288.455 349.132 287.011 350.056 283.573C350.149 283.228 350.507 283.009 350.857 283.085Z" fill="black" stroke="black" stroke-width="0.3" stroke-linecap="round" stroke-linejoin="round"/>
<path fill-rule="evenodd" clip-rule="evenodd" d="M337.053 280.829C337.402 280.908 337.607 281.25 337.512 281.594C336.7 284.545 336.056 286.802 335.419 289.031L335.403 289.091C335.397 289.11 335.391 289.13 335.386 289.15L333.373 296.301L333.372 296.305C333.275 296.649 332.915 296.863 332.567 296.784C332.219 296.706 332.014 296.364 332.109 296.02C332.878 293.223 333.499 291.046 334.124 288.859L336.248 281.312L336.249 281.308C336.345 280.965 336.705 280.75 337.053 280.829ZM329.345 279.908C329.696 279.98 329.907 280.32 329.817 280.666L325.4 297.669C325.31 298.014 324.953 298.236 324.602 298.163C324.252 298.09 324.04 297.75 324.13 297.405L328.548 280.402C328.638 280.056 328.995 279.835 329.345 279.908Z" fill="black" stroke="black" stroke-width="0.3" stroke-linecap="round" stroke-linejoin="round"/>
<path fill-rule="evenodd" clip-rule="evenodd" d="M321.801 280.375C322.146 280.465 322.339 280.816 322.231 281.157C320.592 286.367 319.662 289.881 318.693 293.538C318.304 295.009 317.908 296.503 317.458 298.14C317.363 298.485 317.003 298.702 316.654 298.624C316.305 298.546 316.099 298.203 316.193 297.859C316.638 296.241 317.031 294.757 317.42 293.29C318.39 289.623 319.331 286.07 320.98 280.83C321.088 280.488 321.455 280.285 321.801 280.375ZM314.096 281.549C314.445 281.626 314.653 281.967 314.56 282.312L310.404 297.676C310.311 298.021 309.952 298.239 309.602 298.162C309.253 298.086 309.045 297.744 309.138 297.399L313.294 282.036C313.387 281.691 313.746 281.473 314.096 281.549Z" fill="black" stroke="black" stroke-width="0.3" stroke-linecap="round" stroke-linejoin="round"/>
<path fill-rule="evenodd" clip-rule="evenodd" d="M307.189 282.317C307.538 282.396 307.743 282.739 307.648 283.084L303.808 296.897C303.712 297.242 303.352 297.457 303.003 297.379C302.654 297.3 302.448 296.957 302.544 296.612L306.384 282.798C306.48 282.454 306.84 282.238 307.189 282.317ZM300.671 282.319C301.019 282.403 301.219 282.749 301.118 283.093L297.278 296.139C297.177 296.483 296.813 296.693 296.466 296.609C296.118 296.525 295.919 296.179 296.02 295.835L299.859 282.789C299.96 282.445 300.324 282.235 300.671 282.319Z" fill="black" stroke="black" stroke-width="0.3" stroke-linecap="round" stroke-linejoin="round"/>
<path fill-rule="evenodd" clip-rule="evenodd" d="M356.027 289.845C356.232 290.138 356.16 290.542 355.866 290.746C351.59 293.725 346.054 295.351 340.4 296.296C334.78 297.236 328.978 297.513 324.086 297.746L323.984 297.751C318.552 298.01 311.934 298.234 305.413 297.763C298.901 297.292 292.428 296.125 287.311 293.565C286.991 293.405 286.862 293.017 287.022 292.697C287.182 292.377 287.571 292.248 287.891 292.408C292.784 294.855 299.059 296.005 305.506 296.471C311.945 296.937 318.498 296.716 323.922 296.458L323.994 296.454C328.903 296.22 334.642 295.946 340.186 295.019C345.765 294.086 351.08 292.502 355.126 289.684C355.419 289.48 355.823 289.552 356.027 289.845Z" fill="black" stroke="black" stroke-width="0.3" stroke-linecap="round" stroke-linejoin="round"/>
<path fill-rule="evenodd" clip-rule="evenodd" d="M355.613 368.643C355.792 368.953 355.685 369.349 355.375 369.527C346.383 374.697 334.129 377.444 321.92 377.535C309.714 377.626 297.46 375.062 288.484 369.517C288.179 369.329 288.085 368.93 288.273 368.625C288.461 368.321 288.861 368.227 289.165 368.415C297.87 373.793 309.86 376.33 321.911 376.24C333.96 376.15 345.979 373.435 354.729 368.405C355.039 368.226 355.435 368.333 355.613 368.643Z" fill="black" stroke="black" stroke-width="0.3" stroke-linecap="round" stroke-linejoin="round"/>
<path d="M108.408 326.753C106.163 320.022 121.503 267.859 129.454 242.618C109.248 247.105 107.004 275.337 108.408 288.892C99.9885 281.881 85.1139 264.493 92.9712 251.031C100.829 237.57 124.307 227.661 135.064 224.389C126.177 209.899 92.9712 182.322 147.692 187.931C184.81 191.736 174.818 216.443 165.932 224.389C171.077 223.922 177.718 221.304 191.188 237.009C204.657 252.714 204.597 274.524 194.317 281.754C194.317 281.754 192.217 267.899 189.748 260.064C186.48 249.697 174.898 239.135 174.898 239.135C189.748 272.622 201.551 307.63 201.551 307.63C201.551 307.63 207.263 340.736 170.329 297.356C162.036 287.615 140.209 297.773 135.064 304.317C127.114 314.6 110.653 333.483 108.408 326.753Z" fill="white"/>
<path fill-rule="evenodd" clip-rule="evenodd" d="M146.292 185.517C140.269 184.738 134.119 184.807 128.163 186.236C125.895 186.78 123.415 187.567 121.304 188.86C119.181 190.161 117.392 191.998 116.597 194.638C116.185 196.008 116.033 197.424 116.089 198.853C115.543 203.283 117.1 207.516 119.873 211.291C122.659 215.084 126.706 218.463 131.231 221.21C135.761 223.959 140.807 226.096 145.626 227.386C150.433 228.672 155.079 229.131 158.787 228.462C161.228 228.021 163.693 227.157 166.028 225.945C166.483 225.763 166.929 225.567 167.366 225.357C168.669 224.73 169.828 223.848 170.844 222.787C171.393 222.341 171.925 221.874 172.437 221.388C176.27 217.746 179.029 212.967 179.37 207.624C179.746 201.724 176.239 197.357 171.751 194.224C168.872 192.213 165.527 190.662 162.381 189.489C158.596 187.82 154.422 186.858 150.022 186.107C148.786 185.877 147.542 185.678 146.292 185.517ZM149.779 187.77C148.568 187.562 147.332 187.37 146.072 187.182C140.212 186.424 134.274 186.497 128.555 187.869C126.353 188.397 124.072 189.134 122.182 190.292C120.304 191.443 118.85 192.983 118.206 195.121C117.131 198.695 118.087 202.816 120.086 206.727C122.077 210.621 125.038 214.175 127.746 216.538C132.219 220.442 139.123 223.646 146.364 225.176C153.06 226.591 159.92 226.548 165.329 224.415C166.859 223.615 168.332 222.654 169.695 221.556C171.671 219.463 173.103 216.527 173.914 213.39C175.1 208.8 174.869 204.113 173.346 201.478C170.323 196.246 166.389 193.1 161.749 191.045C160.064 190.419 158.429 189.899 156.949 189.476C154.598 188.803 152.201 188.223 149.779 187.77ZM171.723 196.283C175.475 199.163 177.991 202.835 177.693 207.517C177.508 210.421 176.527 213.175 174.988 215.654C175.197 215.044 175.381 214.428 175.541 213.809C176.778 209.021 176.638 203.818 174.801 200.638C173.857 199.004 172.828 197.561 171.723 196.283Z" fill="black" stroke="black" stroke-width="0.3" stroke-linecap="round" stroke-linejoin="round"/>
<path fill-rule="evenodd" clip-rule="evenodd" d="M173.743 236.981C173.321 237.174 173.136 237.672 173.329 238.093C179.065 250.626 182.249 258.653 185.781 267.555C188.238 273.749 190.863 280.367 194.633 289.221C195.614 291.526 198.125 297.996 199.653 304.466C200.418 307.705 200.925 310.898 200.889 313.55C200.854 316.146 200.301 317.995 199.22 318.974C197.434 319.374 195.306 318.669 192.822 317.039C190.281 315.373 187.553 312.864 184.721 310.066C183.706 309.063 182.675 308.021 181.638 306.972C179.81 305.124 177.963 303.256 176.151 301.553C173.308 298.881 170.454 296.518 167.72 295.152C160.47 291.529 153.385 291.638 146.593 294.775C139.845 297.892 133.428 303.978 127.378 312.234C124.562 316.076 121.477 320.174 117.568 322.983C113.702 325.761 109.032 327.277 102.982 325.933C102.529 325.832 102.08 326.118 101.98 326.57C101.879 327.023 102.165 327.472 102.617 327.572C109.195 329.033 114.347 327.366 118.549 324.346C122.707 321.358 125.937 317.042 128.733 313.226C134.703 305.081 140.915 299.248 147.298 296.299C153.639 293.37 160.188 293.266 166.969 296.654C169.47 297.904 172.176 300.122 175 302.776C176.794 304.462 178.597 306.286 180.407 308.116C181.449 309.171 182.494 310.227 183.54 311.261C186.376 314.062 189.207 316.677 191.9 318.443C194.567 320.193 197.288 321.235 199.833 320.552C199.946 320.522 200.052 320.468 200.143 320.394C201.929 318.951 202.531 316.375 202.569 313.573C202.608 310.721 202.066 307.374 201.288 304.08C199.73 297.485 197.182 290.919 196.179 288.563C192.448 279.8 189.828 273.197 187.368 266.999C183.817 258.049 180.6 249.943 174.857 237.395C174.664 236.973 174.165 236.788 173.743 236.981Z" fill="black" stroke="black" stroke-width="0.3" stroke-linecap="round" stroke-linejoin="round"/>
<path fill-rule="evenodd" clip-rule="evenodd" d="M128.355 243.235C127.922 243.07 127.436 243.287 127.27 243.72C124.947 249.793 119.045 265.492 114.305 282.716C111.935 291.328 109.852 300.337 108.652 308.724C107.454 317.098 107.128 324.914 108.314 331.116C108.401 331.572 108.841 331.87 109.297 331.783C109.753 331.696 110.052 331.256 109.964 330.801C108.83 324.869 109.127 317.268 110.315 308.962C111.502 300.669 113.566 291.734 115.926 283.162C120.644 266.017 126.521 250.379 128.84 244.319C129.006 243.886 128.789 243.401 128.355 243.235Z" fill="black" stroke="black" stroke-width="0.3" stroke-linecap="round" stroke-linejoin="round"/>
<path fill-rule="evenodd" clip-rule="evenodd" d="M135.259 222.342C135.017 221.947 134.499 221.823 134.104 222.066C132.494 223.054 130.883 224.03 129.273 225.005C119.759 230.771 110.336 236.481 101.968 244.135C94.1834 251.256 89.882 259.936 90.8705 268.448C91.8623 276.988 98.1427 285.061 110.872 291.025C111.293 291.221 111.793 291.041 111.99 290.621C112.187 290.201 112.006 289.701 111.586 289.504C99.1727 283.689 93.4413 276.018 92.5396 268.254C91.6344 260.461 95.5575 252.275 103.103 245.374C111.338 237.841 120.603 232.225 130.123 226.455C131.737 225.477 133.358 224.494 134.983 223.497C135.379 223.254 135.502 222.737 135.259 222.342Z" fill="black" stroke="black" stroke-width="0.3" stroke-linecap="round" stroke-linejoin="round"/>
<path fill-rule="evenodd" clip-rule="evenodd" d="M166.519 222.811C166.423 223.265 166.714 223.71 167.168 223.806C180.205 226.549 191.559 236.544 197.238 248.276C202.616 259.387 202.835 271.872 194.806 281.18C194.45 269.733 190.978 252.498 174.923 237.79C174.581 237.477 174.049 237.5 173.736 237.842C173.422 238.183 173.445 238.715 173.787 239.028C190.39 254.238 193.159 272.202 193.159 283.281C193.159 283.62 193.363 283.927 193.677 284.057C193.991 284.187 194.353 284.115 194.593 283.874C204.695 273.776 204.626 259.685 198.75 247.545C192.879 235.415 181.133 225.028 167.514 222.163C167.06 222.067 166.614 222.358 166.519 222.811Z" fill="black" stroke="black" stroke-width="0.3" stroke-linecap="round" stroke-linejoin="round"/>
<path fill-rule="evenodd" clip-rule="evenodd" d="M171.553 204.694C171.113 204.547 170.637 204.785 170.491 205.225C168.561 211.009 162.048 213.768 154.431 213.941C146.86 214.113 138.663 211.694 133.951 207.657C133.599 207.355 133.068 207.396 132.766 207.748C132.464 208.1 132.505 208.63 132.857 208.932C137.967 213.309 146.607 215.798 154.47 215.62C162.287 215.442 169.805 212.592 172.085 205.756C172.231 205.316 171.993 204.84 171.553 204.694Z" fill="black" stroke="black" stroke-width="0.3" stroke-linecap="round" stroke-linejoin="round"/>
<path fill-rule="evenodd" clip-rule="evenodd" d="M135.614 240.318C135.486 239.872 135.021 239.614 134.575 239.742C124.643 242.578 114.597 248.277 109.185 257.113C103.729 266.019 103.092 277.921 111.627 292.848C111.857 293.251 112.371 293.391 112.774 293.161C113.176 292.931 113.316 292.418 113.086 292.015C104.784 277.495 105.551 266.261 110.618 257.989C115.728 249.647 125.326 244.129 135.037 241.356C135.483 241.229 135.741 240.764 135.614 240.318Z" fill="black" stroke="black" stroke-width="0.3" stroke-linecap="round" stroke-linejoin="round"/>
</g>
<defs>
<radialGradient id="paint0_radial" cx="0" cy="0" r="1" gradientUnits="userSpaceOnUse" gradientTransform="translate(262 313.762) rotate(104.659) scale(91.6802 421.487)">
<stop stop-color="#33F6FF"/>
<stop offset="1" stop-color="white" stop-opacity="0"/>
</radialGradient>
<clipPath id="clip0">
<rect width="500" height="480" fill="white"/>
</clipPath>
</defs>
</svg>
