<svg xmlns="http://www.w3.org/2000/svg" xmlns:xlink="http://www.w3.org/1999/xlink" viewBox="0 0 1341 587" xmlns:v="https://vecta.io/nano"><style><![CDATA[.B{fill:#fff}.C{fill-rule:evenodd}]]></style><path d="M688.701 103.914c-2.301-.406-4.496 1.131-4.902 3.433l-2.072 11.749c-.405 2.302 1.131 4.496 3.433 4.902l6.144 1.084c.114.02.2-.103.141-.203l-5.801-9.894c-.242-.383-.239-1.127.041-1.305.064-.041.254-.211.254-.211l.325-.355.054-.059c.301-.332.573-.631 1.434-1.062l.186-.065c1.263-.394 1.965-.365 2.667-.337s1.405.057 2.669-.338c1.038-.324 1.981-.96 2.507-1.359.234-.177.578-.126.733.123l3.749 6.002c.116.187.087.428-.083.568a7.08 7.08 0 0 1-2.311 1.254 7.21 7.21 0 0 1-2.704.36c-.72-.017-1.441-.034-2.705.361-1.106.345-1.552.801-1.703 1.001-.032.042-.048.142-.022.189l3.135 5.532a.68.68 0 0 0 .473.333l2.566.453a4.23 4.23 0 0 0 4.902-3.433l2.072-11.749c.406-2.301-1.131-4.496-3.432-4.902l-11.75-2.072z" fill="url(#A)"/><path d="M693.606 112.88c-1.063.277-1.707.257-2.351.236s-1.287-.04-2.349.237c-.614.178-.969.491-1.307.889-.037.044-.042.107-.012.157l2.051 3.361c.043.072.142.088.209.037.287-.221 1.042-.747 1.998-.996 1.197-.313 1.914-.306 2.669-.299.585.006 1.192.012 2.063-.13.585-.095 1.062-.349 1.328-.518.135-.086.164-.263.077-.398l-2.073-3.208c-.096-.15-.3-.192-.456-.104-.341.193-.981.51-1.847.736z" fill="url(#A)"/><path d="M709.39 118.527h1.203v-2.821h2.76v-1.009h-2.76v-1.803h3.052v-1.009h-4.255v6.642zm7.139.098c1.161 0 1.959-.568 2.167-1.434l-1.097-.123c-.159.422-.548.642-1.054.642-.759 0-1.261-.499-1.271-1.352h3.47v-.36c0-1.748-1.051-2.517-2.277-2.517-1.427 0-2.357 1.048-2.357 2.585 0 1.563.917 2.559 2.419 2.559zm-1.252-3.059c.036-.635.506-1.17 1.207-1.17.674 0 1.128.493 1.135 1.17h-2.342zm5.894 3.062c.782 0 1.249-.367 1.463-.785h.038v.684h1.129v-3.334c0-1.316-1.073-1.712-2.024-1.712-1.047 0-1.851.467-2.111 1.375l1.096.156c.117-.341.448-.633 1.022-.633.545 0 .843.279.843.769v.019c0 .338-.353.354-1.232.448-.967.104-1.891.392-1.891 1.515 0 .979.717 1.498 1.667 1.498zm.305-.863c-.49 0-.84-.224-.84-.655 0-.451.392-.639.918-.713.308-.043.924-.12 1.076-.244v.587c0 .555-.447 1.025-1.154 1.025zm5.993-4.219h-.983v-1.194h-1.174v1.194h-.707v.908h.707v2.77c-.006.937.675 1.397 1.557 1.372.334-.01.564-.075.691-.117l-.198-.918c-.065.016-.198.045-.344.045-.295 0-.532-.103-.532-.577v-2.575h.983v-.908zm4.157 2.886c0 .759-.541 1.135-1.06 1.135-.565 0-.941-.398-.941-1.031v-2.99h-1.174v3.172c0 1.196.681 1.874 1.661 1.874.745 0 1.271-.392 1.498-.95h.052v.885h1.138v-4.981h-1.174v2.886zm2.381 2.095h1.174v-2.928c0-.633.477-1.08 1.123-1.08a2.26 2.26 0 0 1 .544.068v-1.08c-.107-.019-.291-.032-.421-.032a1.24 1.24 0 0 0-1.229.901h-.052v-.83h-1.139v4.981zm5.622.098c1.161 0 1.959-.568 2.166-1.434l-1.096-.123c-.159.422-.548.642-1.054.642-.759 0-1.262-.499-1.271-1.352h3.47v-.36c0-1.748-1.051-2.517-2.277-2.517-1.427 0-2.358 1.048-2.358 2.585 0 1.563.918 2.559 2.42 2.559zm-1.252-3.059c.035-.635.506-1.17 1.206-1.17.675 0 1.129.493 1.135 1.17h-2.341zm6.777 2.961h1.203v-2.821h2.76v-1.009h-2.76v-1.803h3.052v-1.009h-4.255v6.642zm6.474-6.642h-1.174v6.642h1.174v-6.642zm2.64 6.743c.782 0 1.249-.367 1.463-.785h.039v.684h1.129v-3.334c0-1.316-1.074-1.712-2.024-1.712-1.048 0-1.852.467-2.111 1.375l1.096.156c.117-.341.447-.633 1.021-.633.545 0 .844.279.844.769v.019c0 .338-.354.354-1.233.448-.966.104-1.891.392-1.891 1.515 0 .979.717 1.498 1.667 1.498zm.305-.863c-.489 0-.84-.224-.84-.655 0-.451.393-.639.918-.713.308-.043.924-.12 1.077-.244v.587c0 .555-.448 1.025-1.155 1.025zm5.673 2.734c1.346 0 2.338-.616 2.338-1.89v-5.063h-1.158v.824h-.065c-.178-.36-.551-.889-1.43-.889-1.151 0-2.056.902-2.056 2.539 0 1.625.905 2.436 2.053 2.436.853 0 1.252-.457 1.433-.824h.059v.944c0 .733-.487 1.035-1.155 1.035-.707 0-1.018-.334-1.161-.626l-1.057.256c.214.697.931 1.258 2.199 1.258zm.009-2.964c-.775 0-1.183-.603-1.183-1.521 0-.905.402-1.57 1.183-1.57.756 0 1.171.626 1.171 1.57 0 .95-.421 1.521-1.171 1.521zm7.469-2.672c-.162-.844-.836-1.382-2.004-1.382-1.2 0-2.017.59-2.014 1.511-.003.727.444 1.207 1.401 1.405l.85.178c.457.101.671.285.671.568 0 .34-.369.596-.927.596-.539 0-.889-.233-.989-.681l-1.145.111c.146.914.914 1.456 2.137 1.456 1.245 0 2.124-.646 2.127-1.589-.003-.711-.46-1.145-1.401-1.35l-.849-.181c-.506-.114-.707-.289-.704-.578-.003-.337.37-.57.859-.57.542 0 .827.295.918.622l1.07-.116z" class="B"/><g clip-path="url(#J)"><path d="M571.987 107.976c1.308.741 2.111 2.132 2.098 3.635l-.063 7.286c-.012 1.465-.799 2.814-2.068 3.547l-6.525 3.766c-1.269.733-2.831.739-4.106.017l-6.34-3.59c-1.308-.74-2.112-2.132-2.099-3.635l.063-7.286a4.14 4.14 0 0 1 2.069-3.547l6.525-3.766a4.14 4.14 0 0 1 4.106-.017l6.34 3.59zm-2.307 5.657c-.343 1.293-1.655 2.069-2.937 1.746l-6.107-1.652c-1.005-.273-2.052-.133-2.952.391s-1.542 1.37-1.811 2.385a3.94 3.94 0 0 0 .39 2.988c.522.913 1.363 1.563 2.369 1.835s2.052.133 2.952-.391 1.542-1.369 1.812-2.385l.212-.853c.027-.108-.037-.217-.144-.246l-1.026-.278c-.11-.03-.223.037-.251.148l-.208.835c-.347 1.306-1.684 2.085-2.978 1.735a2.45 2.45 0 0 1-1.712-2.993c.343-1.293 1.655-2.07 2.938-1.747l6.106 1.653c1.006.272 2.053.133 2.952-.392a3.89 3.89 0 0 0 1.812-2.384c.269-1.016.131-2.076-.391-2.989a3.88 3.88 0 0 0-2.368-1.835 3.83 3.83 0 0 0-2.952.391c-.9.525-1.543 1.37-1.812 2.385l-.202.675c-.032.11.032.225.143.255l1.025.277c.107.029.217-.032.249-.138l.202-.674c.347-1.307 1.683-2.085 2.977-1.735a2.45 2.45 0 0 1 1.712 2.993z" fill="url(#B)" class="C"/><g class="B"><path d="M585.481 109.56c-.204-1.475-1.339-2.332-2.812-2.332-1.735 0-3.042 1.265-3.042 3.412s1.291 3.412 3.042 3.412c1.58 0 2.627-1.022 2.812-2.29l-1.213-.006c-.152.778-.788 1.216-1.583 1.216-1.076 0-1.848-.808-1.848-2.332 0-1.498.765-2.332 1.852-2.332.807 0 1.44.458 1.579 1.252h1.213zm3.223 4.498c1.459 0 2.387-1.028 2.387-2.568s-.928-2.575-2.387-2.575-2.387 1.031-2.387 2.575.928 2.568 2.387 2.568zm.006-.94c-.807 0-1.203-.72-1.203-1.631s.396-1.641 1.203-1.641c.795 0 1.191.729 1.191 1.641s-.396 1.631-1.191 1.631z"/><use xlink:href="#L"/><path d="M600.14 108.98h-.982v-1.194h-1.174v1.194h-.707v.908h.707v2.769c-.007.938.674 1.398 1.556 1.372.334-.009.565-.074.691-.116l-.198-.918c-.065.016-.198.045-.344.045-.295 0-.531-.104-.531-.577v-2.575h.982v-.908zm.982 4.981h1.174v-4.981h-1.174v4.981zm.59-5.688c.373 0 .678-.286.678-.636s-.305-.639-.678-.639-.681.285-.681.639.305.636.681.636zm2.965 2.769c0-.72.435-1.135 1.054-1.135.607 0 .97.399.97 1.064v2.99h1.174v-3.172c.003-1.193-.678-1.874-1.706-1.874-.746 0-1.258.357-1.485.911h-.058v-.846h-1.123v4.981h1.174v-2.919zm7.567.824c0 .759-.542 1.135-1.061 1.135-.564 0-.94-.399-.94-1.031v-2.99h-1.174v3.171c0 1.197.681 1.875 1.66 1.875.746 0 1.272-.392 1.499-.95h.051v.885h1.139v-4.981h-1.174v2.886zm4.554 2.192c1.459 0 2.387-1.028 2.387-2.568s-.928-2.575-2.387-2.575-2.387 1.031-2.387 2.575.928 2.568 2.387 2.568zm.007-.94c-.808 0-1.204-.72-1.204-1.631s.396-1.641 1.204-1.641c.794 0 1.19.729 1.19 1.641s-.396 1.631-1.19 1.631zm6.552-1.252c0 .759-.542 1.135-1.061 1.135-.564 0-.94-.399-.94-1.031v-2.99h-1.174v3.171c0 1.197.681 1.875 1.66 1.875.746 0 1.271-.392 1.498-.95h.052v.885h1.139v-4.981h-1.174v2.886zm6.318-1.57c-.162-.843-.837-1.381-2.004-1.381-1.2 0-2.017.59-2.014 1.511-.003.727.444 1.207 1.401 1.404l.85.179c.457.1.671.285.671.567 0 .341-.37.597-.928.597-.538 0-.888-.233-.989-.681l-1.145.11c.146.915.915 1.456 2.138 1.456 1.245 0 2.124-.645 2.127-1.589-.003-.71-.46-1.145-1.401-1.349l-.85-.181c-.506-.114-.707-.289-.703-.578-.004-.337.369-.571.859-.571.542 0 .827.296.918.623l1.07-.117zm-47.629 13.45c2.024 0 3.224-1.252 3.224-3.327 0-2.069-1.2-3.315-3.178-3.315h-2.296v6.642h2.25zm-1.047-1.041v-4.56h1.025c1.349 0 2.053.753 2.053 2.274 0 1.527-.704 2.286-2.089 2.286h-.989zm7.568 1.139c1.161 0 1.959-.568 2.166-1.434l-1.096-.123c-.159.422-.548.642-1.054.642-.759 0-1.261-.499-1.271-1.352h3.47v-.36c0-1.748-1.051-2.517-2.277-2.517-1.427 0-2.357 1.047-2.357 2.585 0 1.563.917 2.559 2.419 2.559zm-1.252-3.059c.036-.635.506-1.17 1.207-1.17.674 0 1.128.492 1.135 1.17h-2.342zm5.634-3.681h-1.174v6.642h1.174v-6.642zm1.208 6.642h1.174v-4.981h-1.174v4.981zm.59-5.688c.373 0 .678-.286.678-.636s-.305-.639-.678-.639-.681.286-.681.639.305.636.681.636zm6.241.707h-1.249l-1.148 3.7h-.052l-1.145-3.7h-1.252l1.774 4.981h1.298l1.774-4.981zm2.848 5.079c1.161 0 1.959-.568 2.166-1.434l-1.096-.123c-.159.422-.548.642-1.054.642-.759 0-1.262-.499-1.271-1.352h3.47v-.36c0-1.748-1.051-2.517-2.277-2.517-1.427 0-2.358 1.047-2.358 2.585 0 1.563.918 2.559 2.42 2.559zm-1.252-3.059c.036-.635.506-1.17 1.206-1.17.675 0 1.129.492 1.136 1.17h-2.342zm4.46 2.961h1.174v-2.928c0-.633.477-1.08 1.122-1.08.198 0 .445.035.545.068v-1.08c-.107-.02-.292-.033-.421-.033-.571 0-1.048.325-1.23.902h-.051v-.83h-1.139v4.981zm4.503 1.868c.914 0 1.443-.47 1.725-1.264l2.001-5.579-1.255-.006-1.151 3.762h-.052l-1.148-3.762h-1.246l1.807 5.085-.101.269c-.217.568-.561.607-1.073.458l-.273.914c.159.065.444.123.766.123z"/></g></g><g class="B"><path d="M805.923 61.523l-4.431.273c-.076-.379-.239-.72-.489-1.023-.25-.311-.58-.557-.989-.739-.401-.189-.882-.284-1.443-.284-.75 0-1.382.159-1.898.477-.515.311-.772.727-.772 1.25 0 .417.166.769.5 1.057s.905.519 1.716.693l3.159.636c1.697.349 2.962.909 3.795 1.682s1.25 1.788 1.25 3.045c0 1.144-.337 2.148-1.011 3.011-.667.864-1.584 1.538-2.75 2.023-1.159.477-2.496.716-4.012.716-2.31 0-4.151-.481-5.522-1.443a5.62 5.62 0 0 1-2.398-3.955l4.761-.25c.144.705.493 1.242 1.046 1.614.553.364 1.261.545 2.125.545.848 0 1.53-.163 2.045-.489.523-.333.788-.761.796-1.284a1.34 1.34 0 0 0-.557-1.08c-.364-.288-.924-.507-1.682-.659l-3.023-.602c-1.704-.341-2.973-.932-3.807-1.773-.825-.841-1.238-1.913-1.238-3.216 0-1.121.303-2.087.909-2.898.614-.811 1.473-1.436 2.579-1.875 1.114-.439 2.417-.659 3.91-.659 2.204 0 3.939.466 5.204 1.398 1.273.932 2.015 2.201 2.227 3.807zM780.23 74.341c-1.795 0-3.341-.364-4.636-1.091a7.47 7.47 0 0 1-2.978-3.114c-.696-1.349-1.045-2.943-1.045-4.784 0-1.795.349-3.371 1.045-4.727a7.73 7.73 0 0 1 2.944-3.17c1.272-.758 2.765-1.136 4.477-1.136 1.151 0 2.223.186 3.216.557a7.14 7.14 0 0 1 2.614 1.648c.75.735 1.333 1.659 1.75 2.773.416 1.106.625 2.401.625 3.886v1.33h-14.739v-3h10.182c0-.697-.152-1.314-.455-1.852a3.25 3.25 0 0 0-1.261-1.261c-.531-.311-1.148-.466-1.852-.466-.735 0-1.387.17-1.955.511a3.58 3.58 0 0 0-1.318 1.352c-.318.561-.481 1.186-.489 1.875v2.852c0 .864.159 1.61.477 2.239.326.629.784 1.114 1.375 1.454s1.292.511 2.103.511a4.59 4.59 0 0 0 1.477-.227c.447-.151.829-.379 1.148-.682a2.97 2.97 0 0 0 .727-1.114l4.477.295c-.227 1.076-.693 2.015-1.397 2.818-.697.796-1.599 1.417-2.705 1.864-1.099.439-2.367.659-3.807.659zm-20.341 6.568c-1.568 0-2.913-.216-4.034-.648-1.113-.424-2-1.004-2.659-1.739s-1.087-1.561-1.284-2.477l4.477-.602a2.95 2.95 0 0 0 .648.977c.295.303.686.545 1.17.727.493.189 1.091.284 1.796.284 1.053 0 1.92-.258 2.602-.773.69-.508 1.034-1.36 1.034-2.557v-3.193h-.204c-.212.485-.531.943-.955 1.375s-.969.784-1.636 1.057-1.462.409-2.387.409c-1.31 0-2.503-.303-3.579-.909-1.068-.614-1.921-1.549-2.557-2.807-.629-1.265-.943-2.864-.943-4.795 0-1.977.322-3.629.966-4.955s1.5-2.318 2.568-2.977c1.076-.659 2.254-.989 3.534-.989.977 0 1.796.167 2.455.5.659.326 1.189.735 1.591 1.227.409.485.723.962.943 1.432h.182v-2.932h4.806V74.17c0 1.485-.363 2.727-1.091 3.727s-1.734 1.75-3.022 2.25c-1.281.507-2.754.761-4.421.761zm.103-10.795c.78 0 1.439-.193 1.977-.58.545-.394.962-.955 1.25-1.682.295-.735.443-1.614.443-2.636s-.144-1.909-.432-2.659c-.288-.758-.704-1.345-1.25-1.761s-1.208-.625-1.988-.625c-.796 0-1.466.216-2.012.648-.545.424-.958 1.015-1.238 1.773s-.421 1.633-.421 2.625c0 1.008.14 1.879.421 2.614.287.727.7 1.292 1.238 1.693.546.394 1.216.591 2.012.591zm-23.032-6.205V74h-4.841V56.545h4.614v3.079h.205c.386-1.015 1.034-1.818 1.943-2.409.909-.598 2.011-.898 3.307-.898 1.212 0 2.269.265 3.17.795s1.602 1.288 2.102 2.273c.5.977.75 2.144.75 3.5V74h-4.841V63.75c.008-1.068-.265-1.901-.818-2.5-.553-.606-1.314-.909-2.284-.909-.651 0-1.227.14-1.727.42-.493.28-.879.689-1.159 1.227-.273.53-.413 1.17-.421 1.92zM718.534 74.33c-1.113 0-2.106-.193-2.977-.58a4.79 4.79 0 0 1-2.068-1.739c-.5-.773-.75-1.735-.75-2.886 0-.97.178-1.784.534-2.443a4.33 4.33 0 0 1 1.454-1.591c.614-.401 1.311-.704 2.091-.909.788-.205 1.614-.348 2.478-.432l2.454-.295c.621-.099 1.072-.242 1.352-.432s.421-.47.421-.841v-.068c0-.72-.227-1.276-.682-1.67-.447-.394-1.083-.591-1.909-.591-.871 0-1.564.193-2.08.58-.515.379-.856.856-1.022 1.432l-4.478-.364c.228-1.061.675-1.977 1.341-2.75.667-.78 1.527-1.379 2.58-1.795 1.06-.424 2.288-.636 3.682-.636.969 0 1.897.114 2.784.341.894.227 1.685.58 2.375 1.057a5.14 5.14 0 0 1 1.648 1.841c.401.742.602 1.633.602 2.67V74h-4.591v-2.42h-.136a4.95 4.95 0 0 1-1.125 1.443 5.22 5.22 0 0 1-1.694.966c-.659.227-1.42.341-2.284.341zm1.387-3.341c.712 0 1.341-.14 1.886-.421.545-.288.973-.674 1.284-1.159s.466-1.034.466-1.648v-1.852a2.65 2.65 0 0 1-.625.273l-.875.216-.977.17-.887.125a5.96 5.96 0 0 0-1.488.398c-.424.182-.754.428-.989.739-.235.303-.352.682-.352 1.136 0 .659.238 1.163.716 1.511.485.341 1.098.511 1.841.511zm-21.492-7.08V74h-4.841V50.727h4.705v8.898h.204c.394-1.03 1.031-1.837 1.909-2.42.879-.591 1.981-.886 3.307-.886 1.212 0 2.269.265 3.171.796a5.31 5.31 0 0 1 2.113 2.261c.508.977.758 2.148.75 3.511V74h-4.841V63.75c.008-1.076-.265-1.913-.818-2.511-.545-.599-1.31-.898-2.295-.898-.659 0-1.243.14-1.75.421-.5.28-.894.689-1.182 1.227-.28.53-.424 1.17-.432 1.92zm-8.278-5.034h-4.978c-.091-.644-.276-1.216-.557-1.716-.28-.508-.64-.939-1.079-1.296a4.72 4.72 0 0 0-1.523-.818 5.82 5.82 0 0 0-1.852-.284c-1.205 0-2.254.299-3.148.898-.894.591-1.587 1.454-2.079 2.591-.493 1.129-.739 2.5-.739 4.114 0 1.659.246 3.053.739 4.182.5 1.129 1.197 1.981 2.091 2.557s1.928.864 3.102.864c.659 0 1.269-.087 1.829-.261a4.81 4.81 0 0 0 1.512-.761c.439-.341.803-.754 1.091-1.239a4.82 4.82 0 0 0 .613-1.659l4.978.023a9.01 9.01 0 0 1-.966 3.091c-.508.985-1.194 1.867-2.057 2.648-.856.773-1.879 1.386-3.068 1.841-1.182.447-2.519.67-4.012.67-2.075 0-3.932-.47-5.568-1.409-1.629-.939-2.917-2.299-3.864-4.08-.939-1.78-1.409-3.936-1.409-6.466 0-2.538.478-4.697 1.432-6.477s2.25-3.136 3.887-4.068c1.636-.939 3.477-1.409 5.522-1.409 1.349 0 2.599.189 3.75.568 1.159.379 2.186.932 3.08 1.659a8.54 8.54 0 0 1 2.182 2.648c.568 1.045.931 2.242 1.091 3.591zm-43.793 21.67c-.614 0-1.189-.049-1.727-.148-.531-.091-.97-.208-1.319-.352l1.091-3.614c.569.174 1.08.269 1.534.284.463.015.86-.091 1.194-.318.341-.227.617-.614.829-1.159l.284-.739-6.261-17.955h5.091l3.613 12.818h.182l3.648-12.818h5.125l-6.784 19.341c-.326.939-.769 1.758-1.33 2.455a5.45 5.45 0 0 1-2.102 1.625c-.848.386-1.871.579-3.068.579zm-14.165-6.204c-1.765 0-3.291-.375-4.579-1.125-1.281-.758-2.269-1.811-2.966-3.159-.697-1.356-1.046-2.928-1.046-4.716 0-1.803.349-3.379 1.046-4.727.697-1.356 1.685-2.409 2.966-3.159 1.288-.758 2.814-1.136 4.579-1.136s3.288.379 4.568 1.136c1.288.75 2.281 1.803 2.978 3.159.697 1.349 1.045 2.924 1.045 4.727 0 1.788-.348 3.36-1.045 4.716a7.68 7.68 0 0 1-2.978 3.159c-1.28.75-2.803 1.125-4.568 1.125zm.023-3.75c.803 0 1.473-.227 2.011-.682.538-.462.943-1.091 1.216-1.886.281-.796.421-1.701.421-2.716s-.14-1.92-.421-2.716c-.273-.795-.678-1.424-1.216-1.886s-1.208-.693-2.011-.693c-.811 0-1.492.231-2.046.693-.545.462-.958 1.091-1.238 1.886-.273.795-.409 1.701-.409 2.716s.136 1.92.409 2.716c.28.795.693 1.424 1.238 1.886.554.455 1.235.682 2.046.682zm-11.787-19.864V74h-4.841V50.727h4.841zm-25.091 29.818v-24h4.773v2.932h.216c.212-.47.519-.947.92-1.432.409-.492.94-.901 1.591-1.227.659-.333 1.477-.5 2.455-.5 1.272 0 2.447.333 3.522 1 1.076.659 1.936 1.655 2.58 2.989.644 1.326.966 2.989.966 4.989 0 1.947-.315 3.591-.943 4.932-.622 1.333-1.47 2.345-2.546 3.034-1.068.682-2.265 1.023-3.591 1.023-.939 0-1.738-.155-2.397-.466-.652-.311-1.186-.701-1.603-1.17-.416-.477-.735-.958-.954-1.443h-.148v9.341h-4.841zm4.739-15.273c0 1.038.144 1.943.432 2.716s.704 1.375 1.25 1.807c.545.424 1.208.636 1.988.636.788 0 1.455-.216 2-.648.546-.439.959-1.045 1.239-1.818.288-.78.432-1.678.432-2.693 0-1.008-.14-1.894-.421-2.659s-.693-1.364-1.238-1.795-1.216-.648-2.012-.648c-.788 0-1.454.208-2 .625-.538.417-.951 1.008-1.238 1.773s-.432 1.667-.432 2.705zm-15.909 9.069c-1.796 0-3.341-.364-4.637-1.091a7.47 7.47 0 0 1-2.977-3.114c-.697-1.349-1.045-2.943-1.045-4.784 0-1.795.348-3.371 1.045-4.727s1.678-2.413 2.943-3.17c1.273-.758 2.765-1.136 4.477-1.136 1.152 0 2.224.186 3.216.557 1 .364 1.872.913 2.614 1.648.75.735 1.333 1.659 1.75 2.773.417 1.106.625 2.401.625 3.886v1.33H577.44v-3h10.182c0-.697-.151-1.314-.454-1.852s-.724-.958-1.262-1.261c-.53-.311-1.147-.466-1.852-.466-.735 0-1.386.17-1.955.511-.56.333-1 .784-1.318 1.352-.318.561-.481 1.186-.488 1.875v2.852c0 .864.159 1.61.477 2.239.326.629.784 1.114 1.375 1.454s1.292.511 2.102.511a4.59 4.59 0 0 0 1.477-.227 3.06 3.06 0 0 0 1.148-.682c.318-.303.561-.674.727-1.114l4.478.295c-.228 1.076-.693 2.015-1.398 2.818-.697.796-1.598 1.417-2.705 1.864-1.098.439-2.367.659-3.806.659zM561.273 74h-8.25V50.727h8.318c2.341 0 4.356.466 6.045 1.398 1.69.924 2.989 2.254 3.898 3.989.917 1.735 1.375 3.811 1.375 6.227 0 2.424-.458 4.508-1.375 6.25-.909 1.742-2.216 3.08-3.92 4.011-1.697.932-3.728 1.398-6.091 1.398zm-3.33-4.216h3.125c1.455 0 2.678-.258 3.671-.773 1-.523 1.75-1.33 2.25-2.42.507-1.099.761-2.515.761-4.25 0-1.72-.254-3.125-.761-4.216-.5-1.091-1.247-1.894-2.239-2.409s-2.216-.773-3.67-.773h-3.137v14.841zM337.372 282.545v3.637h-10.511v-3.637h10.511zm-8.125-4.181h4.841v16.272c0 .447.068.796.205 1.046.136.242.325.413.568.511.25.099.538.148.863.148a4.12 4.12 0 0 0 .682-.057l.523-.102.761 3.602c-.242.076-.583.163-1.022.261-.44.107-.974.171-1.603.194-1.166.045-2.189-.11-3.068-.466-.871-.356-1.549-.909-2.034-1.659s-.723-1.697-.716-2.841v-16.909zm-4.605 9.159l-4.432.272c-.076-.378-.238-.719-.488-1.022-.25-.311-.58-.557-.989-.739-.402-.189-.883-.284-1.443-.284-.75 0-1.383.159-1.898.477-.515.311-.773.727-.773 1.25 0 .417.167.769.5 1.057s.906.519 1.716.693l3.159.637c1.697.348 2.962.909 3.796 1.681s1.25 1.788 1.25 3.046c0 1.144-.337 2.148-1.012 3.011-.666.864-1.583 1.538-2.75 2.023-1.159.477-2.496.716-4.011.716-2.311 0-4.151-.481-5.523-1.443-1.363-.97-2.163-2.288-2.397-3.955l4.761-.25c.144.705.492 1.243 1.045 1.614.553.363 1.262.545 2.125.545.849 0 1.531-.163 2.046-.488.523-.334.788-.762.795-1.285-.007-.439-.193-.799-.557-1.079-.363-.288-.924-.508-1.681-.659l-3.023-.602c-1.705-.341-2.974-.932-3.807-1.773-.826-.841-1.239-1.913-1.239-3.216 0-1.121.303-2.087.91-2.898.613-.81 1.473-1.435 2.579-1.875 1.114-.439 2.417-.659 3.909-.659 2.205 0 3.94.466 5.205 1.398 1.272.932 2.015 2.201 2.227 3.807zm-25.693 12.818c-1.796 0-3.341-.364-4.636-1.091-1.288-.735-2.281-1.773-2.978-3.114-.697-1.348-1.045-2.943-1.045-4.784 0-1.795.348-3.371 1.045-4.727s1.678-2.413 2.943-3.171c1.273-.757 2.766-1.136 4.478-1.136 1.151 0 2.223.186 3.216.557a7.13 7.13 0 0 1 2.613 1.648c.75.735 1.334 1.659 1.75 2.772.417 1.106.625 2.402.625 3.887v1.329h-14.738v-3h10.181c0-.697-.151-1.314-.454-1.852a3.26 3.26 0 0 0-1.261-1.261c-.531-.311-1.148-.466-1.853-.466-.735 0-1.386.17-1.954.511a3.58 3.58 0 0 0-1.318 1.352c-.319.561-.482 1.186-.489 1.875v2.853c0 .863.159 1.61.477 2.238.326.629.784 1.114 1.375 1.455s1.292.511 2.102.511c.538 0 1.031-.076 1.478-.227s.829-.379 1.147-.682a2.97 2.97 0 0 0 .728-1.114l4.477.296c-.227 1.076-.693 2.015-1.398 2.818-.697.796-1.598 1.417-2.704 1.864-1.099.439-2.368.659-3.807.659zm-27.594-19.557v-4.057h19.114v4.057h-7.125V300h-4.864v-19.216h-7.125zm-21.037 19.557c-1.606 0-2.992-.288-4.159-.864s-2.064-1.356-2.693-2.341c-.621-.992-.932-2.098-.932-3.318 0-.909.182-1.716.546-2.42s.871-1.353 1.522-1.943a20.28 20.28 0 0 1 2.273-1.785l4.511-2.965c.584-.372 1.012-.762 1.284-1.171a2.42 2.42 0 0 0 .41-1.352c0-.462-.186-.89-.557-1.284s-.898-.587-1.58-.58c-.454 0-.848.102-1.182.307-.333.197-.594.458-.784.784a2.11 2.11 0 0 0-.272 1.068c0 .485.136.978.409 1.478s.636 1.03 1.091 1.59l1.488 1.796L262.727 300h-5.045l-9.205-10.25-1.818-2.159c-.598-.758-1.098-1.561-1.5-2.409a6.48 6.48 0 0 1-.602-2.784c0-1.129.261-2.144.784-3.046a5.71 5.71 0 0 1 2.227-2.136c.955-.53 2.068-.796 3.341-.796 1.242 0 2.314.254 3.216.762.909.5 1.606 1.166 2.091 2a5.23 5.23 0 0 1 .739 2.727 5.62 5.62 0 0 1-.819 2.989c-.538.886-1.295 1.682-2.272 2.386l-4.75 3.421c-.644.469-1.122.95-1.432 1.443-.303.485-.455.95-.455 1.397a2.77 2.77 0 0 0 .409 1.489c.273.439.659.788 1.159 1.046.5.25 1.088.375 1.762.375.818 0 1.625-.186 2.42-.557.803-.379 1.531-.913 2.182-1.603a8.01 8.01 0 0 0 1.58-2.477c.394-.954.591-2.011.591-3.17h4.011c0 1.424-.155 2.708-.466 3.852-.311 1.136-.742 2.129-1.295 2.977-.554.841-1.186 1.531-1.898 2.068l-.659.41-.659.409c-.864.697-1.83 1.2-2.898 1.511-1.061.311-2.11.466-3.148.466zm-28.454-.057c-1.326 0-2.527-.341-3.603-1.023-1.068-.689-1.916-1.7-2.545-3.034-.621-1.341-.932-2.985-.932-4.932 0-2 .322-3.662.966-4.988.644-1.333 1.5-2.33 2.568-2.989 1.076-.666 2.254-1 3.534-1 .978 0 1.792.167 2.443.5.66.326 1.19.735 1.591 1.227.409.485.72.963.932 1.432h.148v-8.75h4.829V300h-4.772v-2.795h-.205c-.227.484-.549.965-.966 1.443-.409.469-.943.86-1.602 1.17-.652.311-1.447.466-2.386.466zm1.534-3.852c.78 0 1.439-.212 1.977-.637.545-.431.962-1.034 1.25-1.806.295-.773.443-1.678.443-2.716s-.144-1.94-.432-2.705-.704-1.356-1.25-1.773-1.208-.625-1.988-.625c-.796 0-1.466.216-2.012.648s-.958 1.031-1.238 1.796-.421 1.651-.421 2.659c0 1.015.14 1.913.421 2.693.288.773.7 1.379 1.238 1.818.546.432 1.216.648 2.012.648zm-11.844-19.705V300h-4.841v-23.273h4.841zM197.994 300v-17.455h4.841V300h-4.841zm2.432-19.705c-.72 0-1.337-.238-1.852-.715a2.32 2.32 0 0 1-.762-1.739 2.27 2.27 0 0 1 .762-1.716c.515-.485 1.132-.727 1.852-.727s1.333.242 1.841.727c.515.477.773 1.049.773 1.716 0 .674-.258 1.254-.773 1.739a2.59 2.59 0 0 1-1.841.715zm-11.145 12.273v-10.023h4.841V300h-4.648v-3.17h-.181c-.394 1.022-1.05 1.844-1.966 2.465-.909.622-2.019.932-3.33.932-1.167 0-2.193-.265-3.079-.795s-1.58-1.284-2.08-2.262c-.492-.977-.742-2.147-.75-3.511v-11.114h4.841v10.25c.007 1.031.284 1.845.829 2.444s1.277.897 2.194.897c.583 0 1.128-.132 1.636-.397a3.12 3.12 0 0 0 1.227-1.205c.318-.53.474-1.186.466-1.966z"/><use xlink:href="#M"/><path d="M1082.09 321.545v3.637h-10.51v-3.637h10.51zm-8.12-4.181h4.84v16.272c0 .447.07.796.2 1.046.14.242.33.413.57.511.25.099.54.148.86.148.23 0 .46-.019.69-.057l.52-.102.76 3.602c-.24.076-.58.163-1.02.261-.44.107-.98.171-1.61.194-1.16.045-2.19-.11-3.06-.466-.88-.356-1.55-.909-2.04-1.659-.48-.75-.72-1.697-.71-2.841v-16.909zm-12.06 21.977c-1.79 0-3.32-.379-4.61-1.136-1.28-.766-2.27-1.826-2.96-3.182-.68-1.356-1.02-2.917-1.02-4.682 0-1.788.35-3.356 1.04-4.705.69-1.356 1.68-2.412 2.96-3.17 1.28-.765 2.8-1.148 4.57-1.148 1.52 0 2.86.277 4 .83s2.05 1.329 2.72 2.329c.66 1 1.03 2.175 1.1 3.523h-4.57c-.13-.871-.47-1.572-1.02-2.102-.55-.538-1.26-.807-2.15-.807-.75 0-1.41.205-1.97.614-.55.401-.98.988-1.29 1.761s-.47 1.708-.47 2.807c0 1.113.15 2.06.46 2.841s.74 1.375 1.3 1.784 1.22.613 1.97.613c.55 0 1.05-.113 1.49-.34a2.94 2.94 0 0 0 1.1-.989c.3-.44.49-.966.58-1.58h4.57c-.08 1.334-.44 2.508-1.09 3.523-.65 1.008-1.54 1.796-2.67 2.364-1.14.568-2.49.852-4.04.852zm-21.47-.011c-1.11 0-2.11-.194-2.98-.58-.87-.394-1.56-.973-2.06-1.739-.5-.772-.75-1.734-.75-2.886 0-.97.17-1.784.53-2.443s.84-1.19 1.45-1.591c.62-.402 1.31-.705 2.09-.909a16 16 0 0 1 2.48-.432l2.46-.295c.62-.099 1.07-.243 1.35-.432s.42-.47.42-.841v-.068c0-.72-.23-1.277-.68-1.671s-1.09-.591-1.91-.591c-.87 0-1.57.194-2.08.58-.52.379-.86.856-1.02 1.432l-4.48-.364c.23-1.061.67-1.977 1.34-2.75.67-.78 1.53-1.379 2.58-1.795 1.06-.425 2.29-.637 3.68-.637.97 0 1.9.114 2.79.341a7.3 7.3 0 0 1 2.37 1.057 5.1 5.1 0 0 1 1.65 1.841c.4.742.6 1.632.6 2.67V339h-4.59v-2.42h-.14a4.91 4.91 0 0 1-1.12 1.443c-.47.409-1.04.731-1.7.966-.65.227-1.42.341-2.28.341zm1.39-3.341c.71 0 1.34-.14 1.88-.421.55-.288.98-.674 1.29-1.159s.46-1.034.46-1.648v-1.852c-.15.099-.36.19-.62.273l-.88.216-.97.17-.89.125c-.57.084-1.06.216-1.49.398-.42.182-.75.428-.99.739-.23.303-.35.681-.35 1.136 0 .659.24 1.163.72 1.511.48.341 1.09.512 1.84.512zm-26.62 9.557v-24h4.78v2.931h.21c.21-.469.52-.947.92-1.431.41-.493.94-.902 1.59-1.228.66-.333 1.48-.5 2.46-.5 1.27 0 2.44.334 3.52 1 1.08.659 1.94 1.656 2.58 2.989.64 1.326.97 2.989.97 4.989 0 1.946-.32 3.59-.95 4.931-.62 1.334-1.47 2.345-2.54 3.034-1.07.682-2.27 1.023-3.59 1.023-.94 0-1.74-.155-2.4-.466-.65-.31-1.19-.701-1.6-1.17-.42-.477-.74-.959-.96-1.443h-.15v9.341h-4.84zm4.74-15.273c0 1.038.15 1.943.43 2.716.29.772.71 1.375 1.25 1.807.55.424 1.21.636 1.99.636.79 0 1.46-.216 2-.648.55-.439.96-1.045 1.24-1.818.29-.78.43-1.678.43-2.693 0-1.008-.14-1.894-.42-2.659s-.69-1.364-1.24-1.796c-.54-.432-1.21-.647-2.01-.647-.79 0-1.45.208-2 .625-.54.416-.95 1.007-1.24 1.772-.28.765-.43 1.667-.43 2.705zM986.026 339v-17.454h4.613v3.079h.205c.363-1.023.97-1.829 1.818-2.42s1.864-.887 3.045-.887c1.197 0 2.216.299 3.057.898a4.23 4.23 0 0 1 1.686 2.409h.18c.35-1 1-1.799 1.93-2.398.94-.606 2.05-.909 3.33-.909 1.63 0 2.95.519 3.97 1.557 1.02 1.03 1.53 2.492 1.53 4.386V339h-4.83v-10.784c0-.97-.26-1.697-.77-2.182-.52-.485-1.16-.727-1.93-.727-.88 0-1.57.28-2.06.841-.49.553-.74 1.284-.74 2.193V339h-4.693v-10.886c0-.856-.247-1.538-.739-2.046-.485-.507-1.125-.761-1.921-.761-.537 0-1.022.136-1.454.409-.424.265-.761.64-1.011 1.125-.25.477-.375 1.038-.375 1.682V339h-4.841zm-3.958-23.273V339h-4.92v-23.273h4.92zm-15.863 10.796l-4.432.273c-.076-.379-.239-.72-.489-1.023a2.59 2.59 0 0 0-.988-.739c-.402-.189-.883-.284-1.444-.284-.75 0-1.382.159-1.897.477-.516.311-.773.728-.773 1.25 0 .417.167.769.5 1.057s.905.519 1.716.693l3.159.637c1.697.348 2.962.909 3.795 1.682s1.25 1.787 1.25 3.045c0 1.144-.337 2.148-1.011 3.011-.667.864-1.583 1.538-2.75 2.023-1.159.477-2.496.716-4.011.716-2.311 0-4.152-.481-5.523-1.443a5.62 5.62 0 0 1-2.398-3.955l4.762-.25c.143.705.492 1.243 1.045 1.614.553.364 1.261.545 2.125.545.848 0 1.53-.163 2.045-.488.523-.334.788-.762.796-1.284-.008-.44-.193-.8-.557-1.08-.364-.288-.924-.508-1.682-.659l-3.022-.602c-1.705-.341-2.974-.932-3.807-1.773-.826-.841-1.239-1.913-1.239-3.216 0-1.121.303-2.087.909-2.898.614-.81 1.474-1.435 2.58-1.875 1.113-.439 2.416-.659 3.909-.659 2.204 0 3.939.466 5.204 1.398 1.273.932 2.016 2.201 2.228 3.807zm-17.969 0l-4.432.273c-.076-.379-.239-.72-.489-1.023a2.59 2.59 0 0 0-.988-.739c-.402-.189-.883-.284-1.443-.284-.75 0-1.383.159-1.898.477-.515.311-.773.728-.773 1.25 0 .417.167.769.5 1.057s.905.519 1.716.693l3.159.637c1.697.348 2.962.909 3.796 1.682s1.25 1.787 1.25 3.045c0 1.144-.338 2.148-1.012 3.011-.666.864-1.583 1.538-2.75 2.023-1.159.477-2.496.716-4.011.716-2.311 0-4.152-.481-5.523-1.443-1.363-.97-2.163-2.288-2.398-3.955l4.762-.25c.144.705.492 1.243 1.045 1.614.553.364 1.262.545 2.125.545.849 0 1.531-.163 2.046-.488.522-.334.788-.762.795-1.284-.007-.44-.193-.8-.557-1.08-.363-.288-.924-.508-1.681-.659l-3.023-.602c-1.705-.341-2.974-.932-3.807-1.773-.826-.841-1.239-1.913-1.239-3.216 0-1.121.303-2.087.909-2.898.614-.81 1.474-1.435 2.58-1.875 1.114-.439 2.417-.659 3.909-.659 2.205 0 3.939.466 5.205 1.398 1.272.932 2.015 2.201 2.227 3.807zm-25.693 12.818c-1.796 0-3.341-.364-4.637-1.091a7.47 7.47 0 0 1-2.977-3.114c-.697-1.348-1.045-2.943-1.045-4.784 0-1.795.348-3.371 1.045-4.727s1.678-2.413 2.943-3.17c1.273-.758 2.765-1.137 4.477-1.137 1.152 0 2.224.186 3.216.557 1 .364 1.872.913 2.614 1.648.75.735 1.333 1.659 1.75 2.773.417 1.106.625 2.401.625 3.886v1.329h-14.739v-3h10.182c0-.697-.151-1.314-.454-1.852s-.724-.958-1.262-1.261c-.53-.311-1.147-.466-1.852-.466-.735 0-1.386.17-1.955.511a3.59 3.59 0 0 0-1.318 1.353 3.81 3.81 0 0 0-.488 1.875v2.852c0 .863.159 1.61.477 2.238.326.629.784 1.114 1.375 1.455s1.292.511 2.102.511c.538 0 1.03-.075 1.477-.227a3.06 3.06 0 0 0 1.148-.682 2.96 2.96 0 0 0 .727-1.113l4.478.295c-.228 1.076-.693 2.015-1.398 2.818-.697.796-1.598 1.417-2.705 1.864-1.098.439-2.367.659-3.806.659zm-23.02-10.432V339h-4.841v-17.454h4.614v3.079h.204c.386-1.015 1.034-1.818 1.943-2.409.909-.599 2.012-.898 3.307-.898 1.212 0 2.269.265 3.171.796s1.602 1.288 2.102 2.272c.5.978.75 2.144.75 3.5V339h-4.841v-10.25c.007-1.068-.265-1.901-.818-2.5-.553-.606-1.315-.909-2.284-.909-.652 0-1.228.14-1.728.42-.492.281-.878.69-1.159 1.228-.272.53-.413 1.17-.42 1.92zM885.963 339v-17.455h4.841V339h-4.841zm2.432-19.705c-.72 0-1.337-.238-1.852-.715a2.32 2.32 0 0 1-.762-1.739 2.27 2.27 0 0 1 .762-1.716c.515-.485 1.132-.727 1.852-.727s1.333.242 1.841.727c.515.477.773 1.049.773 1.716 0 .674-.258 1.254-.773 1.739a2.59 2.59 0 0 1-1.841.715zm-5.878 7.228l-4.432.273a2.28 2.28 0 0 0-.488-1.023c-.25-.311-.58-.557-.989-.739-.401-.189-.883-.284-1.443-.284-.75 0-1.383.159-1.898.477-.515.311-.773.728-.773 1.25 0 .417.167.769.5 1.057s.906.519 1.716.693l3.159.637c1.697.348 2.963.909 3.796 1.682s1.25 1.787 1.25 3.045c0 1.144-.337 2.148-1.012 3.011-.666.864-1.583 1.538-2.75 2.023-1.159.477-2.496.716-4.011.716-2.31 0-4.151-.481-5.523-1.443-1.363-.97-2.162-2.288-2.397-3.955l4.761-.25c.144.705.492 1.243 1.045 1.614.554.364 1.262.545 2.125.545.849 0 1.531-.163 2.046-.488.523-.334.788-.762.795-1.284-.007-.44-.193-.8-.556-1.08-.364-.288-.925-.508-1.682-.659l-3.023-.602c-1.705-.341-2.973-.932-3.807-1.773-.826-.841-1.238-1.913-1.238-3.216 0-1.121.303-2.087.909-2.898.613-.81 1.473-1.435 2.579-1.875 1.114-.439 2.417-.659 3.909-.659 2.205 0 3.94.466 5.205 1.398 1.273.932 2.015 2.201 2.227 3.807zm-23.236 5.045v-10.022h4.841V339h-4.647v-3.17h-.182c-.394 1.022-1.05 1.844-1.966 2.466-.909.621-2.019.931-3.33.931-1.166 0-2.193-.265-3.079-.795s-1.58-1.284-2.08-2.261c-.492-.978-.742-2.148-.75-3.512v-11.113h4.841v10.25c.008 1.03.284 1.844.83 2.443s1.276.897 2.193.897a3.48 3.48 0 0 0 1.636-.397 3.12 3.12 0 0 0 1.227-1.205c.319-.53.474-1.185.466-1.966z"/><use xlink:href="#M" x="670" y="39"/><path d="M941.449 300.341c-1.796 0-3.341-.364-4.636-1.091-1.288-.735-2.281-1.773-2.978-3.114-.697-1.348-1.045-2.943-1.045-4.784 0-1.795.348-3.371 1.045-4.727s1.678-2.413 2.943-3.17c1.273-.758 2.766-1.137 4.478-1.137 1.151 0 2.223.186 3.216.557a7.13 7.13 0 0 1 2.613 1.648c.75.735 1.334 1.659 1.75 2.773.417 1.106.625 2.401.625 3.886v1.329h-14.738v-3h10.181c0-.697-.151-1.314-.454-1.852a3.26 3.26 0 0 0-1.261-1.261c-.531-.311-1.148-.466-1.853-.466-.735 0-1.386.17-1.954.511a3.58 3.58 0 0 0-1.318 1.353 3.8 3.8 0 0 0-.489 1.875v2.852c0 .863.159 1.61.477 2.238.326.629.784 1.114 1.375 1.455s1.292.511 2.102.511c.538 0 1.031-.075 1.478-.227s.829-.379 1.147-.682a2.96 2.96 0 0 0 .728-1.113l4.477.295c-.227 1.076-.693 2.015-1.398 2.818-.697.796-1.598 1.417-2.704 1.864-1.099.439-2.368.659-3.807.659zm-20.341 6.568c-1.568 0-2.913-.216-4.034-.648-1.114-.424-2-1.003-2.659-1.738s-1.087-1.561-1.284-2.477l4.477-.603c.136.349.352.674.648.978s.685.545 1.17.727c.493.189 1.091.284 1.796.284 1.053 0 1.92-.258 2.602-.773.689-.507 1.034-1.36 1.034-2.557v-3.193h-.204c-.213.485-.531.943-.955 1.375s-.97.784-1.636 1.057-1.463.409-2.387.409c-1.31 0-2.504-.303-3.579-.909-1.069-.614-1.921-1.549-2.557-2.807-.629-1.265-.943-2.863-.943-4.795 0-1.978.322-3.629.966-4.955s1.5-2.318 2.568-2.977c1.076-.659 2.254-.989 3.534-.989.977 0 1.795.167 2.454.5.659.326 1.19.735 1.591 1.228.409.484.724.962.944 1.431h.181v-2.931h4.807v17.625c0 1.484-.364 2.727-1.091 3.727s-1.735 1.75-3.022 2.25c-1.281.507-2.754.761-4.421.761zm.102-10.795c.781 0 1.44-.193 1.978-.58.545-.394.962-.954 1.25-1.682.295-.735.443-1.613.443-2.636s-.144-1.909-.432-2.659c-.288-.758-.705-1.345-1.25-1.761s-1.208-.625-1.989-.625c-.795 0-1.466.215-2.011.647-.545.424-.958 1.015-1.239 1.773s-.42 1.633-.42 2.625c0 1.008.14 1.879.42 2.614.288.727.701 1.291 1.239 1.693.545.394 1.216.591 2.011.591zm-21.551 4.216c-1.113 0-2.106-.194-2.977-.58-.871-.394-1.561-.973-2.068-1.739-.5-.772-.75-1.734-.75-2.886 0-.97.178-1.784.534-2.443s.841-1.19 1.454-1.591a7.05 7.05 0 0 1 2.091-.909 15.85 15.85 0 0 1 2.478-.432l2.454-.295c.621-.099 1.072-.243 1.352-.432s.421-.47.421-.841v-.068c0-.72-.227-1.277-.682-1.671-.447-.394-1.083-.591-1.909-.591-.871 0-1.564.194-2.08.58-.515.379-.856.856-1.022 1.432l-4.478-.364c.228-1.061.675-1.977 1.341-2.75.667-.78 1.527-1.379 2.58-1.795 1.06-.425 2.288-.637 3.682-.637.969 0 1.897.114 2.784.341.894.227 1.685.58 2.375 1.057.697.477 1.246 1.091 1.647 1.841.402.742.603 1.632.603 2.67V300h-4.591v-2.42h-.137c-.28.545-.655 1.026-1.125 1.443-.469.409-1.034.731-1.693.966-.659.227-1.42.341-2.284.341zm1.387-3.341c.712 0 1.34-.14 1.886-.421.545-.288.973-.674 1.284-1.159s.466-1.034.466-1.648v-1.852a2.57 2.57 0 0 1-.625.273l-.875.216-.977.17-.887.125c-.568.084-1.064.216-1.488.398s-.754.428-.989.739c-.235.303-.352.681-.352 1.136 0 .659.238 1.163.716 1.511.485.341 1.098.512 1.841.512zm-21.429-7.08V300h-4.841v-17.454h4.613v3.079h.205c.386-1.015 1.034-1.818 1.943-2.409.909-.599 2.011-.898 3.307-.898 1.212 0 2.269.265 3.17.796s1.603 1.288 2.103 2.272c.5.978.75 2.144.75 3.5V300h-4.841v-10.25c.007-1.068-.266-1.901-.819-2.5-.553-.606-1.314-.909-2.284-.909-.651 0-1.227.14-1.727.42-.492.281-.879.69-1.159 1.228-.273.53-.413 1.17-.42 1.92zM861.19 300.33c-1.113 0-2.106-.194-2.977-.58a4.79 4.79 0 0 1-2.068-1.739c-.5-.772-.75-1.734-.75-2.886 0-.97.178-1.784.534-2.443a4.32 4.32 0 0 1 1.455-1.591c.613-.402 1.31-.705 2.091-.909.787-.205 1.613-.349 2.477-.432l2.454-.295c.622-.099 1.072-.243 1.353-.432s.42-.47.42-.841v-.068c0-.72-.227-1.277-.682-1.671-.447-.394-1.083-.591-1.909-.591-.871 0-1.564.194-2.079.58-.515.379-.856.856-1.023 1.432l-4.477-.364c.227-1.061.674-1.977 1.341-2.75.666-.78 1.526-1.379 2.579-1.795 1.061-.425 2.288-.637 3.682-.637.97 0 1.898.114 2.784.341.894.227 1.686.58 2.375 1.057a5.14 5.14 0 0 1 1.648 1.841c.401.742.602 1.632.602 2.67V300h-4.591v-2.42h-.136a4.96 4.96 0 0 1-1.125 1.443c-.47.409-1.034.731-1.693.966-.66.227-1.421.341-2.285.341zm1.387-3.341c.712 0 1.341-.14 1.886-.421.546-.288.974-.674 1.284-1.159s.466-1.034.466-1.648v-1.852c-.151.099-.36.19-.625.273l-.875.216-.977.17-.886.125c-.569.084-1.065.216-1.489.398s-.754.428-.989.739c-.235.303-.352.681-.352 1.136 0 .659.239 1.163.716 1.511.485.341 1.098.512 1.841.512zm-35.554-20.262h6.068l6.409 15.637h.273l6.409-15.637h6.068V300h-4.773v-15.148h-.193l-6.023 15.034h-3.25l-6.022-15.091h-.194V300h-4.772v-23.273z"/></g><path d="M840.049 400.87a.41.41 0 0 0 .408.408h6.571.019.019.195v-.005c2.864-.112 5.151-2.469 5.151-5.36 0-2.813-2.165-5.12-4.92-5.346-.195-.016-.36-.158-.401-.35a7.73 7.73 0 0 0-7.555-6.106c-4.266 0-7.725 3.458-7.725 7.725 0 .045-.032.084-.076.092-2.16.434-3.786 2.341-3.786 4.629a4.72 4.72 0 0 0 4.72 4.72l5.432.001a.41.41 0 0 0 .408-.408v-1.279a.43.43 0 0 0-.356-.416c-.849-.163-1.576-.513-2.073-1.015-.445-.448-.711-1.004-.793-1.656-.029-.226.158-.412.386-.411l.908.004c.218.001.392.175.441.388.209.891 1.016 1.478 2.211 1.483.465.003 2.202-.215 2.207-1.415.005-.96-1.257-1.324-2.451-1.618l-.618-.157c-1.35-.359-2.779-.769-2.771-2.497.008-1.678 1.421-2.544 2.909-2.72v-1.609c0-.225.182-.408.407-.408h.724a.41.41 0 0 1 .408.408v1.653c1.073.173 2.518.716 2.763 2.37.033.227-.155.418-.385.417l-.912-.005c-.209-.001-.378-.163-.441-.362-.236-.756-.978-1.214-2.065-1.219-.722-.003-1.77.38-1.774 1.256-.004.794.604 1.064 2.871 1.65l.3.076.121.03c.864.208 2.636.635 2.627 2.535-.007 1.5-1.032 2.526-2.744 2.831a.43.43 0 0 0-.36.416v1.27z" fill="url(#C)"/><g class="B"><path d="M863.481 386.56c-.204-1.476-1.34-2.332-2.812-2.332-1.735 0-3.042 1.265-3.042 3.412s1.291 3.412 3.042 3.412c1.579 0 2.627-1.022 2.812-2.29l-1.213-.006c-.152.778-.788 1.216-1.583 1.216-1.076 0-1.848-.808-1.848-2.332 0-1.498.765-2.332 1.852-2.332.807 0 1.439.457 1.579 1.252h1.213zm2.224-2.241h-1.174v6.642h1.174v-6.642z"/><use xlink:href="#N"/><path d="M875.644 388.866c0 .759-.542 1.135-1.061 1.135-.564 0-.94-.399-.94-1.031v-2.991h-1.174v3.172c0 1.197.681 1.875 1.66 1.875.746 0 1.271-.393 1.498-.951h.052v.886h1.139v-4.982h-1.174v2.887zm4.23 2.182a1.5 1.5 0 0 0 1.427-.872h.071v.785h1.155v-6.642h-1.178v2.484h-.048c-.179-.36-.545-.889-1.424-.889-1.151 0-2.056.902-2.056 2.563 0 1.641.879 2.571 2.053 2.571zm.327-.963c-.775 0-1.184-.681-1.184-1.615 0-.927.403-1.592 1.184-1.592.756 0 1.171.626 1.171 1.592s-.422 1.615-1.171 1.615zm11.579-3.525c-.204-1.476-1.339-2.332-2.812-2.332-1.735 0-3.042 1.265-3.042 3.412s1.291 3.412 3.042 3.412c1.58 0 2.627-1.022 2.812-2.29l-1.213-.006c-.152.778-.788 1.216-1.582 1.216-1.077 0-1.849-.808-1.849-2.332 0-1.498.765-2.332 1.852-2.332.807 0 1.44.457 1.579 1.252h1.213z"/><use xlink:href="#N" x="25.918"/><path d="M902.324 387.296c-.162-.843-.837-1.382-2.005-1.382-1.2 0-2.017.591-2.014 1.512-.003.726.445 1.206 1.402 1.404l.849.178c.458.101.672.286.672.568 0 .341-.37.597-.928.597-.538 0-.889-.234-.989-.681l-1.145.11c.146.915.915 1.456 2.137 1.456 1.246 0 2.125-.645 2.128-1.589-.003-.71-.461-1.145-1.401-1.349l-.85-.182c-.506-.113-.707-.288-.704-.577-.003-.337.37-.571.86-.571.541 0 .827.295.918.623l1.07-.117zm3.562-1.317h-.982v-1.193h-1.174v1.193h-.707v.908h.707v2.77c-.007.937.674 1.398 1.556 1.372a2.37 2.37 0 0 0 .691-.117l-.198-.918a1.4 1.4 0 0 1-.343.046c-.296 0-.532-.104-.532-.577v-2.576h.982v-.908zm-48.09 8.125v6.642h1.154v-4.573h.062l1.835 4.554h.863l1.836-4.544h.061v4.563h1.155v-6.642h-1.472l-1.972 4.813h-.078l-1.972-4.813h-1.472zm9.658 6.743c.781 0 1.248-.367 1.462-.785h.039v.684h1.129v-3.334c0-1.317-1.073-1.712-2.024-1.712-1.047 0-1.852.467-2.111 1.375l1.096.155c.117-.34.448-.632 1.022-.632.545 0 .843.279.843.769v.019c0 .337-.354.354-1.232.448-.967.103-1.891.392-1.891 1.514 0 .98.717 1.499 1.667 1.499zm.305-.863c-.49 0-.84-.224-.84-.655 0-.451.392-.639.918-.714.308-.042.924-.12 1.076-.243v.587c0 .555-.447 1.025-1.154 1.025zm4.68-2.157c0-.72.434-1.135 1.054-1.135.606 0 .969.399.969 1.064v2.99h1.174v-3.172c.004-1.193-.677-1.874-1.706-1.874-.745 0-1.258.356-1.485.911h-.058v-.846h-1.122v4.981h1.174v-2.919zm5.824 3.02c.782 0 1.249-.367 1.463-.785h.039v.684h1.129v-3.334c0-1.317-1.074-1.712-2.024-1.712-1.048 0-1.852.467-2.111 1.375l1.096.155c.116-.34.447-.632 1.021-.632.545 0 .844.279.844.769v.019c0 .337-.354.354-1.233.448-.966.103-1.891.392-1.891 1.514 0 .98.717 1.499 1.667 1.499zm.305-.863c-.49 0-.84-.224-.84-.655 0-.451.393-.639.918-.714.308-.042.924-.12 1.077-.243v.587c0 .555-.448 1.025-1.155 1.025zm5.673 2.734c1.345 0 2.338-.616 2.338-1.891v-5.062h-1.158v.823h-.065c-.178-.36-.551-.888-1.43-.888-1.151 0-2.056.901-2.056 2.539 0 1.625.905 2.436 2.053 2.436.853 0 1.252-.458 1.433-.824h.059v.944c0 .733-.487 1.034-1.155 1.034-.707 0-1.018-.334-1.161-.626l-1.057.257c.214.697.93 1.258 2.199 1.258zm.009-2.964c-.775 0-1.183-.604-1.183-1.521 0-.905.402-1.57 1.183-1.57.756 0 1.171.626 1.171 1.57 0 .95-.422 1.521-1.171 1.521zm5.737 1.089c1.162 0 1.959-.567 2.167-1.433l-1.096-.123c-.159.421-.548.642-1.054.642-.759 0-1.262-.5-1.272-1.353h3.471v-.36c0-1.748-1.051-2.516-2.277-2.516-1.427 0-2.358 1.047-2.358 2.584 0 1.564.918 2.559 2.419 2.559zm-1.251-3.058c.035-.636.506-1.171 1.206-1.171.675 0 1.129.493 1.135 1.171h-2.341zm4.46 2.961h1.174v-3.029c0-.613.408-1.028.914-1.028.497 0 .837.334.837.846v3.211h1.151v-3.107c0-.561.335-.95.902-.95.474 0 .85.279.85.895v3.162h1.177v-3.344c0-1.112-.642-1.702-1.557-1.702-.723 0-1.274.356-1.495.911h-.052c-.191-.564-.674-.911-1.346-.911s-1.167.343-1.375.911h-.058v-.846h-1.122v4.981zm10.402.097c1.161 0 1.958-.567 2.166-1.433l-1.096-.123c-.159.421-.548.642-1.054.642-.759 0-1.262-.5-1.272-1.353h3.471v-.36c0-1.748-1.051-2.516-2.277-2.516-1.427 0-2.358 1.047-2.358 2.584 0 1.564.918 2.559 2.42 2.559zm-1.252-3.058c.035-.636.506-1.171 1.206-1.171.675 0 1.129.493 1.135 1.171h-2.341zm5.634.042c0-.72.434-1.135 1.054-1.135.606 0 .97.399.97 1.064v2.99h1.174v-3.172c.003-1.193-.678-1.874-1.706-1.874-.746 0-1.259.356-1.486.911h-.058v-.846h-1.122v4.981h1.174v-2.919zm6.879-2.062h-.983v-1.194h-1.174v1.194h-.707v.908h.707v2.769c-.007.938.675 1.398 1.557 1.372.334-.01.564-.074.69-.117l-.197-.917c-.065.016-.198.045-.344.045-.295 0-.532-.104-.532-.577v-2.575h.983v-.908zm70.921-9.833c-.03-.283-.158-.504-.382-.661s-.513-.237-.87-.237c-.25 0-.465.038-.645.113s-.317.179-.412.308a.75.75 0 0 0-.146.445.68.68 0 0 0 .094.36c.065.101.153.188.263.259a1.82 1.82 0 0 0 .366.175c.135.048.27.088.406.12l.623.156a4.25 4.25 0 0 1 .723.237 2.56 2.56 0 0 1 .626.376c.186.151.333.334.441.548a1.65 1.65 0 0 1 .162.752 1.81 1.81 0 0 1-.298 1.029c-.199.294-.487.524-.863.69s-.827.247-1.359.247c-.517 0-.965-.08-1.346-.24s-.675-.394-.889-.701-.326-.681-.343-1.122h1.183c.018.231.089.424.214.577a1.13 1.13 0 0 0 .49.344 1.93 1.93 0 0 0 .681.114 1.86 1.86 0 0 0 .688-.117c.199-.08.354-.19.467-.331a.8.8 0 0 0 .172-.499.63.63 0 0 0-.153-.428c-.099-.115-.239-.21-.418-.286a3.95 3.95 0 0 0-.623-.207l-.755-.195c-.547-.14-.98-.353-1.298-.639s-.473-.669-.473-1.145c0-.391.106-.734.318-1.028s.504-.522.872-.684a3.07 3.07 0 0 1 1.249-.247c.471 0 .884.083 1.239.247s.636.388.84.678.308.618.314.992h-1.158zm4.475 4.914c-.499 0-.931-.104-1.294-.312s-.639-.506-.833-.888-.292-.838-.292-1.359c0-.513.097-.962.292-1.349s.471-.692.823-.909.767-.327 1.242-.327a2.53 2.53 0 0 1 .87.149 1.97 1.97 0 0 1 .726.454c.212.206.379.467.5.785s.181.692.181 1.129v.36h-4.083v-.792h2.958c-.002-.225-.051-.425-.146-.6a1.06 1.06 0 0 0-.399-.418c-.169-.102-.365-.153-.59-.153-.24 0-.451.059-.633.176a1.21 1.21 0 0 0-.425.454 1.31 1.31 0 0 0-.152.613v.69a1.62 1.62 0 0 0 .159.746 1.13 1.13 0 0 0 .444.474c.191.108.413.162.668.162.171 0 .326-.024.464-.071a1 1 0 0 0 .36-.218c.102-.095.178-.213.23-.353l1.097.123a1.72 1.72 0 0 1-.396.759 1.92 1.92 0 0 1-.74.499c-.3.117-.644.176-1.031.176zm3.208-.098v-4.981h1.139v.83h.052c.09-.288.246-.509.467-.665a1.28 1.28 0 0 1 .762-.237l.217.01a1.38 1.38 0 0 1 .204.023v1.08a1.23 1.23 0 0 0-.236-.046 2.2 2.2 0 0 0-.308-.022 1.19 1.19 0 0 0-.578.139c-.168.091-.301.217-.399.38a1.07 1.07 0 0 0-.146.561v2.928h-1.174zm8.227-4.981l-1.778 4.981h-1.298l-1.774-4.981h1.252l1.145 3.7h.052l1.151-3.7h1.25zm.81 4.981v-4.981h1.17v4.981h-1.17zm.59-5.688c-.19 0-.35-.062-.48-.185-.14-.126-.2-.276-.2-.451a.57.57 0 0 1 .2-.451c.13-.125.29-.188.48-.188s.35.063.48.188.2.274.2.451a.61.61 0 0 1-.2.451c-.13.123-.29.185-.48.185zm3.96 5.786c-.49 0-.92-.11-1.28-.328a2.2 2.2 0 0 1-.82-.905c-.19-.387-.28-.832-.28-1.336s.09-.952.29-1.339a2.17 2.17 0 0 1 .82-.909c.36-.218.78-.327 1.27-.327.4 0 .76.074 1.07.224a1.88 1.88 0 0 1 .75.626 1.95 1.95 0 0 1 .32.94h-1.13a1.04 1.04 0 0 0-.32-.6c-.17-.162-.39-.243-.68-.243-.24 0-.45.065-.63.194s-.32.312-.43.552c-.09.24-.14.527-.14.863a2.54 2.54 0 0 0 .14.875c.1.242.24.429.42.561s.4.195.64.195c.18 0 .33-.033.47-.097a.96.96 0 0 0 .34-.289c.1-.126.16-.278.19-.457h1.13c-.03.352-.14.664-.31.937a1.87 1.87 0 0 1-.74.636c-.31.151-.67.227-1.09.227zm5.31 0c-.5 0-.93-.104-1.3-.312-.36-.209-.64-.506-.83-.888-.2-.385-.29-.838-.29-1.359 0-.513.09-.962.29-1.349a2.24 2.24 0 0 1 .82-.909c.35-.218.77-.327 1.24-.327.31 0 .6.05.87.149a1.94 1.94 0 0 1 .73.454c.21.206.38.467.5.785s.18.692.18 1.129v.36h-4.08v-.792h2.96c-.01-.225-.06-.425-.15-.6a1.11 1.11 0 0 0-.4-.418c-.17-.102-.36-.153-.59-.153a1.13 1.13 0 0 0-.63.176c-.18.114-.33.266-.43.454a1.28 1.28 0 0 0-.15.613v.69c0 .29.05.539.16.746s.25.364.44.474a1.35 1.35 0 0 0 .67.162c.17 0 .33-.024.47-.071.13-.05.25-.123.36-.218a1.03 1.03 0 0 0 .23-.353l1.09.123c-.07.29-.2.543-.39.759-.2.214-.44.381-.74.499s-.65.176-1.03.176zm5.52-.098v-6.642h2.49c.51 0 .94.089 1.29.266.34.177.61.426.78.746.18.318.27.689.27 1.113s-.09.795-.27 1.109-.44.552-.79.723-.78.253-1.29.253h-1.78v-.999h1.61c.3 0 .55-.041.74-.123a.87.87 0 0 0 .42-.367c.09-.162.14-.361.14-.596a1.26 1.26 0 0 0-.14-.604c-.09-.167-.24-.296-.43-.382s-.43-.133-.73-.133h-1.11v5.636h-1.2zm3.43-3.009l1.65 3.009h-1.35l-1.61-3.009h1.31zm4.59 3.107c-.5 0-.93-.104-1.29-.312a2.07 2.07 0 0 1-.83-.888c-.2-.385-.3-.838-.3-1.359 0-.513.1-.962.3-1.349a2.17 2.17 0 0 1 .82-.909c.35-.218.77-.327 1.24-.327.31 0 .6.05.87.149a1.94 1.94 0 0 1 .73.454c.21.206.38.467.5.785s.18.692.18 1.129v.36h-4.08v-.792h2.95c0-.225-.05-.425-.14-.6a1.11 1.11 0 0 0-.4-.418c-.17-.102-.37-.153-.59-.153a1.13 1.13 0 0 0-.63.176c-.19.114-.33.266-.43.454a1.28 1.28 0 0 0-.15.613v.69c0 .29.05.539.16.746.1.206.25.364.44.474s.41.162.67.162a1.38 1.38 0 0 0 .46-.071 1.01 1.01 0 0 0 .36-.218c.11-.095.18-.213.23-.353l1.1.123a1.67 1.67 0 0 1-.4.759c-.19.214-.43.381-.74.499-.3.117-.64.176-1.03.176zm4.39-6.74v6.642h-1.18v-6.642h1.18z"/><use xlink:href="#O"/><path d="M1035.31 390.849c-.32 0-.6-.056-.86-.169a1.39 1.39 0 0 1-.59-.506c-.15-.222-.22-.497-.22-.824 0-.281.05-.513.16-.697.1-.184.24-.331.42-.441a2.14 2.14 0 0 1 .61-.25 4.82 4.82 0 0 1 .7-.126l.71-.081c.18-.026.32-.065.4-.117s.12-.137.12-.25v-.019c0-.244-.07-.434-.21-.568-.15-.134-.36-.201-.63-.201-.29 0-.51.063-.68.188a.93.93 0 0 0-.34.445l-1.1-.156c.09-.303.23-.556.43-.759a1.85 1.85 0 0 1 .73-.46 2.81 2.81 0 0 1 .95-.156 3.16 3.16 0 0 1 .72.084c.24.056.46.149.65.279.2.128.36.302.48.522s.18.496.18.827v3.334h-1.13v-.684h-.04a1.4 1.4 0 0 1-.3.389c-.13.119-.29.215-.48.289-.2.071-.42.107-.68.107zm.3-.863c.24 0 .44-.046.62-.139.17-.095.3-.221.39-.377a.92.92 0 0 0 .15-.509v-.587a.57.57 0 0 1-.19.085 2.84 2.84 0 0 1-.29.068l-.32.052-.28.039a2.1 2.1 0 0 0-.47.116.78.78 0 0 0-.33.227c-.08.095-.12.219-.12.37 0 .216.08.379.24.49s.36.165.6.165zm3.56.762v-6.642h1.17v2.485h.05c.06-.122.15-.25.26-.386s.26-.257.45-.354.43-.149.72-.149c.38 0 .73.098 1.04.295s.56.483.74.866.27.847.27 1.401c0 .547-.09 1.012-.27 1.395s-.42.674-.73.875-.66.302-1.05.302c-.29 0-.52-.048-.71-.143s-.34-.21-.45-.344a2.24 2.24 0 0 1-.27-.386h-.06v.785h-1.16zm1.15-2.49c0 .322.05.604.14.846s.22.431.4.568c.17.134.38.201.63.201.26 0 .48-.07.65-.208.18-.14.31-.332.4-.574s.14-.522.14-.833a2.33 2.33 0 0 0-.14-.824c-.09-.24-.22-.428-.39-.565-.18-.136-.4-.204-.66-.204-.25 0-.46.066-.64.198-.17.132-.3.317-.4.555a2.62 2.62 0 0 0-.13.84z"/><use xlink:href="#O" x="13.38"/><path d="M1048.43 384.106v6.642h-1.18v-6.642h1.18zm1.2 6.642v-4.981h1.18v4.981h-1.18zm.59-5.688c-.18 0-.34-.062-.48-.185a.61.61 0 0 1-.2-.451c0-.177.07-.327.2-.451a.7.7 0 0 1 .48-.188c.19 0 .35.063.48.188a.58.58 0 0 1 .21.451c0 .175-.07.325-.21.451-.13.123-.29.185-.48.185zm4.28.707v.908h-2.86v-.908h2.86zm-2.15-1.194h1.17v4.677c0 .158.02.279.07.363s.12.139.2.169a.71.71 0 0 0 .26.045c.08 0 .14-.005.2-.016l.15-.029.19.918a2.43 2.43 0 0 1-.27.071c-.11.026-.25.041-.42.045-.29.009-.56-.035-.79-.133a1.22 1.22 0 0 1-.56-.46c-.14-.208-.21-.467-.2-.778v-4.872zm3.86 8.043c-.16 0-.3-.013-.44-.039-.13-.023-.24-.051-.32-.084l.27-.914a1.58 1.58 0 0 0 .46.071.55.55 0 0 0 .35-.127c.11-.08.19-.214.26-.402l.11-.269-1.81-5.085h1.24l1.15 3.762h.05l1.16-3.762h1.24l-1.99 5.585c-.09.263-.22.489-.37.677a1.48 1.48 0 0 1-.56.435c-.22.102-.49.152-.8.152zm-74.039 1.275h1.472l1.972 4.813h.078l1.972-4.813h1.472v6.642h-1.155v-4.563h-.061l-1.836 4.544h-.863l-1.835-4.553h-.062v4.572h-1.154v-6.642zm9.658 6.743c-.316 0-.6-.056-.853-.169s-.45-.283-.597-.506-.217-.497-.217-.823c0-.281.052-.514.156-.698a1.21 1.21 0 0 1 .424-.441 2.15 2.15 0 0 1 .607-.249c.227-.059.461-.101.704-.127l.71-.081c.182-.026.313-.065.396-.117s.126-.137.126-.25v-.019c0-.244-.072-.433-.217-.568s-.354-.201-.626-.201c-.288 0-.516.063-.684.189a.93.93 0 0 0-.338.444l-1.096-.156c.087-.303.229-.556.428-.759a1.88 1.88 0 0 1 .73-.46 2.78 2.78 0 0 1 .953-.156 3.12 3.12 0 0 1 .717.084 2.05 2.05 0 0 1 .652.279c.197.128.355.302.473.522s.182.497.182.827v3.334h-1.129v-.684h-.038a1.43 1.43 0 0 1-.302.389c-.128.119-.289.215-.483.289a1.96 1.96 0 0 1-.678.107zm.305-.863c.235 0 .44-.046.613-.139a1.02 1.02 0 0 0 .399-.376.96.96 0 0 0 .142-.51v-.587c-.036.031-.099.059-.188.085a2.76 2.76 0 0 1-.292.068l-.321.052-.275.039c-.176.023-.332.062-.471.116s-.247.13-.327.227a.56.56 0 0 0-.12.37.56.56 0 0 0 .236.49c.158.11.359.165.604.165zm4.68-2.156v2.918h-1.174v-4.981h1.122v.846h.058a1.42 1.42 0 0 1 .548-.664c.253-.165.566-.247.938-.247.343 0 .643.074.898.221s.456.36.597.638.209.618.209 1.016v3.171h-1.173v-2.99c0-.333-.086-.593-.259-.781s-.408-.283-.71-.283c-.206 0-.388.046-.548.137a.94.94 0 0 0-.373.386c-.09.169-.133.373-.133.613zm5.826 3.019c-.32 0-.6-.056-.85-.169a1.36 1.36 0 0 1-.6-.506c-.15-.222-.22-.497-.22-.823 0-.281.05-.514.16-.698a1.17 1.17 0 0 1 .42-.441 2.11 2.11 0 0 1 .61-.249 4.93 4.93 0 0 1 .7-.127l.71-.081c.18-.026.32-.065.4-.117s.12-.137.12-.25v-.019c0-.244-.07-.433-.21-.568-.15-.134-.36-.201-.63-.201-.29 0-.51.063-.68.189a.93.93 0 0 0-.34.444l-1.1-.156c.09-.303.23-.556.43-.759a1.85 1.85 0 0 1 .73-.46 2.81 2.81 0 0 1 .95-.156 3.16 3.16 0 0 1 .72.084c.24.057.46.15.65.279.2.128.36.302.48.522s.18.497.18.827v3.334h-1.13v-.684h-.04c-.07.139-.17.268-.3.389a1.48 1.48 0 0 1-.48.289c-.2.071-.42.107-.68.107zm.3-.863c.24 0 .44-.046.62-.139.17-.095.3-.221.4-.376.09-.156.14-.326.14-.51v-.587a.57.57 0 0 1-.19.085 2.84 2.84 0 0 1-.29.068l-.32.052-.28.039a2.1 2.1 0 0 0-.47.116.78.78 0 0 0-.33.227c-.08.096-.12.219-.12.37 0 .216.08.38.24.49s.36.165.6.165zm5.68 2.734c-.43 0-.79-.057-1.09-.172s-.55-.263-.73-.454-.31-.401-.38-.632l1.05-.256c.05.097.12.193.21.288s.21.178.37.24c.15.065.35.098.59.098.33 0 .6-.081.82-.244s.33-.423.33-.791v-.944h-.06c-.06.121-.15.246-.26.373a1.42 1.42 0 0 1-.46.321c-.19.087-.43.13-.71.13a2.05 2.05 0 0 1-1.04-.269c-.31-.182-.56-.452-.74-.811s-.28-.813-.28-1.356.1-1.008.28-1.384.43-.665.74-.86.66-.295 1.04-.295c.29 0 .53.05.72.149a1.52 1.52 0 0 1 .46.354c.11.136.19.265.25.386h.07v-.824h1.15v5.063c0 .425-.1.778-.3 1.057s-.48.487-.83.626c-.36.138-.76.207-1.2.207zm.01-2.964a1.08 1.08 0 0 0 .63-.182c.18-.121.31-.295.4-.522a2.21 2.21 0 0 0 .14-.817 2.3 2.3 0 0 0-.14-.824c-.09-.235-.22-.418-.4-.548-.17-.132-.38-.198-.63-.198-.27 0-.48.068-.66.205-.17.136-.31.323-.4.561a2.48 2.48 0 0 0-.13.804c0 .305.05.572.13.801.1.227.23.404.4.532.18.125.4.188.66.188z"/><use xlink:href="#P"/><path d="M1017.57 400.533v-4.981h1.12v.846h.06c.11-.285.28-.508.52-.668s.52-.243.86-.243c.33 0 .62.082.85.247a1.27 1.27 0 0 1 .49.664h.05c.11-.276.3-.497.56-.661.27-.167.58-.25.94-.25.46 0 .83.145 1.12.435s.44.712.44 1.268v3.343h-1.18v-3.162c0-.309-.08-.535-.25-.677a.86.86 0 0 0-.6-.218c-.28 0-.51.089-.67.266-.15.175-.23.403-.23.684v3.107h-1.15v-3.21c0-.258-.08-.463-.24-.617-.15-.153-.35-.23-.6-.23-.17 0-.32.043-.46.13s-.25.204-.33.36a1.15 1.15 0 0 0-.13.538v3.029h-1.17z"/><use xlink:href="#P" x="13.61"/><path d="M1032.35 397.615v2.918h-1.17v-4.981h1.12v.846h.06a1.46 1.46 0 0 1 .55-.664c.25-.165.56-.247.94-.247.34 0 .64.074.9.221.25.147.45.36.59.638s.21.618.21 1.016v3.171h-1.17v-2.99c0-.333-.09-.593-.26-.781s-.41-.283-.71-.283c-.21 0-.39.046-.55.137a.93.93 0 0 0-.37.386c-.09.169-.14.373-.14.613zm6.88-2.063v.908h-2.86v-.908h2.86zm-2.15-1.194h1.17v4.677c0 .158.02.279.07.363s.12.139.2.169a.75.75 0 0 0 .26.045c.08 0 .14-.005.2-.016l.15-.029.19.918c-.06.021-.15.045-.26.071a2.37 2.37 0 0 1-.43.046c-.29.008-.56-.036-.79-.133a1.22 1.22 0 0 1-.56-.461c-.14-.208-.21-.467-.2-.778v-4.872z"/></g><path d="M973.88 398.925l-4.828-3.072a4.8 4.8 0 0 1-6.385 0l-4.828 3.073c1.915 2.296 4.797 3.757 8.02 3.757s6.106-1.461 8.021-3.758zm.773-1.054l-4.742-3.018a4.79 4.79 0 0 0 .766-2.607 4.82 4.82 0 0 0-4.165-4.774v-5.644a10.44 10.44 0 0 1 9.785 10.418c0 2.071-.604 4.001-1.644 5.625zm-9.446-16.043a10.44 10.44 0 0 0-9.785 10.418c0 2.071.603 4.002 1.644 5.625l4.742-3.018a4.8 4.8 0 0 1-.766-2.607 4.82 4.82 0 0 1 4.165-4.774v-5.644z" fill="url(#D)" class="C"/><path d="M963.451 392.567l1.376 1.284 3.441-3.211" stroke="#ae82fc" stroke-width="1.36" stroke-linecap="round" stroke-linejoin="round"/><path d="M183.178 333.506a10.86 10.86 0 0 1-.698 3.8c-.082.218-.357.273-.521.109l-3.262-3.256c-.136-.136-.159-.348-.07-.519.353-.683.53-1.465.53-2.282.046-2.662-2.126-4.856-4.807-4.856a4.8 4.8 0 0 0-2.308.583.43.43 0 0 1-.51-.065l-2.903-2.896c-.205-.204-.142-.552.126-.656 1.181-.458 2.435-.702 3.793-.702 5.87 0 10.63 4.81 10.63 10.74zm-16.783-8.74c.19-.135.447-.107.611.059l3.299 3.333c.146.148.159.381.044.554-.515.781-.805 1.7-.805 2.693 0 2.708 2.172 4.903 4.853 4.903a4.73 4.73 0 0 0 2.665-.814c.172-.115.402-.103.548.045l3.572 3.608c.166.169.192.433.053.625-1.962 2.707-5.09 4.475-8.687 4.475-5.87 0-10.63-4.81-10.63-10.741 0-3.638 1.753-6.8 4.477-8.74zm8.002 9.674c1.802 0 3.235-1.447 3.235-3.269s-1.433-3.268-3.235-3.268-3.236 1.447-3.236 3.268 1.433 3.269 3.236 3.269z" fill="url(#E)" class="C"/><g class="B"><path d="M194.609 327.726c-.205-1.495-1.344-2.363-2.82-2.363-1.74 0-3.051 1.282-3.051 3.457s1.295 3.457 3.051 3.457c1.584 0 2.634-1.035 2.82-2.32l-1.217-.007c-.153.789-.79 1.233-1.587 1.233-1.08 0-1.854-.819-1.854-2.363 0-1.518.768-2.363 1.857-2.363.81 0 1.444.464 1.584 1.269h1.217z"/><use xlink:href="#Q"/><use xlink:href="#R"/><path d="M209.309 327.138h-.985v-1.21h-1.178v1.21h-.709v.92h.709v2.806c-.006.949.677 1.416 1.561 1.39a2.38 2.38 0 0 0 .693-.118l-.198-.93c-.065.016-.199.046-.345.046-.296 0-.533-.106-.533-.585v-2.609h.985v-.92z"/><use xlink:href="#S"/><use xlink:href="#R" x="11.448"/><use xlink:href="#T"/><use xlink:href="#Q" x="28.173"/><use xlink:href="#T" x="11.144"/><path d="M238.927 328.472c-.163-.855-.839-1.4-2.01-1.4-1.203 0-2.023.598-2.02 1.531-.003.736.446 1.222 1.405 1.423l.852.181c.459.101.674.289.674.575 0 .345-.371.604-.931.604-.539 0-.891-.236-.992-.69l-1.148.112c.147.927.918 1.475 2.144 1.475 1.249 0 2.13-.654 2.133-1.61-.003-.719-.462-1.16-1.405-1.367l-.852-.184c-.507-.115-.709-.292-.706-.585-.003-.341.371-.578.862-.578.543 0 .83.299.921.631l1.073-.118zm-48.813 6.897h-1.207v6.73h1.207v-6.73zm2.432 3.773c0-.73.436-1.15 1.057-1.15.608 0 .972.404.972 1.077v3.03h1.178v-3.214c.003-1.209-.68-1.899-1.711-1.899-.748 0-1.262.362-1.49.923h-.058v-.857h-1.125v5.047h1.177v-2.957zm6.898-2.09h-.985v-1.209h-1.178v1.209h-.709v.92h.709v2.806c-.006.95.677 1.416 1.561 1.39.335-.01.566-.075.693-.118l-.198-.93c-.065.016-.199.046-.345.046-.296 0-.533-.105-.533-.585v-2.609h.985v-.92zm3.143 5.146c1.164 0 1.964-.575 2.172-1.453l-1.099-.125c-.16.428-.55.651-1.057.651-.761 0-1.265-.506-1.275-1.37h3.48v-.365c0-1.771-1.054-2.55-2.283-2.55-1.431 0-2.365 1.061-2.365 2.619 0 1.584.921 2.593 2.427 2.593zm-1.256-3.099c.036-.644.508-1.186 1.21-1.186.676 0 1.132.499 1.138 1.186h-2.348zm6.645 4.998c1.35 0 2.345-.624 2.345-1.916v-5.129h-1.161v.834h-.065a1.49 1.49 0 0 0-1.434-.9c-1.155 0-2.062.914-2.062 2.573 0 1.646.907 2.468 2.059 2.468.855 0 1.255-.464 1.437-.835h.059v.956c0 .743-.488 1.049-1.158 1.049-.709 0-1.021-.339-1.164-.635l-1.061.26c.215.707.934 1.275 2.205 1.275zm.01-3.003c-.777 0-1.187-.612-1.187-1.542 0-.916.403-1.59 1.187-1.59.758 0 1.174.634 1.174 1.59 0 .963-.423 1.542-1.174 1.542zm3.542 1.005h1.177v-2.967c0-.641.478-1.094 1.126-1.094.198 0 .445.036.546.069v-1.095a2.9 2.9 0 0 0-.423-.032c-.572 0-1.05.328-1.232.913h-.053v-.841h-1.141v5.047zm4.97.102c.784 0 1.252-.371 1.467-.795h.039v.693h1.132v-3.378c0-1.334-1.077-1.735-2.03-1.735-1.05 0-1.857.473-2.117 1.393l1.099.158c.118-.345.449-.641 1.025-.641.546 0 .846.283.846.779v.02c0 .342-.355.358-1.236.453-.97.105-1.896.398-1.896 1.535 0 .992.718 1.518 1.671 1.518zm.306-.874c-.491 0-.842-.227-.842-.664 0-.457.393-.647.92-.723.309-.043.927-.121 1.08-.246v.595c0 .561-.449 1.038-1.158 1.038zm6.01-4.275h-.985v-1.209h-1.178v1.209h-.709v.92h.709v2.806c-.006.95.677 1.416 1.562 1.39.334-.01.565-.075.692-.118l-.198-.93c-.065.016-.199.046-.345.046-.296 0-.533-.105-.533-.585v-2.609h.985v-.92z"/><use xlink:href="#S" x="13.505" y="9.914"/><path d="M228.366 342.198c1.463 0 2.394-1.042 2.394-2.603s-.931-2.609-2.394-2.609-2.394 1.045-2.394 2.609.93 2.603 2.394 2.603zm.006-.953c-.809 0-1.206-.73-1.206-1.653s.397-1.663 1.206-1.663c.797 0 1.194.74 1.194 1.663s-.397 1.653-1.194 1.653zm4.564-2.103c0-.73.436-1.15 1.057-1.15.608 0 .973.404.973 1.077v3.03h1.177v-3.214c.003-1.209-.68-1.899-1.711-1.899-.748 0-1.262.362-1.489.923h-.059v-.857h-1.125v5.047h1.177v-2.957z"/></g><g clip-path="url(#K)"><path d="M295.14 321.734c-1.812 1.064-5.438 3.165-8.848 3.51-.414.042-.761.346-.796.761-.438 5.222.95 15.388 9.778 19.752.194.097.421.112.623.034 2.432-.946 6.123-3.776 8.197-9.271l-4.05-1.697a.75.75 0 0 1-.07-.033c-.533.864-1.345 1.566-2.369 1.952a4.76 4.76 0 0 1-6.137-2.771c-.929-2.46.311-5.207 2.771-6.137s5.208.311 6.137 2.771a4.74 4.74 0 0 1 .201 2.689c.031.009.063.02.094.033l3.939 1.65c.732-2.486 1.14-5.447 1.015-8.936-.015-.426-.353-.771-.773-.842-2.095-.356-5.85-1.646-8.836-3.452-.269-.163-.604-.172-.876-.013zm-.327 7.618a3.14 3.14 0 0 0-1.827 4.046 3.14 3.14 0 0 0 4.046 1.827 3.14 3.14 0 0 0 1.827-4.046 3.14 3.14 0 0 0-4.046-1.827z" fill="url(#F)" class="C"/><path d="M315.313 327.459c-.031-.296-.164-.526-.399-.69s-.534-.247-.906-.247c-.262 0-.486.039-.673.118s-.33.186-.429.321-.15.29-.153.464c0 .144.033.269.098.375a.91.91 0 0 0 .274.271c.115.072.243.133.383.182a3.77 3.77 0 0 0 .422.125l.65.163c.261.061.512.143.754.247s.461.234.652.392a1.73 1.73 0 0 1 .46.571 1.72 1.72 0 0 1 .169.785c0 .406-.103.763-.311 1.072s-.507.547-.899.72-.863.257-1.417.257c-.539 0-1.007-.083-1.404-.25s-.703-.41-.926-.73-.341-.711-.359-1.171h1.235c.018.242.092.442.223.602a1.18 1.18 0 0 0 .51.359c.212.079.449.118.711.118.272 0 .511-.04.717-.121a1.17 1.17 0 0 0 .486-.345c.118-.149.177-.323.18-.521a.67.67 0 0 0-.159-.447c-.104-.119-.249-.218-.436-.297a4.33 4.33 0 0 0-.65-.217l-.788-.203c-.57-.146-1.021-.368-1.352-.666s-.494-.698-.494-1.194c0-.408.11-.765.331-1.072s.527-.544.91-.713.817-.257 1.302-.257c.491 0 .922.086 1.292.257s.664.405.876.707.321.644.328 1.035h-1.208zm4.666 5.123c-.52 0-.97-.108-1.349-.325s-.666-.527-.869-.926-.304-.874-.304-1.417c0-.535.101-1.004.304-1.407s.491-.722.859-.947.799-.342 1.295-.342c.32 0 .622.052.906.156s.539.259.758.473a2.22 2.22 0 0 1 .521.819c.126.329.189.721.189 1.177v.375h-4.258v-.825h3.085c-.003-.235-.053-.443-.153-.626a1.1 1.1 0 0 0-.415-.436 1.17 1.17 0 0 0-.616-.159 1.19 1.19 0 0 0-.659.183 1.25 1.25 0 0 0-.443.473c-.104.194-.157.407-.159.639v.721c0 .302.055.561.165.777a1.18 1.18 0 0 0 .464.494 1.38 1.38 0 0 0 .696.169 1.5 1.5 0 0 0 .484-.074 1.08 1.08 0 0 0 .375-.227.94.94 0 0 0 .24-.368l1.143.128c-.072.302-.209.566-.412.792s-.458.396-.771.52-.672.183-1.076.183zm5.612 0c-.519 0-.964-.114-1.336-.342a2.28 2.28 0 0 1-.856-.943c-.198-.404-.297-.868-.297-1.393s.101-.994.304-1.397.489-.722.859-.947.812-.342 1.319-.342c.421 0 .795.078 1.119.234s.588.371.781.652.305.607.332.981h-1.17a1.12 1.12 0 0 0-.338-.625c-.176-.17-.412-.254-.707-.254a1.11 1.11 0 0 0-.66.203c-.189.133-.337.324-.443.575s-.155.55-.155.899c0 .354.052.659.155.913s.249.448.437.585a1.11 1.11 0 0 0 .666.203 1.12 1.12 0 0 0 .483-.101c.145-.07.265-.17.362-.301s.164-.29.2-.477h1.17c-.029.368-.138.693-.325.977a1.92 1.92 0 0 1-.764.663c-.323.158-.701.237-1.136.237zm6.541-2.286v-3.01h1.224v5.194h-1.187v-.923h-.054c-.117.291-.31.529-.578.714s-.594.277-.984.277a1.77 1.77 0 0 1-.903-.226c-.26-.154-.463-.376-.609-.667s-.22-.647-.22-1.062v-3.307h1.224v3.118c0 .329.09.591.271.785s.417.29.71.29c.18 0 .355-.044.524-.131s.308-.219.416-.393.166-.395.166-.659zm2.483 2.184v-5.194h1.187v.866h.054c.095-.3.257-.531.487-.693s.497-.247.795-.247l.226.01a1.49 1.49 0 0 1 .213.023v1.127c-.052-.018-.134-.034-.247-.048s-.217-.023-.321-.023c-.223 0-.424.048-.602.145a1.07 1.07 0 0 0-.416.396c-.101.169-.152.364-.152.585v3.053h-1.224zm3.776 0v-5.194h1.224v5.194h-1.224zm.615-5.931a.71.71 0 0 1-.5-.193.62.62 0 0 1-.21-.47c0-.185.07-.342.21-.47s.306-.196.5-.196a.7.7 0 0 1 .501.196c.139.128.209.285.209.47s-.07.339-.209.47-.305.193-.501.193zm4.462.737v.947h-2.987v-.947h2.987zm-2.249-1.244h1.224v4.876a.79.79 0 0 0 .074.379c.052.086.12.144.203.176s.176.047.277.047c.077 0 .147-.006.21-.017l.149-.03.206.957a2.89 2.89 0 0 1-.28.074 2.27 2.27 0 0 1-.44.047 1.99 1.99 0 0 1-.829-.138 1.3 1.3 0 0 1-.585-.48c-.142-.217-.212-.487-.209-.812v-5.079zm4.033 8.386a2.48 2.48 0 0 1-.463-.04c-.14-.025-.251-.054-.335-.088l.284-.954a1.64 1.64 0 0 0 .477.075c.14-.003.263-.047.369-.132s.199-.223.274-.42l.104-.28-1.883-5.303h1.298l1.198 3.923h.054l1.2-3.923h1.302l-2.08 5.823c-.097.276-.225.511-.385.707a1.55 1.55 0 0 1-.589.453c-.23.106-.505.159-.825.159zm6.838-7.822v-1.051h5.526v1.051h-2.141v5.874h-1.244v-5.874h-2.141zm8.084 5.976c-.521 0-.971-.108-1.35-.325s-.666-.527-.869-.926-.304-.874-.304-1.417c0-.535.101-1.004.304-1.407a2.3 2.3 0 0 1 .859-.947c.368-.228.799-.342 1.295-.342a2.62 2.62 0 0 1 .907.156c.286.101.538.259.757.473a2.22 2.22 0 0 1 .521.819c.126.329.189.721.189 1.177v.375h-4.257v-.825h3.084c-.002-.235-.053-.443-.152-.626a1.11 1.11 0 0 0-.416-.436 1.17 1.17 0 0 0-.616-.159 1.19 1.19 0 0 0-.659.183 1.25 1.25 0 0 0-.443.473c-.104.194-.157.407-.159.639v.721c0 .302.055.561.165.777a1.18 1.18 0 0 0 .464.494 1.38 1.38 0 0 0 .696.169c.179 0 .34-.025.484-.074a1.08 1.08 0 0 0 .375-.227c.106-.099.186-.222.241-.368l1.143.128c-.073.302-.21.566-.413.792s-.458.396-.771.52-.672.183-1.075.183zm7.45-3.923l-1.116.122a.88.88 0 0 0-.165-.318c-.077-.099-.181-.179-.311-.24s-.291-.092-.481-.092c-.254 0-.469.056-.642.166s-.256.254-.254.43c-.002.151.053.274.166.368s.304.173.568.234l.886.189c.492.106.857.274 1.096.504s.363.531.365.903c-.002.327-.098.615-.287.866a1.85 1.85 0 0 1-.782.581c-.333.14-.717.21-1.149.21-.636 0-1.148-.133-1.536-.399a1.6 1.6 0 0 1-.693-1.119l1.194-.115c.054.234.169.411.345.53s.404.18.686.18c.291 0 .524-.06.7-.18s.267-.267.267-.443a.46.46 0 0 0-.172-.368c-.113-.097-.289-.172-.528-.223l-.886-.186c-.498-.104-.867-.279-1.106-.525s-.357-.561-.355-.94c-.002-.32.085-.597.261-.832s.425-.419.74-.547.685-.197 1.099-.197c.609 0 1.088.13 1.438.389s.569.61.652 1.052zm3.715-1.373v.947h-2.986v-.947h2.986zm-2.249-1.244h1.225v4.876c0 .165.024.291.074.379s.12.144.203.176a.79.79 0 0 0 .277.047c.077 0 .147-.006.21-.017l.149-.03.206.957c-.065.022-.159.047-.281.074a2.26 2.26 0 0 1-.439.047 1.99 1.99 0 0 1-.829-.138 1.29 1.29 0 0 1-.585-.48c-.142-.217-.212-.487-.21-.812v-5.079zm3.273 6.438v-5.194h1.224v5.194h-1.224zm.616-5.931c-.194 0-.361-.064-.501-.193a.62.62 0 0 1-.21-.47c0-.185.07-.342.21-.47s.307-.196.501-.196.363.065.5.196.21.285.21.47a.62.62 0 0 1-.21.47c-.137.129-.304.193-.5.193zm3.091 2.888v3.043h-1.224v-5.194h1.17v.883h.061a1.49 1.49 0 0 1 .572-.694c.263-.171.589-.257.977-.257.359 0 .671.077.937.23a1.55 1.55 0 0 1 .622.667c.149.29.222.643.22 1.058v3.307h-1.224v-3.118c0-.347-.091-.618-.271-.815s-.425-.294-.74-.294c-.215 0-.405.048-.572.142a.99.99 0 0 0-.389.403c-.092.176-.139.389-.139.639zm6.838 5.1c-.439 0-.817-.06-1.133-.18s-.569-.275-.76-.473-.325-.418-.399-.66l1.102-.267c.05.102.122.202.216.301s.223.185.383.251a1.61 1.61 0 0 0 .612.101c.347 0 .634-.085.862-.254s.342-.442.342-.825v-.984h-.061c-.063.126-.156.256-.278.389s-.278.245-.476.335-.443.135-.741.135c-.399 0-.761-.093-1.086-.281s-.579-.471-.771-.845-.284-.848-.284-1.414.095-1.051.284-1.444.45-.693.775-.896a1.99 1.99 0 0 1 1.085-.308c.305 0 .555.052.751.156s.356.224.474.369a2.05 2.05 0 0 1 .267.402h.067v-.859h1.208v5.279c0 .444-.106.812-.318 1.102s-.502.509-.869.653-.785.217-1.252.217zm.011-3.091c.259 0 .48-.063.662-.19s.322-.307.416-.544.142-.521.142-.852-.047-.614-.142-.859-.23-.437-.412-.572-.403-.206-.666-.206c-.273 0-.501.071-.684.213a1.29 1.29 0 0 0-.412.585c-.093.246-.139.525-.139.839s.046.596.139.835.233.421.416.555.411.196.68.196zm-65.181 7.572c0 .746-.14 1.385-.419 1.917s-.656.936-1.137 1.217-1.02.423-1.626.423-1.15-.141-1.63-.423a3.02 3.02 0 0 1-1.136-1.22c-.278-.532-.416-1.17-.416-1.914s.138-1.385.416-1.915.658-.939 1.136-1.22 1.023-.423 1.63-.423 1.149.141 1.626.423.859.688 1.137 1.22.419 1.168.419 1.915zm-1.261 0c0-.526-.083-.969-.247-1.33s-.388-.636-.677-.821-.621-.281-.997-.281-.709.094-.998.281a1.86 1.86 0 0 0-.68.821c-.162.361-.243.804-.243 1.33s.081.969.243 1.332a1.88 1.88 0 0 0 .68.822c.289.185.621.277.998.277s.709-.092.997-.277.515-.461.677-.822.247-.807.247-1.332zm2.393 3.462v-5.194h1.187v.866h.054c.095-.3.257-.531.487-.693s.497-.247.795-.247l.227.01c.085.004.156.012.213.023v1.127c-.052-.018-.135-.034-.247-.048a2.25 2.25 0 0 0-.322-.023c-.223 0-.423.048-.601.145s-.315.227-.416.396a1.11 1.11 0 0 0-.153.585v3.053h-1.224zm5.828.102c-.519 0-.964-.114-1.336-.342a2.28 2.28 0 0 1-.856-.943c-.198-.404-.297-.868-.297-1.393s.101-.994.304-1.397.489-.722.859-.947.812-.342 1.319-.342a2.55 2.55 0 0 1 1.119.234c.327.153.588.371.782.652a1.94 1.94 0 0 1 .331.981h-1.17c-.047-.25-.16-.459-.338-.625s-.412-.254-.707-.254c-.25 0-.47.068-.659.203s-.338.324-.444.575-.155.55-.155.899c0 .354.052.659.155.913a1.33 1.33 0 0 0 .437.585 1.11 1.11 0 0 0 .666.203c.18 0 .342-.034.484-.101a.97.97 0 0 0 .361-.301c.097-.131.164-.29.2-.477h1.17c-.029.368-.138.693-.325.977a1.92 1.92 0 0 1-.764.663c-.322.158-.701.237-1.136.237zm4.454-3.145v3.043h-1.224v-6.925h1.197v2.614h.061a1.51 1.51 0 0 1 .565-.694c.257-.171.584-.257.981-.257.36 0 .675.076.943.227s.476.372.623.663.223.646.223 1.065v3.307h-1.224v-3.118c0-.349-.091-.621-.271-.815s-.428-.294-.751-.294c-.216 0-.41.048-.581.142s-.303.227-.4.403a1.34 1.34 0 0 0-.142.639zm6.916 3.145c-.521 0-.97-.108-1.349-.325a2.19 2.19 0 0 1-.869-.926c-.203-.402-.305-.874-.305-1.417 0-.535.102-1.004.305-1.407s.491-.722.859-.947.799-.342 1.295-.342c.32 0 .622.052.906.156s.539.259.758.473.394.487.521.819.189.721.189 1.177v.375h-4.258v-.825h3.084c-.002-.235-.053-.443-.152-.626s-.238-.33-.416-.436-.381-.159-.615-.159c-.25 0-.47.061-.66.183a1.26 1.26 0 0 0-.443.473 1.38 1.38 0 0 0-.159.639v.721c0 .302.056.561.166.777s.265.379.463.494.431.169.697.169c.178 0 .339-.025.484-.074a1.08 1.08 0 0 0 .375-.227.94.94 0 0 0 .24-.368l1.143.128c-.072.302-.209.566-.412.792s-.458.396-.771.52-.672.183-1.076.183zm7.451-3.923l-1.116.122c-.031-.113-.087-.219-.166-.318a.82.82 0 0 0-.311-.24c-.13-.061-.291-.092-.48-.092-.255 0-.469.056-.642.166s-.256.254-.254.43c-.002.151.053.274.166.368s.304.173.568.234l.886.189c.491.106.856.274 1.095.504s.363.531.366.903c-.003.327-.098.615-.288.866s-.447.441-.781.581-.717.21-1.15.21c-.636 0-1.147-.133-1.535-.399a1.6 1.6 0 0 1-.693-1.119l1.193-.115c.055.234.17.411.345.53s.405.18.687.18c.291 0 .524-.06.7-.18s.267-.267.267-.443a.46.46 0 0 0-.172-.368c-.113-.097-.289-.172-.528-.223l-.886-.186c-.498-.104-.867-.279-1.106-.525s-.357-.561-.355-.94a1.34 1.34 0 0 1 .26-.832 1.71 1.71 0 0 1 .741-.547c.318-.131.684-.197 1.099-.197.609 0 1.088.13 1.437.389s.57.61.653 1.052zm3.715-1.373v.947h-2.986v-.947h2.986zm-2.249-1.244h1.224v4.876c0 .165.025.291.075.379a.4.4 0 0 0 .203.176c.083.031.175.047.277.047a1.23 1.23 0 0 0 .21-.017l.148-.03.207.957c-.066.022-.159.047-.281.074a2.26 2.26 0 0 1-.44.047c-.306.01-.582-.037-.828-.138a1.29 1.29 0 0 1-.585-.48c-.142-.217-.212-.487-.21-.812v-5.079zm3.273 6.438v-5.194h1.187v.866h.054c.095-.3.257-.531.487-.693s.497-.247.795-.247l.226.01a1.49 1.49 0 0 1 .213.023v1.127c-.052-.018-.134-.034-.247-.048s-.217-.023-.321-.023c-.223 0-.424.048-.602.145a1.07 1.07 0 0 0-.416.396c-.101.169-.152.364-.152.585v3.053h-1.224zm5.177.105c-.329 0-.625-.058-.889-.176s-.469-.295-.622-.527-.227-.519-.227-.859c0-.293.054-.536.162-.727a1.26 1.26 0 0 1 .443-.46c.188-.115.398-.202.633-.26s.481-.105.734-.132l.74-.085c.19-.027.327-.068.413-.122s.132-.143.132-.26v-.02c0-.255-.076-.452-.227-.592s-.368-.21-.653-.21c-.299 0-.537.066-.713.196s-.291.286-.352.464l-1.143-.163a1.82 1.82 0 0 1 .447-.791c.207-.214.461-.374.76-.48a2.92 2.92 0 0 1 .995-.163 3.27 3.27 0 0 1 .747.088c.248.059.475.156.68.291s.37.315.494.545.189.517.189.862v3.476h-1.177v-.713h-.04a1.53 1.53 0 0 1-.315.406c-.133.124-.301.224-.504.301s-.436.111-.707.111zm.318-.899c.246 0 .459-.049.639-.146a1.07 1.07 0 0 0 .416-.392.99.99 0 0 0 .149-.531v-.612c-.038.032-.104.061-.196.088s-.192.051-.304.071l-.335.054-.288.041c-.182.024-.346.065-.49.121s-.258.136-.342.237-.125.228-.125.386c0 .225.083.395.247.51s.374.173.629.173zm6.25-4.4v.947h-2.986v-.947h2.986zm-2.249-1.244h1.224v4.876a.79.79 0 0 0 .074.379c.052.086.12.144.203.176s.176.047.278.047a1.22 1.22 0 0 0 .209-.017l.149-.03.206.957a2.89 2.89 0 0 1-.28.074 2.27 2.27 0 0 1-.44.047c-.306.01-.583-.037-.828-.138a1.29 1.29 0 0 1-.585-.48c-.142-.217-.212-.487-.21-.812v-5.079zm3.273 6.438v-5.194h1.224v5.194h-1.224zm.615-5.931a.71.71 0 0 1-.5-.193.62.62 0 0 1-.21-.47c0-.185.07-.342.21-.47s.306-.196.5-.196a.7.7 0 0 1 .501.196c.139.128.209.285.209.47s-.07.339-.209.47-.305.193-.501.193zm4.133 6.033c-.507 0-.946-.112-1.318-.335s-.661-.535-.866-.937-.305-.87-.305-1.406.102-1.007.305-1.411a2.27 2.27 0 0 1 .866-.94c.372-.223.811-.335 1.318-.335s.947.112 1.319.335a2.25 2.25 0 0 1 .863.94c.205.404.307.874.307 1.411s-.102 1.005-.307 1.406-.491.714-.863.937-.811.335-1.319.335zm.007-.981c.275 0 .505-.075.69-.226s.322-.359.413-.616.138-.543.138-.859-.046-.605-.138-.862a1.37 1.37 0 0 0-.413-.619c-.185-.153-.415-.23-.69-.23-.282 0-.516.077-.703.23s-.324.36-.416.619-.135.544-.135.862.045.602.135.859a1.39 1.39 0 0 0 .416.616c.187.151.421.226.703.226zm4.746-2.164v3.043h-1.225v-5.194h1.171v.883h.06a1.49 1.49 0 0 1 .572-.694c.264-.171.59-.257.977-.257.359 0 .671.077.937.23a1.55 1.55 0 0 1 .622.667c.149.29.222.643.22 1.058v3.307h-1.224v-3.118c0-.347-.09-.618-.271-.815s-.425-.294-.74-.294c-.214 0-.405.048-.572.142s-.294.227-.389.403-.138.389-.138.639z" class="B"/></g><path d="M455.515 327.024h-1.243a1.55 1.55 0 0 0-.196-.542 1.47 1.47 0 0 0-.355-.405c-.142-.111-.304-.194-.486-.249s-.373-.087-.581-.087c-.37 0-.698.093-.984.279s-.509.455-.671.811-.242.788-.242 1.299c0 .521.08.96.242 1.316s.388.623.671.804.613.27.981.27c.203 0 .394-.027.571-.08a1.56 1.56 0 0 0 .482-.243c.144-.106.265-.237.362-.392a1.46 1.46 0 0 0 .206-.532l1.243.007a2.69 2.69 0 0 1-.302.911 2.71 2.71 0 0 1-.602.751c-.248.214-.538.383-.87.505a3.27 3.27 0 0 1-1.107.179c-.598 0-1.132-.138-1.602-.415a2.9 2.9 0 0 1-1.109-1.2c-.271-.523-.406-1.15-.406-1.881s.136-1.36.409-1.88a2.94 2.94 0 0 1 1.113-1.2c.47-.277 1.001-.415 1.595-.415.379 0 .731.053 1.057.159s.616.263.87.469a2.49 2.49 0 0 1 .628.751c.166.294.275.631.326 1.01zm2.279 1.518v2.991h-1.203v-6.805h1.176v2.568h.06c.119-.288.304-.515.555-.681s.573-.252.963-.252c.355 0 .664.074.927.222s.468.366.612.652.219.634.219 1.046v3.25H459.9v-3.064c0-.343-.088-.61-.266-.8s-.42-.29-.737-.29c-.213 0-.403.047-.572.14a.98.98 0 0 0-.392.395c-.093.173-.139.383-.139.628zm6.004 3.094c-.323 0-.615-.058-.874-.173a1.42 1.42 0 0 1-.611-.518c-.149-.228-.223-.51-.223-.844 0-.288.053-.526.16-.715a1.23 1.23 0 0 1 .435-.451 2.18 2.18 0 0 1 .621-.256 5.1 5.1 0 0 1 .721-.13l.728-.083c.186-.027.321-.066.405-.12s.13-.14.13-.255v-.02c0-.251-.074-.445-.223-.582s-.362-.206-.641-.206c-.295 0-.528.064-.701.193s-.286.28-.346.455l-1.123-.159a1.79 1.79 0 0 1 .439-.778c.204-.21.453-.368.747-.472s.621-.159.977-.159c.246 0 .491.028.735.086s.466.153.668.286a1.45 1.45 0 0 1 .485.535c.122.226.186.508.186.847v3.416h-1.157v-.701h-.039a1.5 1.5 0 0 1-.309.399c-.131.121-.296.22-.496.295a1.96 1.96 0 0 1-.694.11zm.312-.884c.242 0 .451-.048.628-.143a1.05 1.05 0 0 0 .409-.385.98.98 0 0 0 .146-.522v-.601c-.037.031-.102.059-.192.086s-.189.05-.3.07l-.328.053-.283.04a2.06 2.06 0 0 0-.482.12.79.79 0 0 0-.335.232.57.57 0 0 0-.123.379c0 .221.081.389.242.502s.368.169.618.169zm5.819.881c-.499 0-.931-.11-1.296-.329s-.649-.526-.851-.921-.299-.855-.299-1.382.1-.989.299-1.386a2.23 2.23 0 0 1 .851-.923c.365-.22.797-.329 1.296-.329s.93.109 1.296.329.647.527.847.923.302.859.302 1.386-.101.988-.302 1.382a2.22 2.22 0 0 1-.847.921c-.366.219-.798.329-1.296.329zm.006-.964c.271 0 .496-.074.678-.223a1.34 1.34 0 0 0 .406-.604c.09-.253.136-.534.136-.844s-.046-.595-.136-.848-.224-.457-.406-.608-.407-.226-.678-.226c-.277 0-.507.076-.691.226a1.37 1.37 0 0 0-.409.608c-.088.253-.133.535-.133.848s.045.591.133.844.227.454.409.604.414.223.691.223zm7.494-2.891l-1.096.12c-.031-.111-.086-.215-.163-.313s-.177-.176-.306-.235a1.11 1.11 0 0 0-.472-.09c-.25 0-.461.054-.631.163s-.252.249-.249.422a.44.44 0 0 0 .162.362c.113.093.3.169.559.229l.87.186c.483.104.842.269 1.077.495s.357.522.359.887c-.002.322-.097.605-.283.851s-.439.434-.767.572-.705.206-1.13.206c-.625 0-1.128-.131-1.509-.392a1.57 1.57 0 0 1-.681-1.1l1.173-.113c.053.23.166.404.339.521s.398.177.675.177c.285 0 .515-.059.687-.177s.263-.262.263-.435a.45.45 0 0 0-.169-.362c-.111-.095-.284-.168-.519-.219l-.87-.183c-.49-.102-.852-.274-1.087-.515s-.351-.552-.349-.924c-.002-.314.083-.587.256-.817s.418-.412.728-.539a2.84 2.84 0 0 1 1.08-.192c.598 0 1.068.127 1.412.382a1.61 1.61 0 0 1 .641 1.033zm-27.739 13.623v-6.806h4.426v1.034h-3.193v1.847h2.964v1.034h-2.964v1.857h3.22v1.034h-4.453zm6.833-2.991v2.991h-1.202v-5.104h1.149v.867h.06c.117-.286.305-.513.562-.681s.579-.253.96-.253c.352 0 .659.075.92.226a1.54 1.54 0 0 1 .612.655c.144.286.218.632.216 1.04v3.25h-1.203v-3.064c0-.341-.089-.608-.266-.801s-.418-.289-.728-.289c-.21 0-.397.046-.561.14a.97.97 0 0 0-.382.395c-.093.173-.137.382-.137.628zm6.719 5.011c-.432 0-.803-.059-1.113-.176s-.559-.271-.748-.465-.319-.411-.392-.648l1.084-.263c.048.1.119.198.212.296a1.06 1.06 0 0 0 .376.246 1.58 1.58 0 0 0 .601.099c.341 0 .624-.083.847-.249s.336-.434.336-.811v-.967h-.06c-.062.124-.153.252-.272.383s-.274.24-.469.329-.435.132-.727.132c-.393 0-.748-.092-1.067-.275a1.98 1.98 0 0 1-.758-.831c-.186-.37-.279-.833-.279-1.389s.093-1.033.279-1.419.442-.681.761-.88a1.98 1.98 0 0 1 1.067-.303c.299 0 .545.051.738.153a1.42 1.42 0 0 1 .465.362c.115.14.202.272.262.396h.067v-.844h1.186v5.187c0 .436-.104.797-.312 1.083s-.493.499-.854.641-.771.213-1.23.213zm.01-3.037c.255 0 .472-.062.651-.186s.316-.303.409-.535.14-.512.14-.838-.047-.602-.14-.844a1.21 1.21 0 0 0-.405-.561 1.05 1.05 0 0 0-.655-.203c-.268 0-.492.07-.671.209s-.315.332-.405.575-.137.516-.137.824.046.586.137.821.229.414.408.545.405.193.668.193zm3.619 1.017v-5.104h1.203v5.104h-1.203zm.605-5.829a.7.7 0 0 1-.492-.189.61.61 0 0 1-.206-.462.6.6 0 0 1 .206-.462c.137-.128.301-.193.492-.193a.69.69 0 0 1 .491.193.6.6 0 0 1 .206.462.61.61 0 0 1-.206.462c-.135.126-.299.189-.491.189zm3.037 2.838v2.991h-1.202v-5.104h1.149v.867h.06a1.46 1.46 0 0 1 .562-.681c.259-.169.579-.253.96-.253.352 0 .659.075.92.226a1.54 1.54 0 0 1 .612.655c.144.286.218.632.216 1.04v3.25h-1.203v-3.064c0-.341-.089-.608-.266-.801s-.417-.289-.728-.289c-.21 0-.397.046-.561.14a.97.97 0 0 0-.382.395c-.093.173-.137.382-.137.628zm6.759 3.09c-.512 0-.954-.106-1.326-.319a2.14 2.14 0 0 1-.854-.91c-.2-.392-.299-.859-.299-1.393 0-.525.1-.985.299-1.382a2.26 2.26 0 0 1 .844-.93c.361-.224.786-.336 1.273-.336a2.58 2.58 0 0 1 .891.153c.281.1.529.255.744.465s.387.479.512.804.186.709.186 1.157v.369h-4.184v-.811h3.031c-.003-.231-.052-.436-.15-.615a1.09 1.09 0 0 0-.409-.429c-.172-.104-.374-.156-.604-.156-.246 0-.462.06-.648.18a1.23 1.23 0 0 0-.436.465c-.102.19-.154.4-.156.628v.708a1.66 1.66 0 0 0 .163.764c.109.21.26.372.455.485a1.36 1.36 0 0 0 .685.166 1.45 1.45 0 0 0 .475-.073c.142-.051.265-.125.369-.223a.94.94 0 0 0 .236-.362l1.123.127c-.071.296-.206.556-.406.777a1.98 1.98 0 0 1-.757.512c-.308.122-.66.179-1.057.179zm5.547 0c-.512 0-.954-.106-1.326-.319s-.655-.518-.854-.91-.299-.859-.299-1.393c0-.525.1-.985.299-1.382a2.26 2.26 0 0 1 .844-.93c.361-.224.785-.336 1.273-.336.314 0 .611.051.89.153a2.01 2.01 0 0 1 .744.465c.218.211.388.479.512.804s.186.709.186 1.157v.369h-4.183v-.811h3.03c-.002-.231-.052-.436-.149-.615a1.11 1.11 0 0 0-.409-.429 1.15 1.15 0 0 0-.605-.156c-.246 0-.462.06-.648.18a1.23 1.23 0 0 0-.435.465c-.102.19-.154.4-.156.628v.708a1.66 1.66 0 0 0 .163.764 1.16 1.16 0 0 0 .455.485c.195.111.423.166.684.166.175 0 .334-.024.476-.073a1.05 1.05 0 0 0 .368-.223.91.91 0 0 0 .236-.362l1.123.127c-.07.296-.206.556-.405.777s-.45.39-.758.512-.66.179-1.056.179zm3.287-.099v-5.104h1.166v.85h.053c.093-.294.253-.521.479-.681s.488-.242.781-.242l.222.009c.085.005.154.013.21.024v1.106c-.051-.017-.132-.033-.243-.046a2.16 2.16 0 0 0-.316-.024 1.22 1.22 0 0 0-.591.143 1.05 1.05 0 0 0-.409.389c-.099.166-.149.358-.149.575v3.001h-1.203zm3.71 0v-5.104h1.203v5.104h-1.203zm.605-5.829a.7.7 0 0 1-.492-.189c-.137-.129-.206-.283-.206-.462a.61.61 0 0 1 .206-.462c.137-.126.301-.193.492-.193a.69.69 0 0 1 .491.193.6.6 0 0 1 .206.462.61.61 0 0 1-.206.462c-.135.126-.299.189-.491.189zm3.038 2.838v2.991h-1.203v-5.104h1.149v.867h.06a1.46 1.46 0 0 1 .562-.681c.259-.169.579-.253.96-.253.352 0 .659.075.92.226a1.54 1.54 0 0 1 .612.655c.144.286.218.632.216 1.04v3.25h-1.203v-3.064c0-.341-.089-.608-.266-.801s-.417-.289-.728-.289c-.21 0-.397.046-.561.14a.97.97 0 0 0-.382.395c-.093.173-.136.382-.136.628zm6.718 5.011c-.432 0-.803-.059-1.113-.176s-.559-.271-.747-.465a1.62 1.62 0 0 1-.393-.648l1.084-.263c.048.1.119.198.212.296s.219.181.376.246a1.58 1.58 0 0 0 .601.099c.341 0 .624-.083.848-.249s.335-.434.335-.811v-.967h-.06c-.062.124-.152.252-.272.383s-.274.24-.469.329-.435.132-.727.132c-.392 0-.748-.092-1.067-.275a1.98 1.98 0 0 1-.758-.831c-.186-.37-.279-.833-.279-1.389s.093-1.033.279-1.419.442-.681.761-.88a1.98 1.98 0 0 1 1.067-.303c.299 0 .545.051.738.153a1.42 1.42 0 0 1 .465.362c.115.14.203.272.262.396h.067v-.844h1.186v5.187c0 .436-.104.797-.312 1.083s-.493.499-.854.641-.771.213-1.23.213zm.01-3.037a1.12 1.12 0 0 0 .652-.186 1.15 1.15 0 0 0 .408-.535c.093-.233.14-.512.14-.838s-.047-.602-.14-.844a1.21 1.21 0 0 0-.405-.561 1.05 1.05 0 0 0-.655-.203c-.268 0-.491.07-.671.209a1.28 1.28 0 0 0-.405.575c-.091.242-.137.516-.137.824s.046.586.137.821.229.414.408.545.405.193.668.193z" class="B"/><g class="C"><path d="M437.983 331.077a.85.85 0 1 0 1.203-1.203l-4.382-4.382 5.306-3.064c1.241-.717 2.792.179 2.792 1.612v9.363l-6.414 1.534a.85.85 0 0 0 .395 1.655l6.019-1.44v6.994c0 1.432-1.551 2.328-2.792 1.612l-7.383-4.263 1.033-7.46a.85.85 0 0 0-1.685-.234l-.938 6.776-6.707-3.872c-1.241-.717-1.241-2.508 0-3.224l8.848-5.109 4.705 4.705z" fill="url(#G)"/><path d="M1195.78 200.656l-104.48 60.202c-28.04 14.277-64.65 13.383-95.793 9.075-22.002-3.044-43.431-8.218-57.913-11.715l-13.709-3.161c-18.809-3.658-48.377-11.106-76.204-18.116l-28.513-7.134-.642-.158c-20.401-5.028-31.21-7.691-40.485-7.946-8.599-.236-16.249 1.633-30.007 7.575-10.991 4.747-37.858 15.382-66.952 26.898l-12.687 5.023-83.201 33.757c-8.382 3.726-9.02 7.746-8.999 8.446.012.403.474 3.565 7.496 5.424 10.005 2.649 29.54 9.615 48.877 16.511l.516.184c19.939 7.11 39.785 14.183 50.945 17.323 10.955 3.083 20.351 11.231 21.321 23.006.981 11.897-7.047 22.12-19.317 28.678l-98.035 53.615-35.287 19.388c-11.232 6.073-24.927 11.277-38.576 14.347-13.488 3.034-27.876 4.199-40.103 1.287-8.513-2.027-18.755-6.138-29.355-10.515l-4.44-1.838c-9.615-3.986-19.836-8.224-30.54-12.002-24.967-8.812-50.53-14.337-73.12-8.586-1.377.351-6.984 2.42-16.853 6.342l-36.973 15.056-106.394 44.489-57.621 24.285L7.577 586.887.423 568.21c9.697-3.714 55.306-22.948 109.838-45.946l58.336-24.586 106.521-44.542 37.22-15.156c9.211-3.66 16.345-6.384 19.305-7.137 28.614-7.286 58.963.02 84.711 9.108 11.251 3.971 22.011 8.433 31.599 12.409l4.357 1.804c10.92 4.509 19.661 7.951 26.355 9.545 8.05 1.917 19.045 1.364 31.081-1.343 11.876-2.672 23.846-7.233 33.453-12.428l34.469-18.939 98.938-54.11c8.57-4.58 8.875-8.631 8.812-9.396-.073-.887-1.097-3.79-6.807-5.397-11.878-3.342-32.271-10.614-51.683-17.537l-.562-.2c-20.014-7.137-38.738-13.802-47.794-16.199-12.128-3.212-22-11.793-22.369-24.162-.359-12.072 8.577-21.855 20.867-27.318 15.445-6.866 50.233-20.716 83.96-34.076l12.646-5.007 66.428-26.68c14.868-6.422 25.652-9.559 38.486-9.206 11.475.315 24.248 3.467 42.52 7.976l2.844.701 29.238 7.314 74.511 17.723c4.472.869 10.082 2.229 16.632 3.817 14.215 3.447 32.86 7.967 53.913 10.88 30.482 4.217 61.762 4.227 83.982-7.087 14.31-7.287 56.69-32.177 104.3-60.141l8.3-4.875 135.86-78.166 9.46 17.619c-30.2 16.224-84.42 47.981-135.19 77.793l-9.18 5.391z" fill="url(#H)"/><path d="M1195.78 165.994l-104.48 60.202c-28.04 14.277-64.65 13.383-95.793 9.075-22.002-3.044-43.431-8.218-57.913-11.715l-13.709-3.161c-18.809-3.658-48.377-11.107-76.204-18.116l-28.513-7.134-.642-.158c-20.401-5.028-31.21-7.691-40.485-7.946-8.599-.236-16.249 1.632-30.007 7.575-10.991 4.747-37.858 15.382-66.952 26.897l-12.687 5.024-83.201 33.757c-8.382 3.726-9.02 7.746-8.999 8.446.012.403.474 3.564 7.496 5.424 10.005 2.649 29.54 9.615 48.877 16.511l.516.184c19.939 7.11 39.785 14.183 50.945 17.323 10.955 3.083 20.351 11.231 21.321 23.006.981 11.897-7.047 22.12-19.317 28.678l-98.035 53.615-35.287 19.388c-11.232 6.073-24.927 11.277-38.576 14.347-13.488 3.034-27.876 4.199-40.103 1.287-8.513-2.027-18.755-6.138-29.355-10.515l-4.44-1.838c-9.615-3.986-19.836-8.224-30.54-12.002-24.967-8.812-50.53-14.337-73.12-8.586-1.377.351-6.984 2.42-16.853 6.342l-36.973 15.056-106.394 44.489-57.621 24.285L7.577 552.225.423 533.548c9.697-3.714 55.306-22.948 109.838-45.946l58.336-24.586 106.521-44.542 37.22-15.156c9.211-3.66 16.345-6.384 19.305-7.137 28.614-7.286 58.963.02 84.711 9.107 11.251 3.972 22.011 8.434 31.599 12.41l4.357 1.804c10.92 4.509 19.661 7.951 26.355 9.545 8.05 1.917 19.045 1.364 31.081-1.343 11.876-2.672 23.846-7.234 33.453-12.428l34.469-18.939 98.938-54.11c8.57-4.58 8.875-8.631 8.812-9.396-.073-.887-1.097-3.79-6.807-5.397-11.878-3.342-32.271-10.615-51.683-17.537l-.562-.2c-20.014-7.138-38.738-13.802-47.794-16.2-12.128-3.211-22-11.792-22.369-24.162-.359-12.071 8.577-21.854 20.867-27.317 15.445-6.866 50.233-20.716 83.96-34.076l12.646-5.007 66.428-26.68c14.868-6.422 25.652-9.559 38.486-9.206 11.475.315 24.248 3.467 42.52 7.975l2.844.702 29.238 7.314 74.511 17.723c4.472.869 10.082 2.229 16.632 3.817 14.215 3.447 32.86 7.967 53.913 10.879 30.482 4.218 61.762 4.228 83.982-7.086 14.31-7.287 56.69-32.177 104.3-60.141l8.3-4.875 135.86-78.167 9.46 17.619c-30.2 16.225-84.42 47.982-135.19 77.794l-9.18 5.391z" fill="url(#I)"/></g><defs><linearGradient id="A" x1="685.607" y1="103.849" x2="699.423" y2="125.236" xlink:href="#U"><stop stop-color="#ffc100"/><stop offset="1" stop-color="#e66b35"/></linearGradient><linearGradient id="B" x1="555.961" y1="103.849" x2="567.97" y2="126.681" xlink:href="#U"><stop stop-color="#62f91f"/><stop offset="1" stop-color="#45bd35"/></linearGradient><linearGradient id="C" x1="831.88" y1="382.8" x2="842.848" y2="406.51" xlink:href="#U"><stop stop-color="#00cfde"/><stop offset="1" stop-color="#05a660"/></linearGradient><linearGradient id="D" x1="959.035" y1="381.828" x2="969.818" y2="402.695" xlink:href="#U"><stop stop-color="#bea1ff"/><stop offset="1" stop-color="#8a36ff"/></linearGradient><linearGradient id="E" x1="155.05" y1="329.704" x2="168.986" y2="351.054" xlink:href="#U"><stop stop-color="#73dfe7"/><stop offset="1" stop-color="#0095f7"/></linearGradient><linearGradient id="F" x1="273.445" y1="303.203" x2="302.679" y2="342.509" xlink:href="#U"><stop stop-color="#f5f5f5"/><stop offset="1" stop-color="#2e1cf3"/></linearGradient><linearGradient id="G" x1="431.07" y1="325.578" x2="442.894" y2="343.952" xlink:href="#U"><stop stop-color="#ff61a2"/><stop offset="1" stop-color="#d8005a"/></linearGradient><linearGradient id="H" x1="1420.49" y1="155.522" x2="-59.122" y2="629.078" xlink:href="#U"><stop offset=".139" stop-color="#242424" stop-opacity="0"/><stop offset=".231" stop-color="#242424"/><stop offset=".825" stop-color="#242424"/><stop offset=".928" stop-color="#242424" stop-opacity="0"/></linearGradient><linearGradient id="I" x1="1429.48" y1="96.996" x2="53.244" y2="554.256" xlink:href="#U"><stop offset=".15" stop-color="#63d5ea" stop-opacity="0"/><stop offset=".334" stop-color="#20c7ff"/><stop offset=".72" stop-color="#20c7ff"/><stop offset=".986" stop-color="#63d5ea" stop-opacity="0"/></linearGradient><clipPath id="J"><path transform="translate(540 97)" d="M0 0h109.594v36.531H0z" class="B"/></clipPath><clipPath id="K"><path transform="translate(278.901 315)" d="M0 0h109.594v36.531H0z" class="B"/></clipPath><path id="L" d="M593.261 111.042c0-.72.435-1.135 1.054-1.135.607 0 .97.399.97 1.064v2.99h1.174v-3.172c.003-1.193-.678-1.874-1.706-1.874-.746 0-1.258.357-1.485.911h-.058v-.846h-1.123v4.981h1.174v-2.919z"/><path id="M" d="M157.023 300v-23.273h9.318c1.712 0 3.14.254 4.284.762s2.004 1.212 2.58 2.113c.575.894.863 1.925.863 3.091 0 .909-.182 1.709-.545 2.398a4.72 4.72 0 0 1-1.5 1.682c-.629.432-1.349.738-2.159.92v.227a5.21 5.21 0 0 1 2.488.75c.781.463 1.413 1.11 1.898 1.944.485.825.727 1.81.727 2.954 0 1.235-.307 2.337-.92 3.307-.606.962-1.504 1.724-2.693 2.284s-2.656.841-4.398.841h-9.943zm4.92-4.023h4.012c1.371 0 2.371-.261 3-.784.628-.53.943-1.235.943-2.113 0-.644-.156-1.213-.466-1.705s-.754-.879-1.33-1.159c-.568-.28-1.246-.421-2.034-.421h-4.125v6.182zm0-9.511h3.648c.674 0 1.273-.117 1.795-.352.531-.243.947-.584 1.25-1.023.311-.439.466-.966.466-1.58 0-.841-.299-1.519-.897-2.034-.591-.515-1.432-.772-2.523-.772h-3.739v5.761z"/><path id="N" d="M869.085 391.058c1.46 0 2.387-1.028 2.387-2.568s-.927-2.576-2.387-2.576-2.387 1.032-2.387 2.576.928 2.568 2.387 2.568zm.007-.94c-.808 0-1.204-.72-1.204-1.632s.396-1.641 1.204-1.641c.794 0 1.19.73 1.19 1.641s-.396 1.632-1.19 1.632z"/><path id="O" d="M1031.49 390.748v-4.981h1.18v4.981h-1.18zm.59-5.688c-.18 0-.34-.062-.48-.185a.61.61 0 0 1-.2-.451c0-.177.07-.327.2-.451a.7.7 0 0 1 .48-.188c.19 0 .35.063.48.188a.57.57 0 0 1 .2.451c0 .175-.06.325-.2.451-.13.123-.29.185-.48.185z"/><path id="P" d="M1014.36 400.631c-.5 0-.93-.104-1.29-.312s-.64-.506-.83-.888c-.2-.385-.3-.838-.3-1.359 0-.513.1-.962.3-1.349a2.17 2.17 0 0 1 .82-.908c.35-.219.77-.328 1.24-.328.31 0 .6.05.87.149s.52.249.73.454.37.467.5.785c.12.316.18.692.18 1.129v.36h-4.09v-.792h2.96a1.3 1.3 0 0 0-.14-.6 1.11 1.11 0 0 0-.4-.418c-.17-.102-.37-.152-.59-.152-.24 0-.45.058-.64.175a1.19 1.19 0 0 0-.42.454c-.1.186-.15.39-.15.613v.691c0 .289.05.538.16.745.1.206.25.364.44.474s.41.162.67.162c.17 0 .32-.024.46-.071s.26-.122.36-.217.18-.213.23-.354l1.1.123a1.67 1.67 0 0 1-.4.759 1.92 1.92 0 0 1-.74.5c-.3.116-.64.175-1.03.175z"/><path id="Q" d="M197.841 332.283c1.463 0 2.393-1.041 2.393-2.602s-.93-2.609-2.393-2.609-2.394 1.045-2.394 2.609.93 2.602 2.394 2.602zm.006-.953c-.81 0-1.206-.729-1.206-1.652s.396-1.663 1.206-1.663c.797 0 1.194.739 1.194 1.663s-.397 1.652-1.194 1.652z"/><path id="R" d="M202.411 329.227c0-.729.436-1.15 1.057-1.15.608 0 .972.404.972 1.078v3.03h1.178v-3.214c.003-1.209-.68-1.899-1.711-1.899-.748 0-1.262.361-1.49.923h-.058v-.857h-1.125v5.047h1.177v-2.958z"/><path id="S" d="M210.294 332.185h1.177v-5.047h-1.177v5.047zm.592-5.764c.374 0 .679-.289.679-.644s-.305-.647-.679-.647-.683.289-.683.647.305.644.683.644z"/><path id="T" d="M221.447 330.062c0 .769-.544 1.15-1.064 1.15-.566 0-.943-.404-.943-1.045v-3.029h-1.177v3.213c0 1.213.683 1.9 1.665 1.9.748 0 1.275-.398 1.502-.963h.052v.897h1.142v-5.047h-1.177v2.924z"/><linearGradient id="U" gradientUnits="userSpaceOnUse"/></defs></svg>