<svg width="40" height="40" viewBox="0 0 40 40" fill="none" xmlns="http://www.w3.org/2000/svg">
<path fill-rule="evenodd" clip-rule="evenodd" d="M7.00032 10.7869L7.32527 30.5784C7.34043 31.4062 7.90139 32.112 8.73147 32.3478L30.1989 37.4167C31.5729 37.807 33.01 36.7734 32.9999 35.4022L32.7716 4.37305C32.7619 3.04847 31.4007 2.16944 30.0549 2.61859L8.4909 8.78728C7.5924 9.08714 6.98412 9.90312 7.00032 10.7869ZM11.4663 17.9018C11.4663 17.4477 11.8311 17.0795 12.2811 17.0795H14.1614V13.9361C14.1614 13.0975 14.7196 12.3638 15.5217 12.1479L21.6512 10.4984V8.90819C21.6512 8.45406 22.016 8.08592 22.466 8.08592H27.5585C28.0085 8.08592 28.3733 8.45406 28.3733 8.90819V14.0474C28.3733 14.5015 28.0085 14.8697 27.5585 14.8697H22.466C22.016 14.8697 21.6512 14.5015 21.6512 14.0474V12.4135L15.9932 13.9361V17.0795H17.3736C17.8236 17.0795 18.1884 17.4477 18.1884 17.9018V23.041C18.1884 23.4951 17.8236 23.8633 17.3736 23.8633H15.9932V26.9038L21.6512 28.4264V26.8954C21.6512 26.4413 22.016 26.0731 22.466 26.0731H27.5585C28.0085 26.0731 28.3733 26.4413 28.3733 26.8954V32.0346C28.3733 32.4887 28.0085 32.8569 27.5585 32.8569H22.466C22.016 32.8569 21.6512 32.4887 21.6512 32.0346V30.3415L15.5217 28.692C14.7196 28.4761 14.1614 27.7424 14.1614 26.9038V23.8633H12.2811C11.8311 23.8633 11.4663 23.4951 11.4663 23.041V17.9018ZM13.0959 18.7241V22.2187H16.5588V18.7241H13.0959ZM23.2808 13.2251V9.73046H26.7437V13.2251H23.2808ZM21.6512 17.9018C21.6512 17.4477 22.016 17.0795 22.466 17.0795H27.5585C28.0085 17.0795 28.3733 17.4477 28.3733 17.9018V23.041C28.3733 23.4951 28.0085 23.8633 27.5585 23.8633H22.466C22.016 23.8633 21.6512 23.4951 21.6512 23.041V17.9018ZM23.2808 18.7241V22.2187H26.7437V18.7241H23.2808ZM23.2808 31.2123V27.7177H26.7437V31.2123H23.2808Z" fill="url(#paint0_linear_1190_276)"/>
<defs>
<linearGradient id="paint0_linear_1190_276" x1="13.5" y1="4.84456" x2="33.0819" y2="30.04" gradientUnits="userSpaceOnUse">
<stop stop-color="#62F91F"/>
<stop offset="1" stop-color="#45BD35"/>
</linearGradient>
</defs>
</svg>
