<svg width="36" height="36" viewBox="0 0 36 36" fill="none" xmlns="http://www.w3.org/2000/svg">
<path fill-rule="evenodd" clip-rule="evenodd" d="M30.8968 9.72932C30.4296 8.99602 29.789 8.3734 29.0128 7.928L20.6992 3.15708C19.0272 2.19756 16.9791 2.20615 15.3149 3.17966L6.75867 8.18501C6.07238 8.58649 5.49363 9.12737 5.04928 9.76099L7.55882 11.2294C7.97294 11.4717 8.11613 12.0062 7.87863 12.423C7.64113 12.84 7.11289 12.9815 6.69876 12.7392L4.28636 11.3275C4.13356 11.8301 4.05078 12.3585 4.04618 12.899L3.96383 22.5815C3.94684 24.579 5.00021 26.4286 6.71529 27.4129L15.029 32.1838C15.646 32.5378 16.3141 32.7601 16.9953 32.8506V30.1864C16.9953 29.7066 17.3843 29.3176 17.8641 29.3176C18.3439 29.3176 18.7328 29.7066 18.7328 30.1864V32.7973C19.3156 32.6829 19.8838 32.4709 20.4133 32.1612L28.9695 27.1558C30.6336 26.1823 31.6654 24.3892 31.682 22.4418L31.7644 12.7593C31.7685 12.2725 31.7091 11.7945 31.5919 11.3357L29.2006 12.735C28.7865 12.9773 28.2582 12.8358 28.0207 12.4188C27.7832 12.0019 27.9265 11.4675 28.3406 11.2252L30.8968 9.72932ZM25.5176 22.9133L18.8646 26.5065C18.2439 26.8419 17.4845 26.842 16.8638 26.5066L10.2106 22.9133C9.56251 22.563 9.17631 21.9101 9.17631 21.2184L9.17629 14.0619C9.17629 13.3705 9.56177 12.7174 10.2105 12.367L16.8638 8.77358C17.4845 8.43828 18.2436 8.43827 18.8644 8.77357L25.5176 12.367C26.1659 12.7173 26.5518 13.3703 26.5518 14.0619V21.2184C26.5518 21.9099 26.166 22.5629 25.5176 22.9133ZM17.6332 10.0646L11.5991 13.3237L11.5798 13.3341L11.7278 13.4123L17.8641 16.6575L24.1484 13.3341L18.0949 10.0646C17.9513 9.98705 17.7768 9.98705 17.6332 10.0646ZM10.7356 21.2184V14.8532L16.9953 18.1636V24.8711L10.9801 21.6222C10.8292 21.5407 10.7356 21.3862 10.7356 21.2184ZM18.7329 18.2387V24.8711L24.748 21.6222C24.899 21.5407 24.9925 21.3862 24.9925 21.2184V14.8532L18.7329 18.1636V18.2387Z" fill="url(#paint0_linear_6_6)"/>
<defs>
<linearGradient id="paint0_linear_6_6" x1="10.2933" y1="4.89623" x2="27.4103" y2="28.9948" gradientUnits="userSpaceOnUse">
<stop stop-color="#73DFE7"/>
<stop offset="1" stop-color="#0095F7"/>
</linearGradient>
</defs>
</svg>
