<svg width="24" height="24" viewBox="0 0 24 24" fill="none" xmlns="http://www.w3.org/2000/svg">
<path fill-rule="evenodd" clip-rule="evenodd" d="M20.5979 6.48622C20.2864 5.99735 19.8594 5.58226 19.3419 5.28534L13.7995 2.10472C12.6848 1.46504 11.3194 1.47076 10.21 2.11977L4.50582 5.45667C4.0483 5.72433 3.66246 6.08491 3.36623 6.50732L5.03926 7.48628C5.31534 7.64782 5.41079 8.00412 5.25246 8.28203C5.09413 8.56 4.74197 8.65434 4.46588 8.4928L2.85761 7.55169C2.75575 7.88671 2.70056 8.23902 2.6975 8.59932L2.64259 15.0543C2.63127 16.386 3.33351 17.6191 4.4769 18.2753L10.0194 21.4559C10.4307 21.6919 10.8761 21.8401 11.3302 21.9004V20.1242C11.3302 19.8044 11.5896 19.545 11.9094 19.545C12.2293 19.545 12.4886 19.8044 12.4886 20.1242V21.8649C12.8771 21.7886 13.2559 21.6473 13.6089 21.4408L19.313 18.1039C20.4224 17.4549 21.1103 16.2594 21.1214 14.9612L21.1763 8.50622C21.179 8.18166 21.1394 7.86302 21.0613 7.55711L19.4671 8.48997C19.191 8.65151 18.8389 8.55717 18.6805 8.2792C18.5222 8.00129 18.6177 7.64498 18.8938 7.48345L20.5979 6.48622ZM17.0118 15.2755L12.5765 17.671C12.1626 17.8946 11.6564 17.8946 11.2426 17.6711L6.80711 15.2755C6.37505 15.042 6.11758 14.6067 6.11758 14.1456L6.11757 9.37458C6.11757 8.91366 6.37455 8.47828 6.80705 8.24468L11.2426 5.84905C11.6564 5.62552 12.1624 5.62551 12.5763 5.84905L17.0118 8.24468C17.444 8.47822 17.7013 8.91354 17.7013 9.37458V14.1456C17.7013 14.6066 17.444 15.0419 17.0118 15.2755ZM11.7555 6.70972L7.73277 8.88246L7.71991 8.88942L7.81855 8.94154L11.9094 11.105L16.099 8.88942L12.0633 6.70972C11.9676 6.65803 11.8512 6.65803 11.7555 6.70972ZM7.15714 14.1456V9.90215L11.3302 12.109V16.5807L7.32009 14.4148C7.21954 14.3605 7.15714 14.2575 7.15714 14.1456ZM12.4886 12.1591V16.5807L16.4987 14.4148C16.5994 14.3605 16.6617 14.2575 16.6617 14.1456V9.90215L12.4886 12.109V12.1591Z" fill="url(#paint0_linear_25_19)"/>
<defs>
<linearGradient id="paint0_linear_25_19" x1="6.86225" y1="3.26415" x2="18.2736" y2="19.3298" gradientUnits="userSpaceOnUse">
<stop stop-color="#73DFE7"/>
<stop offset="1" stop-color="#0095F7"/>
</linearGradient>
</defs>
</svg>
