<svg width="24" height="24" viewBox="0 0 24 24" fill="none" xmlns="http://www.w3.org/2000/svg">
    <path fill-rule="evenodd" clip-rule="evenodd"
        d="M7.02466 2.47949C7.02466 2.20335 7.24852 1.97949 7.52466 1.97949H17.7389C17.8949 1.97949 18.0419 2.05223 18.1364 2.17619L20.9222 5.82706C20.9886 5.91419 21.0247 6.02076 21.0247 6.13036V20.4795C21.0247 20.7556 20.8008 20.9795 20.5247 20.9795H7.52466C7.24852 20.9795 7.02466 20.7556 7.02466 20.4795V16.8609C7.02466 16.5847 7.24852 16.3609 7.52466 16.3609C7.8008 16.3609 8.02466 16.5847 8.02466 16.8609V19.9795H20.0247V6.29933L17.4915 2.97949H8.02466V6.30739C8.02466 6.58353 7.8008 6.80739 7.52466 6.80739C7.24852 6.80739 7.02466 6.58353 7.02466 6.30739V2.47949ZM13.8755 17.9757C14.0277 17.8236 14.0654 17.5911 13.9692 17.3986L12.0461 13.5524C12.0221 13.5044 11.9904 13.4605 11.9524 13.4225L8.87553 10.3456L5.7986 7.26864C5.60334 7.07338 5.28676 7.07338 5.0915 7.26864L3.16842 9.19172C2.97316 9.38698 2.97316 9.70356 3.16842 9.89882L9.32227 16.0527C9.36027 16.0907 9.40415 16.1223 9.45221 16.1463L13.2984 18.0694C13.4909 18.1657 13.7233 18.1279 13.8755 17.9757ZM9.972 15.2882L4.22908 9.54527L5.44505 8.3293L8.16842 11.0527L11.188 14.0722L12.4039 16.5042L9.972 15.2882ZM10.0078 8.00934C9.73169 8.00934 9.50783 8.2332 9.50783 8.50934C9.50783 8.78548 9.73169 9.00934 10.0078 9.00934H17.5078C17.784 9.00934 18.0078 8.78548 18.0078 8.50934C18.0078 8.2332 17.784 8.00934 17.5078 8.00934H10.0078ZM12.0078 11.4795C12.0078 11.2034 12.2317 10.9795 12.5078 10.9795H17.5079C17.784 10.9795 18.0079 11.2034 18.0079 11.4795C18.0079 11.7556 17.784 11.9795 17.5079 11.9795H12.5078C12.2317 11.9795 12.0078 11.7556 12.0078 11.4795ZM14.5077 14.0164C14.2316 14.0164 14.0077 14.2402 14.0077 14.5164C14.0077 14.7925 14.2316 15.0164 14.5077 15.0164H17.5078C17.784 15.0164 18.0078 14.7925 18.0078 14.5164C18.0078 14.2402 17.784 14.0164 17.5078 14.0164H14.5077Z"
        fill="#4F5162" />
</svg>