<svg width="36" height="36" viewBox="0 0 36 36" fill="none" xmlns="http://www.w3.org/2000/svg">
<path fill-rule="evenodd" clip-rule="evenodd" d="M4.50928 7.57527C4.50692 7.56392 4.50509 7.55403 4.50367 7.54567C4.50509 7.53732 4.50692 7.52742 4.50928 7.51607C4.52341 7.44804 4.55686 7.32564 4.6348 7.16488C4.78772 6.8495 5.13055 6.34808 5.90985 5.81231C7.49094 4.72532 10.8751 3.49567 18 3.49567C25.1248 3.49567 28.509 4.72532 30.0901 5.81231C30.8694 6.34808 31.2122 6.8495 31.3652 7.16488C31.4431 7.32564 31.4766 7.44804 31.4907 7.51607C31.493 7.52742 31.4948 7.53732 31.4963 7.54567C31.4948 7.55403 31.493 7.56392 31.4907 7.57527C31.4766 7.6433 31.4431 7.76569 31.3652 7.92647C31.2122 8.24184 30.8694 8.74326 30.0901 9.27908C28.509 10.366 25.1248 11.5957 18 11.5957C10.8751 11.5957 7.49094 10.366 5.90985 9.27908C5.13055 8.74326 4.78772 8.24184 4.6348 7.92647C4.55686 7.76569 4.52341 7.6433 4.50928 7.57527ZM3.66962 9.69029C3.62371 10.0188 3.59998 10.3545 3.59998 10.6957V17.7766C3.61311 17.8148 3.63464 17.8708 3.6682 17.9418C3.75555 18.1263 3.92749 18.4187 4.25398 18.7641C4.85343 19.3981 6.00906 20.2473 8.20486 20.9123C8.41465 20.1014 8.83682 19.3579 9.44269 18.7491C10.3334 17.8537 11.5113 17.3601 12.7629 17.355C14.0147 17.3499 15.1886 17.834 16.0721 18.7221L21.4375 24.1134C22.5785 25.2211 24.4109 25.2014 25.5454 24.0614C26.6881 22.9126 26.6957 21.055 25.5621 19.9155C24.425 18.7733 22.5659 18.7802 21.4186 19.9322L20.8034 20.5131C20.7067 20.6043 20.5551 20.602 20.4614 20.5077L19.56 19.6019C19.4627 19.5042 19.4653 19.3455 19.5654 19.2508L20.1808 18.6696C21.0715 17.7743 22.2493 17.2806 23.5011 17.2755C24.7527 17.2704 25.9265 17.7546 26.8101 18.6427C27.4785 19.3143 27.9184 20.1545 28.091 21.0709C29.8724 20.4139 30.9442 19.5752 31.574 18.9021C31.9412 18.5098 32.1655 18.1659 32.2942 17.933C32.3416 17.8473 32.376 17.7766 32.4 17.7238V10.6957C32.4 10.3545 32.3762 10.0188 32.3303 9.69029C32.0248 10.0428 31.6268 10.407 31.1098 10.7623C29.0909 12.1503 25.2751 13.3957 18 13.3957C10.7248 13.3957 6.90902 12.1503 4.8901 10.7623C4.3732 10.407 3.97519 10.0427 3.66962 9.69029ZM3.59998 20.7095V25.1989V27.4489V28.8686C3.86279 29.1718 4.24552 29.4321 4.67635 29.7251C4.74643 29.7727 4.81779 29.8213 4.89012 29.871C6.90903 31.259 10.7248 32.5044 18 32.5044C25.2752 32.5044 29.0909 31.259 31.1098 29.871C31.6268 29.5157 32.0944 29.1514 32.4 28.7989V27.8989V25.1989V20.7151C31.4677 21.5592 30.0857 22.4412 28.0635 23.0862C27.8717 23.9663 27.4331 24.7744 26.7833 25.4274C25.8925 26.3227 24.7146 26.8164 23.4631 26.8215C22.2113 26.8266 21.0374 26.3424 20.1539 25.4543L14.789 20.0625C13.6481 18.9548 11.815 18.975 10.6805 20.1152C9.53782 21.2638 9.53035 23.1214 10.6638 24.2609C11.801 25.4033 13.66 25.3963 14.8073 24.2443L15.526 23.5001C15.6214 23.4013 15.7792 23.4002 15.8761 23.4975L16.7773 24.4033C16.8715 24.4979 16.8726 24.6504 16.7798 24.7465L16.0452 25.5069C15.1544 26.4022 13.9766 26.8959 12.7248 26.901C11.4733 26.906 10.2994 26.4219 9.41587 25.5338C8.68761 24.8021 8.23068 23.8703 8.09515 22.8579C5.96752 22.2657 4.54656 21.4826 3.59998 20.7095Z" fill="url(#paint0_linear_18_8)"/>
<defs>
<linearGradient id="paint0_linear_18_8" x1="10.8" y1="5.43888" x2="25.3565" y2="30.4701" gradientUnits="userSpaceOnUse">
<stop stop-color="#62F91F"/>
<stop offset="1" stop-color="#45BD35"/>
</linearGradient>
</defs>
</svg>
