<svg width="32" height="32" viewBox="0 0 32 32" fill="none" xmlns="http://www.w3.org/2000/svg">
<path fill-rule="evenodd" clip-rule="evenodd" d="M20.8941 21.5202L28.2947 26.2342C25.3598 29.7577 20.9415 32 16 32C11.0586 32 6.64038 29.7578 3.70542 26.2344L11.1065 21.5201C12.4094 22.6751 14.1231 23.3762 16.0003 23.3762C17.8776 23.3762 19.5912 22.6751 20.8941 21.5202ZM22.2105 19.9858L29.4797 24.6161C31.075 22.1252 32 19.163 32 15.9846C32 7.47573 25.3707 0.516693 17 0V8.65996C20.6056 9.14838 23.385 12.2416 23.385 15.9845C23.385 17.4589 22.9537 18.8325 22.2105 19.9858ZM0 15.9846C0 7.47573 6.62927 0.516693 15 0V8.66006C11.3947 9.14876 8.61572 12.2418 8.61572 15.9845C8.61572 17.4589 9.04697 18.8325 9.7901 19.9857L2.5204 24.6163C0.92506 22.1254 0 19.1631 0 15.9846ZM20.3746 14.2525C20.7783 13.8753 20.8001 13.2419 20.4233 12.8378C20.0465 12.4336 19.4137 12.4118 19.0099 12.789L14.4175 17.0794L12.9899 15.7457C12.5862 15.3685 11.9534 15.3903 11.5766 15.7945C11.1997 16.1986 11.2216 16.832 11.6253 17.2092L13.7352 19.1803C14.1194 19.5392 14.7156 19.5392 15.0998 19.1803L20.3746 14.2525Z" fill="#AE82FC"/>
</svg>
