<svg width="17" height="17" viewBox="0 0 17 17" fill="none" xmlns="http://www.w3.org/2000/svg">
<path fill-rule="evenodd" clip-rule="evenodd" d="M1.72514 6.93977C0.87173 7.79318 0.871732 9.17683 1.72514 10.0302L6.53985 14.8449C7.39326 15.6984 8.77691 15.6984 9.63032 14.8449L14.445 10.0302C15.2984 9.17682 15.2984 7.79318 14.445 6.93977L9.63031 2.12506C8.77691 1.27165 7.39326 1.27165 6.53985 2.12506L1.72514 6.93977ZM9.24971 5.59426C9.30492 5.36976 9.16768 5.14301 8.94318 5.0878C8.71868 5.0326 8.49193 5.16984 8.43672 5.39434L7.04137 11.0688C6.98617 11.2933 7.12341 11.52 7.34791 11.5752C7.57241 11.6304 7.79916 11.4932 7.85436 11.2687L9.24971 5.59426ZM5.36572 10.5901C5.5292 10.7536 5.79424 10.7536 5.95772 10.5901C6.1212 10.4266 6.1212 10.1616 5.95772 9.99811L4.41195 8.45235L5.95772 6.90658C6.1212 6.7431 6.1212 6.47806 5.95772 6.31458C5.79424 6.15111 5.5292 6.15111 5.36572 6.31458L3.52396 8.15635C3.36048 8.31982 3.36048 8.58487 3.52396 8.74834L5.36572 10.5901ZM10.2586 10.6366C10.422 10.8001 10.6871 10.8001 10.8506 10.6366L12.6923 8.79486C12.8558 8.63138 12.8558 8.36634 12.6923 8.20286L10.8506 6.36109C10.6871 6.19762 10.422 6.19762 10.2586 6.36109C10.0951 6.52457 10.0951 6.78961 10.2586 6.95309L11.8043 8.49886L10.2586 10.0446C10.0951 10.2081 10.0951 10.4731 10.2586 10.6366Z" fill="url(#paint0_linear_3390_22120)"/>
<defs>
<linearGradient id="paint0_linear_3390_22120" x1="3.35486" y1="2.65709" x2="12.1921" y2="14.0524" gradientUnits="userSpaceOnUse">
<stop stop-color="#73DFE7"/>
<stop offset="1" stop-color="#0095F7"/>
</linearGradient>
</defs>
</svg>
