<svg width="50" height="49" viewBox="0 0 50 49" fill="none" xmlns="http://www.w3.org/2000/svg">
    <path fill-rule="evenodd" clip-rule="evenodd"
        d="M24.5 45C35.8218 45 45 35.8218 45 24.5C45 13.1782 35.8218 4 24.5 4C21.2511 4 18.1787 4.7558 15.449 6.10118L21.0098 11.3542C21.634 10.9236 22.386 10.6723 23.1955 10.6723C25.3569 10.6723 27.1091 12.4646 27.1091 14.6756C27.1091 15.3898 26.9263 16.0602 26.6059 16.6407L31.9825 21.7197C32.4837 21.4812 33.0425 21.348 33.6318 21.348C35.7933 21.348 37.5455 23.1403 37.5455 25.3513C37.5455 27.5623 35.7933 29.3546 33.6318 29.3546C31.4704 29.3546 29.7182 27.5623 29.7182 25.3513C29.7182 24.7192 29.8614 24.1213 30.1164 23.5897L24.626 18.4032C24.3184 18.5268 23.9917 18.6117 23.6518 18.652L20.743 32.657C21.8259 33.369 22.5432 34.6123 22.5432 36.027C22.5432 38.238 20.791 40.0303 18.6295 40.0303C16.4681 40.0303 14.7158 38.238 14.7158 36.027C14.7158 33.9635 16.2419 32.2648 18.2024 32.0471L21.1071 18.062C20.0101 17.3527 19.2818 16.1012 19.2818 14.6756C19.2818 14.2713 19.3403 13.881 19.4493 13.513L13.0656 7.48263C7.59722 11.1642 4 17.412 4 24.5C4 35.8218 13.1782 45 24.5 45Z"
        fill="url(#paint0_linear_3_508)" />
    <defs>
        <linearGradient id="paint0_linear_3_508" x1="12.697" y1="4" x2="45" y2="45" gradientUnits="userSpaceOnUse">
            <stop stop-color="#FF679E" />
            <stop offset="1" stop-color="#F11D0D" />
        </linearGradient>
    </defs>
</svg>