<svg width="36" height="36" viewBox="0 0 36 36" fill="none" xmlns="http://www.w3.org/2000/svg">
<path fill-rule="evenodd" clip-rule="evenodd" d="M27.1079 29.87H27.0825L7.78129 29.8699C4.28139 29.8698 1.44421 26.9057 1.44421 23.2495C1.44421 20.042 3.62772 17.3673 6.52666 16.7589C6.58588 16.7464 6.62899 16.6922 6.62899 16.6291C6.62899 10.646 11.2719 5.79567 16.9992 5.79567C21.9812 5.79567 26.1426 9.46573 27.1414 14.359C27.1963 14.628 27.4177 14.8266 27.6801 14.8491C31.3778 15.1664 34.284 18.4021 34.284 22.3468C34.284 26.4003 31.2152 29.7051 27.3723 29.864L27.3695 29.8669L27.3665 29.87H27.1079ZM14.3158 26.2044C14.3158 25.6212 14.7764 25.1485 15.3447 25.1485H21.4261C21.9942 25.1485 22.4548 25.6212 22.4548 26.2044C22.4548 26.7875 21.9942 27.2602 21.4261 27.2602H15.3447C14.7764 27.2602 14.3158 26.7875 14.3158 26.2044ZM16.0447 12.2541C15.6283 11.8573 14.9774 11.882 14.5908 12.3093C14.2041 12.7367 14.2282 13.4048 14.6446 13.8015L18.5627 17.5356L14.6446 21.2696C14.2282 21.6663 14.2041 22.3344 14.5908 22.7618C14.9774 23.1891 15.6283 23.2138 16.0447 22.817L20.7747 18.3093C20.9844 18.1095 21.1035 17.8292 21.1035 17.5356C21.1035 17.2419 20.9844 16.9616 20.7747 16.7618L16.0447 12.2541Z" fill="url(#paint0_linear_4_2)"/>
<defs>
<linearGradient id="paint0_linear_4_2" x1="6.87706" y1="8.88747" x2="21.771" y2="31.4517" gradientUnits="userSpaceOnUse">
<stop stop-color="#4791FF"/>
<stop offset="1" stop-color="#2E1CF3"/>
</linearGradient>
</defs>
</svg>
