<svg width="16" height="16" viewBox="0 0 16 16" fill="none" xmlns="http://www.w3.org/2000/svg">
    <mask id="mask0_16_530" style="mask-type:luminance" maskUnits="userSpaceOnUse" x="1" y="1" width="14" height="14">
        <path d="M14.72 1.30612H1.59998V14.6939H14.72V1.30612Z" fill="white" />
    </mask>
    <g mask="url(#mask0_16_530)">
        <path fill-rule="evenodd" clip-rule="evenodd"
            d="M1.59998 1.92808C1.59998 1.58458 1.87287 1.30612 2.2095 1.30612H14.1104C14.4471 1.30612 14.72 1.58458 14.72 1.92808V4.70413H8.30574C8.28609 4.70413 8.26686 4.70583 8.24814 4.70916C8.09425 3.90691 7.40154 3.30158 6.57031 3.30158C5.62606 3.30158 4.86058 4.08264 4.86058 5.04617C4.86058 6.0097 5.62606 6.79079 6.57031 6.79079C7.40154 6.79079 8.09425 6.18547 8.24814 5.38325C8.26686 5.38655 8.28609 5.38828 8.30574 5.38828H14.72V14.0719C14.72 14.4154 14.4471 14.6939 14.1104 14.6939H2.2095C1.87287 14.6939 1.59998 14.4154 1.59998 14.0719V10.5309H8.51198V11.5334C8.51198 12.0125 8.89262 12.4009 9.36218 12.4009H11.9975C12.4671 12.4009 12.8478 12.0125 12.8478 11.5334V8.84421C12.8478 8.36509 12.4671 7.97669 11.9975 7.97669H9.36218C8.89262 7.97669 8.51198 8.36509 8.51198 8.84421V9.84673H1.59998V1.92808ZM9.18247 8.84421C9.18247 8.74295 9.26292 8.66083 9.36218 8.66083H11.9975C12.0968 8.66083 12.1773 8.74295 12.1773 8.84421V11.5334C12.1773 11.6346 12.0968 11.7168 11.9975 11.7168H9.36218C9.26292 11.7168 9.18247 11.6346 9.18247 11.5334V8.84421ZM6.57031 3.98573C5.99633 3.98573 5.53105 4.46051 5.53105 5.04617C5.53105 5.63184 5.99633 6.10661 6.57031 6.10661C7.14426 6.10661 7.60954 5.63184 7.60954 5.04617C7.60954 4.46051 7.14426 3.98573 6.57031 3.98573Z"
            fill="url(#paint0_linear_16_530)" />
    </g>
    <defs>
        <linearGradient id="paint0_linear_16_530" x1="1.43337" y1="1.30612" x2="17.5775" y2="18.0446"
            gradientUnits="userSpaceOnUse">
            <stop stop-color="#00E9DB" />
            <stop offset="1" stop-color="#249789" />
        </linearGradient>
    </defs>
</svg>