<svg width="16" height="16" viewBox="0 0 16 16" fill="none" xmlns="http://www.w3.org/2000/svg">
<path fill-rule="evenodd" clip-rule="evenodd" d="M13.7319 4.32414C13.5242 3.99823 13.2395 3.72151 12.8946 3.52356L9.19961 1.40315C8.45651 0.976694 7.54624 0.98051 6.80663 1.41318L3.00384 3.63778C2.69882 3.81622 2.4416 4.05661 2.24411 4.33822L3.35946 4.99085C3.54352 5.09854 3.60716 5.33608 3.5016 5.52135C3.39605 5.70667 3.16127 5.76956 2.97721 5.66187L1.90503 5.03446C1.83712 5.25781 1.80033 5.49268 1.79829 5.73288L1.76169 10.0362C1.75414 10.924 2.2223 11.7461 2.98456 12.1835L6.67953 14.3039C6.95374 14.4613 7.25069 14.56 7.55346 14.6003V13.4162C7.55346 13.2029 7.72634 13.03 7.93959 13.03C8.15284 13.03 8.32568 13.2029 8.32568 13.4162V14.5766C8.58468 14.5257 8.83723 14.4315 9.07255 14.2939L12.8753 12.0693C13.6149 11.6366 14.0735 10.8396 14.0809 9.97415L14.1175 5.67081C14.1193 5.45444 14.0929 5.24201 14.0408 5.03807L12.978 5.65998C12.794 5.76767 12.5592 5.70478 12.4536 5.51947C12.3481 5.3342 12.4118 5.09666 12.5958 4.98897L13.7319 4.32414ZM11.3411 10.1837L8.38427 11.7807C8.10837 11.9297 7.77089 11.9298 7.495 11.7807L4.53803 10.1837C4.24999 10.028 4.07835 9.73781 4.07835 9.4304L4.07834 6.24972C4.07834 5.94244 4.24966 5.65219 4.53799 5.49645L7.495 3.89937C7.77089 3.75035 8.10825 3.75034 8.38419 3.89937L11.3411 5.49645C11.6293 5.65214 11.8008 5.94236 11.8008 6.24972V9.4304C11.8008 9.73772 11.6293 10.0279 11.3411 10.1837ZM7.83698 4.47315L5.15514 5.92164L5.14656 5.92628L5.21233 5.96103L7.93959 7.40332L10.7326 5.92628L8.04215 4.47315C7.97836 4.43869 7.90078 4.43869 7.83698 4.47315ZM4.77139 9.4304V6.60144L7.55346 8.0727V11.0538L4.88002 9.60989C4.81299 9.57366 4.77139 9.50499 4.77139 9.4304ZM8.32572 8.10609V11.0538L10.9991 9.60989C11.0662 9.57366 11.1078 9.50499 11.1078 9.4304V6.60144L8.32572 8.0727V8.10609Z" fill="url(#paint0_linear_25_59)"/>
<defs>
<linearGradient id="paint0_linear_25_59" x1="4.57479" y1="2.1761" x2="12.1823" y2="12.8866" gradientUnits="userSpaceOnUse">
<stop stop-color="#73DFE7"/>
<stop offset="1" stop-color="#0095F7"/>
</linearGradient>
</defs>
</svg>
