<svg width="50" height="49" viewBox="0 0 50 49" fill="none" xmlns="http://www.w3.org/2000/svg">
    <path fill-rule="evenodd" clip-rule="evenodd"
        d="M4.59708 16.0232C3.90303 11.4445 3.87952 7.22231 4.19395 3.99324C4.24936 3.42425 4.73354 3 5.30522 3H45.0803C45.6825 3 46.1814 3.48197 46.2068 4.08361C47.3448 31.1033 33.3022 43.1078 25.6528 45.9439C25.3782 46.0457 25.0764 46.0229 24.813 45.895C12.6486 39.9868 7.17096 28.8405 5.08677 18.7605L10.138 19.7085C10.1877 21.0559 10.7269 22.3886 11.7556 23.4173C13.4844 25.1461 16.0722 25.4923 18.1451 24.4561L22.7284 28.8631C22.7517 28.8855 22.7757 28.9069 22.8002 28.9272C21.4765 31.2555 21.8074 34.2692 23.793 36.2548C26.1758 38.6375 30.039 38.6375 32.4217 36.2548C34.8045 33.872 34.8045 30.0088 32.4217 27.6261C30.2729 25.4773 26.9201 25.2663 24.5349 26.9932L24.5305 26.9889L20.1409 22.7683C21.1496 21.3907 21.4416 19.6522 21.0167 18.0657L25.8198 15.5883C25.8724 15.6454 25.9264 15.7017 25.9818 15.7571C28.1436 17.9189 31.6486 17.9189 33.8104 15.7571C35.9722 13.5953 35.9722 10.0903 33.8104 7.92847C31.6486 5.76665 28.1436 5.76665 25.9818 7.92847C24.5232 9.38705 24.0487 11.4571 24.5583 13.3135L19.7699 15.7833C19.7099 15.7173 19.648 15.6524 19.5842 15.5886C17.4224 13.4268 13.9174 13.4268 11.7556 15.5886C11.286 16.0581 10.9185 16.591 10.6529 17.1597L4.59708 16.0232ZM12.7384 19.3458C12.8191 19.2143 12.8776 19.0662 12.9077 18.9056C12.9348 18.7614 12.9369 18.6183 12.9171 18.4808C13.0596 18.0964 13.2852 17.7359 13.594 17.4271C14.7405 16.2806 16.5993 16.2806 17.7457 17.4271C18.8922 18.5735 18.8922 20.4323 17.7457 21.5788C16.5993 22.7252 14.7405 22.7252 13.594 21.5788C12.9808 20.9656 12.6956 20.1486 12.7384 19.3458ZM27.8202 9.76695C28.9667 8.62049 30.8255 8.62049 31.9719 9.76695C33.1184 10.9134 33.1184 12.7722 31.9719 13.9186C30.8255 15.0651 28.9667 15.0651 27.8202 13.9186C26.6738 12.7722 26.6738 10.9134 27.8202 9.76695ZM30.5832 29.4646C29.2159 28.0972 26.9989 28.0972 25.6315 29.4646C24.2641 30.8319 24.2641 33.0489 25.6315 34.4163C26.9989 35.7837 29.2159 35.7837 30.5832 34.4163C31.9506 33.0489 31.9506 30.8319 30.5832 29.4646Z"
        fill="url(#paint0_linear_1_52)" />
    <path
        d="M4.19395 3.99324L4.05272 3.97949L4.19395 3.99324ZM4.59708 16.0232L4.45677 16.0444L4.47187 16.144L4.5709 16.1626L4.59708 16.0232ZM46.2068 4.08361L46.3486 4.07764L46.3486 4.07764L46.2068 4.08361ZM25.6528 45.9439L25.6035 45.8108L25.6035 45.8108L25.6528 45.9439ZM24.813 45.895L24.875 45.7674L24.875 45.7674L24.813 45.895ZM5.08677 18.7605L5.11295 18.621L4.90495 18.5819L4.9478 18.7892L5.08677 18.7605ZM10.138 19.7085L10.2798 19.7032L10.2756 19.5899L10.1642 19.569L10.138 19.7085ZM11.7556 23.4173L11.6552 23.5176L11.6552 23.5176L11.7556 23.4173ZM18.1451 24.4561L18.2434 24.3538L18.1712 24.2844L18.0816 24.3292L18.1451 24.4561ZM22.7284 28.8631L22.8268 28.7608L22.8267 28.7608L22.7284 28.8631ZM22.8002 28.9272L22.9235 28.9974L22.9823 28.894L22.8908 28.818L22.8002 28.9272ZM23.793 36.2548L23.6927 36.3551L23.6927 36.3551L23.793 36.2548ZM32.4217 36.2548L32.5221 36.3551L32.5221 36.3551L32.4217 36.2548ZM32.4217 27.6261L32.3214 27.7264L32.3214 27.7264L32.4217 27.6261ZM24.5349 26.9932L24.4362 27.0952L24.5217 27.1779L24.6181 27.1081L24.5349 26.9932ZM24.5305 26.9889L24.6291 26.8869L24.6288 26.8866L24.5305 26.9889ZM20.1409 22.7683L20.0264 22.6844L19.9531 22.7845L20.0426 22.8706L20.1409 22.7683ZM21.0167 18.0657L20.9517 17.9396L20.8501 17.992L20.8796 18.1024L21.0167 18.0657ZM25.8198 15.5883L25.9242 15.4922L25.8509 15.4126L25.7548 15.4622L25.8198 15.5883ZM25.9818 15.7571L26.0821 15.6568L26.0821 15.6568L25.9818 15.7571ZM33.8104 15.7571L33.7101 15.6568L33.7101 15.6568L33.8104 15.7571ZM33.8104 7.92847L33.7101 8.02881L33.7101 8.02881L33.8104 7.92847ZM25.9818 7.92847L26.0821 8.02881L26.0821 8.02881L25.9818 7.92847ZM24.5583 13.3135L24.6234 13.4396L24.7256 13.3869L24.6952 13.2759L24.5583 13.3135ZM19.7699 15.7833L19.6648 15.8788L19.7381 15.9594L19.8349 15.9094L19.7699 15.7833ZM19.5842 15.5886L19.6846 15.4883L19.6846 15.4883L19.5842 15.5886ZM11.7556 15.5886L11.6552 15.4883L11.6552 15.4883L11.7556 15.5886ZM10.6529 17.1597L10.6268 17.2992L10.7349 17.3195L10.7815 17.2198L10.6529 17.1597ZM12.9077 18.9056L12.7682 18.8794L12.7682 18.8794L12.9077 18.9056ZM12.7384 19.3458L12.6174 19.2716L12.5986 19.3023L12.5967 19.3382L12.7384 19.3458ZM12.9171 18.4808L12.7841 18.4315L12.7715 18.4653L12.7767 18.501L12.9171 18.4808ZM13.594 17.4271L13.6944 17.5274L13.6944 17.5274L13.594 17.4271ZM17.7457 21.5788L17.6454 21.4784L17.6454 21.4784L17.7457 21.5788ZM13.594 21.5788L13.6944 21.4784L13.6944 21.4784L13.594 21.5788ZM31.9719 9.76695L31.8716 9.86729L31.8716 9.86729L31.9719 9.76695ZM27.8202 9.76695L27.7199 9.6666L27.7199 9.6666L27.8202 9.76695ZM31.9719 13.9186L31.8716 13.8183L31.8716 13.8183L31.9719 13.9186ZM27.8202 13.9186L27.7199 14.019L27.7199 14.019L27.8202 13.9186ZM4.05272 3.97949C3.73716 7.22014 3.76096 11.4541 4.45677 16.0444L4.73738 16.0019C4.0451 11.4349 4.02189 7.22448 4.33519 4.007L4.05272 3.97949ZM5.30522 2.85809C4.66318 2.85809 4.11546 3.33515 4.05272 3.97949L4.33519 4.007C4.38326 3.51335 4.80389 3.14191 5.30522 3.14191V2.85809ZM45.0803 2.85809H5.30522V3.14191H45.0803V2.85809ZM46.3486 4.07764C46.3201 3.40062 45.7591 2.85809 45.0803 2.85809V3.14191C45.6058 3.14191 46.0428 3.56332 46.065 4.08958L46.3486 4.07764ZM25.7021 46.0769C33.4127 43.2182 47.489 31.1551 46.3486 4.07764L46.065 4.08958C47.2006 31.0516 33.1917 42.9975 25.6035 45.8108L25.7021 46.0769ZM24.751 46.0227C25.0466 46.1662 25.3886 46.1932 25.7021 46.0769L25.6035 45.8108C25.3679 45.8982 25.1063 45.8797 24.875 45.7674L24.751 46.0227ZM4.9478 18.7892C7.03727 28.8947 12.5332 40.0885 24.751 46.0227L24.875 45.7674C12.764 39.885 7.30465 28.7862 5.22574 18.7317L4.9478 18.7892ZM10.1642 19.569L5.11295 18.621L5.0606 18.8999L10.1118 19.8479L10.1642 19.569ZM9.99618 19.7137C10.0472 21.0955 10.6003 22.4627 11.6552 23.5176L11.8559 23.3169C10.8536 22.3146 10.3283 21.0163 10.2798 19.7032L9.99618 19.7137ZM11.6552 23.5176C13.4285 25.2909 16.0826 25.6458 18.2085 24.583L18.0816 24.3292C16.0617 25.3389 13.5402 25.0012 11.8559 23.3169L11.6552 23.5176ZM18.0467 24.5584L22.63 28.9654L22.8267 28.7608L18.2434 24.3538L18.0467 24.5584ZM22.63 28.9654C22.6559 28.9902 22.6824 29.0139 22.7095 29.0364L22.8908 28.818C22.8689 28.7999 22.8476 28.7808 22.8268 28.7608L22.63 28.9654ZM22.6768 28.8571C21.3224 31.2395 21.6608 34.3232 23.6927 36.3551L23.8934 36.1544C21.9541 34.2152 21.6306 31.2716 22.9235 28.9974L22.6768 28.8571ZM23.6927 36.3551C26.1308 38.7933 30.0839 38.7933 32.5221 36.3551L32.3214 36.1544C29.994 38.4818 26.2207 38.4818 23.8934 36.1544L23.6927 36.3551ZM32.5221 36.3551C34.9602 33.9169 34.9602 29.9639 32.5221 27.5257L32.3214 27.7264C34.6487 30.0538 34.6487 33.8271 32.3214 36.1544L32.5221 36.3551ZM32.5221 27.5257C30.3232 25.3269 26.8924 25.1111 24.4516 26.8782L24.6181 27.1081C26.9477 25.4215 30.2226 25.6277 32.3214 27.7264L32.5221 27.5257ZM24.6335 26.8912L24.6291 26.8869L24.4318 27.0909L24.4362 27.0952L24.6335 26.8912ZM24.6288 26.8866L20.2393 22.666L20.0426 22.8706L24.4321 27.0912L24.6288 26.8866ZM20.2554 22.8521C21.2903 21.4388 21.5895 19.6558 21.1538 18.029L20.8796 18.1024C21.2937 19.6485 21.009 21.3425 20.0264 22.6844L20.2554 22.8521ZM21.0818 18.1918L25.8849 15.7144L25.7548 15.4622L20.9517 17.9396L21.0818 18.1918ZM25.7154 15.6844C25.7693 15.743 25.8246 15.8007 25.8814 15.8575L26.0821 15.6568C26.0281 15.6028 25.9755 15.5479 25.9242 15.4922L25.7154 15.6844ZM25.8814 15.8575C28.0987 18.0747 31.6935 18.0747 33.9108 15.8575L33.7101 15.6568C31.6037 17.7632 28.1885 17.7632 26.0821 15.6568L25.8814 15.8575ZM33.9108 15.8575C36.128 13.6402 36.128 10.0454 33.9108 7.82813L33.7101 8.02881C35.8165 10.1352 35.8165 13.5504 33.7101 15.6568L33.9108 15.8575ZM33.9108 7.82813C31.6935 5.61089 28.0987 5.61089 25.8814 7.82813L26.0821 8.02881C28.1885 5.92241 31.6037 5.92241 33.7101 8.02881L33.9108 7.82813ZM25.8814 7.82813C24.3853 9.32423 23.8989 11.4475 24.4215 13.351L24.6952 13.2759C24.1985 11.4667 24.661 9.44988 26.0821 8.02881L25.8814 7.82813ZM24.4933 13.1874L19.7048 15.6572L19.8349 15.9094L24.6234 13.4396L24.4933 13.1874ZM19.8749 15.6879C19.8134 15.6202 19.7499 15.5536 19.6846 15.4883L19.4839 15.689C19.546 15.7511 19.6063 15.8144 19.6648 15.8788L19.8749 15.6879ZM19.6846 15.4883C17.4673 13.271 13.8725 13.271 11.6552 15.4883L11.8559 15.689C13.9623 13.5825 17.3775 13.5825 19.4839 15.689L19.6846 15.4883ZM11.6552 15.4883C11.1738 15.9696 10.7968 16.5162 10.5243 17.0997L10.7815 17.2198C11.0402 16.6658 11.3982 16.1466 11.8559 15.689L11.6552 15.4883ZM4.5709 16.1626L10.6268 17.2992L10.6791 17.0202L4.62325 15.8837L4.5709 16.1626ZM12.7682 18.8794C12.7413 19.0228 12.6892 19.1546 12.6174 19.2716L12.8593 19.42C12.9489 19.2741 13.0138 19.1097 13.0472 18.9318L12.7682 18.8794ZM12.7767 18.501C12.7942 18.6233 12.7924 18.7507 12.7682 18.8794L13.0472 18.9318C13.0771 18.7721 13.0795 18.6134 13.0576 18.4606L12.7767 18.501ZM13.0502 18.5301C13.1857 18.1645 13.4003 17.8215 13.6944 17.5274L13.4937 17.3267C13.1701 17.6503 12.9335 18.0283 12.7841 18.4315L13.0502 18.5301ZM13.6944 17.5274C14.7854 16.4364 16.5544 16.4364 17.6454 17.5274L17.8461 17.3267C16.6442 16.1249 14.6956 16.1249 13.4937 17.3267L13.6944 17.5274ZM17.6454 17.5274C18.7364 18.6185 18.7364 20.3874 17.6454 21.4784L17.8461 21.6791C19.048 20.4772 19.048 18.5286 17.8461 17.3267L17.6454 17.5274ZM17.6454 21.4784C16.5544 22.5695 14.7854 22.5695 13.6944 21.4784L13.4937 21.6791C14.6956 22.881 16.6442 22.881 17.8461 21.6791L17.6454 21.4784ZM13.6944 21.4784C13.1108 20.8949 12.8394 20.1176 12.8801 19.3533L12.5967 19.3382C12.5519 20.1795 12.8508 21.0363 13.4937 21.6791L13.6944 21.4784ZM32.0723 9.6666C30.8704 8.46473 28.9218 8.46473 27.7199 9.6666L27.9206 9.86729C29.0116 8.77625 30.7806 8.77625 31.8716 9.86729L32.0723 9.6666ZM32.0723 14.019C33.2742 12.8171 33.2742 10.8685 32.0723 9.6666L31.8716 9.86729C32.9626 10.9583 32.9626 12.7273 31.8716 13.8183L32.0723 14.019ZM27.7199 14.019C28.9218 15.2209 30.8704 15.2209 32.0723 14.019L31.8716 13.8183C30.7806 14.9093 29.0116 14.9093 27.9206 13.8183L27.7199 14.019ZM27.7199 9.6666C26.518 10.8685 26.518 12.8171 27.7199 14.019L27.9206 13.8183C26.8295 12.7273 26.8295 10.9583 27.9206 9.86729L27.7199 9.6666ZM25.7318 29.5649C27.0438 28.2529 29.1709 28.2529 30.4829 29.5649L30.6836 29.3642C29.2608 27.9414 26.954 27.9414 25.5312 29.3642L25.7318 29.5649ZM25.7318 34.316C24.4199 33.004 24.4199 30.8769 25.7318 29.5649L25.5312 29.3642C24.1084 30.787 24.1084 33.0938 25.5312 34.5166L25.7318 34.316ZM30.4829 34.316C29.1709 35.6279 27.0438 35.6279 25.7318 34.316L25.5312 34.5166C26.954 35.9394 29.2608 35.9394 30.6836 34.5166L30.4829 34.316ZM30.4829 29.5649C31.7949 30.8769 31.7949 33.004 30.4829 34.316L30.6836 34.5166C32.1064 33.0938 32.1064 30.787 30.6836 29.3642L30.4829 29.5649Z"
        fill="white" />
    <defs>
        <linearGradient id="paint0_linear_1_52" x1="46.7216" y1="-4.32639" x2="-4.7199" y2="42.1188"
            gradientUnits="userSpaceOnUse">
            <stop stop-color="#F04E29" />
            <stop offset="1" stop-color="#FF8E75" />
        </linearGradient>
    </defs>
</svg>