<svg width="50" height="50" viewBox="0 0 50 50" fill="none" xmlns="http://www.w3.org/2000/svg">
    <path fill-rule="evenodd" clip-rule="evenodd"
        d="M25.3125 45.625C36.5308 45.625 45.625 36.5308 45.625 25.3125C45.625 14.0942 36.5308 5 25.3125 5C15.3305 5 7.03017 12.2003 5.322 21.6904C7.4879 21.4289 10.0243 21.2498 11.8756 21.2527C14.2708 21.2564 17.8118 21.6382 19.7178 22.0329C20.5653 20.6894 22.1623 19.9761 23.7592 20.2717C24.685 18.3357 25.2541 17.171 26.9547 14.7482C28.7246 12.2267 32.4995 10.636 32.4995 11.2496C32.4996 12.5005 32.3902 14.075 30.6248 16.874C29.3569 18.8843 27.7356 20.6895 26.3872 22.0096C27.0401 22.9938 27.258 24.2521 26.8726 25.4548C26.7314 25.8953 26.5206 26.2931 26.2561 26.6403C27.2325 28.5429 28.2322 30.8793 29.1449 33.0124L29.145 33.0126L29.1451 33.013C29.4409 33.7043 29.7276 34.3743 30.0014 35.0012C31.2495 37.8595 31.1267 42.7651 30.6253 42.499C29.1103 41.6954 26.7049 38.8922 25.6259 36.2515C25.4652 35.8582 25.2836 35.4209 25.0906 34.9559L25.089 34.9523L25.0887 34.9515L25.0887 34.9515C24.1605 32.7161 22.9674 29.8429 22.5484 28.1423C22.3226 28.1086 22.0964 28.055 21.8719 27.9804C20.7344 27.6022 19.8745 26.7618 19.4345 25.7376L19.3762 25.734C16.9594 25.5885 14.3378 25.4307 11.8828 25.0806C10.0618 24.8209 7.12925 23.8196 5.12885 23.0118C5.04373 23.7669 5 24.5346 5 25.3125C5 36.5308 14.0942 45.625 25.3125 45.625Z"
        fill="url(#paint0_linear_1_69)" />
    <defs>
        <linearGradient id="paint0_linear_1_69" x1="15.1563" y1="7.72136" x2="35.4688" y2="42.9036"
            gradientUnits="userSpaceOnUse">
            <stop stop-color="#62F91F" />
            <stop offset="1" stop-color="#45BD35" />
        </linearGradient>
    </defs>
</svg>