<svg width="16" height="16" viewBox="0 0 16 16" fill="none" xmlns="http://www.w3.org/2000/svg">
<g clip-path="url(#clip0_2194_106965)">
<path d="M6.24023 0.772461C7.28431 -0.271619 8.98245 -0.254777 10.0059 0.80957L15.2637 6.27832C16.259 7.31356 16.243 8.95421 15.2275 9.96973L9.96973 15.2275C8.95421 16.243 7.31353 16.259 6.27832 15.2637L3.95898 13.0342L5.125 11.8545C5.76846 12.3378 6.54268 12.6657 7.39746 12.7725C10.0132 13.0988 12.399 11.2427 12.7256 8.62695C13.0518 6.01139 11.1956 3.62561 8.58008 3.29883C5.96432 2.9723 3.57875 4.82864 3.25195 7.44434C3.21814 7.71516 3.40992 7.96305 3.68066 7.99707C3.95162 8.0309 4.19859 7.83736 4.23242 7.56641C4.49173 5.49275 6.38422 4.02133 8.45801 4.28027C10.5316 4.53955 12.0029 6.43122 11.7441 8.50488C11.4851 10.5787 9.59335 12.0507 7.51953 11.792C6.88906 11.7132 6.31605 11.4818 5.8291 11.1426L7.17773 9.77637C7.35461 9.85874 7.54696 9.91593 7.75098 9.94141C8.80334 10.0724 9.76215 9.32584 9.89355 8.27344C10.0247 7.22117 9.27877 6.26249 8.22656 6.13086C7.17409 5.99944 6.21465 6.74547 6.08301 7.79785C6.02152 8.29055 6.15331 8.76203 6.41797 9.13867L3.24707 12.3486L0.80957 10.0059C-0.254777 8.98245 -0.271619 7.28431 0.772461 6.24023L6.24023 0.772461ZM8.10449 7.11133C8.61463 7.17546 8.97656 7.6411 8.91309 8.15137C8.8492 8.66178 8.38348 9.02443 7.87305 8.96094C7.36241 8.8971 6.99971 8.43058 7.06348 7.91992C7.12756 7.40956 7.594 7.04759 8.10449 7.11133Z" fill="url(#paint0_linear_2194_106965)"/>
</g>
<defs>
<linearGradient id="paint0_linear_2194_106965" x1="0.105656" y1="-1.23558" x2="16.7721" y2="16.7716" gradientUnits="userSpaceOnUse">
<stop stop-color="#FF99C9"/>
<stop offset="0.5" stop-color="#926EF7"/>
<stop offset="1" stop-color="#6EEEF7"/>
</linearGradient>
<clipPath id="clip0_2194_106965">
<rect width="16" height="16" fill="white"/>
</clipPath>
</defs>
</svg>
