<svg width="16" height="16" viewBox="0 0 16 16" fill="none" xmlns="http://www.w3.org/2000/svg">
<path d="M13.5209 5.69856L10.2016 2.33533C9.80848 1.95926 9.34025 1.6729 8.82848 1.49555C7.69439 1.11346 6.56577 1.41171 5.65173 2.33533L2.32424 5.69856C1.95262 6.09637 1.66965 6.57018 1.4944 7.08809C1.11548 8.23576 1.4102 9.3779 2.32424 10.3015L5.64766 13.6648C6.04013 14.0409 6.50796 14.3274 7.01939 14.5045C7.32925 14.6105 7.65391 14.6653 7.98096 14.6667C8.7782 14.6667 9.54148 14.3259 10.1962 13.6648L13.5182 10.3015C13.8903 9.90385 14.1738 9.42999 14.3494 8.91199C14.727 7.76433 14.4322 6.62356 13.5182 5.69856H13.5209ZM8.17791 3.31117C8.42896 3.39263 8.66034 3.52656 8.85701 3.70426L9.83896 4.69935L7.92391 6.6359L6.00893 4.69797L6.99629 3.69739C7.26115 3.43075 7.63463 3.14762 8.18063 3.3098L8.17791 3.31117ZM3.29125 7.73956C3.37199 7.48533 3.50482 7.25118 3.68104 7.05237L4.66299 6.05866L6.57801 7.99661L4.66164 9.93457L3.67425 8.93395C3.40941 8.66733 3.13099 8.28937 3.28989 7.73685L3.29125 7.73956ZM7.66725 12.6848C7.41586 12.604 7.18439 12.47 6.98815 12.2917L6.00893 11.309L7.92391 9.36966L9.83896 11.3076L8.85158 12.3082C8.58672 12.5748 8.21458 12.8579 7.66725 12.6958V12.6848ZM12.5566 8.26599C12.4759 8.51995 12.3436 8.75404 12.1682 8.95318L11.1862 9.93457L9.27125 7.99661L11.1862 6.05866L12.1736 7.05785C12.4385 7.32452 12.7169 7.70247 12.558 8.25499" fill="#00ABE4"/>
</svg>
