<svg width="36" height="50" viewBox="0 0 36 50" fill="none" xmlns="http://www.w3.org/2000/svg">
<path d="M23.8437 20.6794C23.9537 20.7694 24.0837 20.8594 24.2237 20.9094C24.3537 20.9594 24.4737 20.9894 24.5637 20.9694C24.7537 20.9394 24.8237 20.8594 24.8537 20.7894C24.8837 20.7094 24.8637 20.6194 24.8337 20.5494C24.5837 19.8994 24.5837 19.2994 24.6937 18.8094C24.8737 18.0194 25.3237 17.4194 25.4237 17.2794C25.4337 17.2694 25.4437 17.2594 25.4437 17.2494C25.4837 17.1894 25.4737 17.1594 25.4637 17.1394C25.4637 17.1294 25.4337 17.1094 25.3937 17.0894C25.3537 17.0794 25.3037 17.0694 25.2537 17.0894C25.1637 17.1194 24.8237 17.2394 24.4537 17.4894C24.0837 17.7394 23.6837 18.1194 23.4637 18.6594C23.1537 19.4594 23.2637 20.1694 23.8037 20.6594L23.8337 20.6794H23.8437ZM29.4637 21.4894C29.3937 21.5694 29.2537 21.6494 29.0737 21.7094C28.8937 21.7594 28.6937 21.7994 28.5037 21.7994C27.5137 21.7994 26.7637 21.2294 26.3837 20.2094C26.1237 19.5294 26.2037 18.8194 26.3637 18.2494C26.5237 17.6794 26.7637 17.2594 26.8237 17.1594C26.8637 17.0994 26.9137 17.0594 26.9637 17.0494C27.0137 17.0294 27.0637 17.0294 27.0837 17.0394C27.1237 17.0394 27.1537 17.0794 27.1637 17.1694C27.1637 17.1694 27.1637 17.1994 27.1637 17.2194C27.1737 17.4494 27.2137 18.3394 27.7337 19.3694C28.0137 19.9394 28.5737 20.4894 29.3737 20.8794C29.4637 20.9194 29.5537 20.9894 29.5937 21.0894C29.6337 21.1894 29.6237 21.3194 29.4637 21.4994V21.4894ZM33.2337 19.2894C33.6337 19.0094 33.8437 18.6494 33.8637 18.3694C33.8937 18.0794 33.8037 17.9194 33.6837 17.8294C33.5637 17.7494 33.4037 17.7394 33.2937 17.7594C32.2237 18.0294 31.2837 17.9694 30.5937 17.6694C29.3537 17.1394 28.6737 16.3694 28.4937 16.1594C28.4737 16.1394 28.4637 16.1194 28.4537 16.1194C28.3837 16.0494 28.3237 16.0494 28.2737 16.0694C28.2137 16.0994 28.1837 16.1494 28.1837 16.1994C28.1837 16.3394 28.2437 16.8894 28.4937 17.5194C28.7437 18.1494 29.1837 18.8394 29.9237 19.2494C31.0337 19.8594 32.3137 19.9094 33.2137 19.2894H33.2237H33.2337ZM34.6037 13.7094C34.7837 13.5394 34.9837 13.4194 35.1537 13.3894C35.2337 13.3794 35.3137 13.3894 35.3737 13.4394C35.4337 13.4794 35.4937 13.5594 35.5337 13.6794C35.5837 13.8194 35.6037 14.0594 35.5737 14.3294C35.5537 14.5894 35.4837 14.8594 35.3737 15.0894V15.1094C34.7637 16.2594 33.5237 16.6494 32.1537 16.5794C31.2337 16.5294 30.4837 16.0894 29.9437 15.6194C29.4037 15.1494 29.0737 14.6594 29.0137 14.5194C28.9937 14.4694 29.0037 14.3994 29.0437 14.3494C29.0837 14.2994 29.1437 14.2794 29.2437 14.3094C29.2537 14.3094 29.2737 14.3194 29.3037 14.3394C29.5737 14.4494 30.5937 14.8794 32.0437 14.7694C33.2337 14.6794 34.1037 14.1894 34.6037 13.7094ZM35.0037 9.46936C34.9437 9.22936 34.8537 9.01936 34.7537 8.89936C34.6637 8.78936 34.5937 8.73936 34.5237 8.71936C34.4537 8.70936 34.3937 8.71936 34.3437 8.75936C34.2337 8.83936 34.1437 8.98936 34.1037 9.05936C33.4637 10.2394 32.7137 10.9394 31.6237 11.4794C30.8837 11.8394 30.2137 11.9894 29.7037 12.0594C29.4537 12.0894 29.2437 12.0994 29.0837 12.0994C29.0037 12.0994 28.9437 12.0994 28.8937 12.0994H28.8037C28.6937 12.0994 28.6437 12.1594 28.6237 12.2094C28.6037 12.2794 28.6237 12.3494 28.6637 12.3894C28.7437 12.4594 28.9837 12.6194 29.3337 12.7894C29.6837 12.9494 30.1337 13.1194 30.6437 13.2194C31.6637 13.4194 32.8937 13.3494 33.9337 12.4294C34.6637 11.7894 35.0537 11.0894 35.0937 10.2694C35.1037 10.0094 35.0737 9.72936 35.0037 9.48936V9.46936ZM33.1237 5.80936V5.82936C33.4237 6.57936 33.3137 7.37936 32.8537 8.28936C32.1737 9.59936 30.9537 10.2194 29.8337 10.4994C29.2737 10.6394 28.7437 10.6894 28.3237 10.6994C27.9037 10.6994 27.5937 10.6694 27.4737 10.6394C27.4137 10.6194 27.3637 10.5694 27.3637 10.4994C27.3637 10.4394 27.3937 10.3694 27.5037 10.3194C27.5137 10.3194 27.5437 10.2994 27.5737 10.2894C27.8837 10.1594 29.0437 9.66936 30.1237 8.48936C31.0037 7.50936 31.4737 6.54936 31.6337 5.17936C31.6437 5.10936 31.6637 4.92936 31.7537 4.79936C31.7937 4.73936 31.8537 4.68936 31.9237 4.66936C31.9937 4.64936 32.1037 4.66936 32.2337 4.72936C32.3837 4.79936 32.5537 4.94936 32.7237 5.13936C32.8837 5.32936 33.0437 5.55936 33.1337 5.80936H33.1237ZM29.1437 2.11936C28.9437 1.90936 28.6837 1.72936 28.4337 1.60936C28.1837 1.47936 27.9337 1.40936 27.7537 1.39936C27.5837 1.38936 27.4737 1.41936 27.4037 1.46936C27.3337 1.51936 27.2937 1.58936 27.2737 1.66936C27.2337 1.82936 27.2837 2.02936 27.3037 2.10936C27.7037 3.57936 27.6337 4.76936 27.1237 6.14936C26.5137 7.81936 25.5237 8.81936 25.2537 9.07936C25.2237 9.10936 25.2037 9.12936 25.1937 9.14936C25.1037 9.25936 25.0937 9.33936 25.1237 9.39936C25.1637 9.46936 25.2337 9.49936 25.3037 9.48936C25.4337 9.47936 25.7737 9.37936 26.2037 9.18936C26.6337 8.99936 27.1637 8.71936 27.6837 8.33936C28.7237 7.57936 29.7337 6.41936 29.8837 4.77936C29.9937 3.64936 29.7637 2.76936 29.1437 2.11936ZM22.3837 0.0593608C22.5637 -0.000639167 22.8337 -0.0106392 23.1337 0.00936083C23.4337 0.0393608 23.7537 0.119361 24.0337 0.249361C24.9037 0.659361 25.5737 1.49936 25.7737 2.62936C26.1537 4.69936 25.6037 6.32936 24.8937 7.47936C24.1837 8.62936 23.3137 9.28936 23.0637 9.41936C22.9937 9.44936 22.9037 9.44936 22.8437 9.38936C22.7837 9.33936 22.7637 9.24936 22.8137 9.10936C22.8137 9.08936 22.8337 9.05936 22.8537 9.01936C23.0237 8.64936 23.6437 7.27936 23.6237 5.38936C23.6137 3.81936 23.1537 2.25936 22.2037 0.939361C22.1537 0.869361 22.0337 0.689361 22.0037 0.509361C21.9937 0.419361 22.0037 0.329361 22.0537 0.259361C22.1037 0.179361 22.2037 0.109361 22.3737 0.0593608H22.3837ZM17.4637 0.369361C17.1437 0.439361 16.8637 0.549361 16.6837 0.669361C16.5237 0.779361 16.4437 0.889361 16.4137 0.989361C16.3837 1.08936 16.4037 1.18936 16.4437 1.26936C16.5337 1.44936 16.7137 1.58936 16.7937 1.64936C18.2237 2.71936 19.2237 4.19936 19.7437 5.83936C20.3837 7.81936 20.1837 9.44936 20.1237 9.88936C20.1237 9.93936 20.1137 9.97936 20.1137 9.99936C20.1137 10.1594 20.1637 10.2594 20.2437 10.2894C20.3237 10.3194 20.4237 10.3094 20.4837 10.2494C20.5937 10.1394 20.7537 9.91936 20.9137 9.60936C21.0837 9.29936 21.2637 8.89936 21.4237 8.44936C21.7437 7.53936 21.9837 6.40936 21.9037 5.27936C21.8237 4.19936 21.5937 3.20936 21.1037 2.26936C20.5737 1.24936 19.5437 0.499361 18.4937 0.349361C18.1537 0.299361 17.7937 0.319361 17.4737 0.389361L17.4637 0.369361ZM10.9037 3.08936C11.0437 2.89936 11.2937 2.67936 11.6137 2.48936C11.9237 2.30936 12.2837 2.14936 12.6437 2.07936H12.6737C13.8337 1.84936 15.1937 2.24936 16.1337 3.12936C17.0037 3.92936 17.6137 4.88936 18.0937 5.99936C18.6037 7.14936 18.7737 8.43936 18.7737 9.50936C18.7737 10.0494 18.7337 10.5294 18.6737 10.9194C18.6137 11.3094 18.5337 11.5994 18.4537 11.7594C18.4137 11.8494 18.3137 11.8994 18.2137 11.8994C18.1137 11.8994 18.0237 11.8194 17.9737 11.6394C17.9737 11.6194 17.9637 11.5794 17.9437 11.5294C17.8337 11.0394 17.4437 9.25936 16.0337 7.40936C14.8737 5.88936 13.2737 4.69936 11.3737 4.09936C11.2637 4.06936 11.0237 3.98936 10.8637 3.82936C10.7837 3.74936 10.7337 3.65936 10.7237 3.53936C10.7237 3.41936 10.7637 3.27936 10.8937 3.09936L10.9037 3.08936ZM6.82371 6.08936C6.46371 6.32936 6.14371 6.63936 5.89371 6.96936C5.64371 7.29936 5.47371 7.62936 5.40371 7.88936C5.34371 8.12936 5.34371 8.30936 5.38371 8.43936C5.42371 8.56936 5.49371 8.63936 5.57371 8.69936C5.74371 8.79936 5.97371 8.78936 6.10371 8.77936C8.33371 8.62936 10.7537 9.20936 12.6037 10.3494C14.8537 11.7194 16.0237 13.4394 16.3437 13.9194C16.3837 13.9794 16.4137 14.0194 16.4237 14.0294C16.5537 14.1894 16.6837 14.2394 16.7937 14.2094C16.9037 14.1794 16.9837 14.0794 16.9937 13.9594C17.0037 13.7594 16.9637 13.4194 16.8637 12.9794C16.7637 12.5394 16.5937 12.0094 16.3737 11.4494C15.9137 10.3094 15.1937 9.02936 14.1737 8.00936C13.1937 7.03936 12.1537 6.26936 10.9037 5.77936C9.55371 5.23936 7.96371 5.36936 6.84371 6.09936L6.82371 6.08936ZM2.51371 15.4694C2.38371 15.5294 2.13371 15.6294 1.90371 15.5894C1.79371 15.5694 1.68371 15.5094 1.59371 15.3894C1.50371 15.2594 1.43371 15.0694 1.41371 14.7894C1.38371 14.4794 1.44371 14.0494 1.59371 13.5894C1.73371 13.1394 1.96371 12.6694 2.26371 12.2794H2.27371C3.21371 11.0394 4.90371 10.2594 6.57371 10.3194C8.11371 10.3694 9.54371 10.7894 10.9737 11.4594C12.4637 12.1594 13.7437 13.2194 14.6837 14.2094C15.1537 14.7094 15.5437 15.1894 15.8137 15.5994C16.0937 16.0094 16.2737 16.3594 16.3337 16.5794C16.3637 16.7094 16.3237 16.8494 16.2137 16.9294C16.1137 17.0094 15.9537 17.0094 15.7437 16.8894C15.7337 16.8894 15.7037 16.8594 15.6737 16.8394C15.2437 16.5594 13.2437 15.2594 10.1637 14.6294C7.72371 14.1294 4.87371 14.4494 2.51371 15.4894V15.4694ZM0.203712 20.3294C0.0437118 20.8594 -0.0162882 21.4494 0.00371183 21.9794C0.0237118 22.5094 0.123712 22.9894 0.273712 23.2994C0.413712 23.5894 0.553712 23.7594 0.693712 23.8594C0.833712 23.9594 0.963712 23.9794 1.09371 23.9594C1.35371 23.9194 1.56371 23.7094 1.68371 23.5994C3.75371 21.5994 6.59371 20.1694 9.33371 19.7494C12.8037 19.2194 15.4037 19.8094 15.9437 19.9294C15.9837 19.9294 16.0037 19.9394 16.0237 19.9494C16.2937 19.9994 16.4537 19.9394 16.5337 19.8094C16.6137 19.6794 16.6137 19.5094 16.5337 19.3894C16.3837 19.1794 16.0737 18.8894 15.6137 18.5694C15.1637 18.2494 14.5837 17.8894 13.8937 17.5494C12.5337 16.8694 10.7937 16.2594 8.97371 16.1094C7.22371 15.9594 5.57371 16.0694 3.95371 16.6194C2.18371 17.2094 0.723712 18.6694 0.213712 20.3194L0.203712 20.3294ZM0.903712 30.4494C0.613712 28.5394 1.37371 26.3594 2.87371 24.8894C4.25371 23.5394 5.87371 22.6194 7.71371 21.9094C9.63371 21.1694 11.7037 20.9294 13.4237 20.9394C14.2837 20.9394 15.0537 21.0194 15.6637 21.1194C16.2837 21.2294 16.7437 21.3594 17.0037 21.4994C17.1537 21.5794 17.2437 21.7494 17.2237 21.9194C17.2037 22.0894 17.0637 22.2394 16.7737 22.3094C16.7537 22.3094 16.7237 22.3194 16.6737 22.3294C16.0537 22.4694 13.1437 23.1494 9.89371 25.3794C7.32371 27.1494 5.14371 29.9794 4.03371 32.9994C3.97371 33.1694 3.85371 33.4894 3.61371 33.6494C3.49371 33.7294 3.34371 33.7794 3.16371 33.7494C2.97371 33.7194 2.74371 33.6194 2.46371 33.3894C2.15371 33.1494 1.82371 32.7194 1.53371 32.1894C1.24371 31.6594 1.01371 31.0494 0.923712 30.4294L0.903712 30.4494ZM6.72371 42.8694C7.22371 43.5194 7.86371 44.0994 8.50371 44.5394C9.14371 44.9794 9.77371 45.2794 10.2537 45.3894C10.6937 45.4894 11.0137 45.4794 11.2337 45.3994C11.4537 45.3294 11.5837 45.1894 11.6537 45.0294C11.7237 44.8694 11.7437 44.6794 11.7437 44.4994C11.7437 44.3194 11.7037 44.1594 11.6837 44.0494C10.9037 39.9894 11.3737 35.5494 12.9337 32.1094C14.9037 27.7494 17.5337 25.3594 18.0937 24.8494C18.1337 24.8094 18.1637 24.7894 18.1837 24.7694C18.4437 24.5194 18.5037 24.2594 18.4037 24.0594C18.3137 23.8494 18.1037 23.6994 17.8937 23.6894C17.5337 23.6694 16.9637 23.7794 16.2437 24.0094C15.5237 24.2394 14.6737 24.5794 13.7737 25.0594C11.9637 25.9994 9.94371 27.4294 8.39371 29.3494C6.90371 31.1894 5.80371 33.1394 5.21371 35.4494C4.58371 37.9194 5.16371 40.7994 6.65371 42.8094L6.72371 42.8894V42.8694ZM31.7537 47.2694H31.7437C29.5437 47.5994 27.0337 46.6494 25.3437 44.8394C23.7937 43.1694 22.7337 41.2394 21.9237 39.0294C21.0737 36.7294 20.8037 34.2694 20.8237 32.2294C20.8337 31.2094 20.9137 30.2994 21.0337 29.5594C21.1537 28.8194 21.3137 28.2694 21.4737 27.9694C21.5737 27.7894 21.7637 27.6894 21.9637 27.7094C22.1537 27.7394 22.3337 27.9094 22.4237 28.2594C22.4237 28.2894 22.4337 28.3194 22.4537 28.3694C22.6137 29.1094 23.3837 32.5794 25.9537 36.4794C27.9837 39.5594 31.2337 42.1994 34.7137 43.5494C34.9037 43.6194 35.2737 43.7694 35.4637 44.0694C35.5637 44.2094 35.6137 44.3894 35.5737 44.6194C35.5437 44.8494 35.4137 45.1294 35.1637 45.4594C34.8837 45.8194 34.3837 46.2194 33.7737 46.5494C33.1737 46.8794 32.4637 47.1494 31.7637 47.2494L31.7537 47.2694ZM23.3837 49.7594C23.8237 49.5894 24.0937 49.3994 24.2537 49.2094C24.4137 49.0194 24.4537 48.8194 24.4437 48.6294C24.4237 48.4394 24.3537 48.2594 24.2537 48.0994C24.1637 47.9394 24.0537 47.8094 23.9737 47.7194C21.2537 44.5094 19.4637 40.2294 19.1137 36.2294C18.6837 31.1794 19.8037 27.5094 20.0437 26.7294C20.0637 26.6694 20.0737 26.6294 20.0837 26.6094C20.1937 26.2294 20.1137 25.9694 19.9237 25.8394C19.7337 25.6994 19.4837 25.6894 19.2937 25.7994C18.9737 25.9894 18.5137 26.4194 17.9937 27.0294C17.4737 27.6494 16.8937 28.4494 16.3337 29.3894C15.2037 31.2794 14.1337 33.7194 13.7237 36.3394C13.3337 38.8494 13.3237 41.2394 13.9637 43.6594C14.6537 46.2894 16.6437 48.5794 19.0137 49.5094C19.7737 49.8094 20.6337 49.9594 21.4137 49.9994C22.1937 50.0294 22.9037 49.9394 23.3837 49.7594Z" fill="#0E37F6"/>
</svg>
