<svg width="50" height="49" viewBox="0 0 50 49" fill="none" xmlns="http://www.w3.org/2000/svg">
    <path fill-rule="evenodd" clip-rule="evenodd"
        d="M40.9657 10.812C43.4218 12.2027 44.9303 14.8162 44.906 17.6386L44.788 31.3198C44.7643 34.0713 43.2867 36.6049 40.9036 37.9805L28.6505 45.0529C26.2674 46.4284 23.3344 46.4406 20.94 45.0848L9.03429 38.3436C6.5782 36.9529 5.06971 34.3394 5.09404 31.5171L5.21197 17.8359C5.23569 15.0844 6.71329 12.5507 9.09642 11.1752L21.3495 4.10276C23.7326 2.72722 26.6656 2.71509 29.06 4.07086L40.9657 10.812ZM36.6339 21.4346C35.9898 23.8625 33.5265 25.3201 31.1185 24.7128L19.6514 21.6108C17.7628 21.0994 15.7971 21.3613 14.1079 22.3457C12.419 23.3299 11.2114 24.9175 10.7058 26.824C10.1997 28.7309 10.4587 30.7217 11.439 32.4354C12.4192 34.1491 13.9978 35.3709 15.887 35.882C17.7755 36.3933 19.7413 36.1314 21.4302 35.1472C23.1194 34.1628 24.327 32.5753 24.8325 30.6688L25.2324 29.0666C25.2829 28.8643 25.1622 28.6588 24.961 28.6043L23.0346 28.083C22.8276 28.027 22.615 28.1519 22.5632 28.3599L22.1722 29.9277C21.5201 32.3817 19.011 33.8429 16.5809 33.1858C14.158 32.5298 12.7176 30.0113 13.3661 27.5653C14.0103 25.1374 16.4738 23.6786 18.8819 24.2859L30.3486 27.3892C32.2372 27.9005 34.2029 27.6386 35.8921 26.6542C37.581 25.67 38.7886 24.0825 39.2942 22.1759C39.8003 20.269 39.5413 18.2783 38.5611 16.5645C37.5808 14.8508 36.0022 13.629 34.113 13.1179C32.2245 12.6066 30.2587 12.8685 28.5698 13.8527C26.8806 14.8371 25.673 16.4246 25.1675 18.3312L24.7892 19.5978C24.7276 19.8041 24.8481 20.0207 25.056 20.0769L26.9824 20.5983C27.1827 20.6525 27.3897 20.5372 27.4492 20.3384L27.8278 19.0722C28.4799 16.6183 30.989 15.157 33.4191 15.8141C35.842 16.4702 37.2824 18.9886 36.6339 21.4346Z"
        fill="url(#paint0_linear_785_86055)" />
    <defs>
        <linearGradient id="paint0_linear_785_86055" x1="15.0469" y1="5.94501" x2="37.363" y2="41.7069"
            gradientUnits="userSpaceOnUse">
            <stop stop-color="#62F91F" />
            <stop offset="1" stop-color="#45BD35" />
        </linearGradient>
    </defs>
</svg>