<svg width="32" height="32" viewBox="0 0 32 32" fill="none" xmlns="http://www.w3.org/2000/svg">
    <path d="M24.4289 26.3079L11.5523 22.2772V5.14697L24.0068 9.17763L24.4289 26.3079Z" fill="#A3E9FF" />
    <path fill-rule="evenodd" clip-rule="evenodd"
        d="M10.5137 5.08409C10.5485 4.97704 10.6634 4.91839 10.7704 4.95311C11.0976 5.05919 11.4161 5.16252 11.727 5.26337C16.7312 6.88676 19.7551 7.86773 25.1173 9.38459C25.2256 9.41522 25.2886 9.52784 25.258 9.63613C25.2273 9.74442 25.1147 9.80738 25.0064 9.77674C19.6366 8.25775 16.6063 7.2747 11.6021 5.6513C11.2909 5.55036 10.9722 5.44695 10.6447 5.34078C10.5377 5.30607 10.479 5.19115 10.5137 5.08409ZM10.5137 22.0128C10.5485 21.9058 10.6634 21.8471 10.7704 21.8819C13.3928 22.7321 15.3975 23.3553 17.3541 23.9635C19.5582 24.6487 21.7013 25.3149 24.5977 26.2654C24.7046 26.3005 24.7629 26.4156 24.7278 26.5226C24.6927 26.6295 24.5775 26.6877 24.4706 26.6527C21.5657 25.6993 19.4345 25.0369 17.2396 24.3547C15.2879 23.7481 13.2858 23.1259 10.6447 22.2695C10.5377 22.2348 10.479 22.1199 10.5137 22.0128Z"
        fill="black" stroke="black" stroke-width="0.6" stroke-linecap="round" stroke-linejoin="round" />
    <path fill-rule="evenodd" clip-rule="evenodd"
        d="M11.3411 4.13721C11.4537 4.13721 11.5449 4.22844 11.5449 4.34098V22.6805C11.5449 22.793 11.4537 22.8842 11.3411 22.8842C11.2286 22.8842 11.1374 22.793 11.1374 22.6805V4.34098C11.1374 4.22844 11.2286 4.13721 11.3411 4.13721ZM24.0067 7.7648C24.1192 7.7648 24.2105 7.85603 24.2105 7.96857V26.308C24.2105 26.4206 24.1192 26.5118 24.0067 26.5118C23.8941 26.5118 23.8029 26.4206 23.8029 26.308V7.96857C23.8029 7.85603 23.8941 7.7648 24.0067 7.7648Z"
        fill="black" stroke="black" stroke-width="0.6" stroke-linecap="round" stroke-linejoin="round" />
    <path d="M21.0716 28.0476L8.19492 24.017V6.88672L20.6494 10.9174L21.0716 28.0476Z" fill="white" stroke="black"
        stroke-width="0.6" />
    <path fill-rule="evenodd" clip-rule="evenodd"
        d="M7.15638 6.82408C7.19109 6.71703 7.30602 6.65838 7.41307 6.6931C7.74026 6.79918 8.05877 6.90251 8.36964 7.00336C13.3738 8.62675 16.3978 9.60772 21.76 11.1246C21.8683 11.1552 21.9312 11.2678 21.9006 11.3761C21.87 11.4844 21.7573 11.5474 21.6491 11.5167C16.2793 9.99774 13.249 9.01469 8.24473 7.39129C7.93358 7.29035 7.61481 7.18694 7.28737 7.08077C7.18032 7.04606 7.12167 6.93114 7.15638 6.82408ZM7.15638 23.7528C7.19109 23.6458 7.30602 23.5871 7.41307 23.6218C10.0355 24.4721 12.0401 25.0953 13.9967 25.7035C16.2008 26.3887 18.3439 27.0549 21.2403 28.0054C21.3473 28.0405 21.4055 28.1556 21.3704 28.2626C21.3353 28.3695 21.2202 28.4277 21.1132 28.3926C18.2083 27.4393 16.0771 26.7769 13.8822 26.0947C11.9305 25.4881 9.92846 24.8659 7.28737 24.0095C7.18032 23.9748 7.12167 23.8599 7.15638 23.7528Z"
        fill="black" stroke="black" stroke-width="0.6" stroke-linecap="round" stroke-linejoin="round" />
    <path fill-rule="evenodd" clip-rule="evenodd"
        d="M9.69007 17.7986C9.72548 17.6918 9.84079 17.6339 9.94762 17.6693C10.1497 17.7363 10.3463 17.8016 10.5383 17.8653C13.6291 18.8905 15.4955 19.5097 18.806 20.4673C18.9141 20.4985 18.9764 20.6115 18.9451 20.7196C18.9138 20.8277 18.8008 20.89 18.6927 20.8587C15.3746 19.899 13.5017 19.2777 10.4108 18.2523C10.2186 18.1886 10.0216 18.1233 9.81936 18.0562C9.71253 18.0208 9.65465 17.9055 9.69007 17.7986ZM10.016 20.5989C10.0514 20.492 10.1667 20.4342 10.2736 20.4696C12.0027 21.0429 13.082 21.4197 14.1516 21.7951C14.2191 21.8188 14.2865 21.8424 14.354 21.8661C15.3568 22.2182 16.3863 22.5795 17.9698 23.1109C18.0765 23.1468 18.134 23.2623 18.0982 23.369C18.0624 23.4757 17.9469 23.5331 17.8402 23.4973C16.2539 22.965 15.2223 22.6029 14.2192 22.2507C14.1516 22.227 14.0841 22.2033 14.0167 22.1797C12.9481 21.8047 11.8713 21.4287 10.1453 20.8564C10.0385 20.821 9.9806 20.7057 10.016 20.5989Z"
        fill="black" stroke="black" stroke-width="0.6" stroke-linecap="round" stroke-linejoin="round" />
    <path fill-rule="evenodd" clip-rule="evenodd"
        d="M9.69007 12.1397C9.72548 12.0329 9.84079 11.975 9.94762 12.0104C10.1497 12.0774 10.3463 12.1426 10.5383 12.2063C13.6291 13.2316 15.4955 13.8507 18.806 14.8083C18.9141 14.8396 18.9764 14.9526 18.9451 15.0607C18.9138 15.1688 18.8008 15.2311 18.6927 15.1998C15.3746 14.24 13.5017 13.6187 10.4108 12.5934C10.2186 12.5296 10.0216 12.4643 9.81936 12.3972C9.71253 12.3618 9.65465 12.2465 9.69007 12.1397ZM10.016 14.9399C10.0514 14.8331 10.1667 14.7752 10.2736 14.8106C12.0027 15.3839 13.082 15.7608 14.1516 16.1362C14.2191 16.1598 14.2865 16.1835 14.354 16.2072C15.3568 16.5592 16.3863 16.9206 17.9698 17.452C18.0765 17.4878 18.134 17.6033 18.0982 17.71C18.0624 17.8167 17.9469 17.8742 17.8402 17.8384C16.2539 17.3061 15.2223 16.9439 14.2192 16.5918C14.1516 16.5681 14.0841 16.5444 14.0167 16.5207C12.9481 16.1458 11.8713 15.7697 10.1453 15.1975C10.0385 15.1621 9.9806 15.0468 10.016 14.9399Z"
        fill="black" stroke="black" stroke-width="0.6" stroke-linecap="round" stroke-linejoin="round" />
    <path fill-rule="evenodd" clip-rule="evenodd"
        d="M7.98377 5.8772C8.09631 5.8772 8.18755 5.96843 8.18755 6.08097V24.4204C8.18755 24.533 8.09631 24.6242 7.98377 24.6242C7.87123 24.6242 7.78 24.533 7.78 24.4204V6.08097C7.78 5.96843 7.87123 5.8772 7.98377 5.8772ZM20.6493 9.50479C20.7619 9.50479 20.8531 9.59602 20.8531 9.70856V28.048C20.8531 28.1606 20.7619 28.2518 20.6493 28.2518C20.5368 28.2518 20.4456 28.1606 20.4456 28.048V9.70856C20.4456 9.59602 20.5368 9.50479 20.6493 9.50479Z"
        fill="black" stroke="black" stroke-width="0.6" stroke-linecap="round" stroke-linejoin="round" />
</svg>