<svg width="50" height="50" viewBox="0 0 128 128" fill="none" xmlns="http://www.w3.org/2000/svg">
<g clip-path="url(#clip0_140_42)">
<path fill-rule="evenodd" clip-rule="evenodd" d="M0 8.12698C0 3.63857 3.63858 0 8.12699 0H119.873C124.361 0 128 3.63858 128 8.12699V31.2889H65.8071C63.8223 23.5774 56.8221 17.8794 48.491 17.8794C38.6165 17.8794 30.6116 25.8843 30.6116 35.7588C30.6116 45.6333 38.6165 53.6382 48.491 53.6382C56.8221 53.6382 63.8223 47.9401 65.8071 40.2286H128V119.873C128 124.361 124.361 128 119.873 128H8.12698C3.63857 128 0 124.361 0 119.873V89.3969H66.235V95.9406C66.235 102.201 71.3102 107.276 77.5707 107.276H99.5977C105.858 107.276 110.933 102.201 110.933 95.9406V73.9136C110.933 67.6531 105.858 62.5779 99.5977 62.5779H77.5707C71.3102 62.5779 66.235 67.653 66.235 73.9136V80.4572H0V8.12698ZM75.1747 73.9136C75.1747 72.5903 76.2474 71.5176 77.5707 71.5176H99.5977C100.921 71.5176 101.994 72.5903 101.994 73.9136V95.9406C101.994 97.2639 100.921 98.3366 99.5977 98.3366H77.5707C76.2474 98.3366 75.1747 97.2639 75.1747 95.9406V73.9136ZM48.491 26.8191C43.5537 26.8191 39.5513 30.8215 39.5513 35.7588C39.5513 40.696 43.5537 44.6985 48.491 44.6985C53.4282 44.6985 57.4307 40.696 57.4307 35.7588C57.4307 30.8215 53.4282 26.8191 48.491 26.8191Z" fill="url(#paint0_linear_140_42)"/>
</g>
<defs>
<linearGradient id="paint0_linear_140_42" x1="-1.62545" y1="1.32794e-08" x2="152.584" y2="163.149" gradientUnits="userSpaceOnUse">
<stop stop-color="#00E9DB"/>
<stop offset="1" stop-color="#249789"/>
</linearGradient>
<clipPath id="clip0_140_42">
<rect width="128" height="128" fill="white"/>
</clipPath>
</defs>
</svg>
