<svg width="17" height="16" viewBox="0 0 17 16" fill="none" xmlns="http://www.w3.org/2000/svg">
<path d="M6.9913 1.42297C8.0327 0.381576 9.72139 0.381576 10.7628 1.42297L15.4542 6.11438C16.4955 7.15578 16.4956 8.84449 15.4542 9.88586L10.7628 14.5773C9.72141 15.6186 8.03271 15.6186 6.9913 14.5773L2.2999 9.88586C1.2585 8.84447 1.2585 7.15578 2.2999 6.11438L6.9913 1.42297ZM8.84384 7.12024C8.73778 7.12024 8.63565 7.16244 8.56064 7.23743C8.48588 7.31234 8.44353 7.41382 8.44345 7.51965V8.92297C8.2256 9.04547 8.07724 9.27634 8.07724 9.54407C8.07743 9.93875 8.39736 10.2589 8.79208 10.2589C9.18666 10.2587 9.50674 9.93864 9.50693 9.54407C9.50693 9.32184 9.40328 9.12539 9.24423 8.99426V7.92004H10.7599V9.79211C10.7598 10.8504 9.90206 11.708 8.84384 11.7081H8.77744C7.75577 11.708 6.92796 10.8802 6.92783 9.85852C6.92783 9.63767 6.74827 9.45823 6.52744 9.45813C6.30652 9.45813 6.12704 9.63761 6.12704 9.85852C6.12718 11.322 7.31395 12.5088 8.77744 12.5089H8.84384C10.3439 12.5088 11.5596 11.2922 11.5597 9.79211V7.51965C11.5595 7.29899 11.3809 7.12041 11.1602 7.12024H8.84384ZM8.84384 3.47961C7.34365 3.47961 6.12704 4.69622 6.12704 6.19641V8.73352C6.12722 8.95429 6.30663 9.13293 6.52744 9.13293C6.74816 9.13284 6.92765 8.95423 6.92783 8.73352V6.19641C6.92783 5.13805 7.78548 4.2804 8.84384 4.2804H8.91025C9.93179 4.28065 10.7598 5.10842 10.7599 6.13C10.7599 6.35088 10.9394 6.5304 11.1602 6.5304C11.381 6.53022 11.5596 6.35077 11.5597 6.13C11.5596 4.66659 10.3736 3.47987 8.91025 3.47961H8.84384Z" fill="url(#paint0_linear_6047_209)"/>
<defs>
<linearGradient id="paint0_linear_6047_209" x1="5.58736" y1="2.96002" x2="13.7562" y2="12.7998" gradientUnits="userSpaceOnUse">
<stop stop-color="#6CB5FF"/>
<stop offset="1" stop-color="#4D4AFF"/>
</linearGradient>
</defs>
</svg>
