<svg width="24" height="24" viewBox="0 0 24 24" fill="none" xmlns="http://www.w3.org/2000/svg">
    <path fill-rule="evenodd" clip-rule="evenodd"
        d="M19.6635 5.18973C20.8425 5.85727 21.5666 7.11174 21.5549 8.4665L21.4982 15.0335C21.4869 16.3542 20.7776 17.5703 19.6337 18.2306L13.7522 21.6254C12.6084 22.2856 11.2005 22.2915 10.0512 21.6407L4.33647 18.4049C3.15754 17.7374 2.43347 16.4829 2.44515 15.1282L2.50175 8.5612C2.51314 7.24048 3.22239 6.02431 4.36629 5.36407L10.2478 1.96929C11.3917 1.30904 12.7995 1.30321 13.9488 1.95398L19.6635 5.18973ZM17.5843 10.2886C17.2751 11.454 16.0927 12.1536 14.9369 11.8621L9.43268 10.3732C8.52615 10.1277 7.58262 10.2534 6.7718 10.7259C5.96113 11.1983 5.38148 11.9604 5.13879 12.8755C4.89586 13.7908 5.02018 14.7464 5.49073 15.569C5.96122 16.3915 6.71895 16.978 7.62577 17.2233C8.53225 17.4688 9.47583 17.343 10.2865 16.8706C11.0973 16.3981 11.677 15.6361 11.9196 14.721L12.1116 13.9519C12.1358 13.8548 12.0779 13.7562 11.9813 13.73L11.0566 13.4798C10.9573 13.4529 10.8552 13.5129 10.8303 13.6127L10.6427 14.3653C10.3297 15.5432 9.12529 16.2446 7.95884 15.9292C6.79585 15.6143 6.10446 14.4054 6.41574 13.2313C6.72495 12.0659 7.90743 11.3657 9.06332 11.6572L14.5673 13.1468C15.4739 13.3922 16.4174 13.2665 17.2282 12.794C18.0389 12.3216 18.6185 11.5596 18.8612 10.6444C19.1042 9.72909 18.9798 8.77355 18.5093 7.95093C18.0388 7.12835 17.2811 6.54189 16.3742 6.29656C15.4678 6.05114 14.5242 6.17685 13.7135 6.64927C12.9027 7.12178 12.323 7.88378 12.0804 8.79894L11.8988 9.40691C11.8693 9.50594 11.9271 9.6099 12.0269 9.63688L12.9516 9.88715C13.0477 9.91317 13.1471 9.85782 13.1756 9.7624L13.3574 9.15463C13.6704 7.97675 14.8747 7.27533 16.0412 7.59074C17.2042 7.90566 17.8956 9.1145 17.5843 10.2886Z"
        fill="url(#paint0_linear_107_1585)" />
    <defs>
        <linearGradient id="paint0_linear_107_1585" x1="7.22252" y1="2.85357" x2="17.9342" y2="20.0193"
            gradientUnits="userSpaceOnUse">
            <stop stop-color="#62F91F" />
            <stop offset="1" stop-color="#45BD35" />
        </linearGradient>
    </defs>
</svg>