<svg width="40" height="40" viewBox="0 0 40 40" fill="none" xmlns="http://www.w3.org/2000/svg">
<path fill-rule="evenodd" clip-rule="evenodd" d="M22.9314 4.20265L13.5036 2.56801C9.94109 1.95033 6.55238 4.33759 5.9347 7.9001L2.68227 26.6586C2.06459 30.2211 4.45185 33.6098 8.01436 34.2275L13.7413 35.2205L20.9879 29.1046L8.18848 18.6816C7.90061 18.4472 7.73184 18.0969 7.72786 17.7257C7.72389 17.3545 7.88513 17.0007 8.16791 16.7602L22.9314 4.20265ZM16.9569 35.778L26.4963 37.432C30.0588 38.0497 33.4476 35.6624 34.0652 32.0999L37.3177 13.3414C37.9353 9.77889 35.5481 6.39017 31.9856 5.77249L26.1367 4.75839L18.6651 11.1136L31.3177 21.7436C31.6001 21.9808 31.7633 22.3306 31.7637 22.6993C31.7641 23.068 31.6017 23.4181 31.3199 23.6559L16.9569 35.778ZM28.573 22.7029L22.9321 27.4637L10.9317 17.6914L16.7339 12.7562L28.573 22.7029Z" fill="url(#paint0_linear_3374_551)"/>
<defs>
<linearGradient id="paint0_linear_3374_551" x1="10.335" y1="6.2207" x2="35.5446" y2="45.8373" gradientUnits="userSpaceOnUse">
<stop stop-color="#B336FF"/>
<stop offset="1" stop-color="#58159B"/>
</linearGradient>
</defs>
</svg>
