<svg width="25" height="24" viewBox="0 0 25 24" fill="none" xmlns="http://www.w3.org/2000/svg">
    <path fill-rule="evenodd" clip-rule="evenodd"
        d="M12.5 22C6.97715 22 2.5 17.5228 2.5 12C2.5 6.47715 6.97715 2 12.5 2C18.0228 2 22.5 6.47715 22.5 12C22.5 13.9938 21.9165 15.8514 20.9109 17.4112L22.4326 20.9399C22.7082 21.579 22.0608 22.2265 21.4216 21.9508L17.8869 20.4265C16.3321 21.4225 14.4835 22 12.5 22ZM11.3469 7.76974C11.3469 8.40699 11.8635 8.92358 12.5008 8.92358C13.138 8.92358 13.6546 8.40699 13.6546 7.76974C13.6546 7.13249 13.138 6.61589 12.5008 6.61589C11.8635 6.61589 11.3469 7.13249 11.3469 7.76974ZM12.5007 10.4415C12.0759 10.4415 11.7315 10.7859 11.7315 11.2107L11.7315 15.8281C11.7315 16.2529 12.0759 16.5973 12.5007 16.5973C12.9255 16.5973 13.2699 16.2529 13.2699 15.8281V11.2107C13.2699 10.7859 12.9255 10.4415 12.5007 10.4415Z"
        fill="#4947DD" />
</svg>