<svg width="12" height="12" viewBox="0 0 12 12" fill="none" xmlns="http://www.w3.org/2000/svg">
	<g clip-path="url(#clip0_111_1601)">
		<path d="M6 0V0.969697H11.0303V11.0303H6V12H12V0H6Z" fill="#EE8700" />
		<path d="M0.969697 11.0303V0.969697H6V0H0V12H6V11.0303H0.969697Z" fill="#FF9811" />
		<path
			d="M3.19567 9.80869C3.47608 9.80869 3.72798 9.69647 3.91358 9.51247C4.09748 9.32813 4.21024 9.07793 4.21108 8.79911C4.21024 8.52028 4.09748 8.26956 3.91273 8.08479C3.72798 7.90088 3.47608 7.78772 3.19567 7.78772C2.91554 7.78772 2.66408 7.90088 2.47933 8.08437C2.2953 8.26881 2.18182 8.52028 2.18182 8.79911C2.18182 9.07795 2.2953 9.32857 2.47933 9.51247C2.66367 9.69606 2.91554 9.80869 3.19567 9.80869Z"
			fill="#FF9811" />
		<path
			d="M5.75638 9.8157C5.75679 9.8157 5.75679 9.81815 5.75679 9.81815H7.22096C7.2197 8.42896 6.65502 7.1712 5.74227 6.25769C4.8292 5.34409 3.57174 4.77941 2.18268 4.77856V6.23648C3.13468 6.23733 4.03502 6.61107 4.70862 7.28596C5.38229 7.95881 5.75478 8.86031 5.75638 9.8157Z"
			fill="#FF9811" />
		<path
			d="M8.35656 9.81813H9.81819C9.81734 7.71304 8.96144 5.80564 7.57894 4.4223C6.19557 3.03895 4.28977 2.18261 2.18512 2.18176V3.63924C5.58817 3.64179 8.35402 6.41219 8.35656 9.81813Z"
			fill="#FF9811" />
	</g>
	<defs>
		<clipPath id="clip0_111_1601">
			<rect width="12" height="12" fill="white" />
		</clipPath>
	</defs>
</svg>