<svg width="35" height="35" viewBox="0 0 35 35" fill="none" xmlns="http://www.w3.org/2000/svg">
<path d="M11.2901 0.599633C7.76196 -0.0224658 4.39756 2.33331 3.77547 5.8614L0.599633 23.8724C-0.0224658 27.4005 2.33331 30.7649 5.8614 31.387L15.2984 33.051C15.4663 33.0806 15.5919 32.9 15.5056 32.7529L6.6031 17.5702C6.23237 16.9837 6.23758 15.8421 6.66605 15.5701C6.7642 15.507 7.05577 15.2464 7.05577 15.2464L7.55404 14.7015L7.63586 14.6117C8.0981 14.1036 8.51572 13.6445 9.83552 12.9838L10.1195 12.8849C12.0554 12.2803 13.1318 12.324 14.2083 12.3677C15.2853 12.4114 16.3624 12.4551 18.3001 11.8498C19.8904 11.3531 21.3368 10.3777 22.1429 9.76597C22.5008 9.49443 23.0292 9.57373 23.2671 9.95476L29.013 19.1558C29.1917 19.442 29.147 19.812 28.8859 20.0257C28.2652 20.5334 27.0107 21.4283 25.3439 21.9489C23.408 22.5535 22.3036 22.5273 21.1991 22.5011C20.0942 22.4748 18.9891 22.4485 17.0513 23.0538C15.345 23.5868 14.6641 24.2904 14.4372 24.5941C14.3902 24.6569 14.3659 24.8017 14.4037 24.8704C14.8601 25.7013 17.315 30.0216 19.2235 33.3759C19.3708 33.6347 19.6255 33.814 19.9188 33.8657L23.8724 34.5629C27.4005 35.185 30.7649 32.8292 31.387 29.3011L34.5629 11.2901C35.185 7.76196 32.8292 4.39756 29.3011 3.77547L11.2901 0.599633Z" fill="url(#paint0_linear_3522_38)"/>
<path d="M18.8081 14.3429C17.1788 14.768 16.1916 14.737 15.2045 14.7061C14.2177 14.6751 13.2311 14.6442 11.6035 15.0688C10.6597 15.3425 10.1151 15.823 9.59648 16.436C9.54149 16.5009 9.5351 16.5939 9.57943 16.6666L12.7307 21.833C12.7951 21.9386 12.9397 21.9624 13.0377 21.8869C13.4717 21.5527 14.6346 20.7383 16.1085 20.3537C17.9445 19.8747 19.0435 19.8854 20.2006 19.8966C21.0968 19.9053 22.0279 19.9143 23.3634 19.6965C24.2592 19.5504 24.9905 19.161 25.3981 18.902C25.6054 18.7702 25.6498 18.4989 25.5166 18.2926L22.3397 13.375C22.1911 13.145 21.8787 13.0807 21.6405 13.2155C21.1179 13.5113 20.1361 13.9964 18.8081 14.3429Z" fill="url(#paint1_linear_3522_38)"/>
<defs>
<linearGradient id="paint0_linear_3522_38" x1="6.54646" y1="0.5" x2="27.7256" y2="33.2842" gradientUnits="userSpaceOnUse">
<stop stop-color="#FFC100"/>
<stop offset="1" stop-color="#E66B35"/>
</linearGradient>
<linearGradient id="paint1_linear_3522_38" x1="6.54646" y1="0.5" x2="27.7256" y2="33.2842" gradientUnits="userSpaceOnUse">
<stop stop-color="#FFC100"/>
<stop offset="1" stop-color="#E66B35"/>
</linearGradient>
</defs>
</svg>
