<svg width="32" height="32" viewBox="0 0 32 32" fill="none" xmlns="http://www.w3.org/2000/svg">
    <path
        d="M24.1383 8.63465C30.0939 20.0935 23.0828 25.7475 21.8762 26.426L18.1075 28.6121C12.4384 29.8183 8.00544 24.5915 6.49761 21.8273C2.27594 12.3587 6.79913 6.77503 9.58843 5.16677C16.1019 0.703856 22.0022 5.61915 24.1383 8.63465Z"
        fill="white" />
    <ellipse cx="13" cy="16.301" rx="7.66655" ry="10.0251" transform="rotate(-15 13 16.301)" fill="#A3E9FF" />
    <path fill-rule="evenodd" clip-rule="evenodd"
        d="M5.83721 10.5111C5.00382 13.0637 5.0056 16.2266 6.0686 19.3861C7.13159 22.5456 9.0421 25.0664 11.2489 26.5961C13.4558 28.1257 15.928 28.6483 18.1654 27.8955C20.4027 27.1428 22.0563 25.2321 22.8897 22.6796C23.7231 20.127 23.7213 16.964 22.6583 13.8046C21.5953 10.6451 19.6848 8.12429 17.4779 6.59462C15.2711 5.06497 12.7989 4.5424 10.5615 5.29516C8.32415 6.04792 6.67059 7.95859 5.83721 10.5111ZM4.88659 10.2007C5.79314 7.42412 7.63717 5.22397 10.2426 4.34737C12.8481 3.47076 15.647 4.1088 18.0476 5.77275C20.4482 7.43669 22.4813 10.1425 23.6061 13.4857C24.7309 16.8288 24.7468 20.2133 23.8403 22.9899C22.9337 25.7666 21.0897 27.9667 18.4842 28.8433C15.8788 29.7199 13.0798 29.0819 10.6793 27.4179C8.27873 25.754 6.2456 23.0482 5.1208 19.705C3.996 16.3618 3.98005 12.9773 4.88659 10.2007Z"
        fill="black" />
    <path fill-rule="evenodd" clip-rule="evenodd"
        d="M18.7205 4.75985C16.029 3.51186 12.7988 3.53057 9.40332 5.74216C9.17193 5.89287 8.86218 5.82747 8.71147 5.59608C8.56076 5.36469 8.62616 5.05494 8.85755 4.90423C12.5313 2.51137 16.126 2.45456 19.1411 3.85263C22.1316 5.23926 24.5031 8.03214 25.8384 11.2631C27.1744 14.4958 27.4967 18.2237 26.3162 21.5136C25.1286 24.8231 22.438 27.6364 17.8632 29.0344C17.5991 29.1151 17.3196 28.9664 17.2389 28.7023C17.1582 28.4382 17.3069 28.1587 17.571 28.078C21.8637 26.7663 24.3008 24.1694 25.375 21.1758C26.4562 18.1626 26.1744 14.6943 24.9142 11.645C23.6533 8.59408 21.4366 6.01929 18.7205 4.75985Z"
        fill="black" />
    <path fill-rule="evenodd" clip-rule="evenodd"
        d="M13.1322 7.65419C13.408 7.66815 13.6202 7.90304 13.6063 8.17883L13.0474 19.2164C13.0334 19.4922 12.7986 19.7044 12.5228 19.6905C12.247 19.6765 12.0347 19.4416 12.0487 19.1658L12.6075 8.12827C12.6215 7.85248 12.8564 7.64023 13.1322 7.65419Z"
        fill="black" />
    <path fill-rule="evenodd" clip-rule="evenodd"
        d="M12.1979 18.2957C12.25 18.0245 12.512 17.8469 12.7832 17.8989C13.5943 18.0545 14.4193 18.2238 15.2401 18.3923C16.8655 18.7259 18.4747 19.0562 19.9286 19.2703C20.2018 19.3105 20.3906 19.5646 20.3504 19.8378C20.3102 20.111 20.0561 20.2998 19.7829 20.2596C18.3022 20.0415 16.6426 19.7011 14.9995 19.364C14.186 19.197 13.3765 19.031 12.5948 18.881C12.3236 18.829 12.1459 18.5669 12.1979 18.2957Z"
        fill="black" />
    <path fill-rule="evenodd" clip-rule="evenodd"
        d="M13.6496 16.9972C14.0173 17.2522 14.2908 17.6818 14.2788 18.2531C14.27 18.6714 14.1201 19.0637 13.8871 19.3578C13.6596 19.645 13.3054 19.8912 12.8769 19.8855C12.6851 19.883 12.4511 19.835 12.238 19.7161C12.1431 19.6972 12.05 19.6679 11.9613 19.6279C11.5568 19.4455 11.2621 19.0505 11.2588 18.4994C11.2564 18.0904 11.3753 17.7001 11.5788 17.3894C11.7795 17.0828 12.0882 16.8187 12.4806 16.7396C12.8605 16.663 13.302 16.756 13.6496 16.9972Z"
        fill="#A3E9FF" stroke="black" stroke-linecap="round" />
    <path fill-rule="evenodd" clip-rule="evenodd"
        d="M13.1287 8.96551C12.795 9.69883 12.3987 10.4612 11.8304 11.0498C11.6386 11.2484 11.322 11.2539 11.1234 11.0621C10.9248 10.8703 10.9192 10.5537 11.1111 10.3551C11.5784 9.87114 11.9275 9.20069 12.2689 8.43959C12.3914 8.16652 12.4985 7.92056 12.5653 7.66816L12.5709 7.63436C12.5764 7.60182 12.5846 7.55528 12.5947 7.50761C12.6036 7.46569 12.619 7.39902 12.6427 7.33604C12.6525 7.30992 12.6779 7.24511 12.7274 7.17979C12.7562 7.14181 12.9508 6.90136 13.2755 6.99149C13.3967 7.02512 13.4745 7.09375 13.5124 7.1327C13.5531 7.17453 13.5801 7.21559 13.596 7.24221C13.6276 7.29523 13.6484 7.34766 13.661 7.38198C13.6875 7.45438 13.7088 7.53556 13.7244 7.60002C13.7408 7.66781 13.7552 7.73552 13.7657 7.78487C13.7757 7.832 13.7794 7.84771 13.779 7.84779C13.7789 7.84783 13.7777 7.8439 13.7758 7.83801C13.8998 8.22359 14.0511 8.60453 14.2199 8.95006C14.416 9.35156 14.6706 9.65269 14.9764 10.0144C15.0109 10.0551 15.046 10.0967 15.0818 10.1393C15.2595 10.3507 15.2322 10.6661 15.0208 10.8438C14.8094 11.0215 14.494 10.9942 14.3163 10.7828C14.2819 10.7418 14.2466 10.7003 14.2109 10.6581C13.9118 10.3056 13.5754 9.90913 13.3213 9.38892C13.2542 9.25142 13.1898 9.10982 13.1287 8.96551ZM12.5628 7.6827C12.5628 7.68262 12.563 7.6815 12.5634 7.67959L12.5628 7.6827Z"
        fill="black" />
    <path fill-rule="evenodd" clip-rule="evenodd"
        d="M17.6034 17.7947C17.7456 17.558 18.0527 17.4813 18.2895 17.6234C19.18 18.158 19.8316 18.5872 20.2416 18.9359C20.4433 19.1075 20.6212 19.288 20.7329 19.4793C20.8498 19.6795 20.9334 19.9689 20.7818 20.2623C20.6524 20.5127 20.4099 20.6396 20.2285 20.7105C20.0305 20.7879 19.7893 20.8423 19.5276 20.885C19.002 20.9707 18.287 21.0256 17.4349 21.083C17.1594 21.1016 16.921 20.8933 16.9024 20.6178C16.8838 20.3423 17.0921 20.1039 17.3676 20.0853C18.23 20.0272 18.8961 19.9748 19.3665 19.898C19.5176 19.8734 19.6378 19.8478 19.7312 19.8222C19.6942 19.7861 19.6489 19.7446 19.5937 19.6976C19.2525 19.4074 18.6643 19.0147 17.7748 18.4808C17.538 18.3387 17.4613 18.0315 17.6034 17.7947Z"
        fill="black" />
    <path fill-rule="evenodd" clip-rule="evenodd"
        d="M19.8047 3.93553C19.9148 4.18877 19.7988 4.48332 19.5455 4.59343C19.321 4.69104 19.0877 4.81037 18.8365 4.9418C18.798 4.96194 18.759 4.98241 18.7196 5.00309C18.5069 5.11473 18.2821 5.23271 18.0552 5.34164C17.5207 5.5983 16.9134 5.83622 16.2685 5.86011C15.9926 5.87033 15.7606 5.65491 15.7503 5.37896C15.7401 5.10301 15.9555 4.87102 16.2315 4.8608C16.6656 4.84472 17.1212 4.68082 17.6224 4.44017C17.8317 4.33966 18.0383 4.23127 18.2512 4.11954C18.2915 4.09838 18.3321 4.0771 18.373 4.05573C18.6247 3.92405 18.8861 3.78971 19.1468 3.67636C19.4 3.56625 19.6946 3.68229 19.8047 3.93553Z"
        fill="black" />
    <path fill-rule="evenodd" clip-rule="evenodd"
        d="M22.2104 6.31012C22.2916 6.57405 22.1435 6.85384 21.8795 6.93505C21.486 7.05615 21.0982 7.2126 20.6956 7.38259C20.6131 7.41744 20.5295 7.45303 20.4452 7.48898C20.1248 7.62545 19.7924 7.76706 19.4569 7.89288C19.1984 7.98984 18.9102 7.85883 18.8132 7.60027C18.7163 7.34171 18.8473 7.05351 19.1058 6.95655C19.4187 6.83923 19.7247 6.70887 20.0423 6.5736C20.1294 6.53649 20.2174 6.49902 20.3066 6.46135C20.7145 6.28914 21.141 6.11604 21.5855 5.97927C21.8494 5.89807 22.1292 6.04619 22.2104 6.31012Z"
        fill="black" />
    <path fill-rule="evenodd" clip-rule="evenodd"
        d="M23.9486 9.2014C24.0359 9.46337 23.8943 9.74653 23.6324 9.83385C23.3945 9.91314 23.1393 10.004 22.8778 10.097C22.505 10.2297 22.1194 10.3669 21.7532 10.4817C21.4897 10.5642 21.2091 10.4176 21.1265 10.1541C21.0439 9.89058 21.1906 9.61002 21.4541 9.52743C21.8188 9.41311 22.1562 9.29263 22.5024 9.16896C22.7634 9.07575 23.0295 8.98072 23.3161 8.88517C23.5781 8.79785 23.8613 8.93943 23.9486 9.2014Z"
        fill="black" />
    <path fill-rule="evenodd" clip-rule="evenodd"
        d="M25.8596 12.1758C25.9783 12.4251 25.8725 12.7234 25.6231 12.8422C25.6036 12.8515 25.584 12.8608 25.5643 12.8702C24.8288 13.2205 24.0596 13.5869 23.2304 13.837C22.9661 13.9167 22.6871 13.767 22.6074 13.5027C22.5276 13.2383 22.6773 12.9593 22.9417 12.8796C23.6973 12.6517 24.4068 12.3138 25.1628 11.9538L25.1932 11.9393C25.4425 11.8206 25.7409 11.9265 25.8596 12.1758Z"
        fill="black" />
    <path fill-rule="evenodd" clip-rule="evenodd"
        d="M26.2845 15.4424C26.3444 15.712 26.1745 15.9791 25.9049 16.039C25.7251 16.0789 25.5767 16.1417 25.38 16.225C25.3092 16.2549 25.2321 16.2875 25.1451 16.3227C24.697 16.5036 24.2809 16.503 23.9198 16.5025C23.9002 16.5024 23.8807 16.5024 23.8613 16.5024C23.5852 16.5024 23.3613 16.2786 23.3613 16.0024C23.3613 15.7263 23.5852 15.5024 23.8613 15.5024C24.2694 15.5024 24.5079 15.5015 24.7707 15.3954C24.8213 15.375 24.8757 15.3518 24.9335 15.3273C25.1491 15.2356 25.4104 15.1245 25.688 15.0628C25.9575 15.0029 26.2246 15.1729 26.2845 15.4424Z"
        fill="black" />
    <path fill-rule="evenodd" clip-rule="evenodd"
        d="M26.4075 19.1615C26.4802 19.4279 26.3231 19.7028 26.0567 19.7755C25.4539 19.9399 24.873 20.0041 24.2867 20.0496C24.0114 20.071 23.7709 19.8651 23.7496 19.5898C23.7282 19.3145 23.9341 19.074 24.2094 19.0526C24.7774 19.0085 25.2832 18.9499 25.7936 18.8107C26.06 18.7381 26.3349 18.8951 26.4075 19.1615Z"
        fill="black" />
    <path fill-rule="evenodd" clip-rule="evenodd"
        d="M25.5207 22.4723C25.5457 22.7474 25.343 22.9906 25.068 23.0156C24.8178 23.0383 24.5676 23.0581 24.3208 23.0776C24.3099 23.0784 24.2991 23.0793 24.2882 23.0801C24.0297 23.1006 23.7748 23.1209 23.521 23.1445C23.246 23.17 23.0024 22.9679 22.9768 22.6929C22.9512 22.418 23.1534 22.1743 23.4283 22.1488C23.6901 22.1244 23.9516 22.1036 24.2094 22.0832C24.2196 22.0824 24.2299 22.0816 24.2401 22.0808C24.4885 22.0612 24.7333 22.0419 24.9775 22.0197C25.2525 21.9947 25.4957 22.1973 25.5207 22.4723Z"
        fill="black" />
</svg>