<svg width="27" height="36" viewBox="0 0 27 36" fill="none" xmlns="http://www.w3.org/2000/svg">
<path fill-rule="evenodd" clip-rule="evenodd" d="M0.0388898 8.78687L0.36384 28.5784C0.379007 29.4062 0.939964 30.112 1.77004 30.3478L23.2374 35.4167C24.6115 35.807 26.0486 34.7734 26.0385 33.4022L25.8102 2.37305C25.8005 1.04847 24.4393 0.169445 23.0935 0.618586L1.52947 6.78728C0.63097 7.08714 0.022698 7.90312 0.0388898 8.78687ZM4.5049 15.9018C4.5049 15.4477 4.8697 15.0795 5.3197 15.0795H7.20001V11.9361C7.20001 11.0975 7.75818 10.3638 8.56028 10.1479L14.6898 8.49838V6.90819C14.6898 6.45406 15.0546 6.08592 15.5046 6.08592H20.5971C21.0471 6.08592 21.4119 6.45406 21.4119 6.90819V12.0474C21.4119 12.5015 21.0471 12.8697 20.5971 12.8697H15.5046C15.0546 12.8697 14.6898 12.5015 14.6898 12.0474V10.4135L9.03178 11.9361V15.0795H10.4122C10.8622 15.0795 11.227 15.4477 11.227 15.9018V21.041C11.227 21.4951 10.8622 21.8633 10.4122 21.8633H9.03178V24.9038L14.6898 26.4264V24.8954C14.6898 24.4413 15.0546 24.0731 15.5046 24.0731H20.5971C21.0471 24.0731 21.4119 24.4413 21.4119 24.8954V30.0346C21.4119 30.4887 21.0471 30.8569 20.5971 30.8569H15.5046C15.0546 30.8569 14.6898 30.4887 14.6898 30.0346V28.3415L8.56028 26.692C7.75818 26.4761 7.20001 25.7424 7.20001 24.9038V21.8633H5.3197C4.8697 21.8633 4.5049 21.4951 4.5049 21.041V15.9018ZM6.13449 16.7241V20.2187H9.59737V16.7241H6.13449ZM16.3194 11.2251V7.73046H19.7823V11.2251H16.3194ZM14.6898 15.9018C14.6898 15.4477 15.0546 15.0795 15.5046 15.0795H20.5971C21.0471 15.0795 21.4119 15.4477 21.4119 15.9018V21.041C21.4119 21.4951 21.0471 21.8633 20.5971 21.8633H15.5046C15.0546 21.8633 14.6898 21.4951 14.6898 21.041V15.9018ZM16.3194 16.7241V20.2187H19.7823V16.7241H16.3194ZM16.3194 29.2123V25.7177H19.7823V29.2123H16.3194Z" fill="url(#paint0_linear_3522_11)"/>
<defs>
<linearGradient id="paint0_linear_3522_11" x1="6.53857" y1="2.84456" x2="26.1205" y2="28.04" gradientUnits="userSpaceOnUse">
<stop stop-color="#62F91F"/>
<stop offset="1" stop-color="#45BD35"/>
</linearGradient>
</defs>
</svg>
