<?xml version="1.0" encoding="UTF-8"?>
<svg xmlns="http://www.w3.org/2000/svg" xmlns:xlink="http://www.w3.org/1999/xlink" width="16px" height="16px" viewBox="0 0 16 16" version="1.1">
<defs>
<linearGradient id="linear0" gradientUnits="userSpaceOnUse" x1="28.164499" y1="30.2306" x2="6.98701" y2="-0.0102167" gradientTransform="matrix(0.470588,0,0,0.470588,0,0)">
<stop offset="0" style="stop-color:rgb(36.862745%,17.254902%,87.843137%);stop-opacity:1;"/>
<stop offset="1" style="stop-color:rgb(65.098039%,32.156863%,97.647059%);stop-opacity:1;"/>
</linearGradient>
</defs>
<g id="surface1">
<path style=" stroke:none;fill-rule:evenodd;fill:url(#linear0);" d="M 8.953125 2.042969 C 9.167969 1.886719 9.402344 1.75 9.648438 1.644531 L 8.003906 0 L 6.179688 1.824219 C 5.171875 2.832031 5.171875 4.464844 6.179688 5.472656 L 6.445312 5.738281 C 6.753906 5.523438 7.113281 5.367188 7.5 5.292969 L 7.5 4.921875 C 7.5 3.777344 8.039062 2.757812 8.878906 2.101562 C 8.902344 2.082031 8.929688 2.0625 8.953125 2.042969 Z M 5.476562 6.175781 L 5.75 6.449219 C 5.535156 6.761719 5.386719 7.117188 5.320312 7.503906 L 4.910156 7.503906 C 3.492188 7.496094 2.34375 6.34375 2.34375 4.921875 L 2.34375 2.34375 L 4.671875 2.34375 C 4.171875 3.625 4.4375 5.140625 5.476562 6.175781 Z M 4.925781 8.496094 L 5.328125 8.496094 C 5.539062 9.59375 6.402344 10.457031 7.5 10.667969 L 7.5 11.078125 C 7.5 12.542969 8.378906 13.800781 9.644531 14.355469 L 7.996094 16 L 6.171875 14.175781 C 5.339844 13.347656 5.195312 12.089844 5.730469 11.109375 C 5.863281 10.871094 5.777344 10.566406 5.535156 10.4375 C 5.292969 10.304688 4.992188 10.390625 4.859375 10.632812 C 4.347656 11.566406 4.28125 12.679688 4.664062 13.65625 L 2.335938 13.65625 L 2.335938 11.078125 C 2.335938 9.65625 3.488281 8.5 4.910156 8.496094 Z M 8.492188 11.078125 L 8.492188 10.675781 C 9.609375 10.476562 10.492188 9.605469 10.703125 8.496094 L 11.074219 8.496094 C 12.5 8.496094 13.65625 9.652344 13.65625 11.078125 L 13.65625 13.65625 L 11.074219 13.65625 C 10.921875 13.65625 10.773438 13.644531 10.632812 13.617188 C 9.417969 13.410156 8.492188 12.351562 8.492188 11.078125 Z M 11.074219 7.503906 L 10.710938 7.503906 C 10.640625 7.109375 10.488281 6.746094 10.269531 6.429688 L 10.523438 6.175781 C 11.53125 5.167969 13.167969 5.167969 14.175781 6.175781 L 16 8 L 14.351562 9.644531 C 13.800781 8.382812 12.539062 7.503906 11.074219 7.503906 Z M 9.820312 5.472656 L 9.566406 5.726562 C 9.25 5.507812 8.886719 5.355469 8.492188 5.285156 L 8.492188 4.921875 C 8.492188 3.5 9.648438 2.34375 11.074219 2.34375 L 13.65625 2.34375 L 13.65625 4.671875 C 12.371094 4.167969 10.859375 4.4375 9.820312 5.472656 Z M 1.648438 6.355469 C 1.949219 7.042969 2.460938 7.617188 3.101562 7.996094 C 2.457031 8.378906 1.945312 8.953125 1.640625 9.640625 L 0 8 Z M 9.757812 7.980469 C 9.757812 7.019531 8.976562 6.238281 8.015625 6.238281 C 7.054688 6.238281 6.273438 7.019531 6.273438 7.980469 C 6.273438 8.941406 7.054688 9.722656 8.015625 9.722656 C 8.976562 9.722656 9.757812 8.941406 9.757812 7.980469 Z M 9.757812 7.980469 "/>
</g>
</svg>
