<svg width="40" height="40" viewBox="0 0 40 40" fill="none" xmlns="http://www.w3.org/2000/svg">
<path d="M20 3.5C29.1124 3.50008 36.4998 10.8876 36.5 20C36.5 24.1966 34.932 28.0267 32.3516 30.9385L28.4385 27.0254C31.9051 22.8453 31.6822 16.6363 27.7656 12.7197C24.2512 9.20549 18.892 8.66478 14.8086 11.0928C14.3341 11.3751 14.1788 11.9883 14.4609 12.4629C14.7432 12.9375 15.3564 13.0938 15.8311 12.8115C19.1472 10.8398 23.4995 11.2819 26.3516 14.1338C29.4864 17.2686 29.7066 22.2119 27.0166 25.6035L24.5078 23.0947C24.9926 22.3693 25.289 21.5273 25.3584 20.6465C25.4542 19.4285 25.1117 18.216 24.3936 17.2275C23.6754 16.2391 22.6275 15.5391 21.4395 15.2539C20.2516 14.9688 19.0006 15.1164 17.9121 15.6709C16.8235 16.2256 15.9685 17.1515 15.501 18.2803C15.0336 19.4089 14.9839 20.6673 15.3613 21.8291C15.7389 22.9911 16.5197 23.9807 17.5615 24.6191C18.0255 24.9034 18.5277 25.1098 19.0488 25.2344C19.6975 25.3894 20.376 25.4175 21.0449 25.3115C21.5901 25.225 21.9621 24.7132 21.876 24.168C21.7894 23.6227 21.2768 23.2506 20.7314 23.3369C20.3234 23.4015 19.9094 23.3836 19.5137 23.2891C19.2751 23.232 19.0429 23.1474 18.8223 23.0352L18.6055 22.9141C17.9701 22.5245 17.4941 21.9207 17.2637 21.2119C17.0333 20.5028 17.0633 19.7338 17.3486 19.0449C17.634 18.3563 18.1562 17.7916 18.8203 17.4531C19.4844 17.1149 20.248 17.0254 20.9727 17.1992C21.6975 17.3733 22.3382 17.8002 22.7764 18.4033C23.2143 19.0064 23.4217 19.7463 23.3633 20.4893L23.333 20.749C23.2345 21.3513 22.9613 21.9137 22.5469 22.3643L22.4746 22.4502C22.1365 22.8975 22.1422 23.5582 22.5781 23.9941L26.3486 27.7637C26.3497 27.765 26.3504 27.7674 26.3516 27.7686C26.3526 27.7695 26.3544 27.7696 26.3555 27.7705L30.9375 32.3525C28.0258 34.9327 24.1963 36.5 20 36.5C10.8874 36.5 3.5 29.1126 3.5 20C3.50006 16.7971 4.41376 13.8081 5.99316 11.2773L10.5469 15.8555C8.77431 19.7736 9.4967 24.5455 12.7188 27.7676C15.7211 30.7696 20.0696 31.6009 23.8164 30.2676C24.3363 30.0823 24.6077 29.5113 24.4229 28.9912C24.2377 28.4711 23.6667 28.199 23.1465 28.3838C20.0995 29.4681 16.5689 28.7894 14.1328 26.3535C11.3663 23.587 10.8659 19.4082 12.6387 16.1328L12.9932 15.4785L12.4688 14.9521L7.16992 9.625C10.1949 5.88906 14.8185 3.5 20 3.5Z" fill="url(#paint0_linear_5304_90)"/>
<defs>
<linearGradient id="paint0_linear_5304_90" x1="10.9291" y1="6.10314" x2="33.4535" y2="33.2348" gradientUnits="userSpaceOnUse">
<stop stop-color="#6CB5FF"/>
<stop offset="1" stop-color="#4D4AFF"/>
</linearGradient>
</defs>
</svg>
