<svg width="40" height="40" viewBox="0 0 245 294" preserveAspectRatio="xMidYMid meet" fill="none" xmlns="http://www.w3.org/2000/svg">
<path d="M117.831 1.33333C120.983 -0.515048 124.875 -0.417517 128 1.47591C164.362 23.5149 210.209 39.2446 235.553 43.4681C240.429 44.2809 244.357 48.2934 244.537 53.2337C246.083 95.6366 241.147 131.593 232.258 161.788L229.186 170.955L222.232 189.796C196.574 250.321 154.644 281.924 126.62 292.765C124.273 293.673 121.638 293.487 119.381 292.374C12.1766 239.481 -4.50678 115.953 0.890636 52.804C1.30292 47.9978 5.33464 44.4615 10.1358 43.9896C51.6577 39.909 95.9016 14.2035 117.831 1.33333ZM113.879 53.3382C111.941 53.3384 110.282 54.7277 109.941 56.6351L107.875 68.2035C107.631 69.5715 106.694 70.7148 105.4 71.223L92.5078 76.2874C91.2084 76.7978 89.7365 76.5941 88.625 75.7494L77.957 67.641C76.3645 66.4312 74.1222 66.5832 72.708 67.9974L58.6875 82.0189C57.301 83.4054 57.1241 85.5935 58.2695 87.1849L65.9512 97.8538C66.7604 98.9778 66.9308 100.441 66.4014 101.721L60.749 115.38C60.2422 116.605 59.1613 117.499 57.8633 117.768L45.4522 120.335C43.5952 120.72 42.2631 122.356 42.2627 124.252V142.119C42.2627 144.016 43.5951 145.652 45.4522 146.036L57.8955 148.611C59.1759 148.876 60.2465 149.751 60.7617 150.952L66.3906 164.087C66.9281 165.342 66.7888 166.784 66.0215 167.912L58.7852 178.554C57.691 180.163 57.9138 182.326 59.3125 183.679L72.792 196.709C74.1752 198.046 76.3139 198.209 77.8838 197.097L87.9131 189.993C89.0834 189.165 90.6083 189.027 91.9092 189.63L105 195.707C106.175 196.253 107.012 197.334 107.248 198.607L109.314 209.762C109.666 211.658 111.319 213.034 113.247 213.035H131.562C133.499 213.035 135.158 211.645 135.499 209.738L137.573 198.123C137.813 196.781 138.721 195.652 139.981 195.13L153.478 189.545C154.81 188.994 156.337 189.203 157.473 190.091L166.864 197.442C168.456 198.688 170.729 198.55 172.158 197.12L186.096 183.182C187.503 181.774 187.662 179.546 186.468 177.953L178.992 167.986C178.12 166.822 177.947 165.277 178.542 163.95L184.6 150.436C185.161 149.184 186.325 148.307 187.684 148.113L199.134 146.477C201.104 146.195 202.568 144.508 202.568 142.517V123.855C202.568 121.865 201.104 120.177 199.134 119.896L187.684 118.26C186.325 118.066 185.161 117.188 184.6 115.936L178.5 102.33C177.928 101.053 178.065 99.5684 178.861 98.4173L186.617 87.2152C187.731 85.6055 187.517 83.4254 186.11 82.0638L172.235 68.637C170.767 67.2164 168.463 67.1306 166.894 68.4388L156.943 76.7298C155.769 77.7081 154.14 77.932 152.746 77.307L139.278 71.2699C138.072 70.7286 137.21 69.6255 136.978 68.3236L134.89 56.6351C134.549 54.7276 132.89 53.3382 130.952 53.3382H113.879ZM105.498 89.8411C117.029 85.3566 129.874 85.6415 141.2 90.6204C152.528 95.6021 161.422 104.887 165.911 116.419C170.396 127.95 170.111 140.794 165.132 152.121C160.151 163.448 150.879 172.341 139.35 176.831C127.816 181.32 114.96 181.032 103.631 176.052C92.305 171.072 83.4102 161.799 78.9199 150.27C74.4327 138.737 74.7194 125.881 79.6992 114.552C84.681 103.224 93.9661 94.3303 105.498 89.8411Z" fill="url(#paint0_linear_843_1023)"/>
<defs>
<linearGradient id="paint0_linear_843_1023" x1="55.1121" y1="23.1379" x2="258.814" y2="227.916" gradientUnits="userSpaceOnUse">
<stop stop-color="#5992FF"/>
<stop offset="1" stop-color="#004FE6"/>
</linearGradient>
</defs>
</svg>
