<svg width="17" height="16" viewBox="0 0 17 16" fill="none" xmlns="http://www.w3.org/2000/svg">
    <path
        d="M8.41638 12.7761C8.41638 12.9142 8.5329 13.0262 8.67669 13.0262H12.8723H12.8844H12.8964H13.0208V13.0236C14.8492 12.9548 16.3094 11.5096 16.3094 9.73675C16.3094 8.01198 14.9272 6.59726 13.1686 6.45851C13.0437 6.44865 12.9385 6.36183 12.9124 6.24421C12.4374 4.10469 10.4581 2.5 8.08866 2.5C5.36471 2.5 3.15653 4.6207 3.15653 7.23673C3.15653 7.26433 3.13603 7.2881 3.10786 7.29352C1.72911 7.55951 0.690613 8.72901 0.690613 10.1315C0.690613 11.7301 2.04 13.0261 3.70456 13.0261L7.17236 13.0262C7.31614 13.0262 7.43269 12.9142 7.43269 12.7761V11.992C7.43269 11.866 7.33477 11.7608 7.20591 11.737C6.66382 11.6372 6.19979 11.4223 5.88216 11.1148C5.59799 10.8398 5.42833 10.4992 5.37563 10.099C5.35737 9.96056 5.47698 9.84637 5.6223 9.84702L6.20213 9.8496C6.34129 9.85022 6.4521 9.95706 6.48382 10.0872C6.61703 10.6337 7.13203 10.9937 7.89503 10.9971C8.19232 10.9984 9.30082 10.865 9.30439 10.1292C9.30728 9.54073 8.50165 9.31755 7.73944 9.13688C7.60953 9.10612 7.47713 9.07468 7.34484 9.04059C6.4827 8.82067 5.57075 8.56901 5.57592 7.50971C5.58092 6.48075 6.4827 5.95004 7.43269 5.84196V4.85522C7.43269 4.71716 7.54921 4.60522 7.693 4.60522H8.15509C8.29884 4.60522 8.4154 4.71716 8.4154 4.85522V5.86877C9.1005 5.97502 10.0231 6.30805 10.1796 7.32225C10.201 7.46158 10.0808 7.57829 9.93414 7.5776L9.35152 7.57499C9.21783 7.5744 9.11008 7.47504 9.07013 7.35256C8.91907 6.88927 8.44538 6.60839 7.75175 6.60526C7.29037 6.6032 6.62162 6.83833 6.61901 7.37538C6.61666 7.86207 7.0045 8.02792 8.45191 8.38707L8.64354 8.43406C8.66774 8.4398 8.69355 8.44578 8.72078 8.45208C9.2722 8.57979 10.4035 8.84183 10.3979 10.0067C10.3934 10.9263 9.73932 11.5552 8.64629 11.7424C8.516 11.7647 8.41638 11.8705 8.41638 11.9976V12.7761Z"
        fill="url(#paint0_linear_8_18)" />
    <defs>
        <linearGradient id="paint0_linear_8_18" x1="4.24672" y1="3.34909" x2="8.85676" y2="13.8825"
            gradientUnits="userSpaceOnUse">
            <stop stop-color="#00CFDE" />
            <stop offset="1" stop-color="#05A660" />
        </linearGradient>
    </defs>
</svg>