<svg width="16" height="16" viewBox="0 0 16 16" fill="none" xmlns="http://www.w3.org/2000/svg">
<path fill-rule="evenodd" clip-rule="evenodd" d="M12.0479 13.2755H12.0366L3.45833 13.2755C1.90281 13.2755 0.641846 11.9581 0.641846 10.3331C0.641846 8.90754 1.61229 7.71878 2.90071 7.44838C2.92703 7.44286 2.94619 7.41874 2.94619 7.3907C2.94619 4.73154 5.00969 2.57585 7.55517 2.57585C9.7694 2.57585 11.6189 4.20699 12.0628 6.38177C12.0872 6.50135 12.1856 6.5896 12.3022 6.59962C13.9456 6.74063 15.2373 8.1787 15.2373 9.93192C15.2373 11.7335 13.8734 13.2023 12.1654 13.2729L12.1642 13.2742L12.1629 13.2755H12.0479ZM6.36255 11.6464C6.36255 11.3872 6.56727 11.1771 6.81982 11.1771H9.52267C9.77519 11.1771 9.97991 11.3872 9.97991 11.6464C9.97991 11.9056 9.77519 12.1157 9.52267 12.1157H6.81982C6.56727 12.1157 6.36255 11.9056 6.36255 11.6464ZM7.13096 5.44627C6.9459 5.2699 6.65658 5.28088 6.48477 5.47082C6.31291 5.66076 6.32362 5.95768 6.50869 6.13402L8.25006 7.7936L6.50869 9.45314C6.32362 9.62947 6.31291 9.9264 6.48477 10.1163C6.65658 10.3063 6.9459 10.3173 7.13096 10.1409L9.23316 8.13747C9.32637 8.04867 9.37929 7.92408 9.37929 7.7936C9.37929 7.66307 9.32637 7.53848 9.23316 7.44968L7.13096 5.44627Z" fill="url(#paint0_linear_25_57)"/>
<defs>
<linearGradient id="paint0_linear_25_57" x1="3.05644" y1="3.94999" x2="9.67596" y2="13.9785" gradientUnits="userSpaceOnUse">
<stop stop-color="#4791FF"/>
<stop offset="1" stop-color="#2E1CF3"/>
</linearGradient>
</defs>
</svg>
