<svg width="32" height="32" viewBox="0 0 32 32" fill="none" xmlns="http://www.w3.org/2000/svg">
<path fill-rule="evenodd" clip-rule="evenodd" d="M14.5144 27.2492L14.8572 27.4518C15.2066 27.6535 15.6005 27.7562 15.9998 27.7497C16.3914 27.7521 16.777 27.6495 17.1196 27.4518L17.4624 27.2492C22.9072 24.0476 26.2777 18.0367 26.2838 11.5175V11.3506C26.2911 10.4914 25.8546 9.69459 25.1411 9.265L23.2938 8.18054L16.0669 19.6123C15.9389 19.7557 15.7575 19.8386 15.5664 19.841C15.3696 19.8404 15.1883 19.7601 15.0591 19.6193L11.7271 16.0367C11.5593 15.856 11.4668 15.6687 11.5706 15.3613C11.7271 14.8983 12.132 14.6998 12.4189 14.6998C12.6976 14.6998 12.7589 14.7659 12.916 14.9354C12.9206 14.9404 12.9253 14.9454 12.9301 14.9506L15.1126 17.1799C15.3377 17.4098 15.7182 17.3704 15.8913 17.0992L22.0524 7.45175L17.1425 4.56934C16.4354 4.14355 15.5643 4.14355 14.8572 4.56934L6.85857 9.265C6.14511 9.69459 5.70854 10.4914 5.71591 11.3506V11.5175C5.71728 18.0317 9.07844 24.0414 14.5144 27.2492Z" fill="#5FB34E"/>
</svg>
