<svg width="100" height="100" viewBox="0 0 100 100" fill="none" xmlns="http://www.w3.org/2000/svg">
    <path fill-rule="evenodd" clip-rule="evenodd"
        d="M86.092 19.4691C91.6443 22.604 95.0544 28.4953 94.9993 34.8575L94.7328 65.6977C94.6791 71.9002 91.3389 77.6116 85.9516 80.7123L58.2524 96.655C52.8651 99.7558 46.2347 99.7831 40.8219 96.727L13.908 81.5309C8.35575 78.396 4.94566 72.5047 5.00066 66.1425L5.26725 35.3023C5.32087 29.0998 8.66112 23.3884 14.0484 20.2877L41.7476 4.34496C47.1349 1.24421 53.7653 1.21686 59.1781 4.27304L86.092 19.4691ZM76.2995 43.4145C74.8434 48.8876 69.275 52.1732 63.8314 50.8044L37.9089 43.8116C33.6397 42.659 29.1959 43.2493 25.3774 45.4684C21.5595 47.687 18.8295 51.2656 17.6866 55.5634C16.5425 59.862 17.128 64.3495 19.3439 68.2126C21.5598 72.0757 25.1285 74.8299 29.3991 75.9819C33.6684 77.1346 38.1122 76.5442 41.9301 74.3255C45.7486 72.1065 48.4785 68.528 49.6214 64.2303L50.5253 60.6185C50.6394 60.1626 50.3667 59.6994 49.9118 59.5766L45.557 58.4014C45.0892 58.2751 44.6085 58.5566 44.4913 59.0256L43.6076 62.5597C42.1333 68.0915 36.4614 71.3854 30.9678 69.9042C25.4906 68.4253 22.2344 62.7483 23.7005 57.2345C25.1566 51.7614 30.7257 48.473 36.1694 49.8419L62.0911 56.8374C66.3603 57.99 70.8041 57.3996 74.6226 55.1806C78.4405 52.962 81.1705 49.3834 82.3134 45.0856C83.4575 40.787 82.872 36.2995 80.6561 32.4364C78.4402 28.5733 74.8715 25.8191 70.6009 24.667C66.3316 23.5144 61.8878 24.1048 58.0699 26.3234C54.2514 28.5425 51.5215 32.121 50.3786 36.4187L49.5234 39.2741C49.3841 39.7391 49.6567 40.2272 50.1265 40.354L54.4814 41.5292C54.9343 41.6514 55.4023 41.3916 55.5366 40.9435L56.3925 38.0892C57.8667 32.5575 63.5386 29.2636 69.0322 30.7448C74.5094 32.2237 77.7656 37.9007 76.2995 43.4145Z"
        fill="url(#paint0_linear_272_257)" />
    <defs>
        <linearGradient id="paint0_linear_272_257" x1="18.0628" y1="2" x2="68.8128" y2="98.7675"
            gradientUnits="userSpaceOnUse">
            <stop stop-color="#62F91F" />
            <stop offset="1" stop-color="#45BD35" />
        </linearGradient>
    </defs>
</svg>