<svg width="35" height="35" viewBox="0 0 35 35" fill="none" xmlns="http://www.w3.org/2000/svg">
<path fill-rule="evenodd" clip-rule="evenodd" d="M1.60014 13.6369C-0.533382 15.7704 -0.533378 19.2296 1.60014 21.3631L13.6369 33.3999C15.7704 35.5334 19.2296 35.5334 21.3631 33.3999L33.3999 21.3631C35.5334 19.2296 35.5334 15.7704 33.3999 13.6369L21.3631 1.60014C19.2296 -0.533382 15.7704 -0.533378 13.6369 1.60014L1.60014 13.6369ZM20.4116 10.2731C20.5496 9.71189 20.2065 9.14502 19.6452 9.00701C19.084 8.86899 18.5171 9.2121 18.3791 9.77335L14.8907 23.9594C14.7527 24.5207 15.0958 25.0875 15.6571 25.2255C16.2183 25.3635 16.7852 25.0204 16.9232 24.4592L20.4116 10.2731ZM10.7016 22.7628C11.1103 23.1715 11.7729 23.1715 12.1816 22.7628C12.5903 22.3541 12.5903 21.6915 12.1816 21.2828L8.31717 17.4184L12.1816 13.5539C12.5903 13.1453 12.5903 12.4826 12.1816 12.074C11.7729 11.6653 11.1103 11.6653 10.7016 12.074L6.09719 16.6784C5.6885 17.0871 5.6885 17.7497 6.09719 18.1584L10.7016 22.7628ZM22.9337 22.8791C23.3424 23.2877 24.005 23.2877 24.4137 22.8791L29.0181 18.2746C29.4268 17.866 29.4268 17.2033 29.0181 16.7946L24.4137 12.1902C24.005 11.7815 23.3424 11.7815 22.9337 12.1902C22.525 12.5989 22.525 13.2615 22.9337 13.6702L26.7981 17.5346L22.9337 21.3991C22.525 21.8078 22.525 22.4704 22.9337 22.8791Z" fill="url(#paint0_linear_2974_531)"/>
<defs>
<linearGradient id="paint0_linear_2974_531" x1="5.67445" y1="2.93023" x2="27.7675" y2="31.4186" gradientUnits="userSpaceOnUse">
<stop stop-color="#73DFE7"/>
<stop offset="1" stop-color="#0095F7"/>
</linearGradient>
</defs>
</svg>
