<svg width="16" height="16" viewBox="0 0 16 16" fill="none" xmlns="http://www.w3.org/2000/svg">
    <path fill-rule="evenodd" clip-rule="evenodd"
        d="M2.89289 2.97412C2.63647 2.97412 2.4286 3.18829 2.4286 3.45249V12.063C2.4286 12.3272 2.63647 12.5414 2.89289 12.5414H13.1073C13.3637 12.5414 13.5716 12.3272 13.5716 12.063V5.8443C13.5716 5.58011 13.7795 5.36594 14.0359 5.36594C14.2923 5.36594 14.5002 5.58011 14.5002 5.8443V12.063C14.5002 12.8556 13.8766 13.4981 13.1073 13.4981H2.89289C2.12363 13.4981 1.50002 12.8556 1.50002 12.063V3.45249C1.50002 2.65991 2.12363 2.0174 2.89289 2.0174H11.018C11.2744 2.0174 11.4823 2.23157 11.4823 2.49576C11.4823 2.75995 11.2744 2.97412 11.018 2.97412H2.89289ZM4.83403 5.57002C4.98107 5.35358 5.27057 5.30094 5.48064 5.45245L7.66625 7.02875C7.99632 7.2668 7.99632 7.77043 7.66625 8.00848L5.48064 9.58478C5.27057 9.73628 4.98107 9.68364 4.83403 9.46721C4.68698 9.25077 4.73807 8.9525 4.94813 8.80099L6.72622 7.51861L4.94813 6.23623C4.73807 6.08473 4.68698 5.78645 4.83403 5.57002ZM8.9285 8.71448C8.67208 8.71448 8.46421 8.92865 8.46421 9.19284C8.46421 9.45703 8.67208 9.6712 8.9285 9.6712H11.25C11.5064 9.6712 11.7142 9.45703 11.7142 9.19284C11.7142 8.92865 11.5064 8.71448 11.25 8.71448H8.9285Z"
        fill="#9293AB" />
</svg>