<svg width="50" height="49" viewBox="0 0 50 49" fill="none" xmlns="http://www.w3.org/2000/svg">
    <path fill-rule="evenodd" clip-rule="evenodd"
        d="M40.2092 37.2966C36.5577 41.6163 31.0992 44.3593 25 44.3593C18.9007 44.3593 13.4421 41.6162 9.7906 37.2964L19.0166 31.4253C20.6241 32.8061 22.7146 33.6406 25 33.6406C27.2853 33.6406 29.3756 32.8062 30.9832 31.4255L40.2092 37.2966ZM41.8424 35.0689L32.7981 29.3135C33.6786 27.9036 34.1875 26.2378 34.1875 24.4531C34.1875 19.8471 30.7982 16.0328 26.3775 15.3682V4.59375C36.7288 5.30126 44.9062 13.9222 44.9062 24.4531C44.9062 28.3559 43.7831 31.9964 41.8424 35.0689ZM23.6213 4.59383C13.2705 5.30192 5.09375 13.9226 5.09375 24.4531C5.09375 28.3558 6.21684 31.9961 8.15744 35.0686L17.2018 29.3132C16.3213 27.9034 15.8125 26.2377 15.8125 24.4531C15.8125 19.8476 19.2012 16.0335 23.6213 15.3683V4.59383Z"
        fill="url(#paint0_linear_792_86124)" />
    <path fill-rule="evenodd" clip-rule="evenodd"
        d="M30.4481 20.3441C30.9674 20.9005 30.9374 21.7725 30.3809 22.2919L23.8184 28.4169C23.289 28.9111 22.4673 28.9111 21.9378 28.4169L19.3128 25.9669C18.7564 25.4475 18.7263 24.5755 19.2456 24.0191C19.765 23.4626 20.637 23.4326 21.1934 23.9519L22.8781 25.5243L28.5003 20.2769C29.0567 19.7576 29.9288 19.7876 30.4481 20.3441Z"
        fill="url(#paint1_linear_792_86124)" />
    <defs>
        <linearGradient id="paint0_linear_792_86124" x1="15.9628" y1="6.76084" x2="34.0034" y2="42.2094"
            gradientUnits="userSpaceOnUse">
            <stop stop-color="#BEA1FF" />
            <stop offset="1" stop-color="#8A36FF" />
        </linearGradient>
        <linearGradient id="paint1_linear_792_86124" x1="22.1357" y1="20.3902" x2="25.4382" y2="29.1067"
            gradientUnits="userSpaceOnUse">
            <stop stop-color="#BEA1FF" />
            <stop offset="1" stop-color="#8A36FF" />
        </linearGradient>
    </defs>
</svg>