<svg width="24" height="24" viewBox="0 0 24 24" fill="none" xmlns="http://www.w3.org/2000/svg">
    <path fill-rule="evenodd" clip-rule="evenodd"
        d="M15.2506 10.431C15.5274 10.7106 15.9763 10.7106 16.2531 10.431C16.53 10.1515 16.53 9.6982 16.2531 9.4186L12.6009 5.73042L17.023 3.15215C18.0573 2.5492 19.35 3.30289 19.35 4.50881V12.3882L14.0043 13.6797C13.6235 13.7717 13.3887 14.1579 13.4798 14.5425C13.5709 14.927 13.9534 15.1641 14.3342 15.0721L19.35 13.8604V19.7461C19.35 20.952 18.0573 21.7057 17.023 21.1027L10.8706 17.5157L11.7314 11.237C11.7851 10.8453 11.5143 10.4839 11.1264 10.4297C10.7386 10.3754 10.3807 10.6489 10.327 11.0406L9.54513 16.7429L3.95563 13.4841C2.92145 12.8811 2.92144 11.3737 3.95564 10.7708L11.3296 6.47154L15.2506 10.431Z"
        fill="url(#paint0_linear_107_1587)" />
    <defs>
        <linearGradient id="paint0_linear_107_1587" x1="9.4894" y1="5.80348" x2="19.4803" y2="21.1778"
            gradientUnits="userSpaceOnUse">
            <stop stop-color="#FF61A2" />
            <stop offset="1" stop-color="#D8005A" />
        </linearGradient>
    </defs>
</svg>