<svg width="28" height="28" viewBox="0 0 28 28" fill="none" xmlns="http://www.w3.org/2000/svg">
<path d="M25.5881 9.16688L18.6175 2.1041C17.792 1.31436 16.8087 0.712999 15.734 0.340579C13.3524 -0.461813 10.9823 0.16451 9.06282 2.1041L2.07508 9.16688C1.29469 10.0023 0.70044 10.9973 0.332428 12.0849C-0.463318 14.495 0.155596 16.8935 2.07508 18.8331L9.05427 25.8959C9.87845 26.6859 10.8609 27.2874 11.9349 27.6594C12.5856 27.882 13.2674 27.997 13.9542 28C15.6284 28 17.2313 27.2842 18.6061 25.8959L25.5824 18.8331C26.3638 17.998 26.9591 17.0029 27.3279 15.9151C28.1208 13.505 27.5019 11.1094 25.5824 9.16688H25.5881ZM14.3678 4.15338C14.895 4.32444 15.3809 4.60568 15.7939 4.97887L17.856 7.06854L13.8344 11.1353L9.81294 7.06565L11.8864 4.96443C12.4426 4.40449 13.2269 3.80991 14.3735 4.15049L14.3678 4.15338ZM4.10581 13.453C4.27537 12.9191 4.5543 12.4274 4.92437 12.0099L6.98647 9.92309L11.008 13.9928L6.98362 18.0625L4.91011 15.9612C4.35394 15.4013 3.76926 14.6076 4.10296 13.4473L4.10581 13.453ZM13.2954 23.8379C12.7675 23.6684 12.2814 23.387 11.8693 23.0125L9.81294 20.9488L13.8344 16.8762L17.856 20.9459L15.7825 23.0471C15.2263 23.607 14.4448 24.2016 13.2954 23.861V23.8379ZM23.5631 14.5585C23.3936 15.0918 23.1157 15.5834 22.7474 16.0016L20.6853 18.0625L16.6638 13.9928L20.6853 9.92309L22.7588 12.0214C23.315 12.5814 23.8996 13.3751 23.5659 14.5354" fill="#00ABE4"/>
</svg>
