<svg width="34" height="36" viewBox="0 0 34 36" fill="none" xmlns="http://www.w3.org/2000/svg">
<path fill-rule="evenodd" clip-rule="evenodd" d="M30.0332 6.76262C32.0382 7.89787 33.2696 10.0313 33.2498 12.3353L33.1535 23.5036C33.1341 25.7497 31.9279 27.818 29.9825 28.9409L19.98 34.7143C18.0346 35.8372 15.6403 35.8471 13.6857 34.7404L3.96677 29.2374C1.9618 28.1021 0.730376 25.9687 0.750237 23.6647L0.846507 12.4964C0.865869 10.2502 2.07207 8.18195 4.01749 7.05906L14.02 1.28565C15.9654 0.162764 18.3597 0.152859 20.3143 1.25961L30.0332 6.76262ZM26.497 15.4341C25.9712 17.4161 23.9604 18.6059 21.9947 18.1102L12.6338 15.5779C11.0921 15.1605 9.48741 15.3743 8.10849 16.1779C6.72981 16.9813 5.74399 18.2772 5.33128 19.8336C4.91813 21.3903 5.12957 23.0154 5.92976 24.4143C6.72994 25.8133 8.01864 26.8107 9.56079 27.2279C11.1025 27.6453 12.7072 27.4315 14.0859 26.628C15.4648 25.8245 16.4506 24.5286 16.8633 22.9722L17.1897 21.6643C17.2309 21.4991 17.1324 21.3314 16.9681 21.2869L15.3956 20.8614C15.2266 20.8156 15.0531 20.9176 15.0107 21.0874L14.6916 22.3672C14.1592 24.3705 12.1111 25.5633 10.1273 25.0269C8.14938 24.4914 6.97352 22.4355 7.50297 20.4388C8.02878 18.4568 10.0399 17.266 12.0056 17.7617L21.3662 20.295C22.9079 20.7124 24.5126 20.4986 25.8915 19.695C27.2702 18.8916 28.256 17.5956 28.6687 16.0392C29.0819 14.4826 28.8704 12.8575 28.0702 11.4585C27.2701 10.0596 25.9814 9.06217 24.4392 8.64498C22.8975 8.22757 21.2928 8.44138 19.9141 9.24482C18.5352 10.0484 17.5494 11.3443 17.1367 12.9007L16.8279 13.9347C16.7776 14.1031 16.876 14.2799 17.0457 14.3258L18.6183 14.7514C18.7818 14.7956 18.9508 14.7015 18.9993 14.5392L19.3084 13.5056C19.8408 11.5024 21.8889 10.3096 23.8727 10.8459C25.8506 11.3815 27.0265 13.4373 26.497 15.4341Z" fill="url(#paint0_linear_3522_31)"/>
<defs>
<linearGradient id="paint0_linear_3522_31" x1="5.46712" y1="0.436463" x2="23.875" y2="35.4365" gradientUnits="userSpaceOnUse">
<stop stop-color="#62F91F"/>
<stop offset="1" stop-color="#45BD35"/>
</linearGradient>
</defs>
</svg>
