<svg width="17" height="17" viewBox="0 0 17 17" fill="none" xmlns="http://www.w3.org/2000/svg">
<path fill-rule="evenodd" clip-rule="evenodd" d="M7.43041 1.27726C8.08911 0.90759 8.90437 0.907573 9.56959 1.27726L14.924 4.24727H14.9306C15.5893 4.6107 16 5.29379 16 6.02689V10.9842L11.9591 8.86081L11.9703 8.84313L12.8894 7.3316L12.9525 7.36614C13.1579 7.47867 13.4167 7.40508 13.5304 7.20166C13.6369 7.01093 13.5782 6.77357 13.4013 6.6519L13.3643 6.62929L12.943 6.3982L8.72895 4.09513L8.31464 3.86199C8.11056 3.74715 7.85113 3.81779 7.73512 4.01988C7.61917 4.222 7.69056 4.47896 7.89453 4.5939L7.93397 4.61611L6.38095 7.17L7.1091 7.60463L8.67622 5.02812L12.1451 6.92411L11.2422 8.40891L11.2073 8.46607L10.5813 8.13711C10.4786 7.94531 10.2752 7.81436 10.0408 7.81433C9.70289 7.81439 9.42886 8.08575 9.42886 8.42042C9.4289 8.75506 9.70292 9.02645 10.0408 9.02652C10.1441 9.0265 10.2414 9.0006 10.3268 8.95579L10.7681 9.1877L10.3841 9.82011L9.85769 10.684L7.90864 9.66304C7.80575 9.47184 7.60257 9.34152 7.36856 9.34149C7.0307 9.34157 6.75665 9.61292 6.75665 9.94758C6.75672 10.2822 7.03074 10.5536 7.36856 10.5537C7.4722 10.5537 7.56987 10.5276 7.65541 10.4825L9.41807 11.4061L8.81405 12.4003C8.54974 12.8338 8.11261 13.1543 7.5948 13.286C7.0767 13.4178 6.52507 13.3482 6.06255 13.0944L6.06213 13.094L5.97786 13.0455C5.78471 12.9275 5.61508 12.7787 5.47596 12.6067C5.31708 12.4102 5.20095 12.1867 5.13389 11.9492C5.06687 11.7118 5.04958 11.4641 5.08325 11.2206C5.11695 10.9772 5.20109 10.7417 5.33108 10.5278L5.98243 9.4558C6.10331 9.25666 6.03845 8.99803 5.83754 8.87808C5.63642 8.75821 5.37495 8.82241 5.25387 9.02158L4.60252 10.0935C4.41366 10.4044 4.29045 10.7486 4.24094 11.1063C4.19146 11.4641 4.21698 11.8281 4.31525 12.1762C4.41354 12.5242 4.58263 12.8496 4.81217 13.1335C5.04169 13.4173 5.32713 13.6542 5.65115 13.8313C6.30504 14.19 7.0794 14.2866 7.80611 14.1018C8.53322 13.9169 9.15889 13.4636 9.54178 12.8358L9.54219 12.8354L10.1707 11.8004L12.4469 12.9928L12.4863 13.0109C12.6866 13.0914 12.9242 13.013 13.0335 12.8238C13.1499 12.622 13.0761 12.3705 12.8687 12.2617L10.6107 11.0788L11.1122 10.2551L11.5203 9.58285L16 11.9373V11.9735C15.9999 12.7065 15.5957 13.383 14.9306 13.7527L9.56959 16.7227C8.91088 17.0924 8.09564 17.0924 7.43041 16.7227L2.06938 13.7527C1.41076 13.3893 1.00008 12.7065 1 11.9735V6.02689C1 5.29378 1.40415 4.61696 2.06938 4.24727L7.43041 1.27726ZM6.38095 7.17C6.25987 7.36911 6.32448 7.62767 6.52542 7.74772C6.72647 7.86766 6.98792 7.80371 7.1091 7.60463L6.38095 7.17Z" fill="url(#paint0_linear_60_14)"/>
<defs>
<linearGradient id="paint0_linear_60_14" x1="3.9875" y1="1.13296" x2="13.8367" y2="1.17997" gradientUnits="userSpaceOnUse">
<stop stop-color="#EF63FF"/>
<stop offset="1" stop-color="#B703CC"/>
</linearGradient>
</defs>
</svg>
