<svg width="16" height="16" viewBox="0 0 16 16" fill="none" xmlns="http://www.w3.org/2000/svg">
    <path fill-rule="evenodd" clip-rule="evenodd"
        d="M2.00411 3.36681C2.00306 3.36176 2.00225 3.35737 2.00162 3.35365C2.00225 3.34994 2.00306 3.34554 2.00411 3.3405C2.01039 3.31026 2.02526 3.25586 2.0599 3.18441C2.12786 3.04424 2.28023 2.82139 2.62659 2.58327C3.32929 2.10016 4.83338 1.55365 7.99998 1.55365C11.1666 1.55365 12.6707 2.10016 13.3734 2.58327C13.7197 2.82139 13.8721 3.04424 13.9401 3.18441C13.9747 3.25586 13.9896 3.31026 13.9959 3.3405C13.9969 3.34554 13.9977 3.34994 13.9983 3.35365C13.9977 3.35737 13.9969 3.36176 13.9959 3.36681C13.9896 3.39704 13.9747 3.45144 13.9401 3.52289C13.8721 3.66306 13.7197 3.88591 13.3734 4.12405C12.6707 4.60713 11.1666 5.15365 7.99998 5.15365C4.83338 5.15365 3.32929 4.60713 2.62659 4.12405C2.28023 3.88591 2.12786 3.66306 2.0599 3.52289C2.02526 3.45144 2.01039 3.39704 2.00411 3.36681ZM1.63093 4.30681C1.61052 4.45281 1.59998 4.60201 1.59998 4.75365V7.90073C1.60581 7.91769 1.61538 7.94261 1.6303 7.97413C1.66912 8.05617 1.74554 8.18609 1.89064 8.33961C2.15707 8.62141 2.67068 8.99881 3.64659 9.29437C3.73983 8.93397 3.92746 8.60353 4.19674 8.33293C4.59262 7.93501 5.11614 7.71561 5.67238 7.71337C6.22874 7.71109 6.75046 7.92625 7.14314 8.32097L9.52778 10.7171C10.0349 11.2094 10.8493 11.2007 11.3535 10.694C11.8614 10.1834 11.8647 9.35781 11.3609 8.85137C10.8555 8.34369 10.0293 8.34677 9.51938 8.85877L9.24594 9.11693C9.20298 9.15749 9.13558 9.15645 9.09394 9.11457L8.69334 8.71197C8.6501 8.66853 8.65122 8.59801 8.69574 8.55593L8.96922 8.29761C9.3651 7.89969 9.88858 7.68029 10.4449 7.67801C11.0012 7.67577 11.5229 7.89093 11.9156 8.28565C12.2127 8.58417 12.4082 8.95757 12.4849 9.36485C13.2766 9.07285 13.753 8.70009 14.0329 8.40097C14.1961 8.22661 14.2958 8.07377 14.353 7.97025C14.374 7.93217 14.3893 7.90073 14.4 7.87725V4.75365C14.4 4.60201 14.3894 4.45281 14.369 4.30681C14.2332 4.46349 14.0563 4.62533 13.8266 4.78325C12.9293 5.40017 11.2334 5.95365 7.99998 5.95365C4.76658 5.95365 3.07066 5.40017 2.17336 4.78325C1.94363 4.62533 1.76674 4.46345 1.63093 4.30681ZM1.59998 9.20425V11.1995V12.1995V12.8305C1.71678 12.9653 1.88688 13.0809 2.07836 13.2112C2.10951 13.2323 2.14123 13.2539 2.17337 13.276C3.07067 13.8929 4.76658 14.4464 7.99998 14.4464C11.2334 14.4464 12.9293 13.8929 13.8266 13.276C14.0563 13.1181 14.2642 12.9562 14.4 12.7995V12.3995V11.1995V9.20673C13.9856 9.58189 13.3714 9.97389 12.4727 10.2606C12.3874 10.6517 12.1925 11.0109 11.9037 11.3011C11.5078 11.699 10.9843 11.9184 10.428 11.9207C9.87166 11.9229 9.34994 11.7078 8.95726 11.3131L6.57286 8.91669C6.06582 8.42437 5.2511 8.43337 4.7469 8.94009C4.23902 9.45061 4.2357 10.2762 4.73946 10.7827C5.24486 11.2904 6.0711 11.2873 6.58102 10.7753L6.90042 10.4445C6.94282 10.4006 7.01298 10.4001 7.05602 10.4433L7.45658 10.8459C7.49842 10.888 7.49894 10.9558 7.4577 10.9985L7.13118 11.3364C6.7353 11.7343 6.21182 11.9538 5.65546 11.956C5.09922 11.9583 4.5775 11.7431 4.18482 11.3484C3.86115 11.0232 3.65807 10.6091 3.59783 10.1591C2.65222 9.89589 2.02068 9.54785 1.59998 9.20425Z"
        fill="url(#paint0_linear_18_18)" />
    <defs>
        <linearGradient id="paint0_linear_18_18" x1="4.79998" y1="2.4173" x2="11.2695" y2="13.5423"
            gradientUnits="userSpaceOnUse">
            <stop stop-color="#62F91F" />
            <stop offset="1" stop-color="#45BD35" />
        </linearGradient>
    </defs>
</svg>