<svg width="50" height="50" viewBox="0 0 50 50" fill="none" xmlns="http://www.w3.org/2000/svg">
<path fill-rule="evenodd" clip-rule="evenodd" d="M4.50017 20.7962C1.83327 23.4631 1.83328 27.787 4.50018 30.4539L19.5462 45.4998C22.2131 48.1667 26.537 48.1667 29.2039 45.4998L44.2498 30.4538C46.9167 27.7869 46.9167 23.463 44.2498 20.7961L29.2038 5.75017C26.5369 3.08327 22.213 3.08328 19.5461 5.75018L4.50017 20.7962ZM28.0145 16.5914C28.187 15.8899 27.7581 15.1813 27.0565 15.0088C26.355 14.8362 25.6464 15.2651 25.4739 15.9667L21.1134 33.6992C20.9409 34.4008 21.3698 35.1094 22.0713 35.2819C22.7729 35.4544 23.4815 35.0255 23.654 34.324L28.0145 16.5914ZM15.877 32.2035C16.3879 32.7143 17.2161 32.7143 17.727 32.2035C18.2379 31.6926 18.2379 30.8643 17.727 30.3535L12.8965 25.523L17.727 20.6924C18.2379 20.1816 18.2379 19.3533 17.727 18.8424C17.2161 18.3316 16.3879 18.3316 15.877 18.8424L10.1215 24.598C9.61062 25.1088 9.61062 25.9371 10.1215 26.4479L15.877 32.2035ZM31.1671 32.3488C31.678 32.8597 32.5062 32.8597 33.0171 32.3488L38.7726 26.5933C39.2835 26.0824 39.2835 25.2542 38.7726 24.7433L33.0171 18.9878C32.5062 18.4769 31.678 18.4769 31.1671 18.9878C30.6563 19.4986 30.6563 20.3269 31.1671 20.8378L35.9976 25.6683L31.1671 30.4988C30.6563 31.0097 30.6563 31.838 31.1671 32.3488Z" fill="url(#paint0_linear_3378_22117)"/>
<defs>
<linearGradient id="paint0_linear_3378_22117" x1="9.59307" y1="7.41278" x2="37.2093" y2="43.0233" gradientUnits="userSpaceOnUse">
<stop stop-color="#73DFE7"/>
<stop offset="1" stop-color="#0095F7"/>
</linearGradient>
</defs>
</svg>
