<svg width="17" height="16" viewBox="0 0 17 16" fill="none" xmlns="http://www.w3.org/2000/svg">
    <path fill-rule="evenodd" clip-rule="evenodd"
        d="M8.07422 1.12411C6.9987 1.73049 4.77459 2.98042 2.69972 3.15899C2.49282 3.1768 2.31935 3.32362 2.30069 3.52232C2.02185 6.49172 2.82458 12.3836 8.1412 14.8879C8.23854 14.9338 8.35125 14.9415 8.45257 14.9045C9.89856 14.3758 12.1174 12.758 13.3598 9.59601L10.9501 8.62615C10.9358 8.62041 10.9219 8.61404 10.9085 8.60715C10.5914 9.10109 10.1081 9.50188 9.49916 9.72281C8.0356 10.2539 6.40084 9.54495 5.84787 8.13933C5.29489 6.73375 6.0331 5.16375 7.4967 4.63268C8.96026 4.10161 10.595 4.81058 11.148 6.21616C11.3485 6.72575 11.3792 7.25694 11.2673 7.75239C11.286 7.75748 11.3047 7.76372 11.3232 7.77117L13.6671 8.71454C14.1077 7.27735 14.3507 5.56362 14.2686 3.54021C14.2603 3.33593 14.0907 3.16963 13.8804 3.13782C12.6393 2.94999 10.3289 2.19444 8.51228 1.13025C8.37794 1.05155 8.20995 1.0476 8.07422 1.12411ZM7.83785 5.49988C6.87297 5.84999 6.38629 6.88503 6.75084 7.81169C7.11542 8.73835 8.19312 9.20571 9.158 8.85561C10.1229 8.5055 10.6096 7.47046 10.245 6.5438C9.88044 5.61717 8.80274 5.14978 7.83785 5.49988Z"
        fill="url(#paint0_linear_8_13)" />
    <defs>
        <linearGradient id="paint0_linear_8_13" x1="4.243" y1="2.8488" x2="13.5614" y2="11.8335"
            gradientUnits="userSpaceOnUse">
            <stop stop-color="#4791FF" />
            <stop offset="1" stop-color="#2E1CF3" />
        </linearGradient>
    </defs>
</svg>