<svg width="40" height="40" viewBox="0 0 40 40" fill="none" xmlns="http://www.w3.org/2000/svg">
<path d="M17.127 1.65936C18.6765 0.781352 20.5943 0.781352 22.1592 1.65936L34.7549 8.71307H34.7705C36.3198 9.57617 37.286 11.1978 37.2861 12.9387V24.7131L27.7803 19.6701L27.8066 19.6281V19.6271L29.9697 16.0373L30.1172 16.1193C30.6004 16.3867 31.2091 16.2119 31.4766 15.7287C31.7437 15.2456 31.569 14.6367 31.0859 14.3693L30.0947 13.8215L30.0938 13.8205L20.1875 8.3537L19.207 7.79706C18.727 7.52437 18.1167 7.69232 17.8438 8.17206C17.5709 8.65221 17.7386 9.26344 18.2188 9.53631L18.3125 9.58905L14.6582 15.6535C14.3733 16.1264 14.5253 16.7404 14.998 17.0256C15.4711 17.3106 16.086 17.1587 16.3711 16.6857L20.0586 10.5666L28.2178 15.0695L26.0938 18.5959L26.0117 18.7316L24.5391 17.9504C24.2974 17.4949 23.8191 17.1839 23.2676 17.1838C22.4728 17.1839 21.8283 17.8285 21.8281 18.6232C21.8282 19.418 22.4728 20.0625 23.2676 20.0627C23.5107 20.0626 23.7396 20.0011 23.9404 19.8947L24.9785 20.4455L24.0752 21.9474V21.9484L22.8369 23.9992L18.252 21.5744C18.0099 21.1204 17.5319 20.8108 16.9814 20.8107C16.1868 20.8109 15.5421 21.4555 15.542 22.2502C15.5421 23.0449 16.1867 23.6894 16.9814 23.6896C17.2253 23.6896 17.455 23.6277 17.6562 23.5207L21.8037 25.714L20.3818 28.0754C19.7601 29.1046 18.7316 29.866 17.5137 30.1789C16.2948 30.4919 14.9972 30.3267 13.9092 29.7238L13.9082 29.7228C13.3715 29.4268 12.9032 29.0333 12.5293 28.5666C12.1554 28.0998 11.8824 27.5683 11.7246 27.0041C11.567 26.4403 11.5264 25.8526 11.6055 25.2746C11.6748 24.7687 11.8354 24.2768 12.0791 23.8215L12.1885 23.6281L13.7207 21.0822C14.0049 20.6092 13.8526 19.9949 13.3799 19.7101C12.9068 19.4254 12.2918 19.5781 12.0068 20.051L10.4746 22.5969C10.0302 23.3352 9.74047 24.1535 9.62402 25.0031C9.50769 25.8527 9.56769 26.7164 9.79883 27.5431C10.03 28.3698 10.4277 29.1423 10.9678 29.8166C11.5077 30.4907 12.1791 31.0532 12.9414 31.4738C14.4796 32.3257 16.3013 32.5553 18.0107 32.1164C19.7212 31.6771 21.1931 30.6008 22.0938 29.1096L22.0947 29.1086L23.5742 26.6506L28.9277 29.4826C29.4157 29.7404 30.0334 29.5611 30.3076 29.0822C30.5816 28.6029 30.408 28.0045 29.9199 27.7463L24.6074 24.9357L25.7881 22.9806V22.9797L26.748 21.384L37.2861 26.9758V27.0617C37.2861 28.8028 36.3354 30.4103 34.7705 31.2883L22.1592 38.342C20.6097 39.2199 18.6918 39.2199 17.127 38.342L4.51562 31.2883C2.9661 30.4252 2.00004 28.8028 2 27.0617V12.9387C2.00014 11.1977 2.95094 9.59103 4.51562 8.71307L17.127 1.65936Z" fill="url(#paint0_linear_5271_293)"/>
<defs>
<linearGradient id="paint0_linear_5271_293" x1="9.02782" y1="1.31662" x2="32.1971" y2="1.42617" gradientUnits="userSpaceOnUse">
<stop stop-color="#EF63FF"/>
<stop offset="1" stop-color="#B703CC"/>
</linearGradient>
</defs>
</svg>
