<svg width="24" height="24" viewBox="0 0 24 24" fill="none" xmlns="http://www.w3.org/2000/svg">
<path d="M0 12C0 5.37258 5.37259 0 12 0H14.4C15.2837 0 16 0.716344 16 1.6V6.4C16 7.28366 15.2837 8 14.4 8L12.0001 8C11.9655 8 11.9311 8.00044 11.8968 8.00131C11.8625 8.00218 11.8283 8.00348 11.7942 8.00521C9.68069 8.11234 8.00001 9.8599 8.00001 12C8.00001 13.9276 9.36351 15.5368 11.1786 15.9156C11.4437 15.9709 11.7185 16 12 16H16L20 16C17.7909 16 16 17.7909 16 20C16 20.0041 16 20.0082 16 20.0122V22.4C16 23.2837 15.2837 24 14.4 24H12C5.37259 24 0 18.6274 0 12Z" fill="white"/>
<path d="M16 16H12C14.2092 16 16.0001 14.2091 16.0001 12C16.0001 11.9921 16 11.9843 16 11.9765V9.6C16 8.71634 16.7163 8 17.6 8H22.4C23.2837 8 24 8.71634 24 9.6V14.4C24 15.2837 23.2837 16 22.4 16L16 16Z" fill="white"/>
</svg>
