<svg width="50" height="49" viewBox="0 0 50 49" fill="none" xmlns="http://www.w3.org/2000/svg">
    <path fill-rule="evenodd" clip-rule="evenodd"
        d="M31.772 21.7314C32.3488 22.3139 33.2839 22.3139 33.8607 21.7314C34.4375 21.149 34.4375 20.2047 33.8607 19.6222L26.2518 11.9385L35.4647 6.56711C37.6193 5.31095 40.3125 6.88115 40.3125 9.39348L40.3125 25.8089L29.1757 28.4994C28.3824 28.6911 27.8932 29.4958 28.083 30.2969C28.2727 31.098 29.0697 31.5921 29.863 31.4004L40.3125 28.8759V41.1378C40.3125 43.6501 37.6193 45.2203 35.4647 43.9641L22.647 36.4911L24.4405 23.4105C24.5524 22.5946 23.9881 21.8415 23.1801 21.7286C22.3721 21.6156 21.6265 22.1854 21.5146 23.0014L19.8857 34.8812L8.24092 28.092C6.08636 26.8358 6.08636 23.6954 8.24093 22.4393L23.6034 13.4825L31.772 21.7314Z"
        fill="url(#paint0_linear_792_84828)" />
    <defs>
        <linearGradient id="paint0_linear_792_84828" x1="19.7696" y1="12.0907" x2="40.5839" y2="44.1205"
            gradientUnits="userSpaceOnUse">
            <stop stop-color="#FF61A2" />
            <stop offset="1" stop-color="#D8005A" />
        </linearGradient>
    </defs>
</svg>