<svg width="24" height="24" viewBox="0 0 24 24" fill="none" xmlns="http://www.w3.org/2000/svg">
    <path
        d="M8.05457 1.52855C5.98005 1.16276 4.00179 2.54795 3.636 4.62248L1.76861 15.2129C1.40281 17.2875 2.78801 19.2658 4.86252 19.6315L10.4575 20.6181C10.5381 20.6323 10.5984 20.5456 10.5569 20.475L5.29865 11.5072C5.08068 11.1624 5.0837 10.4911 5.33565 10.3312C5.39335 10.2941 5.56481 10.1408 5.56481 10.1408L5.8578 9.82043L5.90589 9.76763C6.17772 9.46888 6.42329 9.19893 7.1993 8.81047L7.36629 8.75234C8.50457 8.3968 9.13749 8.42248 9.77052 8.44816C10.4037 8.47384 11.0371 8.49957 12.1765 8.1437C13.1116 7.85162 13.962 7.27802 14.4361 6.91835C14.6465 6.75871 14.9572 6.80531 15.0971 7.02938L18.4757 12.4396C18.5807 12.6078 18.5545 12.8255 18.4009 12.9511C18.036 13.2496 17.2983 13.7758 16.3182 14.0819C15.1799 14.4375 14.5305 14.422 13.8811 14.4066C13.2314 14.3911 12.5816 14.3757 11.4422 14.7316C10.4086 15.0544 10.0149 15.4838 9.89373 15.6528C9.8718 15.6834 9.85706 15.748 9.87511 15.781C10.1162 16.2224 11.6037 18.8401 12.7445 20.8451C12.8153 20.9693 12.9375 21.0554 13.0782 21.0802L15.453 21.4989C17.5276 21.8647 19.5058 20.4796 19.8716 18.405L21.739 7.81451C22.1048 5.74 20.7196 3.76174 18.645 3.39595L8.05457 1.52855Z"
        fill="url(#paint0_linear_107_1591)" />
    <path
        d="M12.4751 9.60963C11.5172 9.85957 10.9366 9.84138 10.3562 9.82314C9.77601 9.80494 9.19588 9.78675 8.23886 10.0364C7.67788 10.1991 7.35676 10.4861 7.04884 10.8521C7.02254 10.8833 7.01942 10.928 7.04068 10.9628L8.91494 14.0356C8.94585 14.0863 9.01502 14.0978 9.06182 14.0612C9.29932 13.8759 9.99695 13.3764 10.8878 13.144C11.9674 12.8623 12.6135 12.8686 13.294 12.8752C13.8209 12.8803 14.3684 12.8856 15.1537 12.7575C15.6804 12.6716 16.1104 12.4427 16.3501 12.2903C16.472 12.2129 16.4981 12.0534 16.4197 11.9321L14.5517 9.04045C14.4644 8.90523 14.2807 8.86741 14.1406 8.94671C13.8333 9.12061 13.256 9.40587 12.4751 9.60963Z"
        fill="url(#paint1_linear_107_1591)" />
    <defs>
        <linearGradient id="paint0_linear_107_1591" x1="6.28356" y1="3.09033" x2="17.224" y2="19.9372"
            gradientUnits="userSpaceOnUse">
            <stop stop-color="#FFC100" />
            <stop offset="1" stop-color="#E66B35" />
        </linearGradient>
        <linearGradient id="paint1_linear_107_1591" x1="6.28353" y1="3.09034" x2="17.224" y2="19.9372"
            gradientUnits="userSpaceOnUse">
            <stop stop-color="#FFC100" />
            <stop offset="1" stop-color="#E66B35" />
        </linearGradient>
    </defs>
</svg>