<svg width="40" height="40" viewBox="0 0 40 40" fill="none" xmlns="http://www.w3.org/2000/svg">
<path fill-rule="evenodd" clip-rule="evenodd" d="M5.01034 8.41698C5.00772 8.40437 5.00568 8.39338 5.00411 8.38409C5.00568 8.37481 5.00772 8.36382 5.01034 8.35121C5.02604 8.27562 5.0632 8.13962 5.14981 7.96099C5.31972 7.61057 5.70064 7.05344 6.56653 6.45814C8.32329 5.25037 12.0835 3.88409 20 3.88409C27.9165 3.88409 31.6767 5.25037 33.4335 6.45814C34.2994 7.05344 34.6803 7.61057 34.8502 7.96099C34.9368 8.13962 34.974 8.27562 34.9897 8.35121C34.9923 8.36382 34.9943 8.37481 34.9959 8.38409C34.9943 8.39338 34.9923 8.40437 34.9897 8.41698C34.974 8.49257 34.9368 8.62856 34.8502 8.8072C34.6803 9.15762 34.2994 9.71475 33.4335 10.3101C31.6767 11.5178 27.9165 12.8841 20 12.8841C12.0835 12.8841 8.32329 11.5178 6.56653 10.3101C5.70064 9.71475 5.31972 9.15762 5.14981 8.8072C5.0632 8.62856 5.02604 8.49257 5.01034 8.41698ZM4.07738 10.767C4.02637 11.132 4 11.505 4 11.8841V19.7518C4.01459 19.7942 4.03852 19.8565 4.0758 19.9353C4.17286 20.1404 4.3639 20.4652 4.72667 20.849C5.39273 21.5535 6.67676 22.497 9.11654 23.2359C9.34964 22.3349 9.81871 21.5088 10.4919 20.8323C11.4816 19.8375 12.7904 19.289 14.181 19.2834C15.5719 19.2777 16.8762 19.8156 17.8579 20.8024L23.8195 26.7927C25.0872 28.0235 27.1233 28.0016 28.3838 26.7349C29.6535 25.4585 29.6619 23.3945 28.4024 22.1284C27.1389 20.8592 25.0733 20.8669 23.7985 22.1469L23.1149 22.7923C23.0075 22.8937 22.839 22.8911 22.7349 22.7864L21.7334 21.7799C21.6253 21.6713 21.6281 21.495 21.7394 21.3898L22.4231 20.744C23.4128 19.7492 24.7215 19.2007 26.1124 19.195C27.503 19.1894 28.8073 19.7273 29.789 20.7141C30.5317 21.4604 31.0205 22.3939 31.2122 23.4121C33.1916 22.6821 34.3825 21.7502 35.0823 21.0024C35.4902 20.5665 35.7395 20.1844 35.8825 19.9256C35.9351 19.8304 35.9734 19.7518 36 19.6931V11.8841C36 11.505 35.9736 11.132 35.9226 10.767C35.5831 11.1587 35.1409 11.5633 34.5665 11.9581C32.3233 13.5004 28.0835 14.8841 20 14.8841C11.9165 14.8841 7.67672 13.5004 5.43347 11.9581C4.85914 11.5633 4.4169 11.1586 4.07738 10.767ZM4 23.0106V27.9988V30.4988V32.0762C4.29202 32.4131 4.71727 32.7023 5.19597 33.0279C5.27384 33.0808 5.35313 33.1348 5.43349 33.19C7.67673 34.7322 11.9165 36.116 20 36.116C28.0836 36.116 32.3233 34.7322 34.5665 33.19C35.1409 32.7952 35.6605 32.3905 36 31.9988V30.9988V27.9988V23.0168C34.9641 23.9547 33.4286 24.9347 31.1817 25.6514C30.9686 26.6292 30.4813 27.5271 29.7592 28.2527C28.7695 29.2475 27.4607 29.796 26.0701 29.8017C24.6792 29.8073 23.3749 29.2694 22.3932 28.2826L16.4322 22.2917C15.1646 21.0609 13.1278 21.0834 11.8673 22.3502C10.5976 23.6265 10.5893 25.6905 11.8487 26.9566C13.1122 28.2259 15.1778 28.2181 16.4526 26.9381L17.2511 26.1112C17.3571 26.0015 17.5325 26.0002 17.6401 26.1083L18.6415 27.1148C18.7461 27.2199 18.7474 27.3894 18.6443 27.4961L17.828 28.341C16.8383 29.3358 15.5296 29.8844 14.1387 29.89C12.7481 29.8956 11.4438 29.3577 10.4621 28.3709C9.65293 27.5579 9.14523 26.5226 8.99464 25.3977C6.6306 24.7397 5.05176 23.8696 4 23.0106Z" fill="white"/>
</svg>
