<svg width="32" height="32" viewBox="0 0 32 32" fill="none" xmlns="http://www.w3.org/2000/svg">
<path d="M16.7188 4.00001V6.83231C16.7188 7.24395 16.3851 7.57765 15.9735 7.57765C15.5619 7.57765 15.2282 7.24395 15.2282 6.83231V4.00001C15.2282 4.00001 15.2282 4.00001 15.2282 4.00001L6.98137 4C6.31284 4 5.69572 4.22003 5.19845 4.59163L8.41241 7.8056C8.70349 8.09667 8.70349 8.56859 8.41241 8.85967C8.12134 9.15074 7.64941 9.15074 7.35834 8.85967L4.26017 5.7615C4.093 6.13386 4 6.54675 4 6.98137V25.0186C4 26.3449 4.86597 27.4689 6.06332 27.856L6.31282 24.6625C6.34312 24.2745 6.66677 23.9752 7.05589 23.9752H8.53181L9.48861 13.7882C9.66844 11.8734 11.2758 10.4099 13.199 10.4099H19.1436C21.0434 10.4099 22.6391 11.839 22.8478 13.7274L23.9801 23.9752H24.646C25.0175 23.9752 25.3323 24.2488 25.384 24.6167L25.8436 27.8844C27.0889 27.5266 28 26.379 28 25.0186V6.98137C28 6.43098 27.8509 5.91543 27.5908 5.47293L24.204 8.85967C23.913 9.15074 23.441 9.15074 23.15 8.85967C22.8589 8.56859 22.8589 8.09667 23.15 7.8056L26.5392 4.41637C26.094 4.15188 25.5741 4 25.0186 4L16.7188 4.00001Z" fill="url(#paint0_linear_11522_60330)"/>
<path d="M24.3545 28L23.9981 25.4659H7.74528L7.5473 28H24.3545Z" fill="url(#paint1_linear_11522_60330)"/>
<path fill-rule="evenodd" clip-rule="evenodd" d="M21.3661 13.8911L22.4804 23.9752H10.0291L10.9728 13.9276C11.0807 12.7787 12.0451 11.9006 13.199 11.9006H19.1436C20.2835 11.9006 21.2409 12.7581 21.3661 13.8911ZM16.8199 14.882C16.8199 14.4704 16.4862 14.1367 16.0745 14.1367C15.6629 14.1367 15.3292 14.4704 15.3292 14.882V18.9068C15.3292 19.3185 15.6629 19.6522 16.0745 19.6522C16.4862 19.6522 16.8199 19.3185 16.8199 18.9068V14.882ZM16.1491 21.7391C16.5195 21.7391 16.8199 21.4388 16.8199 21.0683C16.8199 20.6979 16.5195 20.3975 16.1491 20.3975C15.7786 20.3975 15.4783 20.6979 15.4783 21.0683C15.4783 21.4388 15.7786 21.7391 16.1491 21.7391Z" fill="url(#paint2_linear_11522_60330)"/>
<defs>
<linearGradient id="paint0_linear_11522_60330" x1="6.18182" y1="5.90909" x2="24.7273" y2="24.7273" gradientUnits="userSpaceOnUse">
<stop stop-color="#FF6FAB"/>
<stop offset="1" stop-color="#CE0056"/>
</linearGradient>
<linearGradient id="paint1_linear_11522_60330" x1="6.18182" y1="5.90909" x2="24.7273" y2="24.7273" gradientUnits="userSpaceOnUse">
<stop stop-color="#FF6FAB"/>
<stop offset="1" stop-color="#CE0056"/>
</linearGradient>
<linearGradient id="paint2_linear_11522_60330" x1="6.18182" y1="5.90909" x2="24.7273" y2="24.7273" gradientUnits="userSpaceOnUse">
<stop stop-color="#FF6FAB"/>
<stop offset="1" stop-color="#CE0056"/>
</linearGradient>
</defs>
</svg>
