<svg width="24" height="24" viewBox="0 0 24 24" fill="none" xmlns="http://www.w3.org/2000/svg">
    <path fill-rule="evenodd" clip-rule="evenodd"
        d="M3.00623 5.05018C3.00466 5.04261 3.00343 5.03602 3.00249 5.03044C3.00343 5.02488 3.00466 5.01828 3.00623 5.01072C3.01565 4.96536 3.03794 4.88376 3.08991 4.77658C3.19186 4.56633 3.42041 4.23205 3.93994 3.87487C4.994 3.15021 7.25013 2.33044 12 2.33044C16.7499 2.33044 19.006 3.15021 20.0601 3.87487C20.5797 4.23205 20.8082 4.56633 20.9101 4.77658C20.9621 4.88376 20.9844 4.96536 20.9938 5.01072C20.9954 5.01828 20.9966 5.02488 20.9976 5.03044C20.9966 5.03602 20.9954 5.04261 20.9938 5.05018C20.9844 5.09553 20.9621 5.17713 20.9101 5.28431C20.8082 5.49456 20.5797 5.82884 20.0601 6.18605C19.006 6.91067 16.7499 7.73045 12 7.73045C7.25013 7.73045 4.994 6.91067 3.93994 6.18605C3.42041 5.82884 3.19186 5.49456 3.08991 5.28431C3.03794 5.17713 3.01565 5.09553 3.00623 5.05018ZM2.44645 6.46019C2.41585 6.67919 2.40002 6.90299 2.40002 7.13045V11.8511C2.40878 11.8765 2.42314 11.9139 2.4455 11.9612C2.50374 12.0842 2.61836 12.2791 2.83603 12.5094C3.23566 12.9321 4.00608 13.4982 5.46995 13.9415C5.60981 13.4009 5.89125 12.9053 6.29517 12.4994C6.88899 11.9025 7.67427 11.5734 8.50863 11.57C9.34317 11.5666 10.1257 11.8894 10.7148 12.4814L14.2917 16.0756C15.0523 16.8141 16.274 16.801 17.0303 16.0409C17.7921 15.2751 17.7972 14.0367 17.0415 13.277C16.2834 12.5155 15.044 12.5201 14.2791 13.2881L13.869 13.6754C13.8045 13.7362 13.7034 13.7347 13.641 13.6718L13.0401 13.0679C12.9752 13.0028 12.9769 12.897 13.0437 12.8339L13.4539 12.4464C14.0477 11.8495 14.8329 11.5204 15.6675 11.517C16.5018 11.5136 17.2844 11.8364 17.8734 12.4285C18.319 12.8762 18.6123 13.4363 18.7273 14.0473C19.915 13.6093 20.6295 13.0501 21.0494 12.6014C21.2941 12.3399 21.4437 12.1106 21.5295 11.9554C21.5611 11.8982 21.5841 11.8511 21.6 11.8159V7.13045C21.6 6.90299 21.5842 6.67919 21.5536 6.46019C21.3499 6.69521 21.0846 6.93797 20.7399 7.17485C19.394 8.10023 16.8501 8.93045 12 8.93045C7.14993 8.93045 4.60606 8.10023 3.26011 7.17485C2.91551 6.93797 2.65016 6.69515 2.44645 6.46019ZM2.40002 13.8064V16.7993V18.2993V19.2457C2.57524 19.4478 2.83039 19.6214 3.11761 19.8167C3.16433 19.8485 3.2119 19.8809 3.26012 19.914C4.60606 20.8393 7.14993 21.6696 12 21.6696C16.8502 21.6696 19.394 20.8393 20.7399 19.914C21.0846 19.6771 21.3963 19.4343 21.6 19.1993V18.5993V16.7993V13.8101C20.9785 14.3728 20.0572 14.9608 18.709 15.3908C18.5812 15.9775 18.2888 16.5163 17.8555 16.9516C17.2617 17.5485 16.4764 17.8776 15.6421 17.881C14.8075 17.8844 14.025 17.5616 13.4359 16.9696L9.85935 13.375C9.09878 12.6365 7.87671 12.65 7.12041 13.4101C6.35858 14.1759 6.3536 15.4143 7.10924 16.174C7.86734 16.9355 9.10671 16.9309 9.87159 16.1629L10.3507 15.6667C10.4143 15.6009 10.5195 15.6001 10.5841 15.665L11.1849 16.2689C11.2477 16.3319 11.2485 16.4336 11.1866 16.4977L10.6968 17.0046C10.103 17.6015 9.31779 17.9306 8.48324 17.934C7.64888 17.9374 6.86631 17.6146 6.27728 17.0225C5.79178 16.5347 5.48716 15.9136 5.39681 15.2386C3.97838 14.8438 3.03108 14.3218 2.40002 13.8064Z"
        fill="url(#paint0_linear_18_16)" />
    <defs>
        <linearGradient id="paint0_linear_18_16" x1="7.20003" y1="3.62592" x2="16.9044" y2="20.3134"
            gradientUnits="userSpaceOnUse">
            <stop stop-color="#62F91F" />
            <stop offset="1" stop-color="#45BD35" />
        </linearGradient>
    </defs>
</svg>