<svg width="32" height="34" viewBox="0 0 32 34" fill="none" xmlns="http://www.w3.org/2000/svg">
<path fill-rule="evenodd" clip-rule="evenodd" d="M0.357483 9.69509C-0.0598209 6.59455 -0.0754019 3.73969 0.124703 1.48664C0.175278 0.917195 0.659418 0.49707 1.23111 0.49707H30.8372C31.4393 0.49707 31.9385 0.976382 31.9611 1.57813C32.7171 21.7261 22.2845 30.7585 16.4964 32.9662C16.2228 33.0705 15.9181 33.0488 15.6552 32.9197C6.51689 28.4348 2.39469 20.0306 0.822691 12.4278L4.32876 13.0858C4.35249 14.2069 4.79212 15.3208 5.64765 16.1764C7.08278 17.6115 9.24505 17.8763 10.9485 16.9708L13.9497 19.8566C13.9651 19.8713 13.9808 19.8857 13.9967 19.8996C12.8801 21.7917 13.1346 24.269 14.76 25.8944C16.6871 27.8215 19.8116 27.8215 21.7387 25.8944C23.6658 23.9673 23.6658 20.8428 21.7387 18.9157C20.1441 17.3211 17.7297 17.046 15.8522 18.0903C15.8211 18.0529 15.7877 18.0169 15.7518 17.9824L12.7958 15.1401C13.3631 14.0961 13.4873 12.8753 13.1686 11.7538L16.2273 10.1762C16.288 10.2448 16.3512 10.312 16.4169 10.3776C18.1767 12.1375 21.03 12.1375 22.7899 10.3776C24.5498 8.61775 24.5498 5.76444 22.7899 4.00457C21.03 2.2447 18.1767 2.2447 16.4169 4.00457C15.3787 5.04275 14.9529 6.46147 15.1397 7.81174L11.7548 9.55762C9.98423 8.04765 7.32141 8.12955 5.64765 9.80331C5.4096 10.0414 5.20376 10.2994 5.03011 10.572L0.357483 9.69509ZM10.1822 11.6418C9.43772 10.8973 8.23063 10.8973 7.48612 11.6418C6.74162 12.3863 6.74162 13.5934 7.48612 14.3379C8.23063 15.0824 9.43772 15.0824 10.1822 14.3379C10.9267 13.5934 10.9267 12.3863 10.1822 11.6418ZM18.2553 5.84305C18.9998 5.09854 20.2069 5.09854 20.9514 5.84305C21.6959 6.58755 21.6959 7.79464 20.9514 8.53915C20.2069 9.28366 18.9998 9.28366 18.2553 8.53915C17.5108 7.79464 17.5108 6.58755 18.2553 5.84305ZM19.9002 20.7542C18.9885 19.8424 17.5102 19.8424 16.5985 20.7542C15.6867 21.6659 15.6867 23.1442 16.5985 24.0559C17.5102 24.9677 18.9885 24.9677 19.9002 24.0559C20.812 23.1442 20.812 21.6659 19.9002 20.7542Z" fill="url(#paint0_linear_3522_12)"/>
<defs>
<linearGradient id="paint0_linear_3522_12" x1="7.28578" y1="3.12152" x2="25.1237" y2="30.1376" gradientUnits="userSpaceOnUse">
<stop stop-color="#FF7F77"/>
<stop offset="0.0001" stop-color="#FD7A64"/>
<stop offset="1" stop-color="#E62D14"/>
</linearGradient>
</defs>
</svg>
