<svg width="24" height="24" viewBox="0 0 24 24" fill="none" xmlns="http://www.w3.org/2000/svg">
    <path fill-rule="evenodd" clip-rule="evenodd"
        d="M4.5 3.41504C4.5 3.1389 4.72386 2.91504 5 2.91504H16C16.1574 2.91504 16.3056 2.98914 16.4 3.11504L19.4 7.11504C19.4649 7.20159 19.5 7.30685 19.5 7.41504V21.415C19.5 21.6912 19.2761 21.915 19 21.915H16.8698C16.5937 21.915 16.3698 21.6912 16.3698 21.415C16.3698 21.1389 16.5937 20.915 16.8698 20.915H18.5V7.58171L15.75 3.91504H5.5V14.4471C5.5 14.7232 5.27614 14.9471 5 14.9471C4.72386 14.9471 4.5 14.7232 4.5 14.4471V3.41504Z"
        fill="#383946" />
    <path opacity="0.5" fill-rule="evenodd" clip-rule="evenodd"
        d="M8.5 9.91504C8.5 9.6389 8.72386 9.41504 9 9.41504H15C15.2761 9.41504 15.5 9.6389 15.5 9.91504C15.5 10.1912 15.2761 10.415 15 10.415H9C8.72386 10.415 8.5 10.1912 8.5 9.91504ZM8.5 12.915C8.5 12.6389 8.72386 12.415 9 12.415H15C15.2761 12.415 15.5 12.6389 15.5 12.915C15.5 13.1912 15.2761 13.415 15 13.415H9C8.72386 13.415 8.5 13.1912 8.5 12.915Z"
        fill="#383946" />
    <path
        d="M5.0046 21.5868H3.85547L5.34805 17.1631H6.7715L8.26408 21.5868H7.11495L6.07598 18.2777H6.04142L5.0046 21.5868ZM4.85124 19.8458H7.25319V20.658H4.85124V19.8458Z"
        fill="#383946" />
    <path
        d="M9.06883 21.5868V17.1631H10.8962C11.2274 17.1631 11.5133 17.2279 11.7537 17.3575C11.9957 17.4856 12.1821 17.6649 12.3132 17.8953C12.4442 18.1243 12.5098 18.3907 12.5098 18.6945C12.5098 18.9998 12.4428 19.267 12.3089 19.4959C12.1764 19.7234 11.987 19.8998 11.7408 20.0251C11.4945 20.1504 11.2022 20.213 10.8638 20.213H9.73628V19.3706H10.6651C10.8264 19.3706 10.961 19.3426 11.069 19.2864C11.1785 19.2302 11.2613 19.1517 11.3174 19.0509C11.3736 18.9487 11.4017 18.8299 11.4017 18.6945C11.4017 18.5577 11.3736 18.4397 11.3174 18.3403C11.2613 18.2395 11.1785 18.1617 11.069 18.107C10.9596 18.0523 10.8249 18.0249 10.6651 18.0249H10.138V21.5868H9.06883Z"
        fill="#383946" />
    <path d="M14.4345 17.1631V21.5868H13.3653V17.1631H14.4345Z" fill="#383946" />
</svg>