<svg width="50" height="49" viewBox="0 0 50 49" fill="none" xmlns="http://www.w3.org/2000/svg">
    <g clip-path="url(#clip0_1_56)">
        <path fill-rule="evenodd" clip-rule="evenodd"
            d="M5 5.90476C5 4.85279 5.85279 4 6.90476 4H44.0952C45.1472 4 46 4.85279 46 5.90476V14.4064H25.9555C25.8941 14.4064 25.834 14.4116 25.7755 14.4218C25.2946 11.9649 23.1299 10.1111 20.5323 10.1111C17.5815 10.1111 15.1894 12.5031 15.1894 15.4539C15.1894 18.4047 17.5815 20.7968 20.5323 20.7968C23.1299 20.7968 25.2946 18.943 25.7755 16.4862C25.834 16.4963 25.8941 16.5016 25.9555 16.5016H46V43.0952C46 44.1472 45.1472 45 44.0952 45H6.90476C5.85279 45 5 44.1472 5 43.0952V32.2508H26.6V35.321C26.6 36.7883 27.7895 37.9778 29.2569 37.9778H37.4924C38.9598 37.9778 40.1493 36.7883 40.1493 35.321V27.0854C40.1493 25.6181 38.9598 24.4286 37.4924 24.4286H29.2569C27.7895 24.4286 26.6 25.6181 26.6 27.0854V30.1556H5V5.90476ZM28.6953 27.0854C28.6953 26.7753 28.9467 26.5238 29.2569 26.5238H37.4924C37.8026 26.5238 38.054 26.7753 38.054 27.0854V35.321C38.054 35.6311 37.8026 35.8826 37.4924 35.8826H29.2569C28.9467 35.8826 28.6953 35.6311 28.6953 35.321V27.0854ZM20.5323 12.2063C18.7386 12.2063 17.2846 13.6603 17.2846 15.4539C17.2846 17.2475 18.7386 18.7015 20.5323 18.7015C22.3259 18.7015 23.7799 17.2475 23.7799 15.4539C23.7799 13.6603 22.3259 12.2063 20.5323 12.2063Z"
            fill="url(#paint0_linear_1_56)" />
    </g>
    <defs>
        <linearGradient id="paint0_linear_1_56" x1="4.47935" y1="4" x2="53.8746" y2="56.2588"
            gradientUnits="userSpaceOnUse">
            <stop stop-color="#00E9DB" />
            <stop offset="1" stop-color="#249789" />
        </linearGradient>
        <clipPath id="clip0_1_56">
            <rect width="41" height="41" fill="white" transform="translate(5 4)" />
        </clipPath>
    </defs>
</svg>