<svg width="30" height="34" viewBox="0 0 30 34" fill="none" xmlns="http://www.w3.org/2000/svg">
<path fill-rule="evenodd" clip-rule="evenodd" d="M22.331 13.91C22.8402 14.4192 23.6659 14.4192 24.1751 13.91C24.6843 13.4008 24.6843 12.5751 24.1751 12.0659L17.4571 5.34785L25.5913 0.651559C27.4936 -0.446727 29.8714 0.926131 29.8714 3.1227L29.8714 17.475L20.0387 19.8273C19.3382 19.9949 18.9063 20.6985 19.0739 21.3989C19.2414 22.0994 19.9451 22.5313 20.6455 22.3637L29.8714 20.1565V30.8773C29.8714 33.0738 27.4936 34.4467 25.5913 33.3484L14.2744 26.8146L15.8579 15.378C15.9567 14.6646 15.4585 14.0063 14.7451 13.9075C14.0317 13.8087 13.3733 14.3069 13.2746 15.0203L11.8364 25.407L1.55513 19.4711C-0.347154 18.3728 -0.347153 15.6271 1.55513 14.5288L15.1188 6.69784L22.331 13.91Z" fill="url(#paint0_linear_3522_66)"/>
<defs>
<linearGradient id="paint0_linear_3522_66" x1="11.7339" y1="5.48097" x2="29.8593" y2="33.6471" gradientUnits="userSpaceOnUse">
<stop stop-color="#FF61A2"/>
<stop offset="1" stop-color="#D8005A"/>
</linearGradient>
</defs>
</svg>
