<svg width="24" height="24" viewBox="0 0 24 24" fill="none" xmlns="http://www.w3.org/2000/svg">
<path d="M12.5391 3.00001V5.12423C12.5391 5.43296 12.2889 5.68324 11.9801 5.68324C11.6714 5.68324 11.4211 5.43296 11.4211 5.12423V3.00001C11.4211 3.00001 11.4211 3.00001 11.4211 3.00001L5.23602 3C4.73463 3 4.27179 3.16503 3.89884 3.44373L6.30931 5.8542C6.52761 6.0725 6.52761 6.42645 6.30931 6.64475C6.091 6.86306 5.73706 6.86306 5.51875 6.64475L3.19513 4.32113C3.06975 4.6004 3 4.91007 3 5.23602V18.764C3 19.7587 3.64948 20.6016 4.54749 20.892L4.73461 18.4968C4.75734 18.2059 5.00008 17.9814 5.29192 17.9814H6.39886L7.11645 10.3411C7.25133 8.90505 8.45684 7.80746 9.89924 7.80746H14.3577C15.7826 7.80746 16.9794 8.87928 17.1358 10.2955L17.9851 17.9814H18.4845C18.7631 17.9814 18.9992 18.1866 19.038 18.4625L19.3827 20.9133C20.3166 20.6449 21 19.7843 21 18.764V5.23602C21 4.82324 20.8881 4.43658 20.6931 4.10469L18.153 6.64475C17.9347 6.86306 17.5808 6.86306 17.3625 6.64475C17.1442 6.42645 17.1442 6.0725 17.3625 5.8542L19.9044 3.31228C19.5705 3.11391 19.1805 3 18.764 3L12.5391 3.00001Z" fill="url(#paint0_linear_12164_194846)"/>
<path d="M18.2658 21L17.9986 19.0994H5.80896L5.66047 21H18.2658Z" fill="url(#paint1_linear_12164_194846)"/>
<path fill-rule="evenodd" clip-rule="evenodd" d="M16.0246 10.4183L16.8603 17.9814H7.52179L8.22957 10.4457C8.3105 9.58403 9.0338 8.92547 9.89924 8.92547H14.3577C15.2126 8.92547 15.9307 9.56857 16.0246 10.4183ZM12.6149 11.1615C12.6149 10.8528 12.3646 10.6025 12.0559 10.6025C11.7472 10.6025 11.4969 10.8528 11.4969 11.1615V14.1801C11.4969 14.4889 11.7472 14.7391 12.0559 14.7391C12.3646 14.7391 12.6149 14.4889 12.6149 14.1801V11.1615ZM12.1118 16.3044C12.3897 16.3044 12.6149 16.0791 12.6149 15.8012C12.6149 15.5234 12.3897 15.2981 12.1118 15.2981C11.8339 15.2981 11.6087 15.5234 11.6087 15.8012C11.6087 16.0791 11.8339 16.3044 12.1118 16.3044Z" fill="url(#paint2_linear_12164_194846)"/>
<defs>
<linearGradient id="paint0_linear_12164_194846" x1="4.63636" y1="4.43182" x2="18.5455" y2="18.5455" gradientUnits="userSpaceOnUse">
<stop stop-color="#FF6FAB"/>
<stop offset="1" stop-color="#CE0056"/>
</linearGradient>
<linearGradient id="paint1_linear_12164_194846" x1="4.63636" y1="4.43182" x2="18.5455" y2="18.5455" gradientUnits="userSpaceOnUse">
<stop stop-color="#FF6FAB"/>
<stop offset="1" stop-color="#CE0056"/>
</linearGradient>
<linearGradient id="paint2_linear_12164_194846" x1="4.63636" y1="4.43182" x2="18.5455" y2="18.5455" gradientUnits="userSpaceOnUse">
<stop stop-color="#FF6FAB"/>
<stop offset="1" stop-color="#CE0056"/>
</linearGradient>
</defs>
</svg>
