<svg width="24" height="25" viewBox="0 0 24 25" fill="none" xmlns="http://www.w3.org/2000/svg">
    <path d="M5 3.88596H16L19 7.88596V21.886H5V3.88596Z" stroke="#383946" stroke-linecap="round"
        stroke-linejoin="round" />
    <g opacity="0.3">
        <mask id="path-2-inside-1_2417_101092" fill="white">
            <path fill-rule="evenodd" clip-rule="evenodd"
                d="M9 9.88596C8.72386 9.88596 8.5 10.1098 8.5 10.386C8.5 10.6621 8.72386 10.886 9 10.886H15C15.2761 10.886 15.5 10.6621 15.5 10.386C15.5 10.1098 15.2761 9.88596 15 9.88596H9ZM8.5 13.386C8.5 13.1098 8.72386 12.886 9 12.886H15C15.2761 12.886 15.5 13.1098 15.5 13.386C15.5 13.6621 15.2761 13.886 15 13.886H9C8.72386 13.886 8.5 13.6621 8.5 13.386ZM8.5 16.386C8.5 16.1098 8.72386 15.886 9 15.886H15C15.2761 15.886 15.5 16.1098 15.5 16.386C15.5 16.6621 15.2761 16.886 15 16.886H9C8.72386 16.886 8.5 16.6621 8.5 16.386Z" />
        </mask>
        <path
            d="M9.5 10.386C9.5 10.6621 9.27614 10.886 9 10.886V8.88596C8.17157 8.88596 7.5 9.55753 7.5 10.386H9.5ZM9 9.88596C9.27614 9.88596 9.5 10.1098 9.5 10.386H7.5C7.5 11.2144 8.17157 11.886 9 11.886V9.88596ZM15 9.88596H9V11.886H15V9.88596ZM14.5 10.386C14.5 10.1098 14.7239 9.88596 15 9.88596V11.886C15.8284 11.886 16.5 11.2144 16.5 10.386H14.5ZM15 10.886C14.7239 10.886 14.5 10.6621 14.5 10.386H16.5C16.5 9.55753 15.8284 8.88596 15 8.88596V10.886ZM9 10.886H15V8.88596H9V10.886ZM9 11.886C8.17157 11.886 7.5 12.5575 7.5 13.386H9.5C9.5 13.6621 9.27614 13.886 9 13.886V11.886ZM15 11.886H9V13.886H15V11.886ZM16.5 13.386C16.5 12.5575 15.8284 11.886 15 11.886V13.886C14.7239 13.886 14.5 13.6621 14.5 13.386H16.5ZM15 14.886C15.8284 14.886 16.5 14.2144 16.5 13.386H14.5C14.5 13.1098 14.7239 12.886 15 12.886V14.886ZM9 14.886H15V12.886H9V14.886ZM7.5 13.386C7.5 14.2144 8.17157 14.886 9 14.886V12.886C9.27614 12.886 9.5 13.1098 9.5 13.386H7.5ZM9 14.886C8.17157 14.886 7.5 15.5575 7.5 16.386H9.5C9.5 16.6621 9.27614 16.886 9 16.886V14.886ZM15 14.886H9V16.886H15V14.886ZM16.5 16.386C16.5 15.5575 15.8284 14.886 15 14.886V16.886C14.7239 16.886 14.5 16.6621 14.5 16.386H16.5ZM15 17.886C15.8284 17.886 16.5 17.2144 16.5 16.386H14.5C14.5 16.1098 14.7239 15.886 15 15.886V17.886ZM9 17.886H15V15.886H9V17.886ZM7.5 16.386C7.5 17.2144 8.17157 17.886 9 17.886V15.886C9.27614 15.886 9.5 16.1098 9.5 16.386H7.5Z"
            fill="#383946" mask="url(#path-2-inside-1_2417_101092)" />
    </g>
</svg>