<?xml version="1.0" encoding="UTF-8"?>
<svg xmlns="http://www.w3.org/2000/svg" xmlns:xlink="http://www.w3.org/1999/xlink" width="40px" height="40px" viewBox="0 0 40 40" version="1.1">
<defs>
<linearGradient id="linear0" gradientUnits="userSpaceOnUse" x1="43.2938" y1="12.6196" x2="154.399994" y2="124.314003" gradientTransform="matrix(0.25,0,0,0.25,0,0)">
<stop offset="0" style="stop-color:rgb(34.901961%,57.254902%,100%);stop-opacity:1;"/>
<stop offset="1" style="stop-color:rgb(0%,30.980392%,90.196078%);stop-opacity:1;"/>
</linearGradient>
</defs>
<g id="surface1">
<path style=" stroke:none;fill-rule:nonzero;fill:url(#linear0);" d="M 19.375 0.183594 C 19.804688 -0.0703125 20.335938 -0.0585938 20.761719 0.203125 C 25.722656 3.207031 31.972656 5.351562 35.429688 5.925781 C 36.09375 6.039062 36.628906 6.585938 36.652344 7.257812 C 36.863281 13.042969 36.191406 17.945312 34.980469 22.0625 L 34.558594 23.3125 L 33.613281 25.878906 C 30.113281 34.132812 24.394531 38.441406 20.574219 39.921875 C 20.253906 40.042969 19.894531 40.019531 19.585938 39.867188 C 4.96875 32.65625 2.695312 15.8125 3.429688 7.199219 C 3.488281 6.546875 4.035156 6.0625 4.691406 6 C 10.351562 5.441406 16.386719 1.9375 19.375 0.183594 Z M 20 7.125 C 19.515625 7.125 19.125 7.515625 19.125 8 C 19.125 11.371094 18.398438 13.542969 17.039062 14.890625 C 15.71875 16.199219 13.636719 16.898438 10.488281 16.941406 L 10.183594 16.945312 L 10.136719 16.945312 C 9.675781 16.96875 9.308594 17.351562 9.308594 17.820312 C 9.308594 18.300781 9.699219 18.691406 10.183594 18.695312 C 13.496094 18.695312 15.671875 19.414062 17.035156 20.773438 C 18.398438 22.136719 19.125 24.3125 19.125 27.636719 C 19.125 28.121094 19.515625 28.511719 20 28.511719 C 20.46875 28.511719 20.851562 28.144531 20.875 27.679688 L 20.875 27.328125 C 20.921875 24.175781 21.636719 22.089844 22.957031 20.773438 C 24.316406 19.414062 26.492188 18.695312 29.816406 18.695312 C 30.300781 18.695312 30.691406 18.300781 30.691406 17.820312 C 30.691406 17.335938 30.300781 16.945312 29.816406 16.945312 C 26.484375 16.945312 24.3125 16.242188 22.953125 14.890625 C 21.597656 13.542969 20.875 11.371094 20.875 8 C 20.875 7.515625 20.484375 7.125 20 7.125 Z M 19.996094 13.472656 C 20.410156 14.503906 20.976562 15.394531 21.71875 16.132812 C 22.457031 16.867188 23.339844 17.421875 24.359375 17.824219 C 23.339844 18.234375 22.457031 18.800781 21.71875 19.535156 C 20.976562 20.28125 20.410156 21.167969 19.996094 22.199219 C 19.585938 21.167969 19.015625 20.277344 18.273438 19.535156 C 17.535156 18.800781 16.652344 18.234375 15.632812 17.824219 C 16.652344 17.421875 17.53125 16.867188 18.269531 16.132812 C 19.015625 15.394531 19.585938 14.503906 19.996094 13.472656 Z M 19.996094 13.472656 "/>
</g>
</svg>
