<svg width="17" height="16" viewBox="0 0 17 16" fill="none" xmlns="http://www.w3.org/2000/svg">
    <path
        d="M5.70529 1.03985C4.23585 0.791014 2.83458 1.73332 2.57548 3.14456L1.25274 10.349C0.993636 11.7602 1.97481 13.106 3.44426 13.3548L7.40737 14.0259C7.46445 14.0356 7.50716 13.9766 7.47782 13.9286L3.75318 7.82808C3.59879 7.5935 3.60093 7.13685 3.7794 7.02805C3.82027 7.00281 3.94171 6.89855 3.94171 6.89855L4.14925 6.68059L4.18332 6.64467C4.37586 6.44144 4.5498 6.2578 5.09948 5.99353L5.21777 5.95399C6.02404 5.71213 6.47237 5.7296 6.92076 5.74707C7.36929 5.76454 7.81792 5.78204 8.62501 5.53995C9.28736 5.34126 9.88974 4.95105 10.2255 4.70638C10.3746 4.59778 10.5947 4.62949 10.6937 4.78191L13.0869 8.4623C13.1613 8.57678 13.1427 8.72483 13.034 8.81029C12.7755 9.01336 12.2529 9.3713 11.5587 9.57956C10.7524 9.82142 10.2924 9.81091 9.83242 9.80042C9.37223 9.78991 8.91197 9.77943 8.10488 10.0215C7.37276 10.2411 7.09389 10.5332 7.00804 10.6482C6.9925 10.669 6.98206 10.7129 6.99485 10.7354C7.16563 11.0357 8.21925 12.8164 9.02737 14.1804C9.07745 14.2649 9.16405 14.3234 9.26373 14.3403L10.9459 14.6251C12.4153 14.874 13.8166 13.9317 14.0757 12.5204L15.3984 5.31602C15.6575 3.90478 14.6764 2.55903 13.2069 2.31019L5.70529 1.03985Z"
        fill="url(#paint0_linear_8_8)" />
    <path
        d="M8.83657 6.53718C8.158 6.7072 7.7468 6.69483 7.33567 6.68242C6.92468 6.67005 6.51376 6.65767 5.83586 6.82753C5.43851 6.93819 5.21105 7.13339 4.99294 7.38237C4.9743 7.40363 4.97209 7.434 4.98716 7.45774L6.31475 9.54802C6.33665 9.5825 6.38564 9.59034 6.41879 9.56549C6.58703 9.43942 7.08118 9.0996 7.71222 8.94149C8.47688 8.74988 8.93459 8.75416 9.41657 8.75863C9.78983 8.76213 10.1776 8.76575 10.7339 8.6786C11.107 8.62015 11.4115 8.46443 11.5813 8.36079C11.6676 8.30809 11.6862 8.19958 11.6307 8.11707L10.3075 6.14998C10.2456 6.058 10.1155 6.03227 10.0163 6.08621C9.7986 6.20451 9.38968 6.39857 8.83657 6.53718Z"
        fill="url(#paint1_linear_8_8)" />
    <defs>
        <linearGradient id="paint0_linear_8_8" x1="4.45083" y1="2.10228" x2="11.767" y2="13.833"
            gradientUnits="userSpaceOnUse">
            <stop stop-color="#FFC100" />
            <stop offset="1" stop-color="#E66B35" />
        </linearGradient>
        <linearGradient id="paint1_linear_8_8" x1="4.45084" y1="2.10229" x2="11.767" y2="13.833"
            gradientUnits="userSpaceOnUse">
            <stop stop-color="#FFC100" />
            <stop offset="1" stop-color="#E66B35" />
        </linearGradient>
    </defs>
</svg>