<svg width="24" height="24" viewBox="0 0 24 24" fill="none" xmlns="http://www.w3.org/2000/svg">
<path fill-rule="evenodd" clip-rule="evenodd" d="M18.0719 19.9133H18.055L5.18749 19.9132C2.85422 19.9132 0.962769 17.9372 0.962769 15.4996C0.962769 13.3613 2.41844 11.5782 4.35106 11.1726C4.39055 11.1643 4.41929 11.1281 4.41929 11.086C4.41929 7.0973 7.51453 3.86378 11.3327 3.86378C14.6541 3.86378 17.4284 6.31048 18.0942 9.57265C18.1308 9.75202 18.2784 9.8844 18.4534 9.89943C20.9185 10.1109 22.856 12.268 22.856 14.8979C22.856 17.6002 20.8101 19.8034 18.2481 19.9093L18.2463 19.9113L18.2443 19.9133H18.0719ZM9.54383 17.4696C9.54383 17.0808 9.8509 16.7656 10.2297 16.7656H14.284C14.6628 16.7656 14.9699 17.0808 14.9699 17.4696C14.9699 17.8583 14.6628 18.1735 14.284 18.1735H10.2297C9.8509 18.1735 9.54383 17.8583 9.54383 17.4696ZM10.6964 8.16941C10.4188 7.90484 9.98487 7.92132 9.72715 8.20623C9.46937 8.49114 9.48543 8.93652 9.76303 9.20103L12.3751 11.6904L9.76303 14.1797C9.48543 14.4442 9.46937 14.8896 9.72715 15.1745C9.98487 15.4594 10.4188 15.4759 10.6964 15.2113L13.8497 12.2062C13.9895 12.073 14.0689 11.8861 14.0689 11.6904C14.0689 11.4946 13.9895 11.3077 13.8497 11.1745L10.6964 8.16941Z" fill="url(#paint0_linear_25_17)"/>
<defs>
<linearGradient id="paint0_linear_25_17" x1="4.58466" y1="5.92498" x2="14.5139" y2="20.9678" gradientUnits="userSpaceOnUse">
<stop stop-color="#4791FF"/>
<stop offset="1" stop-color="#2E1CF3"/>
</linearGradient>
</defs>
</svg>
