<svg width="31" height="38" viewBox="0 0 31 38" fill="none" xmlns="http://www.w3.org/2000/svg">
<path fill-rule="evenodd" clip-rule="evenodd" d="M14.9205 0.307251C12.1437 1.93692 6.54142 5.19098 1.28373 5.70757C0.675666 5.76732 0.164796 6.21561 0.112763 6.82439C-0.570667 14.8204 1.54216 30.4611 15.1166 37.1586C15.4025 37.2997 15.7358 37.3228 16.0332 37.2078C19.7599 35.7662 25.4336 31.4274 28.6177 22.9889L22.4092 20.387C22.3725 20.3716 22.3368 20.3547 22.3024 20.3363C21.4855 21.6614 20.2401 22.7367 18.6712 23.3294C14.9003 24.7541 10.6885 22.8522 9.26374 19.0813C7.83901 15.3104 9.74095 11.0985 13.5118 9.6738C17.2827 8.24907 21.4946 10.151 22.9193 13.9219C23.4358 15.2889 23.5151 16.7139 23.2267 18.043C23.275 18.0567 23.323 18.0734 23.3705 18.0933L29.4096 20.6242C30.5352 16.8007 31.1602 12.2477 30.9644 6.8784C30.9416 6.25278 30.4444 5.74458 29.8269 5.64167C26.6178 5.10691 20.8121 3.11639 16.2079 0.325747C15.8121 0.0858423 15.3197 0.0729801 14.9205 0.307251ZM14.3908 12.0003C11.9048 12.9396 10.651 15.7163 11.5902 18.2023C12.5295 20.6883 15.3062 21.9422 17.7922 21.0029C20.2782 20.0636 21.5321 17.2869 20.5929 14.8009C19.6536 12.3149 16.8769 11.061 14.3908 12.0003Z" fill="url(#paint0_linear_3522_32)"/>
<defs>
<linearGradient id="paint0_linear_3522_32" x1="5.11489" y1="4.43413" x2="26.3815" y2="32.2215" gradientUnits="userSpaceOnUse">
<stop stop-color="#4791FF"/>
<stop offset="1" stop-color="#2E1CF3"/>
</linearGradient>
</defs>
</svg>
