<svg width="40" height="40" viewBox="0 0 40 40" fill="none" xmlns="http://www.w3.org/2000/svg">
<path d="M15.286 3.55658C17.8893 0.953376 22.1102 0.953567 24.7137 3.55658L36.4432 15.2861C39.0466 17.8895 39.0466 22.1103 36.4432 24.7138L24.7137 36.4433C22.1102 39.0466 17.8894 39.0467 15.286 36.4433L3.55649 24.7138C0.953495 22.1103 0.953346 17.8894 3.55649 15.2861L15.286 3.55658ZM19.9998 9.03998C16.6864 9.04013 14 11.7265 13.9998 15.04V15.79C11.1623 16.2662 8.99987 18.7341 8.99985 21.707C8.99985 25.0206 11.6863 27.7068 14.9998 27.707H19.9998C20.5521 27.707 20.9998 27.2593 20.9998 26.707C20.9998 26.1547 20.5521 25.707 19.9998 25.707H14.9998C12.7908 25.7068 10.9998 23.916 10.9998 21.707C10.9999 19.4979 12.7909 17.7071 14.9998 17.707H24.9998C26.8637 17.707 28.4298 18.9818 28.8739 20.707H21.6747C21.3175 20.1611 20.7008 19.8007 19.9998 19.8007C18.8954 19.8009 17.9998 20.6962 17.9998 21.8007C18.0001 22.905 18.8956 23.8006 19.9998 23.8007C20.7777 23.8007 21.4503 23.3554 21.7811 22.707H28.8739C28.4298 24.4322 26.8637 25.707 24.9998 25.707H24.1668C23.6146 25.707 23.1669 26.1547 23.1668 26.707C23.1668 27.2593 23.6146 27.707 24.1668 27.707H24.9998C28.3136 27.707 30.9998 25.0207 30.9998 21.707C30.9998 18.734 28.8375 16.2661 25.9998 15.79V15.04C25.9996 11.7264 23.3134 9.03998 19.9998 9.03998ZM19.9998 11.04C22.2089 11.04 23.9996 12.831 23.9998 15.04V15.707H15.9998V15.04C16 12.8311 17.791 11.0401 19.9998 11.04Z" fill="url(#paint0_linear_5304_130)"/>
<defs>
<linearGradient id="paint0_linear_5304_130" x1="11.7761" y1="7.40003" x2="32.1984" y2="31.9996" gradientUnits="userSpaceOnUse">
<stop stop-color="#6CB5FF"/>
<stop offset="1" stop-color="#4D4AFF"/>
</linearGradient>
</defs>
</svg>
