<svg width="50" height="49" viewBox="0 0 50 49" fill="none" xmlns="http://www.w3.org/2000/svg">
    <path fill-rule="evenodd" clip-rule="evenodd"
        d="M9.00039 13.1065L9.40032 37.2438C9.41899 38.2534 10.1094 39.1142 11.131 39.4017L37.5524 45.5837C39.2436 46.0596 41.0124 44.7991 40.9999 43.1268L40.7189 5.28432C40.7069 3.6689 39.0317 2.59686 37.3753 3.14462L10.835 10.6678C9.7291 11.0335 8.98046 12.0287 9.00039 13.1065ZM14.497 21.7837C14.497 21.2298 14.946 20.7808 15.4998 20.7808H18.1913V16.8483C18.1913 16.0555 18.7243 15.3617 19.4903 15.1574L27.0323 13.1462V10.8152C27.0323 10.2614 27.4812 9.81239 28.0351 9.81239H34.3027C34.8566 9.81239 35.3056 10.2614 35.3056 10.8152V17.0829C35.3056 17.6367 34.8566 18.0857 34.3027 18.0857H28.0351C27.4812 18.0857 27.0323 17.6367 27.0323 17.0829V14.6986L19.8768 16.6067C19.7674 16.6359 19.6913 16.735 19.6913 16.8483V20.7808H21.7675C22.3213 20.7808 22.7703 21.2298 22.7703 21.7837V28.0513C22.7703 28.6052 22.3213 29.0541 21.7675 29.0541H19.6913V32.8612C19.6913 32.9745 19.7674 33.0736 19.8768 33.1028L27.0323 35.0109V32.7519C27.0323 32.1981 27.4812 31.7491 28.0351 31.7491H34.3027C34.8566 31.7491 35.3056 32.1981 35.3056 32.7519V39.0196C35.3056 39.5734 34.8566 40.0224 34.3027 40.0224H28.0351C27.4812 40.0224 27.0323 39.5734 27.0323 39.0196V36.5633L19.4903 34.5521C18.7243 34.3479 18.1913 33.6541 18.1913 32.8612V29.0541H15.4998C14.946 29.0541 14.497 28.6052 14.497 28.0513V21.7837ZM16.5026 22.7865V27.0485H20.7646V22.7865H16.5026ZM29.0379 16.08V11.818H33.2999V16.08H29.0379ZM27.0323 21.7837C27.0323 21.2298 27.4812 20.7808 28.0351 20.7808H34.3027C34.8566 20.7808 35.3056 21.2298 35.3056 21.7837V28.0513C35.3056 28.6052 34.8566 29.0541 34.3027 29.0541H28.0351C27.4812 29.0541 27.0323 28.6052 27.0323 28.0513V21.7837ZM29.0379 22.7865V27.0485H33.2999V22.7865H29.0379ZM29.0379 38.0168V33.7548H33.2999V38.0168H29.0379Z"
        fill="url(#paint0_linear_3_274)" />
    <defs>
        <linearGradient id="paint0_linear_3_274" x1="13.6446" y1="3" x2="38.4402" y2="41.2007"
            gradientUnits="userSpaceOnUse">
            <stop stop-color="#C7E747" />
            <stop offset="0.828125" stop-color="#31CD1B" />
        </linearGradient>
    </defs>
</svg>