<svg width="468" height="145" viewBox="0 0 468 145" fill="none" xmlns="http://www.w3.org/2000/svg">
<path d="M85.2769 50.1902C84.6644 52.0172 83.6719 53.7039 82.3603 55.1468L74.8724 62.3819L60.3929 48.3914L74.8724 34.4009L82.3603 41.4961C83.6722 42.5116 84.6475 43.8761 85.1658 45.4212C85.6841 46.9662 85.7227 48.6241 85.2769 50.1902ZM48.044 82.3483C46.1982 81.7336 44.5018 80.761 43.0589 79.4902L35.5917 72.2752L50.0711 58.2847L64.5506 72.2752L57.0419 79.5302C55.9909 80.7978 54.5787 81.7402 52.9797 82.241C51.3806 82.7418 49.6648 82.7791 48.044 82.3483ZM14.7413 46.3727C15.3633 44.5413 16.3704 42.8538 17.6992 41.4161L25.1871 34.201L39.6666 48.1915L25.1871 62.182L17.6785 54.9269C16.3655 53.9074 15.3884 52.5402 14.8667 50.9926C14.3451 49.445 14.3015 47.784 14.7413 46.2129V46.3727ZM51.9741 14.0547C53.8787 14.6495 55.6332 15.6231 57.1247 16.9128L64.5919 24.1279L50.1125 38.1184L35.633 24.1279L43.0589 17.0727C44.1099 15.8051 45.5222 14.8627 47.1212 14.3619C48.7203 13.8611 50.4361 13.8238 52.0569 14.2546L51.9741 14.0547ZM92.7028 31.6028L67.343 7.17938C64.3731 4.49668 60.848 2.45308 57.0006 1.18345C48.375 -1.59466 39.8114 0.563876 32.8613 7.17938L7.48083 31.6028C4.70538 34.4732 2.59049 37.879 1.27535 41.596C-1.59985 49.9303 0.63412 58.2247 7.48083 64.9401L32.7165 89.4235C35.6732 92.1513 39.1996 94.2365 43.0589 95.5394C45.4119 96.3074 47.8772 96.7055 50.3607 96.7186C53.5303 96.6565 56.6545 95.9786 59.5472 94.7253C62.4399 93.472 65.0419 91.6689 67.1982 89.4235L92.7028 65.0201C95.5164 62.1598 97.6671 58.7531 99.0117 55.0269C101.887 46.6925 99.6322 38.3982 92.7028 31.7027" fill="white"/>
<path d="M446.416 46.2138H458.827C458.665 42.1937 456.962 38.3753 454.049 35.5011C450.119 31.5038 443.603 29.5052 437.191 29.5052C431.274 29.2837 425.473 31.1284 420.85 34.7016C419.08 36.1285 417.666 37.9226 416.714 39.9504C415.761 41.9781 415.294 44.1874 415.347 46.4137C415.407 49.7769 416.68 53.0144 418.945 55.5683C421.211 58.1222 424.328 59.8324 427.758 60.4042C432.516 61.4035 437.894 61.7033 442.651 62.4028C444.107 62.4748 445.479 63.0861 446.48 64.1097C447.482 65.1333 448.037 66.4904 448.029 67.8991C448.029 73.5952 441.41 74.4946 437.067 74.4946C434.144 74.7151 431.239 73.8979 428.896 72.1962C427.46 70.9675 426.497 69.3047 426.166 67.4794H413.982C414.481 71.5785 416.467 75.3742 419.588 78.1921C424.348 82.3047 430.583 84.4565 436.963 84.188C444.306 84.188 451.029 82.3693 455.373 78.1921C456.914 76.7021 458.123 74.9222 458.923 72.9626C459.724 71.003 460.099 68.9054 460.027 66.7998C460.027 58.6054 453.821 53.4089 445.34 52.1098C440.066 51.3104 438.721 51.2104 433.86 50.6108C430.964 50.2111 427.655 49.1118 427.655 45.3944C427.688 44.1814 428.101 43.0066 428.84 42.0252C429.578 41.0439 430.608 40.3022 431.792 39.8981C433.573 39.2503 435.477 38.9778 437.377 39.0987C439.948 39.0252 442.456 39.8803 444.41 41.497C445.657 42.7768 446.371 44.4564 446.416 46.2138ZM377.887 45.1945C377.92 43.9815 378.333 42.8067 379.072 41.8254C379.81 40.844 380.84 40.1023 382.024 39.6982C383.805 39.0505 385.709 38.7779 387.609 38.8988C390.185 38.8337 392.696 39.6874 394.662 41.2972C395.981 42.6181 396.721 44.3789 396.731 46.2138H409.142C408.988 42.196 407.292 38.3773 404.384 35.5011C400.454 31.5038 394.042 29.5052 387.505 29.5052C381.589 29.2837 375.788 31.1284 371.164 34.7016C369.423 36.1247 368.032 37.906 367.094 39.9151C366.157 41.9242 365.696 44.1103 365.745 46.3137C365.801 49.678 367.072 52.9176 369.338 55.4723C371.605 58.027 374.723 59.7361 378.156 60.3042C382.913 61.3036 388.291 61.6034 393.07 62.3029C394.526 62.3748 395.897 62.9861 396.899 64.0097C397.9 65.0333 398.455 66.3905 398.448 67.7991C398.448 73.4953 391.808 74.3947 387.464 74.3947C384.507 74.6401 381.561 73.8216 379.19 72.0962C377.762 70.8616 376.801 69.2016 376.46 67.3794H364.276C364.808 71.44 366.791 75.1936 369.882 77.9922C374.642 82.1048 380.878 84.2566 387.257 83.9882C394.6 83.9882 401.344 82.1694 405.687 77.9922C407.225 76.4994 408.431 74.719 409.231 72.7601C410.031 70.8012 410.409 68.705 410.342 66.6C410.342 58.4055 404.136 53.2091 395.635 51.91C390.36 51.1105 389.015 51.0106 384.154 50.411C381.259 50.0112 377.949 48.912 377.949 45.1945H377.887ZM360.574 57.1864C361.109 50.8215 359.474 44.4621 355.919 39.0787C353.752 36.0036 350.812 33.5104 347.375 31.8325C343.938 30.1546 340.117 29.347 336.269 29.4852C333.09 29.3969 329.926 29.9363 326.97 31.0704C324.015 32.2044 321.33 33.9093 319.08 36.0807C313.908 41.1772 311.323 48.5922 311.323 56.8866C311.167 60.7127 311.82 64.5295 313.243 68.1034C314.665 71.6773 316.827 74.9333 319.597 77.6724C321.844 79.7784 324.504 81.4305 327.42 82.5321C330.335 83.6336 333.449 84.1626 336.579 84.0881C339.967 84.2294 343.345 83.6471 346.474 82.3828C349.602 81.1184 352.404 79.203 354.678 76.7731C357.033 74.0121 358.602 70.7054 359.229 67.1796H346.818C346.386 68.8449 345.492 70.365 344.233 71.5766C343.181 72.5081 341.936 73.2126 340.581 73.6434C339.225 74.0741 337.791 74.2212 336.372 74.0749C333.385 74.0644 330.523 72.9152 328.409 70.8771C327.07 69.5252 326.029 67.9247 325.35 66.1725C324.671 64.4203 324.367 62.553 324.458 60.684H360.367C360.367 59.5847 360.367 57.1864 360.367 57.1864H360.574ZM347.439 51.5902H324.375C324.305 48.6544 325.292 45.7862 327.167 43.4757C328.241 42.1775 329.613 41.14 331.176 40.4459C332.738 39.7518 334.447 39.4205 336.165 39.4784C337.668 39.4003 339.172 39.6266 340.579 40.1429C341.986 40.6592 343.265 41.454 344.336 42.4764C346.558 45.0193 347.736 48.2629 347.646 51.5902H347.439ZM292.231 82.769H305.179V48.0126C305.179 37.1999 298.457 29.4052 286.956 29.4052C283.822 29.2657 280.706 29.9323 277.926 31.3368C275.146 32.7413 272.801 34.8335 271.132 37.3998L270.201 30.7044H259.341V82.6691H272.27V61.5034C272.27 57.1064 272.27 51.7101 274.028 47.5129C275.786 43.3158 278.785 40.8974 283.336 40.8974C290.162 40.8974 292.231 44.5949 292.231 50.7108V82.769ZM251.295 41.8368C251.987 41.8451 252.677 41.8918 253.364 41.9767V30.1248C252.805 30.1248 252.247 30.0048 251.688 30.0048C245.379 30.0048 238.967 32.5031 236.464 38.4991L235.347 30.7044H224.363V82.6691H237.498V56.5068C237.498 48.1125 242.256 41.7968 251.357 41.7968L251.295 41.8368ZM210.608 83.5085C212.834 83.5775 215.041 83.0959 217.02 82.1094V72.8957C216.477 73.0191 215.923 73.0861 215.365 73.0956C213.297 73.0956 212.366 72.1962 212.366 69.7978V50.5109C212.527 46.944 212.001 43.3793 210.815 39.998C207.691 32.2033 199.831 29.4052 190.626 29.4052C178.629 29.4052 169.01 34.6017 168.266 46.3137H180.801C181.111 41.497 184.628 38.8988 190.626 38.8988C197.969 38.8988 199.728 42.1965 199.728 47.1132V50.311L183.904 51.4103C173.561 52.1098 165.68 57.806 165.68 67.6992C165.68 76.1935 172.32 84.0081 185.145 84.0081C192.798 84.0081 199.004 80.3906 201.486 76.1935C201.716 78.3224 202.8 80.2796 204.504 81.6467C206.209 83.0137 208.4 83.6819 210.608 83.5085ZM199.728 62.0031C199.728 69.6979 194.039 73.9949 185.972 73.9949C185.024 74.0711 184.071 73.962 183.168 73.674C182.265 73.386 181.431 72.925 180.717 72.3187C180.002 71.7123 179.422 70.973 179.01 70.145C178.598 69.317 178.363 68.4171 178.319 67.4994C178.319 63.3022 182.145 61.0038 186.075 60.704L199.728 59.7047V62.0031ZM147.105 82.689H160.157V47.7128C160.157 36.9201 153.373 28.9655 141.789 28.9655C138.935 28.9078 136.107 29.5 133.534 30.6945C130.961 31.8889 128.715 33.652 126.979 35.8409V9.85852H113.926V82.689H126.979V55.0678C126.979 48.6122 130.309 40.5577 138.148 40.5577C145.016 40.5577 147.105 44.2751 147.105 50.331V82.689Z" fill="white"/>
<path d="M141.864 120.767C141.864 123.902 141.277 126.586 140.102 128.821C138.938 131.046 137.347 132.751 135.33 133.935C133.322 135.118 131.045 135.71 128.497 135.71C125.95 135.71 123.668 135.118 121.651 133.935C119.643 132.741 118.052 131.032 116.878 128.807C115.713 126.572 115.131 123.892 115.131 120.767C115.131 117.633 115.713 114.953 116.878 112.727C118.052 110.492 119.643 108.783 121.651 107.599C123.668 106.416 125.95 105.824 128.497 105.824C131.045 105.824 133.322 106.416 135.33 107.599C137.347 108.783 138.938 110.492 140.102 112.727C141.277 114.953 141.864 117.633 141.864 120.767ZM136.565 120.767C136.565 118.561 136.22 116.7 135.528 115.185C134.847 113.66 133.9 112.509 132.688 111.733C131.475 110.947 130.079 110.554 128.497 110.554C126.916 110.554 125.519 110.947 124.307 111.733C123.095 112.509 122.143 113.66 121.452 115.185C120.77 116.7 120.429 118.561 120.429 120.767C120.429 122.973 120.77 124.839 121.452 126.364C122.143 127.879 123.095 129.029 124.307 129.815C125.519 130.592 126.916 130.98 128.497 130.98C130.079 130.98 131.475 130.592 132.688 129.815C133.9 129.029 134.847 127.879 135.528 126.364C136.22 124.839 136.565 122.973 136.565 120.767ZM152.846 135.312V106.222H163.755C165.99 106.222 167.865 106.638 169.38 107.472C170.905 108.305 172.055 109.451 172.832 110.909C173.618 112.358 174.011 114.006 174.011 115.852C174.011 117.718 173.618 119.375 172.832 120.824C172.046 122.273 170.886 123.414 169.352 124.247C167.817 125.071 165.928 125.483 163.684 125.483H156.454V121.151H162.974C164.281 121.151 165.351 120.923 166.184 120.469C167.017 120.014 167.633 119.389 168.031 118.594C168.438 117.798 168.641 116.884 168.641 115.852C168.641 114.82 168.438 113.911 168.031 113.125C167.633 112.339 167.013 111.728 166.17 111.293C165.336 110.848 164.262 110.625 162.945 110.625H158.116V135.312H152.846ZM184.588 135.312V106.222H203.509V110.639H189.858V118.537H202.528V122.955H189.858V130.895H203.622V135.312H184.588ZM238.791 106.222V135.312H234.104L220.396 115.497H220.155V135.312H214.885V106.222H219.601L233.294 126.051H233.55V106.222H238.791ZM282.265 114.219C282.132 112.978 281.574 112.012 280.589 111.321C279.613 110.63 278.344 110.284 276.782 110.284C275.683 110.284 274.741 110.45 273.955 110.781C273.169 111.113 272.568 111.562 272.151 112.131C271.735 112.699 271.522 113.348 271.512 114.077C271.512 114.683 271.649 115.208 271.924 115.653C272.208 116.098 272.592 116.477 273.075 116.79C273.558 117.093 274.093 117.348 274.68 117.557C275.267 117.765 275.859 117.94 276.455 118.082L279.183 118.764C280.281 119.02 281.337 119.366 282.35 119.801C283.373 120.237 284.287 120.786 285.092 121.449C285.906 122.112 286.55 122.912 287.023 123.849C287.497 124.787 287.734 125.885 287.734 127.145C287.734 128.849 287.298 130.35 286.427 131.648C285.556 132.936 284.296 133.944 282.648 134.673C281.01 135.393 279.026 135.753 276.697 135.753C274.433 135.753 272.469 135.402 270.802 134.702C269.145 134.001 267.847 132.978 266.91 131.634C265.982 130.289 265.48 128.651 265.404 126.719H270.589C270.665 127.732 270.977 128.575 271.526 129.247C272.076 129.92 272.79 130.421 273.671 130.753C274.561 131.084 275.556 131.25 276.654 131.25C277.8 131.25 278.804 131.08 279.665 130.739C280.537 130.388 281.219 129.905 281.711 129.29C282.203 128.665 282.454 127.936 282.464 127.102C282.454 126.345 282.232 125.72 281.796 125.227C281.361 124.725 280.75 124.309 279.964 123.977C279.187 123.636 278.278 123.333 277.237 123.068L273.927 122.216C271.531 121.6 269.637 120.668 268.245 119.418C266.862 118.158 266.171 116.487 266.171 114.403C266.171 112.689 266.635 111.188 267.563 109.901C268.501 108.613 269.774 107.614 271.384 106.903C272.994 106.184 274.817 105.824 276.853 105.824C278.917 105.824 280.726 106.184 282.279 106.903C283.842 107.614 285.068 108.603 285.958 109.872C286.848 111.132 287.308 112.58 287.336 114.219H282.265ZM324.426 120.767C324.426 123.902 323.839 126.586 322.665 128.821C321.5 131.046 319.909 132.751 317.892 133.935C315.884 135.118 313.607 135.71 311.06 135.71C308.512 135.71 306.23 135.118 304.213 133.935C302.205 132.741 300.615 131.032 299.44 128.807C298.276 126.572 297.693 123.892 297.693 120.767C297.693 117.633 298.276 114.953 299.44 112.727C300.615 110.492 302.205 108.783 304.213 107.599C306.23 106.416 308.512 105.824 311.06 105.824C313.607 105.824 315.884 106.416 317.892 107.599C319.909 108.783 321.5 110.492 322.665 112.727C323.839 114.953 324.426 117.633 324.426 120.767ZM319.128 120.767C319.128 118.561 318.782 116.7 318.091 115.185C317.409 113.66 316.462 112.509 315.25 111.733C314.038 110.947 312.641 110.554 311.06 110.554C309.478 110.554 308.081 110.947 306.869 111.733C305.657 112.509 304.705 113.66 304.014 115.185C303.332 116.7 302.991 118.561 302.991 120.767C302.991 122.973 303.332 124.839 304.014 126.364C304.705 127.879 305.657 129.029 306.869 129.815C308.081 130.592 309.478 130.98 311.06 130.98C312.641 130.98 314.038 130.592 315.25 129.815C316.462 129.029 317.409 127.879 318.091 126.364C318.782 124.839 319.128 122.973 319.128 120.767ZM353.746 106.222H359.016V125.227C359.016 127.311 358.524 129.143 357.539 130.724C356.564 132.306 355.191 133.542 353.42 134.432C351.649 135.312 349.58 135.753 347.212 135.753C344.835 135.753 342.762 135.312 340.991 134.432C339.22 133.542 337.847 132.306 336.871 130.724C335.896 129.143 335.408 127.311 335.408 125.227V106.222H340.678V124.787C340.678 125.999 340.943 127.079 341.474 128.026C342.013 128.973 342.771 129.716 343.746 130.256C344.722 130.786 345.877 131.051 347.212 131.051C348.548 131.051 349.703 130.786 350.678 130.256C351.663 129.716 352.421 128.973 352.951 128.026C353.481 127.079 353.746 125.999 353.746 124.787V106.222ZM370.744 135.312V106.222H381.653C383.888 106.222 385.763 106.61 387.278 107.386C388.803 108.163 389.954 109.252 390.73 110.653C391.516 112.045 391.909 113.67 391.909 115.526C391.909 117.391 391.511 119.01 390.716 120.384C389.93 121.747 388.77 122.803 387.236 123.551C385.702 124.29 383.817 124.659 381.582 124.659H373.812V120.284H380.872C382.179 120.284 383.249 120.104 384.082 119.744C384.916 119.375 385.531 118.84 385.929 118.139C386.336 117.429 386.54 116.558 386.54 115.526C386.54 114.493 386.336 113.613 385.929 112.884C385.522 112.145 384.902 111.586 384.068 111.207C383.235 110.819 382.16 110.625 380.844 110.625H376.014V135.312H370.744ZM385.773 122.131L392.974 135.312H387.094L380.02 122.131H385.773ZM427.661 116.037H422.348C422.196 115.166 421.917 114.394 421.51 113.722C421.103 113.04 420.596 112.462 419.99 111.989C419.384 111.515 418.693 111.16 417.916 110.923C417.149 110.677 416.321 110.554 415.43 110.554C413.849 110.554 412.447 110.952 411.226 111.747C410.004 112.533 409.048 113.688 408.357 115.213C407.665 116.728 407.32 118.58 407.32 120.767C407.32 122.992 407.665 124.867 408.357 126.392C409.057 127.907 410.014 129.053 411.226 129.83C412.447 130.597 413.844 130.98 415.416 130.98C416.287 130.98 417.102 130.866 417.859 130.639C418.626 130.402 419.313 130.057 419.919 129.602C420.535 129.148 421.051 128.589 421.467 127.926C421.893 127.263 422.187 126.506 422.348 125.653L427.661 125.682C427.462 127.064 427.031 128.362 426.368 129.574C425.714 130.786 424.857 131.856 423.797 132.784C422.736 133.703 421.496 134.422 420.075 134.943C418.655 135.455 417.078 135.71 415.345 135.71C412.788 135.71 410.506 135.118 408.499 133.935C406.491 132.751 404.91 131.042 403.754 128.807C402.599 126.572 402.021 123.892 402.021 120.767C402.021 117.633 402.604 114.953 403.768 112.727C404.933 110.492 406.519 108.783 408.527 107.599C410.535 106.416 412.807 105.824 415.345 105.824C416.964 105.824 418.47 106.051 419.862 106.506C421.254 106.96 422.495 107.628 423.584 108.509C424.673 109.38 425.568 110.45 426.268 111.719C426.979 112.978 427.443 114.418 427.661 116.037ZM438.487 135.312V106.222H457.407V110.639H443.756V118.537H456.427V122.955H443.756V130.895H457.521V135.312H438.487Z" fill="#9293AB"/>
</svg>
