<svg width="16" height="16" viewBox="0 0 16 16" fill="none" xmlns="http://www.w3.org/2000/svg">
<path d="M8.35942 2.00001V3.41615C8.35942 3.62197 8.19257 3.78883 7.98675 3.78883C7.78093 3.78883 7.61408 3.62197 7.61408 3.41615V2.00001C7.61408 2 7.61408 2.00001 7.61408 2.00001L3.49068 2C3.15642 2 2.84786 2.11002 2.59922 2.29582L4.20621 3.9028C4.35174 4.04834 4.35174 4.2843 4.20621 4.42983C4.06067 4.57537 3.82471 4.57537 3.67917 4.42983L2.13009 2.88075C2.0465 3.06693 2 3.27338 2 3.49068V12.5093C2 13.1724 2.43299 13.7344 3.03166 13.928L3.15641 12.3312C3.17156 12.1373 3.33338 11.9876 3.52795 11.9876H4.26591L4.7443 6.89408C4.83422 5.9367 5.63789 5.20497 6.59949 5.20497H9.57181C10.5217 5.20497 11.3196 5.91952 11.4239 6.86368L11.9901 11.9876H12.323C12.5087 11.9876 12.6661 12.1244 12.692 12.3084L12.9218 13.9422C13.5444 13.7633 14 13.1895 14 12.5093V3.49068C14 3.21549 13.9254 2.95772 13.7954 2.73646L12.102 4.42983C11.9565 4.57537 11.7205 4.57537 11.575 4.42983C11.4295 4.2843 11.4295 4.04834 11.575 3.9028L13.2696 2.20819C13.047 2.07594 12.787 2 12.5093 2L8.35942 2.00001Z" fill="url(#paint0_linear_12164_194842)"/>
<path d="M12.1772 14L11.999 12.7329H3.87264L3.77365 14H12.1772Z" fill="url(#paint1_linear_12164_194842)"/>
<path fill-rule="evenodd" clip-rule="evenodd" d="M10.6831 6.94554L11.2402 11.9876H5.01453L5.48638 6.96378C5.54033 6.38935 6.02253 5.95032 6.59949 5.95032H9.57181C10.1418 5.95032 10.6205 6.37904 10.6831 6.94554ZM8.40993 7.441C8.40993 7.23518 8.24308 7.06833 8.03726 7.06833C7.83144 7.06833 7.66459 7.23518 7.66459 7.441V9.45342C7.66459 9.65924 7.83144 9.82609 8.03726 9.82609C8.24308 9.82609 8.40993 9.65924 8.40993 9.45342V7.441ZM8.07453 10.8696C8.25977 10.8696 8.40993 10.7194 8.40993 10.5342C8.40993 10.3489 8.25977 10.1988 8.07453 10.1988C7.88929 10.1988 7.73913 10.3489 7.73913 10.5342C7.73913 10.7194 7.88929 10.8696 8.07453 10.8696Z" fill="url(#paint2_linear_12164_194842)"/>
<defs>
<linearGradient id="paint0_linear_12164_194842" x1="3.09091" y1="2.95455" x2="12.3636" y2="12.3636" gradientUnits="userSpaceOnUse">
<stop stop-color="#FF6FAB"/>
<stop offset="1" stop-color="#CE0056"/>
</linearGradient>
<linearGradient id="paint1_linear_12164_194842" x1="3.09091" y1="2.95455" x2="12.3636" y2="12.3636" gradientUnits="userSpaceOnUse">
<stop stop-color="#FF6FAB"/>
<stop offset="1" stop-color="#CE0056"/>
</linearGradient>
<linearGradient id="paint2_linear_12164_194842" x1="3.09091" y1="2.95455" x2="12.3636" y2="12.3636" gradientUnits="userSpaceOnUse">
<stop stop-color="#FF6FAB"/>
<stop offset="1" stop-color="#CE0056"/>
</linearGradient>
</defs>
</svg>
