<svg width="49" height="48" viewBox="0 0 49 48" fill="none" xmlns="http://www.w3.org/2000/svg">
<path d="M24.169 4.79993C34.7727 4.80002 43.369 13.3954 43.3692 23.9991C43.3692 28.8825 41.5446 33.3394 38.5419 36.7277L33.9884 32.1742C38.0224 27.31 37.763 20.0849 33.2054 15.5274C29.1158 11.438 22.8797 10.8088 18.128 13.6341C17.5758 13.9627 17.395 14.6762 17.7234 15.2285C18.0519 15.7808 18.7654 15.9626 19.3177 15.6342C23.1766 13.3398 28.2411 13.8542 31.56 17.1728C35.2078 20.8207 35.4641 26.573 32.3338 30.5196L29.4145 27.6003C29.9786 26.7561 30.3236 25.7764 30.4043 24.7514C30.5158 23.3341 30.1171 21.9231 29.2815 20.7729C28.4458 19.6227 27.2265 18.8082 25.844 18.4763C24.4617 18.1446 23.006 18.3162 21.7394 18.9615C20.4727 19.607 19.4777 20.6844 18.9336 21.9979C18.3897 23.3112 18.332 24.7756 18.7711 26.1275C19.2105 27.4797 20.1191 28.6313 21.3314 29.3742C21.8713 29.7049 22.4557 29.9451 23.0621 30.0901C23.8169 30.2704 24.6065 30.3031 25.3849 30.1798C26.0193 30.0792 26.4522 29.4836 26.3519 28.8491C26.2575 28.2544 25.728 27.8369 25.1394 27.8696L25.0201 27.8821C24.5453 27.9572 24.0635 27.9364 23.603 27.8264C23.2331 27.7379 22.8756 27.5918 22.5462 27.39C21.8068 26.9368 21.2529 26.2341 20.9848 25.4093C20.7167 24.5842 20.7517 23.6893 21.0837 22.8877C21.4157 22.0864 22.0234 21.4293 22.7962 21.0354C23.569 20.6418 24.4575 20.5376 25.3008 20.7399C26.1443 20.9425 26.8898 21.4393 27.3997 22.1411C27.9093 22.8428 28.1506 23.7038 28.0826 24.5684C28.0185 25.3827 27.6837 26.1512 27.1326 26.7503C26.6567 27.2678 26.6279 28.1058 27.169 28.6469L31.5566 33.0333L31.56 33.039L31.5645 33.0413L36.8964 38.3732C33.5083 41.3755 29.052 43.1993 24.169 43.1994C13.565 43.1994 4.96867 34.603 4.96867 23.9991C4.96874 20.272 6.03197 16.7938 7.86985 13.8489L13.1688 19.1763C11.1061 23.7356 11.9467 29.2885 15.6961 33.0378C19.0808 36.4222 23.9355 37.4364 28.1997 36.0856L28.6099 35.947C29.2149 35.7314 29.5307 35.0669 29.3156 34.4617C29.1136 33.894 28.5158 33.58 27.9429 33.7208L27.8304 33.7549C24.2848 35.0167 20.1764 34.2269 17.3416 31.3924C14.1223 28.1731 13.5401 23.3104 15.6029 19.499L16.0154 18.7376L9.23918 11.9262C12.7592 7.57883 18.1395 4.79993 24.169 4.79993Z" fill="url(#paint0_linear_6047_186)"/>
<defs>
<linearGradient id="paint0_linear_6047_186" x1="13.6136" y1="7.82899" x2="39.8232" y2="39.4006" gradientUnits="userSpaceOnUse">
<stop stop-color="#6CB5FF"/>
<stop offset="1" stop-color="#4D4AFF"/>
</linearGradient>
</defs>
</svg>
