<svg width="16" height="16" viewBox="0 0 16 16" fill="none" xmlns="http://www.w3.org/2000/svg">
    <g clip-path="url(#clip0_785_86081)">
        <path
            d="M10.2178 7.64916L6.97573 5.48776C6.69503 5.3053 6.33012 5.50179 6.33012 5.83863V10.1614C6.33012 10.4983 6.70906 10.6948 6.97573 10.5123L10.2178 8.35092C10.4705 8.18249 10.4705 7.81758 10.2178 7.64916Z"
            fill="#9293AB" />
        <path
            d="M8.00004 1.33337C4.32285 1.33337 1.33338 4.32285 1.33338 8.00004C1.33338 11.6772 4.32285 14.6667 8.00004 14.6667C11.6772 14.6667 14.6667 11.6772 14.6667 8.00004C14.6667 4.32285 11.6772 1.33337 8.00004 1.33337ZM8.00004 13.6281C4.89829 13.6281 2.37197 11.1018 2.37197 8.00004C2.37197 4.89829 4.89829 2.37197 8.00004 2.37197C11.1018 2.37197 13.6281 4.89829 13.6281 8.00004C13.6281 11.1018 11.1018 13.6281 8.00004 13.6281Z"
            fill="#9293AB" />
    </g>
    <defs>
        <clipPath id="clip0_785_86081">
            <rect width="13.3333" height="13.3333" fill="white" transform="translate(1.33333 1.33331)" />
        </clipPath>
    </defs>
</svg>