<svg width="38" height="27" viewBox="0 0 38 27" fill="none" xmlns="http://www.w3.org/2000/svg">
<path d="M18.7992 26.1904C18.7992 26.5355 19.0791 26.8154 19.4242 26.8154H29.4977L29.5267 26.8154L29.5557 26.8154H29.8544V26.809C34.2442 26.637 37.7502 23.0239 37.7502 18.5919C37.7502 14.2799 34.4316 10.7431 30.2091 10.3963C29.9094 10.3717 29.6566 10.1546 29.5939 9.86053C28.4535 4.51171 23.7015 0.5 18.0125 0.5C11.4724 0.5 6.17057 5.80179 6.17057 12.3419C6.17057 12.4109 6.12134 12.4702 6.05371 12.4838C2.74338 13.1488 0.25 16.0725 0.25 19.5786C0.25 23.5753 3.48982 26.8152 7.4864 26.8153L15.8124 26.8154C16.1576 26.8154 16.4374 26.5355 16.4374 26.1904V24.23C16.4374 23.915 16.2023 23.6518 15.893 23.5925C14.5915 23.3429 13.4773 22.8057 12.7147 22.0371C12.0324 21.3496 11.6251 20.4979 11.4985 19.4976C11.4547 19.1514 11.7419 18.8659 12.0908 18.8675L13.4829 18.874C13.817 18.8756 14.0831 19.1427 14.1593 19.468C14.4791 20.8343 15.7156 21.7342 17.5475 21.7427C18.2613 21.7461 20.9228 21.4126 20.9314 19.5731C20.9382 18.1018 19.004 17.5438 17.174 17.0922C16.8621 17.0153 16.5442 16.9367 16.2265 16.8515C14.1566 16.3017 11.9671 15.6725 11.9794 13.0243C11.9914 10.4519 14.1566 9.12508 16.4374 8.85492V6.38805C16.4374 6.04287 16.7173 5.76305 17.0624 5.76305H18.1719C18.5171 5.76305 18.7969 6.04287 18.7969 6.38805V8.92195C20.4418 9.18752 22.657 10.0202 23.0326 12.5557C23.0842 12.9039 22.7954 13.1957 22.4434 13.194L21.0445 13.1875C20.7235 13.186 20.4648 12.9376 20.3689 12.6314C20.0062 11.4731 18.8689 10.771 17.2035 10.7632C16.0957 10.758 14.4901 11.3458 14.4838 12.6884C14.4782 13.9052 15.4094 14.3198 18.8845 15.2176L19.3446 15.3351C19.4027 15.3495 19.4648 15.3644 19.5302 15.3802C20.854 15.6995 23.5704 16.3546 23.5568 19.2667C23.5461 21.5656 21.9756 23.138 19.3513 23.606C19.0384 23.6618 18.7992 23.9263 18.7992 24.2441V26.1904Z" fill="url(#paint0_linear_3522_9)"/>
<defs>
<linearGradient id="paint0_linear_3522_9" x1="6.2768" y1="-1.50891" x2="23.0893" y2="34.8369" gradientUnits="userSpaceOnUse">
<stop stop-color="#00CFDE"/>
<stop offset="1" stop-color="#05A660"/>
</linearGradient>
</defs>
</svg>
