<svg width="32" height="32" viewBox="0 0 32 32" fill="none" xmlns="http://www.w3.org/2000/svg">
<g clip-path="url(#clip0_2194_106972)">
<path d="M12.4805 1.54449C14.5685 -0.543513 17.9639 -0.510498 20.0107 1.61774L30.5283 12.5562C32.5187 14.6266 32.4867 17.9091 30.4561 19.94L19.9404 30.4556C17.9094 32.4867 14.6261 32.5187 12.5557 30.5279L7.91895 26.0699L10.25 23.7105C11.5365 24.6768 13.0848 25.332 14.7939 25.5455C20.0255 26.1985 24.7958 22.487 25.4492 17.2554C26.1025 12.0236 22.3911 7.25245 17.1592 6.59918C11.9275 5.9461 7.15637 9.65764 6.50293 14.8892C6.43542 15.431 6.82048 15.9251 7.3623 15.9927C7.9041 16.0603 8.39804 15.6761 8.46582 15.1343C8.98391 10.9866 12.7663 8.04342 16.9141 8.5611C21.0621 9.07903 24.0052 12.8623 23.4873 17.0103C22.9693 21.1581 19.1869 24.1002 15.0391 23.5826C13.7777 23.425 12.6292 22.9661 11.6553 22.2877L14.3555 19.5552C14.7087 19.7195 15.0927 19.8334 15.5 19.8843C17.6051 20.1472 19.5251 18.6535 19.7881 16.5484C20.051 14.4432 18.5574 12.5232 16.4521 12.2603C14.347 11.9975 12.4269 13.4911 12.1641 15.5963C12.041 16.5824 12.3029 17.5282 12.833 18.2818L6.49316 24.6988L1.61816 20.0113C-0.510527 17.9645 -0.544203 14.5682 1.54395 12.48L12.4805 1.54449ZM16.207 14.2222C17.2284 14.3498 17.9537 15.2819 17.8262 16.3033C17.6986 17.3246 16.7665 18.049 15.7451 17.9214C14.7239 17.7938 13.9995 16.8626 14.127 15.8414C14.2545 14.82 15.1857 14.0948 16.207 14.2222Z" fill="url(#paint0_linear_2194_106972)"/>
</g>
<defs>
<linearGradient id="paint0_linear_2194_106972" x1="0.211321" y1="-2.47173" x2="33.5462" y2="33.5441" gradientUnits="userSpaceOnUse">
<stop stop-color="#FF99C9"/>
<stop offset="0.5" stop-color="#926EF7"/>
<stop offset="1" stop-color="#6EEEF7"/>
</linearGradient>
<clipPath id="clip0_2194_106972">
<rect width="32" height="31.9999" fill="white"/>
</clipPath>
</defs>
</svg>
