<svg width="49" height="48" viewBox="0 0 49 48" fill="none" xmlns="http://www.w3.org/2000/svg">
<path d="M18.5736 4.2677C21.6977 1.14373 26.7629 1.14385 29.8871 4.2677L43.9623 18.3429C47.0864 21.467 47.0863 26.5322 43.9623 29.6564L29.8871 43.7316C26.7629 46.8557 21.6978 46.8557 18.5736 43.7316L4.49841 29.6564C1.37456 26.5322 1.37443 21.467 4.49841 18.3429L18.5736 4.2677ZM24.1312 21.3595C23.8131 21.3595 23.5076 21.4861 23.2826 21.7111C23.0575 21.9361 22.931 22.2414 22.931 22.5597V26.7579C22.2747 27.1247 21.8304 27.8257 21.8304 28.631C21.8304 29.8154 22.7906 30.7754 23.975 30.7755C25.1595 30.7755 26.1205 29.8155 26.1205 28.631C26.1205 27.961 25.8126 27.3632 25.3314 26.9698V23.7599H29.8802V29.3761C29.8802 32.551 27.3061 35.1249 24.1312 35.1251H23.932C20.867 35.1249 18.3825 32.6404 18.3822 29.5753C18.3822 28.9127 17.8446 28.3753 17.182 28.3751C16.5193 28.3751 15.9818 28.9126 15.9818 29.5753C15.9821 33.9658 19.5415 37.5253 23.932 37.5255H24.1312C28.6315 37.5252 32.2796 33.8765 32.2797 29.3761V22.5597C32.2797 21.8972 31.7429 21.3599 31.0804 21.3595H24.1312ZM24.1312 10.4396C19.6307 10.4396 15.9818 14.0884 15.9818 18.589V26.1993C15.9818 26.8621 16.5193 27.3995 17.182 27.3995C17.8446 27.3994 18.3822 26.862 18.3822 26.1993V18.589C18.3822 15.4139 20.9561 12.84 24.1312 12.84H24.3295C27.3946 12.8401 29.88 15.3246 29.8802 18.3898C29.8803 19.0525 30.4177 19.59 31.0804 19.59C31.7428 19.5896 32.2796 19.0522 32.2797 18.3898C32.2794 13.9992 28.7201 10.4397 24.3295 10.4396H24.1312Z" fill="url(#paint0_linear_6047_196)"/>
<defs>
<linearGradient id="paint0_linear_6047_196" x1="14.3619" y1="8.87988" x2="38.8686" y2="38.3994" gradientUnits="userSpaceOnUse">
<stop stop-color="#6CB5FF"/>
<stop offset="1" stop-color="#4D4AFF"/>
</linearGradient>
</defs>
</svg>
