<svg width="91" height="91" viewBox="0 0 91 91" fill="none" xmlns="http://www.w3.org/2000/svg">
    <path
        d="M45.0433 75.5081C45.0433 76.2933 45.6799 76.9299 46.4651 76.9299H69.3822L69.4482 76.93L69.5142 76.9299H70.1937V76.9155C80.1806 76.5241 88.1568 68.3043 88.1568 58.2215C88.1568 48.4119 80.6068 40.3656 71.0007 39.5765C70.3189 39.5205 69.7439 39.0267 69.6012 38.3577C67.0067 26.1891 56.1958 17.0625 43.2533 17.0625C28.3746 17.0625 16.3131 29.1241 16.3131 44.0028C16.3131 44.1597 16.201 44.2947 16.0472 44.3256C8.5162 45.8384 2.84375 52.49 2.84375 60.4664C2.84375 69.5587 10.2143 76.9295 19.3066 76.9299L38.2483 76.9299C39.0336 76.9299 39.6702 76.2933 39.6702 75.5081V71.0482C39.6702 70.3315 39.1353 69.7329 38.4315 69.5979C35.4706 69.03 32.9359 67.808 31.2008 66.0593C29.6488 64.4953 28.722 62.5578 28.4341 60.282C28.3345 59.4945 28.9878 58.8449 29.7816 58.8486L32.9486 58.8634C33.7087 58.8669 34.3141 59.4746 34.4874 60.2147C35.215 63.323 38.0281 65.3703 42.1956 65.3897C43.8194 65.3973 49.8744 64.6386 49.8939 60.4537C49.9095 57.1067 45.5091 55.8372 41.3458 54.8097C40.6362 54.6348 39.913 54.456 39.1903 54.2621C34.4812 53.0113 29.5001 51.58 29.5282 45.5552C29.5555 39.703 34.4812 36.6845 39.6702 36.0699V30.4578C39.6702 29.6725 40.3068 29.0359 41.0921 29.0359H43.6161C44.4014 29.0359 45.038 29.6725 45.038 30.4578V36.2224C48.7801 36.8266 53.8197 38.7209 54.6742 44.4891C54.7915 45.2814 54.1346 45.9452 53.3336 45.9414L50.1512 45.9266C49.4211 45.9232 48.8325 45.3581 48.6143 44.6614C47.7891 42.0264 45.2017 40.4289 41.413 40.4112C38.8928 40.3995 35.24 41.7367 35.2258 44.7912C35.2128 47.5594 37.3314 48.5025 45.2373 50.5451L46.284 50.8124C46.4163 50.8451 46.5573 50.8791 46.7061 50.915C49.718 51.6413 55.8976 53.1316 55.8667 59.7568C55.8423 64.9868 52.2695 68.5641 46.2991 69.6287C45.5874 69.7556 45.0433 70.3573 45.0433 71.0803V75.5081Z"
        fill="url(#paint0_linear_170_256)" />
    <defs>
        <linearGradient id="paint0_linear_170_256" x1="16.5547" y1="12.4922" x2="54.8031" y2="95.179"
            gradientUnits="userSpaceOnUse">
            <stop stop-color="#00CFDE" />
            <stop offset="1" stop-color="#05A660" />
        </linearGradient>
    </defs>
</svg>