<svg width="49" height="48" viewBox="0 0 49 48" fill="none" xmlns="http://www.w3.org/2000/svg">
<path d="M21.0393 2.73474C22.9103 1.7544 25.1195 1.75443 26.9905 2.73474L40.1907 9.65173C42.4133 10.8165 43.8146 13.1797 43.8147 15.7631L43.8147 32.2367C43.8147 34.8201 42.4133 37.1832 40.1907 38.348L26.9905 45.265C25.1195 46.2453 22.9103 46.2454 21.0393 45.265L7.8401 38.348C5.61724 37.1833 4.21514 34.8202 4.2151 32.2367L4.2151 15.7631C4.21519 13.1796 5.61729 10.8164 7.8401 9.65173L21.0393 2.73474ZM25.5481 9.78552C24.5978 9.23689 23.4262 9.2369 22.4758 9.78552L20.4651 10.9467L17.5178 12.6478L12.5598 15.5111C11.6096 16.0598 11.0238 17.074 11.0237 18.1713V29.6215C11.0237 30.7188 11.6095 31.7329 12.5598 32.2816L14.5706 33.4427L17.3421 35.0424L22.4758 38.0072C23.4262 38.5558 24.5977 38.5559 25.5481 38.0072L27.5589 36.8461L30.5061 35.1439L33.4524 33.4427L35.4641 32.2816C36.4143 31.7329 37.0002 30.7187 37.0003 29.6215L37.0003 18.7914C36.9997 17.1119 35.1805 16.062 33.7258 16.9017L29.3059 19.4545L29.2932 19.4613L29.2805 19.4691L26.3567 21.2552L24.0286 22.5209L18.718 19.4545C18.1442 19.1233 17.4098 19.3193 17.0784 19.8929C16.747 20.4669 16.944 21.2012 17.5178 21.5326L23.3147 24.8793C23.7368 25.123 24.2557 25.1297 24.6839 24.8969L27.5325 23.348L27.5589 23.3334L27.5842 23.3177L30.5061 21.5326L34.5999 19.1674V29.6215C34.5998 29.8614 34.4717 30.0835 34.2639 30.2035L32.2532 31.3646L26.3587 34.767L24.3479 35.9281C24.1401 36.0481 23.8839 36.0481 23.676 35.9281L18.5423 32.9642L15.7708 31.3646L13.76 30.2035C13.5523 30.0835 13.4241 29.8614 13.4241 29.6215L13.4241 18.1713C13.4242 17.9314 13.5523 17.7092 13.76 17.5892L18.718 14.7269L21.6653 13.0248L23.676 11.8636C23.8838 11.7439 24.1402 11.7438 24.3479 11.8636L29.3059 14.7269C29.8798 15.0581 30.6132 14.8612 30.9446 14.2875C31.2758 13.7136 31.0799 12.9792 30.5061 12.6478L25.5481 9.78552Z" fill="url(#paint0_linear_6047_190)"/>
<defs>
<linearGradient id="paint0_linear_6047_190" x1="13.13" y1="5.47031" x2="43.5853" y2="38.4858" gradientUnits="userSpaceOnUse">
<stop stop-color="#6CB5FF"/>
<stop offset="1" stop-color="#4D4AFF"/>
</linearGradient>
</defs>
</svg>
