<svg width="100" height="100" viewBox="0 0 100 100" fill="none" xmlns="http://www.w3.org/2000/svg">
    <path fill-rule="evenodd" clip-rule="evenodd"
        d="M90.625 50C90.625 55.0118 89.6529 59.8846 87.9549 64.3724C87.6432 65.1965 86.5909 65.4034 85.9641 64.7842L73.4984 52.4687C72.9783 51.9549 72.8913 51.1524 73.2302 50.5046C74.5822 47.921 75.2581 44.9656 75.2581 41.875C75.4348 31.8071 67.1332 23.5054 56.8886 23.5054C53.6361 23.5054 50.6551 24.3203 48.0649 25.7119C47.4274 26.0544 46.6337 25.9726 46.1185 25.4642L35.0217 14.5115C34.2397 13.7397 34.4789 12.4247 35.5046 12.0308C40.0167 10.2983 44.8105 9.375 50 9.375C72.4321 9.375 90.625 27.5679 90.625 50ZM26.4861 16.9394C27.2103 16.4291 28.1928 16.5352 28.8193 17.1617L41.4295 29.7719C41.9868 30.3291 42.0355 31.2103 41.5982 31.8659C39.6272 34.8205 38.519 38.2975 38.519 42.0516C38.519 52.2962 46.8207 60.5978 57.0652 60.5978C60.8193 60.5978 64.2963 59.4896 67.251 57.5186C67.9065 57.0813 68.7877 57.1301 69.3449 57.6873L82.9945 71.3369C83.6302 71.9726 83.7288 72.9729 83.1977 73.6984C75.7022 83.9379 63.7481 90.625 50 90.625C27.5679 90.625 9.375 72.4321 9.375 50C9.375 36.2397 16.0739 24.2766 26.4861 16.9394ZM57.0652 53.5326C63.9538 53.5326 69.4293 48.0571 69.4293 41.1685C69.4293 34.2799 63.9538 28.8043 57.0652 28.8043C50.1766 28.8043 44.7011 34.2799 44.7011 41.1685C44.7011 48.0571 50.1766 53.5326 57.0652 53.5326Z"
        fill="url(#paint0_linear_673:8680)" />
    <defs>
        <linearGradient id="paint0_linear_673:8680" x1="-16.8695" y1="35.6195" x2="35.6195" y2="116.869"
            gradientUnits="userSpaceOnUse">
            <stop stop-color="#73DFE7" />
            <stop offset="1" stop-color="#0095F7" />
        </linearGradient>
    </defs>
</svg>