 <svg width="32" height="32" viewBox="0 0 32 32" fill="none" xmlns="http://www.w3.org/2000/svg">
<path fill-rule="evenodd" clip-rule="evenodd" d="M14.755 31.625V27.1644C9.546 26.5901 5.40984 22.4539 4.83548 17.245H0.375V24.653C0.375 28.5035 3.49647 31.625 7.347 31.625H14.755ZM0.375 14.755H4.8355C5.40991 9.54604 9.54605 5.40997 14.755 4.83568L14.755 0.375H7.347C3.49647 0.375 0.375 3.49647 0.375 7.347V14.755ZM17.245 31.625H24.653C28.5035 31.625 31.625 28.5035 31.625 24.653V7.347C31.625 3.49647 28.5035 0.375 24.653 0.375H17.245L17.245 4.83571C22.4538 5.41016 26.5898 9.54616 27.1642 14.755H28.6933C29.3809 14.755 29.9383 15.3124 29.9383 16C29.9383 16.6876 29.3809 17.245 28.6933 17.245H27.1642C26.5898 22.4538 22.4538 26.5899 17.245 27.1643V31.625ZM14.755 24.3092V24.6546C10.9229 24.1084 7.89157 21.0771 7.34524 17.245H11.3829C11.9307 19.2816 13.7903 20.7807 16 20.7807C18.6403 20.7807 20.7808 18.6403 20.7808 15.9999C20.7808 13.3595 18.6403 11.2191 16 11.2191C13.7902 11.2191 11.9307 12.7183 11.3829 14.755H7.34526C7.89164 10.9229 10.9229 7.89171 14.755 7.34543V7.76124C14.755 8.44883 15.3124 9.00624 16 9.00624C16.6876 9.00624 17.245 8.44883 17.245 7.76124V7.34548C21.0769 7.89189 24.108 10.923 24.6544 14.755H24.1967C23.5091 14.755 22.9517 15.3124 22.9517 16C22.9517 16.6876 23.5091 17.245 24.1967 17.245H24.6544C24.1081 21.077 21.077 24.1082 17.245 24.6546V24.3092C17.245 23.6216 16.6876 23.0642 16 23.0642C15.3124 23.0642 14.755 23.6216 14.755 24.3092ZM16 13.8087C14.7898 13.8087 13.8088 14.7897 13.8088 15.9999C13.8088 17.2101 14.7898 18.1911 16 18.1911C17.2101 18.1911 18.1912 17.2101 18.1912 15.9999C18.1912 14.7897 17.2101 13.8087 16 13.8087Z" fill="url(#paint0_linear_3522_4)"/>
<defs>
<linearGradient id="paint0_linear_3522_4" x1="7.49002" y1="2.89577" x2="24.51" y2="29.1042" gradientUnits="userSpaceOnUse">
<stop stop-color="#FF7F77"/>
<stop offset="0.0001" stop-color="#FD7A64"/>
<stop offset="1" stop-color="#E62D14"/>
</linearGradient>
</defs>
</svg>
