<svg width="24" height="24" viewBox="0 0 24 24" fill="none" xmlns="http://www.w3.org/2000/svg">
<g clip-path="url(#clip0_2194_106966)">
<path d="M9.36035 1.1582C10.9265 -0.407917 13.4737 -0.382654 15.0088 1.21387L22.8965 9.41699C24.3894 10.9699 24.365 13.4319 22.8418 14.9551L14.9551 22.8418C13.4318 24.3649 10.9698 24.3886 9.41699 22.8955L5.93945 19.5518L7.6875 17.7832C8.65226 18.5076 9.81317 18.9981 11.0947 19.1582C15.0185 19.6481 18.5968 16.8651 19.0869 12.9414C19.5767 9.0176 16.793 5.43916 12.8691 4.94922C8.9454 4.45952 5.36786 7.24421 4.87793 11.168C4.82772 11.574 5.11539 11.9444 5.52148 11.9951C5.92763 12.0458 6.29747 11.7575 6.34863 11.3516C6.73707 8.24067 9.57468 6.03368 12.6855 6.42188C15.7964 6.81046 18.0036 9.64691 17.6152 12.7578C17.2266 15.8686 14.3892 18.0759 11.2783 17.6875C10.3324 17.5693 9.47159 17.2247 8.74121 16.7158L10.7676 14.665C11.0325 14.7882 11.3204 14.8749 11.626 14.9131C13.2046 15.1099 14.6435 13.9897 14.8408 12.4111C15.0378 10.8324 13.9185 9.39267 12.3398 9.19531C10.761 8.99817 9.32126 10.1184 9.12402 11.6973C9.03179 12.4365 9.23088 13.1431 9.62793 13.708L4.87012 18.5244L1.21387 15.0088C-0.382595 13.4737 -0.407741 10.9265 1.1582 9.36035L9.36035 1.1582ZM12.1562 10.667C12.9219 10.7629 13.4647 11.4618 13.3691 12.2275C13.2733 12.9932 12.5753 13.5368 11.8096 13.4414C11.0436 13.3458 10.4992 12.6468 10.5947 11.8809C10.6905 11.1149 11.3903 10.5713 12.1562 10.667Z" fill="url(#paint0_linear_2194_106966)"/>
</g>
<defs>
<linearGradient id="paint0_linear_2194_106966" x1="0.158491" y1="-1.85342" x2="25.1589" y2="25.1585" gradientUnits="userSpaceOnUse">
<stop stop-color="#FF99C9"/>
<stop offset="0.5" stop-color="#926EF7"/>
<stop offset="1" stop-color="#6EEEF7"/>
</linearGradient>
<clipPath id="clip0_2194_106966">
<rect width="24" height="23.9999" fill="white"/>
</clipPath>
</defs>
</svg>
