<svg width="121" height="50" viewBox="0 0 121 50" fill="none" xmlns="http://www.w3.org/2000/svg">
<path fill-rule="evenodd" clip-rule="evenodd" d="M9.01034 13.417C9.00772 13.4044 9.00568 13.3934 9.00411 13.3841C9.00568 13.3748 9.00772 13.3638 9.01034 13.3512C9.02604 13.2756 9.0632 13.1396 9.14981 12.961C9.31972 12.6106 9.70064 12.0534 10.5665 11.4581C12.3233 10.2504 16.0835 8.88409 24 8.88409C31.9165 8.88409 35.6767 10.2504 37.4335 11.4581C38.2994 12.0534 38.6803 12.6106 38.8502 12.961C38.9368 13.1396 38.974 13.2756 38.9897 13.3512C38.9923 13.3638 38.9943 13.3748 38.9959 13.3841C38.9943 13.3934 38.9923 13.4044 38.9897 13.417C38.974 13.4926 38.9368 13.6286 38.8502 13.8072C38.6803 14.1576 38.2994 14.7148 37.4335 15.3101C35.6767 16.5178 31.9165 17.8841 24 17.8841C16.0835 17.8841 12.3233 16.5178 10.5665 15.3101C9.70064 14.7148 9.31972 14.1576 9.14981 13.8072C9.0632 13.6286 9.02604 13.4926 9.01034 13.417ZM8.07738 15.767C8.02637 16.132 8 16.505 8 16.8841V24.7518C8.01459 24.7942 8.03852 24.8565 8.0758 24.9353C8.17286 25.1404 8.3639 25.4652 8.72667 25.849C9.39273 26.5535 10.6768 27.497 13.1165 28.2359C13.3496 27.3349 13.8187 26.5088 14.4919 25.8323C15.4816 24.8375 16.7904 24.289 18.181 24.2834C19.5719 24.2777 20.8762 24.8156 21.8579 25.8024L27.8195 31.7927C29.0872 33.0235 31.1233 33.0016 32.3838 31.7349C33.6535 30.4585 33.6619 28.3945 32.4024 27.1284C31.1389 25.8592 29.0733 25.8669 27.7985 27.1469L27.1149 27.7923C27.0075 27.8937 26.839 27.8911 26.7349 27.7864L25.7334 26.7799C25.6253 26.6713 25.6281 26.495 25.7394 26.3898L26.4231 25.744C27.4128 24.7492 28.7215 24.2007 30.1124 24.195C31.503 24.1894 32.8073 24.7273 33.789 25.7141C34.5317 26.4604 35.0205 27.3939 35.2122 28.4121C37.1916 27.6821 38.3825 26.7502 39.0823 26.0024C39.4902 25.5665 39.7395 25.1844 39.8825 24.9256C39.9351 24.8304 39.9734 24.7518 40 24.6931V16.8841C40 16.505 39.9736 16.132 39.9226 15.767C39.5831 16.1587 39.1409 16.5633 38.5665 16.9581C36.3233 18.5004 32.0835 19.8841 24 19.8841C15.9165 19.8841 11.6767 18.5004 9.43347 16.9581C8.85914 16.5633 8.4169 16.1586 8.07738 15.767ZM8 28.0106V32.9988V35.4988V36.9988C8.33952 37.3905 8.85916 37.7952 9.43349 38.19C11.6767 39.7322 15.9165 41.116 24 41.116C32.0836 41.116 36.3233 39.7322 38.5665 38.19C39.1409 37.7952 39.6605 37.3905 40 36.9988V35.9988V32.9988V28.0168C38.9641 28.9547 37.4286 29.9347 35.1817 30.6514C34.9686 31.6292 34.4813 32.5271 33.7592 33.2527C32.7695 34.2475 31.4607 34.796 30.0701 34.8017C28.6792 34.8073 27.3749 34.2694 26.3932 33.2826L20.4322 27.2917C19.1646 26.0609 17.1278 26.0834 15.8673 27.3502C14.5976 28.6265 14.5893 30.6905 15.8487 31.9566C17.1122 33.2259 19.1778 33.2181 20.4526 31.9381L21.2511 31.1112C21.3571 31.0015 21.5325 31.0002 21.6401 31.1083L22.6415 32.1148C22.7461 32.2199 22.7474 32.3894 22.6443 32.4961L21.828 33.341C20.8383 34.3358 19.5296 34.8844 18.1387 34.89C16.7481 34.8956 15.4438 34.3577 14.4621 33.3709C13.6529 32.5579 13.1452 31.5226 12.9946 30.3977C10.6306 29.7397 9.05176 28.8696 8 28.0106Z" fill="url(#paint0_linear_3124_101)"/>
<path d="M52.4545 22H49.0043V11.8182H52.5241C53.535 11.8182 54.4034 12.022 55.1293 12.4297C55.8584 12.834 56.4186 13.4157 56.8097 14.1747C57.2008 14.9337 57.3963 15.8419 57.3963 16.8991C57.3963 17.9598 57.1991 18.8712 56.8047 19.6335C56.4136 20.3958 55.8485 20.9808 55.1094 21.3885C54.3736 21.7962 53.4886 22 52.4545 22ZM50.8487 20.4041H52.3651C53.0743 20.4041 53.666 20.2749 54.1399 20.0163C54.6139 19.7545 54.9702 19.3651 55.2088 18.848C55.4474 18.3277 55.5668 17.678 55.5668 16.8991C55.5668 16.1203 55.4474 15.474 55.2088 14.9602C54.9702 14.4432 54.6172 14.0571 54.1499 13.8018C53.6858 13.5433 53.1091 13.4141 52.4197 13.4141H50.8487V20.4041ZM61.2667 22.1541C60.7828 22.1541 60.3469 22.0679 59.9592 21.8956C59.5747 21.7199 59.2698 21.4614 59.0444 21.12C58.8223 20.7786 58.7113 20.3577 58.7113 19.8572C58.7113 19.4264 58.7908 19.0701 58.9499 18.7884C59.109 18.5066 59.3261 18.2812 59.6012 18.1122C59.8763 17.9432 60.1862 17.8156 60.5309 17.7294C60.8789 17.6399 61.2385 17.5753 61.6097 17.5355C62.0572 17.4891 62.4201 17.4477 62.6985 17.4112C62.9769 17.3714 63.1791 17.3118 63.305 17.2322C63.4343 17.1494 63.4989 17.0218 63.4989 16.8494V16.8196C63.4989 16.4451 63.3879 16.1551 63.1658 15.9496C62.9438 15.7441 62.6239 15.6413 62.2063 15.6413C61.7655 15.6413 61.4158 15.7375 61.1573 15.9297C60.9021 16.1219 60.7298 16.349 60.6403 16.6108L58.9599 16.3722C59.0924 15.9081 59.3112 15.5204 59.6161 15.2088C59.921 14.8939 60.2939 14.6586 60.7347 14.5028C61.1755 14.3438 61.6628 14.2642 62.1964 14.2642C62.5643 14.2642 62.9305 14.3073 63.2951 14.3935C63.6597 14.4796 63.9928 14.6222 64.2944 14.821C64.596 15.0166 64.838 15.2834 65.0202 15.6214C65.2058 15.9595 65.2987 16.3821 65.2987 16.8892V22H63.5685V20.951H63.5089C63.3995 21.1631 63.2454 21.362 63.0465 21.5476C62.851 21.7299 62.604 21.8774 62.3058 21.9901C62.0108 22.0994 61.6644 22.1541 61.2667 22.1541ZM61.734 20.8317C62.0953 20.8317 62.4085 20.7604 62.6737 20.6179C62.9388 20.4721 63.1426 20.2798 63.2852 20.0412C63.431 19.8026 63.5039 19.5424 63.5039 19.2607V18.3608C63.4476 18.4072 63.3514 18.4503 63.2156 18.4901C63.083 18.5298 62.9338 18.5646 62.7681 18.5945C62.6024 18.6243 62.4383 18.6508 62.2759 18.674C62.1135 18.6972 61.9727 18.7171 61.8533 18.7337C61.5849 18.7701 61.3446 18.8298 61.1325 18.9126C60.9203 18.9955 60.753 19.1115 60.6303 19.2607C60.5077 19.4065 60.4464 19.5954 60.4464 19.8274C60.4464 20.1589 60.5674 20.4091 60.8093 20.5781C61.0513 20.7472 61.3595 20.8317 61.734 20.8317ZM70.9215 14.3636V15.7557H66.5316V14.3636H70.9215ZM67.6154 12.5341H69.4151V19.7031C69.4151 19.9451 69.4516 20.1307 69.5245 20.2599C69.6007 20.3859 69.7002 20.4721 69.8228 20.5185C69.9454 20.5649 70.0813 20.5881 70.2305 20.5881C70.3432 20.5881 70.4459 20.5798 70.5387 20.5632C70.6348 20.5466 70.7077 20.5317 70.7575 20.5185L71.0607 21.9254C70.9646 21.9586 70.8271 21.995 70.6481 22.0348C70.4724 22.0746 70.257 22.0978 70.0018 22.1044C69.551 22.1177 69.145 22.0497 68.7837 21.9006C68.4225 21.7481 68.1358 21.5128 67.9237 21.1946C67.7148 20.8764 67.6121 20.4787 67.6154 20.0014V12.5341ZM74.6241 22.1541C74.1402 22.1541 73.7044 22.0679 73.3166 21.8956C72.9321 21.7199 72.6272 21.4614 72.4018 21.12C72.1797 20.7786 72.0687 20.3577 72.0687 19.8572C72.0687 19.4264 72.1483 19.0701 72.3074 18.7884C72.4664 18.5066 72.6835 18.2812 72.9586 18.1122C73.2337 17.9432 73.5436 17.8156 73.8883 17.7294C74.2363 17.6399 74.5959 17.5753 74.9672 17.5355C75.4146 17.4891 75.7775 17.4477 76.0559 17.4112C76.3343 17.3714 76.5365 17.3118 76.6625 17.2322C76.7917 17.1494 76.8564 17.0218 76.8564 16.8494V16.8196C76.8564 16.4451 76.7453 16.1551 76.5233 15.9496C76.3012 15.7441 75.9814 15.6413 75.5637 15.6413C75.1229 15.6413 74.7733 15.7375 74.5147 15.9297C74.2595 16.1219 74.0872 16.349 73.9977 16.6108L72.3173 16.3722C72.4499 15.9081 72.6686 15.5204 72.9735 15.2088C73.2785 14.8939 73.6513 14.6586 74.0922 14.5028C74.533 14.3438 75.0202 14.2642 75.5538 14.2642C75.9217 14.2642 76.2879 14.3073 76.6525 14.3935C77.0171 14.4796 77.3502 14.6222 77.6518 14.821C77.9534 15.0166 78.1954 15.2834 78.3777 15.6214C78.5633 15.9595 78.6561 16.3821 78.6561 16.8892V22H76.926V20.951H76.8663C76.7569 21.1631 76.6028 21.362 76.4039 21.5476C76.2084 21.7299 75.9615 21.8774 75.6632 21.9901C75.3682 22.0994 75.0218 22.1541 74.6241 22.1541ZM75.0914 20.8317C75.4527 20.8317 75.7659 20.7604 76.0311 20.6179C76.2962 20.4721 76.5001 20.2798 76.6426 20.0412C76.7884 19.8026 76.8613 19.5424 76.8613 19.2607V18.3608C76.805 18.4072 76.7089 18.4503 76.573 18.4901C76.4404 18.5298 76.2913 18.5646 76.1255 18.5945C75.9598 18.6243 75.7958 18.6508 75.6333 18.674C75.4709 18.6972 75.3301 18.7171 75.2108 18.7337C74.9423 18.7701 74.702 18.8298 74.4899 18.9126C74.2778 18.9955 74.1104 19.1115 73.9877 19.2607C73.8651 19.4065 73.8038 19.5954 73.8038 19.8274C73.8038 20.1589 73.9248 20.4091 74.1667 20.5781C74.4087 20.7472 74.7169 20.8317 75.0914 20.8317ZM80.5453 22V11.8182H82.345V15.6264H82.4196C82.5124 15.4408 82.6433 15.2436 82.8123 15.0348C82.9814 14.8227 83.21 14.642 83.4984 14.4929C83.7868 14.3404 84.1547 14.2642 84.6021 14.2642C85.1921 14.2642 85.724 14.415 86.198 14.7166C86.6752 15.0149 87.0531 15.4574 87.3315 16.044C87.6132 16.6274 87.7541 17.3433 87.7541 18.1918C87.7541 19.0303 87.6165 19.7429 87.3414 20.3295C87.0663 20.9162 86.6918 21.3636 86.2179 21.6719C85.7439 21.9801 85.207 22.1342 84.6071 22.1342C84.1696 22.1342 83.8066 22.0613 83.5183 21.9155C83.2299 21.7696 82.9979 21.594 82.8223 21.3885C82.6499 21.1797 82.5157 20.9825 82.4196 20.7969H82.3152V22H80.5453ZM82.3102 18.1818C82.3102 18.6757 82.3798 19.1082 82.519 19.4794C82.6615 19.8506 82.8654 20.1406 83.1305 20.3494C83.399 20.5549 83.7238 20.6577 84.1049 20.6577C84.5027 20.6577 84.8358 20.5516 85.1042 20.3395C85.3727 20.1241 85.5749 19.8307 85.7108 19.4595C85.85 19.085 85.9196 18.6591 85.9196 18.1818C85.9196 17.7079 85.8516 17.2869 85.7157 16.919C85.5798 16.5511 85.3777 16.2628 85.1092 16.054C84.8407 15.8452 84.506 15.7408 84.1049 15.7408C83.7205 15.7408 83.394 15.8419 83.1255 16.044C82.8571 16.2462 82.6532 16.5296 82.514 16.8942C82.3781 17.2588 82.3102 17.688 82.3102 18.1818ZM91.4815 22.1541C90.9976 22.1541 90.5618 22.0679 90.174 21.8956C89.7895 21.7199 89.4846 21.4614 89.2592 21.12C89.0372 20.7786 88.9261 20.3577 88.9261 19.8572C88.9261 19.4264 89.0057 19.0701 89.1648 18.7884C89.3239 18.5066 89.541 18.2812 89.8161 18.1122C90.0911 17.9432 90.401 17.8156 90.7457 17.7294C91.0938 17.6399 91.4534 17.5753 91.8246 17.5355C92.272 17.4891 92.6349 17.4477 92.9134 17.4112C93.1918 17.3714 93.3939 17.3118 93.5199 17.2322C93.6491 17.1494 93.7138 17.0218 93.7138 16.8494V16.8196C93.7138 16.4451 93.6027 16.1551 93.3807 15.9496C93.1586 15.7441 92.8388 15.6413 92.4212 15.6413C91.9804 15.6413 91.6307 15.7375 91.3722 15.9297C91.117 16.1219 90.9446 16.349 90.8551 16.6108L89.1747 16.3722C89.3073 15.9081 89.526 15.5204 89.831 15.2088C90.1359 14.8939 90.5088 14.6586 90.9496 14.5028C91.3904 14.3438 91.8776 14.2642 92.4112 14.2642C92.7791 14.2642 93.1454 14.3073 93.5099 14.3935C93.8745 14.4796 94.2076 14.6222 94.5092 14.821C94.8108 15.0166 95.0528 15.2834 95.2351 15.6214C95.4207 15.9595 95.5135 16.3821 95.5135 16.8892V22H93.7834V20.951H93.7237C93.6143 21.1631 93.4602 21.362 93.2614 21.5476C93.0658 21.7299 92.8189 21.8774 92.5206 21.9901C92.2256 22.0994 91.8793 22.1541 91.4815 22.1541ZM91.9489 20.8317C92.3101 20.8317 92.6233 20.7604 92.8885 20.6179C93.1536 20.4721 93.3575 20.2798 93.5 20.0412C93.6458 19.8026 93.7188 19.5424 93.7188 19.2607V18.3608C93.6624 18.4072 93.5663 18.4503 93.4304 18.4901C93.2978 18.5298 93.1487 18.5646 92.983 18.5945C92.8172 18.6243 92.6532 18.6508 92.4908 18.674C92.3284 18.6972 92.1875 18.7171 92.0682 18.7337C91.7997 18.7701 91.5594 18.8298 91.3473 18.9126C91.1352 18.9955 90.9678 19.1115 90.8452 19.2607C90.7225 19.4065 90.6612 19.5954 90.6612 19.8274C90.6612 20.1589 90.7822 20.4091 91.0241 20.5781C91.2661 20.7472 91.5743 20.8317 91.9489 20.8317ZM103.359 16.3821L101.718 16.5611C101.672 16.3954 101.59 16.2396 101.474 16.0938C101.362 15.9479 101.209 15.8303 101.017 15.7408C100.825 15.6513 100.589 15.6065 100.311 15.6065C99.9366 15.6065 99.6217 15.6877 99.3665 15.8501C99.1146 16.0125 98.9903 16.223 98.9936 16.4815C98.9903 16.7036 99.0715 16.8842 99.2372 17.0234C99.4063 17.1626 99.6847 17.277 100.072 17.3665L101.375 17.6449C102.098 17.8007 102.634 18.0476 102.986 18.3857C103.34 18.7237 103.519 19.1662 103.523 19.7131C103.519 20.1937 103.379 20.6179 103.1 20.9858C102.825 21.3504 102.442 21.6354 101.952 21.8409C101.461 22.0464 100.898 22.1491 100.261 22.1491C99.3267 22.1491 98.5743 21.9536 98.0043 21.5625C97.4342 21.1681 97.0945 20.6196 96.9851 19.9169L98.7401 19.7479C98.8196 20.0926 98.9886 20.3527 99.2472 20.5284C99.5057 20.7041 99.8421 20.7919 100.256 20.7919C100.684 20.7919 101.027 20.7041 101.286 20.5284C101.547 20.3527 101.678 20.1357 101.678 19.8771C101.678 19.6584 101.594 19.4777 101.425 19.3352C101.259 19.1927 101 19.0833 100.649 19.0071L99.3466 18.7337C98.6141 18.5812 98.0722 18.3243 97.7209 17.9631C97.3696 17.5985 97.1955 17.1378 97.1989 16.581C97.1955 16.1103 97.3232 15.7027 97.5817 15.358C97.8435 15.0099 98.2064 14.7415 98.6705 14.5526C99.1378 14.3603 99.6764 14.2642 100.286 14.2642C101.181 14.2642 101.885 14.4548 102.399 14.8359C102.916 15.2171 103.236 15.7325 103.359 16.3821ZM108.387 22.1491C107.622 22.1491 106.961 21.9901 106.404 21.6719C105.85 21.3504 105.424 20.8963 105.126 20.3097C104.828 19.7197 104.679 19.0253 104.679 18.2266C104.679 17.4411 104.828 16.7517 105.126 16.1584C105.428 15.5618 105.849 15.0978 106.389 14.7663C106.929 14.4316 107.564 14.2642 108.293 14.2642C108.764 14.2642 109.208 14.3404 109.625 14.4929C110.046 14.642 110.417 14.8741 110.739 15.1889C111.064 15.5038 111.319 15.9048 111.505 16.392C111.69 16.8759 111.783 17.4527 111.783 18.1222V18.674H105.524V17.4609H110.058C110.055 17.1162 109.98 16.8097 109.834 16.5412C109.688 16.2694 109.484 16.0556 109.223 15.8999C108.964 15.7441 108.663 15.6662 108.318 15.6662C107.95 15.6662 107.627 15.7557 107.348 15.9347C107.07 16.1103 106.853 16.3423 106.697 16.6307C106.545 16.9157 106.467 17.2289 106.463 17.5703V18.6293C106.463 19.0734 106.545 19.4545 106.707 19.7727C106.869 20.0876 107.096 20.3295 107.388 20.4986C107.68 20.6643 108.021 20.7472 108.412 20.7472C108.674 20.7472 108.911 20.7107 109.123 20.6378C109.335 20.5616 109.519 20.4505 109.675 20.3047C109.831 20.1589 109.949 19.9782 110.028 19.7628L111.708 19.9517C111.602 20.3958 111.4 20.7836 111.102 21.1151C110.807 21.4432 110.429 21.6984 109.968 21.8807C109.508 22.0597 108.981 22.1491 108.387 22.1491ZM52.4545 39H49.0043V28.8182H52.5241C53.535 28.8182 54.4034 29.022 55.1293 29.4297C55.8584 29.834 56.4186 30.4157 56.8097 31.1747C57.2008 31.9337 57.3963 32.8419 57.3963 33.8991C57.3963 34.9598 57.1991 35.8712 56.8047 36.6335C56.4136 37.3958 55.8485 37.9808 55.1094 38.3885C54.3736 38.7962 53.4886 39 52.4545 39ZM50.8487 37.4041H52.3651C53.0743 37.4041 53.666 37.2749 54.1399 37.0163C54.6139 36.7545 54.9702 36.3651 55.2088 35.848C55.4474 35.3277 55.5668 34.678 55.5668 33.8991C55.5668 33.1203 55.4474 32.474 55.2088 31.9602C54.9702 31.4432 54.6172 31.0571 54.1499 30.8018C53.6858 30.5433 53.1091 30.4141 52.4197 30.4141H50.8487V37.4041ZM62.4499 39.1491C61.6843 39.1491 61.0231 38.9901 60.4663 38.6719C59.9128 38.3504 59.4869 37.8963 59.1886 37.3097C58.8903 36.7197 58.7411 36.0253 58.7411 35.2266C58.7411 34.4411 58.8903 33.7517 59.1886 33.1584C59.4902 32.5618 59.9111 32.0978 60.4513 31.7663C60.9916 31.4316 61.6263 31.2642 62.3555 31.2642C62.8261 31.2642 63.2702 31.3404 63.6879 31.4929C64.1088 31.642 64.48 31.8741 64.8015 32.1889C65.1263 32.5038 65.3815 32.9048 65.5671 33.392C65.7527 33.8759 65.8455 34.4527 65.8455 35.1222V35.674H59.5863V34.4609H64.1204C64.1171 34.1162 64.0425 33.8097 63.8967 33.5412C63.7508 33.2694 63.547 33.0556 63.2852 32.8999C63.0266 32.7441 62.725 32.6662 62.3803 32.6662C62.0124 32.6662 61.6893 32.7557 61.4109 32.9347C61.1325 33.1103 60.9154 33.3423 60.7596 33.6307C60.6071 33.9157 60.5292 34.2289 60.5259 34.5703V35.6293C60.5259 36.0734 60.6071 36.4545 60.7695 36.7727C60.9319 37.0876 61.159 37.3295 61.4506 37.4986C61.7423 37.6643 62.0837 37.7472 62.4748 37.7472C62.7366 37.7472 62.9736 37.7107 63.1857 37.6378C63.3978 37.5616 63.5818 37.4505 63.7376 37.3047C63.8933 37.1589 64.011 36.9782 64.0906 36.7628L65.771 36.9517C65.6649 37.3958 65.4627 37.7836 65.1644 38.1151C64.8694 38.4432 64.4916 38.6984 64.0309 38.8807C63.5702 39.0597 63.0432 39.1491 62.4499 39.1491ZM73.9703 31.3636L71.2509 39H69.2623L66.5428 31.3636H68.4618L70.2168 37.0362H70.2963L72.0563 31.3636H73.9703ZM84.3933 33.9091C84.3933 35.0062 84.1878 35.9458 83.7768 36.728C83.3691 37.5069 82.8123 38.1035 82.1064 38.5178C81.4037 38.9321 80.6066 39.1392 79.715 39.1392C78.8234 39.1392 78.0247 38.9321 77.3187 38.5178C76.6161 38.1001 76.0592 37.5019 75.6483 36.723C75.2406 35.9408 75.0368 35.0028 75.0368 33.9091C75.0368 32.812 75.2406 31.8741 75.6483 31.0952C76.0592 30.313 76.6161 29.7147 77.3187 29.3004C78.0247 28.8861 78.8234 28.679 79.715 28.679C80.6066 28.679 81.4037 28.8861 82.1064 29.3004C82.8123 29.7147 83.3691 30.313 83.7768 31.0952C84.1878 31.8741 84.3933 32.812 84.3933 33.9091ZM82.5389 33.9091C82.5389 33.1368 82.4179 32.4856 82.176 31.9553C81.9373 31.4216 81.6059 31.0189 81.1816 30.7472C80.7574 30.4721 80.2685 30.3345 79.715 30.3345C79.1615 30.3345 78.6726 30.4721 78.2484 30.7472C77.8242 31.0189 77.4911 31.4216 77.2491 31.9553C77.0105 32.4856 76.8912 33.1368 76.8912 33.9091C76.8912 34.6813 77.0105 35.3343 77.2491 35.8679C77.4911 36.3982 77.8242 36.8009 78.2484 37.076C78.6726 37.3478 79.1615 37.4837 79.715 37.4837C80.2685 37.4837 80.7574 37.3478 81.1816 37.076C81.6059 36.8009 81.9373 36.3982 82.176 35.8679C82.4179 35.3343 82.5389 34.6813 82.5389 33.9091ZM86.0575 41.8636V31.3636H87.8274V32.6264H87.9318C88.0246 32.4408 88.1555 32.2436 88.3246 32.0348C88.4936 31.8227 88.7223 31.642 89.0107 31.4929C89.299 31.3404 89.6669 31.2642 90.1143 31.2642C90.7043 31.2642 91.2363 31.415 91.7102 31.7166C92.1875 32.0149 92.5653 32.4574 92.8438 33.044C93.1255 33.6274 93.2663 34.3433 93.2663 35.1918C93.2663 36.0303 93.1288 36.7429 92.8537 37.3295C92.5786 37.9162 92.2041 38.3636 91.7301 38.6719C91.2562 38.9801 90.7192 39.1342 90.1193 39.1342C89.6818 39.1342 89.3189 39.0613 89.0305 38.9155C88.7422 38.7696 88.5102 38.594 88.3345 38.3885C88.1622 38.1797 88.0279 37.9825 87.9318 37.7969H87.8572V41.8636H86.0575ZM87.8224 35.1818C87.8224 35.6757 87.892 36.1082 88.0312 36.4794C88.1738 36.8506 88.3776 37.1406 88.6428 37.3494C88.9112 37.5549 89.236 37.6577 89.6172 37.6577C90.0149 37.6577 90.348 37.5516 90.6165 37.3395C90.8849 37.1241 91.0871 36.8307 91.223 36.4595C91.3622 36.085 91.4318 35.6591 91.4318 35.1818C91.4318 34.7079 91.3639 34.2869 91.228 33.919C91.0921 33.5511 90.8899 33.2628 90.6214 33.054C90.353 32.8452 90.0182 32.7408 89.6172 32.7408C89.2327 32.7408 88.9062 32.8419 88.6378 33.044C88.3693 33.2462 88.1655 33.5296 88.0263 33.8942C87.8904 34.2588 87.8224 34.688 87.8224 35.1818ZM100.843 33.3821L99.2024 33.5611C99.156 33.3954 99.0748 33.2396 98.9588 33.0938C98.8461 32.9479 98.6937 32.8303 98.5014 32.7408C98.3092 32.6513 98.0739 32.6065 97.7955 32.6065C97.4209 32.6065 97.1061 32.6877 96.8509 32.8501C96.599 33.0125 96.4747 33.223 96.478 33.4815C96.4747 33.7036 96.5559 33.8842 96.7216 34.0234C96.8906 34.1626 97.169 34.277 97.5568 34.3665L98.8594 34.6449C99.5819 34.8007 100.119 35.0476 100.47 35.3857C100.825 35.7237 101.004 36.1662 101.007 36.7131C101.004 37.1937 100.863 37.6179 100.585 37.9858C100.309 38.3504 99.9266 38.6354 99.4361 38.8409C98.9455 39.0464 98.3821 39.1491 97.7457 39.1491C96.8111 39.1491 96.0587 38.9536 95.4886 38.5625C94.9186 38.1681 94.5788 37.6196 94.4695 36.9169L96.2244 36.7479C96.304 37.0926 96.473 37.3527 96.7315 37.5284C96.9901 37.7041 97.3265 37.7919 97.7408 37.7919C98.1683 37.7919 98.5114 37.7041 98.7699 37.5284C99.0317 37.3527 99.1626 37.1357 99.1626 36.8771C99.1626 36.6584 99.0781 36.4777 98.9091 36.3352C98.7434 36.1927 98.4848 36.0833 98.1335 36.0071L96.831 35.7337C96.0985 35.5812 95.5566 35.3243 95.2053 34.9631C94.8539 34.5985 94.6799 34.1378 94.6832 33.581C94.6799 33.1103 94.8075 32.7027 95.0661 32.358C95.3279 32.0099 95.6908 31.7415 96.1548 31.5526C96.6222 31.3603 97.1607 31.2642 97.7706 31.2642C98.6655 31.2642 99.3698 31.4548 99.8835 31.8359C100.401 32.2171 100.72 32.7325 100.843 33.3821Z" fill="black"/>
<defs>
<linearGradient id="paint0_linear_3124_101" x1="16" y1="11.0432" x2="32.1739" y2="38.8557" gradientUnits="userSpaceOnUse">
<stop stop-color="#62F91F"/>
<stop offset="1" stop-color="#45BD35"/>
</linearGradient>
</defs>
</svg>
