<svg width="16" height="16" viewBox="0 0 16 16" fill="none" xmlns="http://www.w3.org/2000/svg">
<path d="M7.0083 0.911621C7.63193 0.584942 8.36809 0.58488 8.9917 0.911621L13.3921 3.21729C14.1328 3.60559 14.6001 4.39337 14.6001 5.25439L14.6001 10.7456C14.6001 11.6066 14.1328 12.3944 13.3921 12.7827L8.9917 15.0884C8.3681 15.4151 7.63192 15.415 7.0083 15.0884L2.60791 12.7827C1.86709 12.3945 1.39993 11.6067 1.3999 10.7456L1.3999 5.25439C1.39992 4.39331 1.86708 3.60556 2.60791 3.21729L7.0083 0.911621ZM8.51123 3.26221C8.19451 3.07935 7.80358 3.07945 7.48682 3.26221L6.81689 3.64893L5.83447 4.21631L4.18213 5.17041C3.86534 5.35331 3.66946 5.69133 3.66943 6.05713L3.66943 9.87354C3.66943 10.2394 3.86532 10.5773 4.18213 10.7603L4.85205 11.1479L5.77588 11.6812L7.48682 12.6694C7.80355 12.8522 8.19451 12.8522 8.51123 12.6694L9.18115 12.2817L10.1636 11.7144L11.146 11.1479L11.8169 10.7603C12.1333 10.5772 12.3286 10.2391 12.3286 9.87354V6.26416C12.3286 5.73941 11.7956 5.39867 11.3296 5.58838L11.2368 5.63428L9.76416 6.48486L9.75537 6.48975L8.79053 7.07959L8.00439 7.50635L6.23486 6.48486C6.04361 6.37444 5.7985 6.44017 5.68799 6.63135C5.57771 6.82259 5.64333 7.06679 5.83447 7.17725L7.76709 8.29346C7.90767 8.37437 8.08062 8.3768 8.22314 8.29932L9.17236 7.78271L9.18994 7.77295L10.1724 7.17236L10.1714 7.17139L11.5288 6.38916V9.87354C11.5288 9.95344 11.4856 10.0278 11.4165 10.0679L10.7466 10.4546L8.78174 11.5894L8.11084 11.9761C8.04166 12.0159 7.95639 12.0159 7.88721 11.9761L6.17627 10.9878L5.25244 10.4546L4.58154 10.0679C4.51234 10.0278 4.47021 9.95349 4.47021 9.87354L4.47021 6.05713C4.47024 5.97716 4.5123 5.90279 4.58154 5.86279L6.23486 4.90869L7.21729 4.34131L7.88721 3.95459C7.95634 3.91485 8.04172 3.91481 8.11084 3.95459L9.76416 4.90869C9.95542 5.01884 10.1997 4.9534 10.3101 4.76221C10.4202 4.57102 10.3546 4.32676 10.1636 4.21631L8.51123 3.26221Z" fill="url(#paint0_linear_6047_204)"/>
<defs>
<linearGradient id="paint0_linear_6047_204" x1="4.37155" y1="1.82348" x2="14.5234" y2="12.8287" gradientUnits="userSpaceOnUse">
<stop stop-color="#6CB5FF"/>
<stop offset="1" stop-color="#4D4AFF"/>
</linearGradient>
</defs>
</svg>
