<svg width="17" height="16" viewBox="0 0 17 16" fill="none" xmlns="http://www.w3.org/2000/svg">
    <path fill-rule="evenodd" clip-rule="evenodd"
        d="M13.6711 12.1785C12.4296 13.589 10.5737 14.4847 8.5 14.4847C6.42624 14.4847 4.57031 13.589 3.3288 12.1784L6.46564 10.2613C7.01219 10.7122 7.72296 10.9847 8.5 10.9847C9.277 10.9847 9.9877 10.7122 10.5343 10.2614L13.6711 12.1785ZM14.2264 11.4511L11.1514 9.57175C11.4507 9.11138 11.6237 8.56744 11.6237 7.98469C11.6237 6.48069 10.4714 5.2352 8.96835 5.01819V1.5C12.4878 1.73102 15.2681 4.54602 15.2681 7.98469C15.2681 9.25907 14.8863 10.4478 14.2264 11.4511ZM8.03124 1.50003C4.51197 1.73124 1.73187 4.54615 1.73187 7.98469C1.73187 9.25904 2.11372 10.4477 2.77353 11.451L5.84861 9.57166C5.54924 9.11131 5.37625 8.56741 5.37625 7.98469C5.37625 6.48085 6.52841 5.23543 8.03124 5.01822V1.50003Z"
        fill="url(#paint0_linear_8_15)" />
    <path fill-rule="evenodd" clip-rule="evenodd"
        d="M10.3523 6.64297C10.5289 6.82465 10.5187 7.10939 10.3295 7.27899L8.09824 9.27899C7.91824 9.44036 7.63887 9.44036 7.45884 9.27899L6.56634 8.47899C6.37716 8.30939 6.36693 8.02465 6.54349 7.84297C6.72008 7.66126 7.01656 7.65146 7.20574 7.82103L7.77854 8.33446L9.69009 6.62103C9.87926 6.45146 10.1758 6.46126 10.3523 6.64297Z"
        fill="url(#paint1_linear_8_15)" />
    <defs>
        <linearGradient id="paint0_linear_8_15" x1="5.42735" y1="2.20762" x2="11.1766" y2="13.9706"
            gradientUnits="userSpaceOnUse">
            <stop stop-color="#BEA1FF" />
            <stop offset="1" stop-color="#8A36FF" />
        </linearGradient>
        <linearGradient id="paint1_linear_8_15" x1="7.52612" y1="6.65802" x2="8.57197" y2="9.53225"
            gradientUnits="userSpaceOnUse">
            <stop stop-color="#BEA1FF" />
            <stop offset="1" stop-color="#8A36FF" />
        </linearGradient>
    </defs>
</svg>