<svg width="16" height="16" viewBox="0 0 16 16" fill="none" xmlns="http://www.w3.org/2000/svg">
    <path fill-rule="evenodd" clip-rule="evenodd"
        d="M1.4711 5.23206C1.249 3.73697 1.24148 2.3583 1.34209 1.30391C1.35983 1.11811 1.51476 0.979584 1.6977 0.979584H14.4257C14.6184 0.979584 14.7781 1.13696 14.7862 1.33342C15.1504 10.1562 10.6567 14.076 8.20893 15.0021C8.12105 15.0353 8.02448 15.0279 7.94019 14.9861C4.04758 13.0569 2.29474 9.4173 1.6278 6.12587L3.24419 6.43542C3.26009 6.87539 3.43264 7.31056 3.76182 7.64646C4.31504 8.21096 5.14313 8.32401 5.80646 7.98566L7.27312 9.42468C7.28057 9.43199 7.28825 9.43898 7.29609 9.44561C6.87251 10.2059 6.9784 11.1899 7.61379 11.8383C8.37629 12.6163 9.61251 12.6163 10.375 11.8383C11.1375 11.0602 11.1375 9.79878 10.375 9.02076C9.68736 8.31911 8.61446 8.25021 7.8512 8.8141L7.84979 8.81269L6.44512 7.43454C6.7679 6.98471 6.86134 6.41704 6.72537 5.899L8.26237 5.09005C8.2792 5.10869 8.29648 5.12708 8.31421 5.14517C9.00598 5.85106 10.1276 5.85106 10.8194 5.14517C11.5111 4.43927 11.5111 3.29478 10.8194 2.58888C10.1276 1.88298 9.00598 1.88298 8.31421 2.58888C7.84745 3.06515 7.69561 3.74109 7.85869 4.34726L6.3264 5.15372C6.3072 5.13217 6.28739 5.11098 6.26697 5.09015C5.5752 4.38425 4.4536 4.38425 3.76182 5.09015C3.61155 5.24345 3.49395 5.41746 3.40896 5.60316L1.4711 5.23206ZM4.07632 6.31699C4.10214 6.27405 4.12086 6.22569 4.13049 6.17325C4.13917 6.12616 4.13984 6.07944 4.1335 6.03454C4.1791 5.90902 4.25129 5.79131 4.35011 5.69047C4.71699 5.31611 5.31181 5.31611 5.67865 5.69047C6.04553 6.06481 6.04553 6.67176 5.67865 7.04613C5.31181 7.42047 4.71699 7.42047 4.35011 7.04613C4.15389 6.8459 4.06262 6.57913 4.07632 6.31699ZM8.90249 3.1892C9.26937 2.81485 9.86419 2.81485 10.231 3.1892C10.5979 3.56355 10.5979 4.17051 10.231 4.54484C9.86419 4.91921 9.26937 4.91921 8.90249 4.54484C8.53565 4.17051 8.53565 3.56355 8.90249 3.1892ZM9.78665 9.62109C9.34912 9.17459 8.63968 9.17459 8.20211 9.62109C7.76454 10.0676 7.76454 10.7915 8.20211 11.238C8.63968 11.6845 9.34912 11.6845 9.78665 11.238C10.2242 10.7915 10.2242 10.0676 9.78665 9.62109Z"
        fill="url(#paint0_linear_16_538)" />
    <path
        d="M1.47109 5.23207L1.42619 5.23899L1.43103 5.27151L1.46272 5.27759L1.47109 5.23207ZM1.62779 6.12588L1.63617 6.08033L1.56961 6.06756L1.58332 6.13525L1.62779 6.12588ZM3.24419 6.43543L3.28956 6.4337L3.28822 6.39671L3.25257 6.38988L3.24419 6.43543ZM5.80646 7.98567L5.83792 7.95227L5.81481 7.9296L5.78614 7.94423L5.80646 7.98567ZM7.29609 9.44562L7.33555 9.46854L7.35436 9.43478L7.32508 9.40996L7.29609 9.44562ZM7.8512 8.81411L7.81961 8.84742L7.84697 8.87442L7.87782 8.85163L7.8512 8.81411ZM6.44512 7.43455L6.40848 7.40716L6.38502 7.43984L6.41366 7.46796L6.44512 7.43455ZM6.72537 5.89901L6.70457 5.85783L6.67206 5.87494L6.6815 5.91099L6.72537 5.89901ZM8.26236 5.09006L8.29577 5.05868L8.27232 5.03269L8.24156 5.04889L8.26236 5.09006ZM7.85868 4.34727L7.87952 4.38845L7.91222 4.37124L7.90249 4.33499L7.85868 4.34727ZM6.3264 5.15374L6.29276 5.18492L6.31622 5.21124L6.3472 5.19491L6.3264 5.15374ZM3.40896 5.60317L3.4006 5.64872L3.4352 5.65535L3.45011 5.6228L3.40896 5.60317ZM4.07632 6.317L4.0376 6.29277L4.03158 6.3028L4.03097 6.31452L4.07632 6.317ZM4.1335 6.03455L4.09094 6.01845L4.08691 6.02949L4.08857 6.04115L4.1335 6.03455ZM1.2969 1.29943C1.19592 2.3576 1.20354 3.74012 1.42619 5.23899L1.51599 5.22511C1.29446 3.73385 1.28703 2.35902 1.38729 1.30841L1.2969 1.29943ZM1.6977 0.933258C1.49225 0.933258 1.31698 1.08903 1.2969 1.29943L1.38729 1.30841C1.40267 1.14722 1.53727 1.02593 1.6977 1.02593V0.933258ZM14.4257 0.933258H1.6977V1.02593H14.4257V0.933258ZM14.8316 1.33148C14.8225 1.11041 14.6429 0.933258 14.4257 0.933258V1.02593C14.5939 1.02593 14.7337 1.16354 14.7408 1.33538L14.8316 1.33148ZM8.2247 15.0455C10.6921 14.1121 15.1965 10.1731 14.8316 1.33148L14.7408 1.33538C15.1042 10.1393 10.6214 14.04 8.19315 14.9586L8.2247 15.0455ZM7.92035 15.0278C8.01494 15.0747 8.12438 15.0835 8.2247 15.0455L8.19315 14.9586C8.11776 14.9872 8.03404 14.9811 7.96003 14.9445L7.92035 15.0278ZM1.58332 6.13525C2.25195 9.43501 4.01065 13.0901 7.92035 15.0278L7.96003 14.9445C4.08451 13.0237 2.33752 9.39958 1.67226 6.11648L1.58332 6.13525ZM3.25257 6.38988L1.63617 6.08033L1.61942 6.1714L3.2358 6.48095L3.25257 6.38988ZM3.19881 6.43713C3.21513 6.88833 3.39212 7.33476 3.72969 7.67922L3.79392 7.61369C3.47318 7.2864 3.30508 6.86247 3.28956 6.4337L3.19881 6.43713ZM3.72969 7.67922C4.29715 8.25826 5.14646 8.37414 5.82675 8.02711L5.78614 7.94423C5.13977 8.27393 4.33289 8.16366 3.79392 7.61369L3.72969 7.67922ZM5.77497 8.01907L7.24163 9.45809L7.3046 9.39129L5.83792 7.95227L5.77497 8.01907ZM7.24163 9.45809C7.24992 9.46619 7.2584 9.47393 7.26707 9.48128L7.32508 9.40996C7.31808 9.40405 7.31126 9.39782 7.3046 9.39129L7.24163 9.45809ZM7.2566 9.42273C6.8232 10.2007 6.93148 11.2076 7.58169 11.8711L7.64592 11.8055C7.02534 11.1723 6.92182 10.2111 7.33555 9.46854L7.2566 9.42273ZM7.58169 11.8711C8.36188 12.6672 9.62688 12.6672 10.4071 11.8711L10.3429 11.8055C9.59811 12.5655 8.39065 12.5655 7.64592 11.8055L7.58169 11.8711ZM10.4071 11.8711C11.1873 11.0749 11.1873 9.78413 10.4071 8.98799L10.3429 9.05352C11.0876 9.81349 11.0876 11.0456 10.3429 11.8055L10.4071 11.8711ZM10.4071 8.98799C9.70345 8.27001 8.6056 8.19955 7.82454 8.77656L7.87782 8.85163C8.62329 8.3009 9.67126 8.36823 10.3429 9.05352L10.4071 8.98799ZM7.88275 8.7808L7.88134 8.7794L7.8182 8.84601L7.81961 8.84742L7.88275 8.7808ZM7.88134 8.7794L6.4766 7.40115L6.41366 7.46796L7.8182 8.84601L7.88134 8.7794ZM6.48176 7.46191C6.81292 7.00043 6.90867 6.41822 6.76924 5.88702L6.6815 5.91099C6.81401 6.41584 6.72291 6.96898 6.40848 7.40716L6.48176 7.46191ZM6.7462 5.94018L8.2832 5.13124L8.24156 5.04889L6.70457 5.85783L6.7462 5.94018ZM8.22896 5.12144C8.2462 5.14058 8.2639 5.15942 8.28208 5.17796L8.3463 5.11243C8.32902 5.0948 8.31219 5.07687 8.29577 5.05868L8.22896 5.12144ZM8.28208 5.17796C8.99161 5.90195 10.1419 5.90195 10.8515 5.17796L10.7873 5.11243C10.1132 5.80023 9.02035 5.80023 8.3463 5.11243L8.28208 5.17796ZM10.8515 5.17796C11.561 4.45395 11.561 3.28013 10.8515 2.55613L10.7873 2.62166C11.4613 3.30946 11.4613 4.42462 10.7873 5.11243L10.8515 5.17796ZM10.8515 2.55613C10.1419 1.83213 8.99161 1.83213 8.28208 2.55613L8.3463 2.62166C9.02035 1.93385 10.1132 1.93385 10.7873 2.62166L10.8515 2.55613ZM8.28208 2.55613C7.80332 3.04465 7.64768 3.73796 7.81491 4.35951L7.90249 4.33499C7.74355 3.74423 7.89155 3.08568 8.3463 2.62166L8.28208 2.55613ZM7.83788 4.30609L6.30556 5.11256L6.3472 5.19491L7.87952 4.38845L7.83788 4.30609ZM6.36 5.12258C6.34032 5.10048 6.32 5.07873 6.2991 5.05741L6.23488 5.12294C6.25475 5.14322 6.27404 5.16389 6.29276 5.18492L6.36 5.12258ZM6.2991 5.05741C5.58956 4.33339 4.43923 4.33339 3.72969 5.05741L3.79392 5.12294C4.46796 4.43511 5.56083 4.43511 6.23488 5.12294L6.2991 5.05741ZM3.72969 5.05741C3.57564 5.21457 3.455 5.39305 3.3678 5.58358L3.45011 5.6228C3.53289 5.4419 3.64745 5.27236 3.79392 5.12294L3.72969 5.05741ZM1.46272 5.27759L3.4006 5.64872L3.41734 5.55762L1.47947 5.18652L1.46272 5.27759ZM4.08585 6.16471C4.07724 6.21153 4.06057 6.25457 4.0376 6.29277L4.115 6.34123C4.14368 6.29359 4.16444 6.23991 4.17513 6.18182L4.08585 6.16471ZM4.08857 6.04115C4.09417 6.08108 4.0936 6.12268 4.08585 6.16471L4.17513 6.18182C4.1847 6.12967 4.18547 6.07785 4.17846 6.02796L4.08857 6.04115ZM4.17609 6.05065C4.21945 5.93127 4.28812 5.81927 4.38224 5.72324L4.31801 5.6577C4.21446 5.76337 4.13875 5.8868 4.09094 6.01845L4.17609 6.05065ZM4.38224 5.72324C4.73136 5.36699 5.29744 5.36699 5.64656 5.72324L5.71078 5.6577C5.32617 5.26528 4.70262 5.26528 4.31801 5.6577L4.38224 5.72324ZM5.64656 5.72324C5.99568 6.07951 5.99568 6.65711 5.64656 7.01336L5.71078 7.07889C6.09539 6.68644 6.09539 6.05016 5.71078 5.6577L5.64656 5.72324ZM5.64656 7.01336C5.29744 7.36964 4.73136 7.36964 4.38224 7.01336L4.31801 7.07889C4.70262 7.47135 5.32617 7.47135 5.71078 7.07889L5.64656 7.01336ZM4.38224 7.01336C4.19548 6.82283 4.10864 6.56902 4.12166 6.31945L4.03097 6.31452C4.01664 6.58923 4.11228 6.869 4.31801 7.07889L4.38224 7.01336ZM10.2632 3.15645C9.87856 2.764 9.255 2.764 8.8704 3.15645L8.93462 3.22198C9.28374 2.86572 9.84982 2.86572 10.1989 3.22198L10.2632 3.15645ZM10.2632 4.57764C10.6478 4.18518 10.6478 3.5489 10.2632 3.15645L10.1989 3.22198C10.5481 3.57822 10.5481 4.15586 10.1989 4.5121L10.2632 4.57764ZM8.8704 4.57764C9.255 4.97009 9.87856 4.97009 10.2632 4.57764L10.1989 4.5121C9.84982 4.86835 9.28374 4.86835 8.93462 4.5121L8.8704 4.57764ZM8.8704 3.15645C8.48579 3.5489 8.48579 4.18518 8.8704 4.57764L8.93462 4.5121C8.58547 4.15586 8.58547 3.57822 8.93462 3.22198L8.8704 3.15645ZM8.2342 9.65385C8.65404 9.22544 9.33472 9.22544 9.75456 9.65385L9.81878 9.58831C9.36348 9.12373 8.62531 9.12373 8.17001 9.58831L8.2342 9.65385ZM8.2342 11.2052C7.8144 10.7768 7.8144 10.0823 8.2342 9.65385L8.17001 9.58831C7.71472 10.0529 7.71472 10.8061 8.17001 11.2707L8.2342 11.2052ZM9.75456 11.2052C9.33472 11.6336 8.65404 11.6336 8.2342 11.2052L8.17001 11.2707C8.62531 11.7353 9.36348 11.7353 9.81878 11.2707L9.75456 11.2052ZM9.75456 9.65385C10.1744 10.0823 10.1744 10.7768 9.75456 11.2052L9.81878 11.2707C10.2741 10.8061 10.2741 10.0529 9.81878 9.58831L9.75456 9.65385Z"
        fill="white" />
    <defs>
        <linearGradient id="paint0_linear_16_538" x1="14.9509" y1="-1.41271" x2="-1.80839" y2="13.4162"
            gradientUnits="userSpaceOnUse">
            <stop stop-color="#F04E29" />
            <stop offset="1" stop-color="#FF8E75" />
        </linearGradient>
    </defs>
</svg>