<svg width="34" height="34" viewBox="0 0 34 34" fill="none" xmlns="http://www.w3.org/2000/svg">
<path fill-rule="evenodd" clip-rule="evenodd" d="M33.25 17C33.25 19.0047 32.8612 20.9539 32.182 22.749C32.0573 23.0786 31.6364 23.1614 31.3857 22.9137L26.3994 17.9875C26.1913 17.7819 26.1565 17.461 26.2921 17.2019C26.8329 16.1684 27.1033 14.9862 27.1033 13.75C27.1739 9.72283 23.8533 6.40217 19.7554 6.40217C18.4544 6.40217 17.2621 6.72812 16.226 7.28475C15.9709 7.42177 15.6535 7.38905 15.4474 7.18568L11.0087 2.8046C10.6959 2.49586 10.7916 1.96986 11.2018 1.81232C13.0067 1.1193 14.9242 0.75 17 0.75C25.9728 0.75 33.25 8.02717 33.25 17ZM7.59443 3.77577C7.88413 3.57163 8.27711 3.61407 8.52771 3.86466L13.5718 8.90878C13.7947 9.13166 13.8142 9.48413 13.6393 9.74634C12.8509 10.9282 12.4076 12.319 12.4076 13.8207C12.4076 17.9185 15.7283 21.2391 19.8261 21.2391C21.3277 21.2391 22.7185 20.7959 23.9004 20.0075C24.1626 19.8325 24.5151 19.852 24.738 20.0749L30.1978 25.5348C30.4521 25.789 30.4915 26.1892 30.2791 26.4793C27.2809 30.5752 22.4993 33.25 17 33.25C8.02717 33.25 0.75 25.9728 0.75 17C0.75 11.4959 3.42958 6.71064 7.59443 3.77577ZM19.8261 18.413C22.5815 18.413 24.7717 16.2228 24.7717 13.4674C24.7717 10.712 22.5815 8.52174 19.8261 8.52174C17.0707 8.52174 14.8804 10.712 14.8804 13.4674C14.8804 16.2228 17.0707 18.413 19.8261 18.413Z" fill="url(#paint0_linear_3522_48)"/>
<defs>
<linearGradient id="paint0_linear_3522_48" x1="-9.74779" y1="11.2478" x2="11.2478" y2="43.7478" gradientUnits="userSpaceOnUse">
<stop stop-color="#73DFE7"/>
<stop offset="1" stop-color="#0095F7"/>
</linearGradient>
</defs>
</svg>
