<svg width="33" height="33" viewBox="0 0 33 33" fill="none" xmlns="http://www.w3.org/2000/svg">
<path fill-rule="evenodd" clip-rule="evenodd" d="M16.2886 32.5C25.2632 32.5 32.5386 25.2246 32.5386 16.25C32.5386 7.27537 25.2632 0 16.2886 0C8.30296 0 1.66271 5.76022 0.296173 13.3523C2.02889 13.1431 4.058 12.9999 5.53903 13.0022C7.45524 13.0051 10.288 13.3105 11.8128 13.6263C12.4908 12.5515 13.7684 11.9809 15.0459 12.2173C15.7866 10.6685 16.2419 9.73683 17.6023 7.79858C19.0183 5.78134 22.0381 4.50879 22.0382 4.99966C22.0383 6.00036 21.9507 7.25999 20.5384 9.49918C19.5241 11.1074 18.227 12.5516 17.1483 13.6077C17.6707 14.3951 17.845 15.4017 17.5366 16.3638C17.4237 16.7162 17.255 17.0345 17.0435 17.3122C17.8246 18.8343 18.6243 20.7034 19.3545 22.4099L19.3546 22.4101L19.3547 22.4104C19.5913 22.9634 19.8206 23.4994 20.0397 24.001C21.0382 26.2876 20.94 30.212 20.5388 29.9992C19.3268 29.3563 17.4025 27.1137 16.5393 25.0012C16.4107 24.6866 16.2655 24.3367 16.111 23.9648L16.1098 23.9618L16.1095 23.9612L16.1095 23.9612C15.367 22.1729 14.4125 19.8743 14.0773 18.5138C13.8967 18.4869 13.7157 18.444 13.5361 18.3843C12.6261 18.0817 11.9382 17.4094 11.5862 16.59L11.5396 16.5872C9.6061 16.4708 7.50878 16.3445 5.54485 16.0645C4.08802 15.8567 1.74198 15.0557 0.141658 14.4095C0.073555 15.0136 0.0385742 15.6277 0.0385742 16.25C0.0385742 25.2246 7.31395 32.5 16.2886 32.5Z" fill="url(#paint0_linear_3522_8)"/>
<defs>
<linearGradient id="paint0_linear_3522_8" x1="8.16358" y1="2.17709" x2="24.4136" y2="30.3229" gradientUnits="userSpaceOnUse">
<stop stop-color="#62F91F"/>
<stop offset="1" stop-color="#45BD35"/>
</linearGradient>
</defs>
</svg>
