<svg width="16" height="16" viewBox="0 0 16 16" fill="none" xmlns="http://www.w3.org/2000/svg">
    <path fill-rule="evenodd" clip-rule="evenodd"
        d="M2.88013 4.27967L3.00811 12.1612C3.01408 12.4909 3.23501 12.772 3.56192 12.8659L12.0168 14.8845C12.558 15.0399 13.124 14.6283 13.12 14.0822L13.0301 1.72549C13.0262 1.198 12.4901 0.847947 11.9601 1.02681L3.4672 3.48336C3.11332 3.60277 2.87375 3.92773 2.88013 4.27967ZM4.63904 7.11304C4.63904 6.93217 4.78272 6.78556 4.95994 6.78556H5.82122V5.50148C5.82122 5.24261 5.99178 5.01606 6.2369 4.94935L8.65034 4.29263V3.53149C8.65034 3.35065 8.79399 3.20404 8.97124 3.20404H10.9769C11.1541 3.20404 11.2978 3.35065 11.2978 3.53149V5.57808C11.2978 5.75892 11.1541 5.90553 10.9769 5.90553H8.97124C8.79399 5.90553 8.65034 5.75892 8.65034 5.57808V4.79954L6.36058 5.42259C6.32557 5.43212 6.30122 5.46448 6.30122 5.50148V6.78556H6.9656C7.14282 6.78556 7.2865 6.93217 7.2865 7.11304V9.1596C7.2865 9.34047 7.14282 9.48705 6.9656 9.48705H6.30122V10.7302C6.30122 10.7672 6.32557 10.7995 6.36058 10.8091L8.65034 11.4321V10.6945C8.65034 10.5137 8.79399 10.367 8.97124 10.367H10.9769C11.1541 10.367 11.2978 10.5137 11.2978 10.6945V12.7411C11.2978 12.9219 11.1541 13.0685 10.9769 13.0685H8.97124C8.79399 13.0685 8.65034 12.9219 8.65034 12.7411V11.939L6.2369 11.2823C5.99178 11.2156 5.82122 10.9891 5.82122 10.7302V9.48705H4.95994C4.78272 9.48705 4.63904 9.34047 4.63904 9.1596V7.11304ZM5.28084 7.44048V8.83216H6.64468V7.44048H5.28084ZM9.29213 5.25061V3.85893H10.656V5.25061H9.29213ZM8.65034 7.11304C8.65034 6.93217 8.79399 6.78556 8.97124 6.78556H10.9769C11.1541 6.78556 11.2978 6.93217 11.2978 7.11304V9.1596C11.2978 9.34047 11.1541 9.48705 10.9769 9.48705H8.97124C8.79399 9.48705 8.65034 9.34047 8.65034 9.1596V7.11304ZM9.29213 7.44048V8.83216H10.656V7.44048H9.29213ZM9.29213 12.4136V11.022H10.656V12.4136H9.29213Z"
        fill="url(#paint0_linear_16_536)" />
    <defs>
        <linearGradient id="paint0_linear_16_536" x1="4.36628" y1="0.979585" x2="12.5283" y2="13.3027"
            gradientUnits="userSpaceOnUse">
            <stop stop-color="#C7E747" />
            <stop offset="0.828125" stop-color="#31CD1B" />
        </linearGradient>
    </defs>
</svg>