<svg width="52" height="52" viewBox="0 0 52 52" fill="none" xmlns="http://www.w3.org/2000/svg">
<path fill-rule="evenodd" clip-rule="evenodd" d="M29.2054 6.94088C29.8913 6.43535 30.6357 6.00449 31.4267 5.66038L26.1637 0.399994L20.3234 6.23729C17.0979 9.46115 17.0979 14.688 20.3234 17.9119L21.1777 18.7658C22.1691 18.0705 23.3113 17.5755 24.5456 17.3394V16.1534C24.5456 12.4845 26.2738 9.21912 28.961 7.12607C29.0416 7.06327 29.1231 7.00154 29.2054 6.94088ZM18.0716 20.1626L18.9446 21.0351C18.2692 22.0322 17.7941 23.1758 17.577 24.4084H16.2862L16.2639 24.4084C11.7245 24.3825 8.05261 20.6965 8.05261 16.1534V7.89816H15.5068C13.8993 12.002 14.7542 16.8469 18.0716 20.1626ZM16.312 27.5915H17.6005C18.272 31.0982 21.037 33.8618 24.5456 34.533V35.8467C24.5456 40.5368 27.3687 44.5656 31.4091 46.3313L26.1378 51.6L20.2976 45.7627C17.6415 43.108 17.1708 39.0914 18.8933 35.9554C19.3165 35.1849 19.0347 34.2174 18.2638 33.7944C17.4929 33.3714 16.525 33.6531 16.1018 34.4236C14.4623 37.4085 14.2544 40.9705 15.4808 44.1017H8.02678L8.02678 35.8465C8.02678 31.2962 11.7102 27.6058 16.2594 27.5914L16.312 27.5915ZM27.7301 35.8467V34.5564C31.299 33.9285 34.1231 31.1406 34.8027 27.5915H35.9895C40.551 27.5915 44.2489 31.2875 44.2489 35.8467V44.1019L35.9895 44.1019C35.5052 44.1019 35.0318 44.0604 34.5724 43.9811C30.6863 43.3104 27.7301 39.922 27.7301 35.8467ZM35.9895 24.4086H34.8262C34.6048 23.151 34.1147 21.986 33.4174 20.9748L34.2299 20.1627C37.4554 16.9389 42.685 16.9389 45.9105 20.1627L51.7507 26L46.4798 31.2683C44.7132 27.2302 40.681 24.4086 35.9895 24.4086ZM31.9781 17.9121L31.1656 18.7241C30.1539 18.0272 28.9883 17.5374 27.7301 17.316V16.1534C27.7301 11.5942 31.428 7.8982 35.9895 7.8982L38.4524 7.89805H44.2489V15.3486C40.1429 13.7419 35.2955 14.5963 31.9781 17.9121ZM5.82166 20.7317C6.78502 22.9337 8.42207 24.774 10.4724 25.9923C8.41558 27.2071 6.77217 29.0469 5.80371 31.2502L0.550777 25.9999L5.82166 20.7317ZM31.7746 25.9362C31.7746 22.8599 29.2795 20.3661 26.2016 20.3661C23.1237 20.3661 20.6286 22.8599 20.6286 25.9362C20.6286 29.0125 23.1237 31.5063 26.2016 31.5063C29.2795 31.5063 31.7746 29.0125 31.7746 25.9362Z" fill="url(#paint0_linear_385_45805)"/>
<defs>
<linearGradient id="paint0_linear_385_45805" x1="42.9632" y1="45.9237" x2="11.0724" y2="0.384606" gradientUnits="userSpaceOnUse">
<stop stop-color="#5E2CE0"/>
<stop offset="1" stop-color="#A652F9"/>
</linearGradient>
</defs>
</svg>
