<svg width="16" height="17" viewBox="0 0 16 17" fill="none" xmlns="http://www.w3.org/2000/svg">
    <path fill-rule="evenodd" clip-rule="evenodd"
        d="M7.5019 14.75V12.9657C5.4184 12.7359 3.76405 11.0815 3.5343 8.99805H1.75V11.9612C1.75 13.5014 2.99859 14.75 4.5388 14.75H7.5019ZM1.75 8.00205H3.53429C3.76403 5.9185 5.4184 4.2641 7.5019 4.03429V2.25H4.5388C2.99859 2.25 1.75 3.49859 1.75 5.0388V8.00205ZM8.4979 14.75H11.4612C13.0014 14.75 14.25 13.5014 14.25 11.9612V5.0388C14.25 3.49859 13.0014 2.25 11.4612 2.25H8.4979V4.03427C10.5816 4.26396 12.236 5.9184 12.4657 8.00205H13.0773C13.3523 8.00205 13.5753 8.225 13.5753 8.50005C13.5753 8.77505 13.3523 8.99805 13.0773 8.99805H12.4657C12.236 11.0816 10.5815 12.736 8.4979 12.9657V14.75ZM7.5019 11.8237V11.9619C5.96915 11.7433 4.75674 10.5308 4.5382 8.99805H6.15305C6.3722 9.8127 7.11605 10.4123 7.9999 10.4123C9.05605 10.4123 9.9122 9.5562 9.9122 8.50005C9.9122 7.4439 9.05605 6.5877 7.9999 6.5877C7.11605 6.5877 6.3722 7.18735 6.15305 8.00205H4.5382C4.75672 6.46925 5.96915 5.25678 7.5019 5.0382V5.20455C7.5019 5.47958 7.72485 5.70255 7.9999 5.70255C8.27495 5.70255 8.4979 5.47958 8.4979 5.20455V5.03817C10.0308 5.25666 11.2434 6.46915 11.4619 8.00205H11.2787C11.0037 8.00205 10.7807 8.225 10.7807 8.50005C10.7807 8.77505 11.0037 8.99805 11.2787 8.99805H11.4619C11.2433 10.5308 10.0308 11.7434 8.4979 11.9619V11.8237C8.4979 11.5487 8.27495 11.3258 7.9999 11.3258C7.72485 11.3258 7.5019 11.5487 7.5019 11.8237ZM7.9999 7.62355C7.51585 7.62355 7.1234 8.01595 7.1234 8.50005C7.1234 8.9841 7.51585 9.3765 7.9999 9.3765C8.48395 9.3765 8.8764 8.9841 8.8764 8.50005C8.8764 8.01595 8.48395 7.62355 7.9999 7.62355Z"
        fill="url(#paint0_linear_16_526)" />
    <defs>
        <linearGradient id="paint0_linear_16_526" x1="4.59601" y1="3.25831" x2="11.404" y2="13.7417"
            gradientUnits="userSpaceOnUse">
            <stop stop-color="#FD7A64" />
            <stop offset="1" stop-color="#D51000" />
        </linearGradient>
    </defs>
</svg>