<svg width="24" height="24" viewBox="0 0 24 24" fill="none" xmlns="http://www.w3.org/2000/svg">
    <path
        d="M11.8819 18.781C11.8819 18.984 12.0464 19.1485 12.2494 19.1485H18.1726H18.1897H18.2067H18.3823V19.1448C20.9635 19.0436 23.0251 16.9191 23.0251 14.3131C23.0251 11.7777 21.0737 9.69802 18.5909 9.49406C18.4147 9.47957 18.2661 9.35194 18.2292 9.17904C17.5586 6.03394 14.7644 3.67505 11.4193 3.67505C7.5737 3.67505 4.45627 6.79248 4.45627 10.638C4.45627 10.6786 4.42732 10.7136 4.38756 10.7215C2.44109 11.1125 0.974976 12.8317 0.974976 14.8933C0.974976 17.2433 2.87999 19.1484 5.22996 19.1484L10.1257 19.1485C10.3287 19.1485 10.4932 18.984 10.4932 18.781V17.6282C10.4932 17.4431 10.355 17.2884 10.173 17.2535C9.40773 17.1067 8.75263 16.7908 8.30421 16.3389C7.90303 15.9346 7.66351 15.4338 7.58911 14.8456C7.56333 14.6421 7.7322 14.4742 7.93735 14.4752L8.75594 14.479C8.95241 14.4799 9.10884 14.6369 9.15362 14.8283C9.34169 15.6316 10.0687 16.1607 11.1459 16.1658C11.5656 16.1677 13.1306 15.9716 13.1356 14.89C13.1397 14.0249 12.0023 13.6968 10.9263 13.4313C10.7429 13.386 10.5559 13.3398 10.3692 13.2897C9.15204 12.9664 7.86458 12.5965 7.87188 11.0393C7.87893 9.52675 9.15204 8.74661 10.4932 8.58773V7.13722C10.4932 6.93427 10.6577 6.76973 10.8607 6.76973H11.5131C11.716 6.76973 11.8805 6.93427 11.8805 7.13722V8.62714C12.8477 8.78333 14.1503 9.27288 14.3711 10.7638C14.4015 10.9686 14.2317 11.1401 14.0247 11.1391L13.2021 11.1353C13.0134 11.1344 12.8613 10.9884 12.8049 10.8083C12.5916 10.1273 11.9229 9.71438 10.9436 9.70978C10.2923 9.70675 9.34817 10.0524 9.34447 10.8419C9.34116 11.5573 9.88869 11.8011 11.9321 12.329L12.2026 12.3981C12.2368 12.4066 12.2732 12.4153 12.3117 12.4246C13.0902 12.6123 14.6873 12.9975 14.6794 14.7099C14.673 16.0617 13.7496 16.9862 12.2065 17.2614C12.0226 17.2942 11.8819 17.4497 11.8819 17.6365V18.781Z"
        fill="url(#paint0_linear_107_1583)" />
    <defs>
        <linearGradient id="paint0_linear_107_1583" x1="5.99537" y1="4.92322" x2="12.9574" y2="20.2005"
            gradientUnits="userSpaceOnUse">
            <stop stop-color="#00CFDE" />
            <stop offset="1" stop-color="#05A660" />
        </linearGradient>
    </defs>
</svg>