<?xml version="1.0" encoding="UTF-8"?>
<svg xmlns="http://www.w3.org/2000/svg" xmlns:xlink="http://www.w3.org/1999/xlink" width="16px" height="16px" viewBox="0 0 16 16" version="1.1">
<defs>
<linearGradient id="linear0" gradientUnits="userSpaceOnUse" x1="39.496101" y1="27.483" x2="111.957001" y2="198.130997" gradientTransform="matrix(0.0569395,0,0,0.0569395,0,0)">
<stop offset="0" style="stop-color:rgb(45.882353%,65.490196%,100%);stop-opacity:1;"/>
<stop offset="0.479167" style="stop-color:rgb(28.627451%,49.411765%,86.27451%);stop-opacity:1;"/>
<stop offset="1" style="stop-color:rgb(27.058824%,41.960784%,87.843137%);stop-opacity:0;"/>
</linearGradient>
<linearGradient id="linear1" gradientUnits="userSpaceOnUse" x1="239.240005" y1="4.14263" x2="78.271896" y2="6.07496" gradientTransform="matrix(0.0569395,0,0,0.0569395,0,0)">
<stop offset="0" style="stop-color:rgb(85.882353%,85.882353%,85.882353%);stop-opacity:0.0784314;"/>
<stop offset="0.510417" style="stop-color:rgb(86.27451%,86.27451%,86.27451%);stop-opacity:1;"/>
</linearGradient>
<linearGradient id="linear2" gradientUnits="userSpaceOnUse" x1="239.240005" y1="174.494003" x2="78.271896" y2="176.425995" gradientTransform="matrix(0.0569395,0,0,0.0569395,0,0)">
<stop offset="0" style="stop-color:rgb(85.882353%,85.882353%,85.882353%);stop-opacity:0.0784314;"/>
<stop offset="0.510417" style="stop-color:rgb(86.27451%,86.27451%,86.27451%);stop-opacity:1;"/>
</linearGradient>
<linearGradient id="linear3" gradientUnits="userSpaceOnUse" x1="171.061996" y1="207.606003" x2="127.317001" y2="41.7043" gradientTransform="matrix(0.0569395,0,0,0.0569395,0,0)">
<stop offset="0" style="stop-color:rgb(85.882353%,85.882353%,85.882353%);stop-opacity:0.0784314;"/>
<stop offset="0.510417" style="stop-color:rgb(86.27451%,86.27451%,86.27451%);stop-opacity:1;"/>
</linearGradient>
<linearGradient id="linear4" gradientUnits="userSpaceOnUse" x1="270.709991" y1="128.731003" x2="18.2897" y2="132.188995" gradientTransform="matrix(0.0569395,0,0,0.0569395,0,0)">
<stop offset="0" style="stop-color:rgb(85.882353%,85.882353%,85.882353%);stop-opacity:0.0784314;"/>
<stop offset="0.510417" style="stop-color:rgb(86.27451%,86.27451%,86.27451%);stop-opacity:1;"/>
</linearGradient>
</defs>
<g id="surface1">
<path style=" stroke:none;fill-rule:nonzero;fill:url(#linear0);" d="M 5.160156 9.945312 L 5.53125 9.585938 L 5.648438 9.46875 C 5.648438 9.46875 8.839844 7.398438 10.753906 7.398438 L 10.921875 7.398438 C 9.132812 7.304688 7.4375 6.582031 6.152344 5.359375 L 1.417969 0.730469 L 1.105469 0.730469 L 0.582031 1.242188 L 0.582031 1.550781 L 5.179688 6.046875 C 5.703125 6.566406 5.992188 7.269531 5.992188 8 C 5.988281 8.730469 5.6875 9.429688 5.160156 9.945312 Z M 5.160156 9.945312 "/>
<path style=" stroke:none;fill-rule:nonzero;fill:url(#linear1);" d="M 8.445312 3.6875 L 4.964844 0.285156 L 4.652344 0.285156 L 4.132812 0.792969 L 4.132812 1.101562 L 7.773438 4.664062 C 8.667969 5.535156 9.875 6.027344 11.136719 6.027344 L 13.773438 6.027344 L 13.996094 5.8125 L 13.996094 5.085938 L 13.773438 4.871094 L 11.371094 4.871094 C 10.273438 4.871094 9.222656 4.445312 8.445312 3.6875 Z M 8.445312 3.6875 "/>
<path style=" stroke:none;fill-rule:nonzero;fill:url(#linear2);" d="M 8.445312 12.324219 L 4.964844 15.726562 L 4.652344 15.726562 L 4.132812 15.214844 L 4.132812 14.910156 L 7.773438 11.347656 C 8.667969 10.476562 9.875 9.984375 11.136719 9.984375 L 13.773438 9.984375 L 13.996094 10.199219 L 13.996094 10.921875 L 13.773438 11.136719 L 11.371094 11.136719 C 10.273438 11.136719 9.222656 11.5625 8.445312 12.324219 Z M 8.445312 12.324219 "/>
<path style=" stroke:none;fill-rule:nonzero;fill:url(#linear3);" d="M 2.957031 6.160156 L 0.832031 4.082031 L 0.523438 4.082031 L 0 4.59375 L 0 4.898438 L 2.023438 6.878906 C 2.171875 7.027344 2.292969 7.199219 2.371094 7.390625 C 2.453125 7.578125 2.496094 7.785156 2.496094 7.988281 C 2.496094 8.195312 2.453125 8.402344 2.371094 8.589844 C 2.292969 8.78125 2.171875 8.953125 2.023438 9.101562 L 0.148438 10.933594 L 0.148438 11.238281 L 0.671875 11.75 L 0.984375 11.75 L 2.957031 9.824219 C 3.203125 9.582031 3.398438 9.296875 3.53125 8.984375 C 3.664062 8.667969 3.734375 8.332031 3.734375 7.992188 C 3.734375 7.652344 3.664062 7.3125 3.53125 7 C 3.398438 6.683594 3.203125 6.398438 2.957031 6.160156 Z M 2.957031 6.160156 "/>
<path style=" stroke:none;fill-rule:nonzero;fill:url(#linear4);" d="M 15.777344 7.398438 L 10.753906 7.398438 C 8.839844 7.398438 7.003906 8.144531 5.648438 9.46875 L 0.53125 14.472656 L 0.53125 14.777344 L 1.054688 15.289062 L 1.367188 15.289062 L 6.140625 10.628906 C 6.808594 9.972656 7.605469 9.449219 8.480469 9.09375 C 9.359375 8.738281 10.296875 8.554688 11.246094 8.554688 L 15.78125 8.554688 L 16 8.347656 L 16 7.625 Z M 15.777344 7.398438 "/>
</g>
</svg>
