<svg width="16" height="16" viewBox="0 0 16 16" fill="none" xmlns="http://www.w3.org/2000/svg">
<path d="M7.99991 1.59998C11.5345 1.60001 14.3999 4.46513 14.4 7.99969C14.4 9.62749 13.7918 11.1131 12.7909 12.2426L11.2731 10.7247C12.6177 9.10334 12.5312 6.69498 11.0121 5.17579C9.64887 3.81267 7.57015 3.60293 5.98624 4.54472C5.80221 4.65423 5.74194 4.89207 5.85139 5.07616C5.96089 5.26025 6.19873 5.32087 6.38284 5.21139C7.66912 4.44659 9.3573 4.61808 10.4636 5.72428C11.6795 6.94024 11.765 8.85766 10.7215 10.1732L9.74842 9.20009C9.93646 8.9187 10.0514 8.59212 10.0784 8.25045C10.1155 7.77802 9.98264 7.30769 9.7041 6.9243C9.42553 6.54088 9.01908 6.26939 8.55825 6.15876C8.09751 6.04818 7.61225 6.10541 7.19005 6.3205C6.76781 6.53566 6.43616 6.89481 6.25481 7.33264C6.07351 7.77041 6.05426 8.25852 6.20064 8.70917C6.34709 9.15991 6.64997 9.54376 7.05406 9.79138C7.23402 9.90163 7.42884 9.9817 7.63097 10.03C7.88256 10.0901 8.14574 10.101 8.40522 10.0599C8.6167 10.0264 8.76099 9.82788 8.72757 9.61638C8.69609 9.41814 8.51959 9.27895 8.3234 9.28986L8.28363 9.29403C8.12534 9.31907 7.96477 9.31215 7.81127 9.27547C7.68794 9.24598 7.5688 9.19728 7.45899 9.13001C7.21253 8.97892 7.0279 8.7447 6.93853 8.46977C6.84916 8.19472 6.86081 7.89643 6.97149 7.62923C7.08216 7.36212 7.28472 7.14308 7.54233 7.0118C7.79992 6.8806 8.09609 6.84588 8.37719 6.91331C8.65836 6.98085 8.90685 7.14642 9.07682 7.38036C9.24668 7.61428 9.32713 7.90127 9.30448 8.18947C9.2831 8.46092 9.17149 8.71708 8.9878 8.91675C8.82915 9.08925 8.81957 9.3686 8.99993 9.54896L10.4624 11.0111L10.4636 11.013L10.4651 11.0138L12.2424 12.7911C11.113 13.7918 9.62759 14.3998 7.99991 14.3998C4.46527 14.3998 1.59982 11.5343 1.59982 7.99969C1.59984 6.75735 1.95425 5.59793 2.56688 4.61631L4.33319 6.39209C3.64564 7.91186 3.92584 9.76283 5.17563 11.0126C6.30385 12.1407 7.9221 12.4788 9.34349 12.0285L9.48024 11.9823C9.68191 11.9105 9.78718 11.689 9.71547 11.4872C9.64812 11.298 9.44886 11.1933 9.25788 11.2403L9.22038 11.2516C8.03851 11.6722 6.66905 11.409 5.72412 10.4641C4.65102 9.39103 4.45694 7.77014 5.14457 6.49967L5.28207 6.24588L3.02332 3.97539C4.19665 2.52628 5.99008 1.59998 7.99991 1.59998Z" fill="url(#paint0_linear_6047_202)"/>
<defs>
<linearGradient id="paint0_linear_6047_202" x1="4.48145" y1="2.60966" x2="13.218" y2="13.1335" gradientUnits="userSpaceOnUse">
<stop stop-color="#6CB5FF"/>
<stop offset="1" stop-color="#4D4AFF"/>
</linearGradient>
</defs>
</svg>
