<svg width="24" height="24" viewBox="0 0 24 24" fill="none" xmlns="http://www.w3.org/2000/svg">
    <path
        d="M20.2814 8.54777L15.3024 3.50293C14.7128 2.93883 14.0104 2.50929 13.2428 2.24327C11.5416 1.67013 9.84869 2.11751 8.47763 3.50293L3.48639 8.54777C2.92896 9.1445 2.5045 9.85521 2.24163 10.6321C1.67324 12.3536 2.11533 14.0668 3.48639 15.4522L8.47152 20.4971C9.06022 21.0614 9.76197 21.491 10.5291 21.7567C10.9939 21.9157 11.4809 21.9979 11.9715 22C13.1673 22 14.3123 21.4887 15.2943 20.4971L20.2773 15.4522C20.8355 14.8557 21.2607 14.1449 21.5241 13.3679C22.0905 11.6464 21.6484 9.93529 20.2773 8.54777H20.2814ZM12.2669 4.9667C12.6435 5.08889 12.9905 5.28977 13.2855 5.55634L14.7585 7.04896L11.8859 9.95379L9.01343 7.04689L10.4945 5.54602C10.8918 5.14606 11.452 4.72136 12.271 4.96464L12.2669 4.9667ZM4.93691 11.6093C5.05802 11.2279 5.25726 10.8767 5.52159 10.5785L6.99452 9.08792L9.86704 11.9949L6.99249 14.9018L5.51141 13.4009C5.11414 13.0009 4.69651 12.434 4.93487 11.6052L4.93691 11.6093ZM11.5009 19.0271C11.1238 18.906 10.7766 18.705 10.4823 18.4375L9.01343 16.9634L11.8859 14.0544L14.7585 16.9614L13.2774 18.4622C12.8801 18.8621 12.3219 19.2869 11.5009 19.0436V19.0271ZM18.835 12.3989C18.7139 12.7799 18.5154 13.131 18.2523 13.4297L16.7794 14.9018L13.9069 11.9949L16.7794 9.08792L18.2605 10.5867C18.6578 10.9867 19.0753 11.5536 18.837 12.3824"
        fill="#00ABE4" />
</svg>