<svg width="32" height="32" viewBox="0 0 32 32" fill="none" xmlns="http://www.w3.org/2000/svg">
<path d="M9.33325 24V22.6667C9.33325 18.9848 12.318 16 15.9999 16C19.6818 16 22.6666 18.9848 22.6666 22.6667V24" stroke="white" stroke-width="1.5" stroke-linecap="round"/>
<path d="M16 16C18.2092 16 20 14.2092 20 12C20 9.79087 18.2092 8 16 8C13.7908 8 12 9.79087 12 12C12 14.2092 13.7908 16 16 16Z" stroke="white" stroke-width="1.5" stroke-linecap="round" stroke-linejoin="round"/>
<path d="M28 4.8V27.2C28 27.6419 27.6419 28 27.2 28H4.8C4.35817 28 4 27.6419 4 27.2V4.8C4 4.35817 4.35817 4 4.8 4H27.2C27.6419 4 28 4.35817 28 4.8Z" stroke="white" stroke-width="1.5" stroke-linecap="round" stroke-linejoin="round"/>
</svg>
