<svg width="34" height="34" viewBox="0 0 34 34" fill="none" xmlns="http://www.w3.org/2000/svg">
<path fill-rule="evenodd" clip-rule="evenodd" d="M19.0285 4.34356C19.484 4.00786 19.9783 3.72174 20.5036 3.49323L17.0086 0L13.1303 3.87634C10.9883 6.01718 10.9883 9.48817 13.1303 11.629L13.6976 12.196C14.356 11.7344 15.1144 11.4056 15.934 11.2488V10.4612C15.934 8.0249 17.0817 5.85646 18.8662 4.46654C18.9197 4.42484 18.9738 4.38384 19.0285 4.34356ZM11.6349 13.1236L12.2146 13.703C11.7661 14.3651 11.4507 15.1246 11.3065 15.9431H10.4493L10.4345 15.9431C7.42005 15.9259 4.98169 13.4782 4.98169 10.4612V4.97925H9.93171C8.86424 7.70448 9.43197 10.9218 11.6349 13.1236ZM10.4664 18.0569H11.3221C11.768 20.3856 13.6042 22.2208 15.9341 22.6665V23.5388C15.9341 26.6534 17.8088 29.3288 20.4919 30.5013L16.9914 34L13.1131 30.1237C11.3493 28.3608 11.0367 25.6935 12.1806 23.611C12.4616 23.0994 12.2745 22.4569 11.7626 22.176C11.2507 21.8951 10.6079 22.0822 10.3268 22.5938C9.2381 24.576 9.10008 26.9413 9.91449 29.0207H4.96454L4.96454 23.5387C4.96454 20.517 7.41054 18.0664 10.4315 18.0568L10.4664 18.0569ZM18.0488 23.5388V22.682C20.4188 22.2651 22.2941 20.4137 22.7455 18.0569H23.5336C26.5627 18.0569 29.0183 20.5112 29.0183 23.5388V29.0208L23.5336 29.0208C23.2119 29.0208 22.8976 28.9932 22.5925 28.9406C20.0119 28.4952 18.0488 26.2451 18.0488 23.5388ZM23.5336 15.9432H22.761C22.614 15.1081 22.2886 14.3345 21.8255 13.663L22.3651 13.1237C24.507 10.9829 27.9798 10.9829 30.1217 13.1237L34 17L30.4998 20.4985C29.3266 17.817 26.649 15.9432 23.5336 15.9432ZM20.8697 11.6291L20.3302 12.1684C19.6583 11.7056 18.8843 11.3803 18.0488 11.2333V10.4612C18.0488 7.43364 20.5044 4.97928 23.5335 4.97928L25.1691 4.97918H29.0183V9.92682C26.2917 8.85984 23.0727 9.42727 20.8697 11.6291ZM3.5002 13.5015C4.13993 14.9638 5.22703 16.1859 6.58855 16.9949C5.22272 17.8016 4.1314 19.0234 3.48828 20.4865L0 17L3.5002 13.5015ZM20.7346 16.9577C20.7346 14.9148 19.0777 13.2587 17.0338 13.2587C14.9899 13.2587 13.333 14.9148 13.333 16.9577C13.333 19.0005 14.9899 20.6566 17.0338 20.6566C19.0777 20.6566 20.7346 19.0005 20.7346 16.9577Z" fill="url(#paint0_linear_3461_8761)"/>
<defs>
<linearGradient id="paint0_linear_3461_8761" x1="28.1645" y1="30.2306" x2="6.98701" y2="-0.0102167" gradientUnits="userSpaceOnUse">
<stop stop-color="#5E2CE0"/>
<stop offset="1" stop-color="#A652F9"/>
</linearGradient>
</defs>
</svg>
