<svg width="17" height="16" viewBox="0 0 17 16" fill="none" xmlns="http://www.w3.org/2000/svg">
<mask id="mask0_309_269" style="mask-type:luminance" maskUnits="userSpaceOnUse" x="1" y="6" width="15" height="3">
<path d="M15.4696 6H1.66667V8.26276H15.4696V6Z" fill="white"/>
</mask>
<g mask="url(#mask0_309_269)">
<path d="M2.52183 7.42125L2.57605 7.3685L2.59345 7.3512C2.59345 7.3512 3.06199 7.04729 3.34305 7.04729H3.36731C3.10467 7.03402 2.85596 6.92767 2.66765 6.74812L1.97227 6.06885H1.92633L1.84985 6.14392V6.18885L2.52441 6.84887C2.60127 6.92531 2.64414 7.02836 2.64365 7.13558C2.64318 7.24278 2.59938 7.34547 2.52183 7.42125Z" fill="url(#paint0_linear_309_269)"/>
<path d="M3.0041 6.50295L2.49332 6.00342H2.44738L2.37091 6.0782V6.12314L2.90536 6.64613C3.03638 6.77422 3.21404 6.84619 3.39929 6.84622H3.78622L3.81875 6.81468V6.70836L3.78622 6.67683H3.43325C3.27228 6.67681 3.11791 6.61427 3.0041 6.50295Z" fill="url(#paint1_linear_309_269)"/>
<path d="M3.0041 7.7705L2.49332 8.27005H2.44738L2.37091 8.19498V8.15005L2.90536 7.62734C3.03638 7.49925 3.21404 7.42727 3.39929 7.42725H3.78622L3.81875 7.45877V7.56483L3.78622 7.59664H3.43325C3.27228 7.59664 3.11791 7.65918 3.0041 7.7705Z" fill="url(#paint2_linear_309_269)"/>
<path d="M2.19857 6.86578L1.8867 6.56104H1.84104L1.76427 6.6361V6.68076L2.06133 6.97155C2.08323 6.99294 2.10062 7.01834 2.11248 7.04631C2.12434 7.07427 2.13045 7.10425 2.13045 7.13453C2.13045 7.16481 2.12434 7.19479 2.11248 7.22276C2.10062 7.25072 2.08323 7.27612 2.06133 7.29751L1.78625 7.56681V7.61147L1.86301 7.68653H1.90867L2.19829 7.40355C2.23443 7.36828 2.26312 7.32637 2.28269 7.28025C2.30226 7.23412 2.31236 7.18468 2.31239 7.13473C2.31241 7.08478 2.30237 7.03533 2.28284 6.98918C2.26332 6.94302 2.23469 6.9011 2.19857 6.86578Z" fill="url(#paint3_linear_309_269)"/>
<path d="M4.08041 7.04736H3.34309C3.06191 7.04754 2.79231 7.15685 2.59348 7.35127L1.84245 8.0858V8.13073L1.9192 8.2058H1.96515L2.66539 7.52179C2.76376 7.42528 2.88063 7.34872 3.00931 7.29647C3.13798 7.24423 3.27594 7.21733 3.41528 7.21731H4.08098L4.11294 7.1869V7.08085L4.08041 7.04736Z" fill="url(#paint4_linear_309_269)"/>
<path d="M4.44593 6.68506H5.33049L5.3519 6.70599V6.82013L5.33049 6.84106H4.99893L4.97752 6.862V7.58759L4.95612 7.60852H4.82086L4.79947 7.58759V6.862L4.77807 6.84106H4.44593L4.42453 6.82013V6.7071L4.44593 6.68506Z" fill="white"/>
<path d="M5.66492 6.70649L5.68632 6.68555H6.1928C6.40025 6.68555 6.51582 6.77905 6.51582 6.96128C6.51582 7.07765 6.45875 7.16249 6.35317 7.20296L6.34176 7.23255L6.53465 7.57748L6.51582 7.60845H6.37572L6.35688 7.59757L6.15457 7.23979L6.13573 7.22919H5.86409L5.84268 7.25012V7.5878L5.82129 7.60874H5.68575L5.66434 7.5878L5.66492 6.70649ZM5.84325 6.86109V7.05645L5.86466 7.07738H6.17854C6.28098 7.07738 6.33262 7.03859 6.33262 6.96184C6.33262 6.87811 6.28098 6.84072 6.17854 6.84072H5.86466L5.84325 6.86109Z" fill="white"/>
<path d="M7.50457 7.41896H7.0563L7.03689 7.43124L6.96185 7.59646L6.94216 7.60873H6.8109L6.79121 7.57915L7.19612 6.69392L7.2158 6.68164H7.35676L7.37645 6.69392L7.78108 7.57915L7.76167 7.60873H7.619L7.59959 7.59646L7.52427 7.43124L7.50457 7.41896ZM7.43865 7.23868L7.30141 6.93784H7.26231L7.12478 7.23868L7.14446 7.26659H7.41869L7.43865 7.23868Z" fill="white"/>
<path d="M7.99452 7.14713C7.99452 6.87671 8.19426 6.66992 8.47047 6.66992C8.73813 6.66992 8.86425 6.8315 8.90249 6.94146L8.88222 6.96936H8.73955L8.72158 6.95959C8.69475 6.91867 8.65755 6.88524 8.6136 6.86255C8.56966 6.83986 8.52044 6.82868 8.47076 6.8301C8.29384 6.8301 8.17971 6.97439 8.17971 7.14742C8.17971 7.32044 8.2947 7.46583 8.47047 7.46583C8.62256 7.46583 8.69532 7.38602 8.72415 7.33607L8.7427 7.32546H8.88251L8.90277 7.35338C8.86767 7.45719 8.74726 7.62603 8.47047 7.62603C8.19369 7.62603 7.99452 7.41756 7.99452 7.14713Z" fill="white"/>
<path d="M9.26713 6.68506H10.0418L10.0632 6.70599V6.81484L10.0418 6.83576H9.44518L9.42378 6.85669V7.02413L9.44518 7.04506H9.80186L9.82326 7.066V7.17763L9.80186 7.19856H9.44518L9.42378 7.21976V7.43269L9.44518 7.45364H10.0418L10.0632 7.47456V7.5862L10.0418 7.60712H9.26713L9.24572 7.5862V6.7071L9.26713 6.68506Z" fill="white"/>
<path d="M13.89 6.68506H14.6647L14.6862 6.70599V6.81484L14.6647 6.83576H14.0681L14.0466 6.85669V7.02413L14.0681 7.04506H14.4245L14.4458 7.066V7.17763L14.4245 7.19856H14.0681L14.0466 7.21976V7.43269L14.0681 7.45364H14.6647L14.6862 7.47456V7.5862L14.6647 7.60712H13.89L13.8683 7.5862V6.7071L13.89 6.68506Z" fill="white"/>
<path d="M11.016 7.41896H10.5677L10.5483 7.43124L10.4733 7.59646L10.4536 7.60873H10.3206L10.3009 7.57915L10.7058 6.69392L10.7255 6.68164H10.8665L10.8862 6.69392L11.2922 7.57915L11.2728 7.60873H11.1301L11.1104 7.59646L11.0354 7.43124L11.016 7.41896ZM10.9484 7.23868L10.8114 6.93784H10.7723L10.6345 7.23868L10.6542 7.26659H10.9284L10.9484 7.23868Z" fill="white"/>
<path d="M11.603 6.70649L11.6244 6.68555H12.1095C12.3155 6.68555 12.4259 6.77905 12.4259 6.93504C12.4262 6.96919 12.417 7.00278 12.3994 7.03225C12.3818 7.06173 12.3563 7.08599 12.3257 7.1025V7.13905C12.3635 7.15869 12.3949 7.18829 12.4162 7.22451C12.4376 7.26072 12.4482 7.30209 12.4467 7.34389C12.4467 7.5052 12.3352 7.6079 12.1171 7.6079H11.6244L11.603 7.58697V6.70649ZM11.7784 6.85467V7.03914L11.7998 7.06007H12.0898C12.1922 7.06007 12.2427 7.02239 12.2427 6.94677C12.2427 6.87113 12.1908 6.83374 12.0898 6.83374H11.7998L11.7784 6.85467ZM11.7784 7.2278V7.43962L11.7998 7.46054H12.0949C12.2107 7.46054 12.2638 7.41645 12.2638 7.33301C12.2638 7.24957 12.2067 7.20687 12.0949 7.20687H11.7998L11.7784 7.2278Z" fill="white"/>
<path d="M13.5323 7.60874H12.8131L12.7917 7.5878V6.70649L12.8131 6.68555H12.9484L12.9698 6.70649V7.4304L12.9912 7.45133H13.5333L13.5548 7.47227V7.5878L13.5323 7.60874Z" fill="white"/>
<path d="M15.4689 7.60899H15.0222L15.0012 7.58834V7.47671L15.0222 7.45605H15.4689L15.4899 7.47671V7.58834L15.4689 7.60899Z" fill="url(#paint5_linear_309_269)"/>
</g>
<path d="M6.22256 8.89225H6.32289V9.19083C6.35752 9.13112 6.43277 9.0929 6.51757 9.0929C6.68239 9.0929 6.7851 9.22069 6.7851 9.42373C6.7851 9.62677 6.68239 9.75457 6.51757 9.75457C6.42918 9.75457 6.35275 9.71396 6.31692 9.64946L6.31333 9.74023H6.22256V8.89225ZM6.31333 9.42373C6.31333 9.56825 6.38499 9.65902 6.49726 9.65902C6.60834 9.65902 6.68 9.56825 6.68 9.42373C6.68 9.27683 6.60834 9.18367 6.49726 9.18367C6.38499 9.18367 6.31333 9.27683 6.31333 9.42373ZM6.80094 9.10723H6.90844L7.09834 9.63274L7.28346 9.10723H7.38976L7.13297 9.82026C7.10909 9.88833 7.0637 9.91939 6.99204 9.91939H6.90963V9.831H6.98249C7.01354 9.831 7.03145 9.81787 7.0434 9.78681L7.06609 9.72829H7.03265L6.80094 9.10723Z" fill="white"/>
<g clip-path="url(#clip0_309_269)">
<path d="M9.86657 8.97764L9.48144 8.59421C9.43583 8.55134 9.3815 8.51869 9.32212 8.49847C9.19054 8.45491 9.05959 8.48891 8.95354 8.59421L8.56746 8.97764C8.52435 9.02299 8.49152 9.07701 8.47118 9.13606C8.42722 9.26689 8.46141 9.39711 8.56746 9.5024L8.95307 9.88583C8.9986 9.92872 9.05288 9.96137 9.11223 9.98157C9.14817 9.99366 9.18585 9.9999 9.22379 10.0001C9.31629 10.0001 9.40486 9.9612 9.48081 9.88583L9.86626 9.5024C9.90943 9.45707 9.94232 9.40304 9.9627 9.34399C10.0065 9.21315 9.97231 9.08309 9.86626 8.97764H9.86657ZM9.24664 8.70546C9.27577 8.71475 9.30262 8.73002 9.32543 8.75028L9.43937 8.86372L9.21717 9.0845L8.99498 8.86357L9.10955 8.74949C9.14027 8.71909 9.18361 8.68682 9.24696 8.7053L9.24664 8.70546ZM8.67966 9.21033C8.68903 9.18134 8.70444 9.15464 8.72489 9.13198L8.83882 9.01869L9.06101 9.23963L8.83866 9.46057L8.7241 9.34649C8.69337 9.3161 8.66107 9.27301 8.67951 9.21001L8.67966 9.21033ZM9.18739 9.77411C9.15823 9.76491 9.13137 9.74963 9.1086 9.7293L8.99498 9.61726L9.21717 9.39617L9.43937 9.6171L9.3248 9.73118C9.29407 9.76157 9.2509 9.79385 9.18739 9.77536V9.77411ZM9.75469 9.27034C9.74532 9.2993 9.72997 9.32598 9.70962 9.34869L9.59569 9.46057L9.3735 9.23963L9.59569 9.01869L9.71025 9.13261C9.74098 9.16301 9.77328 9.2061 9.75484 9.26909" fill="#00ABE4"/>
<path d="M10.6981 9.78011H10.8972V9.2309C10.8972 9.06151 10.7936 8.93647 10.617 8.93647C10.5309 8.93647 10.4388 8.97439 10.3908 9.04412V8.63672H10.192V9.77964H10.3908V9.34638C10.3908 9.24516 10.4419 9.11855 10.5612 9.11855C10.6663 9.11855 10.6981 9.177 10.6981 9.27211V9.78011ZM11.5018 9.45528C11.5018 9.57609 11.415 9.64206 11.2919 9.64206C11.2303 9.64206 11.175 9.60289 11.175 9.54006C11.175 9.47409 11.2334 9.43805 11.2935 9.43335L11.5018 9.41768V9.45528ZM11.6676 9.7928C11.7015 9.7939 11.7352 9.78635 11.7654 9.77087V9.62639C11.7572 9.62833 11.7487 9.62938 11.7402 9.62953C11.7071 9.62953 11.6945 9.61542 11.6945 9.57766V9.27477C11.697 9.21883 11.6889 9.16292 11.6707 9.10993C11.6235 8.9874 11.5034 8.94352 11.363 8.94352C11.1797 8.94352 11.0328 9.02516 11.0218 9.20881H11.213C11.2177 9.13344 11.2713 9.0927 11.363 9.0927C11.475 9.0927 11.5018 9.14441 11.5018 9.22134V9.27164L11.2601 9.28841C11.1037 9.29937 10.9823 9.38885 10.9823 9.54429C10.9823 9.67779 11.0833 9.80017 11.2791 9.80017C11.3959 9.80017 11.4906 9.74376 11.5286 9.67779C11.5349 9.73906 11.5822 9.79233 11.6674 9.79233L11.6676 9.7928ZM12.2877 9.13767C12.2982 9.13774 12.3087 9.13842 12.3192 9.1397V8.95481C12.3107 8.95481 12.3022 8.95293 12.2938 8.95293C12.1974 8.95293 12.0995 8.9921 12.0617 9.08627L12.0442 8.96389H11.8767V9.78027H12.0757V9.36895C12.0757 9.23701 12.1484 9.13814 12.2872 9.13814L12.2877 9.13767ZM12.9104 9.78058H13.1079V9.23544C13.1079 9.0659 13.0051 8.94352 12.8299 8.94352C12.7353 8.94352 12.6373 8.9827 12.5883 9.06888L12.5741 8.96374H12.4088V9.78011H12.6061V9.44745C12.6061 9.37835 12.6046 9.29358 12.6331 9.22918C12.6599 9.16948 12.7057 9.1256 12.7749 9.1256C12.8791 9.1256 12.9106 9.18373 12.9106 9.27947L12.9104 9.78058ZM13.7559 9.29076H13.401C13.4001 9.24473 13.4152 9.1998 13.4437 9.16352C13.4601 9.14315 13.4811 9.12688 13.5049 9.11599C13.5288 9.10511 13.5549 9.09992 13.5811 9.10084C13.604 9.09963 13.6269 9.10318 13.6484 9.11127C13.6699 9.11937 13.6894 9.13183 13.7057 9.14785C13.7373 9.18248 13.7547 9.22949 13.7563 9.29076H13.7559ZM13.9536 9.37866C13.9568 9.27665 13.9426 9.18405 13.8825 9.09442C13.8148 8.99241 13.7042 8.94384 13.5831 8.94384C13.5346 8.94243 13.4864 8.95089 13.4413 8.9687C13.3962 8.98651 13.3552 9.0133 13.3209 9.04741C13.2421 9.12748 13.2026 9.24359 13.2026 9.37396C13.2026 9.50746 13.2467 9.62201 13.3286 9.70051C13.3629 9.73358 13.4035 9.7595 13.448 9.77675C13.4925 9.794 13.54 9.80222 13.5877 9.80095C13.6919 9.80095 13.7945 9.76804 13.864 9.68641C13.8955 9.64864 13.9287 9.5844 13.9334 9.53567H13.7443C13.7377 9.56184 13.724 9.58573 13.7048 9.60477C13.6764 9.63297 13.6418 9.64394 13.5849 9.64394C13.5393 9.64379 13.4956 9.62578 13.4632 9.5938C13.4428 9.57258 13.4269 9.54743 13.4166 9.51989C13.4063 9.49235 13.4017 9.46301 13.4032 9.43366H13.952C13.952 9.41627 13.9536 9.37866 13.9536 9.37866ZM14.2187 9.19188C14.2191 9.17284 14.2254 9.15438 14.2367 9.13896C14.2479 9.12354 14.2636 9.11189 14.2817 9.10554C14.3089 9.0954 14.338 9.09113 14.367 9.09301C14.4062 9.09192 14.4444 9.10532 14.4743 9.13062C14.4949 9.15103 14.5068 9.17861 14.5074 9.20755H14.6954C14.693 9.14452 14.6671 9.08463 14.6227 9.03958C14.5628 8.97502 14.4634 8.94368 14.3655 8.94368C14.2628 8.94368 14.1764 8.97345 14.1161 9.02532C14.0891 9.04769 14.0676 9.07583 14.0531 9.10763C14.0386 9.13942 14.0316 9.17406 14.0324 9.20896C14.0324 9.31254 14.1082 9.40358 14.2202 9.42724C14.2929 9.44291 14.375 9.44761 14.4476 9.45857C14.4981 9.46641 14.5297 9.49775 14.5297 9.54491C14.5297 9.63438 14.4287 9.64849 14.3624 9.64849C14.3055 9.64849 14.2693 9.63752 14.2376 9.61245C14.2158 9.59301 14.2011 9.56686 14.196 9.53818H14.01C14.0177 9.60257 14.0479 9.66223 14.0954 9.70662C14.1634 9.77102 14.2565 9.80064 14.3608 9.80064C14.4728 9.80064 14.5754 9.77243 14.6418 9.70662C14.6653 9.6832 14.6838 9.65522 14.6961 9.62442C14.7084 9.59362 14.7142 9.56064 14.7132 9.52752C14.7132 9.39872 14.6186 9.31708 14.4889 9.29671C14.4084 9.28418 14.3879 9.28261 14.3137 9.27321C14.2696 9.26694 14.2191 9.24955 14.2191 9.19157L14.2187 9.19188ZM15.2649 9.20724H15.4522C15.4499 9.14421 15.424 9.08432 15.3796 9.03926C15.3195 8.97502 15.2201 8.94368 15.1229 8.94368C15.0203 8.94368 14.9338 8.97345 14.8734 9.02532C14.8465 9.04769 14.825 9.07583 14.8105 9.10763C14.796 9.13942 14.7889 9.17406 14.7897 9.20896C14.7897 9.31254 14.8655 9.40358 14.9776 9.42724C15.0502 9.44291 15.1323 9.44761 15.205 9.45857C15.2554 9.46641 15.2871 9.49775 15.2871 9.54491C15.2871 9.63438 15.1859 9.64849 15.1197 9.64849C15.0628 9.64849 15.0266 9.63752 14.9949 9.61245C14.9731 9.59301 14.9584 9.56686 14.9533 9.53818H14.7667C14.7744 9.60261 14.8047 9.66228 14.8523 9.70662C14.9201 9.77102 15.0132 9.80064 15.1175 9.80064C15.2296 9.80064 15.3321 9.77243 15.3985 9.70662C15.422 9.68317 15.4404 9.65518 15.4527 9.62438C15.4649 9.59358 15.4706 9.56062 15.4696 9.52752C15.4696 9.39872 15.375 9.31708 15.2453 9.29671C15.1648 9.28418 15.1443 9.28261 15.0701 9.27321C15.026 9.26694 14.9755 9.24955 14.9755 9.19157C14.976 9.17252 14.9823 9.15407 14.9935 9.13865C15.0048 9.12323 15.0205 9.11158 15.0386 9.10523C15.0658 9.09509 15.0948 9.09082 15.1238 9.0927C15.163 9.09161 15.2013 9.10501 15.2311 9.1303C15.2518 9.1507 15.2637 9.17828 15.2644 9.20724" fill="white"/>
</g>
<defs>
<linearGradient id="paint0_linear_309_269" x1="2.09439" y1="6.19119" x2="2.70003" y2="7.6175" gradientUnits="userSpaceOnUse">
<stop stop-color="#75A7FF"/>
<stop offset="0.479167" stop-color="#497EDC"/>
<stop offset="1" stop-color="#456BE0" stop-opacity="0"/>
</linearGradient>
<linearGradient id="paint1_linear_309_269" x1="3.76391" y1="5.99625" x2="2.4185" y2="6.0124" gradientUnits="userSpaceOnUse">
<stop stop-color="#DBDBDB" stop-opacity="0.08"/>
<stop offset="0.510417" stop-color="#DCDCDC"/>
</linearGradient>
<linearGradient id="paint2_linear_309_269" x1="3.76391" y1="7.42008" x2="2.4185" y2="7.43623" gradientUnits="userSpaceOnUse">
<stop stop-color="#DBDBDB" stop-opacity="0.08"/>
<stop offset="0.510417" stop-color="#DCDCDC"/>
</linearGradient>
<linearGradient id="paint3_linear_309_269" x1="3.19405" y1="7.69688" x2="2.82841" y2="6.31024" gradientUnits="userSpaceOnUse">
<stop stop-color="#DBDBDB" stop-opacity="0.08"/>
<stop offset="0.510417" stop-color="#DCDCDC"/>
</linearGradient>
<linearGradient id="paint4_linear_309_269" x1="4.02693" y1="7.03752" x2="1.91715" y2="7.06642" gradientUnits="userSpaceOnUse">
<stop stop-color="#DBDBDB" stop-opacity="0.08"/>
<stop offset="0.510417" stop-color="#DCDCDC"/>
</linearGradient>
<linearGradient id="paint5_linear_309_269" x1="15.4696" y1="7.27264" x2="15.1281" y2="7.08074" gradientUnits="userSpaceOnUse">
<stop stop-color="#497EDC"/>
<stop offset="1" stop-color="#AEC2FF"/>
</linearGradient>
<clipPath id="clip0_309_269">
<rect width="7.01681" height="1.52008" fill="white" transform="translate(8.45275 8.47998)"/>
</clipPath>
</defs>
</svg>
