<svg width="202" height="22" viewBox="0 0 202 22" fill="none" xmlns="http://www.w3.org/2000/svg">
    <g clip-path="url(#clip0_1124_345145)">
        <path
            d="M19.6601 7.51929L14.3046 2.43281C13.6704 1.86406 12.9149 1.43097 12.0892 1.16276C10.2595 0.584892 8.43858 1.03596 6.96385 2.43281L1.59524 7.51929C0.995676 8.12092 0.539118 8.83755 0.256378 9.62081C-0.354986 11.3565 0.12052 13.0839 1.59524 14.4807L6.95728 19.5672C7.59049 20.1362 8.34528 20.5693 9.17046 20.8372C9.67035 20.9975 10.1942 21.0804 10.7219 21.0825C12.0082 21.0825 13.2396 20.567 14.2958 19.5672L19.6557 14.4807C20.256 13.8793 20.7134 13.1626 20.9967 12.3792C21.6059 10.6435 21.1304 8.91822 19.6557 7.51929H19.6601ZM11.0396 3.90866C11.4447 4.03186 11.818 4.2344 12.1352 4.50316L13.7195 6.00811L10.6298 8.93693L7.54016 6.00603L9.13321 4.49276C9.5605 4.0895 10.1631 3.6613 11.044 3.90658L11.0396 3.90866ZM3.15543 10.6061C3.2857 10.2216 3.5 9.86742 3.78432 9.56677L5.36861 8.0639L8.4583 10.9948L5.36642 13.9257L3.77337 12.4124C3.34607 12.0092 2.89686 11.4376 3.15324 10.6019L3.15543 10.6061ZM10.2157 18.0851C9.81012 17.963 9.43661 17.7603 9.12006 17.4906L7.54016 16.0044L10.6298 13.0714L13.7195 16.0023L12.1265 17.5155C11.6992 17.9188 11.0988 18.347 10.2157 18.1017V18.0851ZM18.1043 11.4022C17.974 11.7863 17.7606 12.1403 17.4776 12.4415L15.8933 13.9257L12.8036 10.9948L15.8933 8.0639L17.4863 9.57508C17.9136 9.97834 18.3628 10.55 18.1065 11.3856"
            fill="#00ADE4" />
        <path
            d="M31.2234 18.162H33.991V10.8763C33.991 8.62928 32.5513 6.97052 30.0949 6.97052C28.8984 6.97052 27.6166 7.47355 26.9504 8.39856V2.99405H24.185V18.1558H26.9504V12.4083C26.9504 11.0655 27.6604 9.38592 29.3192 9.38592C30.7807 9.38592 31.2234 10.1613 31.2234 11.423V18.162ZM42.3989 13.853C42.3989 15.4556 41.1915 16.3307 39.4801 16.3307C38.6233 16.3307 37.8542 15.811 37.8542 14.9775C37.8542 14.1024 38.6671 13.6243 39.502 13.5619L42.3989 13.3541V13.853ZM44.7041 18.3304C45.1764 18.345 45.6448 18.2448 46.0648 18.0394V16.1228C45.9499 16.1485 45.8323 16.1624 45.7142 16.1644C45.2541 16.1644 45.0788 15.9773 45.0788 15.4764V11.4583C45.1133 10.7162 45.0011 9.97453 44.7479 9.27159C44.0905 7.64608 42.4208 7.06406 40.4683 7.06406C37.9199 7.06406 35.8776 8.14704 35.7243 10.5832H38.3823C38.448 9.58339 39.193 9.04294 40.4683 9.04294C42.0263 9.04294 42.3989 9.7289 42.3989 10.7495V11.4168L39.0374 11.6392C36.8637 11.7847 35.1742 12.9716 35.1742 15.0336C35.1742 16.8046 36.5788 18.4281 39.3026 18.4281C40.9263 18.4281 42.2433 17.6798 42.7714 16.8046C42.859 17.6174 43.5164 18.3241 44.7019 18.3241L44.7041 18.3304ZM53.3267 9.63951C53.4732 9.64053 53.6195 9.64955 53.765 9.66654V7.21372C53.6466 7.21372 53.5283 7.18878 53.4122 7.18878C52.0711 7.18878 50.7103 7.70844 50.1844 8.95772L49.9412 7.33429H47.6119V18.1641H50.3795V12.7076C50.3795 10.9574 51.3896 9.64575 53.3201 9.64575L53.3267 9.63951ZM61.9866 18.1682H64.7323V10.9366C64.7323 8.68749 63.3036 7.06406 60.8669 7.06406C59.5521 7.06406 58.1891 7.58372 57.5077 8.72698L57.3104 7.3322H55.0118V18.162H57.7553V13.749C57.7553 12.8323 57.7334 11.7078 58.13 10.8534C58.5025 10.0615 59.1401 9.47945 60.1021 9.47945C61.5505 9.47945 61.9888 10.2506 61.9888 11.5207L61.9866 18.1682ZM73.7428 11.6704H68.808C68.7959 11.0598 69.0056 10.4638 69.4019 9.98249C69.6301 9.71227 69.9217 9.49637 70.2534 9.35201C70.5852 9.20765 70.9479 9.13882 71.3126 9.15103C71.6314 9.13487 71.9502 9.18199 72.2486 9.28937C72.5471 9.39675 72.8187 9.56202 73.0459 9.77463C73.4842 10.234 73.7274 10.8576 73.7493 11.6704H73.7428ZM76.4928 12.8365C76.5366 11.4833 76.3394 10.2548 75.5045 9.0658C74.5623 7.7126 73.024 7.06822 71.3411 7.06822C70.6668 7.04955 69.9955 7.1618 69.3684 7.39807C68.7414 7.63434 68.1719 7.98965 67.6949 8.44221C66.5992 9.5044 66.0492 11.0447 66.0492 12.7741C66.0492 14.5451 66.6628 16.0646 67.8022 17.106C68.2788 17.5447 68.8429 17.8886 69.4616 18.1174C70.0803 18.3462 70.7409 18.4554 71.4047 18.4385C72.8531 18.4385 74.2796 18.0019 75.246 16.919C75.6842 16.418 76.1466 15.5658 76.2123 14.9193H73.5828C73.4905 15.2665 73.3004 15.5834 73.0328 15.836C72.6384 16.2101 72.1563 16.3557 71.3652 16.3557C70.7311 16.3537 70.1233 16.1147 69.6736 15.6905C69.3893 15.4089 69.1687 15.0753 69.0251 14.71C68.8816 14.3447 68.8181 13.9555 68.8387 13.5661H76.4709C76.4709 13.3354 76.4928 12.8365 76.4928 12.8365ZM80.1785 10.3587C80.1851 10.1061 80.2724 9.86123 80.4289 9.65669C80.5854 9.45216 80.8038 9.29756 81.055 9.21339C81.4333 9.07884 81.8374 9.02216 82.2405 9.0471C82.7858 9.03269 83.3175 9.21041 83.7328 9.54597C84.0197 9.81679 84.1847 10.1827 84.1929 10.5666H86.8071C86.7743 9.73048 86.4141 8.936 85.7969 8.33827C84.9643 7.48187 83.5816 7.06614 82.2208 7.06614C80.7921 7.06614 79.5913 7.46108 78.752 8.14912C78.3773 8.44593 78.078 8.81916 77.8765 9.24099C77.6751 9.66281 77.5766 10.1223 77.5884 10.5853C77.5884 11.9593 78.6424 13.167 80.2004 13.4809C81.2106 13.6887 82.3523 13.7511 83.3624 13.8966C84.0636 14.0005 84.5041 14.4163 84.5041 15.0419C84.5041 16.2289 83.0995 16.4159 82.177 16.4159C81.3859 16.4159 80.8819 16.2704 80.4415 15.9378C80.138 15.68 79.9343 15.3331 79.863 14.9526H77.2773C77.3834 15.8068 77.804 16.5982 78.4649 17.1871C79.4094 18.0414 80.7044 18.4343 82.155 18.4343C83.713 18.4343 85.1395 18.0602 86.0621 17.1871C86.3898 16.8764 86.647 16.5053 86.8177 16.0967C86.9884 15.688 87.0691 15.2506 87.0547 14.8112C87.0547 13.1026 85.74 12.0196 83.9366 11.7494C82.8168 11.5831 82.5319 11.5623 81.4999 11.4376C80.8863 11.3544 80.1851 11.1237 80.1851 10.3546L80.1785 10.3587ZM94.7264 10.5624H97.3318C97.299 9.72633 96.9388 8.93184 96.3216 8.33412C95.4867 7.48187 94.104 7.06614 92.752 7.06614C91.3255 7.06614 90.1225 7.46108 89.2832 8.14912C88.9085 8.44593 88.6092 8.81916 88.4078 9.24099C88.2063 9.66281 88.1078 10.1223 88.1197 10.5853C88.1197 11.9593 89.1737 13.167 90.7317 13.4809C91.7419 13.6887 92.8835 13.7511 93.8937 13.8966C94.5949 14.0005 95.0353 14.4163 95.0353 15.0419C95.0353 16.2289 93.6285 16.4159 92.7082 16.4159C91.9171 16.4159 91.4132 16.2704 90.9727 15.9378C90.6692 15.68 90.4656 15.3331 90.3942 14.9526H87.7998C87.9057 15.8073 88.3272 16.5989 88.9896 17.1871C89.9319 18.0414 91.2269 18.4343 92.6775 18.4343C94.2355 18.4343 95.662 18.0602 96.5845 17.1871C96.9115 16.8761 97.1679 16.5048 97.3378 16.0962C97.5078 15.6876 97.5878 15.2503 97.5728 14.8112C97.5728 13.1026 96.2581 12.0196 94.4546 11.7494C93.3349 11.5831 93.05 11.5623 92.018 11.4376C91.4044 11.3544 90.7032 11.1237 90.7032 10.3546C90.7097 10.1019 90.7971 9.85707 90.9536 9.65254C91.1101 9.448 91.3285 9.29341 91.5797 9.20923C91.958 9.07469 92.3621 9.01801 92.7652 9.04294C93.3105 9.02853 93.8421 9.20626 94.2574 9.54182C94.545 9.81242 94.7107 10.1783 94.7198 10.5624"
            fill="#231F20" />
    </g>
    <path
        d="M106.836 17.0825H103.624V6.67475H106.979C107.988 6.67475 108.852 6.88311 109.57 7.29983C110.289 7.71316 110.839 8.30774 111.222 9.08358C111.605 9.85603 111.796 10.7809 111.796 11.8583C111.796 12.9425 111.603 13.8758 111.217 14.6584C110.831 15.4377 110.268 16.0373 109.53 16.4574C108.791 16.8742 107.893 17.0825 106.836 17.0825ZM104.885 15.9645H106.755C107.615 15.9645 108.329 15.7985 108.894 15.4665C109.46 15.1345 109.882 14.6618 110.16 14.0486C110.438 13.4354 110.577 12.7053 110.577 11.8583C110.577 11.0181 110.439 10.2948 110.165 9.68833C109.89 9.0785 109.481 8.61096 108.935 8.28572C108.39 7.95709 107.71 7.79277 106.897 7.79277H104.885V15.9645ZM116.695 17.2451C115.943 17.2451 115.294 17.0791 114.749 16.7471C114.207 16.4117 113.788 15.9442 113.494 15.3445C113.202 14.7414 113.057 14.0401 113.057 13.2406C113.057 12.441 113.202 11.7363 113.494 11.1265C113.788 10.5133 114.198 10.0356 114.723 9.69341C115.252 9.34784 115.868 9.17506 116.573 9.17506C116.98 9.17506 117.381 9.24281 117.778 9.37833C118.174 9.51385 118.535 9.73407 118.86 10.039C119.185 10.3405 119.444 10.7403 119.638 11.2383C119.831 11.7363 119.927 12.3496 119.927 13.078V13.5862H113.91V12.5494H118.708C118.708 12.109 118.62 11.716 118.443 11.3704C118.271 11.0249 118.023 10.7521 117.701 10.5523C117.383 10.3524 117.007 10.2524 116.573 10.2524C116.095 10.2524 115.682 10.371 115.333 10.6082C114.988 10.8419 114.722 11.1468 114.535 11.5229C114.349 11.899 114.256 12.3021 114.256 12.7324V13.4235C114.256 14.013 114.357 14.5128 114.561 14.9227C114.767 15.3293 115.054 15.6393 115.42 15.8527C115.785 16.0627 116.211 16.1678 116.695 16.1678C117.01 16.1678 117.295 16.1237 117.549 16.0356C117.806 15.9442 118.028 15.8087 118.215 15.6291C118.401 15.4461 118.545 15.2191 118.647 14.9481L119.805 15.2734C119.683 15.6664 119.478 16.0119 119.19 16.3101C118.902 16.6048 118.547 16.8352 118.123 17.0012C117.7 17.1638 117.224 17.2451 116.695 17.2451ZM127.572 9.27669L124.685 17.0825H123.466L120.579 9.27669H121.88L124.035 15.497H124.116L126.271 9.27669H127.572ZM131.823 17.2451C131.071 17.2451 130.422 17.0791 129.876 16.7471C129.334 16.4117 128.916 15.9442 128.621 15.3445C128.33 14.7414 128.184 14.0401 128.184 13.2406C128.184 12.441 128.33 11.7363 128.621 11.1265C128.916 10.5133 129.326 10.0356 129.851 9.69341C130.379 9.34784 130.996 9.17506 131.701 9.17506C132.107 9.17506 132.509 9.24281 132.905 9.37833C133.302 9.51385 133.662 9.73407 133.988 10.039C134.313 10.3405 134.572 10.7403 134.765 11.2383C134.958 11.7363 135.055 12.3496 135.055 13.078V13.5862H129.038V12.5494H133.835C133.835 12.109 133.747 11.716 133.571 11.3704C133.398 11.0249 133.151 10.7521 132.829 10.5523C132.511 10.3524 132.134 10.2524 131.701 10.2524C131.223 10.2524 130.81 10.371 130.461 10.6082C130.115 10.8419 129.849 11.1468 129.663 11.5229C129.477 11.899 129.383 12.3021 129.383 12.7324V13.4235C129.383 14.013 129.485 14.5128 129.688 14.9227C129.895 15.3293 130.181 15.6393 130.547 15.8527C130.913 16.0627 131.338 16.1678 131.823 16.1678C132.138 16.1678 132.422 16.1237 132.677 16.0356C132.934 15.9442 133.156 15.8087 133.342 15.6291C133.529 15.4461 133.673 15.2191 133.774 14.9481L134.933 15.2734C134.811 15.6664 134.606 16.0119 134.318 16.3101C134.03 16.6048 133.674 16.8352 133.251 17.0012C132.827 17.1638 132.351 17.2451 131.823 17.2451ZM137.753 6.67475V17.0825H136.554V6.67475H137.753ZM142.796 17.2451C142.091 17.2451 141.473 17.0774 140.941 16.742C140.412 16.4066 139.999 15.9374 139.701 15.3343C139.406 14.7313 139.259 14.0266 139.259 13.2203C139.259 12.4072 139.406 11.6974 139.701 11.0909C139.999 10.4845 140.412 10.0136 140.941 9.67817C141.473 9.34276 142.091 9.17506 142.796 9.17506C143.501 9.17506 144.117 9.34276 144.646 9.67817C145.178 10.0136 145.591 10.4845 145.886 11.0909C146.184 11.6974 146.333 12.4072 146.333 13.2203C146.333 14.0266 146.184 14.7313 145.886 15.3343C145.591 15.9374 145.178 16.4066 144.646 16.742C144.117 17.0774 143.501 17.2451 142.796 17.2451ZM142.796 16.1678C143.331 16.1678 143.772 16.0306 144.117 15.7561C144.463 15.4817 144.719 15.1209 144.885 14.6737C145.051 14.2265 145.134 13.742 145.134 13.2203C145.134 12.6985 145.051 12.2123 144.885 11.7618C144.719 11.3112 144.463 10.947 144.117 10.6691C143.772 10.3913 143.331 10.2524 142.796 10.2524C142.261 10.2524 141.82 10.3913 141.475 10.6691C141.129 10.947 140.873 11.3112 140.707 11.7618C140.541 12.2123 140.458 12.6985 140.458 13.2203C140.458 13.742 140.541 14.2265 140.707 14.6737C140.873 15.1209 141.129 15.4817 141.475 15.7561C141.82 16.0306 142.261 16.1678 142.796 16.1678ZM147.838 20.0097V9.27669H148.997V10.5167H149.139C149.227 10.3812 149.349 10.2084 149.505 9.99833C149.665 9.78489 149.892 9.59516 150.186 9.42915C150.484 9.25975 150.888 9.17506 151.396 9.17506C152.053 9.17506 152.632 9.33937 153.134 9.668C153.635 9.99663 154.026 10.4625 154.308 11.0655C154.589 11.6686 154.729 12.3801 154.729 13.1999C154.729 14.0266 154.589 14.7431 154.308 15.3496C154.026 15.9526 153.637 16.4202 153.139 16.7522C152.641 17.0808 152.067 17.2451 151.416 17.2451C150.915 17.2451 150.513 17.1621 150.212 16.9961C149.91 16.8267 149.678 16.6353 149.515 16.4219C149.353 16.205 149.227 16.0255 149.139 15.8832H149.038V20.0097H147.838ZM149.017 13.1796C149.017 13.7691 149.104 14.2892 149.277 14.7398C149.449 15.187 149.702 15.5376 150.034 15.7917C150.366 16.0424 150.772 16.1678 151.253 16.1678C151.755 16.1678 152.173 16.0356 152.509 15.7714C152.847 15.5037 153.102 15.1446 153.271 14.694C153.444 14.24 153.53 13.7352 153.53 13.1796C153.53 12.6308 153.445 12.1361 153.276 11.6957C153.11 11.2519 152.858 10.9012 152.519 10.6437C152.183 10.3829 151.762 10.2524 151.253 10.2524C150.766 10.2524 150.356 10.3761 150.024 10.6234C149.692 10.8673 149.441 11.2095 149.272 11.6499C149.102 12.087 149.017 12.5969 149.017 13.1796ZM159.506 17.2451C158.754 17.2451 158.106 17.0791 157.56 16.7471C157.018 16.4117 156.6 15.9442 156.305 15.3445C156.014 14.7414 155.868 14.0401 155.868 13.2406C155.868 12.441 156.014 11.7363 156.305 11.1265C156.6 10.5133 157.01 10.0356 157.535 9.69341C158.063 9.34784 158.68 9.17506 159.385 9.17506C159.791 9.17506 160.193 9.24281 160.589 9.37833C160.985 9.51385 161.346 9.73407 161.671 10.039C161.997 10.3405 162.256 10.7403 162.449 11.2383C162.642 11.7363 162.739 12.3496 162.739 13.078V13.5862H156.722V12.5494H161.519C161.519 12.109 161.431 11.716 161.255 11.3704C161.082 11.0249 160.835 10.7521 160.513 10.5523C160.194 10.3524 159.818 10.2524 159.385 10.2524C158.907 10.2524 158.494 10.371 158.145 10.6082C157.799 10.8419 157.533 11.1468 157.347 11.5229C157.16 11.899 157.067 12.3021 157.067 12.7324V13.4235C157.067 14.013 157.169 14.5128 157.372 14.9227C157.579 15.3293 157.865 15.6393 158.231 15.8527C158.597 16.0627 159.022 16.1678 159.506 16.1678C159.822 16.1678 160.106 16.1237 160.36 16.0356C160.618 15.9442 160.84 15.8087 161.026 15.6291C161.212 15.4461 161.356 15.2191 161.458 14.9481L162.617 15.2734C162.495 15.6664 162.29 16.0119 162.002 16.3101C161.714 16.6048 161.358 16.8352 160.935 17.0012C160.511 17.1638 160.035 17.2451 159.506 17.2451ZM164.238 17.0825V9.27669H165.396V10.4557H165.478C165.62 10.0695 165.878 9.75609 166.25 9.51554C166.623 9.275 167.043 9.15473 167.511 9.15473C167.599 9.15473 167.709 9.15642 167.841 9.15981C167.973 9.1632 168.073 9.16828 168.141 9.17506V10.3947C168.1 10.3846 168.007 10.3693 167.861 10.349C167.719 10.3253 167.568 10.3134 167.409 10.3134C167.029 10.3134 166.691 10.393 166.392 10.5523C166.098 10.7081 165.864 10.9249 165.691 11.2027C165.522 11.4772 165.437 11.7905 165.437 12.1429V17.0825H164.238ZM173.099 17.0825V6.67475H174.36V11.3095H179.909V6.67475H181.169V17.0825H179.909V12.4275H174.36V17.0825H173.099ZM188.124 13.8911V9.27669H189.323V17.0825H188.124V15.7612H188.043C187.86 16.1576 187.575 16.4947 187.189 16.7725C186.803 17.0469 186.315 17.1842 185.725 17.1842C185.238 17.1842 184.804 17.0774 184.424 16.864C184.045 16.6472 183.747 16.3219 183.53 15.8883C183.313 15.4512 183.205 14.9007 183.205 14.2366V9.27669H184.404V14.1553C184.404 14.7245 184.563 15.1785 184.882 15.5173C185.204 15.8561 185.614 16.0255 186.112 16.0255C186.41 16.0255 186.713 15.9493 187.021 15.7968C187.333 15.6443 187.594 15.4106 187.804 15.0955C188.017 14.7804 188.124 14.3789 188.124 13.8911ZM191.357 17.0825V6.67475H192.557V10.5167H192.658C192.746 10.3812 192.868 10.2084 193.024 9.99833C193.184 9.78489 193.411 9.59516 193.705 9.42915C194.003 9.25975 194.407 9.17506 194.915 9.17506C195.572 9.17506 196.151 9.33937 196.653 9.668C197.154 9.99663 197.546 10.4625 197.827 11.0655C198.108 11.6686 198.249 12.3801 198.249 13.1999C198.249 14.0266 198.108 14.7431 197.827 15.3496C197.546 15.9526 197.156 16.4202 196.658 16.7522C196.16 17.0808 195.586 17.2451 194.935 17.2451C194.434 17.2451 194.032 17.1621 193.731 16.9961C193.429 16.8267 193.197 16.6353 193.034 16.4219C192.872 16.205 192.746 16.0255 192.658 15.8832H192.516V17.0825H191.357ZM192.536 13.1796C192.536 13.7691 192.623 14.2892 192.796 14.7398C192.968 15.187 193.221 15.5376 193.553 15.7917C193.885 16.0424 194.291 16.1678 194.772 16.1678C195.274 16.1678 195.692 16.0356 196.028 15.7714C196.366 15.5037 196.621 15.1446 196.79 14.694C196.963 14.24 197.049 13.7352 197.049 13.1796C197.049 12.6308 196.964 12.1361 196.795 11.6957C196.629 11.2519 196.377 10.9012 196.038 10.6437C195.702 10.3829 195.281 10.2524 194.772 10.2524C194.285 10.2524 193.875 10.3761 193.543 10.6234C193.211 10.8673 192.96 11.2095 192.791 11.6499C192.621 12.087 192.536 12.5969 192.536 13.1796Z"
        fill="black" />
    <defs>
        <clipPath id="clip0_1124_345145">
            <rect width="97.5728" height="20.165" fill="white" transform="translate(0 0.91748)" />
        </clipPath>
    </defs>
</svg>