<svg width="48" height="48" viewBox="0 0 48 48" fill="none" xmlns="http://www.w3.org/2000/svg">
<mask id="mask0_309_211" style="mask-type:luminance" maskUnits="userSpaceOnUse" x="4" y="18" width="41" height="7">
<path d="M44.6924 18H4V24.6709H44.6924V18Z" fill="white"/>
</mask>
<g mask="url(#mask0_309_211)">
<path d="M6.52114 22.1911L6.68099 22.0356L6.73228 21.9846C6.73228 21.9846 8.11358 21.0887 8.9422 21.0887H9.0137C8.23942 21.0495 7.5062 20.736 6.95103 20.2067L4.90096 18.2041H4.76552L4.54005 18.4254V18.5579L6.52874 20.5037C6.75533 20.729 6.88173 21.0328 6.88029 21.3489C6.87889 21.665 6.74977 21.9677 6.52114 22.1911Z" fill="url(#paint0_linear_309_211)"/>
<path d="M7.94289 19.4834L6.43707 18.0107H6.30163L6.0762 18.2312V18.3637L7.6518 19.9055C8.03808 20.2832 8.56184 20.4953 9.10796 20.4954H10.2487L10.3446 20.4024V20.089L10.2487 19.996H9.20807C8.73353 19.996 8.27843 19.8116 7.94289 19.4834Z" fill="url(#paint1_linear_309_211)"/>
<path d="M7.94289 23.22L6.43707 24.6927H6.30163L6.0762 24.4714V24.3389L7.6518 22.7979C8.03808 22.4203 8.56184 22.2081 9.10796 22.208H10.2487L10.3446 22.301V22.6136L10.2487 22.7074H9.20807C8.73353 22.7074 8.27843 22.8918 7.94289 23.22Z" fill="url(#paint2_linear_309_211)"/>
<path d="M5.56812 20.5532L4.64868 19.6548H4.51408L4.28777 19.8761V20.0077L5.16352 20.865C5.2281 20.9281 5.27936 21.003 5.31433 21.0854C5.3493 21.1678 5.3673 21.2562 5.3673 21.3455C5.3673 21.4348 5.3493 21.5232 5.31433 21.6056C5.27936 21.688 5.2281 21.7629 5.16352 21.826L4.35255 22.6199V22.7516L4.57886 22.9729H4.71346L5.56728 22.1386C5.67384 22.0346 5.75842 21.9111 5.81612 21.7751C5.87382 21.6391 5.90359 21.4933 5.90367 21.3461C5.90375 21.1989 5.87414 21.0531 5.81656 20.917C5.75902 20.7809 5.6746 20.6573 5.56812 20.5532Z" fill="url(#paint3_linear_309_211)"/>
<path d="M11.116 21.0884H8.94228C8.11334 21.0889 7.31854 21.4112 6.73236 21.9843L4.51825 24.1498V24.2823L4.74451 24.5036H4.87996L6.94435 22.487C7.23435 22.2025 7.5789 21.9768 7.95826 21.8228C8.33761 21.6688 8.74434 21.5895 9.1551 21.5894H11.1177L11.2119 21.4997V21.1871L11.116 21.0884Z" fill="url(#paint4_linear_309_211)"/>
<path d="M11.116 21.0884H8.94228C8.11334 21.0889 7.31854 21.4112 6.73236 21.9843L4.51825 24.1498V24.2823L4.74451 24.5036H4.87996L6.94435 22.487C7.23435 22.2025 7.5789 21.9768 7.95826 21.8228C8.33761 21.6688 8.74434 21.5895 9.1551 21.5894H11.1177L11.2119 21.4997V21.1871L11.116 21.0884Z" fill="url(#paint5_linear_309_211)"/>
<path d="M12.1936 20.019H14.8014L14.8645 20.0807V20.4172L14.8014 20.4789H13.8239L13.7608 20.5407V22.6798L13.6977 22.7415H13.2989L13.2359 22.6798V20.5407L13.1728 20.4789H12.1936L12.1305 20.4172V20.084L12.1936 20.019Z" fill="black"/>
<path d="M15.7873 20.0842L15.8504 20.0225H17.3436C17.9551 20.0225 18.2958 20.2981 18.2958 20.8353C18.2958 21.1784 18.1276 21.4285 17.8163 21.5478L17.7827 21.6351L18.3513 22.652L18.2958 22.7433H17.8828L17.8273 22.7112L17.2308 21.6564L17.1753 21.6252H16.3745L16.3114 21.6869V22.6824L16.2483 22.7441H15.8487L15.7856 22.6824L15.7873 20.0842ZM16.313 20.54V21.1159L16.3761 21.1776H17.3015C17.6035 21.1776 17.7558 21.0633 17.7558 20.837C17.7558 20.5902 17.6035 20.4799 17.3015 20.4799H16.3761L16.313 20.54Z" fill="black"/>
<path d="M21.2108 22.1844H19.8892L19.832 22.2207L19.6108 22.7077L19.5527 22.7439H19.1658L19.1077 22.6567L20.3014 20.047L20.3594 20.0107H20.775L20.8331 20.047L22.0259 22.6567L21.9687 22.7439H21.5481L21.4909 22.7077L21.2688 22.2207L21.2108 22.1844ZM21.0164 21.653L20.6118 20.7661H20.4966L20.0911 21.653L20.1491 21.7352H20.9576L21.0164 21.653Z" fill="black"/>
<path d="M22.6552 21.3829C22.6552 20.5857 23.2441 19.9761 24.0584 19.9761C24.8475 19.9761 25.2193 20.4524 25.332 20.7766L25.2723 20.8589H24.8517L24.7987 20.8301C24.7196 20.7094 24.6099 20.6109 24.4803 20.544C24.3508 20.4771 24.2057 20.4441 24.0592 20.4483C23.5377 20.4483 23.2012 20.8737 23.2012 21.3838C23.2012 21.8939 23.5402 22.3225 24.0584 22.3225C24.5067 22.3225 24.7213 22.0872 24.8062 21.94L24.8609 21.9087H25.2731L25.3328 21.991C25.2294 22.297 24.8744 22.7948 24.0584 22.7948C23.2424 22.7948 22.6552 22.1802 22.6552 21.3829Z" fill="black"/>
<path d="M26.407 20.019H28.6909L28.754 20.0807V20.4016L28.6909 20.4633H26.9319L26.8688 20.525V21.0187L26.9319 21.0804H27.9834L28.0465 21.1421V21.4712L27.9834 21.5329H26.9319L26.8688 21.5954V22.2232L26.9319 22.2849H28.6909L28.754 22.3466V22.6757L28.6909 22.7374H26.407L26.3439 22.6757V20.084L26.407 20.019Z" fill="black"/>
<path d="M40.0358 20.019H42.3197L42.3829 20.0807V20.4016L42.3197 20.4633H40.5608L40.4975 20.525V21.0187L40.5608 21.0804H41.6115L41.6743 21.1421V21.4712L41.6115 21.5329H40.5608L40.4975 21.5954V22.2232L40.5608 22.2849H42.3197L42.3829 22.3466V22.6757L42.3197 22.7374H40.0358L39.9718 22.6757V20.084L40.0358 20.019Z" fill="black"/>
<path d="M31.5629 22.1844H30.2413L30.1841 22.2207L29.9629 22.7077L29.9048 22.7439H29.5128L29.4547 22.6567L30.6485 20.047L30.7065 20.0107H31.1221L31.1801 20.047L32.3772 22.6567L32.32 22.7439H31.8994L31.8413 22.7077L31.6201 22.2207L31.5629 22.1844ZM31.3635 21.653L30.9597 20.7661H30.8444L30.4382 21.653L30.4962 21.7352H31.3046L31.3635 21.653Z" fill="black"/>
<path d="M33.2933 20.0842L33.3564 20.0225H34.7865C35.3938 20.0225 35.7194 20.2981 35.7194 20.758C35.7202 20.8587 35.6932 20.9577 35.6413 21.0446C35.5893 21.1315 35.5143 21.203 35.4241 21.2517V21.3594C35.5354 21.4173 35.6279 21.5046 35.691 21.6114C35.754 21.7181 35.7851 21.8401 35.7808 21.9633C35.7808 22.4389 35.4519 22.7417 34.8092 22.7417H33.3564L33.2933 22.68V20.0842ZM33.8106 20.5211V21.0649L33.8737 21.1266H34.7284C35.0304 21.1266 35.1793 21.0155 35.1793 20.7926C35.1793 20.5696 35.0262 20.4594 34.7284 20.4594H33.8737L33.8106 20.5211ZM33.8106 21.6211V22.2455L33.8737 22.3072H34.7435C35.0851 22.3072 35.2416 22.1772 35.2416 21.9312C35.2416 21.6852 35.0733 21.5594 34.7435 21.5594H33.8737L33.8106 21.6211Z" fill="black"/>
<path d="M38.9811 22.7441H36.861L36.7979 22.6824V20.0842L36.861 20.0225H37.2598L37.3229 20.0842V22.2184L37.386 22.2801H38.9843L39.0475 22.3418V22.6824L38.9811 22.7441Z" fill="black"/>
<path d="M44.6904 22.7438H43.3736L43.3116 22.683V22.3539L43.3736 22.293H44.6904L44.7524 22.3539V22.683L44.6904 22.7438Z" fill="url(#paint6_linear_309_211)"/>
</g>
<path d="M19.3275 26.0518H19.6233V26.9321C19.7254 26.756 19.9472 26.6433 20.1972 26.6433C20.6831 26.6433 20.9859 27.0201 20.9859 27.6187C20.9859 28.2173 20.6831 28.594 20.1972 28.594C19.9366 28.594 19.7113 28.4743 19.6057 28.2842L19.5951 28.5518H19.3275V26.0518ZM19.5951 27.6187C19.5951 28.0447 19.8064 28.3123 20.1373 28.3123C20.4648 28.3123 20.6761 28.0447 20.6761 27.6187C20.6761 27.1856 20.4648 26.9109 20.1373 26.9109C19.8064 26.9109 19.5951 27.1856 19.5951 27.6187ZM21.0326 26.6856H21.3495L21.9094 28.2349L22.4551 26.6856H22.7685L22.0115 28.7877C21.9411 28.9884 21.8073 29.0799 21.596 29.0799H21.353V28.8194H21.5678C21.6594 28.8194 21.7122 28.7806 21.7474 28.6891L21.8143 28.5165H21.7157L21.0326 26.6856Z" fill="black"/>
<g clip-path="url(#clip0_309_211)">
<path d="M28.1742 26.7782L27.0388 25.6478C26.9043 25.5214 26.7442 25.4251 26.5691 25.3655C26.1812 25.2371 25.7952 25.3374 25.4825 25.6478L24.3443 26.7782C24.2172 26.9119 24.1204 27.0711 24.0605 27.2452C23.9308 27.6309 24.0317 28.0148 24.3443 28.3253L25.4811 29.4556C25.6154 29.5821 25.7754 29.6783 25.9503 29.7379C26.0563 29.7735 26.1674 29.7919 26.2792 29.7924C26.5519 29.7924 26.813 29.6778 27.0369 29.4556L28.1733 28.3253C28.3006 28.1916 28.3975 28.0323 28.4576 27.8582C28.5867 27.4725 28.4859 27.0891 28.1733 26.7782H28.1742ZM26.3466 25.9758C26.4325 26.0032 26.5116 26.0482 26.5789 26.1079L26.9148 26.4423L26.2597 27.0932L25.6047 26.4419L25.9424 26.1056C26.033 26.016 26.1608 25.9208 26.3475 25.9753L26.3466 25.9758ZM24.6751 27.4642C24.7027 27.3787 24.7481 27.3 24.8084 27.2332L25.1443 26.8992L25.7993 27.5506L25.1438 28.2019L24.8061 27.8656C24.7155 27.776 24.6203 27.649 24.6746 27.4633L24.6751 27.4642ZM26.1719 29.1263C26.0859 29.0991 26.0067 29.0541 25.9396 28.9942L25.6047 28.6639L26.2597 28.0121L26.9148 28.6634L26.577 28.9997C26.4864 29.0893 26.3591 29.1845 26.1719 29.13V29.1263ZM27.8444 27.6411C27.8168 27.7265 27.7715 27.8051 27.7115 27.8721L27.3756 28.2019L26.7206 27.5506L27.3756 26.8992L27.7134 27.2351C27.804 27.3247 27.8992 27.4517 27.8448 27.6374" fill="#00ABE4"/>
<path d="M30.6257 29.1433H31.2125V27.5242C31.2125 27.0248 30.9073 26.6562 30.3865 26.6562C30.1328 26.6562 29.8611 26.768 29.7198 26.9735V25.7725H29.1335V29.1419H29.7198V27.8646C29.7198 27.5662 29.8704 27.193 30.222 27.193C30.5319 27.193 30.6257 27.3653 30.6257 27.6457V29.1433ZM32.995 28.1857C32.995 28.5418 32.7391 28.7363 32.3762 28.7363C32.1946 28.7363 32.0315 28.6208 32.0315 28.4356C32.0315 28.2411 32.2039 28.1349 32.3809 28.121L32.995 28.0748V28.1857ZM33.4838 29.1807C33.5839 29.184 33.6832 29.1617 33.7723 29.116V28.6901C33.7479 28.6958 33.723 28.6989 33.6979 28.6994C33.6004 28.6994 33.5632 28.6578 33.5632 28.5465V27.6535C33.5705 27.4886 33.5467 27.3238 33.4931 27.1675C33.3537 26.8063 32.9997 26.677 32.5858 26.677C32.0455 26.677 31.6125 26.9176 31.58 27.459H32.1435C32.1574 27.2368 32.3154 27.1167 32.5858 27.1167C32.9161 27.1167 32.995 27.2692 32.995 27.496V27.6443L32.2824 27.6937C31.8215 27.726 31.4634 27.9898 31.4634 28.4481C31.4634 28.8416 31.7611 29.2024 32.3386 29.2024C32.6829 29.2024 32.9621 29.0361 33.074 28.8417C33.0926 29.0223 33.232 29.1793 33.4833 29.1793L33.4838 29.1807ZM35.3118 27.2493C35.3429 27.2495 35.3739 27.2515 35.4048 27.2553V26.7102C35.3797 26.7102 35.3546 26.7047 35.33 26.7047C35.0456 26.7047 34.7572 26.8202 34.6457 27.0978L34.5941 26.737H34.1003V29.1438H34.687V27.9311C34.687 27.5422 34.9012 27.2507 35.3105 27.2507L35.3118 27.2493ZM37.1478 29.1447H37.7299V27.5376C37.7299 27.0377 37.427 26.677 36.9104 26.677C36.6317 26.677 36.3427 26.7924 36.1982 27.0465L36.1564 26.7365H35.6691V29.1433H36.2507V28.1626C36.2507 27.9589 36.2461 27.709 36.3302 27.5191C36.4092 27.3431 36.5443 27.2137 36.7483 27.2137C37.0554 27.2137 37.1483 27.3851 37.1483 27.6674L37.1478 29.1447ZM39.6402 27.7006H38.594C38.5915 27.5649 38.6359 27.4325 38.7199 27.3255C38.7683 27.2655 38.8301 27.2175 38.9005 27.1854C38.9708 27.1533 39.0477 27.138 39.125 27.1408C39.1926 27.1372 39.2602 27.1476 39.3235 27.1715C39.3867 27.1954 39.4443 27.2321 39.4925 27.2793C39.5854 27.3814 39.637 27.52 39.6416 27.7006H39.6402ZM40.2233 27.9598C40.2326 27.6591 40.1907 27.386 40.0137 27.1218C39.814 26.8211 39.4879 26.6779 39.1311 26.6779C38.9881 26.6737 38.8458 26.6987 38.7128 26.7512C38.5799 26.8037 38.4592 26.8827 38.358 26.9832C38.1257 27.2193 38.0091 27.5616 38.0091 27.9459C38.0091 28.3395 38.1392 28.6772 38.3808 28.9086C38.4818 29.0061 38.6014 29.0825 38.7326 29.1334C38.8637 29.1842 39.0038 29.2085 39.1445 29.2047C39.4516 29.2047 39.7541 29.1077 39.9589 28.8671C40.0518 28.7557 40.1499 28.5663 40.1638 28.4227H39.6063C39.5867 28.4998 39.5464 28.5702 39.4897 28.6264C39.4061 28.7095 39.3039 28.7419 39.1362 28.7419C39.0017 28.7414 38.8729 28.6883 38.7775 28.594C38.7173 28.5315 38.6705 28.4573 38.6401 28.3761C38.6096 28.295 38.5962 28.2085 38.6005 28.1219H40.2186C40.2186 28.0707 40.2233 27.9598 40.2233 27.9598ZM41.0047 27.4091C41.0061 27.353 41.0246 27.2986 41.0578 27.2531C41.0909 27.2077 41.1372 27.1733 41.1905 27.1546C41.2707 27.1247 41.3564 27.1121 41.4418 27.1177C41.5574 27.1145 41.6702 27.154 41.7582 27.2285C41.819 27.2887 41.854 27.37 41.8558 27.4553H42.41C42.403 27.2695 42.3267 27.093 42.1958 26.9601C42.0193 26.7698 41.7261 26.6774 41.4377 26.6774C41.1348 26.6774 40.8802 26.7652 40.7022 26.9181C40.6228 26.9841 40.5593 27.067 40.5166 27.1607C40.4739 27.2545 40.453 27.3566 40.4556 27.4595C40.4556 27.7648 40.679 28.0332 41.0093 28.103C41.2235 28.1492 41.4655 28.163 41.6797 28.1954C41.8284 28.2185 41.9217 28.3109 41.9217 28.4499C41.9217 28.7137 41.6239 28.7553 41.4284 28.7553C41.2606 28.7553 41.1538 28.7229 41.0604 28.649C40.9961 28.5917 40.9529 28.5146 40.9378 28.4301H40.3896C40.4121 28.6199 40.5013 28.7958 40.6414 28.9266C40.8416 29.1165 41.1162 29.2038 41.4237 29.2038C41.754 29.2038 42.0565 29.1207 42.252 28.9266C42.3215 28.8576 42.376 28.7751 42.4122 28.6843C42.4484 28.5935 42.4655 28.4963 42.4625 28.3986C42.4625 28.0189 42.1837 27.7782 41.8014 27.7182C41.564 27.6812 41.5036 27.6766 41.2848 27.6489C41.1547 27.6304 41.0061 27.5791 41.0061 27.4082L41.0047 27.4091ZM44.0889 27.4544H44.6413C44.6344 27.2686 44.558 27.092 44.4271 26.9592C44.2501 26.7698 43.957 26.6774 43.6704 26.6774C43.3679 26.6774 43.1129 26.7652 42.935 26.9181C42.8555 26.9841 42.7921 27.067 42.7493 27.1607C42.7066 27.2545 42.6858 27.3566 42.6883 27.4595C42.6883 27.7648 42.9117 28.0332 43.242 28.103C43.4562 28.1492 43.6982 28.163 43.9124 28.1954C44.0611 28.2185 44.1544 28.3109 44.1544 28.4499C44.1544 28.7137 43.8562 28.7553 43.6611 28.7553C43.4934 28.7553 43.3865 28.7229 43.2931 28.649C43.2288 28.5917 43.1856 28.5146 43.1705 28.4301H42.6204C42.6429 28.62 42.7323 28.7959 42.8727 28.9266C43.0725 29.1165 43.347 29.2038 43.6546 29.2038C43.9849 29.2038 44.2873 29.1207 44.4829 28.9266C44.5522 28.8575 44.6066 28.775 44.6426 28.6842C44.6786 28.5934 44.6956 28.4962 44.6924 28.3986C44.6924 28.0189 44.4137 27.7782 44.0313 27.7182C43.7939 27.6812 43.7335 27.6766 43.5147 27.6489C43.3847 27.6304 43.236 27.5791 43.236 27.4082C43.2374 27.3521 43.2559 27.2977 43.2891 27.2522C43.3223 27.2068 43.3686 27.1724 43.4218 27.1537C43.502 27.1238 43.5877 27.1112 43.6732 27.1167C43.7888 27.1135 43.9015 27.153 43.9895 27.2276C44.0505 27.2877 44.0856 27.369 44.0875 27.4544" fill="#231F20"/>
</g>
<defs>
<linearGradient id="paint0_linear_309_211" x1="5.26099" y1="18.5648" x2="7.0465" y2="22.7697" gradientUnits="userSpaceOnUse">
<stop stop-color="#75A7FF"/>
<stop offset="0.479167" stop-color="#497EDC"/>
<stop offset="1" stop-color="#456BE0" stop-opacity="0"/>
</linearGradient>
<linearGradient id="paint1_linear_309_211" x1="10.1829" y1="17.9896" x2="3.04772" y2="17.7142" gradientUnits="userSpaceOnUse">
<stop stop-color="#C7C4C3"/>
<stop offset="0.510417" stop-color="#D5D5D5"/>
</linearGradient>
<linearGradient id="paint2_linear_309_211" x1="10.1829" y1="22.1869" x2="6.21646" y2="22.2345" gradientUnits="userSpaceOnUse">
<stop stop-color="#C7C4C3"/>
<stop offset="0.510417" stop-color="#D5D5D5"/>
</linearGradient>
<linearGradient id="paint3_linear_309_211" x1="5.84246" y1="19.6266" x2="3.39886" y2="19.5204" gradientUnits="userSpaceOnUse">
<stop stop-color="#C7C4C3"/>
<stop offset="0.510417" stop-color="#D5D5D5"/>
</linearGradient>
<linearGradient id="paint4_linear_309_211" x1="10.9583" y1="21.0594" x2="4.73847" y2="21.1446" gradientUnits="userSpaceOnUse">
<stop stop-color="#D5D5D5"/>
<stop offset="0.510417" stop-color="#C7C4C3"/>
</linearGradient>
<linearGradient id="paint5_linear_309_211" x1="10.9583" y1="21.0594" x2="0.0135595" y2="21.1196" gradientUnits="userSpaceOnUse">
<stop stop-color="#C7C4C3"/>
<stop offset="0.510417" stop-color="#D5D5D5"/>
</linearGradient>
<linearGradient id="paint6_linear_309_211" x1="44.6924" y1="21.7522" x2="43.6857" y2="21.1865" gradientUnits="userSpaceOnUse">
<stop stop-color="#497EDC"/>
<stop offset="1" stop-color="#AEC2FF"/>
</linearGradient>
<clipPath id="clip0_309_211">
<rect width="20.6863" height="4.48137" fill="white" transform="translate(24.0061 25.311)"/>
</clipPath>
</defs>
</svg>
