<svg width="309" height="32" viewBox="0 0 309 32" fill="none" xmlns="http://www.w3.org/2000/svg">
<path d="M164.106 27H159.169V11H164.325C165.877 11 167.205 11.3203 168.31 11.9609C169.414 12.5964 170.26 13.5104 170.849 14.7031C171.437 15.8906 171.731 17.3125 171.731 18.9687C171.731 20.6354 171.435 22.0703 170.841 23.2734C170.247 24.4714 169.382 25.3932 168.247 26.0391C167.112 26.6797 165.731 27 164.106 27ZM161.106 25.2812H163.981C165.304 25.2812 166.401 25.026 167.271 24.5156C168.14 24.0052 168.789 23.2786 169.216 22.3359C169.643 21.3932 169.856 20.2708 169.856 18.9687C169.856 17.6771 169.646 16.5651 169.224 15.6328C168.802 14.6953 168.172 13.9766 167.333 13.4766C166.494 12.9714 165.45 12.7187 164.2 12.7187H161.106V25.2812ZM179.263 27.25C178.106 27.25 177.109 26.9948 176.271 26.4844C175.437 25.9688 174.794 25.25 174.341 24.3281C173.893 23.401 173.669 22.3229 173.669 21.0938C173.669 19.8646 173.893 18.7812 174.341 17.8437C174.794 16.901 175.424 16.1667 176.231 15.6406C177.044 15.1094 177.992 14.8438 179.075 14.8438C179.7 14.8438 180.317 14.9479 180.927 15.1562C181.536 15.3646 182.091 15.7031 182.591 16.1719C183.091 16.6354 183.489 17.25 183.786 18.0156C184.083 18.7812 184.231 19.724 184.231 20.8437V21.625H174.981V20.0312H182.356C182.356 19.3542 182.221 18.75 181.95 18.2187C181.685 17.6875 181.304 17.2682 180.81 16.9609C180.32 16.6536 179.742 16.5 179.075 16.5C178.341 16.5 177.705 16.6823 177.169 17.0469C176.638 17.4062 176.229 17.875 175.942 18.4531C175.656 19.0312 175.513 19.651 175.513 20.3125V21.375C175.513 22.2813 175.669 23.0495 175.981 23.6797C176.299 24.3047 176.739 24.7812 177.302 25.1094C177.864 25.4323 178.518 25.5938 179.263 25.5938C179.747 25.5938 180.185 25.526 180.575 25.3906C180.971 25.25 181.312 25.0417 181.599 24.7656C181.885 24.4844 182.106 24.1354 182.263 23.7187L184.044 24.2188C183.856 24.8229 183.541 25.3542 183.099 25.8125C182.656 26.2656 182.109 26.6198 181.458 26.875C180.807 27.125 180.075 27.25 179.263 27.25ZM195.983 15L191.546 27H189.671L185.233 15H187.233L190.546 24.5625H190.671L193.983 15H195.983ZM202.519 27.25C201.362 27.25 200.365 26.9948 199.526 26.4844C198.693 25.9688 198.05 25.25 197.597 24.3281C197.149 23.401 196.925 22.3229 196.925 21.0938C196.925 19.8646 197.149 18.7812 197.597 17.8437C198.05 16.901 198.68 16.1667 199.487 15.6406C200.3 15.1094 201.248 14.8438 202.331 14.8438C202.956 14.8438 203.573 14.9479 204.183 15.1562C204.792 15.3646 205.347 15.7031 205.847 16.1719C206.347 16.6354 206.745 17.25 207.042 18.0156C207.339 18.7812 207.487 19.724 207.487 20.8437V21.625H198.237V20.0312H205.612C205.612 19.3542 205.477 18.75 205.206 18.2187C204.94 17.6875 204.56 17.2682 204.065 16.9609C203.576 16.6536 202.998 16.5 202.331 16.5C201.597 16.5 200.961 16.6823 200.425 17.0469C199.894 17.4062 199.485 17.875 199.198 18.4531C198.912 19.0312 198.769 19.651 198.769 20.3125V21.375C198.769 22.2813 198.925 23.0495 199.237 23.6797C199.555 24.3047 199.995 24.7812 200.558 25.1094C201.12 25.4323 201.774 25.5938 202.519 25.5938C203.003 25.5938 203.44 25.526 203.831 25.3906C204.227 25.25 204.568 25.0417 204.854 24.7656C205.141 24.4844 205.362 24.1354 205.519 23.7187L207.3 24.2188C207.112 24.8229 206.797 25.3542 206.354 25.8125C205.912 26.2656 205.365 26.6198 204.714 26.875C204.063 27.125 203.331 27.25 202.519 27.25ZM211.636 11V27H209.792V11H211.636ZM219.388 27.25C218.304 27.25 217.354 26.9922 216.536 26.4766C215.724 25.9609 215.088 25.2396 214.63 24.3125C214.177 23.3854 213.95 22.3021 213.95 21.0625C213.95 19.8125 214.177 18.7214 214.63 17.7891C215.088 16.8568 215.724 16.1328 216.536 15.6172C217.354 15.1016 218.304 14.8438 219.388 14.8438C220.471 14.8438 221.419 15.1016 222.231 15.6172C223.049 16.1328 223.685 16.8568 224.138 17.7891C224.596 18.7214 224.825 19.8125 224.825 21.0625C224.825 22.3021 224.596 23.3854 224.138 24.3125C223.685 25.2396 223.049 25.9609 222.231 26.4766C221.419 26.9922 220.471 27.25 219.388 27.25ZM219.388 25.5938C220.211 25.5938 220.888 25.3828 221.419 24.9609C221.95 24.5391 222.343 23.9844 222.599 23.2969C222.854 22.6094 222.981 21.8646 222.981 21.0625C222.981 20.2604 222.854 19.513 222.599 18.8203C222.343 18.1276 221.95 17.5677 221.419 17.1406C220.888 16.7135 220.211 16.5 219.388 16.5C218.565 16.5 217.888 16.7135 217.356 17.1406C216.825 17.5677 216.432 18.1276 216.177 18.8203C215.922 19.513 215.794 20.2604 215.794 21.0625C215.794 21.8646 215.922 22.6094 216.177 23.2969C216.432 23.9844 216.825 24.5391 217.356 24.9609C217.888 25.3828 218.565 25.5938 219.388 25.5938ZM227.14 31.5V15H228.921V16.9062H229.14C229.275 16.6979 229.463 16.4323 229.702 16.1094C229.947 15.7812 230.296 15.4896 230.749 15.2344C231.207 14.974 231.827 14.8438 232.608 14.8438C233.619 14.8438 234.509 15.0964 235.28 15.6016C236.051 16.1068 236.653 16.8229 237.085 17.75C237.517 18.6771 237.733 19.7708 237.733 21.0313C237.733 22.3021 237.517 23.4036 237.085 24.3359C236.653 25.263 236.054 25.9818 235.288 26.4922C234.522 26.9974 233.64 27.25 232.64 27.25C231.869 27.25 231.252 27.1224 230.788 26.8672C230.325 26.6068 229.968 26.3125 229.718 25.9844C229.468 25.651 229.275 25.375 229.14 25.1562H228.983V31.5H227.14ZM228.952 21C228.952 21.9062 229.085 22.7057 229.351 23.3984C229.616 24.0859 230.004 24.625 230.515 25.0156C231.025 25.401 231.65 25.5938 232.39 25.5938C233.16 25.5938 233.804 25.3906 234.319 24.9844C234.84 24.5729 235.231 24.0208 235.491 23.3281C235.757 22.6302 235.89 21.8542 235.89 21C235.89 20.1562 235.759 19.3958 235.499 18.7187C235.244 18.0365 234.856 17.4974 234.335 17.1016C233.819 16.7005 233.171 16.5 232.39 16.5C231.64 16.5 231.009 16.6901 230.499 17.0703C229.989 17.4453 229.603 17.9714 229.343 18.6484C229.082 19.3203 228.952 20.1042 228.952 21ZM245.077 27.25C243.921 27.25 242.924 26.9948 242.085 26.4844C241.252 25.9688 240.608 25.25 240.155 24.3281C239.707 23.401 239.483 22.3229 239.483 21.0938C239.483 19.8646 239.707 18.7812 240.155 17.8437C240.608 16.901 241.239 16.1667 242.046 15.6406C242.858 15.1094 243.806 14.8438 244.89 14.8438C245.515 14.8438 246.132 14.9479 246.741 15.1562C247.351 15.3646 247.905 15.7031 248.405 16.1719C248.905 16.6354 249.304 17.25 249.601 18.0156C249.897 18.7812 250.046 19.724 250.046 20.8437V21.625H240.796V20.0312H248.171C248.171 19.3542 248.035 18.75 247.765 18.2187C247.499 17.6875 247.119 17.2682 246.624 16.9609C246.134 16.6536 245.556 16.5 244.89 16.5C244.155 16.5 243.52 16.6823 242.983 17.0469C242.452 17.4062 242.043 17.875 241.757 18.4531C241.47 19.0312 241.327 19.651 241.327 20.3125V21.375C241.327 22.2813 241.483 23.0495 241.796 23.6797C242.114 24.3047 242.554 24.7812 243.116 25.1094C243.679 25.4323 244.332 25.5938 245.077 25.5938C245.562 25.5938 245.999 25.526 246.39 25.3906C246.785 25.25 247.127 25.0417 247.413 24.7656C247.7 24.4844 247.921 24.1354 248.077 23.7187L249.858 24.2188C249.671 24.8229 249.356 25.3542 248.913 25.8125C248.47 26.2656 247.924 26.6198 247.272 26.875C246.621 27.125 245.89 27.25 245.077 27.25ZM252.351 27V15H254.132V16.8125H254.257C254.476 16.2188 254.871 15.737 255.444 15.3672C256.017 14.9974 256.663 14.8125 257.382 14.8125C257.517 14.8125 257.687 14.8151 257.89 14.8203C258.093 14.8255 258.246 14.8333 258.351 14.8438V16.7187C258.288 16.7031 258.145 16.6797 257.921 16.6484C257.702 16.612 257.47 16.5937 257.226 16.5937C256.642 16.5937 256.121 16.7161 255.663 16.9609C255.21 17.2005 254.851 17.5339 254.585 17.9609C254.325 18.3828 254.194 18.8646 254.194 19.4062V27H252.351ZM265.974 27V11H267.911V18.125H276.442V11H278.38V27H276.442V19.8437H267.911V27H265.974ZM289.071 22.0937V15H290.915V27H289.071V24.9687H288.946C288.665 25.5781 288.228 26.0964 287.634 26.5234C287.04 26.9453 286.29 27.1563 285.384 27.1563C284.634 27.1563 283.967 26.9922 283.384 26.6641C282.8 26.3307 282.342 25.8307 282.009 25.1641C281.675 24.4922 281.509 23.6458 281.509 22.625V15H283.353V22.5C283.353 23.375 283.597 24.0729 284.087 24.5938C284.582 25.1146 285.212 25.375 285.978 25.375C286.436 25.375 286.902 25.2578 287.376 25.0234C287.855 24.7891 288.256 24.4297 288.579 23.9453C288.907 23.4609 289.071 22.8437 289.071 22.0937ZM294.042 27V11H295.886V16.9062H296.042C296.177 16.6979 296.365 16.4323 296.604 16.1094C296.849 15.7812 297.198 15.4896 297.651 15.2344C298.11 14.974 298.729 14.8438 299.511 14.8438C300.521 14.8438 301.412 15.0964 302.183 15.6016C302.953 16.1068 303.555 16.8229 303.987 17.75C304.42 18.6771 304.636 19.7708 304.636 21.0313C304.636 22.3021 304.42 23.4036 303.987 24.3359C303.555 25.263 302.956 25.9818 302.19 26.4922C301.425 26.9974 300.542 27.25 299.542 27.25C298.771 27.25 298.154 27.1224 297.69 26.8672C297.227 26.6068 296.87 26.3125 296.62 25.9844C296.37 25.651 296.177 25.375 296.042 25.1562H295.823V27H294.042ZM295.854 21C295.854 21.9062 295.987 22.7057 296.253 23.3984C296.519 24.0859 296.907 24.625 297.417 25.0156C297.927 25.401 298.552 25.5938 299.292 25.5938C300.063 25.5938 300.706 25.3906 301.222 24.9844C301.743 24.5729 302.133 24.0208 302.394 23.3281C302.659 22.6302 302.792 21.8542 302.792 21C302.792 20.1562 302.662 19.3958 302.401 18.7187C302.146 18.0365 301.758 17.4974 301.237 17.1016C300.722 16.7005 300.073 16.5 299.292 16.5C298.542 16.5 297.912 16.6901 297.401 17.0703C296.891 17.4453 296.506 17.9714 296.245 18.6484C295.985 19.3203 295.854 20.1042 295.854 21Z" fill="black"/>
<g clip-path="url(#clip0_78_35)">
<path d="M48.0051 27.3638H52.2688V15.7984C52.2688 12.2205 50.0599 9.59999 46.2842 9.59999C44.4349 9.59999 42.4829 10.4063 41.4555 11.8677V3.30078H37.1918V27.3638H41.4555V18.2425C41.4555 16.1008 42.5342 13.4551 45.1027 13.4551C47.3373 13.4551 48.0308 14.6898 48.0308 16.6803V27.3638H48.0051ZM65.1883 20.5354C65.1883 23.0803 63.339 24.4661 60.6935 24.4661C59.3836 24.4661 58.202 23.6346 58.202 22.3244C58.202 20.9386 59.4606 20.1827 60.7449 20.0819L65.1883 19.7543V20.5354ZM68.7329 27.6409C69.452 27.6661 70.1712 27.515 70.8134 27.1874V24.1386C70.6336 24.189 70.4538 24.189 70.274 24.2142C69.5548 24.2142 69.2979 23.9118 69.2979 23.1307V16.7307C69.3493 15.5465 69.1695 14.3874 68.7842 13.2535C67.7825 10.6835 65.214 9.75118 62.2089 9.75118C58.2791 9.75118 55.1455 11.4646 54.9144 15.3449H58.9983C59.101 13.7575 60.2568 12.9008 62.2089 12.9008C64.5976 12.9008 65.1883 13.9842 65.1883 15.5968V16.6551L60.0257 17.0079C56.6866 17.2346 54.0925 19.1244 54.0925 22.4C54.0925 25.222 56.25 27.7921 60.4366 27.7921C62.9281 27.7921 64.9572 26.6079 65.7791 25.222C65.8818 26.5071 66.9092 27.6157 68.7329 27.6409ZM81.9863 13.8331C82.2175 13.8331 82.4486 13.8583 82.6541 13.8835V10.0031C82.4743 10.0031 82.2945 9.95275 82.1147 9.95275C80.0599 9.95275 77.9538 10.7842 77.1575 12.7496L76.7723 10.1795H73.202V27.3638H77.4657V18.7213C77.4401 15.9244 79.0068 13.8583 81.9863 13.8331ZM95.2911 27.3638H99.5034V15.8992C99.5034 12.3213 97.2945 9.75118 93.5702 9.75118C91.5411 9.75118 89.4606 10.5827 88.4075 12.3968L88.0993 10.1795H84.5548V27.3638H88.7671V20.3591C88.7671 18.8976 88.7414 17.1087 89.3322 15.7732C89.8972 14.5134 90.8733 13.5811 92.363 13.5811C94.5976 13.5811 95.2654 14.8157 95.2654 16.8315L95.2911 27.3638ZM113.373 17.0583H105.796C105.771 16.1008 106.104 15.1433 106.721 14.3874C107.08 13.959 107.517 13.6063 108.031 13.3795C108.545 13.1527 109.11 13.052 109.649 13.052C110.137 13.0268 110.625 13.1024 111.087 13.2787C111.55 13.4551 111.961 13.7071 112.32 14.0598C112.962 14.7905 113.348 15.7732 113.373 17.0583ZM117.586 18.9228C117.663 16.7811 117.354 14.8157 116.07 12.9512C114.632 10.8094 112.269 9.77637 109.675 9.77637C108.647 9.75117 107.594 9.92755 106.644 10.3055C105.668 10.6835 104.795 11.2378 104.075 11.9685C102.38 13.6567 101.558 16.1008 101.558 18.8472C101.558 21.6693 102.509 24.063 104.255 25.726C105 26.4315 105.848 26.9606 106.798 27.3386C107.748 27.6913 108.776 27.8677 109.777 27.8425C112.012 27.8425 114.195 27.1622 115.685 25.4236C116.353 24.6173 117.072 23.2819 117.175 22.2488H113.142C112.988 22.8031 112.705 23.3071 112.295 23.7102C111.678 24.315 110.959 24.5417 109.726 24.5417C108.75 24.5417 107.825 24.1638 107.132 23.4835C106.695 23.0299 106.361 22.5008 106.13 21.9213C105.899 21.3417 105.822 20.7118 105.848 20.1071H117.586C117.56 19.7039 117.586 18.9228 117.586 18.9228ZM123.262 14.9921C123.262 14.589 123.416 14.211 123.647 13.8835C123.878 13.5559 124.212 13.3039 124.598 13.1779C125.188 12.9764 125.805 12.8756 126.421 12.926C127.269 12.9008 128.065 13.1779 128.707 13.7071C129.144 14.1354 129.401 14.715 129.426 15.3197H133.433C133.382 13.9842 132.817 12.7244 131.892 11.7921C130.608 10.4315 128.476 9.77637 126.396 9.77637C124.187 9.77637 122.363 10.4063 121.053 11.4898C120.488 11.9685 120.026 12.548 119.717 13.2283C119.409 13.9087 119.255 14.6394 119.281 15.3701C119.281 17.5622 120.899 19.4772 123.288 19.9559C124.829 20.2835 126.601 20.3842 128.142 20.611C129.221 20.7874 129.889 21.4425 129.889 22.4252C129.889 24.315 127.731 24.6173 126.318 24.6173C125.111 24.6173 124.315 24.3905 123.647 23.8614C123.185 23.4583 122.877 22.9039 122.748 22.2992H118.767C118.921 23.6598 119.589 24.9197 120.591 25.852C122.055 27.2126 124.033 27.8425 126.267 27.8425C128.656 27.8425 130.865 27.2378 132.277 25.852C132.791 25.348 133.176 24.7685 133.433 24.1134C133.69 23.4583 133.818 22.7779 133.793 22.0724C133.793 19.3512 131.764 17.6378 128.99 17.2094C127.269 16.9575 126.832 16.9071 125.24 16.7055C124.341 16.5543 123.262 16.2016 123.262 14.9921ZM145.634 15.2945H149.64C149.589 13.959 149.024 12.6992 148.099 11.7669C146.815 10.4063 144.683 9.75118 142.603 9.75118C140.42 9.75118 138.57 10.3811 137.26 11.4646C136.695 11.9433 136.233 12.5228 135.925 13.2031C135.616 13.8835 135.462 14.6142 135.488 15.3449C135.488 17.537 137.106 19.452 139.495 19.9307C141.036 20.2583 142.808 20.359 144.349 20.5858C145.428 20.7622 146.096 21.4173 146.096 22.4C146.096 24.2898 143.938 24.5921 142.526 24.5921C141.318 24.5921 140.522 24.3653 139.854 23.8362C139.392 23.4331 139.084 22.8787 138.955 22.274H134.974C135.128 23.6346 135.796 24.8945 136.798 25.8268C138.236 27.1874 140.24 27.8173 142.474 27.8173C144.863 27.8173 147.072 27.2126 148.485 25.8268C148.998 25.3228 149.384 24.7433 149.64 24.0882C149.897 23.4331 150.026 22.7528 150 22.0472C150 19.326 147.971 17.6126 145.197 17.1842C143.476 16.9323 143.039 16.8819 141.447 16.6803C140.497 16.5543 139.418 16.1764 139.418 14.9669C139.418 14.5638 139.572 14.1858 139.803 13.8583C140.034 13.5307 140.368 13.2787 140.753 13.1527C141.344 12.9512 141.961 12.8504 142.577 12.9008C143.425 12.8756 144.221 13.1527 144.863 13.6819C145.351 14.1102 145.608 14.6898 145.634 15.2945Z" fill="black"/>
<mask id="mask0_78_35" style="mask-type:luminance" maskUnits="userSpaceOnUse" x="-1" y="0" width="34" height="32">
<path d="M30.2566 10.482L22.0117 2.41901C21.0357 1.51192 19.8799 0.831606 18.5956 0.40326C15.7703 -0.503827 12.9706 0.201685 10.7104 2.41901L2.43981 10.482C1.51515 11.4395 0.821655 12.5733 0.385011 13.808C-0.565332 16.5544 0.179531 19.3009 2.43981 21.5182L10.6847 29.5812C11.6607 30.4883 12.8165 31.1686 14.1008 31.597C14.8713 31.8489 15.6675 31.9749 16.4895 31.9749C18.4672 31.9749 20.3679 31.1686 21.986 29.5812L30.2309 21.5182C31.1556 20.5607 31.8491 19.4269 32.2857 18.1922C33.236 15.4458 32.5169 12.6993 30.2566 10.482ZM16.9775 4.73712C17.5939 4.93869 18.1847 5.26625 18.6727 5.6694L21.1127 8.0631L16.361 12.7245L11.6093 8.0631L14.0494 5.6694C14.7172 5.03948 15.6419 4.35917 16.9775 4.73712ZM4.85419 15.3702C5.05967 14.7655 5.39357 14.1859 5.83022 13.7324L8.27029 11.3387L13.022 16.0001L8.27029 20.6363L5.83022 18.2426C5.16241 17.6127 4.46892 16.7056 4.85419 15.3702ZM15.7189 27.2379C15.1025 27.0363 14.5117 26.734 14.0237 26.3056L11.6093 23.9371L16.361 19.2757L21.1127 23.9371L18.6727 26.3308C18.0049 26.9607 17.0802 27.6411 15.7446 27.2631V27.2379H15.7189ZM27.8422 16.63C27.6367 17.2348 27.3028 17.7891 26.8662 18.2678L24.4261 20.6111L19.7001 16.0001L24.4518 11.3387L26.8919 13.7324C27.5597 14.3623 28.2275 15.2694 27.8422 16.6048" fill="white"/>
</mask>
<g mask="url(#mask0_78_35)">
<path d="M32.6969 0H0V5.41732H32.6969V0Z" fill="#D43E2C"/>
<path d="M32.6969 5.41724H0V10.6834H32.6969V5.41724Z" fill="#E0862C"/>
<path d="M32.6969 10.6582H0V16.0755H32.6969V10.6582Z" fill="#FEDA00"/>
<path d="M32.6969 16.0757H0V21.3418H32.6969V16.0757Z" fill="#5DB04B"/>
<path d="M32.6969 21.3418H0V26.6079H32.6969V21.3418Z" fill="#00ADE4"/>
<path d="M32.6969 26.5828H0V32.0001H32.6969V26.5828Z" fill="#7663AB"/>
</g>
</g>
<defs>
<clipPath id="clip0_78_35">
<rect width="150" height="32" fill="white"/>
</clipPath>
</defs>
</svg>
