<svg width="309" height="32" viewBox="0 0 309 32" fill="none" xmlns="http://www.w3.org/2000/svg">
    <g clip-path="url(#clip0_10_1595)">
        <g clip-path="url(#clip1_10_1595)">
            <path
                d="M29.375 10.2813L21.75 2.625C20.8437 1.78125 19.7812 1.125 18.5937 0.718752C16 -0.156248 13.375 0.531252 11.2812 2.625L3.62497 10.2813C2.78122 11.1875 2.12497 12.25 1.71872 13.4375C0.843721 16.0313 1.53122 18.6563 3.62497 20.75L11.2812 28.4063C12.1875 29.25 13.25 29.9063 14.4375 30.3125C15.1562 30.5625 15.9062 30.6875 16.6562 30.6875C18.5 30.6875 20.25 29.9063 21.75 28.4063L29.4062 20.75C30.25 19.8438 30.9062 18.7813 31.3125 17.5938C32.1562 14.9688 31.4687 12.375 29.375 10.2813ZM17.0937 4.84375C17.6562 5.03125 18.2187 5.34375 18.6562 5.75L20.9062 8L16.5 12.4063L12.0937 8L14.375 5.71875C14.9687 5.125 15.8437 4.46875 17.0937 4.84375ZM5.84372 14.9063C6.03122 14.3438 6.34372 13.7813 6.74997 13.3438L8.99997 11.0938L13.4062 15.5L8.99997 19.9063L6.71872 17.625C6.12497 17.0313 5.46872 16.1563 5.84372 14.9063ZM15.9062 26.1563C15.3125 25.9688 14.7812 25.6563 14.3437 25.25L12.0937 23L16.5 18.5938L20.9062 23L18.6562 25.3125C18.0312 25.9063 17.1875 26.5625 15.9062 26.1563ZM27.1562 16.0938C26.9687 16.6563 26.6562 17.2188 26.25 17.6563L24 19.875L19.5937 15.5L24 11.0938L26.2812 13.375C26.9062 13.9688 27.5312 14.8125 27.1562 16.0938Z"
                fill="#00ABE4" />
        </g>
        <path
            d="M48.0001 26.5103H52.2548V15.3099C52.2548 11.8555 50.0416 9.30544 46.2653 9.30544C44.426 9.30544 42.4553 10.0788 41.4312 11.5008V3.19235H37.18V26.5007H41.4312V17.665C41.4312 15.6007 42.5227 13.0187 45.0728 13.0187C47.3197 13.0187 48.0001 14.2106 48.0001 16.1503V26.5103ZM65.1804 19.8859C65.1804 22.3497 63.3242 23.695 60.6933 23.695C59.3761 23.695 58.1937 22.8961 58.1937 21.6147C58.1937 20.2694 59.4435 19.5344 60.727 19.4385L65.1804 19.119V19.8859ZM68.7242 26.7691C69.4503 26.7916 70.1704 26.6376 70.8161 26.3217V23.3754C70.6394 23.4149 70.4587 23.4363 70.2771 23.4393C69.5697 23.4393 69.3002 23.1517 69.3002 22.3816V16.2046C69.3533 15.0638 69.1808 13.9235 68.7916 12.8429C67.781 10.344 65.214 9.44923 62.2126 9.44923C58.2948 9.44923 55.1552 11.1141 54.9194 14.8593H59.0056C59.1066 13.3222 60.252 12.4914 62.2126 12.4914C64.6077 12.4914 65.1804 13.5459 65.1804 15.1149V16.1407L60.0128 16.4826C56.6711 16.7063 54.0739 18.531 54.0739 21.701C54.0739 24.4236 56.2332 26.9193 60.4204 26.9193C62.9166 26.9193 64.9412 25.7689 65.753 24.4236C65.8878 25.673 66.8984 26.7595 68.7208 26.7595L68.7242 26.7691ZM81.9799 13.4085C82.2051 13.4101 82.4301 13.4239 82.6536 13.4501V9.67931C82.4717 9.67931 82.2898 9.64096 82.1113 9.64096C80.0497 9.64096 77.9577 10.4399 77.1492 12.3604L76.7753 9.86466H73.1944V26.5135H77.449V18.1251C77.449 15.4345 79.002 13.4181 81.9698 13.4181L81.9799 13.4085ZM95.2929 26.5198H99.5138V15.4025C99.5138 11.945 97.3174 9.44923 93.5715 9.44923C91.5503 9.44923 89.455 10.2481 88.4073 12.0057L88.1041 9.86146H84.5704V26.5103H88.788V19.7261C88.788 18.3169 88.7543 16.5881 89.364 15.2747C89.9367 14.0572 90.917 13.1625 92.3958 13.1625C94.6225 13.1625 95.2962 14.348 95.2962 16.3005L95.2929 26.5198ZM113.366 16.5306H105.78C105.761 15.5919 106.083 14.6757 106.692 13.9358C107.043 13.5204 107.492 13.1885 108.002 12.9665C108.512 12.7446 109.069 12.6388 109.63 12.6576C110.12 12.6327 110.61 12.7052 111.069 12.8702C111.528 13.0353 111.945 13.2894 112.295 13.6162C112.968 14.3224 113.342 15.2811 113.376 16.5306H113.366ZM117.593 18.3233C117.661 16.243 117.358 14.3544 116.074 12.5265C114.626 10.4462 112.261 9.45563 109.674 9.45563C108.637 9.42693 107.605 9.59949 106.641 9.96271C105.677 10.3259 104.802 10.8722 104.068 11.5679C102.384 13.2008 101.538 15.5687 101.538 18.2274C101.538 20.95 102.482 23.2859 104.233 24.8869C104.966 25.5613 105.833 26.0899 106.784 26.4417C107.735 26.7934 108.751 26.9613 109.771 26.9353C111.998 26.9353 114.191 26.2642 115.677 24.5993C116.35 23.8292 117.061 22.519 117.162 21.5252H113.12C112.978 22.059 112.686 22.5461 112.274 22.9344C111.668 23.5096 110.927 23.7333 109.711 23.7333C108.736 23.7303 107.801 23.3629 107.11 22.7107C106.673 22.2779 106.334 21.765 106.113 21.2034C105.893 20.6419 105.795 20.0435 105.827 19.4449H117.56C117.56 19.0902 117.593 18.3233 117.593 18.3233ZM123.26 14.5142C123.27 14.1257 123.404 13.7494 123.644 13.4349C123.885 13.1205 124.221 12.8828 124.607 12.7534C125.189 12.5466 125.81 12.4595 126.429 12.4978C127.268 12.4756 128.085 12.7489 128.724 13.2647C129.165 13.681 129.418 14.2435 129.431 14.8337H133.45C133.399 13.5484 132.846 12.327 131.897 11.4081C130.617 10.0915 128.491 9.45243 126.399 9.45243C124.203 9.45243 122.357 10.0596 121.067 11.1173C120.49 11.5736 120.03 12.1474 119.721 12.7959C119.411 13.4443 119.26 14.1508 119.278 14.8625C119.278 16.9747 120.898 18.8314 123.293 19.3139C124.846 19.6334 126.601 19.7293 128.154 19.953C129.232 20.1128 129.909 20.7519 129.909 21.7137C129.909 23.5384 127.75 23.826 126.332 23.826C125.116 23.826 124.341 23.6023 123.664 23.091C123.197 22.6946 122.884 22.1613 122.774 21.5763H118.799C118.963 22.8896 119.609 24.1062 120.625 25.0115C122.077 26.3249 124.068 26.9289 126.298 26.9289C128.693 26.9289 130.886 26.3537 132.304 25.0115C132.808 24.5339 133.204 23.9634 133.466 23.3352C133.729 22.707 133.853 22.0344 133.83 21.359C133.83 18.7323 131.809 17.0674 129.037 16.652C127.315 16.3964 126.878 16.3644 125.291 16.1727C124.348 16.0448 123.27 15.6901 123.27 14.5078L123.26 14.5142ZM145.624 14.8273H149.629C149.579 13.542 149.025 12.3206 148.077 11.4017C146.793 10.0915 144.667 9.45243 142.589 9.45243C140.396 9.45243 138.547 10.0596 137.256 11.1173C136.68 11.5736 136.22 12.1474 135.91 12.7959C135.601 13.4443 135.449 14.1508 135.468 14.8625C135.468 16.9747 137.088 18.8314 139.483 19.3139C141.036 19.6334 142.791 19.7293 144.344 19.953C145.422 20.1128 146.099 20.7519 146.099 21.7137C146.099 23.5384 143.936 23.826 142.522 23.826C141.305 23.826 140.531 23.6023 139.854 23.091C139.387 22.6946 139.074 22.1613 138.964 21.5763H134.976C135.139 22.8904 135.787 24.1073 136.805 25.0115C138.253 26.3249 140.244 26.9289 142.474 26.9289C144.87 26.9289 147.063 26.3537 148.481 25.0115C148.983 24.5333 149.378 23.9626 149.639 23.3344C149.9 22.7062 150.023 22.034 150 21.359C150 18.7323 147.979 17.0674 145.206 16.652C143.485 16.3964 143.047 16.3644 141.46 16.1727C140.517 16.0448 139.439 15.6901 139.439 14.5078C139.449 14.1193 139.584 13.743 139.824 13.4285C140.065 13.1141 140.401 12.8764 140.787 12.747C141.368 12.5402 141.989 12.4531 142.609 12.4914C143.448 12.4692 144.265 12.7425 144.903 13.2583C145.345 13.6743 145.6 14.2368 145.614 14.8273"
            fill="#231F20" />
    </g>
    <path
        d="M164.106 27H159.169V11H164.325C165.877 11 167.205 11.3203 168.31 11.9609C169.414 12.5964 170.26 13.5104 170.849 14.7031C171.437 15.8906 171.731 17.3125 171.731 18.9687C171.731 20.6354 171.435 22.0703 170.841 23.2734C170.247 24.4714 169.382 25.3932 168.247 26.0391C167.112 26.6797 165.731 27 164.106 27ZM161.106 25.2812H163.981C165.304 25.2812 166.401 25.026 167.271 24.5156C168.14 24.0052 168.789 23.2786 169.216 22.3359C169.643 21.3932 169.856 20.2708 169.856 18.9687C169.856 17.6771 169.646 16.5651 169.224 15.6328C168.802 14.6953 168.172 13.9766 167.333 13.4766C166.494 12.9714 165.45 12.7187 164.2 12.7187H161.106V25.2812ZM179.263 27.25C178.106 27.25 177.109 26.9948 176.271 26.4844C175.437 25.9688 174.794 25.25 174.341 24.3281C173.893 23.401 173.669 22.3229 173.669 21.0938C173.669 19.8646 173.893 18.7812 174.341 17.8437C174.794 16.901 175.424 16.1667 176.231 15.6406C177.044 15.1094 177.992 14.8438 179.075 14.8438C179.7 14.8438 180.317 14.9479 180.927 15.1562C181.536 15.3646 182.091 15.7031 182.591 16.1719C183.091 16.6354 183.489 17.25 183.786 18.0156C184.083 18.7812 184.231 19.724 184.231 20.8437V21.625H174.981V20.0312H182.356C182.356 19.3542 182.221 18.75 181.95 18.2187C181.685 17.6875 181.304 17.2682 180.81 16.9609C180.32 16.6536 179.742 16.5 179.075 16.5C178.341 16.5 177.705 16.6823 177.169 17.0469C176.638 17.4062 176.229 17.875 175.942 18.4531C175.656 19.0312 175.513 19.651 175.513 20.3125V21.375C175.513 22.2813 175.669 23.0495 175.981 23.6797C176.299 24.3047 176.739 24.7812 177.302 25.1094C177.864 25.4323 178.518 25.5938 179.263 25.5938C179.747 25.5938 180.185 25.526 180.575 25.3906C180.971 25.25 181.312 25.0417 181.599 24.7656C181.885 24.4844 182.106 24.1354 182.263 23.7187L184.044 24.2188C183.856 24.8229 183.541 25.3542 183.099 25.8125C182.656 26.2656 182.109 26.6198 181.458 26.875C180.807 27.125 180.075 27.25 179.263 27.25ZM195.983 15L191.546 27H189.671L185.233 15H187.233L190.546 24.5625H190.671L193.983 15H195.983ZM202.519 27.25C201.362 27.25 200.365 26.9948 199.526 26.4844C198.693 25.9688 198.05 25.25 197.597 24.3281C197.149 23.401 196.925 22.3229 196.925 21.0938C196.925 19.8646 197.149 18.7812 197.597 17.8437C198.05 16.901 198.68 16.1667 199.487 15.6406C200.3 15.1094 201.248 14.8438 202.331 14.8438C202.956 14.8438 203.573 14.9479 204.183 15.1562C204.792 15.3646 205.347 15.7031 205.847 16.1719C206.347 16.6354 206.745 17.25 207.042 18.0156C207.339 18.7812 207.487 19.724 207.487 20.8437V21.625H198.237V20.0312H205.612C205.612 19.3542 205.477 18.75 205.206 18.2187C204.94 17.6875 204.56 17.2682 204.065 16.9609C203.576 16.6536 202.998 16.5 202.331 16.5C201.597 16.5 200.961 16.6823 200.425 17.0469C199.894 17.4062 199.485 17.875 199.198 18.4531C198.912 19.0312 198.769 19.651 198.769 20.3125V21.375C198.769 22.2813 198.925 23.0495 199.237 23.6797C199.555 24.3047 199.995 24.7812 200.558 25.1094C201.12 25.4323 201.774 25.5938 202.519 25.5938C203.003 25.5938 203.44 25.526 203.831 25.3906C204.227 25.25 204.568 25.0417 204.854 24.7656C205.141 24.4844 205.362 24.1354 205.519 23.7187L207.3 24.2188C207.112 24.8229 206.797 25.3542 206.354 25.8125C205.912 26.2656 205.365 26.6198 204.714 26.875C204.063 27.125 203.331 27.25 202.519 27.25ZM211.636 11V27H209.792V11H211.636ZM219.388 27.25C218.304 27.25 217.354 26.9922 216.536 26.4766C215.724 25.9609 215.088 25.2396 214.63 24.3125C214.177 23.3854 213.95 22.3021 213.95 21.0625C213.95 19.8125 214.177 18.7214 214.63 17.7891C215.088 16.8568 215.724 16.1328 216.536 15.6172C217.354 15.1016 218.304 14.8438 219.388 14.8438C220.471 14.8438 221.419 15.1016 222.231 15.6172C223.049 16.1328 223.685 16.8568 224.138 17.7891C224.596 18.7214 224.825 19.8125 224.825 21.0625C224.825 22.3021 224.596 23.3854 224.138 24.3125C223.685 25.2396 223.049 25.9609 222.231 26.4766C221.419 26.9922 220.471 27.25 219.388 27.25ZM219.388 25.5938C220.211 25.5938 220.888 25.3828 221.419 24.9609C221.95 24.5391 222.343 23.9844 222.599 23.2969C222.854 22.6094 222.981 21.8646 222.981 21.0625C222.981 20.2604 222.854 19.513 222.599 18.8203C222.343 18.1276 221.95 17.5677 221.419 17.1406C220.888 16.7135 220.211 16.5 219.388 16.5C218.565 16.5 217.888 16.7135 217.356 17.1406C216.825 17.5677 216.432 18.1276 216.177 18.8203C215.922 19.513 215.794 20.2604 215.794 21.0625C215.794 21.8646 215.922 22.6094 216.177 23.2969C216.432 23.9844 216.825 24.5391 217.356 24.9609C217.888 25.3828 218.565 25.5938 219.388 25.5938ZM227.14 31.5V15H228.921V16.9062H229.14C229.275 16.6979 229.463 16.4323 229.702 16.1094C229.947 15.7812 230.296 15.4896 230.749 15.2344C231.207 14.974 231.827 14.8438 232.608 14.8438C233.619 14.8438 234.509 15.0964 235.28 15.6016C236.051 16.1068 236.653 16.8229 237.085 17.75C237.517 18.6771 237.733 19.7708 237.733 21.0313C237.733 22.3021 237.517 23.4036 237.085 24.3359C236.653 25.263 236.054 25.9818 235.288 26.4922C234.522 26.9974 233.64 27.25 232.64 27.25C231.869 27.25 231.252 27.1224 230.788 26.8672C230.325 26.6068 229.968 26.3125 229.718 25.9844C229.468 25.651 229.275 25.375 229.14 25.1562H228.983V31.5H227.14ZM228.952 21C228.952 21.9062 229.085 22.7057 229.351 23.3984C229.616 24.0859 230.004 24.625 230.515 25.0156C231.025 25.401 231.65 25.5938 232.39 25.5938C233.16 25.5938 233.804 25.3906 234.319 24.9844C234.84 24.5729 235.231 24.0208 235.491 23.3281C235.757 22.6302 235.89 21.8542 235.89 21C235.89 20.1562 235.759 19.3958 235.499 18.7187C235.244 18.0365 234.856 17.4974 234.335 17.1016C233.819 16.7005 233.171 16.5 232.39 16.5C231.64 16.5 231.009 16.6901 230.499 17.0703C229.989 17.4453 229.603 17.9714 229.343 18.6484C229.082 19.3203 228.952 20.1042 228.952 21ZM245.077 27.25C243.921 27.25 242.924 26.9948 242.085 26.4844C241.252 25.9688 240.608 25.25 240.155 24.3281C239.707 23.401 239.483 22.3229 239.483 21.0938C239.483 19.8646 239.707 18.7812 240.155 17.8437C240.608 16.901 241.239 16.1667 242.046 15.6406C242.858 15.1094 243.806 14.8438 244.89 14.8438C245.515 14.8438 246.132 14.9479 246.741 15.1562C247.351 15.3646 247.905 15.7031 248.405 16.1719C248.905 16.6354 249.304 17.25 249.601 18.0156C249.897 18.7812 250.046 19.724 250.046 20.8437V21.625H240.796V20.0312H248.171C248.171 19.3542 248.035 18.75 247.765 18.2187C247.499 17.6875 247.119 17.2682 246.624 16.9609C246.134 16.6536 245.556 16.5 244.89 16.5C244.155 16.5 243.52 16.6823 242.983 17.0469C242.452 17.4062 242.043 17.875 241.757 18.4531C241.47 19.0312 241.327 19.651 241.327 20.3125V21.375C241.327 22.2813 241.483 23.0495 241.796 23.6797C242.114 24.3047 242.554 24.7812 243.116 25.1094C243.679 25.4323 244.332 25.5938 245.077 25.5938C245.562 25.5938 245.999 25.526 246.39 25.3906C246.785 25.25 247.127 25.0417 247.413 24.7656C247.7 24.4844 247.921 24.1354 248.077 23.7187L249.858 24.2188C249.671 24.8229 249.356 25.3542 248.913 25.8125C248.47 26.2656 247.924 26.6198 247.272 26.875C246.621 27.125 245.89 27.25 245.077 27.25ZM252.351 27V15H254.132V16.8125H254.257C254.476 16.2188 254.871 15.737 255.444 15.3672C256.017 14.9974 256.663 14.8125 257.382 14.8125C257.517 14.8125 257.687 14.8151 257.89 14.8203C258.093 14.8255 258.246 14.8333 258.351 14.8438V16.7187C258.288 16.7031 258.145 16.6797 257.921 16.6484C257.702 16.612 257.47 16.5937 257.226 16.5937C256.642 16.5937 256.121 16.7161 255.663 16.9609C255.21 17.2005 254.851 17.5339 254.585 17.9609C254.325 18.3828 254.194 18.8646 254.194 19.4062V27H252.351ZM265.974 27V11H267.911V18.125H276.442V11H278.38V27H276.442V19.8437H267.911V27H265.974ZM289.071 22.0937V15H290.915V27H289.071V24.9687H288.946C288.665 25.5781 288.228 26.0964 287.634 26.5234C287.04 26.9453 286.29 27.1563 285.384 27.1563C284.634 27.1563 283.967 26.9922 283.384 26.6641C282.8 26.3307 282.342 25.8307 282.009 25.1641C281.675 24.4922 281.509 23.6458 281.509 22.625V15H283.353V22.5C283.353 23.375 283.597 24.0729 284.087 24.5938C284.582 25.1146 285.212 25.375 285.978 25.375C286.436 25.375 286.902 25.2578 287.376 25.0234C287.855 24.7891 288.256 24.4297 288.579 23.9453C288.907 23.4609 289.071 22.8437 289.071 22.0937ZM294.042 27V11H295.886V16.9062H296.042C296.177 16.6979 296.365 16.4323 296.604 16.1094C296.849 15.7812 297.198 15.4896 297.651 15.2344C298.11 14.974 298.729 14.8438 299.511 14.8438C300.521 14.8438 301.412 15.0964 302.183 15.6016C302.953 16.1068 303.555 16.8229 303.987 17.75C304.42 18.6771 304.636 19.7708 304.636 21.0313C304.636 22.3021 304.42 23.4036 303.987 24.3359C303.555 25.263 302.956 25.9818 302.19 26.4922C301.425 26.9974 300.542 27.25 299.542 27.25C298.771 27.25 298.154 27.1224 297.69 26.8672C297.227 26.6068 296.87 26.3125 296.62 25.9844C296.37 25.651 296.177 25.375 296.042 25.1562H295.823V27H294.042ZM295.854 21C295.854 21.9062 295.987 22.7057 296.253 23.3984C296.519 24.0859 296.907 24.625 297.417 25.0156C297.927 25.401 298.552 25.5938 299.292 25.5938C300.063 25.5938 300.706 25.3906 301.222 24.9844C301.743 24.5729 302.133 24.0208 302.394 23.3281C302.659 22.6302 302.792 21.8542 302.792 21C302.792 20.1562 302.662 19.3958 302.401 18.7187C302.146 18.0365 301.758 17.4974 301.237 17.1016C300.722 16.7005 300.073 16.5 299.292 16.5C298.542 16.5 297.912 16.6901 297.401 17.0703C296.891 17.4453 296.506 17.9714 296.245 18.6484C295.985 19.3203 295.854 20.1042 295.854 21Z"
        fill="black" />
    <defs>
        <clipPath id="clip0_10_1595">
            <rect width="150" height="31" fill="white" />
        </clipPath>
        <clipPath id="clip1_10_1595">
            <rect width="31" height="31" fill="white" transform="translate(1)" />
        </clipPath>
    </defs>
</svg>