<svg width="91" height="98" viewBox="0 0 91 98" fill="none" xmlns="http://www.w3.org/2000/svg">
<path fill-rule="evenodd" clip-rule="evenodd" d="M51.533 1.69118L83.7313 19.8068H83.7705C87.7315 22.0235 90.2023 26.1893 90.2023 30.6609V61.3637L67.4195 49.2753L72.1902 41.3555C73.556 42.0983 75.2676 41.6011 76.0218 40.2385C76.7794 38.8697 76.2839 37.1458 74.9151 36.3882L72.5444 35.0761L72.5414 35.0745L48.8507 22.0004L46.5096 20.67C45.1493 19.897 43.42 20.373 42.647 21.7333C41.9065 23.0364 42.3123 24.6782 43.5436 25.4934L35.0333 39.6167C34.2259 40.9568 34.6576 42.6977 35.9976 43.5052C37.3377 44.3126 39.0786 43.8809 39.8861 42.5409L48.4854 28.2699L67.2279 38.6133L62.4073 46.6158L58.4302 44.5056C57.8704 43.9491 57.1204 43.5838 56.2861 43.5159C55.0892 43.291 53.8168 43.8327 53.1845 44.9345C53.1519 44.9913 53.1216 45.0486 53.0934 45.1065C52.7559 45.6388 52.5606 46.2701 52.5606 46.947C52.5606 48.8483 54.1019 50.3896 56.0032 50.3896C56.381 50.3896 56.7447 50.3288 57.0848 50.2163L59.4754 51.4847L57.5562 54.672L57.5552 54.6736L54.8149 59.2175L43.3912 53.175C42.8327 52.6222 42.0859 52.2593 41.2556 52.191C40.0565 51.9644 38.7813 52.5079 38.1494 53.6128C38.1183 53.6671 38.0893 53.722 38.0623 53.7773C37.7233 54.3105 37.5269 54.9432 37.5269 55.6218C37.5269 57.5231 39.0682 59.0644 40.9695 59.0644C41.3492 59.0644 41.7145 59.003 42.056 58.8894L51.8803 64.0859L48.723 69.328L48.7228 69.3283C47.2971 71.6888 44.936 73.4403 42.1311 74.1606C39.3243 74.8813 36.338 74.5 33.835 73.113L33.8303 73.1103C32.5962 72.4296 31.5214 71.5252 30.6637 70.4543C29.8061 69.3836 29.1816 68.1667 28.8205 66.8752C28.4595 65.5839 28.3675 64.2388 28.5488 62.9155C28.7301 61.5921 29.1819 60.3111 29.8829 59.1462L33.5473 53.0577C34.3541 51.7173 33.9214 49.9766 32.581 49.1698C31.2405 48.363 29.4998 48.7957 28.6931 50.1362L25.0286 56.2247L25.0286 56.2248C23.935 58.0419 23.2222 60.0542 22.9356 62.1465C22.6489 64.239 22.7949 66.365 23.3641 68.4008C23.9333 70.4364 24.913 72.3373 26.2415 73.9961C27.5692 75.6537 29.2184 77.0363 31.0907 78.0696C34.8693 80.1629 39.3428 80.726 43.5403 79.6482C47.7401 78.5697 51.357 75.9258 53.5727 72.257L53.5745 72.2541L56.8963 66.739L69.3171 73.3088C70.7033 74.042 72.4581 73.5329 73.2366 72.1717C74.0151 70.8104 73.5224 69.1126 72.1363 68.3794L59.831 61.8707L62.4078 57.5979L62.4088 57.5963L64.4876 54.1441L90.1734 67.7729C89.889 71.9158 87.5182 75.672 83.7705 77.7845L51.533 95.9002C47.5719 98.1551 42.6696 98.1551 38.6693 95.9002L6.43182 77.7845C2.47076 75.5679 0 71.402 0 66.9304V30.6609C0 26.1893 2.43154 22.0617 6.43182 19.8068L38.6693 1.69118C42.6304 -0.563725 47.5327 -0.563725 51.533 1.69118Z" fill="url(#paint0_linear_694_1562)"/>
<defs>
<linearGradient id="paint0_linear_694_1562" x1="6.57584" y1="-2.72054e-07" x2="95.2843" y2="88.5875" gradientUnits="userSpaceOnUse">
<stop stop-color="#FF99C9"/>
<stop offset="0.5" stop-color="#926EF7"/>
<stop offset="1" stop-color="#6EEEF7"/>
</linearGradient>
</defs>
</svg>
