<svg width="17" height="16" viewBox="0 0 17 16" fill="none" xmlns="http://www.w3.org/2000/svg">
<mask id="mask0_309_293" style="mask-type:luminance" maskUnits="userSpaceOnUse" x="1" y="6" width="15" height="3">
<path d="M15.2308 6H1.66667V8.22363H15.2308V6Z" fill="white"/>
</mask>
<g mask="url(#mask0_309_293)">
<path d="M2.50705 7.39737L2.56033 7.34554L2.57743 7.32853C2.57743 7.32853 3.03786 7.02988 3.31407 7.02988H3.3379C3.07981 7.01684 2.8354 6.91232 2.65034 6.73588L1.96699 6.06836H1.92184L1.84669 6.14213V6.18629L2.50958 6.83489C2.58511 6.91 2.62724 7.01127 2.62676 7.11664C2.6263 7.22199 2.58326 7.3229 2.50705 7.39737Z" fill="url(#paint0_linear_309_293)"/>
<path d="M2.98096 6.49431L2.47902 6.00342H2.43387L2.35873 6.07691V6.12107L2.88393 6.63501C3.01269 6.76089 3.18728 6.83162 3.36932 6.83164H3.74956L3.78153 6.80065V6.69616L3.74956 6.66518H3.40269C3.24451 6.66517 3.09281 6.60371 2.98096 6.49431Z" fill="url(#paint1_linear_309_293)"/>
<path d="M2.98096 7.74015L2.47902 8.23106H2.43387L2.35873 8.15729V8.11313L2.88393 7.59947C3.01269 7.47359 3.18728 7.40286 3.36932 7.40283H3.74956L3.78153 7.43381V7.53803L3.74956 7.5693H3.40269C3.24451 7.5693 3.09281 7.63075 2.98096 7.74015Z" fill="url(#paint2_linear_309_293)"/>
<path d="M2.18937 6.85124L1.88289 6.55176H1.83803L1.76259 6.62553V6.66941L2.05451 6.95517C2.07603 6.97619 2.09312 7.00115 2.10477 7.02864C2.11643 7.05611 2.12243 7.08557 2.12243 7.11533C2.12243 7.14509 2.11643 7.17455 2.10477 7.20204C2.09312 7.22951 2.07603 7.25448 2.05451 7.2755L1.78418 7.54014V7.58402L1.85962 7.65779H1.90449L2.18909 7.3797C2.22461 7.34504 2.25281 7.30385 2.27204 7.25853C2.29127 7.2132 2.30119 7.16461 2.30122 7.11553C2.30125 7.06645 2.29138 7.01785 2.27219 6.9725C2.25301 6.92714 2.22486 6.88594 2.18937 6.85124Z" fill="url(#paint3_linear_309_293)"/>
<path d="M4.03866 7.02979H3.31409C3.03778 7.02996 2.77285 7.13738 2.57745 7.32844L1.83941 8.05026V8.09442L1.91484 8.16819H1.95998L2.64811 7.49601C2.74478 7.40117 2.85963 7.32593 2.98608 7.27458C3.11254 7.22324 3.24811 7.19681 3.38503 7.1968H4.03922L4.07063 7.16691V7.06269L4.03866 7.02979Z" fill="url(#paint4_linear_309_293)"/>
<path d="M4.03866 7.02979H3.31409C3.03778 7.02996 2.77285 7.13738 2.57745 7.32844L1.83941 8.05026V8.09442L1.91484 8.16819H1.95998L2.64811 7.49601C2.74478 7.40117 2.85963 7.32593 2.98608 7.27458C3.11254 7.22324 3.24811 7.19681 3.38503 7.1968H4.03922L4.07063 7.16691V7.06269L4.03866 7.02979Z" fill="url(#paint5_linear_309_293)"/>
<path d="M4.39786 6.67334H5.26713L5.28816 6.69391V6.80607L5.26713 6.82664H4.94129L4.92026 6.84722V7.56026L4.89923 7.58083H4.76631L4.74529 7.56026V6.84722L4.72425 6.82664H4.39786L4.37683 6.80607V6.695L4.39786 6.67334Z" fill="black"/>
<path d="M5.59576 6.6949L5.61679 6.67432H6.11452C6.31838 6.67432 6.43195 6.7662 6.43195 6.94528C6.43195 7.05963 6.37587 7.14301 6.27212 7.18278L6.2609 7.21185L6.45045 7.55082L6.43195 7.58126H6.29427L6.27576 7.57056L6.07695 7.21898L6.05844 7.20856H5.79149L5.77046 7.22913V7.56096L5.74944 7.58154H5.61623L5.5952 7.56096L5.59576 6.6949ZM5.77102 6.84682V7.0388L5.79205 7.05937H6.1005C6.20117 7.05937 6.25192 7.02125 6.25192 6.94583C6.25192 6.86355 6.20117 6.8268 6.1005 6.8268H5.79205L5.77102 6.84682Z" fill="black"/>
<path d="M7.40359 7.39498H6.96307L6.944 7.40705L6.87026 7.5694L6.8509 7.58146H6.72192L6.70257 7.5524L7.10047 6.68248L7.11981 6.67041H7.25834L7.27769 6.68248L7.67532 7.5524L7.65624 7.58146H7.51604L7.49697 7.5694L7.42295 7.40705L7.40359 7.39498ZM7.33881 7.21782L7.20395 6.92218H7.16552L7.03037 7.21782L7.04971 7.24524H7.31919L7.33881 7.21782Z" fill="black"/>
<path d="M7.88507 7.12814C7.88507 6.86239 8.08136 6.65918 8.35279 6.65918C8.61582 6.65918 8.73976 6.81796 8.77733 6.92602L8.75742 6.95344H8.61722L8.59956 6.94384C8.57319 6.90363 8.53663 6.87078 8.49345 6.84848C8.45026 6.82618 8.4019 6.81519 8.35307 6.81659C8.17922 6.81659 8.06706 6.95838 8.06706 7.12842C8.06706 7.29844 8.18006 7.44133 8.35279 7.44133C8.50225 7.44133 8.57375 7.36289 8.60208 7.31381L8.62031 7.30338H8.7577L8.77761 7.33081C8.74312 7.43283 8.62479 7.59875 8.35279 7.59875C8.0808 7.59875 7.88507 7.39388 7.88507 7.12814Z" fill="black"/>
<path d="M9.13567 6.67334H9.89698L9.918 6.69391V6.80087L9.89698 6.82144H9.31064L9.28961 6.842V7.00655L9.31064 7.02711H9.66115L9.68218 7.04769V7.15739L9.66115 7.17796H9.31064L9.28961 7.19879V7.40804L9.31064 7.42862H9.89698L9.918 7.44919V7.55889L9.89698 7.57946H9.13567L9.11464 7.55889V6.695L9.13567 6.67334Z" fill="black"/>
<path d="M13.6786 6.67334H14.4399L14.461 6.69391V6.80087L14.4399 6.82144H13.8536L13.8325 6.842V7.00655L13.8536 7.02711H14.2038L14.2248 7.04769V7.15739L14.2038 7.17796H13.8536L13.8325 7.19879V7.40804L13.8536 7.42862H14.4399L14.461 7.44919V7.55889L14.4399 7.57946H13.6786L13.6573 7.55889V6.695L13.6786 6.67334Z" fill="black"/>
<path d="M10.8543 7.39498H10.4138L10.3947 7.40705L10.321 7.5694L10.3016 7.58146H10.1709L10.1516 7.5524L10.5495 6.68248L10.5688 6.67041H10.7074L10.7267 6.68248L11.1257 7.5524L11.1067 7.58146H10.9665L10.9471 7.5694L10.8734 7.40705L10.8543 7.39498ZM10.7878 7.21782L10.6532 6.92218H10.6148L10.4794 7.21782L10.4987 7.24524H10.7682L10.7878 7.21782Z" fill="black"/>
<path d="M11.4311 6.6949L11.4521 6.67432H11.9288C12.1313 6.67432 12.2398 6.7662 12.2398 6.9195C12.2401 6.95305 12.2311 6.98606 12.2138 7.01502C12.1964 7.04399 12.1714 7.06784 12.1414 7.08405V7.11997C12.1785 7.13927 12.2093 7.16836 12.2303 7.20396C12.2513 7.23954 12.2617 7.28019 12.2603 7.32127C12.2603 7.47979 12.1506 7.58071 11.9364 7.58071H11.4521L11.4311 7.56015V6.6949ZM11.6035 6.84051V7.0218L11.6246 7.04236H11.9095C12.0101 7.04236 12.0598 7.00534 12.0598 6.93102C12.0598 6.85669 12.0087 6.81995 11.9095 6.81995H11.6246L11.6035 6.84051ZM11.6035 7.20719V7.41534L11.6246 7.43591H11.9145C12.0284 7.43591 12.0805 7.39258 12.0805 7.31058C12.0805 7.22858 12.0244 7.18662 11.9145 7.18662H11.6246L11.6035 7.20719Z" fill="black"/>
<path d="M13.327 7.58154H12.6203L12.5993 7.56096V6.6949L12.6203 6.67432H12.7533L12.7743 6.6949V7.40629L12.7953 7.42685H13.3281L13.3492 7.44743V7.56096L13.327 7.58154Z" fill="black"/>
<path d="M15.2301 7.58144H14.7912L14.7705 7.56115V7.45145L14.7912 7.43115H15.2301L15.2508 7.45145V7.56115L15.2301 7.58144Z" fill="url(#paint6_linear_309_293)"/>
</g>
<path d="M6.10916 8.85076H6.20775V9.14418C6.24179 9.0855 6.31573 9.04794 6.39907 9.04794C6.56103 9.04794 6.66197 9.17353 6.66197 9.37305C6.66197 9.57258 6.56103 9.69817 6.39907 9.69817C6.31221 9.69817 6.2371 9.65826 6.20189 9.59488L6.19836 9.68408H6.10916V8.85076ZM6.19836 9.37305C6.19836 9.51507 6.26879 9.60427 6.37911 9.60427C6.48827 9.60427 6.55869 9.51507 6.55869 9.37305C6.55869 9.22869 6.48827 9.13714 6.37911 9.13714C6.26879 9.13714 6.19836 9.22869 6.19836 9.37305ZM6.67754 9.06203H6.78317L6.96979 9.57845L7.15171 9.06203H7.25617L7.00383 9.76272C6.98035 9.82962 6.93575 9.86014 6.86533 9.86014H6.78435V9.77328H6.85594C6.88646 9.77328 6.90406 9.76037 6.9158 9.72986L6.9381 9.67235H6.90524L6.67754 9.06203Z" fill="black"/>
<g clip-path="url(#clip0_309_293)">
<path d="M9.72473 8.92606L9.34627 8.54926C9.30145 8.50713 9.24806 8.47505 9.18971 8.45518C9.0604 8.41237 8.93172 8.44579 8.8275 8.54926L8.4481 8.92606C8.40573 8.97063 8.37346 9.02372 8.35348 9.08174C8.31028 9.21031 8.34388 9.33827 8.4481 9.44175L8.82703 9.81855C8.87178 9.8607 8.92512 9.89278 8.98344 9.91263C9.01876 9.92451 9.05579 9.93064 9.09308 9.9308C9.18398 9.9308 9.27101 9.89261 9.34565 9.81855L9.72443 9.44175C9.76685 9.3972 9.79917 9.34411 9.8192 9.28607C9.86225 9.1575 9.82864 9.02969 9.72443 8.92606H9.72473ZM9.11553 8.65859C9.14416 8.66772 9.17054 8.68272 9.19296 8.70263L9.30492 8.81412L9.08657 9.03108L8.86822 8.81396L8.98081 8.70186C9.011 8.67199 9.05359 8.64027 9.11584 8.65844L9.11553 8.65859ZM8.55836 9.15473C8.56756 9.12624 8.58271 9.10001 8.6028 9.07773L8.71476 8.9664L8.93311 9.18352L8.71461 9.40064L8.60203 9.28854C8.57183 9.25866 8.54008 9.21632 8.5582 9.15442L8.55836 9.15473ZM9.0573 9.70876C9.02864 9.69971 9.00225 9.6847 8.97988 9.66472L8.86822 9.55462L9.08657 9.33735L9.30492 9.55447L9.19234 9.66657C9.16214 9.69644 9.11971 9.72816 9.0573 9.70999V9.70876ZM9.61479 9.2137C9.60558 9.24216 9.5905 9.26838 9.5705 9.29069L9.45854 9.40064L9.24019 9.18352L9.45854 8.9664L9.57112 9.07835C9.60131 9.10822 9.63306 9.15057 9.61494 9.21247" fill="#00ABE4"/>
<path d="M10.5419 9.71443H10.7375V9.17472C10.7375 9.00827 10.6358 8.88539 10.4622 8.88539C10.3776 8.88539 10.287 8.92265 10.2399 8.99118V8.59082H10.0445V9.71397H10.2399V9.28821C10.2399 9.18874 10.2901 9.06432 10.4073 9.06432C10.5106 9.06432 10.5419 9.12175 10.5419 9.21522V9.71443ZM11.3317 9.39523C11.3317 9.51395 11.2464 9.57878 11.1254 9.57878C11.0649 9.57878 11.0105 9.54028 11.0105 9.47853C11.0105 9.41371 11.068 9.37829 11.127 9.37367L11.3317 9.35827V9.39523ZM11.4946 9.72691C11.528 9.72799 11.5611 9.72057 11.5908 9.70535V9.56338C11.5826 9.56528 11.5743 9.56631 11.566 9.56646C11.5335 9.56646 11.5211 9.5526 11.5211 9.51549V9.21784C11.5235 9.16286 11.5156 9.10792 11.4977 9.05585C11.4512 8.93543 11.3332 8.89232 11.1953 8.89232C11.0152 8.89232 10.8708 8.97254 10.86 9.15301H11.0478C11.0525 9.07895 11.1051 9.03891 11.1953 9.03891C11.3054 9.03891 11.3317 9.08973 11.3317 9.16533V9.21476L11.0941 9.23124C10.9405 9.24201 10.8211 9.32994 10.8211 9.48269C10.8211 9.61388 10.9204 9.73414 11.1129 9.73414C11.2276 9.73414 11.3207 9.67871 11.358 9.61388C11.3642 9.67409 11.4107 9.72645 11.4944 9.72645L11.4946 9.72691ZM12.1039 9.0831C12.1143 9.08318 12.1246 9.08385 12.1349 9.08511V8.90341C12.1266 8.90341 12.1182 8.90156 12.11 8.90156C12.0152 8.90156 11.919 8.94005 11.8819 9.0326L11.8647 8.91234H11.7001V9.71459H11.8957V9.31038C11.8957 9.18073 11.9671 9.08357 12.1035 9.08357L12.1039 9.0831ZM12.7159 9.7149H12.91V9.17919C12.91 9.01258 12.809 8.89232 12.6368 8.89232C12.5439 8.89232 12.4476 8.93081 12.3994 9.01551L12.3855 8.91218H12.223V9.71443H12.4169V9.38753C12.4169 9.31962 12.4154 9.23632 12.4434 9.17303C12.4697 9.11436 12.5148 9.07125 12.5828 9.07125C12.6851 9.07125 12.7161 9.12837 12.7161 9.22246L12.7159 9.7149ZM13.5467 9.23355H13.198C13.1971 9.18831 13.212 9.14417 13.24 9.10851C13.2561 9.08849 13.2767 9.0725 13.3002 9.06181C13.3236 9.05111 13.3492 9.04601 13.375 9.04692C13.3975 9.04572 13.4201 9.04921 13.4412 9.05717C13.4622 9.06512 13.4814 9.07736 13.4975 9.09311C13.5285 9.12714 13.5457 9.17334 13.5472 9.23355H13.5467ZM13.7411 9.31993C13.7442 9.21969 13.7302 9.12868 13.6712 9.0406C13.6047 8.94036 13.4959 8.89263 13.377 8.89263C13.3294 8.89124 13.2819 8.89956 13.2376 8.91706C13.1933 8.93456 13.1531 8.96089 13.1193 8.99441C13.0419 9.0731 13.003 9.1872 13.003 9.31531C13.003 9.4465 13.0464 9.55907 13.1269 9.63621C13.1606 9.66871 13.2005 9.69418 13.2442 9.71113C13.2879 9.72808 13.3346 9.73617 13.3815 9.73491C13.4839 9.73491 13.5847 9.70258 13.653 9.62235C13.6839 9.58524 13.7166 9.52211 13.7213 9.47422H13.5354C13.5289 9.49994 13.5155 9.52341 13.4966 9.54213C13.4687 9.56984 13.4346 9.58062 13.3787 9.58062C13.3339 9.58048 13.291 9.56277 13.2592 9.53135C13.2391 9.51049 13.2235 9.48577 13.2133 9.45871C13.2032 9.43166 13.1987 9.40282 13.2002 9.37398H13.7395C13.7395 9.35689 13.7411 9.31993 13.7411 9.31993ZM14.0016 9.13638C14.002 9.11766 14.0082 9.09953 14.0193 9.08438C14.0303 9.06922 14.0457 9.05777 14.0635 9.05154C14.0902 9.04157 14.1188 9.03737 14.1473 9.03922C14.1858 9.03815 14.2234 9.05132 14.2527 9.07617C14.273 9.09624 14.2847 9.12334 14.2853 9.15178H14.47C14.4677 9.08984 14.4422 9.03099 14.3986 8.98671C14.3398 8.92327 14.242 8.89247 14.1459 8.89247C14.0449 8.89247 13.9601 8.92173 13.9007 8.9727C13.8743 8.99469 13.8531 9.02233 13.8389 9.05358C13.8246 9.08483 13.8177 9.11887 13.8185 9.15317C13.8185 9.25495 13.893 9.34441 14.0031 9.36766C14.0745 9.38306 14.1552 9.38768 14.2266 9.39846C14.2761 9.40616 14.3072 9.43696 14.3072 9.48331C14.3072 9.57123 14.208 9.58509 14.1428 9.58509C14.0869 9.58509 14.0513 9.57431 14.0201 9.54967C13.9987 9.53057 13.9843 9.50487 13.9793 9.47668H13.7965C13.804 9.53997 13.8337 9.59859 13.8805 9.64222C13.9472 9.7055 14.0387 9.73461 14.1412 9.73461C14.2513 9.73461 14.3521 9.70689 14.4173 9.64222C14.4405 9.6192 14.4587 9.59171 14.4707 9.56144C14.4828 9.53117 14.4885 9.49876 14.4875 9.46621C14.4875 9.33964 14.3946 9.25941 14.2671 9.2394C14.188 9.22708 14.1679 9.22554 14.0949 9.2163C14.0516 9.21014 14.002 9.19305 14.002 9.13607L14.0016 9.13638ZM15.0296 9.15147H15.2138C15.2115 9.08954 15.186 9.03068 15.1424 8.9864C15.0834 8.92327 14.9857 8.89247 14.8901 8.89247C14.7893 8.89247 14.7043 8.92173 14.645 8.9727C14.6185 8.99469 14.5974 9.02233 14.5831 9.05358C14.5689 9.08483 14.5619 9.11887 14.5628 9.15317C14.5628 9.25495 14.6372 9.34441 14.7473 9.36766C14.8187 9.38306 14.8994 9.38768 14.9708 9.39846C15.0204 9.40616 15.0515 9.43696 15.0515 9.48331C15.0515 9.57123 14.9521 9.58509 14.887 9.58509C14.8311 9.58509 14.7955 9.57431 14.7644 9.54967C14.7429 9.53057 14.7285 9.50487 14.7235 9.47668H14.5401C14.5476 9.54 14.5774 9.59865 14.6242 9.64222C14.6908 9.7055 14.7823 9.73461 14.8849 9.73461C14.995 9.73461 15.0958 9.70689 15.161 9.64222C15.1841 9.61917 15.2022 9.59167 15.2142 9.5614C15.2262 9.53113 15.2319 9.49874 15.2308 9.46621C15.2308 9.33964 15.1379 9.25941 15.0104 9.2394C14.9313 9.22708 14.9112 9.22554 14.8382 9.2163C14.7949 9.21014 14.7453 9.19305 14.7453 9.13607C14.7458 9.11736 14.752 9.09922 14.763 9.08407C14.7741 9.06892 14.7895 9.05746 14.8073 9.05123C14.834 9.04126 14.8626 9.03706 14.891 9.03891C14.9296 9.03784 14.9672 9.05101 14.9965 9.07587C15.0168 9.09591 15.0285 9.12302 15.0292 9.15147" fill="#231F20"/>
</g>
<defs>
<linearGradient id="paint0_linear_309_293" x1="2.087" y1="6.18858" x2="2.68217" y2="7.59022" gradientUnits="userSpaceOnUse">
<stop stop-color="#75A7FF"/>
<stop offset="0.479167" stop-color="#497EDC"/>
<stop offset="1" stop-color="#456BE0" stop-opacity="0"/>
</linearGradient>
<linearGradient id="paint1_linear_309_293" x1="3.72763" y1="5.99638" x2="1.34924" y2="5.90456" gradientUnits="userSpaceOnUse">
<stop stop-color="#C7C4C3"/>
<stop offset="0.510417" stop-color="#D5D5D5"/>
</linearGradient>
<linearGradient id="paint2_linear_309_293" x1="3.72763" y1="7.3958" x2="2.40549" y2="7.41167" gradientUnits="userSpaceOnUse">
<stop stop-color="#C7C4C3"/>
<stop offset="0.510417" stop-color="#D5D5D5"/>
</linearGradient>
<linearGradient id="paint3_linear_309_293" x1="2.28082" y1="6.54236" x2="1.46628" y2="6.50697" gradientUnits="userSpaceOnUse">
<stop stop-color="#C7C4C3"/>
<stop offset="0.510417" stop-color="#D5D5D5"/>
</linearGradient>
<linearGradient id="paint4_linear_309_293" x1="3.98611" y1="7.02012" x2="1.91282" y2="7.04851" gradientUnits="userSpaceOnUse">
<stop stop-color="#D5D5D5"/>
<stop offset="0.510417" stop-color="#C7C4C3"/>
</linearGradient>
<linearGradient id="paint5_linear_309_293" x1="3.98611" y1="7.02012" x2="0.337853" y2="7.04019" gradientUnits="userSpaceOnUse">
<stop stop-color="#C7C4C3"/>
<stop offset="0.510417" stop-color="#D5D5D5"/>
</linearGradient>
<linearGradient id="paint6_linear_309_293" x1="15.2308" y1="7.25091" x2="14.8952" y2="7.06233" gradientUnits="userSpaceOnUse">
<stop stop-color="#497EDC"/>
<stop offset="1" stop-color="#AEC2FF"/>
</linearGradient>
<clipPath id="clip0_309_293">
<rect width="6.89544" height="1.49379" fill="white" transform="translate(8.33537 8.43701)"/>
</clipPath>
</defs>
</svg>
