<svg width="48" height="48" viewBox="0 0 48 48" fill="none" xmlns="http://www.w3.org/2000/svg">
<mask id="mask0_309_184" style="mask-type:luminance" maskUnits="userSpaceOnUse" x="3" y="18" width="42" height="7">
<path d="M44.4086 18H3V24.7883H44.4086V18Z" fill="white"/>
</mask>
<g mask="url(#mask0_309_184)">
<path d="M5.5655 22.2642L5.72816 22.106L5.78036 22.0541C5.78036 22.0541 7.18597 21.1424 8.02917 21.1424H8.10193C7.31403 21.1025 6.5679 20.7835 6.00296 20.2448L3.91681 18.207H3.77898L3.54955 18.4322V18.567L5.57324 20.5471C5.80381 20.7764 5.93244 21.0856 5.93097 21.4072C5.92955 21.7288 5.79815 22.0369 5.5655 22.2642Z" fill="url(#paint0_linear_309_184)"/>
<path d="M7.01228 19.5089L5.47996 18.0103H5.34214L5.11274 18.2346V18.3694L6.71607 19.9384C7.10915 20.3227 7.64213 20.5386 8.19787 20.5387H9.35865L9.45625 20.444V20.1251L9.35865 20.0305H8.29974C7.81684 20.0304 7.35373 19.8428 7.01228 19.5089Z" fill="url(#paint1_linear_309_184)"/>
<path d="M7.01228 23.3115L5.47996 24.8101H5.34214L5.11274 24.5849V24.4501L6.71607 22.882C7.10915 22.4977 7.64213 22.2818 8.19787 22.2817H9.35865L9.45625 22.3763V22.6945L9.35865 22.7899H8.29974C7.81684 22.7899 7.35373 22.9775 7.01228 23.3115Z" fill="url(#paint2_linear_309_184)"/>
<path d="M4.59571 20.5978L3.66009 19.6836H3.52312L3.29282 19.9088V20.0428L4.18398 20.9151C4.2497 20.9793 4.30186 21.0555 4.33745 21.1394C4.37303 21.2233 4.39135 21.3132 4.39135 21.4041C4.39135 21.4949 4.37303 21.5848 4.33745 21.6688C4.30186 21.7526 4.2497 21.8289 4.18398 21.893L3.35874 22.7009V22.8349L3.58904 23.0601H3.72601L4.59486 22.2112C4.70328 22.1053 4.78936 21.9796 4.84807 21.8412C4.90678 21.7028 4.93708 21.5545 4.93716 21.4047C4.93724 21.2548 4.90711 21.1065 4.84852 20.968C4.78997 20.8296 4.70406 20.7038 4.59571 20.5978Z" fill="url(#paint3_linear_309_184)"/>
<path d="M10.2412 21.1426H8.02926C7.18573 21.1431 6.37694 21.471 5.78045 22.0543L3.52736 24.2579V24.3927L3.75761 24.6179H3.89544L5.99616 22.5659C6.29127 22.2763 6.64188 22.0466 7.02792 21.8899C7.41395 21.7332 7.82783 21.6525 8.24583 21.6524H10.2429L10.3388 21.5612V21.243L10.2412 21.1426Z" fill="url(#paint4_linear_309_184)"/>
<path d="M11.3378 20.0542H13.9915L14.0557 20.117V20.4594L13.9915 20.5222H12.9968L12.9326 20.585V22.7618L12.8684 22.8246H12.4626L12.3984 22.7618V20.585L12.3342 20.5222H11.3378L11.2736 20.4594V20.1203L11.3378 20.0542Z" fill="white"/>
<path d="M14.9947 20.1204L15.059 20.0576H16.5784C17.2008 20.0576 17.5475 20.3381 17.5475 20.8848C17.5475 21.2339 17.3763 21.4884 17.0595 21.6099L17.0253 21.6986L17.6039 22.7334L17.5475 22.8263H17.1271L17.0706 22.7937L16.4637 21.7204L16.4072 21.6886H15.5923L15.528 21.7513V22.7644L15.4639 22.8272H15.0572L14.993 22.7644L14.9947 20.1204ZM15.5298 20.5842V21.1703L15.594 21.2331H16.5356C16.8429 21.2331 16.9979 21.1167 16.9979 20.8865C16.9979 20.6353 16.8429 20.5231 16.5356 20.5231H15.594L15.5298 20.5842Z" fill="white"/>
<path d="M20.5137 22.2579H19.1689L19.1107 22.2947L18.8855 22.7904L18.8265 22.8272H18.4327L18.3736 22.7384L19.5883 20.0827L19.6474 20.0459H20.0703L20.1293 20.0827L21.3432 22.7384L21.285 22.8272H20.857L20.7988 22.7904L20.5728 22.2947L20.5137 22.2579ZM20.3159 21.717L19.9042 20.8145H19.7869L19.3743 21.717L19.4334 21.8007H20.2561L20.3159 21.717Z" fill="white"/>
<path d="M21.9836 21.4424C21.9836 20.6311 22.5828 20.0107 23.4114 20.0107C24.2144 20.0107 24.5928 20.4955 24.7075 20.8254L24.6467 20.9091H24.2187L24.1647 20.8798C24.0842 20.757 23.9726 20.6567 23.8408 20.5886C23.709 20.5206 23.5613 20.487 23.4123 20.4913C22.8815 20.4913 22.5391 20.9241 22.5391 21.4432C22.5391 21.9623 22.8841 22.3985 23.4114 22.3985C23.8677 22.3985 24.086 22.159 24.1724 22.0092L24.2281 21.9773H24.6475L24.7083 22.0611C24.603 22.3725 24.2418 22.8791 23.4114 22.8791C22.5811 22.8791 21.9836 22.2536 21.9836 21.4424Z" fill="white"/>
<path d="M25.8014 20.0542H28.1255L28.1897 20.117V20.4435L28.1255 20.5063H26.3355L26.2713 20.5691V21.0714L26.3355 21.1342H27.4056L27.4698 21.197V21.5319L27.4056 21.5947H26.3355L26.2713 21.6583V22.2971L26.3355 22.3599H28.1255L28.1897 22.4227V22.7576L28.1255 22.8204H25.8014L25.7372 22.7576V20.1203L25.8014 20.0542Z" fill="white"/>
<path d="M39.6701 20.0542H41.9942L42.0585 20.117V20.4435L41.9942 20.5063H40.2043L40.1399 20.5691V21.0714L40.2043 21.1342H41.2735L41.3374 21.197V21.5319L41.2735 21.5947H40.2043L40.1399 21.6583V22.2971L40.2043 22.3599H41.9942L42.0585 22.4227V22.7576L41.9942 22.8204H39.6701L39.6049 22.7576V20.1203L39.6701 20.0542Z" fill="white"/>
<path d="M31.048 22.2579H29.7032L29.6449 22.2947L29.4198 22.7904L29.3607 22.8272H28.9618L28.9028 22.7384L30.1175 20.0827L30.1766 20.0459H30.5995L30.6585 20.0827L31.8767 22.7384L31.8184 22.8272H31.3904L31.3313 22.7904L31.1062 22.2947L31.048 22.2579ZM30.8451 21.717L30.4342 20.8145H30.3169L29.9035 21.717L29.9625 21.8007H30.7852L30.8451 21.717Z" fill="white"/>
<path d="M32.8088 20.1204L32.8731 20.0576H34.3283C34.9464 20.0576 35.2777 20.3381 35.2777 20.8061C35.2785 20.9086 35.2511 21.0093 35.1982 21.0977C35.1453 21.1862 35.0689 21.259 34.9772 21.3085V21.4181C35.0905 21.477 35.1846 21.5658 35.2487 21.6745C35.3129 21.7831 35.3446 21.9072 35.3402 22.0327C35.3402 22.5166 35.0055 22.8247 34.3514 22.8247H32.8731L32.8088 22.7619V20.1204ZM33.3353 20.565V21.1184L33.3995 21.1812H34.2693C34.5766 21.1812 34.7281 21.0682 34.7281 20.8413C34.7281 20.6144 34.5723 20.5022 34.2693 20.5022H33.3995L33.3353 20.565ZM33.3353 21.6844V22.3198L33.3995 22.3826H34.2847C34.6322 22.3826 34.7915 22.2503 34.7915 22C34.7915 21.7497 34.6202 21.6216 34.2847 21.6216H33.3995L33.3353 21.6844Z" fill="white"/>
<path d="M38.5968 22.8272H36.4394L36.3752 22.7644V20.1204L36.4394 20.0576H36.8452L36.9094 20.1204V22.2922L36.9736 22.355H38.6L38.6644 22.4178V22.7644L38.5968 22.8272Z" fill="white"/>
<path d="M44.4066 22.8274H43.0666L43.0035 22.7655V22.4306L43.0666 22.3687H44.4066L44.4697 22.4306V22.7655L44.4066 22.8274Z" fill="url(#paint5_linear_309_184)"/>
</g>
<path d="M18.6677 26.1762H18.9687V27.072C19.0726 26.8929 19.2983 26.7782 19.5527 26.7782C20.0472 26.7782 20.3553 27.1616 20.3553 27.7707C20.3553 28.3798 20.0472 28.7632 19.5527 28.7632C19.2875 28.7632 19.0582 28.6414 18.9507 28.4479L18.94 28.7202H18.6677V26.1762ZM18.94 27.7707C18.94 28.2043 19.155 28.4766 19.4918 28.4766C19.825 28.4766 20.04 28.2043 20.04 27.7707C20.04 27.33 19.825 27.0505 19.4918 27.0505C19.155 27.0505 18.94 27.33 18.94 27.7707ZM20.4028 26.8212H20.7253L21.295 28.3977L21.8504 26.8212H22.1693L21.3989 28.9603C21.3273 29.1645 21.1911 29.2577 20.9761 29.2577H20.7289V28.9925H20.9475C21.0406 28.9925 21.0944 28.9531 21.1302 28.86L21.1983 28.6844H21.0979L20.4028 26.8212Z" fill="white"/>
<g clip-path="url(#clip0_309_184)">
<path d="M27.5997 26.9329L26.4443 25.7826C26.3075 25.654 26.1445 25.5561 25.9664 25.4954C25.5716 25.3647 25.1788 25.4667 24.8606 25.7826L23.7024 26.9329C23.573 27.069 23.4745 27.231 23.4135 27.4082C23.2816 27.8007 23.3842 28.1913 23.7024 28.5072L24.8592 29.6575C24.9958 29.7862 25.1586 29.8841 25.3367 29.9447C25.4445 29.981 25.5575 29.9997 25.6714 30.0002C25.9489 30.0002 26.2146 29.8836 26.4424 29.6575L27.5988 28.5072C27.7283 28.3712 27.8269 28.2091 27.8881 28.032C28.0195 27.6394 27.9169 27.2493 27.5988 26.9329H27.5997ZM25.7399 26.1164C25.8273 26.1442 25.9078 26.19 25.9763 26.2508L26.3181 26.5912L25.6515 27.2535L24.9849 26.5907L25.3286 26.2485C25.4208 26.1573 25.5508 26.0604 25.7409 26.1159L25.7399 26.1164ZM24.039 27.631C24.0671 27.544 24.1133 27.4639 24.1747 27.3959L24.5165 27.0561L25.183 27.7189L24.516 28.3817L24.1723 28.0395C24.0801 27.9483 23.9832 27.819 24.0385 27.63L24.039 27.631ZM25.5622 29.3223C25.4747 29.2947 25.3941 29.2489 25.3258 29.1879L24.9849 28.8518L25.6515 28.1885L26.3181 28.8513L25.9744 29.1935C25.8822 29.2847 25.7527 29.3816 25.5622 29.3261V29.3223ZM27.2641 27.811C27.236 27.8979 27.1899 27.9779 27.1288 28.0461L26.7871 28.3817L26.1205 27.7189L26.7871 27.0561L27.1307 27.3978C27.2229 27.489 27.3198 27.6183 27.2645 27.8073" fill="#00ABE4"/>
<path d="M30.0944 29.3398H30.6915V27.6922C30.6915 27.1841 30.3809 26.8089 29.8509 26.8089C29.5928 26.8089 29.3162 26.9227 29.1725 27.1319V25.9097H28.5759V29.3384H29.1725V28.0387C29.1725 27.735 29.3257 27.3552 29.6836 27.3552C29.9989 27.3552 30.0944 27.5305 30.0944 27.8158V29.3398ZM32.5054 28.3654C32.5054 28.7278 32.2449 28.9257 31.8757 28.9257C31.6908 28.9257 31.5249 28.8082 31.5249 28.6197C31.5249 28.4218 31.7003 28.3137 31.8804 28.2996L32.5054 28.2525V28.3654ZM33.0027 29.3779C33.1046 29.3812 33.2057 29.3586 33.2963 29.3121V28.8787C33.2715 28.8845 33.2461 28.8876 33.2206 28.8881C33.1214 28.8881 33.0836 28.8458 33.0836 28.7325V27.8238C33.091 27.656 33.0668 27.4883 33.0122 27.3293C32.8703 26.9617 32.5101 26.8301 32.0889 26.8301C31.5391 26.8301 31.0985 27.075 31.0654 27.6259H31.6388C31.653 27.3998 31.8138 27.2776 32.0889 27.2776C32.425 27.2776 32.5054 27.4327 32.5054 27.6635V27.8144L31.7802 27.8647C31.3112 27.8976 30.9467 28.1661 30.9467 28.6324C30.9467 29.0329 31.2498 29.4 31.8374 29.4C32.1877 29.4 32.4718 29.2308 32.5858 29.0329C32.6047 29.2167 32.7465 29.3765 33.0022 29.3765L33.0027 29.3779ZM34.863 27.4125C34.8946 27.4127 34.9261 27.4148 34.9575 27.4186V26.8639C34.932 26.8639 34.9065 26.8583 34.8814 26.8583C34.5921 26.8583 34.2985 26.9758 34.1851 27.2583L34.1326 26.8912H33.63V29.3403H34.2271V28.1064C34.2271 27.7105 34.4451 27.4139 34.8615 27.4139L34.863 27.4125ZM36.7313 29.3413H37.3236V27.7058C37.3236 27.1972 37.0154 26.8301 36.4897 26.8301C36.206 26.8301 35.912 26.9476 35.765 27.2061L35.7224 26.8907H35.2265V29.3398H35.8184V28.3419C35.8184 28.1346 35.8137 27.8802 35.8992 27.687C35.9796 27.5079 36.1172 27.3763 36.3247 27.3763C36.6372 27.3763 36.7317 27.5507 36.7317 27.8379L36.7313 29.3413ZM39.2675 27.8718H38.2029C38.2003 27.7337 38.2455 27.5989 38.331 27.4901C38.3803 27.429 38.4432 27.3801 38.5147 27.3475C38.5863 27.3148 38.6646 27.2993 38.7433 27.302C38.812 27.2984 38.8808 27.309 38.9452 27.3333C39.0096 27.3576 39.0682 27.395 39.1172 27.4431C39.2118 27.547 39.2642 27.688 39.269 27.8718H39.2675ZM39.8608 28.1355C39.8703 27.8295 39.8277 27.5517 39.6476 27.2828C39.4443 26.9767 39.1125 26.831 38.7494 26.831C38.6039 26.8268 38.4591 26.8522 38.3238 26.9056C38.1885 26.9591 38.0657 27.0394 37.9628 27.1417C37.7264 27.382 37.6077 27.7303 37.6077 28.1214C37.6077 28.5219 37.7401 28.8655 37.9859 29.101C38.0887 29.2002 38.2104 29.278 38.3439 29.3298C38.4774 29.3815 38.6199 29.4062 38.7631 29.4024C39.0756 29.4024 39.3834 29.3036 39.5918 29.0587C39.6864 28.9454 39.7861 28.7527 39.8003 28.6065H39.233C39.2131 28.685 39.1721 28.7567 39.1144 28.8138C39.0293 28.8984 38.9253 28.9313 38.7546 28.9313C38.6178 28.9309 38.4867 28.8768 38.3897 28.7809C38.3283 28.7172 38.2807 28.6418 38.2498 28.5592C38.2188 28.4766 38.2051 28.3885 38.2095 28.3005H39.8561C39.8561 28.2483 39.8608 28.1355 39.8608 28.1355ZM40.656 27.5752C40.6574 27.518 40.6762 27.4627 40.71 27.4164C40.7438 27.3701 40.7909 27.3352 40.8451 27.3161C40.9267 27.2857 41.0139 27.2729 41.1008 27.2785C41.2185 27.2753 41.3332 27.3155 41.4228 27.3914C41.4847 27.4526 41.5203 27.5353 41.5221 27.6222H42.086C42.079 27.4331 42.0013 27.2534 41.8681 27.1182C41.6885 26.9246 41.3902 26.8306 41.0966 26.8306C40.7884 26.8306 40.5293 26.9199 40.3482 27.0755C40.2674 27.1426 40.2028 27.227 40.1594 27.3224C40.1159 27.4178 40.0946 27.5217 40.0972 27.6264C40.0972 27.9371 40.3246 28.2102 40.6607 28.2812C40.8787 28.3282 41.125 28.3423 41.3429 28.3752C41.4942 28.3987 41.5892 28.4928 41.5892 28.6343C41.5892 28.9027 41.2862 28.945 41.0871 28.945C40.9165 28.945 40.8077 28.9121 40.7127 28.8369C40.6473 28.7785 40.6033 28.7001 40.5879 28.614H40.0301C40.053 28.8072 40.1437 28.9862 40.2863 29.1194C40.4901 29.3126 40.7695 29.4014 41.0824 29.4014C41.4185 29.4014 41.7263 29.3168 41.9253 29.1194C41.996 29.0491 42.0515 28.9652 42.0883 28.8728C42.1252 28.7804 42.1426 28.6814 42.1395 28.5821C42.1395 28.1957 41.8558 27.9508 41.4668 27.8896C41.2252 27.852 41.1637 27.8473 40.9411 27.8191C40.8087 27.8003 40.6574 27.7482 40.6574 27.5742L40.656 27.5752ZM43.7946 27.6212H44.3566C44.3496 27.4321 44.2719 27.2525 44.1387 27.1173C43.9586 26.9246 43.6603 26.8306 43.3686 26.8306C43.0609 26.8306 42.8013 26.9199 42.6203 27.0755C42.5394 27.1426 42.4748 27.227 42.4314 27.3224C42.3879 27.4178 42.3667 27.5217 42.3692 27.6264C42.3692 27.9371 42.5966 28.2102 42.9327 28.2812C43.1507 28.3282 43.397 28.3423 43.6149 28.3752C43.7662 28.3987 43.8612 28.4928 43.8612 28.6343C43.8612 28.9027 43.5577 28.945 43.3592 28.945C43.1885 28.945 43.0798 28.9121 42.9847 28.8369C42.9193 28.7785 42.8753 28.7001 42.8599 28.614H42.3002C42.3231 28.8073 42.414 28.9864 42.5569 29.1194C42.7602 29.3126 43.0396 29.4014 43.3525 29.4014C43.6887 29.4014 43.9964 29.3168 44.1954 29.1194C44.266 29.049 44.3213 28.9651 44.358 28.8727C44.3946 28.7803 44.4119 28.6814 44.4086 28.5821C44.4086 28.1957 44.125 27.9508 43.7359 27.8896C43.4944 27.852 43.4329 27.8473 43.2102 27.8191C43.0779 27.8003 42.9266 27.7482 42.9266 27.5742C42.928 27.5171 42.9468 27.4617 42.9806 27.4155C43.0144 27.3692 43.0615 27.3342 43.1157 27.3152C43.1973 27.2848 43.2845 27.272 43.3714 27.2776C43.4891 27.2743 43.6038 27.3145 43.6934 27.3904C43.7554 27.4516 43.7912 27.5344 43.7931 27.6212" fill="white"/>
</g>
<defs>
<linearGradient id="paint0_linear_309_184" x1="4.28317" y1="18.574" x2="6.10011" y2="22.853" gradientUnits="userSpaceOnUse">
<stop stop-color="#75A7FF"/>
<stop offset="0.479167" stop-color="#497EDC"/>
<stop offset="1" stop-color="#456BE0" stop-opacity="0"/>
</linearGradient>
<linearGradient id="paint1_linear_309_184" x1="9.29172" y1="17.9888" x2="5.25549" y2="18.0372" gradientUnits="userSpaceOnUse">
<stop stop-color="#DBDBDB" stop-opacity="0.08"/>
<stop offset="0.510417" stop-color="#DCDCDC"/>
</linearGradient>
<linearGradient id="paint2_linear_309_184" x1="9.29172" y1="22.2602" x2="5.25549" y2="22.3087" gradientUnits="userSpaceOnUse">
<stop stop-color="#DBDBDB" stop-opacity="0.08"/>
<stop offset="0.510417" stop-color="#DCDCDC"/>
</linearGradient>
<linearGradient id="paint3_linear_309_184" x1="7.58214" y1="23.0911" x2="6.48524" y2="18.9312" gradientUnits="userSpaceOnUse">
<stop stop-color="#DBDBDB" stop-opacity="0.08"/>
<stop offset="0.510417" stop-color="#DCDCDC"/>
</linearGradient>
<linearGradient id="paint4_linear_309_184" x1="10.0808" y1="21.1131" x2="3.75146" y2="21.1997" gradientUnits="userSpaceOnUse">
<stop stop-color="#DBDBDB" stop-opacity="0.08"/>
<stop offset="0.510417" stop-color="#DCDCDC"/>
</linearGradient>
<linearGradient id="paint5_linear_309_184" x1="44.4087" y1="21.8184" x2="43.3842" y2="21.2427" gradientUnits="userSpaceOnUse">
<stop stop-color="#497EDC"/>
<stop offset="1" stop-color="#AEC2FF"/>
</linearGradient>
<clipPath id="clip0_309_184">
<rect width="21.0504" height="4.56025" fill="white" transform="translate(23.3582 25.4399)"/>
</clipPath>
</defs>
</svg>
