<svg xmlns="http://www.w3.org/2000/svg" xmlns:xlink="http://www.w3.org/1999/xlink" viewBox="0 0 320 220" xmlns:v="https://vecta.io/nano"><style><![CDATA[.B{fill-rule:evenodd}.C{fill:#fff}.D{fill:#070707}]]></style><path d="M257.463 64.098a.5.5 0 0 1-.274.652c-25.671 10.45-98.962 45.983-121.965 57.519l-2.042 1.024-12.136 6.236c-3.673 2.018-6.143 3.637-7.358 5.018-.603.685-.837 1.245-.829 1.713.007.454.245.947.882 1.498s1.639 1.124 3.045 1.718c1.4.592 3.176 1.196 5.354 1.831l14.331 4.081 61.181 17.922c4.512 1.434 8.351 2.908 11.399 4.435 3.039 1.522 5.332 3.118 6.711 4.813 1.397 1.717 1.873 3.566 1.194 5.502-.662 1.889-2.392 3.77-5.173 5.675-7.315 5.011-37.032 23.192-54.539 32.988a.5.5 0 0 1-.68-.192.5.5 0 0 1 .192-.68c17.493-9.789 47.181-27.954 54.462-32.941 2.719-1.863 4.238-3.592 4.794-5.18.54-1.54.202-3.032-1.026-4.541-1.246-1.533-3.391-3.051-6.383-4.55-2.983-1.495-6.769-2.95-11.254-4.375-17.695-5.623-43.814-13.01-61.126-17.907l-14.363-4.09c-2.197-.641-4.014-1.257-5.464-1.87-1.443-.61-2.552-1.227-3.309-1.882s-1.214-1.398-1.228-2.238c-.014-.826.4-1.621 1.078-2.391 1.348-1.531 3.972-3.225 7.627-5.234 3.23-1.775 7.325-3.826 12.17-6.253l2.042-1.024c22.998-11.534 96.323-47.084 122.036-57.551a.5.5 0 0 1 .651.275zm-7.517-8.039a.5.5 0 0 1-.219.672c-14.763 7.506-45.658 21.654-75.223 35.103l-14.159 6.436-53.154 24.499-4.186 2.073-9.035 4.542c-3.918 2.048-7.159 3.921-9.303 5.631-1.073.856-1.842 1.647-2.288 2.373-.441.717-.543 1.326-.373 1.869.175.561.673 1.166 1.678 1.788s2.449 1.22 4.424 1.796l8.782 2.545 72.23 21.459c4.5 1.43 8.486 2.762 11.726 4.069 3.229 1.302 5.769 2.599 7.341 3.974.789.69 1.366 1.428 1.645 2.228.285.817.245 1.658-.13 2.506-.726 1.644-2.705 3.309-5.961 5.102l-27.294 15.542-26.235 14.992a.5.5 0 0 1-.488-.873l26.204-14.974 27.331-15.563c3.244-1.786 4.948-3.316 5.528-4.63.279-.631.297-1.21.101-1.773-.202-.578-.645-1.179-1.359-1.805-1.437-1.256-3.842-2.502-7.057-3.798-3.202-1.292-7.157-2.615-11.655-4.044-19.887-6.318-54.199-16.243-72.197-21.449l-8.791-2.548c-2.017-.588-3.562-1.22-4.671-1.906s-1.83-1.453-2.107-2.34c-.282-.904-.063-1.815.476-2.691.534-.868 1.404-1.744 2.516-2.631 2.227-1.775 5.543-3.686 9.463-5.736l9.067-4.557 4.171-2.066c7.974-3.972 29.138-13.588 53.192-24.517l14.153-6.433 75.183-35.084a.5.5 0 0 1 .673.219z" class="B C"/><path d="M160.277 173.845l-25.449 10.709-22.451-7.071v-28.497l29.157-10.808 18.743 7.077v1.047 5.716 21.827z" class="D"/><g class="B C"><path d="M137.55 137.784a.5.5 0 0 1 .614-.35c3.863 1.057 7.802 2.37 11.878 3.743l.75.252 11.984 3.86a.5.5 0 0 1 .339.621.5.5 0 0 1-.621.338c-4.186-1.231-8.175-2.575-12.017-3.87l-.754-.254c-4.078-1.373-7.991-2.677-11.823-3.725a.5.5 0 0 1-.35-.615zm-25.173 9.24a.5.5 0 0 1 .5.5v30.567a.5.5 0 1 1-1 0v-30.567a.5.5 0 0 1 .5-.5z"/><path d="M160.276 144.231a.5.5 0 0 1 .5.5v29.446a.5.5 0 1 1-1 0v-29.446a.5.5 0 0 1 .5-.5zm-24.253 8.502a.5.5 0 0 1 .5.5v31.858a.5.5 0 1 1-1 0v-31.858a.5.5 0 0 1 .5-.5z"/><path d="M111.288 177.957a.5.5 0 0 1 .614-.351l13.524 3.554 11.939 3.115a.5.5 0 0 1 .354.612.5.5 0 0 1-.612.354l-11.916-3.109-13.552-3.561a.5.5 0 0 1-.351-.614zm1.212-29.113a.5.5 0 0 1 .614-.35l13.524 3.554 11.939 3.115a.5.5 0 0 1 .354.612.5.5 0 0 1-.612.354l-11.916-3.109-13.553-3.562a.5.5 0 0 1-.35-.614z"/><path d="M163.777 173.064a.5.5 0 0 1-.295.642c-5.483 2.033-24.755 9.836-30.157 12.096a.5.5 0 0 1-.654-.268.5.5 0 0 1 .268-.654c5.404-2.261 24.692-10.071 30.195-12.111a.5.5 0 0 1 .643.295zm-2.034-28.506a.5.5 0 0 1-.295.642c-3.716 1.378-11.907 4.921-18.489 7.768l-7.642 3.281a.5.5 0 0 1-.655-.268.5.5 0 0 1 .269-.654l7.576-3.253 18.594-7.811a.5.5 0 0 1 .642.295zm-20.938-6.806a.5.5 0 0 1-.295.643c-4.679 1.734-17.909 7.289-25.048 10.287l-3.061 1.285a.5.5 0 0 1-.386-.923l3.049-1.279 25.098-10.308a.5.5 0 0 1 .643.295zm9.533 3.649a.5.5 0 0 1-.273.653c-3.637 1.487-9.17 3.918-14.274 6.159l-9.919 4.308a.5.5 0 0 1-.654-.268.5.5 0 0 1 .268-.654l9.856-4.281 14.344-6.19a.5.5 0 0 1 .652.273z"/><path d="M146.224 150.684c.252.109.4.411.331.676-1.318 5.09-2.955 10.804-4.575 16.454l-.054.187-.055.192-4.376 15.722c-.073.264-.335.388-.587.279a.6.6 0 0 1-.332-.676c1.232-4.756 2.796-10.215 4.379-15.735l4.681-16.82c.073-.264.336-.388.588-.279zm-5.758 2.464c.252.109.4.411.331.676-.743 2.87-1.401 5.101-2.051 7.306l-.013.044c-.004.015-.009.03-.013.045l-1.988 7.077c-.074.263-.336.387-.588.278s-.4-.411-.331-.676c.713-2.752 1.352-4.921 1.993-7.094l2.072-7.378c.074-.263.336-.387.588-.278zm20.256-8.554c.255.107.405.411.335.678l-8.349 32.24a.42.42 0 0 1-.586.29.6.6 0 0 1-.336-.679l8.35-32.24c.069-.267.332-.397.586-.289zm-5.564 2.917a.6.6 0 0 1 .335.679l-8.098 31.268c-.069.268-.331.397-.586.29a.6.6 0 0 1-.335-.678l8.098-31.269a.42.42 0 0 1 .586-.29zm-4.75 1.971a.6.6 0 0 1 .336.678l-8.156 31.614a.42.42 0 0 1-.586.29.6.6 0 0 1-.336-.678l8.156-31.614a.42.42 0 0 1 .586-.29zm10.323 12.043a.6.6 0 0 1 .324.684l-3.675 13.156c-.074.266-.34.39-.593.277s-.398-.418-.324-.684l3.676-13.156a.42.42 0 0 1 .592-.277z"/></g><path d="M72.974 101.079v-8.424l10.407-6.442h35.671l7.939 6.938v9.911l-11.894 6.443H84.867l-11.893-8.425z" class="D"/><g class="B C"><path d="M69.613 98.229a.5.5 0 0 1 .703-.071l7.332 6.116.001.001 6.354 5.289a.5.5 0 1 1-.629.778l-6.37-5.303-.002-.001-7.319-6.105a.5.5 0 0 1-.071-.704z"/><path d="M115.987 110.003l-32.119-.495a.5.5 0 0 1 .015-1l32.119.496a.5.5 0 0 1 .492.507.5.5 0 0 1-.508.492zM73.12 88.784a.5.5 0 0 1 .5.5v14.769a.5.5 0 1 1-1 0V89.284a.5.5 0 0 1 .5-.5z"/><path d="M84.867 96.615a.5.5 0 0 1 .5.5v11.398a.5.5 0 1 1-1 0V97.115a.5.5 0 0 1 .5-.5zm30.229-.496a.5.5 0 0 1 .5.5v13.875a.5.5 0 1 1-1 0V96.619a.5.5 0 0 1 .5-.5zm11.893-6.937a.5.5 0 0 1 .5.5v13.875a.5.5 0 1 1-1 0V89.682a.5.5 0 0 1 .5-.5z"/><path d="M71.861 90.29a.5.5 0 0 1 .691-.15l8.11 5.172 4.436 2.812a.5.5 0 1 1-.537.844l-4.43-2.808-8.12-5.179a.5.5 0 0 1-.15-.691z"/><path d="M84.329 98.546a.5.5 0 0 1 .5-.5h30.725a.5.5 0 1 1 0 1H84.829a.5.5 0 0 1-.5-.5zm31.467-14.555a.5.5 0 0 1 .699-.108l-.296.403-.295.403a.5.5 0 0 1-.108-.699zm.403.296l-.295.403.375.275 1.024.75 3.378 2.469 7.776 5.635a.5.5 0 0 0 .581-.814l-7.767-5.629-3.377-2.468-1.024-.75-.375-.275-.296.403zm-23.481.412a.5.5 0 0 1-.316.632c-5.126 1.709-17.665 6.268-20.505 7.405a.5.5 0 1 1-.371-.928c2.863-1.145 15.421-5.711 20.561-7.425a.5.5 0 0 1 .632.316z"/><path d="M105.727 86.408l-19.187.09a.5.5 0 1 1 0-1l19.18-.089.091-.001 18.917-.089a.5.5 0 1 1 0 1l-18.912.089-.089.001zm24.72 5.07a.5.5 0 0 1-.224.671c-3.801 1.901-7.226 3.443-10.509 4.922l-5.472 2.499a.5.5 0 1 1-.425-.905l5.517-2.519c3.268-1.471 6.655-2.996 10.442-4.89a.5.5 0 0 1 .671.224zm-1.029 10.865a.5.5 0 0 1-.223.671l-.004.002-14.949 7.32a.5.5 0 1 1-.425-.906c5.024-2.357 8.983-4.337 14.931-7.31a.5.5 0 0 1 .67.223zM77.08 93.166a.5.5 0 0 1 .339.621l-2.478 8.425a.5.5 0 1 1-.959-.283l2.478-8.424a.5.5 0 0 1 .621-.339zm3.453 1.978a.5.5 0 0 1 .359.609c-.395 1.534-.962 3.116-1.516 4.664l-.004.012-1.472 4.516a.5.5 0 1 1-.968-.25c.384-1.491.94-3.044 1.49-4.578l.013-.037 1.489-4.576a.5.5 0 0 1 .609-.359zm3.496 2.485a.5.5 0 0 1 .325.628l-3.039 9.566a.5.5 0 1 1-.953-.303l3.039-9.565a.5.5 0 0 1 .628-.325zm13.124.488a.5.5 0 0 1 .359.609l-1.311 5.209-.007.03-1.29 5.131a.5.5 0 1 1-.968-.25l1.289-5.124.007-.028 1.313-5.218a.5.5 0 0 1 .609-.359zm-4.232 0a.5.5 0 0 1 .359.609l-1.417 5.202-.009.031-1.386 5.084a.5.5 0 0 1-.609.36.5.5 0 0 1-.359-.609l1.39-5.1.01-.035 1.412-5.183a.5.5 0 0 1 .609-.359zm-4.68.498a.5.5 0 0 1 .347.616l-2.744 9.822a.5.5 0 1 1-.963-.269l2.744-9.822a.5.5 0 0 1 .616-.347zm21.113.002a.5.5 0 0 1 .36.609l-2.558 9.925a.5.5 0 0 1-.609.359.5.5 0 0 1-.359-.609l2.557-9.925a.5.5 0 0 1 .609-.359zm-4.46 0a.5.5 0 0 1 .36.609l-2.558 9.924a.5.5 0 0 1-.609.36.5.5 0 0 1-.359-.609l2.557-9.925a.5.5 0 0 1 .609-.359zm-3.964-.018a.5.5 0 0 1 .359.609l-2.558 9.925a.5.5 0 1 1-.968-.25l2.558-9.924a.5.5 0 0 1 .609-.359z"/><path d="M122.765 94.648a.5.5 0 0 1 .359.609l-2.937 11.398a.5.5 0 0 1-.609.359.5.5 0 0 1-.359-.609l2.937-11.398a.5.5 0 0 1 .609-.359zm-4.554 2.483a.5.5 0 0 1 .338.621l-3.518 11.893a.5.5 0 0 1-.621.338.5.5 0 0 1-.338-.621l3.518-11.894a.5.5 0 0 1 .621-.338zm-4.689 1.482a.5.5 0 0 1 .359.609l-2.682 10.406a.5.5 0 0 1-.609.36.5.5 0 0 1-.359-.609l2.682-10.407a.5.5 0 0 1 .609-.359zm13.207-5.947a.5.5 0 0 1 .359.609l-3.083 11.893a.5.5 0 0 1-.968-.251l3.083-11.893a.5.5 0 0 1 .609-.359z"/></g><path d="M100.667 54.286V37.619l29.333 4v16.667l-29.333-4z" fill="#ffc100"/><g class="B C"><path d="M100.149 35.084a.5.5 0 0 1 .5.5v54.702a.5.5 0 1 1-1 0V35.584a.5.5 0 0 1 .5-.5zM98 34.5a.5.5 0 0 1 .5.5v56.286a.5.5 0 1 1-1 0V35a.5.5 0 0 1 .5-.5z"/><path d="M97.507 35.504a.5.5 0 0 1 .573-.414c2.616.423 9.023 1.151 15.819 1.922l.284.032 17.758 2.132a.5.5 0 1 1-.142.99c-4.025-.575-11.034-1.37-17.745-2.131l-.267-.03-15.867-1.928a.5.5 0 0 1-.414-.573zm2.333 16.37a.5.5 0 0 1 .557-.436l22.445 3.016 7.466 1.04a.5.5 0 0 1-.136.991l-7.476-1.041-22.421-3.013a.5.5 0 0 1-.435-.557z"/><path d="M129.533 38.004a.5.5 0 0 1 .5.5v17.743a.5.5 0 1 1-1 0V38.504a.5.5 0 0 1 .5-.5z"/></g><use xlink:href="#B" class="D"/><g class="B C"><use xlink:href="#C"/><use xlink:href="#D"/><use xlink:href="#E"/><use xlink:href="#F"/><use xlink:href="#G"/><use xlink:href="#H"/><use xlink:href="#I"/><use xlink:href="#J"/></g><use xlink:href="#B" x="26" y="11" class="D"/><g class="B C"><use xlink:href="#C" x="26" y="11"/><use xlink:href="#D" x="26" y="11"/><use xlink:href="#E" x="26" y="11"/><use xlink:href="#F" x="26" y="11"/><use xlink:href="#G" x="26" y="11"/><use xlink:href="#H" x="26" y="11"/><use xlink:href="#I" x="26" y="11"/><use xlink:href="#J" x="26" y="11"/></g><path d="M223.874 83.876c-1.058 4.083-4.593 9.298-8.01 9.526-7.356.49-7.577-4.75-7.577-9.093.454-4.083 4.153-9.093 7.577-9.093 4.763 0 8.918 2.157 8.01 8.66z" class="D"/><g class="B C"><path d="M218.627 79.754c.716.086 1.401.592 1.985 1.48a.5.5 0 0 1-.836.55c-.496-.755-.957-.999-1.269-1.037-.296-.036-.586.099-.811.415-.458.642-.536 1.952.598 3.038 1.406 1.346 1.791 3.301.983 4.495-.424.627-1.139.967-2.029.879-.863-.085-1.874-.566-3.003-1.507a.5.5 0 1 1 .641-.768c1.049.875 1.875 1.222 2.46 1.28.557.055.902-.147 1.103-.444.443-.654.34-2.076-.846-3.212-1.458-1.397-1.494-3.256-.722-4.34.391-.548 1.013-.916 1.746-.827z"/><path d="M219.602 78.848a.5.5 0 0 1 .348.616c-.912 3.285-2.188 7.112-3.476 10.615a.5.5 0 0 1-.641.297.5.5 0 0 1-.297-.642c1.281-3.486 2.548-7.286 3.451-10.537a.5.5 0 0 1 .615-.348zm-7.382-2.449a.5.5 0 0 1 .615-.348l3.343.929a.5.5 0 0 1-.265.964l-3.343-.929c-.266-.074-.423-.35-.35-.616zm1.669-.916a.5.5 0 0 1 .604-.365l1.53.411.014.004 1.429.385a.5.5 0 0 1 .366.606.5.5 0 0 1-.604.365l-1.465-.394-.014-.004-1.494-.401a.5.5 0 0 1-.366-.606zm-4.783 4.792a.5.5 0 0 1 .616-.344l3.031.866a.5.5 0 0 1 .345.618.5.5 0 0 1-.617.344l-3.03-.866a.5.5 0 0 1-.345-.619zm.875-1.546a.5.5 0 0 1 .638-.303l3.031 1.083a.5.5 0 0 1 .304.639.5.5 0 0 1-.637.303l-3.031-1.082a.5.5 0 0 1-.305-.639zm1.079-1.289a.5.5 0 0 1 .632-.316l3.247 1.082c.262.087.404.371.318.633a.5.5 0 0 1-.631.316l-3.248-1.082a.5.5 0 0 1-.318-.633zm-3.254 6.082a.5.5 0 0 1 .617-.344l3.031.866a.5.5 0 0 1 .345.618.5.5 0 0 1-.617.344l-3.031-.866a.5.5 0 0 1-.345-.618zm.65-1.732a.5.5 0 0 1 .616-.344l3.031.866a.5.5 0 0 1 .345.618.5.5 0 0 1-.617.344l-3.031-.866a.5.5 0 0 1-.344-.618zm-.866 4.113a.5.5 0 0 1 .616-.344l3.031.866a.5.5 0 1 1-.272.962l-3.03-.866a.5.5 0 0 1-.345-.619zm.21 2.191a.5.5 0 0 1 .598-.375l2.814.65a.5.5 0 1 1-.222.975l-2.814-.65a.5.5 0 0 1-.376-.6zm.868 1.94a.5.5 0 0 1 .605-.364l2.597.649c.268.067.432.339.366.607a.5.5 0 0 1-.605.364l-2.598-.649a.5.5 0 0 1-.365-.607z"/><path d="M214.632 79.475c-1.487 1.77-2.575 4.038-2.818 5.979-.428 3.429.03 5.819 1.374 7.162.02.021.039.043.056.067.141.202.381.359.729.457s.772.127 1.216.095a5.43 5.43 0 0 0 1.264-.246c.388-.127.671-.276.823-.402.036-.03.076-.055.119-.074 1.39-.611 2.662-1.896 3.673-3.537a15.59 15.59 0 0 0 2.045-5.449c.316-1.877.211-3.619-.367-4.878-.561-1.22-1.573-2.016-3.216-2.065-1.601-.048-3.396 1.105-4.898 2.893zm-.766-.643c1.567-1.866 3.628-3.311 5.694-3.249 2.039.061 3.382 1.097 4.094 2.647.694 1.511.779 3.478.445 5.461-.336 1.993-1.103 4.061-2.179 5.807-1.06 1.719-2.446 3.169-4.061 3.901-.286.221-.679.403-1.096.539a6.43 6.43 0 0 1-1.502.293c-.522.038-1.067.009-1.559-.13-.478-.135-.938-.384-1.251-.809-1.663-1.691-2.064-4.485-1.629-7.963.272-2.173 1.463-4.615 3.044-6.498z"/><path d="M211.454 78.375c-1.438 1.633-2.467 3.733-2.67 5.557a.5.5 0 0 1-.015.076c-.3 1.1-.305 2.481-.046 3.775.261 1.302.772 2.439 1.433 3.1a.51.51 0 0 1 .056.067c.386.551 1.058 1.046 1.91 1.461.844.412 1.822.725 2.768.936a.5.5 0 0 1-.217.976c-1.002-.223-2.059-.559-2.99-1.013-.909-.443-1.739-1.019-2.265-1.75-.837-.856-1.398-2.193-1.675-3.58-.28-1.398-.288-2.924.051-4.197.24-2.062 1.378-4.33 2.91-6.069s3.557-3.058 5.608-2.997c1.279.038 2.368.403 4.03.96l.443.148a.5.5 0 0 1-.316.949l-.391-.13c-1.724-.576-2.671-.893-3.796-.927-1.616-.048-3.379 1.014-4.828 2.658zM192 68.5a.5.5 0 0 1 .5.5v28.48a.5.5 0 1 1-1 0V69a.5.5 0 0 1 .5-.5zm0 67.184a.5.5 0 0 1 .5.5V153.5a.5.5 0 1 1-1 0v-17.316a.5.5 0 0 1 .5-.5zM215.005 51.5a.5.5 0 0 1 .495.505l-.188 20.928a.5.5 0 1 1-1-.009l.188-20.928a.5.5 0 0 1 .505-.495zm-.401 44.472a.5.5 0 0 1 .496.504l-.165 18.312a.5.5 0 1 1-1-.009l.165-18.312a.5.5 0 0 1 .504-.495zm-.405 44.472a.5.5 0 0 1 .5.5V160.5a.5.5 0 1 1-1 0v-19.556a.5.5 0 0 1 .5-.5z"/></g><defs ><path id="B" d="M199.874 115.876c-1.058 4.083-4.593 9.298-8.01 9.526-7.356.49-7.577-4.75-7.577-9.093.454-4.083 4.153-9.092 7.577-9.092 4.763 0 8.918 2.157 8.01 8.659z"/><path id="C" d="M194.627 111.754c.716.086 1.401.592 1.985 1.48a.5.5 0 1 1-.836.55c-.496-.756-.957-1-1.269-1.038-.296-.035-.586.1-.811.415-.458.643-.536 1.952.598 3.038 1.406 1.346 1.791 3.301.983 4.495-.424.627-1.139.967-2.029.879-.863-.085-1.874-.566-3.003-1.507a.5.5 0 0 1 .641-.768c1.049.875 1.875 1.222 2.46 1.28.557.055.902-.147 1.103-.444.443-.655.34-2.076-.846-3.213-1.458-1.396-1.494-3.256-.722-4.34.391-.548 1.013-.916 1.746-.827z"/><path id="D" d="M195.602 110.848a.5.5 0 0 1 .348.616c-.912 3.285-2.188 7.112-3.476 10.615a.5.5 0 0 1-.641.296.5.5 0 0 1-.297-.641c1.281-3.486 2.548-7.286 3.451-10.538a.5.5 0 0 1 .615-.348z"/><path id="E" d="M188.22 108.399a.5.5 0 0 1 .615-.348l3.343.929a.5.5 0 0 1 .349.616.5.5 0 0 1-.614.348l-3.343-.929c-.266-.074-.423-.35-.35-.616zm1.669-.915c.066-.269.336-.432.604-.365l1.53.41.014.004 1.429.385a.5.5 0 0 1 .366.606.5.5 0 0 1-.604.365l-1.465-.394-.014-.004-1.494-.401a.5.5 0 0 1-.366-.606z"/><path id="F" d="M185.106 112.275a.5.5 0 0 1 .616-.344l3.031.866a.5.5 0 1 1-.272.963l-3.03-.866a.5.5 0 0 1-.345-.619zm.875-1.546a.5.5 0 0 1 .638-.303l3.031 1.082a.5.5 0 1 1-.333.943l-3.031-1.083a.5.5 0 0 1-.305-.639zm1.079-1.289a.5.5 0 0 1 .632-.317l3.247 1.083c.262.087.404.371.318.633a.5.5 0 0 1-.631.316l-3.248-1.082c-.262-.088-.404-.371-.318-.633z"/><path id="G" d="M183.806 115.522a.5.5 0 0 1 .617-.343l3.031.866a.5.5 0 0 1 .345.618.5.5 0 0 1-.617.344l-3.031-.866a.5.5 0 0 1-.345-.619zm.65-1.731a.5.5 0 0 1 .616-.344l3.031.866a.5.5 0 0 1 .345.618.5.5 0 0 1-.617.344l-3.031-.866a.5.5 0 0 1-.344-.618zm-.866 4.113a.5.5 0 0 1 .616-.344l3.031.866a.5.5 0 0 1 .345.619.5.5 0 0 1-.617.343l-3.03-.866a.5.5 0 0 1-.345-.618z"/><path id="H" d="M183.8 120.093a.5.5 0 0 1 .598-.375l2.814.65a.5.5 0 0 1-.222.975l-2.814-.65a.5.5 0 0 1-.376-.6zm.868 1.94a.5.5 0 0 1 .605-.364l2.597.649c.268.067.432.339.366.607a.5.5 0 0 1-.605.364l-2.598-.649a.5.5 0 0 1-.365-.607z"/><path id="I" d="M190.632 111.475c-1.487 1.771-2.575 4.038-2.818 5.979-.428 3.429.03 5.818 1.374 7.161a.6.6 0 0 1 .056.067c.141.202.381.359.729.458s.772.126 1.216.094a5.47 5.47 0 0 0 1.264-.246c.388-.127.671-.276.823-.403.036-.03.076-.055.119-.074 1.39-.611 2.662-1.896 3.673-3.537a15.59 15.59 0 0 0 2.045-5.449c.316-1.877.211-3.618-.367-4.877-.561-1.22-1.573-2.016-3.216-2.065-1.601-.048-3.396 1.104-4.898 2.892zm-.766-.643c1.567-1.865 3.628-3.311 5.694-3.249 2.039.061 3.382 1.097 4.094 2.647.694 1.511.779 3.478.445 5.461-.336 1.993-1.103 4.061-2.179 5.808-1.06 1.719-2.446 3.169-4.061 3.9-.286.221-.679.403-1.096.539a6.45 6.45 0 0 1-1.502.294c-.522.037-1.067.009-1.559-.13-.478-.135-.938-.384-1.251-.809-1.663-1.691-2.064-4.485-1.629-7.963.272-2.173 1.463-4.615 3.044-6.498z"/><path id="J" d="M187.454 110.375c-1.438 1.633-2.467 3.732-2.67 5.557a.51.51 0 0 1-.015.076c-.3 1.1-.305 2.481-.046 3.775.261 1.303.772 2.44 1.433 3.1a.51.51 0 0 1 .056.067c.386.551 1.058 1.046 1.91 1.461.844.412 1.822.726 2.768.936a.5.5 0 0 1 .38.596.5.5 0 0 1-.597.38c-1.002-.223-2.059-.559-2.99-1.013-.909-.443-1.739-1.019-2.265-1.75-.837-.857-1.398-2.194-1.675-3.581-.28-1.398-.288-2.923.051-4.197.24-2.062 1.378-4.329 2.91-6.068s3.557-3.058 5.608-2.997c1.279.038 2.368.403 4.03.96l.443.148a.5.5 0 0 1 .316.632.5.5 0 0 1-.632.316l-.391-.13c-1.724-.577-2.671-.893-3.796-.927-1.616-.048-3.379 1.014-4.828 2.659z"/></defs></svg>