<svg width="1293" height="442" viewBox="0 0 1293 442" fill="none" xmlns="http://www.w3.org/2000/svg">
<rect y="246.5" width="208" height="35" rx="17.5" fill="#F3F3FA"/>
<path d="M27.8004 263.682C27.8004 264.924 27.5732 265.992 27.1186 266.886C26.6641 267.777 26.041 268.462 25.2493 268.943C24.4614 269.42 23.5656 269.659 22.5618 269.659C21.5542 269.659 20.6546 269.42 19.8629 268.943C19.075 268.462 18.4538 267.775 17.9993 266.881C17.5447 265.987 17.3175 264.92 17.3175 263.682C17.3175 262.439 17.5447 261.373 17.9993 260.483C18.4538 259.589 19.075 258.903 19.8629 258.426C20.6546 257.945 21.5542 257.705 22.5618 257.705C23.5656 257.705 24.4614 257.945 25.2493 258.426C26.041 258.903 26.6641 259.589 27.1186 260.483C27.5732 261.373 27.8004 262.439 27.8004 263.682ZM26.0618 263.682C26.0618 262.735 25.9084 261.937 25.6016 261.29C25.2985 260.638 24.8819 260.146 24.3516 259.812C23.825 259.475 23.2285 259.307 22.5618 259.307C21.8913 259.307 21.2929 259.475 20.7663 259.812C20.2398 260.146 19.8232 260.638 19.5163 261.29C19.2133 261.937 19.0618 262.735 19.0618 263.682C19.0618 264.629 19.2133 265.428 19.5163 266.08C19.8232 266.727 20.2398 267.22 20.7663 267.557C21.2929 267.89 21.8913 268.057 22.5618 268.057C23.2285 268.057 23.825 267.89 24.3516 267.557C24.8819 267.22 25.2985 266.727 25.6016 266.08C25.9084 265.428 26.0618 264.629 26.0618 263.682ZM29.853 272.773V260.773H31.5121V262.188H31.6541C31.7526 262.006 31.8946 261.795 32.0803 261.557C32.2659 261.318 32.5234 261.11 32.853 260.932C33.1825 260.75 33.6181 260.659 34.1598 260.659C34.8643 260.659 35.4931 260.837 36.0462 261.193C36.5992 261.549 37.0329 262.062 37.3473 262.733C37.6655 263.403 37.8246 264.21 37.8246 265.153C37.8246 266.097 37.6674 266.905 37.353 267.58C37.0386 268.25 36.6068 268.767 36.0575 269.131C35.5083 269.491 34.8814 269.67 34.1768 269.67C33.6465 269.67 33.2128 269.581 32.8757 269.403C32.5424 269.225 32.281 269.017 32.0916 268.778C31.9022 268.54 31.7564 268.328 31.6541 268.142H31.5518V272.773H29.853ZM31.5178 265.136C31.5178 265.75 31.6068 266.288 31.7848 266.75C31.9628 267.212 32.2204 267.574 32.5575 267.835C32.8946 268.093 33.3075 268.222 33.7962 268.222C34.3037 268.222 34.728 268.087 35.0689 267.818C35.4098 267.545 35.6674 267.176 35.8416 266.71C36.0196 266.244 36.1087 265.72 36.1087 265.136C36.1087 264.561 36.0215 264.044 35.8473 263.585C35.6768 263.127 35.4193 262.765 35.0746 262.5C34.7337 262.235 34.3075 262.102 33.7962 262.102C33.3037 262.102 32.8871 262.229 32.5462 262.483C32.209 262.737 31.9534 263.091 31.7791 263.545C31.6049 264 31.5178 264.53 31.5178 265.136ZM43.4893 269.676C42.6295 269.676 41.889 269.492 41.2678 269.125C40.6503 268.754 40.1731 268.233 39.8359 267.562C39.5026 266.888 39.3359 266.098 39.3359 265.193C39.3359 264.299 39.5026 263.511 39.8359 262.83C40.1731 262.148 40.6428 261.616 41.245 261.233C41.8511 260.85 42.5594 260.659 43.37 260.659C43.8625 260.659 44.3397 260.741 44.8018 260.903C45.264 261.066 45.6787 261.322 46.0462 261.67C46.4136 262.019 46.7034 262.472 46.9155 263.028C47.1276 263.581 47.2337 264.254 47.2337 265.045V265.648H40.2962V264.375H45.5689C45.5689 263.928 45.478 263.532 45.2962 263.188C45.1143 262.839 44.8587 262.564 44.5291 262.364C44.2034 262.163 43.8208 262.062 43.3814 262.062C42.9041 262.062 42.4875 262.18 42.1314 262.415C41.7791 262.646 41.5064 262.949 41.3132 263.324C41.1238 263.695 41.0291 264.098 41.0291 264.534V265.528C41.0291 266.112 41.1314 266.608 41.3359 267.017C41.5443 267.426 41.834 267.739 42.2053 267.955C42.5765 268.167 43.0102 268.273 43.5064 268.273C43.8284 268.273 44.1219 268.227 44.3871 268.136C44.6522 268.042 44.8814 267.902 45.0746 267.716C45.2678 267.53 45.4155 267.301 45.5178 267.028L47.1257 267.318C46.9969 267.792 46.7659 268.206 46.4325 268.562C46.103 268.915 45.6882 269.189 45.1882 269.386C44.692 269.58 44.1257 269.676 43.4893 269.676ZM49.1186 269.5V260.773H50.7607V262.159H50.8516C51.0107 261.689 51.291 261.32 51.6925 261.051C52.0978 260.778 52.5561 260.642 53.0675 260.642C53.1735 260.642 53.2985 260.646 53.4425 260.653C53.5902 260.661 53.7057 260.67 53.7891 260.682V262.307C53.7209 262.288 53.5997 262.267 53.4254 262.244C53.2512 262.218 53.0769 262.205 52.9027 262.205C52.5012 262.205 52.1432 262.29 51.8288 262.46C51.5182 262.627 51.272 262.86 51.0902 263.159C50.9084 263.455 50.8175 263.792 50.8175 264.17V269.5H49.1186ZM57.7209 269.693C57.1679 269.693 56.6679 269.591 56.2209 269.386C55.7739 269.178 55.4197 268.877 55.1584 268.483C54.9008 268.089 54.772 267.606 54.772 267.034C54.772 266.542 54.8667 266.136 55.0561 265.818C55.2455 265.5 55.5012 265.248 55.8232 265.062C56.1451 264.877 56.505 264.737 56.9027 264.642C57.3004 264.547 57.7057 264.475 58.1186 264.426C58.6413 264.366 59.0656 264.316 59.3913 264.278C59.7171 264.237 59.9538 264.17 60.1016 264.08C60.2493 263.989 60.3232 263.841 60.3232 263.636V263.597C60.3232 263.1 60.183 262.716 59.9027 262.443C59.6262 262.17 59.2133 262.034 58.6641 262.034C58.0921 262.034 57.6413 262.161 57.3118 262.415C56.986 262.665 56.7607 262.943 56.6357 263.25L55.0391 262.886C55.2285 262.356 55.505 261.928 55.8686 261.602C56.236 261.273 56.6584 261.034 57.1357 260.886C57.6129 260.735 58.1148 260.659 58.6413 260.659C58.9898 260.659 59.3591 260.701 59.7493 260.784C60.1432 260.864 60.5107 261.011 60.8516 261.227C61.1963 261.443 61.4785 261.752 61.6982 262.153C61.9179 262.551 62.0277 263.068 62.0277 263.705V269.5H60.3686V268.307H60.3004C60.1906 268.527 60.0258 268.742 59.8061 268.955C59.5864 269.167 59.3042 269.343 58.9595 269.483C58.6148 269.623 58.2019 269.693 57.7209 269.693ZM58.0902 268.33C58.5599 268.33 58.9614 268.237 59.2947 268.051C59.6319 267.866 59.8875 267.623 60.0618 267.324C60.2398 267.021 60.3288 266.697 60.3288 266.352V265.227C60.2682 265.288 60.1508 265.345 59.9766 265.398C59.8061 265.447 59.611 265.491 59.3913 265.528C59.1716 265.562 58.9576 265.595 58.7493 265.625C58.541 265.652 58.3667 265.674 58.2266 265.693C57.897 265.735 57.5959 265.805 57.3232 265.903C57.0542 266.002 56.8383 266.144 56.6754 266.33C56.5163 266.511 56.4368 266.754 56.4368 267.057C56.4368 267.477 56.5921 267.795 56.9027 268.011C57.2133 268.223 57.6091 268.33 58.0902 268.33ZM68.3643 260.773V262.136H63.5973V260.773H68.3643ZM64.8757 258.682H66.5746V266.938C66.5746 267.267 66.6238 267.515 66.7223 267.682C66.8208 267.845 66.9477 267.956 67.103 268.017C67.2621 268.074 67.4344 268.102 67.62 268.102C67.7564 268.102 67.8757 268.093 67.978 268.074C68.0803 268.055 68.1598 268.04 68.2166 268.028L68.5234 269.432C68.425 269.47 68.2848 269.508 68.103 269.545C67.9212 269.587 67.6939 269.61 67.4212 269.614C66.9742 269.621 66.5575 269.542 66.1712 269.375C65.7848 269.208 65.4723 268.951 65.2337 268.602C64.995 268.254 64.8757 267.816 64.8757 267.29V258.682ZM70.2436 269.5V260.773H71.9425V269.5H70.2436ZM71.1016 259.426C70.8061 259.426 70.5523 259.328 70.3402 259.131C70.1319 258.93 70.0277 258.691 70.0277 258.415C70.0277 258.134 70.1319 257.896 70.3402 257.699C70.5523 257.498 70.8061 257.398 71.1016 257.398C71.397 257.398 71.6489 257.498 71.8572 257.699C72.0694 257.896 72.1754 258.134 72.1754 258.415C72.1754 258.691 72.0694 258.93 71.8572 259.131C71.6489 259.328 71.397 259.426 71.1016 259.426ZM77.9041 269.676C77.0859 269.676 76.3719 269.489 75.7621 269.114C75.1522 268.739 74.6787 268.214 74.3416 267.54C74.0045 266.866 73.8359 266.078 73.8359 265.176C73.8359 264.271 74.0045 263.479 74.3416 262.801C74.6787 262.123 75.1522 261.597 75.7621 261.222C76.3719 260.847 77.0859 260.659 77.9041 260.659C78.7223 260.659 79.4363 260.847 80.0462 261.222C80.656 261.597 81.1295 262.123 81.4666 262.801C81.8037 263.479 81.9723 264.271 81.9723 265.176C81.9723 266.078 81.8037 266.866 81.4666 267.54C81.1295 268.214 80.656 268.739 80.0462 269.114C79.4363 269.489 78.7223 269.676 77.9041 269.676ZM77.9098 268.25C78.4401 268.25 78.8795 268.11 79.228 267.83C79.5765 267.549 79.834 267.176 80.0007 266.71C80.1712 266.244 80.2564 265.731 80.2564 265.17C80.2564 264.614 80.1712 264.102 80.0007 263.636C79.834 263.167 79.5765 262.79 79.228 262.506C78.8795 262.222 78.4401 262.08 77.9098 262.08C77.3757 262.08 76.9325 262.222 76.5803 262.506C76.2318 262.79 75.9723 263.167 75.8018 263.636C75.6352 264.102 75.5518 264.614 75.5518 265.17C75.5518 265.731 75.6352 266.244 75.8018 266.71C75.9723 267.176 76.2318 267.549 76.5803 267.83C76.9325 268.11 77.3757 268.25 77.9098 268.25ZM85.5675 264.318V269.5H83.8686V260.773H85.4993V262.193H85.6072C85.808 261.731 86.1224 261.36 86.5504 261.08C86.9822 260.799 87.5258 260.659 88.1811 260.659C88.7758 260.659 89.2966 260.784 89.7436 261.034C90.1906 261.28 90.5372 261.648 90.7834 262.136C91.0296 262.625 91.1527 263.229 91.1527 263.949V269.5H89.4538V264.153C89.4538 263.521 89.2891 263.027 88.9595 262.67C88.63 262.311 88.1773 262.131 87.6016 262.131C87.2076 262.131 86.8572 262.216 86.5504 262.386C86.2474 262.557 86.0069 262.807 85.8288 263.136C85.6546 263.462 85.5675 263.856 85.5675 264.318ZM95.9709 269.693C95.4179 269.693 94.9179 269.591 94.4709 269.386C94.0239 269.178 93.6697 268.877 93.4084 268.483C93.1508 268.089 93.022 267.606 93.022 267.034C93.022 266.542 93.1167 266.136 93.3061 265.818C93.4955 265.5 93.7512 265.248 94.0732 265.062C94.3951 264.877 94.755 264.737 95.1527 264.642C95.5504 264.547 95.9557 264.475 96.3686 264.426C96.8913 264.366 97.3156 264.316 97.6413 264.278C97.9671 264.237 98.2038 264.17 98.3516 264.08C98.4993 263.989 98.5732 263.841 98.5732 263.636V263.597C98.5732 263.1 98.433 262.716 98.1527 262.443C97.8762 262.17 97.4633 262.034 96.9141 262.034C96.3421 262.034 95.8913 262.161 95.5618 262.415C95.236 262.665 95.0107 262.943 94.8857 263.25L93.2891 262.886C93.4785 262.356 93.755 261.928 94.1186 261.602C94.486 261.273 94.9084 261.034 95.3857 260.886C95.8629 260.735 96.3648 260.659 96.8913 260.659C97.2398 260.659 97.6091 260.701 97.9993 260.784C98.3932 260.864 98.7607 261.011 99.1016 261.227C99.4463 261.443 99.7285 261.752 99.9482 262.153C100.168 262.551 100.278 263.068 100.278 263.705V269.5H98.6186V268.307H98.5504C98.4406 268.527 98.2758 268.742 98.0561 268.955C97.8364 269.167 97.5542 269.343 97.2095 269.483C96.8648 269.623 96.4519 269.693 95.9709 269.693ZM96.3402 268.33C96.8099 268.33 97.2114 268.237 97.5447 268.051C97.8819 267.866 98.1375 267.623 98.3118 267.324C98.4898 267.021 98.5788 266.697 98.5788 266.352V265.227C98.5182 265.288 98.4008 265.345 98.2266 265.398C98.0561 265.447 97.861 265.491 97.6413 265.528C97.4216 265.562 97.2076 265.595 96.9993 265.625C96.791 265.652 96.6167 265.674 96.4766 265.693C96.147 265.735 95.8459 265.805 95.5732 265.903C95.3042 266.002 95.0883 266.144 94.9254 266.33C94.7663 266.511 94.6868 266.754 94.6868 267.057C94.6868 267.477 94.8421 267.795 95.1527 268.011C95.4633 268.223 95.8591 268.33 96.3402 268.33ZM104.239 257.864V269.5H102.54V257.864H104.239ZM110.896 269.5V257.864H118.191V259.375H112.651V262.92H117.81V264.426H112.651V267.989H118.259V269.5H110.896ZM121.741 260.773L123.667 264.17L125.61 260.773H127.468L124.746 265.136L127.491 269.5H125.633L123.667 266.239L121.707 269.5H119.843L122.559 265.136L119.877 260.773H121.741ZM132.545 269.676C131.7 269.676 130.973 269.485 130.363 269.102C129.757 268.716 129.291 268.184 128.965 267.506C128.639 266.828 128.477 266.051 128.477 265.176C128.477 264.29 128.643 263.508 128.977 262.83C129.31 262.148 129.78 261.616 130.386 261.233C130.992 260.85 131.706 260.659 132.528 260.659C133.191 260.659 133.781 260.782 134.3 261.028C134.819 261.271 135.238 261.612 135.556 262.051C135.878 262.491 136.069 263.004 136.13 263.591H134.477C134.386 263.182 134.177 262.83 133.852 262.534C133.53 262.239 133.098 262.091 132.556 262.091C132.083 262.091 131.668 262.216 131.312 262.466C130.96 262.712 130.685 263.064 130.488 263.523C130.291 263.977 130.192 264.515 130.192 265.136C130.192 265.773 130.289 266.322 130.482 266.784C130.675 267.246 130.948 267.604 131.3 267.858C131.656 268.112 132.075 268.239 132.556 268.239C132.878 268.239 133.17 268.18 133.431 268.062C133.696 267.941 133.918 267.769 134.096 267.545C134.278 267.322 134.405 267.053 134.477 266.739H136.13C136.069 267.303 135.886 267.807 135.579 268.25C135.272 268.693 134.861 269.042 134.346 269.295C133.835 269.549 133.234 269.676 132.545 269.676ZM141.708 269.676C140.848 269.676 140.108 269.492 139.487 269.125C138.869 268.754 138.392 268.233 138.055 267.562C137.721 266.888 137.555 266.098 137.555 265.193C137.555 264.299 137.721 263.511 138.055 262.83C138.392 262.148 138.862 261.616 139.464 261.233C140.07 260.85 140.778 260.659 141.589 260.659C142.081 260.659 142.558 260.741 143.021 260.903C143.483 261.066 143.897 261.322 144.265 261.67C144.632 262.019 144.922 262.472 145.134 263.028C145.346 263.581 145.452 264.254 145.452 265.045V265.648H138.515V264.375H143.788C143.788 263.928 143.697 263.532 143.515 263.188C143.333 262.839 143.077 262.564 142.748 262.364C142.422 262.163 142.04 262.062 141.6 262.062C141.123 262.062 140.706 262.18 140.35 262.415C139.998 262.646 139.725 262.949 139.532 263.324C139.343 263.695 139.248 264.098 139.248 264.534V265.528C139.248 266.112 139.35 266.608 139.555 267.017C139.763 267.426 140.053 267.739 140.424 267.955C140.795 268.167 141.229 268.273 141.725 268.273C142.047 268.273 142.341 268.227 142.606 268.136C142.871 268.042 143.1 267.902 143.293 267.716C143.487 267.53 143.634 267.301 143.737 267.028L145.344 267.318C145.216 267.792 144.985 268.206 144.651 268.562C144.322 268.915 143.907 269.189 143.407 269.386C142.911 269.58 142.344 269.676 141.708 269.676ZM149.036 257.864V269.5H147.337V257.864H149.036ZM153.021 257.864V269.5H151.322V257.864H153.021ZM159.067 269.676C158.208 269.676 157.467 269.492 156.846 269.125C156.228 268.754 155.751 268.233 155.414 267.562C155.081 266.888 154.914 266.098 154.914 265.193C154.914 264.299 155.081 263.511 155.414 262.83C155.751 262.148 156.221 261.616 156.823 261.233C157.429 260.85 158.138 260.659 158.948 260.659C159.441 260.659 159.918 260.741 160.38 260.903C160.842 261.066 161.257 261.322 161.624 261.67C161.992 262.019 162.281 262.472 162.494 263.028C162.706 263.581 162.812 264.254 162.812 265.045V265.648H155.874V264.375H161.147C161.147 263.928 161.056 263.532 160.874 263.188C160.692 262.839 160.437 262.564 160.107 262.364C159.781 262.163 159.399 262.062 158.96 262.062C158.482 262.062 158.066 262.18 157.71 262.415C157.357 262.646 157.085 262.949 156.891 263.324C156.702 263.695 156.607 264.098 156.607 264.534V265.528C156.607 266.112 156.71 266.608 156.914 267.017C157.122 267.426 157.412 267.739 157.783 267.955C158.155 268.167 158.588 268.273 159.085 268.273C159.406 268.273 159.7 268.227 159.965 268.136C160.23 268.042 160.46 267.902 160.653 267.716C160.846 267.53 160.994 267.301 161.096 267.028L162.704 267.318C162.575 267.792 162.344 268.206 162.011 268.562C161.681 268.915 161.266 269.189 160.766 269.386C160.27 269.58 159.704 269.676 159.067 269.676ZM166.396 264.318V269.5H164.697V260.773H166.327V262.193H166.435C166.636 261.731 166.951 261.36 167.379 261.08C167.81 260.799 168.354 260.659 169.009 260.659C169.604 260.659 170.125 260.784 170.572 261.034C171.019 261.28 171.365 261.648 171.612 262.136C171.858 262.625 171.981 263.229 171.981 263.949V269.5H170.282V264.153C170.282 263.521 170.117 263.027 169.788 262.67C169.458 262.311 169.005 262.131 168.43 262.131C168.036 262.131 167.685 262.216 167.379 262.386C167.076 262.557 166.835 262.807 166.657 263.136C166.483 263.462 166.396 263.856 166.396 264.318ZM177.935 269.676C177.091 269.676 176.363 269.485 175.754 269.102C175.147 268.716 174.682 268.184 174.356 267.506C174.03 266.828 173.867 266.051 173.867 265.176C173.867 264.29 174.034 263.508 174.367 262.83C174.701 262.148 175.17 261.616 175.776 261.233C176.382 260.85 177.096 260.659 177.918 260.659C178.581 260.659 179.172 260.782 179.691 261.028C180.21 261.271 180.629 261.612 180.947 262.051C181.269 262.491 181.46 263.004 181.521 263.591H179.867C179.776 263.182 179.568 262.83 179.242 262.534C178.92 262.239 178.488 262.091 177.947 262.091C177.473 262.091 177.058 262.216 176.702 262.466C176.35 262.712 176.076 263.064 175.879 263.523C175.682 263.977 175.583 264.515 175.583 265.136C175.583 265.773 175.68 266.322 175.873 266.784C176.066 267.246 176.339 267.604 176.691 267.858C177.047 268.112 177.466 268.239 177.947 268.239C178.269 268.239 178.56 268.18 178.822 268.062C179.087 267.941 179.308 267.769 179.487 267.545C179.668 267.322 179.795 267.053 179.867 266.739H181.521C181.46 267.303 181.276 267.807 180.969 268.25C180.663 268.693 180.252 269.042 179.737 269.295C179.225 269.549 178.625 269.676 177.935 269.676ZM187.099 269.676C186.239 269.676 185.498 269.492 184.877 269.125C184.26 268.754 183.782 268.233 183.445 267.562C183.112 266.888 182.945 266.098 182.945 265.193C182.945 264.299 183.112 263.511 183.445 262.83C183.782 262.148 184.252 261.616 184.854 261.233C185.46 260.85 186.169 260.659 186.979 260.659C187.472 260.659 187.949 260.741 188.411 260.903C188.873 261.066 189.288 261.322 189.656 261.67C190.023 262.019 190.313 262.472 190.525 263.028C190.737 263.581 190.843 264.254 190.843 265.045V265.648H183.906V264.375H189.178C189.178 263.928 189.087 263.532 188.906 263.188C188.724 262.839 188.468 262.564 188.138 262.364C187.813 262.163 187.43 262.062 186.991 262.062C186.513 262.062 186.097 262.18 185.741 262.415C185.388 262.646 185.116 262.949 184.923 263.324C184.733 263.695 184.638 264.098 184.638 264.534V265.528C184.638 266.112 184.741 266.608 184.945 267.017C185.154 267.426 185.443 267.739 185.815 267.955C186.186 268.167 186.62 268.273 187.116 268.273C187.438 268.273 187.731 268.227 187.996 268.136C188.262 268.042 188.491 267.902 188.684 267.716C188.877 267.53 189.025 267.301 189.127 267.028L190.735 267.318C190.606 267.792 190.375 268.206 190.042 268.562C189.712 268.915 189.298 269.189 188.798 269.386C188.301 269.58 187.735 269.676 187.099 269.676Z" fill="#4F5162"/>
<circle cx="246.358" cy="259.483" r="17.4834" stroke="#0092E4" stroke-width="1.5" stroke-linecap="round" stroke-linejoin="round"/>
<path d="M233.245 271.139L228 280.172L235.576 279.007L238.199 286L243.444 276.967" stroke="#0092E4" stroke-width="1.5" stroke-linecap="round" stroke-linejoin="round"/>
<path d="M259.47 271.139L264.715 280.172L257.139 279.007L254.517 286L249.272 276.967" stroke="#0092E4" stroke-width="1.5" stroke-linecap="round" stroke-linejoin="round"/>
<path d="M246.208 248.649C246.397 248.297 246.901 248.297 247.09 248.649L250.222 254.487C250.294 254.622 250.423 254.716 250.574 254.743L257.094 255.918C257.487 255.988 257.642 256.468 257.366 256.756L252.781 261.538C252.676 261.649 252.626 261.801 252.647 261.952L253.545 268.517C253.599 268.912 253.191 269.208 252.832 269.034L246.867 266.152C246.729 266.086 246.569 266.086 246.432 266.152L240.466 269.034C240.107 269.208 239.699 268.912 239.753 268.516L240.651 261.952C240.672 261.801 240.622 261.649 240.517 261.538L235.932 256.756C235.656 256.468 235.811 255.988 236.204 255.918L242.725 254.743C242.875 254.716 243.004 254.622 243.077 254.487L246.208 248.649Z" stroke="#0092E4" stroke-width="1.5" stroke-linecap="round" stroke-linejoin="round"/>
<rect x="318" width="208" height="35" rx="17.5" fill="#F3F3FA"/>
<path d="M397.914 14.4205C397.853 13.8826 397.603 13.4659 397.164 13.1705C396.725 12.8712 396.172 12.7216 395.505 12.7216C395.028 12.7216 394.615 12.7973 394.266 12.9489C393.918 13.0966 393.647 13.3011 393.454 13.5625C393.264 13.8201 393.17 14.1136 393.17 14.4432C393.17 14.7197 393.234 14.9583 393.363 15.1591C393.496 15.3598 393.668 15.5284 393.88 15.6648C394.096 15.7973 394.327 15.9091 394.573 16C394.819 16.0871 395.056 16.1591 395.283 16.2159L396.42 16.5114C396.791 16.6023 397.172 16.7254 397.562 16.8807C397.952 17.036 398.314 17.2405 398.647 17.4943C398.98 17.7481 399.249 18.0625 399.454 18.4375C399.662 18.8125 399.766 19.2614 399.766 19.7841C399.766 20.4432 399.596 21.0284 399.255 21.5398C398.918 22.0511 398.427 22.4545 397.783 22.75C397.143 23.0455 396.369 23.1932 395.46 23.1932C394.588 23.1932 393.835 23.0549 393.198 22.7784C392.562 22.5019 392.064 22.1098 391.704 21.6023C391.344 21.0909 391.145 20.4848 391.107 19.7841H392.869C392.903 20.2045 393.039 20.5549 393.278 20.8352C393.52 21.1117 393.829 21.3182 394.204 21.4545C394.583 21.5871 394.997 21.6534 395.448 21.6534C395.944 21.6534 396.386 21.5758 396.772 21.4205C397.162 21.2614 397.469 21.0417 397.692 20.7614C397.916 20.4773 398.028 20.1458 398.028 19.767C398.028 19.4223 397.929 19.1402 397.732 18.9205C397.539 18.7008 397.276 18.5189 396.942 18.375C396.613 18.2311 396.24 18.1042 395.823 17.9943L394.448 17.6193C393.516 17.3655 392.778 16.9924 392.232 16.5C391.691 16.0076 391.42 15.3561 391.42 14.5455C391.42 13.875 391.602 13.2898 391.965 12.7898C392.329 12.2898 392.821 11.9015 393.442 11.625C394.064 11.3447 394.764 11.2045 395.545 11.2045C396.333 11.2045 397.028 11.3428 397.63 11.6193C398.236 11.8958 398.713 12.2765 399.062 12.7614C399.41 13.2424 399.592 13.7955 399.607 14.4205H397.914ZM405.489 23.1761C404.629 23.1761 403.889 22.9924 403.268 22.625C402.65 22.2538 402.173 21.733 401.836 21.0625C401.503 20.3883 401.336 19.5985 401.336 18.6932C401.336 17.7992 401.503 17.0114 401.836 16.3295C402.173 15.6477 402.643 15.1155 403.245 14.733C403.851 14.3504 404.559 14.1591 405.37 14.1591C405.862 14.1591 406.34 14.2405 406.802 14.4034C407.264 14.5663 407.679 14.822 408.046 15.1705C408.414 15.5189 408.703 15.9716 408.915 16.5284C409.128 17.0814 409.234 17.7538 409.234 18.5455V19.1477H402.296V17.875H407.569C407.569 17.428 407.478 17.0322 407.296 16.6875C407.114 16.339 406.859 16.0644 406.529 15.8636C406.203 15.6629 405.821 15.5625 405.381 15.5625C404.904 15.5625 404.487 15.6799 404.131 15.9148C403.779 16.1458 403.506 16.4489 403.313 16.8239C403.124 17.1951 403.029 17.5985 403.029 18.0341V19.0284C403.029 19.6117 403.131 20.108 403.336 20.517C403.544 20.9261 403.834 21.2386 404.205 21.4545C404.576 21.6667 405.01 21.7727 405.506 21.7727C405.828 21.7727 406.122 21.7273 406.387 21.6364C406.652 21.5417 406.881 21.4015 407.075 21.2159C407.268 21.0303 407.415 20.8011 407.518 20.5284L409.126 20.8182C408.997 21.2917 408.766 21.7064 408.433 22.0625C408.103 22.4148 407.688 22.6894 407.188 22.8864C406.692 23.0795 406.126 23.1761 405.489 23.1761ZM414.795 23.1761C413.95 23.1761 413.223 22.9848 412.613 22.6023C412.007 22.2159 411.541 21.6837 411.215 21.0057C410.889 20.3277 410.727 19.5511 410.727 18.6761C410.727 17.7898 410.893 17.0076 411.227 16.3295C411.56 15.6477 412.03 15.1155 412.636 14.733C413.242 14.3504 413.956 14.1591 414.778 14.1591C415.441 14.1591 416.031 14.2822 416.55 14.5284C417.069 14.7708 417.488 15.1117 417.806 15.5511C418.128 15.9905 418.319 16.5038 418.38 17.0909H416.727C416.636 16.6818 416.427 16.3295 416.102 16.0341C415.78 15.7386 415.348 15.5909 414.806 15.5909C414.333 15.5909 413.918 15.7159 413.562 15.9659C413.21 16.2121 412.935 16.5644 412.738 17.0227C412.541 17.4773 412.442 18.0152 412.442 18.6364C412.442 19.2727 412.539 19.822 412.732 20.2841C412.925 20.7462 413.198 21.1042 413.55 21.358C413.906 21.6117 414.325 21.7386 414.806 21.7386C415.128 21.7386 415.42 21.6799 415.681 21.5625C415.946 21.4413 416.168 21.2689 416.346 21.0455C416.528 20.822 416.655 20.553 416.727 20.2386H418.38C418.319 20.803 418.136 21.3068 417.829 21.75C417.522 22.1932 417.111 22.5417 416.596 22.7955C416.085 23.0492 415.484 23.1761 414.795 23.1761ZM425.725 19.3807V14.2727H427.43V23H425.759V21.4886H425.668C425.468 21.9545 425.146 22.3428 424.702 22.6534C424.263 22.9602 423.716 23.1136 423.06 23.1136C422.5 23.1136 422.004 22.9905 421.572 22.7443C421.144 22.4943 420.807 22.125 420.56 21.6364C420.318 21.1477 420.197 20.5436 420.197 19.8239V14.2727H421.896V19.6193C421.896 20.214 422.06 20.6875 422.39 21.0398C422.719 21.392 423.147 21.5682 423.674 21.5682C423.992 21.5682 424.308 21.4886 424.623 21.3295C424.941 21.1705 425.204 20.9299 425.413 20.608C425.625 20.286 425.729 19.8769 425.725 19.3807ZM429.712 23V14.2727H431.354V15.6591H431.445C431.604 15.1894 431.885 14.8201 432.286 14.5511C432.692 14.2784 433.15 14.142 433.661 14.142C433.767 14.142 433.892 14.1458 434.036 14.1534C434.184 14.161 434.299 14.1705 434.383 14.1818V15.8068C434.315 15.7879 434.193 15.767 434.019 15.7443C433.845 15.7178 433.671 15.7045 433.496 15.7045C433.095 15.7045 432.737 15.7898 432.423 15.9602C432.112 16.1269 431.866 16.3598 431.684 16.6591C431.502 16.9545 431.411 17.2917 431.411 17.6705V23H429.712ZM435.853 23V14.2727H437.552V23H435.853ZM436.711 12.9261C436.415 12.9261 436.162 12.8277 435.95 12.6307C435.741 12.4299 435.637 12.1913 435.637 11.9148C435.637 11.6345 435.741 11.3958 435.95 11.1989C436.162 10.9981 436.415 10.8977 436.711 10.8977C437.006 10.8977 437.258 10.9981 437.467 11.1989C437.679 11.3958 437.785 11.6345 437.785 11.9148C437.785 12.1913 437.679 12.4299 437.467 12.6307C437.258 12.8277 437.006 12.9261 436.711 12.9261ZM443.911 14.2727V15.6364H439.144V14.2727H443.911ZM440.423 12.1818H442.121V20.4375C442.121 20.767 442.171 21.0152 442.269 21.1818C442.368 21.3447 442.495 21.4564 442.65 21.517C442.809 21.5739 442.981 21.6023 443.167 21.6023C443.303 21.6023 443.423 21.5928 443.525 21.5739C443.627 21.5549 443.707 21.5398 443.763 21.5284L444.07 22.9318C443.972 22.9697 443.832 23.0076 443.65 23.0455C443.468 23.0871 443.241 23.1098 442.968 23.1136C442.521 23.1212 442.104 23.0417 441.718 22.875C441.332 22.7083 441.019 22.4508 440.781 22.1023C440.542 21.7538 440.423 21.3163 440.423 20.7898V12.1818ZM446.864 26.2727C446.611 26.2727 446.379 26.2519 446.171 26.2102C445.963 26.1723 445.808 26.1307 445.705 26.0852L446.114 24.6932C446.425 24.7765 446.701 24.8125 446.944 24.8011C447.186 24.7898 447.4 24.6989 447.586 24.5284C447.775 24.358 447.942 24.0795 448.086 23.6932L448.296 23.1136L445.103 14.2727H446.921L449.131 21.0455H449.222L451.433 14.2727H453.256L449.66 24.1648C449.493 24.6193 449.281 25.0038 449.023 25.3182C448.766 25.6364 448.459 25.875 448.103 26.0341C447.747 26.1932 447.334 26.2727 446.864 26.2727Z" fill="#4F5162"/>
<path d="M438.926 68.0071C439.594 69.9174 439.957 71.9709 439.957 74.1092C439.957 84.3146 431.684 92.5876 421.478 92.5876C411.273 92.5876 403 84.3146 403 74.1092C403 63.9039 411.273 55.6309 421.478 55.6309C423.665 55.6309 425.762 56.0105 427.709 56.7075" stroke="#0092E4" stroke-width="1.5" stroke-linecap="round"/>
<path d="M433.161 69.9869C433.618 71.2757 433.867 72.6632 433.867 74.109C433.867 80.9125 428.352 86.4279 421.548 86.4279C414.745 86.4279 409.229 80.9125 409.229 74.109C409.229 67.3054 414.745 61.79 421.548 61.79C423.063 61.79 424.513 62.0633 425.853 62.5631" stroke="#0092E4" stroke-width="1.5" stroke-linecap="round"/>
<ellipse cx="421.548" cy="74.1792" rx="4.61959" ry="4.6196" stroke="#0092E4" stroke-width="1.5"/>
<path d="M421.548 74.1787L429.487 66.2402" stroke="#0092E4" stroke-width="1.5" stroke-linecap="round" stroke-linejoin="round"/>
<path d="M433.867 66.4097L441.619 58.6583" stroke="#0092E4" stroke-width="1.5" stroke-linecap="round" stroke-linejoin="round"/>
<path d="M429.248 61.79L436.999 54.0387" stroke="#0092E4" stroke-width="1.5" stroke-linecap="round" stroke-linejoin="round"/>
<path d="M429.248 61.79V66.4096H433.867" stroke="#0092E4" stroke-width="1.5" stroke-linecap="round" stroke-linejoin="round"/>
<path d="M436.947 54V58.6196H441.566" stroke="#0092E4" stroke-width="1.5" stroke-linecap="round" stroke-linejoin="round"/>
<rect x="771" width="208" height="35" rx="17.5" fill="#F3F3FA"/>
<path d="M839.45 23V11.3636H843.598C844.5 11.3636 845.248 11.5189 845.842 11.8295C846.441 12.1402 846.888 12.5701 847.183 13.1193C847.479 13.6648 847.626 14.2955 847.626 15.0114C847.626 15.7235 847.477 16.3504 847.178 16.892C846.882 17.4299 846.435 17.8485 845.837 18.1477C845.242 18.447 844.494 18.5966 843.592 18.5966H840.45V17.0852H843.433C844.001 17.0852 844.464 17.0038 844.82 16.8409C845.179 16.678 845.443 16.4413 845.609 16.1307C845.776 15.8201 845.859 15.447 845.859 15.0114C845.859 14.572 845.774 14.1913 845.604 13.8693C845.437 13.5473 845.174 13.3011 844.814 13.1307C844.458 12.9564 843.99 12.8693 843.411 12.8693H841.206V23H839.45ZM845.195 17.75L848.07 23H846.07L843.251 17.75H845.195ZM853.278 23.1761C852.419 23.1761 851.678 22.9924 851.057 22.625C850.439 22.2538 849.962 21.733 849.625 21.0625C849.292 20.3883 849.125 19.5985 849.125 18.6932C849.125 17.7992 849.292 17.0114 849.625 16.3295C849.962 15.6477 850.432 15.1155 851.034 14.733C851.64 14.3504 852.348 14.1591 853.159 14.1591C853.652 14.1591 854.129 14.2405 854.591 14.4034C855.053 14.5663 855.468 14.822 855.835 15.1705C856.203 15.5189 856.492 15.9716 856.705 16.5284C856.917 17.0814 857.023 17.7538 857.023 18.5455V19.1477H850.085V17.875H855.358C855.358 17.428 855.267 17.0322 855.085 16.6875C854.903 16.339 854.648 16.0644 854.318 15.8636C853.992 15.6629 853.61 15.5625 853.17 15.5625C852.693 15.5625 852.277 15.6799 851.92 15.9148C851.568 16.1458 851.295 16.4489 851.102 16.8239C850.913 17.1951 850.818 17.5985 850.818 18.0341V19.0284C850.818 19.6117 850.92 20.108 851.125 20.517C851.333 20.9261 851.623 21.2386 851.994 21.4545C852.366 21.6667 852.799 21.7727 853.295 21.7727C853.617 21.7727 853.911 21.7273 854.176 21.6364C854.441 21.5417 854.67 21.4015 854.864 21.2159C855.057 21.0303 855.205 20.8011 855.307 20.5284L856.915 20.8182C856.786 21.2917 856.555 21.7064 856.222 22.0625C855.892 22.4148 855.477 22.6894 854.977 22.8864C854.481 23.0795 853.915 23.1761 853.278 23.1761ZM860.607 11.3636V23H858.908V11.3636H860.607ZM862.892 23V14.2727H864.591V23H862.892ZM863.75 12.9261C863.455 12.9261 863.201 12.8277 862.989 12.6307C862.78 12.4299 862.676 12.1913 862.676 11.9148C862.676 11.6345 862.78 11.3958 862.989 11.1989C863.201 10.9981 863.455 10.8977 863.75 10.8977C864.045 10.8977 864.297 10.9981 864.506 11.1989C864.718 11.3958 864.824 11.6345 864.824 11.9148C864.824 12.1913 864.718 12.4299 864.506 12.6307C864.297 12.8277 864.045 12.9261 863.75 12.9261ZM869.416 23.1932C868.863 23.1932 868.363 23.0909 867.916 22.8864C867.469 22.678 867.115 22.3769 866.854 21.983C866.596 21.589 866.467 21.1061 866.467 20.5341C866.467 20.0417 866.562 19.6364 866.751 19.3182C866.941 19 867.196 18.7481 867.518 18.5625C867.84 18.3769 868.2 18.2367 868.598 18.142C868.996 18.0473 869.401 17.9754 869.814 17.9261C870.337 17.8655 870.761 17.8163 871.087 17.7784C871.412 17.7367 871.649 17.6705 871.797 17.5795C871.945 17.4886 872.018 17.3409 872.018 17.1364V17.0966C872.018 16.6004 871.878 16.2159 871.598 15.9432C871.321 15.6705 870.909 15.5341 870.359 15.5341C869.787 15.5341 869.337 15.661 869.007 15.9148C868.681 16.1648 868.456 16.4432 868.331 16.75L866.734 16.3864C866.924 15.8561 867.2 15.428 867.564 15.1023C867.931 14.7727 868.354 14.5341 868.831 14.3864C869.308 14.2348 869.81 14.1591 870.337 14.1591C870.685 14.1591 871.054 14.2008 871.445 14.2841C871.839 14.3636 872.206 14.5114 872.547 14.7273C872.892 14.9432 873.174 15.2519 873.393 15.6534C873.613 16.0511 873.723 16.5682 873.723 17.2045V23H872.064V21.8068H871.996C871.886 22.0265 871.721 22.2424 871.501 22.4545C871.282 22.6667 871 22.8428 870.655 22.983C870.31 23.1231 869.897 23.1932 869.416 23.1932ZM869.786 21.8295C870.255 21.8295 870.657 21.7367 870.99 21.5511C871.327 21.3655 871.583 21.1231 871.757 20.8239C871.935 20.5208 872.024 20.197 872.024 19.8523V18.7273C871.964 18.7879 871.846 18.8447 871.672 18.8977C871.501 18.947 871.306 18.9905 871.087 19.0284C870.867 19.0625 870.653 19.0947 870.445 19.125C870.236 19.1515 870.062 19.1742 869.922 19.1932C869.592 19.2348 869.291 19.3049 869.018 19.4034C868.75 19.5019 868.534 19.6439 868.371 19.8295C868.212 20.0114 868.132 20.2538 868.132 20.5568C868.132 20.9773 868.287 21.2955 868.598 21.5114C868.909 21.7235 869.304 21.8295 869.786 21.8295ZM876.122 23V11.3636H877.821V15.6875H877.923C878.022 15.5057 878.164 15.2955 878.349 15.0568C878.535 14.8182 878.793 14.6098 879.122 14.4318C879.452 14.25 879.887 14.1591 880.429 14.1591C881.134 14.1591 881.762 14.3371 882.315 14.6932C882.868 15.0492 883.302 15.5625 883.616 16.233C883.935 16.9034 884.094 17.7102 884.094 18.6534C884.094 19.5966 883.937 20.4053 883.622 21.0795C883.308 21.75 882.876 22.267 882.327 22.6307C881.777 22.9905 881.151 23.1705 880.446 23.1705C879.916 23.1705 879.482 23.0814 879.145 22.9034C878.812 22.7254 878.55 22.517 878.361 22.2784C878.171 22.0398 878.026 21.8277 877.923 21.642H877.781V23H876.122ZM877.787 18.6364C877.787 19.25 877.876 19.7879 878.054 20.25C878.232 20.7121 878.49 21.0739 878.827 21.3352C879.164 21.5928 879.577 21.7216 880.065 21.7216C880.573 21.7216 880.997 21.5871 881.338 21.3182C881.679 21.0455 881.937 20.6761 882.111 20.2102C882.289 19.7443 882.378 19.2197 882.378 18.6364C882.378 18.0606 882.291 17.5436 882.116 17.0852C881.946 16.6269 881.688 16.2652 881.344 16C881.003 15.7348 880.577 15.6023 880.065 15.6023C879.573 15.6023 879.156 15.7292 878.815 15.983C878.478 16.2367 878.223 16.5909 878.048 17.0455C877.874 17.5 877.787 18.0303 877.787 18.6364ZM886.001 23V14.2727H887.7V23H886.001ZM886.859 12.9261C886.564 12.9261 886.31 12.8277 886.098 12.6307C885.89 12.4299 885.786 12.1913 885.786 11.9148C885.786 11.6345 885.89 11.3958 886.098 11.1989C886.31 10.9981 886.564 10.8977 886.859 10.8977C887.155 10.8977 887.407 10.9981 887.615 11.1989C887.827 11.3958 887.933 11.6345 887.933 11.9148C887.933 12.1913 887.827 12.4299 887.615 12.6307C887.407 12.8277 887.155 12.9261 886.859 12.9261ZM891.685 11.3636V23H889.986V11.3636H891.685ZM893.97 23V14.2727H895.669V23H893.97ZM894.828 12.9261C894.533 12.9261 894.279 12.8277 894.067 12.6307C893.858 12.4299 893.754 12.1913 893.754 11.9148C893.754 11.6345 893.858 11.3958 894.067 11.1989C894.279 10.9981 894.533 10.8977 894.828 10.8977C895.124 10.8977 895.375 10.9981 895.584 11.1989C895.796 11.3958 895.902 11.6345 895.902 11.9148C895.902 12.1913 895.796 12.4299 895.584 12.6307C895.375 12.8277 895.124 12.9261 894.828 12.9261ZM902.028 14.2727V15.6364H897.261V14.2727H902.028ZM898.54 12.1818H900.239V20.4375C900.239 20.767 900.288 21.0152 900.386 21.1818C900.485 21.3447 900.612 21.4564 900.767 21.517C900.926 21.5739 901.098 21.6023 901.284 21.6023C901.42 21.6023 901.54 21.5928 901.642 21.5739C901.744 21.5549 901.824 21.5398 901.881 21.5284L902.188 22.9318C902.089 22.9697 901.949 23.0076 901.767 23.0455C901.585 23.0871 901.358 23.1098 901.085 23.1136C900.638 23.1212 900.222 23.0417 899.835 22.875C899.449 22.7083 899.136 22.4508 898.898 22.1023C898.659 21.7538 898.54 21.3163 898.54 20.7898V12.1818ZM904.982 26.2727C904.728 26.2727 904.497 26.2519 904.288 26.2102C904.08 26.1723 903.925 26.1307 903.822 26.0852L904.232 24.6932C904.542 24.7765 904.819 24.8125 905.061 24.8011C905.304 24.7898 905.518 24.6989 905.703 24.5284C905.893 24.358 906.059 24.0795 906.203 23.6932L906.413 23.1136L903.22 14.2727H905.038L907.249 21.0455H907.339L909.55 14.2727H911.374L907.777 24.1648C907.61 24.6193 907.398 25.0038 907.141 25.3182C906.883 25.6364 906.576 25.875 906.22 26.0341C905.864 26.1932 905.451 26.2727 904.982 26.2727Z" fill="#4F5162"/>
<path d="M870.926 52.957C872.385 52.042 873.746 50.9803 875.131 50.001L875.133 50C876.587 51.0175 878.019 52.1235 879.555 53.0756C884.194 55.9512 889.26 57.9037 894.531 59.3917C895.405 59.6381 895.271 59.431 895.271 60.3509C895.275 65.9703 895.227 71.5897 895.287 77.209C895.333 81.5324 893.551 84.9599 890.19 87.7037C888.371 89.1867 886.354 90.3792 884.296 91.5093C881.385 93.1079 878.466 94.6935 875.54 96.266C875.352 96.3675 875.018 96.4088 874.848 96.3153C870.77 94.0701 866.674 91.8542 862.652 89.5185C860.265 88.132 858.208 86.3414 856.758 83.9836C855.62 82.1346 855.026 80.1278 855.019 77.9812C854.998 71.9938 855.011 66.0065 855 60.0191C854.999 59.6954 855.101 59.5677 855.43 59.4762C860.891 57.965 866.138 55.9572 870.926 52.957Z" stroke="#0092E4" stroke-width="1.5" stroke-linejoin="round"/>
<path d="M866.603 76.7822C865.89 75.4336 865.487 73.8963 865.487 72.2648C865.487 66.9185 869.821 62.5845 875.167 62.5845C880.513 62.5845 884.847 66.9185 884.847 72.2648C884.847 77.611 880.513 81.945 875.167 81.945C873.095 81.945 871.175 81.2942 869.601 80.1857" stroke="#0092E4" stroke-width="1.5" stroke-linecap="round"/>
<path d="M869 73.4L872.724 77L881 69" stroke="#0092E4" stroke-width="1.5" stroke-linecap="round"/>
<circle cx="1034.23" cy="251.917" r="5.56287" transform="rotate(15 1034.23 251.917)" stroke="#0092E4" stroke-width="1.5" stroke-linecap="round" stroke-linejoin="round"/>
<path d="M1044.45 252.231L1044 249.383L1047.02 247.161L1044.54 242.858L1041.1 244.363C1040.41 243.57 1038.59 241.991 1036.88 242.019L1036.38 238.247L1031.47 238.448L1031.21 241.711C1030.21 242.049 1027.95 243.019 1026.9 244.195L1023.59 243.003L1021.24 247.225L1023.97 249.472C1023.63 250.39 1023.12 252.64 1023.89 254.3L1021.15 256.598L1023.36 260.825L1026.79 259.32C1027.32 259.969 1028.9 261.401 1030.94 261.947L1031.31 265.078L1035.57 265.008" stroke="#0092E4" stroke-width="1.5" stroke-linecap="round" stroke-linejoin="round"/>
<path d="M1048.29 261.402L1050.27 264.825" stroke="#0092E4" stroke-width="1.5" stroke-linecap="round" stroke-linejoin="round"/>
<path d="M1060.67 261.402L1058.74 264.737" stroke="#0092E4" stroke-width="1.5" stroke-linecap="round" stroke-linejoin="round"/>
<circle cx="1054.5" cy="271.5" r="16.5" stroke="#0092E4" stroke-width="1.5" stroke-linecap="round" stroke-linejoin="round"/>
<path d="M1054.54 259.144C1047.7 259.144 1042.16 264.685 1042.16 271.519L1046.93 271.5C1046.93 267.298 1050.34 263.892 1054.54 263.892C1058.74 263.892 1062.15 267.298 1062.15 271.5L1066.91 271.519C1066.91 264.685 1061.37 259.144 1054.54 259.144Z" stroke="#0092E4" stroke-width="1.5" stroke-linecap="round" stroke-linejoin="round"/>
<circle cx="1054.96" cy="272.296" r="4.01479" transform="rotate(45 1054.96 272.296)" stroke="#0092E4" stroke-width="1.5" stroke-linecap="round" stroke-linejoin="round"/>
<line x1="1057.96" y1="269.615" x2="1062.25" y2="265.332" stroke="#0092E4" stroke-width="1.5" stroke-linecap="round" stroke-linejoin="round"/>
<rect x="1085" y="246.5" width="208" height="35" rx="17.5" fill="#F3F3FA"/>
<path d="M1100.97 269.5V257.864H1105.11C1106.02 257.864 1106.77 258.028 1107.36 258.358C1107.96 258.687 1108.4 259.138 1108.7 259.71C1108.99 260.278 1109.14 260.919 1109.14 261.631C1109.14 262.347 1108.99 262.991 1108.69 263.562C1108.4 264.131 1107.95 264.581 1107.35 264.915C1106.76 265.244 1106.01 265.409 1105.11 265.409H1102.26V263.92H1104.95C1105.52 263.92 1105.98 263.822 1106.34 263.625C1106.7 263.424 1106.96 263.152 1107.12 262.807C1107.29 262.462 1107.38 262.07 1107.38 261.631C1107.38 261.191 1107.29 260.801 1107.12 260.46C1106.96 260.119 1106.7 259.852 1106.34 259.659C1105.98 259.466 1105.51 259.369 1104.93 259.369H1102.72V269.5H1100.97ZM1114.72 269.676C1113.86 269.676 1113.12 269.492 1112.49 269.125C1111.88 268.754 1111.4 268.233 1111.06 267.562C1110.73 266.888 1110.56 266.098 1110.56 265.193C1110.56 264.299 1110.73 263.511 1111.06 262.83C1111.4 262.148 1111.87 261.616 1112.47 261.233C1113.08 260.85 1113.79 260.659 1114.6 260.659C1115.09 260.659 1115.57 260.741 1116.03 260.903C1116.49 261.066 1116.91 261.322 1117.27 261.67C1117.64 262.019 1117.93 262.472 1118.14 263.028C1118.35 263.581 1118.46 264.254 1118.46 265.045V265.648H1111.52V264.375H1116.8C1116.8 263.928 1116.7 263.532 1116.52 263.188C1116.34 262.839 1116.09 262.564 1115.76 262.364C1115.43 262.163 1115.05 262.062 1114.61 262.062C1114.13 262.062 1113.71 262.18 1113.36 262.415C1113.01 262.646 1112.73 262.949 1112.54 263.324C1112.35 263.695 1112.26 264.098 1112.26 264.534V265.528C1112.26 266.112 1112.36 266.608 1112.56 267.017C1112.77 267.426 1113.06 267.739 1113.43 267.955C1113.8 268.167 1114.24 268.273 1114.73 268.273C1115.05 268.273 1115.35 268.227 1115.61 268.136C1115.88 268.042 1116.11 267.902 1116.3 267.716C1116.49 267.53 1116.64 267.301 1116.74 267.028L1118.35 267.318C1118.22 267.792 1117.99 268.206 1117.66 268.562C1117.33 268.915 1116.91 269.189 1116.41 269.386C1115.92 269.58 1115.35 269.676 1114.72 269.676ZM1120.35 269.5V260.773H1121.99V262.159H1122.08C1122.24 261.689 1122.52 261.32 1122.92 261.051C1123.32 260.778 1123.78 260.642 1124.29 260.642C1124.4 260.642 1124.53 260.646 1124.67 260.653C1124.82 260.661 1124.93 260.67 1125.02 260.682V262.307C1124.95 262.288 1124.83 262.267 1124.65 262.244C1124.48 262.218 1124.3 262.205 1124.13 262.205C1123.73 262.205 1123.37 262.29 1123.06 262.46C1122.74 262.627 1122.5 262.86 1122.32 263.159C1122.13 263.455 1122.04 263.792 1122.04 264.17V269.5H1120.35ZM1131.15 260.773V262.136H1126.22V260.773H1131.15ZM1127.58 269.5V259.761C1127.58 259.216 1127.69 258.763 1127.93 258.403C1128.17 258.04 1128.49 257.769 1128.88 257.591C1129.28 257.409 1129.7 257.318 1130.17 257.318C1130.51 257.318 1130.8 257.347 1131.04 257.403C1131.28 257.456 1131.46 257.506 1131.58 257.551L1131.18 258.926C1131.1 258.903 1131 258.877 1130.88 258.847C1130.75 258.812 1130.6 258.795 1130.42 258.795C1130.01 258.795 1129.71 258.898 1129.54 259.102C1129.36 259.307 1129.27 259.602 1129.27 259.989V269.5H1127.58ZM1136.24 269.676C1135.42 269.676 1134.71 269.489 1134.1 269.114C1133.49 268.739 1133.01 268.214 1132.68 267.54C1132.34 266.866 1132.17 266.078 1132.17 265.176C1132.17 264.271 1132.34 263.479 1132.68 262.801C1133.01 262.123 1133.49 261.597 1134.1 261.222C1134.71 260.847 1135.42 260.659 1136.24 260.659C1137.06 260.659 1137.77 260.847 1138.38 261.222C1138.99 261.597 1139.47 262.123 1139.8 262.801C1140.14 263.479 1140.31 264.271 1140.31 265.176C1140.31 266.078 1140.14 266.866 1139.8 267.54C1139.47 268.214 1138.99 268.739 1138.38 269.114C1137.77 269.489 1137.06 269.676 1136.24 269.676ZM1136.25 268.25C1136.78 268.25 1137.22 268.11 1137.56 267.83C1137.91 267.549 1138.17 267.176 1138.34 266.71C1138.51 266.244 1138.59 265.731 1138.59 265.17C1138.59 264.614 1138.51 264.102 1138.34 263.636C1138.17 263.167 1137.91 262.79 1137.56 262.506C1137.22 262.222 1136.78 262.08 1136.25 262.08C1135.71 262.08 1135.27 262.222 1134.92 262.506C1134.57 262.79 1134.31 263.167 1134.14 263.636C1133.97 264.102 1133.89 264.614 1133.89 265.17C1133.89 265.731 1133.97 266.244 1134.14 266.71C1134.31 267.176 1134.57 267.549 1134.92 267.83C1135.27 268.11 1135.71 268.25 1136.25 268.25ZM1142.2 269.5V260.773H1143.85V262.159H1143.94C1144.1 261.689 1144.38 261.32 1144.78 261.051C1145.18 260.778 1145.64 260.642 1146.15 260.642C1146.26 260.642 1146.38 260.646 1146.53 260.653C1146.68 260.661 1146.79 260.67 1146.88 260.682V262.307C1146.81 262.288 1146.69 262.267 1146.51 262.244C1146.34 262.218 1146.16 262.205 1145.99 262.205C1145.59 262.205 1145.23 262.29 1144.91 262.46C1144.6 262.627 1144.36 262.86 1144.18 263.159C1143.99 263.455 1143.9 263.792 1143.9 264.17V269.5H1142.2ZM1148.35 269.5V260.773H1149.98V262.193H1150.08C1150.27 261.712 1150.56 261.337 1150.98 261.068C1151.39 260.795 1151.88 260.659 1152.46 260.659C1153.04 260.659 1153.53 260.795 1153.92 261.068C1154.32 261.341 1154.62 261.716 1154.81 262.193H1154.9C1155.1 261.727 1155.44 261.356 1155.89 261.08C1156.35 260.799 1156.89 260.659 1157.52 260.659C1158.31 260.659 1158.95 260.907 1159.45 261.403C1159.96 261.9 1160.21 262.648 1160.21 263.648V269.5H1158.51V263.807C1158.51 263.216 1158.35 262.788 1158.03 262.523C1157.71 262.258 1157.32 262.125 1156.87 262.125C1156.32 262.125 1155.89 262.295 1155.58 262.636C1155.28 262.973 1155.12 263.407 1155.12 263.938V269.5H1153.43V263.699C1153.43 263.225 1153.28 262.845 1152.99 262.557C1152.69 262.269 1152.31 262.125 1151.83 262.125C1151.51 262.125 1151.21 262.21 1150.94 262.381C1150.67 262.547 1150.46 262.78 1150.29 263.08C1150.13 263.379 1150.04 263.725 1150.04 264.119V269.5H1148.35ZM1165.03 269.693C1164.47 269.693 1163.97 269.591 1163.53 269.386C1163.08 269.178 1162.72 268.877 1162.46 268.483C1162.21 268.089 1162.08 267.606 1162.08 267.034C1162.08 266.542 1162.17 266.136 1162.36 265.818C1162.55 265.5 1162.81 265.248 1163.13 265.062C1163.45 264.877 1163.81 264.737 1164.21 264.642C1164.61 264.547 1165.01 264.475 1165.42 264.426C1165.95 264.366 1166.37 264.316 1166.7 264.278C1167.02 264.237 1167.26 264.17 1167.41 264.08C1167.55 263.989 1167.63 263.841 1167.63 263.636V263.597C1167.63 263.1 1167.49 262.716 1167.21 262.443C1166.93 262.17 1166.52 262.034 1165.97 262.034C1165.4 262.034 1164.95 262.161 1164.62 262.415C1164.29 262.665 1164.07 262.943 1163.94 263.25L1162.34 262.886C1162.53 262.356 1162.81 261.928 1163.17 261.602C1163.54 261.273 1163.96 261.034 1164.44 260.886C1164.92 260.735 1165.42 260.659 1165.95 260.659C1166.29 260.659 1166.66 260.701 1167.05 260.784C1167.45 260.864 1167.82 261.011 1168.16 261.227C1168.5 261.443 1168.78 261.752 1169 262.153C1169.22 262.551 1169.33 263.068 1169.33 263.705V269.5H1167.67V268.307H1167.61C1167.5 268.527 1167.33 268.742 1167.11 268.955C1166.89 269.167 1166.61 269.343 1166.26 269.483C1165.92 269.623 1165.51 269.693 1165.03 269.693ZM1165.39 268.33C1165.86 268.33 1166.27 268.237 1166.6 268.051C1166.94 267.866 1167.19 267.623 1167.37 267.324C1167.54 267.021 1167.63 266.697 1167.63 266.352V265.227C1167.57 265.288 1167.46 265.345 1167.28 265.398C1167.11 265.447 1166.92 265.491 1166.7 265.528C1166.48 265.562 1166.26 265.595 1166.05 265.625C1165.85 265.652 1165.67 265.674 1165.53 265.693C1165.2 265.735 1164.9 265.805 1164.63 265.903C1164.36 266.002 1164.14 266.144 1163.98 266.33C1163.82 266.511 1163.74 266.754 1163.74 267.057C1163.74 267.477 1163.9 267.795 1164.21 268.011C1164.52 268.223 1164.91 268.33 1165.39 268.33ZM1173.29 264.318V269.5H1171.6V260.773H1173.23V262.193H1173.33C1173.53 261.731 1173.85 261.36 1174.28 261.08C1174.71 260.799 1175.25 260.659 1175.91 260.659C1176.5 260.659 1177.02 260.784 1177.47 261.034C1177.92 261.28 1178.26 261.648 1178.51 262.136C1178.76 262.625 1178.88 263.229 1178.88 263.949V269.5H1177.18V264.153C1177.18 263.521 1177.02 263.027 1176.69 262.67C1176.36 262.311 1175.9 262.131 1175.33 262.131C1174.93 262.131 1174.58 262.216 1174.28 262.386C1173.97 262.557 1173.73 262.807 1173.56 263.136C1173.38 263.462 1173.29 263.856 1173.29 264.318ZM1184.83 269.676C1183.99 269.676 1183.26 269.485 1182.65 269.102C1182.05 268.716 1181.58 268.184 1181.25 267.506C1180.93 266.828 1180.77 266.051 1180.77 265.176C1180.77 264.29 1180.93 263.508 1181.27 262.83C1181.6 262.148 1182.07 261.616 1182.67 261.233C1183.28 260.85 1183.99 260.659 1184.82 260.659C1185.48 260.659 1186.07 260.782 1186.59 261.028C1187.11 261.271 1187.53 261.612 1187.85 262.051C1188.17 262.491 1188.36 263.004 1188.42 263.591H1186.77C1186.67 263.182 1186.47 262.83 1186.14 262.534C1185.82 262.239 1185.39 262.091 1184.85 262.091C1184.37 262.091 1183.96 262.216 1183.6 262.466C1183.25 262.712 1182.97 263.064 1182.78 263.523C1182.58 263.977 1182.48 264.515 1182.48 265.136C1182.48 265.773 1182.58 266.322 1182.77 266.784C1182.96 267.246 1183.24 267.604 1183.59 267.858C1183.95 268.112 1184.36 268.239 1184.85 268.239C1185.17 268.239 1185.46 268.18 1185.72 268.062C1185.99 267.941 1186.21 267.769 1186.38 267.545C1186.57 267.322 1186.69 267.053 1186.77 266.739H1188.42C1188.36 267.303 1188.17 267.807 1187.87 268.25C1187.56 268.693 1187.15 269.042 1186.63 269.295C1186.12 269.549 1185.52 269.676 1184.83 269.676ZM1194 269.676C1193.14 269.676 1192.4 269.492 1191.78 269.125C1191.16 268.754 1190.68 268.233 1190.34 267.562C1190.01 266.888 1189.84 266.098 1189.84 265.193C1189.84 264.299 1190.01 263.511 1190.34 262.83C1190.68 262.148 1191.15 261.616 1191.75 261.233C1192.36 260.85 1193.07 260.659 1193.88 260.659C1194.37 260.659 1194.85 260.741 1195.31 260.903C1195.77 261.066 1196.19 261.322 1196.55 261.67C1196.92 262.019 1197.21 262.472 1197.42 263.028C1197.64 263.581 1197.74 264.254 1197.74 265.045V265.648H1190.8V264.375H1196.08C1196.08 263.928 1195.99 263.532 1195.8 263.188C1195.62 262.839 1195.37 262.564 1195.04 262.364C1194.71 262.163 1194.33 262.062 1193.89 262.062C1193.41 262.062 1193 262.18 1192.64 262.415C1192.29 262.646 1192.01 262.949 1191.82 263.324C1191.63 263.695 1191.54 264.098 1191.54 264.534V265.528C1191.54 266.112 1191.64 266.608 1191.84 267.017C1192.05 267.426 1192.34 267.739 1192.71 267.955C1193.08 268.167 1193.52 268.273 1194.01 268.273C1194.34 268.273 1194.63 268.227 1194.89 268.136C1195.16 268.042 1195.39 267.902 1195.58 267.716C1195.78 267.53 1195.92 267.301 1196.03 267.028L1197.63 267.318C1197.5 267.792 1197.27 268.206 1196.94 268.562C1196.61 268.915 1196.2 269.189 1195.7 269.386C1195.2 269.58 1194.63 269.676 1194 269.676ZM1204 269.5V257.864H1211.29V259.375H1205.75V262.92H1210.91V264.426H1205.75V267.989H1211.36V269.5H1204ZM1217.65 260.773V262.136H1212.72V260.773H1217.65ZM1214.08 269.5V259.761C1214.08 259.216 1214.19 258.763 1214.43 258.403C1214.67 258.04 1214.99 257.769 1215.38 257.591C1215.78 257.409 1216.2 257.318 1216.67 257.318C1217.01 257.318 1217.3 257.347 1217.54 257.403C1217.78 257.456 1217.96 257.506 1218.08 257.551L1217.68 258.926C1217.6 258.903 1217.5 258.877 1217.38 258.847C1217.25 258.812 1217.1 258.795 1216.92 258.795C1216.51 258.795 1216.21 258.898 1216.04 259.102C1215.86 259.307 1215.77 259.602 1215.77 259.989V269.5H1214.08ZM1223.56 260.773V262.136H1218.63V260.773H1223.56ZM1219.98 269.5V259.761C1219.98 259.216 1220.1 258.763 1220.34 258.403C1220.58 258.04 1220.89 257.769 1221.29 257.591C1221.68 257.409 1222.11 257.318 1222.57 257.318C1222.91 257.318 1223.21 257.347 1223.45 257.403C1223.69 257.456 1223.87 257.506 1223.99 257.551L1223.59 258.926C1223.51 258.903 1223.41 258.877 1223.28 258.847C1223.16 258.812 1223.01 258.795 1222.83 258.795C1222.42 258.795 1222.12 258.898 1221.94 259.102C1221.77 259.307 1221.68 259.602 1221.68 259.989V269.5H1219.98ZM1225.31 269.5V260.773H1227.01V269.5H1225.31ZM1226.17 259.426C1225.88 259.426 1225.62 259.328 1225.41 259.131C1225.2 258.93 1225.1 258.691 1225.1 258.415C1225.1 258.134 1225.2 257.896 1225.41 257.699C1225.62 257.498 1225.88 257.398 1226.17 257.398C1226.47 257.398 1226.72 257.498 1226.93 257.699C1227.14 257.896 1227.25 258.134 1227.25 258.415C1227.25 258.691 1227.14 258.93 1226.93 259.131C1226.72 259.328 1226.47 259.426 1226.17 259.426ZM1232.97 269.676C1232.13 269.676 1231.4 269.485 1230.79 269.102C1230.19 268.716 1229.72 268.184 1229.39 267.506C1229.07 266.828 1228.91 266.051 1228.91 265.176C1228.91 264.29 1229.07 263.508 1229.41 262.83C1229.74 262.148 1230.21 261.616 1230.82 261.233C1231.42 260.85 1232.14 260.659 1232.96 260.659C1233.62 260.659 1234.21 260.782 1234.73 261.028C1235.25 261.271 1235.67 261.612 1235.99 262.051C1236.31 262.491 1236.5 263.004 1236.56 263.591H1234.91C1234.82 263.182 1234.61 262.83 1234.28 262.534C1233.96 262.239 1233.53 262.091 1232.99 262.091C1232.51 262.091 1232.1 262.216 1231.74 262.466C1231.39 262.712 1231.11 263.064 1230.92 263.523C1230.72 263.977 1230.62 264.515 1230.62 265.136C1230.62 265.773 1230.72 266.322 1230.91 266.784C1231.11 267.246 1231.38 267.604 1231.73 267.858C1232.09 268.112 1232.5 268.239 1232.99 268.239C1233.31 268.239 1233.6 268.18 1233.86 268.062C1234.13 267.941 1234.35 267.769 1234.53 267.545C1234.71 267.322 1234.83 267.053 1234.91 266.739H1236.56C1236.5 267.303 1236.32 267.807 1236.01 268.25C1235.7 268.693 1235.29 269.042 1234.78 269.295C1234.26 269.549 1233.66 269.676 1232.97 269.676ZM1238.38 269.5V260.773H1240.08V269.5H1238.38ZM1239.23 259.426C1238.94 259.426 1238.69 259.328 1238.47 259.131C1238.26 258.93 1238.16 258.691 1238.16 258.415C1238.16 258.134 1238.26 257.896 1238.47 257.699C1238.69 257.498 1238.94 257.398 1239.23 257.398C1239.53 257.398 1239.78 257.498 1239.99 257.699C1240.2 257.896 1240.31 258.134 1240.31 258.415C1240.31 258.691 1240.2 258.93 1239.99 259.131C1239.78 259.328 1239.53 259.426 1239.23 259.426ZM1246.12 269.676C1245.26 269.676 1244.52 269.492 1243.9 269.125C1243.28 268.754 1242.81 268.233 1242.47 267.562C1242.14 266.888 1241.97 266.098 1241.97 265.193C1241.97 264.299 1242.14 263.511 1242.47 262.83C1242.81 262.148 1243.28 261.616 1243.88 261.233C1244.48 260.85 1245.19 260.659 1246 260.659C1246.5 260.659 1246.97 260.741 1247.43 260.903C1247.9 261.066 1248.31 261.322 1248.68 261.67C1249.05 262.019 1249.34 262.472 1249.55 263.028C1249.76 263.581 1249.87 264.254 1249.87 265.045V265.648H1242.93V264.375H1248.2C1248.2 263.928 1248.11 263.532 1247.93 263.188C1247.75 262.839 1247.49 262.564 1247.16 262.364C1246.84 262.163 1246.45 262.062 1246.01 262.062C1245.54 262.062 1245.12 262.18 1244.76 262.415C1244.41 262.646 1244.14 262.949 1243.95 263.324C1243.76 263.695 1243.66 264.098 1243.66 264.534V265.528C1243.66 266.112 1243.76 266.608 1243.97 267.017C1244.18 267.426 1244.47 267.739 1244.84 267.955C1245.21 268.167 1245.64 268.273 1246.14 268.273C1246.46 268.273 1246.75 268.227 1247.02 268.136C1247.29 268.042 1247.51 267.902 1247.71 267.716C1247.9 267.53 1248.05 267.301 1248.15 267.028L1249.76 267.318C1249.63 267.792 1249.4 268.206 1249.07 268.562C1248.74 268.915 1248.32 269.189 1247.82 269.386C1247.32 269.58 1246.76 269.676 1246.12 269.676ZM1253.45 264.318V269.5H1251.75V260.773H1253.38V262.193H1253.49C1253.69 261.731 1254.01 261.36 1254.43 261.08C1254.87 260.799 1255.41 260.659 1256.06 260.659C1256.66 260.659 1257.18 260.784 1257.63 261.034C1258.07 261.28 1258.42 261.648 1258.67 262.136C1258.91 262.625 1259.04 263.229 1259.04 263.949V269.5H1257.34V264.153C1257.34 263.521 1257.17 263.027 1256.84 262.67C1256.51 262.311 1256.06 262.131 1255.48 262.131C1255.09 262.131 1254.74 262.216 1254.43 262.386C1254.13 262.557 1253.89 262.807 1253.71 263.136C1253.54 263.462 1253.45 263.856 1253.45 264.318ZM1264.99 269.676C1264.15 269.676 1263.42 269.485 1262.81 269.102C1262.2 268.716 1261.74 268.184 1261.41 267.506C1261.08 266.828 1260.92 266.051 1260.92 265.176C1260.92 264.29 1261.09 263.508 1261.42 262.83C1261.76 262.148 1262.22 261.616 1262.83 261.233C1263.44 260.85 1264.15 260.659 1264.97 260.659C1265.64 260.659 1266.23 260.782 1266.75 261.028C1267.26 261.271 1267.68 261.612 1268 262.051C1268.32 262.491 1268.51 263.004 1268.58 263.591H1266.92C1266.83 263.182 1266.62 262.83 1266.3 262.534C1265.97 262.239 1265.54 262.091 1265 262.091C1264.53 262.091 1264.11 262.216 1263.76 262.466C1263.4 262.712 1263.13 263.064 1262.93 263.523C1262.74 263.977 1262.64 264.515 1262.64 265.136C1262.64 265.773 1262.73 266.322 1262.93 266.784C1263.12 267.246 1263.39 267.604 1263.75 267.858C1264.1 268.112 1264.52 268.239 1265 268.239C1265.32 268.239 1265.62 268.18 1265.88 268.062C1266.14 267.941 1266.36 267.769 1266.54 267.545C1266.72 267.322 1266.85 267.053 1266.92 266.739H1268.58C1268.51 267.303 1268.33 267.807 1268.02 268.25C1267.72 268.693 1267.31 269.042 1266.79 269.295C1266.28 269.549 1265.68 269.676 1264.99 269.676ZM1271.47 272.773C1271.21 272.773 1270.98 272.752 1270.77 272.71C1270.56 272.672 1270.41 272.631 1270.31 272.585L1270.72 271.193C1271.03 271.277 1271.3 271.313 1271.55 271.301C1271.79 271.29 1272 271.199 1272.19 271.028C1272.38 270.858 1272.54 270.58 1272.69 270.193L1272.9 269.614L1269.7 260.773H1271.52L1273.73 267.545H1273.82L1276.03 260.773H1277.86L1274.26 270.665C1274.09 271.119 1273.88 271.504 1273.62 271.818C1273.37 272.136 1273.06 272.375 1272.7 272.534C1272.35 272.693 1271.94 272.773 1271.47 272.773Z" fill="#4F5162"/>
<path fill-rule="evenodd" clip-rule="evenodd" d="M327.277 222.066C310.138 239.967 301.853 258.401 301.853 276.5C301.853 294.599 310.138 313.033 327.277 330.934C344.379 348.797 369.539 365.271 401.238 379.275C464.573 407.254 552.523 424.723 650 424.723C747.477 424.723 835.427 407.254 898.762 379.275C930.461 365.271 955.621 348.797 972.723 330.934C989.862 313.033 998.147 294.599 998.147 276.5C998.147 258.401 989.862 239.967 972.723 222.066C955.621 204.203 930.461 187.729 898.762 173.725C835.427 145.746 747.477 128.277 650 128.277C552.523 128.277 464.573 145.746 401.238 173.725C369.539 187.729 344.379 204.203 327.277 222.066ZM396.612 157.439C461.789 128.646 551.375 111 650 111C748.625 111 838.211 128.646 903.388 157.439C935.945 171.822 962.784 189.149 981.617 208.819C1000.41 228.452 1012 251.283 1012 276.5C1012 301.717 1000.41 324.548 981.617 344.181C962.784 363.851 935.945 381.178 903.388 395.561C838.211 424.354 748.625 442 650 442C551.375 442 461.789 424.354 396.612 395.561C364.055 381.178 337.216 363.851 318.383 344.181C299.586 324.548 288 301.717 288 276.5C288 251.283 299.586 228.452 318.383 208.819C337.216 189.149 364.055 171.822 396.612 157.439Z" fill="url(#paint0_radial_4015_48749)"/>
<path fill-rule="evenodd" clip-rule="evenodd" d="M327.101 189.381C310.092 207.326 301.855 225.82 301.855 244C301.855 262.18 310.092 280.674 327.101 298.619C344.077 316.529 369.052 333.049 400.521 347.092C463.399 375.151 550.718 392.67 647.5 392.67C744.282 392.67 831.601 375.151 894.479 347.092C925.948 333.049 950.923 316.529 967.899 298.619C984.908 280.674 993.145 262.18 993.145 244C993.145 225.82 984.908 207.326 967.899 189.381C950.923 171.471 925.948 154.951 894.479 140.908C831.601 112.849 744.282 95.3297 647.5 95.3297C550.718 95.3297 463.399 112.849 400.521 140.908C369.052 154.951 344.077 171.471 327.101 189.381ZM395.866 124.586C460.595 95.7011 549.561 78 647.5 78C745.439 78 834.405 95.7011 899.134 124.586C931.468 139.015 958.126 156.399 976.832 176.135C995.506 195.836 1007 218.733 1007 244C1007 269.267 995.506 292.164 976.832 311.865C958.126 331.601 931.468 348.985 899.134 363.414C834.405 392.299 745.439 410 647.5 410C549.561 410 460.595 392.299 395.866 363.414C363.532 348.985 336.874 331.601 318.168 311.865C299.494 292.164 288 269.267 288 244C288 218.733 299.494 195.836 318.168 176.135C336.874 156.399 363.532 139.015 395.866 124.586Z" fill="url(#paint1_linear_4015_48749)"/>
<circle cx="295.5" cy="263.5" r="12.5" fill="#00ADE4"/>
<circle cx="421.5" cy="122.5" r="12.5" fill="#00ADE4"/>
<circle cx="874.5" cy="122.5" r="12.5" fill="#00ADE4"/>
<circle cx="997.5" cy="263.5" r="12.5" fill="#00ADE4"/>
<ellipse cx="647.5" cy="402" rx="12.5" ry="12" fill="#00ADE4"/>
<rect x="544" y="280" width="208" height="35" rx="17.5" fill="#F3F3FA"/>
<path d="M590.201 295.148H588.428C588.36 294.769 588.233 294.436 588.048 294.148C587.862 293.86 587.635 293.616 587.366 293.415C587.097 293.214 586.796 293.062 586.462 292.96C586.133 292.858 585.782 292.807 585.411 292.807C584.741 292.807 584.14 292.975 583.61 293.312C583.084 293.65 582.667 294.144 582.36 294.795C582.057 295.447 581.906 296.242 581.906 297.182C581.906 298.129 582.057 298.928 582.36 299.58C582.667 300.231 583.085 300.723 583.616 301.057C584.146 301.39 584.743 301.557 585.406 301.557C585.773 301.557 586.121 301.508 586.451 301.409C586.784 301.307 587.085 301.157 587.354 300.96C587.623 300.763 587.851 300.523 588.036 300.239C588.226 299.951 588.356 299.621 588.428 299.25L590.201 299.256C590.106 299.828 589.923 300.354 589.65 300.835C589.381 301.312 589.034 301.725 588.61 302.074C588.19 302.419 587.709 302.686 587.167 302.875C586.625 303.064 586.034 303.159 585.394 303.159C584.387 303.159 583.489 302.92 582.701 302.443C581.913 301.962 581.292 301.275 580.837 300.381C580.387 299.487 580.161 298.42 580.161 297.182C580.161 295.939 580.388 294.873 580.843 293.983C581.298 293.089 581.919 292.403 582.707 291.926C583.495 291.445 584.39 291.205 585.394 291.205C586.012 291.205 586.587 291.294 587.121 291.472C587.659 291.646 588.142 291.903 588.57 292.244C588.998 292.581 589.353 292.994 589.633 293.483C589.913 293.968 590.103 294.523 590.201 295.148ZM595.842 303.176C595.023 303.176 594.309 302.989 593.7 302.614C593.09 302.239 592.616 301.714 592.279 301.04C591.942 300.366 591.773 299.578 591.773 298.676C591.773 297.771 591.942 296.979 592.279 296.301C592.616 295.623 593.09 295.097 593.7 294.722C594.309 294.347 595.023 294.159 595.842 294.159C596.66 294.159 597.374 294.347 597.984 294.722C598.594 295.097 599.067 295.623 599.404 296.301C599.741 296.979 599.91 297.771 599.91 298.676C599.91 299.578 599.741 300.366 599.404 301.04C599.067 301.714 598.594 302.239 597.984 302.614C597.374 302.989 596.66 303.176 595.842 303.176ZM595.847 301.75C596.378 301.75 596.817 301.61 597.165 301.33C597.514 301.049 597.772 300.676 597.938 300.21C598.109 299.744 598.194 299.231 598.194 298.67C598.194 298.114 598.109 297.602 597.938 297.136C597.772 296.667 597.514 296.29 597.165 296.006C596.817 295.722 596.378 295.58 595.847 295.58C595.313 295.58 594.87 295.722 594.518 296.006C594.169 296.29 593.91 296.667 593.739 297.136C593.573 297.602 593.489 298.114 593.489 298.67C593.489 299.231 593.573 299.744 593.739 300.21C593.91 300.676 594.169 301.049 594.518 301.33C594.87 301.61 595.313 301.75 595.847 301.75ZM608.346 296.403L606.806 296.676C606.742 296.479 606.639 296.292 606.499 296.114C606.363 295.936 606.177 295.79 605.942 295.676C605.708 295.562 605.414 295.506 605.062 295.506C604.581 295.506 604.179 295.614 603.857 295.83C603.535 296.042 603.374 296.316 603.374 296.653C603.374 296.945 603.482 297.18 603.698 297.358C603.914 297.536 604.263 297.682 604.744 297.795L606.13 298.114C606.933 298.299 607.531 298.585 607.925 298.972C608.319 299.358 608.516 299.86 608.516 300.477C608.516 301 608.365 301.466 608.062 301.875C607.763 302.28 607.344 302.598 606.806 302.83C606.272 303.061 605.653 303.176 604.948 303.176C603.971 303.176 603.174 302.968 602.556 302.551C601.939 302.131 601.56 301.534 601.42 300.761L603.062 300.511C603.164 300.939 603.374 301.263 603.692 301.483C604.011 301.699 604.425 301.807 604.937 301.807C605.494 301.807 605.939 301.691 606.272 301.46C606.605 301.225 606.772 300.939 606.772 300.602C606.772 300.33 606.67 300.1 606.465 299.915C606.264 299.729 605.956 299.589 605.539 299.494L604.062 299.17C603.247 298.985 602.645 298.689 602.255 298.284C601.869 297.879 601.675 297.366 601.675 296.744C601.675 296.229 601.819 295.778 602.107 295.392C602.395 295.006 602.793 294.705 603.3 294.489C603.808 294.269 604.389 294.159 605.045 294.159C605.988 294.159 606.73 294.364 607.272 294.773C607.814 295.178 608.172 295.722 608.346 296.403ZM614.458 294.273V295.636H609.691V294.273H614.458ZM610.969 292.182H612.668V300.438C612.668 300.767 612.718 301.015 612.816 301.182C612.915 301.345 613.041 301.456 613.197 301.517C613.356 301.574 613.528 301.602 613.714 301.602C613.85 301.602 613.969 301.593 614.072 301.574C614.174 301.555 614.254 301.54 614.31 301.528L614.617 302.932C614.519 302.97 614.379 303.008 614.197 303.045C614.015 303.087 613.788 303.11 613.515 303.114C613.068 303.121 612.651 303.042 612.265 302.875C611.879 302.708 611.566 302.451 611.327 302.102C611.089 301.754 610.969 301.316 610.969 300.79V292.182ZM630.816 297.182C630.816 298.424 630.589 299.492 630.134 300.386C629.68 301.277 629.057 301.962 628.265 302.443C627.477 302.92 626.581 303.159 625.577 303.159C624.57 303.159 623.67 302.92 622.879 302.443C622.091 301.962 621.469 301.275 621.015 300.381C620.56 299.487 620.333 298.42 620.333 297.182C620.333 295.939 620.56 294.873 621.015 293.983C621.469 293.089 622.091 292.403 622.879 291.926C623.67 291.445 624.57 291.205 625.577 291.205C626.581 291.205 627.477 291.445 628.265 291.926C629.057 292.403 629.68 293.089 630.134 293.983C630.589 294.873 630.816 295.939 630.816 297.182ZM629.077 297.182C629.077 296.235 628.924 295.437 628.617 294.79C628.314 294.138 627.897 293.646 627.367 293.312C626.841 292.975 626.244 292.807 625.577 292.807C624.907 292.807 624.308 292.975 623.782 293.312C623.255 293.646 622.839 294.138 622.532 294.79C622.229 295.437 622.077 296.235 622.077 297.182C622.077 298.129 622.229 298.928 622.532 299.58C622.839 300.227 623.255 300.72 623.782 301.057C624.308 301.39 624.907 301.557 625.577 301.557C626.244 301.557 626.841 301.39 627.367 301.057C627.897 300.72 628.314 300.227 628.617 299.58C628.924 298.928 629.077 298.129 629.077 297.182ZM632.869 306.273V294.273H634.528V295.688H634.67C634.768 295.506 634.91 295.295 635.096 295.057C635.281 294.818 635.539 294.61 635.869 294.432C636.198 294.25 636.634 294.159 637.175 294.159C637.88 294.159 638.509 294.337 639.062 294.693C639.615 295.049 640.049 295.562 640.363 296.233C640.681 296.903 640.84 297.71 640.84 298.653C640.84 299.597 640.683 300.405 640.369 301.08C640.054 301.75 639.622 302.267 639.073 302.631C638.524 302.991 637.897 303.17 637.192 303.17C636.662 303.17 636.228 303.081 635.891 302.903C635.558 302.725 635.297 302.517 635.107 302.278C634.918 302.04 634.772 301.828 634.67 301.642H634.567V306.273H632.869ZM634.533 298.636C634.533 299.25 634.622 299.788 634.8 300.25C634.978 300.712 635.236 301.074 635.573 301.335C635.91 301.593 636.323 301.722 636.812 301.722C637.319 301.722 637.744 301.587 638.085 301.318C638.425 301.045 638.683 300.676 638.857 300.21C639.035 299.744 639.124 299.22 639.124 298.636C639.124 298.061 639.037 297.544 638.863 297.085C638.692 296.627 638.435 296.265 638.09 296C637.749 295.735 637.323 295.602 636.812 295.602C636.319 295.602 635.903 295.729 635.562 295.983C635.225 296.237 634.969 296.591 634.795 297.045C634.621 297.5 634.533 298.03 634.533 298.636ZM646.817 294.273V295.636H642.05V294.273H646.817ZM643.329 292.182H645.028V300.438C645.028 300.767 645.077 301.015 645.175 301.182C645.274 301.345 645.401 301.456 645.556 301.517C645.715 301.574 645.888 301.602 646.073 301.602C646.21 301.602 646.329 301.593 646.431 301.574C646.533 301.555 646.613 301.54 646.67 301.528L646.977 302.932C646.878 302.97 646.738 303.008 646.556 303.045C646.374 303.087 646.147 303.11 645.874 303.114C645.427 303.121 645.011 303.042 644.624 302.875C644.238 302.708 643.925 302.451 643.687 302.102C643.448 301.754 643.329 301.316 643.329 300.79V292.182ZM648.697 303V294.273H650.396V303H648.697ZM649.555 292.926C649.259 292.926 649.005 292.828 648.793 292.631C648.585 292.43 648.481 292.191 648.481 291.915C648.481 291.634 648.585 291.396 648.793 291.199C649.005 290.998 649.259 290.898 649.555 290.898C649.85 290.898 650.102 290.998 650.31 291.199C650.522 291.396 650.629 291.634 650.629 291.915C650.629 292.191 650.522 292.43 650.31 292.631C650.102 292.828 649.85 292.926 649.555 292.926ZM652.681 303V294.273H654.312V295.693H654.42C654.602 295.212 654.899 294.837 655.312 294.568C655.725 294.295 656.219 294.159 656.795 294.159C657.378 294.159 657.867 294.295 658.261 294.568C658.658 294.841 658.952 295.216 659.141 295.693H659.232C659.441 295.227 659.772 294.856 660.227 294.58C660.681 294.299 661.223 294.159 661.852 294.159C662.643 294.159 663.289 294.407 663.789 294.903C664.293 295.4 664.545 296.148 664.545 297.148V303H662.846V297.307C662.846 296.716 662.685 296.288 662.363 296.023C662.041 295.758 661.656 295.625 661.21 295.625C660.656 295.625 660.227 295.795 659.92 296.136C659.613 296.473 659.46 296.907 659.46 297.438V303H657.766V297.199C657.766 296.725 657.619 296.345 657.323 296.057C657.028 295.769 656.643 295.625 656.17 295.625C655.848 295.625 655.55 295.71 655.278 295.881C655.009 296.047 654.791 296.28 654.624 296.58C654.461 296.879 654.38 297.225 654.38 297.619V303H652.681ZM666.822 303V294.273H668.521V303H666.822ZM667.68 292.926C667.384 292.926 667.13 292.828 666.918 292.631C666.71 292.43 666.606 292.191 666.606 291.915C666.606 291.634 666.71 291.396 666.918 291.199C667.13 290.998 667.384 290.898 667.68 290.898C667.975 290.898 668.227 290.998 668.435 291.199C668.647 291.396 668.754 291.634 668.754 291.915C668.754 292.191 668.647 292.43 668.435 292.631C668.227 292.828 667.975 292.926 667.68 292.926ZM670.624 303V301.835L675.352 295.83V295.75H670.778V294.273H677.471V295.511L672.925 301.443V301.523H677.63V303H670.624ZM682.174 303.193C681.621 303.193 681.121 303.091 680.674 302.886C680.227 302.678 679.873 302.377 679.612 301.983C679.354 301.589 679.225 301.106 679.225 300.534C679.225 300.042 679.32 299.636 679.509 299.318C679.699 299 679.954 298.748 680.276 298.562C680.598 298.377 680.958 298.237 681.356 298.142C681.754 298.047 682.159 297.975 682.572 297.926C683.094 297.866 683.519 297.816 683.844 297.778C684.17 297.737 684.407 297.67 684.555 297.58C684.702 297.489 684.776 297.341 684.776 297.136V297.097C684.776 296.6 684.636 296.216 684.356 295.943C684.079 295.67 683.666 295.534 683.117 295.534C682.545 295.534 682.094 295.661 681.765 295.915C681.439 296.165 681.214 296.443 681.089 296.75L679.492 296.386C679.682 295.856 679.958 295.428 680.322 295.102C680.689 294.773 681.112 294.534 681.589 294.386C682.066 294.235 682.568 294.159 683.094 294.159C683.443 294.159 683.812 294.201 684.202 294.284C684.596 294.364 684.964 294.511 685.305 294.727C685.649 294.943 685.932 295.252 686.151 295.653C686.371 296.051 686.481 296.568 686.481 297.205V303H684.822V301.807H684.754C684.644 302.027 684.479 302.242 684.259 302.455C684.04 302.667 683.757 302.843 683.413 302.983C683.068 303.123 682.655 303.193 682.174 303.193ZM682.543 301.83C683.013 301.83 683.415 301.737 683.748 301.551C684.085 301.366 684.341 301.123 684.515 300.824C684.693 300.521 684.782 300.197 684.782 299.852V298.727C684.721 298.788 684.604 298.845 684.43 298.898C684.259 298.947 684.064 298.991 683.844 299.028C683.625 299.062 683.411 299.095 683.202 299.125C682.994 299.152 682.82 299.174 682.68 299.193C682.35 299.235 682.049 299.305 681.776 299.403C681.507 299.502 681.291 299.644 681.129 299.83C680.969 300.011 680.89 300.254 680.89 300.557C680.89 300.977 681.045 301.295 681.356 301.511C681.666 301.723 682.062 301.83 682.543 301.83ZM692.817 294.273V295.636H688.05V294.273H692.817ZM689.329 292.182H691.028V300.438C691.028 300.767 691.077 301.015 691.175 301.182C691.274 301.345 691.401 301.456 691.556 301.517C691.715 301.574 691.888 301.602 692.073 301.602C692.21 301.602 692.329 301.593 692.431 301.574C692.533 301.555 692.613 301.54 692.67 301.528L692.977 302.932C692.878 302.97 692.738 303.008 692.556 303.045C692.374 303.087 692.147 303.11 691.874 303.114C691.427 303.121 691.011 303.042 690.624 302.875C690.238 302.708 689.925 302.451 689.687 302.102C689.448 301.754 689.329 301.316 689.329 300.79V292.182ZM694.697 303V294.273H696.396V303H694.697ZM695.555 292.926C695.259 292.926 695.005 292.828 694.793 292.631C694.585 292.43 694.481 292.191 694.481 291.915C694.481 291.634 694.585 291.396 694.793 291.199C695.005 290.998 695.259 290.898 695.555 290.898C695.85 290.898 696.102 290.998 696.31 291.199C696.522 291.396 696.629 291.634 696.629 291.915C696.629 292.191 696.522 292.43 696.31 292.631C696.102 292.828 695.85 292.926 695.555 292.926ZM702.357 303.176C701.539 303.176 700.825 302.989 700.215 302.614C699.605 302.239 699.132 301.714 698.795 301.04C698.458 300.366 698.289 299.578 698.289 298.676C698.289 297.771 698.458 296.979 698.795 296.301C699.132 295.623 699.605 295.097 700.215 294.722C700.825 294.347 701.539 294.159 702.357 294.159C703.175 294.159 703.889 294.347 704.499 294.722C705.109 295.097 705.583 295.623 705.92 296.301C706.257 296.979 706.425 297.771 706.425 298.676C706.425 299.578 706.257 300.366 705.92 301.04C705.583 301.714 705.109 302.239 704.499 302.614C703.889 302.989 703.175 303.176 702.357 303.176ZM702.363 301.75C702.893 301.75 703.333 301.61 703.681 301.33C704.03 301.049 704.287 300.676 704.454 300.21C704.624 299.744 704.71 299.231 704.71 298.67C704.71 298.114 704.624 297.602 704.454 297.136C704.287 296.667 704.03 296.29 703.681 296.006C703.333 295.722 702.893 295.58 702.363 295.58C701.829 295.58 701.386 295.722 701.033 296.006C700.685 296.29 700.425 296.667 700.255 297.136C700.088 297.602 700.005 298.114 700.005 298.67C700.005 299.231 700.088 299.744 700.255 300.21C700.425 300.676 700.685 301.049 701.033 301.33C701.386 301.61 701.829 301.75 702.363 301.75ZM710.021 297.818V303H708.322V294.273H709.952V295.693H710.06C710.261 295.231 710.576 294.86 711.004 294.58C711.435 294.299 711.979 294.159 712.634 294.159C713.229 294.159 713.75 294.284 714.197 294.534C714.644 294.78 714.99 295.148 715.237 295.636C715.483 296.125 715.606 296.729 715.606 297.449V303H713.907V297.653C713.907 297.021 713.742 296.527 713.413 296.17C713.083 295.811 712.63 295.631 712.055 295.631C711.661 295.631 711.31 295.716 711.004 295.886C710.701 296.057 710.46 296.307 710.282 296.636C710.108 296.962 710.021 297.356 710.021 297.818Z" fill="#4F5162"/>
<path d="M662.211 370.765L662.172 370.765L647.314 370.765L632.457 370.765C627.061 370.765 622.688 366.391 622.688 360.996C622.688 356.263 626.054 352.315 630.522 351.418C630.614 351.399 630.68 351.319 630.68 351.226C630.68 342.397 637.838 335.24 646.667 335.24C654.347 335.24 660.762 340.656 662.302 347.876C662.386 348.273 662.727 348.566 663.132 348.6C668.832 349.068 673.312 353.843 673.312 359.664C673.312 365.647 668.579 370.524 662.653 370.757V370.765H662.25L662.211 370.765Z" stroke="#0092E4" stroke-width="1.5"/>
<path d="M652.746 349.512C651.344 348.11 648.876 347.136 646.606 347.074M646.606 347.074C643.904 347.001 641.489 348.223 641.489 351.559C641.489 357.7 652.746 354.629 652.746 360.77C652.746 364.272 649.75 365.776 646.606 365.664M646.606 347.074V343.372M640.465 362.817C641.784 364.577 644.238 365.58 646.606 365.664M646.606 365.664V369.981" stroke="#0092E4" stroke-width="1.5" stroke-linecap="round" stroke-linejoin="round"/>
<defs>
<radialGradient id="paint0_radial_4015_48749" cx="0" cy="0" r="1" gradientUnits="userSpaceOnUse" gradientTransform="translate(650.365 225.804) rotate(-10.9787) scale(361.693 1281.82)">
<stop stop-color="#F6F8FB" stop-opacity="0"/>
<stop offset="0.121461" stop-color="#F2F5F9"/>
<stop offset="0.897047" stop-color="#F2F5F9"/>
<stop offset="1" stop-color="#F6F8FB" stop-opacity="0"/>
</radialGradient>
<linearGradient id="paint1_linear_4015_48749" x1="218.472" y1="442.688" x2="1109.45" y2="255.425" gradientUnits="userSpaceOnUse">
<stop stop-color="#25CDF2" stop-opacity="0"/>
<stop offset="0.475965" stop-color="#25CDF2" stop-opacity="0.67"/>
<stop offset="0.74364" stop-color="#25CDF2" stop-opacity="0.7"/>
<stop offset="1" stop-color="#25CDF2" stop-opacity="0"/>
</linearGradient>
</defs>
</svg>
