<svg width="226" height="141" viewBox="0 0 226 141" fill="none" xmlns="http://www.w3.org/2000/svg">
    <g clip-path="url(#clip0_575_90325)">
        <path
            d="M153.26 108.138C145.693 127.441 120.311 135.543 96.569 126.235C72.8269 116.927 59.7149 93.7331 67.2825 74.4305C74.8501 55.1279 100.232 47.0257 123.974 56.3338C147.716 65.6419 160.828 88.8355 153.26 108.138Z"
            fill="url(#paint0_radial_575_90325)" fill-opacity="0.2" />
        <path fill-rule="evenodd" clip-rule="evenodd"
            d="M128.751 70.7112C128.751 77.7688 128.751 90.5926 127.958 94.1176C127.902 94.3651 126.767 94.3816 125.33 94.4024C122.772 94.4395 119.256 94.4905 119.145 95.8801V98.7001C119.145 99.0506 119.165 99.4752 119.186 99.9184C119.253 101.33 119.329 102.93 118.793 102.93L119.145 105.398C118.209 106.334 115.011 108.736 111.9 108.736C108.011 108.736 101.529 107.223 97.8565 102.038C94.9183 97.8901 94.7598 94.2605 95.0479 92.9642V73.3038L128.751 70.7112ZM107.865 86.3626V95.8801L116.325 94.4701V85.3051L107.865 86.3626Z"
            fill="white" />
        <path
            d="M128.751 70.7113L125.295 68.7668L122.702 68.9829L123.134 70.0631C122.918 70.0631 122.14 70.1928 120.758 70.7113C119.375 71.2298 118.885 70.4952 118.813 70.0631V69.415L92.4553 71.1434C92.2393 77.9849 92.1528 92.9211 93.5356 97.9334C95.2639 104.199 103.906 107.007 101.745 105.711C99.5849 104.415 99.1528 103.119 96.9923 100.526C95.2639 98.4519 94.8318 96.061 94.8318 95.1247V73.0878L128.751 70.7113Z"
            fill="url(#paint1_radial_575_90325)" fill-opacity="0.6" />
        <path
            d="M113.628 92.5322V85.8347L116.653 85.4026V92.5322V94.4702L116.005 94.6927L107.579 95.7729V93.1803L113.628 92.5322Z"
            fill="url(#paint2_radial_575_90325)" fill-opacity="0.6" />
        <path fill-rule="evenodd" clip-rule="evenodd"
            d="M120.587 54.4698C122.872 58.4907 123.382 64.2703 122.622 70.2448C122.597 70.4379 122.421 70.5745 122.227 70.55C122.034 70.5254 121.898 70.3489 121.922 70.1558C122.674 64.2476 122.15 58.6475 119.974 54.8181C118.89 52.9108 117.401 51.4475 115.454 50.5915C113.506 49.7348 111.071 49.4734 108.076 50.0224C102.834 50.9835 100.785 55.1426 100.096 57.5544C99.7523 58.759 99.4387 60.7405 99.5394 62.3638C99.5901 63.1806 99.7434 63.8608 100.013 64.3064C100.144 64.5242 100.297 64.6744 100.468 64.7645C100.637 64.8535 100.849 64.8969 101.124 64.8629C101.139 64.8611 101.153 64.8602 101.167 64.8602C101.299 64.8602 101.47 64.7678 101.644 64.2838C101.809 63.824 101.916 63.1669 102.015 62.392C102.043 62.1737 102.071 61.9467 102.098 61.7145C102.168 61.1395 102.24 60.533 102.336 59.9504C102.471 59.132 102.657 58.3232 102.962 57.6625C103.901 55.629 105.08 54.4144 106.228 53.6725C107.372 52.9327 108.466 52.6766 109.206 52.5294C109.215 52.5276 109.225 52.5261 109.234 52.525C112.056 52.1929 114.15 52.7492 115.679 53.9126C117.201 55.0708 118.115 56.7951 118.653 58.7102C119.663 62.3008 119.388 66.6964 119.201 69.6801C119.189 69.8663 119.178 70.047 119.167 70.2217C119.155 70.4161 118.988 70.564 118.794 70.5521C118.599 70.5403 118.451 70.3731 118.463 70.1788C118.474 70.0105 118.484 69.8372 118.495 69.6594C118.683 66.6539 118.951 62.3707 117.975 58.9012C117.46 57.0716 116.609 55.5065 115.252 54.4736C113.904 53.4475 112.009 52.911 109.33 53.2236C108.62 53.3653 107.636 53.6016 106.61 54.2646C105.581 54.9299 104.488 56.0385 103.603 57.9579C103.338 58.5309 103.164 59.2643 103.032 60.0651C102.939 60.6316 102.869 61.213 102.8 61.7819C102.772 62.0179 102.744 62.2518 102.715 62.4815C102.616 63.2488 102.503 63.9797 102.308 64.5223C102.123 65.0343 101.8 65.5523 101.19 65.5649C100.8 65.6099 100.447 65.5499 100.14 65.3885C99.8303 65.2256 99.5914 64.9721 99.4095 64.6712C99.0518 64.0796 98.8888 63.2628 98.8358 62.4075C98.729 60.6867 99.0578 58.6237 99.4186 57.3608C100.139 54.8376 102.321 50.3608 107.949 49.329C111.05 48.7605 113.633 49.0207 115.738 49.9462C117.844 50.8724 119.441 52.4519 120.587 54.4698Z"
            fill="black" />
        <path fill-rule="evenodd" clip-rule="evenodd"
            d="M95.0554 71.5762C95.2501 71.5793 95.4054 71.7395 95.4024 71.9342C95.3769 73.5641 95.3962 76.073 95.4165 78.7046C95.4196 79.1077 95.4227 79.5137 95.4257 79.9198C95.4482 82.9719 95.463 86.0342 95.4022 87.9276C95.3159 90.6149 95.3645 93.6395 95.7233 96.2949C96.0696 98.8575 96.9754 100.536 98.57 102.609C101.273 106.122 104.663 107.348 108.53 108.315C112.263 109.248 115.604 107.494 118.414 105.764C118.58 105.662 118.797 105.714 118.899 105.88C119.001 106.045 118.95 106.262 118.784 106.365C115.978 108.091 112.405 110.01 108.359 108.999C104.449 108.021 100.864 106.746 98.0113 103.039C96.3697 100.905 95.3927 99.1129 95.0247 96.3893C94.6585 93.6797 94.6107 90.6118 94.6976 87.9049C94.7578 86.0285 94.7432 82.9819 94.7207 79.925C94.7177 79.5195 94.7146 79.1138 94.7115 78.7108C94.6913 76.0809 94.6719 73.5621 94.6975 71.9232C94.7005 71.7285 94.8608 71.5732 95.0554 71.5762Z"
            fill="black" />
        <path fill-rule="evenodd" clip-rule="evenodd"
            d="M92.7161 70.064C92.9107 70.0671 93.0661 70.2273 93.063 70.422C93.0376 72.0518 93.0569 74.5608 93.0771 77.1924C93.0802 77.5955 93.0834 78.0015 93.0864 78.4076C93.1088 81.4597 93.1237 84.522 93.0629 86.4154C92.9766 89.1027 93.0251 92.1273 93.384 94.7827L93.0347 94.8299L93.384 94.7827L93.3895 94.8237L93.0403 94.8709L93.3895 94.8237C93.5668 96.1368 93.7852 97.7429 94.9799 99.633C96.1783 101.529 98.3787 103.739 102.574 106.192C102.742 106.291 102.798 106.506 102.7 106.674C102.602 106.843 102.386 106.899 102.218 106.801C97.9595 104.311 95.6608 102.03 94.384 100.01C93.1053 97.9867 92.8712 96.2538 92.6916 94.9236L92.6909 94.9181L92.6909 94.9181L92.6853 94.8771C92.6853 94.8771 92.6853 94.8771 92.6853 94.8771C92.3192 92.1674 92.2713 89.0996 92.3582 86.3927C92.4185 84.5163 92.4039 81.4697 92.3814 78.4128C92.3784 78.0073 92.3753 77.6016 92.3722 77.1985C92.3519 74.5687 92.3325 72.0498 92.3581 70.411C92.3611 70.2163 92.5214 70.061 92.7161 70.064Z"
            fill="black" />
        <path fill-rule="evenodd" clip-rule="evenodd"
            d="M91.9737 70.619C92.1004 70.4711 92.3229 70.454 92.4707 70.5807C93.5489 71.5049 94.0178 71.8754 94.7929 72.4879C95.1007 72.7311 95.4567 73.0124 95.9183 73.3817C96.0703 73.5033 96.095 73.7252 95.9733 73.8772C95.8517 74.0292 95.6299 74.0539 95.4779 73.9322C95.0225 73.5679 94.6689 73.2885 94.3618 73.0458C93.5819 72.4295 93.1013 72.0497 92.0119 71.116C91.8641 70.9893 91.847 70.7668 91.9737 70.619Z"
            fill="black" />
        <path fill-rule="evenodd" clip-rule="evenodd"
            d="M124.328 68.6488C124.409 68.4719 124.619 68.3944 124.796 68.4756C126.977 69.4774 129.145 70.5418 131.288 71.6134C131.462 71.7004 131.532 71.9122 131.445 72.0863C131.358 72.2604 131.147 72.331 130.972 72.2439C128.832 71.1736 126.673 70.1132 124.501 69.1163C124.325 69.035 124.247 68.8258 124.328 68.6488Z"
            fill="black" />
        <path fill-rule="evenodd" clip-rule="evenodd"
            d="M130.618 70.8308C130.628 71.0252 130.478 71.1907 130.283 71.2004C124.352 71.497 118.893 71.9194 113.501 72.3367C113.006 72.375 112.511 72.4133 112.017 72.4514C106.141 72.9046 100.302 73.3372 93.983 73.5771C93.7885 73.5845 93.6248 73.4328 93.6174 73.2383C93.61 73.0437 93.7617 72.88 93.9563 72.8726C100.26 72.6333 106.087 72.2017 111.963 71.7485C112.457 71.7103 112.952 71.672 113.448 71.6337C118.839 71.2165 124.307 70.7934 130.248 70.4963C130.443 70.4866 130.608 70.6363 130.618 70.8308Z"
            fill="black" />
        <path fill-rule="evenodd" clip-rule="evenodd"
            d="M126.945 68.8868C126.955 69.0813 126.805 69.2466 126.61 69.2561C125.334 69.3185 124.937 69.3338 124.541 69.3554C124.148 69.3767 123.756 69.4041 122.512 69.4892C122.318 69.5025 122.15 69.3558 122.136 69.1616C122.123 68.9673 122.27 68.7991 122.464 68.7858C123.713 68.7003 124.108 68.6728 124.504 68.6513C124.903 68.6297 125.302 68.6142 126.576 68.5519C126.77 68.5424 126.936 68.6924 126.945 68.8868ZM119.167 69.3584C119.181 69.5525 119.035 69.7216 118.841 69.736C116.474 69.9113 114.116 70.0972 111.764 70.2826C104.813 70.8306 97.9112 71.3746 90.9581 71.6328C90.7635 71.64 90.6 71.4882 90.5927 71.2936C90.5855 71.0991 90.7374 70.9355 90.9319 70.9283C97.869 70.6707 104.75 70.1283 111.697 69.5807C114.052 69.3951 116.414 69.2088 118.789 69.0329C118.983 69.0185 119.152 69.1642 119.167 69.3584Z"
            fill="black" />
        <path fill-rule="evenodd" clip-rule="evenodd"
            d="M123.271 69.7409C123.436 69.8455 123.484 70.0633 123.38 70.2276C123.116 70.6415 122.59 70.8738 122.127 71.0061C121.644 71.1443 121.124 71.2024 120.758 71.201C119.926 71.1979 118.894 71.1447 118.173 70.3254C118.044 70.1793 118.058 69.9565 118.204 69.8278C118.35 69.6992 118.573 69.7133 118.702 69.8593C119.195 70.419 119.915 70.4929 120.761 70.496C121.065 70.4971 121.518 70.4472 121.933 70.3282C122.37 70.2033 122.67 70.0293 122.785 69.8491C122.889 69.6848 123.107 69.6364 123.271 69.7409Z"
            fill="black" />
        <path fill-rule="evenodd" clip-rule="evenodd"
            d="M107.473 85.4033C107.667 85.4033 107.825 85.5611 107.825 85.7558V96.5582C107.825 96.7529 107.667 96.9107 107.473 96.9107C107.278 96.9107 107.12 96.7529 107.12 96.5582V85.7558C107.12 85.5611 107.278 85.4033 107.473 85.4033Z"
            fill="black" />
        <path fill-rule="evenodd" clip-rule="evenodd"
            d="M116.715 84.7552C116.909 84.7584 117.065 84.9188 117.061 85.1135C117.034 86.7304 117.034 88.488 117.034 90.2224V90.2245C117.034 91.9566 117.034 93.6659 117.007 95.1814C117.004 95.3761 116.843 95.531 116.648 95.5276C116.454 95.5241 116.299 95.3635 116.302 95.1688C116.329 93.6602 116.329 91.9569 116.329 90.2224V90.2206C116.329 88.4881 116.329 86.725 116.356 85.1018C116.36 84.9071 116.52 84.7519 116.715 84.7552Z"
            fill="black" />
        <path fill-rule="evenodd" clip-rule="evenodd"
            d="M118.841 85.1218C118.863 85.3152 118.724 85.4899 118.531 85.5119C116.811 85.7073 115.1 85.8604 113.393 86.0131C110.907 86.2355 108.432 86.4569 105.956 86.8069C105.763 86.8342 105.585 86.7 105.557 86.5072C105.53 86.3145 105.664 86.1361 105.857 86.1089C108.34 85.7579 110.858 85.5322 113.366 85.3075C115.071 85.1547 116.771 85.0023 118.451 84.8114C118.645 84.7894 118.819 84.9284 118.841 85.1218Z"
            fill="black" />
        <path fill-rule="evenodd" clip-rule="evenodd"
            d="M117.732 94.426C117.757 94.6192 117.62 94.7954 117.426 94.8197C115.547 95.056 112.75 95.4317 110.385 95.7492C108.748 95.969 107.319 96.161 106.545 96.2596C106.352 96.2842 106.175 96.1476 106.151 95.9544C106.126 95.7613 106.263 95.5848 106.456 95.5602C107.211 95.464 108.634 95.273 110.268 95.0536C112.644 94.7345 115.468 94.3554 117.339 94.1202C117.532 94.0959 117.708 94.2328 117.732 94.426Z"
            fill="black" />
        <path fill-rule="evenodd" clip-rule="evenodd"
            d="M114.628 92.4133C114.65 92.6068 114.512 92.7815 114.318 92.8036C113.627 92.8826 113.051 92.9478 112.536 93.0061C110.724 93.2113 109.667 93.331 106.976 93.6673C106.783 93.6915 106.607 93.5545 106.583 93.3613C106.559 93.1681 106.696 92.9919 106.889 92.9678C109.583 92.631 110.644 92.5108 112.458 92.3055C112.972 92.2472 113.548 92.182 114.238 92.1031C114.432 92.081 114.606 92.2199 114.628 92.4133Z"
            fill="black" />
        <path fill-rule="evenodd" clip-rule="evenodd"
            d="M113.525 84.9712C113.72 84.9731 113.876 85.1325 113.874 85.3271C113.857 87.1295 113.862 88.6928 113.868 90.334C113.871 91.1848 113.875 92.0565 113.875 92.9934C113.875 93.1881 113.717 93.3459 113.522 93.3459C113.327 93.3459 113.17 93.1881 113.17 92.9934C113.17 92.062 113.166 91.1926 113.163 90.3427C113.157 88.6984 113.152 87.127 113.17 85.3202C113.171 85.1256 113.331 84.9693 113.525 84.9712Z"
            fill="black" />
        <path fill-rule="evenodd" clip-rule="evenodd"
            d="M112.848 91.8253C112.946 91.657 113.161 91.5999 113.33 91.6977C113.519 91.8079 113.799 92.0301 114.102 92.2822C114.357 92.4944 114.645 92.7433 114.937 92.9956C115.001 93.0506 115.065 93.1058 115.129 93.1609C115.488 93.4699 115.843 93.7736 116.15 94.0201C116.467 94.2747 116.703 94.4431 116.831 94.5052C117.006 94.5901 117.08 94.801 116.995 94.9762C116.91 95.1514 116.699 95.2246 116.524 95.1397C116.312 95.0372 116.017 94.8171 115.709 94.5699C115.391 94.3147 115.027 94.0035 114.669 93.6949C114.604 93.639 114.539 93.5832 114.475 93.5277C114.183 93.2756 113.9 93.0317 113.651 92.8238C113.339 92.564 113.104 92.3822 112.975 92.3072C112.807 92.2093 112.75 91.9936 112.848 91.8253Z"
            fill="black" />
        <path fill-rule="evenodd" clip-rule="evenodd"
            d="M128.927 69.6316C129.121 69.6316 129.279 69.7894 129.279 69.9841C129.279 71.5559 129.29 73.0652 129.301 74.5369C129.35 80.9824 129.393 86.7053 128.455 93.7956C128.429 93.9886 128.252 94.1244 128.059 94.0989C127.866 94.0733 127.73 93.8962 127.756 93.7032C128.687 86.6655 128.644 80.9981 128.596 74.5575C128.585 73.0822 128.574 71.5663 128.574 69.9841C128.574 69.7894 128.732 69.6316 128.927 69.6316Z"
            fill="black" />
        <path fill-rule="evenodd" clip-rule="evenodd"
            d="M92.6097 95.2012C92.7366 95.0536 92.9592 95.0368 93.1068 95.1637L95.7296 97.4182C95.8773 97.5452 95.8941 97.7677 95.7672 97.9153C95.6403 98.063 95.4177 98.0798 95.2701 97.9529L92.6473 95.6983C92.4996 95.5714 92.4828 95.3489 92.6097 95.2012ZM93.47 98.8152C93.5969 98.6676 93.8195 98.6508 93.9671 98.7777L97.1396 101.505C97.2873 101.632 97.3041 101.854 97.1772 102.002C97.0503 102.149 96.8277 102.166 96.6801 102.039L93.5076 99.3123C93.3599 99.1854 93.3431 98.9629 93.47 98.8152Z"
            fill="white" />
        <path fill-rule="evenodd" clip-rule="evenodd"
            d="M92.4125 86.6974C92.5394 86.5498 92.762 86.533 92.9096 86.6599L95.3771 88.7809C95.5247 88.9079 95.5415 89.1304 95.4146 89.278C95.2877 89.4257 95.0652 89.4425 94.9175 89.3156L92.45 87.1945C92.3024 87.0676 92.2856 86.8451 92.4125 86.6974ZM92.5328 89.4813C92.6579 89.4239 92.8051 89.4446 92.9096 89.5344L95.3771 91.6554C95.5247 91.7823 95.5415 92.0049 95.4146 92.1525C95.2877 92.3002 95.0652 92.317 94.9175 92.1901L93.0323 90.5695L93.0323 92.1551L95.3771 94.1706C95.5247 94.2975 95.5415 94.5201 95.4146 94.6677C95.2877 94.8154 95.0652 94.8322 94.9175 94.7053L92.45 92.5842C92.3721 92.5172 92.3273 92.4196 92.3273 92.3169L92.3273 89.8017C92.3273 89.664 92.4076 89.5388 92.5328 89.4813Z"
            fill="white" />
        <path fill-rule="evenodd" clip-rule="evenodd"
            d="M92.4125 78.391C92.5394 78.2434 92.762 78.2266 92.9096 78.3535L95.0246 80.1715C95.1722 80.2985 95.189 80.521 95.0621 80.6686C94.9352 80.8163 94.7127 80.8331 94.565 80.7062L92.45 78.8881C92.3024 78.7612 92.2856 78.5387 92.4125 78.391ZM92.4115 81.3281C92.5377 81.1799 92.7602 81.1621 92.9084 81.2884C93.2193 81.5532 93.5698 81.8404 93.9226 82.1296L93.9699 82.1683C94.3372 82.4694 94.7052 82.7715 95.0246 83.046C95.1722 83.1729 95.189 83.3955 95.0621 83.5431C94.9352 83.6908 94.7127 83.7076 94.565 83.5807C94.253 83.3125 93.8915 83.0156 93.523 82.7136C93.5066 82.7001 93.4901 82.6867 93.4737 82.6732C93.1226 82.3855 92.7674 82.0944 92.4512 81.825C92.303 81.6988 92.2852 81.4763 92.4115 81.3281ZM92.4125 83.7807C92.5394 83.6331 92.762 83.6163 92.9096 83.7432L95.0246 85.5612C95.1722 85.6881 95.189 85.9107 95.0621 86.0583C94.9352 86.2059 94.7127 86.2228 94.565 86.0958L92.45 84.2778C92.3024 84.1509 92.2856 83.9283 92.4125 83.7807ZM107.221 93.9882C107.348 93.8437 107.568 93.8286 107.715 93.9543C108.076 94.265 108.265 94.4457 108.451 94.6227L109.16 95.2668C109.302 95.3964 109.314 95.6166 109.187 95.7611C109.059 95.9056 108.839 95.9207 108.693 95.795C108.34 95.4919 108.153 95.3137 107.97 95.1389L107.248 94.4825C107.105 94.3529 107.093 94.1327 107.221 93.9882ZM109.008 92.8306C109.134 92.6829 109.357 92.6659 109.504 92.7925L110.744 93.855C110.745 93.8557 110.746 93.8564 110.746 93.8571C111.171 94.2205 111.595 94.5834 111.972 94.9079C112.12 95.0347 112.137 95.2571 112.01 95.4048C111.883 95.5524 111.661 95.5694 111.513 95.4428C111.136 95.1187 110.712 94.7559 110.287 94.3921C110.286 94.3913 110.285 94.3906 110.285 94.3898L110.282 94.3877C109.856 94.0226 109.428 93.6564 109.045 93.3275C108.898 93.2006 108.881 92.9782 109.008 92.8306Z"
            fill="white" />
        <path fill-rule="evenodd" clip-rule="evenodd"
            d="M92.227 73.1505C92.3536 73.0026 92.5762 72.9853 92.7241 73.1119C93.5526 73.8211 94.4258 74.5649 95.3301 75.3326C95.4785 75.4586 95.4967 75.681 95.3707 75.8294C95.2447 75.9778 95.0222 75.996 94.8738 75.87C93.969 75.1018 93.0951 74.3575 92.2656 73.6475C92.1177 73.5209 92.1004 73.2984 92.227 73.1505ZM94.1658 71.5823C94.2927 71.4346 94.5153 71.4178 94.6629 71.5448L96.7779 73.3628C96.9256 73.4897 96.9424 73.7123 96.8155 73.8599C96.6886 74.0075 96.466 74.0243 96.3184 73.8974L94.2034 72.0794C94.0557 71.9525 94.0389 71.7299 94.1658 71.5823ZM92.194 75.4392C92.3209 75.2916 92.5435 75.2748 92.6911 75.4017L95.298 77.6425C95.4456 77.7694 95.4624 77.992 95.3355 78.1396C95.2086 78.2873 94.986 78.3041 94.8384 78.1772L92.2316 75.9363C92.0839 75.8094 92.0671 75.5869 92.194 75.4392ZM113.158 86.8377C113.285 86.6901 113.508 86.6733 113.655 86.8002L116.715 89.4303C116.862 89.5572 116.879 89.7798 116.752 89.9274C116.625 90.075 116.403 90.0918 116.255 89.9649L113.196 87.3348C113.048 87.2079 113.031 86.9854 113.158 86.8377ZM113.238 89.6577C113.365 89.5101 113.587 89.4933 113.735 89.6202L116.794 92.2503C116.942 92.3772 116.959 92.5998 116.832 92.7474C116.705 92.895 116.483 92.9118 116.335 92.7849L113.275 90.1548C113.128 90.0279 113.111 89.8054 113.238 89.6577ZM111.493 92.4582C111.631 92.3205 111.854 92.3205 111.992 92.4582L114.107 94.5733C114.244 94.7109 114.244 94.9341 114.107 95.0718C113.969 95.2094 113.746 95.2094 113.608 95.0718L111.493 92.9567C111.356 92.8191 111.356 92.5959 111.493 92.4582Z"
            fill="white" />
        <path fill-rule="evenodd" clip-rule="evenodd"
            d="M96.3188 70.6195C96.4464 70.4724 96.669 70.4567 96.8161 70.5842L99.5404 72.948C99.6875 73.0756 99.7032 73.2982 99.5756 73.4453C99.4481 73.5923 99.2254 73.6081 99.0784 73.4805L96.3541 71.1167C96.207 70.9892 96.1912 70.7665 96.3188 70.6195ZM99.4903 70.6207C99.6172 70.4731 99.8397 70.4563 99.9873 70.5832C100.363 70.9057 100.721 71.2658 101.067 71.6132L101.068 71.615C101.418 71.9668 101.756 72.3055 102.102 72.6036C102.25 72.7305 102.267 72.9531 102.14 73.1007C102.013 73.2483 101.79 73.2651 101.643 73.1382C101.274 72.8216 100.92 72.4658 100.577 72.1206L100.569 72.1123C100.219 71.7607 99.8793 71.4199 99.5278 71.1178C99.3802 70.9909 99.3633 70.7683 99.4903 70.6207ZM102.672 70.2602C102.8 70.1213 103.016 70.1091 103.16 70.2326C103.497 70.5226 103.877 70.9253 104.238 71.3088L104.246 71.3171C104.246 71.3172 104.246 71.3173 104.246 71.3173L105.294 72.3657C105.428 72.4997 105.432 72.7157 105.304 72.8546C105.175 72.9936 104.959 73.0058 104.815 72.8822C104.481 72.5951 104.104 72.195 103.744 71.8128L103.74 71.8084L102.681 70.7492C102.547 70.6152 102.543 70.3992 102.672 70.2602Z"
            fill="white" />
        <path fill-rule="evenodd" clip-rule="evenodd"
            d="M105.835 70.1116C105.962 69.964 106.185 69.9472 106.332 70.0741L108.8 72.1951C108.947 72.322 108.964 72.5446 108.837 72.6922C108.71 72.8398 108.488 72.8566 108.34 72.7297L105.873 70.6087C105.725 70.4818 105.708 70.2592 105.835 70.1116ZM108.303 69.7175C108.43 69.5698 108.652 69.553 108.8 69.6799L111.267 71.801C111.415 71.9279 111.432 72.1504 111.305 72.2981C111.178 72.4457 110.955 72.4625 110.808 72.3356L108.34 70.2146C108.193 70.0877 108.176 69.8651 108.303 69.7175ZM111.647 69.7175C111.774 69.5698 111.996 69.553 112.144 69.6799L114.268 71.5057C114.415 71.6326 114.432 71.8551 114.305 72.0028C114.178 72.1504 113.956 72.1672 113.808 72.0403L111.684 70.2146C111.537 70.0877 111.52 69.8651 111.647 69.7175Z"
            fill="white" />
        <path fill-rule="evenodd" clip-rule="evenodd"
            d="M115.402 69.5652C115.529 69.4176 115.752 69.4008 115.9 69.5277L117.95 71.2902C118.098 71.4171 118.114 71.6396 117.987 71.7873C117.861 71.9349 117.638 71.9517 117.49 71.8248L115.44 70.0623C115.292 69.9354 115.276 69.7128 115.402 69.5652ZM117.918 69.2127C118.045 69.0651 118.268 69.0483 118.415 69.1752L120.466 70.9377C120.613 71.0646 120.63 71.2871 120.503 71.4348C120.376 71.5824 120.154 71.5992 120.006 71.4723L117.956 69.7098C117.808 69.5829 117.791 69.3603 117.918 69.2127ZM122.083 69.9177C122.209 69.7701 122.432 69.7533 122.58 69.8802L123.81 70.9377C123.957 71.0646 123.974 71.2871 123.847 71.4348C123.72 71.5824 123.498 71.5992 123.35 71.4723L122.12 70.4148C121.972 70.2879 121.956 70.0653 122.083 69.9177Z"
            fill="white" />
        <path fill-rule="evenodd" clip-rule="evenodd"
            d="M124.165 68.7634C124.292 68.6158 124.515 68.599 124.662 68.7259L126.777 70.544C126.925 70.6709 126.942 70.8934 126.815 71.0411C126.688 71.1887 126.465 71.2055 126.318 71.0786L124.203 69.2605C124.055 69.1336 124.038 68.9111 124.165 68.7634Z"
            fill="white" />
        <path fill-rule="evenodd" clip-rule="evenodd"
            d="M118.449 94.7959C118.57 94.6431 118.792 94.6171 118.944 94.7378C120.029 95.5946 121.07 96.4848 122.093 97.4097C122.114 97.4283 122.134 97.4469 122.155 97.4654C122.662 97.9243 123.158 98.3729 123.683 98.7875C123.836 98.9082 123.862 99.1298 123.742 99.2826C123.621 99.4354 123.399 99.4615 123.247 99.3409C122.702 98.9112 122.19 98.4483 121.688 97.9935C121.665 97.9732 121.643 97.9529 121.62 97.9327C120.607 97.0164 119.578 96.1365 118.507 95.291C118.355 95.1703 118.329 94.9487 118.449 94.7959Z"
            fill="#22222A" />
        <path fill-rule="evenodd" clip-rule="evenodd"
            d="M127.589 93.4959C127.738 93.3702 127.96 93.3889 128.086 93.5376C128.735 94.3061 129.6 94.9029 130.479 95.51C130.668 95.6404 130.857 95.7712 131.045 95.9043C131.865 96.4838 132.702 97.0326 133.558 97.5575C133.724 97.6592 133.777 97.8762 133.675 98.0422C133.573 98.2082 133.356 98.2603 133.19 98.1586C132.322 97.6263 131.471 97.069 130.638 96.4799C130.466 96.3578 130.287 96.2345 130.104 96.1088C129.223 95.5015 128.264 94.8401 127.547 93.9927C127.422 93.844 127.44 93.6216 127.589 93.4959Z"
            fill="#22222A" />
        <path fill-rule="evenodd" clip-rule="evenodd"
            d="M118.183 104.5C118.298 104.343 118.518 104.309 118.675 104.423C119.646 105.132 120.526 105.919 121.385 106.705C121.494 106.805 121.604 106.906 121.713 107.006C122.461 107.692 123.2 108.37 123.987 109C124.139 109.121 124.164 109.343 124.042 109.495C123.92 109.647 123.699 109.672 123.547 109.55C122.739 108.904 121.982 108.209 121.235 107.524C121.126 107.424 121.017 107.324 120.909 107.225C120.051 106.441 119.196 105.676 118.26 104.993C118.102 104.878 118.068 104.658 118.183 104.5Z"
            fill="#22222A" />
        <path fill-rule="evenodd" clip-rule="evenodd"
            d="M123.369 98.0667C123.564 98.0693 123.72 98.2292 123.717 98.4238C123.686 100.819 123.626 103.345 123.567 105.789C123.539 106.981 123.511 108.153 123.487 109.281C123.483 109.476 123.322 109.63 123.127 109.626C122.933 109.622 122.778 109.461 122.782 109.266C122.806 108.134 122.834 106.96 122.863 105.767C122.921 103.325 122.981 100.806 123.012 98.4145C123.015 98.2199 123.175 98.0641 123.369 98.0667Z"
            fill="#22222A" />
        <path fill-rule="evenodd" clip-rule="evenodd"
            d="M118.979 94.2742C119.173 94.2768 119.329 94.4367 119.327 94.6314C119.295 97.0261 119.235 99.5522 119.177 101.997C119.148 103.188 119.12 104.361 119.096 105.489C119.092 105.683 118.931 105.838 118.736 105.834C118.542 105.83 118.387 105.668 118.392 105.474C118.416 104.342 118.443 103.167 118.472 101.975C118.53 99.5324 118.59 97.0131 118.622 94.622C118.624 94.4274 118.784 94.2717 118.979 94.2742Z"
            fill="#22222A" />
        <path fill-rule="evenodd" clip-rule="evenodd"
            d="M132.765 96.3423C132.96 96.3449 133.116 96.5048 133.113 96.6995C133.094 98.1595 133.064 99.6674 133.03 101.175C133.026 101.37 132.865 101.524 132.67 101.52C132.476 101.516 132.321 101.354 132.326 101.16C132.359 99.6527 132.389 98.1472 132.408 96.6902C132.411 96.4955 132.571 96.3398 132.765 96.3423Z"
            fill="#22222A" />
        <path fill-rule="evenodd" clip-rule="evenodd"
            d="M126.541 108.148C126.579 108.339 126.455 108.525 126.264 108.563C125.481 108.72 124.914 108.811 124.407 108.893C124.339 108.904 124.271 108.915 124.205 108.926C123.646 109.017 123.134 109.105 122.426 109.273C122.237 109.318 122.047 109.201 122.002 109.012C121.957 108.822 122.074 108.632 122.263 108.587C122.995 108.414 123.526 108.322 124.092 108.23C124.159 108.219 124.226 108.208 124.295 108.197C124.801 108.115 125.356 108.026 126.126 107.872C126.317 107.834 126.502 107.958 126.541 108.148Z"
            fill="#22222A" />
        <path fill-rule="evenodd" clip-rule="evenodd"
            d="M134.455 97.1564C134.485 97.3487 134.354 97.5293 134.162 97.5598C133.671 97.6378 133.198 97.7132 132.739 97.7864C129.027 98.3785 126.232 98.8243 122.082 99.2854C121.889 99.3069 121.714 99.1674 121.693 98.9739C121.671 98.7805 121.811 98.6062 122.004 98.5847C126.137 98.1255 128.916 97.6822 132.628 97.0902C133.087 97.017 133.56 96.9416 134.051 96.8635C134.244 96.833 134.424 96.9641 134.455 97.1564Z"
            fill="#22222A" />
        <path fill-rule="evenodd" clip-rule="evenodd"
            d="M130.148 94.0666C130.172 94.2598 130.035 94.4357 129.841 94.4595C126.921 94.8189 124.78 95.0089 122.308 95.2284C121.138 95.3322 119.894 95.4426 118.458 95.5807C118.264 95.5993 118.092 95.4573 118.073 95.2635C118.055 95.0697 118.197 94.8975 118.391 94.8789C119.837 94.7398 121.086 94.629 122.258 94.525C124.723 94.3062 126.847 94.1177 129.755 93.7598C129.948 93.736 130.124 93.8733 130.148 94.0666Z"
            fill="#22222A" />
        <path fill-rule="evenodd" clip-rule="evenodd"
            d="M134.819 108.313C134.935 108.157 135.156 108.124 135.312 108.24C136.572 109.174 137.781 110.144 138.97 111.152C138.994 111.173 139.018 111.193 139.042 111.214C139.632 111.714 140.21 112.204 140.822 112.658C140.978 112.774 141.011 112.994 140.895 113.151C140.78 113.307 140.559 113.34 140.402 113.224C139.771 112.757 139.177 112.253 138.592 111.756C138.566 111.734 138.54 111.712 138.514 111.69C137.335 110.69 136.138 109.729 134.892 108.806C134.736 108.69 134.703 108.469 134.819 108.313Z"
            fill="#22222A" />
        <path fill-rule="evenodd" clip-rule="evenodd"
            d="M144.994 106.898C145.139 106.768 145.362 106.779 145.492 106.924C146.252 107.767 147.263 108.423 148.286 109.085C148.505 109.227 148.725 109.369 148.942 109.514C149.896 110.147 150.871 110.746 151.868 111.319C152.036 111.416 152.094 111.632 151.997 111.801C151.9 111.969 151.685 112.028 151.516 111.93C150.507 111.35 149.52 110.743 148.553 110.101C148.351 109.967 148.142 109.832 147.93 109.695C146.905 109.032 145.796 108.315 144.968 107.396C144.838 107.251 144.849 107.028 144.994 106.898Z"
            fill="#22222A" />
        <path fill-rule="evenodd" clip-rule="evenodd"
            d="M134.511 118.899C134.621 118.738 134.84 118.697 135.001 118.807C136.126 119.578 137.148 120.435 138.146 121.293C138.274 121.402 138.401 121.511 138.527 121.62C139.398 122.369 140.257 123.11 141.175 123.798C141.33 123.915 141.362 124.136 141.245 124.292C141.128 124.447 140.907 124.479 140.751 124.362C139.814 123.658 138.935 122.901 138.066 122.153C137.94 122.044 137.813 121.936 137.687 121.827C136.69 120.972 135.693 120.136 134.602 119.389C134.442 119.279 134.401 119.059 134.511 118.899Z"
            fill="#22222A" />
        <path fill-rule="evenodd" clip-rule="evenodd"
            d="M140.5 111.885C140.695 111.885 140.851 112.043 140.849 112.237C140.812 114.85 140.742 117.605 140.674 120.272C140.641 121.572 140.609 122.851 140.581 124.081C140.577 124.276 140.415 124.432 140.22 124.43C140.025 124.429 139.871 124.27 139.875 124.076C139.903 122.841 139.935 121.56 139.968 120.258C140.036 117.594 140.106 114.846 140.142 112.237C140.145 112.043 140.305 111.885 140.5 111.885Z"
            fill="#22222A" />
        <path fill-rule="evenodd" clip-rule="evenodd"
            d="M135.428 106.292C135.623 106.292 135.779 106.45 135.776 106.644C135.735 109.577 135.657 112.671 135.581 115.665C135.544 117.126 135.507 118.562 135.476 119.944C135.472 120.138 135.31 120.295 135.115 120.293C134.92 120.291 134.766 120.133 134.77 119.938C134.801 118.552 134.838 117.113 134.875 115.652C134.951 112.66 135.029 109.573 135.07 106.644C135.073 106.45 135.233 106.292 135.428 106.292Z"
            fill="#22222A" />
        <path fill-rule="evenodd" clip-rule="evenodd"
            d="M151.425 110.004C151.62 110.004 151.776 110.161 151.773 110.356C151.757 111.503 151.734 112.678 151.708 113.86C151.704 114.054 151.543 114.211 151.348 114.209C151.153 114.208 150.998 114.049 151.002 113.855C151.028 112.674 151.051 111.501 151.067 110.356C151.07 110.162 151.23 110.004 151.425 110.004Z"
            fill="#22222A" />
        <path fill-rule="evenodd" clip-rule="evenodd"
            d="M144.272 122.825C144.291 123.019 144.149 123.191 143.955 123.21C143.442 123.26 142.931 123.301 142.422 123.343C141.246 123.439 140.083 123.534 138.942 123.723C138.75 123.755 138.569 123.625 138.537 123.432C138.505 123.24 138.635 123.059 138.827 123.027C139.997 122.834 141.208 122.735 142.397 122.637C142.899 122.596 143.398 122.556 143.888 122.508C144.081 122.49 144.254 122.631 144.272 122.825Z"
            fill="#22222A" />
        <path fill-rule="evenodd" clip-rule="evenodd"
            d="M153.334 111.311C153.352 111.505 153.21 111.677 153.016 111.695C152.441 111.749 151.888 111.802 151.351 111.853C147.006 112.264 143.737 112.573 138.894 112.814C138.699 112.824 138.534 112.674 138.524 112.48C138.515 112.285 138.664 112.12 138.859 112.11C143.686 111.87 146.94 111.562 151.285 111.151C151.822 111.1 152.375 111.047 152.95 110.993C153.144 110.975 153.316 111.118 153.334 111.311Z"
            fill="#22222A" />
        <path fill-rule="evenodd" clip-rule="evenodd"
            d="M148.326 107.495C148.348 107.689 148.21 107.864 148.016 107.886C144.622 108.278 142.135 108.485 139.261 108.724C137.901 108.838 136.454 108.958 134.783 109.109C134.589 109.126 134.418 108.983 134.4 108.79C134.383 108.596 134.526 108.424 134.72 108.407C136.401 108.255 137.852 108.134 139.214 108.021C142.081 107.782 144.553 107.576 147.935 107.186C148.129 107.163 148.304 107.302 148.326 107.495Z"
            fill="#22222A" />
        <path fill-rule="evenodd" clip-rule="evenodd"
            d="M153.407 121.755C153.523 121.599 153.743 121.566 153.9 121.682C155.299 122.719 156.642 123.797 157.962 124.917C157.989 124.939 158.016 124.962 158.043 124.985C158.698 125.541 159.341 126.086 160.022 126.591C160.179 126.707 160.212 126.927 160.096 127.084C159.98 127.24 159.759 127.273 159.603 127.157C158.902 126.638 158.243 126.079 157.593 125.527C157.564 125.503 157.535 125.479 157.506 125.454C156.196 124.343 154.865 123.275 153.48 122.248C153.324 122.132 153.291 121.912 153.407 121.755Z"
            fill="#22222A" />
        <path fill-rule="evenodd" clip-rule="evenodd"
            d="M151.989 133.751C152.099 133.59 152.319 133.549 152.479 133.659C153.728 134.514 154.862 135.466 155.971 136.418C156.112 136.54 156.253 136.661 156.394 136.782C157.361 137.615 158.317 138.438 159.338 139.204C159.493 139.32 159.525 139.541 159.408 139.697C159.291 139.853 159.07 139.884 158.914 139.767C157.874 138.986 156.898 138.147 155.933 137.315C155.792 137.194 155.652 137.073 155.512 136.953C154.404 136.002 153.295 135.072 152.081 134.241C151.92 134.131 151.879 133.911 151.989 133.751Z"
            fill="#22222A" />
        <path fill-rule="evenodd" clip-rule="evenodd"
            d="M158.853 125.139C159.048 125.139 159.204 125.297 159.201 125.491C159.16 128.394 159.082 131.455 159.007 134.418C158.971 135.862 158.935 137.284 158.904 138.651C158.899 138.846 158.738 139.002 158.543 139C158.348 138.999 158.193 138.84 158.198 138.645C158.229 137.274 158.265 135.85 158.301 134.404C158.377 131.444 158.454 128.39 158.495 125.491C158.498 125.297 158.658 125.139 158.853 125.139Z"
            fill="#22222A" />
        <path fill-rule="evenodd" clip-rule="evenodd"
            d="M153.181 120.543C153.376 120.542 153.531 120.7 153.529 120.894C153.488 123.797 153.41 126.858 153.335 129.821C153.298 131.266 153.262 132.687 153.231 134.054C153.227 134.249 153.065 134.405 152.87 134.403C152.675 134.402 152.521 134.243 152.525 134.049C152.556 132.677 152.592 131.253 152.629 129.808C152.704 126.847 152.782 123.793 152.823 120.894C152.825 120.7 152.986 120.543 153.181 120.543Z"
            fill="#22222A" />
        <path fill-rule="evenodd" clip-rule="evenodd"
            d="M170.101 123.728C170.296 123.728 170.451 123.886 170.449 124.08C170.408 126.982 170.33 130.044 170.255 133.006C170.218 134.451 170.182 135.872 170.151 137.24C170.147 137.434 169.985 137.591 169.79 137.589C169.595 137.587 169.441 137.428 169.445 137.234C169.476 135.862 169.512 134.439 169.549 132.993C169.624 130.033 169.702 126.979 169.743 124.08C169.745 123.886 169.906 123.728 170.101 123.728Z"
            fill="#22222A" />
        <path fill-rule="evenodd" clip-rule="evenodd"
            d="M171.124 136.877C171.159 137.069 171.032 137.252 170.841 137.287C167.971 137.814 165.093 138.27 162.196 138.648C161.587 138.727 161.126 138.776 160.723 138.819C159.856 138.911 159.252 138.975 157.997 139.255C157.807 139.297 157.618 139.178 157.576 138.988C157.534 138.798 157.653 138.609 157.843 138.567C159.138 138.278 159.79 138.209 160.678 138.115C161.079 138.072 161.527 138.024 162.104 137.949C164.989 137.573 167.855 137.118 170.713 136.594C170.905 136.559 171.089 136.686 171.124 136.877Z"
            fill="#22222A" />
        <path fill-rule="evenodd" clip-rule="evenodd"
            d="M173.894 124.356C173.918 124.549 173.782 124.725 173.589 124.75C172.952 124.832 172.34 124.91 171.745 124.987C166.936 125.606 163.318 126.071 157.949 126.52C157.755 126.536 157.585 126.392 157.569 126.198C157.553 126.004 157.697 125.833 157.891 125.817C163.243 125.37 166.846 124.907 171.655 124.288C172.25 124.211 172.862 124.132 173.499 124.051C173.692 124.026 173.869 124.163 173.894 124.356Z"
            fill="#22222A" />
        <path fill-rule="evenodd" clip-rule="evenodd"
            d="M167.509 120.227C167.532 120.421 167.393 120.596 167.2 120.618C163.429 121.053 160.666 121.283 157.474 121.549C155.962 121.675 154.354 121.809 152.497 121.977C152.303 121.994 152.132 121.851 152.114 121.657C152.097 121.463 152.24 121.292 152.434 121.275C154.301 121.106 155.914 120.972 157.427 120.846C160.613 120.58 163.359 120.352 167.119 119.918C167.312 119.895 167.487 120.034 167.509 120.227Z"
            fill="#22222A" />
        <path fill-rule="evenodd" clip-rule="evenodd"
            d="M125.654 101.263C125.77 101.107 125.991 101.074 126.147 101.19C127.407 102.124 128.616 103.094 129.805 104.102C129.829 104.123 129.853 104.143 129.877 104.164C130.467 104.664 131.045 105.154 131.657 105.608C131.814 105.724 131.846 105.944 131.731 106.101C131.615 106.257 131.394 106.29 131.237 106.174C130.606 105.707 130.012 105.203 129.427 104.706C129.401 104.684 129.375 104.662 129.349 104.64C128.17 103.64 126.973 102.679 125.727 101.756C125.571 101.64 125.538 101.419 125.654 101.263Z"
            fill="#22222A" />
        <path fill-rule="evenodd" clip-rule="evenodd"
            d="M135.829 99.8479C135.974 99.7176 136.197 99.7293 136.327 99.8739C137.087 100.717 138.098 101.373 139.121 102.035C139.34 102.177 139.56 102.319 139.777 102.464C140.731 103.097 141.706 103.696 142.703 104.269C142.871 104.366 142.929 104.582 142.832 104.751C142.735 104.919 142.52 104.977 142.351 104.88C141.342 104.3 140.355 103.693 139.388 103.051C139.186 102.917 138.977 102.782 138.765 102.645C137.74 101.982 136.631 101.265 135.803 100.346C135.673 100.201 135.684 99.9782 135.829 99.8479Z"
            fill="#22222A" />
        <path fill-rule="evenodd" clip-rule="evenodd"
            d="M125.346 111.849C125.456 111.688 125.675 111.647 125.836 111.757C126.961 112.528 127.983 113.385 128.981 114.242C129.109 114.352 129.236 114.461 129.362 114.57C130.233 115.319 131.092 116.06 132.01 116.748C132.165 116.865 132.197 117.086 132.08 117.241C131.963 117.397 131.742 117.429 131.586 117.312C130.649 116.608 129.77 115.851 128.901 115.103C128.775 114.994 128.648 114.886 128.522 114.777C127.525 113.921 126.528 113.086 125.437 112.339C125.277 112.229 125.236 112.009 125.346 111.849Z"
            fill="#22222A" />
        <path fill-rule="evenodd" clip-rule="evenodd"
            d="M131.335 104.835C131.53 104.835 131.686 104.993 131.684 105.187C131.647 107.799 131.577 110.555 131.509 113.222C131.476 114.522 131.444 115.801 131.416 117.031C131.412 117.226 131.25 117.382 131.055 117.38C130.86 117.379 130.706 117.22 130.71 117.026C130.738 115.791 130.77 114.51 130.803 113.208C130.871 110.544 130.941 107.796 130.977 105.187C130.98 104.993 131.14 104.835 131.335 104.835Z"
            fill="#22222A" />
        <path fill-rule="evenodd" clip-rule="evenodd"
            d="M126.263 99.2422C126.458 99.2422 126.614 99.3997 126.611 99.5941C126.57 102.527 126.492 105.621 126.416 108.616C126.379 110.076 126.342 111.512 126.311 112.894C126.307 113.089 126.145 113.245 125.95 113.243C125.755 113.242 125.601 113.083 125.605 112.888C125.636 111.502 125.673 110.063 125.71 108.602C125.786 105.61 125.864 102.524 125.905 99.5942C125.908 99.3998 126.068 99.2422 126.263 99.2422Z"
            fill="#22222A" />
        <path fill-rule="evenodd" clip-rule="evenodd"
            d="M142.26 102.954C142.455 102.954 142.611 103.112 142.608 103.306C142.605 103.502 142.602 103.717 142.599 103.944C142.582 105.172 142.56 106.769 142.536 107.868C142.531 108.062 142.37 108.219 142.175 108.217C141.98 108.215 141.825 108.057 141.83 107.862C141.854 106.766 141.876 105.173 141.893 103.945C141.896 103.718 141.899 103.503 141.902 103.306C141.905 103.112 142.065 102.954 142.26 102.954Z"
            fill="#22222A" />
        <path fill-rule="evenodd" clip-rule="evenodd"
            d="M135.359 115.588C135.376 115.782 135.233 115.954 135.039 115.971C133.075 116.15 132.413 116.255 130.952 116.488C130.612 116.542 130.228 116.603 129.774 116.673C129.582 116.703 129.402 116.572 129.372 116.379C129.342 116.187 129.474 116.007 129.666 115.977C130.116 115.907 130.498 115.846 130.838 115.792C132.305 115.558 132.987 115.45 134.976 115.269C135.169 115.251 135.341 115.394 135.359 115.588Z"
            fill="#22222A" />
        <path fill-rule="evenodd" clip-rule="evenodd"
            d="M144.169 104.261C144.187 104.455 144.045 104.627 143.851 104.645C143.276 104.699 142.723 104.752 142.186 104.803C137.841 105.214 134.572 105.523 129.729 105.764C129.534 105.774 129.369 105.624 129.359 105.43C129.35 105.235 129.499 105.07 129.694 105.06C134.521 104.82 137.775 104.512 142.12 104.101C142.657 104.05 143.21 103.997 143.785 103.943C143.979 103.925 144.151 104.068 144.169 104.261Z"
            fill="#22222A" />
        <path fill-rule="evenodd" clip-rule="evenodd"
            d="M139.161 100.445C139.183 100.639 139.045 100.814 138.851 100.836C135.457 101.228 132.97 101.435 130.096 101.674C128.736 101.788 127.289 101.908 125.618 102.059C125.424 102.076 125.253 101.933 125.235 101.74C125.218 101.546 125.361 101.374 125.555 101.357C127.236 101.205 128.687 101.084 130.049 100.971C132.917 100.732 135.388 100.526 138.77 100.136C138.964 100.113 139.139 100.252 139.161 100.445Z"
            fill="#22222A" />
        <path fill-rule="evenodd" clip-rule="evenodd"
            d="M144.242 114.705C144.358 114.549 144.579 114.516 144.735 114.632C146.134 115.669 147.477 116.747 148.798 117.867C148.824 117.889 148.851 117.912 148.878 117.935C149.533 118.491 150.176 119.036 150.857 119.541C151.014 119.657 151.047 119.877 150.931 120.034C150.815 120.19 150.594 120.223 150.438 120.107C149.737 119.588 149.078 119.029 148.428 118.477C148.399 118.453 148.37 118.429 148.342 118.404C147.031 117.292 145.7 116.225 144.315 115.198C144.159 115.082 144.126 114.862 144.242 114.705Z"
            fill="#22222A" />
        <path fill-rule="evenodd" clip-rule="evenodd"
            d="M142.824 126.701C142.934 126.54 143.154 126.499 143.314 126.609C144.563 127.464 145.697 128.416 146.806 129.368C146.947 129.49 147.088 129.611 147.229 129.732C148.196 130.565 149.152 131.388 150.173 132.154C150.328 132.271 150.36 132.492 150.243 132.647C150.126 132.803 149.905 132.834 149.749 132.718C148.709 131.937 147.733 131.097 146.768 130.265C146.627 130.144 146.487 130.024 146.347 129.903C145.239 128.952 144.13 128.022 142.916 127.191C142.755 127.081 142.714 126.862 142.824 126.701Z"
            fill="#22222A" />
        <path fill-rule="evenodd" clip-rule="evenodd"
            d="M149.688 118.09C149.883 118.09 150.039 118.247 150.036 118.442C149.995 121.344 149.917 124.405 149.842 127.368C149.806 128.813 149.77 130.234 149.739 131.602C149.734 131.796 149.573 131.952 149.378 131.95C149.183 131.949 149.028 131.79 149.033 131.596C149.064 130.224 149.1 128.8 149.137 127.355C149.212 124.394 149.289 121.34 149.33 118.442C149.333 118.247 149.493 118.09 149.688 118.09Z"
            fill="#22222A" />
        <path fill-rule="evenodd" clip-rule="evenodd"
            d="M144.016 113.492C144.211 113.492 144.366 113.65 144.364 113.844C144.323 116.747 144.245 119.808 144.17 122.771C144.133 124.215 144.097 125.637 144.066 127.004C144.062 127.199 143.9 127.355 143.705 127.353C143.51 127.352 143.356 127.193 143.36 126.998C143.391 125.627 143.427 124.203 143.464 122.757C143.539 119.797 143.617 116.743 143.658 113.844C143.66 113.65 143.821 113.492 144.016 113.492Z"
            fill="#22222A" />
        <path fill-rule="evenodd" clip-rule="evenodd"
            d="M160.55 115.973C160.745 115.973 160.901 116.131 160.898 116.325C160.891 116.848 160.896 117.525 160.9 118.223C160.901 118.284 160.901 118.346 160.902 118.407C160.907 119.166 160.911 119.935 160.898 120.532C160.894 120.726 160.733 120.882 160.538 120.881C160.343 120.88 160.188 120.721 160.192 120.526C160.205 119.942 160.201 119.183 160.196 118.422C160.195 118.36 160.195 118.298 160.194 118.236C160.189 117.54 160.185 116.856 160.192 116.325C160.195 116.131 160.355 115.973 160.55 115.973Z"
            fill="#22222A" />
        <path fill-rule="evenodd" clip-rule="evenodd"
            d="M153.327 131.044C153.374 131.233 153.259 131.425 153.071 131.472C151.969 131.747 151.489 131.813 150.211 131.988C149.827 132.041 149.371 132.103 148.805 132.184C148.612 132.211 148.434 132.078 148.406 131.885C148.379 131.692 148.512 131.514 148.705 131.486C149.286 131.403 149.748 131.34 150.134 131.287C151.398 131.114 151.837 131.054 152.9 130.788C153.088 130.741 153.28 130.856 153.327 131.044Z"
            fill="#22222A" />
        <path fill-rule="evenodd" clip-rule="evenodd"
            d="M164.729 117.306C164.753 117.499 164.617 117.675 164.424 117.7C163.787 117.782 163.175 117.86 162.58 117.937C157.771 118.556 154.153 119.021 148.784 119.47C148.59 119.486 148.42 119.342 148.404 119.148C148.388 118.954 148.532 118.783 148.726 118.767C154.078 118.32 157.681 117.856 162.49 117.238C163.085 117.161 163.697 117.082 164.334 117.001C164.527 116.976 164.704 117.113 164.729 117.306Z"
            fill="#22222A" />
        <path fill-rule="evenodd" clip-rule="evenodd"
            d="M158.344 113.177C158.367 113.371 158.228 113.546 158.035 113.568C154.264 114.003 151.501 114.233 148.309 114.499C146.797 114.625 145.189 114.759 143.332 114.927C143.138 114.944 142.967 114.801 142.95 114.607C142.932 114.413 143.075 114.242 143.269 114.224C145.136 114.056 146.749 113.922 148.262 113.796C151.448 113.53 154.195 113.302 157.954 112.868C158.147 112.845 158.322 112.984 158.344 113.177Z"
            fill="#22222A" />
        <path fill-rule="evenodd" clip-rule="evenodd"
            d="M154.121 113.151C154.244 112.999 154.466 112.977 154.617 113.099L160.257 117.682C160.408 117.804 160.431 118.026 160.309 118.178C160.186 118.329 159.964 118.352 159.813 118.229L154.173 113.646C154.022 113.524 153.999 113.302 154.121 113.151ZM163.283 120.558C163.403 120.404 163.624 120.378 163.778 120.498L170.732 125.956C170.885 126.076 170.912 126.297 170.792 126.451C170.672 126.604 170.45 126.63 170.297 126.51L163.342 121.053C163.189 120.932 163.162 120.711 163.283 120.558Z"
            fill="white" />
        <path fill-rule="evenodd" clip-rule="evenodd"
            d="M131.57 97.3013C131.758 97.3499 131.872 97.5421 131.823 97.7306L130.935 101.179C130.886 101.368 130.694 101.481 130.505 101.433C130.317 101.384 130.203 101.192 130.252 101.003L131.141 97.5547C131.189 97.3662 131.381 97.2527 131.57 97.3013ZM129.287 97.6538C129.475 97.7024 129.589 97.8946 129.54 98.0831L128.651 101.532C128.603 101.72 128.41 101.834 128.222 101.785C128.033 101.737 127.92 101.544 127.969 101.356L128.857 97.9072C128.906 97.7187 129.098 97.6052 129.287 97.6538ZM126.945 98.0063C127.133 98.0549 127.247 98.2471 127.198 98.4356L124.655 108.306C124.606 108.494 124.414 108.608 124.225 108.559C124.037 108.51 123.923 108.318 123.972 108.13L126.515 98.2597C126.564 98.0712 126.756 97.9577 126.945 98.0063ZM124.975 98.0063C125.164 98.0549 125.277 98.2471 125.228 98.4356L123.593 104.781C123.545 104.969 123.352 105.083 123.164 105.034C122.975 104.985 122.862 104.793 122.911 104.605L124.546 98.2597C124.594 98.0712 124.786 97.9577 124.975 98.0063Z"
            fill="white" />
        <path fill-rule="evenodd" clip-rule="evenodd"
            d="M133.997 104.704C134.185 104.752 134.299 104.945 134.25 105.133L131.434 116.061C131.385 116.249 131.193 116.363 131.005 116.314C130.816 116.265 130.703 116.073 130.751 115.885L133.567 104.957C133.616 104.769 133.808 104.655 133.997 104.704ZM132.106 105.056C132.294 105.105 132.408 105.297 132.359 105.486L131.632 108.306C131.584 108.494 131.392 108.608 131.203 108.559C131.015 108.51 130.901 108.318 130.95 108.13L131.676 105.31C131.725 105.121 131.917 105.008 132.106 105.056Z"
            fill="white" />
        <path fill-rule="evenodd" clip-rule="evenodd"
            d="M140.519 104.637C140.707 104.685 140.821 104.877 140.772 105.066L139.937 108.306C139.889 108.494 139.696 108.608 139.508 108.559C139.319 108.51 139.206 108.318 139.255 108.13L140.089 104.89C140.138 104.701 140.33 104.588 140.519 104.637ZM138.268 104.637C138.456 104.685 138.57 104.877 138.521 105.066L137.595 108.658C137.547 108.847 137.355 108.96 137.166 108.911C136.978 108.863 136.864 108.671 136.913 108.482L137.838 104.89C137.887 104.701 138.079 104.588 138.268 104.637ZM136.153 104.849C136.341 104.898 136.455 105.09 136.406 105.279L133.628 116.061C133.579 116.249 133.387 116.363 133.198 116.314C133.01 116.265 132.896 116.073 132.945 115.885L135.723 105.103C135.772 104.914 135.964 104.801 136.153 104.849Z"
            fill="white" />
        <path fill-rule="evenodd" clip-rule="evenodd"
            d="M145.67 111.73C145.859 111.779 145.972 111.971 145.924 112.16L143.102 123.11C143.053 123.299 142.861 123.412 142.672 123.364C142.484 123.315 142.371 123.123 142.419 122.935L145.241 111.984C145.29 111.795 145.482 111.682 145.67 111.73ZM143.206 112.107C143.394 112.157 143.506 112.35 143.456 112.538L140.636 123.113C140.585 123.301 140.392 123.413 140.204 123.363C140.016 123.313 139.904 123.12 139.954 122.932L142.774 112.357C142.825 112.169 143.018 112.057 143.206 112.107ZM141.351 112.106C141.54 112.155 141.653 112.347 141.605 112.535L140.878 115.355C140.829 115.544 140.637 115.657 140.449 115.609C140.26 115.56 140.147 115.368 140.195 115.18L140.922 112.36C140.971 112.171 141.163 112.058 141.351 112.106Z"
            fill="white" />
        <path fill-rule="evenodd" clip-rule="evenodd"
            d="M149.92 111.401C150.108 111.45 150.222 111.642 150.173 111.831L149.628 113.946C149.579 114.134 149.387 114.248 149.199 114.199C149.01 114.15 148.897 113.958 148.945 113.77L149.49 111.655C149.539 111.466 149.731 111.353 149.92 111.401ZM147.859 111.754C148.048 111.802 148.161 111.995 148.113 112.183L147.568 114.298C147.519 114.487 147.327 114.6 147.138 114.552C146.95 114.503 146.836 114.311 146.885 114.122L147.43 112.007C147.478 111.819 147.671 111.705 147.859 111.754Z"
            fill="white" />
        <path fill-rule="evenodd" clip-rule="evenodd"
            d="M156.797 118.072C156.985 118.12 157.099 118.313 157.05 118.501L156.316 121.348C156.268 121.537 156.076 121.65 155.887 121.601C155.699 121.553 155.585 121.361 155.634 121.172L156.367 118.325C156.416 118.137 156.608 118.023 156.797 118.072ZM154.483 118.316C154.671 118.364 154.785 118.557 154.736 118.745L151.431 131.571C151.382 131.759 151.19 131.873 151.002 131.824C150.813 131.775 150.7 131.583 150.748 131.395L154.053 118.569C154.102 118.381 154.294 118.267 154.483 118.316ZM152.024 118.804C152.213 118.852 152.326 119.045 152.278 119.233L150.188 127.341C150.14 127.529 149.947 127.643 149.759 127.594C149.57 127.545 149.457 127.353 149.506 127.165L151.595 119.057C151.643 118.869 151.836 118.755 152.024 118.804Z"
            fill="white" />
        <path fill-rule="evenodd" clip-rule="evenodd"
            d="M158.881 118.099C159.07 118.147 159.183 118.34 159.135 118.528L158.499 120.996C158.45 121.184 158.258 121.297 158.07 121.249C157.881 121.2 157.768 121.008 157.816 120.82L158.452 118.352C158.501 118.164 158.693 118.05 158.881 118.099ZM161.533 125.555C161.722 125.604 161.835 125.796 161.786 125.985L159.135 136.274C159.086 136.462 158.894 136.576 158.705 136.527C158.517 136.479 158.404 136.287 158.452 136.098L161.104 125.809C161.152 125.62 161.344 125.507 161.533 125.555Z"
            fill="white" />
        <path fill-rule="evenodd" clip-rule="evenodd"
            d="M168.164 125.149C168.353 125.197 168.466 125.39 168.418 125.578L165.238 137.916C165.19 138.104 164.998 138.218 164.809 138.169C164.621 138.12 164.507 137.928 164.556 137.74L167.735 125.402C167.784 125.214 167.976 125.1 168.164 125.149ZM165.913 125.149C166.102 125.197 166.215 125.39 166.167 125.578L162.806 138.621C162.757 138.809 162.565 138.923 162.376 138.874C162.188 138.825 162.074 138.633 162.123 138.445L165.484 125.402C165.533 125.214 165.725 125.1 165.913 125.149ZM163.762 125.501C163.95 125.55 164.064 125.742 164.015 125.931L160.745 138.621C160.696 138.809 160.504 138.923 160.316 138.874C160.127 138.825 160.014 138.633 160.062 138.445L163.332 125.755C163.381 125.566 163.573 125.453 163.762 125.501Z"
            fill="white" />
        <path fill-rule="evenodd" clip-rule="evenodd"
            d="M170.016 125.501C170.205 125.55 170.318 125.742 170.27 125.931L167.272 137.563C167.223 137.752 167.031 137.865 166.843 137.816C166.654 137.768 166.541 137.576 166.589 137.387L169.587 125.755C169.635 125.566 169.828 125.453 170.016 125.501ZM170.016 133.145C170.205 133.193 170.318 133.385 170.27 133.574L169.332 137.211C169.284 137.399 169.092 137.513 168.903 137.464C168.714 137.415 168.601 137.223 168.65 137.035L169.587 133.398C169.635 133.209 169.828 133.096 170.016 133.145Z"
            fill="white" />
        <path fill-rule="evenodd" clip-rule="evenodd"
            d="M154.546 126.977C154.731 126.915 154.93 127.015 154.992 127.2C155.663 129.215 156.269 131.241 156.87 133.273C156.925 133.46 156.819 133.656 156.632 133.711C156.446 133.767 156.249 133.66 156.194 133.473C155.593 131.441 154.99 129.426 154.323 127.423C154.262 127.238 154.361 127.038 154.546 126.977Z"
            fill="#0278D5" />
        <path fill-rule="evenodd" clip-rule="evenodd"
            d="M157.738 129.769L153.941 131.167C153.758 131.234 153.562 131.138 153.503 130.952C153.444 130.767 153.545 130.562 153.727 130.495L157.525 129.097C157.707 129.03 157.903 129.126 157.962 129.311C158.021 129.497 157.921 129.702 157.738 129.769Z"
            fill="#0278D5" />
        <path fill-rule="evenodd" clip-rule="evenodd"
            d="M153.142 128.033C153.273 127.889 153.496 127.88 153.64 128.011C154.969 129.229 156.974 130.953 158.193 131.938C158.344 132.061 158.368 132.283 158.245 132.434C158.123 132.586 157.901 132.609 157.75 132.487C156.519 131.492 154.503 129.758 153.164 128.531C153.02 128.399 153.01 128.176 153.142 128.033Z"
            fill="#0278D5" />
        <path fill-rule="evenodd" clip-rule="evenodd"
            d="M156.411 126.617C156.601 126.659 156.721 126.847 156.68 127.037C156.571 127.532 156.466 128.044 156.359 128.562C156.016 130.227 155.66 131.955 155.138 133.414C155.073 133.597 154.871 133.693 154.688 133.627C154.504 133.562 154.409 133.36 154.474 133.177C154.978 131.769 155.319 130.111 155.66 128.457C155.769 127.931 155.877 127.404 155.991 126.886C156.033 126.696 156.221 126.575 156.411 126.617Z"
            fill="#0278D5" />
        <path fill-rule="evenodd" clip-rule="evenodd"
            d="M145.106 120.031C145.286 119.956 145.492 120.04 145.568 120.219C146.392 122.177 147.152 124.151 147.907 126.131C147.976 126.313 147.885 126.516 147.703 126.586C147.522 126.655 147.318 126.564 147.248 126.382C146.493 124.402 145.737 122.439 144.918 120.493C144.843 120.313 144.927 120.107 145.106 120.031Z"
            fill="#0278D5" />
        <path fill-rule="evenodd" clip-rule="evenodd"
            d="M148.503 122.57L144.825 124.255C144.648 124.336 144.445 124.255 144.372 124.075C144.299 123.894 144.383 123.682 144.56 123.601L148.239 121.916C148.416 121.835 148.619 121.916 148.692 122.096C148.765 122.277 148.68 122.489 148.503 122.57Z"
            fill="#0278D5" />
        <path fill-rule="evenodd" clip-rule="evenodd"
            d="M143.788 121.192C143.908 121.039 144.129 121.012 144.282 121.132C145.701 122.244 147.833 123.809 149.123 124.698C149.284 124.808 149.324 125.028 149.214 125.188C149.103 125.349 148.884 125.389 148.724 125.279C147.421 124.381 145.277 122.808 143.847 121.687C143.694 121.567 143.667 121.345 143.788 121.192Z"
            fill="#0278D5" />
        <path fill-rule="evenodd" clip-rule="evenodd"
            d="M146.939 119.529C147.132 119.556 147.266 119.734 147.239 119.927C147.169 120.43 147.103 120.948 147.037 121.472C146.823 123.159 146.6 124.909 146.192 126.404C146.141 126.592 145.947 126.703 145.759 126.651C145.572 126.6 145.461 126.406 145.512 126.218C145.906 124.776 146.119 123.097 146.332 121.422C146.4 120.888 146.468 120.355 146.541 119.83C146.568 119.637 146.746 119.502 146.939 119.529Z"
            fill="#0278D5" />
        <path fill-rule="evenodd" clip-rule="evenodd"
            d="M136.846 112.828C137.032 112.771 137.23 112.875 137.287 113.061C137.834 114.834 138.324 116.615 138.809 118.4C138.86 118.588 138.749 118.782 138.562 118.833C138.374 118.884 138.18 118.773 138.129 118.585C137.643 116.8 137.157 115.029 136.613 113.269C136.556 113.083 136.66 112.886 136.846 112.828Z"
            fill="#0278D5" />
        <path fill-rule="evenodd" clip-rule="evenodd"
            d="M139.606 115.413L136.265 116.559C136.08 116.622 135.887 116.522 135.832 116.335C135.777 116.148 135.882 115.946 136.066 115.882L139.407 114.736C139.592 114.673 139.785 114.773 139.84 114.96C139.895 115.147 139.79 115.349 139.606 115.413Z"
            fill="#0278D5" />
        <path fill-rule="evenodd" clip-rule="evenodd"
            d="M135.581 113.735C135.716 113.594 135.939 113.589 136.08 113.724C137.215 114.812 138.931 116.355 139.975 117.238C140.124 117.364 140.142 117.586 140.017 117.735C139.891 117.883 139.669 117.902 139.52 117.776C138.465 116.884 136.738 115.331 135.592 114.233C135.451 114.098 135.447 113.875 135.581 113.735Z"
            fill="#0278D5" />
        <path fill-rule="evenodd" clip-rule="evenodd"
            d="M138.506 112.55C138.695 112.596 138.811 112.786 138.765 112.975C138.661 113.404 138.559 113.848 138.456 114.297C138.125 115.745 137.779 117.25 137.295 118.517C137.225 118.699 137.021 118.79 136.839 118.72C136.657 118.651 136.567 118.447 136.636 118.265C137.102 117.049 137.431 115.614 137.76 114.177C137.865 113.719 137.97 113.261 138.08 112.809C138.126 112.62 138.316 112.504 138.506 112.55Z"
            fill="#0278D5" />
        <path fill-rule="evenodd" clip-rule="evenodd"
            d="M127.374 105.896C127.553 105.82 127.76 105.904 127.836 106.083C128.558 107.793 129.223 109.515 129.884 111.243C129.954 111.425 129.863 111.629 129.681 111.698C129.499 111.768 129.296 111.677 129.226 111.495C128.564 109.768 127.903 108.055 127.186 106.358C127.111 106.178 127.195 105.971 127.374 105.896Z"
            fill="#0278D5" />
        <path fill-rule="evenodd" clip-rule="evenodd"
            d="M130.376 108.191L127.166 109.666C126.99 109.747 126.787 109.667 126.714 109.487C126.64 109.306 126.724 109.094 126.901 109.013L130.111 107.538C130.288 107.457 130.491 107.537 130.564 107.717C130.637 107.898 130.553 108.11 130.376 108.191Z"
            fill="#0278D5" />
        <path fill-rule="evenodd" clip-rule="evenodd"
            d="M126.206 106.924C126.326 106.771 126.547 106.744 126.701 106.864C127.939 107.833 129.801 109.196 130.928 109.97C131.089 110.08 131.13 110.3 131.019 110.46C130.909 110.621 130.69 110.662 130.529 110.551C129.39 109.769 127.516 108.397 126.266 107.419C126.113 107.299 126.086 107.077 126.206 106.924Z"
            fill="#0278D5" />
        <path fill-rule="evenodd" clip-rule="evenodd"
            d="M128.997 105.452C129.19 105.479 129.325 105.657 129.298 105.85C129.237 106.287 129.18 106.739 129.123 107.196C128.938 108.669 128.745 110.202 128.389 111.511C128.338 111.699 128.144 111.81 127.956 111.759C127.769 111.708 127.658 111.514 127.709 111.326C128.05 110.07 128.234 108.609 128.418 107.147C128.477 106.68 128.536 106.213 128.6 105.753C128.626 105.56 128.804 105.426 128.997 105.452Z"
            fill="#0278D5" />
        <path fill-rule="evenodd" clip-rule="evenodd"
            d="M120.21 98.6409C120.402 98.6049 120.586 98.7308 120.622 98.9221C120.952 100.676 121.227 102.431 121.496 104.19C121.526 104.382 121.394 104.562 121.201 104.592C121.009 104.621 120.829 104.489 120.8 104.297C120.53 102.538 120.257 100.793 119.929 99.0526C119.893 98.8613 120.019 98.677 120.21 98.6409Z"
            fill="#0278D5" />
        <path fill-rule="evenodd" clip-rule="evenodd"
            d="M122.57 101.437L119.253 102.169C119.063 102.211 118.882 102.09 118.848 101.898C118.815 101.706 118.942 101.517 119.132 101.475L122.45 100.742C122.64 100.7 122.821 100.822 122.854 101.014C122.888 101.205 122.76 101.395 122.57 101.437Z"
            fill="#0278D5" />
        <path fill-rule="evenodd" clip-rule="evenodd"
            d="M118.897 99.3723C119.047 99.2479 119.269 99.2684 119.393 99.4181C120.36 100.581 121.832 102.242 122.733 103.199C122.867 103.341 122.86 103.564 122.719 103.697C122.577 103.831 122.354 103.824 122.22 103.682C121.309 102.714 119.827 101.043 118.851 99.8687C118.727 99.719 118.747 99.4968 118.897 99.3723Z"
            fill="#0278D5" />
        <path fill-rule="evenodd" clip-rule="evenodd"
            d="M121.834 98.5559C122.016 98.623 122.11 98.8255 122.043 99.0082C121.897 99.4065 121.752 99.819 121.605 100.237C121.13 101.584 120.637 102.987 120.035 104.145C119.945 104.318 119.733 104.386 119.56 104.296C119.387 104.206 119.32 103.993 119.409 103.821C119.986 102.71 120.456 101.376 120.927 100.039C121.077 99.6124 121.227 99.1854 121.381 98.7656C121.448 98.5828 121.651 98.4889 121.834 98.5559Z"
            fill="#0278D5" />
        <path d="M233.708 164.265L118.793 171.668L108.57 95.5276L114.21 92.3551V86.7151L228.42 121.965L233.708 164.265Z"
            fill="url(#paint3_linear_575_90325)" fill-opacity="0.1" />
        <path
            d="M69.0902 19.7401C69.6542 15.2281 74.4952 13.395 77.5502 13.7475C78.4902 10.575 79.5947 5.00555 87.7727 3.87755C97.9952 2.46755 99.4052 8.81255 99.4052 8.81255C104.693 5.99255 106.808 6.69754 111.39 12.3376C115.973 17.9776 109.628 28.5525 104.34 28.5525C102.93 28.5525 77.9027 29.61 74.7302 28.5525C71.5577 27.495 68.3852 25.3801 69.0902 19.7401Z"
            fill="white" />
        <path fill-rule="evenodd" clip-rule="evenodd"
            d="M89.6498 28.1394C89.8445 28.1394 90.0023 28.2972 90.0023 28.4919V51.8388C90.0023 51.9321 90.0023 52.0257 90.0024 52.1196C90.0032 54.0316 90.0041 56.0497 89.6628 57.6552C89.4832 58.5002 89.2027 59.264 88.7527 59.8475C88.2941 60.442 87.668 60.8368 86.8398 60.9435C80.0218 61.8216 73.4792 61.8219 67.5036 61.8219C66.6217 61.8935 66.0787 62.1262 65.7216 62.6825C65.3363 63.2828 65.123 64.3213 65.123 66.1388L65.123 71.1C65.123 71.2947 64.9652 71.4525 64.7705 71.4525C64.5758 71.4525 64.418 71.2947 64.418 71.1L64.418 66.1388C64.418 64.3091 64.6241 63.0872 65.1283 62.3017C65.6588 61.4752 66.4715 61.1962 67.4618 61.118C67.471 61.1173 67.4803 61.1169 67.4896 61.1169C73.4739 61.1169 79.9778 61.1165 86.7497 60.2443C87.3825 60.1628 87.8438 59.8714 88.1944 59.4168C88.5536 58.9512 88.8043 58.3031 88.9732 57.5086C89.2985 55.9783 89.2979 54.028 89.2973 52.0845C89.2973 52.0026 89.2973 51.9207 89.2973 51.8388V28.4919C89.2973 28.2972 89.4551 28.1394 89.6498 28.1394Z"
            fill="black" />
        <path fill-rule="evenodd" clip-rule="evenodd"
            d="M79.7705 28.9666C79.9651 28.9666 80.123 29.1244 80.123 29.3191C80.123 30.9759 80.1488 32.1467 80.1713 33.1631C80.2085 34.8425 80.2363 36.1002 80.1225 38.4318C80.0741 39.4238 79.4444 40.0976 78.6082 40.5094C77.7804 40.9169 76.7111 41.0929 75.6495 41.1018C70.8853 41.1418 66.9449 41.1293 62.7495 41.116C60.5536 41.109 58.2878 41.1018 55.7975 41.1018C54.4111 41.1018 52.7804 41.0974 51.1767 41.0931C48.0529 41.0846 45.0313 41.0765 44.1154 41.1017C43.2776 41.1247 42.7935 41.3992 42.494 41.7869C42.1797 42.1938 42.0261 42.7789 41.9718 43.5002C41.9197 44.1919 41.9615 44.9574 42.0037 45.7312C42.0053 45.7603 42.0069 45.7895 42.0084 45.8186C42.0513 46.6073 42.0918 47.4104 42.0084 48.0883C41.9846 48.2815 41.8087 48.4189 41.6155 48.3951C41.4222 48.3713 41.2849 48.1954 41.3087 48.0022C41.383 47.398 41.3482 46.6607 41.3045 45.8569C41.3026 45.8219 41.3007 45.7868 41.2987 45.7517C41.2573 44.9929 41.2131 44.186 41.2688 43.4472C41.3268 42.6777 41.4958 41.9259 41.9361 41.356C42.3911 40.7669 43.0936 40.4245 44.096 40.3969C45.0226 40.3714 48.07 40.3797 51.205 40.3881C52.8028 40.3924 54.4234 40.3968 55.7975 40.3968C58.2926 40.3968 60.5603 40.404 62.757 40.411C66.9496 40.4243 70.8832 40.4367 75.6436 40.3968C76.6462 40.3884 77.5988 40.2205 78.2968 39.8769C78.9864 39.5373 79.3864 39.0525 79.4184 38.3974C79.5311 36.0869 79.5038 34.8652 79.4669 33.2074C79.4442 32.1918 79.418 31.0125 79.418 29.3191C79.418 29.1244 79.5758 28.9666 79.7705 28.9666Z"
            fill="black" />
        <path fill-rule="evenodd" clip-rule="evenodd"
            d="M100.933 27.8477C101.128 27.8477 101.286 28.0055 101.286 28.2002L101.286 38.6855C101.401 39.6553 101.619 40.3119 101.922 40.7638C102.22 41.2079 102.618 41.4805 103.154 41.6501C103.703 41.8237 104.389 41.8872 105.251 41.9033C105.752 41.9126 106.293 41.9061 106.887 41.899C107.319 41.8938 107.78 41.8882 108.275 41.8882H144.544C145.671 41.8882 146.684 41.8559 147.592 41.8269C147.884 41.8176 148.165 41.8086 148.435 41.8012C149.536 41.7709 150.476 41.7653 151.227 41.8758C151.977 41.9862 152.605 42.2216 153.014 42.7314C153.421 43.2375 153.553 43.9408 153.492 44.8469C153.491 47.0202 153.466 48.5142 153.446 49.6587C153.418 51.2929 153.402 52.2147 153.491 53.3848C153.505 53.579 153.36 53.7483 153.166 53.7631C152.972 53.7778 152.802 53.6324 152.788 53.4383C152.696 52.2393 152.713 51.2731 152.742 49.5992C152.761 48.4479 152.787 46.9618 152.787 44.8348C152.787 44.8267 152.787 44.8186 152.787 44.8106C152.845 43.9715 152.71 43.479 152.464 43.1728C152.219 42.8678 151.805 42.6736 151.124 42.5732C150.443 42.473 149.563 42.4755 148.454 42.5059C148.189 42.5132 147.912 42.5221 147.622 42.5313C146.712 42.5604 145.683 42.5932 144.544 42.5932H108.275C107.802 42.5932 107.347 42.5986 106.914 42.6038C106.308 42.611 105.745 42.6176 105.237 42.6081C104.363 42.5918 103.591 42.528 102.941 42.3222C102.278 42.1123 101.737 41.7535 101.337 41.1567C100.944 40.5709 100.704 39.7833 100.583 38.7472C100.582 38.7336 100.581 38.7199 100.581 38.7063L100.581 28.2002C100.581 28.0055 100.739 27.8477 100.933 27.8477Z"
            fill="black" />
        <path fill-rule="evenodd" clip-rule="evenodd"
            d="M80.2508 31.6038C80.5556 31.8206 80.7952 32.1652 80.8886 32.505C80.9937 32.8875 80.9316 33.2923 80.737 33.6061C80.5388 33.9257 80.1934 34.1611 79.7548 34.1506C79.45 34.1434 79.1989 34.0306 79.0285 33.8163C78.9638 33.7348 78.9162 33.6455 78.8815 33.5538C78.7336 33.5119 78.6252 33.3759 78.6252 33.2146C78.6252 33.1508 78.6219 33.0804 78.6179 32.9957C78.6162 32.958 78.6143 32.9175 78.6125 32.8735C78.607 32.7396 78.6033 32.5849 78.614 32.4311C78.6335 32.1509 78.7086 31.7386 79.0653 31.5197C79.494 31.2568 79.9398 31.3827 80.2508 31.6038ZM79.6007 32.0786C79.6001 32.0851 79.5994 32.0916 79.5984 32.0982C79.5893 32.1602 79.5792 32.224 79.5689 32.2888C79.5254 32.5613 79.4793 32.8512 79.5002 33.1019C79.5127 33.2518 79.547 33.3356 79.5804 33.3776C79.601 33.4035 79.6419 33.4427 79.7716 33.4458C79.9246 33.4495 80.0514 33.374 80.1378 33.2346C80.2278 33.0895 80.2626 32.8874 80.2088 32.6919C80.1593 32.5117 80.0172 32.3028 79.8422 32.1784C79.7518 32.1141 79.6719 32.0832 79.6007 32.0786Z"
            fill="black" />
        <path fill-rule="evenodd" clip-rule="evenodd"
            d="M90.0723 32.5915C90.6493 32.8219 91.1629 33.5583 90.9417 34.3627C90.8081 34.8486 90.5469 35.1951 90.2094 35.3781C89.8735 35.5603 89.494 35.5614 89.1788 35.4128C88.8623 35.2635 88.6198 34.9676 88.548 34.5812C88.4935 34.288 88.5403 33.9644 88.6949 33.6303C88.7376 33.2465 88.8641 32.9395 89.0874 32.7385C89.3862 32.4695 89.766 32.4692 90.0723 32.5915ZM89.2399 34.2289C89.2269 34.3161 89.2296 34.3908 89.2411 34.4524C89.2711 34.6138 89.366 34.7216 89.4795 34.7751C89.5942 34.8292 89.7372 34.8322 89.8733 34.7584C90.0077 34.6855 90.1678 34.5182 90.2619 34.1758C90.3748 33.7655 90.1028 33.3628 89.8109 33.2462C89.6826 33.195 89.6071 33.2193 89.5591 33.2625C89.5382 33.2813 89.5126 33.3125 89.4875 33.3608C89.536 33.4674 89.5304 33.5958 89.4613 33.7009C89.4333 33.7435 89.4083 33.7848 89.3862 33.8248C89.3843 33.8625 89.3833 33.9026 89.3833 33.945C89.3833 34.0614 89.3269 34.1647 89.2399 34.2289Z"
            fill="black" />
        <path fill-rule="evenodd" clip-rule="evenodd"
            d="M65.7443 69.6904C65.8532 69.9349 65.9005 70.2357 65.8309 70.5477C65.7487 70.9162 65.5831 71.2071 65.3368 71.3718C65.0793 71.5439 64.7733 71.5478 64.5243 71.403C64.0902 71.1507 63.958 70.5782 64.1752 69.9823C64.2017 69.6891 64.2812 69.4417 64.4359 69.27C64.5408 69.1537 64.6766 69.0775 64.8306 69.0564C64.9799 69.036 65.1194 69.0707 65.235 69.1276C65.4604 69.2385 65.6384 69.4523 65.7443 69.6904ZM64.8714 70.1392C64.8836 70.1128 64.8972 70.0856 64.9122 70.0574C64.9594 69.969 64.9651 69.8695 64.9361 69.7813C64.9379 69.7774 64.9397 69.7737 64.9414 69.7704C64.9856 69.7995 65.0508 69.866 65.1002 69.977C65.1539 70.0975 65.1762 70.2443 65.1428 70.3942C65.0844 70.6558 64.99 70.7556 64.945 70.7856C64.9113 70.8082 64.8948 70.8029 64.8786 70.7935C64.8555 70.7801 64.7575 70.6798 64.7769 70.4629C64.8346 70.4001 64.8698 70.3164 64.8698 70.2244C64.8698 70.1945 64.8704 70.1661 64.8714 70.1392Z"
            fill="black" />
        <path fill-rule="evenodd" clip-rule="evenodd"
            d="M101.143 31.4059C101.758 31.5781 102.139 32.2614 101.941 33.0793C101.869 33.3811 101.688 33.7515 101.409 33.9754C101.264 34.0924 101.069 34.1854 100.839 34.1732C100.607 34.161 100.401 34.045 100.228 33.8658C99.9718 33.6014 99.9324 33.2629 99.9588 32.9741C99.7785 32.9299 99.6619 32.752 99.6964 32.5671C99.7777 32.1305 99.9644 31.7936 100.235 31.5857C100.509 31.3754 100.841 31.3213 101.143 31.4059ZM100.938 32.0809C100.935 32.1093 100.929 32.1379 100.919 32.166C100.9 32.2186 100.88 32.2721 100.86 32.3263C100.791 32.5123 100.719 32.7072 100.68 32.9063C100.629 33.1696 100.666 33.3055 100.734 33.3756C100.821 33.4651 100.869 33.4688 100.876 33.4692C100.886 33.4697 100.915 33.4682 100.968 33.4255C101.088 33.3298 101.206 33.1194 101.256 32.9138C101.384 32.384 101.127 32.1337 100.953 32.0848C100.948 32.0834 100.943 32.0821 100.938 32.0809Z"
            fill="black" />
        <path fill-rule="evenodd" clip-rule="evenodd"
            d="M42.7626 46.2552C42.8285 46.4101 42.8842 46.5892 42.8876 46.746C42.8942 47.058 42.8091 47.3682 42.6222 47.6086C42.4296 47.8562 42.1391 48.0139 41.7874 48.0139C41.5196 48.0139 41.2699 47.9282 41.1156 47.7053C41.0038 47.5438 40.9774 47.3576 40.9801 47.1979C40.9665 47.1604 40.9591 47.1199 40.9591 47.0777C40.9591 47.0227 40.9564 46.9592 40.953 46.8812C40.9515 46.8449 40.9498 46.8055 40.9482 46.7624C40.9435 46.6346 40.9401 46.486 40.9483 46.3374C40.9563 46.1908 40.9762 46.0288 41.025 45.8778C41.0735 45.7278 41.1599 45.5602 41.3204 45.4409C41.5522 45.2687 41.811 45.275 42.0234 45.3725C42.2133 45.4596 42.3663 45.6163 42.479 45.7639C42.5959 45.9171 42.6932 46.092 42.7626 46.2552ZM41.9358 46.2148C41.9348 46.2434 41.9302 46.2723 41.9218 46.3011C41.9015 46.3707 41.8768 46.4464 41.8527 46.5199L41.8499 46.5285C41.8262 46.6011 41.8026 46.6733 41.7803 46.7465C41.7332 46.9018 41.6988 47.0406 41.6882 47.1545C41.6801 47.2416 41.6889 47.2831 41.6934 47.2979C41.7067 47.3027 41.7348 47.3089 41.7874 47.3089C41.9124 47.3089 42.001 47.2589 42.0657 47.1757C42.136 47.0853 42.1865 46.9415 42.1827 46.7609C42.1822 46.737 42.1667 46.6554 42.1139 46.5311C42.0683 46.4239 42.0059 46.3109 41.9358 46.2148ZM41.6832 47.2925C41.6835 47.2923 41.6855 47.2932 41.6884 47.2959C41.6844 47.2941 41.683 47.2927 41.6832 47.2925Z"
            fill="black" />
        <path fill-rule="evenodd" clip-rule="evenodd"
            d="M154.102 53.3039C153.975 53.4833 153.79 53.6135 153.556 53.6764C153.333 53.7362 153.117 53.7405 152.919 53.6773C152.72 53.6135 152.565 53.4898 152.453 53.3403C152.237 53.0538 152.168 52.6671 152.168 52.3307C152.168 51.9361 152.201 51.5493 152.445 51.2849C152.521 51.2026 152.61 51.141 152.707 51.0948C152.715 51.0854 152.723 51.0763 152.731 51.0674C152.89 50.899 153.104 50.8301 153.323 50.8814C153.394 50.8979 153.459 50.9255 153.519 50.9599C153.659 50.9785 153.774 51.0795 153.812 51.2136C153.911 51.3317 153.997 51.4715 154.068 51.6182C154.225 51.9431 154.333 52.3566 154.298 52.736C154.281 52.9287 154.225 53.13 154.102 53.3039ZM153.176 51.6858C153.206 51.6811 153.239 51.6769 153.277 51.6733C153.329 51.7369 153.384 51.8226 153.434 51.9255C153.552 52.1698 153.616 52.4538 153.596 52.6719C153.587 52.7779 153.559 52.8504 153.526 52.8966C153.497 52.9374 153.454 52.9738 153.373 52.9955C153.252 53.0281 153.177 53.0195 153.134 53.0056C153.092 52.9923 153.053 52.966 153.016 52.9163C152.932 52.8044 152.873 52.5961 152.873 52.3307C152.873 52.2347 152.876 52.1549 152.881 52.0884C153.004 52.0565 153.105 51.9591 153.136 51.827C153.149 51.7696 153.163 51.7231 153.176 51.6858Z"
            fill="black" />
        <path d="M131.835 52.875H176.25V65.565H131.835V52.875Z" fill="white" />
        <path fill-rule="evenodd" clip-rule="evenodd"
            d="M175.545 53.58H132.54V64.86H175.545V53.58ZM131.835 52.875V65.565H176.25V52.875H131.835Z" fill="black" />
        <path fill-rule="evenodd" clip-rule="evenodd"
            d="M140.799 55.4942C140.994 55.489 141.155 55.6426 141.16 55.8372C141.216 58.0414 141.157 60.2325 141.088 62.4245C141.082 62.6191 140.919 62.772 140.724 62.766C140.53 62.7601 140.377 62.5975 140.383 62.4029C140.453 60.2109 140.511 58.0378 140.455 55.8558C140.451 55.6612 140.604 55.4993 140.799 55.4942Z"
            fill="#0278D5" />
        <path fill-rule="evenodd" clip-rule="evenodd"
            d="M144.651 59.2961L137.58 59.3526C137.386 59.3541 137.227 59.1976 137.227 59.0029C137.227 58.8082 137.384 58.6491 137.579 58.6476L144.649 58.5912C144.844 58.5896 145.002 58.7462 145.002 58.9408C145.003 59.1355 144.845 59.2946 144.651 59.2961Z"
            fill="#0278D5" />
        <path fill-rule="evenodd" clip-rule="evenodd"
            d="M137.964 56.0959C138.105 55.9614 138.328 55.9664 138.463 56.1071C140.037 57.7556 142.473 60.1319 143.987 61.5158C144.13 61.6471 144.14 61.8701 144.009 62.0138C143.877 62.1575 143.654 62.1676 143.511 62.0364C141.985 60.6418 139.538 58.2544 137.952 56.5942C137.818 56.4535 137.823 56.2304 137.964 56.0959Z"
            fill="#0278D5" />
        <path fill-rule="evenodd" clip-rule="evenodd"
            d="M144.041 55.8336C144.179 55.9706 144.18 56.1938 144.043 56.3321C143.599 56.7799 143.152 57.2441 142.701 57.7135C141.251 59.2208 139.749 60.7819 138.114 62.0235C137.959 62.1413 137.738 62.1111 137.62 61.9561C137.502 61.8011 137.533 61.5799 137.688 61.4622C139.275 60.2571 140.723 58.7525 142.164 57.254C142.623 56.7774 143.081 56.3015 143.543 55.836C143.68 55.6977 143.903 55.6966 144.041 55.8336Z"
            fill="#0278D5" />
        <path fill-rule="evenodd" clip-rule="evenodd"
            d="M149.505 55.4693C149.7 55.4641 149.862 55.6177 149.866 55.8123C149.923 58.0165 149.863 60.2076 149.794 62.3996C149.788 62.5942 149.625 62.7471 149.431 62.7411C149.236 62.7351 149.083 62.5726 149.089 62.378C149.159 60.186 149.217 58.0129 149.162 55.8309C149.157 55.6363 149.311 55.4744 149.505 55.4693Z"
            fill="#0278D5" />
        <path fill-rule="evenodd" clip-rule="evenodd"
            d="M153.357 59.2712L146.286 59.3277C146.092 59.3292 145.934 59.1727 145.933 58.978C145.933 58.7833 146.091 58.6242 146.285 58.6227L153.356 58.5663C153.55 58.5647 153.708 58.7213 153.709 58.9159C153.709 59.1106 153.551 59.2697 153.357 59.2712Z"
            fill="#0278D5" />
        <path fill-rule="evenodd" clip-rule="evenodd"
            d="M146.67 56.071C146.811 55.9365 147.034 55.9415 147.169 56.0822C148.743 57.7307 151.179 60.107 152.693 61.4909C152.836 61.6222 152.846 61.8452 152.715 61.9889C152.583 62.1326 152.36 62.1427 152.217 62.0115C150.691 60.6169 148.244 58.2295 146.659 56.5693C146.524 56.4286 146.53 56.2055 146.67 56.071Z"
            fill="#0278D5" />
        <path fill-rule="evenodd" clip-rule="evenodd"
            d="M152.747 55.8087C152.886 55.9457 152.886 56.1689 152.749 56.3072C152.305 56.755 151.859 57.2192 151.407 57.6886C149.957 59.1959 148.455 60.757 146.82 61.9986C146.665 62.1163 146.444 62.0862 146.326 61.9312C146.209 61.7762 146.239 61.555 146.394 61.4373C147.981 60.2322 149.429 58.7276 150.871 57.2291C151.329 56.7525 151.787 56.2766 152.249 55.8111C152.386 55.6728 152.609 55.6717 152.747 55.8087Z"
            fill="#0278D5" />
        <path fill-rule="evenodd" clip-rule="evenodd"
            d="M157.958 55.4912C158.153 55.4861 158.315 55.6397 158.32 55.8343C158.376 58.0385 158.317 60.2296 158.247 62.4216C158.241 62.6162 158.079 62.7691 157.884 62.7631C157.689 62.7571 157.537 62.5945 157.543 62.4C157.612 60.2079 157.671 58.0348 157.615 55.8529C157.61 55.6583 157.764 55.4964 157.958 55.4912Z"
            fill="#0278D5" />
        <path fill-rule="evenodd" clip-rule="evenodd"
            d="M161.81 59.2932L154.74 59.3496C154.545 59.3512 154.387 59.1946 154.387 58.9999C154.386 58.8053 154.544 58.6462 154.739 58.6446L161.809 58.5882C162.004 58.5867 162.162 58.7432 162.162 58.9379C162.162 59.1326 162.005 59.2917 161.81 59.2932Z"
            fill="#0278D5" />
        <path fill-rule="evenodd" clip-rule="evenodd"
            d="M155.124 56.093C155.265 55.9584 155.488 55.9635 155.622 56.1042C157.196 57.7526 159.632 60.129 161.146 61.5129C161.29 61.6442 161.3 61.8671 161.168 62.0109C161.037 62.1546 160.814 62.1647 160.67 62.0334C159.145 60.6389 156.697 58.2514 155.112 56.5913C154.978 56.4506 154.983 56.2275 155.124 56.093Z"
            fill="#0278D5" />
        <path fill-rule="evenodd" clip-rule="evenodd"
            d="M161.201 55.8304C161.339 55.9675 161.34 56.1906 161.203 56.3289C160.758 56.7767 160.312 57.2409 159.86 57.7104C158.41 59.2177 156.909 60.7788 155.273 62.0203C155.118 62.1381 154.897 62.1079 154.779 61.9529C154.662 61.7979 154.692 61.5768 154.847 61.459C156.435 60.254 157.882 58.7493 159.324 57.2508C159.783 56.7743 160.241 56.2983 160.702 55.8328C160.839 55.6945 161.063 55.6934 161.201 55.8304Z"
            fill="#0278D5" />
        <path fill-rule="evenodd" clip-rule="evenodd"
            d="M165.848 55.5008C166.043 55.4956 166.205 55.6492 166.21 55.8438C166.266 58.048 166.207 60.2391 166.137 62.4311C166.131 62.6257 165.968 62.7786 165.774 62.7726C165.579 62.7666 165.426 62.6041 165.433 62.4095C165.502 60.2175 165.56 58.0444 165.505 55.8624C165.5 55.6678 165.654 55.5059 165.848 55.5008Z"
            fill="#0278D5" />
        <path fill-rule="evenodd" clip-rule="evenodd"
            d="M169.7 59.3027L162.63 59.3591C162.435 59.3607 162.277 59.2041 162.277 59.0095C162.276 58.8148 162.434 58.6557 162.628 58.6542L169.699 58.5978C169.893 58.5962 170.051 58.7528 170.052 58.9474C170.052 59.1421 169.895 59.3012 169.7 59.3027Z"
            fill="#0278D5" />
        <path fill-rule="evenodd" clip-rule="evenodd"
            d="M163.014 56.1025C163.154 55.968 163.378 55.973 163.512 56.1137C165.086 57.7622 167.522 60.1385 169.036 61.5224C169.18 61.6537 169.19 61.8767 169.058 62.0204C168.927 62.1641 168.704 62.1742 168.56 62.0429C167.034 60.6484 164.587 58.261 163.002 56.6008C162.867 56.4601 162.873 56.237 163.014 56.1025Z"
            fill="#0278D5" />
        <path fill-rule="evenodd" clip-rule="evenodd"
            d="M169.091 55.8402C169.229 55.9772 169.23 56.2004 169.092 56.3387C168.648 56.7864 168.202 57.2507 167.75 57.7201C166.3 59.2274 164.798 60.7885 163.163 62.0301C163.008 62.1478 162.787 62.1177 162.669 61.9627C162.552 61.8077 162.582 61.5865 162.737 61.4687C164.324 60.2637 165.772 58.7591 167.214 57.2606C167.672 56.784 168.13 56.3081 168.592 55.8425C168.729 55.7042 168.952 55.7032 169.091 55.8402Z"
            fill="#0278D5" />
        <path d="M42.3 70.5H86.715V83.19H42.3V70.5Z" fill="white" />
        <path fill-rule="evenodd" clip-rule="evenodd"
            d="M86.01 71.205H43.005V82.485H86.01V71.205ZM42.3 70.5V83.19H86.715V70.5H42.3Z" fill="black" />
        <path fill-rule="evenodd" clip-rule="evenodd"
            d="M52.0274 73.4807C52.2221 73.4775 52.3825 73.6326 52.3858 73.8272C52.423 76.0319 52.3452 78.2225 52.2571 80.4138C52.2493 80.6083 52.0853 80.7597 51.8907 80.7519C51.6962 80.744 51.5449 80.58 51.5527 80.3855C51.6408 78.1941 51.7178 76.0216 51.6809 73.8391C51.6776 73.6445 51.8328 73.484 52.0274 73.4807Z"
            fill="#0278D5" />
        <path fill-rule="evenodd" clip-rule="evenodd"
            d="M55.8462 77.3193L48.776 77.3083C48.5813 77.308 48.4246 77.15 48.4259 76.9553C48.4272 76.7606 48.5861 76.603 48.7808 76.6033L55.851 76.6143C56.0457 76.6146 56.2024 76.7727 56.2011 76.9674C56.1998 77.162 56.0408 77.3196 55.8462 77.3193Z"
            fill="#0278D5" />
        <path fill-rule="evenodd" clip-rule="evenodd"
            d="M49.1877 74.0556C49.3297 73.9224 49.5528 73.9295 49.686 74.0715C51.2461 75.735 53.6614 78.1346 55.1634 79.5329C55.3059 79.6656 55.3138 79.8886 55.1812 80.0311C55.0485 80.1736 54.8255 80.1816 54.683 80.0489C53.1695 78.6398 50.7429 76.229 49.1717 74.5538C49.0386 74.4118 49.0457 74.1887 49.1877 74.0556Z"
            fill="#0278D5" />
        <path fill-rule="evenodd" clip-rule="evenodd"
            d="M55.2665 73.8512C55.4035 73.9895 55.4024 74.2127 55.2641 74.3497C54.8162 74.7932 54.3657 75.2532 53.9101 75.7183C52.4474 77.2118 50.9324 78.7586 49.2867 79.9845C49.1306 80.1008 48.9097 80.0685 48.7934 79.9124C48.6771 79.7563 48.7094 79.5354 48.8655 79.4191C50.4629 78.2292 51.9233 76.7384 53.3778 75.2537C53.8404 74.7815 54.3024 74.3099 54.768 73.8488C54.9063 73.7118 55.1295 73.7129 55.2665 73.8512Z"
            fill="#0278D5" />
        <path fill-rule="evenodd" clip-rule="evenodd"
            d="M60.733 73.5388C60.9277 73.5356 61.0881 73.6907 61.0914 73.8853C61.1286 76.09 61.0508 78.2806 60.9627 80.4719C60.9549 80.6664 60.7908 80.8178 60.5963 80.81C60.4018 80.8021 60.2504 80.6381 60.2583 80.4436C60.3464 78.2522 60.4233 76.0797 60.3865 73.8972C60.3832 73.7026 60.5384 73.5421 60.733 73.5388Z"
            fill="#0278D5" />
        <path fill-rule="evenodd" clip-rule="evenodd"
            d="M64.5518 77.3774L57.4816 77.3664C57.2869 77.3661 57.1302 77.2081 57.1316 77.0134C57.1329 76.8187 57.2918 76.6611 57.4865 76.6614L64.5567 76.6724C64.7514 76.6727 64.9081 76.8308 64.9068 77.0255C64.9054 77.2201 64.7465 77.3777 64.5518 77.3774Z"
            fill="#0278D5" />
        <path fill-rule="evenodd" clip-rule="evenodd"
            d="M57.8934 74.1134C58.0354 73.9802 58.2585 73.9874 58.3916 74.1294C59.9518 75.7929 62.3671 78.1924 63.869 79.5908C64.0115 79.7234 64.0195 79.9465 63.8868 80.089C63.7542 80.2314 63.5311 80.2394 63.3886 80.1068C61.8751 78.6977 59.4485 76.2869 57.8774 74.6117C57.7442 74.4697 57.7514 74.2466 57.8934 74.1134Z"
            fill="#0278D5" />
        <path fill-rule="evenodd" clip-rule="evenodd"
            d="M63.9721 73.909C64.1091 74.0474 64.108 74.2706 63.9697 74.4075C63.5219 74.8511 63.0714 75.311 62.6158 75.7762C61.153 77.2697 59.6381 78.8164 57.9924 80.0424C57.8362 80.1587 57.6154 80.1264 57.4991 79.9703C57.3828 79.8141 57.4151 79.5933 57.5712 79.477C59.1685 78.2871 60.629 76.7963 62.0834 75.3115C62.546 74.8393 63.008 74.3677 63.4736 73.9066C63.612 73.7696 63.8351 73.7707 63.9721 73.909Z"
            fill="#0278D5" />
        <path fill-rule="evenodd" clip-rule="evenodd"
            d="M69.4504 73.305C69.6451 73.3017 69.8056 73.4568 69.8088 73.6515C69.8461 75.8562 69.7682 78.0467 69.6801 80.238C69.6723 80.4325 69.5083 80.5839 69.3137 80.5761C69.1192 80.5683 68.9679 80.4042 68.9757 80.2097C69.0638 78.0183 69.1408 75.8458 69.1039 73.6634C69.1007 73.4687 69.2558 73.3082 69.4504 73.305Z"
            fill="#0278D5" />
        <path fill-rule="evenodd" clip-rule="evenodd"
            d="M73.2692 77.1435L66.199 77.1325C66.0043 77.1322 65.8476 76.9742 65.8489 76.7795C65.8502 76.5848 66.0092 76.4272 66.2038 76.4276L73.274 76.4385C73.4687 76.4388 73.6254 76.5969 73.6241 76.7916C73.6228 76.9863 73.4639 77.1438 73.2692 77.1435Z"
            fill="#0278D5" />
        <path fill-rule="evenodd" clip-rule="evenodd"
            d="M66.6108 73.8798C66.7528 73.7466 66.9759 73.7537 67.1091 73.8957C68.6692 75.5592 71.0845 77.9588 72.5865 79.3571C72.729 79.4898 72.7369 79.7128 72.6043 79.8553C72.4716 79.9978 72.2486 80.0058 72.1061 79.8731C70.5926 78.464 68.166 76.0533 66.5948 74.378C66.4617 74.236 66.4688 74.0129 66.6108 73.8798Z"
            fill="#0278D5" />
        <path fill-rule="evenodd" clip-rule="evenodd"
            d="M72.6895 73.6754C72.8265 73.8137 72.8254 74.0369 72.6871 74.1739C72.2392 74.6174 71.7887 75.0774 71.3331 75.5425C69.8704 77.036 68.3554 78.5828 66.7097 79.8087C66.5536 79.925 66.3327 79.8927 66.2164 79.7366C66.1001 79.5805 66.1324 79.3596 66.2885 79.2433C67.8859 78.0535 69.3463 76.5626 70.8008 75.0779C71.2634 74.6057 71.7254 74.1341 72.191 73.673C72.3293 73.536 72.5525 73.5371 72.6895 73.6754Z"
            fill="#0278D5" />
        <path fill-rule="evenodd" clip-rule="evenodd"
            d="M78.7111 73.093C78.9058 73.0898 79.0663 73.2449 79.0695 73.4395C79.1068 75.6442 79.0289 77.8348 78.9408 80.0261C78.933 80.2206 78.769 80.372 78.5745 80.3642C78.3799 80.3563 78.2286 80.1923 78.2364 79.9978C78.3245 77.8064 78.4015 75.6339 78.3646 73.4514C78.3614 73.2568 78.5165 73.0963 78.7111 73.093Z"
            fill="#0278D5" />
        <path fill-rule="evenodd" clip-rule="evenodd"
            d="M82.5299 76.9319L75.4597 76.9209C75.265 76.9206 75.1083 76.7625 75.1096 76.5678C75.111 76.3731 75.2699 76.2156 75.4645 76.2159L82.5347 76.2269C82.7294 76.2272 82.8861 76.3852 82.8848 76.5799C82.8835 76.7746 82.7246 76.9322 82.5299 76.9319Z"
            fill="#0278D5" />
        <path fill-rule="evenodd" clip-rule="evenodd"
            d="M75.8714 73.6679C76.0134 73.5347 76.2365 73.5418 76.3697 73.6838C77.9298 75.3473 80.3451 77.7469 81.8471 79.1452C81.9896 79.2779 81.9976 79.5009 81.8649 79.6434C81.7322 79.7859 81.5092 79.7939 81.3667 79.6612C79.8532 78.2521 77.4266 75.8413 75.8555 74.1661C75.7223 74.0241 75.7294 73.801 75.8714 73.6679Z"
            fill="#0278D5" />
        <path fill-rule="evenodd" clip-rule="evenodd"
            d="M81.9502 73.4635C82.0872 73.6018 82.0861 73.825 81.9478 73.962C81.4999 74.4055 81.0494 74.8655 80.5938 75.3306C79.1311 76.8241 77.6161 78.3709 75.9704 79.5968C75.8143 79.7131 75.5934 79.6808 75.4771 79.5247C75.3608 79.3686 75.3931 79.1477 75.5492 79.0314C77.1466 77.8415 78.607 76.3507 80.0615 74.866C80.5241 74.3938 80.9861 73.9222 81.4517 73.4611C81.59 73.3241 81.8132 73.3252 81.9502 73.4635Z"
            fill="#0278D5" />
        <path d="M19.7401 47.9399H64.1551V60.6299H19.7401V47.9399Z" fill="white" />
        <path fill-rule="evenodd" clip-rule="evenodd"
            d="M63.4501 48.6449H20.4451V59.9249H63.4501V48.6449ZM19.7401 47.9399V60.6299H64.1551V47.9399H19.7401Z"
            fill="black" />
        <path fill-rule="evenodd" clip-rule="evenodd"
            d="M25.7397 50.9095C25.9343 50.9029 26.0973 51.0554 26.1039 51.2499C26.1761 53.3947 26.1361 55.5275 26.0862 57.6609C26.0816 57.8556 25.9201 58.0097 25.7255 58.0051C25.5309 58.0005 25.3768 57.8391 25.3814 57.6444C25.4313 55.5109 25.4707 53.3962 25.3993 51.2736C25.3927 51.0791 25.5451 50.916 25.7397 50.9095Z"
            fill="#0278D5" />
        <path fill-rule="evenodd" clip-rule="evenodd"
            d="M29.5183 54.601L22.6392 54.7057C22.4445 54.7087 22.2852 54.5533 22.2832 54.3586C22.2813 54.1639 22.4376 54.0037 22.6322 54.0007L29.5113 53.896C29.706 53.8931 29.8653 54.0485 29.8673 54.2432C29.8692 54.4378 29.7129 54.598 29.5183 54.601Z"
            fill="#0278D5" />
        <path fill-rule="evenodd" clip-rule="evenodd"
            d="M22.98 51.5178C23.1197 51.3822 23.3429 51.3856 23.4784 51.5254C25.0233 53.1183 27.4123 55.4133 28.8963 56.7492C29.041 56.8794 29.0527 57.1023 28.9225 57.247C28.7922 57.3917 28.5693 57.4034 28.4246 57.2731C26.9289 55.9267 24.5285 53.6206 22.9723 52.0162C22.8368 51.8765 22.8402 51.6533 22.98 51.5178Z"
            fill="#0278D5" />
        <path fill-rule="evenodd" clip-rule="evenodd"
            d="M28.9042 51.2197C29.0435 51.3557 29.0462 51.5789 28.9102 51.7182C28.4819 52.1568 28.0513 52.6115 27.6157 53.0714C26.2168 54.5485 24.7673 56.0789 23.1855 57.299C23.0313 57.4179 22.81 57.3894 22.6911 57.2352C22.5722 57.0811 22.6008 56.8597 22.7549 56.7408C24.289 55.5575 25.6849 54.084 27.0756 52.6158C27.5181 52.1487 27.96 51.6822 28.4057 51.2257C28.5418 51.0864 28.7649 51.0837 28.9042 51.2197Z"
            fill="#0278D5" />
        <path fill-rule="evenodd" clip-rule="evenodd"
            d="M33.6818 50.8113C33.8763 50.8048 34.0394 50.9572 34.0459 51.1518C34.1181 53.2965 34.0782 55.4294 34.0282 57.5628C34.0236 57.7574 33.8622 57.9115 33.6675 57.907C33.4729 57.9024 33.3188 57.7409 33.3234 57.5463C33.3734 55.4128 33.4128 53.298 33.3413 51.1755C33.3348 50.9809 33.4872 50.8179 33.6818 50.8113Z"
            fill="#0278D5" />
        <path fill-rule="evenodd" clip-rule="evenodd"
            d="M37.4602 54.5029L30.5811 54.6076C30.3865 54.6105 30.2271 54.4551 30.2252 54.2604C30.2233 54.0658 30.3795 53.9056 30.5742 53.9026L37.4533 53.7979C37.6479 53.7949 37.8073 53.9503 37.8092 54.145C37.8111 54.3397 37.6549 54.4999 37.4602 54.5029Z"
            fill="#0278D5" />
        <path fill-rule="evenodd" clip-rule="evenodd"
            d="M30.922 51.4199C31.0617 51.2843 31.2849 51.2877 31.4204 51.4275C32.9653 53.0204 35.3543 55.3154 36.8383 56.6513C36.983 56.7815 36.9947 57.0044 36.8645 57.1491C36.7342 57.2938 36.5114 57.3055 36.3667 57.1752C34.8709 55.8288 32.4705 53.5227 30.9144 51.9183C30.7788 51.7786 30.7822 51.5554 30.922 51.4199Z"
            fill="#0278D5" />
        <path fill-rule="evenodd" clip-rule="evenodd"
            d="M36.8462 51.1216C36.9855 51.2576 36.9881 51.4808 36.8521 51.6201C36.4239 52.0587 35.9932 52.5134 35.5576 52.9733C34.1587 54.4503 32.7093 55.9808 31.1274 57.2009C30.9733 57.3198 30.7519 57.2912 30.633 57.1371C30.5141 56.9829 30.5427 56.7616 30.6969 56.6427C32.2309 55.4594 33.6268 53.9858 35.0176 52.5176C35.46 52.0506 35.902 51.584 36.3477 51.1275C36.4837 50.9882 36.7069 50.9856 36.8462 51.1216Z"
            fill="#0278D5" />
        <path fill-rule="evenodd" clip-rule="evenodd"
            d="M42.1528 50.7257C42.3474 50.7191 42.5105 50.8715 42.517 51.0661C42.5892 53.2108 42.5493 55.3437 42.4993 57.4771C42.4947 57.6717 42.3333 57.8258 42.1386 57.8213C41.944 57.8167 41.7899 57.6552 41.7945 57.4606C41.8444 55.3271 41.8839 53.2123 41.8124 51.0898C41.8059 50.8952 41.9583 50.7322 42.1528 50.7257Z"
            fill="#0278D5" />
        <path fill-rule="evenodd" clip-rule="evenodd"
            d="M45.9314 54.4172L39.0523 54.5219C38.8577 54.5248 38.6983 54.3694 38.6964 54.1747C38.6944 53.9801 38.8507 53.8199 39.0453 53.8169L45.9244 53.7122C46.1191 53.7092 46.2785 53.8646 46.2804 54.0593C46.2823 54.254 46.1261 54.4142 45.9314 54.4172Z"
            fill="#0278D5" />
        <path fill-rule="evenodd" clip-rule="evenodd"
            d="M39.3931 51.3342C39.5328 51.1986 39.756 51.2021 39.8915 51.3418C41.4364 52.9347 43.8254 55.2297 45.3094 56.5656C45.4541 56.6958 45.4658 56.9187 45.3356 57.0634C45.2053 57.2081 44.9825 57.2198 44.8378 57.0896C43.342 55.7432 40.9416 53.4371 39.3855 51.8326C39.2499 51.6929 39.2533 51.4697 39.3931 51.3342Z"
            fill="#0278D5" />
        <path fill-rule="evenodd" clip-rule="evenodd"
            d="M45.3174 51.0359C45.4566 51.1719 45.4593 51.3951 45.3233 51.5344C44.8951 51.973 44.4644 52.4277 44.0288 52.8876C42.6299 54.3646 41.1805 55.8951 39.5986 57.1152C39.4445 57.2341 39.2231 57.2055 39.1042 57.0514C38.9853 56.8972 39.0139 56.6759 39.168 56.557C40.7021 55.3737 42.098 53.9001 43.4888 52.432C43.9312 51.9649 44.3732 51.4983 44.8189 51.0418C44.9549 50.9026 45.1781 50.8999 45.3174 51.0359Z"
            fill="#0278D5" />
        <path fill-rule="evenodd" clip-rule="evenodd"
            d="M50.0923 50.7413C50.2869 50.7347 50.4499 50.8871 50.4564 51.0817C50.5286 53.2265 50.4887 55.3593 50.4387 57.4927C50.4342 57.6874 50.2727 57.8414 50.0781 57.8369C49.8834 57.8323 49.7294 57.6709 49.7339 57.4762C49.7839 55.3427 49.8233 53.2279 49.7518 51.1054C49.7453 50.9109 49.8977 50.7478 50.0923 50.7413Z"
            fill="#0278D5" />
        <path fill-rule="evenodd" clip-rule="evenodd"
            d="M53.8708 54.4328L46.9917 54.5375C46.797 54.5405 46.6376 54.385 46.6357 54.1904C46.6338 53.9957 46.79 53.8355 46.9847 53.8325L53.8638 53.7278C54.0585 53.7249 54.2178 53.8803 54.2197 54.0749C54.2217 54.2696 54.0654 54.4298 53.8708 54.4328Z"
            fill="#0278D5" />
        <path fill-rule="evenodd" clip-rule="evenodd"
            d="M47.3325 51.3496C47.4723 51.214 47.6954 51.2174 47.831 51.3572C49.3759 52.95 51.7648 55.2451 53.2489 56.581C53.3936 56.7112 53.4053 56.9341 53.275 57.0788C53.1448 57.2235 52.9219 57.2352 52.7772 57.1049C51.2815 55.7585 48.881 53.4524 47.3249 51.848C47.1894 51.7083 47.1928 51.4851 47.3325 51.3496Z"
            fill="#0278D5" />
        <path fill-rule="evenodd" clip-rule="evenodd"
            d="M53.2567 51.0513C53.396 51.1873 53.3987 51.4105 53.2626 51.5498C52.8344 51.9883 52.4037 52.4431 51.9682 52.903C50.5693 54.38 49.1198 55.9104 47.538 57.1306C47.3838 57.2495 47.1625 57.2209 47.0436 57.0668C46.9247 56.9126 46.9532 56.6913 47.1074 56.5723C48.6414 55.3891 50.0373 53.9155 51.4281 52.4473C51.8706 51.9802 52.3125 51.5137 52.7582 51.0572C52.8942 50.9179 53.1174 50.9153 53.2567 51.0513Z"
            fill="#0278D5" />
        <path fill-rule="evenodd" clip-rule="evenodd"
            d="M58.0369 50.5296C58.2315 50.5231 58.3945 50.6755 58.4011 50.87C58.4733 53.0148 58.4333 55.1476 58.3833 57.2811C58.3788 57.4757 58.2173 57.6298 58.0227 57.6252C57.8281 57.6207 57.674 57.4592 57.6785 57.2646C57.7285 55.131 57.7679 53.0163 57.6965 50.8938C57.6899 50.6992 57.8423 50.5362 58.0369 50.5296Z"
            fill="#0278D5" />
        <path fill-rule="evenodd" clip-rule="evenodd"
            d="M61.8155 54.2211L54.9364 54.3258C54.7417 54.3288 54.5823 54.1734 54.5804 53.9787C54.5785 53.784 54.7347 53.6238 54.9294 53.6209L61.8085 53.5161C62.0032 53.5132 62.1625 53.6686 62.1644 53.8633C62.1664 54.0579 62.0101 54.2182 61.8155 54.2211Z"
            fill="#0278D5" />
        <path fill-rule="evenodd" clip-rule="evenodd"
            d="M55.2771 51.1381C55.4169 51.0026 55.64 51.006 55.7756 51.1458C57.3205 52.7386 59.7095 55.0337 61.1935 56.3695C61.3382 56.4998 61.3499 56.7227 61.2196 56.8674C61.0894 57.012 60.8665 57.0238 60.7218 56.8935C59.2261 55.5471 56.8256 53.241 55.2695 51.6366C55.134 51.4968 55.1374 51.2737 55.2771 51.1381Z"
            fill="#0278D5" />
        <path fill-rule="evenodd" clip-rule="evenodd"
            d="M61.2014 50.8399C61.3407 50.9759 61.3434 51.199 61.2073 51.3383C60.7791 51.7769 60.3484 52.2316 59.9129 52.6915C58.514 54.1686 57.0645 55.699 55.4827 56.9192C55.3285 57.0381 55.1072 57.0095 54.9883 56.8553C54.8694 56.7012 54.8979 56.4798 55.0521 56.3609C56.5861 55.1776 57.982 53.7041 59.3728 52.2359C59.8153 51.7688 60.2572 51.3023 60.7029 50.8458C60.8389 50.7065 61.0621 50.7038 61.2014 50.8399Z"
            fill="#0278D5" />
        <path fill-rule="evenodd" clip-rule="evenodd"
            d="M76.9518 14.6081C75.7199 14.5574 74.4336 14.789 73.6338 15.2375C71.8096 16.2603 70.3774 17.9914 70.3088 20.2075C70.2292 22.7829 71.0438 25.3508 72.9789 26.8793C72.9902 26.8882 73.0008 26.8978 73.0109 26.908C73.328 27.2283 73.8331 27.5058 74.5178 27.7345C75.198 27.9618 76.0282 28.1321 76.9683 28.2553C78.8486 28.5018 81.1286 28.555 83.445 28.5198C85.6962 28.4856 87.9692 28.3683 89.9273 28.2672L90.0915 28.2587C92.0747 28.1564 93.7411 28.0724 94.684 28.1206C94.8785 28.1305 95.028 28.2962 95.0181 28.4906C95.0081 28.685 94.8425 28.8346 94.648 28.8246C93.7509 28.7788 92.1315 28.8594 90.1278 28.9628L89.9597 28.9714C88.0041 29.0724 85.72 29.1904 83.4557 29.2247C81.1281 29.2601 78.8079 29.2075 76.8767 28.9544C75.911 28.8278 75.0326 28.6498 74.2944 28.4032C73.5695 28.161 72.9526 27.8437 72.5255 27.4195C70.3697 25.7059 69.5204 22.8924 69.6042 20.1857C69.6826 17.6493 71.3217 15.7257 73.289 14.6226C74.2416 14.0884 75.6716 13.8498 76.9808 13.9037C77.6405 13.9308 78.288 14.0328 78.8468 14.2194C79.4006 14.4044 79.899 14.6832 80.2209 15.0862C80.3424 15.2384 80.3175 15.4602 80.1654 15.5816C80.0133 15.7031 79.7915 15.6783 79.67 15.5262C79.4662 15.2709 79.1103 15.0507 78.6235 14.8881C78.1419 14.7273 77.5626 14.6332 76.9518 14.6081Z"
            fill="black" />
        <path fill-rule="evenodd" clip-rule="evenodd"
            d="M89.0181 4.08743C85.6125 4.7665 82.4042 7.03398 80.5978 10.0333C80.2376 10.6315 79.2342 12.5951 78.8924 14.9799C78.8648 15.1726 78.6862 15.3064 78.4934 15.2788C78.3007 15.2512 78.1669 15.0726 78.1945 14.8799C78.5537 12.3743 79.6017 10.3207 79.9939 9.66954C81.9014 6.50226 85.2779 4.11434 88.8802 3.39604C92.4985 2.67456 96.354 3.63902 99.1488 7.18813C99.7697 7.97668 100.416 9.1306 100.779 10.1045C100.847 10.2869 100.755 10.4899 100.572 10.5579C100.39 10.6259 100.187 10.5331 100.119 10.3507C99.7807 9.44366 99.1696 8.3541 98.5949 7.6243C95.9833 4.30778 92.4077 3.41155 89.0181 4.08743Z"
            fill="black" />
        <path fill-rule="evenodd" clip-rule="evenodd"
            d="M111.178 22.4771C116.18 13.0064 107.303 5.51393 100.924 7.92413C100.673 8.01918 100.195 8.28496 99.7106 8.59703C99.2243 8.91024 98.7874 9.23394 98.601 9.42894C98.4664 9.56964 98.2433 9.57463 98.1026 9.44009C97.9619 9.30554 97.9569 9.08241 98.0914 8.9417C98.3412 8.68047 98.842 8.31793 99.3289 8.00434C99.8175 7.6896 100.348 7.38802 100.675 7.26464C107.683 4.61671 117.095 12.7821 111.801 22.8063C110.7 24.8917 108.936 27.4407 106.176 28.4282C106.157 28.4351 106.137 28.4403 106.117 28.4437C102.672 29.0354 98.4687 28.9364 95.3904 28.8639C94.5189 28.8434 93.7374 28.825 93.0889 28.825C92.8942 28.825 92.7364 28.6672 92.7364 28.4725C92.7364 28.2778 92.8942 28.12 93.0889 28.12C93.7654 28.12 94.5689 28.1388 95.4574 28.1596C98.5245 28.2314 102.604 28.3268 105.967 27.7541C108.448 26.8531 110.097 24.5236 111.178 22.4771Z"
            fill="black" />
    </g>
    <defs>
        <radialGradient id="paint0_radial_575_90325" cx="0" cy="0" r="1" gradientUnits="userSpaceOnUse"
            gradientTransform="translate(110.271 91.2843) rotate(116.231) scale(26.1502 32.6803)">
            <stop stop-color="#B2B2B2" />
            <stop offset="1" stop-color="#B2B2B2" stop-opacity="0" />
        </radialGradient>
        <radialGradient id="paint1_radial_575_90325" cx="0" cy="0" r="1" gradientUnits="userSpaceOnUse"
            gradientTransform="translate(101.745 77.6248) rotate(68.5817) scale(42.0057 41.0653)">
            <stop stop-color="#939292" />
            <stop offset="1" stop-color="#939292" stop-opacity="0" />
        </radialGradient>
        <radialGradient id="paint2_radial_575_90325" cx="0" cy="0" r="1" gradientUnits="userSpaceOnUse"
            gradientTransform="translate(101.745 77.6248) rotate(68.5817) scale(42.0057 41.0653)">
            <stop stop-color="#939292" />
            <stop offset="1" stop-color="#939292" stop-opacity="0" />
        </radialGradient>
        <linearGradient id="paint3_linear_575_90325" x1="127.253" y1="111.038" x2="139.943" y2="121.613"
            gradientUnits="userSpaceOnUse">
            <stop stop-color="#939292" />
            <stop offset="1" stop-color="#939292" stop-opacity="0" />
        </linearGradient>
        <clipPath id="clip0_575_90325">
            <rect width="225.6" height="141" fill="white" />
        </clipPath>
    </defs>
</svg>