<svg xmlns="http://www.w3.org/2000/svg" xmlns:xlink="http://www.w3.org/1999/xlink" viewBox="0 0 320 200" xmlns:v="https://vecta.io/nano"><style><![CDATA[.B{fill-rule:evenodd}.C{fill:#0278d5}.D{fill:#b0b1c4}.E{fill:#252525}]]></style><g clip-path="url(#D)"><path d="M217.39 153.387c-10.734 27.38-46.736 38.873-80.413 25.67s-52.275-46.102-41.541-73.482 46.736-38.872 80.413-25.669 52.276 46.102 41.541 73.481z" fill="url(#A)" fill-opacity=".2"/><path d="M182.626 100.3c0 10.01 0 28.2-1.126 33.2-.079.351-1.688.375-3.728.404-3.627.053-8.614.125-8.772 2.096v4c0 .497.029 1.1.059 1.728.095 2.002.202 4.272-.559 4.272l.5 3.5c-1.328 1.328-5.864 4.735-10.277 4.735-5.516 0-14.71-2.145-19.919-9.5-4.168-5.884-4.393-11.032-3.984-12.871v-27.887l47.806-3.677zM153 122.5V136l12-2v-13l-12 1.5z" fill="#070707" class="B"/><path d="M182.626 100.3l-4.903-2.758-3.677.306.612 1.532c-.306 0-1.409.184-3.371.92s-2.655-.307-2.758-.92v-.919l-37.387 2.451c-.306 9.705-.429 30.891 1.533 38 2.451 8.888 14.709 12.871 11.645 11.033s-3.678-3.678-6.742-7.355c-2.452-2.942-3.065-6.333-3.065-7.661v-31.258l48.113-3.371z" fill="url(#B)" fill-opacity=".6"/><path d="M161.175 131.251v-9.5l4.29-.613v10.113V134l-.919.316-11.952 1.532v-3.677l8.581-.92z" fill="url(#B)" fill-opacity=".6"/><g class="B"><g fill="#fff"><path d="M171.046 77.262c3.24 5.703 3.964 13.901 2.886 22.376a.5.5 0 1 1-.992-.126c1.066-8.38.323-16.324-2.763-21.756-1.538-2.705-3.651-4.781-6.412-5.995s-6.217-1.586-10.465-.807c-7.436 1.363-10.341 7.263-11.319 10.684-.488 1.709-.933 4.519-.79 6.822.072 1.159.289 2.123.672 2.755.186.309.403.522.646.65s.54.188.93.139A.5.5 0 0 1 143.5 92c.187 0 .43-.131.677-.818.234-.652.386-1.584.526-2.683l.118-.961.338-2.502c.191-1.161.455-2.308.887-3.245 1.332-2.884 3.003-4.607 4.632-5.659s3.176-1.413 4.225-1.622c.013-.003.026-.005.039-.006 4.004-.471 6.974.318 9.142 1.968 2.159 1.643 3.455 4.089 4.219 6.805 1.433 5.093 1.042 11.328.776 15.56l-.047.768a.5.5 0 0 1-.53.469.5.5 0 0 1-.468-.53l.045-.737c.266-4.263.646-10.339-.739-15.26-.73-2.595-1.937-4.815-3.862-6.28-1.912-1.455-4.599-2.216-8.399-1.773-1.007.201-2.403.536-3.858 1.477s-3.01 2.516-4.267 5.239c-.375.813-.621 1.853-.809 2.989-.132.803-.231 1.628-.328 2.435l-.122.992c-.139 1.088-.301 2.125-.577 2.895-.262.726-.72 1.461-1.585 1.479-.554.064-1.054-.021-1.49-.25s-.778-.591-1.036-1.017c-.508-.839-.739-1.998-.814-3.211-.151-2.441.315-5.367.827-7.158 1.022-3.579 4.117-9.929 12.1-11.393 4.398-.806 8.062-.437 11.048.876s5.252 3.554 6.878 6.416zm-36.216 24.264a.5.5 0 0 1 .492.508l.02 9.604.013 1.723-.033 11.359c-.122 3.812-.054 8.102.455 11.868.492 3.635 1.776 6.017 4.038 8.956 3.835 4.983 8.643 6.723 14.128 8.094 5.295 1.324 10.033-1.164 14.02-3.618a.5.5 0 1 1 .525.852c-3.981 2.449-9.049 5.171-14.787 3.736-5.546-1.386-10.632-3.196-14.678-8.454-2.329-3.026-3.715-5.568-4.237-9.432-.519-3.843-.587-8.195-.464-12.034.086-2.662.065-6.983.033-11.319l-.013-1.723-.02-9.627a.5.5 0 0 1 .508-.493z"/><path d="M131.513 99.381a.5.5 0 0 1 .492.508l.02 9.604.013 1.723-.033 11.359c-.123 3.812-.054 8.102.455 11.868l-.495.067.495-.067.008.059-.496.067.496-.067c.251 1.862.561 4.14 2.256 6.821 1.7 2.69 4.821 5.824 10.771 9.304a.5.5 0 0 1-.505.863c-6.04-3.532-9.301-6.767-11.112-9.632s-2.145-5.328-2.4-7.215l-.001-.008h0l-.008-.058c-.519-3.843-.587-8.195-.464-12.034.086-2.662.065-6.983.033-11.319l-.013-1.723-.02-9.627a.5.5 0 0 1 .508-.492z"/><path d="M130.459 100.169a.5.5 0 0 1 .705-.054l3.294 2.705 1.596 1.268a.5.5 0 0 1 .079.702.5.5 0 0 1-.703.078l-1.583-1.257-3.334-2.737a.5.5 0 0 1-.054-.705zm45.893-2.795a.5.5 0 0 1 .663-.246c3.095 1.421 6.169 2.93 9.209 4.45a.5.5 0 1 1-.447.895l-9.179-4.437a.5.5 0 0 1-.246-.663z"/><path d="M185.273 100.469a.5.5 0 0 1-.474.525c-8.413.42-16.156 1.019-23.805 1.611l-2.105.163-25.58 1.597a.5.5 0 0 1-.038-1c8.941-.339 17.207-.951 25.541-1.594l2.107-.163 23.83-1.613a.5.5 0 0 1 .524.474zm-5.209-2.757a.5.5 0 0 1-.475.524l-2.936.141-2.877.19a.5.5 0 1 1-.068-.998l2.893-.191 2.939-.141a.5.5 0 0 1 .524.475zm-11.033.669a.5.5 0 0 1-.462.535l-10.038.775-29.512 1.915a.5.5 0 0 1-.038-1c9.84-.365 19.6-1.134 29.454-1.911l10.06-.777a.5.5 0 0 1 .536.462z"/><path d="M174.853 98.923a.5.5 0 0 1 .154.69c-.374.587-1.121.916-1.777 1.105a7.42 7.42 0 0 1-1.941.276c-1.181-.004-2.644-.08-3.668-1.242a.5.5 0 0 1 .75-.661c.7.794 1.722.899 2.921.903a6.39 6.39 0 0 0 1.663-.238c.62-.177 1.045-.424 1.208-.68a.5.5 0 0 1 .69-.153zm-22.41 22.216a.5.5 0 0 1 .5.5v15.323a.5.5 0 1 1-1 0v-15.323a.5.5 0 0 1 .5-.5zm13.11-.919a.5.5 0 0 1 .491.508l-.038 7.247v.003l-.038 7.031a.5.5 0 1 1-1-.018l.038-7.016v-.003l.039-7.26a.5.5 0 0 1 .508-.492z"/><path d="M168.569 120.74a.5.5 0 0 1-.44.553l-7.288.711c-3.526.316-7.037.63-10.549 1.126a.5.5 0 0 1-.565-.425.5.5 0 0 1 .425-.565c3.522-.498 7.094-.818 10.651-1.136l7.213-.704a.5.5 0 0 1 .553.44zm-1.573 13.198a.5.5 0 0 1-.434.558l-9.987 1.319-5.447.724a.5.5 0 1 1-.127-.992l5.407-.719 10.03-1.324a.5.5 0 0 1 .558.434zm-4.402-2.855a.5.5 0 0 1-.44.553l-2.528.287-7.886.938a.5.5 0 0 1-.558-.434.5.5 0 0 1 .434-.558l7.899-.939 2.525-.287a.5.5 0 0 1 .554.44z"/><path d="M161.029 120.526a.5.5 0 0 1 .495.505l-.009 7.102.009 3.772a.5.5 0 1 1-1 0l-.009-3.759.009-7.125a.5.5 0 0 1 .505-.495z"/><path d="M160.068 130.249a.5.5 0 0 1 .683-.181c.269.156.667.471 1.096.829l1.185 1.012.272.234 1.448 1.219c.45.361.784.6.966.688a.5.5 0 1 1-.436.9c-.3-.145-.719-.458-1.156-.808l-1.475-1.241-.275-.237-1.169-.999-.958-.733a.5.5 0 0 1-.181-.683zm22.807-31.481a.5.5 0 0 1 .5.5l.031 6.458c.069 9.143.13 17.26-1.2 27.318a.5.5 0 1 1-.992-.132c1.321-9.982 1.261-18.021 1.192-27.157l-.031-6.487a.5.5 0 0 1 .5-.5zm-51.514 36.269a.5.5 0 0 1 .705-.053l3.72 3.198a.5.5 0 0 1 .054.705.5.5 0 0 1-.705.053l-3.721-3.198a.5.5 0 0 1-.053-.705zm1.22 5.127a.5.5 0 0 1 .705-.054l4.5 3.869a.5.5 0 0 1 .054.705.5.5 0 0 1-.705.053l-4.5-3.868a.5.5 0 0 1-.054-.705zm-1.499-17.189a.5.5 0 0 1 .705-.053l3.5 3.009a.5.5 0 0 1-.652.758l-3.5-3.009a.5.5 0 0 1-.053-.705zm.17 3.949a.5.5 0 0 1 .535.075l3.5 3.009a.5.5 0 0 1-.652.758l-2.674-2.298v2.248l3.326 2.859a.5.5 0 0 1-.652.759l-3.5-3.009c-.111-.095-.174-.233-.174-.379v-3.568a.5.5 0 0 1 .291-.454z"/><path d="M131.082 111.193a.5.5 0 0 1 .705-.053l3 2.578a.5.5 0 1 1-.652.759l-3-2.579a.5.5 0 0 1-.053-.705zm-.002 4.166a.5.5 0 0 1 .705-.056l1.439 1.193.067.055 1.496 1.245a.5.5 0 0 1-.652.758l-1.478-1.23-.07-.057-1.45-1.203a.5.5 0 0 1-.057-.705zm.002 3.479a.5.5 0 0 1 .705-.053l3 2.578a.5.5 0 1 1-.652.759l-3-2.579a.5.5 0 0 1-.053-.705zm21.004 14.479a.5.5 0 0 1 .701-.049l1.044.949 1.005.913a.5.5 0 0 1-.662.749l-1.025-.93-1.024-.931a.5.5 0 0 1-.039-.701zm2.535-1.642a.5.5 0 0 1 .704-.054l1.759 1.507 1.742 1.493a.5.5 0 0 1-.651.759l-1.739-1.49-.007-.007-1.755-1.504a.5.5 0 0 1-.053-.704zm-23.802-27.915a.5.5 0 0 1 .705-.055l3.696 3.15a.5.5 0 0 1 .058.704.5.5 0 0 1-.705.058l-3.7-3.152a.5.5 0 0 1-.054-.705zm2.75-2.225a.5.5 0 0 1 .705-.053l3 2.579a.5.5 0 0 1-.652.758l-3-2.579a.5.5 0 0 1-.053-.705zm-2.797 5.471a.5.5 0 0 1 .705-.053l3.697 3.178a.5.5 0 0 1-.651.759l-3.698-3.179a.5.5 0 0 1-.053-.705zm29.736 16.168a.5.5 0 0 1 .705-.053l4.34 3.73a.5.5 0 0 1-.652.759l-4.34-3.731a.5.5 0 0 1-.053-.705zm.113 4a.5.5 0 0 1 .705-.053l4.34 3.73a.5.5 0 1 1-.652.759l-4.34-3.731a.5.5 0 0 1-.053-.705zm-2.474 3.972a.5.5 0 0 1 .707 0l3 3a.5.5 0 1 1-.708.707l-2.999-3a.5.5 0 0 1 0-.707zm-21.525-30.976a.5.5 0 0 1 .705-.05l3.865 3.352a.5.5 0 1 1-.656.756l-3.864-3.353a.5.5 0 0 1-.05-.705zm4.499.001a.5.5 0 0 1 .705-.053c.532.458 1.04.968 1.531 1.461l.002.003 1.467 1.402a.5.5 0 0 1-.652.758c-.523-.449-1.025-.954-1.512-1.443l-.012-.012-1.476-1.411a.5.5 0 0 1-.053-.705zm4.512-.511a.5.5 0 0 1 .693-.039c.478.411 1.016.982 1.529 1.526l.011.012 1.487 1.487a.5.5 0 0 1-.679.733c-.474-.407-1.009-.975-1.519-1.517l-.006-.006-1.503-1.502a.5.5 0 0 1-.013-.694zm4.488-.211a.5.5 0 0 1 .705-.053l3.5 3.009a.5.5 0 0 1-.652.758l-3.5-3.009a.5.5 0 0 1-.053-.705zm3.5-.559a.5.5 0 0 1 .705-.053l3.5 3.008a.5.5 0 0 1-.652.759l-3.5-3.009a.5.5 0 0 1-.053-.705zm4.743 0a.5.5 0 0 1 .705-.053l3.013 2.59a.5.5 0 0 1-.652.758l-3.013-2.59a.5.5 0 0 1-.053-.705zm5.327-.216a.5.5 0 0 1 .705-.053l2.909 2.5a.5.5 0 0 1-.652.758l-2.909-2.5a.5.5 0 0 1-.053-.705zm3.569-.5a.5.5 0 0 1 .705-.053l2.908 2.5a.5.5 0 1 1-.652.758l-2.908-2.5a.5.5 0 0 1-.053-.705zm5.906 1a.5.5 0 0 1 .706-.053l1.745 1.5a.5.5 0 0 1-.652.758l-1.745-1.5a.5.5 0 0 1-.054-.705zm2.955-1.637a.5.5 0 0 1 .705-.053l3 2.578a.5.5 0 0 1-.652.759l-3-2.579a.5.5 0 0 1-.053-.705zm-8.107 36.925a.5.5 0 0 1 .702-.082l4.466 3.79.088.079 2.168 1.875a.5.5 0 0 1 .083.703.5.5 0 0 1-.702.082l-2.212-1.911-.095-.086-4.416-3.747a.5.5 0 0 1-.082-.703zm12.964-1.844a.5.5 0 0 1 .705.059c.921 1.09 2.147 1.937 3.394 2.798l.804.559 3.564 2.345a.5.5 0 1 1-.522.853l-3.62-2.381-.757-.527c-1.25-.861-2.611-1.799-3.627-3.001a.5.5 0 0 1 .059-.705zm-13.343 15.61a.5.5 0 0 1 .699-.11c1.376 1.005 2.625 2.122 3.843 3.237l.465.426 3.226 2.829a.5.5 0 0 1 .078.702.5.5 0 0 1-.703.078l-3.279-2.874-.462-.424-3.758-3.166a.5.5 0 0 1-.109-.698z"/><path d="M174.992 139.102a.5.5 0 0 1 .493.506l-.212 10.447-.114 4.954a.5.5 0 1 1-1-.021l.114-4.964.212-10.429a.5.5 0 0 1 .507-.493zm-6.228-5.38a.5.5 0 0 1 .494.507l-.213 10.447-.114 4.953a.5.5 0 0 1-.51.49.5.5 0 0 1-.489-.511l.114-4.963.212-10.429a.5.5 0 0 1 .506-.494zm19.556 2.934a.5.5 0 0 1 .493.506l-.117 6.349a.5.5 0 0 1-1-.022l.117-6.34a.5.5 0 0 1 .507-.493z"/><path d="M179.491 153.402a.5.5 0 0 1-.393.588l-2.634.469-.286.046-2.523.493a.5.5 0 0 1-.231-.973l2.593-.507.288-.047 2.597-.461a.5.5 0 0 1 .589.392zm11.225-15.591a.5.5 0 0 1-.415.572l-2.018.321c-5.266.84-9.23 1.472-15.116 2.126a.5.5 0 1 1-.111-.994c5.862-.651 9.804-1.28 15.069-2.119l2.019-.322a.5.5 0 0 1 .572.416zm-6.108-4.383a.5.5 0 0 1-.435.557c-4.142.51-7.179.779-10.686 1.091l-5.461.499a.5.5 0 0 1-.545-.449.5.5 0 0 1 .45-.546l5.485-.502 10.635-1.085a.5.5 0 0 1 .557.435z"/><use xlink:href="#E"/><use xlink:href="#F"/><use xlink:href="#G"/><use xlink:href="#H"/><use xlink:href="#I"/><path d="M214.787 156.034c.276 0 .498.224.494.499l-.092 4.971a.51.51 0 0 1-.512.495.49.49 0 0 1-.489-.503l.091-4.963a.51.51 0 0 1 .508-.499zm-10.145 18.186a.5.5 0 0 1-.45.546l-2.175.188-4.935.539a.5.5 0 0 1-.575-.412.5.5 0 0 1 .411-.574c1.66-.275 3.377-.415 5.064-.553l2.114-.184a.5.5 0 0 1 .546.45z"/><use xlink:href="#J"/><use xlink:href="#K"/><use xlink:href="#L"/><use xlink:href="#M"/><use xlink:href="#N"/><use xlink:href="#O"/><path d="M241.278 175.501a.49.49 0 0 1 .494.499l-.275 12.662-.147 6.005a.51.51 0 0 1-.512.495c-.276-.003-.495-.228-.489-.504l.147-6.015.274-12.643a.51.51 0 0 1 .508-.499z"/><path d="M242.729 194.152a.5.5 0 0 1-.402.582c-4.07.746-8.152 1.394-12.262 1.93l-2.089.243c-1.23.13-2.087.221-3.867.618a.5.5 0 1 1-.218-.976c1.837-.409 2.762-.508 4.022-.642l2.022-.235a237.88 237.88 0 0 0 12.212-1.922.5.5 0 0 1 .582.402z"/><use xlink:href="#P"/><use xlink:href="#Q"/><path d="M178.232 143.635a.5.5 0 0 1 .7-.104l5.188 4.132.103.087 2.524 2.048a.5.5 0 1 1-.595.804l-2.568-2.083-.11-.093-5.138-4.091a.5.5 0 0 1-.104-.7zm14.433-2.007a.5.5 0 0 1 .706.037c1.078 1.196 2.513 2.126 3.964 3.066l.931.608 4.149 2.561a.5.5 0 0 1-.498.867l-4.204-2.595-.884-.576c-1.453-.94-3.025-1.957-4.2-3.262a.5.5 0 0 1 .036-.706zm-14.87 17.023a.5.5 0 0 1 .696-.13c1.596 1.093 3.045 2.309 4.461 3.525l.541.465 3.755 3.089a.5.5 0 1 1-.601.8l-3.809-3.133-.537-.462-4.375-3.459a.5.5 0 0 1-.131-.695z"/><path d="M186.292 148.703a.49.49 0 0 1 .494.499l-.248 11.396-.132 5.404a.51.51 0 0 1-.512.495.49.49 0 0 1-.489-.503l.132-5.415.247-11.377a.51.51 0 0 1 .508-.499zm-7.195-7.934a.49.49 0 0 1 .494.499l-.277 12.797-.149 6.069a.51.51 0 0 1-.512.495.49.49 0 0 1-.489-.504l.148-6.079.278-12.778a.51.51 0 0 1 .507-.499zm22.69 5.265c.276 0 .498.224.494.499l-.013.904-.09 5.567a.51.51 0 0 1-.512.495.49.49 0 0 1-.49-.503l.091-5.557.012-.906a.51.51 0 0 1 .508-.499z"/><path d="M191.998 163.955a.5.5 0 0 1-.453.543l-5.797.733-1.671.263a.5.5 0 0 1-.571-.417.5.5 0 0 1 .417-.571l1.663-.262 5.869-.742a.5.5 0 0 1 .543.453zm12.498-16.066a.5.5 0 0 1-.451.544l-2.362.223c-6.163.584-10.8 1.023-17.67 1.364a.5.5 0 0 1-.524-.474.5.5 0 0 1 .474-.524c6.847-.341 11.463-.778 17.626-1.361l2.362-.223a.5.5 0 0 1 .545.451zm-7.105-5.413a.5.5 0 0 1-.439.554c-4.814.556-8.343.85-12.419 1.189l-6.351.546a.5.5 0 1 1-.09-.996l6.375-.548 12.37-1.184a.5.5 0 0 1 .554.439zm7.208 20.226a.5.5 0 0 1 .7-.104l5.762 4.589.114.096 2.808 2.278a.5.5 0 1 1-.595.804l-2.851-2.312-.123-.104-5.711-4.547a.5.5 0 0 1-.104-.7zm-2.012 17.016a.5.5 0 0 1 .696-.131c1.771 1.213 3.379 2.563 4.952 3.914l.601.516 4.175 3.435a.5.5 0 1 1-.601.8l-4.229-3.478-.597-.514-4.866-3.847a.5.5 0 0 1-.131-.695z"/><path d="M212.324 167.503a.49.49 0 0 1 .494.499l-.275 12.662-.147 6.005a.51.51 0 0 1-.512.495.49.49 0 0 1-.489-.504l.147-6.015.274-12.643a.51.51 0 0 1 .508-.499zm-8.046-6.521a.49.49 0 0 1 .494.499l-.275 12.662-.147 6.005a.51.51 0 0 1-.512.495.49.49 0 0 1-.489-.503l.147-6.016.274-12.642a.51.51 0 0 1 .508-.5zm23.453 3.519a.49.49 0 0 1 .494.499l.003 2.692.002.261-.005 3.014a.51.51 0 0 1-.511.495c-.277-.002-.496-.227-.491-.503l.005-2.985-.002-.264-.003-2.71a.51.51 0 0 1 .508-.499z"/><path d="M217.485 185.879a.5.5 0 0 1-.364.606c-1.563.391-2.242.484-4.056.732l-1.994.278a.5.5 0 0 1-.142-.99l2.027-.283 3.923-.707a.5.5 0 0 1 .606.364zm16.173-19.488a.5.5 0 0 1-.432.56l-2.615.335c-6.822.878-11.954 1.539-19.568 2.175a.5.5 0 1 1-.084-.997c7.592-.634 12.703-1.292 19.525-2.169l2.615-.336a.5.5 0 0 1 .559.432zm-9.055-5.856a.5.5 0 0 1-.44.554c-5.348.618-9.267.944-13.796 1.321l-7.058.606a.5.5 0 0 1-.543-.453.5.5 0 0 1 .453-.542l7.082-.609 13.747-1.316a.5.5 0 0 1 .555.439z"/><path d="M218.612 160.497a.5.5 0 0 1 .703-.073l8 6.5a.5.5 0 0 1 .073.704.5.5 0 0 1-.703.072l-8-6.499a.5.5 0 0 1-.073-.704zm12.995 10.507a.5.5 0 0 1 .702-.085l9.864 7.741a.5.5 0 1 1-.617.787l-9.865-7.741a.5.5 0 0 1-.084-.702zm-44.982-32.988a.5.5 0 0 1 .359.609l-1.26 4.891a.5.5 0 1 1-.969-.249l1.261-4.892a.5.5 0 0 1 .609-.359zm-3.239.5a.5.5 0 0 1 .359.609l-1.26 4.891a.5.5 0 1 1-.969-.249l1.261-4.892a.5.5 0 0 1 .609-.359zm-3.322.5a.5.5 0 0 1 .36.609l-3.608 14a.5.5 0 1 1-.969-.25l3.608-14a.5.5 0 0 1 .609-.359zm-2.794 0a.5.5 0 0 1 .36.609l-2.32 9a.5.5 0 0 1-.609.359.5.5 0 0 1-.359-.609l2.319-9a.5.5 0 0 1 .609-.359zm12.797 9.5a.5.5 0 0 1 .359.609l-3.994 15.5a.5.5 0 0 1-.609.359.5.5 0 0 1-.359-.609l3.994-15.5a.5.5 0 0 1 .609-.359zm-2.682.5a.5.5 0 0 1 .359.609l-1.031 4a.5.5 0 0 1-.609.359.5.5 0 0 1-.359-.609l1.031-4a.5.5 0 0 1 .609-.359zm11.933-.595a.5.5 0 0 1 .36.609l-1.185 4.595a.5.5 0 0 1-.609.359.5.5 0 0 1-.359-.609l1.184-4.595a.5.5 0 0 1 .609-.359zm-3.193 0a.5.5 0 0 1 .36.609l-1.313 5.095a.5.5 0 1 1-.969-.25l1.313-5.095a.5.5 0 0 1 .609-.359zm-3 .302a.5.5 0 0 1 .36.609l-3.942 15.293a.5.5 0 0 1-.608.359.5.5 0 0 1-.36-.609l3.941-15.293a.5.5 0 0 1 .609-.359zm13.501 9.76a.5.5 0 0 1 .359.609l-4.003 15.533a.5.5 0 0 1-.609.359.5.5 0 0 1-.359-.609l4.003-15.533a.5.5 0 0 1 .609-.359zm-3.496.534a.5.5 0 0 1 .354.612l-4 15a.5.5 0 0 1-.612.354.5.5 0 0 1-.354-.612l4-15a.5.5 0 0 1 .612-.354zm-2.631-.001a.5.5 0 0 1 .36.609l-1.031 4a.5.5 0 1 1-.969-.25l1.031-4a.5.5 0 0 1 .609-.359zm12.154-1a.5.5 0 0 1 .359.609l-.773 3a.5.5 0 0 1-.609.359.5.5 0 0 1-.359-.609l.773-3a.5.5 0 0 1 .609-.359zm-2.923.5a.5.5 0 0 1 .36.609l-.774 3a.5.5 0 0 1-.608.359.5.5 0 0 1-.36-.609l.773-3a.5.5 0 0 1 .609-.359zm12.677 8.962a.5.5 0 0 1 .36.609l-1.041 4.038a.5.5 0 0 1-.609.359.5.5 0 0 1-.359-.609l1.04-4.038a.5.5 0 0 1 .609-.359zm-3.282.346a.5.5 0 0 1 .36.609l-4.689 18.192a.5.5 0 0 1-.608.359.5.5 0 0 1-.36-.609l4.688-18.192a.5.5 0 0 1 .609-.359zm-3.487.692a.5.5 0 0 1 .359.609l-2.963 11.5a.5.5 0 1 1-.969-.25l2.964-11.5a.5.5 0 0 1 .609-.359zm9.726-1a.5.5 0 0 1 .359.609l-.901 3.5a.5.5 0 1 1-.969-.25l.902-3.5a.5.5 0 0 1 .609-.359zm3.761 10.577a.5.5 0 0 1 .36.609l-3.762 14.594a.5.5 0 0 1-.608.36.5.5 0 0 1-.36-.609l3.761-14.595a.5.5 0 0 1 .609-.359zm9.407-.577a.5.5 0 0 1 .359.609l-4.509 17.5a.5.5 0 1 1-.969-.25l4.51-17.5a.5.5 0 0 1 .609-.359zm-3.193 0a.5.5 0 0 1 .359.609l-4.767 18.5a.5.5 0 0 1-.969-.25l4.768-18.5a.5.5 0 0 1 .609-.359zm-3.052.5a.5.5 0 0 1 .359.609l-4.638 18a.5.5 0 0 1-.969-.25l4.639-18a.5.5 0 0 1 .609-.359z"/><path d="M241.158 178.016a.5.5 0 0 1 .359.609l-4.252 16.5a.5.5 0 0 1-.609.359.5.5 0 0 1-.359-.609l4.252-16.5a.5.5 0 0 1 .609-.359zm0 10.841a.5.5 0 0 1 .359.609l-1.329 5.159a.5.5 0 0 1-.609.359.5.5 0 0 1-.359-.609l1.329-5.158a.5.5 0 0 1 .609-.36z"/></g><g class="C"><path d="M219.214 180.109a.5.5 0 0 1 .633.316l2.664 8.615a.5.5 0 1 1-.959.284l-2.654-8.583a.5.5 0 0 1 .316-.632z"/><path d="M223.742 184.069l-5.386 1.983c-.259.095-.537-.041-.621-.304a.53.53 0 0 1 .318-.649l5.386-1.983c.259-.095.537.041.621.304a.53.53 0 0 1-.318.649z"/><path d="M217.223 181.607a.5.5 0 0 1 .706-.031l6.458 5.571a.5.5 0 0 1 .074.703.5.5 0 0 1-.703.074l-6.505-5.611a.5.5 0 0 1-.03-.706z"/><path d="M221.86 179.599a.5.5 0 0 1 .381.595l-.455 2.163-1.732 6.883a.5.5 0 0 1-.639.302.5.5 0 0 1-.302-.639c.714-1.997 1.198-4.348 1.682-6.694l.469-2.229a.5.5 0 0 1 .596-.381zm-16.035-9.342a.5.5 0 0 1 .655.267l3.318 8.385a.5.5 0 0 1-.289.645.5.5 0 0 1-.645-.289l-3.305-8.353a.5.5 0 0 1 .266-.655z"/><path d="M210.644 173.858l-5.218 2.39c-.251.115-.538.001-.642-.255a.53.53 0 0 1 .267-.672l5.218-2.39c.251-.115.539-.001.642.255a.53.53 0 0 1-.267.672z"/><path d="M203.954 171.903a.5.5 0 0 1 .702-.085l6.867 5.059a.5.5 0 0 1 .128.695.5.5 0 0 1-.695.128l-6.917-5.095a.5.5 0 0 1-.085-.702z"/><path d="M208.425 169.545a.5.5 0 0 1 .426.565l-.287 2.191-1.198 6.996a.5.5 0 1 1-.965-.264c.559-2.046.861-4.427 1.163-6.803l.297-2.259a.5.5 0 0 1 .564-.426zm-14.316-9.505a.5.5 0 0 1 .625.33l2.159 7.573a.5.5 0 1 1-.965.263l-2.149-7.541a.5.5 0 0 1 .33-.625z"/><path d="M198.023 163.706l-4.739 1.626c-.262.09-.536-.053-.614-.318a.53.53 0 0 1 .332-.642l4.74-1.626c.261-.089.536.053.613.318a.53.53 0 0 1-.332.642z"/><path d="M192.314 161.325a.5.5 0 0 1 .707-.015l5.526 4.985a.5.5 0 0 1 .059.704.5.5 0 0 1-.705.059l-5.572-5.026a.5.5 0 0 1-.015-.707z"/><path d="M196.462 159.645a.5.5 0 0 1 .368.604l-.438 1.875-1.648 5.985a.5.5 0 1 1-.934-.357c.661-1.725 1.127-3.761 1.595-5.798l.453-1.941a.5.5 0 0 1 .604-.368zm-15.789-9.438a.5.5 0 0 1 .655.266l2.906 7.319a.5.5 0 0 1-.934.357l-2.893-7.287a.5.5 0 0 1 .266-.655z"/><path d="M184.931 153.463l-4.553 2.092c-.251.115-.538.001-.642-.255a.53.53 0 0 1 .266-.672l4.553-2.092c.251-.115.539-.001.642.255a.53.53 0 0 1-.266.672z"/><path d="M179.016 151.665a.5.5 0 0 1 .702-.086l5.996 4.407a.5.5 0 0 1 .129.695.5.5 0 0 1-.695.129l-6.047-4.443a.5.5 0 0 1-.085-.702z"/><path d="M182.975 149.578a.5.5 0 0 1 .426.564l-.248 1.909-1.041 6.121a.5.5 0 0 1-.965-.262c.484-1.782.745-3.855 1.006-5.929l.258-1.976a.5.5 0 0 1 .564-.427zm-12.463-9.662a.5.5 0 0 1 .584.399l1.24 7.472a.5.5 0 1 1-.989.151l-1.234-7.438a.5.5 0 0 1 .399-.584z"/><path d="M173.859 143.882l-4.705 1.039c-.27.059-.527-.113-.574-.385s.133-.541.402-.6l4.706-1.039c.27-.059.526.113.574.385a.53.53 0 0 1-.403.6z"/><path d="M168.649 140.954a.5.5 0 0 1 .704.065l4.738 5.362a.5.5 0 1 1-.728.686l-4.779-5.409a.5.5 0 0 1 .065-.704z"/><path d="M172.814 139.796a.5.5 0 0 1 .297.641l-.621 1.743-2.227 5.544a.5.5 0 1 1-.888-.461c.818-1.575 1.485-3.468 2.153-5.364l.645-1.806a.5.5 0 0 1 .641-.297z"/></g></g><path d="M98 28c.8-6.4 7.667-9 12-8.5 1.333-4.5 2.9-12.4 14.5-14 14.5-2 16.5 7 16.5 7 7.5-4 10.5-3 17 5s-2.5 23-10 23c-2 0-37.5 1.5-42 0S97 36 98 28z" fill="#070707"/><g class="B D"><path d="M127.163 39.914a.5.5 0 0 1 .5.5V73.53v.398c.001 2.712.002 5.575-.482 7.852-.255 1.199-.652 2.282-1.291 3.11a3.94 3.94 0 0 1-2.713 1.555c-9.671 1.246-18.951 1.246-27.427 1.246-1.251.102-2.021.431-2.528 1.221-.546.851-.849 2.325-.849 4.903v7.037a.5.5 0 1 1-1 0v-7.037c0-2.595.292-4.329 1.007-5.443.752-1.172 1.905-1.568 3.31-1.679.013-.001.026-.001.039-.001 8.488 0 17.714-.001 27.319-1.238a2.94 2.94 0 0 0 2.049-1.174c.51-.66.866-1.58 1.105-2.707.462-2.171.461-4.937.46-7.694v-.349-33.116a.5.5 0 0 1 .5-.5zm-14.014 1.173a.5.5 0 0 1 .5.5l.069 5.453-.069 7.473c-.069 1.407-.962 2.363-2.148 2.947-1.174.578-2.691.828-4.197.84l-18.298.02-9.861-.02a2629.82 2629.82 0 0 1-6.554-.012c-4.431-.012-8.717-.024-10.016.012-1.188.033-1.875.422-2.3.972-.446.577-.664 1.407-.741 2.43-.074.981-.015 2.067.045 3.165l.007.124c.061 1.119.118 2.258 0 3.219a.5.5 0 1 1-.992-.122c.105-.857.056-1.903-.006-3.043l-.008-.149c-.059-1.076-.121-2.221-.042-3.269.082-1.092.322-2.158.946-2.966.645-.836 1.642-1.321 3.064-1.36 1.314-.036 5.637-.024 10.084-.013l6.514.012 9.872.02 18.279-.02c1.422-.012 2.773-.25 3.763-.737.978-.482 1.546-1.169 1.591-2.099.16-3.277.121-5.01.069-7.362l-.07-5.515a.5.5 0 0 1 .5-.5zm30.019-1.587a.5.5 0 0 1 .5.5v14.873c.164 1.376.472 2.307.903 2.948.422.63.987 1.017 1.747 1.257.778.246 1.752.336 2.974.359l2.32-.006 1.969-.015h51.446l4.324-.087 1.195-.037c1.562-.043 2.895-.051 3.96.106s1.955.491 2.535 1.214.764 1.715.678 3.001l-.065 6.825.063 5.285a.5.5 0 0 1-.461.536.5.5 0 0 1-.536-.461c-.129-1.701-.106-3.071-.065-5.446l.064-6.758.001-.034c.082-1.19-.11-1.889-.458-2.323s-.936-.708-1.902-.85-2.214-.139-3.787-.096l-1.18.036-4.366.088h-51.446l-1.93.015-2.378.006c-1.241-.023-2.335-.114-3.257-.406-.94-.298-1.708-.807-2.276-1.653-.557-.831-.897-1.948-1.069-3.418-.002-.019-.003-.039-.003-.058V40a.5.5 0 0 1 .5-.5z"/><path d="M113.83 44.828c.433.308.773.796.905 1.278a1.99 1.99 0 0 1-.215 1.562c-.281.453-.771.787-1.393.772-.432-.01-.789-.17-1.03-.474a1.37 1.37 0 0 1-.209-.373.5.5 0 0 1-.363-.481l-.011-.31-.007-.173.002-.627c.027-.398.134-.982.64-1.293.608-.373 1.24-.195 1.681.119zm-.922.673c0 .009-.002.019-.003.028l-.042.27c-.061.387-.127.798-.097 1.153.018.213.066.332.114.391.029.037.087.092.271.097.217.005.397-.102.519-.3.128-.206.177-.492.101-.77a1.43 1.43 0 0 0-.52-.728c-.128-.091-.242-.135-.343-.142zm14.854.728c.818.327 1.546 1.371 1.233 2.512-.19.689-.56 1.181-1.039 1.44a1.61 1.61 0 0 1-2.357-1.13c-.077-.416-.011-.875.209-1.349.06-.544.24-.98.557-1.265.423-.382.962-.382 1.397-.209zm-1.181 2.322c-.019.124-.015.23.002.317a.61.61 0 0 0 .896.434c.191-.103.418-.341.552-.826.16-.582-.226-1.153-.64-1.319-.182-.073-.289-.038-.357.023-.03.027-.066.071-.102.14a.5.5 0 0 1-.037.482l-.107.176-.004.171a.5.5 0 0 1-.203.403zM93.254 98.852a1.95 1.95 0 0 1 .123 1.216c-.117.522-.351.935-.701 1.169a1.07 1.07 0 0 1-1.152.044c-.616-.358-.803-1.17-.495-2.015.038-.416.15-.767.37-1.01.149-.165.341-.273.56-.303a.99.99 0 0 1 .574.101c.32.157.572.461.722.798zm-1.238.637l.058-.116a.5.5 0 0 0 .034-.392c.07.026.163.12.233.278a.95.95 0 0 1 .06.592c-.083.371-.217.513-.28.555-.048.032-.071.025-.094.011-.033-.019-.172-.161-.144-.469a.5.5 0 0 0 .132-.338l.002-.121zm51.449-54.942c.872.244 1.413 1.213 1.132 2.374-.103.428-.358.953-.754 1.271a1.19 1.19 0 0 1-.809.281c-.329-.017-.622-.182-.868-.436-.362-.375-.418-.855-.381-1.265a.5.5 0 0 1-.372-.577c.115-.619.38-1.097.764-1.392a1.45 1.45 0 0 1 1.288-.255zm-.291.957a.52.52 0 0 1-.027.121l-.083.227c-.098.264-.201.54-.256.823-.072.373-.019.566.077.666.123.127.191.132.202.133s.054-.002.13-.062c.169-.136.338-.434.408-.726.182-.751-.182-1.106-.43-1.176l-.021-.005zM60.656 65.61c.093.22.172.474.177.696.009.443-.111.883-.377 1.224a1.47 1.47 0 0 1-1.184.575c-.38 0-.734-.121-.953-.438-.159-.229-.196-.493-.192-.72a.5.5 0 0 1-.03-.171l-.008-.279-.007-.168v-.603a2.61 2.61 0 0 1 .109-.652 1.22 1.22 0 0 1 .419-.62c.329-.244.696-.235.997-.097.269.124.486.346.646.555a3.31 3.31 0 0 1 .402.697zm-1.173-.057a.5.5 0 0 1-.02.122l-.098.31-.004.012-.099.309c-.067.22-.116.417-.131.579-.012.124.001.182.008.203.019.007.059.015.133.015a.47.47 0 0 0 .395-.189c.1-.128.171-.332.166-.588a1.14 1.14 0 0 0-.098-.326 2.34 2.34 0 0 0-.253-.449zm-.358 1.529zm159.459 8.526a1.36 1.36 0 0 1-.774.528c-.317.085-.622.091-.904.001s-.502-.266-.662-.478c-.305-.406-.403-.955-.403-1.432 0-.56.046-1.108.393-1.483a1.2 1.2 0 0 1 .371-.27l.035-.039a.86.86 0 0 1 .84-.264c.1.023.192.063.277.111a.5.5 0 0 1 .415.36c.14.168.263.366.364.574.223.461.376 1.047.327 1.585-.025.273-.105.559-.279.806zm-1.313-2.295l.143-.018a1.84 1.84 0 0 1 .222.358c.168.347.259.749.231 1.059-.014.15-.053.253-.1.319-.041.058-.102.109-.217.14-.172.046-.278.034-.339.014a.33.33 0 0 1-.168-.127c-.119-.159-.202-.454-.202-.831l.011-.344a.5.5 0 0 0 .361-.371 1.81 1.81 0 0 1 .058-.2zM109.152 20.721c-1.748-.072-3.572.257-4.707.893-2.587 1.451-4.619 3.906-4.716 7.05-.113 3.653 1.043 7.296 3.787 9.464.016.013.032.026.046.041.45.454 1.166.848 2.137 1.172.965.322 2.143.564 3.476.739 2.667.35 5.901.425 9.187.375 3.193-.049 6.417-.215 9.195-.358l.233-.012c2.813-.145 5.176-.264 6.514-.196a.5.5 0 1 1-.051.999c-1.273-.065-3.57.049-6.412.196l-.238.012-9.226.359c-3.301.05-6.592-.024-9.332-.383-1.369-.18-2.616-.432-3.663-.782-1.028-.344-1.903-.794-2.509-1.395-3.058-2.431-4.262-6.421-4.143-10.261.111-3.598 2.436-6.326 5.226-7.891 1.352-.758 3.38-1.096 5.237-1.02.936.039 1.854.183 2.647.448.785.262 1.492.658 1.949 1.23a.5.5 0 1 1-.782.624c-.289-.362-.794-.674-1.484-.905-.683-.228-1.505-.362-2.371-.397z"/><path d="M126.267 5.798c-4.831.963-9.382 4.18-11.944 8.434-.511.848-1.934 3.634-2.419 7.017a.5.5 0 1 1-.99-.142c.51-3.554 1.996-6.467 2.553-7.391 2.705-4.493 7.495-7.88 12.604-8.899 5.133-1.023 10.601.345 14.566 5.379a16.84 16.84 0 0 1 2.313 4.137.5.5 0 1 1-.938.349c-.479-1.287-1.346-2.832-2.161-3.867-3.704-4.704-8.776-5.976-13.584-5.017z"/><path d="M157.699 31.882c7.095-13.434-5.496-24.061-14.544-20.642-.357.135-1.034.512-1.721.954s-1.31.903-1.574 1.18a.5.5 0 0 1-.723-.691c.354-.371 1.064-.885 1.755-1.33s1.446-.874 1.91-1.049c9.94-3.756 23.291 7.826 15.781 22.045-1.562 2.958-4.064 6.574-7.979 7.974a.48.48 0 0 1-.084.022c-4.887.839-10.848.699-15.214.596l-3.265-.055a.5.5 0 1 1 0-1c.96 0 2.099.027 3.36.056 4.35.102 10.136.237 14.907-.575 3.519-1.278 5.858-4.582 7.391-7.485z"/></g><path d="M138.424 21.875l-5.29-5.297a6.04 6.04 0 0 0-2.188-1.323c-1.808-.602-3.607-.132-5.063 1.323l-5.304 5.297c-.592.627-1.043 1.373-1.322 2.189-.604 1.808-.134 3.606 1.322 5.061l5.297 5.297c.626.593 1.371 1.044 2.186 1.323a4.86 4.86 0 0 0 1.533.255c1.27 0 2.487-.537 3.53-1.578l5.295-5.297a6.03 6.03 0 0 0 1.325-2.189c.601-1.808.132-3.604-1.325-5.061h.004zm-8.515-3.76c.4.128.769.339 1.082.619l1.565 1.567-3.052 3.05-3.052-3.052 1.574-1.576c.422-.42 1.017-.866 1.887-.61l-.004.002zm-7.788 6.975a2.98 2.98 0 0 1 .621-1.082l1.565-1.565 3.052 3.052-3.054 3.052-1.574-1.576c-.422-.42-.866-1.015-.613-1.885l.003.004zm6.974 7.789a2.95 2.95 0 0 1-1.082-.619l-1.561-1.548 3.052-3.055 3.052 3.052-1.574 1.576c-.422.42-1.015.866-1.887.611v-.017zm7.792-6.96c-.128.4-.339.769-.619 1.082l-1.565 1.546-3.052-3.052 3.052-3.052 1.574 1.574c.422.42.866 1.015.613 1.885" fill="#00abe4"/><path d="M187 75h63v18h-63V75z" class="E"/><g class="B"><path d="M249 76h-61v16h61V76zm-62-1v18h63V75h-63z" class="D"/><g class="C"><use xlink:href="#R"/><path d="M205.178 84.108l-10.029.08c-.276.002-.5-.22-.501-.496s.223-.502.499-.504l10.029-.08c.276-.002.501.22.501.496s-.223.502-.499.504z"/><path d="M195.693 79.569a.5.5 0 0 1 .707.016 192.67 192.67 0 0 0 7.836 7.672.5.5 0 0 1-.675.738c-2.164-1.978-5.635-5.365-7.884-7.719a.5.5 0 0 1 .016-.707z"/><path d="M204.314 79.197a.5.5 0 0 1 .002.707l-1.904 1.959-6.506 6.113a.5.5 0 1 1-.604-.797c2.251-1.709 4.305-3.844 6.35-5.969l1.954-2.011a.5.5 0 0 1 .708-.003zm7.749-.517a.5.5 0 0 1 .513.487l-.103 9.344a.5.5 0 0 1-1-.031l.103-9.287a.5.5 0 0 1 .487-.513z"/><path d="M217.527 84.073l-10.029.08c-.276.002-.501-.22-.501-.496s.223-.502.499-.504l10.029-.08c.276-.002.5.22.501.496s-.223.502-.499.504z"/><path d="M208.042 79.533a.5.5 0 0 1 .707.016 192.09 192.09 0 0 0 7.836 7.672.5.5 0 0 1-.676.738 194.12 194.12 0 0 1-7.884-7.719.5.5 0 0 1 .017-.707z"/><path d="M216.662 79.161a.5.5 0 0 1 .003.707l-1.904 1.96-6.506 6.113a.5.5 0 1 1-.605-.796c2.252-1.709 4.305-3.843 6.35-5.969l1.955-2.011a.5.5 0 0 1 .707-.003zm7.392-.45a.5.5 0 0 1 .513.487l-.103 9.344a.5.5 0 0 1-.515.484.5.5 0 0 1-.484-.515l.102-9.287a.5.5 0 0 1 .487-.513z"/><path d="M229.518 84.104l-10.029.08c-.276.002-.5-.22-.501-.496s.223-.502.499-.504l10.029-.08c.276-.002.5.22.501.496s-.223.502-.499.504z"/><path d="M220.033 79.564a.5.5 0 0 1 .707.016c2.233 2.338 5.688 5.709 7.836 7.672a.5.5 0 0 1-.675.738c-2.164-1.978-5.635-5.364-7.884-7.719a.5.5 0 0 1 .016-.707z"/><path d="M228.653 79.192a.5.5 0 0 1 .003.707l-1.904 1.96-6.506 6.113a.5.5 0 1 1-.604-.797c2.251-1.709 4.304-3.844 6.349-5.969l1.955-2.011a.5.5 0 0 1 .707-.003zm6.593-.467a.5.5 0 0 1 .512.487l-.102 9.344a.5.5 0 0 1-1-.031l.103-9.287a.5.5 0 0 1 .487-.513z"/><path d="M240.709 84.117l-10.029.08c-.276.002-.5-.22-.5-.496s.223-.502.499-.504l10.028-.08c.277-.002.501.22.501.496s-.223.502-.499.504z"/><path d="M231.225 79.578a.5.5 0 0 1 .707.016 192.66 192.66 0 0 0 7.835 7.672.5.5 0 0 1-.675.738c-2.164-1.978-5.635-5.364-7.884-7.719a.5.5 0 0 1 .017-.707z"/><path d="M239.845 79.206a.5.5 0 0 1 .002.707l-1.903 1.96-6.507 6.113a.5.5 0 0 1-.7-.096.5.5 0 0 1 .096-.701c2.251-1.709 4.305-3.844 6.35-5.969l1.955-2.011a.5.5 0 0 1 .707-.003z"/></g></g><path d="M60 100h63v18H60v-18z" class="E"/><g class="B"><path d="M122 101H61v16h61v-16zm-62-1v18h63v-18H60z" class="D"/><g class="C"><path d="M73.798 104.228a.5.5 0 0 1 .508.492l-.183 9.342a.5.5 0 1 1-.999-.04l.182-9.286a.5.5 0 0 1 .491-.508z"/><path d="M79.214 109.673l-10.029-.016c-.276 0-.499-.224-.497-.501s.227-.499.504-.499l10.029.016c.276 0 .498.224.497.501s-.227.499-.504.499z"/><path d="M69.77 105.043a.5.5 0 0 1 .707.023 192.75 192.75 0 0 0 7.769 7.746.5.5 0 1 1-.681.732 193.37 193.37 0 0 1-7.817-7.794.5.5 0 0 1 .023-.707z"/><path d="M78.392 104.753a.5.5 0 0 1-.003.707l-1.92 1.942-6.558 6.051a.5.5 0 1 1-.597-.802c2.266-1.688 4.337-3.802 6.4-5.908l1.972-1.993a.5.5 0 0 1 .707.003zm7.755-.443a.5.5 0 0 1 .508.492l-.182 9.342a.5.5 0 0 1-.999-.04l.182-9.285a.5.5 0 0 1 .492-.509z"/><path d="M91.563 109.755l-10.029-.015c-.276-.001-.498-.225-.496-.501s.227-.5.503-.499l10.029.015c.276.001.498.225.496.501s-.227.5-.503.499z"/><path d="M82.119 105.125a.5.5 0 0 1 .707.023c2.213 2.36 5.639 5.763 7.769 7.747a.5.5 0 1 1-.681.732c-2.147-1.999-5.589-5.419-7.817-7.795a.5.5 0 0 1 .023-.707z"/><path d="M90.741 104.836a.5.5 0 0 1-.003.707l-1.921 1.941-6.558 6.051a.5.5 0 1 1-.597-.802c2.266-1.687 4.337-3.802 6.4-5.908l1.972-1.993a.5.5 0 0 1 .707.004zm7.77-.857a.5.5 0 0 1 .508.491l-.183 9.343a.5.5 0 1 1-.999-.04l.182-9.286a.5.5 0 0 1 .492-.508z"/><path d="M103.927 109.424l-10.029-.016c-.276 0-.498-.225-.497-.501s.227-.499.504-.499l10.029.016c.276 0 .498.224.496.5s-.227.5-.503.5z"/><path d="M94.483 104.794a.5.5 0 0 1 .707.023c2.213 2.359 5.639 5.763 7.769 7.746a.5.5 0 1 1-.681.732 193.96 193.96 0 0 1-7.818-7.794.5.5 0 0 1 .023-.707z"/><path d="M103.105 104.504a.5.5 0 0 1-.003.707l-1.921 1.941-6.558 6.052a.5.5 0 1 1-.597-.802c2.266-1.688 4.337-3.803 6.4-5.909l1.972-1.992a.5.5 0 0 1 .707.003zm8.542-.826a.5.5 0 0 1 .508.492l-.182 9.342a.5.5 0 0 1-1-.04l.182-9.285a.5.5 0 0 1 .492-.509z"/><path d="M117.063 109.123l-10.029-.016c-.276 0-.498-.224-.496-.5s.227-.5.503-.5l10.029.016c.276 0 .498.225.496.501s-.227.499-.503.499z"/><path d="M107.619 104.493a.5.5 0 0 1 .707.023c2.213 2.36 5.639 5.763 7.769 7.747a.5.5 0 0 1-.681.732 194.27 194.27 0 0 1-7.818-7.795.5.5 0 0 1 .023-.707z"/><path d="M116.241 104.203a.5.5 0 0 1-.003.708l-1.921 1.941-6.558 6.051a.5.5 0 1 1-.597-.802c2.265-1.688 4.337-3.802 6.4-5.908l1.972-1.993a.5.5 0 0 1 .707.003z"/></g></g><path d="M28 68H91V86H28V68Z" class="E"/><g class="B"><path d="M90 69H29V85H90V69ZM28 68V86H91V68H28Z" class="D"/><g class="C"><path d="M36.509 72.212a.5.5 0 0 1 .517.483l-.025 9.094a.5.5 0 1 1-1-.023l.025-9.037a.5.5 0 0 1 .483-.516z"/><use xlink:href="#S"/><path d="M32.595 73.075a.5.5 0 0 1 .707.011c2.191 2.259 5.58 5.515 7.685 7.41a.5.5 0 1 1-.669.743 188.54 188.54 0 0 1-7.734-7.457.5.5 0 0 1 .011-.707z"/><path d="M40.998 72.652a.5.5 0 0 1 .009.707l-1.836 1.919c-1.984 2.095-4.04 4.266-6.284 5.997a.5.5 0 1 1-.611-.792c2.176-1.678 4.156-3.769 6.129-5.851l1.887-1.972a.5.5 0 0 1 .707-.008zm6.777-.579a.5.5 0 0 1 .517.483l-.025 9.094a.5.5 0 1 1-1-.023l.026-9.037a.5.5 0 0 1 .483-.516z"/><path d="M53.135 77.309l-9.758.148c-.276.004-.502-.216-.505-.492s.219-.503.495-.508l9.758-.148c.276-.004.502.216.505.492s-.219.503-.495.508z"/><path d="M43.861 72.936a.5.5 0 0 1 .707.011c2.191 2.259 5.58 5.515 7.685 7.41a.5.5 0 0 1-.669.743 188.6 188.6 0 0 1-7.734-7.457.5.5 0 0 1 .011-.707z"/><use xlink:href="#T"/><path d="M59.791 71.951a.5.5 0 0 1 .517.483l-.025 9.094a.5.5 0 0 1-1-.023l.025-9.037a.5.5 0 0 1 .483-.517z"/><path d="M65.15 77.188l-9.758.148c-.276.004-.502-.216-.505-.492s.219-.503.495-.508l9.757-.148c.276-.004.502.216.505.492s-.219.503-.495.508z"/><path d="M55.876 72.814a.5.5 0 0 1 .707.011c2.191 2.259 5.58 5.515 7.685 7.41a.5.5 0 1 1-.669.743 188.47 188.47 0 0 1-7.734-7.457.5.5 0 0 1 .011-.707z"/><path d="M64.279 72.391a.5.5 0 0 1 .008.707l-1.836 1.919c-1.984 2.095-4.04 4.266-6.284 5.997a.5.5 0 1 1-.611-.792c2.176-1.678 4.156-3.769 6.129-5.851l1.887-1.972a.5.5 0 0 1 .707-.008zm6.773-.418a.5.5 0 0 1 .516.483l-.025 9.094a.5.5 0 1 1-1-.023l.025-9.037a.5.5 0 0 1 .483-.517z"/><path d="M76.412 77.21l-9.758.149c-.276.004-.502-.216-.505-.492s.219-.503.495-.508l9.758-.148c.276-.004.502.216.505.492s-.219.503-.495.508z"/><path d="M67.138 72.836a.5.5 0 0 1 .707.011 187.67 187.67 0 0 0 7.685 7.41.5.5 0 1 1-.669.743c-2.122-1.91-5.526-5.181-7.734-7.457a.5.5 0 0 1 .011-.707z"/><path d="M75.541 72.413a.5.5 0 0 1 .008.707l-1.836 1.919c-1.984 2.095-4.04 4.266-6.284 5.997a.5.5 0 1 1-.611-.792c2.176-1.678 4.156-3.769 6.129-5.851l1.887-1.972a.5.5 0 0 1 .707-.008zm6.78-.74a.5.5 0 0 1 .517.483l-.025 9.094a.5.5 0 1 1-1-.023l.025-9.037a.5.5 0 0 1 .483-.517z"/><path d="M87.681 76.91l-9.758.149c-.276.004-.502-.216-.505-.492s.219-.503.495-.508l9.758-.149c.276-.004.502.216.505.492s-.219.503-.495.508z"/><path d="M78.407 72.536a.5.5 0 0 1 .707.011c2.191 2.259 5.58 5.515 7.685 7.41a.5.5 0 0 1-.669.743 188.47 188.47 0 0 1-7.734-7.457.5.5 0 0 1 .011-.707z"/><path d="M86.809 72.113a.5.5 0 0 1 .008.707l-1.836 1.919c-1.984 2.095-4.04 4.266-6.284 5.997a.5.5 0 1 1-.611-.792c2.176-1.678 4.156-3.769 6.129-5.851l1.887-1.972a.5.5 0 0 1 .707-.008z"/></g></g><path d="M331.5 233l-163 10.5-14.5-108 8-4.5v-8l162 50 7.5 60z" fill="url(#C)" fill-opacity=".1"/></g><defs><radialGradient id="A" cx="0" cy="0" r="1" gradientUnits="userSpaceOnUse" gradientTransform="translate(156.413 129.481) rotate(116.231) scale(37.0924 46.355)"><stop stop-color="#b2b2b2"/><stop offset="1" stop-color="#b2b2b2" stop-opacity="0"/></radialGradient><radialGradient id="B" cx="0" cy="0" r="1" gradientUnits="userSpaceOnUse" gradientTransform="translate(144.32 110.106) rotate(68.5817) scale(59.5826 58.2486)"><stop stop-color="#939292"/><stop offset="1" stop-color="#939292" stop-opacity="0"/></radialGradient><linearGradient id="C" x1="180.5" y1="157.5" x2="198.5" y2="172.5" gradientUnits="userSpaceOnUse"><stop stop-color="#0278d5"/><stop offset="1" stop-color="#939292" stop-opacity="0"/></linearGradient><clipPath id="D"><path fill="#fff" d="M0 0h320v200H0z"/></clipPath><path id="E" d="M191.232 153.635a.5.5 0 0 1 .7-.104l5.188 4.132.103.087 2.524 2.048a.5.5 0 1 1-.595.804l-2.568-2.083-.11-.093-5.138-4.091a.5.5 0 0 1-.104-.7z"/><path id="F" d="M205.665 151.628a.5.5 0 0 1 .706.037c1.078 1.196 2.513 2.126 3.964 3.066l.931.608 4.149 2.561a.5.5 0 0 1-.498.867l-4.204-2.595-.884-.576c-1.453-.94-3.025-1.957-4.2-3.262a.5.5 0 0 1 .036-.706z"/><path id="G" d="M190.795 168.651a.5.5 0 0 1 .696-.13c1.596 1.093 3.045 2.309 4.461 3.525l.541.465 3.755 3.089a.5.5 0 1 1-.601.8l-3.809-3.133-.537-.462-4.375-3.459a.5.5 0 0 1-.131-.695z"/><path id="H" d="M199.292 158.703a.49.49 0 0 1 .494.499l-.248 11.396-.132 5.404a.51.51 0 0 1-.512.495.49.49 0 0 1-.489-.503l.132-5.415.247-11.377a.51.51 0 0 1 .508-.499z"/><path id="I" d="M192.097 150.769a.49.49 0 0 1 .494.499l-.277 12.797-.149 6.069a.51.51 0 0 1-.512.495.49.49 0 0 1-.489-.504l.148-6.079.278-12.778a.51.51 0 0 1 .507-.499z"/><path id="J" d="M217.496 157.889a.5.5 0 0 1-.451.544l-2.362.223c-6.163.584-10.8 1.023-17.67 1.364a.5.5 0 0 1-.524-.474.5.5 0 0 1 .474-.524c6.847-.341 11.463-.778 17.626-1.361l2.362-.223a.5.5 0 0 1 .545.451z"/><path id="K" d="M210.391 152.476a.5.5 0 0 1-.439.554c-4.814.556-8.343.85-12.419 1.189l-6.351.546a.5.5 0 1 1-.09-.996l6.375-.548 12.37-1.184a.5.5 0 0 1 .554.439z"/><path id="L" d="M217.599 172.702a.5.5 0 0 1 .7-.104l5.762 4.589.114.096 2.808 2.278a.5.5 0 1 1-.595.804l-2.851-2.312-.123-.104-5.711-4.547a.5.5 0 0 1-.104-.7z"/><path id="M" d="M215.587 189.718a.5.5 0 0 1 .696-.131c1.771 1.213 3.379 2.563 4.952 3.914l.601.516 4.175 3.435a.5.5 0 1 1-.601.8l-4.229-3.478-.597-.514-4.866-3.847a.5.5 0 0 1-.131-.695z"/><path id="N" d="M225.324 177.503a.49.49 0 0 1 .494.499l-.275 12.662-.147 6.005a.51.51 0 0 1-.512.495.49.49 0 0 1-.489-.504l.147-6.015.274-12.643a.51.51 0 0 1 .508-.499z"/><path id="O" d="M217.278 170.982a.49.49 0 0 1 .494.499l-.275 12.662-.147 6.005a.51.51 0 0 1-.512.495.49.49 0 0 1-.489-.503l.147-6.016.274-12.642a.51.51 0 0 1 .508-.5z"/><path id="P" d="M246.658 176.391a.5.5 0 0 1-.432.56l-2.615.335c-6.822.878-11.954 1.539-19.568 2.175a.5.5 0 1 1-.084-.997c7.592-.634 12.703-1.292 19.525-2.169l2.615-.336a.5.5 0 0 1 .559.432z"/><path id="Q" d="M237.603 170.535a.5.5 0 0 1-.44.554c-5.348.618-9.267.944-13.796 1.321l-7.058.606a.5.5 0 0 1-.543-.453.5.5 0 0 1 .453-.542l7.082-.609 13.747-1.316a.5.5 0 0 1 .555.439z"/><path id="R" d="M199.714 78.715a.5.5 0 0 1 .513.487l-.103 9.344a.5.5 0 0 1-.515.484.5.5 0 0 1-.484-.515l.102-9.287a.5.5 0 0 1 .487-.513z"/><path id="S" d="M41.869 77.448l-9.758.148c-.276.004-.502-.216-.505-.492s.219-.503.495-.508l9.758-.148c.276-.004.502.216.505.492s-.219.503-.495.508z"/><path id="T" d="M52.264 72.513a.5.5 0 0 1 .008.707l-1.836 1.919c-1.984 2.095-4.04 4.266-6.284 5.997a.5.5 0 1 1-.611-.792c2.176-1.678 4.156-3.769 6.129-5.851l1.887-1.972a.5.5 0 0 1 .707-.008z"/></defs></svg>