<svg width="32" height="32" viewBox="0 0 32 32" fill="none" xmlns="http://www.w3.org/2000/svg">
<path d="M27.1912 6H5.2087C4.0993 6 3.19995 6.89935 3.19995 8.00875V22.9912C3.19995 24.1006 4.0993 25 5.2087 25H27.1912C28.3006 25 29.2 24.1006 29.2 22.9912V8.00875C29.2 6.89935 28.3006 6 27.1912 6Z" stroke="#0A3364" stroke-width="1.5" stroke-linejoin="round"/>
<path d="M1.19995 25.9965H31.1999" stroke="#0A3364" stroke-width="1.5" stroke-miterlimit="10" stroke-linecap="round"/>
<path d="M15.6999 17.8309L18.2055 15.746C18.2563 15.7038 18.2971 15.6509 18.3252 15.5911C18.3532 15.5314 18.3677 15.4661 18.3677 15.4001C18.3677 15.3341 18.3532 15.2689 18.3252 15.2091C18.2971 15.1493 18.2563 15.0964 18.2055 15.0542L15.6999 12.9693C15.6342 12.9146 15.5543 12.8798 15.4695 12.8689C15.3847 12.858 15.2986 12.8715 15.2212 12.9078C15.1438 12.944 15.0784 13.0016 15.0325 13.0737C14.9866 13.1458 14.9622 13.2295 14.9622 13.3149V17.4853C14.9622 17.5708 14.9866 17.6544 15.0325 17.7265C15.0784 17.7986 15.1438 17.8562 15.2212 17.8924C15.2986 17.9287 15.3847 17.9422 15.4695 17.9313C15.5543 17.9204 15.6342 17.8856 15.6999 17.8309V17.8309Z" fill="#0A3364"/>
<path d="M21.6 15.4C21.6 12.4188 19.1813 10 16.2 10C13.2188 10 10.8 12.4188 10.8 15.4C10.8 18.3813 13.2188 20.8 16.2 20.8C19.1813 20.8 21.6 18.3813 21.6 15.4Z" stroke="#0A3364" stroke-miterlimit="10"/>
</svg>
