<svg width="24" height="24" viewBox="0 0 24 24" fill="none" xmlns="http://www.w3.org/2000/svg">
<path d="M12.5215 13.0593L8.25955 17.854C7.6227 18.5705 6.50321 18.5705 5.86634 17.854L1.60439 13.0593C1.0652 12.4528 1.0652 11.5386 1.60439 10.932L5.86634 6.13733C6.50321 5.42086 7.6227 5.42086 8.25955 6.13733L12.5215 10.932C13.0607 11.5386 13.0607 12.4528 12.5215 13.0593Z" stroke="#00ADE4" stroke-linecap="round" stroke-linejoin="round"/>
<path d="M9.46445 7.49285L10.6694 6.13733C11.3062 5.42086 12.4257 5.42086 13.0625 6.13733L17.3245 10.932C17.8637 11.5386 17.8637 12.4528 17.3245 13.0593L13.0625 17.854C12.4257 18.5705 11.3062 18.5705 10.6694 17.854L9.46445 16.4985" stroke="#00ADE4" stroke-linecap="round" stroke-linejoin="round"/>
<path d="M14.4 7.49412L15.508 6.13769C16.0937 5.42074 17.1231 5.42074 17.7088 6.13769L21.6281 10.9356C22.124 11.5426 22.124 12.4574 21.6281 13.0643L17.7088 17.8622C17.1231 18.5792 16.0937 18.5792 15.508 17.8622L14.4 16.5058" stroke="#00ADE4" stroke-linecap="round" stroke-linejoin="round"/>
</svg>
