<svg width="474" height="297" viewBox="0 0 474 297" fill="none" xmlns="http://www.w3.org/2000/svg">
<rect x="0.5" y="1.38596" width="473" height="43" rx="3.5" fill="#F6F1FF"/>
<path d="M171.57 15.3405V29.886H168.935V15.3405H171.57ZM176.88 23.4939V29.886H174.309V18.9769H176.767V20.8306H176.895C177.145 20.2198 177.546 19.7344 178.095 19.3746C178.649 19.0147 179.333 18.8348 180.147 18.8348C180.9 18.8348 181.556 18.9958 182.115 19.3178C182.678 19.6397 183.114 20.1061 183.422 20.7169C183.734 21.3277 183.888 22.0687 183.883 22.9399V29.886H181.312V23.3377C181.312 22.6085 181.123 22.0379 180.744 21.626C180.37 21.2141 179.851 21.0081 179.189 21.0081C178.739 21.0081 178.339 21.1075 177.988 21.3064C177.643 21.5005 177.37 21.7823 177.172 22.1516C176.977 22.5209 176.88 22.9683 176.88 23.4939ZM191.241 34.2041C190.318 34.2041 189.525 34.0787 188.862 33.8277C188.199 33.5815 187.666 33.2501 187.264 32.8334C186.861 32.4167 186.582 31.9551 186.426 31.4485L188.741 30.8874C188.845 31.1004 188.997 31.3111 189.196 31.5195C189.395 31.7325 189.662 31.9077 189.998 32.045C190.339 32.1871 190.768 32.2581 191.284 32.2581C192.013 32.2581 192.617 32.0806 193.095 31.7254C193.573 31.3751 193.812 30.7974 193.812 29.9925V27.9257H193.684C193.552 28.1909 193.358 28.4631 193.102 28.7425C192.851 29.0218 192.517 29.2562 192.1 29.4456C191.689 29.635 191.17 29.7297 190.545 29.7297C189.707 29.7297 188.947 29.5332 188.265 29.1402C187.588 28.7425 187.048 28.1506 186.646 27.3646C186.248 26.5739 186.049 25.5843 186.049 24.3959C186.049 23.198 186.248 22.1871 186.646 21.3632C187.048 20.5346 187.591 19.9073 188.272 19.4811C188.954 19.0503 189.714 18.8348 190.552 18.8348C191.191 18.8348 191.717 18.9437 192.129 19.1615C192.546 19.3746 192.877 19.6326 193.123 19.9357C193.369 20.234 193.556 20.5157 193.684 20.7808H193.826V18.9769H196.362V30.0635C196.362 30.9963 196.139 31.7681 195.694 32.3789C195.249 32.9896 194.641 33.4466 193.869 33.7496C193.097 34.0526 192.221 34.2041 191.241 34.2041ZM191.262 27.7127C191.807 27.7127 192.271 27.5801 192.654 27.3149C193.038 27.0498 193.329 26.6686 193.528 26.1715C193.727 25.6743 193.826 25.0777 193.826 24.3817C193.826 23.6951 193.727 23.0938 193.528 22.5777C193.334 22.0616 193.045 21.6615 192.662 21.3774C192.283 21.0886 191.816 20.9442 191.262 20.9442C190.69 20.9442 190.211 21.0933 189.828 21.3916C189.444 21.6899 189.155 22.0995 188.961 22.6203C188.767 23.1364 188.67 23.7236 188.67 24.3817C188.67 25.0493 188.767 25.6341 188.961 26.136C189.16 26.6331 189.451 27.0214 189.835 27.3007C190.223 27.5753 190.699 27.7127 191.262 27.7127ZM203.826 30.099C202.733 30.099 201.788 29.8718 200.993 29.4172C200.202 28.9579 199.593 28.3093 199.167 27.4712C198.741 26.6284 198.528 25.6364 198.528 24.4953C198.528 23.3732 198.741 22.3883 199.167 21.5408C199.598 20.6885 200.199 20.0256 200.971 19.5521C201.743 19.0739 202.65 18.8348 203.691 18.8348C204.364 18.8348 204.998 18.9437 205.595 19.1615C206.196 19.3746 206.726 19.706 207.186 20.1558C207.65 20.6057 208.014 21.1786 208.279 21.8746C208.545 22.5659 208.677 23.3897 208.677 24.3462V25.1345H199.735V23.4016H206.213C206.208 22.9092 206.101 22.4712 205.893 22.0877C205.685 21.6994 205.394 21.394 205.02 21.1715C204.65 20.9489 204.219 20.8377 203.727 20.8377C203.201 20.8377 202.74 20.9655 202.342 21.2212C201.944 21.4721 201.634 21.8036 201.412 22.2155C201.194 22.6227 201.083 23.0701 201.078 23.5578V25.0706C201.078 25.7051 201.194 26.2496 201.426 26.7041C201.658 27.1539 201.982 27.4996 202.399 27.7411C202.815 27.9778 203.303 28.0962 203.862 28.0962C204.236 28.0962 204.574 28.0441 204.877 27.9399C205.181 27.831 205.443 27.6724 205.666 27.4641C205.888 27.2557 206.056 26.9977 206.17 26.6899L208.571 26.9598C208.419 27.5943 208.13 28.1483 207.704 28.6218C207.283 29.0905 206.743 29.4551 206.085 29.7155C205.427 29.9712 204.674 30.099 203.826 30.099ZM219.474 21.8604L217.131 22.1161C217.064 21.8793 216.948 21.6568 216.783 21.4485C216.622 21.2401 216.404 21.072 216.129 20.9442C215.855 20.8164 215.518 20.7524 215.121 20.7524C214.586 20.7524 214.136 20.8684 213.771 21.1004C213.411 21.3325 213.234 21.6331 213.239 22.0024C213.234 22.3197 213.35 22.5777 213.587 22.7766C213.828 22.9754 214.226 23.1388 214.78 23.2666L216.641 23.6644C217.673 23.8869 218.44 24.2396 218.942 24.7226C219.448 25.2056 219.704 25.8377 219.709 26.6189C219.704 27.3055 219.503 27.9115 219.105 28.4371C218.712 28.9579 218.165 29.3651 217.464 29.6587C216.764 29.9522 215.959 30.099 215.05 30.099C213.714 30.099 212.64 29.8197 211.825 29.261C211.011 28.6975 210.526 27.9139 210.369 26.9101L212.876 26.6686C212.99 27.1611 213.232 27.5327 213.601 27.7837C213.97 28.0346 214.451 28.1601 215.043 28.1601C215.653 28.1601 216.143 28.0346 216.513 27.7837C216.887 27.5327 217.074 27.2226 217.074 26.8533C217.074 26.5408 216.953 26.2827 216.712 26.0791C216.475 25.8755 216.106 25.7193 215.604 25.6104L213.743 25.2198C212.696 25.002 211.922 24.635 211.42 24.1189C210.919 23.5981 210.67 22.9399 210.675 22.1445C210.67 21.4721 210.852 20.8897 211.222 20.3973C211.596 19.9002 212.114 19.5166 212.777 19.2468C213.445 18.9721 214.214 18.8348 215.085 18.8348C216.364 18.8348 217.37 19.1071 218.104 19.6516C218.842 20.1961 219.299 20.9324 219.474 21.8604ZM227.276 18.9769V20.9655H221.005V18.9769H227.276ZM222.553 16.3632H225.124V26.6047C225.124 26.9503 225.176 27.2155 225.281 27.4002C225.389 27.5801 225.531 27.7032 225.707 27.7695C225.882 27.8358 226.076 27.8689 226.289 27.8689C226.45 27.8689 226.597 27.8571 226.729 27.8334C226.867 27.8097 226.971 27.7884 227.042 27.7695L227.475 29.7794C227.338 29.8268 227.141 29.8789 226.886 29.9357C226.635 29.9925 226.327 30.0256 225.962 30.0351C225.318 30.054 224.738 29.957 224.222 29.7439C223.706 29.5261 223.297 29.1899 222.994 28.7354C222.695 28.2808 222.549 27.7127 222.553 27.0308V16.3632ZM234.387 29.886V18.9769H236.845V20.8306H236.973C237.2 20.2056 237.576 19.7179 238.102 19.3675C238.627 19.0124 239.255 18.8348 239.984 18.8348C240.723 18.8348 241.345 19.0147 241.852 19.3746C242.363 19.7297 242.723 20.215 242.931 20.8306H243.045C243.287 20.2245 243.694 19.7415 244.267 19.3817C244.844 19.0171 245.529 18.8348 246.319 18.8348C247.323 18.8348 248.142 19.1521 248.777 19.7865C249.411 20.421 249.728 21.3467 249.728 22.5635V29.886H247.15V22.9612C247.15 22.2842 246.97 21.7894 246.61 21.4769C246.251 21.1596 245.81 21.001 245.289 21.001C244.669 21.001 244.184 21.1951 243.833 21.5834C243.488 21.9669 243.315 22.4664 243.315 23.082V29.886H240.794V22.8547C240.794 22.2913 240.623 21.8414 240.282 21.5053C239.946 21.1691 239.506 21.001 238.961 21.001C238.592 21.001 238.256 21.0957 237.953 21.2851C237.65 21.4698 237.408 21.7325 237.228 22.0735C237.048 22.4096 236.958 22.8026 236.958 23.2524V29.886H234.387ZM257.166 30.099C256.072 30.099 255.128 29.8718 254.332 29.4172C253.542 28.9579 252.933 28.3093 252.507 27.4712C252.081 26.6284 251.868 25.6364 251.868 24.4953C251.868 23.3732 252.081 22.3883 252.507 21.5408C252.938 20.6885 253.539 20.0256 254.311 19.5521C255.083 19.0739 255.99 18.8348 257.031 18.8348C257.704 18.8348 258.338 18.9437 258.935 19.1615C259.536 19.3746 260.066 19.706 260.526 20.1558C260.99 20.6057 261.354 21.1786 261.619 21.8746C261.884 22.5659 262.017 23.3897 262.017 24.3462V25.1345H253.075V23.4016H259.553C259.548 22.9092 259.441 22.4712 259.233 22.0877C259.025 21.6994 258.733 21.394 258.359 21.1715C257.99 20.9489 257.559 20.8377 257.067 20.8377C256.541 20.8377 256.08 20.9655 255.682 21.2212C255.284 21.4721 254.974 21.8036 254.751 22.2155C254.534 22.6227 254.422 23.0701 254.418 23.5578V25.0706C254.418 25.7051 254.534 26.2496 254.766 26.7041C254.998 27.1539 255.322 27.4996 255.739 27.7411C256.155 27.9778 256.643 28.0962 257.202 28.0962C257.576 28.0962 257.914 28.0441 258.217 27.9399C258.52 27.831 258.783 27.6724 259.006 27.4641C259.228 27.2557 259.396 26.9977 259.51 26.6899L261.911 26.9598C261.759 27.5943 261.47 28.1483 261.044 28.6218C260.623 29.0905 260.083 29.4551 259.425 29.7155C258.767 29.9712 258.014 30.099 257.166 30.099ZM269.64 18.9769V20.9655H263.368V18.9769H269.64ZM264.917 16.3632H267.488V26.6047C267.488 26.9503 267.54 27.2155 267.644 27.4002C267.753 27.5801 267.895 27.7032 268.07 27.7695C268.245 27.8358 268.439 27.8689 268.652 27.8689C268.813 27.8689 268.96 27.8571 269.093 27.8334C269.23 27.8097 269.334 27.7884 269.405 27.7695L269.838 29.7794C269.701 29.8268 269.505 29.8789 269.249 29.9357C268.998 29.9925 268.69 30.0256 268.326 30.0351C267.682 30.054 267.102 29.957 266.586 29.7439C266.069 29.5261 265.66 29.1899 265.357 28.7354C265.059 28.2808 264.912 27.7127 264.917 27.0308V16.3632ZM271.79 29.886V18.9769H274.283V20.795H274.396C274.595 20.1653 274.936 19.68 275.419 19.3391C275.907 18.9934 276.463 18.8206 277.088 18.8206C277.23 18.8206 277.389 18.8277 277.564 18.8419C277.744 18.8514 277.893 18.868 278.011 18.8916V21.2567C277.902 21.2188 277.73 21.1857 277.493 21.1573C277.261 21.1241 277.036 21.1075 276.818 21.1075C276.349 21.1075 275.928 21.2093 275.554 21.4129C275.185 21.6118 274.893 21.8888 274.68 22.2439C274.467 22.599 274.361 23.0086 274.361 23.4726V29.886H271.79ZM279.719 29.886V18.9769H282.29V29.886H279.719ZM281.012 17.4286C280.605 17.4286 280.254 17.2936 279.961 17.0237C279.667 16.7491 279.521 16.42 279.521 16.0365C279.521 15.6483 279.667 15.3192 279.961 15.0493C280.254 14.7747 280.605 14.6374 281.012 14.6374C281.424 14.6374 281.774 14.7747 282.063 15.0493C282.357 15.3192 282.504 15.6483 282.504 16.0365C282.504 16.42 282.357 16.7491 282.063 17.0237C281.774 17.2936 281.424 17.4286 281.012 17.4286ZM289.693 30.099C288.604 30.099 287.669 29.8599 286.887 29.3817C286.111 28.9035 285.512 28.243 285.091 27.4002C284.674 26.5526 284.466 25.5772 284.466 24.474C284.466 23.3661 284.679 22.3883 285.105 21.5408C285.531 20.6885 286.132 20.0256 286.909 19.5521C287.69 19.0739 288.613 18.8348 289.679 18.8348C290.564 18.8348 291.348 18.9982 292.029 19.3249C292.716 19.6468 293.263 20.1038 293.67 20.6956C294.077 21.2827 294.309 21.9693 294.366 22.7553H291.909C291.809 22.2297 291.573 21.7917 291.199 21.4414C290.829 21.0862 290.334 20.9087 289.714 20.9087C289.189 20.9087 288.727 21.0507 288.329 21.3348C287.931 21.6142 287.621 22.0166 287.399 22.5422C287.181 23.0678 287.072 23.6975 287.072 24.4314C287.072 25.1748 287.181 25.814 287.399 26.349C287.617 26.8793 287.922 27.2889 288.315 27.5777C288.713 27.8618 289.179 28.0039 289.714 28.0039C290.093 28.0039 290.431 27.9328 290.73 27.7908C291.033 27.644 291.286 27.4333 291.49 27.1587C291.693 26.8841 291.833 26.5503 291.909 26.1573H294.366C294.305 26.929 294.077 27.6132 293.684 28.2098C293.291 28.8017 292.756 29.2657 292.079 29.6019C291.402 29.9333 290.607 30.099 289.693 30.099ZM305.099 21.8604L302.756 22.1161C302.689 21.8793 302.573 21.6568 302.408 21.4485C302.247 21.2401 302.029 21.072 301.754 20.9442C301.48 20.8164 301.143 20.7524 300.746 20.7524C300.211 20.7524 299.761 20.8684 299.396 21.1004C299.036 21.3325 298.859 21.6331 298.864 22.0024C298.859 22.3197 298.975 22.5777 299.212 22.7766C299.453 22.9754 299.851 23.1388 300.405 23.2666L302.266 23.6644C303.298 23.8869 304.065 24.2396 304.567 24.7226C305.073 25.2056 305.329 25.8377 305.334 26.6189C305.329 27.3055 305.128 27.9115 304.73 28.4371C304.337 28.9579 303.79 29.3651 303.089 29.6587C302.389 29.9522 301.584 30.099 300.675 30.099C299.339 30.099 298.265 29.8197 297.45 29.261C296.636 28.6975 296.151 27.9139 295.994 26.9101L298.501 26.6686C298.615 27.1611 298.857 27.5327 299.226 27.7837C299.595 28.0346 300.076 28.1601 300.668 28.1601C301.278 28.1601 301.768 28.0346 302.138 27.7837C302.512 27.5327 302.699 27.2226 302.699 26.8533C302.699 26.5408 302.578 26.2827 302.337 26.0791C302.1 25.8755 301.731 25.7193 301.229 25.6104L299.368 25.2198C298.321 25.002 297.547 24.635 297.045 24.1189C296.544 23.5981 296.295 22.9399 296.3 22.1445C296.295 21.4721 296.477 20.8897 296.847 20.3973C297.221 19.9002 297.739 19.5166 298.402 19.2468C299.07 18.9721 299.839 18.8348 300.71 18.8348C301.989 18.8348 302.995 19.1071 303.729 19.6516C304.467 20.1961 304.924 20.9324 305.099 21.8604Z" fill="#22222A"/>
<rect x="0.5" y="1.38596" width="473" height="43" rx="3.5" stroke="#AE82FC"/>
<path d="M233 68.886L236.99 72.886L237 56.886V72.886L241 68.886" stroke="#AE82FC" stroke-linecap="round" stroke-linejoin="round"/>
<rect x="0.5" y="85.386" width="473" height="43" rx="3.5" fill="#F6F1FF"/>
<path d="M166.705 104.248H164.049C163.973 103.813 163.834 103.427 163.63 103.091C163.426 102.75 163.173 102.461 162.87 102.224C162.567 101.987 162.221 101.81 161.833 101.691C161.45 101.568 161.035 101.507 160.59 101.507C159.799 101.507 159.099 101.706 158.488 102.103C157.877 102.496 157.399 103.074 157.053 103.836C156.708 104.594 156.535 105.519 156.535 106.613C156.535 107.726 156.708 108.663 157.053 109.426C157.404 110.183 157.882 110.756 158.488 111.144C159.099 111.528 159.797 111.72 160.583 111.72C161.019 111.72 161.426 111.663 161.805 111.549C162.188 111.431 162.531 111.258 162.835 111.031C163.142 110.804 163.4 110.524 163.609 110.193C163.822 109.861 163.969 109.483 164.049 109.056L166.705 109.071C166.606 109.762 166.39 110.411 166.059 111.017C165.732 111.623 165.304 112.158 164.773 112.622C164.243 113.081 163.623 113.441 162.913 113.701C162.202 113.957 161.414 114.085 160.548 114.085C159.269 114.085 158.128 113.789 157.124 113.197C156.121 112.605 155.33 111.751 154.752 110.633C154.174 109.516 153.886 108.176 153.886 106.613C153.886 105.046 154.177 103.706 154.759 102.593C155.342 101.476 156.135 100.621 157.138 100.029C158.142 99.4376 159.279 99.1416 160.548 99.1416C161.357 99.1416 162.11 99.2553 162.806 99.4825C163.502 99.7098 164.122 100.044 164.667 100.484C165.211 100.92 165.659 101.455 166.009 102.089C166.364 102.719 166.596 103.439 166.705 104.248ZM173.763 114.099C172.698 114.099 171.775 113.865 170.993 113.396C170.212 112.927 169.606 112.271 169.175 111.429C168.749 110.586 168.536 109.601 168.536 108.474C168.536 107.347 168.749 106.36 169.175 105.512C169.606 104.665 170.212 104.007 170.993 103.538C171.775 103.069 172.698 102.835 173.763 102.835C174.828 102.835 175.752 103.069 176.533 103.538C177.314 104.007 177.918 104.665 178.344 105.512C178.775 106.36 178.99 107.347 178.99 108.474C178.99 109.601 178.775 110.586 178.344 111.429C177.918 112.271 177.314 112.927 176.533 113.396C175.752 113.865 174.828 114.099 173.763 114.099ZM173.777 112.039C174.355 112.039 174.838 111.881 175.226 111.564C175.614 111.242 175.903 110.811 176.093 110.271C176.287 109.731 176.384 109.13 176.384 108.467C176.384 107.799 176.287 107.196 176.093 106.656C175.903 106.111 175.614 105.678 175.226 105.356C174.838 105.034 174.355 104.873 173.777 104.873C173.185 104.873 172.693 105.034 172.3 105.356C171.912 105.678 171.621 106.111 171.426 106.656C171.237 107.196 171.142 107.799 171.142 108.467C171.142 109.13 171.237 109.731 171.426 110.271C171.621 110.811 171.912 111.242 172.3 111.564C172.693 111.881 173.185 112.039 173.777 112.039ZM181.173 113.886V102.977H183.665V104.795H183.779C183.978 104.165 184.319 103.68 184.802 103.339C185.29 102.993 185.846 102.821 186.471 102.821C186.613 102.821 186.772 102.828 186.947 102.842C187.127 102.851 187.276 102.868 187.394 102.892V105.257C187.285 105.219 187.112 105.186 186.876 105.157C186.644 105.124 186.419 105.108 186.201 105.108C185.732 105.108 185.311 105.209 184.937 105.413C184.567 105.612 184.276 105.889 184.063 106.244C183.85 106.599 183.744 107.009 183.744 107.473V113.886H181.173ZM189.102 113.886V102.977H191.595V104.795H191.709C191.908 104.165 192.249 103.68 192.732 103.339C193.219 102.993 193.776 102.821 194.401 102.821C194.543 102.821 194.701 102.828 194.876 102.842C195.056 102.851 195.205 102.868 195.324 102.892V105.257C195.215 105.219 195.042 105.186 194.805 105.157C194.573 105.124 194.348 105.108 194.131 105.108C193.662 105.108 193.241 105.209 192.866 105.413C192.497 105.612 192.206 105.889 191.993 106.244C191.78 106.599 191.673 107.009 191.673 107.473V113.886H189.102ZM201.412 114.099C200.319 114.099 199.374 113.872 198.578 113.417C197.788 112.958 197.179 112.309 196.753 111.471C196.327 110.628 196.114 109.636 196.114 108.495C196.114 107.373 196.327 106.388 196.753 105.541C197.184 104.689 197.785 104.026 198.557 103.552C199.329 103.074 200.236 102.835 201.277 102.835C201.95 102.835 202.584 102.944 203.181 103.162C203.782 103.375 204.312 103.706 204.772 104.156C205.236 104.606 205.6 105.179 205.865 105.875C206.131 106.566 206.263 107.39 206.263 108.346V109.135H197.321V107.402H203.799C203.794 106.909 203.687 106.471 203.479 106.088C203.271 105.699 202.98 105.394 202.605 105.171C202.236 104.949 201.805 104.838 201.313 104.838C200.787 104.838 200.326 104.966 199.928 105.221C199.53 105.472 199.22 105.804 198.998 106.216C198.78 106.623 198.668 107.07 198.664 107.558V109.071C198.664 109.705 198.78 110.25 199.012 110.704C199.244 111.154 199.568 111.5 199.985 111.741C200.401 111.978 200.889 112.096 201.448 112.096C201.822 112.096 202.16 112.044 202.463 111.94C202.766 111.831 203.029 111.672 203.252 111.464C203.474 111.256 203.642 110.998 203.756 110.69L206.157 110.96C206.005 111.594 205.716 112.148 205.29 112.622C204.869 113.091 204.329 113.455 203.671 113.716C203.013 113.971 202.26 114.099 201.412 114.099ZM211.009 99.3405V113.886H208.438V99.3405H211.009ZM216.792 114.106C216.101 114.106 215.478 113.983 214.924 113.737C214.375 113.486 213.94 113.117 213.618 112.629C213.3 112.141 213.142 111.54 213.142 110.825C213.142 110.209 213.255 109.7 213.483 109.298C213.71 108.895 214.02 108.573 214.413 108.332C214.806 108.091 215.249 107.908 215.741 107.785C216.238 107.657 216.752 107.565 217.282 107.508C217.922 107.442 218.44 107.383 218.838 107.331C219.235 107.274 219.524 107.189 219.704 107.075C219.889 106.957 219.981 106.774 219.981 106.528V106.485C219.981 105.95 219.823 105.536 219.505 105.242C219.188 104.949 218.731 104.802 218.135 104.802C217.505 104.802 217.005 104.939 216.636 105.214C216.271 105.489 216.025 105.813 215.897 106.187L213.497 105.846C213.686 105.183 213.999 104.629 214.434 104.184C214.87 103.734 215.403 103.398 216.032 103.176C216.662 102.948 217.358 102.835 218.12 102.835C218.646 102.835 219.169 102.896 219.69 103.019C220.211 103.143 220.687 103.346 221.118 103.63C221.548 103.91 221.894 104.291 222.154 104.774C222.42 105.257 222.552 105.86 222.552 106.585V113.886H220.081V112.387H219.995C219.839 112.69 219.619 112.974 219.335 113.24C219.056 113.5 218.703 113.711 218.277 113.872C217.855 114.028 217.36 114.106 216.792 114.106ZM217.46 112.217C217.976 112.217 218.423 112.115 218.802 111.912C219.181 111.703 219.472 111.429 219.676 111.088C219.884 110.747 219.988 110.375 219.988 109.973V108.687C219.908 108.753 219.77 108.815 219.576 108.872C219.387 108.929 219.174 108.978 218.937 109.021C218.7 109.064 218.466 109.101 218.234 109.135C218.002 109.168 217.801 109.196 217.63 109.22C217.247 109.272 216.904 109.357 216.6 109.475C216.297 109.594 216.058 109.76 215.883 109.973C215.708 110.181 215.62 110.451 215.62 110.782C215.62 111.256 215.793 111.613 216.139 111.855C216.484 112.096 216.925 112.217 217.46 112.217ZM230.585 102.977V104.966H224.314V102.977H230.585ZM225.862 100.363H228.433V110.605C228.433 110.95 228.485 111.216 228.589 111.4C228.698 111.58 228.84 111.703 229.015 111.769C229.19 111.836 229.385 111.869 229.598 111.869C229.759 111.869 229.905 111.857 230.038 111.833C230.175 111.81 230.279 111.788 230.35 111.769L230.784 113.779C230.646 113.827 230.45 113.879 230.194 113.936C229.943 113.992 229.636 114.026 229.271 114.035C228.627 114.054 228.047 113.957 227.531 113.744C227.015 113.526 226.605 113.19 226.302 112.735C226.004 112.281 225.857 111.713 225.862 111.031V100.363ZM237.447 114.099C236.354 114.099 235.409 113.872 234.614 113.417C233.823 112.958 233.214 112.309 232.788 111.471C232.362 110.628 232.149 109.636 232.149 108.495C232.149 107.373 232.362 106.388 232.788 105.541C233.219 104.689 233.821 104.026 234.592 103.552C235.364 103.074 236.271 102.835 237.312 102.835C237.985 102.835 238.619 102.944 239.216 103.162C239.817 103.375 240.348 103.706 240.807 104.156C241.271 104.606 241.635 105.179 241.901 105.875C242.166 106.566 242.298 107.39 242.298 108.346V109.135H233.357V107.402H239.834C239.829 106.909 239.723 106.471 239.514 106.088C239.306 105.699 239.015 105.394 238.641 105.171C238.271 104.949 237.84 104.838 237.348 104.838C236.822 104.838 236.361 104.966 235.963 105.221C235.565 105.472 235.255 105.804 235.033 106.216C234.815 106.623 234.704 107.07 234.699 107.558V109.071C234.699 109.705 234.815 110.25 235.047 110.704C235.279 111.154 235.603 111.5 236.02 111.741C236.437 111.978 236.924 112.096 237.483 112.096C237.857 112.096 238.196 112.044 238.499 111.94C238.802 111.831 239.064 111.672 239.287 111.464C239.509 111.256 239.678 110.998 239.791 110.69L242.192 110.96C242.04 111.594 241.751 112.148 241.325 112.622C240.904 113.091 240.364 113.455 239.706 113.716C239.048 113.971 238.295 114.099 237.447 114.099ZM249.434 113.886V102.977H251.892V104.831H252.02C252.247 104.206 252.623 103.718 253.149 103.367C253.674 103.012 254.302 102.835 255.031 102.835C255.77 102.835 256.392 103.015 256.899 103.375C257.41 103.73 257.77 104.215 257.978 104.831H258.092C258.333 104.224 258.741 103.742 259.314 103.382C259.891 103.017 260.575 102.835 261.366 102.835C262.37 102.835 263.189 103.152 263.824 103.787C264.458 104.421 264.775 105.347 264.775 106.564V113.886H262.197V106.961C262.197 106.284 262.017 105.789 261.657 105.477C261.297 105.16 260.857 105.001 260.336 105.001C259.716 105.001 259.231 105.195 258.88 105.583C258.535 105.967 258.362 106.466 258.362 107.082V113.886H255.841V106.855C255.841 106.291 255.67 105.841 255.329 105.505C254.993 105.169 254.553 105.001 254.008 105.001C253.639 105.001 253.303 105.096 253 105.285C252.697 105.47 252.455 105.733 252.275 106.073C252.095 106.41 252.005 106.803 252.005 107.252V113.886H249.434ZM272.213 114.099C271.119 114.099 270.175 113.872 269.379 113.417C268.589 112.958 267.98 112.309 267.554 111.471C267.128 110.628 266.915 109.636 266.915 108.495C266.915 107.373 267.128 106.388 267.554 105.541C267.985 104.689 268.586 104.026 269.358 103.552C270.13 103.074 271.036 102.835 272.078 102.835C272.75 102.835 273.385 102.944 273.982 103.162C274.583 103.375 275.113 103.706 275.572 104.156C276.036 104.606 276.401 105.179 276.666 105.875C276.931 106.566 277.064 107.39 277.064 108.346V109.135H268.122V107.402H274.599C274.595 106.909 274.488 106.471 274.28 106.088C274.071 105.699 273.78 105.394 273.406 105.171C273.037 104.949 272.606 104.838 272.114 104.838C271.588 104.838 271.126 104.966 270.729 105.221C270.331 105.472 270.021 105.804 269.798 106.216C269.58 106.623 269.469 107.07 269.464 107.558V109.071C269.464 109.705 269.58 110.25 269.812 110.704C270.045 111.154 270.369 111.5 270.786 111.741C271.202 111.978 271.69 112.096 272.249 112.096C272.623 112.096 272.961 112.044 273.264 111.94C273.567 111.831 273.83 111.672 274.053 111.464C274.275 111.256 274.443 110.998 274.557 110.69L276.957 110.96C276.806 111.594 276.517 112.148 276.091 112.622C275.67 113.091 275.13 113.455 274.472 113.716C273.813 113.971 273.061 114.099 272.213 114.099ZM284.686 102.977V104.966H278.415V102.977H284.686ZM279.963 100.363H282.534V110.605C282.534 110.95 282.587 111.216 282.691 111.4C282.8 111.58 282.942 111.703 283.117 111.769C283.292 111.836 283.486 111.869 283.699 111.869C283.86 111.869 284.007 111.857 284.14 111.833C284.277 111.81 284.381 111.788 284.452 111.769L284.885 113.779C284.748 113.827 284.551 113.879 284.296 113.936C284.045 113.992 283.737 114.026 283.373 114.035C282.729 114.054 282.149 113.957 281.632 113.744C281.116 113.526 280.707 113.19 280.404 112.735C280.105 112.281 279.959 111.713 279.963 111.031V100.363ZM286.837 113.886V102.977H289.33V104.795H289.443C289.642 104.165 289.983 103.68 290.466 103.339C290.954 102.993 291.51 102.821 292.135 102.821C292.277 102.821 292.436 102.828 292.611 102.842C292.791 102.851 292.94 102.868 293.058 102.892V105.257C292.949 105.219 292.777 105.186 292.54 105.157C292.308 105.124 292.083 105.108 291.865 105.108C291.396 105.108 290.975 105.209 290.601 105.413C290.232 105.612 289.94 105.889 289.727 106.244C289.514 106.599 289.408 107.009 289.408 107.473V113.886H286.837ZM294.766 113.886V102.977H297.337V113.886H294.766ZM296.059 101.429C295.652 101.429 295.301 101.294 295.008 101.024C294.714 100.749 294.567 100.42 294.567 100.037C294.567 99.6483 294.714 99.3192 295.008 99.0493C295.301 98.7747 295.652 98.6374 296.059 98.6374C296.471 98.6374 296.821 98.7747 297.11 99.0493C297.404 99.3192 297.55 99.6483 297.55 100.037C297.55 100.42 297.404 100.749 297.11 101.024C296.821 101.294 296.471 101.429 296.059 101.429ZM304.74 114.099C303.651 114.099 302.716 113.86 301.934 113.382C301.158 112.903 300.559 112.243 300.137 111.4C299.721 110.553 299.512 109.577 299.512 108.474C299.512 107.366 299.725 106.388 300.152 105.541C300.578 104.689 301.179 104.026 301.956 103.552C302.737 103.074 303.66 102.835 304.725 102.835C305.611 102.835 306.395 102.998 307.076 103.325C307.763 103.647 308.31 104.104 308.717 104.696C309.124 105.283 309.356 105.969 309.413 106.755H306.956C306.856 106.23 306.619 105.792 306.245 105.441C305.876 105.086 305.381 104.909 304.761 104.909C304.235 104.909 303.774 105.051 303.376 105.335C302.978 105.614 302.668 106.017 302.446 106.542C302.228 107.068 302.119 107.698 302.119 108.431C302.119 109.175 302.228 109.814 302.446 110.349C302.663 110.879 302.969 111.289 303.362 111.578C303.76 111.862 304.226 112.004 304.761 112.004C305.14 112.004 305.478 111.933 305.777 111.791C306.08 111.644 306.333 111.433 306.537 111.159C306.74 110.884 306.88 110.55 306.956 110.157H309.413C309.351 110.929 309.124 111.613 308.731 112.21C308.338 112.802 307.803 113.266 307.126 113.602C306.449 113.933 305.654 114.099 304.74 114.099ZM320.146 105.86L317.803 106.116C317.736 105.879 317.62 105.657 317.455 105.448C317.294 105.24 317.076 105.072 316.801 104.944C316.527 104.816 316.19 104.752 315.793 104.752C315.258 104.752 314.808 104.868 314.443 105.1C314.083 105.332 313.906 105.633 313.911 106.002C313.906 106.32 314.022 106.578 314.259 106.777C314.5 106.975 314.898 107.139 315.452 107.267L317.312 107.664C318.345 107.887 319.112 108.24 319.614 108.723C320.12 109.206 320.376 109.838 320.381 110.619C320.376 111.305 320.175 111.912 319.777 112.437C319.384 112.958 318.837 113.365 318.136 113.659C317.436 113.952 316.631 114.099 315.722 114.099C314.386 114.099 313.312 113.82 312.497 113.261C311.683 112.698 311.197 111.914 311.041 110.91L313.548 110.669C313.662 111.161 313.903 111.533 314.273 111.784C314.642 112.035 315.123 112.16 315.714 112.16C316.325 112.16 316.815 112.035 317.185 111.784C317.559 111.533 317.746 111.223 317.746 110.853C317.746 110.541 317.625 110.283 317.384 110.079C317.147 109.876 316.777 109.719 316.276 109.61L314.415 109.22C313.368 109.002 312.594 108.635 312.092 108.119C311.59 107.598 311.342 106.94 311.347 106.144C311.342 105.472 311.524 104.89 311.893 104.397C312.268 103.9 312.786 103.517 313.449 103.247C314.116 102.972 314.886 102.835 315.757 102.835C317.036 102.835 318.042 103.107 318.776 103.652C319.514 104.196 319.971 104.932 320.146 105.86Z" fill="#22222A"/>
<rect x="0.5" y="85.386" width="473" height="43" rx="3.5" stroke="#AE82FC"/>
<path d="M233 152.886L236.99 156.886L237 140.886V156.886L241 152.886" stroke="#AE82FC" stroke-linecap="round" stroke-linejoin="round"/>
<rect x="0.5" y="169.386" width="473" height="43" rx="3.5" fill="#F6F1FF"/>
<path d="M111.631 183.341L115.416 194.789H115.565L119.344 183.341H122.241L117.114 197.886H113.861L108.74 183.341H111.631ZM126.05 198.106C125.359 198.106 124.736 197.983 124.182 197.737C123.633 197.486 123.197 197.117 122.875 196.629C122.558 196.141 122.4 195.54 122.4 194.825C122.4 194.209 122.513 193.7 122.74 193.298C122.968 192.895 123.278 192.573 123.671 192.332C124.064 192.091 124.507 191.908 124.999 191.785C125.496 191.657 126.01 191.565 126.54 191.508C127.179 191.442 127.698 191.383 128.096 191.331C128.493 191.274 128.782 191.189 128.962 191.075C129.147 190.957 129.239 190.774 129.239 190.528V190.485C129.239 189.95 129.08 189.536 128.763 189.242C128.446 188.949 127.989 188.802 127.392 188.802C126.763 188.802 126.263 188.939 125.894 189.214C125.529 189.489 125.283 189.813 125.155 190.187L122.755 189.846C122.944 189.183 123.257 188.629 123.692 188.184C124.128 187.734 124.66 187.398 125.29 187.176C125.92 186.948 126.616 186.835 127.378 186.835C127.904 186.835 128.427 186.896 128.948 187.019C129.469 187.143 129.944 187.346 130.375 187.63C130.806 187.91 131.152 188.291 131.412 188.774C131.677 189.257 131.81 189.86 131.81 190.585V197.886H129.338V196.387H129.253C129.097 196.69 128.877 196.974 128.593 197.24C128.313 197.5 127.961 197.711 127.534 197.872C127.113 198.028 126.618 198.106 126.05 198.106ZM126.718 196.217C127.234 196.217 127.681 196.115 128.06 195.912C128.439 195.703 128.73 195.429 128.934 195.088C129.142 194.747 129.246 194.375 129.246 193.973V192.687C129.166 192.753 129.028 192.815 128.834 192.872C128.645 192.929 128.432 192.978 128.195 193.021C127.958 193.064 127.724 193.101 127.492 193.135C127.26 193.168 127.059 193.196 126.888 193.22C126.505 193.272 126.161 193.357 125.858 193.475C125.555 193.594 125.316 193.76 125.141 193.973C124.966 194.181 124.878 194.451 124.878 194.782C124.878 195.256 125.051 195.613 125.397 195.855C125.742 196.096 126.183 196.217 126.718 196.217ZM136.966 183.341V197.886H134.395V183.341H136.966ZM139.61 197.886V186.977H142.181V197.886H139.61ZM140.903 185.429C140.496 185.429 140.145 185.294 139.852 185.024C139.558 184.749 139.411 184.42 139.411 184.037C139.411 183.648 139.558 183.319 139.852 183.049C140.145 182.775 140.496 182.637 140.903 182.637C141.315 182.637 141.665 182.775 141.954 183.049C142.247 183.319 142.394 183.648 142.394 184.037C142.394 184.42 142.247 184.749 141.954 185.024C141.665 185.294 141.315 185.429 140.903 185.429ZM148.873 198.078C148.016 198.078 147.249 197.858 146.572 197.417C145.895 196.977 145.36 196.338 144.967 195.5C144.574 194.662 144.377 193.644 144.377 192.446C144.377 191.233 144.576 190.211 144.974 189.377C145.377 188.539 145.919 187.907 146.6 187.481C147.282 187.05 148.042 186.835 148.88 186.835C149.52 186.835 150.045 186.944 150.457 187.162C150.869 187.375 151.196 187.633 151.437 187.936C151.679 188.234 151.866 188.516 151.998 188.781H152.105V183.341H154.683V197.886H152.154V196.167H151.998C151.866 196.432 151.674 196.714 151.423 197.012C151.172 197.306 150.841 197.557 150.429 197.765C150.017 197.974 149.498 198.078 148.873 198.078ZM149.591 195.968C150.135 195.968 150.599 195.822 150.983 195.528C151.366 195.23 151.657 194.815 151.856 194.285C152.055 193.755 152.154 193.137 152.154 192.431C152.154 191.726 152.055 191.113 151.856 190.592C151.662 190.071 151.373 189.666 150.99 189.377C150.611 189.089 150.145 188.944 149.591 188.944C149.018 188.944 148.539 189.093 148.156 189.392C147.772 189.69 147.484 190.102 147.289 190.627C147.095 191.153 146.998 191.754 146.998 192.431C146.998 193.113 147.095 193.722 147.289 194.257C147.488 194.787 147.779 195.206 148.163 195.514C148.551 195.817 149.027 195.968 149.591 195.968ZM160.562 198.106C159.871 198.106 159.248 197.983 158.694 197.737C158.145 197.486 157.709 197.117 157.387 196.629C157.07 196.141 156.911 195.54 156.911 194.825C156.911 194.209 157.025 193.7 157.252 193.298C157.479 192.895 157.79 192.573 158.183 192.332C158.576 192.091 159.018 191.908 159.511 191.785C160.008 191.657 160.522 191.565 161.052 191.508C161.691 191.442 162.21 191.383 162.607 191.331C163.005 191.274 163.294 191.189 163.474 191.075C163.658 190.957 163.751 190.774 163.751 190.528V190.485C163.751 189.95 163.592 189.536 163.275 189.242C162.958 188.949 162.501 188.802 161.904 188.802C161.274 188.802 160.775 188.939 160.406 189.214C160.041 189.489 159.795 189.813 159.667 190.187L157.266 189.846C157.456 189.183 157.768 188.629 158.204 188.184C158.639 187.734 159.172 187.398 159.802 187.176C160.432 186.948 161.128 186.835 161.89 186.835C162.415 186.835 162.939 186.896 163.46 187.019C163.98 187.143 164.456 187.346 164.887 187.63C165.318 187.91 165.664 188.291 165.924 188.774C166.189 189.257 166.322 189.86 166.322 190.585V197.886H163.85V196.387H163.765C163.609 196.69 163.388 196.974 163.104 197.24C162.825 197.5 162.472 197.711 162.046 197.872C161.625 198.028 161.13 198.106 160.562 198.106ZM161.229 196.217C161.746 196.217 162.193 196.115 162.572 195.912C162.951 195.703 163.242 195.429 163.445 195.088C163.654 194.747 163.758 194.375 163.758 193.973V192.687C163.677 192.753 163.54 192.815 163.346 192.872C163.156 192.929 162.943 192.978 162.707 193.021C162.47 193.064 162.236 193.101 162.004 193.135C161.772 193.168 161.57 193.196 161.4 193.22C161.016 193.272 160.673 193.357 160.37 193.475C160.067 193.594 159.828 193.76 159.653 193.973C159.478 194.181 159.39 194.451 159.39 194.782C159.39 195.256 159.563 195.613 159.908 195.855C160.254 196.096 160.694 196.217 161.229 196.217ZM174.354 186.977V188.966H168.083V186.977H174.354ZM169.631 184.363H172.202V194.605C172.202 194.95 172.254 195.216 172.359 195.4C172.468 195.58 172.61 195.703 172.785 195.769C172.96 195.836 173.154 195.869 173.367 195.869C173.528 195.869 173.675 195.857 173.808 195.833C173.945 195.81 174.049 195.788 174.12 195.769L174.553 197.779C174.416 197.827 174.219 197.879 173.964 197.936C173.713 197.992 173.405 198.026 173.04 198.035C172.397 198.054 171.817 197.957 171.3 197.744C170.784 197.526 170.375 197.19 170.072 196.735C169.773 196.281 169.627 195.713 169.631 195.031V184.363ZM181.217 198.099C180.123 198.099 179.179 197.872 178.383 197.417C177.592 196.958 176.984 196.309 176.558 195.471C176.132 194.628 175.919 193.636 175.919 192.495C175.919 191.373 176.132 190.388 176.558 189.541C176.989 188.689 177.59 188.026 178.362 187.552C179.134 187.074 180.04 186.835 181.082 186.835C181.754 186.835 182.389 186.944 182.985 187.162C183.587 187.375 184.117 187.706 184.576 188.156C185.04 188.606 185.405 189.179 185.67 189.875C185.935 190.566 186.068 191.39 186.068 192.346V193.135H177.126V191.402H183.603C183.599 190.909 183.492 190.471 183.284 190.088C183.075 189.699 182.784 189.394 182.41 189.171C182.041 188.949 181.61 188.838 181.118 188.838C180.592 188.838 180.13 188.966 179.733 189.221C179.335 189.472 179.025 189.804 178.802 190.216C178.584 190.623 178.473 191.07 178.468 191.558V193.071C178.468 193.705 178.584 194.25 178.816 194.704C179.048 195.154 179.373 195.5 179.789 195.741C180.206 195.978 180.694 196.096 181.252 196.096C181.627 196.096 181.965 196.044 182.268 195.94C182.571 195.831 182.834 195.672 183.056 195.464C183.279 195.256 183.447 194.998 183.561 194.69L185.961 194.96C185.81 195.594 185.521 196.148 185.095 196.622C184.673 197.091 184.134 197.455 183.475 197.716C182.817 197.971 182.065 198.099 181.217 198.099ZM196.343 198.106C195.652 198.106 195.029 197.983 194.475 197.737C193.926 197.486 193.49 197.117 193.168 196.629C192.851 196.141 192.692 195.54 192.692 194.825C192.692 194.209 192.806 193.7 193.033 193.298C193.261 192.895 193.571 192.573 193.964 192.332C194.357 192.091 194.799 191.908 195.292 191.785C195.789 191.657 196.303 191.565 196.833 191.508C197.472 191.442 197.991 191.383 198.388 191.331C198.786 191.274 199.075 191.189 199.255 191.075C199.44 190.957 199.532 190.774 199.532 190.528V190.485C199.532 189.95 199.373 189.536 199.056 189.242C198.739 188.949 198.282 188.802 197.685 188.802C197.056 188.802 196.556 188.939 196.187 189.214C195.822 189.489 195.576 189.813 195.448 190.187L193.048 189.846C193.237 189.183 193.549 188.629 193.985 188.184C194.421 187.734 194.953 187.398 195.583 187.176C196.213 186.948 196.909 186.835 197.671 186.835C198.197 186.835 198.72 186.896 199.241 187.019C199.762 187.143 200.237 187.346 200.668 187.63C201.099 187.91 201.445 188.291 201.705 188.774C201.97 189.257 202.103 189.86 202.103 190.585V197.886H199.631V196.387H199.546C199.39 196.69 199.17 196.974 198.886 197.24C198.606 197.5 198.254 197.711 197.827 197.872C197.406 198.028 196.911 198.106 196.343 198.106ZM197.011 196.217C197.527 196.217 197.974 196.115 198.353 195.912C198.732 195.703 199.023 195.429 199.227 195.088C199.435 194.747 199.539 194.375 199.539 193.973V192.687C199.459 192.753 199.321 192.815 199.127 192.872C198.938 192.929 198.725 192.978 198.488 193.021C198.251 193.064 198.017 193.101 197.785 193.135C197.553 193.168 197.352 193.196 197.181 193.22C196.798 193.272 196.454 193.357 196.151 193.475C195.848 193.594 195.609 193.76 195.434 193.973C195.259 194.181 195.171 194.451 195.171 194.782C195.171 195.256 195.344 195.613 195.69 195.855C196.035 196.096 196.476 196.217 197.011 196.217ZM207.259 191.494V197.886H204.688V186.977H207.146V188.831H207.273C207.524 188.22 207.924 187.734 208.474 187.375C209.028 187.015 209.712 186.835 210.526 186.835C211.279 186.835 211.935 186.996 212.494 187.318C213.057 187.64 213.493 188.106 213.8 188.717C214.113 189.328 214.267 190.069 214.262 190.94V197.886H211.691V191.338C211.691 190.608 211.502 190.038 211.123 189.626C210.749 189.214 210.23 189.008 209.567 189.008C209.118 189.008 208.718 189.108 208.367 189.306C208.022 189.501 207.749 189.782 207.55 190.152C207.356 190.521 207.259 190.968 207.259 191.494ZM220.924 198.078C220.067 198.078 219.3 197.858 218.623 197.417C217.946 196.977 217.411 196.338 217.018 195.5C216.625 194.662 216.428 193.644 216.428 192.446C216.428 191.233 216.627 190.211 217.025 189.377C217.427 188.539 217.969 187.907 218.651 187.481C219.333 187.05 220.093 186.835 220.931 186.835C221.57 186.835 222.096 186.944 222.508 187.162C222.92 187.375 223.246 187.633 223.488 187.936C223.729 188.234 223.916 188.516 224.049 188.781H224.156V183.341H226.734V197.886H224.205V196.167H224.049C223.916 196.432 223.725 196.714 223.474 197.012C223.223 197.306 222.891 197.557 222.479 197.765C222.067 197.974 221.549 198.078 220.924 198.078ZM221.641 195.968C222.186 195.968 222.65 195.822 223.033 195.528C223.417 195.23 223.708 194.815 223.907 194.285C224.106 193.755 224.205 193.137 224.205 192.431C224.205 191.726 224.106 191.113 223.907 190.592C223.713 190.071 223.424 189.666 223.04 189.377C222.662 189.089 222.195 188.944 221.641 188.944C221.068 188.944 220.59 189.093 220.207 189.392C219.823 189.69 219.534 190.102 219.34 190.627C219.146 191.153 219.049 191.754 219.049 192.431C219.049 193.113 219.146 193.722 219.34 194.257C219.539 194.787 219.83 195.206 220.214 195.514C220.602 195.817 221.078 195.968 221.641 195.968ZM234.434 197.886V186.977H236.892V188.831H237.02C237.247 188.206 237.623 187.718 238.149 187.367C238.674 187.012 239.302 186.835 240.031 186.835C240.77 186.835 241.392 187.015 241.899 187.375C242.41 187.73 242.77 188.215 242.978 188.831H243.092C243.333 188.224 243.741 187.742 244.314 187.382C244.891 187.017 245.575 186.835 246.366 186.835C247.37 186.835 248.189 187.152 248.824 187.787C249.458 188.421 249.775 189.347 249.775 190.564V197.886H247.197V190.961C247.197 190.284 247.017 189.789 246.657 189.477C246.297 189.16 245.857 189.001 245.336 189.001C244.716 189.001 244.231 189.195 243.88 189.583C243.535 189.967 243.362 190.466 243.362 191.082V197.886H240.841V190.855C240.841 190.291 240.67 189.841 240.329 189.505C239.993 189.169 239.553 189.001 239.008 189.001C238.639 189.001 238.303 189.096 238 189.285C237.697 189.47 237.455 189.733 237.275 190.073C237.095 190.41 237.005 190.803 237.005 191.252V197.886H234.434ZM255.523 198.106C254.831 198.106 254.209 197.983 253.655 197.737C253.106 197.486 252.67 197.117 252.348 196.629C252.031 196.141 251.872 195.54 251.872 194.825C251.872 194.209 251.986 193.7 252.213 193.298C252.44 192.895 252.75 192.573 253.143 192.332C253.536 192.091 253.979 191.908 254.472 191.785C254.969 191.657 255.482 191.565 256.013 191.508C256.652 191.442 257.17 191.383 257.568 191.331C257.966 191.274 258.255 191.189 258.435 191.075C258.619 190.957 258.712 190.774 258.712 190.528V190.485C258.712 189.95 258.553 189.536 258.236 189.242C257.919 188.949 257.462 188.802 256.865 188.802C256.235 188.802 255.736 188.939 255.366 189.214C255.002 189.489 254.756 189.813 254.628 190.187L252.227 189.846C252.417 189.183 252.729 188.629 253.165 188.184C253.6 187.734 254.133 187.398 254.763 187.176C255.393 186.948 256.089 186.835 256.851 186.835C257.376 186.835 257.9 186.896 258.42 187.019C258.941 187.143 259.417 187.346 259.848 187.63C260.279 187.91 260.625 188.291 260.885 188.774C261.15 189.257 261.283 189.86 261.283 190.585V197.886H258.811V196.387H258.726C258.57 196.69 258.349 196.974 258.065 197.24C257.786 197.5 257.433 197.711 257.007 197.872C256.586 198.028 256.091 198.106 255.523 198.106ZM256.19 196.217C256.706 196.217 257.154 196.115 257.533 195.912C257.911 195.703 258.203 195.429 258.406 195.088C258.615 194.747 258.719 194.375 258.719 193.973V192.687C258.638 192.753 258.501 192.815 258.307 192.872C258.117 192.929 257.904 192.978 257.668 193.021C257.431 193.064 257.196 193.101 256.964 193.135C256.732 193.168 256.531 193.196 256.361 193.22C255.977 193.272 255.634 193.357 255.331 193.475C255.028 193.594 254.789 193.76 254.614 193.973C254.438 194.181 254.351 194.451 254.351 194.782C254.351 195.256 254.524 195.613 254.869 195.855C255.215 196.096 255.655 196.217 256.19 196.217ZM266.439 191.494V197.886H263.868V186.977H266.325V188.831H266.453C266.704 188.22 267.104 187.734 267.653 187.375C268.207 187.015 268.892 186.835 269.706 186.835C270.459 186.835 271.115 186.996 271.673 187.318C272.237 187.64 272.672 188.106 272.98 188.717C273.293 189.328 273.446 190.069 273.442 190.94V197.886H270.871V191.338C270.871 190.608 270.681 190.038 270.303 189.626C269.929 189.214 269.41 189.008 268.747 189.008C268.297 189.008 267.897 189.108 267.547 189.306C267.201 189.501 266.929 189.782 266.73 190.152C266.536 190.521 266.439 190.968 266.439 191.494ZM279.195 198.106C278.503 198.106 277.881 197.983 277.327 197.737C276.777 197.486 276.342 197.117 276.02 196.629C275.703 196.141 275.544 195.54 275.544 194.825C275.544 194.209 275.658 193.7 275.885 193.298C276.112 192.895 276.422 192.573 276.815 192.332C277.208 192.091 277.651 191.908 278.143 191.785C278.641 191.657 279.154 191.565 279.685 191.508C280.324 191.442 280.842 191.383 281.24 191.331C281.638 191.274 281.927 191.189 282.107 191.075C282.291 190.957 282.384 190.774 282.384 190.528V190.485C282.384 189.95 282.225 189.536 281.908 189.242C281.59 188.949 281.134 188.802 280.537 188.802C279.907 188.802 279.408 188.939 279.038 189.214C278.674 189.489 278.428 189.813 278.3 190.187L275.899 189.846C276.089 189.183 276.401 188.629 276.837 188.184C277.272 187.734 277.805 187.398 278.435 187.176C279.064 186.948 279.76 186.835 280.523 186.835C281.048 186.835 281.571 186.896 282.092 187.019C282.613 187.143 283.089 187.346 283.52 187.63C283.951 187.91 284.296 188.291 284.557 188.774C284.822 189.257 284.955 189.86 284.955 190.585V197.886H282.483V196.387H282.398C282.241 196.69 282.021 196.974 281.737 197.24C281.458 197.5 281.105 197.711 280.679 197.872C280.258 198.028 279.763 198.106 279.195 198.106ZM279.862 196.217C280.378 196.217 280.826 196.115 281.205 195.912C281.583 195.703 281.875 195.429 282.078 195.088C282.286 194.747 282.391 194.375 282.391 193.973V192.687C282.31 192.753 282.173 192.815 281.979 192.872C281.789 192.929 281.576 192.978 281.339 193.021C281.103 193.064 280.868 193.101 280.636 193.135C280.404 193.168 280.203 193.196 280.033 193.22C279.649 193.272 279.306 193.357 279.003 193.475C278.7 193.594 278.461 193.76 278.286 193.973C278.11 194.181 278.023 194.451 278.023 194.782C278.023 195.256 278.196 195.613 278.541 195.855C278.887 196.096 279.327 196.217 279.862 196.217ZM292.284 202.204C291.361 202.204 290.568 202.079 289.905 201.828C289.242 201.582 288.709 201.25 288.307 200.833C287.904 200.417 287.625 199.955 287.469 199.448L289.784 198.887C289.888 199.1 290.04 199.311 290.239 199.519C290.438 199.733 290.705 199.908 291.041 200.045C291.382 200.187 291.811 200.258 292.327 200.258C293.056 200.258 293.66 200.081 294.138 199.725C294.616 199.375 294.855 198.797 294.855 197.992V195.926H294.727C294.595 196.191 294.401 196.463 294.145 196.742C293.894 197.022 293.56 197.256 293.143 197.446C292.732 197.635 292.213 197.73 291.588 197.73C290.75 197.73 289.99 197.533 289.308 197.14C288.631 196.742 288.091 196.151 287.689 195.365C287.291 194.574 287.092 193.584 287.092 192.396C287.092 191.198 287.291 190.187 287.689 189.363C288.091 188.535 288.634 187.907 289.315 187.481C289.997 187.05 290.757 186.835 291.595 186.835C292.234 186.835 292.76 186.944 293.172 187.162C293.589 187.375 293.92 187.633 294.166 187.936C294.412 188.234 294.599 188.516 294.727 188.781H294.869V186.977H297.405V198.064C297.405 198.996 297.182 199.768 296.737 200.379C296.292 200.99 295.684 201.447 294.912 201.75C294.14 202.053 293.264 202.204 292.284 202.204ZM292.305 195.713C292.85 195.713 293.314 195.58 293.697 195.315C294.081 195.05 294.372 194.669 294.571 194.171C294.77 193.674 294.869 193.078 294.869 192.382C294.869 191.695 294.77 191.094 294.571 190.578C294.377 190.062 294.088 189.662 293.705 189.377C293.326 189.089 292.859 188.944 292.305 188.944C291.732 188.944 291.254 189.093 290.871 189.392C290.487 189.69 290.198 190.099 290.004 190.62C289.81 191.136 289.713 191.724 289.713 192.382C289.713 193.049 289.81 193.634 290.004 194.136C290.203 194.633 290.494 195.021 290.878 195.301C291.266 195.575 291.742 195.713 292.305 195.713ZM304.869 198.099C303.776 198.099 302.831 197.872 302.036 197.417C301.245 196.958 300.636 196.309 300.21 195.471C299.784 194.628 299.571 193.636 299.571 192.495C299.571 191.373 299.784 190.388 300.21 189.541C300.641 188.689 301.242 188.026 302.014 187.552C302.786 187.074 303.693 186.835 304.734 186.835C305.407 186.835 306.041 186.944 306.638 187.162C307.239 187.375 307.769 187.706 308.229 188.156C308.693 188.606 309.057 189.179 309.322 189.875C309.588 190.566 309.72 191.39 309.72 192.346V193.135H300.778V191.402H307.256C307.251 190.909 307.144 190.471 306.936 190.088C306.728 189.699 306.437 189.394 306.062 189.171C305.693 188.949 305.262 188.838 304.77 188.838C304.244 188.838 303.783 188.966 303.385 189.221C302.987 189.472 302.677 189.804 302.455 190.216C302.237 190.623 302.125 191.07 302.121 191.558V193.071C302.121 193.705 302.237 194.25 302.469 194.704C302.701 195.154 303.025 195.5 303.442 195.741C303.858 195.978 304.346 196.096 304.905 196.096C305.279 196.096 305.617 196.044 305.92 195.94C306.223 195.831 306.486 195.672 306.709 195.464C306.931 195.256 307.099 194.998 307.213 194.69L309.614 194.96C309.462 195.594 309.173 196.148 308.747 196.622C308.326 197.091 307.786 197.455 307.128 197.716C306.47 197.971 305.717 198.099 304.869 198.099ZM324.875 187.339C324.808 186.719 324.529 186.236 324.037 185.89C323.549 185.545 322.914 185.372 322.133 185.372C321.584 185.372 321.113 185.455 320.72 185.62C320.327 185.786 320.026 186.011 319.818 186.295C319.609 186.579 319.503 186.903 319.498 187.268C319.498 187.571 319.567 187.834 319.704 188.056C319.846 188.279 320.038 188.468 320.279 188.625C320.521 188.776 320.788 188.904 321.082 189.008C321.376 189.112 321.672 189.2 321.97 189.271L323.333 189.612C323.883 189.74 324.411 189.912 324.917 190.13C325.429 190.348 325.886 190.623 326.288 190.954C326.695 191.286 327.017 191.686 327.254 192.154C327.491 192.623 327.609 193.172 327.609 193.802C327.609 194.654 327.391 195.405 326.956 196.054C326.52 196.698 325.89 197.202 325.066 197.566C324.247 197.926 323.255 198.106 322.091 198.106C320.959 198.106 319.976 197.931 319.143 197.581C318.315 197.23 317.666 196.719 317.197 196.046C316.733 195.374 316.482 194.555 316.444 193.589H319.037C319.074 194.096 319.231 194.517 319.505 194.853C319.78 195.189 320.137 195.44 320.578 195.606C321.023 195.772 321.52 195.855 322.069 195.855C322.642 195.855 323.144 195.769 323.575 195.599C324.011 195.424 324.351 195.182 324.598 194.875C324.844 194.562 324.969 194.198 324.974 193.781C324.969 193.402 324.858 193.09 324.64 192.843C324.422 192.592 324.117 192.384 323.724 192.218C323.336 192.048 322.881 191.896 322.36 191.764L320.706 191.338C319.508 191.03 318.561 190.564 317.865 189.939C317.173 189.309 316.828 188.473 316.828 187.431C316.828 186.574 317.06 185.824 317.524 185.18C317.993 184.536 318.629 184.037 319.434 183.681C320.239 183.322 321.151 183.142 322.169 183.142C323.201 183.142 324.105 183.322 324.882 183.681C325.663 184.037 326.276 184.531 326.721 185.166C327.166 185.796 327.396 186.52 327.41 187.339H324.875ZM329.958 197.886V183.341H332.593V195.677H338.999V197.886H329.958ZM353.717 190.613C353.717 192.18 353.423 193.523 352.836 194.64C352.254 195.753 351.458 196.605 350.45 197.197C349.446 197.789 348.307 198.085 347.034 198.085C345.76 198.085 344.619 197.789 343.61 197.197C342.607 196.6 341.811 195.746 341.224 194.633C340.642 193.516 340.35 192.176 340.35 190.613C340.35 189.046 340.642 187.706 341.224 186.593C341.811 185.476 342.607 184.621 343.61 184.029C344.619 183.438 345.76 183.142 347.034 183.142C348.307 183.142 349.446 183.438 350.45 184.029C351.458 184.621 352.254 185.476 352.836 186.593C353.423 187.706 353.717 189.046 353.717 190.613ZM351.068 190.613C351.068 189.51 350.895 188.58 350.549 187.822C350.208 187.06 349.735 186.484 349.129 186.096C348.523 185.703 347.824 185.507 347.034 185.507C346.243 185.507 345.545 185.703 344.939 186.096C344.333 186.484 343.857 187.06 343.511 187.822C343.17 188.58 343 189.51 343 190.613C343 191.716 343.17 192.649 343.511 193.412C343.857 194.169 344.333 194.744 344.939 195.137C345.545 195.526 346.243 195.72 347.034 195.72C347.824 195.72 348.523 195.526 349.129 195.137C349.735 194.744 350.208 194.169 350.549 193.412C350.895 192.649 351.068 191.716 351.068 190.613ZM364.717 189.86L362.373 190.116C362.307 189.879 362.191 189.657 362.025 189.448C361.864 189.24 361.646 189.072 361.371 188.944C361.097 188.816 360.761 188.752 360.363 188.752C359.828 188.752 359.378 188.868 359.013 189.1C358.654 189.332 358.476 189.633 358.481 190.002C358.476 190.32 358.592 190.578 358.829 190.777C359.07 190.975 359.468 191.139 360.022 191.267L361.883 191.664C362.915 191.887 363.682 192.24 364.184 192.723C364.691 193.206 364.946 193.838 364.951 194.619C364.946 195.305 364.745 195.912 364.347 196.437C363.954 196.958 363.407 197.365 362.707 197.659C362.006 197.952 361.201 198.099 360.292 198.099C358.957 198.099 357.882 197.82 357.067 197.261C356.253 196.698 355.768 195.914 355.612 194.91L358.119 194.669C358.232 195.161 358.474 195.533 358.843 195.784C359.212 196.035 359.693 196.16 360.285 196.16C360.896 196.16 361.386 196.035 361.755 195.784C362.129 195.533 362.316 195.223 362.316 194.853C362.316 194.541 362.195 194.283 361.954 194.079C361.717 193.876 361.348 193.719 360.846 193.61L358.985 193.22C357.939 193.002 357.165 192.635 356.663 192.119C356.161 191.598 355.912 190.94 355.917 190.144C355.912 189.472 356.094 188.89 356.464 188.397C356.838 187.9 357.356 187.517 358.019 187.247C358.687 186.972 359.456 186.835 360.327 186.835C361.606 186.835 362.612 187.107 363.346 187.652C364.085 188.196 364.541 188.932 364.717 189.86Z" fill="#22222A"/>
<rect x="0.5" y="169.386" width="473" height="43" rx="3.5" stroke="#AE82FC"/>
<path d="M233 236.886L236.99 240.886L237 224.886V240.886L241 236.886" stroke="#AE82FC" stroke-linecap="round" stroke-linejoin="round"/>
<rect x="0.5" y="253.386" width="473" height="43" rx="3.5" fill="#F6F1FF"/>
<path d="M182.219 269.549V267.341H193.824V269.549H189.329V281.886H186.715V269.549H182.219ZM197.603 282.106C196.912 282.106 196.289 281.983 195.735 281.737C195.186 281.486 194.75 281.117 194.428 280.629C194.111 280.141 193.952 279.54 193.952 278.825C193.952 278.209 194.066 277.7 194.293 277.298C194.52 276.895 194.831 276.573 195.224 276.332C195.617 276.091 196.059 275.908 196.552 275.785C197.049 275.657 197.563 275.565 198.093 275.508C198.732 275.442 199.251 275.383 199.648 275.331C200.046 275.274 200.335 275.189 200.515 275.075C200.699 274.957 200.792 274.774 200.792 274.528V274.485C200.792 273.95 200.633 273.536 200.316 273.243C199.999 272.949 199.542 272.802 198.945 272.802C198.315 272.802 197.816 272.939 197.447 273.214C197.082 273.489 196.836 273.813 196.708 274.187L194.307 273.846C194.497 273.183 194.809 272.629 195.245 272.184C195.68 271.734 196.213 271.398 196.843 271.176C197.473 270.948 198.169 270.835 198.931 270.835C199.456 270.835 199.98 270.896 200.501 271.02C201.021 271.143 201.497 271.346 201.928 271.63C202.359 271.91 202.705 272.291 202.965 272.774C203.23 273.257 203.363 273.86 203.363 274.585V281.886H200.891V280.387H200.806C200.65 280.69 200.43 280.975 200.145 281.24C199.866 281.5 199.513 281.711 199.087 281.872C198.666 282.028 198.171 282.106 197.603 282.106ZM198.27 280.217C198.787 280.217 199.234 280.115 199.613 279.912C199.992 279.703 200.283 279.429 200.486 279.088C200.695 278.747 200.799 278.375 200.799 277.973V276.687C200.718 276.753 200.581 276.815 200.387 276.872C200.198 276.929 199.984 276.978 199.748 277.021C199.511 277.064 199.277 277.101 199.045 277.135C198.813 277.168 198.611 277.196 198.441 277.22C198.057 277.272 197.714 277.357 197.411 277.475C197.108 277.594 196.869 277.76 196.694 277.973C196.519 278.181 196.431 278.451 196.431 278.782C196.431 279.256 196.604 279.613 196.949 279.855C197.295 280.096 197.735 280.217 198.27 280.217ZM208.292 278.463L208.285 275.359H208.697L212.617 270.977H215.621L210.799 276.346H210.266L208.292 278.463ZM205.948 281.886V267.341H208.519V281.886H205.948ZM212.795 281.886L209.243 276.921L210.976 275.11L215.87 281.886H212.795ZM221.715 282.099C220.621 282.099 219.677 281.872 218.881 281.417C218.09 280.958 217.482 280.309 217.056 279.471C216.63 278.628 216.417 277.636 216.417 276.495C216.417 275.373 216.63 274.388 217.056 273.541C217.487 272.689 218.088 272.026 218.86 271.552C219.632 271.074 220.538 270.835 221.58 270.835C222.252 270.835 222.887 270.944 223.483 271.162C224.085 271.375 224.615 271.706 225.074 272.156C225.538 272.606 225.903 273.179 226.168 273.875C226.433 274.566 226.566 275.39 226.566 276.346V277.135H217.624V275.402H224.101C224.097 274.909 223.99 274.471 223.782 274.088C223.573 273.699 223.282 273.394 222.908 273.171C222.539 272.949 222.108 272.838 221.616 272.838C221.09 272.838 220.628 272.966 220.231 273.221C219.833 273.472 219.523 273.804 219.3 274.216C219.082 274.623 218.971 275.07 218.966 275.558V277.071C218.966 277.705 219.082 278.25 219.314 278.704C219.546 279.154 219.871 279.5 220.287 279.741C220.704 279.978 221.192 280.096 221.751 280.096C222.125 280.096 222.463 280.044 222.766 279.94C223.069 279.831 223.332 279.672 223.555 279.464C223.777 279.256 223.945 278.998 224.059 278.69L226.459 278.96C226.308 279.594 226.019 280.148 225.593 280.622C225.171 281.091 224.632 281.455 223.974 281.716C223.315 281.971 222.563 282.099 221.715 282.099ZM236.841 282.106C236.15 282.106 235.527 281.983 234.973 281.737C234.424 281.486 233.988 281.117 233.666 280.629C233.349 280.141 233.191 279.54 233.191 278.825C233.191 278.209 233.304 277.7 233.531 277.298C233.759 276.895 234.069 276.573 234.462 276.332C234.855 276.091 235.298 275.908 235.79 275.785C236.287 275.657 236.801 275.565 237.331 275.508C237.97 275.442 238.489 275.383 238.887 275.331C239.284 275.274 239.573 275.189 239.753 275.075C239.938 274.957 240.03 274.774 240.03 274.528V274.485C240.03 273.95 239.871 273.536 239.554 273.243C239.237 272.949 238.78 272.802 238.183 272.802C237.554 272.802 237.054 272.939 236.685 273.214C236.32 273.489 236.074 273.813 235.946 274.187L233.546 273.846C233.735 273.183 234.048 272.629 234.483 272.184C234.919 271.734 235.451 271.398 236.081 271.176C236.711 270.948 237.407 270.835 238.169 270.835C238.695 270.835 239.218 270.896 239.739 271.02C240.26 271.143 240.735 271.346 241.166 271.63C241.597 271.91 241.943 272.291 242.203 272.774C242.468 273.257 242.601 273.86 242.601 274.585V281.886H240.129V280.387H240.044C239.888 280.69 239.668 280.975 239.384 281.24C239.104 281.5 238.752 281.711 238.325 281.872C237.904 282.028 237.409 282.106 236.841 282.106ZM237.509 280.217C238.025 280.217 238.472 280.115 238.851 279.912C239.23 279.703 239.521 279.429 239.725 279.088C239.933 278.747 240.037 278.375 240.037 277.973V276.687C239.957 276.753 239.819 276.815 239.625 276.872C239.436 276.929 239.223 276.978 238.986 277.021C238.749 277.064 238.515 277.101 238.283 277.135C238.051 277.168 237.85 277.196 237.679 277.22C237.296 277.272 236.952 277.357 236.649 277.475C236.346 277.594 236.107 277.76 235.932 277.973C235.757 278.181 235.669 278.451 235.669 278.782C235.669 279.256 235.842 279.613 236.188 279.855C236.533 280.096 236.974 280.217 237.509 280.217ZM249.945 282.099C248.856 282.099 247.921 281.86 247.139 281.382C246.363 280.904 245.764 280.243 245.343 279.4C244.926 278.553 244.718 277.577 244.718 276.474C244.718 275.366 244.931 274.388 245.357 273.541C245.783 272.689 246.384 272.026 247.161 271.552C247.942 271.074 248.865 270.835 249.931 270.835C250.816 270.835 251.6 270.998 252.281 271.325C252.968 271.647 253.515 272.104 253.922 272.696C254.329 273.283 254.561 273.969 254.618 274.755H252.161C252.061 274.23 251.825 273.792 251.45 273.441C251.081 273.086 250.586 272.909 249.966 272.909C249.441 272.909 248.979 273.051 248.581 273.335C248.183 273.614 247.873 274.017 247.651 274.542C247.433 275.068 247.324 275.698 247.324 276.431C247.324 277.175 247.433 277.814 247.651 278.349C247.869 278.879 248.174 279.289 248.567 279.578C248.965 279.862 249.431 280.004 249.966 280.004C250.345 280.004 250.683 279.933 250.982 279.791C251.285 279.644 251.538 279.433 251.742 279.159C251.945 278.884 252.085 278.55 252.161 278.157H254.618C254.557 278.929 254.329 279.613 253.936 280.21C253.543 280.802 253.008 281.266 252.331 281.602C251.654 281.933 250.859 282.099 249.945 282.099ZM262.177 270.977V272.966H255.905V270.977H262.177ZM257.454 268.363H260.025V278.605C260.025 278.95 260.077 279.216 260.181 279.4C260.29 279.58 260.432 279.703 260.607 279.77C260.782 279.836 260.976 279.869 261.189 279.869C261.35 279.869 261.497 279.857 261.63 279.833C261.767 279.81 261.871 279.788 261.942 279.77L262.376 281.779C262.238 281.827 262.042 281.879 261.786 281.936C261.535 281.993 261.227 282.026 260.863 282.035C260.219 282.054 259.639 281.957 259.123 281.744C258.607 281.526 258.197 281.19 257.894 280.735C257.596 280.281 257.449 279.713 257.454 279.031V268.363ZM264.327 281.886V270.977H266.898V281.886H264.327ZM265.619 269.429C265.212 269.429 264.862 269.294 264.568 269.024C264.275 268.749 264.128 268.42 264.128 268.037C264.128 267.648 264.275 267.319 264.568 267.049C264.862 266.775 265.212 266.637 265.619 266.637C266.031 266.637 266.382 266.775 266.671 267.049C266.964 267.319 267.111 267.648 267.111 268.037C267.111 268.42 266.964 268.749 266.671 269.024C266.382 269.294 266.031 269.429 265.619 269.429ZM274.3 282.099C273.235 282.099 272.312 281.865 271.53 281.396C270.749 280.927 270.143 280.271 269.712 279.429C269.286 278.586 269.073 277.601 269.073 276.474C269.073 275.347 269.286 274.36 269.712 273.512C270.143 272.665 270.749 272.007 271.53 271.538C272.312 271.069 273.235 270.835 274.3 270.835C275.366 270.835 276.289 271.069 277.07 271.538C277.851 272.007 278.455 272.665 278.881 273.512C279.312 274.36 279.528 275.347 279.528 276.474C279.528 277.601 279.312 278.586 278.881 279.429C278.455 280.271 277.851 280.927 277.07 281.396C276.289 281.865 275.366 282.099 274.3 282.099ZM274.314 280.039C274.892 280.039 275.375 279.881 275.763 279.564C276.152 279.242 276.44 278.811 276.63 278.271C276.824 277.731 276.921 277.13 276.921 276.467C276.921 275.799 276.824 275.196 276.63 274.656C276.44 274.111 276.152 273.678 275.763 273.356C275.375 273.034 274.892 272.873 274.314 272.873C273.723 272.873 273.23 273.034 272.837 273.356C272.449 273.678 272.158 274.111 271.964 274.656C271.774 275.196 271.68 275.799 271.68 276.467C271.68 277.13 271.774 277.731 271.964 278.271C272.158 278.811 272.449 279.242 272.837 279.564C273.23 279.881 273.723 280.039 274.314 280.039ZM284.281 275.494V281.886H281.71V270.977H284.167V272.831H284.295C284.546 272.22 284.946 271.734 285.495 271.375C286.049 271.015 286.733 270.835 287.548 270.835C288.301 270.835 288.956 270.996 289.515 271.318C290.079 271.64 290.514 272.106 290.822 272.717C291.134 273.328 291.288 274.069 291.284 274.94V281.886H288.713V275.338C288.713 274.609 288.523 274.038 288.144 273.626C287.77 273.214 287.252 273.008 286.589 273.008C286.139 273.008 285.739 273.108 285.389 273.306C285.043 273.501 284.771 273.782 284.572 274.152C284.378 274.521 284.281 274.968 284.281 275.494Z" fill="#22222A"/>
<rect x="0.5" y="253.386" width="473" height="43" rx="3.5" stroke="#AE82FC"/>
</svg>
