<svg width="474" height="309" viewBox="0 0 474 309" fill="none" xmlns="http://www.w3.org/2000/svg">
<rect x="0.5" y="0.915253" width="473" height="55.5847" rx="3.5" fill="#EBEFFF"/>
<g clip-path="url(#clip0_1124_344880)">
<rect width="40.5847" height="40.5847" transform="translate(114.707 8.41525)" fill="#EBEFFF"/>
<rect width="40.5847" height="40.5847" transform="translate(114.709 8.33817)" fill="#EBEFFF"/>
<path d="M146.487 41.3096C146.38 42.5989 145.189 42.8765 144.607 42.8541L136.885 35.3333C136.562 34.3664 137.914 33.8113 138.631 33.6546L146.487 41.3096Z" fill="#4791FF"/>
<path d="M136.951 32.3116L138.294 33.5203L136.951 34.5275L135.608 33.1174L133.93 33.856C129.847 35.6288 126.006 32.4459 124.596 30.6328C123.342 29.3122 120.876 25.7175 121.037 21.9034C121.198 18.0893 123.208 16.1957 124.193 15.7256C129.296 12.395 133.571 15.7704 135.071 17.8744C140.819 24.4282 138.72 30.2299 136.951 32.3116Z" fill="#4791FF"/>
<ellipse cx="129.038" cy="24.8906" rx="5.0866" ry="7.96756" transform="rotate(-28.5009 129.038 24.8906)" fill="#EBEFFF"/>
<path d="M134.833 29.8021C135.837 25.0059 130.82 17.5172 126.468 17.5172C123.558 17.5172 122.62 21.3095 123.345 24.1538C124.378 28.2083 127.466 31.0327 130.651 31.9058C134.443 32.9456 134.833 29.2646 134.833 27.0339" stroke="black" stroke-width="0.507309" stroke-linecap="round"/>
<path d="M129.536 34.0808C127.224 33.447 122.657 29.888 121.338 24.7115C120.412 21.0802 121.505 15.3422 126.078 15.3422C131.634 15.3422 137.956 23.7747 136.674 29.8981C136.085 32.7124 133.244 35.0975 129.536 34.0808Z" stroke="black" stroke-width="0.507309" stroke-linecap="round"/>
<path d="M123.737 15.7325C125.131 15.2306 127.125 14.2825 128.366 14.2825C133.922 14.2825 140.033 22.7709 138.752 28.8942C138.337 30.8738 135.267 33.672 133.106 34.1923" stroke="black" stroke-width="0.507309" stroke-linecap="round"/>
<path d="M127.807 20.1941C127.361 22.3134 127.751 24.6548 128.477 26.1057" stroke="black" stroke-width="0.507309" stroke-linecap="round"/>
<path d="M125.966 21.4211C125.966 21.4211 125.632 23.8191 126.803 25.3249" stroke="black" stroke-width="0.507309" stroke-linecap="round"/>
<path d="M146.436 41.3866C146.436 41.3866 141.083 35.8899 138.46 33.5231" stroke="black" stroke-width="0.507309" stroke-linecap="round"/>
<path d="M139.018 33.6346C138.181 33.3558 136.843 34.2481 136.843 35.3635" stroke="black" stroke-width="0.507309" stroke-linecap="round"/>
<path d="M144.539 43.0597C142.059 40.551 137.066 35.3635 137.066 35.3635" stroke="black" stroke-width="0.507309" stroke-linecap="round"/>
<path d="M146.434 41.5539C146.421 42.1248 145.976 42.5391 145.511 42.8118C145.194 42.9977 144.681 43.2373 144.495 42.7932C144.147 41.9637 145.962 40.7052 146.49 41.4981" stroke="black" stroke-width="0.507309" stroke-linecap="round"/>
<path d="M138.236 33.7461L136.731 32.0731" stroke="black" stroke-width="0.507309" stroke-linecap="round"/>
<path d="M136.73 34.5827L135.225 32.9096" stroke="black" stroke-width="0.507309" stroke-linecap="round"/>
<path d="M127.982 15.7327L130.971 14.8304" stroke="black" stroke-width="0.507309" stroke-linecap="round"/>
<path d="M130.408 16.9734L133.115 16.0711" stroke="black" stroke-width="0.507309" stroke-linecap="round"/>
<path d="M132.279 18.4195L134.986 17.5172" stroke="black" stroke-width="0.507309" stroke-linecap="round"/>
<path d="M133.871 19.8858L136.103 19.1165" stroke="black" stroke-width="0.507309" stroke-linecap="round"/>
<path d="M134.963 21.8058L137.195 21.0364" stroke="black" stroke-width="0.507309" stroke-linecap="round"/>
<path d="M135.979 23.7577L138.21 22.9884" stroke="black" stroke-width="0.507309" stroke-linecap="round"/>
<path d="M136.691 26.0943L138.923 25.325" stroke="black" stroke-width="0.507309" stroke-linecap="round"/>
<path d="M136.812 28.4307L139.044 27.6614" stroke="black" stroke-width="0.507309" stroke-linecap="round"/>
<path d="M136.691 30.3826L138.923 29.6132" stroke="black" stroke-width="0.507309" stroke-linecap="round"/>
<path d="M144.166 31.1064H147.687C150.053 31.1064 148.389 29.1189 146.497 26.6443C144.605 24.1696 144.525 24.8072 143.48 27.3017C141.991 30.8599 140.702 31.1064 144.166 31.1064Z" fill="#FCFEFF" stroke="black" stroke-width="0.507309" stroke-linecap="round"/>
<path d="M145.412 28.6634C145.412 27.894 145.391 27.8737 145.257 27.1163" stroke="black" stroke-width="0.507309" stroke-linecap="round"/>
<path d="M145.499 29.7815C145.153 30.2244 145.249 29.7302 145.438 29.7302C145.572 29.7302 145.489 30.0322 145.557 29.897" stroke="black" stroke-width="0.507309" stroke-linecap="round"/>
<circle cx="145.308" cy="18.9378" r="3.43347" fill="white" stroke="black" stroke-width="0.507309"/>
<path d="M143.523 18.2497C144.823 19.4251 145.125 20.8274 145.125 20.8274C145.41 18.8065 147.411 16.949 149.236 15.9283" stroke="black" stroke-width="0.507309" stroke-linecap="round" stroke-linejoin="round"/>
<path d="M144.183 31.0658H147.704C150.071 31.0658 148.407 29.0783 146.515 26.6036C144.622 24.129 144.542 24.7666 143.498 27.2611C142.009 30.8193 140.72 31.0658 144.183 31.0658Z" fill="#FCFEFF" stroke="black" stroke-width="0.507309" stroke-linecap="round"/>
<path d="M145.43 28.6227C145.43 27.8534 145.409 27.8331 145.275 27.0757" stroke="black" stroke-width="0.507309" stroke-linecap="round"/>
<path d="M145.516 29.7409C145.17 30.1838 145.267 29.6896 145.456 29.6896C145.59 29.6896 145.507 29.9916 145.574 29.8564" stroke="black" stroke-width="0.507309" stroke-linecap="round"/>
<circle cx="145.326" cy="18.8972" r="3.43347" fill="white" stroke="black" stroke-width="0.507309"/>
<path d="M143.541 18.2091C144.84 19.3845 145.143 20.7868 145.143 20.7868C145.428 18.7659 147.429 16.9084 149.254 15.8877" stroke="black" stroke-width="0.507309" stroke-linecap="round" stroke-linejoin="round"/>
</g>
<path d="M177.725 28.4349C177.725 30.0021 177.431 31.3445 176.844 32.4619C176.262 33.5746 175.466 34.4269 174.458 35.0187C173.454 35.6106 172.315 35.9065 171.042 35.9065C169.768 35.9065 168.627 35.6106 167.618 35.0187C166.614 34.4221 165.819 33.5675 165.232 32.4548C164.65 31.3374 164.358 29.9974 164.358 28.4349C164.358 26.8677 164.65 25.5277 165.232 24.415C165.819 23.2976 166.614 22.443 167.618 21.8511C168.627 21.2593 169.768 20.9633 171.042 20.9633C172.315 20.9633 173.454 21.2593 174.458 21.8511C175.466 22.443 176.262 23.2976 176.844 24.415C177.431 25.5277 177.725 26.8677 177.725 28.4349ZM175.076 28.4349C175.076 27.3317 174.903 26.4013 174.557 25.6437C174.216 24.8814 173.743 24.3061 173.137 23.9179C172.531 23.5249 171.832 23.3284 171.042 23.3284C170.251 23.3284 169.552 23.5249 168.946 23.9179C168.34 24.3061 167.864 24.8814 167.519 25.6437C167.178 26.4013 167.007 27.3317 167.007 28.4349C167.007 29.5381 167.178 30.4709 167.519 31.2332C167.864 31.9908 168.34 32.5661 168.946 32.9591C169.552 33.3473 170.251 33.5414 171.042 33.5414C171.832 33.5414 172.531 33.3473 173.137 32.9591C173.743 32.5661 174.216 31.9908 174.557 31.2332C174.903 30.4709 175.076 29.5381 175.076 28.4349ZM180.102 35.7076V24.7986H182.595V26.6167H182.709C182.908 25.987 183.249 25.5017 183.732 25.1608C184.219 24.8151 184.776 24.6423 185.401 24.6423C185.543 24.6423 185.701 24.6494 185.876 24.6636C186.056 24.6731 186.205 24.6896 186.324 24.7133V27.0784C186.215 27.0405 186.042 27.0074 185.805 26.9789C185.573 26.9458 185.348 26.9292 185.131 26.9292C184.662 26.9292 184.241 27.031 183.866 27.2346C183.497 27.4335 183.206 27.7105 182.993 28.0656C182.78 28.4207 182.673 28.8303 182.673 29.2943V35.7076H180.102ZM192.341 35.9207C191.252 35.9207 190.317 35.6816 189.536 35.2034C188.759 34.7252 188.16 34.0646 187.739 33.2218C187.322 32.3743 187.114 31.3989 187.114 30.2957C187.114 29.1878 187.327 28.21 187.753 27.3625C188.179 26.5102 188.781 25.8473 189.557 25.3738C190.338 24.8956 191.262 24.6565 192.327 24.6565C193.212 24.6565 193.996 24.8199 194.678 25.1466C195.364 25.4685 195.911 25.9254 196.319 26.5173C196.726 27.1044 196.958 27.791 197.015 28.577H194.557C194.458 28.0514 194.221 27.6134 193.847 27.263C193.478 26.9079 192.983 26.7304 192.363 26.7304C191.837 26.7304 191.375 26.8724 190.978 27.1565C190.58 27.4359 190.27 27.8383 190.047 28.3639C189.829 28.8895 189.721 29.5192 189.721 30.2531C189.721 30.9965 189.829 31.6357 190.047 32.1707C190.265 32.701 190.57 33.1106 190.963 33.3994C191.361 33.6835 191.828 33.8255 192.363 33.8255C192.741 33.8255 193.08 33.7545 193.378 33.6125C193.681 33.4657 193.935 33.255 194.138 32.9804C194.342 32.7057 194.481 32.3719 194.557 31.9789H197.015C196.953 32.7507 196.726 33.4349 196.333 34.0315C195.94 34.6234 195.405 35.0874 194.728 35.4236C194.051 35.755 193.255 35.9207 192.341 35.9207ZM201.697 29.3156V35.7076H199.126V21.1622H201.64V26.6522H201.768C202.023 26.0367 202.419 25.5514 202.954 25.1963C203.494 24.8364 204.18 24.6565 205.013 24.6565C205.771 24.6565 206.432 24.8151 206.995 25.1324C207.558 25.4496 207.994 25.9136 208.302 26.5244C208.614 27.1352 208.771 27.8809 208.771 28.7616V35.7076H206.2V29.1593C206.2 28.4254 206.01 27.8549 205.631 27.4477C205.257 27.0358 204.732 26.8298 204.055 26.8298C203.6 26.8298 203.193 26.9292 202.833 27.1281C202.478 27.3222 202.199 27.6039 201.995 27.9733C201.796 28.3426 201.697 28.79 201.697 29.3156ZM216.221 35.9207C215.127 35.9207 214.183 35.6934 213.387 35.2389C212.596 34.7796 211.988 34.1309 211.562 33.2929C211.136 32.4501 210.923 31.4581 210.923 30.317C210.923 29.1949 211.136 28.21 211.562 27.3625C211.993 26.5102 212.594 25.8473 213.366 25.3738C214.138 24.8956 215.044 24.6565 216.086 24.6565C216.758 24.6565 217.393 24.7654 217.989 24.9832C218.591 25.1963 219.121 25.5277 219.58 25.9775C220.044 26.4273 220.409 27.0003 220.674 27.6963C220.939 28.3876 221.072 29.2114 221.072 30.1679V30.9562H212.13V29.2233H218.607C218.603 28.7308 218.496 28.2929 218.288 27.9093C218.079 27.5211 217.788 27.2157 217.414 26.9932C217.045 26.7706 216.614 26.6593 216.121 26.6593C215.596 26.6593 215.134 26.7872 214.737 27.0429C214.339 27.2938 214.029 27.6253 213.806 28.0372C213.588 28.4444 213.477 28.8918 213.472 29.3795V30.8923C213.472 31.5268 213.588 32.0713 213.82 32.5258C214.052 32.9756 214.377 33.3213 214.793 33.5628C215.21 33.7995 215.698 33.9179 216.256 33.9179C216.63 33.9179 216.969 33.8658 217.272 33.7616C217.575 33.6527 217.838 33.4941 218.06 33.2858C218.283 33.0774 218.451 32.8194 218.565 32.5116L220.965 32.7815C220.814 33.416 220.525 33.97 220.099 34.4434C219.677 34.9122 219.138 35.2768 218.479 35.5372C217.821 35.7929 217.068 35.9207 216.221 35.9207ZM231.869 27.6821L229.525 27.9378C229.459 27.701 229.343 27.4785 229.177 27.2701C229.016 27.0618 228.798 26.8937 228.524 26.7659C228.249 26.638 227.913 26.5741 227.515 26.5741C226.98 26.5741 226.53 26.6901 226.166 26.9221C225.806 27.1541 225.628 27.4548 225.633 27.8241C225.628 28.1414 225.744 28.3994 225.981 28.5983C226.223 28.7971 226.62 28.9605 227.174 29.0883L229.035 29.4861C230.067 29.7086 230.834 30.0613 231.336 30.5443C231.843 31.0272 232.099 31.6593 232.103 32.4406C232.099 33.1271 231.897 33.7332 231.5 34.2588C231.107 34.7796 230.56 35.1868 229.859 35.4804C229.158 35.7739 228.353 35.9207 227.444 35.9207C226.109 35.9207 225.034 35.6414 224.22 35.0826C223.405 34.5192 222.92 33.7356 222.764 32.7318L225.271 32.4903C225.385 32.9827 225.626 33.3544 225.995 33.6054C226.365 33.8563 226.845 33.9818 227.437 33.9818C228.048 33.9818 228.538 33.8563 228.907 33.6054C229.281 33.3544 229.468 33.0443 229.468 32.675C229.468 32.3625 229.348 32.1044 229.106 31.9008C228.869 31.6972 228.5 31.541 227.998 31.4321L226.137 31.0414C225.091 30.8236 224.317 30.4567 223.815 29.9406C223.313 29.4198 223.065 28.7616 223.069 27.9662C223.065 27.2938 223.247 26.7114 223.616 26.219C223.99 25.7218 224.509 25.3383 225.172 25.0684C225.839 24.7938 226.609 24.6565 227.48 24.6565C228.758 24.6565 229.764 24.9288 230.498 25.4733C231.237 26.0178 231.694 26.754 231.869 27.6821ZM239.671 24.7986V26.7872H233.4V24.7986H239.671ZM234.948 22.1849H237.519V32.4264C237.519 32.772 237.571 33.0372 237.675 33.2218C237.784 33.4018 237.926 33.5249 238.101 33.5912C238.276 33.6575 238.471 33.6906 238.684 33.6906C238.845 33.6906 238.991 33.6788 239.124 33.6551C239.261 33.6314 239.365 33.6101 239.436 33.5912L239.87 35.6011C239.732 35.6485 239.536 35.7005 239.28 35.7574C239.029 35.8142 238.721 35.8473 238.357 35.8568C237.713 35.8757 237.133 35.7787 236.617 35.5656C236.101 35.3478 235.691 35.0116 235.388 34.5571C235.09 34.1025 234.943 33.5343 234.948 32.8525V22.1849ZM241.821 35.7076V24.7986H244.314V26.6167H244.428C244.626 25.987 244.967 25.5017 245.45 25.1608C245.938 24.8151 246.494 24.6423 247.119 24.6423C247.261 24.6423 247.42 24.6494 247.595 24.6636C247.775 24.6731 247.924 24.6896 248.043 24.7133V27.0784C247.934 27.0405 247.761 27.0074 247.524 26.9789C247.292 26.9458 247.067 26.9292 246.849 26.9292C246.381 26.9292 245.959 27.031 245.585 27.2346C245.216 27.4335 244.925 27.7105 244.712 28.0656C244.499 28.4207 244.392 28.8303 244.392 29.2943V35.7076H241.821ZM252.695 35.9278C252.003 35.9278 251.381 35.8047 250.827 35.5585C250.277 35.3075 249.842 34.9382 249.52 34.4505C249.203 33.9628 249.044 33.3615 249.044 32.6466C249.044 32.031 249.158 31.522 249.385 31.1196C249.612 30.7171 249.922 30.3951 250.315 30.1537C250.708 29.9122 251.151 29.7299 251.643 29.6068C252.141 29.4789 252.654 29.3866 253.185 29.3298C253.824 29.2635 254.342 29.2043 254.74 29.1522C255.138 29.0954 255.427 29.0102 255.607 28.8966C255.791 28.7782 255.884 28.5959 255.884 28.3497V28.3071C255.884 27.772 255.725 27.3577 255.408 27.0642C255.09 26.7706 254.634 26.6238 254.037 26.6238C253.407 26.6238 252.908 26.7611 252.538 27.0358C252.174 27.3104 251.928 27.6347 251.8 28.0088L249.399 27.6679C249.589 27.005 249.901 26.451 250.337 26.0059C250.772 25.5561 251.305 25.22 251.935 24.9974C252.564 24.7701 253.26 24.6565 254.023 24.6565C254.548 24.6565 255.071 24.7181 255.592 24.8412C256.113 24.9643 256.589 25.1679 257.02 25.452C257.451 25.7313 257.796 26.1125 258.057 26.5954C258.322 27.0784 258.455 27.6821 258.455 28.4065V35.7076H255.983V34.2091H255.898C255.741 34.5121 255.521 34.7962 255.237 35.0613C254.958 35.3218 254.605 35.5325 254.179 35.6934C253.758 35.8497 253.263 35.9278 252.695 35.9278ZM253.362 34.0386C253.878 34.0386 254.326 33.9368 254.705 33.7332C255.083 33.5249 255.375 33.2503 255.578 32.9093C255.786 32.5684 255.891 32.1968 255.891 31.7943V30.5088C255.81 30.5751 255.673 30.6366 255.479 30.6934C255.289 30.7503 255.076 30.8 254.839 30.8426C254.603 30.8852 254.368 30.9231 254.136 30.9562C253.904 30.9894 253.703 31.0178 253.533 31.0414C253.149 31.0935 252.806 31.1788 252.503 31.2971C252.2 31.4155 251.961 31.5812 251.786 31.7943C251.61 32.0026 251.523 32.2725 251.523 32.6039C251.523 33.0774 251.696 33.4349 252.041 33.6764C252.387 33.9179 252.827 34.0386 253.362 34.0386ZM266.487 24.7986V26.7872H260.216V24.7986H266.487ZM261.764 22.1849H264.335V32.4264C264.335 32.772 264.387 33.0372 264.491 33.2218C264.6 33.4018 264.742 33.5249 264.918 33.5912C265.093 33.6575 265.287 33.6906 265.5 33.6906C265.661 33.6906 265.808 33.6788 265.94 33.6551C266.078 33.6314 266.182 33.6101 266.253 33.5912L266.686 35.6011C266.549 35.6485 266.352 35.7005 266.097 35.7574C265.846 35.8142 265.538 35.8473 265.173 35.8568C264.529 35.8757 263.949 35.7787 263.433 35.5656C262.917 35.3478 262.508 35.0116 262.205 34.5571C261.906 34.1025 261.759 33.5343 261.764 32.8525V22.1849ZM273.35 35.9207C272.256 35.9207 271.311 35.6934 270.516 35.2389C269.725 34.7796 269.117 34.1309 268.691 33.2929C268.265 32.4501 268.051 31.4581 268.051 30.317C268.051 29.1949 268.265 28.21 268.691 27.3625C269.122 26.5102 269.723 25.8473 270.495 25.3738C271.266 24.8956 272.173 24.6565 273.215 24.6565C273.887 24.6565 274.522 24.7654 275.118 24.9832C275.72 25.1963 276.25 25.5277 276.709 25.9775C277.173 26.4273 277.538 27.0003 277.803 27.6963C278.068 28.3876 278.201 29.2114 278.201 30.1679V30.9562H269.259V29.2233H275.736C275.731 28.7308 275.625 28.2929 275.417 27.9093C275.208 27.5211 274.917 27.2157 274.543 26.9932C274.174 26.7706 273.743 26.6593 273.25 26.6593C272.725 26.6593 272.263 26.7872 271.865 27.0429C271.468 27.2938 271.158 27.6253 270.935 28.0372C270.717 28.4444 270.606 28.8918 270.601 29.3795V30.8923C270.601 31.5268 270.717 32.0713 270.949 32.5258C271.181 32.9756 271.506 33.3213 271.922 33.5628C272.339 33.7995 272.827 33.9179 273.385 33.9179C273.759 33.9179 274.098 33.8658 274.401 33.7616C274.704 33.6527 274.967 33.4941 275.189 33.2858C275.412 33.0774 275.58 32.8194 275.694 32.5116L278.094 32.7815C277.943 33.416 277.654 33.97 277.228 34.4434C276.806 34.9122 276.266 35.2768 275.608 35.5372C274.95 35.7929 274.197 35.9207 273.35 35.9207ZM293.355 25.1608C293.289 24.5405 293.009 24.0575 292.517 23.7119C292.029 23.3663 291.395 23.1934 290.614 23.1934C290.064 23.1934 289.593 23.2763 289.2 23.442C288.807 23.6077 288.507 23.8326 288.298 24.1167C288.09 24.4008 287.983 24.7252 287.979 25.0897C287.979 25.3928 288.047 25.6556 288.185 25.8781C288.327 26.1006 288.518 26.29 288.76 26.4463C289.001 26.5978 289.269 26.7256 289.562 26.8298C289.856 26.934 290.152 27.0216 290.45 27.0926L291.814 27.4335C292.363 27.5613 292.891 27.7342 293.398 27.952C293.909 28.1698 294.366 28.4444 294.768 28.7758C295.176 29.1073 295.498 29.5074 295.734 29.9761C295.971 30.4449 296.089 30.9941 296.089 31.6238C296.089 32.4761 295.872 33.2266 295.436 33.8753C295 34.5192 294.371 35.0235 293.547 35.388C292.728 35.7479 291.736 35.9278 290.571 35.9278C289.439 35.9278 288.457 35.7526 287.624 35.4022C286.795 35.0519 286.146 34.5405 285.678 33.8682C285.214 33.1958 284.963 32.3767 284.925 31.4108H287.517C287.555 31.9174 287.711 32.3388 287.986 32.675C288.26 33.0111 288.618 33.2621 289.058 33.4278C289.503 33.5935 290 33.6764 290.55 33.6764C291.123 33.6764 291.625 33.5912 292.055 33.4207C292.491 33.2455 292.832 33.004 293.078 32.6963C293.324 32.3838 293.45 32.0192 293.455 31.6025C293.45 31.2237 293.339 30.9112 293.121 30.665C292.903 30.4141 292.598 30.2057 292.205 30.04C291.816 29.8696 291.362 29.7181 290.841 29.5855L289.186 29.1593C287.988 28.8516 287.041 28.3852 286.345 27.7602C285.654 27.1305 285.308 26.2948 285.308 25.2531C285.308 24.3961 285.54 23.6456 286.004 23.0017C286.473 22.3577 287.11 21.8582 287.915 21.5031C288.72 21.1432 289.631 20.9633 290.649 20.9633C291.681 20.9633 292.586 21.1432 293.362 21.5031C294.143 21.8582 294.757 22.353 295.202 22.9875C295.647 23.6172 295.876 24.3416 295.891 25.1608H293.355ZM303.083 35.9207C301.994 35.9207 301.059 35.6816 300.278 35.2034C299.502 34.7252 298.903 34.0646 298.481 33.2218C298.065 32.3743 297.856 31.3989 297.856 30.2957C297.856 29.1878 298.069 28.21 298.495 27.3625C298.922 26.5102 299.523 25.8473 300.299 25.3738C301.081 24.8956 302.004 24.6565 303.069 24.6565C303.955 24.6565 304.738 24.8199 305.42 25.1466C306.107 25.4685 306.654 25.9254 307.061 26.5173C307.468 27.1044 307.7 27.791 307.757 28.577H305.299C305.2 28.0514 304.963 27.6134 304.589 27.263C304.22 26.9079 303.725 26.7304 303.105 26.7304C302.579 26.7304 302.118 26.8724 301.72 27.1565C301.322 27.4359 301.012 27.8383 300.789 28.3639C300.572 28.8895 300.463 29.5192 300.463 30.2531C300.463 30.9965 300.572 31.6357 300.789 32.1707C301.007 32.701 301.313 33.1106 301.706 33.3994C302.103 33.6835 302.57 33.8255 303.105 33.8255C303.484 33.8255 303.822 33.7545 304.12 33.6125C304.423 33.4657 304.677 33.255 304.88 32.9804C305.084 32.7057 305.224 32.3719 305.299 31.9789H307.757C307.695 32.7507 307.468 33.4349 307.075 34.0315C306.682 34.6234 306.147 35.0874 305.47 35.4236C304.793 35.755 303.997 35.9207 303.083 35.9207ZM313.007 35.9278C312.316 35.9278 311.693 35.8047 311.139 35.5585C310.59 35.3075 310.154 34.9382 309.832 34.4505C309.515 33.9628 309.357 33.3615 309.357 32.6466C309.357 32.031 309.47 31.522 309.697 31.1196C309.925 30.7171 310.235 30.3951 310.628 30.1537C311.021 29.9122 311.464 29.7299 311.956 29.6068C312.453 29.4789 312.967 29.3866 313.497 29.3298C314.136 29.2635 314.655 29.2043 315.053 29.1522C315.45 29.0954 315.739 29.0102 315.919 28.8966C316.104 28.7782 316.196 28.5959 316.196 28.3497V28.3071C316.196 27.772 316.037 27.3577 315.72 27.0642C315.403 26.7706 314.946 26.6238 314.349 26.6238C313.72 26.6238 313.22 26.7611 312.851 27.0358C312.486 27.3104 312.24 27.6347 312.112 28.0088L309.712 27.6679C309.901 27.005 310.214 26.451 310.649 26.0059C311.085 25.5561 311.617 25.22 312.247 24.9974C312.877 24.7701 313.573 24.6565 314.335 24.6565C314.861 24.6565 315.384 24.7181 315.905 24.8412C316.426 24.9643 316.902 25.1679 317.332 25.452C317.763 25.7313 318.109 26.1125 318.369 26.5954C318.634 27.0784 318.767 27.6821 318.767 28.4065V35.7076H316.295V34.2091H316.21C316.054 34.5121 315.834 34.7962 315.55 35.0613C315.27 35.3218 314.918 35.5325 314.491 35.6934C314.07 35.8497 313.575 35.9278 313.007 35.9278ZM313.675 34.0386C314.191 34.0386 314.638 33.9368 315.017 33.7332C315.396 33.5249 315.687 33.2503 315.891 32.9093C316.099 32.5684 316.203 32.1968 316.203 31.7943V30.5088C316.123 30.5751 315.985 30.6366 315.791 30.6934C315.602 30.7503 315.389 30.8 315.152 30.8426C314.915 30.8852 314.681 30.9231 314.449 30.9562C314.217 30.9894 314.016 31.0178 313.845 31.0414C313.462 31.0935 313.118 31.1788 312.815 31.2971C312.512 31.4155 312.273 31.5812 312.098 31.7943C311.923 32.0026 311.835 32.2725 311.835 32.6039C311.835 33.0774 312.008 33.4349 312.354 33.6764C312.699 33.9179 313.14 34.0386 313.675 34.0386ZM323.923 29.3156V35.7076H321.352V24.7986H323.81V26.6522H323.938C324.188 26.0414 324.589 25.5561 325.138 25.1963C325.692 24.8364 326.376 24.6565 327.19 24.6565C327.943 24.6565 328.599 24.8175 329.158 25.1395C329.721 25.4614 330.157 25.9278 330.464 26.5386C330.777 27.1494 330.931 27.8904 330.926 28.7616V35.7076H328.355V29.1593C328.355 28.4302 328.166 27.8596 327.787 27.4477C327.413 27.0358 326.894 26.8298 326.232 26.8298C325.782 26.8298 325.382 26.9292 325.031 27.1281C324.686 27.3222 324.413 27.6039 324.214 27.9733C324.02 28.3426 323.923 28.79 323.923 29.3156ZM334.179 29.7772C334.179 28.0017 334.413 26.3705 334.882 24.8838C335.356 23.3923 336.059 22.0145 336.991 20.7503H339.413C339.054 21.219 338.717 21.7943 338.405 22.4761C338.092 23.1532 337.82 23.8966 337.588 24.7062C337.361 25.5111 337.181 26.3468 337.048 27.2133C336.92 28.0798 336.857 28.9344 336.857 29.7772C336.857 30.8994 336.968 32.0358 337.19 33.1863C337.418 34.3369 337.723 35.4022 338.107 36.3824C338.495 37.3672 338.93 38.1721 339.413 38.7971H336.991C336.059 37.5329 335.356 36.1575 334.882 34.6707C334.413 33.1792 334.179 31.5481 334.179 29.7772ZM350.033 27.6821L347.689 27.9378C347.623 27.701 347.507 27.4785 347.341 27.2701C347.18 27.0618 346.962 26.8937 346.688 26.7659C346.413 26.638 346.077 26.5741 345.679 26.5741C345.144 26.5741 344.694 26.6901 344.33 26.9221C343.97 27.1541 343.792 27.4548 343.797 27.8241C343.792 28.1414 343.908 28.3994 344.145 28.5983C344.387 28.7971 344.784 28.9605 345.338 29.0883L347.199 29.4861C348.231 29.7086 348.998 30.0613 349.5 30.5443C350.007 31.0272 350.263 31.6593 350.267 32.4406C350.263 33.1271 350.061 33.7332 349.664 34.2588C349.271 34.7796 348.724 35.1868 348.023 35.4804C347.322 35.7739 346.517 35.9207 345.608 35.9207C344.273 35.9207 343.198 35.6414 342.384 35.0826C341.569 34.5192 341.084 33.7356 340.928 32.7318L343.435 32.4903C343.549 32.9827 343.79 33.3544 344.159 33.6054C344.529 33.8563 345.009 33.9818 345.601 33.9818C346.212 33.9818 346.702 33.8563 347.071 33.6054C347.445 33.3544 347.632 33.0443 347.632 32.675C347.632 32.3625 347.512 32.1044 347.27 31.9008C347.033 31.6972 346.664 31.541 346.162 31.4321L344.301 31.0414C343.255 30.8236 342.481 30.4567 341.979 29.9406C341.477 29.4198 341.229 28.7616 341.233 27.9662C341.229 27.2938 341.411 26.7114 341.78 26.219C342.154 25.7218 342.673 25.3383 343.336 25.0684C344.003 24.7938 344.773 24.6565 345.644 24.6565C346.922 24.6565 347.928 24.9288 348.662 25.4733C349.401 26.0178 349.858 26.754 350.033 27.6821ZM356.975 29.7772C356.975 31.5481 356.739 33.1792 356.265 34.6707C355.797 36.1575 355.096 37.5329 354.163 38.7971H351.741C352.106 38.3284 352.442 37.7555 352.75 37.0784C353.062 36.4013 353.332 35.6579 353.559 34.8483C353.791 34.0386 353.971 33.2005 354.099 32.3341C354.232 31.4676 354.298 30.6153 354.298 29.7772C354.298 28.6551 354.184 27.5187 353.957 26.3682C353.734 25.2176 353.429 24.1499 353.041 23.165C352.657 22.1802 352.224 21.3753 351.741 20.7503H354.163C355.096 22.0145 355.797 23.3923 356.265 24.8838C356.739 26.3705 356.975 28.0017 356.975 29.7772Z" fill="#22222A"/>
<rect x="0.5" y="0.915253" width="473" height="55.5847" rx="3.5" stroke="#4791FF"/>
<path d="M113.5 81L117.49 85L117.5 69V85L121.5 81" stroke="#4791FF" stroke-linecap="round" stroke-linejoin="round"/>
<path d="M352.5 81L356.49 85L356.5 69V85L360.5 81" stroke="#4791FF" stroke-linecap="round" stroke-linejoin="round"/>
<rect x="0.5" y="97.5" width="224" height="43" rx="3.5" fill="#EBEFFF"/>
<path d="M75.0666 116.362H72.4103C72.3346 115.927 72.1949 115.541 71.9913 115.205C71.7877 114.864 71.5344 114.575 71.2314 114.338C70.9283 114.101 70.5827 113.924 70.1944 113.805C69.8109 113.682 69.3966 113.621 68.9515 113.621C68.1608 113.621 67.46 113.82 66.8493 114.217C66.2385 114.61 65.7602 115.188 65.4146 115.95C65.069 116.708 64.8961 117.634 64.8961 118.727C64.8961 119.84 65.069 120.777 65.4146 121.54C65.765 122.297 66.2432 122.87 66.8493 123.259C67.46 123.642 68.1584 123.834 68.9444 123.834C69.38 123.834 69.7872 123.777 70.166 123.663C70.5495 123.545 70.8928 123.372 71.1958 123.145C71.5036 122.918 71.7617 122.638 71.97 122.307C72.1831 121.975 72.3298 121.597 72.4103 121.17L75.0666 121.185C74.9672 121.876 74.7517 122.525 74.4203 123.131C74.0936 123.737 73.6651 124.272 73.1348 124.736C72.6045 125.195 71.9842 125.555 71.274 125.815C70.5637 126.071 69.7754 126.199 68.9089 126.199C67.6305 126.199 66.4894 125.903 65.4856 125.311C64.4818 124.719 63.6911 123.865 63.1135 122.747C62.5358 121.63 62.247 120.29 62.247 118.727C62.247 117.16 62.5382 115.82 63.1206 114.707C63.7029 113.59 64.496 112.735 65.4998 112.143C66.5036 111.552 67.64 111.256 68.9089 111.256C69.7186 111.256 70.4714 111.369 71.1674 111.597C71.8635 111.824 72.4837 112.158 73.0282 112.598C73.5727 113.034 74.0202 113.569 74.3706 114.203C74.7257 114.833 74.9577 115.553 75.0666 116.362ZM82.1245 126.213C81.0591 126.213 80.1358 125.979 79.3546 125.51C78.5733 125.041 77.9673 124.385 77.5364 123.543C77.1103 122.7 76.8972 121.715 76.8972 120.588C76.8972 119.461 77.1103 118.474 77.5364 117.626C77.9673 116.779 78.5733 116.121 79.3546 115.652C80.1358 115.183 81.0591 114.949 82.1245 114.949C83.1898 114.949 84.1131 115.183 84.8944 115.652C85.6756 116.121 86.2793 116.779 86.7054 117.626C87.1363 118.474 87.3517 119.461 87.3517 120.588C87.3517 121.715 87.1363 122.7 86.7054 123.543C86.2793 124.385 85.6756 125.041 84.8944 125.51C84.1131 125.979 83.1898 126.213 82.1245 126.213ZM82.1387 124.153C82.7163 124.153 83.1993 123.995 83.5875 123.678C83.9758 123.356 84.2646 122.925 84.454 122.385C84.6481 121.845 84.7452 121.244 84.7452 120.581C84.7452 119.913 84.6481 119.31 84.454 118.77C84.2646 118.225 83.9758 117.792 83.5875 117.47C83.1993 117.148 82.7163 116.987 82.1387 116.987C81.5468 116.987 81.0544 117.148 80.6614 117.47C80.2731 117.792 79.9819 118.225 79.7878 118.77C79.5984 119.31 79.5037 119.913 79.5037 120.581C79.5037 121.244 79.5984 121.845 79.7878 122.385C79.9819 122.925 80.2731 123.356 80.6614 123.678C81.0544 123.995 81.5468 124.153 82.1387 124.153ZM93.5822 126.192C92.7252 126.192 91.9582 125.972 91.2811 125.531C90.604 125.091 90.069 124.452 89.676 123.614C89.283 122.776 89.0865 121.758 89.0865 120.56C89.0865 119.348 89.2853 118.325 89.6831 117.491C90.0855 116.653 90.6277 116.021 91.3095 115.595C91.9913 115.164 92.7512 114.949 93.5893 114.949C94.2285 114.949 94.7541 115.058 95.166 115.276C95.5779 115.489 95.9047 115.747 96.1461 116.05C96.3876 116.348 96.5746 116.63 96.7072 116.895H96.8137V111.455H99.3919V126H96.8635V124.281H96.7072C96.5746 124.546 96.3829 124.828 96.1319 125.126C95.881 125.42 95.5495 125.671 95.1376 125.879C94.7257 126.088 94.2072 126.192 93.5822 126.192ZM94.2995 124.082C94.844 124.082 95.3081 123.936 95.6916 123.642C96.0751 123.344 96.3663 122.929 96.5652 122.399C96.764 121.869 96.8635 121.251 96.8635 120.545C96.8635 119.84 96.764 119.227 96.5652 118.706C96.371 118.185 96.0822 117.78 95.6987 117.491C95.3199 117.203 94.8535 117.058 94.2995 117.058C93.7266 117.058 93.2484 117.207 92.8649 117.506C92.4814 117.804 92.1925 118.216 91.9984 118.741C91.8043 119.267 91.7072 119.868 91.7072 120.545C91.7072 121.227 91.8043 121.836 91.9984 122.371C92.1973 122.901 92.4885 123.32 92.872 123.628C93.2602 123.931 93.7361 124.082 94.2995 124.082ZM106.961 126.213C105.867 126.213 104.923 125.986 104.127 125.531C103.337 125.072 102.728 124.423 102.302 123.585C101.876 122.742 101.663 121.75 101.663 120.609C101.663 119.487 101.876 118.502 102.302 117.655C102.733 116.803 103.334 116.14 104.106 115.666C104.878 115.188 105.785 114.949 106.826 114.949C107.499 114.949 108.133 115.058 108.73 115.276C109.331 115.489 109.861 115.82 110.32 116.27C110.785 116.72 111.149 117.293 111.414 117.989C111.679 118.68 111.812 119.504 111.812 120.46V121.249H102.87V119.516H109.347C109.343 119.023 109.236 118.585 109.028 118.202C108.82 117.813 108.528 117.508 108.154 117.286C107.785 117.063 107.354 116.952 106.862 116.952C106.336 116.952 105.874 117.08 105.477 117.335C105.079 117.586 104.769 117.918 104.546 118.33C104.329 118.737 104.217 119.184 104.213 119.672V121.185C104.213 121.819 104.329 122.364 104.561 122.818C104.793 123.268 105.117 123.614 105.534 123.855C105.95 124.092 106.438 124.21 106.997 124.21C107.371 124.21 107.709 124.158 108.012 124.054C108.315 123.945 108.578 123.786 108.801 123.578C109.023 123.37 109.191 123.112 109.305 122.804L111.705 123.074C111.554 123.708 111.265 124.262 110.839 124.736C110.418 125.205 109.878 125.569 109.22 125.83C108.561 126.085 107.809 126.213 106.961 126.213ZM127.57 117.974L125.226 118.23C125.16 117.993 125.044 117.771 124.878 117.562C124.717 117.354 124.5 117.186 124.225 117.058C123.95 116.93 123.614 116.866 123.216 116.866C122.681 116.866 122.232 116.982 121.867 117.214C121.507 117.446 121.33 117.747 121.334 118.116C121.33 118.434 121.446 118.692 121.682 118.891C121.924 119.089 122.322 119.253 122.876 119.381L124.736 119.778C125.769 120.001 126.536 120.354 127.037 120.837C127.544 121.32 127.8 121.952 127.805 122.733C127.8 123.42 127.599 124.026 127.201 124.551C126.808 125.072 126.261 125.479 125.56 125.773C124.859 126.066 124.055 126.213 123.145 126.213C121.81 126.213 120.735 125.934 119.921 125.375C119.107 124.812 118.621 124.028 118.465 123.024L120.972 122.783C121.086 123.275 121.327 123.647 121.697 123.898C122.066 124.149 122.546 124.274 123.138 124.274C123.749 124.274 124.239 124.149 124.608 123.898C124.983 123.647 125.17 123.337 125.17 122.967C125.17 122.655 125.049 122.397 124.807 122.193C124.571 121.99 124.201 121.833 123.699 121.724L121.839 121.334C120.792 121.116 120.018 120.749 119.516 120.233C119.014 119.712 118.766 119.054 118.77 118.259C118.766 117.586 118.948 117.004 119.317 116.511C119.691 116.014 120.21 115.631 120.873 115.361C121.54 115.086 122.31 114.949 123.181 114.949C124.459 114.949 125.465 115.221 126.199 115.766C126.938 116.31 127.395 117.046 127.57 117.974ZM134.683 126.213C133.594 126.213 132.659 125.974 131.878 125.496C131.101 125.018 130.502 124.357 130.081 123.514C129.664 122.667 129.456 121.691 129.456 120.588C129.456 119.48 129.669 118.502 130.095 117.655C130.521 116.803 131.122 116.14 131.899 115.666C132.68 115.188 133.604 114.949 134.669 114.949C135.554 114.949 136.338 115.112 137.02 115.439C137.706 115.761 138.253 116.218 138.66 116.81C139.068 117.397 139.3 118.083 139.356 118.869H136.899C136.8 118.344 136.563 117.906 136.189 117.555C135.819 117.2 135.325 117.023 134.704 117.023C134.179 117.023 133.717 117.165 133.319 117.449C132.922 117.728 132.612 118.131 132.389 118.656C132.171 119.182 132.062 119.812 132.062 120.545C132.062 121.289 132.171 121.928 132.389 122.463C132.607 122.993 132.912 123.403 133.305 123.692C133.703 123.976 134.169 124.118 134.704 124.118C135.083 124.118 135.422 124.047 135.72 123.905C136.023 123.758 136.276 123.547 136.48 123.273C136.684 122.998 136.823 122.664 136.899 122.271H139.356C139.295 123.043 139.068 123.727 138.675 124.324C138.282 124.916 137.747 125.38 137.069 125.716C136.392 126.047 135.597 126.213 134.683 126.213ZM144.607 126.22C143.915 126.22 143.293 126.097 142.739 125.851C142.19 125.6 141.754 125.231 141.432 124.743C141.115 124.255 140.956 123.654 140.956 122.939C140.956 122.323 141.07 121.814 141.297 121.412C141.524 121.009 141.834 120.688 142.227 120.446C142.62 120.205 143.063 120.022 143.556 119.899C144.053 119.771 144.566 119.679 145.097 119.622C145.736 119.556 146.254 119.497 146.652 119.445C147.05 119.388 147.339 119.303 147.519 119.189C147.703 119.071 147.796 118.888 147.796 118.642V118.599C147.796 118.064 147.637 117.65 147.32 117.357C147.003 117.063 146.546 116.916 145.949 116.916C145.319 116.916 144.82 117.054 144.45 117.328C144.086 117.603 143.84 117.927 143.712 118.301L141.311 117.96C141.501 117.297 141.813 116.743 142.249 116.298C142.684 115.848 143.217 115.512 143.847 115.29C144.477 115.062 145.173 114.949 145.935 114.949C146.46 114.949 146.984 115.01 147.504 115.134C148.025 115.257 148.501 115.46 148.932 115.744C149.363 116.024 149.709 116.405 149.969 116.888C150.234 117.371 150.367 117.974 150.367 118.699V126H147.895V124.501H147.81C147.654 124.804 147.433 125.089 147.149 125.354C146.87 125.614 146.517 125.825 146.091 125.986C145.67 126.142 145.175 126.22 144.607 126.22ZM145.274 124.331C145.79 124.331 146.238 124.229 146.617 124.026C146.995 123.817 147.287 123.543 147.49 123.202C147.699 122.861 147.803 122.489 147.803 122.087V120.801C147.722 120.867 147.585 120.929 147.391 120.986C147.201 121.043 146.988 121.092 146.752 121.135C146.515 121.178 146.28 121.215 146.048 121.249C145.816 121.282 145.615 121.31 145.445 121.334C145.061 121.386 144.718 121.471 144.415 121.589C144.112 121.708 143.873 121.874 143.698 122.087C143.522 122.295 143.435 122.565 143.435 122.896C143.435 123.37 143.608 123.727 143.953 123.969C144.299 124.21 144.739 124.331 145.274 124.331ZM155.523 119.608V126H152.952V115.091H155.409V116.945H155.537C155.788 116.334 156.188 115.848 156.737 115.489C157.291 115.129 157.976 114.949 158.79 114.949C159.543 114.949 160.199 115.11 160.757 115.432C161.321 115.754 161.756 116.22 162.064 116.831C162.377 117.442 162.53 118.183 162.526 119.054V126H159.955V119.452C159.955 118.723 159.765 118.152 159.387 117.74C159.012 117.328 158.494 117.122 157.831 117.122C157.381 117.122 156.981 117.222 156.631 117.42C156.285 117.615 156.013 117.896 155.814 118.266C155.62 118.635 155.523 119.082 155.523 119.608Z" fill="#22222A"/>
<rect x="0.5" y="97.5" width="224" height="43" rx="3.5" stroke="#4791FF"/>
<rect x="249.5" y="97.5" width="224" height="43" rx="3.5" fill="#EBEFFF"/>
<path d="M302.43 126H299.617L304.738 111.455H307.991L313.118 126H310.306L306.421 114.438H306.307L302.43 126ZM302.522 120.297H310.192V122.413H302.522V120.297ZM314.921 126V115.091H317.414V116.909H317.527C317.726 116.279 318.067 115.794 318.55 115.453C319.038 115.107 319.594 114.935 320.219 114.935C320.361 114.935 320.52 114.942 320.695 114.956C320.875 114.965 321.024 114.982 321.142 115.006V117.371C321.033 117.333 320.86 117.3 320.624 117.271C320.392 117.238 320.167 117.222 319.949 117.222C319.48 117.222 319.059 117.323 318.685 117.527C318.316 117.726 318.024 118.003 317.811 118.358C317.598 118.713 317.492 119.123 317.492 119.587V126H314.921ZM328.884 115.091V117.08H322.612V115.091H328.884ZM324.161 112.477H326.732V122.719C326.732 123.064 326.784 123.33 326.888 123.514C326.997 123.694 327.139 123.817 327.314 123.884C327.489 123.95 327.683 123.983 327.896 123.983C328.057 123.983 328.204 123.971 328.337 123.947C328.474 123.924 328.578 123.902 328.649 123.884L329.083 125.893C328.945 125.941 328.749 125.993 328.493 126.05C328.242 126.107 327.934 126.14 327.57 126.149C326.926 126.168 326.346 126.071 325.83 125.858C325.314 125.64 324.904 125.304 324.601 124.849C324.303 124.395 324.156 123.827 324.161 123.145V112.477ZM331.034 126V115.091H333.605V126H331.034ZM332.327 113.543C331.919 113.543 331.569 113.408 331.275 113.138C330.982 112.863 330.835 112.534 330.835 112.151C330.835 111.762 330.982 111.433 331.275 111.163C331.569 110.889 331.919 110.751 332.327 110.751C332.738 110.751 333.089 110.889 333.378 111.163C333.671 111.433 333.818 111.762 333.818 112.151C333.818 112.534 333.671 112.863 333.378 113.138C333.089 113.408 332.738 113.543 332.327 113.543ZM341.774 115.091V117.08H335.325V115.091H341.774ZM336.938 126V114.061C336.938 113.327 337.089 112.716 337.392 112.229C337.7 111.741 338.112 111.376 338.628 111.135C339.144 110.893 339.717 110.773 340.347 110.773C340.792 110.773 341.187 110.808 341.533 110.879C341.878 110.95 342.134 111.014 342.3 111.071L341.789 113.06C341.68 113.027 341.542 112.993 341.377 112.96C341.211 112.922 341.026 112.903 340.823 112.903C340.344 112.903 340.006 113.019 339.807 113.251C339.613 113.479 339.516 113.805 339.516 114.232V126H336.938ZM346.556 126.22C345.865 126.22 345.242 126.097 344.688 125.851C344.139 125.6 343.703 125.231 343.381 124.743C343.064 124.255 342.905 123.654 342.905 122.939C342.905 122.323 343.019 121.814 343.246 121.412C343.474 121.009 343.784 120.688 344.177 120.446C344.57 120.205 345.012 120.022 345.505 119.899C346.002 119.771 346.516 119.679 347.046 119.622C347.685 119.556 348.204 119.497 348.601 119.445C348.999 119.388 349.288 119.303 349.468 119.189C349.653 119.071 349.745 118.888 349.745 118.642V118.599C349.745 118.064 349.586 117.65 349.269 117.357C348.952 117.063 348.495 116.916 347.898 116.916C347.269 116.916 346.769 117.054 346.4 117.328C346.035 117.603 345.789 117.927 345.661 118.301L343.26 117.96C343.45 117.297 343.762 116.743 344.198 116.298C344.634 115.848 345.166 115.512 345.796 115.29C346.426 115.062 347.122 114.949 347.884 114.949C348.41 114.949 348.933 115.01 349.454 115.134C349.974 115.257 350.45 115.46 350.881 115.744C351.312 116.024 351.658 116.405 351.918 116.888C352.183 117.371 352.316 117.974 352.316 118.699V126H349.844V124.501H349.759C349.603 124.804 349.383 125.089 349.099 125.354C348.819 125.614 348.466 125.825 348.04 125.986C347.619 126.142 347.124 126.22 346.556 126.22ZM347.224 124.331C347.74 124.331 348.187 124.229 348.566 124.026C348.945 123.817 349.236 123.543 349.439 123.202C349.648 122.861 349.752 122.489 349.752 122.087V120.801C349.671 120.867 349.534 120.929 349.34 120.986C349.151 121.043 348.938 121.092 348.701 121.135C348.464 121.178 348.23 121.215 347.998 121.249C347.766 121.282 347.564 121.31 347.394 121.334C347.01 121.386 346.667 121.471 346.364 121.589C346.061 121.708 345.822 121.874 345.647 122.087C345.472 122.295 345.384 122.565 345.384 122.896C345.384 123.37 345.557 123.727 345.903 123.969C346.248 124.21 346.689 124.331 347.224 124.331ZM359.66 126.213C358.571 126.213 357.635 125.974 356.854 125.496C356.078 125.018 355.479 124.357 355.057 123.514C354.641 122.667 354.432 121.691 354.432 120.588C354.432 119.48 354.645 118.502 355.072 117.655C355.498 116.803 356.099 116.14 356.876 115.666C357.657 115.188 358.58 114.949 359.645 114.949C360.531 114.949 361.314 115.112 361.996 115.439C362.683 115.761 363.23 116.218 363.637 116.81C364.044 117.397 364.276 118.083 364.333 118.869H361.876C361.776 118.344 361.539 117.906 361.165 117.555C360.796 117.2 360.301 117.023 359.681 117.023C359.155 117.023 358.694 117.165 358.296 117.449C357.898 117.728 357.588 118.131 357.366 118.656C357.148 119.182 357.039 119.812 357.039 120.545C357.039 121.289 357.148 121.928 357.366 122.463C357.583 122.993 357.889 123.403 358.282 123.692C358.68 123.976 359.146 124.118 359.681 124.118C360.06 124.118 360.398 124.047 360.697 123.905C361 123.758 361.253 123.547 361.456 123.273C361.66 122.998 361.8 122.664 361.876 122.271H364.333C364.271 123.043 364.044 123.727 363.651 124.324C363.258 124.916 362.723 125.38 362.046 125.716C361.369 126.047 360.573 126.213 359.66 126.213ZM371.892 115.091V117.08H365.62V115.091H371.892ZM367.169 112.477H369.74V122.719C369.74 123.064 369.792 123.33 369.896 123.514C370.005 123.694 370.147 123.817 370.322 123.884C370.497 123.95 370.691 123.983 370.904 123.983C371.065 123.983 371.212 123.971 371.345 123.947C371.482 123.924 371.586 123.902 371.657 123.884L372.09 125.893C371.953 125.941 371.757 125.993 371.501 126.05C371.25 126.107 370.942 126.14 370.578 126.149C369.934 126.168 369.354 126.071 368.838 125.858C368.321 125.64 367.912 125.304 367.609 124.849C367.311 124.395 367.164 123.827 367.169 123.145V112.477ZM387.625 117.974L385.281 118.23C385.215 117.993 385.099 117.771 384.933 117.562C384.772 117.354 384.554 117.186 384.28 117.058C384.005 116.93 383.669 116.866 383.271 116.866C382.736 116.866 382.286 116.982 381.922 117.214C381.562 117.446 381.384 117.747 381.389 118.116C381.384 118.434 381.5 118.692 381.737 118.891C381.979 119.089 382.376 119.253 382.93 119.381L384.791 119.778C385.823 120.001 386.59 120.354 387.092 120.837C387.599 121.32 387.854 121.952 387.859 122.733C387.854 123.42 387.653 124.026 387.256 124.551C386.863 125.072 386.316 125.479 385.615 125.773C384.914 126.066 384.109 126.213 383.2 126.213C381.865 126.213 380.79 125.934 379.976 125.375C379.161 124.812 378.676 124.028 378.52 123.024L381.027 122.783C381.14 123.275 381.382 123.647 381.751 123.898C382.121 124.149 382.601 124.274 383.193 124.274C383.804 124.274 384.294 124.149 384.663 123.898C385.037 123.647 385.224 123.337 385.224 122.967C385.224 122.655 385.104 122.397 384.862 122.193C384.625 121.99 384.256 121.833 383.754 121.724L381.893 121.334C380.847 121.116 380.073 120.749 379.571 120.233C379.069 119.712 378.82 119.054 378.825 118.259C378.82 117.586 379.003 117.004 379.372 116.511C379.746 116.014 380.265 115.631 380.927 115.361C381.595 115.086 382.364 114.949 383.236 114.949C384.514 114.949 385.52 115.221 386.254 115.766C386.993 116.31 387.45 117.046 387.625 117.974ZM394.738 126.213C393.649 126.213 392.714 125.974 391.932 125.496C391.156 125.018 390.557 124.357 390.135 123.514C389.719 122.667 389.51 121.691 389.51 120.588C389.51 119.48 389.724 118.502 390.15 117.655C390.576 116.803 391.177 116.14 391.954 115.666C392.735 115.188 393.658 114.949 394.724 114.949C395.609 114.949 396.393 115.112 397.074 115.439C397.761 115.761 398.308 116.218 398.715 116.81C399.122 117.397 399.354 118.083 399.411 118.869H396.954C396.854 118.344 396.617 117.906 396.243 117.555C395.874 117.2 395.379 117.023 394.759 117.023C394.233 117.023 393.772 117.165 393.374 117.449C392.976 117.728 392.666 118.131 392.444 118.656C392.226 119.182 392.117 119.812 392.117 120.545C392.117 121.289 392.226 121.928 392.444 122.463C392.662 122.993 392.967 123.403 393.36 123.692C393.758 123.976 394.224 124.118 394.759 124.118C395.138 124.118 395.476 124.047 395.775 123.905C396.078 123.758 396.331 123.547 396.535 123.273C396.738 122.998 396.878 122.664 396.954 122.271H399.411C399.349 123.043 399.122 123.727 398.729 124.324C398.336 124.916 397.801 125.38 397.124 125.716C396.447 126.047 395.652 126.213 394.738 126.213ZM404.661 126.22C403.97 126.22 403.347 126.097 402.794 125.851C402.244 125.6 401.809 125.231 401.487 124.743C401.169 124.255 401.011 123.654 401.011 122.939C401.011 122.323 401.124 121.814 401.352 121.412C401.579 121.009 401.889 120.688 402.282 120.446C402.675 120.205 403.118 120.022 403.61 119.899C404.107 119.771 404.621 119.679 405.151 119.622C405.791 119.556 406.309 119.497 406.707 119.445C407.105 119.388 407.393 119.303 407.573 119.189C407.758 119.071 407.85 118.888 407.85 118.642V118.599C407.85 118.064 407.692 117.65 407.374 117.357C407.057 117.063 406.6 116.916 406.004 116.916C405.374 116.916 404.874 117.054 404.505 117.328C404.141 117.603 403.894 117.927 403.767 118.301L401.366 117.96C401.555 117.297 401.868 116.743 402.303 116.298C402.739 115.848 403.272 115.512 403.901 115.29C404.531 115.062 405.227 114.949 405.99 114.949C406.515 114.949 407.038 115.01 407.559 115.134C408.08 115.257 408.556 115.46 408.987 115.744C409.418 116.024 409.763 116.405 410.024 116.888C410.289 117.371 410.421 117.974 410.421 118.699V126H407.95V124.501H407.865C407.708 124.804 407.488 125.089 407.204 125.354C406.925 125.614 406.572 125.825 406.146 125.986C405.724 126.142 405.23 126.22 404.661 126.22ZM405.329 124.331C405.845 124.331 406.293 124.229 406.671 124.026C407.05 123.817 407.341 123.543 407.545 123.202C407.753 122.861 407.857 122.489 407.857 122.087V120.801C407.777 120.867 407.64 120.929 407.445 120.986C407.256 121.043 407.043 121.092 406.806 121.135C406.57 121.178 406.335 121.215 406.103 121.249C405.871 121.282 405.67 121.31 405.499 121.334C405.116 121.386 404.773 121.471 404.47 121.589C404.167 121.708 403.927 121.874 403.752 122.087C403.577 122.295 403.49 122.565 403.49 122.896C403.49 123.37 403.662 123.727 404.008 123.969C404.354 124.21 404.794 124.331 405.329 124.331ZM415.578 119.608V126H413.007V115.091H415.464V116.945H415.592C415.843 116.334 416.243 115.848 416.792 115.489C417.346 115.129 418.03 114.949 418.845 114.949C419.597 114.949 420.253 115.11 420.812 115.432C421.375 115.754 421.811 116.22 422.119 116.831C422.431 117.442 422.585 118.183 422.58 119.054V126H420.009V119.452C420.009 118.723 419.82 118.152 419.441 117.74C419.067 117.328 418.549 117.122 417.886 117.122C417.436 117.122 417.036 117.222 416.686 117.42C416.34 117.615 416.068 117.896 415.869 118.266C415.675 118.635 415.578 119.082 415.578 119.608Z" fill="#22222A"/>
<rect x="249.5" y="97.5" width="224" height="43" rx="3.5" stroke="#4791FF"/>
<path d="M113.5 165L117.49 169L117.5 153V169L121.5 165" stroke="#4791FF" stroke-linecap="round" stroke-linejoin="round"/>
<path d="M352.5 165L356.49 169L356.5 153V169L360.5 165" stroke="#4791FF" stroke-linecap="round" stroke-linejoin="round"/>
<rect x="0.5" y="181.5" width="473" height="43" rx="3.5" fill="#EBEFFF"/>
<path d="M158.473 200.362H155.817C155.741 199.927 155.601 199.541 155.398 199.205C155.194 198.864 154.941 198.575 154.638 198.338C154.335 198.101 153.989 197.924 153.601 197.805C153.217 197.682 152.803 197.621 152.358 197.621C151.567 197.621 150.866 197.82 150.256 198.217C149.645 198.61 149.166 199.188 148.821 199.95C148.475 200.708 148.302 201.634 148.302 202.727C148.302 203.84 148.475 204.777 148.821 205.54C149.171 206.297 149.649 206.87 150.256 207.259C150.866 207.642 151.565 207.834 152.351 207.834C152.786 207.834 153.193 207.777 153.572 207.663C153.956 207.545 154.299 207.372 154.602 207.145C154.91 206.918 155.168 206.638 155.376 206.307C155.589 205.975 155.736 205.597 155.817 205.17L158.473 205.185C158.373 205.876 158.158 206.525 157.827 207.131C157.5 207.737 157.071 208.272 156.541 208.736C156.011 209.195 155.39 209.555 154.68 209.815C153.97 210.071 153.182 210.199 152.315 210.199C151.037 210.199 149.896 209.903 148.892 209.311C147.888 208.719 147.097 207.865 146.52 206.747C145.942 205.63 145.653 204.29 145.653 202.727C145.653 201.16 145.944 199.82 146.527 198.707C147.109 197.59 147.902 196.735 148.906 196.143C149.91 195.552 151.046 195.256 152.315 195.256C153.125 195.256 153.878 195.369 154.574 195.597C155.27 195.824 155.89 196.158 156.434 196.598C156.979 197.034 157.426 197.569 157.777 198.203C158.132 198.833 158.364 199.553 158.473 200.362ZM165.531 210.213C164.465 210.213 163.542 209.979 162.761 209.51C161.98 209.041 161.374 208.385 160.943 207.543C160.517 206.7 160.303 205.715 160.303 204.588C160.303 203.461 160.517 202.474 160.943 201.626C161.374 200.779 161.98 200.121 162.761 199.652C163.542 199.183 164.465 198.949 165.531 198.949C166.596 198.949 167.519 199.183 168.301 199.652C169.082 200.121 169.686 200.779 170.112 201.626C170.543 202.474 170.758 203.461 170.758 204.588C170.758 205.715 170.543 206.7 170.112 207.543C169.686 208.385 169.082 209.041 168.301 209.51C167.519 209.979 166.596 210.213 165.531 210.213ZM165.545 208.153C166.123 208.153 166.606 207.995 166.994 207.678C167.382 207.356 167.671 206.925 167.86 206.385C168.054 205.845 168.151 205.244 168.151 204.581C168.151 203.913 168.054 203.31 167.86 202.77C167.671 202.225 167.382 201.792 166.994 201.47C166.606 201.148 166.123 200.987 165.545 200.987C164.953 200.987 164.461 201.148 164.068 201.47C163.679 201.792 163.388 202.225 163.194 202.77C163.005 203.31 162.91 203.913 162.91 204.581C162.91 205.244 163.005 205.845 163.194 206.385C163.388 206.925 163.679 207.356 164.068 207.678C164.461 207.995 164.953 208.153 165.545 208.153ZM172.94 210V199.091H175.433V200.909H175.547C175.746 200.279 176.086 199.794 176.569 199.453C177.057 199.107 177.613 198.935 178.238 198.935C178.381 198.935 178.539 198.942 178.714 198.956C178.894 198.965 179.043 198.982 179.162 199.006V201.371C179.053 201.333 178.88 201.3 178.643 201.271C178.411 201.238 178.186 201.222 177.969 201.222C177.5 201.222 177.078 201.323 176.704 201.527C176.335 201.726 176.044 202.003 175.831 202.358C175.618 202.713 175.511 203.123 175.511 203.587V210H172.94ZM180.87 210V199.091H183.363V200.909H183.476C183.675 200.279 184.016 199.794 184.499 199.453C184.987 199.107 185.543 198.935 186.168 198.935C186.31 198.935 186.469 198.942 186.644 198.956C186.824 198.965 186.973 198.982 187.091 199.006V201.371C186.983 201.333 186.81 201.3 186.573 201.271C186.341 201.238 186.116 201.222 185.898 201.222C185.43 201.222 185.008 201.323 184.634 201.527C184.265 201.726 183.974 202.003 183.76 202.358C183.547 202.713 183.441 203.123 183.441 203.587V210H180.87ZM193.18 210.213C192.086 210.213 191.142 209.986 190.346 209.531C189.555 209.072 188.947 208.423 188.521 207.585C188.095 206.742 187.882 205.75 187.882 204.609C187.882 203.487 188.095 202.502 188.521 201.655C188.952 200.803 189.553 200.14 190.325 199.666C191.097 199.188 192.003 198.949 193.045 198.949C193.717 198.949 194.352 199.058 194.948 199.276C195.55 199.489 196.08 199.82 196.539 200.27C197.003 200.72 197.368 201.293 197.633 201.989C197.898 202.68 198.031 203.504 198.031 204.46V205.249H189.089V203.516H195.566C195.561 203.023 195.455 202.585 195.247 202.202C195.038 201.813 194.747 201.508 194.373 201.286C194.004 201.063 193.573 200.952 193.08 200.952C192.555 200.952 192.093 201.08 191.695 201.335C191.298 201.586 190.988 201.918 190.765 202.33C190.547 202.737 190.436 203.184 190.431 203.672V205.185C190.431 205.819 190.547 206.364 190.779 206.818C191.011 207.268 191.336 207.614 191.752 207.855C192.169 208.092 192.657 208.21 193.215 208.21C193.589 208.21 193.928 208.158 194.231 208.054C194.534 207.945 194.797 207.786 195.019 207.578C195.242 207.37 195.41 207.112 195.524 206.804L197.924 207.074C197.773 207.708 197.484 208.262 197.058 208.736C196.636 209.205 196.097 209.569 195.438 209.83C194.78 210.085 194.027 210.213 193.18 210.213ZM202.777 195.455V210H200.206V195.455H202.777ZM208.56 210.22C207.869 210.22 207.246 210.097 206.692 209.851C206.143 209.6 205.707 209.231 205.385 208.743C205.068 208.255 204.909 207.654 204.909 206.939C204.909 206.323 205.023 205.814 205.25 205.412C205.477 205.009 205.788 204.688 206.181 204.446C206.574 204.205 207.016 204.022 207.509 203.899C208.006 203.771 208.52 203.679 209.05 203.622C209.689 203.556 210.208 203.497 210.605 203.445C211.003 203.388 211.292 203.303 211.472 203.189C211.656 203.071 211.749 202.888 211.749 202.642V202.599C211.749 202.064 211.59 201.65 211.273 201.357C210.956 201.063 210.499 200.916 209.902 200.916C209.272 200.916 208.773 201.054 208.404 201.328C208.039 201.603 207.793 201.927 207.665 202.301L205.264 201.96C205.454 201.297 205.766 200.743 206.202 200.298C206.637 199.848 207.17 199.512 207.8 199.29C208.43 199.062 209.126 198.949 209.888 198.949C210.414 198.949 210.937 199.01 211.458 199.134C211.978 199.257 212.454 199.46 212.885 199.744C213.316 200.024 213.662 200.405 213.922 200.888C214.187 201.371 214.32 201.974 214.32 202.699V210H211.848V208.501H211.763C211.607 208.804 211.387 209.089 211.102 209.354C210.823 209.614 210.47 209.825 210.044 209.986C209.623 210.142 209.128 210.22 208.56 210.22ZM209.227 208.331C209.744 208.331 210.191 208.229 210.57 208.026C210.949 207.817 211.24 207.543 211.443 207.202C211.652 206.861 211.756 206.489 211.756 206.087V204.801C211.675 204.867 211.538 204.929 211.344 204.986C211.155 205.043 210.941 205.092 210.705 205.135C210.468 205.178 210.234 205.215 210.002 205.249C209.77 205.282 209.568 205.31 209.398 205.334C209.014 205.386 208.671 205.471 208.368 205.589C208.065 205.708 207.826 205.874 207.651 206.087C207.476 206.295 207.388 206.565 207.388 206.896C207.388 207.37 207.561 207.727 207.906 207.969C208.252 208.21 208.692 208.331 209.227 208.331ZM222.352 199.091V201.08H216.081V199.091H222.352ZM217.629 196.477H220.2V206.719C220.2 207.064 220.253 207.33 220.357 207.514C220.466 207.694 220.608 207.817 220.783 207.884C220.958 207.95 221.152 207.983 221.365 207.983C221.526 207.983 221.673 207.971 221.806 207.947C221.943 207.924 222.047 207.902 222.118 207.884L222.551 209.893C222.414 209.941 222.218 209.993 221.962 210.05C221.711 210.107 221.403 210.14 221.039 210.149C220.395 210.168 219.815 210.071 219.298 209.858C218.782 209.64 218.373 209.304 218.07 208.849C217.771 208.395 217.625 207.827 217.629 207.145V196.477ZM229.215 210.213C228.121 210.213 227.177 209.986 226.381 209.531C225.59 209.072 224.982 208.423 224.556 207.585C224.13 206.742 223.917 205.75 223.917 204.609C223.917 203.487 224.13 202.502 224.556 201.655C224.987 200.803 225.588 200.14 226.36 199.666C227.132 199.188 228.038 198.949 229.08 198.949C229.752 198.949 230.387 199.058 230.983 199.276C231.585 199.489 232.115 199.82 232.574 200.27C233.038 200.72 233.403 201.293 233.668 201.989C233.933 202.68 234.066 203.504 234.066 204.46V205.249H225.124V203.516H231.601C231.597 203.023 231.49 202.585 231.282 202.202C231.073 201.813 230.782 201.508 230.408 201.286C230.039 201.063 229.608 200.952 229.116 200.952C228.59 200.952 228.128 201.08 227.731 201.335C227.333 201.586 227.023 201.918 226.8 202.33C226.582 202.737 226.471 203.184 226.466 203.672V205.185C226.466 205.819 226.582 206.364 226.814 206.818C227.046 207.268 227.371 207.614 227.787 207.855C228.204 208.092 228.692 208.21 229.251 208.21C229.625 208.21 229.963 208.158 230.266 208.054C230.569 207.945 230.832 207.786 231.055 207.578C231.277 207.37 231.445 207.112 231.559 206.804L233.959 207.074C233.808 207.708 233.519 208.262 233.093 208.736C232.671 209.205 232.132 209.569 231.474 209.83C230.815 210.085 230.063 210.213 229.215 210.213ZM242.178 194.773L237.491 212.188H235.24L239.927 194.773H242.178ZM243.933 210V195.455H249.387C250.505 195.455 251.442 195.663 252.2 196.08C252.962 196.496 253.537 197.069 253.926 197.798C254.319 198.523 254.515 199.347 254.515 200.27C254.515 201.203 254.319 202.031 253.926 202.756C253.533 203.48 252.953 204.051 252.186 204.467C251.419 204.879 250.474 205.085 249.352 205.085H245.737V202.919H248.997C249.65 202.919 250.185 202.805 250.602 202.578C251.018 202.351 251.326 202.038 251.525 201.641C251.729 201.243 251.83 200.786 251.83 200.27C251.83 199.754 251.729 199.299 251.525 198.906C251.326 198.513 251.016 198.208 250.595 197.99C250.178 197.768 249.641 197.656 248.982 197.656H246.568V210H243.933ZM256.69 210V199.091H259.183V200.909H259.297C259.496 200.279 259.836 199.794 260.319 199.453C260.807 199.107 261.363 198.935 261.988 198.935C262.131 198.935 262.289 198.942 262.464 198.956C262.644 198.965 262.793 198.982 262.912 199.006V201.371C262.803 201.333 262.63 201.3 262.393 201.271C262.161 201.238 261.936 201.222 261.719 201.222C261.25 201.222 260.828 201.323 260.454 201.527C260.085 201.726 259.794 202.003 259.581 202.358C259.368 202.713 259.261 203.123 259.261 203.587V210H256.69ZM264.62 210V199.091H267.191V210H264.62ZM265.912 197.543C265.505 197.543 265.155 197.408 264.861 197.138C264.568 196.863 264.421 196.534 264.421 196.151C264.421 195.762 264.568 195.433 264.861 195.163C265.155 194.889 265.505 194.751 265.912 194.751C266.324 194.751 266.675 194.889 266.964 195.163C267.257 195.433 267.404 195.762 267.404 196.151C267.404 196.534 267.257 196.863 266.964 197.138C266.675 197.408 266.324 197.543 265.912 197.543ZM274.593 210.213C273.528 210.213 272.605 209.979 271.823 209.51C271.042 209.041 270.436 208.385 270.005 207.543C269.579 206.7 269.366 205.715 269.366 204.588C269.366 203.461 269.579 202.474 270.005 201.626C270.436 200.779 271.042 200.121 271.823 199.652C272.605 199.183 273.528 198.949 274.593 198.949C275.659 198.949 276.582 199.183 277.363 199.652C278.144 200.121 278.748 200.779 279.174 201.626C279.605 202.474 279.82 203.461 279.82 204.588C279.82 205.715 279.605 206.7 279.174 207.543C278.748 208.385 278.144 209.041 277.363 209.51C276.582 209.979 275.659 210.213 274.593 210.213ZM274.607 208.153C275.185 208.153 275.668 207.995 276.056 207.678C276.445 207.356 276.733 206.925 276.923 206.385C277.117 205.845 277.214 205.244 277.214 204.581C277.214 203.913 277.117 203.31 276.923 202.77C276.733 202.225 276.445 201.792 276.056 201.47C275.668 201.148 275.185 200.987 274.607 200.987C274.016 200.987 273.523 201.148 273.13 201.47C272.742 201.792 272.451 202.225 272.257 202.77C272.067 203.31 271.972 203.913 271.972 204.581C271.972 205.244 272.067 205.845 272.257 206.385C272.451 206.925 272.742 207.356 273.13 207.678C273.523 207.995 274.016 208.153 274.607 208.153ZM282.003 210V199.091H284.496V200.909H284.609C284.808 200.279 285.149 199.794 285.632 199.453C286.12 199.107 286.676 198.935 287.301 198.935C287.443 198.935 287.602 198.942 287.777 198.956C287.957 198.965 288.106 198.982 288.224 199.006V201.371C288.115 201.333 287.943 201.3 287.706 201.271C287.474 201.238 287.249 201.222 287.031 201.222C286.562 201.222 286.141 201.323 285.767 201.527C285.398 201.726 285.106 202.003 284.893 202.358C284.68 202.713 284.574 203.123 284.574 203.587V210H282.003ZM289.932 210V199.091H292.503V210H289.932ZM291.225 197.543C290.818 197.543 290.467 197.408 290.174 197.138C289.88 196.863 289.733 196.534 289.733 196.151C289.733 195.762 289.88 195.433 290.174 195.163C290.467 194.889 290.818 194.751 291.225 194.751C291.637 194.751 291.987 194.889 292.276 195.163C292.57 195.433 292.716 195.762 292.716 196.151C292.716 196.534 292.57 196.863 292.276 197.138C291.987 197.408 291.637 197.543 291.225 197.543ZM300.595 199.091V201.08H294.323V199.091H300.595ZM295.872 196.477H298.443V206.719C298.443 207.064 298.495 207.33 298.599 207.514C298.708 207.694 298.85 207.817 299.025 207.884C299.2 207.95 299.394 207.983 299.607 207.983C299.768 207.983 299.915 207.971 300.048 207.947C300.185 207.924 300.289 207.902 300.36 207.884L300.794 209.893C300.656 209.941 300.46 209.993 300.204 210.05C299.953 210.107 299.645 210.14 299.281 210.149C298.637 210.168 298.057 210.071 297.541 209.858C297.025 209.64 296.615 209.304 296.312 208.849C296.014 208.395 295.867 207.827 295.872 207.145V196.477ZM302.745 210V199.091H305.316V210H302.745ZM304.037 197.543C303.63 197.543 303.28 197.408 302.986 197.138C302.693 196.863 302.546 196.534 302.546 196.151C302.546 195.762 302.693 195.433 302.986 195.163C303.28 194.889 303.63 194.751 304.037 194.751C304.449 194.751 304.8 194.889 305.089 195.163C305.382 195.433 305.529 195.762 305.529 196.151C305.529 196.534 305.382 196.863 305.089 197.138C304.8 197.408 304.449 197.543 304.037 197.543ZM307.818 210V208.366L313.443 201.314V201.222H308.002V199.091H316.589V200.845L311.234 207.777V207.869H316.774V210H307.818ZM323.707 210.213C322.613 210.213 321.669 209.986 320.873 209.531C320.083 209.072 319.474 208.423 319.048 207.585C318.622 206.742 318.409 205.75 318.409 204.609C318.409 203.487 318.622 202.502 319.048 201.655C319.479 200.803 320.08 200.14 320.852 199.666C321.624 199.188 322.531 198.949 323.572 198.949C324.245 198.949 324.879 199.058 325.476 199.276C326.077 199.489 326.607 199.82 327.067 200.27C327.531 200.72 327.895 201.293 328.16 201.989C328.425 202.68 328.558 203.504 328.558 204.46V205.249H319.616V203.516H326.094C326.089 203.023 325.982 202.585 325.774 202.202C325.566 201.813 325.274 201.508 324.9 201.286C324.531 201.063 324.1 200.952 323.608 200.952C323.082 200.952 322.621 201.08 322.223 201.335C321.825 201.586 321.515 201.918 321.292 202.33C321.075 202.737 320.963 203.184 320.959 203.672V205.185C320.959 205.819 321.075 206.364 321.307 206.818C321.539 207.268 321.863 207.614 322.28 207.855C322.696 208.092 323.184 208.21 323.743 208.21C324.117 208.21 324.455 208.158 324.758 208.054C325.061 207.945 325.324 207.786 325.547 207.578C325.769 207.37 325.937 207.112 326.051 206.804L328.452 207.074C328.3 207.708 328.011 208.262 327.585 208.736C327.164 209.205 326.624 209.569 325.966 209.83C325.308 210.085 324.555 210.213 323.707 210.213Z" fill="#22222A"/>
<rect x="0.5" y="181.5" width="473" height="43" rx="3.5" stroke="#4791FF"/>
<path d="M233 249L236.99 253L237 237V253L241 249" stroke="#4791FF" stroke-linecap="round" stroke-linejoin="round"/>
<rect x="0.5" y="265.5" width="473" height="43" rx="3.5" fill="#EBEFFF"/>
<path d="M199.118 294V279.455H204.573C205.69 279.455 206.628 279.649 207.385 280.037C208.148 280.425 208.723 280.97 209.111 281.67C209.504 282.366 209.701 283.179 209.701 284.107C209.701 285.039 209.502 285.849 209.104 286.536C208.711 287.217 208.131 287.745 207.364 288.119C206.597 288.489 205.655 288.673 204.537 288.673H200.652V286.486H204.182C204.836 286.486 205.371 286.396 205.787 286.216C206.204 286.031 206.512 285.764 206.711 285.413C206.914 285.058 207.016 284.623 207.016 284.107C207.016 283.59 206.914 283.15 206.711 282.786C206.507 282.416 206.197 282.137 205.78 281.947C205.364 281.753 204.826 281.656 204.168 281.656H201.753V294H199.118ZM206.632 287.409L210.233 294H207.293L203.756 287.409H206.632ZM216.686 294.213C215.592 294.213 214.647 293.986 213.852 293.531C213.061 293.072 212.453 292.423 212.027 291.585C211.6 290.742 211.387 289.75 211.387 288.609C211.387 287.487 211.6 286.502 212.027 285.655C212.458 284.803 213.059 284.14 213.831 283.666C214.602 283.188 215.509 282.949 216.551 282.949C217.223 282.949 217.858 283.058 218.454 283.276C219.056 283.489 219.586 283.82 220.045 284.27C220.509 284.72 220.874 285.293 221.139 285.989C221.404 286.68 221.537 287.504 221.537 288.46V289.249H212.595V287.516H219.072C219.067 287.023 218.961 286.585 218.752 286.202C218.544 285.813 218.253 285.508 217.879 285.286C217.51 285.063 217.079 284.952 216.586 284.952C216.061 284.952 215.599 285.08 215.201 285.335C214.804 285.586 214.493 285.918 214.271 286.33C214.053 286.737 213.942 287.184 213.937 287.672V289.185C213.937 289.819 214.053 290.364 214.285 290.818C214.517 291.268 214.842 291.614 215.258 291.855C215.675 292.092 216.163 292.21 216.721 292.21C217.095 292.21 217.434 292.158 217.737 292.054C218.04 291.945 218.303 291.786 218.525 291.578C218.748 291.37 218.916 291.112 219.029 290.804L221.43 291.074C221.279 291.708 220.99 292.262 220.564 292.736C220.142 293.205 219.602 293.569 218.944 293.83C218.286 294.085 217.533 294.213 216.686 294.213ZM223.712 294V283.091H226.169V284.945H226.297C226.524 284.32 226.901 283.832 227.426 283.482C227.952 283.126 228.579 282.949 229.308 282.949C230.047 282.949 230.67 283.129 231.176 283.489C231.688 283.844 232.047 284.329 232.256 284.945H232.369C232.611 284.339 233.018 283.856 233.591 283.496C234.169 283.131 234.853 282.949 235.643 282.949C236.647 282.949 237.466 283.266 238.101 283.901C238.735 284.535 239.053 285.461 239.053 286.678V294H236.474V287.075C236.474 286.398 236.295 285.903 235.935 285.591C235.575 285.274 235.134 285.115 234.614 285.115C233.993 285.115 233.508 285.309 233.158 285.697C232.812 286.081 232.639 286.58 232.639 287.196V294H230.118V286.969C230.118 286.405 229.947 285.955 229.607 285.619C229.27 285.283 228.83 285.115 228.286 285.115C227.916 285.115 227.58 285.21 227.277 285.399C226.974 285.584 226.732 285.847 226.553 286.188C226.373 286.524 226.283 286.917 226.283 287.366V294H223.712ZM246.49 294.213C245.397 294.213 244.452 293.986 243.657 293.531C242.866 293.072 242.257 292.423 241.831 291.585C241.405 290.742 241.192 289.75 241.192 288.609C241.192 287.487 241.405 286.502 241.831 285.655C242.262 284.803 242.864 284.14 243.635 283.666C244.407 283.188 245.314 282.949 246.355 282.949C247.028 282.949 247.662 283.058 248.259 283.276C248.86 283.489 249.391 283.82 249.85 284.27C250.314 284.72 250.678 285.293 250.944 285.989C251.209 286.68 251.341 287.504 251.341 288.46V289.249H242.4V287.516H248.877C248.872 287.023 248.766 286.585 248.557 286.202C248.349 285.813 248.058 285.508 247.684 285.286C247.314 285.063 246.883 284.952 246.391 284.952C245.865 284.952 245.404 285.08 245.006 285.335C244.608 285.586 244.298 285.918 244.076 286.33C243.858 286.737 243.747 287.184 243.742 287.672V289.185C243.742 289.819 243.858 290.364 244.09 290.818C244.322 291.268 244.646 291.614 245.063 291.855C245.48 292.092 245.967 292.21 246.526 292.21C246.9 292.21 247.239 292.158 247.542 292.054C247.845 291.945 248.107 291.786 248.33 291.578C248.552 291.37 248.721 291.112 248.834 290.804L251.235 291.074C251.083 291.708 250.794 292.262 250.368 292.736C249.947 293.205 249.407 293.569 248.749 293.83C248.091 294.085 247.338 294.213 246.49 294.213ZM257.565 294.192C256.708 294.192 255.941 293.972 255.263 293.531C254.586 293.091 254.051 292.452 253.658 291.614C253.265 290.776 253.069 289.758 253.069 288.56C253.069 287.348 253.268 286.325 253.665 285.491C254.068 284.653 254.61 284.021 255.292 283.595C255.974 283.164 256.734 282.949 257.572 282.949C258.211 282.949 258.737 283.058 259.148 283.276C259.56 283.489 259.887 283.747 260.129 284.05C260.37 284.348 260.557 284.63 260.69 284.895H260.796V279.455H263.374V294H260.846V292.281H260.69C260.557 292.546 260.365 292.828 260.114 293.126C259.863 293.42 259.532 293.671 259.12 293.879C258.708 294.088 258.19 294.192 257.565 294.192ZM258.282 292.082C258.826 292.082 259.29 291.936 259.674 291.642C260.058 291.344 260.349 290.929 260.548 290.399C260.746 289.869 260.846 289.251 260.846 288.545C260.846 287.84 260.746 287.227 260.548 286.706C260.353 286.185 260.065 285.78 259.681 285.491C259.302 285.203 258.836 285.058 258.282 285.058C257.709 285.058 257.231 285.207 256.847 285.506C256.464 285.804 256.175 286.216 255.981 286.741C255.787 287.267 255.69 287.868 255.69 288.545C255.69 289.227 255.787 289.836 255.981 290.371C256.18 290.901 256.471 291.32 256.854 291.628C257.243 291.931 257.719 292.082 258.282 292.082ZM267.712 298.091C267.362 298.091 267.037 298.063 266.739 298.006C266.445 297.954 266.211 297.892 266.036 297.821L266.632 295.818C267.007 295.927 267.34 295.979 267.634 295.974C267.927 295.97 268.185 295.877 268.408 295.697C268.635 295.522 268.827 295.229 268.983 294.817L269.203 294.227L265.248 283.091H267.975L270.489 291.33H270.603L273.124 283.091H275.858L271.49 295.321C271.287 295.899 271.017 296.393 270.681 296.805C270.345 297.222 269.933 297.539 269.445 297.757C268.962 297.98 268.384 298.091 267.712 298.091Z" fill="#22222A"/>
<rect x="0.5" y="265.5" width="473" height="43" rx="3.5" stroke="#4791FF"/>
<defs>
<clipPath id="clip0_1124_344880">
<rect width="40.5847" height="40.5847" fill="white" transform="translate(114.707 8.41525)"/>
</clipPath>
</defs>
</svg>
