<svg xmlns="http://www.w3.org/2000/svg" viewBox="0 0 320 275" xmlns:v="https://vecta.io/nano"><style><![CDATA[.B{fill:#fff}.C{fill:#070707}.D{fill-rule:evenodd}]]></style><path d="M121.5 83.5l-7 1c1.2-2.4-4.5-7.333-7.5-9.5l7.5-2c2.4.8 5.667 7.333 7 10.5zm-4 83c-9.2-13.2-4.5-22.167-1-25 3.5-3 9.5-2 18.5 3s8.5 22 8 25-14 13.5-25.5-3zm111-44.5l-8-5c10.4-1.6 18.667-8.333 21.5-11.5l10.5 5c-4 6.4-17.667 10.333-24 11.5zM245 90l-13-2.5c1.2-4.8-4.167-11-7-13.5 9.2-.8 13.5 1 14.5 2l5.5 14zM112.639 199.098l-9.48-10.182 21.768 5.969 45.643-3.16 20.364-7.373c7.724 2.808 17.204 8.426 17.204 8.426l-21.417 9.129v47.749l-50.207 5.618-13.342-14.747v-38.62l-10.533-2.809z" class="C"/><path d="M137.5 206l-27-7-7.5-9.5 23.5 5.5 43.5-2.5 23-7 16 7-20.5 9-51 4.5z" fill="url(#A)"/><path d="M111.5 200.5l24.5 5 51-5 26.5-9s71.323-38.475 59.5-87C265.465 73.572 228.5 22 228.5 22s-113.499-79-194 66.5c-32.985 59.618 77 112 77 112z" fill="url(#B)"/><g class="B D"><path d="M136.609 205.344a.5.5 0 0 1 .5.5v50.226a.5.5 0 1 1-1 0v-50.226a.5.5 0 0 1 .5-.5zm50.16-6.481a.5.5 0 0 1 .5.5v50.874a.5.5 0 1 1-1 0v-50.874a.5.5 0 0 1 .5-.5z"/><path d="M188.471 249.854a.5.5 0 0 1-.437.555l-32.343 3.57-24.043 2.588a.5.5 0 0 1-.112-.994l24.065-2.59 32.315-3.567a.5.5 0 0 1 .555.438z"/><path d="M121.207 238.853a.5.5 0 0 1 .706.026l7.773 8.319 9.405 10.155a.5.5 0 1 1-.74.673l-9.388-10.136-7.783-8.33a.5.5 0 0 1 .027-.707z"/><path d="M123.213 201.357a.5.5 0 0 1 .5.5v41.251a.5.5 0 1 1-1 0v-41.251a.5.5 0 0 1 .5-.5zm7.88 5.167a.5.5 0 0 0 .531.466c14.912-.972 38.897-2.917 58.345-4.862a.5.5 0 1 0-.1-.995c-19.437 1.944-43.41 3.888-58.31 4.859a.5.5 0 0 0-.466.532zm40.207-14.647a.5.5 0 0 1-.467.532l-46.346 2.592a.5.5 0 0 1-.524-.475.5.5 0 0 1 .476-.523l46.329-2.592a.5.5 0 0 1 .532.466z"/><path d="M168.14 189.98a.5.5 0 0 1 .702-.083c5.728 4.526 12.17 8.058 18.613 11.592l3.514 1.935a.5.5 0 1 1-.486.874l-3.493-1.924c-6.442-3.532-12.968-7.11-18.768-11.692a.5.5 0 0 1-.082-.702z"/><path d="M198.175 182.37a.5.5 0 0 1-.336.622l-.709.21c-11.501 3.419-16.966 5.044-26.474 8.7a.5.5 0 1 1-.359-.934c9.545-3.67 15.042-5.304 26.538-8.721l.719-.214a.5.5 0 0 1 .621.337zm14.6 9.418a.5.5 0 0 1-.342.619c-10.028 2.89-16.808 5.795-25.551 9.681a.5.5 0 1 1-.406-.914c8.754-3.891 15.584-6.819 25.68-9.728a.5.5 0 0 1 .619.342z"/><path d="M190.439 183.594a.5.5 0 0 1 .667-.237l20.747 10.05a.5.5 0 0 1 .223.671.5.5 0 0 1-.67.223l-20.73-10.041a.5.5 0 0 1-.237-.666zm-87.701 5.031a.5.5 0 0 1 .707.031l2.715 3.008c2.568 2.869 5.077 5.671 7.947 8.302a.5.5 0 0 1 .031.707.5.5 0 0 1-.706.03c-2.91-2.667-5.466-5.522-8.044-8.401l-2.68-2.971a.5.5 0 0 1 .03-.706zm20.694 5.231a.5.5 0 0 1 .705-.06c6.167 5.193 10.066 8.767 15.585 14.286a.5.5 0 0 1-.707.707c-5.498-5.498-9.376-9.053-15.523-14.229a.5.5 0 0 1-.06-.704z"/><path d="M110.368 198.597a.5.5 0 0 1 .603-.368l2.352.569c9.248 2.236 14.921 3.608 23.615 6.572a.5.5 0 1 1-.323.947c-8.649-2.949-14.281-4.311-23.533-6.549l-2.346-.568a.5.5 0 0 1-.368-.603zm-7.777-9.723a.5.5 0 0 1 .605-.366c3.797.932 7.57 1.955 11.337 2.975l.249.068 11.564 3.024a.5.5 0 0 1 .368.604.5.5 0 0 1-.604.367c-3.883-.944-7.74-1.987-11.589-3.03l-.245-.066-11.319-2.971a.5.5 0 0 1-.366-.605zm67.711-.381a.5.5 0 0 1 .5.5v14.258a.5.5 0 1 1-1 0v-14.258a.5.5 0 0 1 .5-.5zm-37.247 63.395a.5.5 0 0 1-.322-.629l3.48-10.806a.5.5 0 1 1 .952.306l-3.48 10.806a.5.5 0 0 1-.63.323zm-3.756-3.862a.5.5 0 0 1-.323-.63l7.237-22.47a.5.5 0 1 1 .952.307l-7.237 22.47a.5.5 0 0 1-.629.323zm-4.248-4.565a.5.5 0 0 1-.32-.629l5.814-17.432.077-.226.077-.228 5.514-16.522.001-.005a.5.5 0 1 1 .951.312l-5.518 16.535-5.964 17.873-.002.005a.5.5 0 0 1-.63.317z"/><path d="M123.256 232.578a.5.5 0 0 1-.325-.629l8.732-27.385a.5.5 0 1 1 .953.303l-8.732 27.386a.5.5 0 0 1-.628.325zm-.001-15.8a.5.5 0 0 1-.323-.629l4.297-13.342a.5.5 0 1 1 .952.306l-4.297 13.342a.5.5 0 0 1-.629.323zm34.016-11.587a.5.5 0 0 1-.323-.629l3.845-11.937a.5.5 0 0 1 .629-.323.5.5 0 0 1 .322.629l-3.844 11.938a.5.5 0 0 1-.629.322zm6.054-1.053a.5.5 0 0 1-.323-.629l3.505-10.884a.5.5 0 1 1 .952.306l-3.505 10.884a.5.5 0 0 1-.629.323zm5 0a.5.5 0 0 1-.322-.629l1.809-5.618a.5.5 0 1 1 .952.307l-1.809 5.617a.5.5 0 0 1-.63.323zm-27.154 2.458a.5.5 0 0 1-.322-.63l4.07-12.639a.5.5 0 1 1 .952.306l-4.071 12.64a.5.5 0 0 1-.629.323zm5.962-.767a.5.5 0 0 1-.323-.629l3.824-11.873a.5.5 0 1 1 .952.306l-3.824 11.873a.5.5 0 0 1-.629.323zm5.027-.082a.5.5 0 0 1-.323-.629l3.797-11.791a.5.5 0 1 1 .952.306l-3.797 11.791a.5.5 0 0 1-.629.323zm-16.391-.556a.5.5 0 0 1-.322-.629l3.392-10.533a.5.5 0 1 1 .952.307l-3.393 10.533a.5.5 0 0 1-.629.322zm-3.756-3.862a.5.5 0 0 1-.323-.629l2.148-6.671a.5.5 0 1 1 .952.307l-2.148 6.67a.5.5 0 0 1-.629.323zm-4.472-3.862a.5.5 0 0 1-.322-.629l.904-2.809a.5.5 0 1 1 .952.307l-.904 2.808a.5.5 0 0 1-.63.323z"/></g><path d="M141.226 149.644c5.289 9.165 3.797 19.93-3.332 24.043s-17.195.018-22.483-9.147-3.797-19.93 3.332-24.044 17.194-.018 22.483 9.148z" class="C"/><g class="B D"><path d="M114.239 143.011a16.31 16.31 0 0 0-1.471 1.853.5.5 0 0 0-.035.505c-.648 1.358-1.04 2.848-1.205 4.406-.542 5.121 1.353 11.036 4.746 15.679 2.745 3.757 6.749 6.96 11.084 8.521 4.344 1.566 9.057 1.49 13.132-1.386 3.454-2.438 4.308-6.713 3.743-11.136-.567-4.436-2.569-9.162-5.024-12.728-2.202-3.197-6.727-7.1-11.728-8.756-1.769-.586-3.613-.895-5.441-.783a.5.5 0 0 0-.55-.264c-3.166.663-5.529 2.075-7.167 3.99-.029.033-.057.066-.084.099zm.752.659c1.559-1.678 3.271-2.667 5.033-3.147 2.315-.629 4.766-.391 7.143.396 4.77 1.579 9.126 5.334 11.218 8.373 2.38 3.456 4.313 8.033 4.856 12.288.545 4.266-.317 8.067-3.328 10.192-3.746 2.645-8.101 2.745-12.216 1.263-4.125-1.486-7.973-4.555-10.616-8.171-3.277-4.485-5.069-10.157-4.558-14.984.249-2.356 1.045-4.497 2.468-6.21z"/><path d="M131.643 141.83a.5.5 0 0 1 .077.703l-3.919 5.329a.5.5 0 0 1-.832-.555l3.971-5.4a.5.5 0 0 1 .703-.077zm3.428 2.106a.5.5 0 0 1 .078.703l-1.789 2.278-.068.087-2.005 2.55a.5.5 0 0 1-.781-.625l1.997-2.54.069-.088 1.796-2.287a.5.5 0 0 1 .703-.078zm3.546 2.121a.5.5 0 0 1 .047.705l-3.882 4.272-2.111 2.283a.5.5 0 1 1-.74-.673l2.136-2.31 3.844-4.23a.5.5 0 0 1 .706-.047zm2.114 3.509a.5.5 0 0 1 .05.705l-.23.266-5.757 6.763a.5.5 0 0 1-.704.069.5.5 0 0 1-.069-.703l5.772-6.781.233-.269a.5.5 0 0 1 .705-.05zm1.553 3.486a.5.5 0 0 1 .108.699c-1.494 2.037-3.22 3.757-4.969 5.499l-.556.555a.5.5 0 0 1-.707-.707l.553-.552c1.756-1.75 3.427-3.416 4.872-5.387a.5.5 0 0 1 .699-.107zm78.033-81.311a.5.5 0 0 1 .687-.169l.547.33c3.478 2.099 6.969 4.206 9.081 8.042 1.366 2.482 1.869 4.957 2.127 7.657a.5.5 0 1 1-.996.095c-.251-2.632-.733-4.956-2.007-7.27-1.979-3.595-5.253-5.573-8.785-7.706l-.485-.293a.5.5 0 0 1-.169-.687z"/><path d="M230.594 86.942a.5.5 0 0 1 .602-.37l4.279.921 2.872.599c2.418.527 4.834 1.143 7.092 2.046a.5.5 0 0 1 .279.65.5.5 0 0 1-.65.278c-2.181-.872-4.533-1.474-6.934-1.997l-2.828-.59-4.342-.934a.5.5 0 0 1-.37-.603z"/><path d="M238.756 75.446a.5.5 0 0 1 .694.138c3.329 4.976 5.332 11.376 6.389 15.605a.5.5 0 0 1-.364.606.5.5 0 0 1-.606-.364c-1.049-4.197-3.019-10.462-6.25-15.292a.5.5 0 0 1 .137-.694z"/><path d="M227.11 74.508l-5.207.058a.5.5 0 1 1 .046-.999c1.912.088 3.58.026 5.107-.058l.981-.056 3.287-.128c2.728.01 5.254.476 8.333 2.468a.5.5 0 1 1-.544.84c-2.89-1.87-5.22-2.299-7.792-2.308-1.016-.004-2.062.058-3.206.126l-1.005.058z"/><path d="M231.499 73.591a.5.5 0 0 1 .647-.286c1.947.751 3.92 2.134 5.712 3.693 1.798 1.563 3.439 3.325 4.721 4.864a.5.5 0 0 1-.768.64c-1.257-1.508-2.861-3.229-4.609-4.749s-3.624-2.823-5.416-3.515a.5.5 0 0 1-.287-.646z"/></g><path d="M206.08 197.032l-9.64-5.221L208.088 189l12.852 8.032h-14.86z" class="C"/><g class="B D"><path d="M210.448 189.886c-6.955 0-10.665.948-15.234 3.112a.5.5 0 1 1-.428-.904c4.715-2.233 8.574-3.208 15.662-3.208a.5.5 0 1 1 0 1zm11.526 6.824c-6.559-1.711-13.252-.615-19.821 1.18a.5.5 0 0 1-.263-.965c6.615-1.807 13.517-2.961 20.336-1.182a.5.5 0 0 1 .358.61.5.5 0 0 1-.61.357z"/><path d="M196.983 191.334a.5.5 0 0 1 .673-.214c3.209 1.657 6.447 3.185 9.726 4.715a.5.5 0 1 1-.423.906c-3.279-1.53-6.534-3.065-9.762-4.733a.5.5 0 0 1-.214-.674zm9.742-2.357a.5.5 0 0 1 .671-.222c5.087 2.566 10.01 5.209 14.809 8.294a.5.5 0 1 1-.541.841c-4.757-3.058-9.645-5.683-14.718-8.242a.5.5 0 0 1-.221-.671zm-72.541-17.01a.5.5 0 0 1 .671.224l1.02 2.038c5.04 10.055 10.09 20.13 12.895 31.132a.5.5 0 1 1-.969.247c-2.777-10.893-7.781-20.877-12.831-30.953l-1.01-2.017a.5.5 0 0 1 .224-.671zm9.202 2.077a.5.5 0 0 1 .626.327l3.124 10.142 4.847 15.542a.5.5 0 1 1-.951.309l-4.858-15.576-3.116-10.117a.5.5 0 0 1 .328-.627zm-25.615 3.728c5.043-1.164 10.174 2.061 13.274 5.743a2.92 2.92 0 0 1 .252.352c.692.027 1.372.154 1.966.305 2.59.66 4.287 1.866 5.081 3.619.784 1.734.624 3.876-.204 6.281a.5.5 0 1 1-.946-.326c.792-2.298.871-4.145.239-5.543-.624-1.378-2-2.446-4.417-3.062a9.58 9.58 0 0 0-1.225-.233 9.74 9.74 0 0 1 .267.837c.245.899.396 1.913.374 2.797-.011.442-.067.87-.187 1.242s-.317.724-.645.959c-.711.511-1.638.226-2.614-.501-.745-.555-1.378-1.39-1.647-2.31-.274-.937-.17-1.982.604-2.853.595-.669 1.361-1.004 2.149-1.14-3.013-3.465-7.69-6.209-12.096-5.193a.5.5 0 0 1-.599-.374.5.5 0 0 1 .374-.6zm12.926 7.101l-.065.005c-.778.063-1.454.317-1.941.866-.506.569-.588 1.24-.393 1.908.201.685.691 1.345 1.285 1.787.935.696 1.311.58 1.435.491.09-.064.193-.2.276-.454s.128-.576.138-.959c.02-.765-.113-1.681-.339-2.509-.117-.43-.253-.816-.396-1.135z"/></g><path d="M252.029 109.753c3.699 3.237-15.664 10.309-22.893 12.451l-9.238-7.23c4.191.219 16.613-5.842 22.09-9.639 3.615 1.607 6.828 1.607 10.041 4.418z" class="C"/><g class="D"><g class="B"><path d="M219.409 116.37a.5.5 0 0 1 .667-.235c1.67.801 3.198 1.83 4.681 2.837l.146.1 4.334 2.677a.5.5 0 1 1-.448.894c-1.554-.777-3.003-1.762-4.428-2.731l-.166-.112c-1.489-1.012-2.959-1.999-4.552-2.763a.5.5 0 0 1-.234-.667z"/><path d="M242.18 104.634a.5.5 0 0 1 .032.706c-7.485 8.198-15.495 10.183-23.72 12.029a.5.5 0 1 1-.219-.976c8.201-1.841 15.94-3.774 23.201-11.727a.5.5 0 0 1 .706-.032zm11.85 4.875a.5.5 0 0 1 .123.696c-3.09 4.414-7.857 7.113-12.982 9.006-3.886 1.434-8.028 2.421-11.845 3.331l-3.511.853a.5.5 0 0 1-.607-.362.5.5 0 0 1 .362-.607l3.567-.867c3.806-.907 7.864-1.875 11.687-3.286 5.042-1.862 9.589-4.469 12.51-8.641a.5.5 0 0 1 .696-.123z"/><path d="M240.664 104.569a.5.5 0 0 1 .661-.25l2.517 1.144c4.426 2.017 8.82 4.019 13.388 5.632a.5.5 0 0 1 .306.638.5.5 0 0 1-.638.305c-4.614-1.629-9.054-3.652-13.48-5.669l-2.505-1.138a.5.5 0 0 1-.249-.662z"/><path d="M252.116 94.584a.5.5 0 0 1 .671.224c1.231 2.462.71 5.011-.351 7.332-.798 1.747-1.94 3.439-2.945 4.929l-.908 1.365a.5.5 0 0 1-.691.149.5.5 0 0 1-.149-.691l.955-1.436c.995-1.477 2.068-3.068 2.828-4.732 1.007-2.202 1.401-4.401.366-6.469a.5.5 0 0 1 .224-.671z"/><path d="M249.955 92.93c.574-.449 1.353-.697 2.121-.518a1.3 1.3 0 0 1 .853.644 2.33 2.33 0 0 1 .438.038c.518.096 1.127.432 1.193 1.189.059.677-.198 1.403-.57 1.994s-.915 1.13-1.525 1.382c-.464.192-.965.24-1.34-.1a1.08 1.08 0 0 1-.255-.359c-.272-.112-.546-.243-.792-.401-.608-.389-1.126-.988-1.126-1.931 0-.792.429-1.489 1.003-1.937zm2.893 3.212a3.27 3.27 0 0 0 .296-.399c.302-.479.453-.987.42-1.374-.011-.12-.083-.238-.379-.293v.243c-.016.677-.192 1.392-.337 1.823zm-1.087-2.773c-.395-.062-.832.069-1.19.349-.385.301-.619.727-.619 1.15 0 .498.244.82.664 1.089l.045.028c.022-.36.089-.77.199-1.156a3.74 3.74 0 0 1 .35-.849c.134-.227.313-.453.551-.61zm-.018 2.689a1.06 1.06 0 0 0 .107-.121l.022-.034a5.7 5.7 0 0 0 .312-1.579c-.035.043-.073.096-.112.162a2.24 2.24 0 0 0-.119.239.45.45 0 0 1-.006.089l-.058.32-.006.032-.078.427-.062.466zm-110.151 11.929c-1.479 1.16-2.299 2.811-1.728 4.926l.692 2.129.09.253.649 1.912c.439 1.455.721 2.988.426 4.663 2.55 1.619 4.273 3.445 5.373 5.383 1.471 2.596 1.796 5.344 1.547 7.969s-1.068 5.134-1.902 7.282l-.945 2.317-.256.614-.819 2.189a.5.5 0 1 1-.962-.275c.185-.646.498-1.43.858-2.297l.26-.624.932-2.286c.822-2.118 1.604-4.531 1.839-7.014.234-2.477-.076-5.007-1.422-7.381-.966-1.704-2.48-3.352-4.755-4.849-.418 1.324-1.16 2.427-2.159 3.22-1.236.98-2.834 1.463-4.623 1.334-1.622-.116-3.646-.55-5.155-1.513-.761-.485-1.413-1.12-1.801-1.938-.391-.825-.493-1.796-.22-2.908.315-1.279 1.072-2.07 2.074-2.475.969-.393 2.13-.41 3.271-.254 2.286.31 4.725 1.347 5.983 1.936l1.954 1.011c.156-1.311-.075-2.553-.456-3.814l-.632-1.864-.091-.255-.715-2.205c-.695-2.575.346-4.615 2.075-5.973 1.705-1.339 4.096-2.039 6.248-2.039a.5.5 0 1 1 0 1c-1.966 0-4.129.646-5.63 1.826zm-1.003 14.362c-.666-.394-1.389-.775-2.174-1.143-1.242-.582-3.566-1.562-5.694-1.852-1.066-.144-2.025-.107-2.761.191-.705.284-1.24.82-1.478 1.787-.224.914-.13 1.646.153 2.241.286.603.784 1.108 1.435 1.523 1.312.837 3.149 1.248 4.689 1.359 1.561.113 2.907-.309 3.929-1.121.887-.703 1.553-1.719 1.901-2.985z"/><path d="M149.686 104.846c.271.381.375.871.213 1.404-.149.489-.375.881-.7 1.117a1.16 1.16 0 0 1-1.109.148c-.337-.123-.622-.376-.841-.667a1.45 1.45 0 0 1-.517-.375c-.024-.027-.045-.054-.066-.083-.127.163-.259.362-.43.618l-.074.111a.5.5 0 0 1-.693.139.5.5 0 0 1-.139-.693l.091-.136c.273-.413.532-.805.881-1.107l.191-.151a1.48 1.48 0 0 1 .861-.993c.408-.172.868-.169 1.271-.054s.8.356 1.061.722zm-1.811 1.123c.341.018.67-.147.802-.395-.054-.004-.12-.005-.195-.002-.126.007-.253.024-.357.041l-.37.077c.035.099.076.192.12.279zm.85-.521zm.087.152z"/></g><g fill="#bdeab7"><path d="M174.412 74.623a.5.5 0 0 1 .049.705l-5.1 5.927-.515.602a.5.5 0 1 1-.76-.65l.516-.603 5.105-5.933a.5.5 0 0 1 .705-.049zm-3.417 30.605a.5.5 0 0 1 .7-.101l5.6 4.142a.5.5 0 0 1 .108.698.5.5 0 0 1-.698.109l-5.609-4.148a.5.5 0 0 1-.101-.7z"/><path d="M192.584 90.848a.5.5 0 0 1 0 .707l-5.538 5.65c-4.035 4.165-7.621 7.866-12.635 12.196a.5.5 0 1 1-.654-.757c4.979-4.3 8.521-7.955 12.542-12.105l5.578-5.691a.5.5 0 0 1 .707 0z"/><path d="M172.064 75.348a.5.5 0 0 1 .7-.1c3.188 2.391 5.62 4.514 8.061 6.644l1.661 1.445c3.044 2.632 6.379 5.386 11.439 8.8a.5.5 0 1 1-.56.829c-5.103-3.444-8.471-6.225-11.533-8.873l-1.672-1.455c-2.439-2.128-4.841-4.224-7.996-6.59a.5.5 0 0 1-.1-.7z"/></g><path d="M180.846 102.889a.5.5 0 0 1-.322-.629l5-15.525a.5.5 0 0 1 .629-.323.5.5 0 0 1 .322.629l-5 15.525a.5.5 0 0 1-.629.322zm8.425-8.413a.5.5 0 0 1-.323-.629l1.071-3.326a.5.5 0 1 1 .952.307l-1.071 3.326a.5.5 0 0 1-.629.323zm-14.664 14a.5.5 0 0 1-.323-.629l2.899-9a.5.5 0 1 1 .952.306l-2.899 9a.5.5 0 0 1-.629.323zm5.475-17a.5.5 0 0 1-.323-.629l2.094-6.5a.5.5 0 1 1 .952.306l-2.094 6.5a.5.5 0 0 1-.629.323zm-4.034-3a.5.5 0 0 1-.323-.629l2.254-7a.5.5 0 1 1 .952.306l-2.254 7a.5.5 0 0 1-.629.323zm-4.588-3.5a.5.5 0 0 1-.323-.629l2.355-7.31a.5.5 0 1 1 .952.306l-2.355 7.31a.5.5 0 0 1-.629.323z" class="B"/></g><path d="M167.473 110.207L149.801 96.15l16.868-18.073 18.877 14.86-18.073 17.27z" fill="url(#C)"/><g class="D"><g class="B"><path d="M165.446 76.359a.5.5 0 0 1 .049.705l-5.081 5.906c-4.787 5.592-9.399 10.981-12.772 14.217a.5.5 0 1 1-.692-.722c3.334-3.198 7.894-8.526 12.668-14.103l5.123-5.954a.5.5 0 0 1 .705-.049z"/><path d="M145.613 94.242a.5.5 0 0 1 .704-.07c5.571 4.561 16.178 12.62 22.01 16.832a.5.5 0 0 1-.585.811c-5.844-4.221-16.468-12.292-22.059-16.869a.5.5 0 0 1-.07-.704z"/><path d="M183.618 92.584a.5.5 0 0 1 0 .707l-5.538 5.65c-4.035 4.165-7.621 7.866-12.635 12.197a.5.5 0 1 1-.654-.757c4.979-4.3 8.521-7.956 12.542-12.106l5.578-5.691a.5.5 0 0 1 .707 0z"/><path d="M163.098 77.084a.5.5 0 0 1 .7-.1c3.188 2.391 5.621 4.514 8.062 6.644l1.661 1.445c3.043 2.631 6.378 5.386 11.438 8.8a.5.5 0 1 1-.56.829c-5.103-3.444-8.471-6.225-11.532-8.873l-1.673-1.455c-2.439-2.128-4.84-4.224-7.996-6.59a.5.5 0 0 1-.1-.7z"/></g><path d="M172.105 86.726a.5.5 0 0 1-.145.692c-2.98 1.952-4.659 4.018-5.581 5.928s-1.101 3.695-1.035 5.106c.049 1.044.22 1.819.341 2.368l.109.548c.009.06.018.142.013.225a.65.65 0 0 1-.038.184c-.029.076-.093.191-.225.271-.272.164-.526.018-.566-.005h-.001c-.079-.045-.147-.106-.196-.152-.185-.174-.487-.533-.927-1.055l-.08-.095-1.287-1.606c-1.177-1.507-2.353-3.014-4.814-5.143a.5.5 0 1 1 .654-.757c2.541 2.197 3.791 3.799 4.98 5.322l1.21 1.512c-.076-.458-.145-.994-.172-1.571a11.47 11.47 0 0 1 1.133-5.588c1.011-2.094 2.822-4.291 5.935-6.33a.5.5 0 0 1 .692.144z" class="C"/></g><path d="M125.916 104.496l-8.432-2.775c-1.174 2.855.488 8.591 1.466 11.102 1.955 1.983 6.673 6.027 5.5 3.172s.488-9.12 1.466-11.499z" class="C"/><g class="B D"><path d="M116.256 100.924a.5.5 0 0 1 .42.569c-.647 4.313.298 8.296 2.24 12.271a.5.5 0 0 1-.899.439c-2.003-4.102-3.015-8.292-2.33-12.858a.5.5 0 0 1 .569-.421zm8.965 1.561a.5.5 0 0 1 .127.696c-2.864 4.137-2.777 8.664-1.638 13.498a.5.5 0 0 1-.372.602.5.5 0 0 1-.601-.372c-1.167-4.95-1.311-9.82 1.789-14.297a.5.5 0 0 1 .695-.127z"/><path d="M113.999 100.293a.5.5 0 0 1 .643-.295l2.757 1.005 8.13 3.198a.5.5 0 1 1-.419.908c-2.6-1.2-5.301-2.174-8.017-3.153l-2.799-1.02a.5.5 0 0 1-.295-.643zm1.156 11.01a.5.5 0 0 1 .661-.25c2.708 1.219 5.153 2.723 7.605 4.232l2.156 1.316a.5.5 0 0 1 .171.686.5.5 0 0 1-.686.171l-2.2-1.342-7.457-4.151a.5.5 0 0 1-.25-.662z"/></g><path d="M116.678 73.205c-2.199-.793-4.819-.803-9.639 1.205 5.623 4.82 8.662 6.325 9.639 8.836h6.426s-2.008-4.82-6.426-10.041z" class="C"/><g class="B D"><path d="M103.34 73.446a.5.5 0 0 1 .645-.289c2.273.866 4.745 2.678 6.846 4.835s3.876 4.71 4.713 7.097a.5.5 0 0 1-.944.331c-.773-2.205-2.448-4.637-4.486-6.73s-4.393-3.801-6.485-4.598a.5.5 0 0 1-.289-.645z"/><path d="M113.999 72.735a.5.5 0 0 1-.355.611l-7.471 1.946-2.051.53a.5.5 0 0 1-.609-.359.5.5 0 0 1 .359-.609l2.052-.53 7.464-1.944a.5.5 0 0 1 .611.355z"/><path d="M112.246 71.691a.5.5 0 0 1 .702-.084c5.005 3.933 7.661 8.709 9.279 12.485a.5.5 0 0 1-.263.656.5.5 0 0 1-.656-.263c-1.582-3.691-4.153-8.301-8.978-12.092a.5.5 0 0 1-.084-.702z"/><path d="M123.606 84.023c-3.929 0-7.839.178-11.778.38a.5.5 0 1 1-.051-.999c3.94-.203 7.872-.381 11.829-.381a.5.5 0 1 1 0 1z"/></g><path d="M103.023 184.056c-4.819-2.812-15.663-4.017-17.671-4.418l4.016-3.615 8.033 2.008c3.48 2.945 9.478 8.274 5.622 6.025z" class="C"/><g class="B D"><path d="M102.096 181.178l1.997.781a.5.5 0 0 1 .288.646.5.5 0 0 1-.647.287l-2.031-.793-6.859-2.482c-3.038-.912-6.085-1.458-9.038-1.142a.5.5 0 0 1-.55-.444.5.5 0 0 1 .444-.55c3.141-.337 6.334.248 9.432 1.178 2.375.712 4.724 1.637 6.964 2.519z"/><path d="M92.077 174.474a.5.5 0 0 1-.018.707c-2.183 2.074-3.357 2.698-6.097 3.954a.5.5 0 1 1-.417-.909c2.684-1.23 3.75-1.8 5.825-3.77a.5.5 0 0 1 .707.018z"/><path d="M89.817 175.52a.5.5 0 0 1 .5-.5c2.901 0 5.285.614 8.668 2.193a.5.5 0 0 1 .242.664.5.5 0 0 1-.665.242c-3.291-1.536-5.529-2.099-8.245-2.099a.5.5 0 0 1-.5-.5z"/><path d="M97.333 176.575a.5.5 0 0 1 .707-.007 73.75 73.75 0 0 0 8.51 7.186.5.5 0 0 1 .113.698.5.5 0 0 1-.698.112 74.65 74.65 0 0 1-8.625-7.282.5.5 0 0 1-.007-.707z"/></g><path d="M178.129 181.646l5.623-10.041h11.647l-17.27 10.041z" class="C"/><g class="B D"><path d="M184.012 169.267a.5.5 0 0 1 .293.644c-.871 2.321-2.068 4.498-3.294 6.627l-.608 1.05-2.906 5.352a.5.5 0 0 1-.665.24.5.5 0 0 1-.239-.665c.877-1.865 1.92-3.662 2.95-5.438l.601-1.038c1.224-2.125 2.385-4.241 3.224-6.479a.5.5 0 0 1 .644-.293z"/><path d="M184.306 172.449l-2.508.148a.5.5 0 1 1-.057-.999l2.494-.147c3.693-.221 7.399-.444 11.117-.444a.5.5 0 1 1 0 1c-3.685 0-7.355.22-11.046.442z"/><path d="M194.876 171.107a.5.5 0 0 1-.177.685l-4.978 2.852c-4.384 2.472-7.923 4.468-12.663 8.182a.5.5 0 0 1-.702-.085.5.5 0 0 1 .086-.702c4.803-3.764 8.423-5.806 12.828-8.29l4.922-2.819a.5.5 0 0 1 .684.177z"/></g><path d="M179.735 149.114l-8.836-7.631 30.123-14.861 8.836 8.033-30.123 14.459z" class="C"/><g class="B D"><path d="M174.487 143.333a.5.5 0 0 1-.114.697c-4.25 3.051-9.191 7.678-12.526 11.72-3.999 4.846-6.373 10.126-5.064 16.343.312 1.482.86 3.124 1.717 4.502a8.94 8.94 0 0 0 .56.802c.206-3.095.581-5.845 1.206-7.79.231-.719.503-1.348.825-1.851s.714-.908 1.196-1.132c1.029-.479 2.144-.016 3.264 1.081 1.173 1.149 1.571 2.908 1.593 4.6.023 1.708-.333 3.455-.784 4.703-.32.889-.824 1.912-1.565 2.636-.764.746-1.799 1.184-3.081.808a6.2 6.2 0 0 1-1.77-.846l-.071 2.344c-.194 9.727.737 20.849.924 22.185a.5.5 0 1 1-.991.138c-.194-1.393-1.127-12.568-.933-22.342l.106-3.125a9.09 9.09 0 0 1-1.328-1.683c-.938-1.508-1.519-3.269-1.847-4.824-1.396-6.633 1.172-12.218 5.271-17.186 3.39-4.108 8.394-8.793 12.714-11.895a.5.5 0 0 1 .698.115zm-14.485 35.057c.581.5 1.243.882 1.993 1.102.867.254 1.54-.015 2.101-.563.585-.571 1.024-1.43 1.324-2.26.413-1.146.746-2.775.725-4.351-.022-1.591-.4-3.023-1.294-3.898-1.037-1.016-1.705-1.093-2.142-.89-.251.117-.514.358-.776.765s-.499.948-.715 1.618c-.651 2.026-1.028 5.04-1.216 8.477z"/><path d="M167.621 148.699c-.094.099-.2.173-.304.213l-.054.019c-.024-.143-.043-.304-.054-.486a.5.5 0 0 0-.35-.446 1.43 1.43 0 0 1 .392-.138c.083.075.188.221.279.506l.091.332zm-.189-1.866l-.021-.006c-.497-.146-.97.046-1.291.324a1.78 1.78 0 0 0-.411.519 1.98 1.98 0 0 0-.339.606 1.73 1.73 0 0 0 .126 1.426c.257.455.719.809 1.351 1.02.11.036.223.033.323-.002.201.107.434.148.686.073.461-.136.703-.586.79-1.023a2.75 2.75 0 0 0 .028-.826c.198-.35.319-.785.245-1.19-.04-.217-.138-.435-.323-.609a1.17 1.17 0 0 0-.682-.298c-.165-.018-.326-.022-.482-.014zm1.234-7.507a.5.5 0 0 1 .698-.114c1.909 1.373 3.567 3.012 5.201 4.628l1.758 1.714.07.067 1.402 1.252a4.53 4.53 0 0 0 .69.468.88.88 0 0 0 .174.069.5.5 0 0 1 .381.922c-.199.1-.404.093-.558.063s-.309-.092-.447-.161a5.47 5.47 0 0 1-.86-.576c-.535-.423-1.092-.953-1.465-1.307l-.076-.072-1.822-1.776c-1.616-1.598-3.191-3.156-5.032-4.48a.5.5 0 0 1-.114-.697zm10.017 8.089z"/><path d="M199.354 124.952a.5.5 0 0 1-.262.657c-5.331 2.284-10.479 4.943-15.638 7.623l-.567.294c-4.965 2.581-9.946 5.17-15.09 7.435a.5.5 0 0 1-.659-.256.5.5 0 0 1 .256-.659c5.113-2.252 10.069-4.828 15.042-7.412l.557-.29c5.156-2.678 10.335-5.353 15.705-7.654a.5.5 0 0 1 .656.262zm9.713 7.322a.5.5 0 0 1-.171.686c-3.587 2.152-7.386 3.949-11.15 5.73l-2.965 1.411c-3.592 1.729-7.074 3.593-10.57 5.464l-6.347 3.355a.5.5 0 1 1-.458-.889l6.301-3.331 10.64-5.5 2.995-1.425c3.758-1.778 7.499-3.549 11.039-5.673a.5.5 0 0 1 .686.172z"/><path d="M198.823 124.22a.5.5 0 0 1 .706-.029l4.124 3.566.77.645 4.865 4.366a.5.5 0 0 1-.707.707c-1.53-1.53-3.152-2.922-4.801-4.307l-.765-.641-4.163-3.601a.5.5 0 0 1-.029-.706z"/><path d="M214.433 124.415a.5.5 0 0 1-.335.623c-1.747.524-3.448 1.254-5.152 2.042l-1.631.766-3.5 1.602a.5.5 0 1 1-.392-.92l3.441-1.575 1.662-.78c1.716-.794 3.468-1.548 5.284-2.093a.5.5 0 0 1 .623.335z"/><path d="M216.755 122.548c.165.167.257.381.299.609.053.295-.025.565-.138.781s-.275.404-.441.558c-.323.302-.743.55-1.074.643-.354.099-.688.101-.992-.01a1.46 1.46 0 0 1-.682-.537 2.21 2.21 0 0 1-.175-.29c-.093-.074-.175-.171-.23-.293-.07-.157-.076-.313-.051-.45l-.084-.306-.012-.041a.5.5 0 0 1 .777-.534c.186-.127.397-.235.607-.305.235-.079.582-.148.894-.01.235-.078.481-.125.722-.095.204.026.412.11.58.28zm-.808 1.052c.035-.045.063-.087.084-.127.044-.085.041-.126.039-.137a.3.3 0 0 0-.022-.076c-.009-.001-.02-.002-.033-.001a1.19 1.19 0 0 1-.029.205l-.039.136z"/></g><path d="M151.809 140.78c.466-.315 4.454-4.699 6.389-6.852l1.227 10.607c-1.562 5.008-5.058 15.102-6.536 15.422s-4.583-1.143-5.951-1.914c1.43-5.624 4.405-16.949 4.871-17.263z" class="C"/><path d="M151.221 159.556l4.819-13.655 3.615-.804-6.426 14.861-2.008-.402z" fill="#4facdf"/><g class="B D"><path d="M151.868 140.449a.5.5 0 0 1 .374.6c-1.181 5.094-2.689 10.102-4.191 15.089l-.79 2.633a.5.5 0 0 1-.958-.287l.792-2.64c1.502-4.989 3-9.961 4.173-15.021a.5.5 0 0 1 .6-.374z"/><path d="M159.138 132.009a.5.5 0 0 1 .19.681c-2.327 4.125-5.439 6.887-8.87 9.932l-.726.644a.5.5 0 0 1-.665-.747l.701-.622c3.454-3.066 6.447-5.724 8.689-9.698a.5.5 0 0 1 .681-.19z"/><path d="M158.143 131.358a.5.5 0 0 1 .485.515c-.051 1.625.268 4.279.663 6.983l.545 3.547.53 3.518a.5.5 0 1 1-.992.129l-.522-3.468-.55-3.581c-.393-2.689-.728-5.431-.674-7.159a.5.5 0 0 1 .515-.484z"/><path d="M160.757 142.127a.5.5 0 0 1 .223.671c-2.961 5.911-5.311 11.981-7.48 18.237a.5.5 0 1 1-.945-.328c2.177-6.276 4.543-12.391 7.531-18.357a.5.5 0 0 1 .671-.223z"/><path d="M154.602 159.989a.5.5 0 0 1-.446.549c-1.422.147-3.219-.218-4.799-.824-1.567-.601-3.047-1.488-3.753-2.483a.5.5 0 0 1 .118-.697.5.5 0 0 1 .697.118c.532.749 1.783 1.548 3.296 2.128 1.499.575 3.13.888 4.338.763a.5.5 0 0 1 .549.446zm4.153-22.566a.5.5 0 0 1-.586.396c-.296-.058-.749-.218-1.162-.387s-.854-.373-1.117-.538a.5.5 0 0 1-.159-.689.5.5 0 0 1 .689-.158c.188.117.561.295.965.459s.782.294.974.331a.5.5 0 0 1 .396.586zm1.113 5.91a.5.5 0 0 1-.473.526c-.213.011-.519.085-.905.211l-1.058.381-.153.058-1.208.417c-.346.098-.752.185-1.084.115a1.42 1.42 0 0 1-.585-.299c-.163-.132-.317-.297-.46-.472-.285-.349-.568-.789-.832-1.219l-.239-.391-.528-.849c-.252-.381-.451-.629-.598-.742a.5.5 0 0 1-.091-.701.5.5 0 0 1 .701-.091c.294.226.573.606.822.983l.56.899.225.368.754 1.11c.119.146.224.254.315.328a.45.45 0 0 0 .163.097c.064.014.251.002.604-.099.327-.092.712-.233 1.129-.39l.152-.057 1.101-.397c.398-.13.81-.24 1.162-.259a.5.5 0 0 1 .526.473z"/><path d="M155.25 144.077a.5.5 0 0 1 .315.634l-4.884 14.727h0a.5.5 0 0 1-.631.32.5.5 0 0 1-.319-.631l4.886-14.735a.5.5 0 0 1 .633-.315z"/></g><path d="M97.088 128.566l-9-10c-.833-1.167-2.2-3.7-1-4.5 1.5-1 8.5.5 12.5 1 3.2.4 4.666-2.833 5-4.5 2.833 4.5 9.3 11.3 8.5 12.5-1 1.5-6.5 1-13.5 0-5.6-.8-3.333 3.667-2.5 5.5z" class="C"/><g class="B D"><path d="M84.646 115.181a.5.5 0 0 1 .707 0l1.353 1.351c8.25 8.236 16.461 16.434 22.201 26.854a.5.5 0 1 1-.876.483c-5.669-10.292-13.786-18.396-22.06-26.656l-1.326-1.325a.5.5 0 0 1 0-.707z"/><path d="M103.927 106.51a.5.5 0 0 1 .589.392c.427 2.137.423 4.514-.659 6.61-.695 1.346-1.935 1.957-3.229 2.163-1.283.205-2.668.025-3.784-.248-.655-.159-1.359-.394-2.067-.63l-.087-.029-2.253-.682c-1.517-.374-2.927-.464-4.114.154-.401.208-.61.496-.712.838-.108.362-.102.81-.006 1.317.177.936.627 1.918.962 2.648l.09.196a.5.5 0 0 1-.91.414l-.091-.199c-.329-.716-.831-1.809-1.033-2.873-.111-.588-.14-1.214.031-1.788.177-.594.561-1.104 1.209-1.441 1.519-.79 3.231-.628 4.815-.237.797.196 1.589.458 2.33.704l.069.023 2.007.614c1.048.256 2.288.408 3.389.232 1.091-.174 1.994-.658 2.499-1.635.939-1.819.969-3.941.566-5.955a.5.5 0 0 1 .392-.588zm-2.718 18.38c-1.235-.224-2.386-.26-3.326.125-.289.119-.443.269-.533.42-.093.158-.141.36-.143.617-.002.465.141.982.29 1.524l.075.274a.5.5 0 1 1-.966.261l-.067-.244c-.148-.53-.336-1.203-.333-1.821.002-.373.071-.765.282-1.121.215-.362.551-.645 1.013-.835 1.209-.496 2.593-.418 3.885-.184.815.148 1.66.374 2.423.578l1.177.303c.83.194 2.579.503 4.312.608.867.052 1.714.053 2.431-.032.736-.087 1.26-.257 1.549-.483a.5.5 0 1 1 .616.788c-.513.401-1.265.595-2.047.688-.8.095-1.711.091-2.609.037-1.796-.109-3.602-.427-4.479-.632l-1.284-.33-2.268-.541z"/><path d="M102.811 110.15a.5.5 0 0 1 .693.139l2.482 3.794c2.703 4.176 4.846 7.486 7.81 10.337a.5.5 0 1 1-.694.721c-3.055-2.939-5.277-6.374-7.994-10.573l-2.436-3.724a.5.5 0 0 1 .139-.694zm-13.048 33.704a.5.5 0 0 1 .704-.066c3.182 2.631 6.272 5.362 9.357 8.087l1.323 1.169a.5.5 0 0 1 .045.706.5.5 0 0 1-.706.044l-1.325-1.17-9.331-8.066a.5.5 0 0 1-.067-.704zm7.719-1.85a.5.5 0 0 1 .703.079l6.583 8.008.878 1.052a.5.5 0 0 1-.064.704.5.5 0 0 1-.704-.064l-.877-1.052-6.598-8.024a.5.5 0 0 1 .078-.703z"/></g><defs><linearGradient id="A" x1="191.5" y1="186.5" x2="116" y2="227.5" gradientUnits="userSpaceOnUse"><stop offset=".124" stop-color="#8fd7fe"/><stop offset=".529" stop-color="#4facdf"/></linearGradient><linearGradient id="B" x1="145.5" y1="23.5" x2="161" y2="528" gradientUnits="userSpaceOnUse"><stop offset=".275" stop-color="#4facdf" stop-opacity="0"/><stop offset=".511" stop-color="#4facdf" stop-opacity=".19"/></linearGradient><linearGradient id="C" x1="203" y1="94" x2="207.796" y2="55.916" gradientUnits="userSpaceOnUse"><stop stop-color="#8fd7fe"/><stop offset=".64" stop-color="#4facdf"/></linearGradient></defs></svg>