<svg width="24" height="24" viewBox="0 0 24 24" fill="none" xmlns="http://www.w3.org/2000/svg">
<path d="M10.0503 10.6068L2.97925 17.6779C2.1982 18.4589 2.1982 19.7253 2.97925 20.5063C3.76029 21.2874 5.02662 21.2874 5.80767 20.5063L12.8787 13.4353" stroke="#00ADE4" stroke-linecap="round" stroke-linejoin="round"/>
<path d="M17.1927 13.7993L21.071 17.6776C21.8521 18.4586 21.8521 19.725 21.071 20.506C20.29 21.2871 19.0236 21.2871 18.2426 20.506L12.0341 14.2976" stroke="#00ADE4" stroke-linecap="round" stroke-linejoin="round"/>
<path d="M6.73271 5.90377L4.61139 6.61088L2.49007 3.07535L3.90428 1.66113L7.43982 3.78245L6.73271 5.90377ZM6.73271 5.90377L9.56294 8.734" stroke="#00ADE4" stroke-linecap="round" stroke-linejoin="round"/>
<path d="M10.0503 10.6066C9.2065 8.45363 9.37147 5.62865 11.111 3.88914C12.8505 2.14962 16.0607 1.76782 17.8285 2.82848L14.7878 5.86915L14.5052 8.98019L17.6162 8.69758L20.6569 5.6569C21.7176 7.42467 21.3358 10.6349 19.5963 12.3744C17.8567 14.1139 15.0318 14.2789 12.8788 13.435" stroke="#00ADE4" stroke-linecap="round" stroke-linejoin="round"/>
</svg>
