<svg width="18" height="22" viewBox="0 0 18 22" fill="none" xmlns="http://www.w3.org/2000/svg">
<circle cx="9.00001" cy="8.93684" r="7.99037" stroke="#00ADE4" stroke-linecap="round" stroke-linejoin="round"/>
<path d="M3.00722 14.2638L0.610107 18.3921L4.0726 17.8594L5.27116 21.0556L7.66827 16.9272" stroke="#00ADE4" stroke-linecap="round" stroke-linejoin="round"/>
<path d="M14.9928 14.2638L17.3899 18.3921L13.9274 17.8594L12.7288 21.0556L10.3317 16.9272" stroke="#00ADE4" stroke-linecap="round" stroke-linejoin="round"/>
<path d="M8.69254 4.43134C8.88111 4.07981 9.38519 4.07981 9.57376 4.43134L10.7039 6.53805C10.776 6.67255 10.9056 6.76673 11.0558 6.79378L13.4087 7.21756C13.8013 7.28827 13.957 7.76768 13.681 8.05565L12.0266 9.78144C11.921 9.89162 11.8715 10.044 11.8921 10.1952L12.2162 12.5638C12.2702 12.9591 11.8624 13.2554 11.5033 13.0818L9.35069 12.0417C9.21326 11.9753 9.05304 11.9753 8.91562 12.0417L6.76305 13.0818C6.40387 13.2554 5.99606 12.9591 6.05013 12.5638L6.37416 10.1952C6.39484 10.044 6.34533 9.89162 6.23971 9.78144L4.58532 8.05565C4.30927 7.76768 4.46504 7.28827 4.85764 7.21756L7.21046 6.79378C7.36067 6.76673 7.4903 6.67255 7.56244 6.53805L8.69254 4.43134Z" stroke="#00ADE4" stroke-linecap="round" stroke-linejoin="round"/>
</svg>
