<svg width="230" height="144" viewBox="0 0 230 144" fill="none" xmlns="http://www.w3.org/2000/svg">
    <path opacity="0.3"
        d="M221.265 52.337C226.089 68.6818 182.424 95.8263 123.735 112.966C65.0464 130.106 13.5592 130.75 8.73497 114.405C3.91078 98.0604 47.5765 70.9159 106.265 53.7762C164.954 36.6365 216.441 35.9922 221.265 52.337Z"
        fill="url(#paint0_radial_575_90309)" />
    <path
        d="M117.225 18.9913L100.338 12.9567L94.928 12.9565C94.7097 22.524 96.1749 41.4308 103.782 40.5177C111.389 39.6047 115.914 34.8102 117.225 32.5271L117.225 18.9913Z"
        fill="#FFF9E7" />
    <path fill-rule="evenodd" clip-rule="evenodd"
        d="M94.6827 13.1984C94.8637 13.1984 95.0104 13.3444 95.0104 13.5246C95.0105 16.825 95.0082 19.2837 95.0063 21.372C95.0032 24.7357 95.0009 27.1386 95.0109 30.5502C95.0114 30.7303 94.8652 30.8768 94.6842 30.8773C94.5032 30.8778 94.3561 30.7322 94.3556 30.552C94.3456 27.1393 94.3478 24.7346 94.3509 21.3698C94.3529 19.2814 94.3551 16.8232 94.355 13.5246C94.355 13.3444 94.5017 13.1984 94.6827 13.1984Z"
        fill="#4F5162" />
    <path fill-rule="evenodd" clip-rule="evenodd"
        d="M94.2733 27.6231C94.4544 27.6231 94.6012 27.7691 94.6012 27.9493C94.6012 28.8134 94.8848 29.8933 95.4129 31.0685C95.9391 32.2394 96.6989 33.4849 97.6289 34.6749C99.4937 37.0614 102.012 39.1874 104.649 40.0617C104.82 40.1186 104.913 40.3034 104.856 40.4743C104.799 40.6452 104.613 40.7375 104.441 40.6805C101.64 39.7515 99.0226 37.5215 97.1111 35.0753C96.1529 33.849 95.3644 32.559 94.8142 31.3347C94.2661 30.1149 93.9454 28.94 93.9454 27.9493C93.9454 27.7691 94.0922 27.6231 94.2733 27.6231Z"
        fill="#4F5162" />
    <path fill-rule="evenodd" clip-rule="evenodd"
        d="M114.228 32.7136C114.364 32.8329 114.376 33.039 114.257 33.174C114.212 33.2238 114.167 33.2755 114.119 33.3289C113.19 34.3781 111.658 36.1066 109.617 37.5997C107.471 39.1698 104.74 40.4967 101.524 40.4966C101.343 40.4965 101.196 40.3505 101.196 40.1704C101.196 39.9902 101.343 39.8442 101.524 39.8442C104.552 39.8443 107.149 38.5952 109.228 37.0742C111.211 35.6237 112.702 33.9413 113.632 32.8922C113.678 32.8406 113.722 32.7905 113.765 32.7421C113.885 32.6071 114.092 32.5944 114.228 32.7136Z"
        fill="#4F5162" />
    <path fill-rule="evenodd" clip-rule="evenodd"
        d="M117.471 32.1126C117.607 32.2318 117.62 32.438 117.5 32.573C117.456 32.6228 117.41 32.6744 117.362 32.7278C116.433 33.777 114.901 35.5055 112.86 36.9987C110.714 38.5687 107.983 39.8956 104.767 39.8955C104.586 39.8955 104.439 39.7494 104.439 39.5693C104.439 39.3891 104.586 39.2431 104.767 39.2431C107.795 39.2432 110.392 37.9942 112.472 36.4731C114.454 35.0226 115.945 33.3402 116.875 32.2912C116.921 32.2395 116.965 32.1895 117.008 32.141C117.128 32.006 117.335 31.9933 117.471 32.1126Z"
        fill="#4F5162" />
    <path fill-rule="evenodd" clip-rule="evenodd"
        d="M94.3638 14.2835C94.4189 14.1119 94.6034 14.0172 94.7759 14.072C101.025 16.0579 108.692 18.5059 114.718 20.4851C114.89 20.5416 114.983 20.726 114.927 20.8971C114.87 21.0682 114.684 21.1611 114.512 21.1046C108.49 19.1265 100.826 16.6794 94.5764 14.6935C94.4039 14.6386 94.3087 14.4551 94.3638 14.2835Z"
        fill="#4F5162" />
    <path fill-rule="evenodd" clip-rule="evenodd"
        d="M99.1975 12.2798C99.2526 12.1082 99.4371 12.0135 99.6096 12.0683C103.197 13.2083 106.73 14.4191 110.227 15.617C112.816 16.5043 115.385 17.3846 117.941 18.2239C118.112 18.2803 118.206 18.4648 118.149 18.6359C118.092 18.8069 117.907 18.8998 117.735 18.8434C115.159 17.9973 112.586 17.1156 109.997 16.2284C106.512 15.0342 102.998 13.8301 99.4101 12.6898C99.2376 12.635 99.1424 12.4514 99.1975 12.2798Z"
        fill="#4F5162" />
    <path fill-rule="evenodd" clip-rule="evenodd"
        d="M113.656 18.6078C113.837 18.6078 113.984 18.7539 113.984 18.934C113.984 22.9689 113.984 26.4478 113.984 29.3412C113.984 31.1887 113.984 32.7975 113.984 34.16C113.984 34.3401 113.838 34.4861 113.657 34.4861C113.476 34.4861 113.329 34.3401 113.329 34.1599C113.329 32.797 113.329 31.1875 113.329 29.3392C113.329 26.4462 113.329 22.968 113.328 18.934C113.328 18.7539 113.475 18.6078 113.656 18.6078Z"
        fill="#4F5162" />
    <path fill-rule="evenodd" clip-rule="evenodd"
        d="M117.032 17.4057C117.213 17.4057 117.359 17.5517 117.359 17.7319C117.36 21.7663 117.36 25.2448 117.36 28.138C117.36 29.9859 117.36 31.5951 117.36 32.9578C117.36 33.138 117.213 33.284 117.032 33.284C116.851 33.284 116.705 33.1379 116.705 32.9578C116.705 31.5949 116.705 29.9854 116.704 28.1371C116.704 25.244 116.704 21.7658 116.704 17.7318C116.704 17.5517 116.851 17.4057 117.032 17.4057Z"
        fill="#4F5162" />
    <path fill-rule="evenodd" clip-rule="evenodd"
        d="M100.437 12.3692C100.467 12.5469 100.347 12.7149 100.168 12.7445C99.6346 12.8329 99.1106 13.0028 98.5673 13.1829C98.3274 13.2625 98.0881 13.3425 97.849 13.4225C96.5343 13.8622 95.2256 14.3 93.8494 14.6421C93.6737 14.6858 93.4957 14.5796 93.4518 14.4048C93.4078 14.2301 93.5146 14.053 93.6903 14.0093C95.0391 13.674 96.3197 13.2457 97.6348 12.8059C97.8751 12.7255 98.1166 12.6448 98.3599 12.5641C98.898 12.3857 99.4687 12.1991 100.06 12.1011C100.239 12.0715 100.408 12.1915 100.437 12.3692Z"
        fill="#4F5162" />
    <path fill-rule="evenodd" clip-rule="evenodd"
        d="M99.9156 14.6288C99.0522 14.9531 98.1567 15.2895 97.2507 15.4485C97.0724 15.4798 96.9023 15.3614 96.8708 15.184C96.8394 15.0066 96.9584 14.8374 97.1367 14.8061C97.9767 14.6587 98.8045 14.3482 99.6685 14.0241C99.838 13.9605 100.009 13.8964 100.181 13.8329C101.216 13.4524 102.304 13.0986 103.437 13.0986C103.618 13.0986 103.765 13.2446 103.765 13.4247C103.765 13.6049 103.618 13.7509 103.437 13.7509C102.432 13.7508 101.44 14.0654 100.409 14.4447C100.246 14.5047 100.081 14.5665 99.9156 14.6288Z"
        fill="#4F5162" />
    <path fill-rule="evenodd" clip-rule="evenodd"
        d="M106.38 14.3804C106.406 14.5587 106.281 14.7239 106.102 14.7494C105.06 14.8973 104.066 15.2549 103.042 15.6402C102.97 15.6671 102.898 15.6942 102.826 15.7214C101.879 16.0786 100.901 16.4475 99.8757 16.6493C99.698 16.6843 99.5255 16.5694 99.4903 16.3927C99.4552 16.216 99.5707 16.0444 99.7483 16.0094C100.718 15.8187 101.646 15.4686 102.604 15.1074C102.673 15.0817 102.741 15.0558 102.81 15.03C103.831 14.6461 104.887 14.263 106.009 14.1036C106.188 14.0781 106.354 14.2021 106.38 14.3804Z"
        fill="#4F5162" />
    <path fill-rule="evenodd" clip-rule="evenodd"
        d="M109.601 15.4749C109.631 15.6526 109.51 15.8206 109.332 15.8503C108.293 16.0225 107.281 16.3828 106.253 16.7857C106.042 16.8681 105.831 16.9526 105.618 17.0374C104.802 17.3633 103.97 17.6952 103.128 17.9444C102.954 17.9958 102.772 17.8974 102.72 17.7248C102.669 17.5521 102.767 17.3705 102.941 17.3192C103.751 17.0795 104.546 16.7622 105.359 16.4379C105.575 16.3516 105.793 16.2648 106.012 16.1788C107.046 15.7735 108.113 15.3911 109.224 15.2068C109.403 15.1772 109.572 15.2973 109.601 15.4749Z"
        fill="#4F5162" />
    <path fill-rule="evenodd" clip-rule="evenodd"
        d="M113.423 16.5513C113.467 16.726 113.36 16.9031 113.184 16.9468C112.17 17.1988 111.192 17.5711 110.197 17.9598C110.123 17.9886 110.049 18.0176 109.975 18.0465C109.057 18.4058 108.121 18.772 107.153 19.0472C106.979 19.0967 106.797 18.9964 106.747 18.8232C106.698 18.65 106.798 18.4695 106.973 18.42C107.909 18.1539 108.817 17.7989 109.741 17.4374C109.813 17.4091 109.885 17.3809 109.957 17.3526C110.951 16.9646 111.965 16.5775 113.025 16.314C113.201 16.2703 113.379 16.3765 113.423 16.5513Z"
        fill="#4F5162" />
    <path fill-rule="evenodd" clip-rule="evenodd"
        d="M117.144 17.636C117.197 17.8082 117.1 17.9907 116.927 18.0437C116.113 18.2928 115.322 18.5961 114.519 18.9039C114.361 18.9644 114.203 19.0251 114.043 19.0856C113.081 19.4517 112.097 19.8081 111.066 20.0523C110.89 20.094 110.713 19.9858 110.671 19.8106C110.629 19.6353 110.738 19.4595 110.914 19.4178C111.9 19.1842 112.85 18.8413 113.809 18.4763C113.965 18.4172 114.121 18.3574 114.277 18.2974C115.08 17.9895 115.896 17.6766 116.734 17.4202C116.907 17.3672 117.091 17.4639 117.144 17.636Z"
        fill="#4F5162" />
    <path fill-rule="evenodd" clip-rule="evenodd"
        d="M116.052 22.0441C115.978 22.0742 115.915 22.0996 115.881 22.112C115.702 22.177 115.521 22.245 115.338 22.3138C114.581 22.5986 113.785 22.8979 112.968 23.0604C112.79 23.0957 112.617 22.9812 112.582 22.8045C112.546 22.6279 112.661 22.4561 112.839 22.4208C113.598 22.2698 114.33 21.9949 115.083 21.7121C115.272 21.6411 115.462 21.5697 115.655 21.4996C115.679 21.4908 115.723 21.4732 115.784 21.4481C115.827 21.431 115.878 21.4103 115.938 21.3866C116.076 21.3314 116.246 21.2652 116.412 21.2075C116.574 21.1515 116.749 21.0972 116.891 21.0734C116.956 21.0625 117.052 21.0509 117.146 21.0696C117.195 21.0793 117.274 21.1031 117.344 21.1685C117.424 21.2434 117.461 21.3428 117.461 21.4386C117.461 21.6187 117.314 21.7647 117.133 21.7647C117.074 21.7647 117.018 21.7492 116.971 21.7222C116.887 21.7393 116.768 21.775 116.628 21.8234C116.476 21.8761 116.317 21.938 116.182 21.992C116.137 22.0099 116.093 22.0277 116.052 22.0441Z"
        fill="#4F5162" />
    <path fill-rule="evenodd" clip-rule="evenodd"
        d="M117.645 24.4405C117.702 24.6114 117.61 24.7961 117.438 24.8531C116.519 25.1578 115.612 25.4892 114.7 25.8228C114.308 25.9663 113.914 26.1102 113.518 26.2526C113.348 26.3138 113.16 26.2261 113.098 26.0567C113.037 25.8873 113.125 25.7003 113.295 25.6391C113.684 25.4995 114.073 25.3571 114.463 25.2144C115.38 24.8793 116.301 24.5422 117.23 24.2342C117.402 24.1773 117.588 24.2696 117.645 24.4405Z"
        fill="#4F5162" />
    <path fill-rule="evenodd" clip-rule="evenodd"
        d="M115.788 29.5023C115.711 29.5317 115.639 29.559 115.575 29.5817C114.784 29.8588 113.999 30.1805 113.249 30.5462C113.087 30.6255 112.89 30.5588 112.81 30.397C112.731 30.2353 112.798 30.0399 112.96 29.9606C113.735 29.5824 114.545 29.251 115.357 28.9665C115.392 28.9541 115.445 28.9337 115.511 28.9089C115.661 28.8517 115.872 28.7712 116.061 28.7122C116.204 28.6678 116.358 28.627 116.502 28.6076C116.63 28.5903 116.816 28.5796 116.977 28.6597C117.139 28.7402 117.205 28.9361 117.124 29.0972C117.045 29.2545 116.855 29.3205 116.696 29.2486C116.694 29.2492 116.665 29.2439 116.59 29.254C116.5 29.2662 116.385 29.2948 116.257 29.3347C116.084 29.3887 115.926 29.4491 115.788 29.5023Z"
        fill="#4F5162" />
    <path fill-rule="evenodd" clip-rule="evenodd"
        d="M118.246 31.7447C118.308 31.914 118.221 32.1011 118.05 32.1627C117.86 32.2316 117.671 32.2977 117.485 32.3631C117.02 32.526 116.567 32.6849 116.12 32.8741C115.986 32.9307 115.838 32.9993 115.681 33.0716C115.382 33.2097 115.054 33.3616 114.74 33.4697C114.241 33.6416 113.683 33.7438 113.11 33.5703C112.937 33.5179 112.839 33.3357 112.892 33.1633C112.944 32.991 113.128 32.8939 113.301 32.9463C113.684 33.0622 114.086 33.0047 114.526 32.8533C114.813 32.7542 115.079 32.6309 115.353 32.5034C115.518 32.4269 115.685 32.3489 115.863 32.2738C116.331 32.076 116.814 31.9066 117.286 31.7411C117.468 31.6772 117.649 31.6138 117.826 31.5497C117.996 31.4881 118.185 31.5754 118.246 31.7447Z"
        fill="#4F5162" />
    <path fill-rule="evenodd" clip-rule="evenodd"
        d="M111.906 36.6405C111.487 36.7286 111.06 36.8186 110.639 36.886C110.461 36.9147 110.292 36.7938 110.263 36.616C110.235 36.4382 110.356 36.2708 110.535 36.2421C110.941 36.1769 111.339 36.093 111.747 36.0072C111.97 35.9603 112.195 35.9127 112.427 35.8673C113.069 35.7412 113.733 35.6371 114.414 35.6371C114.595 35.6371 114.742 35.7831 114.742 35.9632C114.742 36.1434 114.595 36.2894 114.414 36.2894C113.797 36.2893 113.183 36.3838 112.554 36.5072C112.342 36.5488 112.125 36.5944 111.906 36.6405Z"
        fill="#4F5162" />
    <path
        d="M110.1 27.2788C110.109 30.4502 107.57 33.0284 104.427 33.0373C101.285 33.0462 98.7304 30.4824 98.7211 27.311C98.7118 24.1396 101.252 21.5614 104.394 21.5525C107.536 21.5436 110.091 24.1074 110.1 27.2788Z"
        fill="white" />
    <path fill-rule="evenodd" clip-rule="evenodd"
        d="M108.214 20.5691C108.311 20.7216 108.265 20.923 108.111 21.0189C104.478 23.2946 103.005 26.0373 102.419 28.0653C102.126 29.0824 102.054 29.9235 102.049 30.44C102.047 30.5956 102.051 30.7198 102.057 30.8093C102.058 30.811 102.058 30.8128 102.059 30.8146C102.068 30.839 102.073 30.8643 102.076 30.8901C102.08 30.9269 102.083 30.9588 102.084 30.985C102.085 30.9979 102.085 31.0121 102.085 31.0262L102.085 31.027C102.085 31.0352 102.085 31.0665 102.078 31.1018C102.075 31.1126 102.071 31.1333 102.061 31.1579C102.054 31.1753 102.03 31.2337 101.97 31.2852C101.94 31.3084 101.865 31.3462 101.82 31.3585C101.771 31.3645 101.679 31.356 101.638 31.3432C101.548 31.3091 101.502 31.2473 101.489 31.23C101.46 31.1894 101.446 31.1506 101.443 31.1426L101.443 31.1418C101.438 31.1275 101.435 31.1153 101.433 31.1078C101.426 31.0804 101.422 31.05 101.419 31.0256C101.416 31.0037 101.413 30.9776 101.41 30.9476C100.868 29.4754 100.049 28.415 99.055 27.4388C98.9261 27.3123 98.9248 27.1058 99.052 26.9775C99.1792 26.8493 99.3868 26.848 99.5157 26.9745C100.262 27.7072 100.928 28.5 101.46 29.475C101.517 29.0162 101.618 28.4779 101.789 27.8851C102.415 25.7168 103.98 22.8352 107.762 20.4669C107.915 20.3709 108.118 20.4167 108.214 20.5691Z"
        fill="#4F5162" />
    <path fill-rule="evenodd" clip-rule="evenodd"
        d="M100.716 21.9099C102.232 21.3005 104.198 21.3299 105.657 21.8951C106.574 22.2507 107.723 23.1779 108.448 24.4639C109.182 25.7639 109.492 27.4493 108.685 29.2926C107.957 30.9542 106.741 32.1869 105.266 32.781C103.786 33.3768 102.074 33.3185 100.389 32.4458C98.679 31.56 97.6008 30.0207 97.2616 28.0934C97.0841 27.0842 97.2098 25.894 97.7807 24.8236C97.6751 24.9085 97.5229 24.9221 97.4011 24.8467C97.2474 24.7514 97.2004 24.5502 97.2962 24.3973C98.0324 23.2222 99.4365 22.4244 100.716 21.9099ZM104.11 22.1755C104.111 22.1846 104.111 22.1938 104.111 22.2031C104.112 22.3832 103.966 22.5297 103.784 22.5302C101.243 22.5374 99.6912 23.3733 98.8187 24.4408C97.9391 25.517 97.7126 26.8725 97.9076 27.9809C98.214 29.7222 99.1752 31.0815 100.692 31.8672C102.217 32.6571 103.729 32.6961 105.02 32.1763C106.315 31.6548 107.415 30.5591 108.084 29.032C108.797 27.4042 108.525 25.934 107.876 24.7831C107.219 23.6183 106.184 22.7995 105.419 22.503L105.419 22.503C105.019 22.348 104.574 22.238 104.11 22.1755Z"
        fill="#4F5162" />
    <path
        d="M72.9243 72.4266L75.5426 71.2246C72.253 69.5551 72.3764 63.0569 76.751 61.2075C84.8072 57.8017 89.7081 62.276 90.648 65.615L86.2171 72.8273L84.8072 73.6287V75.6321C91.2522 64.0123 97.3165 59.4884 96.8915 61.2075C93.8705 73.4283 84.8665 77.6355 84.8072 78.6372C84.6461 81.3619 88.6339 89.1218 90.648 92.6612C87.694 93.5293 80.8597 95.3057 77.1539 95.466C72.5215 95.6663 62.8541 92.4609 62.8541 90.8581C62.8541 89.2554 68.292 77.0345 69.0977 76.0328C69.7422 75.2314 71.5145 73.9626 72.3201 73.4283C69.8361 70.49 64.6264 64.2527 63.6597 62.8102C62.6929 61.3677 62.7198 59.538 62.8541 58.8034L63.6597 58.603L67.6878 62.8102L72.9243 72.4266Z"
        fill="white" />
    <path
        d="M101.121 61.8082L100.718 61.6079C97.4286 59.9384 96.7854 51.3984 101.322 49.9881C102.612 49.5873 107.071 46.5793 113.205 52.5924C115.622 42.3749 118.464 45.0635 118.039 46.7826C115.018 59.0034 113.433 60.9711 114.212 61.608C125.491 70.8236 128.109 83.6456 128.713 85.4487C124.887 84.6473 114.817 75.0309 109.177 75.8322C104.587 76.4845 98.9056 84.4469 98.9056 82.8442C98.9056 81.2415 100.114 69.3017 100.114 68.0189C100.114 66.6165 99.3084 65.7483 100.114 65.2141C97.63 62.2757 89.1979 52.4322 88.2312 50.9897C87.2644 49.5473 87.4255 48.3852 89.641 49.5873H90.2451L100.517 63.0102L101.121 61.8082Z"
        fill="white" />
    <path
        d="M130.325 52.3923L134.824 51.591C131.534 49.9214 130.496 43.3283 134.824 41.3731C147.243 35.7628 155.299 50.588 141.402 53.3939C139.861 53.7051 145.765 72.6268 144.423 72.6268C141.469 73.4949 137.777 72.4264 136.165 71.4247C132.234 68.9803 119.182 57.846 120.657 57.2005C125.692 54.9967 127.908 53.995 130.325 52.3923Z"
        fill="white" />
    <path fill-rule="evenodd" clip-rule="evenodd"
        d="M81.7849 59.6227C84.7158 59.6069 87.7699 60.7138 89.6866 62.6442C90.8411 63.807 91.1715 65.2684 90.9693 66.7344C90.9447 66.9128 90.7793 67.0376 90.5999 67.0132C90.4205 66.9887 90.295 66.8241 90.3196 66.6457C90.4996 65.3407 90.2052 64.0949 89.22 63.1026C87.4472 61.3171 84.5732 60.26 81.7885 60.2751C80.0856 60.2843 78.4437 60.6929 77.1179 61.5586C77.0785 61.6065 77.0253 61.6434 76.9631 61.6629C76.3365 62.0973 75.7857 62.6383 75.3391 63.2924C75.3221 63.3687 75.3071 63.447 75.2941 63.5273C75.1378 64.4929 75.2816 65.6355 75.3998 66.574C75.403 66.5993 75.4061 66.6245 75.4093 66.6496C75.7004 68.9663 76.1924 70.5857 78.0067 71.8617C78.9006 72.4904 80.0568 73.035 81.2617 73.3363C82.4686 73.6381 83.699 73.6897 84.7542 73.3632C85.3677 73.1733 86.0065 72.835 86.627 72.3811C86.7729 72.2744 86.9782 72.3056 87.0855 72.4507C87.1927 72.5958 87.1614 72.8 87.0155 72.9067C86.3502 73.3934 85.6468 73.7702 84.949 73.9861C84.1963 74.219 83.3836 74.2793 82.5673 74.2138C82.6099 74.2896 82.6222 74.382 82.5938 74.4713C82.5393 74.6431 82.3551 74.7384 82.1824 74.6841C79.7118 73.9081 76.9284 72.6888 75.1847 70.8752C74.3074 69.9628 73.6823 68.8883 73.5061 67.6366C73.3297 66.3836 73.6083 64.9902 74.4715 63.4504C74.5532 63.3048 74.6389 63.1638 74.7286 63.0272C74.8341 62.615 75.0032 62.2254 75.267 61.8966C75.601 61.4803 76.0706 61.1822 76.6996 61.0511C78.162 60.0775 79.9639 59.6326 81.7849 59.6227ZM74.5737 64.7375C74.1483 65.7805 74.0383 66.7128 74.1556 67.5461C74.3083 68.6307 74.8514 69.5848 75.6587 70.4244C75.7713 70.5415 75.8889 70.6562 76.011 70.7685C75.2501 69.6278 74.9548 68.2918 74.7585 66.7305C74.7541 66.695 74.7495 66.6589 74.7449 66.6224C74.6754 66.0719 74.5918 65.4092 74.5737 64.7375Z"
        fill="#4F5162" />
    <path fill-rule="evenodd" clip-rule="evenodd"
        d="M76.4925 70.4346C76.5598 70.6019 76.478 70.7917 76.3099 70.8586C75.2051 71.2982 74.0942 71.9899 73.0091 72.8787C72.8693 72.9932 72.6627 72.9733 72.5476 72.8342C72.4325 72.6951 72.4525 72.4896 72.5923 72.3751C73.7158 71.4547 74.8843 70.7232 76.0663 70.2529C76.2344 70.186 76.4253 70.2674 76.4925 70.4346ZM72.1241 73.2054C72.2479 73.3369 72.241 73.5433 72.1088 73.6664C69.5146 76.0814 67.1674 79.5296 65.5273 83.105C63.8849 86.6856 62.9703 90.353 63.1974 93.2051C63.2117 93.3847 63.077 93.5418 62.8964 93.556C62.7159 93.5702 62.558 93.4362 62.5437 93.2566C62.3042 90.2494 63.2651 86.4652 64.9307 82.8342C66.5986 79.1981 68.9917 75.6747 71.6607 73.1901C71.7929 73.067 72.0004 73.0738 72.1241 73.2054Z"
        fill="#4F5162" />
    <path fill-rule="evenodd" clip-rule="evenodd"
        d="M61.3799 90.4668C61.4859 90.3207 61.6908 90.2878 61.8377 90.3933C63.639 91.6874 65.5755 92.9209 68.1269 93.8084C70.6781 94.6958 73.8605 95.2428 78.153 95.1399C79.1353 95.1163 81.2803 94.9187 83.7094 94.4086C86.1413 93.898 88.8287 93.0801 90.9142 91.8295C91.0693 91.7365 91.2708 91.7862 91.3643 91.9405C91.4578 92.0947 91.4078 92.2952 91.2527 92.3882C89.0761 93.6934 86.3066 94.53 83.8449 95.0469C81.3804 95.5644 79.1952 95.7674 78.1688 95.792C73.8103 95.8965 70.5477 95.3415 67.9104 94.4242C65.2732 93.5068 63.2776 92.2325 61.4537 90.9222C61.3069 90.8167 61.2738 90.6128 61.3799 90.4668Z"
        fill="#4F5162" />
    <path fill-rule="evenodd" clip-rule="evenodd"
        d="M84.5387 73.5974C84.7198 73.5974 84.8666 73.7434 84.8666 73.9236C84.8666 81.9535 87.3136 86.6995 91.1396 93.0637C91.2325 93.2183 91.1819 93.4186 91.0265 93.511C90.871 93.6035 90.6697 93.5531 90.5768 93.3985C86.7318 87.0028 84.2108 82.1323 84.2108 73.9236C84.2108 73.7434 84.3576 73.5974 84.5387 73.5974Z"
        fill="#4F5162" />
    <path fill-rule="evenodd" clip-rule="evenodd"
        d="M95.458 61.8934C91.4322 64.9329 89.1114 69.0166 86.6396 73.366C86.0712 74.3662 85.4949 75.3804 84.8879 76.3992C84.7956 76.5541 84.5945 76.6053 84.4387 76.5135C84.2829 76.4216 84.2314 76.2216 84.3238 76.0666C84.9148 75.0745 85.4806 74.078 86.0426 73.0882C88.5199 68.7253 90.922 64.4948 95.0727 61.3653C95.08 61.3598 95.0875 61.3546 95.0952 61.3497C95.1276 61.3293 95.1606 61.3084 95.1942 61.2872C95.396 61.1594 95.617 61.0195 95.8316 60.9027C96.0771 60.7692 96.3516 60.6446 96.6138 60.6104C96.7491 60.5928 96.8966 60.5971 97.0404 60.649C97.1888 60.7027 97.3133 60.8 97.407 60.9354C97.583 61.1898 97.6391 61.5611 97.622 62.0207C97.6213 62.0413 97.6185 62.0618 97.6139 62.0819C97.451 62.784 97.0371 63.6338 96.4984 64.5336C95.9561 65.4395 95.2725 66.4204 94.5496 67.3895C93.3233 69.0335 91.9724 70.6589 90.988 71.8432C90.8122 72.0548 90.6481 72.2522 90.4984 72.4332C89.5218 73.6146 88.6074 74.5347 87.7208 75.4267C87.6234 75.5247 87.5264 75.6224 87.4296 75.72C86.4512 76.7071 85.4981 77.6955 84.499 79.0206C84.3903 79.1647 84.1848 79.1939 84.0399 79.0858C83.8951 78.9777 83.8657 78.7733 83.9744 78.6292C85.0009 77.2676 85.9795 76.2539 86.9626 75.262C87.0596 75.1641 87.1566 75.0665 87.2537 74.9689C88.1413 74.0756 89.0353 73.176 89.9919 72.0189C90.1431 71.836 90.3083 71.6372 90.4849 71.4247C91.4698 70.2397 92.8079 68.6296 94.0229 67.0008C94.7391 66.0407 95.4084 65.0794 95.9349 64.1999C96.4562 63.3291 96.8232 62.5614 96.9677 61.9654C96.9793 61.5626 96.9172 61.3783 96.8667 61.3052C96.8465 61.276 96.8302 61.2671 96.8165 61.2622C96.7983 61.2556 96.7625 61.249 96.6989 61.2573C96.5633 61.2749 96.3777 61.3492 96.1462 61.4751C95.9524 61.5805 95.7524 61.7071 95.5494 61.8356C95.519 61.8548 95.4885 61.8741 95.458 61.8934Z"
        fill="#4F5162" />
    <path fill-rule="evenodd" clip-rule="evenodd"
        d="M63.1158 60.0846C63.158 60.4656 63.2379 60.851 63.3246 61.1481C63.7951 62.7603 65.052 64.4975 66.1154 65.8665C67.2896 67.3779 68.5539 68.8163 69.8259 70.2634C69.9405 70.3937 70.055 70.524 70.1696 70.6545C71.5542 72.2312 72.9377 73.8255 74.1951 75.5264C74.3023 75.6716 74.271 75.8757 74.1251 75.9824C73.9792 76.0891 73.774 76.058 73.6667 75.9129C72.4276 74.2365 71.0608 72.661 69.6757 71.0837C69.5607 70.9527 69.4456 70.8217 69.3304 70.6906C68.0607 69.2463 66.7834 67.7933 65.5965 66.2653C64.5411 64.9067 63.2049 63.0779 62.6948 61.33C62.5974 60.9963 62.5103 60.574 62.4639 60.1562C62.4182 59.7441 62.4088 59.3081 62.4846 58.9596C62.5224 58.7856 62.587 58.6066 62.7022 58.4632C62.826 58.3092 63.0033 58.2044 63.2256 58.1952C63.4318 58.1867 63.6389 58.262 63.839 58.381C64.042 58.5016 64.2638 58.6827 64.5079 58.9255C68.0375 62.4364 70.8761 67.6063 73.2223 72.6912C73.2979 72.8549 73.2257 73.0485 73.0611 73.1237C72.8965 73.1988 72.7018 73.127 72.6263 72.9633C70.2854 67.89 67.4864 62.8108 64.0442 59.3867C63.8218 59.1655 63.6427 59.0242 63.5026 58.9409C63.3597 58.856 63.2816 58.8458 63.2529 58.847L63.2526 58.847C63.2401 58.8475 63.2327 58.8479 63.2144 58.8706C63.1875 58.9041 63.1525 58.9738 63.1256 59.0975C63.072 59.344 63.0729 59.6979 63.1158 60.0846Z"
        fill="#4F5162" />
    <path fill-rule="evenodd" clip-rule="evenodd"
        d="M79.2789 66.1445C79.3599 65.9834 79.5568 65.9181 79.7188 65.9986C80.9528 66.6124 82.2475 67.143 83.57 67.685C83.6915 67.7348 83.8133 67.7847 83.9354 67.8348C84.2582 67.9673 84.5888 68.0941 84.9224 68.2221C85.7144 68.526 86.5237 68.8364 87.2885 69.246C87.4344 69.3242 87.5556 69.4 87.6444 69.4762C87.6889 69.5144 87.7358 69.5616 87.7731 69.6187C87.8104 69.676 87.8494 69.7611 87.8461 69.8664C87.8388 70.1027 87.6455 70.2083 87.5708 70.2417C87.4779 70.2832 87.369 70.3055 87.2728 70.3201C87.0751 70.3499 86.8176 70.3618 86.5755 70.3727L86.5514 70.3738C86.3078 70.3848 86.0738 70.3953 85.8806 70.4183C84.4409 70.5902 83.5133 70.4007 82.7395 69.8351C82.3636 69.5604 82.0385 69.2072 81.7134 68.7986C81.4853 68.5118 81.2485 68.1861 80.9917 67.8329C80.8854 67.6868 80.7757 67.5359 80.6618 67.3811C80.6082 67.3082 80.5894 67.2206 80.6024 67.138C80.2055 66.9591 79.8127 66.7746 79.4255 66.5821C79.2636 66.5015 79.1979 66.3056 79.2789 66.1445ZM81.6188 67.5821C81.8366 67.8814 82.034 68.1503 82.2277 68.3938C82.5377 68.7835 82.8206 69.0848 83.1278 69.3094C83.7201 69.7424 84.4589 69.931 85.8025 69.7706C86.0207 69.7446 86.2767 69.7331 86.5107 69.7226C86.5224 69.7221 86.5342 69.7216 86.5458 69.7211C86.6228 69.7176 86.6966 69.7142 86.7665 69.7104C86.1061 69.3756 85.429 69.116 84.7296 68.8478C84.387 68.7165 84.0391 68.5831 83.6852 68.4378C83.5625 68.3874 83.4397 68.3371 83.317 68.2868C82.7491 68.0541 82.1814 67.8215 81.6188 67.5821ZM87.306 69.6447C87.3061 69.6447 87.3051 69.6453 87.3026 69.6464C87.3048 69.6452 87.306 69.6447 87.306 69.6447Z"
        fill="#4F5162" />
    <path fill-rule="evenodd" clip-rule="evenodd"
        d="M105.484 48.9828C108.415 48.967 111.469 50.0739 113.386 52.0043C113.513 52.1325 113.512 52.339 113.383 52.4656C113.254 52.5922 113.046 52.5909 112.919 52.4627C111.146 50.6773 108.272 49.6201 105.488 49.6352C103.785 49.6444 102.143 50.053 100.817 50.9188C100.778 50.9666 100.724 51.0035 100.662 51.023C100.036 51.4574 99.4847 51.9984 99.0381 52.6525C99.0211 52.7288 99.0061 52.8071 98.9931 52.8874C98.8368 53.853 98.9806 54.9956 99.0988 55.9341C99.102 55.9595 99.1051 55.9846 99.1083 56.0097C99.3994 58.3264 99.8914 59.9458 101.706 61.2218C102.6 61.8505 103.756 62.3951 104.961 62.6964C106.168 62.9982 107.398 63.0499 108.453 62.7233C109.899 62.2758 111.465 61.0097 112.581 59.418C112.685 59.2702 112.889 59.234 113.038 59.337C113.186 59.4401 113.223 59.6434 113.119 59.7911C111.946 61.4635 110.272 62.8436 108.648 63.3462C107.895 63.5791 107.083 63.6395 106.266 63.5739C106.309 63.6497 106.321 63.7421 106.293 63.8314C106.238 64.0032 106.054 64.0985 105.881 64.0443C103.411 63.2682 100.627 62.0489 98.8837 60.2353C98.0064 59.3229 97.3814 58.2484 97.2051 56.9967C97.0287 55.7437 97.3073 54.3503 98.1705 52.8105C98.2522 52.665 98.3379 52.5239 98.4276 52.3873C98.5331 51.9751 98.7022 51.5855 98.966 51.2567C99.3 50.8404 99.7696 50.5423 100.399 50.4112C101.861 49.4376 103.663 48.9927 105.484 48.9828ZM98.2727 54.0976C97.8473 55.1406 97.7373 56.0729 97.8546 56.9062C98.0073 57.9908 98.5505 58.9449 99.3577 59.7845C99.4703 59.9016 99.5879 60.0163 99.71 60.1286C98.9491 58.9879 98.6538 57.6519 98.4576 56.0906C98.4531 56.0551 98.4485 56.019 98.4439 55.9825C98.3744 55.432 98.2908 54.7693 98.2727 54.0976Z"
        fill="#4F5162" />
    <path fill-rule="evenodd" clip-rule="evenodd"
        d="M101.047 61.2905C101.224 61.3319 101.333 61.5076 101.291 61.6829C100.466 65.1618 100.202 68.095 100.02 71.3179C99.9806 72.0134 99.945 72.7229 99.9083 73.4543C99.7751 76.1109 99.6273 79.0573 99.2315 82.6792C99.212 82.8582 99.0502 82.9876 98.8701 82.9682C98.6901 82.9487 98.56 82.7878 98.5796 82.6087C98.9731 79.0076 99.1197 76.0848 99.2529 73.4302C99.2897 72.6963 99.3255 71.9828 99.3652 71.2812C99.5484 68.043 99.8146 65.0662 100.653 61.5331C100.694 61.3577 100.871 61.2492 101.047 61.2905Z"
        fill="#4F5162" />
    <path fill-rule="evenodd" clip-rule="evenodd"
        d="M110.982 75.306L110.99 75.3059C111.538 75.3059 112.222 75.5143 112.971 75.8378C113.729 76.1651 114.592 76.6268 115.509 77.1676C117.343 78.249 119.429 79.6645 121.392 80.9989L121.452 81.0396C123.4 82.3636 125.218 83.5995 126.572 84.3661C127.261 84.7565 127.8 85.0072 128.161 85.0957C128.325 85.136 128.411 85.1319 128.446 85.1243C128.447 85.1204 128.448 85.1154 128.449 85.1093C128.471 84.9306 128.635 84.8038 128.815 84.8261C128.995 84.8485 129.122 85.0115 129.1 85.1902C129.085 85.3058 129.047 85.422 128.971 85.5232C128.894 85.6264 128.791 85.6955 128.678 85.7355C128.469 85.8101 128.227 85.7838 128.004 85.7291C127.547 85.617 126.94 85.3252 126.247 84.933C124.87 84.1531 123.034 82.9052 121.103 81.5928L121.022 81.5375C119.054 80.2 116.987 78.7974 115.175 77.7288C114.268 77.1945 113.433 76.7481 112.71 76.4362C111.981 76.1214 111.402 75.9593 110.994 75.9583C108.875 76.0095 107.343 76.4391 106.172 77.0516C105.001 77.6646 104.173 78.4711 103.476 79.3065C103.166 79.6781 102.884 80.0524 102.607 80.4207C102.571 80.4684 102.535 80.5159 102.499 80.5634C102.189 80.9741 101.881 81.3767 101.552 81.7376C100.889 82.4645 100.124 83.0444 99.0367 83.2263C98.8581 83.2562 98.6889 83.1364 98.6589 82.9588C98.6288 82.7811 98.7493 82.6129 98.9278 82.583C99.8164 82.4343 100.459 81.9657 101.066 81.2994C101.372 80.9636 101.664 80.5835 101.975 80.1719C102.01 80.1249 102.046 80.0776 102.082 80.0299C102.358 79.6628 102.65 79.2748 102.971 78.8898C103.701 78.0157 104.593 77.141 105.867 76.4743C107.141 75.8074 108.777 75.3589 110.982 75.306Z"
        fill="#4F5162" />
    <path fill-rule="evenodd" clip-rule="evenodd"
        d="M114.166 61.0615C114.284 60.9253 114.491 60.9104 114.628 61.0282C119.112 64.8856 122.725 69.6989 125.218 74.2008C127.705 78.6904 129.103 82.916 129.103 85.5984C129.103 85.7786 128.956 85.9246 128.775 85.9246C128.594 85.9246 128.447 85.7786 128.447 85.5984C128.447 83.0821 127.113 78.974 124.644 74.5156C122.181 70.0694 118.614 65.3203 114.199 61.5216C114.062 61.4038 114.047 61.1978 114.166 61.0615Z"
        fill="#4F5162" />
    <path fill-rule="evenodd" clip-rule="evenodd"
        d="M116.209 46.1534C116.126 46.293 116.045 46.43 115.969 46.5506C113.022 51.2174 113.104 57.1848 113.694 62.7267C113.91 61.8621 114.274 60.4416 114.695 58.806C115.646 55.1036 116.88 50.2992 117.307 48.3464C117.349 48.1548 117.402 47.9472 117.456 47.7375C117.473 47.6709 117.49 47.604 117.507 47.5374C117.578 47.2563 117.646 46.9711 117.694 46.6887C117.793 46.1149 117.8 45.6017 117.624 45.1978C117.457 44.8117 117.331 44.7823 117.318 44.7806C117.291 44.777 117.191 44.7929 117.001 44.9908C116.827 45.1716 116.648 45.4336 116.467 45.7239C116.381 45.8638 116.297 46.0055 116.215 46.1435L116.209 46.1534ZM113.719 62.9586C113.761 63.0398 113.836 63.1031 113.932 63.1268C114.108 63.1702 114.286 63.0636 114.329 62.8888C114.542 62.0353 114.905 60.6231 115.324 58.9926C116.276 55.2854 117.518 50.4495 117.948 48.4851C117.987 48.3058 118.036 48.1142 118.089 47.9075C118.107 47.8389 118.125 47.7686 118.143 47.6965C118.215 47.4119 118.288 47.1066 118.341 46.7983C118.445 46.1906 118.479 45.5213 118.226 44.9389C118.041 44.5131 117.784 44.1841 117.404 44.1339C117.037 44.0855 116.734 44.3243 116.526 44.5405C116.303 44.7738 116.093 45.0855 115.909 45.3813C115.819 45.5269 115.732 45.6736 115.651 45.8101L115.644 45.8221C115.56 45.9635 115.484 46.0922 115.414 46.2036C111.844 51.8572 112.565 59.2814 113.361 65.4723C113.384 65.651 113.548 65.7773 113.728 65.7545C113.907 65.7316 114.034 65.5682 114.011 65.3895C113.909 64.5929 113.809 63.7808 113.719 62.9586Z"
        fill="#4F5162" />
    <path fill-rule="evenodd" clip-rule="evenodd"
        d="M89.4104 50.3434C89.4527 50.7244 89.5325 51.1098 89.6192 51.4069C90.0898 53.0191 91.3467 54.7563 92.4101 56.1252C93.5843 57.6368 94.849 59.0756 96.1213 60.523C96.2002 60.6127 96.2792 60.7026 96.3581 60.7924C96.4773 60.9281 96.4634 61.1341 96.327 61.2527C96.1907 61.3712 95.9835 61.3574 95.8643 61.2217C95.7844 61.1307 95.7044 61.0397 95.6243 60.9486C94.355 59.5046 93.078 58.0519 91.8911 56.5241C90.8357 55.1655 89.4996 53.3367 88.9894 51.5887C88.8921 51.2551 88.8049 50.8328 88.7586 50.415C88.7129 50.0029 88.7035 49.5669 88.7793 49.2184C88.8171 49.0444 88.8816 48.8654 88.9969 48.722C89.1206 48.568 89.298 48.4632 89.5203 48.454C89.7264 48.4455 89.9336 48.5208 90.1337 48.6397C90.3366 48.7604 90.5585 48.9414 90.8026 49.1842C92.9024 51.2729 94.5182 53.5197 96.0471 55.8213C96.4601 56.443 96.8661 57.0676 97.2733 57.6941C98.3779 59.3937 99.4916 61.1071 100.779 62.8148C100.888 62.9589 100.858 63.1633 100.714 63.2714C100.569 63.3795 100.363 63.3503 100.254 63.2062C98.9521 61.4789 97.8201 59.7372 96.7116 58.0317C96.307 57.4091 95.9055 56.7914 95.5 56.1809C93.9789 53.8911 92.3917 51.6876 90.3389 49.6455C90.1165 49.4243 89.9374 49.283 89.7973 49.1997C89.6543 49.1148 89.5763 49.1046 89.5475 49.1058L89.5472 49.1058C89.5347 49.1063 89.5273 49.1066 89.5091 49.1294C89.4821 49.1629 89.4471 49.2326 89.4202 49.3562C89.3666 49.6028 89.3675 49.9567 89.4104 50.3434ZM96.9477 61.9621C97.0849 61.8445 97.292 61.8597 97.4102 61.9961C98.4732 63.2225 99.5187 64.4716 100.49 65.7852C100.597 65.9303 100.566 66.1345 100.42 66.2412C100.274 66.3479 100.069 66.3168 99.9614 66.1717C99.0052 64.8781 97.9724 63.6438 96.9135 62.4221C96.7953 62.2857 96.8106 62.0797 96.9477 61.9621Z"
        fill="#4F5162" />
    <path fill-rule="evenodd" clip-rule="evenodd"
        d="M104.495 57.6548C103.672 57.7039 102.908 57.7495 102.029 57.7495C101.847 57.7495 101.701 57.6035 101.701 57.4233C101.701 57.2432 101.847 57.0972 102.029 57.0972C102.887 57.0972 103.632 57.0527 104.457 57.0035C104.54 56.9986 104.623 56.9936 104.707 56.9886C105.634 56.9339 106.671 56.8789 108.06 56.8789C108.09 56.8789 108.12 56.8831 108.15 56.8915C108.35 56.9485 108.459 57.1049 108.503 57.2567C108.544 57.3967 108.536 57.5491 108.512 57.6867C108.462 57.9672 108.322 58.2988 108.117 58.6197C107.709 59.2592 106.985 59.9502 106.013 60.1259C104.545 60.3914 103.21 59.7229 102.279 58.6114C102.163 58.4731 102.182 58.2674 102.321 58.1521C102.46 58.0367 102.667 58.0554 102.783 58.1938C103.603 59.1733 104.717 59.6973 105.896 59.4841C106.627 59.352 107.215 58.8167 107.563 58.2701C107.737 57.9979 107.835 57.7465 107.866 57.5738C107.869 57.5586 107.871 57.5445 107.872 57.5316C106.596 57.5363 105.625 57.5879 104.746 57.6398C104.662 57.6448 104.578 57.6498 104.495 57.6548Z"
        fill="#4F5162" />
    <path fill-rule="evenodd" clip-rule="evenodd"
        d="M90.6844 48.7252C91.0497 48.9923 91.3286 49.3684 91.3618 49.8626C91.3757 50.0694 91.3679 50.2654 91.3412 50.4496C91.3951 50.8065 91.3839 51.1752 91.3497 51.5143C91.3181 51.8278 91.2233 52.1742 91.0128 52.4181C90.9028 52.5456 90.7566 52.6497 90.5721 52.6948C90.3881 52.7399 90.1955 52.719 90.0044 52.6468C89.7303 52.5434 89.4991 52.4235 89.3102 52.2829C88.6427 52.3025 87.9446 52.0243 87.4215 51.4253C87.2749 51.2574 87.1835 51.0284 87.1278 50.8035C87.0705 50.5723 87.0432 50.314 87.0455 50.061C87.0478 49.8084 87.0796 49.5495 87.1478 49.3187C87.2013 49.1379 87.2837 48.9525 87.4104 48.8042C87.3165 48.83 87.2395 48.8597 87.1816 48.8916C87.0232 48.979 86.8237 48.922 86.7359 48.7645C86.6481 48.6069 86.7053 48.4084 86.8637 48.3211C87.1507 48.1629 87.5657 48.085 87.9938 48.0648C88.4321 48.0441 88.9257 48.0819 89.3947 48.1856C89.8607 48.2886 90.3236 48.4615 90.6844 48.7252ZM88.7664 51.5597C88.463 51.4674 88.1669 51.2841 87.9166 50.9975C87.8671 50.9409 87.8086 50.8255 87.7645 50.6474C87.722 50.4757 87.6994 50.2724 87.7013 50.0668C87.7031 49.8607 87.7294 49.6637 87.777 49.5029C87.8263 49.336 87.8889 49.2403 87.9389 49.1975C87.9936 49.1505 88.1013 49.1061 88.2867 49.094C88.4671 49.0823 88.6845 49.1038 88.9161 49.1502C88.9812 49.1632 89.0462 49.178 89.1105 49.1941C89.0778 49.3049 89.0439 49.4161 89.0104 49.5262C88.9393 49.7597 88.8697 49.9884 88.8152 50.1999C88.733 50.5191 88.6735 50.8395 88.6899 51.1449C88.6975 51.2868 88.7215 51.4257 88.7664 51.5597ZM90.2479 52.0409C90.3348 52.0719 90.3869 52.0684 90.4154 52.0614C90.4446 52.0542 90.4778 52.0365 90.5151 51.9932C90.5564 51.9454 90.5948 51.8751 90.6262 51.7859C90.5099 51.885 90.383 51.9703 90.2479 52.0409ZM90.6764 50.4497C90.562 51.0259 90.1917 51.3905 89.7558 51.5448C89.6838 51.5704 89.6092 51.5904 89.5328 51.6047C89.5321 51.6039 89.5313 51.603 89.5306 51.6021C89.4113 51.4626 89.3553 51.3057 89.3448 51.1102C89.3338 50.9051 89.3733 50.6614 89.4505 50.3618C89.5016 50.1635 89.5641 49.9584 89.6324 49.7342C89.6652 49.6264 89.6994 49.5143 89.7342 49.3964C89.8705 49.4512 89.9863 49.5059 90.0698 49.5533C90.4133 49.7481 90.5979 50.0577 90.6764 50.4497Z"
        fill="#4F5162" />
    <path fill-rule="evenodd" clip-rule="evenodd"
        d="M119.237 43.9646C120.207 44.2393 121.202 44.9935 121.202 46.0856C121.202 46.1296 121.202 46.1765 121.202 46.2259C121.204 46.5154 121.206 46.8896 121.159 47.2502C121.106 47.666 120.982 48.1359 120.654 48.4615C120.471 48.6433 120.228 48.6667 120.043 48.6521C119.852 48.637 119.654 48.5769 119.48 48.5108C119.235 48.4178 118.969 48.282 118.813 48.2013C118.159 48.1222 117.515 47.8569 117.036 47.4494C116.686 47.1508 116.412 46.7652 116.301 46.3066C116.188 45.8438 116.249 45.3363 116.52 44.8139C117.036 43.8157 118.27 43.6904 119.237 43.9646ZM120.187 47.9985C120.19 47.9976 120.193 47.9967 120.195 47.996C120.197 47.9932 120.2 47.9904 120.203 47.9876C120.197 47.9913 120.192 47.9949 120.187 47.9985ZM120.007 45.0784C119.755 44.8665 119.427 44.6967 119.058 44.592C118.338 44.388 117.662 44.4863 117.286 44.8622C117.451 44.8737 117.585 45.008 117.59 45.1765C117.614 45.8812 117.671 46.3196 117.849 46.657C118.019 46.9782 118.326 47.2517 118.968 47.5484C118.979 47.5536 118.991 47.5591 119.003 47.565C119.199 47.5808 119.395 47.5755 119.583 47.5468C119.815 47.5112 119.995 47.3524 120.127 47.0866C120.26 46.818 120.32 46.4806 120.32 46.1978C120.32 45.9721 120.304 45.8491 120.283 45.782C120.278 45.7656 120.273 45.7559 120.27 45.751C120.251 45.7435 120.199 45.7319 120.065 45.7307C119.998 45.7302 119.922 45.7319 119.829 45.7339L119.828 45.7339C119.737 45.736 119.634 45.7382 119.52 45.7382C119.338 45.7382 119.192 45.5922 119.192 45.4121C119.192 45.2319 119.338 45.0859 119.52 45.0859C119.626 45.0859 119.722 45.0838 119.814 45.0818L119.821 45.0816C119.885 45.0802 119.948 45.0788 120.007 45.0784ZM116.948 45.5099C116.969 45.888 117.009 46.2282 117.099 46.5355C117.024 46.4144 116.97 46.2866 116.938 46.1538C116.892 45.9619 116.888 45.747 116.948 45.5099ZM120.197 47.9949C120.197 47.9949 120.197 47.995 120.197 47.9952C120.197 47.995 120.197 47.9949 120.197 47.9949Z"
        fill="#4F5162" />
    <path fill-rule="evenodd" clip-rule="evenodd"
        d="M135.117 40.3942C136.216 39.7507 137.486 39.3978 138.885 39.4251C139.039 39.4281 139.166 39.5366 139.198 39.68C140.378 39.6397 141.565 39.7543 142.737 40.0659C143.885 40.3711 145.205 40.9116 146.32 41.7008C147.433 42.4888 148.37 43.5459 148.689 44.8898C149.246 47.2347 148.039 49.9383 146.503 51.5733C144.631 53.5668 142.352 53.7613 139.848 53.4073C137.011 53.0061 134.439 51.3636 132.758 49.0866C132.182 48.305 131.712 47.5212 131.521 46.6723C131.326 45.8103 131.424 44.9092 131.927 43.9083C132.171 43.4234 132.45 42.967 132.761 42.5447C131.379 44.1179 131.155 45.9159 131.646 47.5406C132.258 49.5673 133.992 51.3478 136.074 52.0852C136.245 52.1456 136.334 52.3322 136.273 52.5019C136.212 52.6716 136.025 52.7601 135.854 52.6997C133.585 51.8959 131.693 49.9625 131.018 47.7284C130.334 45.4671 130.906 42.9213 133.516 40.9745C133.539 40.9573 133.564 40.9432 133.591 40.9326C134.091 40.7336 134.6 40.5528 135.117 40.3942ZM135.386 40.9946C134.185 41.7153 133.204 42.8254 132.514 44.2001C132.072 45.0786 132.002 45.8268 132.161 46.5295C132.322 47.2453 132.727 47.9415 133.287 48.7005C134.872 50.8485 137.292 52.3871 139.94 52.7614C142.356 53.1029 144.366 52.893 146.024 51.128C147.472 49.5863 148.539 47.0972 148.051 45.0396C147.782 43.9049 146.979 42.9677 145.94 42.2323C144.903 41.4981 143.658 40.9861 142.568 40.6961C140.196 40.0655 137.732 40.2861 135.386 40.9946Z"
        fill="#4F5162" />
    <path fill-rule="evenodd" clip-rule="evenodd"
        d="M135.368 51.4194C135.372 51.5995 135.228 51.7484 135.047 51.7519C134.451 51.7635 133.414 52.0131 132.119 52.436C130.838 52.8547 129.342 53.4306 127.845 54.0695C125.032 55.2703 122.265 56.674 120.921 57.6565C125.646 63.4985 131.079 69.0511 137.872 71.7779C138.747 72.1293 139.661 72.4606 140.522 72.6764C141.388 72.8934 142.171 72.9856 142.795 72.8837C143.402 72.7845 143.84 72.5072 144.087 71.9778C144.347 71.4228 144.421 70.5396 144.148 69.1821C142.647 61.7143 142.082 59.1987 141.743 57.7963C141.669 57.4908 141.605 57.2373 141.545 56.9965C141.328 56.1292 141.152 55.4273 140.678 53.057C140.642 52.8803 140.758 52.7086 140.935 52.6734C141.113 52.6382 141.285 52.753 141.321 52.9296C141.792 55.2849 141.965 55.9756 142.182 56.8397C142.242 57.0808 142.306 57.3355 142.38 57.6435C142.723 59.0593 143.29 61.5857 144.792 69.0542C145.075 70.4646 145.028 71.5124 144.682 72.2528C144.324 73.0188 143.673 73.4012 142.901 73.5274C142.146 73.6508 141.26 73.534 140.362 73.3089C139.458 73.0825 138.512 72.7385 137.626 72.3828C130.568 69.5493 124.987 63.7572 120.2 57.8049C120.087 57.665 120.109 57.461 120.249 57.348C121.547 56.2991 124.582 54.7526 127.586 53.4701C129.096 52.8258 130.611 52.2424 131.915 51.8162C133.206 51.3943 134.328 51.1134 135.034 51.0997C135.215 51.0961 135.365 51.2393 135.368 51.4194Z"
        fill="#4F5162" />
    <path fill-rule="evenodd" clip-rule="evenodd"
        d="M127.86 33.3728C128.001 33.4853 128.024 33.6905 127.911 33.8312C126.077 36.112 124.847 39.7408 124.812 42.7799C124.764 46.8652 126.558 50.6138 130.455 52.2936C130.621 52.3652 130.698 52.5573 130.626 52.7225C130.554 52.8878 130.36 52.9638 130.194 52.8921C125.994 51.0816 124.106 47.0473 124.156 42.7723C124.193 39.6002 125.466 35.8274 127.399 33.4237C127.512 33.283 127.719 33.2602 127.86 33.3728Z"
        fill="#4F5162" />
    <path fill-rule="evenodd" clip-rule="evenodd"
        d="M139.586 56.5858C139.651 56.4174 139.84 56.3328 140.009 56.3969C145.383 58.4296 150.855 60.2991 156.342 62.0234C156.204 61.9321 156.065 61.8315 155.935 61.7249C155.7 61.5329 155.461 61.2931 155.343 61.0282C155.282 60.89 155.245 60.7262 155.28 60.5527C155.315 60.375 155.416 60.2265 155.559 60.11C155.73 59.9714 155.95 59.9295 156.134 59.9179C156.327 59.9057 156.537 59.924 156.732 59.9525C157.039 59.9973 157.354 60.0747 157.557 60.1246C157.61 60.1376 157.655 60.1487 157.69 60.157C158.672 60.3837 159.656 60.8114 160.547 61.1989C160.59 61.2176 160.633 61.2362 160.675 61.2547C160.773 61.2971 160.882 61.3427 160.999 61.3914C161.324 61.5269 161.707 61.6866 162.064 61.8718C162.547 62.1225 163.046 62.4505 163.339 62.8971C163.438 63.0472 163.502 63.2233 163.468 63.4093C163.433 63.5999 163.31 63.7261 163.193 63.8017C162.977 63.9412 162.684 63.9751 162.494 63.9751C160.737 63.9751 158.914 63.5074 157.299 63.0062C151.416 61.1795 145.54 59.1871 139.776 57.0066C139.607 56.9426 139.522 56.7542 139.586 56.5858ZM158.585 62.7036C158.73 62.7435 158.876 62.7822 159.023 62.8197C158.979 62.7937 158.94 62.7573 158.912 62.7117C158.908 62.7095 158.903 62.7067 158.897 62.7034C158.86 62.6842 158.801 62.6626 158.715 62.6385C158.712 62.6374 158.708 62.6364 158.704 62.6354C158.681 62.6521 158.657 62.6676 158.63 62.6816C158.615 62.6896 158.6 62.6969 158.585 62.7036ZM158.95 62.0272C158.936 61.8938 158.88 61.7544 158.825 61.6441C158.755 61.5044 158.657 61.3546 158.542 61.2304C158.436 61.1161 158.274 60.977 158.068 60.9423C157.955 60.9231 157.832 60.9369 157.717 60.999C157.606 61.0588 157.525 61.1509 157.465 61.251C157.381 61.394 157.324 61.5449 157.319 61.7007C157.317 61.7476 157.321 61.7928 157.328 61.8362C157.249 61.7987 157.141 61.7436 157.016 61.672C156.801 61.5488 156.558 61.3908 156.352 61.2215C156.137 61.0454 155.997 60.8853 155.943 60.7645C155.919 60.7099 155.922 60.6844 155.923 60.6781L155.923 60.6779C155.924 60.6748 155.928 60.6529 155.975 60.6149C155.985 60.6063 156.038 60.5776 156.176 60.5689C156.304 60.5608 156.463 60.5725 156.637 60.5979C156.909 60.6375 157.177 60.7033 157.38 60.7534C157.44 60.7681 157.495 60.7815 157.542 60.7924C158.463 61.0052 159.397 61.4107 160.303 61.8049C160.34 61.8208 160.376 61.8366 160.413 61.8525C160.527 61.902 160.647 61.952 160.77 62.0035C161.088 62.1361 161.43 62.2787 161.76 62.4501C162.221 62.6891 162.593 62.9532 162.79 63.2534C162.794 63.2602 162.798 63.2664 162.801 63.272C162.777 63.2823 162.743 63.2932 162.699 63.3023C162.632 63.3163 162.559 63.3228 162.494 63.3228C161.414 63.3228 160.296 63.1343 159.203 62.8649C159.248 62.8631 159.294 62.852 159.337 62.8306C159.499 62.7501 159.564 62.5542 159.483 62.393C159.413 62.2538 159.292 62.1728 159.2 62.1249C159.121 62.0841 159.034 62.0527 158.95 62.0272ZM162.821 63.316C162.821 63.316 162.821 63.3156 162.821 63.3148C162.821 63.3156 162.821 63.316 162.821 63.316ZM158.175 61.8238C158.052 61.7803 157.994 61.7425 157.974 61.7193C157.975 61.7087 157.98 61.6779 158.008 61.6222C158.023 61.6345 158.04 61.6507 158.059 61.672C158.1 61.7156 158.139 61.7682 158.175 61.8238ZM158.921 62.7176C158.92 62.7176 158.92 62.7174 158.92 62.7168C158.92 62.7174 158.921 62.7176 158.921 62.7176Z"
        fill="#4F5162" />
    <path fill-rule="evenodd" clip-rule="evenodd"
        d="M128.636 34.0985C128.497 34.1221 128.367 34.1476 128.255 34.1718C128.016 34.357 127.796 34.5708 127.601 34.807C127.626 34.8047 127.651 34.8025 127.674 34.8003C127.694 34.7986 127.713 34.7969 127.732 34.7951C127.831 34.7859 127.921 34.7759 128.004 34.7598C128.182 34.7252 128.249 34.6762 128.275 34.6358C128.378 34.4761 128.477 34.3321 128.573 34.1919C128.594 34.1607 128.615 34.1296 128.636 34.0985ZM127.974 33.5664C127.903 33.5831 127.842 33.5988 127.793 33.6123C127.341 33.7366 127.014 34.113 126.778 34.4529C126.656 34.6298 126.546 34.8151 126.449 34.9825C126.431 35.013 126.414 35.0426 126.397 35.0714C126.319 35.2057 126.252 35.3223 126.188 35.4205C126.089 35.5717 126.133 35.7737 126.285 35.8717C126.346 35.9108 126.414 35.9275 126.482 35.9236C126.485 36.0211 126.501 36.1199 126.535 36.2147C126.616 36.4423 126.794 36.6198 127.067 36.6877C127.49 36.7929 127.893 36.6941 128.234 36.5574C128.453 36.4699 128.684 36.3487 128.884 36.2438C128.98 36.1934 129.069 36.1467 129.146 36.1094C129.366 36.0025 129.873 35.661 130.275 35.2686C130.476 35.0723 130.673 34.8421 130.789 34.6022C130.905 34.3627 130.971 34.0426 130.77 33.7538C130.602 33.5111 130.305 33.421 130.061 33.3827C129.951 33.3654 129.834 33.3561 129.713 33.3528C129.713 33.3451 129.712 33.3374 129.711 33.3297C129.699 33.2514 129.664 33.1585 129.583 33.083C129.504 33.0085 129.409 32.979 129.331 32.9703C129.19 32.9546 129.041 32.9985 128.912 33.0501C128.578 33.1829 128.264 33.3577 127.974 33.5664ZM129.48 34.0061C129.66 33.9999 129.824 34.0059 129.959 34.0271C130.165 34.0594 130.223 34.1139 130.231 34.1244C130.239 34.1356 130.267 34.1779 130.198 34.3187C130.13 34.4592 129.995 34.6274 129.815 34.8032C129.456 35.1548 129.005 35.4519 128.858 35.5231C128.742 35.5796 128.634 35.6364 128.529 35.6917C128.351 35.7859 128.18 35.8758 127.989 35.9523C127.704 36.0668 127.455 36.1117 127.226 36.0548C127.173 36.0416 127.163 36.0244 127.153 35.9962C127.135 35.9455 127.128 35.8524 127.153 35.7144C127.173 35.6032 127.209 35.4882 127.25 35.3831C127.321 35.4508 127.421 35.4867 127.525 35.4719C127.584 35.4636 127.647 35.4578 127.724 35.4509C127.746 35.449 127.768 35.4469 127.793 35.4447C127.895 35.4352 128.013 35.4228 128.13 35.4C128.352 35.3567 128.65 35.2617 128.827 34.9886C128.908 34.8629 129.001 34.7265 129.096 34.5861C129.227 34.3945 129.363 34.1954 129.48 34.0061Z"
        fill="#4F5162" />
    <path fill-rule="evenodd" clip-rule="evenodd"
        d="M138.847 46.2828C138.96 46.1422 139.166 46.1194 139.308 46.2319C141.522 47.9944 143.501 48.6911 145.014 48.8626C145.771 48.9484 146.412 48.9026 146.908 48.7935C147.411 48.6828 147.744 48.5122 147.908 48.3686C148.044 48.2494 148.251 48.2623 148.371 48.3973C148.491 48.5324 148.478 48.7385 148.342 48.8577C148.065 49.1004 147.615 49.3062 147.049 49.4305C146.477 49.5563 145.763 49.6041 144.939 49.5107C143.289 49.3237 141.197 48.5709 138.898 46.7413C138.756 46.6288 138.734 46.4235 138.847 46.2828Z"
        fill="#4F5162" />
    <path d="M74.7371 44.1773L62.4514 40.1704V23.1414L74.3343 27.1482L74.7371 44.1773Z" fill="white" />
    <path fill-rule="evenodd" clip-rule="evenodd"
        d="M61.3353 23.0363C61.3935 22.8657 61.5797 22.7744 61.7512 22.8324C62.0633 22.9378 62.3671 23.0405 62.6636 23.1407C67.4382 24.7545 70.321 25.7289 75.4345 27.236C75.6081 27.2872 75.7071 27.4687 75.6557 27.6414C75.6043 27.8141 75.4218 27.9126 75.2482 27.8615C70.1221 26.3507 67.2286 25.3726 62.454 23.7588C62.1571 23.6585 61.8528 23.5556 61.5403 23.4501C61.3688 23.3921 61.277 23.2069 61.3353 23.0363ZM61.3353 39.8651C61.3935 39.6945 61.5797 39.6032 61.7512 39.6611C64.2466 40.5041 66.1602 41.1239 68.0287 41.7292C70.135 42.4114 72.1839 43.075 74.9444 44.0189C75.1156 44.0775 75.2068 44.2631 75.1479 44.4334C75.089 44.6038 74.9025 44.6944 74.7312 44.6358C71.9566 43.6871 69.9274 43.03 67.8364 42.353C65.976 41.7505 64.0668 41.1323 61.5403 40.2788C61.3688 40.2209 61.277 40.0356 61.3353 39.8651Z"
        fill="#4F5162" />
    <path fill-rule="evenodd" clip-rule="evenodd"
        d="M63.7529 27.041C63.8123 26.8709 63.9991 26.7808 64.1702 26.8399C64.3629 26.9065 64.5504 26.9713 64.7335 27.0346C67.6824 28.0538 69.4609 28.6685 72.6167 29.6196C72.79 29.6718 72.8879 29.8539 72.8354 30.0263C72.7829 30.1987 72.5999 30.2961 72.4265 30.2439C69.2579 29.2889 67.4687 28.6705 64.5196 27.6513C64.3361 27.5878 64.1481 27.5229 63.955 27.4562C63.784 27.3971 63.6934 27.2112 63.7529 27.041ZM64.0638 29.8247C64.1233 29.6546 64.3101 29.5645 64.4812 29.6236C66.132 30.1939 67.1627 30.5689 68.1836 30.9422C68.248 30.9657 68.3123 30.9892 68.3767 31.0128C69.3334 31.3627 70.3148 31.7216 71.8247 32.2496C71.9956 32.3093 72.0854 32.4955 72.0253 32.6654C71.9653 32.8354 71.7781 32.9247 71.6073 32.865C70.0929 32.3355 69.1078 31.9752 68.1506 31.6251C68.0861 31.6015 68.0218 31.578 67.9574 31.5544C66.9382 31.1818 65.9117 30.8084 64.266 30.2399C64.095 30.1808 64.0044 29.9949 64.0638 29.8247Z"
        fill="#4F5162" />
    <path fill-rule="evenodd" clip-rule="evenodd"
        d="M63.9545 32.6499C64.0143 32.4799 64.2014 32.3903 64.3723 32.4498C64.5099 32.4977 64.6438 32.5443 64.7745 32.5898C66.8809 33.3233 68.1496 33.7652 70.4019 34.4491C70.5751 34.5017 70.6727 34.684 70.6198 34.8563C70.5669 35.0286 70.3836 35.1256 70.2104 35.073C67.9453 34.3852 66.6656 33.9396 64.5592 33.206C64.4281 33.1603 64.2937 33.1136 64.1557 33.0655C63.9848 33.006 63.8947 32.82 63.9545 32.6499Z"
        fill="#4F5162" />
    <path fill-rule="evenodd" clip-rule="evenodd"
        d="M62.25 22.0137C62.4311 22.0137 62.5779 22.1597 62.5779 22.3398V40.571C62.5779 40.7511 62.4311 40.8972 62.25 40.8972C62.0689 40.8972 61.9221 40.7511 61.9221 40.571V22.3398C61.9221 22.1597 62.0689 22.0137 62.25 22.0137ZM74.3343 25.6198C74.5154 25.6198 74.6622 25.7659 74.6622 25.946V44.1771C74.6622 44.3573 74.5154 44.5033 74.3343 44.5033C74.1532 44.5033 74.0064 44.3573 74.0064 44.1771V25.946C74.0064 25.7659 74.1532 25.6198 74.3343 25.6198Z"
        fill="#4F5162" />
    <path
        d="M77.6786 43.3032C77.6879 46.4746 75.148 49.0528 72.0058 49.0617C68.8635 49.0707 66.3087 46.507 66.2995 43.3356C66.2903 40.1642 68.8301 37.586 71.9724 37.5771C75.1147 37.5681 77.6694 40.1318 77.6786 43.3032Z"
        fill="white" />
    <path fill-rule="evenodd" clip-rule="evenodd"
        d="M77.0012 35.7924C77.0977 35.9448 77.0517 36.1462 76.8984 36.2422C73.2646 38.5179 71.7919 41.2606 71.2064 43.2885C70.9127 44.3056 70.8413 45.1467 70.8357 45.6632C70.834 45.8188 70.8383 45.9431 70.8439 46.0325C70.8446 46.0343 70.8452 46.036 70.8458 46.0378C70.8546 46.0622 70.8603 46.0875 70.863 46.1133C70.8669 46.1501 70.8695 46.182 70.8709 46.2082C70.8715 46.2211 70.872 46.2353 70.8719 46.2494L70.8719 46.2502C70.8719 46.2584 70.8718 46.2897 70.8645 46.325C70.8623 46.3358 70.8576 46.3565 70.8478 46.3811C70.8408 46.3985 70.8168 46.4569 70.757 46.5084C70.7267 46.5316 70.6515 46.5694 70.6068 46.5817C70.5582 46.5877 70.4662 46.5792 70.4244 46.5664C70.3352 46.5323 70.2888 46.4705 70.2762 46.4533C70.2465 46.4126 70.2331 46.3738 70.2303 46.3658L70.2301 46.365C70.2251 46.3508 70.2219 46.3385 70.22 46.331C70.2132 46.3036 70.2087 46.2732 70.2055 46.2488C70.2026 46.2269 70.1997 46.2008 70.1969 46.1708C69.6546 44.6987 68.8363 43.6383 67.8419 42.6621C67.713 42.5356 67.7116 42.3291 67.8388 42.2008C67.966 42.0726 68.1736 42.0713 68.3025 42.1978C69.0489 42.9305 69.7146 43.7232 70.2472 44.6982C70.3042 44.2394 70.4049 43.7011 70.5761 43.1084C71.2021 40.94 72.7671 38.0585 76.549 35.6901C76.7023 35.5941 76.9047 35.6399 77.0012 35.7924Z"
        fill="#4F5162" />
    <path fill-rule="evenodd" clip-rule="evenodd"
        d="M69.503 37.1333C71.019 36.5238 72.9846 36.5532 74.4435 37.1183C75.3614 37.4739 76.5097 38.4011 77.2352 39.6871C77.9686 40.9871 78.2792 42.6724 77.4719 44.5157C76.7441 46.1773 75.5277 47.41 74.0525 48.0041C72.5731 48.5999 70.8611 48.5417 69.1762 47.669C67.4658 46.7832 66.3875 45.244 66.0484 43.3166C65.8709 42.3075 65.9966 41.1173 66.5676 40.0469C66.4619 40.1318 66.3097 40.1455 66.1879 40.07C66.0342 39.9747 65.9873 39.7735 66.0831 39.6206C66.8193 38.4456 68.2234 37.6477 69.503 37.1333ZM72.8971 37.3988C72.8979 37.4079 72.8983 37.4171 72.8984 37.4263C72.8989 37.6065 72.7525 37.7529 72.5714 37.7535C70.0296 37.7607 68.4781 38.5966 67.6055 39.6641C66.7259 40.7403 66.4994 42.0958 66.6944 43.2042C67.0008 44.9455 67.962 46.3047 69.479 47.0904C71.0042 47.8803 72.5157 47.9192 73.8064 47.3994C75.1014 46.8779 76.2018 45.7822 76.8706 44.2551C77.5836 42.6274 77.3125 41.1571 76.6633 40.0063C76.0061 38.8415 74.9709 38.0227 74.2056 37.7262L74.2056 37.7262C73.8056 37.5713 73.3607 37.4613 72.8971 37.3988Z"
        fill="#4F5162" />
    <defs>
        <radialGradient id="paint0_radial_575_90309" cx="0" cy="0" r="1" gradientUnits="userSpaceOnUse"
            gradientTransform="translate(115 83.3711) rotate(73.556) scale(30.8571 110.704)">
            <stop stop-color="#115DA4" />
            <stop offset="1" stop-color="white" stop-opacity="0" />
        </radialGradient>
    </defs>
</svg>