<svg width="49" height="49" viewBox="0 0 49 49" fill="none" xmlns="http://www.w3.org/2000/svg">
<g clip-path="url(#clip0_262_40368)">
<path d="M13.9263 20.8933C13.9263 21.4887 13.9908 21.9715 14.1036 22.3255C14.2326 22.6795 14.3938 23.0657 14.6194 23.4841C14.7 23.6128 14.7322 23.7416 14.7322 23.8542C14.7322 24.0151 14.6355 24.1761 14.426 24.337L13.4105 25.0128C13.2655 25.1094 13.1204 25.1577 12.9915 25.1577C12.8303 25.1577 12.6691 25.0772 12.5079 24.9324C12.2822 24.691 12.0888 24.4335 11.9276 24.1761C11.7665 23.9025 11.6053 23.5967 11.428 23.2266C10.1707 24.7071 8.59113 25.4473 6.68915 25.4473C5.33521 25.4473 4.25527 25.0611 3.46547 24.2887C2.67567 23.5163 2.27271 22.4864 2.27271 21.199C2.27271 19.8312 2.75626 18.7209 3.73948 17.8841C4.72271 17.0473 6.0283 16.6289 7.68849 16.6289C8.23652 16.6289 8.80067 16.6772 9.39705 16.7577C9.99343 16.8381 10.6059 16.9669 11.2507 17.1117V15.937C11.2507 14.714 10.9928 13.8611 10.4931 13.3623C9.97731 12.8634 9.10692 12.622 7.8658 12.622C7.30165 12.622 6.72139 12.6864 6.12501 12.8312C5.52863 12.9761 4.94836 13.1531 4.38422 13.3784C4.12632 13.491 3.9329 13.5554 3.82007 13.5876C3.70724 13.6197 3.62665 13.6358 3.56218 13.6358C3.33652 13.6358 3.22369 13.4749 3.22369 13.137V12.3485C3.22369 12.091 3.25593 11.8979 3.33652 11.7853C3.41711 11.6726 3.56218 11.56 3.78784 11.4473C4.35198 11.1577 5.02895 10.9163 5.81876 10.7232C6.60856 10.514 7.44672 10.4174 8.33323 10.4174C10.2513 10.4174 11.6536 10.8519 12.5563 11.7209C13.4428 12.5899 13.8941 13.9094 13.8941 15.6795V20.8933H13.9263ZM7.38224 23.3393C7.91415 23.3393 8.46218 23.2427 9.04244 23.0496C9.62271 22.8565 10.1385 22.5025 10.5737 22.0197C10.8316 21.714 11.025 21.3761 11.1217 20.9899C11.2184 20.6036 11.2829 20.137 11.2829 19.5899V18.914C10.8155 18.8013 10.3158 18.7048 9.80001 18.6404C9.28422 18.5761 8.78455 18.5439 8.28488 18.5439C7.20494 18.5439 6.41514 18.7531 5.88323 19.1876C5.35132 19.622 5.09343 20.2335 5.09343 21.0381C5.09343 21.7944 5.28685 22.3577 5.68981 22.7439C6.07665 23.1462 6.6408 23.3393 7.38224 23.3393ZM20.3253 25.0772C20.0352 25.0772 19.8418 25.0289 19.7128 24.9163C19.5839 24.8197 19.4711 24.5944 19.3744 24.2887L15.5865 11.8496C15.4898 11.5278 15.4415 11.3186 15.4415 11.2059C15.4415 10.9485 15.5704 10.8036 15.8283 10.8036H17.4079C17.7142 10.8036 17.9237 10.8519 18.0365 10.9646C18.1655 11.0611 18.2622 11.2864 18.3589 11.5922L21.0668 22.245L23.5813 11.5922C23.6618 11.2703 23.7586 11.0611 23.8875 10.9646C24.0165 10.868 24.2421 10.8036 24.5322 10.8036H25.8217C26.128 10.8036 26.3375 10.8519 26.4665 10.9646C26.5954 11.0611 26.7082 11.2864 26.7727 11.5922L29.3194 22.3738L32.1079 11.5922C32.2046 11.2703 32.3174 11.0611 32.4303 10.9646C32.5592 10.868 32.7688 10.8036 33.0589 10.8036H34.5579C34.8158 10.8036 34.9609 10.9324 34.9609 11.2059C34.9609 11.2864 34.9447 11.3669 34.9286 11.4634C34.9125 11.56 34.8803 11.6887 34.8158 11.8657L30.9313 24.3048C30.8345 24.6266 30.7217 24.8358 30.5928 24.9324C30.4638 25.0289 30.2543 25.0933 29.9803 25.0933H28.5941C28.2878 25.0933 28.0783 25.045 27.9494 24.9324C27.8204 24.8197 27.7076 24.6105 27.6431 24.2887L25.1447 13.9094L22.6625 24.2726C22.5819 24.5944 22.4852 24.8036 22.3563 24.9163C22.2273 25.0289 22.0017 25.0772 21.7115 25.0772H20.3253ZM41.0375 25.5117C40.1994 25.5117 39.3612 25.4151 38.5553 25.222C37.7494 25.0289 37.1207 24.8197 36.7017 24.5784C36.4438 24.4335 36.2665 24.2726 36.202 24.1278C36.1375 23.983 36.1053 23.822 36.1053 23.6772V22.8565C36.1053 22.5186 36.2342 22.3577 36.476 22.3577C36.5727 22.3577 36.6694 22.3738 36.7661 22.4059C36.8628 22.4381 37.0079 22.5025 37.1691 22.5669C37.7171 22.8082 38.3135 23.0013 38.9421 23.1301C39.5869 23.2588 40.2155 23.3232 40.8602 23.3232C41.8757 23.3232 42.6655 23.1462 43.2135 22.7921C43.7615 22.4381 44.0517 21.9232 44.0517 21.2634C44.0517 20.8128 43.9066 20.4427 43.6165 20.137C43.3263 19.8312 42.7783 19.5577 41.9885 19.3002L39.6513 18.5761C38.4747 18.2059 37.6043 17.6588 37.0724 16.9347C36.5405 16.2266 36.2665 15.4381 36.2665 14.6013C36.2665 13.9255 36.4115 13.3301 36.7017 12.8151C36.9918 12.3002 37.3786 11.8496 37.8622 11.4956C38.3457 11.1255 38.8938 10.8519 39.5385 10.6588C40.1832 10.4657 40.8602 10.3853 41.5694 10.3853C41.924 10.3853 42.2947 10.4013 42.6494 10.4496C43.0201 10.4979 43.3586 10.5623 43.697 10.6266C44.0194 10.7071 44.3257 10.7876 44.6158 10.8841C44.9059 10.9807 45.1316 11.0772 45.2928 11.1738C45.5184 11.3025 45.6796 11.4312 45.7763 11.5761C45.873 11.7048 45.9214 11.8818 45.9214 12.1071V12.8634C45.9214 13.2013 45.7924 13.3784 45.5507 13.3784C45.4217 13.3784 45.2122 13.314 44.9382 13.1853C44.0194 12.7669 42.9878 12.5577 41.8434 12.5577C40.9247 12.5577 40.1994 12.7025 39.6997 13.0082C39.2 13.314 38.9421 13.7807 38.9421 14.4404C38.9421 14.891 39.1033 15.2772 39.4257 15.583C39.748 15.8887 40.3444 16.1944 41.1987 16.468L43.4875 17.1922C44.648 17.5623 45.4862 18.0772 45.9859 18.737C46.4855 19.3967 46.7273 20.1531 46.7273 20.9899C46.7273 21.6818 46.5822 22.3094 46.3082 22.8565C46.0181 23.4036 45.6313 23.8864 45.1316 24.2726C44.6319 24.6749 44.0355 24.9646 43.3424 25.1738C42.6171 25.399 41.8596 25.5117 41.0375 25.5117Z" fill="#252F3E"/>
<path fill-rule="evenodd" clip-rule="evenodd" d="M44.0838 33.3323C38.7809 37.2427 31.0763 39.3185 24.4516 39.3185C15.1674 39.3185 6.80192 35.8909 0.483499 30.1944C-0.0161721 29.7438 0.435144 29.1323 1.03153 29.4863C7.86574 33.445 16.2957 35.8427 25.0157 35.8427C30.899 35.8427 37.3625 34.6197 43.3102 32.1093C44.1967 31.707 44.9542 32.6886 44.0838 33.3323Z" fill="#FF9900"/>
<path fill-rule="evenodd" clip-rule="evenodd" d="M46.2921 30.822C45.6151 29.9531 41.8112 30.4037 40.0865 30.6128C39.5707 30.6772 39.4901 30.2266 39.9576 29.8887C42.9878 27.7646 47.9684 28.3761 48.5487 29.0841C49.129 29.8083 48.3875 34.7807 45.5507 37.1623C45.1155 37.5324 44.6964 37.3393 44.8898 36.8565C45.5345 35.2634 46.9691 31.6749 46.2921 30.822Z" fill="#FF9900"/>
</g>
<defs>
<clipPath id="clip0_262_40368">
<rect width="49" height="29.2874" fill="white" transform="translate(0 10.2083)"/>
</clipPath>
</defs>
</svg>
