<svg width="65" height="51" viewBox="0 0 65 51" fill="none" xmlns="http://www.w3.org/2000/svg">
<g clip-path="url(#clip0_455_285)">
<path d="M2 44.0271C2 47.3207 4.68406 50.0001 7.98342 50.0001H57.0166C60.3159 50.0001 63 47.3207 63 44.0271V13.3901H2V44.0271Z" fill="#D1D3D4"/>
<path d="M57.0166 1H7.98342C4.68406 1 2 3.67938 2 6.97299V13.39H63V6.97299C63 3.67938 60.3159 1 57.0166 1Z" fill="#565F71"/>
<path d="M57.0832 7.19547C57.0832 7.9063 56.5043 8.48508 55.7922 8.48508C55.0801 8.48508 54.5003 7.90719 54.5003 7.19547C54.5003 6.48374 55.0792 5.90674 55.7922 5.90674C56.5052 5.90674 57.0832 6.48463 57.0832 7.19547Z" fill="#FF144F"/>
<path d="M46.8637 7.19547C46.8637 7.9063 46.2848 8.48508 45.5727 8.48508C44.8606 8.48508 44.2808 7.90719 44.2808 7.19547C44.2808 6.48374 44.8597 5.90674 45.5727 5.90674C46.2857 5.90674 46.8637 6.48463 46.8637 7.19547Z" fill="#17EB81"/>
<path d="M51.9743 7.19547C51.9743 7.9063 51.3954 8.48508 50.6824 8.48508C49.9695 8.48508 49.3915 7.90719 49.3915 7.19547C49.3915 6.48374 49.9704 5.90674 50.6824 5.90674C51.3945 5.90674 51.9743 6.48463 51.9743 7.19547Z" fill="#FFCA0D"/>
<path d="M15.0412 5.94482H8.71148C8.01982 5.94482 7.45868 6.50499 7.45868 7.19544C7.45868 7.88589 8.01982 8.44605 8.71148 8.44605H15.0412C15.7328 8.44605 16.294 7.88589 16.294 7.19544C16.294 6.50499 15.7328 5.94482 15.0412 5.94482Z" fill="#E6E7E8"/>
<path d="M22.5056 5.94482H20.578C19.8863 5.94482 19.3252 6.50499 19.3252 7.19544C19.3252 7.88589 19.8863 8.44605 20.578 8.44605H22.5056C23.1972 8.44605 23.7584 7.88589 23.7584 7.19544C23.7584 6.50499 23.1972 5.94482 22.5056 5.94482Z" fill="#E6E7E8"/>
<path d="M32.4995 17.1133C24.3408 17.1133 17.703 23.7395 17.703 31.884C17.703 40.0285 24.3408 46.6547 32.4995 46.6547C40.6583 46.6547 47.2961 40.0285 47.2961 31.884C47.2961 23.7395 40.6583 17.1133 32.4995 17.1133ZM45.253 30.8842H38.7964C38.5398 27.0632 37.1218 23.1882 34.5408 19.2768C40.3049 20.2039 44.7931 24.9883 45.253 30.8842ZM36.7853 30.8842H28.2146C28.4881 27.2848 29.9247 23.5782 32.5004 19.8334C35.0753 23.5782 36.5128 27.2848 36.7862 30.8842H36.7853ZM30.4583 19.2777C27.8781 23.1891 26.4593 27.0641 26.2027 30.8851H19.746C20.206 24.9892 24.6933 20.2048 30.4583 19.2777ZM19.7469 32.8847H26.1761C26.3314 36.8147 27.7281 40.6853 30.3677 44.477C24.6471 43.5145 20.2051 38.7495 19.7478 32.8847H19.7469ZM28.1827 32.8847H36.8182C36.6486 36.625 35.1987 40.36 32.5004 44.0126C29.8022 40.3609 28.3523 36.625 28.1827 32.8847ZM34.6331 44.477C37.2728 40.6853 38.6694 36.8156 38.8248 32.8847H45.2539C44.7967 38.7495 40.3537 43.5145 34.634 44.477H34.6331Z" fill="#414042"/>
</g>
<defs>
<clipPath id="clip0_455_285">
<rect width="61" height="49" fill="white" transform="translate(2 1)"/>
</clipPath>
</defs>
</svg>
