<svg width="40" height="40" viewBox="0 0 40 40" fill="none" xmlns="http://www.w3.org/2000/svg">
<path d="M19.8188 2.5L3.38375 10.3675L19.8188 20.2425L36.6162 11.035L19.8188 2.5Z" fill="#AFD4E5"/>
<path d="M19.82 37.5001L3.38375 25.8476V10.3676L19.8188 20.2426L19.82 37.5001Z" fill="#6699CC"/>
<path d="M36.6162 26.8563L19.82 37.5L19.8187 20.2425L36.6162 11.035V26.8563Z" fill="#7DA7D3"/>
<path d="M29.2425 31.5288L28.8013 31.8088L28.5188 15.4738L29.005 15.2075L29.2425 31.5288Z" fill="#386A9D"/>
<path d="M14.5387 8.68752C16.828 7.13358 19.5799 6.40934 22.3375 6.63502C23.0817 6.73233 23.8145 6.90317 24.525 7.14502C26.2224 7.75198 27.774 8.70746 29.08 9.95002C29.372 10.1839 29.6317 10.4555 29.8525 10.7575C29.8162 10.925 29.6175 10.98 29.4937 11.0713C28.7337 11.4775 27.9938 11.9163 27.2213 12.3063C26.7734 12.5899 26.298 12.8278 25.8025 13.0163C26.063 12.458 26.1273 11.8281 25.985 11.2288C25.7477 10.7144 25.4055 10.2553 24.9804 9.88094C24.5552 9.5066 24.0565 9.22527 23.5162 9.05502C21.9339 8.52821 20.2236 8.52821 18.6412 9.05502C17.5785 9.38279 16.6704 10.0844 16.085 11.03C15.8675 11.425 15.787 11.8809 15.8562 12.3265C15.9254 12.7721 16.1404 13.1821 16.4675 13.4925C17.5875 14.3234 18.948 14.7662 20.3425 14.7538C21.0361 14.7996 21.7327 14.7702 22.42 14.6663C22.4911 14.6472 22.566 14.6464 22.6374 14.6641C22.7089 14.6818 22.7748 14.7174 22.8288 14.7675C21.5175 15.3325 20.2587 16.0175 18.9537 16.6075C18.2923 16.6852 17.6218 16.5994 17.0012 16.3575C15.3613 15.9634 13.9208 14.9859 12.9488 13.6075C12.6856 13.2 12.5181 12.7382 12.4588 12.2568C12.3995 11.7753 12.4499 11.2867 12.6062 10.8275C12.9803 9.9101 13.6641 9.15285 14.5387 8.68752Z" fill="#6699CC"/>
</svg>
