<svg width="40" height="40" viewBox="0 0 40 40" fill="none" xmlns="http://www.w3.org/2000/svg">
<g clip-path="url(#clip0_10888_298)">
<path d="M10.625 29.375L5.20832 23.9583C4.56666 23.2979 4.16666 22.3687 4.16666 21.4583C4.16666 21.0375 4.40416 20.3791 4.58332 20L9.58332 9.58331L10.625 29.375Z" fill="#01579B"/>
<path d="M29.1667 10.625L23.75 5.20835C23.2771 4.73335 22.2917 4.16669 21.4583 4.16669C20.7417 4.16669 20.0396 4.31044 19.5833 4.58335L9.58334 9.58335L29.1667 10.625Z" fill="#40C4FF"/>
<path d="M17.0833 35.8333H30.2083V30.2083L20.4167 27.0833L11.4583 30.2083L17.0833 35.8333Z" fill="#40C4FF"/>
<path d="M9.58334 26.4583C9.58334 28.1291 9.79376 28.5396 10.625 29.375L11.4583 30.2083H30.2083L21.0417 19.7916L9.58334 9.58331V26.4583Z" fill="#29B6F6"/>
<path d="M26.25 9.58331H9.58334L30.2083 30.2083H35.8333V17.2916L29.1667 10.625C28.2313 9.6854 27.3979 9.58331 26.25 9.58331Z" fill="#01579B"/>
<path opacity="0.2" d="M10.8333 29.5833C10 28.7458 9.79168 27.9229 9.79168 26.4583V9.79165L9.58334 9.58331V26.4583C9.58334 27.9229 9.58334 28.3291 10.8333 29.5833Z" fill="white"/>
<path opacity="0.2" d="M35.625 17.0833V30H30L30.2083 30.2083H35.8333V17.2916L35.625 17.0833Z" fill="#263238"/>
<path opacity="0.2" d="M29.1667 10.625C28.1333 9.59165 27.2875 9.58331 26.0417 9.58331H9.58334L9.79168 9.79165H26.0417C26.6646 9.79165 28.2333 9.68748 29.1667 10.625Z" fill="white"/>
<path opacity="0.2" d="M35.625 17.0834L29.1667 10.625L23.75 5.20835C23.2771 4.73335 22.2917 4.16669 21.4583 4.16669C20.7417 4.16669 20.0396 4.31044 19.5833 4.58335L9.58332 9.58335L4.58332 20C4.40416 20.3792 4.16666 21.0375 4.16666 21.4584C4.16666 22.3688 4.56666 23.2979 5.20832 23.9584L10.2 28.9146C10.3187 29.0604 10.4604 29.2104 10.625 29.375L10.8333 29.5834L11.4583 30.2084L16.875 35.625L17.0833 35.8334H30H30.2083V30.2084H35.8333V30.1938V17.2917L35.625 17.0834Z" fill="url(#paint0_radial_10888_298)"/>
</g>
<defs>
<radialGradient id="paint0_radial_10888_298" cx="0" cy="0" r="1" gradientUnits="userSpaceOnUse" gradientTransform="translate(20 20) scale(15.8333)">
<stop stop-color="white" stop-opacity="0.1"/>
<stop offset="1" stop-color="white" stop-opacity="0"/>
</radialGradient>
<clipPath id="clip0_10888_298">
<rect width="40" height="40" fill="white"/>
</clipPath>
</defs>
</svg>
