<svg id="Layer_1" data-name="Layer 1" xmlns="http://www.w3.org/2000/svg" viewBox="0 0 200 143.5"><defs><style>.cls-1{fill:#0091e2}</style></defs><path class="cls-1" d="M198.05 82.51c-.55-.46-5.56-4.26-16.32-4.26a52.2 52.2 0 00-8.44.74c-2-14.19-13.83-21.06-14.29-21.43l-2.87-1.67-1.86 2.69a39.63 39.63 0 00-5.1 11.88 28.19 28.19 0 003.34 22.17c-4.92 2.78-12.9 3.43-14.57 3.52H6.23A6.21 6.21 0 000 102.37a93.91 93.91 0 005.75 33.85c4.55 11.88 11.32 20.69 20 26.07 9.83 6 25.88 9.46 44 9.46a134.29 134.29 0 0024.39-2.23 100.52 100.52 0 0031.91-11.59 87.48 87.48 0 0021.71-17.81c10.48-11.78 16.69-25 21.24-36.64h1.85c11.41 0 18.46-4.55 22.36-8.44a24.77 24.77 0 005.94-8.72l.83-2.41z" transform="translate(0 -28.25)"/><path class="cls-1" d="M18.47 92.35H36.1a1.56 1.56 0 001.57-1.58V75a1.57 1.57 0 00-1.57-1.58H18.47A1.57 1.57 0 0016.89 75v15.77a1.64 1.64 0 001.58 1.58M42.77 92.35H60.4a1.56 1.56 0 001.6-1.58V75a1.56 1.56 0 00-1.57-1.58H42.77A1.56 1.56 0 0041.2 75v15.77a1.62 1.62 0 001.57 1.58M67.54 92.35h17.62a1.56 1.56 0 001.58-1.58V75a1.57 1.57 0 00-1.58-1.58H67.54A1.57 1.57 0 0066 75v15.77a1.51 1.51 0 001.58 1.58M91.94 92.35h17.62a1.56 1.56 0 001.58-1.58V75a1.57 1.57 0 00-1.58-1.58H91.94A1.56 1.56 0 0090.36 75v15.77a1.56 1.56 0 001.58 1.58M42.77 69.81H60.4a1.63 1.63 0 001.6-1.58V52.46a1.56 1.56 0 00-1.57-1.58H42.77a1.56 1.56 0 00-1.57 1.58v15.77a1.7 1.7 0 001.57 1.58M67.54 69.81h17.62a1.63 1.63 0 001.58-1.58V52.46a1.57 1.57 0 00-1.58-1.58H67.54A1.57 1.57 0 0066 52.46v15.77a1.57 1.57 0 001.58 1.58M91.94 69.81h17.62a1.63 1.63 0 001.58-1.58V52.46a1.63 1.63 0 00-1.58-1.58H91.94a1.56 1.56 0 00-1.58 1.58v15.77a1.63 1.63 0 001.58 1.58M91.94 47.17h17.62a1.56 1.56 0 001.58-1.57V29.83a1.62 1.62 0 00-1.58-1.58H91.94a1.56 1.56 0 00-1.58 1.58V45.6a1.62 1.62 0 001.58 1.57M116.52 92.35h17.62a1.56 1.56 0 001.58-1.58V75a1.57 1.57 0 00-1.58-1.58h-17.62a1.56 1.56 0 00-1.58 1.58v15.77a1.62 1.62 0 001.58 1.58" transform="translate(0 -28.25)"/></svg>