<svg width="50" height="50" viewBox="0 0 50 50" fill="none" xmlns="http://www.w3.org/2000/svg">
<g clip-path="url(#clip0_585_3896)">
<path d="M50 0H0V50H50V0Z" fill="#512BD4"/>
<path d="M8.91159 31.9443C8.55806 31.9443 8.25755 31.8265 8.01007 31.5909C7.76259 31.3492 7.63885 31.0623 7.63885 30.73C7.63885 30.3916 7.76259 30.1017 8.01007 29.8601C8.25755 29.6184 8.55806 29.4976 8.91159 29.4976C9.27102 29.4976 9.57447 29.6184 9.82195 29.8601C10.0753 30.1017 10.202 30.3916 10.202 30.73C10.202 31.0623 10.0753 31.3492 9.82195 31.5909C9.57447 31.8265 9.27102 31.9443 8.91159 31.9443Z" fill="white"/>
<path d="M23.0446 31.7451H20.7466L14.6923 22.1936C14.5391 21.952 14.4124 21.7012 14.3123 21.4414H14.2592C14.3064 21.7194 14.3299 22.3145 14.3299 23.2266V31.7451H12.297V18.75H14.7453L20.5964 28.0749C20.8439 28.4616 21.003 28.7274 21.0737 28.8724H21.109C21.0501 28.5281 21.0206 27.9451 21.0206 27.1234V18.75H23.0446V31.7451Z" fill="white"/>
<path d="M32.944 31.7451H25.8291V18.75H32.6612V20.5806H27.9327V24.2598H32.29V26.0812H27.9327V29.9236H32.944V31.7451Z" fill="white"/>
<path d="M43.0556 20.5806H39.4141V31.7451H37.3105V20.5806H33.678V18.75H43.0556V20.5806Z" fill="white"/>
</g>
<defs>
<clipPath id="clip0_585_3896">
<rect width="50" height="50" fill="white"/>
</clipPath>
</defs>
</svg>
