<svg width="49" height="49" viewBox="0 0 49 49" fill="none" xmlns="http://www.w3.org/2000/svg">
<g clip-path="url(#clip0_262_40380)">
<path d="M31.0921 14.9423H32.5873L36.8471 10.6825L37.0566 8.87504C29.1306 1.87944 17.031 2.63322 10.0354 10.5592C8.09033 12.761 6.67929 15.3798 5.91113 18.2141C6.38559 18.019 6.91139 17.9882 7.40638 18.1238L15.9239 16.7189C15.9239 16.7189 16.3573 16.0021 16.5812 16.0473C20.3706 11.8861 26.748 11.4013 31.1229 14.9423H31.0921Z" fill="#EA4335"/>
<path d="M42.9141 18.2141C41.9344 14.6095 39.9257 11.3685 37.1303 8.8894L31.1535 14.8663C33.6778 16.9284 35.1155 20.0359 35.0539 23.2955V24.3574C37.993 24.3574 40.3734 26.7399 40.3734 29.677C40.3734 32.6161 37.9909 34.9966 35.0539 34.9966H24.4127L23.3508 36.0728V42.4543L24.4127 43.5162H35.0539C41.1539 43.5634 46.5659 39.6097 48.3774 33.7848C50.1848 27.9579 47.9666 21.6318 42.9141 18.2141Z" fill="#4285F4"/>
<path d="M13.7571 43.4563H24.3983V34.9388H13.7571C12.9992 34.9388 12.2495 34.7765 11.5594 34.4602L10.0642 34.9223L5.77566 39.1821L5.40186 40.6774C7.80696 42.493 10.742 43.4686 13.7571 43.4563Z" fill="#34A853"/>
<path d="M13.757 15.8233C7.84591 15.8582 2.61051 19.6436 0.725022 25.2446C-1.16046 30.8456 0.71886 37.0278 5.40382 40.6304L11.5758 34.4584C8.89751 33.2486 7.7083 30.098 8.91805 27.4197C10.1278 24.7414 13.2785 23.5522 15.9568 24.7619C17.1357 25.2959 18.0805 26.2407 18.6145 27.4197L24.7865 21.2477C22.1596 17.8156 18.0785 15.8089 13.757 15.8233Z" fill="#FBBC05"/>
</g>
<defs>
<clipPath id="clip0_262_40380">
<rect width="49" height="39.4329" fill="white" transform="translate(0 4.08325)"/>
</clipPath>
</defs>
</svg>
