<svg width="24" height="24" viewBox="0 0 24 24" fill="none" xmlns="http://www.w3.org/2000/svg">
<path d="M11.9035 0.000762939C10.8543 0.000762939 4.58381 0.00274503 1.4408 1.46021C0.677272 1.80786 0 2.41485 0 3.25525C0 3.26705 0.00378002 3.27634 0.00405002 3.28754C-0.00184998 6.08237 0.00405022 8.77595 0.00405002 11.3268C0.106021 11.4682 0.205722 11.6503 0.286143 11.7826C0.196755 11.9643 0.124761 12.0688 0.00405002 12.2627C-0.000219984 15.1006 0.01185 17.9538 0 20.785C0 21.9469 1.30075 22.4999 2.18192 22.7599C5.00789 23.8074 15.961 24.4877 21.6261 22.7599C22.6397 22.4432 23.808 21.9028 23.808 20.785V12.2667C23.7024 12.1177 23.6048 11.9295 23.5229 11.7877C23.6108 11.622 23.6869 11.5184 23.808 11.3348C23.8092 8.44945 23.808 6.07024 23.808 3.26633H23.807C23.807 3.26233 23.808 3.25835 23.808 3.25455C23.808 2.33119 22.9774 1.71853 22.3672 1.45947C20.0374 0.304583 15.0167 0.0104029 11.9035 0.000762939ZM11.9035 2.07068C15.0653 2.32861 18.4374 2.12839 21.2439 3.25525C18.3949 4.25841 14.6536 4.4341 11.9035 4.44284C8.74195 4.18324 4.93742 4.29928 2.56411 3.25525C4.86659 2.29434 9.15459 2.07932 11.9035 2.07068ZM2.07171 5.31607C4.66615 6.26027 8.91368 6.50453 11.9035 6.51379C13.454 6.51379 19.0605 6.3884 21.7363 5.31607V10.876C21.6192 11.0571 21.4859 11.222 21.4158 11.4541C20.4917 11.7221 19.176 11.9634 17.5484 12.1334C14.0683 12.4968 9.74783 12.4968 6.26772 12.1334C4.63572 11.963 3.31921 11.7209 2.39526 11.4521C2.32643 11.2131 2.19161 11.0456 2.07171 10.8608V5.31607ZM2.21529 12.477C3.22528 12.761 4.54565 12.9956 6.16054 13.1643C9.72807 13.5368 14.088 13.5368 17.6556 13.1643C19.2632 12.9965 20.5807 12.7633 21.5897 12.481C21.6393 12.559 21.6867 12.6391 21.7363 12.7175V20.4798C21.6048 20.5569 21.3682 20.6713 21.0063 20.7851C15.6389 21.8418 7.23696 22.0719 2.80475 20.7851C2.44153 20.671 2.20304 20.5551 2.07171 20.4778V12.7094C2.12046 12.6323 2.16649 12.5536 2.21529 12.477Z" fill="black"/>
</svg>
