<svg width="68" height="27" viewBox="0 0 68 27" fill="none" xmlns="http://www.w3.org/2000/svg">
<g clip-path="url(#clip0_564_224)">
<path d="M5.13145 8.39047C4.99902 8.39047 4.96592 8.32267 5.03213 8.22098L5.72736 7.30572C5.79357 7.20403 5.9591 7.13623 6.09153 7.13623H17.9104C18.0428 7.13623 18.0759 7.23793 18.0097 7.33962L17.4469 8.22098C17.3807 8.32267 17.2152 8.42437 17.1159 8.42437L5.13145 8.39047Z" fill="#00ACD7"/>
<path d="M0.132425 11.5091C0 11.5091 -0.0331061 11.4413 0.0331061 11.3396L0.728335 10.4244C0.794547 10.3227 0.960078 10.2549 1.0925 10.2549H16.1889C16.3213 10.2549 16.3875 10.3566 16.3544 10.4583L16.0896 11.2718C16.0565 11.4074 15.9241 11.4752 15.7916 11.4752L0.132425 11.5091Z" fill="#00ACD7"/>
<path d="M8.14408 14.6278C8.01166 14.6278 7.97855 14.5261 8.04476 14.4244L8.50825 13.5769C8.57446 13.4752 8.70689 13.3735 8.83931 13.3735H15.4605C15.593 13.3735 15.6592 13.4752 15.6592 13.6108L15.593 14.4244C15.593 14.56 15.4605 14.6617 15.3612 14.6617L8.14408 14.6278Z" fill="#00ACD7"/>
<path d="M42.5083 7.78052C40.4226 8.32289 38.999 8.72967 36.9465 9.27205C36.4499 9.40764 36.4168 9.44154 35.9864 8.93306C35.4898 8.35679 35.1256 7.98391 34.4304 7.64493C32.3447 6.59408 30.3252 6.89917 28.4382 8.1534C26.187 9.64493 25.0282 11.8483 25.0613 14.5941C25.0945 17.3059 26.9153 19.5432 29.5307 19.9161C31.7819 20.2212 33.6689 19.4076 35.1587 17.6788C35.4567 17.3059 35.7215 16.8992 36.0526 16.4246C34.8608 16.4246 33.371 16.4246 29.6631 16.4246C28.9679 16.4246 28.8023 15.9839 29.0341 15.4076C29.4645 14.3568 30.259 12.5941 30.7225 11.7127C30.8218 11.5093 31.0536 11.1704 31.5502 11.1704C33.2386 11.1704 39.4625 11.1704 43.6008 11.1704C43.5346 12.0856 43.5346 13.0009 43.4022 13.9161C43.038 16.3568 42.1441 18.5941 40.6874 20.5602C38.3038 23.7805 35.1918 25.7805 31.2522 26.3229C28.0078 26.7636 24.9951 26.1195 22.3466 24.0856C19.8968 22.1873 18.5063 19.6788 18.1422 16.5602C17.7118 12.8653 18.7712 9.54323 20.9562 6.62798C23.3067 3.47544 26.4187 1.47544 30.2259 0.763573C33.3379 0.187302 36.3174 0.560183 38.999 2.42459C40.7537 3.61103 42.0117 5.23815 42.8393 7.20425C43.038 7.50934 42.9056 7.67883 42.5083 7.78052Z" fill="#00ACD7"/>
<path d="M53.4664 26.5264C50.4538 26.4586 47.706 25.5772 45.3885 23.5433C43.4353 21.8145 42.2103 19.6111 41.8131 17.0009C41.2171 13.1704 42.2434 9.78059 44.4947 6.76364C46.9114 3.50941 49.8247 1.81449 53.7644 1.10263C57.1412 0.492458 60.3194 0.831441 63.1996 2.83144C65.815 4.66195 67.4372 7.13653 67.8676 10.3908C68.4304 14.967 67.1393 18.6958 64.0604 21.8823C61.8754 24.1535 59.1938 25.5772 56.1149 26.2213C55.221 26.3908 54.3272 26.4247 53.4664 26.5264ZM61.3457 12.8314C61.3126 12.3908 61.3126 12.0518 61.2464 11.7128C60.6504 8.35686 57.6378 6.45856 54.4927 7.20432C51.4138 7.91619 49.4275 9.91619 48.6991 13.1026C48.1032 15.7467 49.3613 18.4247 51.7449 19.5094C53.5657 20.323 55.3866 20.2213 57.1412 19.306C59.7566 17.9162 61.1801 15.7467 61.3457 12.8314Z" fill="#00ACD7"/>
</g>
<defs>
<clipPath id="clip0_564_224">
<rect width="68" height="26" fill="white" transform="translate(0 0.526367)"/>
</clipPath>
</defs>
</svg>
