<svg viewBox="0 0 24 24" fill="#4f5162" xmlns="http://www.w3.org/2000/svg"><path fill-rule="evenodd" clip-rule="evenodd" d="M9.86 9.78c.043.074.096.143.16.207l1.414 1.414a.999.999 0 0 0 .208.16v2.445h-1.5a1 1 0 0 0-1 1v.5H5.5v-4.448H7a1 1 0 0 0 1-1V9.78h1.86Zm-.719 6.726h-3.64a1 1 0 0 1-1-1v-4.448H3a1 1 0 0 1-1-1v-2a1 1 0 0 1 1-1h4.002a1 1 0 0 1 1 1v.722H9.86c.043-.074.096-.144.16-.207l1.414-1.414a1 1 0 0 1 1.415 0l1.414 1.414c.063.063.116.133.16.207h1.575v-.786a1 1 0 0 1 1-1H21a1 1 0 0 1 1 1v2a1 1 0 0 1-1 1h-4.002a1 1 0 0 1-1-1V9.78h-1.576a1.002 1.002 0 0 1-.159.207L12.848 11.4a1.004 1.004 0 0 1-.206.159v2.446h1.5a1 1 0 0 1 1 1v2a1 1 0 0 1-1 1h-4a1 1 0 0 1-1-1v-.5Zm4.415-7.226-1.415 1.414-1.414-1.414 1.414-1.414 1.415 1.414ZM7.002 8.058H3v2h4.002v-2ZM21 7.994h-4.002v2H21v-2Zm-10.859 7.012h4.002v2H10.14v-2Z" fill="#4f5162"/></svg>