<svg fill="none" viewBox="0 0 24 24" xmlns="http://www.w3.org/2000/svg" xmlns:xlink="http://www.w3.org/1999/xlink"><linearGradient id="a" gradientUnits="userSpaceOnUse" x1="5.08089" x2="16.0627" y1="1.50073" y2="22.4568"><stop offset="0" stop-color="#62f91f"/><stop offset="1" stop-color="#45bd35"/></linearGradient><g clip-rule="evenodd" fill-rule="evenodd"><path d="m11.1961 5.15067c.2471-.10478.519-.16274.8043-.16274 1.1391 0 2.0625.92341 2.0625 2.0625 0 .28537-.0579.5572-.1627.80436l2.3444 2.34441c.2976-.1667.6408-.26165 1.0061-.26165 1.1391 0 2.0625.92345 2.0625 2.06245 0 1.1391-.9234 2.0625-2.0625 2.0625s-2.0625-.9234-2.0625-2.0625c0-.3649.0948-.7077.2611-1.0051l-2.2593-2.25935c-.1882.13308-.3996.23542-.6271.29974v6.23031c.8657.2448 1.5 1.0408 1.5 1.9848 0 1.1391-.9234 2.0625-2.0625 2.0625-1.139 0-2.06246-.9234-2.06246-2.0625 0-.9441.63436-1.74 1.49996-1.9848v-6.2303c-.8656-.24485-1.49996-1.04079-1.49996-1.98487 0-.44301.13966-.8534.37736-1.18953l-2.48403-2.48406-3.62078 2.08235c-1.16725.67129-1.89097 1.90778-1.90259 3.25058l-.05776 6.67673c-.01191 1.3774.72694 2.6528 1.92992 3.3315l5.83134 3.2899c1.1728.6616 2.6094.6557 3.7766-.0156l6.0015-3.4515c1.1673-.6713 1.891-1.9078 1.9026-3.2506l.0578-6.67672c.0119-1.37739-.727-2.65283-1.93-3.33151l-5.8313-3.28987c-1.1728-.66165-2.6094-.65572-3.7766.01557l-1.37065.78827zm-.1332 1.89976c0-.51776.4198-.9375.9375-.9375.5178 0 .9375.41974.9375.9375 0 .51777-.4197.9375-.9375.9375-.5177 0-.9375-.41973-.9375-.9375zm0 10.19997c0-.5177.4198-.9375.9375-.9375.5178 0 .9375.4198.9375.9375 0 .5178-.4197.9375-.9375.9375-.5177 0-.9375-.4197-.9375-.9375zm6.1878-6.1879c-.5178 0-.9375.4198-.9375.9375 0 .5178.4197.9375.9375.9375s.9375-.4197.9375-.9375c0-.5177-.4197-.9375-.9375-.9375z" fill="#4f5162"/><path d="m11.1961 5.15067c.2471-.10478.519-.16274.8043-.16274 1.1391 0 2.0625.92341 2.0625 2.0625 0 .28537-.0579.5572-.1627.80436l2.3444 2.34441c.2976-.1667.6408-.26165 1.0061-.26165 1.1391 0 2.0625.92345 2.0625 2.06245 0 1.1391-.9234 2.0625-2.0625 2.0625s-2.0625-.9234-2.0625-2.0625c0-.3649.0948-.7077.2611-1.0051l-2.2593-2.25935c-.1882.13308-.3996.23542-.6271.29974v6.23031c.8657.2448 1.5 1.0408 1.5 1.9848 0 1.1391-.9234 2.0625-2.0625 2.0625-1.139 0-2.06246-.9234-2.06246-2.0625 0-.9441.63436-1.74 1.49996-1.9848v-6.2303c-.8656-.24485-1.49996-1.04079-1.49996-1.98487 0-.44301.13966-.8534.37736-1.18953l-2.48403-2.48406-3.62078 2.08235c-1.16725.67129-1.89097 1.90778-1.90259 3.25058l-.05776 6.67673c-.01191 1.3774.72694 2.6528 1.92992 3.3315l5.83134 3.2899c1.1728.6616 2.6094.6557 3.7766-.0156l6.0015-3.4515c1.1673-.6713 1.891-1.9078 1.9026-3.2506l.0578-6.67672c.0119-1.37739-.727-2.65283-1.93-3.33151l-5.8313-3.28987c-1.1728-.66165-2.6094-.65572-3.7766.01557l-1.37065.78827zm-.1332 1.89976c0-.51776.4198-.9375.9375-.9375.5178 0 .9375.41974.9375.9375 0 .51777-.4197.9375-.9375.9375-.5177 0-.9375-.41973-.9375-.9375zm0 10.19997c0-.5177.4198-.9375.9375-.9375.5178 0 .9375.4198.9375.9375 0 .5178-.4197.9375-.9375.9375-.5177 0-.9375-.4197-.9375-.9375zm6.1878-6.1879c-.5178 0-.9375.4198-.9375.9375 0 .5178.4197.9375.9375.9375s.9375-.4197.9375-.9375c0-.5177-.4197-.9375-.9375-.9375z" fill="url(#a)"/></g></svg>