<svg xmlns="http://www.w3.org/2000/svg" viewBox="0 0 25 25" fill="none"><g transform="matrix(0.030244691998 0 0 0.030665293099 -0.113250283126 -0.089308497066)"><path fill="#075394" d="M365.501 110.91c44.403 4.004 85.084 18.381 122.114 44.222 5.313-7.067 10.492-13.937 15.651-20.822 15.18-20.26 30.367-40.515 45.523-60.793 7.548-10.1 22.529-12.851 32.045-5.826 9.626 7.107 11.07 21.763 3.21 32.22-20.51 27.287-41.003 54.587-61.499 81.886-.392.523-.722 1.092-1.179 1.79 17.818 17.835 32.52 37.87 43.681 61.227.2 2.124.351 3.498.55 5.31-12.835 0-25.198.114-37.556-.087-2.827-.047-5.636-1.183-8.453-1.817-22.773-34.817-53.026-61.183-91.349-77.193-73.867-30.86-144.112-22.708-210.018 22.416-20.707 14.178-37.51 32.374-51.793 53.683-.971 1.26-1.356 2.248-1.742 3.237 0 0-.108.188-.673.107-15.823-.23-31.08-.379-46.339-.528 6.781-11.804 12.874-24.08 20.538-35.28 7.578-11.075 16.743-21.064 25.587-31.994-11.14-14.788-22.71-30.214-34.356-45.582-9.05-11.944-18.215-23.801-27.294-35.724-7.901-10.376-6.505-24.89 3.058-32.303 9.676-7.5 24.068-5.017 32.225 5.83 18.716 24.89 37.304 49.877 55.948 74.821 1.372 1.835 2.773 3.648 4.285 5.635 37.425-25.828 78.585-40.293 124.228-44.502v-5.206c.007-26.491-.06-52.983.052-79.474.059-13.94 10.43-24.154 23.195-23.189 10.763.814 18.287 8.437 19.607 20.92-.46 1.009-.663 1.32-.663 1.632-.038 27.36-.078 54.72-.02 82.079.002 1.103.937 2.203 1.437 3.305" />
  <path fill="#075496" d="M320.863 619.03c-25.478-2.601-50.357-8.003-73.873-18.182-15.973-6.914-31.307-15.304-47.521-23.328-7.422 9.596-15.58 20.089-23.68 30.627-12.786 16.637-25.382 33.423-38.367 49.904-5.706 7.241-13.468 10.763-22.904 9.207-8.115-1.338-13.734-5.95-16.002-13.898-2.41-8.445-.154-16.021 5.145-22.915 20.79-27.051 41.512-54.156 62.526-81.589-17.693-17.793-32.927-37.359-44.563-60.362 1.624-.157 2.686-.346 3.749-.348 13.83-.02 27.663-.125 41.49.119 1.915.033 4.474 1.333 5.6 2.876 34.757 47.61 81.728 75.896 139.648 83.53 81.796 10.78 148.81-17.285 199.82-82.481 2.293-2.931 4.418-4.223 8.19-4.158 14.154.242 28.314.097 43.607.097-12.2 23.877-27.814 44.231-46.638 62.318 8.07 10.566 15.968 21.072 24.076 31.414 2.093 2.67 2.6 4.599.617 7.785-7.69 12.349-13.586 25.545-17.448 40.866l-40.996-53.007c-36.422 23.311-75.752 37.628-119.181 41.362v5.613c.01 24.495.057 48.99.012 73.486-.018 9.95-5.744 18.462-14.235 21.524-8.665 3.126-18.283.909-23.876-6.53-2.565-3.41-3.476-8.063-4.795-12.852.47-1.344.707-1.99.708-2.634.023-24.953.04-49.905-.02-74.857-.002-1.197-.71-2.392-1.09-3.588" />
  <path fill="#065496" d="M654.995 455.997c-3.694.05-7.388.1-11.604-.28-1.994-1.518-3.387-3.361-4.953-3.523-2.79-.289-3.61-1.362-3.534-3.94.022-.745-.848-1.516-1.309-2.275-.074-14.685-.149-29.37.203-44.65.226-2.846.026-5.096-.174-7.347-.099-9.018-.197-18.035.089-27.607.284-1.644.183-2.733.083-3.823-.858.265-2.224.287-2.486.837-1.075 2.252-1.813 4.665-2.676 7.018 0 0-.084.151-.298.088-.349-.047-.484-.032-.62-.016l.547.522c-8.047 14.936-15.999 29.926-24.279 44.732-.909 1.625-3.652 2.983-5.632 3.11-6.138.396-12.368.587-18.457-.088-2.397-.266-5.384-2.543-6.624-4.74-8.58-15.196-16.764-30.615-25.09-45.955-.77-1.417-1.64-2.778-3.278-5.536v5.616c.005 26.821.014 53.643.014 80.465 0 6.82-.71 7.554-7.36 7.563-8.83.01-17.659-.002-26.488-.016-6.562-.01-7.237-.668-7.238-7.106-.007-49.146-.008-98.291-.014-147.437 0-3.998.05-7.998-.048-11.994-.108-4.443 2.131-6.395 6.397-6.396 9.996 0 19.993.076 29.987-.048 3.889-.048 6.108 1.89 7.81 5.093 12.023 22.615 24.095 45.203 36.16 67.794 1.548 2.9 3.15 5.77 5.126 9.383 7.21-13.371 14.05-26.028 20.864-38.698 6.7-12.457 13.489-24.869 19.997-37.425 2.277-4.392 5.314-6.323 10.305-6.17 10.314.314 20.642.221 31.33.986.667 2.309 1.23 3.929 1.231 5.549.047 51.483.051 102.965-.02 154.448-.003 1.51-.608 3.203-1.435 4.488-1.656 2.573-3.661 4.923-5.522 7.365-.445.053-.89.105-1.757-.3-3.515-1.934-6.594-3.253-9.247.313" />
  <path fill="#065ddf" d="M582.986 781.047c-18.395-15.198-31.354-34.373-39.76-56.46-33.84-88.905 23.714-185.51 118.15-198.267 29.542-3.991 58.101.031 85.147 13.718-1.623.114-3.295-.25-5.625-.76 1.071 6.572 6.52 4.623 10.128 6.21-1.216.994-2.546 1.3-3.654 1.973-2.78 1.69-5.936 3.892-3.729 7.455 3.37 5.44 3.173 10.825 2.026 14.847-4.552 1.344-8.286 2.242-11.775 3.718-.47.2-.059 3.464.619 5.014.393.9 2.133 1.21 3.05 1.677-.596 2.588-1.1 4.779-1.95 6.893-3.883-2.024-7.42-3.973-10.563-5.965 2.885-.412 3.95-1.558 1.42-3.2-2.173-1.412-4.695-1.867-6.304 1.473-27.208-10.155-53.795-9.556-80.154 1.778-51.182 22.009-74.083 84.307-49.558 134.353 6.343 12.944 15.28 23.715 25.355 33.737-.48 1.403-.801 2.53-.784 3.654.115 7.28-.126 14.38-5.523 20.22-2.46 2.66-3.667 5.597-2.804 9.746.48 2.3-1.957 5.253-3.21 7.848-.687 1.423-1.647 2.714-2.484 4.064-4.288-3.03-8.577-6.06-12.71-9.54.135-1.821.662-3.643-.018-4.467-1.572-1.902-3.693-2.785-5.29.281" />
  <path fill="#075394" d="m105.336 395.968-.402-6.74H47.88v5.246c-.004 18.152.003 36.303-.02 54.454-.007 6.12-1.097 7.198-7.31 7.22-10.158.035-20.317-.07-30.474.063-4.414.057-6.307-1.69-6.302-6.217.065-53.288.024-106.576.04-159.864 0-5.45 1.402-6.872 6.732-6.903 10.158-.06 20.318-.135 30.472.059 1.956.037 3.89 1.283 5.614 2.636-.353 20.633-.51 40.601-.545 60.57-.001.853 1.132 1.708 1.737 2.562 0 0 .147.014.277.453.994.784 1.856 1.427 2.72 1.43 16.914.065 33.828.091 50.74-.023 1.158-.007 2.307-1.182 3.46-1.813.024-19.324.033-38.647.077-57.97.015-6.624 1.288-7.89 7.846-7.903 9.662-.019 19.324-.046 28.985.045 1.769.016 3.532.578 5.19 1.387.233 3.883.87 7.266.874 10.65.065 48.265-.12 96.532.204 144.796.056 8.278-7.16 14.758-13.997 14.965-1.408.043-2.8.608-4.198.932-3.366.042-6.73.084-10.834-.216-1.544-.479-2.346-.707-3.155-.74-6.6-.272-9.043-2.731-9.044-9.171-.003-15.08.045-30.162-.075-45.241-.013-1.56-1.015-3.112-1.558-4.667" />
  <path fill="#075495" d="m194.003 455.89-.454.092s-.427-.18-.559-.58c-.41-.454-.688-.505-.966-.557-.64-1.75-1.834-3.5-1.837-5.25-.098-53.158-.086-106.316-.07-159.474.003-5.175 1.694-6.91 6.852-6.914 35.661-.024 71.322.018 106.982-.037 3.905-.006 6.674 1.113 6.724 5.44.11 9.496.091 18.996.004 28.493-.01 1.046-.804 2.085-2.133 3.048-24.033-.107-47.168-.172-70.302-.068-1.399.006-2.791 1.36-4.187 2.087v28.079c2.479 0 4.404.002 6.33 0 15.816-.019 31.632-.054 47.45-.049 6.306.002 7.107.865 7.123 7.275.02 7.659.048 15.317.066 22.976.016 6.794-.686 7.545-7.32 7.547-15.817.005-31.634-.023-47.451-.037h-5.78v29.719h6.958c20.812-.016 41.624-.043 62.435-.043 6.901 0 7.233.377 7.209 7.453-.014 3.995-.007 7.991-.443 12.514-1.868 3.398-3.016 6.466-4.826 9.076-1.435 2.07-3.74 3.518-5.545 5.354-1.193 1.214-2.186 2.626-3.268 3.949-6.024.056-12.049.113-18.596-.28-2.645-1.506-4.681-3.156-6.91-3.48-3.04-.441-6.713-.823-7.578 3.738-.71.054-1.418.108-2.502-.353-2.967-4.246-4.921-3.552-6.412.356-8.692.063-17.383.125-26.583-.275-3.685-3.807-5.275-3.638-7.414.272-6.026.064-12.052.129-18.545-.297-.73-4.309-3.684-3.976-5.951-3.463-1.058.24-1.68 2.4-2.5 3.688" />
  <path fill="#0863ee" d="M809.483 596.869c12.18 19.623 18.842 41.062 20.453 64.009 4.48 63.8-30.37 120.755-89.175 145.916-20.701 8.858-42.363 12.527-65.308 10.915-.593-1.133-.54-1.901-.878-2.411-3.146-4.756-3.257-8.465 2.974-10.783 1.07-.398 2.184-2.679 2.037-3.946-.332-2.856-1.442-5.62-2.322-8.733l-5.617 2.306-.318-4.977c-2.05 1.62-3.287 2.894-4.78 3.696-1.632.878-3.684 2.069-5.202 1.695-1.073-.264-2.012-2.844-2.234-4.494-1.006-7.454 3.173-14.893 10.339-18.194 2.28.029 4.114.07 5.94.212 40.28 3.13 79.945-19.055 97.417-55.39 14.272-29.68 14.157-59.74.272-89.734 3.983-.83 7.203-1.764 8.267-6.14.213-.876 2.982-1.567 4.579-1.58 3.189-.024 6.384.704 9.573.683 1.991-.013 3.977-.825 5.965-1.278-.592-2.478-1.138-4.967-1.794-7.427-.4-1.502-1.824-3.795-1.328-4.3 3.623-3.694 4.28-10.032 10.214-11.624 0 0 .017.165-.061.55.277.6.632.814.987 1.029" />
  <path fill="#065394" d="M393.168 416.954c1.948.237 3.896.677 5.845.68 20.627.042 41.255.001 61.883.012 7.61.004 8.024.418 8.04 7.81q.024 11.978-.035 23.955c-.029 5.708-.992 6.727-6.668 6.731-34.436.026-68.871.015-104.024-.353-2.235-.503-3.754-.636-5.564-.734a6 6 0 0 0-.85.215s.118-.266-.022-.394a9 9 0 0 0-1.062-.535s-.008-.063.038-.554c.08-51.92.123-103.351.096-154.782 0-1.358-.755-2.717-1.158-4.075-.046-.414-.092-.827.252-1.806.614-3.086.838-5.606 1.062-8.126 1.951-.595 3.893-1.666 5.855-1.703 9.382-.179 18.77-.077 28.73.301 1.883.24 3.192.103 4.5-.034.98.913 1.96 1.826 2.625 3.382-.446 1.454-.694 2.265-.694 3.076-.018 40.955-.026 81.91.035 122.864.002 1.357.728 2.713 1.116 4.07" />
  <path fill="#0760e4" d="M808.454 594.987c-5.831 1.895-6.488 8.233-10.111 11.926-.496.506.928 2.8 1.328 4.3.656 2.46 1.202 4.95 1.794 7.428-1.988.453-3.974 1.265-5.965 1.278-3.19.02-6.384-.707-9.573-.682-1.597.012-4.366.703-4.579 1.58-1.064 4.375-4.284 5.31-8.542 5.94-8.713-16.9-21.592-29.345-36.847-39.616l1.605-6.97c-.918-.465-2.658-.776-3.051-1.676-.678-1.55-1.09-4.815-.62-5.014 3.49-1.476 7.224-2.374 11.776-3.718 1.147-4.022 1.344-9.408-2.026-14.847-2.207-3.563.949-5.764 3.73-7.455 1.107-.673 2.437-.98 3.653-1.972-3.607-1.588-9.057.36-10.128-6.21 2.33.508 4.002.873 5.882.994 26.142 11.821 46.335 30.334 61.674 54.714" />
  <path fill="#0760e5" d="M669.003 771.927c-6.717 3.242-10.896 10.68-9.89 18.135.222 1.65 1.16 4.23 2.234 4.494 1.518.374 3.57-.817 5.203-1.695 1.492-.802 2.73-2.077 4.779-3.696l.318 4.977 5.617-2.306c.88 3.112 1.99 5.877 2.322 8.733.147 1.267-.966 3.548-2.037 3.946-6.23 2.318-6.12 6.027-2.974 10.783.337.51.285 1.278.42 2.305-23.251.44-44.624-6.475-64.945-17.222-2.933-1.551-5.712-3.393-8.804-5.354.595-1.604 1.555-2.895 2.242-4.318 1.253-2.595 3.69-5.548 3.21-7.848-.863-4.149.345-7.086 2.804-9.746 5.397-5.84 5.638-12.94 5.523-20.22-.017-1.123.303-2.251 1.097-3.55 8.11 4.588 15.591 9.347 23.003 14.505-1.31 4.711 1.518 9.369 6.128 9.98 3.924.52 6.932-.738 7.284-5.441 5.76 1.219 11.113 2.378 16.466 3.538" />
  <path fill="#275d94" d="M130.389 456.11c1.012-.43 2.403-.996 3.81-1.039 6.838-.207 14.054-6.687 13.998-14.965-.323-48.264-.139-96.53-.204-144.797-.005-3.383-.64-6.766-.605-10.312 1.03 1.79 2.247 3.742 2.25 5.697.101 52.958.055 105.915.114 158.873.005 4.595-1.779 6.842-6.487 6.703-4.16-.123-8.326-.043-12.876-.16" />
  <path fill="#1c5695" d="M666.422 456.074c1.438-2.532 3.443-4.882 5.099-7.455.827-1.285 1.432-2.979 1.435-4.488.071-51.483.067-102.965.02-154.448-.001-1.62-.564-3.24-.916-5.276.932 1.782 2.757 3.974 2.77 6.178.18 30.775.11 61.552.108 92.329-.001 21.793.011 43.586.015 65.38.001 7.146-.775 7.896-8.53 7.78" />
  <path fill="#396ca4" d="M349.52 295.306c.57.982 1.325 2.34 1.325 3.7.027 51.43-.017 102.86-.127 154.774-.539-1.199-1.405-2.88-1.406-4.562-.04-51.18.007-102.358.208-153.912" />
  <path fill="#275d94" d="M105.225 396.427c.654 1.096 1.656 2.648 1.669 4.208.12 15.08.072 30.16.075 45.24.001 6.44 2.445 8.9 9.044 9.172.81.033 1.61.261 2.7.673-14.732 1.233-13.763.516-13.668-12.499.113-15.444.054-30.89.18-46.794" />
  <path fill="#004085" d="M234.505 322.032c.948-.589 2.34-1.943 3.74-1.95 23.133-.103 46.268-.038 69.922.063-1.267.57-3.052 1.49-4.842 1.502-22.79.158-45.582.186-68.82.385m158.709 94.458c-.434-.893-1.16-2.249-1.162-3.606-.061-40.955-.053-81.91-.035-122.864 0-.811.248-1.622.677-2.728.403 4.508.6 9.31.602 14.113.009 38.207-.02 76.414-.082 115.085M47.817 348.582c-.598-.382-1.731-1.237-1.73-2.09.035-19.969.192-39.937.625-60.198.572 1.458 1.078 3.209 1.083 4.96.05 18.952.023 37.904.022 57.328" />
  <path fill="#054b87" d="M297.449 456.07c.628-1.41 1.62-2.822 2.814-4.036 1.805-1.836 4.11-3.285 5.545-5.354 1.81-2.61 2.958-5.678 4.731-8.616.412 3.923.375 7.919.586 11.902.238 4.503-1.783 6.469-6.231 6.238-2.325-.12-4.661-.037-7.445-.133" />
  <path fill="#004085" d="M104.557 349.177c-.689.555-1.838 1.73-2.996 1.737-16.912.114-33.826.088-50.74.024-.864-.004-1.726-.647-2.737-1.359 18.571-.353 37.29-.34 56.473-.402" />
  <path fill="#396ca4" d="M519.687 248.594c2.718.26 5.527 1.396 8.354 1.443 12.358.201 24.72.086 37.556.086-.199-1.81-.35-3.185-.474-4.966 1.203 1.665 2.378 3.736 4.046 6.676-4.875 0-8.621-.005-12.367.001-10.47.018-20.943.185-31.406-.07-1.891-.047-3.74-1.82-5.709-3.17m-402.278 1.607c15.523-.11 30.781.04 46.52.337-.692.536-1.861 1.255-3.035 1.262-13.538.08-27.076.084-40.613-.006-1.049-.007-2.092-.87-2.872-1.593" />
  <path fill="#004085" d="M365.444 110.45c-.443-.642-1.378-1.742-1.38-2.845-.058-27.36-.018-54.72.02-82.08 0-.31.203-.622.606-1.23.422 12.456.607 25.207.661 37.96.068 15.91.029 31.822.093 48.194m-44.593 509.047c.391.73 1.099 1.924 1.102 3.12.06 24.953.042 49.905.019 74.858 0 .645-.239 1.29-.657 2.235-.352-26.381-.414-53.064-.464-80.213" />
  <path fill="#054b87" d="M264.308 456.048c.468-4.648 4.14-4.266 7.182-3.824 2.228.323 4.264 1.973 6.449 3.387-4.37.411-8.802.468-13.631.437" />
  <path fill="#1c5695" d="M633.463 446.395c.593.343 1.463 1.114 1.44 1.859-.075 2.578.744 3.651 3.535 3.94 1.566.162 2.96 2.005 4.498 3.446-9.207.978-9.792.423-9.473-9.245" />
  <path fill="#054b87" d="M194.434 456.007c.39-1.407 1.012-3.566 2.07-3.806 2.267-.513 5.221-.846 5.49 3.37-2.37.449-4.75.501-7.56.436" />
  <path fill="#0760e5" d="M583.122 781.339c1.461-3.358 3.582-2.475 5.154-.573.68.824.153 2.646-.147 4.17-1.838-.998-3.354-2.152-5.007-3.597" />
  <path fill="#1c5695" d="M655.367 456.089c2.281-3.658 5.36-2.339 8.544-.478-2.663.445-5.418.507-8.544.478m-26.501-85.905c.63-2.13 1.37-4.543 2.444-6.795.262-.55 1.628-.572 2.486-.837.1 1.09.2 2.18 0 3.363-.523-.513-.746-1.119-1.121-2.14-1.321 2.284-2.45 4.235-3.809 6.41" />
  <path fill="#054b87" d="M221.431 456.046c1.708-3.995 3.298-4.164 6.523-.45-2 .423-4.045.479-6.523.45m33.948.002c1.109-3.992 3.063-4.686 5.682-.521-1.75.49-3.525.548-5.682.52" />
  <path fill="#396ca4" d="M350.676 285.159c.101 2.36-.123 4.88-.664 7.659-.099-2.327.12-4.912.664-7.66" />
  <path fill="#1c5695" d="M633.485 394.405c.339 1.828.539 4.078.43 6.47-.396-1.92-.482-3.984-.43-6.47" />
  <path fill="#396ca4" d="M389.793 283.354c-1.015.345-2.324.482-3.747.304 1.075-.38 2.264-.446 3.747-.304M164.92 250.173c.152-.8.537-1.788 1.292-2.802-.106.854-.582 1.734-1.292 2.802" />
  <path fill="#054b87" d="M352.937 455.02c1.518.133 3.037.266 4.812.677-1.134.327-2.524.376-4.345.103-.43-.322-.467-.78-.467-.78" />
  <path fill="#0760e4" d="M809.39 596.59c-.262.064-.617-.15-.954-.693.299-.081.58.166.954.692" />
  <path fill="#1c5695" d="M628.337 370.943c-.256-.116-.438-.29-.62-.464.135-.016.27-.031.571.088.165.134.123.317.05.376" />
  <path fill="#054b87" d="M192.197 455.048c.105-.151.384-.1.673.155-.16.152-.33.1-.673-.155" />
  <path fill="#396ca4" d="M350.792 454.586c.226-.11.533.026.91.417-.23.113-.53-.03-.91-.417m1.853.469c.292-.035.328.423.35.651-.305.165-.634.1-1.082-.2.068-.296.254-.356.732-.45" />
  <path fill="#f7fafd" d="M669.452 771.868c-5.802-1.1-11.156-2.26-17.194-3.663-4.812-1.746-8.938-3.25-13.064-4.753-7.48-4.76-14.962-9.52-22.756-14.384-10.704-9.85-19.64-20.62-25.984-33.564-24.525-50.046-1.624-112.344 49.558-134.353 26.36-11.334 52.946-11.933 80.186-1.79.4.023.46-.008.612.21.496.27.84.325 1.388.6.956.472 1.707.722 2.458.973 3.537 1.948 7.074 3.897 10.957 5.921 15.601 10.347 28.48 22.792 36.82 39.84 14.533 30.046 14.648 60.105.376 89.785-17.472 36.335-57.137 58.52-97.416 55.39-1.827-.142-3.662-.183-5.941-.212m-17.287-112.015v33.272h58.83V651.34h-57.902c-.308 2.682-.59 5.133-.928 8.512m55.5-28.82c-2.833-13.243-6.835-26.046-14.557-37.37-6.79-9.958-16.047-10.277-22.166-.008-4.72 7.92-8.293 16.605-11.62 25.241-2.093 5.435-2.792 11.408-4.216 17.573h53.176c-.186-1.722-.34-3.147-.617-5.436m-3.488 95.665 4.67-18.423h-53.4c.565 3.31.923 6.254 1.585 9.128 2.826 12.26 7.005 24.04 14.302 34.377 6.209 8.795 15.05 9.119 20.68.216 4.832-7.64 8.031-16.314 12.163-25.298m-70.926-33.356h4.903v-41.926h-40.89c-3.903 13.157-3.548 26.308-.624 39.438.257 1.152 2.76 2.544 4.238 2.566 10.474.16 20.953-.01 32.373-.078m112.25-42.227h-19.932l.001 41.971h41.269c3.378-14.158 3.358-27.903-.17-41.972zM713.457 602.1l10.57 34.389h36.72c-6.586-19.868-32.486-41.703-52.062-45.137 1.516 3.455 2.966 6.761 4.772 10.748m-61.453-3.548 3.593-7.928c-24.55 8.033-41.5 23.161-53.117 45.716h37.13c4.186-12.825 8.144-24.953 12.394-37.788m67.956 123.9-10.359 30.57c18.567-2.954 46.91-27.73 50.835-44.754h-37.074a4168 4168 0 0 0-3.402 14.184m-88.637 19.762c7.253 4.848 14.676 9.316 22.752 11.134l-14.38-44.968h-36.72c6.41 14.059 15.912 24.71 28.348 33.834" />
  <path fill="#0760e4" d="M725.05 581.1c-1.145-.207-1.896-.457-3.01-1.145-.703-.492-1.043-.547-1.382-.602 0 0-.06.03-.091.043 1.208-3.363 3.73-2.908 5.904-1.497 2.53 1.643 1.464 2.789-1.42 3.201" />
  <path fill="#0c67ec" d="M639.125 763.85c4.195 1.105 8.321 2.609 12.727 4.296.333 4.946-2.675 6.203-6.6 5.684-4.61-.611-7.437-5.269-6.127-9.98" />
  <path fill="#0863e9" d="M652.194 659.39c.31-2.916.591-5.367.899-8.049h57.902v41.784h-58.83c0-11.143 0-22.207.029-33.736" />
  <path fill="#0a63e6" d="M707.727 631.465c.216 1.857.37 3.282.555 5.004h-53.176c1.424-6.165 2.123-12.138 4.217-17.573 3.326-8.636 6.9-17.322 11.619-25.241 6.119-10.27 15.376-9.95 22.166.008 7.722 11.324 11.724 24.127 14.62 37.802" />
  <path fill="#0a64ea" d="M704.072 727.082c-4.027 8.6-7.226 17.274-12.058 24.914-5.63 8.903-14.471 8.579-20.68-.216-7.297-10.337-11.476-22.116-14.302-34.377-.662-2.874-1.02-5.818-1.586-9.128h53.4c-1.618 6.384-3.143 12.404-4.774 18.807" />
  <path fill="#0961e3" d="M632.78 693.344c-10.95.066-21.428.235-31.902.076-1.478-.022-3.981-1.414-4.238-2.566-2.924-13.13-3.279-26.281.624-39.438h40.89v41.926c-1.416 0-3.16 0-5.375.002" />
  <path fill="#0864ee" d="M746 651.115h20.67c3.527 14.068 3.547 27.813.169 41.971h-41.27v-41.97z" />
  <path fill="#0c67ec" d="M713.28 601.76c-1.629-3.647-3.08-6.953-4.595-10.408 19.576 3.434 45.476 25.27 52.062 45.137h-36.72c-3.574-11.628-7.072-23.008-10.748-34.73" />
  <path fill="#0c63e5" d="M651.858 598.906c-4.104 12.481-8.062 24.609-12.248 37.434h-37.13c11.617-22.555 28.567-37.683 53.117-45.716-1.47 3.244-2.531 5.586-3.74 8.282" />
  <path fill="#0c67f0" d="M720.048 722.05c1.137-4.75 2.185-9.099 3.314-13.782h37.074c-3.925 17.023-32.268 41.8-50.835 44.755a7922 7922 0 0 0 10.447-30.973" />
  <path fill="#0a63e6" d="M631.033 742.006c-12.146-8.915-21.648-19.567-28.058-33.626h36.72l14.38 44.968c-8.076-1.818-15.5-6.286-23.042-11.342" />
</g></svg>