<svg id="Layer_1" data-name="Layer 1" xmlns="http://www.w3.org/2000/svg" xmlns:xlink="http://www.w3.org/1999/xlink" viewBox="0 0 200 50.78"><defs><linearGradient id="linear-gradient" x1="-8427.17" y1="1637.96" x2="-8100.78" y2="1637.96" gradientTransform="matrix(-.02 -.12 -.12 .02 99.22 -893.38)" gradientUnits="userSpaceOnUse"><stop offset=".32" stop-color="#9e2064"/><stop offset=".63" stop-color="#c92037"/><stop offset=".75" stop-color="#cd2335"/><stop offset="1" stop-color="#e97826"/></linearGradient><linearGradient id="linear-gradient-2" x1="-8427.17" y1="1639.15" x2="-8100.78" y2="1639.15" xlink:href="#linear-gradient"/><linearGradient id="linear-gradient-3" x1="-8207.77" y1="1639.36" x2="-8207.77" y2="1639.36" xlink:href="#linear-gradient"/><linearGradient id="linear-gradient-4" x1="-8760.11" y1="1242.94" x2="-8433.71" y2="1242.94" gradientTransform="matrix(.07 -.11 -.11 -.07 882.91 -763.12)" xlink:href="#linear-gradient"/><linearGradient id="linear-gradient-5" x1="-8760.11" y1="1244.13" x2="-8433.71" y2="1244.13" gradientTransform="matrix(.07 -.11 -.11 -.07 882.91 -763.12)" xlink:href="#linear-gradient"/><linearGradient id="linear-gradient-6" x1="-8540.71" y1="1244.34" x2="-8540.71" y2="1244.34" gradientTransform="matrix(.07 -.11 -.11 -.07 882.91 -763.12)" xlink:href="#linear-gradient"/><style>.cls-1{fill:#f69923}.cls-2{fill:none}.cls-3,.cls-4{fill:#be202e}.cls-4{opacity:.35;isolation:isolate}.cls-5{fill:#e97826}.cls-6{fill:#9f2064}.cls-7{fill:#c92037}</style></defs><g id="g7248"><path id="path7258" class="cls-1" d="M92.37 84.76a13.94 13.94 0 00-.59 3.93l2.11 1A28.18 28.18 0 0194 86v-.14.14a24.37 24.37 0 000 3.71 40.87 40.87 0 003.13-3 4.52 4.52 0 00-2.36-2.53s-1.84-.75-2.4.58z" transform="translate(0 -74.61)"/><path id="path7260" class="cls-2" d="M97.86 95.39l-.12.11z" transform="translate(0 -74.61)"/><path id="path7262" class="cls-2" d="M99.15 99.05l-.19.2z" transform="translate(0 -74.61)"/><path id="path7264" class="cls-2" d="M97.94 110.27v-.1l-.52-1.93c-.19-.7-.37-1.39-.54-2.06s-.34-1.38-.49-2-.32-1.37-.46-2-.23-1.05-.33-1.55c0-.17-.07-.33-.1-.5l-.18-1c-.06-.29-.11-.57-.17-.85a2.16 2.16 0 00-.05-.27L95 98l-.21-.1v.07c.07.42.14.85.22 1.27.05.25.1.5.14.75.13.69.27 1.37.42 2.06s.3 1.39.46 2.08.31 1.35.48 2 .32 1.33.5 2 .35 1.37.54 2c0 .15.08.31.12.45.15.54.29 1.07.45 1.59l.33.17.12-.1c-.26-.65-.45-1.33-.63-1.97z" transform="translate(0 -74.61)"/><path id="path7268" class="cls-3" d="M99.69 101l-.31.32.16-.16z" transform="translate(0 -74.61)"/><path id="path7270" class="cls-4" d="M99.69 101l-.31.32.16-.16z" transform="translate(0 -74.61)"/><path id="path7272" class="cls-3" d="M98.91 99.29l.19-.2-.24.24z" transform="translate(0 -74.61)"/><path id="path7274" class="cls-4" d="M98.91 99.29l.19-.2-.24.24z" transform="translate(0 -74.61)"/><path id="path7286" class="cls-5" d="M94.44 95.94c-.09-.7-.18-1.39-.26-2.07s-.15-1.4-.2-2.08v-.12c0-.67-.08-1.32-.1-2l-2.11-1v4c0 .7 0 1.3.07 2s.07 1.16.12 1.76a.17.17 0 000 .07l2.81 1.43c-.12-.67-.23-1.33-.33-1.99z" transform="translate(0 -74.61)"/><path id="path7298" class="cls-6" d="M98.61 112.61q.23.8.48 1.62a1.55 1.55 0 00.07.23c.11.37.22.7.46 1.46a2.8 2.8 0 011.62.39 2.33 2.33 0 00-1.54-.84c1.72-1.15 2.86-2.64 2.7-4.4 0-.16 0-.32-.07-.49a2 2 0 01-1.13 1.71 5.6 5.6 0 00.9-3.51c0-.29-.06-.59-.11-.92a4.51 4.51 0 01-2.62 3.64l-.86.79z" transform="translate(0 -74.61)"/><path id="path7310" class="cls-7" d="M97.51 110.21l-.54-2c-.17-.65-.34-1.32-.5-2l-.48-2c-.16-.69-.31-1.38-.46-2.08s-.28-1.38-.41-2.06c-.05-.25-.1-.49-.14-.74-.08-.43-.15-.85-.23-1.28a.17.17 0 000-.07l-2.8-1.43v.14c0 .63.11 1.28.18 1.92s.16 1.32.26 2 .17 1.12.26 1.68l.06.34c.13.7.27 1.37.42 2s.35 1.38.53 2c.12.41.24.8.36 1.18s.22.63.34.94c.26.72.56 1.43.88 2.12l2.83 1.44c-.15-.52-.29-1-.44-1.59z" transform="translate(0 -74.61)"/><path id="path7322" class="cls-6" d="M95.28 110.91a20.56 20.56 0 001.31 2.4.22.22 0 000 .08 5.89 5.89 0 00-2.16-.17 8.05 8.05 0 013.48 2 3.73 3.73 0 01-1.65.83 3.68 3.68 0 001.81-.16 4.34 4.34 0 00-1.1 2.14 4.54 4.54 0 011.78-1.89c.85 2.82 1.88 5.88 3 9.08a.85.85 0 00.13-.8c-.21-.57-1.56-4.39-3.1-9.57 0-.14-.08-.29-.13-.44v-.13l-.49-1.67c0-.13-.07-.26-.11-.39l-2.83-1.43z" transform="translate(0 -74.61)"/><path id="path7334" class="cls-7" d="M95.07 98a2.56 2.56 0 01.05.27c.06.28.11.57.17.85l.18 1c0 .17.07.33.1.5.1.5.21 1 .33 1.55s.29 1.32.46 2 .32 1.35.49 2 .35 1.36.54 2.06.34 1.27.52 1.93v.1c.18.64.37 1.32.57 2l.86-.79h-.07a8.19 8.19 0 002.08-4.6 11.11 11.11 0 000-2.57 15 15 0 00-.41-2.2c-.17-.68-.37-1.4-.63-2.15a4.18 4.18 0 01-.65.94l-.15.16-.15.16a5 5 0 00.61-3.71 4.59 4.59 0 01-.85 1.47 1.75 1.75 0 01-.19.2 5.36 5.36 0 00.55-1.21 1 1 0 00.06-.25c0-.13 0-.26.07-.39v-.25a3.11 3.11 0 000-.61v-.19V96c-.07-.4-.15-.74-.22-1s-.08-.28-.12-.41a.57.57 0 000-.14c0-.14-.08-.26-.12-.37s-.12-.27-.16-.35a.7.7 0 01-.06.17 5.85 5.85 0 01-1 1.38l.78-.72-.78.72-.11.12-2.69 2.46s-.05.14-.06.14z" transform="translate(0 -74.61)"/><path id="path7346" class="cls-5" d="M94 89.66c0 .59.09 1.25.15 2v.11c.06.64.14 1.33.24 2.09s.18 1.33.29 2.07.22 1.32.34 2l2.69-2.47a4.42 4.42 0 00.68-2.43v-.67c0-.69-.13-1.42-.25-2.12a17.25 17.25 0 00-.4-1.91 7.76 7.76 0 00-.31-1c-.09-.24-.19-.46-.29-.67a42.66 42.66 0 01-3.14 3z" transform="translate(0 -74.61)"/><path id="path7348" class="cls-3" d="M99.54 101.13l-.15.16a1.1 1.1 0 01.15-.16z" transform="translate(0 -74.61)"/><path id="path7350" class="cls-4" d="M99.54 101.13l-.15.16a1.1 1.1 0 01.15-.16z" transform="translate(0 -74.61)"/><path id="path7362" d="M99.54 101.13l-.15.16a1.1 1.1 0 01.15-.16z" transform="translate(0 -74.61)" fill="url(#linear-gradient)"/><path id="path7364" class="cls-3" d="M98.91 99.3z" transform="translate(0 -74.61)"/><path id="path7366" class="cls-4" d="M98.91 99.3z" transform="translate(0 -74.61)"/><path id="path7378" d="M98.91 99.3z" transform="translate(0 -74.61)" fill="url(#linear-gradient-2)"/></g><path id="path4317" d="M10.05 74.61h9.86a2 2 0 011.45.42 1.33 1.33 0 01.42.91A10.32 10.32 0 0022 77c.08.64.17 1.31.25 2s.22 1.31.3 2q.66 3.81 1.09 7.74t1.15 7.8c.16.81.28 1.64.36 2.48a24.25 24.25 0 00.36 2.48l.12.61a.74.74 0 00.31.48.7.7 0 01.18.12.3.3 0 00.3-.06 1.27 1.27 0 00.79-.72 11.87 11.87 0 01.6-1.09c.48-.93.95-1.84 1.39-2.72s.93-1.86 1.45-2.79L34.48 88q2-3.75 3.93-7.5c.33-.65.65-1.27 1-1.88s.71-1.29 1-1.93a10.33 10.33 0 01.54-1 2.4 2.4 0 01.85-.79 1.64 1.64 0 011-.3h10.4a1.2 1.2 0 01.85.24c.4.24.52.71.36 1.39s-.24 1.31-.36 2l-1.85 9.08-4.53 22.5-1 5.26c-.08.44-.18.89-.3 1.33a1.68 1.68 0 01-.61.91 2 2 0 01-1 .36H39a7.26 7.26 0 00-.79-.18.7.7 0 01-.48-.42 1.23 1.23 0 01-.12-.79c.08-.32.16-.66.24-1l.6-3.08 3.15-15.55c.08-.56.16-1.08.24-1.57s.22-1 .3-1.57l.25-1a4.73 4.73 0 00.12-1 3.39 3.39 0 010-.9c.08-.33 0-.53-.18-.61a.28.28 0 00-.33 0l-.18.18a2.91 2.91 0 00-.54.61l-.37.6c-.36.61-.72 1.23-1.08 1.88s-.69 1.29-1.09 1.93l-.37.73a3.29 3.29 0 01-.36.73c-.32.52-.62 1-.91 1.57a15 15 0 01-.84 1.57 1.33 1.33 0 00-.18.42 1.3 1.3 0 01-.19.37 9.85 9.85 0 00-.66 1.15 5.87 5.87 0 01-.63 1.26 10.59 10.59 0 00-.66 1.14 7.23 7.23 0 01-.61 1.21c-.72 1.17-1.39 2.36-2 3.57s-1.23 2.34-1.88 3.51a.94.94 0 00-.24.36.56.56 0 01-.18.37c-.28.44-.54.9-.79 1.39a11.63 11.63 0 01-.72 1.33c-.16.28-.32.54-.49.78a2.48 2.48 0 01-.54.61 1.85 1.85 0 01-.67.3 3.37 3.37 0 00-.78.12h-1.38c-.28 0-.63 0-1 .06h-1.18a8.4 8.4 0 01-1-.06 1.14 1.14 0 01-.66-.24 1.32 1.32 0 01-.55-.67 5.59 5.59 0 00-.24-1c-.08-.49-.14-1-.18-1.45a9.27 9.27 0 00-.24-1.52l-.06-.54a10.34 10.34 0 01-.25-1.51 9.35 9.35 0 00-.3-1.56v-.3a1.13 1.13 0 00-.06-.36 5.33 5.33 0 01-.24-1.15c0-.4-.1-.81-.18-1.21v-.3a.67.67 0 00-.06-.3c-.08-.41-.14-.81-.18-1.21a4.17 4.17 0 00-.18-1.21c-.17-.81-.31-1.66-.43-2.54s-.2-1.76-.36-2.6q-.24-1.51-.42-3.09a14.92 14.92 0 00-.55-3 5.26 5.26 0 00-.34-1.41.94.94 0 00-.24-.18q-.06-.14-.24 0a.9.9 0 00-.49.6 3.51 3.51 0 01-.24.85 2.4 2.4 0 00-.3.9c0 .29-.08.59-.12.91s-.19.89-.31 1.33-.18.89-.3 1.33l-3.2 16.09-.61 3-.24 1a1.32 1.32 0 01-.36.79 1.53 1.53 0 01-1 .54 3.34 3.34 0 01-.91.12 7.77 7.77 0 00-1-.06H1.1a1.39 1.39 0 01-.85-.36 1.09 1.09 0 01-.25-.98l.24-1.33 1-5.32 4.54-22.5 1.69-8.47q.06-.36.12-.84c.08-.37.16-.71.24-1s.16-.63.24-.91.23-.56.31-.72a2 2 0 011.09-.61q.18-.06.24 0a1 1 0 00.3-.06z" transform="translate(0 -74.61)"/><path id="path4319" d="M82.34 115.31a7.39 7.39 0 01-.12 1.33 1.13 1.13 0 01-.79.91 2.27 2.27 0 01-.91.18H75.2a1.26 1.26 0 01-.73-.3 1.14 1.14 0 01-.48-.67 1.64 1.64 0 00-.42-.78.75.75 0 00-.3-.18.48.48 0 00-.43-.06 3.32 3.32 0 00-.66.3 4.3 4.3 0 01-.61.3 4.84 4.84 0 01-.78.42c-.25.13-.51.25-.79.37a13.37 13.37 0 01-1.75.6c-.61.12-1.21.26-1.82.43a3.74 3.74 0 01-.91.12l-.78.12h-.37a1.13 1.13 0 01-.36.06h-.66a3.07 3.07 0 01-1.21 0h-.55a3 3 0 00-.84-.12 1.51 1.51 0 01-.73-.06l-1.09-.28a2.56 2.56 0 01-1-.3 8.1 8.1 0 01-2.63-1.7 5.76 5.76 0 01-1.39-2.84 6.37 6.37 0 01-.18-.91 9.43 9.43 0 00-.06-1 1.51 1.51 0 010-.6 1.7 1.7 0 00.12-.61q0-.18.06-.72a3.68 3.68 0 01.24-.85 4.76 4.76 0 00.31-1l.6-1.33a7.06 7.06 0 01.79-1.27 10.06 10.06 0 012.84-2.66 16.09 16.09 0 013.75-1.57 8.07 8.07 0 011.69-.43c.57-.08 1.15-.18 1.76-.3a4.19 4.19 0 011-.12 9.56 9.56 0 001.17-.2 2.06 2.06 0 01.85-.06 4.57 4.57 0 001-.12 3 3 0 01.84-.12 3.74 3.74 0 00.91-.12c.89-.21 1.7-.37 2.42-.49a5 5 0 002.18-1.09 4.66 4.66 0 001-1.21 1 1 0 00.06-.3.53.53 0 01.06-.24.49.49 0 00.12-.36 1.77 1.77 0 01.12-.37v-.9a2.91 2.91 0 00-2.06-2.48 4.66 4.66 0 00-1.27-.25 6.29 6.29 0 00-1.51-.06 10.38 10.38 0 00-1.57.12 9.47 9.47 0 00-1.27.31 2.83 2.83 0 00-.79.36 6.71 6.71 0 00-.72.42 5 5 0 00-.79.67 3.48 3.48 0 00-.61.78c-.28.41-.52.79-.72 1.15a1.52 1.52 0 01-1 .73 4.22 4.22 0 01-1 .12h-3.5a4.06 4.06 0 00-.67.06 1.56 1.56 0 01-.48-.06h-.55a.67.67 0 00-.3-.06.41.41 0 01-.3-.12c-.28-.08-.45-.34-.49-.79a1.44 1.44 0 01.13-.6c.08-.2.16-.38.24-.55.2-.44.4-.84.6-1.21a12.63 12.63 0 01.73-1.08l.48-.61.49-.6a8.29 8.29 0 011.45-1.27 1.23 1.23 0 00.42-.31l.6-.42.67-.36a10.64 10.64 0 012.36-1c.85-.28 1.69-.55 2.54-.79a10.65 10.65 0 011.57-.31 12.11 12.11 0 001.63-.24 2.18 2.18 0 01.73 0 1.09 1.09 0 00.67-.06 34.78 34.78 0 014.65.18 14.94 14.94 0 013.93.91 7.59 7.59 0 012.85 1.81 5.3 5.3 0 011.51 2.84 7.75 7.75 0 010 2.36c-.12.89-.28 1.8-.49 2.72L83 110.05c-.12.77-.26 1.55-.42 2.36a8 8 0 00-.18 2.12 1.76 1.76 0 01-.06.42v.36zm-7-9.31a3.11 3.11 0 00.18-.67 5.21 5.21 0 00.06-.72 3.48 3.48 0 01.06-.67.45.45 0 00-.18-.48 1.17 1.17 0 00-.84-.24l-.43.12a2.58 2.58 0 00-.48.06 6.11 6.11 0 01-.91.18c-.32 0-.66.1-1 .18a1.82 1.82 0 01-.54.06 12.59 12.59 0 01-1.63.24 6.8 6.8 0 00-1.58.31l-1 .24a3.28 3.28 0 00-.85.24 7.23 7.23 0 00-2.48 1.63 4.75 4.75 0 00-1.27 3 2.8 2.8 0 00.36 1.69 2.08 2.08 0 001 1.09 7.47 7.47 0 001.75.54 8.66 8.66 0 002.06.12 12.38 12.38 0 002.18-.42 6.66 6.66 0 002.8-1.5 9.51 9.51 0 001.94-2.66 7.19 7.19 0 00.3-.85 5 5 0 01.36-1l.12-.54z" transform="translate(0 -74.61)"/><path id="path4323" d="M152.48 101.83a3 3 0 01-.24 1.08 1.44 1.44 0 01-.61.79 2.1 2.1 0 01-.91.36l-1.33.12H148c-.44 0-.84-.06-1.21-.06h-15.6a1.67 1.67 0 00-.67.13 1.85 1.85 0 00-.72.48 3.58 3.58 0 00-.36.48 1.12 1.12 0 00-.19.61 2.18 2.18 0 010 .72 4.06 4.06 0 00.06.67 7.83 7.83 0 00.67 2.42 5.49 5.49 0 001.57 1.63 2.69 2.69 0 00.91.42 4.43 4.43 0 011 .25 7.84 7.84 0 001.27.18 6.11 6.11 0 001.51-.06h.54l1.15-.24 1.09-.37c.44-.2.95-.46 1.51-.78a6.46 6.46 0 001.33-1 8.41 8.41 0 01.79-.79 2.49 2.49 0 01.91-.6 3.24 3.24 0 011.57-.24h2.48a1.45 1.45 0 01.73.06h.6a2.24 2.24 0 01.79.3q.18.12.12.54a1.41 1.41 0 01-.18.73 12.06 12.06 0 01-1 1.51c-.33.44-.69.89-1.09 1.33a15.87 15.87 0 01-3.63 3.21 20 20 0 01-4.66 2.05 6.09 6.09 0 01-1.39.3 13 13 0 00-1.45.25 1.23 1.23 0 01-.54 0 2.05 2.05 0 00-.49.06h-.66a1.52 1.52 0 01-.73.06 3.37 3.37 0 01-.66-.06 3 3 0 00-.85 0 1.82 1.82 0 01-.79-.06 1.76 1.76 0 00-.66-.12 1.25 1.25 0 01-.61-.13c-.44-.08-.88-.18-1.33-.3a3.34 3.34 0 01-1.09-.42c-.4-.16-.78-.3-1.15-.42a6.21 6.21 0 01-1-.55 13.51 13.51 0 01-2.91-2.78 11.45 11.45 0 01-1.69-3.75 7.75 7.75 0 01-.24-1.33 6 6 0 00-.18-1.45v-.43a2 2 0 00.06-.48 10.27 10.27 0 010-1.57l.24-1.7a3.37 3.37 0 00.06-.66 3.46 3.46 0 01.18-.67l.18-.72.49-1.45c.28-.69.54-1.35.78-2a10.22 10.22 0 01.91-1.81 21 21 0 0110.64-8.89 7.24 7.24 0 011.82-.49c.6-.12 1.25-.26 1.93-.42a7.56 7.56 0 01.91-.06 7.43 7.43 0 00.91-.06 13.83 13.83 0 015.14.72 12.22 12.22 0 013.57 1.94 6 6 0 01.91.85 4.06 4.06 0 01.78.9 1 1 0 00.42.49 7.51 7.51 0 01.61 1.39c.2.44.42.91.66 1.39a4.7 4.7 0 01.25 1.15c.08.36.16.76.24 1.21a10.78 10.78 0 01.12 1.63l.12 1.69a3.81 3.81 0 01-.18 1.09 3.05 3.05 0 00-.06 1l-.12.67zm-8.41-3.57a1.58 1.58 0 00.36-1.45c-.08-.61-.14-1-.18-1.33A4.73 4.73 0 00142.5 93a6.38 6.38 0 00-3.69-1 .5.5 0 01-.42.06.78.78 0 00-.43 0 4.74 4.74 0 01-.72.18 1.78 1.78 0 00-.67.12 8.42 8.42 0 00-4.57 3.36 5.07 5.07 0 00-.43.66 2.83 2.83 0 00-.36.79 2.27 2.27 0 00-.12.72.74.74 0 00.3.61 2.2 2.2 0 001.27.3h10.1a1.71 1.71 0 001.31-.54z" transform="translate(0 -74.61)"/><path id="path4325" d="M178.56 85.74a11.56 11.56 0 015.8 1 6.41 6.41 0 013.15 3.38 4.35 4.35 0 01.36 1.46c.08.48.14 1 .18 1.51a3.39 3.39 0 010 .9 3 3 0 000 .85.75.75 0 00-.06.48 14.25 14.25 0 01-.24 1.76c-.12.6-.24 1.19-.36 1.75l-1 5.39-2 9.79c-.16.77-.32 1.51-.48 2.24a1.68 1.68 0 01-1.15 1.33 2.68 2.68 0 01-.85.12h-4.23a11.76 11.76 0 01-1.27-.06 1.17 1.17 0 01-.79-.54 1.63 1.63 0 01-.12-.91c.08-.4.16-.83.24-1.27l.85-4.23 1.82-9c.28-1.5.48-2.87.6-4.12a5.65 5.65 0 00-.42-3.26 3.42 3.42 0 00-2.12-1.7 1.76 1.76 0 00-.66-.12 1.62 1.62 0 01-.61-.12 2.58 2.58 0 00-.79 0 2.85 2.85 0 00-.66.06 2.58 2.58 0 01-.48.06 1.15 1.15 0 00-.37.06 8.48 8.48 0 00-2.42 1 7.41 7.41 0 00-3.14 4 54.37 54.37 0 00-1.51 6l-1.52 7.56-.72 3.69-.24 1.09a2.65 2.65 0 01-.37.9 1.61 1.61 0 01-1.15.79 9.29 9.29 0 01-1.63.12h-3c-.45 0-.89 0-1.33-.06s-.73-.18-.85-.42a2 2 0 01-.12-1.57c.16-.69.3-1.33.42-1.94l1.64-8.22 2.66-13.31.66-3.08c.08-.45.16-.85.24-1.21A1.63 1.63 0 01161 87a.62.62 0 01.42-.24 3.28 3.28 0 01.61-.18h.3a3.07 3.07 0 01.6-.07h3.21a6.59 6.59 0 01.91.07 2.66 2.66 0 01.84.12.73.73 0 01.43.54 2.68 2.68 0 01.12.85 1.33 1.33 0 01-.06.42.55.55 0 000 .36.88.88 0 00.12.37l.3.18A1.46 1.46 0 00170 89a4.77 4.77 0 011.09-.84 18.41 18.41 0 014-1.94 6.56 6.56 0 011.11-.22c.4 0 .85-.1 1.33-.18a1.2 1.2 0 01.54 0 1.28 1.28 0 00.49-.08z" transform="translate(0 -74.61)"/><g id="text9112"><path id="path4328" d="M193.53 85.69s.06.1.06.21a.72.72 0 01-.06.29v.09a.68.68 0 01-.11.19.27.27 0 01-.16.09 1.15 1.15 0 01-.3 0h-.51a.2.2 0 01-.1 0 .11.11 0 00-.1 0 .43.43 0 00-.23.23.34.34 0 000 .14v.17l-.66 2.9a.43.43 0 000 .11.15.15 0 010 .09v.17a.05.05 0 010 .06.26.26 0 01-.15.14H190.52a.32.32 0 01-.28-.1.31.31 0 010-.17v-.21l.57-2.86v-.12a.22.22 0 000-.11v-.17q0-.19-.12-.24a.58.58 0 00-.32 0h-.73a.18.18 0 01-.11-.19 2.3 2.3 0 01.05-.32.69.69 0 000-.13l.06-.12a.28.28 0 01.1-.09l.12-.06h3.5a.25.25 0 01.15 0zm6.44 0a.24.24 0 010 .19v.24l-.79 3.93q0 .14-.06.24a.46.46 0 01-.09.17.3.3 0 01-.26.1h-.62c-.07 0-.12-.06-.13-.11a1 1 0 010-.18v-.21-.19l.31-1.54.05-.29a.82.82 0 000-.26.41.41 0 010-.1.08.08 0 000-.07h-.08a2.7 2.7 0 00-.22.33 4 4 0 01-.2.35c-.15.25-.29.5-.43.76l-.42.74c-.07.11-.13.24-.21.39a.84.84 0 01-.25.3.49.49 0 01-.17.06h-.51a.16.16 0 01-.08-.06.13.13 0 010-.09v-.12a1 1 0 01-.05-.22 2 2 0 000-.24q-.07-.36-.12-.72t-.12-.72l-.07-.41a.72.72 0 00-.14-.36.28.28 0 00-.08.11.31.31 0 000 .12.65.65 0 010 .11v.2a.42.42 0 000 .1v.08l-.29 1.41c0 .1 0 .23-.07.38a.84.84 0 01-.11.32.19.19 0 00-.07.06H194a.33.33 0 01-.24-.07.2.2 0 01-.06-.16v-.24l.8-4v-.21a.54.54 0 01.08-.17.35.35 0 01.2-.11H195.94a.24.24 0 01.18.06.34.34 0 01.11.23 1.24 1.24 0 00.06.29l.12.69.12.69a2.32 2.32 0 01.07.38c0 .12 0 .25.08.37v.16a.13.13 0 00.1.09.09.09 0 00.11 0 .29.29 0 00.08-.08 1.62 1.62 0 00.2-.28 3.07 3.07 0 01.17-.31c.16-.26.32-.53.47-.81s.31-.55.48-.82a3.9 3.9 0 00.19-.35.62.62 0 01.29-.27H200.18z" transform="translate(0 -74.61)"/></g><g id="g4701"><path id="path4710" class="cls-1" d="M120 85.29a15.74 15.74 0 00-3.6 2.69l.89 2.5a30.37 30.37 0 013.11-2.9l.12-.1-.12.1a25.91 25.91 0 00-3 3 47.15 47.15 0 004.87.1c.86-2.56.1-3.9.1-3.9s-.9-2.11-2.37-1.49z" transform="translate(0 -74.61)"/><path id="path4712" class="cls-2" d="M115.93 98.21z" transform="translate(0 -74.61)"/><path id="path4714" class="cls-2" d="M114.07 102.18z" transform="translate(0 -74.61)"/><path id="path4716" class="cls-2" d="M104.17 110.25l.06-.1c.38-.68.74-1.33 1.11-2s.81-1.41 1.21-2.08.82-1.39 1.22-2 .83-1.36 1.24-2l1-1.51.32-.48.61-.92.55-.81.17-.26h-.15l-.09-.25v.06c-.28.4-.56.8-.83 1.21l-.48.71c-.44.66-.88 1.31-1.3 2s-.87 1.36-1.29 2-.82 1.34-1.22 2l-1.18 2c-.4.7-.8 1.39-1.18 2.07l-.25.46-.91 1.63.14.41h.08c.43-.79.81-1.48 1.17-2.14z" transform="translate(0 -74.61)"/><path id="path4720" class="cls-3" d="M113 104.16h-.23a1.76 1.76 0 00.23 0z" transform="translate(0 -74.61)"/><path id="path4722" class="cls-4" d="M113 104.16h-.23a1.76 1.76 0 00.23 0z" transform="translate(0 -74.61)"/><path id="path4737" class="cls-5" d="M112.74 95.94l1.43-1.88q.75-.94 1.5-1.83l.09-.1c.5-.58 1-1.13 1.48-1.65l-.89-2.5-.33.31c-.42.39-.85.81-1.31 1.26s-1 1-1.57 1.61-1 1.08-1.51 1.66-.87 1-1.31 1.51v.06l1.14 3.39z" transform="translate(0 -74.61)"/><path id="path4748" class="cls-6" d="M102.85 112.67c-.29.55-.6 1.11-.89 1.69 0 .08-.09.16-.12.24-.21.39-.38.74-.79 1.54a3.2 3.2 0 011 1.59 2.59 2.59 0 00-.57-1.89c2.3.44 4.4.15 5.67-1.4.11-.14.23-.29.33-.44a2.28 2.28 0 01-2.27.47 6.34 6.34 0 003.52-2.11c.21-.25.42-.52.64-.83a5.11 5.11 0 01-5 .85h-1.31z" transform="translate(0 -74.61)"/><path id="path4759" class="cls-7" d="M103.88 109.86c.38-.68.78-1.37 1.18-2.07s.78-1.33 1.18-2 .81-1.34 1.22-2 .85-1.36 1.28-2 .87-1.33 1.3-2l.48-.71.84-1.21v-.06l-1.12-3.38a1 1 0 01-.1.11c-.46.56-.93 1.12-1.38 1.7s-.92 1.19-1.37 1.8l-1.13 1.57-.21.32c-.45.66-.88 1.31-1.26 1.94s-.82 1.39-1.16 2c-.23.43-.45.84-.64 1.24s-.33.68-.48 1c-.37.8-.69 1.6-1 2.41l1.14 3.41c.29-.54.6-1.08.9-1.63z" transform="translate(0 -74.61)"/><path id="path4770" class="cls-6" d="M101.53 108.65a25.14 25.14 0 00-.86 3v.1a6.44 6.44 0 00-1.6-1.85 9 9 0 011.19 4.4 4.21 4.21 0 01-2-.65 4.08 4.08 0 001.58 1.31 5 5 0 00-2.59.85 5.23 5.23 0 012.94-.1c-1.56 2.94-3.16 6.22-4.8 9.7a1 1 0 00.75-.54c.29-.63 2.23-4.77 5.1-10.16l.25-.47a.54.54 0 00.07-.13c.31-.56.62-1.14.94-1.73l.23-.4-1.14-3.4a.31.31 0 00-.06.07z" transform="translate(0 -74.61)"/><path id="path4781" class="cls-7" d="M111.62 98.09l-.17.26-.55.81-.61.92-.32.48-1 1.51c-.41.63-.82 1.3-1.24 2s-.81 1.34-1.22 2-.8 1.36-1.21 2.08-.73 1.29-1.11 2l-.06.1-1.13 2.06h1.31-.07a9.26 9.26 0 005.33-2.05 12.61 12.61 0 002-2.09 19.15 19.15 0 001.42-2.1c.4-.68.8-1.42 1.2-2.23a4.94 4.94 0 01-1.27.24h-.5a5.7 5.7 0 003.44-2.5 5.42 5.42 0 01-1.85.51h-.39a6 6 0 001.39-.54c.09 0 .17-.1.26-.15l.36-.26.23-.18a5.58 5.58 0 00.48-.49 2.09 2.09 0 00.14-.17l.17-.25c.26-.38.48-.71.65-1 .09-.15.17-.28.24-.41a.71.71 0 01.08-.15l.18-.4a2.25 2.25 0 00.16-.41.51.51 0 01-.18.09 6.22 6.22 0 01-1.87.35h1.2-1.38l-4.09-.12s-.01.08-.02.09z" transform="translate(0 -74.61)"/><path id="path4792" class="cls-5" d="M117.4 90.56c-.44.5-.93 1.07-1.45 1.72l-.09.1c-.46.56-.94 1.18-1.46 1.87s-.92 1.22-1.41 1.91-.87 1.22-1.34 1.89l4.13.16a5.06 5.06 0 002.48-1.43c.17-.17.33-.36.5-.56a21.92 21.92 0 001.49-1.9 18.89 18.89 0 001.19-1.85 11 11 0 00.52-1c.12-.27.21-.53.3-.78-1.62.01-3.59-.01-4.86-.13z" transform="translate(0 -74.61)"/><path id="path4794" class="cls-3" d="M112.72 104.17z" transform="translate(0 -74.61)"/><path id="path4796" class="cls-4" d="M112.72 104.17z" transform="translate(0 -74.61)"/><path id="path4807" d="M112.72 104.17z" transform="translate(0 -74.61)" fill="url(#linear-gradient-4)"/><path id="path4809" class="cls-3" d="M113.67 102.19z" transform="translate(0 -74.61)"/><path id="path4811" class="cls-4" d="M113.67 102.19z" transform="translate(0 -74.61)"/><path id="path4822" d="M113.67 102.19z" transform="translate(0 -74.61)" fill="url(#linear-gradient-5)"/></g></svg>