<svg xmlns="http://www.w3.org/2000/svg" xml:space="preserve" viewBox="19 -0.03 473.9 512.15"><path d="M273.3 4.4a36.03 36.03 0 0 0-34.6 0L61.4 101.9c-.1.1-.3.2-.4.2L37.6 115C26.2 121.3 19 133.3 19 146.4v219.2c0 13.1 7.1 25.2 18.6 31.5l179 98.4c.2.1.5.2.7.4l21.4 11.8c10.8 5.9 23.8 5.9 34.6 0l21.5-11.8.6-.3 178.9-98.4c11.5-6.3 18.6-18.4 18.6-31.5V146.4c0-13.1-7.1-25.2-18.6-31.5L451 102.1c-.2-.1-.4-.2-.5-.3zM284.7 256l165.9-91.2c.2-.1.3-.2.5-.3l2-1.1c5.5-3 12.3 1 12.3 7.3v170.6c0 6.3-6.8 10.3-12.3 7.3l-1.5-.8c-.3-.2-.6-.4-1-.5zM61 164.6c.1.1.3.2.4.2L227.3 256 61.4 347.2c-.3.2-.6.3-.9.5l-1.6.9c-5.5 3-12.3-1-12.3-7.3V170.7c0-6.3 6.8-10.3 12.3-7.3zm376.5-38.4L282.1 40.8c-5.4-3-12.1.9-12.3 7v184.8l167.7-92.2c5.4-3.1 5.4-11 0-14.2m-363 14.3 167.7 92.2V47.9c-.2-6.2-6.8-10-12.3-7L74.5 126.2c-5.4 3.2-5.4 11.1 0 14.3m.2 245.4c-5.6-3.1-5.7-11-.4-14.3l167.9-92.3v184.8c-.2 6-6.6 9.9-11.9 7.2zm195.1 78V279.4l167.9 92.3c5.3 3.3 5.1 11.2-.5 14.3l-155.5 85.5c-5.4 2.7-11.8-1.1-12-7.2v-.1c.1-.2.1-.2.1-.3" style="fill-rule:evenodd;clip-rule:evenodd;fill:#0d1a2b"/><path d="M252 28.6c2.5-1.4 5.5-1.4 8 0L437.3 126c5.7 3.1 5.7 11.4 0 14.5L260 238c-2.5 1.4-5.5 1.4-8 0L74.7 140.6c-5.7-3.1-5.7-11.4 0-14.5z" style="fill:#e7c200"/><path d="M46.7 170.7c0-6.3 6.8-10.3 12.3-7.3l178.9 98.4c2.6 1.5 4.3 4.2 4.3 7.3V464c0 6.3-6.8 10.3-12.3 7.3L51 372.8c-2.6-1.5-4.3-4.2-4.3-7.3z" style="fill:#ffda18"/><path d="M453.1 163.4c5.5-3 12.3 1 12.3 7.3v194.9c0 3-1.6 5.8-4.3 7.3l-179 98.4c-5.5 3-12.3-1-12.3-7.3V269.1c0-3 1.7-5.8 4.3-7.3z" style="fill:#fff"/><path d="M121.8 323.6v.3l-41.9-22.1v-.3c1-13.1 11.2-18.7 22.7-12.6 11.6 6.1 20.2 21.6 19.2 34.7m66 38.1v.3l-41.9-22.1v-.3c1-13.1 11.2-18.7 22.7-12.6 11.6 6.1 20.2 21.7 19.2 34.7" style="fill:#0d1a2b"/></svg>