<svg xmlns="http://www.w3.org/2000/svg" viewBox="0 0 24 24" fill="none" xmlns:v="https://vecta.io/nano"><path d="M15.895 20.838l3.177-1.295.053-1.123.552-1.14.122-1.261.621-1.899.691-1.589-.053-.38-.103-.346.069-.397-.122-.466.069-.327-.621-.76-2.764.968.122.363-.258.432.241.743-.38.743.535 1.605 1.14.604c-.053.017-1.45-.122-1.45-.122l.327.674-.38 1.054-.449.225-.38.122-.743.863-.552 1.362.466 1.347h.069zM4.207 11.301l2.819.322.363 1.792-.609 1.448.342.248.59 1.639.688.762.475.287.839.8.972.724-.344.743.057.552-.115.306-.21.59-2.038-.59.057-.344-.287-.38.096-.363-2.781-2.038-.21-.516-.609-.189-.019-4.365-.248-.628.172-.8z" fill="#644d31"/><path d="M9.297 18.342l-.053-.052-.062-.06c-.078-.07-.152-.053-.18-.042s-.093.046-.105.143a2.75 2.75 0 0 0-.018.254c-.005.115-.009.224-.034.328l-.04.174h.266l.039-.078.111-.224.111-.223c.017-.034.024-.072.019-.109s-.021-.073-.045-.101l-.011-.011zm7.79-1.075l-.049-.021c-.09-.039-.172.007-.226.037-.012.007-.023.014-.032.017-.11.039-.164.112-.159.214a5.61 5.61 0 0 0 .069.676l.07.451.197-.412c.031-.064.039-.119.045-.158l.003-.02.058-.338.028-.161c.002-.011.007-.022.011-.034.018-.05.044-.126.009-.202l-.023-.048zm-.274-1.982l-.185.027c-.164.026-.319.051-.476.018l-.025-.005c-.046-.01-.092-.014-.139-.014h-.554l.506.276c.131.072.28.154.465.147a1.06 1.06 0 0 1 .162.014l.071.009c.089.01.181.015.277.015a3.7 3.7 0 0 0 .556-.046l.403-.061-.354-.201c-.177-.1-.417-.211-.707-.178zm-9.392-.127c.037 0 .072-.012.105-.035l.031-.022.028-.019.007-.005a2.42 2.42 0 0 1 1.039-.459l.496-.088 1.197-.238c.083-.015.191-.039.294-.082l1.122-.468-1.714.283-.288.035-.895.105c-.243.028-.52.059-.781.179l-.253.119-.284.132c-.183.083-.26.209-.248.407 0 .008.001.015.002.023v.132h.141zm10.887-.221c-.115-.085-.254-.139-.414-.16l-.307-.04a.16.16 0 0 0 .079-.028.24.24 0 0 0 .097-.127l.013-.04-.011-.041-.012-.05-.014-.06-.007-.025-.319-.623-.506-.534-.243-.213.011.006.15.082.145.08c.02.012.082.047.159.025l.185-.053-.107-.161c-.133-.2-.506-.468-.836-.705l-.406-.312c-.012-.013-.024-.025-.038-.037l-.03-.029-.024-.011a2.36 2.36 0 0 0-.311-.113l.02.003c.112.021.206.05.299.091.21.093.423.205.649.342a.92.92 0 0 0 .193.113l.58.249-.419-.472c-.354-.621-.987-1.247-1.858-1.524-.008-.004-.016-.007-.024-.01l-.012-.004c-.211-.065-.428-.054-.682.033h-.001c-.146.052-.17.166-.143.256.056.18.055.368.054.567v.089c0 .104.05.181.133.214-.023.01-.045.023-.066.044-.068.068-.065.16-.064.187l-.003.119-.045-.091v.449c-.011.046-.012.094-.002.141l.001.028.001.003.001.003.002.047.025.025.014.027-.004.001.027.069-.016-.01c-.021-.012-.044-.02-.068-.022s-.048.002-.071.011c-.032.013-.057.036-.077.065.024-.147.031-.302-.059-.452l-.017-.026.047.01.054-.063c.052-.062.075-.165.096-.275l.006-.032c.055-.246.044-.497-.034-.815-.117-.48-.347-.847-.703-1.122-.364-.28-.835-.505-1.23-.588-.499-.104-1.02.052-1.479.189l-.114.034-.254.089a1.37 1.37 0 0 0-.211.113c-.26.164-.555.35-.809.592l-.03.029-.029.027-.01.008c-.067.052-.123.103-.176.153l-.077.07-.049.044c-.271.296-.495.634-.692.933-.095.145-.194.301-.276.486a2.76 2.76 0 0 1-.121.232l-.148.294-.215.526.436-.364c.178-.149.346-.312.511-.472l.022-.021.026-.025.015-.015c.07-.07.136-.136.21-.183l.172-.111c.264-.173.515-.336.799-.438l.036-.012.196-.081.03-.013c.109-.048.211-.094.321-.113l.242-.043.387-.07c.276-.052.525-.095.77-.088.24.007.483.038.726.091-.128-.02-.258-.028-.387-.024l-.654.017a3.13 3.13 0 0 0-.596.072c-.717.154-1.405.495-2.103 1.042-.291.229-.552.492-.805.746l-.225.225c-.023.023-.043.049-.06.077l-.643 1.018a.79.79 0 0 0-.101.24l-.094.388.317-.243.037-.027.076-.06c.248-.23.562-.339.895-.454l.01-.004c.367-.126.77-.205 1.196-.234.634-.043 1.256-.182 1.781-.312.444-.111.786-.25 1.075-.437.149-.096.297-.208.457-.346-.006.109-.04.206-.104.296-.142.202-.36.314-.59.432l-.013.006c-.409.214-.864.389-1.391.536l-.578.131-.502.11-.374.083c-.324.067-.66.136-.974.302-.278.147-.477.351-.593.605a.67.67 0 0 0-.044.45l.091.365.171-.335.047-.096c.031-.065.058-.122.093-.168a.92.92 0 0 1 .59-.355c.151-.029.304-.045.465-.062l.217-.025.855-.08 1.045-.106c.5-.076 1.026-.189 1.488-.498l.239-.154c.234-.148.476-.3.682-.51.2-.205.395-.431.519-.708-.067.385.029.718.291.991l.043.041c.236.214.527.454.898.611.29.122.589.248.906.323a1.12 1.12 0 0 0 .383.029l.048-.005.889-.061.176.003.681.041.555.082-.45-.335zm-3.266-1.311l.393.29.133.097c.169.126.344.255.561.332l.249.095.361.133.091.028.066.02.014.004.412.077-.98-.176c-.254-.064-.421-.141-.56-.258l-.74-.642z" fill="#885630"/><path d="M15.674 20.619l-.255-.631-.044-.11c-.012-.032-.021-.057-.048-.08l-.027-.022-.085.103c-.103.169-.231.324-.394.476l-.051.063c-.129.112-.275.182-.429.256l-.276.144-.099.06.115.005.147.01c.383.03.687.103.958.229.105.049.114.138.123.241.003.033-.004.041-.005.041l-.019.001-.005.001c-.001 0-.012.002-.043-.01-.362-.141-.742-.231-1.11-.319L13.811 21c-.006-.001-.015-.005-.023-.008l-.025-.009-.009.002c-.017.003-.047.017-.056.066-.007.039-.025.13.084.156a1.73 1.73 0 0 1 .176.056l.339.11c.303.093.617.19.887.378.029.021.057.032.095.035.038-.003.072-.019.114-.04.206-.105.271-.264.197-.489a.47.47 0 0 1 .07-.455c.041-.052.046-.112.014-.184zm-3.934.512a2.34 2.34 0 0 1-.365.033 1.47 1.47 0 0 1-.268-.021c-.031-.006-.036-.014-.039-.042 0-.014.003-.016.015-.018l.259-.058c.235-.054.477-.111.723-.116v-.035h.033c0-.009 0-.017.002-.026l.008-.037-.038-.005c-.109-.013-.201-.068-.297-.127l-.104-.06c-.291-.155-.502-.364-.647-.638a1.56 1.56 0 0 0-.174-.241l-.078-.096-.041-.052-.02.063-.035.111-.1.288c-.082.195-.081.358.004.513.032.06.02.12-.038.182l-.165.183-.112.126-.009.009c-.02.021-.05.052-.037.105a.53.53 0 0 1 .013.08c.008.075.018.161.108.218.005.003.005.01.003.035l-.001.024v.452.012c-.001.033-.002.078.038.106.086.057.186.077.274.091l.009.002.009-.003c.04-.014.057-.056.071-.089.006-.015.012-.03.019-.039s.014-.02.018-.03l.245-.171c.1-.073.195-.142.306-.188l.361-.17c.252-.126.513-.256.8-.301l.222-.035-.222-.035c-.243-.038-.463-.041-.747.002zm1.79-.134c-.002-.031-.011-.053-.028-.068s-.046-.019-.065-.018h0-.002 0l-.026.003c-.082.016-.165.024-.249.023-.034 0-.065 0-.1-.002h-.079l-.072.002h-.019c-.016-.002-.022-.002-.035-.002-.029.006-.046.025-.05.059a.11.11 0 0 0 .091.122 1.1 1.1 0 0 0 .267.032h.002 0 .001a1.81 1.81 0 0 0 .277-.022c.09-.013.089-.076.088-.114v-.016zm7.227-11.399c.069-.024.091-.065.093-.129l.043-.533.062-.738-.041.01-4.334 1.211c-.072.022-.005.134.024.184l.676 1.14c.019.033.036.05.06.055.012 0 .05-.031.064-.036l3.352-1.163zm-.208-1.018c.15-.002.229.079.234.241.005.148-.127.299-.265.301-.129.002-.248-.115-.253-.253-.009-.146.131-.289.284-.289zM5.696 11.311l.671.093 1.032.141c.06 0 .067-.036.076-.072l.277-.908c.022-.065.002-.084-.06-.1l-1.928-.506-1.926-.509c-.012-.004-.025-.007-.038-.007-.019 0-.031.005-.038.019-.008.024-.009.035-.01.045L3.6 10.929c-.007.06.005.086.05.098.01.002.021.005.036.007l2.009.277zm-1.55-1.259c.062-.06.143-.053.215-.057.148 0 .22.05.27.186.084.22.05.406-.096.533-.052.046-.119.072-.189.072s-.137-.025-.189-.072c-.189-.167-.194-.485-.012-.662z" fill="#fff"/><g fill="#1a1a1a"><path d="M20.546 8.58c-.153.002-.291.146-.284.291.007.136.124.256.253.251.136-.002.268-.153.265-.301-.005-.165-.081-.244-.234-.241zM4.363 9.995c-.072.005-.153-.002-.215.057a.46.46 0 0 0 .012.662c.108.096.265.096.377 0 .146-.127.182-.313.096-.533-.053-.136-.124-.186-.27-.186z"/><path d="M20.591 9.885l.416-.151c.079-.024.1-.069.105-.141l.139-1.809c.007-.084-.007-.1-.093-.074l-1.357.42c-.139.043-.141.043-.203-.093-.229-.516-.409-1.051-.597-1.582a.39.39 0 0 1 .007-.315c.067-.186.024-.375.019-.564-.002-.01-.005-.019-.005-.029-.048-.518-.117-1.034-.253-1.541a5.99 5.99 0 0 0-.497-1.264l-.733-1.269c-.112-.177-.232-.337-.432-.425-.072-.031-.143-.041-.22-.048-.088-.01-.139.024-.196.093-.098.12-.134.289-.069.428l.526 1.245c.009.019.021.038.038.067-.038-.002-.05-.022-.062-.043-.296-.308-.645-.554-.994-.8-.471-.334-.984-.6-1.496-.867-.069-.036-.138-.057-.213-.065l-.382-.041c-.201-.024-.354.091-.354.291 0 .108-.045.131-.134.139-.079.005-.186.115-.196.191a.69.69 0 0 0 .227.616l1.297 1.269.014.007c.012.01.021.021.029.038-.033 0-.046-.008-.055-.019l-.191-.117-.891-.595c-.139-.091-.284-.158-.459-.17a.45.45 0 0 0-.389.143c-.074.074-.1.151-.088.251.017.146.115.236.222.311a8.13 8.13 0 0 1 1.359 1.168l.115.112c.117.096.189.222.26.354.034.06.021.074-.043.074-.425 0-.831.117-1.24.203-.167.036-.332.093-.392.279-.065.208-.096.325.16.389.509.127 1.001.306 1.481.514.043.019.081.045.117.076.119.103.229.217.361.301.377.246.767.475 1.214.581.053.012.1.038.15.05s.084.043.093.093c.029.177.139.277.303.327.022.007.038.022.06.029.053.017.076.055.093.107l.21.712c.026.079.002.1-.069.122l-1.106.332c-.131.041-.134.043-.067.162l.903 1.627c.127.229.131.229.363.11.024-.012.057-.053.079-.014s.06.088.024.129c-.112.129-.189.279-.284.418a.09.09 0 0 0-.005.117l.299.499c.012.019.034.043.029.057l-.122.365c-.067-.265-.181-.495-.315-.712-.179-.287-.409-.54-.616-.808-.033-.041-.072-.076-.11-.115-.198-.205-.454-.33-.695-.475a1.02 1.02 0 0 0-.339-.127c-.373-.079-.743-.11-1.113.005-.076.024-.117.005-.162-.06-.091-.127-.165-.272-.287-.37-.299-.239-.614-.456-.982-.581-.28-.096-.564-.158-.86-.167a4.25 4.25 0 0 0-.461.017c-.394.031-.786.074-1.135.291-.069.043-.148.067-.22.108-.358.194-.712.385-1.011.676l-.894.939c-.32.382-.561.815-.779 1.261-.014.031-.021.069-.069.096l-.119-.741c-.007-.045.021-.043.053-.038l.263.026c.067.01.103-.005.119-.079l.067-.311c.081-.394.198-.776.301-1.163.019-.074.007-.1-.069-.12l-1.14-.282c-.072-.017-.105-.043-.084-.119.086-.296.124-.607.241-.896.012-.031.024-.062.055-.086.098-.076.17-.165.16-.301-.007-.103.041-.167.139-.213.182-.086.356-.186.528-.287.136-.079.248-.189.325-.332.32-.602.588-1.235.975-1.801.033-.05.06-.105.1-.148l.767-.776c.088-.074.112-.174.115-.284 0-.127-.074-.215-.151-.303s-.15-.16-.277-.146c-.029.002-.057-.01-.088-.014.019-.038.05-.048.076-.065l1.011-.655 1.226-.791c.053-.033.076-.06.019-.11-.014-.012-.024-.029-.036-.043-.084-.098-.084-.098-.198-.029L8.319 4.675c-.1.062-.1.062-.151-.05-.112-.26-.177-.535-.26-.805-.019-.062-.002-.098.045-.136.287-.229.549-.487.815-.738a.6.6 0 0 0 .186-.368c.022-.17-.091-.258-.244-.196-.076.031-.151.065-.22.105-.676.373-1.398.628-2.138.843-.043.012-.081.026-.117-.019-.074-.091-.184-.141-.277-.208-.019-.014-.038-.019-.062-.014-.1.026-.203.055-.265.146l-.504.678-.523.824c-.036.05-.05.057-.084-.002l-.633-1.111c-.067-.117-.139-.229-.222-.337-.093-.117-.208-.174-.356-.158-.026.002-.06-.005-.069.036-.021.11-.072.225-.057.33.033.27.081.54.148.803l.38 1.357.423 1.316c.012.038.033.072-.019.103-.067.038-.174.057-.186.124s.05.151.079.225.043.16.086.182c.057.029.11-.05.163-.081s.064-.021.086.029l.377.872a.18.18 0 0 1 .007.136c-.088.232-.146.473-.191.717-.012.069-.038.069-.091.055l-.829-.21c-.122-.031-.122-.031-.136.093v.01l-.182 1.985c-.005.06.002.084.067.091l.576.084c.036.005.067.007.057.06l-.124.674c-.014.067-.005.112.033.162l.198.263c.045.062.079.143.038.208a.2.2 0 0 0-.033.117l.026 1.24.012.602.06 1.596c.01.26-.036.518-.024.779.002.064.017.1.084.122l.471.165c.086.026.146.074.184.155.033.072.043.143.038.217s.024.115.081.155l.736.54 1.945 1.433c.06.045.074.081.038.146s-.055.134-.088.196-.024.093.031.134c.081.057.16.122.234.186.065.055.067.141.048.208-.014.048-.086.005-.131 0-.031-.002-.062-.009-.093-.014l-.927-.155-1.503-.069c-.026 0-.067-.024-.074.029-.007.043-.017.088.031.117a.44.44 0 0 0 .076.036c.282.098.545.239.803.387.167.096.332.203.516.267.033.012.067.038.108.002l-.829-.662c.038-.029.069-.017.098-.014.332.026.662.072.984.148l2.112.571c.229.069.473.103.678.241.05.034.079.067.074.129.012.014.026.033.01.045s-.036-.012-.05-.024l-.485-.043-1.386-.096c-.349.01-.698-.014-1.044.01l-1.474.151c-.024.002-.062-.002-.062.026 0 .036.014.076.06.086.036.007.074.012.112.012l.743.012 1.851.041c.222.019.447.01.664.05l3.063.614c.12.026.241.045.358.103.146.071.602.266.951.259s.583-.412.774-.61c.184-.194.389-.363.597-.53.024-.019.043-.048.081-.034l.557.22-1.078.657c.454.057.51-.011.648-.093.774-.461 1.617-.774 2.463-1.065l3.149-.913-.074-.017-.205.019c-.291.026-.583.057-.867.134-.043.019-.074.022-.11.022-.014 0-.029 0-.048.002.064-.062.251-.263.301-.248l.002-.005h.005c0-.007.019-.021.019-.021.017-.029.041-.048.074-.05a.69.69 0 0 1 .196-.186c.05-.031.103-.062.16-.086h-.002c.16 0 .317-.193.484-.26-.002-.006-.009-.011-.014-.017a3.25 3.25 0 0 0-.702.158l-1.474.533-2.184 1.03c-.022.012-.043.021-.077.036l-.055-.502c-.005-.034.012-.048.041-.062l1.916-.934 1.617-.688.014-.009c.012.014.007.021 0 .029l-.012.005c-.143.205-.275.42-.37.657.038.01.052-.002.067-.017l.334-.356c.213-.234.437-.456.7-.638.017-.012.045-.021.033-.048s-.045-.014-.067-.01l-.736.153c-.081.019-.077-.01-.079-.067-.002-.196.026-.387.034-.583.002-.085.022-.169.057-.246l.296-.671c.05-.112.079-.232.098-.351l.074-.578c.031-.296.136-.576.186-.87.064-.373.117-.748.256-1.104l.37-.944c.174-.425.397-.829.502-1.283.036-.158.076-.301.005-.456-.041-.084-.053-.179-.081-.27a.39.39 0 0 1-.012-.203c.048-.244.069-.485-.062-.712-.036-.062.007-.1.043-.139.088-.091.093-.131.017-.229l-.27-.325-.232-.26c-.055-.033-.05-.055.012-.076zm-3.223-2.193c-.024-.067-.053-.103-.127-.086-.089.021-.136-.017-.175-.096-.062-.127-.112-.279-.215-.358s-.265-.081-.401-.115l-.311-.074a1.42 1.42 0 0 1-.609-.272l-.929-.624c-.103-.007-.201-.036-.301-.06l-.829-.17c-.067-.012-.079-.062-.084-.107-.007-.055.007-.11.064-.143.088-.053.189-.062.289-.079.442-.069.889-.122 1.338-.129.11-.002.208.038.311.064.062.017.11.01.165-.029l.647-.42c.033-.021.096-.036.069-.093-.004-.008-.008-.015-.014-.022-.012-.01-.026-.012-.043-.012l-.05.002h-.007c-.244-.007-.461.069-.664.198-.079.05-.258.019-.308-.055-.339-.514-.819-.884-1.276-1.283l-.616-.523c-.055-.041-.079-.143-.043-.196.048-.072.11-.041.167-.014.184.081.361.174.526.291.562.401 1.164.741 1.763 1.08l.05.026c.091.031.139-.01.124-.105-.007-.05-.029-.093-.062-.134L14.32 2.482c-.105-.115-.229-.215-.346-.318a.85.85 0 0 1-.22-.277c-.033-.067-.026-.131.024-.189.041-.045.076-.055.136-.024.17.081.33.177.48.291l.8.602.803.6.062.05c.05.045.093.093.141.141l.029.029c.019.019.036.045.06.06.055.033.112.062.17.005.019-.019.029-.036.031-.055 0-.007.002-.014 0-.022-.011-.037-.025-.061-.045-.081l-.179-.186-.311-.296-1.061-.841c-.182-.139-.394-.232-.592-.346-.072-.041-.12-.1-.172-.158-.036-.043-.045-.096-.024-.151s.074-.05.12-.055c.072-.007.136.019.198.05l1.355.733.107.067c.246.158.48.337.712.518.11.086.191.215.282.327.038.048.012.091-.024.124-.024.024-.057.038-.086.055s-.072.041-.06.086.055.05.091.057c.053.01.11.007.158-.014.167-.069.308.048.416.165.029.031.04.093.093.074s.062-.081.057-.136c-.012-.151-.05-.296-.084-.442-.088-.375-.268-.714-.416-1.068l-.162-.38c-.029-.069.01-.131.048-.182.031-.041.081-.005.122.014.151.067.236.189.311.33.079.151.177.289.26.435.143.253.32.492.435.757.167.387.38.755.48 1.171.086.368.208.729.251 1.109.017.143-.009.282.007.42a1.46 1.46 0 0 1-.122.793c-.031.069-.022.136.012.208.251.53.459 1.077.667 1.627.026.072.014.1-.06.122l-1.441.432c-.069.022-.091.002-.112-.06l-.351-.963zm-3.015 3.029c.196-.067.392-.093.597-.031.272.084.535.146.781.263.041.019.084.038.112.076a2.02 2.02 0 0 1 .428.404l.554.769-.033-.013-.001-.001a1.01 1.01 0 0 1-.183-.103 6.43 6.43 0 0 0-.671-.353 1.46 1.46 0 0 0-.33-.1c-.301-.057-.602-.067-.905-.041-.084.007-.17 0-.253 0-.062 0-.091-.029-.091-.091 0-.234.012-.471-.06-.698-.014-.048.014-.067.055-.081zm-.061 1.723c.002-.007.005-.014.007-.019.007-.019.007-.024.01-.031.007-.019.007-.026.009-.031l.005-.031.005-.031.005-.031.005-.031c.002-.019.002-.026.005-.031v-.265c-.002-.081.026-.112.108-.11l.242-.005.074.004.122-.005c.127-.003.254.005.38.024.217.017.418.057.547.162a2.78 2.78 0 0 1 .277.143l.659.401c.045.029.086.062.117.107l.222.313c.012.017.031.036.014.057-.005.007-.011.012-.019.014-.018.004-.034-.003-.05-.012l-.296-.162c-.342-.191-.702-.327-1.08-.43l-.099-.027c-.107-.031-.207-.061-.322-.076l-.15-.034c-.005.002.005.012.017.024.024.029.036.038.053.048.002 0 .014.006.019.01.227.115.609.186.889.315l-.005-.002-.014-.007.014.007.062.031c.155.081.296.181.437.289l.267.205c.401.291.648.686.767 1.163.002.014.007.029.01.043l.01.014c.019.029.024.064.017.096.002.007.002.014.005.021-.005.069-.06.041-.091.041a2.49 2.49 0 0 1-.607-.11l-.006-.001-.165-.053-.611-.236c-.251-.088-.447-.26-.659-.411-.351-.248-.691-.509-.996-.812-.031-.031-.062-.065-.079-.105l-.062-.153-.036-.093-.024-.06-.005-.017c-.012-.043-.014-.079-.002-.112zm.875-.061c-.004-.019-.002-.026.004-.027.01.004.019.007.028.008h.002c-.012.007-.029.004-.034.019zm-1.053.521c.007-.023.02-.035.034-.032l.002.003c.007.002.014.01.022.024a1.53 1.53 0 0 0 .299.397l.387.346.815.71c.177.15.389.227.616.287.516.131 1.044.182 1.567.253a.72.72 0 0 1 .373.155h-.007c.01.007.017.012.024.019-.294-.043-.588-.038-.882-.045-.322-.007-.638.031-.956.067-.115.012-.225 0-.335-.026-.306-.069-.595-.194-.884-.315-.327-.139-.6-.351-.858-.585l-.057-.055c-.088-.087-.155-.18-.202-.279l-.002-.005-.002-.006c-.09-.211-.085-.446-.016-.704l.062-.208zm2.592 4.188h-.062c-.038 0-.076.01-.115.012s-.069.019-.086.057-.038.072-.057.11c-.083.201-.191.358-.322.494-.029.031-.06.06-.091.088l-.248.203c-.141.1-.303.163-.466.222l-.036.014-.033.014-.019.007c-.009.002-.021.007-.031.01-.036.014-.065.036-.045.091s.062.076.117.079c.012 0 .026 0 .041-.002.051-.005.1-.016.148-.033s.096-.038.146-.06l.103-.041c-.029.122-.045.234-.084.339l-.022.053-.088.191-.062.124c-.115.229-.244.449-.404.652l-.103.12c-.076.081-.16.155-.251.22l-.103.072-.208.122-.17.084-.064.029-.053.022c-.014.005-.029.012-.043.017l-.122.045c-.012.005-.024.01-.038.012l-.129.041-.406.103-.162.031-.182.029-.174.024c-.196.024-.389.012-.581-.017-.007 0-.014-.002-.021-.005l-.029-.007a.67.67 0 0 1-.143-.06l-.182-.1-.129-.072-.16-.105c-.098-.072-.184-.155-.232-.277-.026-.066-.057-.131-.091-.194-.01-.019-.021-.036-.031-.053a2.71 2.71 0 0 0-.275-.366l-.124-.141-.062-.069-.258-.275-.067-.067a2.77 2.77 0 0 0-.287-.246c-.024-.019-.05-.038-.076-.055a2.76 2.76 0 0 0-.241-.155l-.06-.036-.06-.038c-.272-.182-.492-.42-.616-.738-.003-.007-.006-.014-.01-.021-.043-.092-.106-.121-.219-.123-.088 0-.174-.014-.251-.048l-.003-.002c-.048-.019-.091-.048-.131-.084l-.025-.016c-.022-.026-.038-.057-.059-.089-.142-.212-.275-.428-.384-.655l.003.008-.005-.014.002.005-.072-.195-.036-.085a.38.38 0 0 1-.017-.104l.002-.05.007-.031c.007-.024.012-.034.017-.043.026-.05.069-.096.127-.141l.067-.05.139-.093.217-.122a4.09 4.09 0 0 1 .853-.313c.017-.005.033-.007.053-.012.033-.007.069-.009.105-.014l.105-.005.105-.002.053-.002.358-.019.538-.043.537-.055c.325-.038.638-.115.937-.239l.184-.084.11-.055.062-.033.425-.232c.014-.019.031-.026.055-.033l.01.01c-.002.014-.01.024-.019.033l-.022.014c-.139.177-.33.299-.494.447l-.05.045-.165.136c.208 0 .409-.024.595-.079.27-.079.516-.22.726-.435.049-.051.096-.106.139-.162.103-.136.196-.296.277-.48.065.232.232.394.373.571l.029.038.029.038c.017.024.036.043.06.06.014.012.031.024.045.034l.045.033c.007.005.014.012.022.017l.318.241.217.153.327.227a3.21 3.21 0 0 0 .466.265l.122.055.377.139.022.007c.079.022.165.029.248.038l.091.009c.017.002.038.012.06.024s.045.031.067.05c.074.067.143.162.148.22 0 .01 0 .017-.002.024-.014.026-.029.041-.038.057l-.084.153-.012.026a.31.31 0 0 0 .002.26 1.62 1.62 0 0 0 .291-.375 1.05 1.05 0 0 0 .055-.117c.012-.026.021-.055.031-.084s.002-.057.009-.084-.024-.069-.009-.088c.009-.008.014-.011.019-.012s.019-.005.026-.005l.055-.005c.048 0 .093.007.139.021.029.01.019.045.017.072v.005c-.005.086-.041.165-.072.241-.007.019-.015.037-.024.055-.053.129-.108.26-.191.373-.117.155-.253.301-.473.308zm.26.449l-.086.499c-.007.048-.012.098-.048.165l-.007-.043c-.002.007-.007.014-.012.024-.041-.246-.067-.473-.074-.703-.002-.052.033-.064.067-.076.055-.019.124-.081.16-.053.014.017.017.017.019.019.043.034-.007.11-.019.167zm-3.533 3.545a1.75 1.75 0 0 1-.272.022 1.22 1.22 0 0 1-.277-.031c-.05-.012-.069-.045-.065-.086.002-.026.022-.026.041-.026.012-.002.026 0 .038.002h.179c.026.002.053.002.081.002a1.13 1.13 0 0 0 .237-.024c.014-.002.029-.005.041-.002.031-.002.055.005.057.053s.01.081-.06.091zM8.98 18.945c.048-.196.029-.399.055-.597.005-.041.026-.036.05-.014l.112.11.015.015c.019.017.022.038.012.06l-.222.447-.024-.007zm7.69-3.311c-.084-.009-.167-.026-.253-.024-.17.005-.306-.084-.449-.16h.017c-.012-.007-.024-.012-.036-.019l.074.005c.029.002.055.009.084.014.236.05.466-.019.7-.043.241-.026.449.06.652.177-.002.007.007.014.019.019-.27.041-.538.06-.808.031zM7.724 12.58c.079-.15.167-.294.26-.432l.146-.206.076-.1.236-.294.246-.287.248-.284c.033-.036.074-.067.115-.098l.026-.03.237-.209.012-.009.067-.062c.239-.227.516-.404.793-.58l.085-.051.11-.047c.01-.005.019-.01.029-.012l.172-.065.117-.036.413-.117c.253-.081.516-.117.779-.115l.112.002c.196.01.387.086.566.165l.237.108.057.029.172.091.112.064.107.072a1.93 1.93 0 0 1 .205.165 1.65 1.65 0 0 1 .461.717 2.73 2.73 0 0 1 .129.614c.017.201-.043.397-.096.59-.007.029-.019.036-.029.034s-.022-.022-.034-.036l-.215-.248c-.28-.325-.614-.562-1.037-.681a4.14 4.14 0 0 0-.989-.153c-.265-.007-.535.041-.8.091l-.628.112c-.136.024-.26.086-.385.141l-.18.075-.018.004c-.375.131-.693.358-1.02.568-.09.059-.164.138-.242.216l-.009.008-.065.065-.461.428c-.074.103-.174.174-.268.265.024-.17.069-.327.146-.471zm-.066.958a.28.28 0 0 1 .041-.053l1.018-.96c.612-.478 1.278-.851 2.045-1.015.186-.041.375-.069.569-.069l.657-.017c.421-.014.807.105 1.161.323a2.02 2.02 0 0 1 .361.283l.014.014a2.14 2.14 0 0 1 .32.409c.079.129.057.27.031.411-.072.404-.315.702-.59.982-.263.268-.593.442-.898.645-.432.289-.927.401-1.431.475l-1.897.186-.69.088c-.272.05-.506.184-.676.409-.062.084-.1.186-.16.301-.004-.012-.008-.024-.01-.036-.033-.136-.012-.248.036-.356.11-.244.294-.416.53-.537.413-.217.874-.26 1.316-.373l1.082-.241c.49-.136.967-.31 1.419-.547.239-.124.487-.251.652-.483.119-.17.15-.354.119-.554-.005-.034-.014-.05-.026-.053s-.029.007-.05.026c-.179.16-.366.313-.569.447-.318.205-.669.33-1.032.418-.578.143-1.161.265-1.756.308-.42.029-.834.105-1.233.241-.339.117-.683.234-.956.487-.033.031-.074.057-.129.098l.007-.038-.026.019.001-.005c.008-.006.015-.013.023-.017.017-.079.048-.141.084-.198l.643-1.018zm2.384.628l.521-.086.091-.017c-.107.057-.225.084-.342.107-.557.139-1.125.22-1.689.325a2.59 2.59 0 0 0-1.099.485l-.062.043c-.026.017-.038.012-.043-.01-.012-.162.031-.232.163-.291l.538-.251c.234-.107.485-.141.738-.167l1.185-.139zM7.982 4.826c.01.026.012.048-.017.064l-.256.158c-.007.005-.017.007-.045.019-.007-.012-.017-.033-.031-.05L7.095 4.4c-.024-.029-.048-.055 0-.081.177-.1.311-.263.497-.349.048-.022.065-.024.088.029.119.268.201.552.301.827zM6.524 3.569l.753-.294c.363-.143.693-.349 1.034-.53l.105-.062c.031-.014.057-.057.098-.036.048.026.031.076.031.134.012.06-.026.11-.081.16l-1.07.917c-.146.117-.325.172-.487.26-.033.017-.053 0-.072-.024l-.356-.461c-.045-.055.017-.053.045-.065zM4.358 6.837l-.786-2.54c-.053-.198-.074-.406-.112-.609-.012-.06.029-.091.067-.112.053-.026.055.036.074.06.375.518.631 1.104.937 1.66l.291.495c.019.031.033.057.081.041s.043-.053.033-.091c-.038-.172-.127-.327-.191-.49-.024-.057-.024-.103.002-.16.136-.282.327-.528.478-.798l.449-.714c.069-.127.227-.148.332-.048.072.067.129.143.179.227.172.279.411.504.643.733l.499.468c.057.05.067.127.098.191.012.024.002.043-.019.055-.012.007-.024.012-.031.019-.141.119-.275.103-.44.019-.327-.165-.609-.382-.86-.643-.01-.01-.019-.017-.029-.024-.115-.086-.119-.081-.17.05l-.146.401c-.022.045.012.093.045.127s.065.098.134.088c.031-.005.048-.022.055-.055l.06-.256c.26.22.549.389.836.581l-.277.158-2.129 1.199c-.057.031-.081.038-.105-.033zm.248.554c-.026-.055-.017-.079.033-.11L7.21 5.683c.045-.029.088-.012.131-.022a1.31 1.31 0 0 0 .428-.162c.01-.007.026-.012.031-.022.096-.213.308-.284.487-.368.408-.186.822-.358 1.183-.631.084-.065.172-.041.234.007s.103.124.079.217c-.029.112-.072.208-.16.289-.344.32-.624.69-.877 1.087-.227.358-.452.714-.621 1.104-.033.079-.088.141-.146.205-.239.272-.523.483-.85.635a.17.17 0 0 0-.108.158c-.005.06-.024.117-.029.177-.01.153-.06.284-.189.38-.041.031-.045.081-.06.124l-.272.91c-.002.033 0 .05-.019.057-.041.01-.076-.002-.112-.022l-1.324-.332-.165-.036c-.088-.012-.096-.053-.055-.119.057-.28.124-.557.296-.793.038-.053.036-.096.002-.153-.189-.315-.332-.655-.49-.984zm-.925 3.643l-.036-.007c-.043-.012-.057-.038-.05-.098l.153-1.422.005-.031c.012-.029.026-.033.043-.033.01 0 .024.002.038.007l1.926.509 1.928.507c.062.017.081.036.06.1l-.277.908c-.01.036-.017.074-.057.074l-1.051-.143-.671-.093-2.009-.277zm.528.917c-.012-.036-.01-.065 0-.086a.29.29 0 0 1 .017-.041c.01.045-.002.079-.017.127zm5.901 8.918v-.002c-.024.002-.026.017-.038.024-.005.005-.012.01-.019.014a.36.36 0 0 1-.038.026c-.031.021-.062.048-.076.086-.005.014-.002.024-.005.024h.007v.014l-.048.155c-.002.009-.007.017-.01.024-.012.021-.015.025-.019.029s-.014.01-.024.012h-.007c-.014 0-.029-.005-.05-.012l-.136-.048c-.015-.007-.02-.009-.024-.009l-.026-.012h-.01v-.01h-.002l-.203-.064-.119-.043c-.05-.012-.1-.036-.151-.036-.139-.048-.28-.072-.413-.119-.012 0-.019.002-.043 0v.002l-.263-.06c-.088-.014-.122-.06-.112-.148.005-.036.002-.079.002-.115 0-.012-.002-.017-.002-.041l-.055-.084c-.007-.009-.01-.017-.014-.026-.012-.012-.036-.024-.036-.038-.024-.005-.014-.01-.021-.014-.074-.069-.053-.162-.043-.251 0-.01.002-.019.002-.029l.007-.055c.002-.01.002-.019.005-.026.038-.148.048-.289-.112-.378-.019-.012-.031-.024-.055-.041v.005l-.224-.165c-.012-.024-.014-.029-.038-.038a1.41 1.41 0 0 1-.308-.227l-.074-.041h.01c-.014-.024-.031-.021-.043-.033-.019-.014-.036-.024-.06-.038-.12-.103-.282-.198-.411-.315-.045-.014-.074-.05-.11-.079v-.005l-.375-.27h.002c-.014 0-.014-.012-.038-.024-.072-.036-.143-.096-.205-.143-.019-.024-.038-.024-.057-.024-.057-.048-.108-.069-.155-.112l-.06-.041c-.143-.088-.277-.172-.394-.287l-.012-.012c-.007-.007-.014-.017-.021-.024-.011-.013-.02-.028-.026-.043s-.01-.024-.012-.038v.019c-.086-.093-.143-.201-.215-.299l-.007-.014c-.007-.024-.007-.033-.007-.041.002-.019.012-.036.024-.053.026-.172.11-.31.17-.454v-.036s0-.021-.002-.031l-.01-.019-.024-.009c-.014 0-.033.007-.057.021s-.038.027-.055.043c-.007.005-.012.01-.019.014s-.01.012-.014.019l-.012.012c-.048.055-.119.103-.182.153-.012.012-.033.026-.033.038v-.002h-.007c-.019.024-.045.024-.072.012l-.308-.136c-.024-.012-.036-.038-.041-.062l-.007-.031-.007-.026v.005c-.036-.167.022-.291.053-.435.002-.012.005-.024.005-.036.024-.139.033-.287.074-.42v-.062c-.022-.153-.022-.303-.033-.456l.002-.079-.043-.853-.053-1.782c.002-.096-.017-.177-.048-.256-.007-.019-.017-.038-.026-.057a1.96 1.96 0 0 0-.098-.162c-.053-.074-.072-.146-.048-.236l.088-.423c.012-.067.031-.103.108-.076.029.01.062.007.093.01.127.029.258.031.385.062.012 0 .017.002.033.01a2.16 2.16 0 0 1 .361.048c.012 0 .026.002.038.01l.43.06c.033 0 .062-.002.093.017l.454.055h-.014v.005l.232.036c.076.012.155.031.229.031h.002l.038.007c.048.002.067.029.074.069l.117.681c0 .017.01.031.007.045l.019.11.062.33c0 .01 0 .031.002.036v.01l.074.409v.045c-.045.048-.088.105-.129.16-.067.093-.124.193-.17.299l-.1.225-.005.002c-.024.076-.062.15-.098.222-.012.019-.014.034-.019.041v.002a3.38 3.38 0 0 1-.136.313l-.055.1c-.007.019-.024.038-.024.055-.024.091-.045.182-.091.265a.75.75 0 0 1-.074.225 2.09 2.09 0 0 1-.129.392c-.007.019-.019.036-.019.055s-.007.026-.012.036-.005.021-.01.031l-.041.748.021.007.093-.184.088-.184c.019-.043.05-.086.05-.129l.21-.349c.007-.012.022-.019.029-.043l.208-.332.077-.122c.017-.048.042-.055.064-.077s.033-.043.081-.064c0 .019.005.036.002.053s-.007.029-.01.038l-.007.029c-.002.026-.007.031-.005.038v.014c-.022.143-.022.306-.024.456 0 .007-.005.019-.005.024l.005-.002.062.43h-.002c.002 0 .005.031.005.043l.072.435.007.043c.024.115.11.194.162.294l.115.167h.002v.002c.119.105.22.213.354.308.019 0 .038.024.057.024h-.002v.012c.048.005.088.043.139.029.01-.002.019-.007.026-.012s.017-.01.019-.017c.012-.021-.01-.033-.026-.041-.196-.124-.165-.327-.189-.518h.007v-.002c.048.045.081.091.122.139.007.01.014.019.024.026l.05.055a1.07 1.07 0 0 0 .108.1c.038.031.079.064.124.088.019.007.038.024.055.024h-.005l.399.205c.029.005.055.014.079.036.048.143.105.287.091.454.005 0 .01.017.012.029s0 .021-.002.031c.017.139.017.28-.002.418.003.026.001.032-.002.038v.012c0 .139-.002.277-.038.413-.002.136-.045.268-.06.404-.012.043-.024.074.033.067v-.002l.377-.416v.01c.002-.048.031-.072.057-.096.05-.048.1-.129.151-.198l.151-.206c.01-.036.019-.05.031-.057l.029-.005c.014.002.031.007.05.019a.83.83 0 0 1 .076.048c.143.079.306.131.413.268.012.012.026.014.038.038.05.024.095.079.131.131l.038.036c.196.165.21.251.074.463-.005.007-.012.014-.017.014-.006.019-.014.038-.024.055-.005.012-.012.024-.019.036-.045.074-.084.134-.098.201a.44.44 0 0 0-.012.167l.069.284.029.174c.019.141-.048.227-.167.287zm.636 1.163c-.031.038-.036.117-.086.11h-.005a.62.62 0 0 1-.279-.086c-.029-.019-.021-.055-.021-.088v-.451c0-.031.012-.067-.019-.088-.105-.067-.079-.182-.105-.277-.01-.038.017-.057.038-.081l.277-.308c.062-.067.088-.141.043-.222-.086-.162-.072-.318-.002-.483.055-.129.091-.265.141-.418.005.005.01.012.014.017.093.117.186.217.248.334.151.289.373.499.659.652.134.072.254.171.412.19h.002c.035-.002.059-.004.054.022-.002.014-.017.014-.031.012h-.007c-.181.002-.344.03-.505.064l-.253.057-.228.05-.017.005c-.033.007-.048.024-.043.057a.07.07 0 0 0 .067.072 1.29 1.29 0 0 0 .26.017h.012a2.49 2.49 0 0 0 .351-.033c.129-.021.26-.031.392-.031a2.6 2.6 0 0 1 .382.029c-.428.069-.781.311-1.168.473-.201.084-.356.244-.547.346-.014.017-.022.043-.036.06zm1.237.315c-.024.002-.028-.002-.031-.007l-.858-.213c.098-.079.17-.124.289-.079.196.076.377.184.566.272.01 0 .022.002.029.009l.005.017zm1.957-.356l-.643.549c-.05.048-.088.05-.146.014-.351-.208-.717-.382-1.092-.542-.165-.069-.339-.098-.509-.158.019-.036.055-.036.084-.045l1.096-.418c.093-.043.186-.007.277.005.136.019.268.021.392-.045.021-.012.045-.021.072-.01l.841.346-.373.303zm1.71-1.214a.5.5 0 0 0-.076.487.32.32 0 0 1-.181.447c-.046.024-.081.038-.12.036-.029.002-.055-.005-.088-.029-.373-.258-.817-.344-1.235-.492l-.179-.057c-.072-.017-.067-.064-.057-.115.007-.036.026-.041.045-.038.019-.005.045.009.062.014.478.119.96.215 1.422.394.017.007.031.01.043.012.033-.005.043-.036.038-.081-.01-.108-.019-.213-.143-.27-.308-.143-.636-.205-.97-.232l-.148-.01c.237-.143.497-.22.71-.404l.074-.067.397-.48.048-.079h.019c.038.021.041.05.05.074l.299.741c.024.055.029.103-.007.148zm5.11-10.151c.006.007.011.015.014.024.001.015 0 .018-.002.021s-.008.011-.014.014l-.012.017-.005.014v.007c-.143.146-.105.282.01.413.007.012.014.024.014.036.096.127.017.253 0 .38-.002.012-.005.017-.014.021-.017.002-.026 0-.036-.002l-.26-.079c-.007 0-.012-.005-.019-.007s-.012-.007-.019-.007c-.038 0-.081-.002-.117-.019a.25.25 0 0 0-.291.05c.036.079.103.093.162.112.244.079.451.229.676.346.053.029.062.091.057.151-.002.033-.012.067-.019.103l-.072.308c0 .026-.002.053-.019.076.002.167-.115.291-.17.435-.007.012-.012.017-.019.041a3.2 3.2 0 0 1-.129.296c0 .007-.01.017-.012.024V13.4l-.012.022c-.012.045-.019.093-.057.131-.038.153-.112.291-.186.43-.007.012-.012.012-.017.036l-.189.473-.041.17-.007.014c-.002.01-.007.014-.01.019-.002.074-.007.131-.036.191l-.034.119-.205.927c-.055.248-.076.502-.117.75l-.105.705c-.041.167-.136.322-.213.478-.072.146-.117.301-.205.442l-.007.014c-.005.01-.009.02-.012.031l-.012.05c-.002.012-.002.024-.002.036s0 .024-.002.036v.036l-.002.072-.041.769c.002.048-.012.074-.057.091l-.057.021-.112.048-.06.024c-.031.012-.05.022-.098.034v-.005l-.143.06-.093.038c-.064.045-.136.072-.21.091l-.036.021-.452.203c0 .002-.014.007-.019.007-.081.024-.165.072-.246.11l-.263.112-.416.181c-.143.048-.275.117-.394.172-.048.026-.117.053-.177.076-.11.043-.134.038-.158-.074-.072-.053-.079-.141-.105-.215l-.072-.222c-.005-.024-.017-.019-.017-.033-.024-.034-.024-.064-.036-.098-.009-.022-.009-.029-.012-.036l-.002-.017-.093-.299c-.024-.067-.067-.131-.079-.201-.005-.023-.005-.047 0-.069l.007-.034c.024-.064.055-.11.079-.155l.048-.115.048-.115c.038-.072.062-.155.11-.239 0-.019.014-.038.019-.057l.148-.435c.014-.103.096-.134.143-.184v.002c.024-.007.036-.021.048-.021.014-.024.029-.033.043-.048.026-.031.05-.064.074-.098l.034-.05.136-.203c.017-.021.031-.055.057-.055.05.012.038.057.033.086-.024.11-.017.217 0 .325l.034.251c0 .012-.002.026-.002.038.024.062.033.124.036.189l.06.241c.072.148.124.299.172.451l.005-.002.244.389.074.088h.005v.019c.024 0 .036.053.072.005-.007-.024-.012-.024-.019-.024-.013-.025-.023-.052-.031-.079l-.014-.05a.38.38 0 0 1-.012-.05c-.002-.007-.002-.017-.005-.024-.002-.016-.005-.032-.009-.048l-.012-.074-.012-.074c-.007-.007-.007-.017-.007-.026s-.005-.02-.01-.029c-.002-.029-.007-.057-.012-.086l-.021-.172c-.002-.029-.012-.057-.014-.086-.034-.313-.012-.626.036-.936h.014l.086-.463c.007 0 .014.002.024.002-.01.26.017.518.074.772l.108.313.021.062a.26.26 0 0 0 .029.057c.007.012.017.024.026.036s.021.024.021.036c.024.019.036.041.055.06s.026.036.041.053l.165.155-.017-.139-.017-.134c-.012-.048-.017-.084-.021-.119l-.041-.327c0-.009 0-.017.002-.026s.002-.026.002-.026a2.7 2.7 0 0 1-.019-.413c-.007-.027-.009-.039-.009-.05-.019-.112-.01-.225.005-.334.005-.034.002-.069.005-.103-.002-.177.005-.337.053-.49l.038-.253.033-.239c.005-.033.014-.05.034-.05.01 0 .024.005.041.017l.05.031.074.048c.024.017.048.034.069.055a.23.23 0 0 0 .026.019h.005v-.002c.167.084.26.224.373.356a.25.25 0 0 1 .053.048.31.31 0 0 1 .057.103c.073.096.13.205.167.32.002.01.007.021.01.031s.007.005.009.029c.019.024.031.055.043.084l.034.084.019.041c.005.01.009.017.017.024s.021.019.041.024c.026-.088-.036-.172-.012-.256h.007c0-.024-.007-.024-.007-.036-.024-.155-.043-.308-.107-.452-.002-.012-.002-.038-.002-.038-.057-.143-.086-.289-.17-.416-.019-.014-.031-.038-.036-.062-.026-.024-.041-.053-.055-.081l-.038-.062v.017l-.005-.01c-.065-.098-.143-.189-.22-.277l-.01-.01c-.009-.01-.019-.01-.029-.034-.057-.024-.112-.095-.17-.146-.007-.007-.014-.01-.019-.017s0-.01-.024-.017c-.119-.081-.208-.181-.313-.253-.019-.024-.043-.01-.053-.048.308-.019.607.017.917.036v-.012h.002c.153.024.296.053.435.112l.017.012a1.36 1.36 0 0 1 .277.107c.019.01.043.041.065.012s-.01-.045-.024-.065l-.108-.15c-.007-.012-.019-.024-.019-.036-.072-.069-.127-.148-.189-.217l-.06-.065c-.072-.048-.146-.103-.208-.17-.012-.007-.024-.021-.036-.021-.031 0-.064-.034-.096-.055l-.095-.062-.036-.019-.437-.16c-.014-.005-.026-.005-.031-.007-.031-.002-.055-.012-.072-.029-.012-.009-.021-.022-.026-.036-.012-.032-.014-.053-.012-.074.005-.074 0-.148-.012-.22-.002-.021-.007-.041-.012-.062l-.014-.06-.014-.062-.024-.088c-.033-.155-.091-.301-.134-.444-.007-.019-.01-.033-.017-.057-.038-.072-.055-.112-.057-.167l.002-.055c0-.01.002-.019.002-.026.005-.026.01-.055.019-.081l.033-.107v-.017c.031-.17.098-.313.146-.466l.014-.014c.05-.067.062-.129.057-.189-.003-.035-.012-.07-.026-.103-.017-.043-.038-.084-.06-.127-.017-.014-.019-.017-.019-.019-.093-.098-.153-.227-.208-.354l-.017-.038-.01-.024-.005-.014c0-.019.005-.033.01-.048l.014-.026c.005-.007.012-.014.019-.022l.206-.289c.06-.079.079-.153.05-.251-.041-.136-.036-.139.1-.189l.43-.155.074-.029.019-.007.055-.021.452-.167c.158-.074.308-.119.456-.17.019-.007.036-.014.06-.019.024-.019.096-.036.119-.055.119-.038.215-.093.323-.117.158-.119.287-.069.394.079l.043.031c.021.019.029.041.053.065l.308.332zm-3.359.131a.28.28 0 0 1-.038.01c-.036.005-.055-.012-.079-.055l-.659-1.171c-.029-.05-.038-.076.033-.096l4.233-1.24c.014-.005.031-.007.06-.014v.005l.002-.001-.062.736-.043.533c-.005.065-.024.105-.093.129l-3.354 1.163zm-6.95 5.366c.397.033.788.112 1.183.167.053.007.105.009.155.036.119.062.179.172.225.289a1.87 1.87 0 0 1 .103.562c.01.15-.021.277-.143.377-.091.074-.165.16-.198.277.153 0 .284.026.385.155.062.081.143.148.222.217.184.165.454.127.583-.081l.174-.279c.086-.127.17-.263.322-.318.093-.031.053-.076.022-.115-.062-.079-.177-.081-.28-.019-.158.095-.265.236-.38.373-.033.041-.067.081-.112.115-.057.041-.107.043-.158-.009l-.177-.167c-.053-.043-.062-.081-.031-.143.067-.129.096-.268.081-.411-.029-.311-.079-.616-.299-.862-.024-.026-.024-.041.01-.065.244-.17.373-.404.406-.698.007-.074-.007-.134-.067-.155s-.098.041-.124.088c-.06.103-.136.196-.206.292-.107.146-.258.177-.416.153l-1.711-.179c-.029-.002-.057-.009-.081.01-.182.134-.366.263-.48.466.007.002.014.007.019.007l.055-.01a2.8 2.8 0 0 1 .917-.072zm5.311.222l-.413.222c-.036.021-.069.04-.112.048-.236.043-.476.074-.719.074-.141 0-.256-.06-.366-.129-.067-.043-.134-.105-.146-.201.036-.012.069.002.103.007.127.017.251.062.38.055.311-.019.602-.112.893-.213l.282-.103c.043-.014.055-.029.017-.069-.045-.05-.095-.041-.146-.033-.624.096-1.242.067-1.861-.045-.179-.034-.37-.045-.44-.268l-.05-.181a.37.37 0 0 0-.093-.17c-.024-.031-.055-.045-.091-.038s-.036.05-.036.079l.019.301c.012.11.048.217.112.306.124.174.296.282.506.332.155.036.155.038.17.198.007.069.017.131.081.17.112.067.225.136.361.146.084.007.169.012.241.067.093.072.205.088.318.098l.253.024c.067.012.112-.01.16-.05l.693-.614c-.026-.029-.064-.038-.117-.012zm-1.961 1.93c-.019-.033-.043-.041-.076-.021-.189.105-.401.11-.609.136-.088.012-.198-.014-.263.05-.158.155-.291.091-.43-.019-.007-.005-.014-.012-.024-.014-.206-.11-.411-.151-.621-.005-.079.055-.172.088-.265.067-.074-.019-.131-.014-.189.038-.029.026-.067.048-.1.069-.093.062-.093.072-.007.141.019.017.043.024.067.031.198.06.385.017.559-.079a.44.44 0 0 1 .516.031c.151.112.311.115.478.045.21-.088.423-.174.65-.212.033-.005.067-.017.098.009.096.088.186.026.277-.009.036-.014.041-.043.038-.079-.007-.076-.065-.119-.098-.179zm-.867.624c-.237.007-.478.045-.7.122-.184.062-.389.105-.485.318-.055.124-.048.256-.086.38.017.098.017.196.074.279.017.024.024.062.065.06s.057-.038.069-.067c.043-.091.053-.194.081-.289.045-.155.117-.28.28-.349l.514-.206c.033-.012.067-.019.1-.012.213.031.435.021.624.146.017.012.038.017.062.012.072-.017.079-.041.036-.098-.155-.215-.382-.303-.633-.296zm-1.663-2.169l.428-.052c.038-.005.098.009.107-.036s-.045-.076-.079-.107c-.017-.017-.045-.019-.069-.026-.143-.053-.289-.041-.435-.014-.294.055-.59.072-.884 0-.079-.019-.162-.019-.258-.031-.11.026-.234.053-.351.105-.081.038-.086.084-.014.139.043.034.086.05.139.031.184-.067.342-.031.492.096s.327.153.521.086c.105-.036.196-.096.292-.148.036-.019.072-.036.112-.041zM8.715 17c.007-.134-.019-.248-.127-.318-.079-.05-.11-.12-.139-.201-.038-.105-.048-.222-.134-.306-.024-.024-.041-.076-.084-.06-.05.019-.098.048-.112.115-.048.222.055.435.277.55.1.053.177.127.225.229.017.036.019.105.072.093s.01-.076.021-.103z"/></g><path d="M4.231 11.841c-.01-.002-.017.012-.021.026-.007.024-.01.05 0 .086.017-.048.029-.081.021-.112z" fill="#2e2e2e"/><path d="M17.187 16.777c.084-.112.139-.244.191-.373a.55.55 0 0 1 .024-.055c.034-.076.067-.155.072-.241v-.005c.002-.026.01-.062-.017-.072-.045-.014-.092-.021-.139-.021a.39.39 0 0 0-.055.005c-.01.002-.019.002-.026.005l-.019.012c-.014.022.019.06.01.088s-.002.057-.01.084l-.031.084-.055.117c-.076.139-.177.26-.292.375a.31.31 0 0 1-.002-.26c.002-.01.007-.017.012-.026.024-.053.055-.103.084-.153.01-.017.024-.031.034-.048s.009-.025.007-.033c-.002-.057-.074-.153-.148-.22-.021-.019-.045-.038-.067-.05a.19.19 0 0 0-.06-.024l-.091-.01c-.084-.007-.17-.014-.249-.038l-.021-.007-.377-.139-.122-.055a2.99 2.99 0 0 1-.466-.265l-.327-.227-.217-.153-.318-.241c-.007-.005-.014-.012-.021-.017-.014-.012-.031-.022-.045-.033l-.045-.034c-.022-.017-.043-.036-.06-.06l-.029-.038-.029-.038c-.141-.177-.306-.339-.373-.571-.081.184-.172.344-.277.48l-.139.162c-.21.217-.456.358-.726.435-.189.055-.387.079-.595.079l.165-.136.05-.045c.165-.148.356-.27.494-.447l.022-.014c.016-.02.018-.027.019-.033v-.012c-.031.01-.05.017-.065.036l-.425.232-.062.033-.11.055-.184.084c-.299.124-.612.203-.937.239l-.537.055-.537.043-.358.019-.053.002-.105.002-.105.005a.79.79 0 0 0-.105.014c-.017.002-.033.007-.053.012a4.24 4.24 0 0 0-.853.313l-.217.122-.139.093-.067.05c-.057.045-.1.088-.127.141-.005.01-.01.019-.012.029l-.012.045c-.002.017-.002.033-.002.05a.57.57 0 0 0 .048.191c.122.299.275.581.456.851a.54.54 0 0 0 .088.103l.131.084c.076.033.163.048.251.048.122 0 .186.036.229.148.124.318.344.557.616.738l.06.038.06.036c.084.048.162.1.241.155l.077.055c.101.076.196.158.287.246l.067.067.258.275.062.069.124.141a2.71 2.71 0 0 1 .275.366c.012.017.021.036.031.053.036.062.067.127.091.194.048.122.134.205.232.277.05.038.105.072.16.105l.129.072.182.1c.045.024.093.045.143.06l.029.007c.007.002.014.002.021.005a2.25 2.25 0 0 0 .581.017l.174-.024.162-.026.181-.034.406-.103.129-.041c.012-.005.026-.009.038-.012l.122-.045.043-.017.053-.022.065-.029.17-.084.208-.122.103-.072c.091-.067.174-.139.251-.22l.103-.119c.16-.203.289-.425.404-.652l.062-.124.088-.191.022-.053c.038-.105.057-.217.084-.339l-.103.041-.146.06c-.048.017-.098.029-.148.034a.25.25 0 0 1-.041.002c-.055 0-.098-.017-.117-.079-.019-.055.01-.076.045-.091.01-.005.019-.007.031-.009.007-.002.013-.004.019-.007l.034-.014.036-.014c.162-.062.325-.122.466-.222.088-.062.172-.129.249-.203l.091-.088a1.51 1.51 0 0 0 .315-.478c.024-.055.048-.088.065-.127s.043-.057.086-.057.076-.009.115-.012h.062c.218 0 .354-.146.475-.31zm-8.491.327c-.053.012-.055-.057-.072-.093-.048-.105-.122-.177-.225-.229-.225-.115-.327-.327-.277-.55.014-.067.062-.093.112-.115s.06.036.084.06c.086.084.096.201.134.306.029.081.06.151.139.201.107.069.134.184.127.318-.012.026.031.091-.021.103zm.779-.901c-.005 0-.01-.005-.019-.007.115-.203.299-.332.48-.466.026-.019.055-.009.081-.009l1.71.179c.158.024.308-.007.416-.153l.205-.291c.029-.048.067-.11.124-.088s.077.081.067.155c-.034.294-.162.528-.406.698-.033.024-.033.038-.009.065.22.246.27.552.299.862.012.143-.017.282-.081.411-.031.062-.021.1.031.143a2.91 2.91 0 0 1 .177.167c.053.053.103.05.158.009.043-.031.076-.074.112-.115.115-.136.222-.279.38-.373.103-.062.217-.06.28.019.031.038.072.084-.021.115-.155.053-.237.191-.322.318l-.175.279c-.129.208-.399.246-.583.081-.076-.069-.16-.136-.222-.217-.098-.129-.232-.155-.385-.155.036-.117.11-.203.198-.277.122-.098.153-.227.143-.378-.012-.191-.036-.382-.103-.561-.045-.117-.103-.227-.225-.289-.05-.026-.103-.029-.155-.036l-1.183-.167c-.313-.026-.619-.002-.925.067-.012.009-.029.012-.048.014zm1.395.719c-.191.065-.368.038-.521-.086s-.311-.163-.492-.096c-.053.019-.096.002-.139-.031-.072-.057-.067-.103.014-.139.117-.053.244-.079.351-.105.098.012.179.012.258.031a2.12 2.12 0 0 0 .884 0c.146-.026.291-.041.435.014.024.01.053.012.069.026.033.031.088.06.079.107s-.069.031-.108.036l-.428.052a.3.3 0 0 0-.112.041c-.096.053-.186.112-.292.148zm2.666 2.375c-.024.005-.045 0-.062-.012-.191-.127-.411-.115-.623-.146-.036-.005-.069 0-.1.012l-.514.206c-.162.069-.236.194-.28.349-.029.096-.038.196-.081.289-.014.031-.026.064-.069.067s-.048-.036-.065-.06c-.06-.084-.057-.184-.074-.279.038-.124.031-.256.086-.38.095-.213.301-.256.485-.318.225-.076.463-.115.7-.122.251-.007.478.081.635.296.041.057.034.081-.038.098zm.325-.762c-.091.038-.181.098-.277.009-.029-.026-.062-.017-.098-.009-.227.038-.44.124-.65.213-.165.069-.327.067-.478-.045-.165-.124-.335-.131-.516-.031-.174.096-.361.139-.559.079-.024-.007-.048-.014-.067-.031-.086-.072-.086-.081.007-.141l.1-.069c.057-.053.112-.055.189-.038.093.022.186-.012.265-.067.21-.146.416-.105.621.005l.024.014c.139.112.27.174.43.019.064-.062.175-.038.263-.05.208-.029.421-.031.609-.136.033-.019.06-.012.076.021.033.06.091.105.095.179.005.036 0 .065-.036.079zm1.331-1.565c-.05.041-.096.062-.16.05-.084-.014-.167-.017-.253-.024-.112-.009-.225-.029-.318-.098-.072-.053-.158-.06-.241-.067-.139-.01-.248-.081-.361-.146-.065-.038-.076-.1-.081-.17-.014-.16-.017-.162-.17-.198-.21-.05-.382-.158-.506-.332-.065-.088-.1-.196-.112-.306a3.2 3.2 0 0 1-.019-.301c0-.029-.002-.069.036-.079s.067.007.091.038c.041.053.081.103.093.17s.031.122.05.181c.069.222.263.234.44.268.616.112 1.237.141 1.861.045.053-.007.103-.017.146.033.036.041.026.053-.017.069l-.282.103c-.291.1-.583.194-.893.213-.129.007-.253-.038-.38-.055-.034-.005-.065-.017-.103-.007.014.096.079.158.146.201.11.069.222.129.365.129.244 0 .48-.029.719-.074.041-.007.076-.026.112-.048a5.29 5.29 0 0 1 .413-.222c.055-.026.091-.019.119.007-.222.225-.456.425-.695.619zM7.598 3.969c-.186.086-.32.251-.497.349-.048.026-.024.053 0 .081l.538.616c.014.017.024.038.031.05l.045-.019.256-.158c.029-.017.026-.038.017-.065l-.299-.829c-.026-.05-.045-.048-.091-.026zm-.757.131c.019.024.038.043.072.024.162-.088.339-.146.487-.26l1.07-.917c.055-.05.093-.1.081-.16 0-.06.017-.108-.031-.134s-.067.019-.098.036-.069.043-.105.062l-1.034.53-.753.294c-.029.01-.088.01-.041.069l.351.456zm.031 1.412l-.836-.58-.06.256c-.007.033-.024.05-.055.055-.069.012-.098-.05-.134-.088-.033-.031-.065-.081-.045-.127.06-.129.096-.27.146-.401s.057-.136.17-.05c.01.007.019.014.029.024.251.26.533.478.86.643.165.084.296.103.44-.019.01-.007.021-.012.031-.019.021-.012.031-.031.019-.055-.031-.065-.041-.141-.098-.191l-.499-.468c-.232-.229-.471-.454-.643-.733a1.19 1.19 0 0 0-.179-.227c-.105-.1-.265-.081-.332.048-.134.248-.311.468-.449.714l-.478.798c-.026.055-.026.103-.002.16.067.162.153.315.191.49.01.038.017.072-.033.091s-.062-.01-.081-.041l-.291-.495c-.306-.557-.561-1.142-.937-1.66-.019-.024-.021-.086-.074-.06-.038.019-.079.05-.067.112l.112.609.786 2.54c.024.074.048.065.103.033L6.592 5.67l.28-.158zm-1.77 3.013c-.172.236-.241.514-.296.793-.038.067-.033.11.055.119.055.007.11.024.165.036l1.324.332c.036.019.072.031.112.021.019-.007.017-.021.017-.038l.275-.929c.014-.043.019-.093.06-.124.129-.096.179-.225.189-.38.002-.06.024-.117.029-.177.007-.076.036-.124.108-.158.327-.153.612-.363.851-.635.057-.065.112-.127.146-.205.17-.389.394-.745.621-1.104.251-.397.533-.767.877-1.087.088-.081.131-.179.16-.289.024-.093-.022-.172-.079-.217s-.148-.069-.234-.007c-.361.272-.774.444-1.183.631-.179.084-.394.155-.487.368-.005.01-.019.014-.031.021-.131.084-.277.129-.428.162-.043.01-.086-.007-.131.022L4.647 7.278c-.05.031-.06.055-.033.11l.495.982c.029.06.031.103-.007.155zm1.374 1.266zm11.35-1.08l1.441-.432c.076-.021.088-.05.06-.122l-.666-1.627c-.034-.069-.043-.136-.012-.208a1.46 1.46 0 0 0 .122-.793c-.017-.139.01-.279-.007-.42-.043-.38-.162-.738-.251-1.108-.098-.416-.313-.784-.48-1.171-.115-.265-.291-.504-.435-.757l-.26-.435c-.074-.141-.163-.263-.311-.33-.038-.017-.091-.053-.122-.014-.038.05-.076.112-.048.182l.162.38c.148.351.325.693.416 1.068.036.146.074.291.084.442.005.055-.005.117-.057.136s-.064-.043-.093-.074c-.107-.117-.248-.234-.416-.165-.048.021-.105.024-.158.014-.036-.007-.081-.017-.091-.057s.029-.064.06-.086.062-.033.086-.055c.036-.033.062-.079.024-.124-.091-.112-.17-.239-.282-.327l-.712-.518-.107-.067-1.354-.733c-.062-.031-.127-.055-.198-.05-.048.005-.098.002-.119.055s-.012.108.024.151c.05.057.1.117.172.158.198.112.411.205.592.346l1.061.841c.11.091.21.191.311.296l.179.186c.019.019.038.045.043.072l.002.031c-.002.017-.012.036-.031.055-.057.057-.115.026-.17-.005-.024-.014-.041-.038-.06-.06l-.029-.029-.141-.141-.062-.05-.803-.6-.8-.602c-.15-.115-.311-.21-.48-.291-.06-.029-.095-.021-.136.024-.05.06-.057.122-.024.189.053.108.129.198.22.277.12.103.244.201.346.318l1.498 1.675c.033.041.055.084.062.134.014.093-.034.136-.124.105a.5.5 0 0 1-.05-.026l-1.763-1.08a2.98 2.98 0 0 0-.526-.291c-.057-.026-.12-.057-.167.014-.034.053-.01.155.043.196.215.163.413.346.616.523.456.397.936.769 1.276 1.283.05.074.229.105.308.055.203-.129.42-.206.664-.198h.007l.05-.002c.017 0 .031.002.043.012s.012.012.014.022c.026.057-.036.072-.069.093l-.647.42c-.055.036-.103.045-.165.029-.103-.026-.201-.067-.31-.065a8.99 8.99 0 0 0-1.338.129c-.098.017-.198.026-.289.079-.057.033-.072.088-.065.143.005.045.017.096.084.108l.829.17c.098.024.198.053.301.06l.929.624a1.42 1.42 0 0 0 .609.272c.105.017.208.048.311.074.136.036.299.036.401.115s.15.234.215.358c.038.079.086.117.174.096.074-.019.103.019.127.086l.339.956c.033.069.055.088.124.067z" fill="#f6e5cc"/></svg>