<svg data-name="Layer 1" xmlns="http://www.w3.org/2000/svg" viewBox="0 0 200 198.96"><defs><linearGradient id="a" x1="1.01" y1="200.99" x2="1.06" y2="200.94" gradientTransform="matrix(1849.27 0 0 -1853.39 -1846.85 372533.43)" gradientUnits="userSpaceOnUse"><stop offset="0" stop-color="#3073ae"/><stop offset="1" stop-color="#2f5e88"/></linearGradient><linearGradient id="b" x1=".69" y1="201.3" x2=".75" y2="201.24" gradientTransform="matrix(1849.27 0 0 -1853.39 -1202.39 373160.83)" gradientUnits="userSpaceOnUse"><stop offset="0" stop-color="#ffda48"/><stop offset="1" stop-color="#ffba2b"/></linearGradient></defs><path d="M98.86.18c-50.77 0-47.6 22-47.6 22L51.31 45h48.45v6.84H32.07S-.42 48.17-.42 99.4s28.36 49.41 28.36 49.41h16.92V125S44 96.68 72.77 96.68h48.05s27 .44 27-26.09V26.72S151.92.18 98.86.18zM72.14 15.52a8.7 8.7 0 018.72 8.7 8.71 8.71 0 01-8.7 8.78 8.7 8.7 0 01-8.71-8.7 8.7 8.7 0 018.7-8.71z" transform="translate(.42 -.18)" fill="url(#a)"/><path d="M100.3 199.14c50.77 0 47.6-22 47.6-22l-.05-22.81H99.4v-6.85h67.69s32.49 3.68 32.49-47.55-28.36-49.43-28.36-49.43H154.3v23.77s.91 28.36-27.91 28.36h-48s-27-.44-27 26.09v43.87s-4.1 26.55 49 26.55zM127 183.8a8.72 8.72 0 01-8.72-8.7 8.72 8.72 0 018.7-8.72 8.71 8.71 0 018.71 8.71 8.71 8.71 0 01-8.7 8.72z" transform="translate(.42 -.18)" fill="url(#b)"/></svg>