<svg data-name="Layer 1" xmlns="http://www.w3.org/2000/svg" viewBox="0 0 200 114.97"><path d="M74.09 1.59A123.75 123.75 0 0186.4.29a11.16 11.16 0 012.24-.17c5.85-.18 11.7-.17 17.55.09a152.55 152.55 0 0131.23 5.42v.06c-1.49 2-3 4-4.45 6.07-.44.08-.82-.2-1.21-.34a92.68 92.68 0 00-24.22-6 99.78 99.78 0 00-40.6 3.91C57.28 12.41 48 17.2 40.83 24.48c-5.08 5.2-9 11.92-9.51 19.28-.49 3.51.35 7 1.09 10.42L.17 59.81a38.62 38.62 0 013.77-16.46c4.7-10 12.85-18 21.93-24.16A100.26 100.26 0 0145.53 9.04a129.44 129.44 0 0128.56-7.45z"/><path d="M132.92 11.76c1.46-2 3-4.05 4.45-6.07 13.63 4 26.87 10.32 37.63 19.79a59.91 59.91 0 0111.46 13.49 41.5 41.5 0 016.17 19.84l-32.16-5.64a26 26 0 00.43-13c-1.67-7.4-6.42-13.75-12.14-18.58a60.07 60.07 0 00-16-9.58z" fill="#d72123"/><path d="M93.41 41.31a3.22 3.22 0 013-1.69 3.12 3.12 0 012.83 2.55L200 60.09l-.34 1.69L98.92 44.12a3.13 3.13 0 01-4.13 1.29c-1-.44-1.36-1.53-1.82-2.44l-6.2-1 .28-1.75 6.36 1.08zM0 64.88h17.77v.88a48.64 48.64 0 0113.13-1.09c3.2.29 6.14 1.66 9 3-3.23 2-6.52 3.93-9.67 6-3.52-2.71-8.29-2.71-12.39-1.53a11.73 11.73 0 00-.1 1.32v30.59H0V64.84zM53.9 64.86h-7.82v50.08l17.78-2.46v-8.08a54.45 54.45 0 0023.45-6.27c3.94-2.22 7.82-5.19 9.63-9.48a12.3 12.3 0 00-1.11-11c-2.59-4.21-6.9-7-11.36-8.89-7.19-3-15-4-22.77-3.92-2.59.03-5.19.02-7.8.02zm10 4.33c4.55.45 8.67 3 11.78 6.29 2.69 2.82 4.58 6.75 3.93 10.72s-3.48 7.2-6.59 9.6a20.29 20.29 0 01-9.12 4.15q-.02-15.39-.01-30.76zM109.31 64.89c20.34-.07 40.7 0 61.05 0 5.95 0 12 .06 17.79 1.6 1.67.55 3.89 1.2 4.33 3.14.05 11.5 0 23 0 34.49h-17.75V69.9c-1.08-.93-2.61-.89-4-1.06-3.65-.09-7.31 0-11 0v35.31H142V75.86c0-2.06.11-4.13-.09-6.18a13.71 13.71 0 00-5.28-.85h-9.53v35.32h-17.83c.09-13 0-26.21 0-39.2z"/></svg>