<svg width="50" height="50" viewBox="0 0 50 50" fill="none" xmlns="http://www.w3.org/2000/svg">
<path d="M29.2656 8.00142C29.2656 8.00142 37.9247 13.0388 40.1908 21.0413C42.2326 28.2699 40.5975 31.7198 40.5975 31.7198C41.6417 32.8776 42.4645 34.2235 43.0237 35.6884C43.5854 36.6296 43.9155 37.695 43.9858 38.7938C44.0561 39.8927 43.8646 40.9926 43.4277 42C43.4277 42 43.2884 39.0519 38.9707 38.441C35.0137 37.874 33.5749 41.7945 26.0175 41.6046C21.8302 41.5234 17.7259 40.401 14.0625 38.3355C10.3991 36.2699 7.28788 33.3237 5 29.7539C8.69234 31.8034 13.5296 34.9854 19.5535 34.4964C25.5774 34.0074 26.8351 32.1237 26.8351 32.1237C20.0639 26.6711 14.0704 20.2871 9.02662 13.155C13.7622 17.1874 25.4924 25.2126 25.2194 25.0085C20.9287 20.742 17.0031 16.1112 13.485 11.1664C13.485 11.1664 31.0846 25.8915 32.5011 25.798C33.0833 24.5776 36.0931 18.2604 29.2642 8L29.2656 8.00142Z" fill="url(#paint0_linear_12032_5108)"/>
<defs>
<linearGradient id="paint0_linear_12032_5108" x1="25.1122" y1="21.6082" x2="24.3497" y2="42.0161" gradientUnits="userSpaceOnUse">
<stop stop-color="#F88535"/>
<stop offset="1" stop-color="#FD2221"/>
</linearGradient>
</defs>
</svg>
