<svg width="251" height="250" viewBox="0 0 251 250" fill="none" xmlns="http://www.w3.org/2000/svg">
<path d="M232.82 63V187L125.434 249L18.0469 187V63L125.434 1L232.82 63ZM125.684 124.571V236L222.184 180.286V68.8574L125.684 124.571Z" fill="#160C56"/>
<path d="M29.4389 180.129L29.4389 68.6999L125.939 124.414L125.939 235.843L29.4389 180.129Z" fill="white"/>
<path d="M173.936 96.7686L125.935 124.482L77.9316 96.7676L125.934 69.0547L173.936 96.7686Z" fill="#E84A5D"/>
<path d="M221.938 124.455L173.937 152.169L125.934 124.454L173.936 96.7412L221.938 124.455Z" fill="#B069EA"/>
<path d="M222.434 68.7148L173.889 96.7412L125.934 69.0547L77.9766 96.7412L29.4336 68.7148L125.934 13L222.434 68.7148Z" fill="#F9DB4F"/>
<path d="M29.4389 180.129L29.4389 68.6999L125.939 124.414L125.939 235.843L29.4389 180.129Z" fill="white"/>
<path d="M222.203 180.31L125.692 235.992L125.939 179.912V179.906L173.936 152.196L222.203 180.31Z" fill="#88E0E2"/>
<path d="M173.935 152.196L125.938 179.907V124.484L173.935 152.196Z" fill="#1B47DC"/>
</svg>
