<svg width="48" height="48" viewBox="0 0 48 48" fill="none" xmlns="http://www.w3.org/2000/svg">
<path d="M20.9679 0.14636C13.8051 1.09317 7.56031 5.06833 3.69342 11.1322C3.02123 12.1875 2.08884 14.0233 1.64794 15.1435C0.845656 17.2178 0.426442 18.8368 0.151784 21.0195C-0.0505948 22.5735 -0.0505948 25.4211 0.151784 26.975C0.520404 29.8805 1.26487 32.3018 2.57311 34.8748C3.80184 37.2888 5.13898 39.1246 7.08327 41.0543C10.8707 44.8199 15.6772 47.1616 21.0257 47.8482C22.5797 48.0506 25.4275 48.0506 26.9815 47.8482C34.1587 46.9303 40.4252 42.9552 44.3138 36.8623C45.5642 34.9037 46.7062 32.2728 47.2844 30.0468C47.8121 27.9941 48 26.3896 48 23.9973C48 22.559 47.9639 21.8652 47.8554 21.0195C47.4868 18.1141 46.7424 15.6928 45.4341 13.1198C44.2054 10.7058 42.8682 8.87002 40.924 6.94026C37.1366 3.1747 32.3301 0.832977 26.9815 0.14636C25.4925 -0.0487844 22.4135 -0.0487844 20.9679 0.14636ZM25.2613 5.24901C25.8033 5.29238 25.9334 5.32129 26.078 5.46584C26.172 5.5598 26.2442 5.71158 26.2442 5.80554C26.2442 5.94286 26.3527 6.02959 26.8586 6.28978C28.4849 7.10649 29.6196 8.85556 29.8365 10.8576C29.8726 11.2117 29.9015 11.2696 30.0461 11.3057C30.2701 11.3635 30.4653 11.6671 30.4219 11.8911C30.393 12.0357 30.4581 12.1369 30.805 12.4332C31.0435 12.6356 31.2314 12.8379 31.2314 12.8741C31.2314 12.9102 31.1158 12.9391 30.9712 12.9391H30.711L31.217 13.474C31.8314 14.1389 32.5397 15.158 32.8649 15.8591C33.1902 16.5674 33.4432 17.572 33.6239 18.8946L33.7829 19.986L34.2671 20.8894C35.4886 23.1589 36.1464 24.9152 36.1464 25.9054C36.1391 26.9461 35.6332 28.1098 34.8381 28.9048C34.3683 29.3746 34.3394 29.418 34.3394 29.736C34.3394 30.6177 33.8551 34.246 33.6961 34.5351C33.66 34.5929 33.5588 34.4989 33.3781 34.246L33.1107 33.8629V34.3327C33.1107 35.3373 32.7927 37.9031 32.612 38.3874C32.5686 38.5174 32.5541 38.5174 32.3156 38.344C32.0843 38.1705 32.0626 38.1705 32.012 38.2862C31.9831 38.3584 31.8603 39.0595 31.7374 39.8545C31.6073 40.6423 31.4483 41.4302 31.3688 41.6036C31.1664 42.0806 30.6171 42.5938 30.1039 42.7889C29.0631 43.1792 27.8271 42.7167 27.3067 41.7409C27.2272 41.5819 26.9887 40.8014 26.7791 40.0063C26.4611 38.756 26.3888 38.5608 26.2732 38.568C26.2009 38.5753 25.8467 38.6331 25.4925 38.6981C24.683 38.8427 24.1193 38.8427 23.3097 38.6981C22.9556 38.6331 22.6014 38.5753 22.5291 38.568C22.4063 38.5608 22.3412 38.7343 22.0449 39.8979C21.5895 41.6398 21.5172 41.8132 21.0763 42.2541C20.2162 43.1142 18.8935 43.1575 17.9828 42.3481C17.4552 41.8855 17.3106 41.5097 17.0649 39.8618C16.942 39.0667 16.8192 38.3584 16.7902 38.2862C16.7396 38.1705 16.718 38.1705 16.4867 38.344C16.306 38.4813 16.2265 38.503 16.1903 38.4379C16.0241 38.1344 15.6988 35.518 15.6916 34.4483V33.8701L15.4097 34.2532C15.2507 34.4628 15.1134 34.6001 15.0917 34.5712C14.9833 34.3905 14.6291 31.9476 14.4918 30.4298L14.4412 29.8877L13.8702 29.4613C12.1789 28.211 11.485 26.3246 12.0705 24.5755C12.4174 23.5492 13.2558 22.0459 14.4051 20.4052C14.7954 19.8414 14.8243 19.7692 14.9327 19.1042C15.2363 17.1962 15.8579 15.7651 17.0938 14.1317C17.3323 13.8137 17.6576 13.4162 17.8166 13.2427L18.0985 12.9391H17.7949C17.6359 12.9391 17.4986 12.9247 17.4986 12.903C17.4986 12.8452 17.9684 12.4332 18.3298 12.1802C18.6117 11.9779 18.6261 11.9417 18.5394 11.8189C18.4093 11.6454 18.402 10.8431 18.5321 10.6769C18.5755 10.6046 18.7056 10.5251 18.8213 10.4962C18.9947 10.4529 19.0453 10.3589 19.2911 9.64337C19.6597 8.56646 20.0644 7.90153 20.78 7.186C21.4161 6.5572 22.1605 6.12355 22.9917 5.88504C23.3025 5.79831 23.4254 5.73326 23.4254 5.6393C23.4254 5.51643 23.6711 5.25624 23.8591 5.18397C23.9169 5.16228 24.112 5.15506 24.2927 5.16951C24.4734 5.19119 24.9071 5.2201 25.2613 5.24901Z" fill="#5849A6"/>
<path fill-rule="evenodd" clip-rule="evenodd" d="M26.0782 5.46596C25.9336 5.32141 25.8035 5.2925 25.2614 5.24913C25.1428 5.23945 25.0152 5.22976 24.8912 5.22034C24.6451 5.20166 24.4131 5.18405 24.2929 5.16963C24.1122 5.15517 23.9171 5.1624 23.8592 5.18408C23.6713 5.25636 23.4256 5.51655 23.4256 5.63942C23.4256 5.73338 23.3027 5.79843 22.9919 5.88516C22.1607 6.12367 21.4162 6.55732 20.7802 7.18612C20.0646 7.90165 19.6599 8.56658 19.2913 9.64349C19.0455 10.359 18.9949 10.453 18.8215 10.4963C18.7058 10.5252 18.5757 10.6047 18.5323 10.677C18.4022 10.8433 18.4095 11.6455 18.5396 11.819C18.6263 11.9418 18.6118 11.978 18.33 12.1804C17.9686 12.4333 17.4988 12.8453 17.4988 12.9031C17.4988 12.9248 17.6361 12.9392 17.7951 12.9392H18.0987L17.8168 13.2428C17.6578 13.4163 17.3325 13.8138 17.094 14.1318C15.858 15.7652 15.2365 17.1963 14.9329 19.1044C14.8245 19.7693 14.7956 19.8416 14.4052 20.4053C13.256 22.046 12.4176 23.5493 12.0707 24.5756C11.4852 26.3247 12.1791 28.2111 13.8704 29.4614L14.4414 29.8879L14.492 30.4299C14.6293 31.9477 14.9835 34.3906 15.0919 34.5713C15.1136 34.6002 15.2509 34.4629 15.4099 34.2533L15.6918 33.8702V34.4485C15.699 35.5181 16.0243 38.1345 16.1905 38.4381C16.2267 38.5031 16.3062 38.4814 16.4869 38.3441C16.7182 38.1706 16.7398 38.1706 16.7904 38.2863C16.8193 38.3586 16.9422 39.0669 17.0651 39.8619C17.3108 41.5098 17.4554 41.8856 17.983 42.3482C18.8937 43.1577 20.2164 43.1143 21.0765 42.2542C21.5174 41.8133 21.5897 41.6399 22.0451 39.898C22.3414 38.7344 22.4065 38.5609 22.5293 38.5682C22.6016 38.5754 22.9558 38.6332 23.3099 38.6983C24.1194 38.8428 24.6832 38.8428 25.4927 38.6983C25.8469 38.6332 26.2011 38.5754 26.2733 38.5682C26.389 38.5609 26.4613 38.7561 26.7793 40.0064C26.9889 40.8015 27.2274 41.582 27.3069 41.7411C27.8273 42.7168 29.0633 43.1793 30.1041 42.789C30.6173 42.5939 31.1666 42.0807 31.369 41.6037C31.4485 41.4303 31.6075 40.6425 31.7376 39.8547C31.8605 39.0596 31.9833 38.3586 32.0122 38.2863C32.0628 38.1706 32.0845 38.1706 32.3158 38.3441C32.5543 38.5176 32.5688 38.5176 32.6121 38.3875C32.7928 37.9032 33.1109 35.3374 33.1109 34.3328V33.863L33.3783 34.2461C33.559 34.499 33.6602 34.593 33.6963 34.5352C33.8553 34.2461 34.3396 30.6178 34.3396 29.7361C34.3396 29.4181 34.3685 29.3747 34.8383 28.9049C35.6334 28.1099 36.1393 26.9463 36.1466 25.9055C36.1466 24.9153 35.4888 23.159 34.2673 20.8896L33.7831 19.9861L33.624 18.8948C33.4433 17.5721 33.1904 16.5675 32.8651 15.8592C32.5399 15.1581 31.8315 14.139 31.2172 13.4741L30.7112 12.9392H30.9714C31.116 12.9392 31.2316 12.9103 31.2316 12.8742C31.2316 12.8381 31.0437 12.6357 30.8052 12.4333C30.4583 12.137 30.3932 12.0358 30.4221 11.8913C30.4655 11.6672 30.2703 11.3636 30.0463 11.3058C29.9017 11.2697 29.8728 11.2119 29.8367 10.8577C29.6198 8.85568 28.4851 7.10661 26.8588 6.2899C26.3528 6.02971 26.2444 5.94298 26.2444 5.80565C26.2444 5.7117 26.1722 5.55992 26.0782 5.46596Z" fill="white"/>
<path fill-rule="evenodd" clip-rule="evenodd" d="M26.0779 5.46596C25.9333 5.32141 25.8032 5.2925 25.2611 5.24913C25.1425 5.23945 25.0149 5.22976 24.8909 5.22035C24.6448 5.20166 24.4128 5.18405 24.2926 5.16963C24.1119 5.15517 23.9168 5.1624 23.8589 5.18408C23.671 5.25636 23.4253 5.51655 23.4253 5.63942C23.4253 5.73338 23.3024 5.79843 22.9916 5.88516C22.1604 6.12367 21.4159 6.55732 20.7799 7.18612C20.0643 7.90165 19.6596 8.56658 19.2909 9.64349C19.0452 10.359 18.9946 10.453 18.8211 10.4963C18.7055 10.5252 18.5754 10.6048 18.532 10.677C18.4019 10.8433 18.4092 11.6455 18.5393 11.819C18.5738 11.8679 18.5923 11.9031 18.5842 11.9404C18.9127 12.3881 19.5973 13.2937 20.1413 13.9214C20.8665 14.7581 21.8706 15.2044 22.8004 15.3345C23.7301 15.4647 25.1433 15.5948 25.8313 15.5762C26.5193 15.5576 27.9325 14.9998 28.3043 14.628C28.3609 14.5714 28.4489 14.4894 28.5579 14.3879C29.1023 13.8807 30.1719 12.8844 30.4798 12.1157C30.4172 12.0301 30.4067 11.9666 30.4218 11.8913C30.4652 11.6672 30.27 11.3636 30.046 11.3058C29.9014 11.2697 29.8725 11.2119 29.8363 10.8577C29.6195 8.85568 28.4847 7.10661 26.8585 6.2899C26.3525 6.02971 26.2441 5.94298 26.2441 5.80565C26.2441 5.7117 26.1718 5.55992 26.0779 5.46596Z" fill="#17A9F9"/>
<ellipse cx="24.4048" cy="12.1742" rx="2.51663" ry="2.51653" fill="#1794DA"/>
<ellipse cx="24.4048" cy="11.7309" rx="2.51663" ry="2.51653" fill="white"/>
<path d="M24.4886 10.1177L23.1431 12.7949C22.9599 12.5374 22.6405 11.7815 22.9138 11.0684C23.1872 10.3554 24.0776 10.1375 24.4886 10.1177Z" fill="#F2F2F2"/>
<path fill-rule="evenodd" clip-rule="evenodd" d="M34.38 29.4404C33.5078 30.0302 31.661 31.085 30.1333 31.3142C31.2613 31.1922 33.5095 30.7985 34.3216 30.1379C34.333 29.974 34.3394 29.837 34.3394 29.736C34.3394 29.6084 34.3441 29.525 34.38 29.4404ZM14.5102 30.6259C15.2545 30.8591 17.2074 31.214 19.1623 30.7933C18.4838 30.8242 16.5966 30.6867 14.4419 29.8954L14.4918 30.4299C14.4976 30.4937 14.5037 30.5591 14.5102 30.6259ZM16.7573 25.4967C15.8399 24.955 15.546 24.032 15.597 23.6716C15.4827 24.3643 15.352 25.4299 17.8905 26.8531C19.8225 27.9362 24.0047 27.3853 25.915 26.9051V27.079H26.165L26.044 27.2359V27.6796C27.025 26.8083 28.717 26.5958 29.4404 26.5984C30.744 26.4412 31.6185 27.6624 31.8928 28.2927C31.8498 28.1528 31.6944 27.7473 31.4169 27.2439C31.1393 26.7406 30.8441 26.5342 30.7311 26.494C32.2413 25.8488 32.7265 24.4717 32.7802 23.8638C32.4106 25.0198 31.509 25.4871 30.9011 25.8021L30.9011 25.8021L30.901 25.8022C30.7793 25.8653 30.6694 25.9222 30.5779 25.9774C30.139 26.242 28.8109 26.2738 28.2017 26.2566L28.2475 26.3481L27.0306 26.2792L27.303 26.5984C26.9678 26.703 26.238 26.642 25.915 26.5984V26.4363C25.8228 26.4782 25.4925 26.4922 25.3388 26.494C24.1237 26.4646 22.6556 25.7724 22.0734 25.4299V25.9978C22.4666 26.3036 24.021 26.6567 24.7491 26.795C23.622 27.1358 21.4836 27.1263 20.5553 27.079L20.9594 26.6749C20.4789 26.7113 19.3016 26.7011 18.4366 26.3691C17.5716 26.0371 17.1151 25.7794 16.995 25.692C17.3183 25.4386 17.8361 25.2525 18.2237 25.2279C19.3741 25.1548 21.2166 26.249 21.9569 26.7309L21.908 26.2482C21.4821 25.8441 19.409 24.8674 18.3764 24.8674C17.6598 24.8674 16.995 25.3012 16.7573 25.4967Z" fill="#E6E6E6"/>
<path fill-rule="evenodd" clip-rule="evenodd" d="M19.4717 20.1016C19.132 19.8558 19.0597 19.5812 19.291 19.4511C19.4717 19.3427 19.5006 19.3499 19.8331 19.5812C20.6209 20.116 21.9508 20.6653 22.9483 20.8532C25.0732 21.258 27.0031 20.911 29.0124 19.7619C29.5979 19.4294 29.7352 19.3788 29.8581 19.4438C30.1038 19.5739 30.0388 19.8486 29.699 20.1016C29.2943 20.3979 28.2896 20.8966 27.6319 21.1351C25.8105 21.7856 23.671 21.8145 21.734 21.2001C21.0762 20.9905 19.927 20.434 19.4717 20.1016ZM19.6957 16.8781C19.609 16.9359 19.5006 17.0804 19.45 17.2033C19.3343 17.4852 19.4572 17.8176 19.7463 17.9622C20.0354 18.114 20.2017 18.0995 20.4546 17.8827C21.0545 17.3768 20.3318 16.43 19.6957 16.8781ZM28.3908 16.8491C28.3113 16.8925 28.2101 17.0443 28.1522 17.1744C28.0583 17.3984 28.0583 17.4563 28.1595 17.6659C28.3618 18.0923 28.7738 18.179 29.128 17.8827C29.5761 17.5069 29.3304 16.7696 28.7594 16.7696C28.6293 16.7696 28.463 16.8058 28.3908 16.8491Z" fill="black"/>
</svg>
