<svg width="47" height="47" viewBox="0 0 47 47" fill="none" xmlns="http://www.w3.org/2000/svg">
<g clip-path="url(#clip0_262_40412)">
<path fill-rule="evenodd" clip-rule="evenodd" d="M13.7083 41.1249C13.7083 38.9618 15.4618 37.2083 17.6249 37.2083C19.788 37.2083 21.5416 38.9618 21.5416 41.1249C21.5416 43.288 19.788 45.0416 17.6249 45.0416C15.4618 45.0416 13.7083 43.288 13.7083 41.1249Z" fill="#0278D5"/>
<path fill-rule="evenodd" clip-rule="evenodd" d="M35.25 41.1249C35.25 38.9618 37.0036 37.2083 39.1667 37.2083C41.3298 37.2083 43.0833 38.9618 43.0833 41.1249C43.0833 43.288 41.3298 45.0416 39.1667 45.0416C37.0036 45.0416 35.25 43.288 35.25 41.1249Z" fill="#0278D5"/>
<path fill-rule="evenodd" clip-rule="evenodd" d="M0 1.95833C0 0.876776 0.876776 0 1.95833 0H9.79167C10.7251 0 11.5287 0.658754 11.7119 1.574L13.3567 9.79167H45.0417C45.6253 9.79167 46.1785 10.052 46.5506 10.5017C46.9226 10.9514 47.0747 11.5435 46.9653 12.1168L43.8292 28.5619C43.5606 29.9144 42.8248 31.1292 41.7507 31.9938C40.682 32.8541 39.3461 33.3131 37.9747 33.2917H18.9736C17.6022 33.3131 16.2663 32.8541 15.1976 31.9938C14.124 31.1295 13.3884 29.9153 13.1195 28.5636C13.1194 28.563 13.1196 28.5641 13.1195 28.5636L9.84805 12.2184C9.83478 12.1644 9.82375 12.1094 9.81507 12.0537L8.18645 3.91667H1.95833C0.876776 3.91667 0 3.03989 0 1.95833ZM14.1406 13.7083L16.9608 27.7989C17.0504 28.2497 17.2956 28.6547 17.6536 28.9429C18.0116 29.2311 18.4596 29.3842 18.9191 29.3754L18.9567 29.375H37.9917L38.0292 29.3754C38.4887 29.3842 38.9367 29.2311 39.2947 28.9429C39.6511 28.656 39.8957 28.2535 39.9863 27.8052L42.6746 13.7083H14.1406Z" fill="#0278D5"/>
</g>
<defs>
<clipPath id="clip0_262_40412">
<rect width="47" height="47" fill="white"/>
</clipPath>
</defs>
</svg>
