<svg width="49" height="49" viewBox="0 0 49 49" fill="none" xmlns="http://www.w3.org/2000/svg">
<path fill-rule="evenodd" clip-rule="evenodd" d="M27.8139 9.54565C28.6404 9.72437 29.1656 10.5393 28.9869 11.3659L22.8964 38.6048C22.7177 39.4314 21.9027 39.9566 21.0761 39.7778C20.2495 39.5991 19.7244 38.7842 19.9031 37.9576L25.9936 10.7187C26.1723 9.89212 26.9873 9.36693 27.8139 9.54565ZM32.5587 14.2778C33.1302 13.6544 34.0988 13.6122 34.7222 14.1837L43.9097 22.6056C44.2098 22.8806 44.388 23.2638 44.4049 23.6705C44.4219 24.0772 44.2763 24.4739 44.0002 24.773L34.8127 34.7261C34.2391 35.3475 33.2703 35.3862 32.6489 34.8126C32.0275 34.239 31.9887 33.2703 32.5623 32.6489L40.7076 23.8248L32.6528 16.4412C32.0294 15.8698 31.9873 14.9012 32.5587 14.2778ZM14.2541 14.2059C14.8652 13.6214 15.8345 13.6429 16.419 14.254C17.0036 14.8652 16.9821 15.8344 16.3709 16.419L8.29103 24.1476L16.418 32.628C17.0032 33.2386 16.9826 34.2079 16.372 34.793C15.7614 35.3781 14.7921 35.3575 14.207 34.7469L5.01946 25.16C4.73829 24.8666 4.58528 24.4735 4.59411 24.0672C4.60295 23.6609 4.77291 23.2748 5.06657 22.994L14.2541 14.2059Z" fill="black"/>
</svg>
