<svg width="44" height="44" viewBox="0 0 49 49" fill="none" xmlns="http://www.w3.org/2000/svg">
<g clip-path="url(#clip0_262_40298)">
<path d="M34.6442 17.3444C35.1782 18.5073 35.7743 19.6412 36.304 20.8062C37.3236 23.0483 38.0979 25.4156 38.4196 27.8573C38.7412 30.2991 38.6013 32.8205 37.8386 35.1617C36.9762 37.8046 35.339 40.1558 33.333 42.08C30.96 44.3566 27.9139 46.1116 24.6279 46.2412C22.4868 46.3255 20.3552 45.7134 18.4592 44.7153C16.8657 43.8767 15.4111 42.7591 14.2505 41.3825C13.0899 40.0059 12.2281 38.3667 11.8291 36.6107C11.3377 34.4484 11.5601 32.153 12.3037 30.064C12.8356 28.5702 13.6241 27.1793 14.1854 25.6962C14.7988 24.0757 15.1413 22.3453 15.954 20.8151C16.6904 19.4275 17.7952 18.2423 18.3821 16.7851C18.7326 15.9148 18.8846 14.9801 19.111 14.0695C19.3373 13.1588 19.6542 12.2417 20.2706 11.5342C21.0136 10.6818 22.1311 10.2198 23.2541 10.0901C24.3771 9.96032 25.5139 10.1355 26.6161 10.3869C27.4936 10.587 28.3605 10.8355 29.2085 11.1372C29.9323 11.3947 30.6495 11.6945 31.2754 12.14C32.1283 12.7468 32.7778 13.6014 33.2953 14.5113C33.8128 15.4213 34.2089 16.3934 34.6458 17.3446L34.6442 17.3444Z" fill="#020204"/>
<path d="M25.2151 46.2619C26.1172 46.3144 27.0176 46.4019 27.9115 46.5369C28.6976 46.6563 29.4779 46.8102 30.2504 46.9981C31.4604 47.2914 32.6661 47.6654 33.9107 47.7008C34.2382 47.7101 34.5668 47.6955 34.8882 47.6244C35.2097 47.5532 35.5184 47.4234 35.7747 47.2192C36.1569 46.9147 36.398 46.4552 36.4894 45.9748C36.5807 45.4944 36.5235 44.9947 36.3828 44.5266C36.1015 43.5907 35.4971 42.7921 34.9989 41.9521C34.7127 41.4712 34.4577 40.9713 34.1477 40.5055C33.8377 40.0397 33.467 39.6034 32.9963 39.2999C32.3455 38.8804 31.5385 38.7436 30.7681 38.8204C29.9977 38.8971 29.2591 39.1755 28.5716 39.5315C27.6078 40.0305 26.7006 40.7157 26.1752 41.6654C25.9924 41.9959 25.8595 42.351 25.7042 42.6955C25.5489 43.0399 25.367 43.3788 25.1039 43.6497C24.8103 43.9518 24.4294 44.1555 24.1258 44.4473C23.9741 44.5949 23.8413 44.7631 23.765 44.9587C23.6887 45.1544 23.6679 45.378 23.7388 45.5763C23.7875 45.7124 23.8765 45.8318 23.9864 45.9256C24.0963 46.0194 24.2262 46.088 24.3625 46.1356C24.6348 46.2314 24.9284 46.2455 25.2166 46.2622L25.2151 46.2619Z" fill="#020204"/>
<path d="M22.5337 46.2035C21.7818 46.2209 21.0378 46.3554 20.303 46.5076C19.5991 46.6531 18.8984 46.8152 18.2029 46.9977C17.0296 47.3057 15.8547 47.6746 14.6418 47.7004C14.3226 47.7069 14.0011 47.6897 13.69 47.6177C13.3788 47.5457 13.0777 47.4176 12.8281 47.2185C12.4467 46.9144 12.2043 46.4558 12.1146 45.9765C12.0249 45.4973 12.0796 44.9983 12.2187 44.5309C12.4971 43.596 13.0939 42.7956 13.5827 41.9515C13.8604 41.4718 14.1054 40.973 14.4058 40.507C14.7061 40.041 15.0677 39.6038 15.5309 39.2992C16.1621 38.8842 16.9492 38.7436 17.7009 38.8176C18.4526 38.8916 19.1729 39.1686 19.8359 39.5308C20.7718 40.042 21.6265 40.7455 22.1676 41.663C22.5473 42.3076 22.7663 43.0449 23.2101 43.6473C23.4491 43.9717 23.7514 44.2519 23.9482 44.6024C24.0476 44.7776 24.1204 44.9706 24.1373 45.1715C24.1542 45.3725 24.1127 45.5812 23.9995 45.7481C23.9249 45.8584 23.8212 45.9477 23.7054 46.0134C23.5896 46.0792 23.4619 46.1225 23.3315 46.1496C23.069 46.204 22.8017 46.1955 22.5352 46.2021L22.5337 46.2035ZM18.3325 14.8949C18.2269 13.6238 18.2505 12.3456 18.2046 11.0708C18.159 9.8451 18.0461 8.62005 18.0873 7.39417C18.1293 6.14763 18.3383 4.88469 18.8933 3.76445C19.4483 2.6442 20.3498 1.69651 21.4495 1.10374C22.4828 0.546081 23.6746 0.307763 24.8503 0.320556C26.4445 0.337942 28.0427 0.819499 29.3336 1.75473C30.143 2.34061 30.8237 3.09591 31.3607 3.93847C31.8188 4.65769 32.1747 5.44318 32.3981 6.26753C32.8562 7.95692 32.7474 9.73619 32.8367 11.4827C32.9211 13.1379 33.186 14.7893 33.0958 16.4442C33.0761 16.8051 33.0374 17.1715 32.8772 17.4939C32.721 17.808 32.456 18.0606 32.1514 18.2348C31.8468 18.409 31.504 18.5081 31.1574 18.5615C30.4641 18.6685 29.7551 18.5979 29.0567 18.6627C28.0431 18.7567 27.0762 19.1326 26.0702 19.2883C24.8729 19.4736 23.6498 19.3424 22.4376 19.2939C21.9521 19.2745 21.4649 19.2684 20.9831 19.2079C20.5012 19.1474 20.0203 19.0308 19.5915 18.8021C19.3291 18.6614 19.0842 18.4782 18.8871 18.2527C18.6899 18.0272 18.5393 17.7606 18.4644 17.4692C18.3517 17.034 18.4111 16.5759 18.4127 16.1263C18.4144 15.7153 18.3665 15.3058 18.3307 14.8962L18.3325 14.8949Z" fill="#020204"/>
<path d="M20.24 14.405C20.0684 14.6199 19.9566 14.8785 19.889 15.1454C19.8214 15.4123 19.7968 15.688 19.7861 15.9629C19.7651 16.5128 19.7986 17.0733 19.6533 17.604C19.4975 18.1715 19.1488 18.6629 18.8073 19.1422C18.216 19.9721 17.6181 20.8234 17.3267 21.7996C17.15 22.3909 17.0912 23.0171 17.1548 23.6309C16.493 24.6029 15.9197 25.6352 15.4452 26.7112C14.7258 28.3418 14.2321 30.078 14.0585 31.8515C13.8459 34.0234 14.1237 36.2573 14.9814 38.2641C15.6014 39.715 16.5261 41.0432 17.7182 42.077C18.3242 42.6027 18.9975 43.0513 19.7192 43.4051C22.2144 44.6315 25.298 44.6336 27.7517 43.3264C29.034 42.6431 30.1165 41.6439 31.16 40.6329C31.7885 40.024 32.4137 39.4008 32.8932 38.6686C33.8161 37.2593 34.1376 35.5463 34.3373 33.8737C34.6867 30.9487 34.6979 27.8591 33.4156 25.2073C32.9727 24.2925 32.3869 23.4542 31.6801 22.7239C31.4923 21.4478 31.1214 20.1985 30.5825 19.0266C30.1938 18.1811 29.7184 17.3762 29.3573 16.5187C29.209 16.1666 29.0784 15.8061 28.9156 15.4613C28.7527 15.1165 28.5482 14.7847 28.272 14.5207C27.9893 14.25 27.6372 14.0585 27.2655 13.9358C26.8939 13.8131 26.5028 13.7575 26.1125 13.7378C25.3309 13.6984 24.5478 13.8006 23.766 13.7696C23.1436 13.745 22.5231 13.6358 21.9012 13.6725C21.5902 13.6909 21.2795 13.7463 20.9909 13.8636C20.7022 13.9809 20.4361 14.1616 20.2419 14.4049L20.24 14.405Z" fill="#FDFDFB"/>
<g filter="url(#filter0_f_262_40298)">
<path d="M19.8568 17.3223C20.1362 18.1322 20.6983 18.8234 21.3635 19.3634C21.5849 19.543 21.8198 19.7085 22.0796 19.8254C22.3394 19.9423 22.6261 20.0091 22.9099 19.9848C23.1879 19.9612 23.4523 19.852 23.6955 19.7149C23.9388 19.5777 24.164 19.4119 24.3997 19.2627C24.8036 19.0068 25.2362 18.8001 25.6556 18.5705C26.1611 18.2938 26.6511 17.98 27.0768 17.5929C27.2716 17.415 27.4534 17.221 27.6685 17.0681C27.8837 16.9152 28.1414 16.8047 28.4047 16.8226C28.6021 16.836 28.7873 16.92 28.9807 16.9616C29.0791 16.9825 29.1775 16.9928 29.2754 16.9777C29.3734 16.9626 29.469 16.9213 29.5375 16.8498C29.6215 16.7624 29.6583 16.6366 29.6524 16.5152C29.6464 16.3938 29.6058 16.2769 29.549 16.1696C29.4358 15.9551 29.2644 15.7702 29.1882 15.5401C29.1203 15.3351 29.1341 15.1137 29.14 14.8981C29.1459 14.6826 29.1413 14.4569 29.0415 14.2655C28.9658 14.1195 28.8388 14.0039 28.6935 13.927C28.5482 13.8501 28.3851 13.8122 28.2218 13.7951C27.8946 13.7644 27.5667 13.8279 27.2387 13.8464C26.803 13.871 26.3658 13.8166 25.9303 13.8428C25.3874 13.8756 24.8548 14.0331 24.3108 14.0341C23.6898 14.0352 23.0695 13.832 22.456 13.9291C22.1928 13.9708 21.9418 14.0666 21.6891 14.1509C21.4363 14.2352 21.1752 14.3095 20.9089 14.3057C20.6064 14.3013 20.3135 14.1966 20.0117 14.175C19.8608 14.1641 19.7063 14.175 19.5646 14.2279C19.4229 14.2809 19.2948 14.3795 19.2254 14.5138C19.1855 14.5909 19.1658 14.6774 19.1621 14.764C19.1583 14.8506 19.1703 14.9373 19.1913 15.0215C19.2331 15.1898 19.31 15.3467 19.3717 15.5081C19.6002 16.091 19.6492 16.7297 19.8534 17.3215L19.8568 17.3223Z" fill="black" fill-opacity="0.26"/>
</g>
<g opacity="0.3" filter="url(#filter1_f_262_40298)">
<path d="M19.0781 15.0141C19.6207 15.3495 20.1077 15.7611 20.5166 16.2306C20.8959 16.6663 21.2185 17.1603 21.7139 17.4831C22.0637 17.7109 22.484 17.8393 22.9102 17.8783C23.4108 17.9241 23.9173 17.85 24.3998 17.7193C24.8471 17.5982 25.2795 17.4278 25.6762 17.2027C26.4304 16.7742 27.0606 16.1462 27.8905 15.8646C28.0721 15.8031 28.2612 15.7591 28.4362 15.6833C28.6112 15.6074 28.7757 15.4938 28.8593 15.3331C28.9414 15.1787 28.9364 15.0004 28.9627 14.8307C28.9906 14.6494 29.0535 14.4739 29.088 14.2935C29.1224 14.1131 29.1265 13.92 29.0421 13.7541C28.9719 13.6167 28.8444 13.5082 28.6976 13.4391C28.5508 13.3701 28.386 13.3388 28.2213 13.3313C27.8923 13.3162 27.5672 13.394 27.2392 13.4216C26.8045 13.4582 26.3669 13.4065 25.9308 13.4186C25.3882 13.4337 24.8535 13.547 24.3113 13.5704C23.6926 13.5973 23.0756 13.5073 22.4566 13.4873C22.1889 13.4786 21.9194 13.4828 21.6555 13.5256C21.3916 13.5683 21.1326 13.6497 20.9092 13.7863C20.6927 13.9188 20.5161 14.0986 20.3176 14.2532C20.2184 14.3305 20.1129 14.402 19.9971 14.4564C19.8813 14.5107 19.7544 14.5478 19.6248 14.5535C19.558 14.5565 19.4906 14.5512 19.4247 14.5606C19.3694 14.5692 19.3165 14.5877 19.269 14.6152C19.2215 14.6427 19.1804 14.6786 19.1481 14.7208C19.1157 14.763 19.0928 14.8107 19.0805 14.8611C19.0683 14.9116 19.067 14.9637 19.0768 15.0146L19.0781 15.0141Z" fill="black"/>
</g>
<path d="M20.4907 7.60634C20.1987 7.62225 19.9191 7.75724 19.7054 7.95685C19.4917 8.15646 19.3413 8.41807 19.2484 8.69559C19.0631 9.25062 19.1049 9.85224 19.1467 10.4342C19.1849 10.9626 19.2238 11.5011 19.4218 11.9927C19.5207 12.2384 19.6596 12.4683 19.845 12.6593C20.0303 12.8502 20.2635 12.9942 20.5204 13.0585C20.7615 13.1188 21.0187 13.1064 21.2557 13.0319C21.4927 12.9574 21.709 12.822 21.8865 12.6484C22.1456 12.395 22.32 12.0635 22.42 11.7152C22.5201 11.3668 22.5486 11.0014 22.5434 10.6392C22.5368 10.1859 22.4778 9.73054 22.3357 9.30016C22.1937 8.86977 21.9674 8.46317 21.6513 8.13792C21.4983 7.98047 21.3236 7.84187 21.1264 7.74477C20.9293 7.64767 20.7093 7.59305 20.49 7.60486L20.4907 7.60634Z" fill="url(#paint0_radial_262_40298)"/>
<path d="M25.6601 7.60633C25.2042 7.91797 24.822 8.35672 24.635 8.87748C24.3995 9.53388 24.4897 10.2684 24.717 10.9277C24.9499 11.603 25.3393 12.2464 25.9275 12.6519C26.2216 12.8546 26.5619 12.9935 26.9165 13.0357C27.2711 13.0778 27.6398 13.0201 27.9564 12.8552C28.3423 12.6542 28.6367 12.302 28.8194 11.9072C29.0022 11.5124 29.0802 11.0756 29.1045 10.641C29.1373 10.0874 29.0816 9.52469 28.8995 9.00082C28.7018 8.43167 28.3418 7.90682 27.8378 7.57927C27.5852 7.41558 27.2979 7.30306 26.9997 7.2619C26.7015 7.22073 26.392 7.25156 26.1113 7.36063C25.9514 7.42296 25.8018 7.5094 25.6603 7.60666L25.6601 7.60633Z" fill="url(#paint1_radial_262_40298)"/>
<g opacity="0.3" filter="url(#filter2_f_262_40298)">
<path d="M20.3935 12.3287L19.5511 13.0971C19.4028 13.2464 19.2542 13.4061 19.1878 13.6056C19.1287 13.7827 19.1399 13.9751 19.1107 14.1599C19.1008 14.2233 19.0861 14.2862 19.0857 14.3502C19.0852 14.3823 19.0895 14.4142 19.0985 14.445C19.1079 14.4757 19.1231 14.5045 19.1453 14.528C19.1817 14.5669 19.2335 14.588 19.2857 14.5985C19.3378 14.609 19.3915 14.6103 19.4444 14.6161C19.6833 14.6418 19.9034 14.7576 20.1012 14.8941L20.6834 15.3181C21.1312 15.6025 21.6664 15.7289 22.1967 15.7491C22.7269 15.7693 23.2559 15.6884 23.7762 15.5843C24.1895 15.5016 24.6018 15.4039 24.994 15.249C25.5948 15.0122 26.1362 14.6476 26.6535 14.2613C26.8886 14.0858 27.1203 13.9049 27.3314 13.7012C27.4031 13.632 27.4725 13.5601 27.5492 13.4968C27.626 13.4335 27.7113 13.3784 27.8061 13.3479C27.9504 13.3015 28.1072 13.3148 28.2568 13.3397C28.3695 13.3585 28.4825 13.384 28.5967 13.379C28.6537 13.3768 28.711 13.3669 28.764 13.3456C28.8169 13.3243 28.866 13.2915 28.9022 13.2472C28.9496 13.188 28.9751 13.1143 28.9747 13.0385C28.9751 12.9634 28.9518 12.8893 28.914 12.8245C28.8378 12.6949 28.7061 12.6075 28.5688 12.5465C28.3808 12.4628 28.1774 12.4218 27.9773 12.3733C27.3631 12.225 26.7661 12.0059 26.2 11.7248C25.9186 11.585 25.645 11.4302 25.3681 11.2819C25.0834 11.1294 24.7932 10.9827 24.4841 10.8891C23.7931 10.6796 23.0374 10.7484 22.3556 10.9852C21.5978 11.2483 20.9127 11.7172 20.393 12.3282L20.3935 12.3287Z" fill="black"/>
</g>
<path d="M21.8632 11.4606C22.153 11.1347 22.3513 10.7373 22.6298 10.4016C22.7692 10.2338 22.9296 10.0809 23.1189 9.97232C23.3082 9.86374 23.5276 9.80175 23.7449 9.82044C23.9867 9.84144 24.2132 9.96183 24.3902 10.128C24.5672 10.2941 24.6985 10.5052 24.8035 10.7225C24.9039 10.9322 24.9836 11.1556 25.1283 11.3376C25.2824 11.5318 25.4989 11.6643 25.6941 11.817C25.7919 11.8933 25.8855 11.9761 25.9628 12.0729C26.04 12.1697 26.1006 12.2822 26.1252 12.4037C26.1494 12.5281 26.1389 12.6567 26.0948 12.7756C26.0519 12.8937 25.9789 13.0006 25.8882 13.0879C25.7068 13.2625 25.4594 13.3568 25.2101 13.3921C24.7115 13.4626 24.2071 13.314 23.7038 13.3281C23.1942 13.3421 22.6964 13.5223 22.1869 13.5036C21.9322 13.4943 21.6739 13.4321 21.4646 13.2866C21.359 13.2143 21.2699 13.1207 21.2028 13.0117C21.1369 12.9027 21.0967 12.7772 21.0924 12.6499C21.0883 12.5286 21.1167 12.4072 21.1653 12.2956C21.2138 12.1841 21.2822 12.0821 21.3591 11.9879C21.5133 11.7997 21.7014 11.6425 21.863 11.4608L21.8632 11.4606Z" fill="url(#paint2_radial_262_40298)"/>
<g filter="url(#filter3_f_262_40298)">
<path d="M27.545 2.4376C27.1245 2.7343 27.3082 3.10471 27.4891 3.47663C27.6699 3.84855 27.0915 4.92047 27.0852 4.96658C27.079 5.01269 28.2239 4.42325 28.5359 4.04018C28.9044 3.58794 29.8355 4.65211 29.7851 4.48997C29.7854 4.20025 27.9657 2.14089 27.5452 2.4376H27.545Z" fill="#7C7C7C"/>
</g>
<path d="M26.7118 8.98319C26.5404 8.99549 26.3733 9.05405 26.228 9.14721C26.0826 9.24037 25.9585 9.36289 25.8611 9.50477C25.6664 9.78819 25.5806 10.1357 25.567 10.479C25.5566 10.7369 25.585 10.9982 25.6706 11.2417C25.7562 11.4853 25.9003 11.7108 26.0992 11.8753C26.3026 12.0438 26.5611 12.145 26.825 12.1574C27.0889 12.1699 27.3564 12.094 27.5729 11.9431C27.7456 11.8228 27.8849 11.6573 27.9841 11.4718C28.0833 11.2863 28.1432 11.081 28.1703 10.8724C28.2185 10.5038 28.164 10.119 27.9936 9.78868C27.8232 9.45835 27.5344 9.18625 27.1855 9.05782C27.0346 9.00205 26.8722 8.97319 26.7118 8.98467V8.98319Z" fill="#020204"/>
<g filter="url(#filter4_f_262_40298)">
<path d="M27.1208 10.1075C26.9788 10.1636 26.7539 10.1283 26.6917 10.2677C26.6548 10.3504 26.707 10.4864 26.7906 10.5203C26.9599 10.5892 27.2223 10.4645 27.2909 10.2948C27.3204 10.221 27.2756 10.1045 27.2023 10.0734C27.1753 10.0619 27.1482 10.0963 27.121 10.1071L27.1208 10.1075Z" fill="#141413"/>
</g>
<g filter="url(#filter5_f_262_40298)">
<path d="M27.7719 10.4765C27.9622 10.2862 27.6364 9.78103 27.3824 9.57436C27.1983 9.42461 26.6623 9.26765 26.6853 9.43085C26.7082 9.59405 26.9477 9.80251 27.1109 9.96177C27.3097 10.1578 27.6817 10.567 27.7719 10.4765Z" fill="url(#paint3_linear_262_40298)"/>
</g>
<path d="M23.938 9.26681C24.3305 8.94124 24.7831 8.69603 25.2702 8.54513C26.2684 8.23678 27.4024 8.35864 28.2845 8.91827C28.5891 9.11149 28.8606 9.35161 29.144 9.575C29.4274 9.7984 29.7279 10.008 30.0684 10.1277C30.2521 10.1924 30.4486 10.2299 30.6425 10.2098C30.8176 10.1914 30.9869 10.1258 31.1319 10.0261C31.2769 9.92633 31.3984 9.79348 31.4895 9.64274C31.6718 9.34144 31.7306 8.97601 31.6991 8.62534C31.6362 7.92383 31.2405 7.3045 30.9088 6.68336C30.805 6.48884 30.7061 6.29087 30.5808 6.1093C30.1965 5.55229 29.5847 5.18489 28.9431 4.9697C28.3014 4.75451 27.6234 4.67676 26.9519 4.59213C26.6524 4.5544 26.3494 4.51504 26.0498 4.55112C25.7053 4.59262 25.3812 4.73154 25.0452 4.81765C24.8856 4.85866 24.723 4.88736 24.5649 4.93312C24.4068 4.97888 24.2512 5.04301 24.1226 5.14569C23.9348 5.29593 23.8167 5.52129 23.7655 5.75633C23.7143 5.99137 23.7261 6.23592 23.7635 6.47342C23.8387 6.94841 24.0161 7.41226 23.9994 7.89283C23.9879 8.22284 23.8843 8.54694 23.8969 8.87694C23.9007 8.97535 23.9144 9.06999 23.9379 9.16397" fill="url(#paint4_linear_262_40298)"/>
<g filter="url(#filter6_f_262_40298)">
<path d="M27.2438 6.25513C27.1656 6.35354 27.0949 6.46048 27.0388 6.57824C27.3908 6.65402 27.7277 6.79901 28.0278 6.99862C28.6093 7.38472 29.0508 7.94927 29.3605 8.5773C29.4327 8.49726 29.4986 8.41131 29.5554 8.31585C29.244 7.66175 28.7937 7.07013 28.192 6.67075C27.903 6.47885 27.5811 6.33386 27.244 6.25578L27.2438 6.25513Z" fill="url(#paint5_linear_262_40298)"/>
</g>
<g filter="url(#filter7_f_262_40298)">
<path d="M20.4574 6.57585C20.4177 6.57503 20.3792 6.57864 20.3393 6.58044L20.2622 6.58503C20.494 6.60603 20.7244 6.66835 20.9337 6.76217C21.2191 6.89011 21.4707 7.07266 21.6923 7.28047C22.103 7.66509 22.4082 8.13993 22.6149 8.64346C22.5644 8.26296 22.4501 7.89371 22.2767 7.55126C22.1957 7.45777 22.1117 7.36592 22.0205 7.28063C21.7991 7.07299 21.5471 6.8906 21.2619 6.76234C21.0126 6.65031 20.7347 6.5806 20.4572 6.57568L20.4574 6.57585Z" fill="url(#paint6_linear_262_40298)"/>
</g>
<path d="M19.7867 10.0255C19.7257 10.3939 19.7234 10.7803 19.85 11.1315C19.932 11.3634 20.0714 11.5738 20.2391 11.7547C20.349 11.8732 20.4733 11.9808 20.6189 12.0505C20.7646 12.1202 20.9332 12.1499 21.0897 12.1107C21.234 12.0746 21.3606 11.9811 21.4538 11.8651C21.5469 11.7492 21.6093 11.6104 21.6536 11.4682C21.7843 11.0483 21.7635 10.5887 21.6335 10.1685C21.5389 9.8623 21.3823 9.5669 21.1371 9.3604C21.0201 9.26199 20.8832 9.1849 20.7344 9.14931C20.5856 9.11372 20.4244 9.12225 20.2853 9.18539C20.1308 9.25559 20.0111 9.38927 19.9327 9.53967C19.8543 9.69008 19.8141 9.85787 19.7864 10.0252L19.7867 10.0255Z" fill="#020204"/>
<g filter="url(#filter8_f_262_40298)">
<path d="M20.5654 9.75893C20.6051 9.86292 20.7383 9.90065 20.8115 9.98446C20.8825 10.066 20.9569 10.1501 20.996 10.251C21.0706 10.4439 20.9222 10.7299 21.078 10.8661C21.1269 10.9087 21.2248 10.9097 21.2728 10.8661C21.4606 10.6951 21.4188 10.3504 21.3447 10.1075C21.2774 9.88703 21.1106 9.6784 20.9051 9.57359C20.81 9.52521 20.6673 9.48502 20.5859 9.55391C20.5335 9.5982 20.541 9.69497 20.5654 9.75893Z" fill="url(#paint7_linear_262_40298)"/>
</g>
<path d="M19.0998 14.6048C19.1096 14.6532 19.1282 14.7 19.1534 14.7426C19.197 14.8156 19.2607 14.8748 19.3294 14.9247C19.3981 14.9745 19.4726 15.0165 19.5446 15.0616C19.9274 15.3022 20.2392 15.6406 20.5164 15.9977C20.8882 16.4769 21.2171 17.0088 21.7137 17.3574C22.0644 17.6034 22.484 17.7436 22.9101 17.7865C23.4103 17.8368 23.9172 17.7559 24.3997 17.6139C24.8468 17.4822 25.2793 17.2973 25.6761 17.053C26.4306 16.5878 27.0604 15.906 27.8903 15.6003C28.0719 15.5335 28.261 15.4858 28.4359 15.4034C28.6107 15.3211 28.7754 15.1978 28.859 15.0232C28.941 14.8556 28.9361 14.6621 28.9624 14.4779C28.9903 14.2811 29.0532 14.0905 29.0877 13.8946C29.1221 13.6988 29.1262 13.4892 29.0418 13.3091C28.9716 13.1598 28.8441 13.0421 28.6973 12.9671C28.5505 12.8921 28.3857 12.8582 28.221 12.85C27.892 12.8336 27.5669 12.9181 27.2389 12.9481C26.8042 12.9878 26.3666 12.932 25.9305 12.9448C25.3879 12.9612 24.8532 13.0834 24.311 13.1096C23.6923 13.1397 23.0751 13.044 22.4563 13.0194C22.1882 13.0086 21.9183 13.0112 21.6539 13.0563C21.3895 13.1014 21.1298 13.1915 20.9092 13.3439C20.6944 13.4925 20.5228 13.6949 20.3253 13.8661C20.2266 13.9517 20.1203 14.0301 20.0029 14.087C19.8854 14.1439 19.7557 14.1795 19.625 14.1767C19.5594 14.1751 19.4888 14.1641 19.4249 14.1844C19.3848 14.1971 19.3494 14.2217 19.3192 14.251C19.2891 14.2804 19.2643 14.3145 19.2408 14.3495C19.1863 14.4305 19.1387 14.5159 19.0986 14.605L19.0998 14.6048Z" fill="url(#paint8_radial_262_40298)"/>
<g filter="url(#filter9_f_262_40298)">
<path d="M21.5281 15.2714C21.4668 15.5361 21.5057 15.8142 21.6374 16.0518C21.769 16.2895 21.984 16.47 22.2409 16.5585C22.5654 16.6667 22.931 16.6136 23.2341 16.4555C23.4096 16.3636 23.5703 16.2347 23.672 16.0645C23.7234 15.9793 23.7572 15.8847 23.7712 15.7863C23.7843 15.6879 23.7753 15.5862 23.7409 15.4935C23.7032 15.3918 23.6359 15.3019 23.5529 15.2317C23.4699 15.1615 23.3717 15.1107 23.2687 15.0766C23.0623 15.0083 22.8406 15.007 22.6234 15.0175C22.2944 15.0333 21.9671 15.0746 21.6444 15.141" fill="#D9B30D"/>
</g>
<g filter="url(#filter10_f_262_40298)">
<path d="M20.4635 13.235L19.8241 13.6554C19.7164 13.7318 19.6053 13.8145 19.5486 13.9336C19.5082 14.0181 19.499 14.114 19.4994 14.2075C19.4997 14.301 19.5043 14.3951 19.4918 14.4863C19.4836 14.5496 19.4666 14.612 19.4636 14.6758C19.462 14.7077 19.4644 14.7397 19.4728 14.7709C19.4808 14.802 19.4963 14.8306 19.5179 14.8544C19.5463 14.8844 19.5848 14.9029 19.6245 14.9151C19.6642 14.9272 19.7049 14.9331 19.7452 14.943C19.938 14.9882 20.1056 15.1065 20.2527 15.2388L20.6857 15.6449C21.1018 15.9835 21.6534 16.1239 22.1881 16.1326C22.7228 16.1413 23.2549 16.0292 23.7783 15.9112L24.9961 15.5759C25.6035 15.352 26.1672 15.013 26.6557 14.5882C26.8771 14.3956 27.0849 14.184 27.3335 14.0281C27.5533 13.89 27.7998 13.7988 28.0234 13.6667C28.0434 13.6549 28.0633 13.6428 28.0811 13.6279C28.099 13.6129 28.1149 13.5954 28.1254 13.5745C28.1435 13.5385 28.1435 13.4958 28.132 13.4571C28.1205 13.4184 28.0982 13.3843 28.0729 13.3531C28.0451 13.3187 28.0134 13.2872 27.9794 13.2583C27.7459 13.0582 27.4288 12.9857 27.1223 12.9614C26.8157 12.9372 26.5056 12.9544 26.2038 12.9037C25.9184 12.8545 25.6473 12.7495 25.3719 12.6615C25.083 12.568 24.7875 12.4962 24.488 12.4466C23.7835 12.3318 23.0582 12.3538 22.3595 12.4991C21.6939 12.6377 21.0523 12.8878 20.4667 13.2339L20.4635 13.235Z" fill="#604405"/>
</g>
<path d="M20.3936 12.4927C20.077 12.7059 19.7923 12.9655 19.5512 13.2611C19.4134 13.43 19.2881 13.6137 19.2187 13.8207C19.1641 13.9834 19.1456 14.1556 19.1111 14.3238C19.098 14.3867 19.0833 14.4501 19.0833 14.514C19.0834 14.5462 19.0875 14.5785 19.0974 14.6091C19.1072 14.6398 19.1233 14.6685 19.1456 14.6917C19.1825 14.73 19.2341 14.7507 19.2863 14.7615C19.3385 14.7723 19.3919 14.7738 19.4447 14.7799C19.6834 14.807 19.903 14.9229 20.1008 15.0591L20.6837 15.4819C21.1322 15.7656 21.667 15.8916 22.1971 15.9121C22.7272 15.9326 23.2562 15.8521 23.7766 15.7481C24.19 15.6656 24.6023 15.5677 24.9945 15.4128C25.5951 15.176 26.1367 14.8114 26.654 14.4251C26.889 14.2496 27.1208 14.0687 27.3319 13.865C27.4036 13.7958 27.473 13.7239 27.5497 13.6606C27.6265 13.5973 27.7118 13.5422 27.8066 13.5117C27.9509 13.4653 28.1077 13.4786 28.2573 13.5035C28.37 13.5224 28.483 13.5478 28.5971 13.5429C28.6542 13.5406 28.7115 13.5307 28.7644 13.5094C28.8174 13.4881 28.8665 13.4553 28.9027 13.411C28.95 13.3518 28.9756 13.2782 28.9752 13.2024C28.9755 13.1272 28.9522 13.0531 28.9145 12.9883C28.8382 12.8587 28.7065 12.7713 28.5693 12.7103C28.3813 12.6267 28.1779 12.5857 27.9778 12.5371C27.3636 12.3888 26.7665 12.1697 26.2005 11.8886C25.919 11.7488 25.6455 11.594 25.3686 11.4457C25.0839 11.2932 24.7937 11.1466 24.4845 11.0529C23.7935 10.8435 23.0379 10.9122 22.3561 11.149C21.5983 11.4121 20.9132 11.881 20.3934 12.492L20.3936 12.4927Z" fill="url(#paint9_linear_262_40298)"/>
<g filter="url(#filter11_f_262_40298)">
<path d="M25.2486 12.6444C25.2115 12.5975 25.1584 12.5644 25.1009 12.5476C25.0435 12.5309 24.982 12.5312 24.9232 12.5394C24.8051 12.5596 24.6994 12.6214 24.6007 12.6911C24.3202 12.884 24.0726 13.1222 23.8565 13.3849C23.5703 13.7327 23.3341 14.1348 23.2549 14.5782C23.2418 14.6528 23.2328 14.7291 23.2421 14.8045C23.2515 14.88 23.2803 14.9546 23.334 15.0084C23.3809 15.0556 23.4449 15.0845 23.5108 15.094C23.5767 15.1035 23.6446 15.0943 23.7076 15.073C23.8339 15.0304 23.9389 14.9418 24.0379 14.8532C24.5851 14.3636 25.08 13.776 25.2779 13.0687C25.2976 12.9977 25.3147 12.925 25.314 12.8514C25.3134 12.7777 25.2943 12.7021 25.2487 12.6444H25.2486Z" fill="#F6DA4A"/>
</g>
<g opacity="0.8" filter="url(#filter12_f_262_40298)">
<path d="M23.938 11.6309C23.9757 11.7526 24.1722 11.7326 24.2857 11.7908C24.3852 11.842 24.4651 11.9543 24.5771 11.9576C24.6838 11.9609 24.8501 11.9207 24.8642 11.8149C24.8825 11.675 24.6782 11.5861 24.5468 11.5348C24.3779 11.4689 24.1609 11.4354 24.0023 11.5236C23.9658 11.5438 23.9262 11.5912 23.9386 11.6311L23.938 11.6309Z" fill="url(#paint10_radial_262_40298)"/>
</g>
<g opacity="0.8" filter="url(#filter13_f_262_40298)">
<path d="M22.0644 11.5602C21.9187 11.5127 21.6778 11.7697 21.7563 11.9014C21.778 11.9375 21.8441 11.9834 21.8885 11.9588C21.9558 11.9219 22.0106 11.7899 22.0832 11.7382C22.1318 11.7038 22.1209 11.5788 22.0642 11.5604L22.0644 11.5602Z" fill="url(#paint11_radial_262_40298)"/>
</g>
<g filter="url(#filter14_f_262_40298)">
<path d="M28.4869 14.0605C28.7457 14.0605 28.9847 13.8009 29.0205 13.4808C29.0564 13.1607 28.8757 12.9011 28.6169 12.9011C28.358 12.9011 28.1191 13.1607 28.0832 13.4808C28.0473 13.8009 28.2281 14.0605 28.4869 14.0605Z" fill="url(#paint12_linear_262_40298)"/>
</g>
<path d="M19.8609 8.78133C20.3013 8.5189 20.8376 8.45821 21.348 8.50643C21.8584 8.55466 22.3526 8.70457 22.8471 8.83939C23.21 8.93813 23.5774 9.02965 23.9174 9.19006C24.2574 9.35047 24.5734 9.58633 24.7607 9.91224L24.8493 10.07C24.8811 10.1212 24.9187 10.1701 24.9668 10.2062C25.0148 10.2422 25.0745 10.2659 25.1347 10.2626C25.1649 10.2609 25.1947 10.2527 25.2207 10.2373C25.2466 10.2219 25.2687 10.1996 25.2827 10.173C25.2987 10.1424 25.3036 10.1068 25.3018 10.072C25.2991 10.0374 25.2927 10.0032 25.2827 9.96997C25.1588 9.51843 24.8669 9.13544 24.6446 8.72343L24.2677 7.9696C23.8055 7.12327 23.0468 6.45801 22.1847 6.02648C21.3226 5.59495 20.3596 5.38746 19.3969 5.33104C18.2815 5.26576 17.1629 5.39829 16.0624 5.59183C15.5851 5.67581 15.1012 5.77471 14.6787 6.01204C14.4676 6.13063 14.2741 6.28382 14.123 6.47294C13.972 6.66205 13.8645 6.88872 13.8297 7.12852C13.7963 7.35978 13.8314 7.59761 13.9118 7.81674C13.9921 8.03587 14.1181 8.2363 14.2655 8.41737C14.5603 8.77953 14.938 9.06262 15.2861 9.3736C15.6341 9.68458 15.9585 10.0284 16.3461 10.286C16.5406 10.4148 16.7517 10.5214 16.9764 10.5841C17.2011 10.6467 17.4406 10.6644 17.6693 10.6175C17.9063 10.569 18.1257 10.4527 18.3178 10.3056C18.5098 10.1584 18.6763 9.9808 18.8341 9.79742C19.1498 9.43068 19.4448 9.02883 19.8604 8.78117L19.8609 8.78133Z" fill="url(#paint13_radial_262_40298)"/>
<path d="M35.395 24.5145C36.3931 25.3174 37.0263 26.5296 37.2222 27.7954C37.375 28.7827 37.2757 29.7956 37.0532 30.7693C36.8308 31.7431 36.4871 32.6844 36.1459 33.6232C36.0098 33.9977 35.8733 34.3756 35.8192 34.7702C35.765 35.1649 35.7995 35.5828 35.9897 35.9328C36.2079 36.334 36.6152 36.6102 37.0529 36.7403C37.4851 36.8687 37.9517 36.8659 38.3893 36.757C38.8269 36.6481 39.2352 36.435 39.5913 36.1583C40.496 35.4558 41.0418 34.3623 41.2531 33.2368C41.4644 32.1113 41.3673 30.9488 41.1711 29.8203C40.9032 28.2818 40.4524 26.7778 39.8786 25.3249C39.4566 24.2563 38.9627 23.2058 38.2729 22.2873C37.5976 21.3885 36.7464 20.6319 36.0849 19.7229C35.6251 19.0914 35.2569 18.3861 34.7061 17.8324C34.4306 17.5555 34.1091 17.3187 33.745 17.1771C33.3809 17.0356 32.972 16.9941 32.596 17.1C32.1007 17.2395 31.6939 17.6298 31.4802 18.0976C31.2665 18.5654 31.2272 19.1019 31.311 19.6099C31.4192 20.2651 31.7187 20.8733 32.0566 21.4452C32.4383 22.091 32.8803 22.7126 33.4567 23.1927C34.0581 23.6937 34.7855 24.0242 35.3953 24.5147L35.395 24.5145Z" fill="#020204"/>
<g filter="url(#filter15_f_262_40298)">
<path d="M33.0459 22.9675L33.2964 23.1931C33.9087 23.6941 34.2348 24.2567 34.8557 24.7475C35.8717 25.5503 36.9029 26.9361 37.1022 28.2017C37.2579 29.1891 37.0521 29.7254 36.8008 30.8896C36.5495 32.0538 35.8373 33.7022 35.4526 34.8247C35.299 35.2725 35.7632 35.0877 35.7024 35.5595C35.6719 35.7913 35.6699 36.0259 35.6966 36.2581L35.7083 36.1233C35.7822 35.4798 35.9793 34.8612 36.1942 34.2543C36.6073 33.0861 37.0815 31.9416 37.4085 30.743C37.7354 29.5443 37.699 28.6823 37.5287 27.6522C37.3141 26.3571 36.5607 25.1613 35.4937 24.3719C34.7389 23.8137 33.8494 23.4558 33.0464 22.9675H33.0459Z" fill="#838384"/>
</g>
<g opacity="0.25" filter="url(#filter16_f_262_40298)">
<path d="M17.4866 22.2417C17.6532 22.4917 17.3831 23.3534 21.2664 22.8018C21.2664 22.8018 20.5844 22.8768 19.9121 23.0321C18.867 23.3819 17.9564 23.773 17.254 24.2909C16.558 24.803 16.0485 25.4714 15.4099 26.0454C15.4099 26.0454 16.444 24.1559 16.7017 23.5873C16.9594 23.0186 16.6585 23.046 16.8626 22.2072C17.0667 21.3685 17.5656 20.5659 17.5656 20.5659C17.5656 20.5659 17.1582 21.7485 17.4866 22.2415V22.2417Z" fill="url(#paint14_radial_262_40298)"/>
</g>
<g opacity="0.42" filter="url(#filter17_f_262_40298)">
<path d="M29.9737 22.0162C29.1823 22.5673 28.7187 22.5022 27.7583 22.61C26.798 22.7177 24.1995 22.6788 24.1995 22.6788C24.1995 22.6788 24.5757 22.6718 25.4096 22.8271C26.2435 22.9824 27.9442 23.1309 28.9019 23.4955C29.8596 23.8601 30.2088 23.9641 30.7909 24.332C31.6192 24.8559 32.2273 25.6764 33.0194 26.2505C33.0194 26.2505 33.0578 25.4888 32.7379 24.92C32.4181 24.3512 31.557 23.4545 31.3057 22.6172C31.0544 21.7799 30.9327 20.1353 30.9327 20.1353C30.9327 20.1353 30.7654 21.4646 29.9739 22.0159L29.9737 22.0162Z" fill="url(#paint15_radial_262_40298)"/>
</g>
<g opacity="0.2" filter="url(#filter18_f_262_40298)">
<path d="M22.5307 20.8388L22.4164 21.5513C22.3934 21.6677 22.368 21.7842 22.3246 21.8946C22.2811 22.005 22.2189 22.1098 22.131 22.1892C22.0539 22.2587 21.9598 22.3066 21.8653 22.3499C21.4966 22.5188 21.102 22.6309 20.6995 22.6812L21.1809 22.7252C21.2817 22.7362 21.3829 22.7485 21.4813 22.7737C21.5797 22.799 21.6757 22.8393 21.7575 22.8976C21.8474 22.9632 21.918 23.053 21.9708 23.1511C22.0757 23.3466 22.1108 23.5715 22.1304 23.7908C22.155 24.0734 22.1569 24.3583 22.1358 24.6411C22.1548 24.4518 22.1945 24.2645 22.2539 24.0837C22.361 23.758 22.5334 23.4526 22.7656 23.2003C22.8578 23.1003 22.9591 23.0084 23.0707 22.93C23.4164 22.6889 23.8397 22.5859 24.2575 22.6412C23.8338 22.6585 23.417 22.5291 23.0776 22.2749C22.9067 22.1462 22.7577 21.9858 22.6544 21.7985C22.4939 21.5049 22.4499 21.1617 22.5312 20.8372L22.5307 20.8388Z" fill="url(#paint16_radial_262_40298)"/>
</g>
<g opacity="0.1" filter="url(#filter19_f_262_40298)">
<path d="M21.5186 26.4221C21.3169 27.1901 21.1783 27.9732 21.1043 28.7638C20.9998 29.8811 21.0249 31.0063 20.9649 32.127C20.9157 33.078 20.8025 34.0388 20.9675 34.9767C21.0462 35.4239 21.1878 35.8599 21.3866 36.2683C21.4181 36.1124 21.4412 35.955 21.4558 35.7966C21.5258 35.0362 21.3977 34.2733 21.3544 33.511C21.2787 32.1747 21.4637 30.8375 21.539 29.5027C21.5968 28.4765 21.5899 27.4476 21.5185 26.4223L21.5186 26.4221Z" fill="black"/>
</g>
<g filter="url(#filter20_f_262_40298)">
<path d="M30.7347 14.9051C30.3801 15.2282 30.901 15.7133 31.148 16.2835C31.3015 16.6377 31.7265 17.1372 32.1373 17.0573C32.4465 16.9971 32.6383 16.5521 32.6091 16.2388C32.5526 15.6336 32.0421 15.4921 31.6714 15.2843C31.3778 15.1196 30.9836 14.6784 30.7348 14.9054L30.7347 14.9051Z" fill="#838384"/>
</g>
<g opacity="0.2" filter="url(#filter21_f_262_40298)">
<path d="M42.1122 41.3564C42.0341 41.6128 41.9178 41.8566 41.7669 42.0799C41.4334 42.5739 40.9493 42.9459 40.4654 43.2887C39.6401 43.8736 38.7807 44.4103 38.0126 45.0765C37.4979 45.5218 37.029 46.0213 36.594 46.5469C36.2221 46.9964 35.8724 47.4687 35.4487 47.8684C35.0209 48.2719 34.5173 48.5978 33.9746 48.7755C33.3147 48.9915 32.6174 48.981 31.9817 48.8181C31.5363 48.704 31.1019 48.5053 30.826 48.1461C30.5489 47.7856 30.4592 47.3011 30.4272 46.8255C30.3704 45.984 30.4709 45.1246 30.5624 44.2709C30.6385 43.5613 30.7086 42.8513 30.7376 42.1432C30.7881 40.8553 30.7044 39.5786 30.5301 38.326C30.5009 38.1161 30.4691 37.9048 30.4868 37.6886C30.5045 37.4725 30.5769 37.2478 30.7286 37.081C30.8688 36.9268 31.0643 36.8356 31.2592 36.7906C31.4541 36.7457 31.6516 36.7414 31.8475 36.7382C32.309 36.7259 32.7732 36.6988 33.2278 36.7391C33.5146 36.7647 33.7959 36.8171 34.0822 36.8446C34.5602 36.8905 35.0557 36.8664 35.5352 36.7259C36.0513 36.5746 36.5434 36.2909 37.0679 36.213C37.283 36.181 37.4991 36.1846 37.7079 36.214C37.9213 36.2438 38.1337 36.3029 38.2978 36.4331C38.4224 36.5322 38.5137 36.6681 38.5851 36.8131C38.6912 37.0291 38.7569 37.2674 38.794 37.5118C38.8271 37.7283 38.8388 37.9514 38.8947 38.1609C38.9865 38.5053 39.1945 38.7982 39.4449 39.0367C39.6954 39.2752 39.9881 39.4635 40.2803 39.6492C40.5717 39.834 40.8644 40.0177 41.1755 40.1701C41.3216 40.2416 41.4716 40.3062 41.6111 40.3887C41.7505 40.4712 41.8806 40.5724 41.9732 40.7061C42.0989 40.8873 42.1494 41.1248 42.1117 41.3581" fill="url(#paint17_linear_262_40298)"/>
</g>
<path d="M45.3842 41.9705C45.2743 42.2526 45.1174 42.5162 44.9223 42.7476C44.492 43.2586 43.8943 43.5956 43.2992 43.899C42.2839 44.4164 41.2322 44.8704 40.278 45.4928C39.6386 45.9097 39.0485 46.3993 38.4968 46.9267C38.0249 47.3777 37.5773 47.8594 37.0481 48.2418C36.5141 48.6272 35.8967 48.9067 35.2456 49.0044C34.4534 49.1234 33.6349 48.9695 32.9001 48.6495C32.3854 48.4253 31.8904 48.1045 31.594 47.6277C31.2965 47.1491 31.2286 46.5635 31.2278 46C31.2265 45.0032 31.4112 44.0153 31.585 43.0357C31.7294 42.2202 31.8671 41.4028 31.9557 40.5795C32.1169 39.082 32.1158 37.5692 32.0082 36.0668C31.9918 35.8152 31.9692 35.5612 32.0069 35.3117C32.0446 35.0622 32.1471 34.8136 32.3382 34.6491C32.5148 34.497 32.7515 34.4299 32.9844 34.4171C33.2173 34.4044 33.4493 34.4413 33.6799 34.4749C34.2233 34.5543 34.7709 34.6168 35.302 34.7565C35.6371 34.8446 35.9635 34.9632 36.2979 35.0534C36.8561 35.2043 37.4405 35.2764 38.0147 35.2095C38.6331 35.1374 39.2334 34.9049 39.8556 34.92C40.111 34.9263 40.3641 34.9745 40.6078 35.0512C40.8563 35.1296 41.1015 35.2418 41.2841 35.4277C41.4228 35.5687 41.5196 35.7467 41.5924 35.9312C41.7007 36.2058 41.7589 36.4982 41.7838 36.7923C41.806 37.0528 41.8024 37.3162 41.8517 37.573C41.9329 37.9954 42.1547 38.3805 42.4304 38.7105C42.7061 39.0405 43.0373 39.3206 43.3647 39.5975C43.6927 39.8731 44.0224 40.1478 44.3762 40.3894C44.5421 40.5029 44.7134 40.6092 44.871 40.7338C45.0286 40.8585 45.1736 41.004 45.272 41.1791C45.4057 41.417 45.4465 41.7053 45.384 41.9707L45.3842 41.9705Z" fill="url(#paint18_linear_262_40298)"/>
<g filter="url(#filter22_f_262_40298)">
<path d="M44.873 41.4535C44.7715 41.7078 44.629 41.9439 44.4513 42.1522C44.0573 42.6138 43.5115 42.9156 42.9689 43.1872C42.0417 43.6513 41.0822 44.0594 40.2101 44.6199C39.6272 44.9945 39.0882 45.4344 38.5834 45.9091C38.152 46.3147 37.7428 46.7482 37.2604 47.0913C36.7717 47.439 36.2078 47.6895 35.6142 47.7769C34.8909 47.8835 34.1446 47.7452 33.4724 47.4577C33.0038 47.2573 32.5511 46.9706 32.2797 46.5392C32.0097 46.11 31.9467 45.583 31.9451 45.0758C31.943 44.1795 32.1121 43.293 32.2715 42.4109C32.4038 41.6777 32.5298 40.9432 32.61 40.2027C32.756 38.8564 32.7491 37.4967 32.6579 36.1457C32.6427 35.9194 32.6251 35.6907 32.6599 35.4667C32.6947 35.2426 32.7875 35.0194 32.9594 34.8713C33.1206 34.7324 33.3371 34.6715 33.5498 34.6603C33.7626 34.6492 33.9742 34.6836 34.1846 34.7145C34.6804 34.7875 35.1805 34.8424 35.6657 34.9676C35.9716 35.0466 36.2699 35.1532 36.5752 35.2346C37.0853 35.3707 37.6186 35.4355 38.1432 35.375C38.7074 35.3099 39.2564 35.1011 39.8244 35.1147C40.0573 35.1204 40.2885 35.1639 40.5116 35.2328C40.7383 35.3026 40.9626 35.4024 41.1291 35.5711C41.2548 35.6983 41.3415 35.8588 41.4106 36.0238C41.5133 36.2694 41.58 36.5318 41.5854 36.798C41.5912 37.0758 41.5303 37.3548 41.568 37.6301C41.5985 37.8536 41.6932 38.0644 41.8141 38.255C41.9349 38.4456 42.0821 38.6175 42.2279 38.7897C42.5095 39.1226 42.7921 39.4617 43.1452 39.7172C43.5474 40.0082 44.0247 40.1781 44.4402 40.4499C44.564 40.5309 44.6839 40.6224 44.7712 40.7418C44.844 40.8436 44.8913 40.9613 44.9091 41.0852C44.9269 41.209 44.9147 41.3354 44.8735 41.4535H44.873Z" fill="#CD8907"/>
</g>
<g filter="url(#filter23_f_262_40298)">
<path d="M44.8156 41.167C44.7028 41.4227 44.5566 41.661 44.3826 41.8724C43.979 42.3632 43.434 42.7011 42.8598 42.9178C41.9146 43.2749 40.8827 43.3228 39.955 43.7295C39.3896 43.9773 38.8808 44.3506 38.3652 44.7037C37.9487 44.9887 37.5231 45.2636 37.0657 45.4629C36.5492 45.6882 35.9998 45.8146 35.4486 45.9035C35.098 45.9601 34.7432 46.0013 34.389 45.9817C34.0349 45.9621 33.6796 45.8793 33.3673 45.6988C33.1304 45.5617 32.9174 45.3647 32.7907 45.109C32.6501 44.8248 32.6257 44.4913 32.6291 44.1691C32.6377 43.3109 32.8214 42.462 32.8158 41.6038C32.8109 40.8568 32.663 40.1192 32.6204 39.3736C32.5385 37.9395 32.8463 36.4806 32.5755 35.0739C32.5323 34.8487 32.4738 34.6238 32.4767 34.3937C32.4782 34.2785 32.4954 34.1633 32.5357 34.0568C32.576 33.9503 32.6413 33.8537 32.7279 33.7864C32.801 33.7298 32.8872 33.6954 32.9759 33.6799C33.0646 33.6643 33.1553 33.6673 33.2443 33.6813C33.4221 33.709 33.5915 33.7787 33.7646 33.8302C34.2599 33.9778 34.7831 33.9745 35.2862 34.0859C35.6021 34.1558 35.9081 34.2698 36.2206 34.3555C36.7455 34.497 37.2929 34.5603 37.8313 34.497C38.4106 34.4293 38.9762 34.2191 39.5585 34.2343C39.7971 34.2403 40.0341 34.2848 40.2643 34.3535C40.4945 34.4222 40.7245 34.5193 40.8987 34.6951C41.0243 34.822 41.1143 34.9841 41.1878 35.1519C41.2946 35.3969 41.369 35.6633 41.3673 35.9337C41.3664 36.0746 41.3449 36.2142 41.3323 36.3541C41.3197 36.494 41.3158 36.6379 41.3492 36.7739C41.3825 36.9099 41.453 37.034 41.5334 37.1458C41.6139 37.2576 41.705 37.3601 41.788 37.4696C42.0209 37.7762 42.1873 38.1336 42.3686 38.4782C42.5499 38.8228 42.7533 39.164 43.0398 39.412C43.4297 39.7499 43.9355 39.885 44.37 40.1518C44.4975 40.23 44.6207 40.3215 44.7101 40.4469C44.7818 40.5477 44.829 40.6663 44.8474 40.7918C44.8658 40.9173 44.8547 41.0458 44.8153 41.1656L44.8156 41.167Z" fill="#F5C021"/>
</g>
<g filter="url(#filter24_f_262_40298)">
<path d="M32.4768 35.2086C33.0141 35.0631 33.4717 35.4706 33.8614 35.7781C34.1132 35.993 34.477 35.9388 34.786 35.949C35.2977 35.9305 35.807 36.0348 36.3191 35.9713C37.327 35.886 38.3149 35.6383 39.3275 35.5941C39.8114 35.5636 40.3543 35.5355 40.7722 35.8179C40.9416 35.9354 41.1899 36.4314 41.3571 36.2452C41.2882 35.724 40.9016 35.2191 40.3828 35.0804C39.9768 35.0164 39.5627 35.1279 39.1543 35.0918C37.9368 35.0628 36.728 34.8368 35.5075 34.9016C34.6586 34.909 33.8104 34.8696 32.9628 34.8365C32.6298 34.7684 32.5122 35.0644 32.3313 35.1776" fill="url(#paint19_linear_262_40298)"/>
</g>
<g opacity="0.75" filter="url(#filter25_f_262_40298)">
<path d="M34.8856 25.2974C35.0804 25.2673 36.2826 26.2894 36.1182 26.6707C35.9539 27.052 35.6451 26.8215 35.4242 26.8241C35.2033 26.8266 34.5991 27.1009 34.4979 26.9278C34.3967 26.7548 34.7652 26.3505 34.958 26.0128C35.1133 25.7407 34.6908 25.3294 34.8857 25.2993L34.8856 25.2974Z" fill="#7C7C7C"/>
</g>
<g opacity="0.25" filter="url(#filter26_f_262_40298)">
<path d="M17.9224 18.8648C17.9029 18.6293 17.5667 18.5941 17.4167 18.7115C17.29 18.8108 17.1713 19.1496 17.2805 19.2822C17.4581 19.497 17.9489 19.1879 17.9223 18.8652L17.9224 18.8648Z" fill="#7C7C7C"/>
</g>
<g opacity="0.35" filter="url(#filter27_f_262_40298)">
<path d="M39.7221 36.027C39.6298 35.8463 39.4618 35.7111 39.2744 35.6329C39.0869 35.5546 38.8812 35.5295 38.6783 35.5312C38.2724 35.5345 37.8689 35.6401 37.4646 35.605C37.1229 35.5755 36.7987 35.447 36.4641 35.366C36.1201 35.284 35.7552 35.2512 35.4135 35.3426C35.0484 35.442 34.7263 35.686 34.5245 36.006C34.3467 36.2881 34.2621 36.6216 34.2359 36.954C34.2096 37.2865 34.238 37.6209 34.2716 37.9529C34.2959 38.193 34.3231 38.4335 34.3812 38.668C34.4393 38.9026 34.5295 39.131 34.6708 39.3266C34.8742 39.608 35.1765 39.8088 35.5024 39.9293C36.0408 40.1261 36.6331 40.1157 37.1643 39.9003C38.0926 39.4973 38.8782 38.7745 39.3572 37.8829C39.5286 37.5637 39.6618 37.2235 39.7479 36.8717C39.782 36.7318 39.8089 36.5893 39.8102 36.4453C39.8115 36.3012 39.7861 36.1549 39.7206 36.027H39.7221Z" fill="url(#paint20_radial_262_40298)"/>
</g>
<g opacity="0.35" filter="url(#filter28_f_262_40298)">
<path d="M39.7221 35.8375C39.6298 35.7068 39.4618 35.6091 39.2744 35.5526C39.0869 35.496 38.8812 35.4779 38.6783 35.4791C38.2724 35.4814 37.8689 35.5578 37.4646 35.5324C37.1229 35.5111 36.7987 35.4182 36.4641 35.3597C36.1201 35.3004 35.7552 35.2767 35.4135 35.3427C35.0484 35.4146 34.7263 35.591 34.5245 35.8223C34.3467 36.0263 34.2621 36.2673 34.2359 36.5077C34.2096 36.748 34.238 36.9898 34.2716 37.2298C34.2959 37.4034 34.3231 37.5772 34.3812 37.7468C34.4393 37.9163 34.5295 38.0815 34.6708 38.2228C34.8742 38.4263 35.1765 38.5715 35.5024 38.6586C36.0408 38.8008 36.6331 38.7934 37.1643 38.6376C38.0926 38.3463 38.8782 37.8237 39.3572 37.1792C39.5286 36.9484 39.6618 36.7025 39.7479 36.4482C39.782 36.347 39.8089 36.244 39.8102 36.1399C39.8115 36.0358 39.7861 35.93 39.7206 35.8375H39.7221Z" fill="url(#paint21_radial_262_40298)"/>
</g>
<path d="M40.4937 34.3357C40.4273 34.1546 40.3103 33.9942 40.1673 33.8649C40.0243 33.7357 39.8557 33.6366 39.678 33.5612C39.3229 33.4103 38.9367 33.3545 38.5575 33.283L37.4867 33.0735C37.1144 33.0102 36.7293 32.9699 36.3608 33.053C36.0383 33.1257 35.7401 33.2925 35.496 33.5156C35.252 33.7386 35.0614 34.0168 34.9244 34.3193C34.683 34.849 34.6071 35.4453 34.6532 36.0256C34.6876 36.4574 34.7967 36.9024 35.0812 37.2294C35.3109 37.4935 35.6368 37.6584 35.9725 37.7576C36.5507 37.9287 37.1808 37.9196 37.7538 37.7322C38.7065 37.4101 39.5305 36.7903 40.1041 35.9642C40.2911 35.6936 40.4505 35.3987 40.5229 35.078C40.578 34.832 40.58 34.5728 40.4937 34.3375V34.3357Z" fill="#020204"/>
<g filter="url(#filter29_f_262_40298)">
<path d="M36.5625 32.8805C36.4731 32.8853 36.3841 32.8956 36.296 32.9113C35.7268 33.0125 35.2057 33.3722 34.9121 33.8698C34.705 34.2246 34.6103 34.6338 34.6405 35.0435C34.6525 34.7578 34.7275 34.4782 34.8661 34.2284C35.1013 33.8049 35.5274 33.4854 36.004 33.3981C36.2992 33.3443 36.5997 33.3768 36.8959 33.4135C37.1802 33.449 37.4667 33.4862 37.7469 33.5469C38.1799 33.6407 38.6086 33.7847 38.9721 34.0389C39.0567 34.098 39.1361 34.1652 39.2027 34.244C39.2693 34.3227 39.3211 34.4142 39.3411 34.5156C39.3703 34.6638 39.328 34.8195 39.2542 34.9512C39.1804 35.0829 39.0795 35.1984 38.9721 35.3048C38.8852 35.3911 38.7925 35.4744 38.7005 35.5558C39.1204 35.4744 39.5455 35.3593 39.8945 35.1151C40.0421 35.0117 40.1758 34.8879 40.2636 34.7306C40.3513 34.5733 40.3886 34.3829 40.3456 34.2079C40.3166 34.0898 40.2521 33.9812 40.1714 33.8902C40.0907 33.7991 39.9943 33.7242 39.8947 33.6545C39.4551 33.3466 38.9409 33.1493 38.4084 33.0853C38.0672 33.0225 37.7228 32.9695 37.3783 32.9262C37.1088 32.8924 36.8338 32.8651 36.5632 32.8803L36.5625 32.8805Z" fill="url(#paint22_radial_262_40298)"/>
</g>
<g filter="url(#filter30_f_262_40298)">
<path d="M36.5625 32.8805C36.4731 32.8853 36.3841 32.8956 36.296 32.9113C35.7268 33.0125 35.2057 33.3722 34.9121 33.8698C34.705 34.2246 34.6103 34.6338 34.6405 35.0435C34.6525 34.7578 34.7275 34.4782 34.8661 34.2284C35.1013 33.8049 35.5274 33.4854 36.004 33.3981C36.2992 33.3443 36.5997 33.3768 36.8959 33.4135C37.1802 33.449 37.4667 33.4862 37.7469 33.5469C38.1799 33.6407 38.6086 33.7847 38.9721 34.0389C39.0567 34.098 39.1361 34.1652 39.2027 34.244C39.2693 34.3227 39.3211 34.4142 39.3411 34.5156C39.3703 34.6638 39.328 34.8195 39.2542 34.9512C39.1804 35.0829 39.0795 35.1984 38.9721 35.3048C38.8852 35.3911 38.7925 35.4744 38.7005 35.5558C39.1204 35.4744 39.5455 35.3593 39.8945 35.1151C40.0421 35.0117 40.1758 34.8879 40.2636 34.7306C40.3513 34.5733 40.3886 34.3829 40.3456 34.2079C40.3166 34.0898 40.2521 33.9812 40.1714 33.8902C40.0907 33.7991 39.9943 33.7242 39.8947 33.6545C39.4551 33.3466 38.9409 33.1493 38.4084 33.0853C38.0672 33.0225 37.7228 32.9695 37.3783 32.9262C37.1088 32.8924 36.8338 32.8651 36.5632 32.8803L36.5625 32.8805Z" fill="url(#paint23_linear_262_40298)"/>
</g>
<path d="M17.91 17.7856L15.1345 21.2605C14.555 21.9789 13.9617 22.7029 13.5845 23.5453C13.2604 24.2691 13.1072 25.0554 12.8849 25.817C12.6327 26.6817 12.2902 27.5178 11.9058 28.3323C11.5507 29.0844 11.1595 29.8188 10.7675 30.5525C10.4824 31.0862 10.1926 31.6317 10.0937 32.2288C10.0156 32.7005 10.0609 33.1873 10.1813 33.6501C10.3017 34.113 10.4929 34.5539 10.7124 34.9797C11.6419 36.7962 13.0365 38.3621 14.6885 39.5599C15.4381 40.1034 16.2413 40.5735 17.0835 40.9583C17.5398 41.1666 18.0207 41.3526 18.5223 41.3613C18.7732 41.3656 19.0265 41.3244 19.2561 41.2235C19.4857 41.1227 19.6907 40.9604 19.8274 40.75C19.9951 40.4912 20.0521 40.1697 20.0184 39.8632C19.9848 39.5566 19.8651 39.264 19.7047 39.0004C19.311 38.357 18.6935 37.8917 18.0979 37.4303C16.812 36.434 15.568 35.3833 14.3777 34.2746C14.0414 33.9613 13.7055 33.6385 13.4707 33.2439C13.242 32.8594 13.1183 32.4215 13.0347 31.9821C12.8051 30.7766 12.8641 29.5082 13.2742 28.3519C13.4346 27.8995 13.6465 27.4675 13.8512 27.0332C14.2055 26.2803 14.5412 25.5134 15.0075 24.8243C15.5878 23.9665 16.3635 23.2399 16.8363 22.3185C17.2355 21.541 17.3973 20.6665 17.5518 19.806L17.91 17.7856Z" fill="#020204"/>
<g opacity="0.95" filter="url(#filter31_f_262_40298)">
<path d="M15.2581 24.3211C14.8768 24.6724 14.548 25.0766 14.2817 25.5214C13.8441 26.2529 13.5863 27.0743 13.2684 27.8652C13.0316 28.454 12.7558 29.045 12.7227 29.6786C12.7058 30.004 12.7539 30.3291 12.7649 30.6548C12.7759 30.9806 12.7455 31.3191 12.5844 31.6035C12.4511 31.8413 12.2292 32.0283 11.9722 32.1192C12.3214 32.2368 12.6266 32.4579 12.8472 32.7531C13.0301 32.9991 13.147 33.2868 13.3058 33.5486C13.4349 33.7615 13.5933 33.9587 13.7885 34.1137C13.9837 34.2687 14.2166 34.3794 14.4638 34.411C14.6338 34.4316 14.8063 34.4153 14.9695 34.3632C15.1327 34.311 15.2827 34.2243 15.4093 34.1089C15.0936 31.1507 15.3828 28.1293 16.254 25.2847C16.309 25.1051 16.3667 24.9242 16.3803 24.7369C16.3939 24.5496 16.359 24.3518 16.2452 24.2025C16.1845 24.123 16.1028 24.0598 16.0106 24.0208C15.9184 23.9818 15.8161 23.9675 15.717 23.9795C15.618 23.9914 15.5219 24.0296 15.4415 24.0893C15.3611 24.1491 15.2968 24.2299 15.2566 24.3214L15.2581 24.3211Z" fill="#7C7C7C"/>
</g>
<path d="M11.1982 33.6291C11.4606 33.5204 11.7555 33.5005 12.0347 33.552C12.3138 33.6035 12.5776 33.7242 12.8126 33.8837C13.2823 34.2028 13.6307 34.6673 13.9645 35.1269C14.7308 36.1822 15.4685 37.2595 16.1369 38.3794C16.6792 39.2877 17.1775 40.2258 17.804 41.078C18.2131 41.6343 18.6744 42.1507 19.0855 42.7054C19.4965 43.2601 19.861 43.8627 20.0433 44.5288C20.2802 45.3943 20.1885 46.3482 19.7765 47.1454C19.4867 47.7063 19.0423 48.1872 18.5017 48.5133C17.9611 48.8393 17.3257 49.0076 16.6949 48.984C15.6921 48.9463 14.7759 48.4452 13.8436 48.0737C11.9443 47.3172 9.88093 47.0797 7.92305 46.4906C7.3211 46.3095 6.72965 46.0953 6.12376 45.9287C5.85477 45.8549 5.58086 45.7896 5.32664 45.6744C5.07241 45.5593 4.83458 45.3874 4.6932 45.1468C4.58396 44.9608 4.53771 44.7417 4.54066 44.5258C4.54361 44.31 4.59413 44.0969 4.66761 43.894C4.81457 43.4882 5.05191 43.1208 5.21215 42.7201C5.47376 42.0657 5.52083 41.3444 5.48557 40.6404C5.45031 39.9364 5.33631 39.2389 5.28793 38.536C5.2666 38.2221 5.2584 37.9041 5.31827 37.5952C5.37814 37.2864 5.51116 36.9843 5.73783 36.7661C5.94679 36.5649 6.22414 36.4455 6.50806 36.3861C6.79198 36.3267 7.08458 36.3242 7.37473 36.3306C7.66488 36.337 7.95536 36.3526 8.24469 36.329C8.53401 36.3054 8.82416 36.2404 9.07626 36.0964C9.31572 35.9596 9.51156 35.7561 9.67394 35.5332C9.83632 35.3103 9.96753 35.0664 10.102 34.8256C10.2365 34.5848 10.3756 34.3447 10.5518 34.1325C10.7279 33.9202 10.9438 33.7351 11.1985 33.6294L11.1982 33.6291Z" fill="url(#paint24_linear_262_40298)"/>
<g filter="url(#filter32_f_262_40298)">
<path d="M11.6121 34.0818C11.8507 33.9857 12.1196 33.9752 12.3704 34.032C12.6211 34.0887 12.8542 34.2124 13.0573 34.3677C13.4637 34.6816 13.7461 35.1245 14.0174 35.5601C14.6686 36.6152 15.305 37.6815 15.9063 38.7695C16.3617 39.5884 16.7961 40.4249 17.3557 41.1773C17.727 41.6762 18.1507 42.1335 18.5297 42.6267C18.9088 43.1199 19.2465 43.657 19.4143 44.2559C19.6301 45.0277 19.5427 45.8797 19.1691 46.5903C18.8985 47.1028 18.4904 47.5296 17.9904 47.8226C17.4893 48.1139 16.9151 48.2555 16.336 48.2307C15.4178 48.1884 14.5794 47.7298 13.715 47.4188C12.0579 46.8175 10.2619 46.7368 8.56218 46.2674C7.95285 46.1021 7.35878 45.8815 6.74649 45.7271C6.47554 45.6587 6.19982 45.603 5.94248 45.4942C5.68513 45.3855 5.44271 45.217 5.30313 44.9751C5.19931 44.7952 5.15781 44.5834 5.16421 44.3758C5.17061 44.1681 5.22326 43.9657 5.29542 43.7699C5.44337 43.3817 5.67595 43.0318 5.8252 42.6423C6.05155 42.0561 6.07943 41.4115 6.03744 40.7846C5.99546 40.1577 5.88655 39.5364 5.84833 38.9092C5.83127 38.6287 5.82865 38.345 5.8854 38.0701C5.94215 37.7952 6.06188 37.5288 6.26182 37.33C6.47833 37.1152 6.77684 36.9981 7.07814 36.9521C7.37944 36.9062 7.68599 36.9262 7.98926 36.9533C8.29253 36.9804 8.59695 37.0145 8.9012 36.9963C9.20546 36.9781 9.51398 36.9039 9.76558 36.7327C9.99471 36.5777 10.1668 36.3515 10.2977 36.1097C10.4285 35.868 10.522 35.6087 10.6218 35.3525C10.7215 35.0963 10.8296 34.8404 10.9862 34.6144C11.1428 34.3884 11.3529 34.1871 11.6105 34.0838" fill="#D99A03"/>
</g>
<g filter="url(#filter33_f_262_40298)">
<path d="M11.3911 33.4856C11.6224 33.3709 11.8946 33.3474 12.1482 33.3991C12.4018 33.4508 12.6366 33.5747 12.8364 33.7367C13.2358 34.0588 13.4892 34.5219 13.7254 34.9746C14.2675 36.0143 14.7723 37.0766 15.421 38.0556C15.8917 38.7643 16.4346 39.4274 16.9106 40.1342C17.5562 41.0926 18.0811 42.147 18.2976 43.2763C18.4432 44.0359 18.4386 44.8548 18.0725 45.5407C17.8314 45.991 17.4411 46.3622 16.9797 46.5917C16.5183 46.8212 15.9885 46.9166 15.4724 46.871C14.6598 46.7993 13.9217 46.3998 13.1569 46.1212C11.7997 45.6267 10.3328 45.5086 8.93606 45.1354C8.34691 44.978 7.77153 44.7754 7.17286 44.6522C6.90945 44.5971 6.64079 44.5572 6.38935 44.4621C6.13791 44.3671 5.89959 44.2099 5.771 43.9773C5.68079 43.8136 5.65012 43.6221 5.66373 43.4366C5.67734 43.251 5.73262 43.0701 5.80561 42.8983C5.95125 42.5545 6.16645 42.2395 6.28126 41.8841C6.44741 41.3619 6.37918 40.7958 6.25436 40.2624C6.12954 39.7291 5.94978 39.2058 5.8945 38.6614C5.8699 38.419 5.87039 38.1717 5.92567 37.9341C5.98094 37.6965 6.09411 37.4683 6.27175 37.2979C6.50022 37.0785 6.82022 36.9693 7.13825 36.9387C7.45629 36.9081 7.77661 36.95 8.09284 36.9951C8.40907 37.0402 8.72726 37.0917 9.04661 37.0756C9.36595 37.0595 9.69087 36.9773 9.941 36.7818C10.1883 36.5885 10.3438 36.3007 10.4331 36.0028C10.5223 35.705 10.5511 35.3937 10.5877 35.0854C10.6243 34.7771 10.6697 34.4659 10.7895 34.1785C10.9092 33.8912 11.1109 33.6264 11.3931 33.4864L11.3911 33.4856Z" fill="#F5BD0C"/>
</g>
<g filter="url(#filter34_f_262_40298)">
<path d="M14.2866 36.0811C14.7141 36.8541 14.9748 37.7412 15.3987 38.5208C15.7887 39.2379 16.2325 39.9763 16.6288 40.6376C16.8051 40.9321 17.2165 41.3848 17.6326 42.0871C18.0095 42.7235 18.39 43.612 18.6031 43.9103C18.4807 43.5609 18.2291 42.6233 17.929 41.9547C17.6501 41.3298 17.3221 40.9736 17.1209 40.6376C16.7246 39.9763 16.298 39.3819 15.8907 38.7514C15.329 37.8818 14.9007 36.9087 14.2866 36.0812V36.0811Z" fill="url(#paint25_linear_262_40298)"/>
</g>
</g>
<defs>
<filter id="filter0_f_262_40298" x="18.289" y="12.9145" width="12.2364" height="7.94755" filterUnits="userSpaceOnUse" color-interpolation-filters="sRGB">
<feFlood flood-opacity="0" result="BackgroundImageFix"/>
<feBlend mode="normal" in="SourceGraphic" in2="BackgroundImageFix" result="shape"/>
<feGaussianBlur stdDeviation="0.436168" result="effect1_foregroundBlur_262_40298"/>
</filter>
<filter id="filter1_f_262_40298" x="18.6871" y="12.9461" width="10.8073" height="5.32899" filterUnits="userSpaceOnUse" color-interpolation-filters="sRGB">
<feFlood flood-opacity="0" result="BackgroundImageFix"/>
<feBlend mode="normal" in="SourceGraphic" in2="BackgroundImageFix" result="shape"/>
<feGaussianBlur stdDeviation="0.191623" result="effect1_foregroundBlur_262_40298"/>
</filter>
<filter id="filter2_f_262_40298" x="18.5026" y="10.181" width="11.0554" height="6.15429" filterUnits="userSpaceOnUse" color-interpolation-filters="sRGB">
<feFlood flood-opacity="0" result="BackgroundImageFix"/>
<feBlend mode="normal" in="SourceGraphic" in2="BackgroundImageFix" result="shape"/>
<feGaussianBlur stdDeviation="0.291564" result="effect1_foregroundBlur_262_40298"/>
</filter>
<filter id="filter3_f_262_40298" x="26.2262" y="1.54946" width="4.41989" height="4.27877" filterUnits="userSpaceOnUse" color-interpolation-filters="sRGB">
<feFlood flood-opacity="0" result="BackgroundImageFix"/>
<feBlend mode="normal" in="SourceGraphic" in2="BackgroundImageFix" result="shape"/>
<feGaussianBlur stdDeviation="0.429496" result="effect1_foregroundBlur_262_40298"/>
</filter>
<filter id="filter4_f_262_40298" x="26.573" y="9.96436" width="0.833732" height="0.681877" filterUnits="userSpaceOnUse" color-interpolation-filters="sRGB">
<feFlood flood-opacity="0" result="BackgroundImageFix"/>
<feBlend mode="normal" in="SourceGraphic" in2="BackgroundImageFix" result="shape"/>
<feGaussianBlur stdDeviation="0.0533428" result="effect1_foregroundBlur_262_40298"/>
</filter>
<filter id="filter5_f_262_40298" x="26.4622" y="9.1392" width="1.58902" height="1.57242" filterUnits="userSpaceOnUse" color-interpolation-filters="sRGB">
<feFlood flood-opacity="0" result="BackgroundImageFix"/>
<feBlend mode="normal" in="SourceGraphic" in2="BackgroundImageFix" result="shape"/>
<feGaussianBlur stdDeviation="0.111184" result="effect1_foregroundBlur_262_40298"/>
</filter>
<filter id="filter6_f_262_40298" x="26.9754" y="6.19172" width="2.64342" height="2.44909" filterUnits="userSpaceOnUse" color-interpolation-filters="sRGB">
<feFlood flood-opacity="0" result="BackgroundImageFix"/>
<feBlend mode="normal" in="SourceGraphic" in2="BackgroundImageFix" result="shape"/>
<feGaussianBlur stdDeviation="0.0317057" result="effect1_foregroundBlur_262_40298"/>
</filter>
<filter id="filter7_f_262_40298" x="20.2044" y="6.51784" width="2.46847" height="2.18355" filterUnits="userSpaceOnUse" color-interpolation-filters="sRGB">
<feFlood flood-opacity="0" result="BackgroundImageFix"/>
<feBlend mode="normal" in="SourceGraphic" in2="BackgroundImageFix" result="shape"/>
<feGaussianBlur stdDeviation="0.0289208" result="effect1_foregroundBlur_262_40298"/>
</filter>
<filter id="filter8_f_262_40298" x="20.3268" y="9.29729" width="1.30019" height="1.82094" filterUnits="userSpaceOnUse" color-interpolation-filters="sRGB">
<feFlood flood-opacity="0" result="BackgroundImageFix"/>
<feBlend mode="normal" in="SourceGraphic" in2="BackgroundImageFix" result="shape"/>
<feGaussianBlur stdDeviation="0.109899" result="effect1_foregroundBlur_262_40298"/>
</filter>
<filter id="filter9_f_262_40298" x="21.1146" y="14.6275" width="3.04746" height="2.3729" filterUnits="userSpaceOnUse" color-interpolation-filters="sRGB">
<feFlood flood-opacity="0" result="BackgroundImageFix"/>
<feBlend mode="normal" in="SourceGraphic" in2="BackgroundImageFix" result="shape"/>
<feGaussianBlur stdDeviation="0.192591" result="effect1_foregroundBlur_262_40298"/>
</filter>
<filter id="filter10_f_262_40298" x="19.1384" y="12.0485" width="9.3263" height="4.4093" filterUnits="userSpaceOnUse" color-interpolation-filters="sRGB">
<feFlood flood-opacity="0" result="BackgroundImageFix"/>
<feBlend mode="normal" in="SourceGraphic" in2="BackgroundImageFix" result="shape"/>
<feGaussianBlur stdDeviation="0.162385" result="effect1_foregroundBlur_262_40298"/>
</filter>
<filter id="filter11_f_262_40298" x="22.8745" y="12.1702" width="2.8032" height="3.29124" filterUnits="userSpaceOnUse" color-interpolation-filters="sRGB">
<feFlood flood-opacity="0" result="BackgroundImageFix"/>
<feBlend mode="normal" in="SourceGraphic" in2="BackgroundImageFix" result="shape"/>
<feGaussianBlur stdDeviation="0.18188" result="effect1_foregroundBlur_262_40298"/>
</filter>
<filter id="filter12_f_262_40298" x="23.8891" y="11.4231" width="1.02322" height="0.581809" filterUnits="userSpaceOnUse" color-interpolation-filters="sRGB">
<feFlood flood-opacity="0" result="BackgroundImageFix"/>
<feBlend mode="normal" in="SourceGraphic" in2="BackgroundImageFix" result="shape"/>
<feGaussianBlur stdDeviation="0.0235651" result="effect1_foregroundBlur_262_40298"/>
</filter>
<filter id="filter13_f_262_40298" x="21.6938" y="11.5073" width="0.467307" height="0.505637" filterUnits="userSpaceOnUse" color-interpolation-filters="sRGB">
<feFlood flood-opacity="0" result="BackgroundImageFix"/>
<feBlend mode="normal" in="SourceGraphic" in2="BackgroundImageFix" result="shape"/>
<feGaussianBlur stdDeviation="0.0235651" result="effect1_foregroundBlur_262_40298"/>
</filter>
<filter id="filter14_f_262_40298" x="27.9323" y="12.7548" width="1.23921" height="1.4521" filterUnits="userSpaceOnUse" color-interpolation-filters="sRGB">
<feFlood flood-opacity="0" result="BackgroundImageFix"/>
<feBlend mode="normal" in="SourceGraphic" in2="BackgroundImageFix" result="shape"/>
<feGaussianBlur stdDeviation="0.073168" result="effect1_foregroundBlur_262_40298"/>
</filter>
<filter id="filter15_f_262_40298" x="32.4614" y="22.383" width="5.77956" height="14.4595" filterUnits="userSpaceOnUse" color-interpolation-filters="sRGB">
<feFlood flood-opacity="0" result="BackgroundImageFix"/>
<feBlend mode="normal" in="SourceGraphic" in2="BackgroundImageFix" result="shape"/>
<feGaussianBlur stdDeviation="0.292242" result="effect1_foregroundBlur_262_40298"/>
</filter>
<filter id="filter16_f_262_40298" x="15.1139" y="20.2699" width="6.44843" height="6.07147" filterUnits="userSpaceOnUse" color-interpolation-filters="sRGB">
<feFlood flood-opacity="0" result="BackgroundImageFix"/>
<feBlend mode="normal" in="SourceGraphic" in2="BackgroundImageFix" result="shape"/>
<feGaussianBlur stdDeviation="0.147995" result="effect1_foregroundBlur_262_40298"/>
</filter>
<filter id="filter17_f_262_40298" x="23.7119" y="19.6477" width="9.79645" height="7.0904" filterUnits="userSpaceOnUse" color-interpolation-filters="sRGB">
<feFlood flood-opacity="0" result="BackgroundImageFix"/>
<feBlend mode="normal" in="SourceGraphic" in2="BackgroundImageFix" result="shape"/>
<feGaussianBlur stdDeviation="0.243791" result="effect1_foregroundBlur_262_40298"/>
</filter>
<filter id="filter18_f_262_40298" x="20.3631" y="20.5008" width="4.23078" height="4.47663" filterUnits="userSpaceOnUse" color-interpolation-filters="sRGB">
<feFlood flood-opacity="0" result="BackgroundImageFix"/>
<feBlend mode="normal" in="SourceGraphic" in2="BackgroundImageFix" result="shape"/>
<feGaussianBlur stdDeviation="0.168169" result="effect1_foregroundBlur_262_40298"/>
</filter>
<filter id="filter19_f_262_40298" x="20.2616" y="25.8026" width="1.93563" height="11.0853" filterUnits="userSpaceOnUse" color-interpolation-filters="sRGB">
<feFlood flood-opacity="0" result="BackgroundImageFix"/>
<feBlend mode="normal" in="SourceGraphic" in2="BackgroundImageFix" result="shape"/>
<feGaussianBlur stdDeviation="0.309774" result="effect1_foregroundBlur_262_40298"/>
</filter>
<filter id="filter20_f_262_40298" x="30.2287" y="14.4558" width="2.76939" height="2.9962" filterUnits="userSpaceOnUse" color-interpolation-filters="sRGB">
<feFlood flood-opacity="0" result="BackgroundImageFix"/>
<feBlend mode="normal" in="SourceGraphic" in2="BackgroundImageFix" result="shape"/>
<feGaussianBlur stdDeviation="0.193019" result="effect1_foregroundBlur_262_40298"/>
</filter>
<filter id="filter21_f_262_40298" x="29.4515" y="35.2313" width="13.6313" height="14.667" filterUnits="userSpaceOnUse" color-interpolation-filters="sRGB">
<feFlood flood-opacity="0" result="BackgroundImageFix"/>
<feBlend mode="normal" in="SourceGraphic" in2="BackgroundImageFix" result="shape"/>
<feGaussianBlur stdDeviation="0.479548" result="effect1_foregroundBlur_262_40298"/>
</filter>
<filter id="filter22_f_262_40298" x="29.8975" y="32.6106" width="17.0671" height="17.2497" filterUnits="userSpaceOnUse" color-interpolation-filters="sRGB">
<feFlood flood-opacity="0" result="BackgroundImageFix"/>
<feBlend mode="normal" in="SourceGraphic" in2="BackgroundImageFix" result="shape"/>
<feGaussianBlur stdDeviation="1.0238" result="effect1_foregroundBlur_262_40298"/>
</filter>
<filter id="filter23_f_262_40298" x="30.8631" y="32.056" width="15.6063" height="15.544" filterUnits="userSpaceOnUse" color-interpolation-filters="sRGB">
<feFlood flood-opacity="0" result="BackgroundImageFix"/>
<feBlend mode="normal" in="SourceGraphic" in2="BackgroundImageFix" result="shape"/>
<feGaussianBlur stdDeviation="0.806721" result="effect1_foregroundBlur_262_40298"/>
</filter>
<filter id="filter24_f_262_40298" x="32.1261" y="34.6212" width="9.43634" height="1.87067" filterUnits="userSpaceOnUse" color-interpolation-filters="sRGB">
<feFlood flood-opacity="0" result="BackgroundImageFix"/>
<feBlend mode="normal" in="SourceGraphic" in2="BackgroundImageFix" result="shape"/>
<feGaussianBlur stdDeviation="0.102615" result="effect1_foregroundBlur_262_40298"/>
</filter>
<filter id="filter25_f_262_40298" x="33.4986" y="24.3145" width="3.61701" height="3.65265" filterUnits="userSpaceOnUse" color-interpolation-filters="sRGB">
<feFlood flood-opacity="0" result="BackgroundImageFix"/>
<feBlend mode="normal" in="SourceGraphic" in2="BackgroundImageFix" result="shape"/>
<feGaussianBlur stdDeviation="0.491044" result="effect1_foregroundBlur_262_40298"/>
</filter>
<filter id="filter26_f_262_40298" x="16.9634" y="18.3721" width="1.23406" height="1.25554" filterUnits="userSpaceOnUse" color-interpolation-filters="sRGB">
<feFlood flood-opacity="0" result="BackgroundImageFix"/>
<feBlend mode="normal" in="SourceGraphic" in2="BackgroundImageFix" result="shape"/>
<feGaussianBlur stdDeviation="0.137066" result="effect1_foregroundBlur_262_40298"/>
</filter>
<filter id="filter27_f_262_40298" x="33.0071" y="34.0691" width="8.02177" height="7.21928" filterUnits="userSpaceOnUse" color-interpolation-filters="sRGB">
<feFlood flood-opacity="0" result="BackgroundImageFix"/>
<feBlend mode="normal" in="SourceGraphic" in2="BackgroundImageFix" result="shape"/>
<feGaussianBlur stdDeviation="0.609264" result="effect1_foregroundBlur_262_40298"/>
</filter>
<filter id="filter28_f_262_40298" x="33.7531" y="34.8305" width="6.5297" height="4.40201" filterUnits="userSpaceOnUse" color-interpolation-filters="sRGB">
<feFlood flood-opacity="0" result="BackgroundImageFix"/>
<feBlend mode="normal" in="SourceGraphic" in2="BackgroundImageFix" result="shape"/>
<feGaussianBlur stdDeviation="0.236245" result="effect1_foregroundBlur_262_40298"/>
</filter>
<filter id="filter29_f_262_40298" x="34.1958" y="32.4368" width="6.60685" height="3.55802" filterUnits="userSpaceOnUse" color-interpolation-filters="sRGB">
<feFlood flood-opacity="0" result="BackgroundImageFix"/>
<feBlend mode="normal" in="SourceGraphic" in2="BackgroundImageFix" result="shape"/>
<feGaussianBlur stdDeviation="0.219584" result="effect1_foregroundBlur_262_40298"/>
</filter>
<filter id="filter30_f_262_40298" x="34.1958" y="32.4368" width="6.60685" height="3.55802" filterUnits="userSpaceOnUse" color-interpolation-filters="sRGB">
<feFlood flood-opacity="0" result="BackgroundImageFix"/>
<feBlend mode="normal" in="SourceGraphic" in2="BackgroundImageFix" result="shape"/>
<feGaussianBlur stdDeviation="0.219584" result="effect1_foregroundBlur_262_40298"/>
</filter>
<filter id="filter31_f_262_40298" x="11.4872" y="23.4903" width="5.38091" height="11.4144" filterUnits="userSpaceOnUse" color-interpolation-filters="sRGB">
<feFlood flood-opacity="0" result="BackgroundImageFix"/>
<feBlend mode="normal" in="SourceGraphic" in2="BackgroundImageFix" result="shape"/>
<feGaussianBlur stdDeviation="0.242506" result="effect1_foregroundBlur_262_40298"/>
</filter>
<filter id="filter32_f_262_40298" x="3.48231" y="32.3161" width="17.7292" height="17.5986" filterUnits="userSpaceOnUse" color-interpolation-filters="sRGB">
<feFlood flood-opacity="0" result="BackgroundImageFix"/>
<feBlend mode="normal" in="SourceGraphic" in2="BackgroundImageFix" result="shape"/>
<feGaussianBlur stdDeviation="0.840631" result="effect1_foregroundBlur_262_40298"/>
</filter>
<filter id="filter33_f_262_40298" x="4.62591" y="32.3383" width="14.7958" height="15.5785" filterUnits="userSpaceOnUse" color-interpolation-filters="sRGB">
<feFlood flood-opacity="0" result="BackgroundImageFix"/>
<feBlend mode="normal" in="SourceGraphic" in2="BackgroundImageFix" result="shape"/>
<feGaussianBlur stdDeviation="0.517366" result="effect1_foregroundBlur_262_40298"/>
</filter>
<filter id="filter34_f_262_40298" x="14.1281" y="35.9225" width="4.63346" height="8.1464" filterUnits="userSpaceOnUse" color-interpolation-filters="sRGB">
<feFlood flood-opacity="0" result="BackgroundImageFix"/>
<feBlend mode="normal" in="SourceGraphic" in2="BackgroundImageFix" result="shape"/>
<feGaussianBlur stdDeviation="0.0792644" result="effect1_foregroundBlur_262_40298"/>
</filter>
<radialGradient id="paint0_radial_262_40298" cx="0" cy="0" r="1" gradientUnits="userSpaceOnUse" gradientTransform="translate(633.563 924.064) rotate(-2.41004) scale(40.8209 99.9149)">
<stop stop-color="#FEFEFC"/>
<stop offset="0.757" stop-color="#FEFEFC"/>
<stop offset="1" stop-color="#D4D4D4"/>
</radialGradient>
<radialGradient id="paint1_radial_262_40298" cx="0" cy="0" r="1" gradientUnits="userSpaceOnUse" gradientTransform="translate(1137.27 967.801) rotate(-1.81001) scale(73.0836 105.613)">
<stop stop-color="#FEFEFC"/>
<stop offset="0.757" stop-color="#FEFEFC"/>
<stop offset="1" stop-color="#D4D4D4"/>
</radialGradient>
<radialGradient id="paint2_radial_262_40298" cx="0" cy="0" r="1" gradientUnits="userSpaceOnUse" gradientTransform="translate(1213.23 -319.259) rotate(-36.0085) scale(66.9567 44.418)">
<stop stop-color="#020204"/>
<stop offset="0.734" stop-color="#020204"/>
<stop offset="1" stop-color="#5C5C5C"/>
</radialGradient>
<linearGradient id="paint3_linear_262_40298" x1="373.449" y1="159.097" x2="381.005" y2="168.177" gradientUnits="userSpaceOnUse">
<stop stop-color="#949494" stop-opacity="0.392"/>
<stop offset="0.5" stop-color="#949494"/>
<stop offset="1" stop-color="#949494" stop-opacity="0.392"/>
</linearGradient>
<linearGradient id="paint4_linear_262_40298" x1="719.632" y1="685.865" x2="856.245" y2="798.081" gradientUnits="userSpaceOnUse">
<stop stop-color="#747474"/>
<stop offset="0.125" stop-color="#8C8C8C"/>
<stop offset="0.25" stop-color="#A4A4A4"/>
<stop offset="0.5" stop-color="#D4D4D4"/>
<stop offset="0.619" stop-color="#D4D4D4"/>
<stop offset="1" stop-color="#7C7C7C"/>
</linearGradient>
<linearGradient id="paint5_linear_262_40298" x1="66.0702" y1="251.388" x2="99.1632" y2="285.245" gradientUnits="userSpaceOnUse">
<stop stop-color="#646464" stop-opacity="0"/>
<stop offset="0.306" stop-color="#646464" stop-opacity="0.583"/>
<stop offset="0.47" stop-color="#646464"/>
<stop offset="0.728" stop-color="#646464" stop-opacity="0.257"/>
<stop offset="1" stop-color="#646464" stop-opacity="0"/>
</linearGradient>
<linearGradient id="paint6_linear_262_40298" x1="-40.3734" y1="227.137" x2="-12.761" y2="257.394" gradientUnits="userSpaceOnUse">
<stop stop-color="#646464" stop-opacity="0"/>
<stop offset="0.306" stop-color="#646464" stop-opacity="0.583"/>
<stop offset="0.47" stop-color="#646464"/>
<stop offset="0.728" stop-color="#646464" stop-opacity="0.257"/>
<stop offset="1" stop-color="#646464" stop-opacity="0"/>
</linearGradient>
<linearGradient id="paint7_linear_262_40298" x1="161.742" y1="191.938" x2="171.143" y2="202.413" gradientUnits="userSpaceOnUse">
<stop stop-color="#757574" stop-opacity="0"/>
<stop offset="0.263" stop-color="#757574"/>
<stop offset="0.5" stop-color="#757574"/>
<stop offset="1" stop-color="#757574" stop-opacity="0"/>
</linearGradient>
<radialGradient id="paint8_radial_262_40298" cx="0" cy="0" r="1" gradientUnits="userSpaceOnUse" gradientTransform="translate(3005.19 -485.125) rotate(-22.428) scale(315.472 109.601)">
<stop stop-color="#D2940A"/>
<stop offset="0.751" stop-color="#D89C08"/>
<stop offset="0.866" stop-color="#B67E07"/>
<stop offset="1" stop-color="#946106"/>
</radialGradient>
<linearGradient id="paint9_linear_262_40298" x1="482.59" y1="800.493" x2="1041.19" y2="791.823" gradientUnits="userSpaceOnUse">
<stop stop-color="#AD780A"/>
<stop offset="0.12" stop-color="#D89E08"/>
<stop offset="0.255" stop-color="#EDB80B"/>
<stop offset="0.392" stop-color="#EBC80D"/>
<stop offset="0.527" stop-color="#F5D838"/>
<stop offset="0.769" stop-color="#F6D811"/>
<stop offset="1" stop-color="#F5CD31"/>
</linearGradient>
<radialGradient id="paint10_radial_262_40298" cx="0" cy="0" r="1" gradientUnits="userSpaceOnUse" gradientTransform="translate(96.0977 53.4083) scale(3.00084 0.918699)">
<stop stop-color="#3A2903"/>
<stop offset="0.555" stop-color="#735208"/>
<stop offset="1" stop-color="#AC8C04"/>
</radialGradient>
<radialGradient id="paint11_radial_262_40298" cx="0" cy="0" r="1" gradientUnits="userSpaceOnUse" gradientTransform="translate(45.288 76.7371) scale(0.572588 0.678774)">
<stop stop-color="#3A2903"/>
<stop offset="0.555" stop-color="#735208"/>
<stop offset="1" stop-color="#AC8C04"/>
</radialGradient>
<linearGradient id="paint12_linear_262_40298" x1="235.541" y1="194.94" x2="236.136" y2="198.024" gradientUnits="userSpaceOnUse">
<stop stop-color="#F5CE2D"/>
<stop offset="1" stop-color="#D79B08"/>
</linearGradient>
<radialGradient id="paint13_radial_262_40298" cx="0" cy="0" r="1" gradientUnits="userSpaceOnUse" gradientTransform="translate(652.851 32.9314) rotate(-9.34942) scale(83.2507 35.7091)">
<stop stop-color="#C8C8C8"/>
<stop offset="1" stop-color="#797978"/>
</radialGradient>
<radialGradient id="paint14_radial_262_40298" cx="0" cy="0" r="1" gradientUnits="userSpaceOnUse" gradientTransform="translate(-1305.25 943.461) rotate(180) scale(112.04 114.572)">
<stop/>
<stop offset="1" stop-opacity="0.25"/>
</radialGradient>
<radialGradient id="paint15_radial_262_40298" cx="0" cy="0" r="1" gradientUnits="userSpaceOnUse" gradientTransform="translate(2730.34 1122.92) scale(241.626 127.865)">
<stop/>
<stop offset="1" stop-opacity="0.25"/>
</radialGradient>
<radialGradient id="paint16_radial_262_40298" cx="0" cy="0" r="1" gradientUnits="userSpaceOnUse" gradientTransform="translate(953.733 934.813) scale(38.587 44.1096)">
<stop/>
<stop offset="1" stop-opacity="0.25"/>
</radialGradient>
<linearGradient id="paint17_linear_262_40298" x1="361.731" y1="4165.5" x2="412.849" y2="4516.05" gradientUnits="userSpaceOnUse">
<stop/>
<stop offset="1" stop-opacity="0"/>
</linearGradient>
<linearGradient id="paint18_linear_262_40298" x1="6301.51" y1="5470.09" x2="7014.51" y2="4349.24" gradientUnits="userSpaceOnUse">
<stop stop-color="#3E2A06"/>
<stop offset="1" stop-color="#AD780A"/>
</linearGradient>
<linearGradient id="paint19_linear_262_40298" x1="439.971" y1="457.668" x2="439.633" y2="476.476" gradientUnits="userSpaceOnUse">
<stop stop-color="#F3CD0C"/>
<stop offset="1" stop-color="#F3CD0C" stop-opacity="0"/>
</linearGradient>
<radialGradient id="paint20_radial_262_40298" cx="0" cy="0" r="1" gradientUnits="userSpaceOnUse" gradientTransform="translate(2088.28 2719.66) rotate(15) scale(127.417 114.529)">
<stop stop-color="#110800"/>
<stop offset="0.591" stop-color="#A65A00" stop-opacity="0.8"/>
<stop offset="1" stop-color="#FF921E" stop-opacity="0"/>
</radialGradient>
<radialGradient id="paint21_radial_262_40298" cx="0" cy="0" r="1" gradientUnits="userSpaceOnUse" gradientTransform="translate(2088.28 1975.9) rotate(10.9628) scale(125.363 84.1525)">
<stop stop-color="#110800"/>
<stop offset="0.591" stop-color="#A65A00" stop-opacity="0.8"/>
<stop offset="1" stop-color="#FF921E" stop-opacity="0"/>
</radialGradient>
<radialGradient id="paint22_radial_262_40298" cx="0" cy="0" r="1" gradientUnits="userSpaceOnUse" gradientTransform="translate(778.195 487.422) rotate(23.5217) scale(46.225 9.99372)">
<stop stop-color="#7C7C7C"/>
<stop offset="1" stop-color="#7C7C7C" stop-opacity="0.33"/>
</radialGradient>
<linearGradient id="paint23_linear_262_40298" x1="2088.29" y1="781.509" x2="2105.37" y2="779.988" gradientUnits="userSpaceOnUse">
<stop stop-color="#7C7C7C"/>
<stop offset="1" stop-color="#7C7C7C" stop-opacity="0.33"/>
</linearGradient>
<linearGradient id="paint24_linear_262_40298" x1="1929.28" y1="4695.72" x2="2663.38" y2="5940.92" gradientUnits="userSpaceOnUse">
<stop stop-color="#B98309"/>
<stop offset="1" stop-color="#382605"/>
</linearGradient>
<linearGradient id="paint25_linear_262_40298" x1="752.576" y1="2558.85" x2="894.451" y2="2706.09" gradientUnits="userSpaceOnUse">
<stop stop-color="#EBC40C"/>
<stop offset="1" stop-color="#EBC40C" stop-opacity="0"/>
</linearGradient>
<clipPath id="clip0_262_40298">
<rect width="49" height="49" fill="white"/>
</clipPath>
</defs>
</svg>
