<svg width="474" height="243" viewBox="0 0 474 243" fill="none" xmlns="http://www.w3.org/2000/svg">
<rect x="0.5" y="1.38596" width="473" height="43" rx="3.5" fill="#ECFFFF"/>
<path d="M127.435 29.886V15.3405H130.07V27.6771H136.476V29.886H127.435ZM143.479 30.099C142.385 30.099 141.44 29.8718 140.645 29.4172C139.854 28.9579 139.246 28.3093 138.82 27.4712C138.393 26.6284 138.18 25.6364 138.18 24.4953C138.18 23.3732 138.393 22.3883 138.82 21.5408C139.25 20.6885 139.852 20.0256 140.624 19.5521C141.395 19.0739 142.302 18.8348 143.344 18.8348C144.016 18.8348 144.651 18.9437 145.247 19.1615C145.848 19.3746 146.379 19.706 146.838 20.1558C147.302 20.6057 147.667 21.1786 147.932 21.8746C148.197 22.5659 148.33 23.3897 148.33 24.3462V25.1345H139.388V23.4016H145.865C145.86 22.9092 145.754 22.4712 145.545 22.0877C145.337 21.6994 145.046 21.394 144.672 21.1715C144.303 20.9489 143.872 20.8377 143.379 20.8377C142.854 20.8377 142.392 20.9655 141.994 21.2212C141.597 21.4721 141.286 21.8036 141.064 22.2155C140.846 22.6227 140.735 23.0701 140.73 23.5578V25.0706C140.73 25.7051 140.846 26.2496 141.078 26.7041C141.31 27.1539 141.634 27.4996 142.051 27.7411C142.468 27.9778 142.955 28.0962 143.514 28.0962C143.888 28.0962 144.227 28.0441 144.53 27.9399C144.833 27.831 145.096 27.6724 145.318 27.4641C145.541 27.2557 145.709 26.9977 145.822 26.6899L148.223 26.9598C148.071 27.5943 147.783 28.1483 147.357 28.6218C146.935 29.0905 146.395 29.4551 145.737 29.7155C145.079 29.9712 144.326 30.099 143.479 30.099ZM153.644 30.1061C152.953 30.1061 152.33 29.983 151.776 29.7368C151.227 29.4859 150.791 29.1165 150.469 28.6289C150.152 28.1412 149.993 27.5398 149.993 26.8249C149.993 26.2093 150.107 25.7003 150.334 25.2979C150.561 24.8954 150.872 24.5735 151.265 24.332C151.658 24.0905 152.1 23.9082 152.593 23.7851C153.09 23.6573 153.604 23.5649 154.134 23.5081C154.773 23.4418 155.292 23.3826 155.689 23.3306C156.087 23.2737 156.376 23.1885 156.556 23.0749C156.74 22.9565 156.833 22.7742 156.833 22.528V22.4854C156.833 21.9503 156.674 21.5361 156.357 21.2425C156.04 20.9489 155.583 20.8021 154.986 20.8021C154.356 20.8021 153.857 20.9395 153.488 21.2141C153.123 21.4887 152.877 21.813 152.749 22.1871L150.348 21.8462C150.538 21.1833 150.85 20.6293 151.286 20.1843C151.721 19.7344 152.254 19.3983 152.884 19.1757C153.514 18.9485 154.21 18.8348 154.972 18.8348C155.498 18.8348 156.021 18.8964 156.542 19.0195C157.062 19.1426 157.538 19.3462 157.969 19.6303C158.4 19.9096 158.746 20.2908 159.006 20.7737C159.271 21.2567 159.404 21.8604 159.404 22.5848V29.886H156.932V28.3874H156.847C156.691 28.6904 156.471 28.9745 156.186 29.2396C155.907 29.5001 155.554 29.7108 155.128 29.8718C154.707 30.028 154.212 30.1061 153.644 30.1061ZM154.311 28.2169C154.828 28.2169 155.275 28.1151 155.654 27.9115C156.033 27.7032 156.324 27.4286 156.527 27.0877C156.736 26.7468 156.84 26.3751 156.84 25.9726V24.6871C156.759 24.7534 156.622 24.8149 156.428 24.8718C156.239 24.9286 156.025 24.9783 155.789 25.0209C155.552 25.0635 155.318 25.1014 155.086 25.1345C154.854 25.1677 154.652 25.1961 154.482 25.2198C154.098 25.2718 153.755 25.3571 153.452 25.4754C153.149 25.5938 152.91 25.7595 152.735 25.9726C152.56 26.1809 152.472 26.4508 152.472 26.7823C152.472 27.2557 152.645 27.6132 152.99 27.8547C153.336 28.0962 153.776 28.2169 154.311 28.2169ZM161.989 29.886V18.9769H164.482V20.795H164.596C164.794 20.1653 165.135 19.68 165.618 19.3391C166.106 18.9934 166.662 18.8206 167.287 18.8206C167.429 18.8206 167.588 18.8277 167.763 18.8419C167.943 18.8514 168.092 18.868 168.211 18.8916V21.2567C168.102 21.2188 167.929 21.1857 167.692 21.1573C167.46 21.1241 167.235 21.1075 167.017 21.1075C166.549 21.1075 166.127 21.2093 165.753 21.4129C165.384 21.6118 165.093 21.8888 164.88 22.2439C164.667 22.599 164.56 23.0086 164.56 23.4726V29.886H161.989ZM172.49 23.4939V29.886H169.919V18.9769H172.376V20.8306H172.504C172.755 20.2198 173.155 19.7344 173.704 19.3746C174.258 19.0147 174.942 18.8348 175.757 18.8348C176.51 18.8348 177.165 18.9958 177.724 19.3178C178.288 19.6397 178.723 20.1061 179.031 20.7169C179.343 21.3277 179.497 22.0687 179.493 22.9399V29.886H176.922V23.3377C176.922 22.6085 176.732 22.0379 176.353 21.626C175.979 21.2141 175.461 21.0081 174.798 21.0081C174.348 21.0081 173.948 21.1075 173.598 21.3064C173.252 21.5005 172.98 21.7823 172.781 22.1516C172.587 22.5209 172.49 22.9683 172.49 23.4939ZM190.206 30.1061C189.515 30.1061 188.892 29.983 188.338 29.7368C187.789 29.4859 187.354 29.1165 187.032 28.6289C186.714 28.1412 186.556 27.5398 186.556 26.8249C186.556 26.2093 186.669 25.7003 186.897 25.2979C187.124 24.8954 187.434 24.5735 187.827 24.332C188.22 24.0905 188.663 23.9082 189.155 23.7851C189.652 23.6573 190.166 23.5649 190.696 23.5081C191.336 23.4418 191.854 23.3826 192.252 23.3306C192.65 23.2737 192.938 23.1885 193.118 23.0749C193.303 22.9565 193.395 22.7742 193.395 22.528V22.4854C193.395 21.9503 193.237 21.5361 192.919 21.2425C192.602 20.9489 192.145 20.8021 191.549 20.8021C190.919 20.8021 190.419 20.9395 190.05 21.2141C189.685 21.4887 189.439 21.813 189.311 22.1871L186.911 21.8462C187.1 21.1833 187.413 20.6293 187.848 20.1843C188.284 19.7344 188.817 19.3983 189.446 19.1757C190.076 18.9485 190.772 18.8348 191.534 18.8348C192.06 18.8348 192.583 18.8964 193.104 19.0195C193.625 19.1426 194.101 19.3462 194.532 19.6303C194.962 19.9096 195.308 20.2908 195.569 20.7737C195.834 21.2567 195.966 21.8604 195.966 22.5848V29.886H193.495V28.3874H193.409C193.253 28.6904 193.033 28.9745 192.749 29.2396C192.47 29.5001 192.117 29.7108 191.691 29.8718C191.269 30.028 190.775 30.1061 190.206 30.1061ZM190.874 28.2169C191.39 28.2169 191.837 28.1151 192.216 27.9115C192.595 27.7032 192.886 27.4286 193.09 27.0877C193.298 26.7468 193.402 26.3751 193.402 25.9726V24.6871C193.322 24.7534 193.185 24.8149 192.99 24.8718C192.801 24.9286 192.588 24.9783 192.351 25.0209C192.114 25.0635 191.88 25.1014 191.648 25.1345C191.416 25.1677 191.215 25.1961 191.044 25.2198C190.661 25.2718 190.318 25.3571 190.015 25.4754C189.712 25.5938 189.472 25.7595 189.297 25.9726C189.122 26.1809 189.034 26.4508 189.034 26.7823C189.034 27.2557 189.207 27.6132 189.553 27.8547C189.899 28.0962 190.339 28.2169 190.874 28.2169ZM198.665 29.886V15.3405H201.236V20.7808H201.343C201.475 20.5157 201.662 20.234 201.904 19.9357C202.145 19.6326 202.472 19.3746 202.884 19.1615C203.296 18.9437 203.821 18.8348 204.461 18.8348C205.303 18.8348 206.063 19.0503 206.74 19.4811C207.422 19.9073 207.962 20.5394 208.36 21.3774C208.762 22.2108 208.963 23.2335 208.963 24.4456C208.963 25.6435 208.767 26.6615 208.374 27.4996C207.981 28.3377 207.446 28.9769 206.769 29.4172C206.092 29.8575 205.325 30.0777 204.468 30.0777C203.843 30.0777 203.324 29.9736 202.912 29.7652C202.5 29.5569 202.169 29.3059 201.918 29.0124C201.672 28.7141 201.48 28.4324 201.343 28.1672H201.194V29.886H198.665ZM201.186 24.4314C201.186 25.1369 201.286 25.7548 201.485 26.2851C201.688 26.8154 201.98 27.2297 202.358 27.528C202.742 27.8216 203.206 27.9683 203.75 27.9683C204.319 27.9683 204.794 27.8168 205.178 27.5138C205.561 27.206 205.85 26.787 206.044 26.2567C206.243 25.7217 206.343 25.1132 206.343 24.4314C206.343 23.7543 206.246 23.153 206.051 22.6274C205.857 22.1019 205.569 21.6899 205.185 21.3916C204.801 21.0933 204.323 20.9442 203.75 20.9442C203.201 20.9442 202.735 21.0886 202.351 21.3774C201.968 21.6663 201.676 22.0711 201.478 22.5919C201.283 23.1128 201.186 23.7259 201.186 24.4314ZM215.908 30.099C214.842 30.099 213.919 29.8646 213.138 29.3959C212.357 28.9271 211.75 28.2714 211.32 27.4286C210.893 26.5858 210.68 25.6009 210.68 24.474C210.68 23.3471 210.893 22.3599 211.32 21.5124C211.75 20.6648 212.357 20.0067 213.138 19.5379C213.919 19.0692 214.842 18.8348 215.908 18.8348C216.973 18.8348 217.896 19.0692 218.678 19.5379C219.459 20.0067 220.063 20.6648 220.489 21.5124C220.92 22.3599 221.135 23.3471 221.135 24.474C221.135 25.6009 220.92 26.5858 220.489 27.4286C220.063 28.2714 219.459 28.9271 218.678 29.3959C217.896 29.8646 216.973 30.099 215.908 30.099ZM215.922 28.0394C216.5 28.0394 216.982 27.8807 217.371 27.5635C217.759 27.2415 218.048 26.8107 218.237 26.2709C218.431 25.7311 218.528 25.1298 218.528 24.4669C218.528 23.7993 218.431 23.1956 218.237 22.6558C218.048 22.1113 217.759 21.6781 217.371 21.3561C216.982 21.0342 216.5 20.8732 215.922 20.8732C215.33 20.8732 214.838 21.0342 214.445 21.3561C214.056 21.6781 213.765 22.1113 213.571 22.6558C213.382 23.1956 213.287 23.7993 213.287 24.4669C213.287 25.1298 213.382 25.7311 213.571 26.2709C213.765 26.8107 214.056 27.2415 214.445 27.5635C214.838 27.8807 215.33 28.0394 215.922 28.0394ZM230.27 25.2979V18.9769H232.841V29.886H230.348V27.947H230.235C229.989 28.5578 229.584 29.0574 229.02 29.4456C228.462 29.8339 227.773 30.028 226.953 30.028C226.239 30.028 225.606 29.8694 225.057 29.5521C224.513 29.2302 224.087 28.7638 223.779 28.153C223.471 27.5375 223.317 26.7941 223.317 25.9229V18.9769H225.888V25.5252C225.888 26.2164 226.078 26.7657 226.456 27.1729C226.835 27.5801 227.332 27.7837 227.948 27.7837C228.327 27.7837 228.694 27.6914 229.049 27.5067C229.404 27.322 229.695 27.0474 229.922 26.6828C230.154 26.3135 230.27 25.8519 230.27 25.2979ZM240.933 18.9769V20.9655H234.661V18.9769H240.933ZM236.21 16.3632H238.781V26.6047C238.781 26.9503 238.833 27.2155 238.937 27.4002C239.046 27.5801 239.188 27.7032 239.363 27.7695C239.538 27.8358 239.732 27.8689 239.945 27.8689C240.106 27.8689 240.253 27.8571 240.386 27.8334C240.523 27.8097 240.627 27.7884 240.698 27.7695L241.131 29.7794C240.994 29.8268 240.798 29.8789 240.542 29.9357C240.291 29.9925 239.983 30.0256 239.619 30.0351C238.975 30.054 238.395 29.957 237.879 29.7439C237.362 29.5261 236.953 29.1899 236.65 28.7354C236.352 28.2808 236.205 27.7127 236.21 27.0308V16.3632ZM250.295 29.886L247.213 18.9769H249.833L251.751 26.6473H251.85L253.811 18.9769H256.403L258.363 26.6047H258.47L260.359 18.9769H262.987L259.897 29.886H257.22L255.174 22.5138H255.025L252.98 29.886H250.295ZM269.228 30.099C268.163 30.099 267.239 29.8646 266.458 29.3959C265.677 28.9271 265.071 28.2714 264.64 27.4286C264.214 26.5858 264.001 25.6009 264.001 24.474C264.001 23.3471 264.214 22.3599 264.64 21.5124C265.071 20.6648 265.677 20.0067 266.458 19.5379C267.239 19.0692 268.163 18.8348 269.228 18.8348C270.293 18.8348 271.217 19.0692 271.998 19.5379C272.779 20.0067 273.383 20.6648 273.809 21.5124C274.24 22.3599 274.455 23.3471 274.455 24.474C274.455 25.6009 274.24 26.5858 273.809 27.4286C273.383 28.2714 272.779 28.9271 271.998 29.3959C271.217 29.8646 270.293 30.099 269.228 30.099ZM269.242 28.0394C269.82 28.0394 270.303 27.8807 270.691 27.5635C271.079 27.2415 271.368 26.8107 271.558 26.2709C271.752 25.7311 271.849 25.1298 271.849 24.4669C271.849 23.7993 271.752 23.1956 271.558 22.6558C271.368 22.1113 271.079 21.6781 270.691 21.3561C270.303 21.0342 269.82 20.8732 269.242 20.8732C268.65 20.8732 268.158 21.0342 267.765 21.3561C267.377 21.6781 267.085 22.1113 266.891 22.6558C266.702 23.1956 266.607 23.7993 266.607 24.4669C266.607 25.1298 266.702 25.7311 266.891 26.2709C267.085 26.8107 267.377 27.2415 267.765 27.5635C268.158 27.8807 268.65 28.0394 269.242 28.0394ZM276.637 29.886V18.9769H279.13V20.795H279.244C279.443 20.1653 279.784 19.68 280.267 19.3391C280.754 18.9934 281.311 18.8206 281.936 18.8206C282.078 18.8206 282.236 18.8277 282.412 18.8419C282.592 18.8514 282.741 18.868 282.859 18.8916V21.2567C282.75 21.2188 282.577 21.1857 282.341 21.1573C282.109 21.1241 281.884 21.1075 281.666 21.1075C281.197 21.1075 280.776 21.2093 280.402 21.4129C280.032 21.6118 279.741 21.8888 279.528 22.2439C279.315 22.599 279.208 23.0086 279.208 23.4726V29.886H276.637ZM286.911 26.4627L286.904 23.359H287.316L291.236 18.9769H294.24L289.418 24.3462H288.885L286.911 26.4627ZM284.567 29.886V15.3405H287.138V29.886H284.567ZM291.414 29.886L287.863 24.9215L289.596 23.1104L294.489 29.886H291.414ZM298.525 15.3405V29.886H295.954V15.3405H298.525ZM305.927 30.099C304.862 30.099 303.939 29.8646 303.157 29.3959C302.376 28.9271 301.77 28.2714 301.339 27.4286C300.913 26.5858 300.7 25.6009 300.7 24.474C300.7 23.3471 300.913 22.3599 301.339 21.5124C301.77 20.6648 302.376 20.0067 303.157 19.5379C303.939 19.0692 304.862 18.8348 305.927 18.8348C306.993 18.8348 307.916 19.0692 308.697 19.5379C309.478 20.0067 310.082 20.6648 310.508 21.5124C310.939 22.3599 311.154 23.3471 311.154 24.474C311.154 25.6009 310.939 26.5858 310.508 27.4286C310.082 28.2714 309.478 28.9271 308.697 29.3959C307.916 29.8646 306.993 30.099 305.927 30.099ZM305.941 28.0394C306.519 28.0394 307.002 27.8807 307.39 27.5635C307.779 27.2415 308.067 26.8107 308.257 26.2709C308.451 25.7311 308.548 25.1298 308.548 24.4669C308.548 23.7993 308.451 23.1956 308.257 22.6558C308.067 22.1113 307.779 21.6781 307.39 21.3561C307.002 21.0342 306.519 20.8732 305.941 20.8732C305.35 20.8732 304.857 21.0342 304.464 21.3561C304.076 21.6781 303.785 22.1113 303.591 22.6558C303.401 23.1956 303.306 23.7993 303.306 24.4669C303.306 25.1298 303.401 25.7311 303.591 26.2709C303.785 26.8107 304.076 27.2415 304.464 27.5635C304.857 27.8807 305.35 28.0394 305.941 28.0394ZM316.476 30.1061C315.785 30.1061 315.162 29.983 314.608 29.7368C314.059 29.4859 313.623 29.1165 313.301 28.6289C312.984 28.1412 312.825 27.5398 312.825 26.8249C312.825 26.2093 312.939 25.7003 313.166 25.2979C313.393 24.8954 313.704 24.5735 314.097 24.332C314.49 24.0905 314.932 23.9082 315.425 23.7851C315.922 23.6573 316.436 23.5649 316.966 23.5081C317.605 23.4418 318.124 23.3826 318.521 23.3306C318.919 23.2737 319.208 23.1885 319.388 23.0749C319.572 22.9565 319.665 22.7742 319.665 22.528V22.4854C319.665 21.9503 319.506 21.5361 319.189 21.2425C318.872 20.9489 318.415 20.8021 317.818 20.8021C317.188 20.8021 316.689 20.9395 316.32 21.2141C315.955 21.4887 315.709 21.813 315.581 22.1871L313.18 21.8462C313.37 21.1833 313.682 20.6293 314.118 20.1843C314.554 19.7344 315.086 19.3983 315.716 19.1757C316.346 18.9485 317.042 18.8348 317.804 18.8348C318.33 18.8348 318.853 18.8964 319.374 19.0195C319.894 19.1426 320.37 19.3462 320.801 19.6303C321.232 19.9096 321.578 20.2908 321.838 20.7737C322.103 21.2567 322.236 21.8604 322.236 22.5848V29.886H319.764V28.3874H319.679C319.523 28.6904 319.303 28.9745 319.018 29.2396C318.739 29.5001 318.386 29.7108 317.96 29.8718C317.539 30.028 317.044 30.1061 316.476 30.1061ZM317.143 28.2169C317.66 28.2169 318.107 28.1151 318.486 27.9115C318.865 27.7032 319.156 27.4286 319.359 27.0877C319.568 26.7468 319.672 26.3751 319.672 25.9726V24.6871C319.591 24.7534 319.454 24.8149 319.26 24.8718C319.071 24.9286 318.857 24.9783 318.621 25.0209C318.384 25.0635 318.15 25.1014 317.918 25.1345C317.686 25.1677 317.484 25.1961 317.314 25.2198C316.93 25.2718 316.587 25.3571 316.284 25.4754C315.981 25.5938 315.742 25.7595 315.567 25.9726C315.392 26.1809 315.304 26.4508 315.304 26.7823C315.304 27.2557 315.477 27.6132 315.822 27.8547C316.168 28.0962 316.608 28.2169 317.143 28.2169ZM328.869 30.0777C328.012 30.0777 327.245 29.8575 326.568 29.4172C325.891 28.9769 325.356 28.3377 324.963 27.4996C324.57 26.6615 324.374 25.6435 324.374 24.4456C324.374 23.2335 324.572 22.2108 324.97 21.3774C325.373 20.5394 325.915 19.9073 326.597 19.4811C327.278 19.0503 328.038 18.8348 328.876 18.8348C329.516 18.8348 330.041 18.9437 330.453 19.1615C330.865 19.3746 331.192 19.6326 331.433 19.9357C331.675 20.234 331.862 20.5157 331.994 20.7808H332.101V15.3405H334.679V29.886H332.151V28.1672H331.994C331.862 28.4324 331.67 28.7141 331.419 29.0124C331.168 29.3059 330.837 29.5569 330.425 29.7652C330.013 29.9736 329.494 30.0777 328.869 30.0777ZM329.587 27.9683C330.131 27.9683 330.595 27.8216 330.979 27.528C331.362 27.2297 331.653 26.8154 331.852 26.2851C332.051 25.7548 332.151 25.1369 332.151 24.4314C332.151 23.7259 332.051 23.1128 331.852 22.5919C331.658 22.0711 331.369 21.6663 330.986 21.3774C330.607 21.0886 330.141 20.9442 329.587 20.9442C329.014 20.9442 328.536 21.0933 328.152 21.3916C327.768 21.6899 327.48 22.1019 327.286 22.6274C327.091 23.153 326.994 23.7543 326.994 24.4314C326.994 25.1132 327.091 25.7217 327.286 26.2567C327.484 26.787 327.776 27.206 328.159 27.5138C328.547 27.8168 329.023 27.9683 329.587 27.9683ZM346.041 21.8604L343.697 22.1161C343.631 21.8793 343.515 21.6568 343.349 21.4485C343.188 21.2401 342.97 21.072 342.696 20.9442C342.421 20.8164 342.085 20.7524 341.687 20.7524C341.152 20.7524 340.702 20.8684 340.338 21.1004C339.978 21.3325 339.8 21.6331 339.805 22.0024C339.8 22.3197 339.916 22.5777 340.153 22.7766C340.395 22.9754 340.792 23.1388 341.346 23.2666L343.207 23.6644C344.239 23.8869 345.006 24.2396 345.508 24.7226C346.015 25.2056 346.27 25.8377 346.275 26.6189C346.27 27.3055 346.069 27.9115 345.672 28.4371C345.279 28.9579 344.732 29.3651 344.031 29.6587C343.33 29.9522 342.525 30.099 341.616 30.099C340.281 30.099 339.206 29.8197 338.392 29.261C337.577 28.6975 337.092 27.9139 336.936 26.9101L339.443 26.6686C339.556 27.1611 339.798 27.5327 340.167 27.7837C340.537 28.0346 341.017 28.1601 341.609 28.1601C342.22 28.1601 342.71 28.0346 343.079 27.7837C343.453 27.5327 343.64 27.2226 343.64 26.8533C343.64 26.5408 343.52 26.2827 343.278 26.0791C343.041 25.8755 342.672 25.7193 342.17 25.6104L340.309 25.2198C339.263 25.002 338.489 24.635 337.987 24.1189C337.485 23.5981 337.236 22.9399 337.241 22.1445C337.236 21.4721 337.419 20.8897 337.788 20.3973C338.162 19.9002 338.681 19.5166 339.343 19.2468C340.011 18.9721 340.78 18.8348 341.652 18.8348C342.93 18.8348 343.936 19.1071 344.67 19.6516C345.409 20.1961 345.866 20.9324 346.041 21.8604Z" fill="#22222A"/>
<rect x="0.5" y="1.38596" width="473" height="43" rx="3.5" stroke="#01C9CC"/>
<path d="M233 68.886L236.99 72.886L237 56.886V72.886L241 68.886" stroke="#01C9CC" stroke-linecap="round" stroke-linejoin="round"/>
<rect x="0.5" y="85.386" width="473" height="61" rx="3.5" fill="#ECFFFF"/>
<path d="M48.5356 137.551L34.1073 129.064V121.189L30.6641 118.829L34.1073 114.127L48.1651 106.22H54.268L67.0815 114.127L62.0235 114.445L62.3607 129.619L48.5356 137.551Z" fill="#02BBA0"/>
<path d="M48.165 106.69L48.165 137.85" stroke="black" stroke-width="0.674398" stroke-linecap="round" stroke-linejoin="round"/>
<path d="M62.2227 114.127V129.942" stroke="black" stroke-width="0.674398" stroke-linecap="round" stroke-linejoin="round"/>
<path d="M34.1074 129.942V121.189" stroke="black" stroke-width="0.674398" stroke-linecap="round" stroke-linejoin="round"/>
<path d="M33.3619 113.771L48.8731 122.538M30.3271 118.829L44.4895 126.922" stroke="black" stroke-width="0.674398" stroke-linecap="round" stroke-linejoin="round"/>
<path d="M46.4082 105.341L63.4972 115.213" stroke="black" stroke-width="0.674398" stroke-linecap="round" stroke-linejoin="round"/>
<path d="M53.9307 106.016L67.0815 114.108" stroke="black" stroke-width="0.674398" stroke-linecap="round" stroke-linejoin="round"/>
<path d="M32.3506 128.185L49.4396 138.057" stroke="black" stroke-width="0.674398" stroke-linecap="round" stroke-linejoin="round"/>
<path d="M34.1071 114.215L49.5469 105.678" stroke="black" stroke-width="0.674398" stroke-linecap="round" stroke-linejoin="round"/>
<path d="M48.165 122.035L61.8612 114.127" stroke="black" stroke-width="0.674398" stroke-linecap="round" stroke-linejoin="round"/>
<path d="M47.524 138.049L63.1014 129.064" stroke="black" stroke-width="0.674398" stroke-linecap="round" stroke-linejoin="round"/>
<path d="M51.5709 120.178L48.2698 132.317M55.2801 118.492L50.2221 136.701M62.3613 115.457L57.6309 131.949M58.9893 115.794L53.9313 134.003M60.6657 130.263L62.2162 124.561" stroke="black" stroke-width="0.674398" stroke-linecap="round" stroke-linejoin="round"/>
<path d="M37.7451 112.455L36.9288 115.457M41.4542 110.399L39.4311 117.143M48.0809 107.735L44.489 119.841M44.9436 108.343L42.1286 118.492M46.8494 121.189L48.1982 116.469" stroke="black" stroke-width="0.674398" stroke-linecap="round" stroke-linejoin="round"/>
<path d="M44.4895 126.922C44.4895 126.922 46.1755 124.561 48.1987 122.201M30.3271 118.829C30.3271 118.829 32.0131 116.806 34.0363 114.108" stroke="black" stroke-width="0.674398" stroke-linecap="round" stroke-linejoin="round"/>
<path d="M62.0234 114.108C63.3722 114.108 66.7442 114.108 66.7442 114.108" stroke="black" stroke-width="0.674398" stroke-linecap="round" stroke-linejoin="round"/>
<path d="M47.9512 106.248C50.618 106.248 51.9394 106.248 54.6049 106.248" stroke="black" stroke-width="0.674398" stroke-linecap="round" stroke-linejoin="round"/>
<path d="M30.3279 107.027L28.3047 102.981C29.8783 103.206 33.0929 103.655 33.3627 103.655C33.6324 103.655 40.8934 108.601 44.4902 111.073L41.4554 114.445L30.3279 107.027Z" fill="white"/>
<path d="M45.839 101.295C45.5693 100.485 43.8158 99.6087 43.1414 99.6087L57.641 93.202L49.9424 104.248C49.9432 104.307 49.9181 104.33 49.8854 104.33L49.9424 104.248C49.9405 104.104 49.7848 103.746 49.211 102.981C48.1994 101.632 46.1762 102.306 45.839 101.295Z" fill="white"/>
<path d="M52.9199 119.166C53.5943 114.783 54.1381 110.199 56.6291 106.69C57.7842 105.063 60.6975 101.854 63.0359 102.644C65.7335 103.555 63.6546 108.77 61.6871 107.364C59.3267 105.678 62.6987 99.2715 68.1525 98.753" stroke="black" stroke-width="0.674398" stroke-linecap="round" stroke-linejoin="round"/>
<path d="M30.3271 107.364C34.0363 109.725 39.0836 112.69 41.7919 114.445" stroke="black" stroke-width="0.674398" stroke-linecap="round" stroke-linejoin="round"/>
<path d="M30.3273 107.364C29.6529 106.016 28.9785 105.004 27.8467 103.024" stroke="black" stroke-width="0.674398" stroke-linecap="round" stroke-linejoin="round"/>
<path d="M27.9668 102.981C29.99 103.318 31.0016 103.318 33.362 103.655" stroke="black" stroke-width="0.674398" stroke-linecap="round" stroke-linejoin="round"/>
<path d="M33.3623 103.655C38.0831 107.027 40.1063 108.376 44.1527 111.073" stroke="black" stroke-width="0.674398" stroke-linecap="round" stroke-linejoin="round"/>
<path d="M41.792 114.445C41.792 114.445 43.2751 112.492 44.4896 111.073" stroke="black" stroke-width="0.674398" stroke-linecap="round" stroke-linejoin="round"/>
<path d="M28.7334 104.265C29.0366 104.036 29.3284 103.799 29.62 103.556" stroke="black" stroke-width="0.674398" stroke-linecap="round" stroke-linejoin="round"/>
<path d="M30.3271 107.364L32.6875 106.016L33.1663 103.556" stroke="black" stroke-width="0.674398" stroke-linecap="round" stroke-linejoin="round"/>
<path d="M32.0137 105.678C39.0948 110.062 43.1145 112.617 43.1145 112.617" stroke="black" stroke-width="0.674398" stroke-linecap="round" stroke-linejoin="round"/>
<path d="M45.6716 101.836C48.9098 99.481 54.4807 95.3368 57.5559 92.886" stroke="black" stroke-width="0.674398" stroke-linecap="round" stroke-linejoin="round"/>
<path d="M49.9118 104.45C52.2294 101.42 54.7922 97.6766 57.718 92.8962" stroke="black" stroke-width="0.674398" stroke-linecap="round" stroke-linejoin="round"/>
<path d="M45.8347 101.932C46.4973 101.693 48.9765 102.534 49.9123 104.45" stroke="black" stroke-width="0.674398" stroke-linecap="round" stroke-linejoin="round"/>
<path d="M45.8348 101.932C45.523 99.5922 42.4703 99.6588 42.4703 99.6588C46.3475 98.1216 54.3473 94.3341 57.5561 92.8859" stroke="black" stroke-width="0.674398" stroke-linecap="round" stroke-linejoin="round"/>
<path d="M45.8387 101.632C39.9907 107.48 49.2546 113.876 49.885 113.771C51.9082 113.434 48.8734 108.376 47.5246 110.736C46.1758 112.759 47.7269 118.424 49.885 120.852" stroke="black" stroke-width="0.674398" stroke-linecap="round" stroke-linejoin="round"/>
<path d="M43.8152 116.455C46.241 117.03 48.3151 117.123 50.5019 116.922C50.2534 122.532 50.196 124.611 50.1887 124.607C49.3186 124.061 44.1973 116.979 43.8152 116.455Z" fill="white" stroke="black" stroke-width="0.674398" stroke-linecap="round" stroke-linejoin="round"/>
<path d="M78.0665 108.341H81.2909L85.6091 118.88H85.7796L90.0977 108.341H93.3222V122.886H90.7938V112.893H90.6588L86.6389 122.843H84.7497L80.7298 112.872H80.5949V122.886H78.0665V108.341ZM99.2171 123.106C98.5258 123.106 97.9031 122.983 97.3492 122.737C96.7999 122.486 96.3643 122.117 96.0423 121.629C95.7251 121.141 95.5665 120.54 95.5665 119.825C95.5665 119.209 95.6801 118.7 95.9074 118.298C96.1347 117.895 96.4448 117.573 96.8378 117.332C97.2308 117.091 97.6735 116.908 98.1659 116.785C98.6631 116.657 99.1768 116.565 99.7071 116.508C100.346 116.442 100.865 116.383 101.263 116.331C101.66 116.274 101.949 116.189 102.129 116.075C102.314 115.957 102.406 115.774 102.406 115.528V115.485C102.406 114.95 102.247 114.536 101.93 114.242C101.613 113.949 101.156 113.802 100.559 113.802C99.9297 113.802 99.4301 113.939 99.0608 114.214C98.6962 114.489 98.45 114.813 98.3222 115.187L95.9216 114.846C96.111 114.183 96.4235 113.629 96.8591 113.184C97.2947 112.734 97.8274 112.398 98.4571 112.176C99.0869 111.948 99.7829 111.835 100.545 111.835C101.071 111.835 101.594 111.896 102.115 112.019C102.636 112.143 103.111 112.346 103.542 112.63C103.973 112.91 104.319 113.291 104.579 113.774C104.844 114.257 104.977 114.86 104.977 115.585V122.886H102.505V121.387H102.42C102.264 121.69 102.044 121.974 101.76 122.24C101.48 122.5 101.128 122.711 100.701 122.872C100.28 123.028 99.7852 123.106 99.2171 123.106ZM99.8847 121.217C100.401 121.217 100.848 121.115 101.227 120.912C101.606 120.703 101.897 120.429 102.101 120.088C102.309 119.747 102.413 119.375 102.413 118.973V117.687C102.333 117.753 102.195 117.815 102.001 117.872C101.812 117.929 101.599 117.978 101.362 118.021C101.125 118.064 100.891 118.101 100.659 118.135C100.427 118.168 100.226 118.196 100.055 118.22C99.6716 118.272 99.3283 118.357 99.0253 118.475C98.7223 118.594 98.4832 118.76 98.308 118.973C98.1328 119.181 98.0452 119.451 98.0452 119.782C98.0452 120.256 98.218 120.613 98.5637 120.855C98.9093 121.096 99.3496 121.217 99.8847 121.217ZM109.906 119.463L109.899 116.359H110.311L114.231 111.977H117.236L112.413 117.346H111.88L109.906 119.463ZM107.562 122.886V108.341H110.133V122.886H107.562ZM114.409 122.886L110.858 117.921L112.591 116.11L117.484 122.886H114.409ZM123.329 123.099C122.236 123.099 121.291 122.872 120.495 122.417C119.705 121.958 119.096 121.309 118.67 120.471C118.244 119.628 118.031 118.636 118.031 117.495C118.031 116.373 118.244 115.388 118.67 114.541C119.101 113.689 119.702 113.026 120.474 112.552C121.246 112.074 122.153 111.835 123.194 111.835C123.867 111.835 124.501 111.944 125.098 112.162C125.699 112.375 126.229 112.706 126.689 113.156C127.153 113.606 127.517 114.179 127.782 114.875C128.048 115.566 128.18 116.39 128.18 117.346V118.135H119.238V116.402H125.716C125.711 115.909 125.604 115.471 125.396 115.088C125.188 114.699 124.897 114.394 124.522 114.171C124.153 113.949 123.722 113.838 123.23 113.838C122.704 113.838 122.243 113.966 121.845 114.221C121.447 114.472 121.137 114.804 120.915 115.216C120.697 115.623 120.585 116.07 120.581 116.558V118.071C120.581 118.705 120.697 119.25 120.929 119.704C121.161 120.154 121.485 120.5 121.902 120.741C122.318 120.978 122.806 121.096 123.365 121.096C123.739 121.096 124.077 121.044 124.38 120.94C124.683 120.831 124.946 120.672 125.169 120.464C125.391 120.256 125.559 119.998 125.673 119.69L128.074 119.96C127.922 120.594 127.633 121.148 127.207 121.622C126.786 122.091 126.246 122.455 125.588 122.716C124.93 122.971 124.177 123.099 123.329 123.099ZM140.075 123.099C139.009 123.099 138.086 122.865 137.305 122.396C136.524 121.927 135.917 121.271 135.487 120.429C135.06 119.586 134.847 118.601 134.847 117.474C134.847 116.347 135.06 115.36 135.487 114.512C135.917 113.665 136.524 113.007 137.305 112.538C138.086 112.069 139.009 111.835 140.075 111.835C141.14 111.835 142.063 112.069 142.845 112.538C143.626 113.007 144.229 113.665 144.656 114.512C145.087 115.36 145.302 116.347 145.302 117.474C145.302 118.601 145.087 119.586 144.656 120.429C144.229 121.271 143.626 121.927 142.845 122.396C142.063 122.865 141.14 123.099 140.075 123.099ZM140.089 121.039C140.667 121.039 141.149 120.881 141.538 120.564C141.926 120.242 142.215 119.811 142.404 119.271C142.598 118.731 142.695 118.13 142.695 117.467C142.695 116.799 142.598 116.196 142.404 115.656C142.215 115.111 141.926 114.678 141.538 114.356C141.149 114.034 140.667 113.873 140.089 113.873C139.497 113.873 139.005 114.034 138.612 114.356C138.223 114.678 137.932 115.111 137.738 115.656C137.549 116.196 137.454 116.799 137.454 117.467C137.454 118.13 137.549 118.731 137.738 119.271C137.932 119.811 138.223 120.242 138.612 120.564C139.005 120.881 139.497 121.039 140.089 121.039ZM147.484 126.977V111.977H150.013V113.781H150.162C150.294 113.516 150.481 113.234 150.723 112.936C150.964 112.633 151.291 112.375 151.703 112.162C152.115 111.944 152.64 111.835 153.28 111.835C154.122 111.835 154.882 112.05 155.559 112.481C156.241 112.907 156.781 113.539 157.179 114.377C157.581 115.211 157.782 116.233 157.782 117.446C157.782 118.644 157.586 119.662 157.193 120.5C156.8 121.338 156.265 121.977 155.588 122.417C154.911 122.858 154.144 123.078 153.287 123.078C152.662 123.078 152.143 122.974 151.731 122.765C151.319 122.557 150.988 122.306 150.737 122.012C150.491 121.714 150.299 121.432 150.162 121.167H150.055V126.977H147.484ZM150.005 117.431C150.005 118.137 150.105 118.755 150.304 119.285C150.507 119.815 150.799 120.23 151.177 120.528C151.561 120.822 152.025 120.968 152.569 120.968C153.138 120.968 153.613 120.817 153.997 120.514C154.38 120.206 154.669 119.787 154.863 119.257C155.062 118.722 155.162 118.113 155.162 117.431C155.162 116.754 155.065 116.153 154.87 115.627C154.676 115.102 154.388 114.69 154.004 114.392C153.62 114.093 153.142 113.944 152.569 113.944C152.02 113.944 151.554 114.089 151.17 114.377C150.787 114.666 150.495 115.071 150.297 115.592C150.102 116.113 150.005 116.726 150.005 117.431ZM165.432 111.977V113.966H159.16V111.977H165.432ZM160.709 109.363H163.28V119.605C163.28 119.95 163.332 120.216 163.436 120.4C163.545 120.58 163.687 120.703 163.862 120.769C164.037 120.836 164.231 120.869 164.444 120.869C164.605 120.869 164.752 120.857 164.885 120.833C165.022 120.81 165.126 120.788 165.197 120.769L165.63 122.779C165.493 122.827 165.297 122.879 165.041 122.936C164.79 122.992 164.482 123.026 164.118 123.035C163.474 123.054 162.894 122.957 162.378 122.744C161.861 122.526 161.452 122.19 161.149 121.735C160.851 121.281 160.704 120.713 160.709 120.031V109.363ZM167.582 122.886V111.977H170.153V122.886H167.582ZM168.874 110.429C168.467 110.429 168.117 110.294 167.823 110.024C167.53 109.749 167.383 109.42 167.383 109.037C167.383 108.648 167.53 108.319 167.823 108.049C168.117 107.775 168.467 107.637 168.874 107.637C169.286 107.637 169.637 107.775 169.926 108.049C170.219 108.319 170.366 108.648 170.366 109.037C170.366 109.42 170.219 109.749 169.926 110.024C169.637 110.294 169.286 110.429 168.874 110.429ZM172.797 122.886V111.977H175.254V113.831H175.382C175.609 113.206 175.986 112.718 176.511 112.367C177.037 112.012 177.664 111.835 178.393 111.835C179.132 111.835 179.754 112.015 180.261 112.375C180.772 112.73 181.132 113.215 181.341 113.831H181.454C181.696 113.224 182.103 112.742 182.676 112.382C183.254 112.017 183.938 111.835 184.728 111.835C185.732 111.835 186.551 112.152 187.186 112.787C187.82 113.421 188.138 114.347 188.138 115.564V122.886H185.559V115.961C185.559 115.284 185.379 114.789 185.02 114.477C184.66 114.16 184.219 114.001 183.699 114.001C183.078 114.001 182.593 114.195 182.243 114.583C181.897 114.967 181.724 115.466 181.724 116.082V122.886H179.203V115.855C179.203 115.291 179.032 114.841 178.691 114.505C178.355 114.169 177.915 114.001 177.37 114.001C177.001 114.001 176.665 114.096 176.362 114.285C176.059 114.47 175.817 114.733 175.638 115.073C175.458 115.41 175.368 115.803 175.368 116.252V122.886H172.797ZM190.746 122.886V111.977H193.317V122.886H190.746ZM192.038 110.429C191.631 110.429 191.281 110.294 190.987 110.024C190.694 109.749 190.547 109.42 190.547 109.037C190.547 108.648 190.694 108.319 190.987 108.049C191.281 107.775 191.631 107.637 192.038 107.637C192.45 107.637 192.801 107.775 193.09 108.049C193.383 108.319 193.53 108.648 193.53 109.037C193.53 109.42 193.383 109.749 193.09 110.024C192.801 110.294 192.45 110.429 192.038 110.429ZM195.819 122.886V121.252L201.444 114.2V114.108H196.003V111.977H204.59V113.731L199.235 120.663V120.755H204.775V122.886H195.819ZM210.33 123.106C209.639 123.106 209.016 122.983 208.462 122.737C207.913 122.486 207.478 122.117 207.156 121.629C206.838 121.141 206.68 120.54 206.68 119.825C206.68 119.209 206.793 118.7 207.021 118.298C207.248 117.895 207.558 117.573 207.951 117.332C208.344 117.091 208.787 116.908 209.279 116.785C209.776 116.657 210.29 116.565 210.82 116.508C211.46 116.442 211.978 116.383 212.376 116.331C212.774 116.274 213.062 116.189 213.242 116.075C213.427 115.957 213.519 115.774 213.519 115.528V115.485C213.519 114.95 213.361 114.536 213.043 114.242C212.726 113.949 212.269 113.802 211.673 113.802C211.043 113.802 210.543 113.939 210.174 114.214C209.81 114.489 209.563 114.813 209.435 115.187L207.035 114.846C207.224 114.183 207.537 113.629 207.972 113.184C208.408 112.734 208.941 112.398 209.57 112.176C210.2 111.948 210.896 111.835 211.658 111.835C212.184 111.835 212.707 111.896 213.228 112.019C213.749 112.143 214.225 112.346 214.656 112.63C215.087 112.91 215.432 113.291 215.693 113.774C215.958 114.257 216.09 114.86 216.09 115.585V122.886H213.619V121.387H213.533C213.377 121.69 213.157 121.974 212.873 122.24C212.594 122.5 212.241 122.711 211.815 122.872C211.393 123.028 210.899 123.106 210.33 123.106ZM210.998 121.217C211.514 121.217 211.961 121.115 212.34 120.912C212.719 120.703 213.01 120.429 213.214 120.088C213.422 119.747 213.526 119.375 213.526 118.973V117.687C213.446 117.753 213.309 117.815 213.114 117.872C212.925 117.929 212.712 117.978 212.475 118.021C212.238 118.064 212.004 118.101 211.772 118.135C211.54 118.168 211.339 118.196 211.168 118.22C210.785 118.272 210.442 118.357 210.139 118.475C209.836 118.594 209.596 118.76 209.421 118.973C209.246 119.181 209.158 119.451 209.158 119.782C209.158 120.256 209.331 120.613 209.677 120.855C210.023 121.096 210.463 121.217 210.998 121.217ZM224.123 111.977V113.966H217.852V111.977H224.123ZM219.4 109.363H221.971V119.605C221.971 119.95 222.023 120.216 222.127 120.4C222.236 120.58 222.378 120.703 222.553 120.769C222.729 120.836 222.923 120.869 223.136 120.869C223.297 120.869 223.444 120.857 223.576 120.833C223.713 120.81 223.818 120.788 223.889 120.769L224.322 122.779C224.185 122.827 223.988 122.879 223.732 122.936C223.481 122.992 223.174 123.026 222.809 123.035C222.165 123.054 221.585 122.957 221.069 122.744C220.553 122.526 220.143 122.19 219.84 121.735C219.542 121.281 219.395 120.713 219.4 120.031V109.363ZM226.273 122.886V111.977H228.844V122.886H226.273ZM227.566 110.429C227.159 110.429 226.808 110.294 226.515 110.024C226.221 109.749 226.074 109.42 226.074 109.037C226.074 108.648 226.221 108.319 226.515 108.049C226.808 107.775 227.159 107.637 227.566 107.637C227.978 107.637 228.328 107.775 228.617 108.049C228.91 108.319 229.057 108.648 229.057 109.037C229.057 109.42 228.91 109.749 228.617 110.024C228.328 110.294 227.978 110.429 227.566 110.429ZM236.247 123.099C235.181 123.099 234.258 122.865 233.477 122.396C232.695 121.927 232.089 121.271 231.658 120.429C231.232 119.586 231.019 118.601 231.019 117.474C231.019 116.347 231.232 115.36 231.658 114.512C232.089 113.665 232.695 113.007 233.477 112.538C234.258 112.069 235.181 111.835 236.247 111.835C237.312 111.835 238.235 112.069 239.016 112.538C239.798 113.007 240.401 113.665 240.828 114.512C241.258 115.36 241.474 116.347 241.474 117.474C241.474 118.601 241.258 119.586 240.828 120.429C240.401 121.271 239.798 121.927 239.016 122.396C238.235 122.865 237.312 123.099 236.247 123.099ZM236.261 121.039C236.838 121.039 237.321 120.881 237.71 120.564C238.098 120.242 238.387 119.811 238.576 119.271C238.77 118.731 238.867 118.13 238.867 117.467C238.867 116.799 238.77 116.196 238.576 115.656C238.387 115.111 238.098 114.678 237.71 114.356C237.321 114.034 236.838 113.873 236.261 113.873C235.669 113.873 235.176 114.034 234.783 114.356C234.395 114.678 234.104 115.111 233.91 115.656C233.72 116.196 233.626 116.799 233.626 117.467C233.626 118.13 233.72 118.731 233.91 119.271C234.104 119.811 234.395 120.242 234.783 120.564C235.176 120.881 235.669 121.039 236.261 121.039ZM246.227 116.494V122.886H243.656V111.977H246.113V113.831H246.241C246.492 113.22 246.892 112.734 247.441 112.375C247.995 112.015 248.68 111.835 249.494 111.835C250.247 111.835 250.903 111.996 251.461 112.318C252.025 112.64 252.46 113.106 252.768 113.717C253.081 114.328 253.235 115.069 253.23 115.94V122.886H250.659V116.338C250.659 115.608 250.469 115.038 250.091 114.626C249.717 114.214 249.198 114.008 248.535 114.008C248.085 114.008 247.685 114.108 247.335 114.306C246.989 114.501 246.717 114.782 246.518 115.152C246.324 115.521 246.227 115.968 246.227 116.494ZM264.466 114.86L262.122 115.116C262.056 114.879 261.94 114.657 261.774 114.448C261.613 114.24 261.395 114.072 261.12 113.944C260.846 113.816 260.51 113.752 260.112 113.752C259.577 113.752 259.127 113.868 258.763 114.1C258.403 114.332 258.225 114.633 258.23 115.002C258.225 115.32 258.341 115.578 258.578 115.777C258.819 115.975 259.217 116.139 259.771 116.267L261.632 116.664C262.664 116.887 263.431 117.24 263.933 117.723C264.44 118.206 264.695 118.838 264.7 119.619C264.695 120.305 264.494 120.912 264.096 121.437C263.703 121.958 263.156 122.365 262.456 122.659C261.755 122.952 260.95 123.099 260.041 123.099C258.706 123.099 257.631 122.82 256.816 122.261C256.002 121.698 255.517 120.914 255.361 119.91L257.868 119.669C257.981 120.161 258.223 120.533 258.592 120.784C258.961 121.035 259.442 121.16 260.034 121.16C260.645 121.16 261.135 121.035 261.504 120.784C261.878 120.533 262.065 120.223 262.065 119.853C262.065 119.541 261.944 119.283 261.703 119.079C261.466 118.876 261.097 118.719 260.595 118.61L258.734 118.22C257.688 118.002 256.914 117.635 256.412 117.119C255.91 116.598 255.661 115.94 255.666 115.144C255.661 114.472 255.843 113.89 256.213 113.397C256.587 112.9 257.105 112.517 257.768 112.247C258.436 111.972 259.205 111.835 260.076 111.835C261.355 111.835 262.361 112.107 263.095 112.652C263.834 113.196 264.29 113.932 264.466 114.86ZM271.781 122.886V111.977H274.274V113.795H274.388C274.586 113.165 274.927 112.68 275.41 112.339C275.898 111.993 276.454 111.821 277.079 111.821C277.221 111.821 277.38 111.828 277.555 111.842C277.735 111.851 277.884 111.868 278.003 111.892V114.257C277.894 114.219 277.721 114.186 277.484 114.157C277.252 114.124 277.027 114.108 276.809 114.108C276.341 114.108 275.919 114.209 275.545 114.413C275.176 114.612 274.885 114.889 274.672 115.244C274.459 115.599 274.352 116.009 274.352 116.473V122.886H271.781ZM284.091 123.099C282.997 123.099 282.053 122.872 281.257 122.417C280.466 121.958 279.858 121.309 279.432 120.471C279.006 119.628 278.793 118.636 278.793 117.495C278.793 116.373 279.006 115.388 279.432 114.541C279.863 113.689 280.464 113.026 281.236 112.552C282.008 112.074 282.914 111.835 283.956 111.835C284.628 111.835 285.263 111.944 285.859 112.162C286.461 112.375 286.991 112.706 287.45 113.156C287.914 113.606 288.279 114.179 288.544 114.875C288.809 115.566 288.942 116.39 288.942 117.346V118.135H280V116.402H286.477C286.473 115.909 286.366 115.471 286.158 115.088C285.949 114.699 285.658 114.394 285.284 114.171C284.915 113.949 284.484 113.838 283.992 113.838C283.466 113.838 283.004 113.966 282.607 114.221C282.209 114.472 281.899 114.804 281.676 115.216C281.458 115.623 281.347 116.07 281.342 116.558V118.071C281.342 118.705 281.458 119.25 281.69 119.704C281.922 120.154 282.247 120.5 282.663 120.741C283.08 120.978 283.568 121.096 284.127 121.096C284.501 121.096 284.839 121.044 285.142 120.94C285.445 120.831 285.708 120.672 285.93 120.464C286.153 120.256 286.321 119.998 286.435 119.69L288.835 119.96C288.684 120.594 288.395 121.148 287.969 121.622C287.547 122.091 287.008 122.455 286.35 122.716C285.691 122.971 284.939 123.099 284.091 123.099ZM295.875 123.099C294.786 123.099 293.851 122.86 293.07 122.382C292.294 121.903 291.695 121.243 291.273 120.4C290.857 119.553 290.648 118.577 290.648 117.474C290.648 116.366 290.861 115.388 291.287 114.541C291.714 113.689 292.315 113.026 293.091 112.552C293.873 112.074 294.796 111.835 295.861 111.835C296.747 111.835 297.53 111.998 298.212 112.325C298.899 112.647 299.446 113.104 299.853 113.696C300.26 114.283 300.492 114.969 300.549 115.755H298.091C297.992 115.23 297.755 114.792 297.381 114.441C297.012 114.086 296.517 113.909 295.897 113.909C295.371 113.909 294.91 114.051 294.512 114.335C294.114 114.614 293.804 115.017 293.581 115.542C293.364 116.068 293.255 116.698 293.255 117.431C293.255 118.175 293.364 118.814 293.581 119.349C293.799 119.879 294.105 120.289 294.498 120.578C294.895 120.862 295.362 121.004 295.897 121.004C296.276 121.004 296.614 120.933 296.912 120.791C297.215 120.644 297.469 120.433 297.672 120.159C297.876 119.884 298.016 119.55 298.091 119.157H300.549C300.487 119.929 300.26 120.613 299.867 121.21C299.474 121.802 298.939 122.266 298.262 122.602C297.585 122.933 296.789 123.099 295.875 123.099ZM307.418 123.099C306.353 123.099 305.43 122.865 304.649 122.396C303.867 121.927 303.261 121.271 302.83 120.429C302.404 119.586 302.191 118.601 302.191 117.474C302.191 116.347 302.404 115.36 302.83 114.512C303.261 113.665 303.867 113.007 304.649 112.538C305.43 112.069 306.353 111.835 307.418 111.835C308.484 111.835 309.407 112.069 310.188 112.538C310.97 113.007 311.573 113.665 311.999 114.512C312.43 115.36 312.646 116.347 312.646 117.474C312.646 118.601 312.43 119.586 311.999 120.429C311.573 121.271 310.97 121.927 310.188 122.396C309.407 122.865 308.484 123.099 307.418 123.099ZM307.433 121.039C308.01 121.039 308.493 120.881 308.881 120.564C309.27 120.242 309.559 119.811 309.748 119.271C309.942 118.731 310.039 118.13 310.039 117.467C310.039 116.799 309.942 116.196 309.748 115.656C309.559 115.111 309.27 114.678 308.881 114.356C308.493 114.034 308.01 113.873 307.433 113.873C306.841 113.873 306.348 114.034 305.955 114.356C305.567 114.678 305.276 115.111 305.082 115.656C304.892 116.196 304.798 116.799 304.798 117.467C304.798 118.13 304.892 118.731 305.082 119.271C305.276 119.811 305.567 120.242 305.955 120.564C306.348 120.881 306.841 121.039 307.433 121.039ZM314.828 122.886V111.977H317.285V113.831H317.413C317.64 113.206 318.017 112.718 318.542 112.367C319.068 112.012 319.695 111.835 320.424 111.835C321.163 111.835 321.786 112.015 322.292 112.375C322.804 112.73 323.164 113.215 323.372 113.831H323.486C323.727 113.224 324.134 112.742 324.707 112.382C325.285 112.017 325.969 111.835 326.76 111.835C327.763 111.835 328.583 112.152 329.217 112.787C329.852 113.421 330.169 114.347 330.169 115.564V122.886H327.591V115.961C327.591 115.284 327.411 114.789 327.051 114.477C326.691 114.16 326.251 114.001 325.73 114.001C325.11 114.001 324.624 114.195 324.274 114.583C323.928 114.967 323.755 115.466 323.755 116.082V122.886H321.234V115.855C321.234 115.291 321.064 114.841 320.723 114.505C320.387 114.169 319.946 114.001 319.402 114.001C319.032 114.001 318.696 114.096 318.393 114.285C318.09 114.47 317.849 114.733 317.669 115.073C317.489 115.41 317.399 115.803 317.399 116.252V122.886H314.828ZM332.777 122.886V111.977H335.234V113.831H335.362C335.59 113.206 335.966 112.718 336.492 112.367C337.017 112.012 337.645 111.835 338.374 111.835C339.112 111.835 339.735 112.015 340.242 112.375C340.753 112.73 341.113 113.215 341.321 113.831H341.435C341.676 113.224 342.083 112.742 342.656 112.382C343.234 112.017 343.918 111.835 344.709 111.835C345.713 111.835 346.532 112.152 347.166 112.787C347.801 113.421 348.118 114.347 348.118 115.564V122.886H345.54V115.961C345.54 115.284 345.36 114.789 345 114.477C344.64 114.16 344.2 114.001 343.679 114.001C343.059 114.001 342.573 114.195 342.223 114.583C341.877 114.967 341.705 115.466 341.705 116.082V122.886H339.183V115.855C339.183 115.291 339.013 114.841 338.672 114.505C338.336 114.169 337.895 114.001 337.351 114.001C336.982 114.001 336.645 114.096 336.342 114.285C336.039 114.47 335.798 114.733 335.618 115.073C335.438 115.41 335.348 115.803 335.348 116.252V122.886H332.777ZM355.556 123.099C354.462 123.099 353.517 122.872 352.722 122.417C351.931 121.958 351.323 121.309 350.897 120.471C350.471 119.628 350.258 118.636 350.258 117.495C350.258 116.373 350.471 115.388 350.897 114.541C351.328 113.689 351.929 113.026 352.701 112.552C353.473 112.074 354.379 111.835 355.421 111.835C356.093 111.835 356.728 111.944 357.324 112.162C357.926 112.375 358.456 112.706 358.915 113.156C359.379 113.606 359.744 114.179 360.009 114.875C360.274 115.566 360.407 116.39 360.407 117.346V118.135H351.465V116.402H357.942C357.937 115.909 357.831 115.471 357.623 115.088C357.414 114.699 357.123 114.394 356.749 114.171C356.38 113.949 355.949 113.838 355.456 113.838C354.931 113.838 354.469 113.966 354.071 114.221C353.674 114.472 353.364 114.804 353.141 115.216C352.923 115.623 352.812 116.07 352.807 116.558V118.071C352.807 118.705 352.923 119.25 353.155 119.704C353.387 120.154 353.712 120.5 354.128 120.741C354.545 120.978 355.033 121.096 355.591 121.096C355.965 121.096 356.304 121.044 356.607 120.94C356.91 120.831 357.173 120.672 357.395 120.464C357.618 120.256 357.786 119.998 357.9 119.69L360.3 119.96C360.149 120.594 359.86 121.148 359.434 121.622C359.012 122.091 358.473 122.455 357.814 122.716C357.156 122.971 356.403 123.099 355.556 123.099ZM365.153 116.494V122.886H362.582V111.977H365.039V113.831H365.167C365.418 113.22 365.818 112.734 366.367 112.375C366.921 112.015 367.605 111.835 368.42 111.835C369.173 111.835 369.828 111.996 370.387 112.318C370.951 112.64 371.386 113.106 371.694 113.717C372.006 114.328 372.16 115.069 372.156 115.94V122.886H369.585V116.338C369.585 115.608 369.395 115.038 369.016 114.626C368.642 114.214 368.124 114.008 367.461 114.008C367.011 114.008 366.611 114.108 366.261 114.306C365.915 114.501 365.643 114.782 365.444 115.152C365.25 115.521 365.153 115.968 365.153 116.494ZM378.818 123.078C377.961 123.078 377.194 122.858 376.516 122.417C375.839 121.977 375.304 121.338 374.911 120.5C374.518 119.662 374.322 118.644 374.322 117.446C374.322 116.233 374.521 115.211 374.918 114.377C375.321 113.539 375.863 112.907 376.545 112.481C377.227 112.05 377.987 111.835 378.825 111.835C379.464 111.835 379.989 111.944 380.401 112.162C380.813 112.375 381.14 112.633 381.381 112.936C381.623 113.234 381.81 113.516 381.943 113.781H382.049V108.341H384.627V122.886H382.099V121.167H381.943C381.81 121.432 381.618 121.714 381.367 122.012C381.116 122.306 380.785 122.557 380.373 122.765C379.961 122.974 379.443 123.078 378.818 123.078ZM379.535 120.968C380.079 120.968 380.543 120.822 380.927 120.528C381.31 120.23 381.602 119.815 381.801 119.285C381.999 118.755 382.099 118.137 382.099 117.431C382.099 116.726 381.999 116.113 381.801 115.592C381.606 115.071 381.318 114.666 380.934 114.377C380.555 114.089 380.089 113.944 379.535 113.944C378.962 113.944 378.484 114.093 378.1 114.392C377.717 114.69 377.428 115.102 377.234 115.627C377.04 116.153 376.943 116.754 376.943 117.431C376.943 118.113 377.04 118.722 377.234 119.257C377.433 119.787 377.724 120.206 378.107 120.514C378.496 120.817 378.971 120.968 379.535 120.968ZM390.506 123.106C389.815 123.106 389.192 122.983 388.638 122.737C388.089 122.486 387.653 122.117 387.331 121.629C387.014 121.141 386.856 120.54 386.856 119.825C386.856 119.209 386.969 118.7 387.196 118.298C387.424 117.895 387.734 117.573 388.127 117.332C388.52 117.091 388.963 116.908 389.455 116.785C389.952 116.657 390.466 116.565 390.996 116.508C391.635 116.442 392.154 116.383 392.552 116.331C392.949 116.274 393.238 116.189 393.418 116.075C393.603 115.957 393.695 115.774 393.695 115.528V115.485C393.695 114.95 393.536 114.536 393.219 114.242C392.902 113.949 392.445 113.802 391.848 113.802C391.219 113.802 390.719 113.939 390.35 114.214C389.985 114.489 389.739 114.813 389.611 115.187L387.211 114.846C387.4 114.183 387.713 113.629 388.148 113.184C388.584 112.734 389.116 112.398 389.746 112.176C390.376 111.948 391.072 111.835 391.834 111.835C392.36 111.835 392.883 111.896 393.404 112.019C393.925 112.143 394.401 112.346 394.831 112.63C395.262 112.91 395.608 113.291 395.868 113.774C396.133 114.257 396.266 114.86 396.266 115.585V122.886H393.794V121.387H393.709C393.553 121.69 393.333 121.974 393.049 122.24C392.769 122.5 392.417 122.711 391.991 122.872C391.569 123.028 391.074 123.106 390.506 123.106ZM391.174 121.217C391.69 121.217 392.137 121.115 392.516 120.912C392.895 120.703 393.186 120.429 393.39 120.088C393.598 119.747 393.702 119.375 393.702 118.973V117.687C393.622 117.753 393.484 117.815 393.29 117.872C393.101 117.929 392.888 117.978 392.651 118.021C392.414 118.064 392.18 118.101 391.948 118.135C391.716 118.168 391.515 118.196 391.344 118.22C390.961 118.272 390.617 118.357 390.314 118.475C390.011 118.594 389.772 118.76 389.597 118.973C389.422 119.181 389.334 119.451 389.334 119.782C389.334 120.256 389.507 120.613 389.853 120.855C390.198 121.096 390.639 121.217 391.174 121.217ZM404.299 111.977V113.966H398.027V111.977H404.299ZM399.576 109.363H402.147V119.605C402.147 119.95 402.199 120.216 402.303 120.4C402.412 120.58 402.554 120.703 402.729 120.769C402.904 120.836 403.098 120.869 403.312 120.869C403.473 120.869 403.619 120.857 403.752 120.833C403.889 120.81 403.993 120.788 404.064 120.769L404.498 122.779C404.36 122.827 404.164 122.879 403.908 122.936C403.657 122.992 403.349 123.026 402.985 123.035C402.341 123.054 401.761 122.957 401.245 122.744C400.729 122.526 400.319 122.19 400.016 121.735C399.718 121.281 399.571 120.713 399.576 120.031V109.363ZM406.449 122.886V111.977H409.02V122.886H406.449ZM407.742 110.429C407.334 110.429 406.984 110.294 406.69 110.024C406.397 109.749 406.25 109.42 406.25 109.037C406.25 108.648 406.397 108.319 406.69 108.049C406.984 107.775 407.334 107.637 407.742 107.637C408.153 107.637 408.504 107.775 408.793 108.049C409.086 108.319 409.233 108.648 409.233 109.037C409.233 109.42 409.086 109.749 408.793 110.024C408.504 110.294 408.153 110.429 407.742 110.429ZM416.422 123.099C415.357 123.099 414.434 122.865 413.652 122.396C412.871 121.927 412.265 121.271 411.834 120.429C411.408 119.586 411.195 118.601 411.195 117.474C411.195 116.347 411.408 115.36 411.834 114.512C412.265 113.665 412.871 113.007 413.652 112.538C414.434 112.069 415.357 111.835 416.422 111.835C417.488 111.835 418.411 112.069 419.192 112.538C419.973 113.007 420.577 113.665 421.003 114.512C421.434 115.36 421.65 116.347 421.65 117.474C421.65 118.601 421.434 119.586 421.003 120.429C420.577 121.271 419.973 121.927 419.192 122.396C418.411 122.865 417.488 123.099 416.422 123.099ZM416.437 121.039C417.014 121.039 417.497 120.881 417.885 120.564C418.274 120.242 418.562 119.811 418.752 119.271C418.946 118.731 419.043 118.13 419.043 117.467C419.043 116.799 418.946 116.196 418.752 115.656C418.562 115.111 418.274 114.678 417.885 114.356C417.497 114.034 417.014 113.873 416.437 113.873C415.845 113.873 415.352 114.034 414.959 114.356C414.571 114.678 414.28 115.111 414.086 115.656C413.896 116.196 413.802 116.799 413.802 117.467C413.802 118.13 413.896 118.731 414.086 119.271C414.28 119.811 414.571 120.242 414.959 120.564C415.352 120.881 415.845 121.039 416.437 121.039ZM426.403 116.494V122.886H423.832V111.977H426.289V113.831H426.417C426.668 113.22 427.068 112.734 427.617 112.375C428.171 112.015 428.855 111.835 429.67 111.835C430.423 111.835 431.078 111.996 431.637 112.318C432.201 112.64 432.636 113.106 432.944 113.717C433.256 114.328 433.41 115.069 433.406 115.94V122.886H430.835V116.338C430.835 115.608 430.645 115.038 430.266 114.626C429.892 114.214 429.374 114.008 428.711 114.008C428.261 114.008 427.861 114.108 427.511 114.306C427.165 114.501 426.893 114.782 426.694 115.152C426.5 115.521 426.403 115.968 426.403 116.494ZM444.641 114.86L442.298 115.116C442.231 114.879 442.115 114.657 441.95 114.448C441.789 114.24 441.571 114.072 441.296 113.944C441.022 113.816 440.685 113.752 440.288 113.752C439.753 113.752 439.303 113.868 438.938 114.1C438.578 114.332 438.401 114.633 438.406 115.002C438.401 115.32 438.517 115.578 438.754 115.777C438.995 115.975 439.393 116.139 439.947 116.267L441.808 116.664C442.84 116.887 443.607 117.24 444.109 117.723C444.615 118.206 444.871 118.838 444.876 119.619C444.871 120.305 444.67 120.912 444.272 121.437C443.879 121.958 443.332 122.365 442.631 122.659C441.931 122.952 441.126 123.099 440.217 123.099C438.881 123.099 437.807 122.82 436.992 122.261C436.178 121.698 435.693 120.914 435.536 119.91L438.043 119.669C438.157 120.161 438.399 120.533 438.768 120.784C439.137 121.035 439.618 121.16 440.21 121.16C440.82 121.16 441.31 121.035 441.68 120.784C442.054 120.533 442.241 120.223 442.241 119.853C442.241 119.541 442.12 119.283 441.879 119.079C441.642 118.876 441.273 118.719 440.771 118.61L438.91 118.22C437.863 118.002 437.089 117.635 436.587 117.119C436.086 116.598 435.837 115.94 435.842 115.144C435.837 114.472 436.019 113.89 436.389 113.397C436.763 112.9 437.281 112.517 437.944 112.247C438.612 111.972 439.381 111.835 440.252 111.835C441.531 111.835 442.537 112.107 443.271 112.652C444.009 113.196 444.466 113.932 444.641 114.86Z" fill="#22222A"/>
<rect x="0.5" y="85.386" width="473" height="61" rx="3.5" stroke="#01C9CC"/>
<path d="M233 170.886L236.99 174.886L237 158.886V174.886L241 170.886" stroke="#01C9CC" stroke-linecap="round" stroke-linejoin="round"/>
<rect x="0.5" y="187.386" width="473" height="55" rx="3.5" fill="#ECFFFF"/>
<rect width="40" height="40" transform="translate(69 194.886)" fill="#E3FFFB"/>
<path d="M79.25 210.878L75.5 218.878V223.378L85.5 228.628L98 226.878L101.5 218.878V214.628L92.5 209.128L79.25 210.878Z" fill="white"/>
<path fill-rule="evenodd" clip-rule="evenodd" d="M74.7813 222.507C74.8481 222.387 75.0003 222.343 75.1211 222.41C76.7583 223.316 78.8175 224.489 80.8746 225.661L80.9337 225.695C82.9719 226.856 85.004 228.014 86.6212 228.91C86.742 228.977 86.7856 229.129 86.7187 229.25C86.6518 229.37 86.4997 229.414 86.3789 229.347C84.759 228.45 82.7249 227.291 80.6883 226.13L80.6271 226.095C78.5691 224.923 76.5129 223.751 74.879 222.847C74.7582 222.78 74.7145 222.628 74.7813 222.507Z" fill="black"/>
<path fill-rule="evenodd" clip-rule="evenodd" d="M101.602 218.15C101.728 218.206 101.785 218.354 101.729 218.48C100.965 220.197 100.384 221.514 99.8873 222.64C99.0831 224.462 98.5007 225.781 97.7277 227.482C97.6705 227.608 97.5223 227.663 97.3966 227.606C97.2709 227.549 97.2153 227.401 97.2725 227.275C98.0445 225.577 98.6252 224.261 99.4284 222.441C99.9251 221.316 100.507 219.998 101.272 218.277C101.328 218.151 101.475 218.094 101.602 218.15Z" fill="black"/>
<path fill-rule="evenodd" clip-rule="evenodd" d="M98.9961 226.335C99.0204 226.47 98.9299 226.6 98.794 226.625C93.4768 227.574 90.606 227.948 87.1294 228.4C86.0247 228.544 84.8588 228.695 83.5338 228.876C83.397 228.895 83.271 228.799 83.2523 228.662C83.2337 228.525 83.3294 228.399 83.4663 228.381C84.7955 228.199 85.9636 228.047 87.0694 227.904C90.5432 227.452 93.4014 227.08 98.7061 226.132C98.842 226.108 98.9719 226.199 98.9961 226.335Z" fill="black"/>
<path fill-rule="evenodd" clip-rule="evenodd" d="M75.0313 218.007C75.0981 217.887 75.2503 217.843 75.3711 217.91C77.0083 218.816 79.0675 219.989 81.1246 221.161L81.1837 221.195C83.2219 222.356 85.254 223.514 86.8712 224.41C86.992 224.477 87.0356 224.629 86.9687 224.75C86.9018 224.87 86.7497 224.914 86.6289 224.847C85.009 223.95 82.9749 222.791 80.9383 221.63L80.8771 221.595C78.8191 220.423 76.7629 219.251 75.129 218.347C75.0082 218.28 74.9645 218.128 75.0313 218.007Z" fill="black"/>
<path fill-rule="evenodd" clip-rule="evenodd" d="M91.2813 209.007C91.3481 208.887 91.5003 208.843 91.6211 208.91C93.2583 209.816 95.3175 210.989 97.3746 212.161L97.4337 212.195C99.4719 213.356 101.504 214.514 103.121 215.41C103.242 215.477 103.286 215.629 103.219 215.75C103.152 215.87 103 215.914 102.879 215.847C101.259 214.95 99.2249 213.791 97.1883 212.63L97.1271 212.595C95.0691 211.423 93.0129 210.251 91.379 209.347C91.2582 209.28 91.2145 209.128 91.2813 209.007Z" fill="black"/>
<path fill-rule="evenodd" clip-rule="evenodd" d="M79.6016 210.15C79.7278 210.206 79.7846 210.354 79.7285 210.48C78.9654 212.197 78.384 213.514 77.8873 214.64C77.0831 216.462 76.5007 217.781 75.7277 219.482C75.6705 219.608 75.5223 219.663 75.3966 219.606C75.2709 219.549 75.2153 219.401 75.2725 219.275C76.0445 217.577 76.6252 216.261 77.4284 214.441C77.9251 213.316 78.5069 211.998 79.2716 210.277C79.3277 210.151 79.4754 210.094 79.6016 210.15ZM101.852 213.65C101.978 213.706 102.035 213.854 101.979 213.98C101.215 215.697 100.634 217.014 100.137 218.14C99.3331 219.962 98.7507 221.281 97.9777 222.982C97.9205 223.108 97.7723 223.163 97.6466 223.106C97.5209 223.049 97.4653 222.901 97.5225 222.775C98.2945 221.077 98.8753 219.761 99.6784 217.941C100.175 216.816 100.757 215.498 101.522 213.777C101.578 213.651 101.725 213.594 101.852 213.65Z" fill="black"/>
<path fill-rule="evenodd" clip-rule="evenodd" d="M93.7461 209.085C93.7704 209.22 93.6799 209.35 93.544 209.375C88.2268 210.324 85.356 210.698 81.8794 211.15C80.7747 211.294 79.6088 211.445 78.2838 211.626C78.147 211.645 78.021 211.549 78.0023 211.412C77.9837 211.275 78.0794 211.149 78.2163 211.131C79.5455 210.949 80.7136 210.797 81.8194 210.654C85.2932 210.202 88.1514 209.83 93.4561 208.882C93.592 208.858 93.7219 208.949 93.7461 209.085ZM99.2461 221.835C99.2704 221.97 99.1799 222.1 99.044 222.125C93.7268 223.074 90.856 223.448 87.3794 223.9C86.2747 224.044 85.1088 224.195 83.7838 224.376C83.647 224.395 83.521 224.299 83.5023 224.162C83.4837 224.025 83.5794 223.899 83.7163 223.881C85.0455 223.699 86.2137 223.547 87.3194 223.404C90.7932 222.952 93.6514 222.58 98.9561 221.632C99.092 221.608 99.2219 221.699 99.2461 221.835Z" fill="black"/>
<path fill-rule="evenodd" clip-rule="evenodd" d="M101.249 213.878C101.387 213.878 101.499 213.989 101.5 214.127C101.502 214.529 101.506 215.168 101.511 215.874C101.52 217.146 101.53 218.639 101.53 219.365C101.53 219.503 101.418 219.615 101.28 219.615C101.142 219.615 101.03 219.503 101.03 219.365C101.03 218.64 101.02 217.152 101.011 215.881C101.006 215.174 101.002 214.534 101 214.13C100.999 213.992 101.111 213.879 101.249 213.878ZM75.9685 217.892C76.1066 217.892 76.2191 218.003 76.2197 218.141C76.2216 218.543 76.226 219.181 76.2308 219.887C76.2396 221.16 76.2498 222.652 76.2498 223.378C76.2498 223.516 76.1379 223.628 75.9998 223.628C75.8617 223.628 75.7498 223.516 75.7498 223.378C75.7498 222.654 75.7396 221.166 75.7309 219.895C75.726 219.188 75.7216 218.548 75.7197 218.143C75.7191 218.005 75.8305 217.893 75.9685 217.892ZM97.9685 221.642C98.1066 221.642 98.2191 221.753 98.2197 221.891C98.2216 222.293 98.226 222.931 98.2309 223.638C98.2396 224.91 98.2498 226.402 98.2498 227.128C98.2498 227.266 98.1379 227.378 97.9998 227.378C97.8617 227.378 97.7498 227.266 97.7498 227.128C97.7498 226.404 97.7396 224.916 97.7309 223.645C97.726 222.938 97.7217 222.298 97.7197 221.893C97.7191 221.755 97.8305 221.643 97.9685 221.642ZM85.2186 223.392C85.3566 223.392 85.4691 223.503 85.4697 223.641C85.4716 224.043 85.476 224.681 85.4809 225.387C85.4896 226.66 85.4998 228.152 85.4998 228.878C85.4998 229.016 85.3879 229.128 85.2498 229.128C85.1117 229.128 84.9998 229.016 84.9998 228.878C84.9998 228.154 84.9896 226.666 84.9809 225.395C84.976 224.688 84.9717 224.048 84.9697 223.643C84.9691 223.505 85.0805 223.393 85.2186 223.392Z" fill="black"/>
<path fill-rule="evenodd" clip-rule="evenodd" d="M97.566 221.994C97.6993 222.03 97.7779 222.168 97.7417 222.301L96.4917 226.897C96.4554 227.031 96.318 227.109 96.1848 227.073C96.0516 227.037 95.9729 226.899 96.0092 226.766L97.2592 222.17C97.2954 222.036 97.4328 221.958 97.566 221.994ZM96.066 222.244C96.1993 222.28 96.2779 222.418 96.2417 222.551L94.9916 227.147C94.9554 227.281 94.818 227.359 94.6848 227.323C94.5516 227.287 94.4729 227.149 94.5092 227.016L95.7592 222.42C95.7954 222.286 95.9328 222.208 96.066 222.244ZM94.566 222.493C94.6993 222.53 94.7779 222.667 94.7417 222.8L93.4916 227.397C93.4554 227.53 93.318 227.609 93.1848 227.573C93.0516 227.536 92.9729 227.399 93.0092 227.266L94.2592 222.669C94.2954 222.536 94.4328 222.457 94.566 222.493ZM92.816 222.743C92.9493 222.78 93.0279 222.917 92.9917 223.05L91.8096 227.397C91.7734 227.53 91.636 227.609 91.5028 227.573C91.3696 227.536 91.2909 227.399 91.3272 227.266L92.5092 222.919C92.5454 222.786 92.6828 222.707 92.816 222.743ZM91.316 222.993C91.4492 223.029 91.5279 223.166 91.4917 223.3L90.3095 227.647C90.2733 227.78 90.1359 227.859 90.0027 227.823C89.8694 227.786 89.7908 227.649 89.827 227.516L91.0092 223.168C91.0454 223.035 91.1828 222.957 91.316 222.993ZM89.7481 223.243C89.8813 223.279 89.9599 223.416 89.9237 223.55L88.7417 227.896C88.7054 228.03 88.568 228.108 88.4348 228.072C88.3016 228.036 88.2229 227.898 88.2592 227.765L89.4412 223.419C89.4774 223.285 89.6148 223.207 89.7481 223.243ZM88.2482 223.492C88.3814 223.529 88.46 223.666 88.4238 223.799L87.2416 228.146C87.2054 228.28 87.068 228.358 86.9348 228.322C86.8016 228.286 86.7229 228.148 86.7592 228.015L87.9413 223.668C87.9776 223.535 88.1149 223.456 88.2482 223.492ZM86.8162 223.492C86.9494 223.529 87.028 223.666 86.9918 223.799L85.7418 228.396C85.7055 228.529 85.5682 228.608 85.4349 228.571C85.3017 228.535 85.2231 228.398 85.2593 228.265L86.5093 223.668C86.5455 223.535 86.6829 223.456 86.8162 223.492Z" fill="black"/>
<path fill-rule="evenodd" clip-rule="evenodd" d="M100.287 217.108C100.426 217.11 100.536 217.223 100.535 217.361L100.5 221.131C100.499 221.269 100.386 221.38 100.248 221.378C100.11 221.377 99.9987 221.264 100 221.126L100.035 217.356C100.036 217.218 100.149 217.107 100.287 217.108ZM99.25 219.628C99.3881 219.628 99.5 219.74 99.5 219.878V223.122C99.5 223.26 99.3881 223.372 99.25 223.372C99.1119 223.372 99 223.26 99 223.122V219.878C99 219.74 99.1119 219.628 99.25 219.628Z" fill="black"/>
<path fill-rule="evenodd" clip-rule="evenodd" d="M77.0654 219.137C77.1986 219.173 77.2772 219.311 77.2409 219.444L76.2408 223.119C76.2046 223.252 76.0672 223.331 75.9339 223.295C75.8007 223.259 75.7221 223.121 75.7584 222.988L76.7585 219.313C76.7947 219.18 76.9321 219.101 77.0654 219.137ZM78.3141 219.637C78.4475 219.672 78.5268 219.809 78.4913 219.943L77.4245 223.943C77.3889 224.076 77.2519 224.156 77.1185 224.12C76.9851 224.084 76.9058 223.947 76.9414 223.814L78.0081 219.814C78.0437 219.681 78.1807 219.601 78.3141 219.637ZM79.5626 220.386C79.6962 220.421 79.7764 220.558 79.7417 220.691L78.7755 224.41C78.7408 224.544 78.6043 224.624 78.4707 224.589C78.3371 224.555 78.2569 224.418 78.2916 224.284L79.2577 220.566C79.2924 220.432 79.4289 220.352 79.5626 220.386ZM80.8128 221.137C80.9463 221.171 81.0263 221.308 80.9914 221.442L79.9916 225.269C79.9567 225.402 79.8201 225.482 79.6865 225.447C79.5529 225.412 79.4729 225.276 79.5078 225.142L80.5077 221.315C80.5426 221.182 80.6792 221.102 80.8128 221.137ZM82.3133 221.887C82.4468 221.922 82.5265 222.059 82.4913 222.192L81.4364 226.192C81.4012 226.326 81.2644 226.405 81.1309 226.37C80.9974 226.335 80.9177 226.198 80.9529 226.065L82.0078 222.065C82.043 221.931 82.1798 221.851 82.3133 221.887ZM83.5652 222.729C83.6984 222.765 83.7771 222.902 83.7408 223.036L82.678 226.944C82.6418 227.077 82.5044 227.156 82.3712 227.12C82.2379 227.083 82.1593 226.946 82.1955 226.813L83.2583 222.904C83.2946 222.771 83.4319 222.693 83.5652 222.729ZM84.8141 223.387C84.9475 223.422 85.0268 223.559 84.9913 223.693L83.9409 227.631C83.9053 227.765 83.7683 227.844 83.6349 227.808C83.5015 227.773 83.4222 227.636 83.4578 227.502L84.5081 223.564C84.5437 223.431 84.6807 223.351 84.8141 223.387Z" fill="black"/>
<path d="M79 203.378L75.5 211.128L79.25 212.878L85.25 216.628L98 214.378L99.75 210.628L101.25 207.128L91.75 201.878L79 203.378Z" fill="#5FB34E"/>
<path fill-rule="evenodd" clip-rule="evenodd" d="M74.7813 210.507C74.8481 210.387 75.0003 210.343 75.1211 210.41C76.7583 211.316 78.8175 212.489 80.8746 213.661L80.9337 213.695C82.9719 214.856 85.004 216.014 86.6212 216.91C86.742 216.977 86.7856 217.129 86.7187 217.25C86.6518 217.37 86.4997 217.414 86.3789 217.347C84.759 216.45 82.7249 215.291 80.6883 214.13L80.6271 214.095C78.5691 212.923 76.5129 211.751 74.879 210.847C74.7582 210.78 74.7145 210.628 74.7813 210.507Z" fill="black"/>
<path fill-rule="evenodd" clip-rule="evenodd" d="M91.0313 201.507C91.0981 201.387 91.2503 201.343 91.3711 201.41C93.0083 202.316 95.0675 203.489 97.1246 204.661L97.1837 204.695C99.2219 205.856 101.254 207.014 102.871 207.91C102.992 207.977 103.036 208.129 102.969 208.25C102.902 208.37 102.75 208.414 102.629 208.347C101.009 207.45 98.9749 206.291 96.9383 205.13L96.8771 205.095C94.8191 203.923 92.7629 202.751 91.129 201.847C91.0082 201.78 90.9645 201.628 91.0313 201.507Z" fill="black"/>
<path fill-rule="evenodd" clip-rule="evenodd" d="M79.3516 202.65C79.4778 202.706 79.5346 202.854 79.4785 202.98C78.4797 205.227 77.8556 206.725 77.3247 208.005C77.2979 208.07 77.2713 208.135 77.2448 208.198C76.7488 209.395 76.3229 210.422 75.7277 211.732C75.6705 211.858 75.5223 211.913 75.3966 211.856C75.2709 211.799 75.2153 211.651 75.2725 211.525C75.8642 210.223 76.2872 209.203 76.7836 208.005C76.8098 207.942 76.8362 207.878 76.8629 207.814C77.3945 206.532 78.0204 205.03 79.0216 202.777C79.0777 202.651 79.2254 202.594 79.3516 202.65ZM101.602 206.15C101.728 206.206 101.785 206.354 101.729 206.48C100.965 208.197 100.384 209.514 99.8873 210.64C99.0831 212.462 98.5007 213.781 97.7277 215.482C97.6705 215.608 97.5223 215.663 97.3966 215.606C97.2709 215.549 97.2153 215.401 97.2725 215.275C98.0445 213.577 98.6253 212.261 99.4284 210.441C99.9251 209.316 100.507 207.998 101.272 206.277C101.328 206.151 101.475 206.094 101.602 206.15Z" fill="black"/>
<path fill-rule="evenodd" clip-rule="evenodd" d="M93.4961 201.584C93.5204 201.72 93.4299 201.85 93.294 201.875C87.9768 202.824 85.106 203.198 81.6294 203.65C80.5247 203.794 79.3588 203.945 78.0338 204.126C77.897 204.145 77.771 204.049 77.7523 203.912C77.7337 203.775 77.8294 203.649 77.9663 203.631C79.2955 203.449 80.4636 203.297 81.5694 203.154C85.0432 202.702 87.9014 202.33 93.2061 201.382C93.342 201.358 93.4719 201.449 93.4961 201.584ZM98.9961 214.334C99.0204 214.47 98.9299 214.6 98.794 214.625C93.4768 215.574 90.606 215.948 87.1294 216.4C86.0247 216.544 84.8588 216.695 83.5338 216.876C83.397 216.895 83.271 216.799 83.2523 216.662C83.2337 216.525 83.3294 216.399 83.4663 216.381C84.7955 216.199 85.9637 216.047 87.0694 215.904C90.5432 215.452 93.4014 215.08 98.7061 214.132C98.842 214.108 98.9719 214.199 98.9961 214.334Z" fill="black"/>
<path fill-rule="evenodd" clip-rule="evenodd" d="M101.25 208.378C101.388 208.378 101.5 208.49 101.5 208.628V211.128C101.5 211.266 101.388 211.378 101.25 211.378C101.112 211.378 101 211.266 101 211.128V208.628C101 208.49 101.112 208.378 101.25 208.378ZM76 210.878C76.1381 210.878 76.25 210.99 76.25 211.128V214.128C76.25 214.266 76.1381 214.378 76 214.378C75.8619 214.378 75.75 214.266 75.75 214.128V211.128C75.75 210.99 75.8619 210.878 76 210.878ZM101.25 211.878C101.388 211.878 101.5 211.99 101.5 212.128V214.878C101.5 215.016 101.388 215.128 101.25 215.128C101.112 215.128 101 215.016 101 214.878V212.128C101 211.99 101.112 211.878 101.25 211.878ZM98 214.628C98.1381 214.628 98.25 214.74 98.25 214.878V217.628C98.25 217.766 98.1381 217.878 98 217.878C97.8619 217.878 97.75 217.766 97.75 217.628V214.878C97.75 214.74 97.8619 214.628 98 214.628ZM85.25 215.878C85.3881 215.878 85.5 215.99 85.5 216.128V218.628C85.5 218.766 85.3881 218.878 85.25 218.878C85.1119 218.878 85 218.766 85 218.628V216.128C85 215.99 85.1119 215.878 85.25 215.878ZM76 216.128C76.1381 216.128 76.25 216.24 76.25 216.378V218.628C76.25 218.766 76.1381 218.878 76 218.878C75.8619 218.878 75.75 218.766 75.75 218.628V216.378C75.75 216.24 75.8619 216.128 76 216.128ZM98 219.128C98.1381 219.128 98.25 219.24 98.25 219.378V222.128C98.25 222.266 98.1381 222.378 98 222.378C97.8619 222.378 97.75 222.266 97.75 222.128V219.378C97.75 219.24 97.8619 219.128 98 219.128ZM85.25 220.878C85.3881 220.878 85.5 220.99 85.5 221.128V224.128C85.5 224.266 85.3881 224.378 85.25 224.378C85.1119 224.378 85 224.266 85 224.128V221.128C85 220.99 85.1119 220.878 85.25 220.878Z" fill="black"/>
<path d="M120.758 221.886H117.945L123.066 207.341H126.319L131.447 221.886H128.634L124.749 210.323H124.635L120.758 221.886ZM120.85 216.183H128.52V218.299H120.85V216.183ZM140.202 217.298V210.977H142.773V221.886H140.28V219.947H140.166C139.92 220.558 139.515 221.057 138.952 221.446C138.393 221.834 137.704 222.028 136.885 222.028C136.17 222.028 135.538 221.869 134.989 221.552C134.444 221.23 134.018 220.764 133.71 220.153C133.403 219.537 133.249 218.794 133.249 217.923V210.977H135.82V217.525C135.82 218.216 136.009 218.766 136.388 219.173C136.767 219.58 137.264 219.784 137.879 219.784C138.258 219.784 138.625 219.691 138.98 219.507C139.335 219.322 139.627 219.047 139.854 218.683C140.086 218.314 140.202 217.852 140.202 217.298ZM150.864 210.977V212.966H144.593V210.977H150.864ZM146.141 208.363H148.712V218.605C148.712 218.95 148.764 219.216 148.868 219.4C148.977 219.58 149.119 219.703 149.295 219.769C149.47 219.836 149.664 219.869 149.877 219.869C150.038 219.869 150.185 219.857 150.317 219.833C150.455 219.81 150.559 219.788 150.63 219.769L151.063 221.779C150.926 221.827 150.729 221.879 150.474 221.936C150.223 221.992 149.915 222.026 149.55 222.035C148.906 222.054 148.326 221.957 147.81 221.744C147.294 221.526 146.885 221.19 146.581 220.735C146.283 220.281 146.136 219.713 146.141 219.031V208.363ZM157.656 222.099C156.59 222.099 155.667 221.865 154.886 221.396C154.105 220.927 153.499 220.271 153.068 219.429C152.642 218.586 152.428 217.601 152.428 216.474C152.428 215.347 152.642 214.36 153.068 213.512C153.499 212.665 154.105 212.007 154.886 211.538C155.667 211.069 156.59 210.835 157.656 210.835C158.721 210.835 159.644 211.069 160.426 211.538C161.207 212.007 161.811 212.665 162.237 213.512C162.668 214.36 162.883 215.347 162.883 216.474C162.883 217.601 162.668 218.586 162.237 219.429C161.811 220.271 161.207 220.927 160.426 221.396C159.644 221.865 158.721 222.099 157.656 222.099ZM157.67 220.039C158.248 220.039 158.731 219.881 159.119 219.564C159.507 219.242 159.796 218.811 159.985 218.271C160.179 217.731 160.276 217.13 160.276 216.467C160.276 215.799 160.179 215.196 159.985 214.656C159.796 214.111 159.507 213.678 159.119 213.356C158.731 213.034 158.248 212.873 157.67 212.873C157.078 212.873 156.586 213.034 156.193 213.356C155.804 213.678 155.513 214.111 155.319 214.656C155.13 215.196 155.035 215.799 155.035 216.467C155.035 217.13 155.13 217.731 155.319 218.271C155.513 218.811 155.804 219.242 156.193 219.564C156.586 219.881 157.078 220.039 157.67 220.039ZM173.687 213.86L171.344 214.116C171.277 213.879 171.161 213.657 170.996 213.448C170.835 213.24 170.617 213.072 170.342 212.944C170.068 212.816 169.731 212.752 169.334 212.752C168.799 212.752 168.349 212.868 167.984 213.1C167.624 213.332 167.447 213.633 167.452 214.002C167.447 214.32 167.563 214.578 167.8 214.777C168.041 214.975 168.439 215.139 168.993 215.267L170.854 215.664C171.886 215.887 172.653 216.24 173.155 216.723C173.661 217.206 173.917 217.838 173.922 218.619C173.917 219.305 173.716 219.912 173.318 220.437C172.925 220.958 172.378 221.365 171.677 221.659C170.977 221.952 170.172 222.099 169.263 222.099C167.927 222.099 166.853 221.82 166.038 221.261C165.224 220.698 164.738 219.914 164.582 218.91L167.089 218.669C167.203 219.161 167.444 219.533 167.814 219.784C168.183 220.035 168.664 220.16 169.256 220.16C169.866 220.16 170.356 220.035 170.726 219.784C171.1 219.533 171.287 219.223 171.287 218.853C171.287 218.541 171.166 218.283 170.925 218.079C170.688 217.876 170.318 217.719 169.817 217.61L167.956 217.22C166.909 217.002 166.135 216.635 165.633 216.119C165.131 215.598 164.883 214.94 164.888 214.144C164.883 213.472 165.065 212.89 165.434 212.397C165.809 211.9 166.327 211.517 166.99 211.247C167.657 210.972 168.427 210.835 169.298 210.835C170.577 210.835 171.583 211.107 172.317 211.652C173.055 212.196 173.512 212.932 173.687 213.86ZM181.489 210.977V212.966H175.218V210.977H181.489ZM176.766 208.363H179.337V218.605C179.337 218.95 179.389 219.216 179.493 219.4C179.602 219.58 179.744 219.703 179.92 219.769C180.095 219.836 180.289 219.869 180.502 219.869C180.663 219.869 180.81 219.857 180.942 219.833C181.08 219.81 181.184 219.788 181.255 219.769L181.688 221.779C181.551 221.827 181.354 221.879 181.099 221.936C180.848 221.992 180.54 222.026 180.175 222.035C179.531 222.054 178.951 221.957 178.435 221.744C177.919 221.526 177.51 221.19 177.206 220.735C176.908 220.281 176.761 219.713 176.766 219.031V208.363ZM188.281 222.099C187.215 222.099 186.292 221.865 185.511 221.396C184.73 220.927 184.124 220.271 183.693 219.429C183.267 218.586 183.053 217.601 183.053 216.474C183.053 215.347 183.267 214.36 183.693 213.512C184.124 212.665 184.73 212.007 185.511 211.538C186.292 211.069 187.215 210.835 188.281 210.835C189.346 210.835 190.269 211.069 191.051 211.538C191.832 212.007 192.436 212.665 192.862 213.512C193.293 214.36 193.508 215.347 193.508 216.474C193.508 217.601 193.293 218.586 192.862 219.429C192.436 220.271 191.832 220.927 191.051 221.396C190.269 221.865 189.346 222.099 188.281 222.099ZM188.295 220.039C188.873 220.039 189.356 219.881 189.744 219.564C190.132 219.242 190.421 218.811 190.61 218.271C190.804 217.731 190.901 217.13 190.901 216.467C190.901 215.799 190.804 215.196 190.61 214.656C190.421 214.111 190.132 213.678 189.744 213.356C189.356 213.034 188.873 212.873 188.295 212.873C187.703 212.873 187.211 213.034 186.818 213.356C186.429 213.678 186.138 214.111 185.944 214.656C185.755 215.196 185.66 215.799 185.66 216.467C185.66 217.13 185.755 217.731 185.944 218.271C186.138 218.811 186.429 219.242 186.818 219.564C187.211 219.881 187.703 220.039 188.295 220.039ZM195.69 225.977V210.977H198.219V212.781H198.368C198.5 212.516 198.687 212.234 198.929 211.936C199.17 211.633 199.497 211.375 199.909 211.162C200.321 210.944 200.846 210.835 201.486 210.835C202.328 210.835 203.088 211.05 203.765 211.481C204.447 211.907 204.987 212.539 205.385 213.377C205.787 214.211 205.988 215.233 205.988 216.446C205.988 217.644 205.792 218.662 205.399 219.5C205.006 220.338 204.471 220.977 203.794 221.417C203.117 221.858 202.35 222.078 201.493 222.078C200.868 222.078 200.349 221.974 199.937 221.765C199.525 221.557 199.194 221.306 198.943 221.012C198.697 220.714 198.505 220.432 198.368 220.167H198.261V225.977H195.69ZM198.211 216.431C198.211 217.137 198.311 217.755 198.51 218.285C198.713 218.815 199.005 219.23 199.383 219.528C199.767 219.822 200.231 219.968 200.775 219.968C201.344 219.968 201.819 219.817 202.203 219.514C202.586 219.206 202.875 218.787 203.069 218.257C203.268 217.722 203.368 217.113 203.368 216.431C203.368 215.754 203.271 215.153 203.077 214.627C202.882 214.102 202.594 213.69 202.21 213.392C201.827 213.093 201.348 212.944 200.775 212.944C200.226 212.944 199.76 213.089 199.376 213.377C198.993 213.666 198.702 214.071 198.503 214.592C198.309 215.113 198.211 215.726 198.211 216.431ZM216.29 222.106C215.599 222.106 214.976 221.983 214.422 221.737C213.873 221.486 213.438 221.117 213.116 220.629C212.798 220.141 212.64 219.54 212.64 218.825C212.64 218.209 212.753 217.7 212.981 217.298C213.208 216.895 213.518 216.573 213.911 216.332C214.304 216.091 214.747 215.908 215.239 215.785C215.736 215.657 216.25 215.565 216.78 215.508C217.42 215.442 217.938 215.383 218.336 215.331C218.733 215.274 219.022 215.189 219.202 215.075C219.387 214.957 219.479 214.774 219.479 214.528V214.485C219.479 213.95 219.321 213.536 219.003 213.242C218.686 212.949 218.229 212.802 217.633 212.802C217.003 212.802 216.503 212.939 216.134 213.214C215.769 213.489 215.523 213.813 215.395 214.187L212.995 213.846C213.184 213.183 213.497 212.629 213.932 212.184C214.368 211.734 214.901 211.398 215.53 211.176C216.16 210.948 216.856 210.835 217.618 210.835C218.144 210.835 218.667 210.896 219.188 211.019C219.709 211.143 220.185 211.346 220.616 211.63C221.046 211.91 221.392 212.291 221.653 212.774C221.918 213.257 222.05 213.86 222.05 214.585V221.886H219.579V220.387H219.493C219.337 220.69 219.117 220.974 218.833 221.24C218.554 221.5 218.201 221.711 217.775 221.872C217.353 222.028 216.858 222.106 216.29 222.106ZM216.958 220.217C217.474 220.217 217.921 220.115 218.3 219.912C218.679 219.703 218.97 219.429 219.174 219.088C219.382 218.747 219.486 218.375 219.486 217.973V216.687C219.406 216.753 219.269 216.815 219.074 216.872C218.885 216.929 218.672 216.978 218.435 217.021C218.198 217.064 217.964 217.101 217.732 217.135C217.5 217.168 217.299 217.196 217.128 217.22C216.745 217.272 216.402 217.357 216.099 217.475C215.796 217.594 215.556 217.76 215.381 217.973C215.206 218.181 215.118 218.451 215.118 218.782C215.118 219.256 215.291 219.613 215.637 219.855C215.983 220.096 216.423 220.217 216.958 220.217ZM227.206 215.494V221.886H224.635V210.977H227.093V212.831H227.221C227.472 212.22 227.872 211.734 228.421 211.375C228.975 211.015 229.659 210.835 230.474 210.835C231.226 210.835 231.882 210.996 232.441 211.318C233.004 211.64 233.44 212.106 233.748 212.717C234.06 213.328 234.214 214.069 234.209 214.94V221.886H231.638V215.338C231.638 214.608 231.449 214.038 231.07 213.626C230.696 213.214 230.178 213.008 229.515 213.008C229.065 213.008 228.665 213.108 228.314 213.306C227.969 213.501 227.697 213.782 227.498 214.152C227.304 214.521 227.206 214.968 227.206 215.494ZM240.871 222.078C240.014 222.078 239.247 221.858 238.57 221.417C237.893 220.977 237.358 220.338 236.965 219.5C236.572 218.662 236.376 217.644 236.376 216.446C236.376 215.233 236.574 214.211 236.972 213.377C237.375 212.539 237.917 211.907 238.599 211.481C239.28 211.05 240.04 210.835 240.878 210.835C241.518 210.835 242.043 210.944 242.455 211.162C242.867 211.375 243.194 211.633 243.435 211.936C243.677 212.234 243.864 212.516 243.996 212.781H244.103V207.341H246.681V221.886H244.153V220.167H243.996C243.864 220.432 243.672 220.714 243.421 221.012C243.17 221.306 242.839 221.557 242.427 221.765C242.015 221.974 241.496 222.078 240.871 222.078ZM241.589 219.968C242.133 219.968 242.597 219.822 242.981 219.528C243.364 219.23 243.655 218.815 243.854 218.285C244.053 217.755 244.153 217.137 244.153 216.431C244.153 215.726 244.053 215.113 243.854 214.592C243.66 214.071 243.371 213.666 242.988 213.377C242.609 213.089 242.143 212.944 241.589 212.944C241.016 212.944 240.537 213.093 240.154 213.392C239.77 213.69 239.482 214.102 239.287 214.627C239.093 215.153 238.996 215.754 238.996 216.431C238.996 217.113 239.093 217.722 239.287 218.257C239.486 218.787 239.778 219.206 240.161 219.514C240.549 219.817 241.025 219.968 241.589 219.968ZM263.004 213.86L260.66 214.116C260.594 213.879 260.478 213.657 260.312 213.448C260.151 213.24 259.933 213.072 259.659 212.944C259.384 212.816 259.048 212.752 258.65 212.752C258.115 212.752 257.665 212.868 257.301 213.1C256.941 213.332 256.763 213.633 256.768 214.002C256.763 214.32 256.879 214.578 257.116 214.777C257.357 214.975 257.755 215.139 258.309 215.267L260.17 215.664C261.202 215.887 261.969 216.24 262.471 216.723C262.978 217.206 263.233 217.838 263.238 218.619C263.233 219.305 263.032 219.912 262.634 220.437C262.241 220.958 261.695 221.365 260.994 221.659C260.293 221.952 259.488 222.099 258.579 222.099C257.244 222.099 256.169 221.82 255.355 221.261C254.54 220.698 254.055 219.914 253.899 218.91L256.406 218.669C256.519 219.161 256.761 219.533 257.13 219.784C257.499 220.035 257.98 220.16 258.572 220.16C259.183 220.16 259.673 220.035 260.042 219.784C260.416 219.533 260.603 219.223 260.603 218.853C260.603 218.541 260.482 218.283 260.241 218.079C260.004 217.876 259.635 217.719 259.133 217.61L257.272 217.22C256.226 217.002 255.452 216.635 254.95 216.119C254.448 215.598 254.199 214.94 254.204 214.144C254.199 213.472 254.382 212.89 254.751 212.397C255.125 211.9 255.643 211.517 256.306 211.247C256.974 210.972 257.743 210.835 258.615 210.835C259.893 210.835 260.899 211.107 261.633 211.652C262.372 212.196 262.829 212.932 263.004 213.86ZM270.806 210.977V212.966H264.534V210.977H270.806ZM266.083 208.363H268.654V218.605C268.654 218.95 268.706 219.216 268.81 219.4C268.919 219.58 269.061 219.703 269.236 219.769C269.411 219.836 269.605 219.869 269.818 219.869C269.979 219.869 270.126 219.857 270.259 219.833C270.396 219.81 270.5 219.788 270.571 219.769L271.004 221.779C270.867 221.827 270.671 221.879 270.415 221.936C270.164 221.992 269.856 222.026 269.492 222.035C268.848 222.054 268.268 221.957 267.752 221.744C267.235 221.526 266.826 221.19 266.523 220.735C266.225 220.281 266.078 219.713 266.083 219.031V208.363ZM276.095 222.106C275.404 222.106 274.781 221.983 274.227 221.737C273.678 221.486 273.242 221.117 272.92 220.629C272.603 220.141 272.444 219.54 272.444 218.825C272.444 218.209 272.558 217.7 272.785 217.298C273.013 216.895 273.323 216.573 273.716 216.332C274.109 216.091 274.551 215.908 275.044 215.785C275.541 215.657 276.055 215.565 276.585 215.508C277.224 215.442 277.743 215.383 278.14 215.331C278.538 215.274 278.827 215.189 279.007 215.075C279.192 214.957 279.284 214.774 279.284 214.528V214.485C279.284 213.95 279.125 213.536 278.808 213.242C278.491 212.949 278.034 212.802 277.437 212.802C276.808 212.802 276.308 212.939 275.939 213.214C275.574 213.489 275.328 213.813 275.2 214.187L272.8 213.846C272.989 213.183 273.301 212.629 273.737 212.184C274.173 211.734 274.705 211.398 275.335 211.176C275.965 210.948 276.661 210.835 277.423 210.835C277.949 210.835 278.472 210.896 278.993 211.019C279.514 211.143 279.989 211.346 280.42 211.63C280.851 211.91 281.197 212.291 281.457 212.774C281.722 213.257 281.855 213.86 281.855 214.585V221.886H279.383V220.387H279.298C279.142 220.69 278.922 220.974 278.638 221.24C278.358 221.5 278.006 221.711 277.579 221.872C277.158 222.028 276.663 222.106 276.095 222.106ZM276.763 220.217C277.279 220.217 277.726 220.115 278.105 219.912C278.484 219.703 278.775 219.429 278.979 219.088C279.187 218.747 279.291 218.375 279.291 217.973V216.687C279.211 216.753 279.073 216.815 278.879 216.872C278.69 216.929 278.477 216.978 278.24 217.021C278.003 217.064 277.769 217.101 277.537 217.135C277.305 217.168 277.104 217.196 276.933 217.22C276.55 217.272 276.206 217.357 275.903 217.475C275.6 217.594 275.361 217.76 275.186 217.973C275.011 218.181 274.923 218.451 274.923 218.782C274.923 219.256 275.096 219.613 275.442 219.855C275.787 220.096 276.228 220.217 276.763 220.217ZM284.44 221.886V210.977H286.933V212.795H287.047C287.246 212.165 287.586 211.68 288.069 211.339C288.557 210.993 289.113 210.821 289.738 210.821C289.881 210.821 290.039 210.828 290.214 210.842C290.394 210.851 290.543 210.868 290.662 210.892V213.257C290.553 213.219 290.38 213.186 290.143 213.157C289.911 213.124 289.686 213.108 289.469 213.108C289 213.108 288.578 213.209 288.204 213.413C287.835 213.612 287.544 213.889 287.331 214.244C287.118 214.599 287.011 215.009 287.011 215.473V221.886H284.44ZM298.403 210.977V212.966H292.132V210.977H298.403ZM293.68 208.363H296.251V218.605C296.251 218.95 296.303 219.216 296.407 219.4C296.516 219.58 296.658 219.703 296.834 219.769C297.009 219.836 297.203 219.869 297.416 219.869C297.577 219.869 297.724 219.857 297.856 219.833C297.994 219.81 298.098 219.788 298.169 219.769L298.602 221.779C298.465 221.827 298.268 221.879 298.013 221.936C297.762 221.992 297.454 222.026 297.089 222.035C296.445 222.054 295.865 221.957 295.349 221.744C294.833 221.526 294.424 221.19 294.121 220.735C293.822 220.281 293.675 219.713 293.68 219.031V208.363ZM307.766 221.886L304.683 210.977H307.304L309.222 218.647H309.321L311.281 210.977H313.874L315.834 218.605H315.941L317.83 210.977H320.458L317.368 221.886H314.691L312.645 214.514H312.496L310.45 221.886H307.766ZM326.699 222.099C325.633 222.099 324.71 221.865 323.929 221.396C323.148 220.927 322.541 220.271 322.111 219.429C321.684 218.586 321.471 217.601 321.471 216.474C321.471 215.347 321.684 214.36 322.111 213.512C322.541 212.665 323.148 212.007 323.929 211.538C324.71 211.069 325.633 210.835 326.699 210.835C327.764 210.835 328.687 211.069 329.469 211.538C330.25 212.007 330.854 212.665 331.28 213.512C331.711 214.36 331.926 215.347 331.926 216.474C331.926 217.601 331.711 218.586 331.28 219.429C330.854 220.271 330.25 220.927 329.469 221.396C328.687 221.865 327.764 222.099 326.699 222.099ZM326.713 220.039C327.291 220.039 327.773 219.881 328.162 219.564C328.55 219.242 328.839 218.811 329.028 218.271C329.222 217.731 329.319 217.13 329.319 216.467C329.319 215.799 329.222 215.196 329.028 214.656C328.839 214.111 328.55 213.678 328.162 213.356C327.773 213.034 327.291 212.873 326.713 212.873C326.121 212.873 325.629 213.034 325.236 213.356C324.847 213.678 324.556 214.111 324.362 214.656C324.173 215.196 324.078 215.799 324.078 216.467C324.078 217.13 324.173 217.731 324.362 218.271C324.556 218.811 324.847 219.242 325.236 219.564C325.629 219.881 326.121 220.039 326.713 220.039ZM334.108 221.886V210.977H336.601V212.795H336.715C336.914 212.165 337.254 211.68 337.737 211.339C338.225 210.993 338.781 210.821 339.406 210.821C339.548 210.821 339.707 210.828 339.882 210.842C340.062 210.851 340.211 210.868 340.33 210.892V213.257C340.221 213.219 340.048 213.186 339.811 213.157C339.579 213.124 339.354 213.108 339.137 213.108C338.668 213.108 338.246 213.209 337.872 213.413C337.503 213.612 337.212 213.889 336.999 214.244C336.786 214.599 336.679 215.009 336.679 215.473V221.886H334.108ZM344.382 218.463L344.374 215.359H344.786L348.707 210.977H351.711L346.889 216.346H346.356L344.382 218.463ZM342.038 221.886V207.341H344.609V221.886H342.038ZM348.884 221.886L345.333 216.921L347.066 215.11L351.96 221.886H348.884ZM355.996 207.341V221.886H353.425V207.341H355.996ZM363.398 222.099C362.333 222.099 361.409 221.865 360.628 221.396C359.847 220.927 359.241 220.271 358.81 219.429C358.384 218.586 358.171 217.601 358.171 216.474C358.171 215.347 358.384 214.36 358.81 213.512C359.241 212.665 359.847 212.007 360.628 211.538C361.409 211.069 362.333 210.835 363.398 210.835C364.463 210.835 365.387 211.069 366.168 211.538C366.949 212.007 367.553 212.665 367.979 213.512C368.41 214.36 368.625 215.347 368.625 216.474C368.625 217.601 368.41 218.586 367.979 219.429C367.553 220.271 366.949 220.927 366.168 221.396C365.387 221.865 364.463 222.099 363.398 222.099ZM363.412 220.039C363.99 220.039 364.473 219.881 364.861 219.564C365.249 219.242 365.538 218.811 365.727 218.271C365.922 217.731 366.019 217.13 366.019 216.467C366.019 215.799 365.922 215.196 365.727 214.656C365.538 214.111 365.249 213.678 364.861 213.356C364.473 213.034 363.99 212.873 363.412 212.873C362.82 212.873 362.328 213.034 361.935 213.356C361.547 213.678 361.255 214.111 361.061 214.656C360.872 215.196 360.777 215.799 360.777 216.467C360.777 217.13 360.872 217.731 361.061 218.271C361.255 218.811 361.547 219.242 361.935 219.564C362.328 219.881 362.82 220.039 363.412 220.039ZM373.947 222.106C373.255 222.106 372.633 221.983 372.079 221.737C371.529 221.486 371.094 221.117 370.772 220.629C370.455 220.141 370.296 219.54 370.296 218.825C370.296 218.209 370.41 217.7 370.637 217.298C370.864 216.895 371.174 216.573 371.567 216.332C371.96 216.091 372.403 215.908 372.895 215.785C373.393 215.657 373.906 215.565 374.437 215.508C375.076 215.442 375.594 215.383 375.992 215.331C376.39 215.274 376.679 215.189 376.858 215.075C377.043 214.957 377.135 214.774 377.135 214.528V214.485C377.135 213.95 376.977 213.536 376.66 213.242C376.342 212.949 375.885 212.802 375.289 212.802C374.659 212.802 374.16 212.939 373.79 213.214C373.426 213.489 373.18 213.813 373.052 214.187L370.651 213.846C370.84 213.183 371.153 212.629 371.589 212.184C372.024 211.734 372.557 211.398 373.187 211.176C373.816 210.948 374.512 210.835 375.275 210.835C375.8 210.835 376.323 210.896 376.844 211.019C377.365 211.143 377.841 211.346 378.272 211.63C378.703 211.91 379.048 212.291 379.309 212.774C379.574 213.257 379.706 213.86 379.706 214.585V221.886H377.235V220.387H377.15C376.993 220.69 376.773 220.974 376.489 221.24C376.21 221.5 375.857 221.711 375.431 221.872C375.01 222.028 374.515 222.106 373.947 222.106ZM374.614 220.217C375.13 220.217 375.578 220.115 375.956 219.912C376.335 219.703 376.626 219.429 376.83 219.088C377.038 218.747 377.143 218.375 377.143 217.973V216.687C377.062 216.753 376.925 216.815 376.731 216.872C376.541 216.929 376.328 216.978 376.091 217.021C375.855 217.064 375.62 217.101 375.388 217.135C375.156 217.168 374.955 217.196 374.785 217.22C374.401 217.272 374.058 217.357 373.755 217.475C373.452 217.594 373.213 217.76 373.037 217.973C372.862 218.181 372.775 218.451 372.775 218.782C372.775 219.256 372.948 219.613 373.293 219.855C373.639 220.096 374.079 220.217 374.614 220.217ZM386.34 222.078C385.483 222.078 384.716 221.858 384.039 221.417C383.362 220.977 382.827 220.338 382.434 219.5C382.041 218.662 381.844 217.644 381.844 216.446C381.844 215.233 382.043 214.211 382.441 213.377C382.843 212.539 383.385 211.907 384.067 211.481C384.749 211.05 385.509 210.835 386.347 210.835C386.986 210.835 387.512 210.944 387.924 211.162C388.336 211.375 388.662 211.633 388.904 211.936C389.145 212.234 389.332 212.516 389.465 212.781H389.572V207.341H392.15V221.886H389.621V220.167H389.465C389.332 220.432 389.141 220.714 388.89 221.012C388.639 221.306 388.307 221.557 387.895 221.765C387.483 221.974 386.965 222.078 386.34 222.078ZM387.057 219.968C387.602 219.968 388.066 219.822 388.449 219.528C388.833 219.23 389.124 218.815 389.323 218.285C389.522 217.755 389.621 217.137 389.621 216.431C389.621 215.726 389.522 215.113 389.323 214.592C389.129 214.071 388.84 213.666 388.456 213.377C388.078 213.089 387.611 212.944 387.057 212.944C386.484 212.944 386.006 213.093 385.623 213.392C385.239 213.69 384.95 214.102 384.756 214.627C384.562 215.153 384.465 215.754 384.465 216.431C384.465 217.113 384.562 217.722 384.756 218.257C384.955 218.787 385.246 219.206 385.63 219.514C386.018 219.817 386.494 219.968 387.057 219.968ZM403.512 213.86L401.168 214.116C401.102 213.879 400.985 213.657 400.82 213.448C400.659 213.24 400.441 213.072 400.166 212.944C399.892 212.816 399.556 212.752 399.158 212.752C398.623 212.752 398.173 212.868 397.808 213.1C397.449 213.332 397.271 213.633 397.276 214.002C397.271 214.32 397.387 214.578 397.624 214.777C397.865 214.975 398.263 215.139 398.817 215.267L400.678 215.664C401.71 215.887 402.477 216.24 402.979 216.723C403.485 217.206 403.741 217.838 403.746 218.619C403.741 219.305 403.54 219.912 403.142 220.437C402.749 220.958 402.202 221.365 401.502 221.659C400.801 221.952 399.996 222.099 399.087 222.099C397.752 222.099 396.677 221.82 395.862 221.261C395.048 220.698 394.563 219.914 394.406 218.91L396.914 218.669C397.027 219.161 397.269 219.533 397.638 219.784C398.007 220.035 398.488 220.16 399.08 220.16C399.691 220.16 400.181 220.035 400.55 219.784C400.924 219.533 401.111 219.223 401.111 218.853C401.111 218.541 400.99 218.283 400.749 218.079C400.512 217.876 400.143 217.719 399.641 217.61L397.78 217.22C396.734 217.002 395.959 216.635 395.458 216.119C394.956 215.598 394.707 214.94 394.712 214.144C394.707 213.472 394.889 212.89 395.259 212.397C395.633 211.9 396.151 211.517 396.814 211.247C397.482 210.972 398.251 210.835 399.122 210.835C400.401 210.835 401.407 211.107 402.141 211.652C402.879 212.196 403.336 212.932 403.512 213.86Z" fill="#22222A"/>
<rect x="0.5" y="187.386" width="473" height="55" rx="3.5" stroke="#01C9CC"/>
</svg>
