<svg width="914" height="670" viewBox="0 0 914 670" fill="none" xmlns="http://www.w3.org/2000/svg">
    <g clip-path="url(#clip0_107_14)">
        <g opacity="0.05">
            <path fill-rule="evenodd" clip-rule="evenodd"
                d="M828.312 210C828.312 255.808 819.427 300.346 803.908 341.364C801.058 348.896 791.441 350.788 785.712 345.128L671.776 232.564C667.022 227.867 666.226 220.533 669.324 214.612C681.681 190.998 687.859 163.985 687.859 135.737C689.474 43.7166 613.597 -32.1603 519.962 -32.1603C490.234 -32.1603 462.988 -24.7124 439.314 -11.9934C433.486 -8.86263 426.232 -9.61018 421.524 -14.2572L320.099 -114.365C312.951 -121.42 315.137 -133.439 324.512 -137.038C365.753 -152.874 409.568 -161.312 457 -161.312C662.029 -161.312 828.312 4.97094 828.312 210ZM242.083 -92.1736C248.702 -96.8382 257.682 -95.8685 263.408 -90.1424L378.666 25.1155C383.759 30.2084 384.205 38.2623 380.208 44.2539C362.193 71.2594 352.064 103.04 352.064 137.352C352.064 230.987 427.941 306.864 521.576 306.864C555.888 306.864 587.669 296.735 614.674 278.72C620.666 274.723 628.72 275.169 633.813 280.262L758.57 405.019C764.38 410.83 765.281 419.973 760.427 426.603C691.918 520.193 582.658 581.312 457 581.312C251.971 581.312 85.6875 415.029 85.6875 210C85.6875 84.2305 146.916 -25.1119 242.083 -92.1736ZM521.576 242.288C584.538 242.288 634.584 192.242 634.584 129.28C634.584 66.3182 584.538 16.2717 521.576 16.2717C458.614 16.2717 408.568 66.3182 408.568 129.28C408.568 192.242 458.614 242.288 521.576 242.288Z"
                fill="url(#paint0_linear_107_14)" />
        </g>
    </g>
    <defs>
        <linearGradient id="paint0_linear_107_14" x1="254.769" y1="-101.409" x2="659.231" y2="521.409"
            gradientUnits="userSpaceOnUse">
            <stop stop-color="#73DFE7" />
            <stop offset="1" stop-color="#0095F7" />
        </linearGradient>
        <clipPath id="clip0_107_14">
            <rect width="914" height="670" fill="white" />
        </clipPath>
    </defs>
</svg>