<svg width="914" height="666" viewBox="0 0 914 666" fill="none" xmlns="http://www.w3.org/2000/svg">
    <g opacity="0.05" clip-path="url(#clip0_223_2250)">
        <path fill-rule="evenodd" clip-rule="evenodd"
            d="M702.684 241.501C695.472 260.725 683.451 277.547 681.047 277.547L628.155 330.415L522.372 227.082L625.751 123.75L678.642 176.617C695.472 191.036 709.896 210.261 702.684 241.501M435.816 479.402C416.583 472.193 399.754 460.178 399.754 457.775L346.862 404.907L450.241 301.574L553.619 404.907L500.728 457.775C486.303 472.193 464.666 486.612 435.816 479.402M197.805 212.664C205.018 193.439 217.039 176.617 219.443 176.617L272.334 123.75L375.713 227.082L272.334 330.415L217.039 277.547C202.614 263.128 188.189 241.501 197.805 212.664M464.666 -25.2424C483.899 -18.0331 500.728 -6.01773 500.728 -3.61465L553.619 49.2531L450.241 152.586L346.862 49.2531L399.754 -3.61465C414.178 -18.0331 433.412 -34.8547 464.666 -25.2424M755.573 102.124L575.261 -78.1074C572.857 -80.5105 544.007 -109.347 500.732 -123.766C438.224 -145.394 378.12 -128.572 327.633 -78.1074L144.917 102.124C142.513 104.527 113.663 133.364 99.2382 176.619C77.6008 239.099 94.4299 299.176 144.917 349.641L325.229 529.872C327.633 532.275 356.483 561.112 399.758 575.531C416.587 580.337 435.82 585.143 452.649 585.143C495.924 585.143 536.794 565.918 572.857 532.275L753.168 352.044C755.573 349.641 784.422 320.804 798.847 277.549C820.485 215.068 803.656 152.588 755.573 102.124"
            fill="#00ADE4" />
    </g>
    <defs>
        <clipPath id="clip0_223_2250">
            <rect width="914" height="666" fill="white" />
        </clipPath>
    </defs>
</svg>