<svg width="914" height="659" viewBox="0 0 914 659" fill="none" xmlns="http://www.w3.org/2000/svg">
    <g opacity="0.05">
        <path fill-rule="evenodd" clip-rule="evenodd"
            d="M754.809 -53.4002C800.623 -27.4598 828.761 21.2897 828.307 73.9355L826.107 329.131C825.665 380.456 798.103 427.716 753.65 453.374L525.094 585.296C480.641 610.954 425.931 611.181 381.268 585.891L159.191 460.148C113.377 434.207 85.2391 385.458 85.6929 332.812L87.8927 77.6161C88.3351 26.2918 115.897 -20.9686 160.35 -46.6266L388.906 -178.549C433.359 -204.207 488.069 -204.433 532.732 -179.144L754.809 -53.4002ZM674.007 144.743C661.993 190.032 616.046 217.219 571.128 205.892L357.232 148.029C322.004 138.491 285.337 143.376 253.829 161.738C222.326 180.097 199.8 209.709 190.37 245.272C180.929 280.842 185.761 317.975 204.045 349.942C222.329 381.908 251.776 404.698 287.014 414.231C322.242 423.769 358.909 418.883 390.412 400.525C421.92 382.163 444.446 352.551 453.876 316.989L461.335 287.102C462.276 283.329 460.026 279.496 456.272 278.481L420.339 268.756C416.479 267.711 412.513 270.04 411.545 273.921L404.253 303.165C392.089 348.939 345.288 376.195 299.958 363.939C254.763 351.702 227.895 304.726 239.993 259.1C252.008 213.811 297.961 186.601 342.878 197.928L556.768 255.814C591.996 265.352 628.663 260.467 660.171 242.105C691.674 223.746 714.2 194.134 723.63 158.571C733.071 123.001 728.239 85.8675 709.955 53.9012C691.671 21.935 662.224 -0.855577 626.986 -10.3883C591.758 -19.9262 555.091 -15.0406 523.588 3.31813C492.08 21.6801 469.554 51.2913 460.124 86.8543L453.067 110.482C451.918 114.33 454.167 118.369 458.044 119.418L493.978 129.143C497.714 130.154 501.576 128.004 502.685 124.296L509.747 100.677C521.912 54.9035 568.712 27.6472 614.042 39.9036C659.237 52.1411 686.105 99.1172 674.007 144.743Z"
            fill="url(#paint0_linear_159_53608)" />
    </g>
    <defs>
        <linearGradient id="paint0_linear_159_53608" x1="271.344" y1="-144.185" x2="687.607" y2="522.883"
            gradientUnits="userSpaceOnUse">
            <stop stop-color="#62F91F" />
            <stop offset="1" stop-color="#45BD35" />
        </linearGradient>
    </defs>
</svg>