<svg width="818" height="534" viewBox="0 0 818 534" fill="none" xmlns="http://www.w3.org/2000/svg">
    <g style="mix-blend-mode:multiply">
        <path fill-rule="evenodd" clip-rule="evenodd"
            d="M710.613 244.429C703.4 263.654 691.38 280.476 688.975 280.476L636.084 333.343L530.301 230.011L633.68 126.678L686.571 179.546C703.4 193.965 717.825 213.189 710.613 244.429M443.745 482.331C424.511 475.122 407.682 463.107 407.682 460.703L354.791 407.836L458.17 304.503L561.548 407.836L508.657 460.703C494.232 475.122 472.594 489.54 443.745 482.331M205.734 215.592C212.947 196.368 224.967 179.546 227.372 179.546L280.263 126.678L383.642 230.011L280.263 333.343L224.967 280.476C210.542 266.057 196.117 244.429 205.734 215.592M472.594 -22.3137C491.828 -15.1044 508.657 -3.08902 508.657 -0.685939L561.548 52.1818L458.17 155.514L354.791 52.1818L407.682 -0.685939C422.107 -15.1044 441.34 -31.926 472.594 -22.3137M763.501 105.052L583.19 -75.1787C580.786 -77.5818 551.936 -106.419 508.661 -120.837C446.153 -142.465 386.049 -125.643 335.562 -75.1787L152.846 105.052C150.442 107.455 121.592 136.292 107.167 179.548C85.5296 242.028 102.359 302.105 152.846 352.57L333.158 532.801C335.562 535.204 364.412 564.041 407.686 578.459C424.515 583.265 443.749 588.072 460.578 588.072C503.853 588.072 544.723 568.847 580.786 535.204L761.097 354.973C763.501 352.57 792.351 323.733 806.776 280.477C828.414 217.997 811.585 155.517 763.501 105.052"
            fill="#000619" />
    </g>
</svg>