<svg width="50" height="49" viewBox="0 0 50 49" fill="none" xmlns="http://www.w3.org/2000/svg">
    <path
        d="M24.7541 39.1269C24.7541 39.5498 25.0968 39.8926 25.5197 39.8926H37.8597L37.8952 39.8926L37.9307 39.8926H38.2966V39.8848C43.6741 39.674 47.969 35.248 47.969 29.8188C47.969 24.5367 43.9037 20.2041 38.7311 19.7792C38.364 19.749 38.0544 19.4831 37.9776 19.1229C36.5805 12.5706 30.7593 7.65625 23.7902 7.65625C15.7786 7.65625 9.28395 14.1509 9.28395 22.1625C9.28395 22.247 9.22364 22.3198 9.1408 22.3364C5.08565 23.151 2.03125 26.7326 2.03125 31.0276C2.03125 35.9234 6.00003 39.8923 10.8958 39.8925L21.0952 39.8926C21.5181 39.8926 21.8609 39.5498 21.8609 39.1269V36.7254C21.8609 36.3396 21.5729 36.0173 21.1939 35.9446C19.5995 35.6388 18.2347 34.9808 17.3005 34.0392C16.4647 33.197 15.9657 32.1537 15.8107 30.9283C15.757 30.5042 16.1088 30.1545 16.5362 30.1565L18.2416 30.1644C18.6509 30.1663 18.9768 30.4935 19.0701 30.8921C19.4619 32.5658 20.9766 33.6681 23.2207 33.6786C24.0951 33.6827 27.3554 33.2741 27.3659 31.0207C27.3744 29.2185 25.0049 28.535 22.7631 27.9817C22.381 27.8875 21.9916 27.7912 21.6025 27.6868C19.0668 27.0133 16.3846 26.2426 16.3998 22.9985C16.4145 19.8473 19.0668 18.222 21.8609 17.891V14.8691C21.8609 14.4463 22.2036 14.1035 22.6265 14.1035H23.9856C24.4084 14.1035 24.7512 14.4463 24.7512 14.8691V17.9731C26.7662 18.2985 29.4798 19.3184 29.9399 22.4244C30.0031 22.8511 29.6494 23.2085 29.2181 23.2064L27.5045 23.1984C27.1113 23.1966 26.7944 22.8923 26.6769 22.5172C26.2326 21.0984 24.8394 20.2382 22.7993 20.2286C21.4423 20.2223 19.4754 20.9424 19.4677 22.5871C19.4608 24.0776 20.6015 24.5855 24.8586 25.6854L25.4222 25.8293C25.4934 25.8469 25.5693 25.8652 25.6494 25.8845C27.2712 26.2756 30.5987 27.0781 30.5821 30.6455C30.5689 33.4617 28.6451 35.3879 25.4303 35.9611C25.0471 36.0295 24.7541 36.3535 24.7541 36.7427V39.1269Z"
        fill="url(#paint0_linear_792_84699)" />
    <defs>
        <linearGradient id="paint0_linear_792_84699" x1="12.4904" y1="10.2566" x2="26.9947" y2="42.0842"
            gradientUnits="userSpaceOnUse">
            <stop stop-color="#00CFDE" />
            <stop offset="1" stop-color="#05A660" />
        </linearGradient>
    </defs>
</svg>