<svg width="50" height="49" viewBox="0 0 50 49" fill="none" xmlns="http://www.w3.org/2000/svg">
    <path
        d="M16.7803 3.18455C12.4584 2.42248 8.33702 5.3083 7.57495 9.63022L3.68455 31.6937C2.92248 36.0157 5.8083 40.1371 10.1302 40.8991L21.7864 42.9544C21.9543 42.984 22.0799 42.8034 21.9936 42.6563L11.0388 23.9735C10.5847 23.2551 10.591 21.8566 11.1159 21.5234C11.2361 21.4461 11.5933 21.1268 11.5933 21.1268L12.2037 20.4593L12.3039 20.3493C12.8702 19.7269 13.3818 19.1645 14.9985 18.3552L15.3464 18.2341C17.7178 17.4934 19.0364 17.5469 20.3552 17.6004C21.6744 17.6539 22.9939 17.7075 25.3677 16.9661C27.3158 16.3576 29.0875 15.1626 30.0751 14.4133C30.5135 14.0807 31.1608 14.1778 31.4522 14.6446L38.4909 25.9158C38.7098 26.2664 38.6551 26.7198 38.3352 26.9815C37.5749 27.6034 36.0381 28.6996 33.9963 29.3374C31.6248 30.0781 30.2719 30.0459 28.9189 30.0138C27.5654 29.9816 26.2117 29.9495 23.8379 30.6909C21.6846 31.3635 20.8644 32.2579 20.6119 32.6101C20.5662 32.6738 20.5355 32.8084 20.5731 32.8772C21.0754 33.7968 24.1743 39.2502 26.5511 43.4274C26.6984 43.6862 26.9531 43.8654 27.2463 43.9172L32.1937 44.7895C36.5157 45.5516 40.6371 42.6658 41.3991 38.3438L45.2895 16.2803C46.0516 11.9584 43.1658 7.83702 38.8438 7.07495L16.7803 3.18455Z"
        fill="url(#paint0_linear_785_86091)" />
    <path
        d="M25.9899 20.0201C23.9941 20.5408 22.7847 20.5029 21.5755 20.4649C20.3667 20.427 19.1581 20.3891 17.1643 20.9093C15.9956 21.2482 15.3266 21.846 14.6851 22.6085C14.6303 22.6736 14.6238 22.7666 14.6681 22.8393L18.5728 29.2408C18.6372 29.3464 18.7813 29.3704 18.8788 29.2943C19.3736 28.9082 20.827 27.8675 22.683 27.3833C24.932 26.7965 26.2782 26.8096 27.6958 26.8233C28.7936 26.834 29.9342 26.8451 31.5702 26.5782C32.6675 26.3992 33.5633 25.9223 34.0627 25.6049C34.3166 25.4435 34.3711 25.1112 34.2078 24.8585L30.3161 18.8343C30.1341 18.5526 29.7515 18.4738 29.4596 18.639C28.8194 19.0013 27.6167 19.5956 25.9899 20.0201Z"
        fill="url(#paint1_linear_785_86091)" />
    <defs>
        <linearGradient id="paint0_linear_785_86091" x1="13.0907" y1="6.43824" x2="35.8833" y2="41.5358"
            gradientUnits="userSpaceOnUse">
            <stop stop-color="#FFC100" />
            <stop offset="1" stop-color="#E66B35" />
        </linearGradient>
        <linearGradient id="paint1_linear_785_86091" x1="13.0907" y1="6.43824" x2="35.8833" y2="41.5358"
            gradientUnits="userSpaceOnUse">
            <stop stop-color="#FFC100" />
            <stop offset="1" stop-color="#E66B35" />
        </linearGradient>
    </defs>
</svg>