<svg width="50" height="50" viewBox="0 0 50 50" fill="none" xmlns="http://www.w3.org/2000/svg">
    <path
        d="M42.2529 17.8078L31.88 7.29773C30.6516 6.12252 29.1884 5.22764 27.5891 4.67344C24.045 3.4794 20.5181 4.41143 17.6617 7.29773L7.26332 17.8078C6.10203 19.051 5.21773 20.5317 4.67009 22.1501C3.48595 25.7366 4.40695 29.3058 7.26332 32.1921L17.649 42.7022C18.8755 43.8778 20.3375 44.7729 21.9357 45.3265C22.904 45.6577 23.9186 45.8288 24.9406 45.8333C27.432 45.8333 29.8172 44.7681 31.8631 42.7022L42.2445 32.1921C43.4072 30.9494 44.2931 29.4686 44.8419 27.8498C46.0218 24.2634 45.1008 20.6985 42.2445 17.8078H42.2529ZM25.5561 10.3473C26.3406 10.6018 27.0636 11.0203 27.6782 11.5757L30.7468 14.6853L24.7623 20.737L18.778 14.681L21.8635 11.5542C22.6912 10.7209 23.8583 9.83613 25.5645 10.343L25.5561 10.3473ZM10.2852 24.186C10.5376 23.3915 10.9526 22.6598 11.5033 22.0385L14.5719 18.9331L20.5564 24.9892L14.5677 31.0453L11.4821 27.9184C10.6545 27.0852 9.78442 25.9041 10.281 24.1775L10.2852 24.186ZM23.9602 39.6397C23.1747 39.3875 22.4513 38.9687 21.8381 38.4114L18.778 35.3404L24.7623 29.28L30.7468 35.3361L27.6613 38.4629C26.8336 39.2961 25.6706 40.1809 23.9602 39.6741V39.6397ZM39.2395 25.8311C38.9873 26.6247 38.5738 27.3562 38.0257 27.9785L34.9571 31.0453L28.9727 24.9892L34.9571 18.9331L38.0427 22.0556C38.8703 22.8889 39.7403 24.07 39.2437 25.7967"
        fill="#00ABE4" />
</svg>