<svg width="16" height="16" viewBox="0 0 16 16" fill="none" xmlns="http://www.w3.org/2000/svg">
    <path fill-rule="evenodd" clip-rule="evenodd"
        d="M14.37 8C14.37 8.80189 14.2176 9.58155 13.9513 10.2996C13.9024 10.4314 13.7375 10.4646 13.6392 10.3655L11.6845 8.395C11.603 8.31278 11.5893 8.18439 11.6425 8.08075C11.8545 7.66736 11.9605 7.19448 11.9605 6.69998C11.9882 5.08914 10.6865 3.76088 9.08013 3.76088C8.57015 3.76088 8.10272 3.89127 7.69658 4.11389C7.59661 4.16872 7.47216 4.15562 7.3914 4.07429L5.6514 2.32184C5.52881 2.19834 5.56628 1.98794 5.72714 1.92493C6.43463 1.64772 7.18631 1.5 8 1.5C11.5173 1.5 14.37 4.41087 14.37 8ZM4.31303 2.71031C4.4266 2.62865 4.58064 2.64563 4.67885 2.74586L6.65617 4.76349C6.74353 4.85267 6.75117 4.99367 6.6826 5.09855C6.37354 5.57127 6.19978 6.12761 6.19978 6.72826C6.19978 8.36738 7.50148 9.69564 9.10784 9.69564C9.69648 9.69564 10.2417 9.51833 10.705 9.20297C10.8077 9.13303 10.9459 9.1408 11.0333 9.22998L13.1735 11.4139C13.2732 11.5156 13.2887 11.6757 13.2054 11.7917C12.0301 13.4301 10.1557 14.5 8 14.5C4.48266 14.5 1.63 11.5891 1.63 8C1.63 5.79833 2.6804 3.88424 4.31303 2.71031ZM9.10784 8.56522C10.188 8.56522 11.0465 7.68914 11.0465 6.58697C11.0465 5.48477 10.188 4.60869 9.10784 4.60869C8.02768 4.60869 7.16912 5.48477 7.16912 6.58697C7.16912 7.68914 8.02768 8.56522 9.10784 8.56522Z"
        fill="url(#paint0_linear_8_11)" />
    <defs>
        <linearGradient id="paint0_linear_8_11" x1="4.53066" y1="2.54864" x2="11.6682" y2="13.3196"
            gradientUnits="userSpaceOnUse">
            <stop stop-color="#73DFE7" />
            <stop offset="1" stop-color="#0095F7" />
        </linearGradient>
    </defs>
</svg>