<svg width="50" height="49" viewBox="0 0 50 49" fill="none" xmlns="http://www.w3.org/2000/svg">
    <path fill-rule="evenodd" clip-rule="evenodd"
        d="M44.9062 24.5C44.9062 26.9558 44.4299 29.3435 43.5979 31.5425C43.4451 31.9463 42.9296 32.0477 42.6224 31.7443L36.5142 25.7097C36.2594 25.4579 36.2167 25.0647 36.3828 24.7473C37.0453 23.4813 37.3765 22.0331 37.3765 20.5187C37.463 15.5855 33.3952 11.5177 28.3754 11.5177C26.7817 11.5177 25.321 11.917 24.0518 12.5988C23.7394 12.7667 23.3505 12.7266 23.0981 12.4775L17.6606 7.11063C17.2775 6.73243 17.3946 6.08808 17.8973 5.89509C20.1082 5.04615 22.4572 4.59375 25 4.59375C35.9917 4.59375 44.9062 13.5083 44.9062 24.5ZM13.4782 8.30032C13.8331 8.05025 14.3145 8.10224 14.6214 8.40921L20.8005 14.5882C21.0735 14.8613 21.0974 15.2931 20.8831 15.6143C19.9173 17.062 19.3743 18.7658 19.3743 20.6053C19.3743 25.6251 23.4421 29.6929 28.462 29.6929C30.3015 29.6929 32.0052 29.1499 33.453 28.1841C33.7742 27.9699 34.206 27.9937 34.479 28.2668L41.1673 34.9551C41.4788 35.2666 41.5271 35.7567 41.2669 36.1122C37.5941 41.1296 31.7366 44.4062 25 44.4062C14.0083 44.4062 5.09375 35.4917 5.09375 24.5C5.09375 17.7574 8.37623 11.8955 13.4782 8.30032ZM28.462 26.231C31.8374 26.231 34.5204 23.548 34.5204 20.1726C34.5204 16.7971 31.8374 14.1141 28.462 14.1141C25.0865 14.1141 22.4035 16.7971 22.4035 20.1726C22.4035 23.548 25.0865 26.231 28.462 26.231Z"
        fill="url(#paint0_linear_785_84732)" />
    <defs>
        <linearGradient id="paint0_linear_785_84732" x1="14.1583" y1="7.80521" x2="35.8417" y2="41.1948"
            gradientUnits="userSpaceOnUse">
            <stop stop-color="#73DFE7" />
            <stop offset="1" stop-color="#0095F7" />
        </linearGradient>
    </defs>
</svg>