<svg width="16" height="16" viewBox="0 0 16 16" fill="none" xmlns="http://www.w3.org/2000/svg">
    <path d="M3.33334 2H10.6667L12.6667 4.66667V14H3.33334V2Z" stroke="#9293AB" stroke-linecap="round"
        stroke-linejoin="round" />
    <g opacity="0.3">
        <mask id="path-2-inside-1_785_86064" fill="white">
            <path fill-rule="evenodd" clip-rule="evenodd"
                d="M6 5.83331C5.72386 5.83331 5.5 6.05717 5.5 6.33331C5.5 6.60946 5.72386 6.83331 6 6.83331H10C10.2761 6.83331 10.5 6.60946 10.5 6.33331C10.5 6.05717 10.2761 5.83331 10 5.83331H6ZM5.5 8.33331C5.5 8.05717 5.72386 7.83331 6 7.83331H10C10.2761 7.83331 10.5 8.05717 10.5 8.33331C10.5 8.60946 10.2761 8.83331 10 8.83331H6C5.72386 8.83331 5.5 8.60946 5.5 8.33331ZM5.5 10.3333C5.5 10.0572 5.72386 9.83331 6 9.83331H10C10.2761 9.83331 10.5 10.0572 10.5 10.3333C10.5 10.6095 10.2761 10.8333 10 10.8333H6C5.72386 10.8333 5.5 10.6095 5.5 10.3333Z" />
        </mask>
        <path
            d="M6.5 6.33331C6.5 6.60946 6.27614 6.83331 6 6.83331V4.83331C5.17157 4.83331 4.5 5.50489 4.5 6.33331H6.5ZM6 5.83331C6.27614 5.83331 6.5 6.05717 6.5 6.33331H4.5C4.5 7.16174 5.17157 7.83331 6 7.83331V5.83331ZM10 5.83331H6V7.83331H10V5.83331ZM9.5 6.33331C9.5 6.05717 9.72386 5.83331 10 5.83331V7.83331C10.8284 7.83331 11.5 7.16174 11.5 6.33331H9.5ZM10 6.83331C9.72386 6.83331 9.5 6.60946 9.5 6.33331H11.5C11.5 5.50489 10.8284 4.83331 10 4.83331V6.83331ZM6 6.83331H10V4.83331H6V6.83331ZM6 6.83331C5.17157 6.83331 4.5 7.50489 4.5 8.33331H6.5C6.5 8.60946 6.27614 8.83331 6 8.83331V6.83331ZM10 6.83331H6V8.83331H10V6.83331ZM11.5 8.33331C11.5 7.50489 10.8284 6.83331 10 6.83331V8.83331C9.72386 8.83331 9.5 8.60946 9.5 8.33331H11.5ZM10 9.83331C10.8284 9.83331 11.5 9.16174 11.5 8.33331H9.5C9.5 8.05717 9.72386 7.83331 10 7.83331V9.83331ZM6 9.83331H10V7.83331H6V9.83331ZM4.5 8.33331C4.5 9.16174 5.17157 9.83331 6 9.83331V7.83331C6.27614 7.83331 6.5 8.05717 6.5 8.33331H4.5ZM6 8.83331C5.17157 8.83331 4.5 9.50489 4.5 10.3333H6.5C6.5 10.6095 6.27614 10.8333 6 10.8333V8.83331ZM10 8.83331H6V10.8333H10V8.83331ZM11.5 10.3333C11.5 9.50489 10.8284 8.83331 10 8.83331V10.8333C9.72386 10.8333 9.5 10.6095 9.5 10.3333H11.5ZM10 11.8333C10.8284 11.8333 11.5 11.1617 11.5 10.3333H9.5C9.5 10.0572 9.72386 9.83331 10 9.83331V11.8333ZM6 11.8333H10V9.83331H6V11.8333ZM4.5 10.3333C4.5 11.1617 5.17157 11.8333 6 11.8333V9.83331C6.27614 9.83331 6.5 10.0572 6.5 10.3333H4.5Z"
            fill="#9293AB" mask="url(#path-2-inside-1_785_86064)" />
    </g>
</svg>