<svg width="24" height="24" viewBox="0 0 24 24" fill="none" xmlns="http://www.w3.org/2000/svg">
    <path fill-rule="evenodd" clip-rule="evenodd"
        d="M11.3989 1.65242C9.88057 2.5438 6.74065 4.38119 3.81143 4.64369C3.51932 4.66987 3.27443 4.88571 3.24808 5.17779C2.85443 9.54281 3.98769 18.2039 11.4935 21.8852C11.6309 21.9526 11.7901 21.9641 11.9331 21.9096C13.9745 21.1324 17.107 18.7543 18.8609 14.1061L15.459 12.6804C15.4388 12.672 15.4192 12.6626 15.4003 12.6525C14.9527 13.3786 14.2703 13.9677 13.4106 14.2925C11.3444 15.0732 9.03653 14.031 8.25586 11.9648C7.47519 9.89859 8.51737 7.5907 10.5836 6.81003C12.6498 6.02935 14.9577 7.07153 15.7384 9.13774C16.0214 9.88683 16.0648 10.6677 15.9068 11.396C15.9333 11.4035 15.9597 11.4127 15.9857 11.4236L19.2948 12.8104C19.9167 10.6977 20.2598 8.17851 20.1439 5.20409C20.1323 4.9038 19.8928 4.65934 19.596 4.61257C17.8437 4.33647 14.5821 3.2258 12.0174 1.66145C11.8277 1.54577 11.5906 1.53995 11.3989 1.65242ZM11.0653 8.08481C9.70306 8.59947 9.01599 10.121 9.53065 11.4832C10.0453 12.8454 11.5668 13.5324 12.929 13.0177C14.2912 12.5031 14.9783 10.9816 14.4636 9.61937C13.9489 8.25723 12.4274 7.57015 11.0653 8.08481Z"
        fill="url(#paint0_linear_107_1597)" />
    <defs>
        <linearGradient id="paint0_linear_107_1597" x1="5.99017" y1="4.18772" x2="19.6569" y2="16.843"
            gradientUnits="userSpaceOnUse">
            <stop stop-color="#4791FF" />
            <stop offset="1" stop-color="#2E1CF3" />
        </linearGradient>
    </defs>
</svg>