<svg width="17" height="16" viewBox="0 0 17 16" fill="none" xmlns="http://www.w3.org/2000/svg">
    <path fill-rule="evenodd" clip-rule="evenodd"
        d="M13.9283 3.53045C14.7634 3.98455 15.2763 4.83794 15.268 5.75954L15.2279 10.2269C15.2199 11.1253 14.7175 11.9526 13.9072 12.4018L9.74117 14.7111C8.93091 15.1603 7.93369 15.1643 7.1196 14.7216L3.07166 12.5204C2.23659 12.0663 1.7237 11.2129 1.73197 10.2913L1.77207 5.82397C1.78013 4.92552 2.28252 4.09819 3.09278 3.64904L7.25883 1.33968C8.06908 0.89052 9.0663 0.886559 9.8804 1.32926L13.9283 3.53045ZM12.4555 6.99905C12.2365 7.79184 11.399 8.26779 10.5803 8.06948L6.68147 7.05659C6.03935 6.8896 5.37101 6.97512 4.79668 7.29655C4.22246 7.61793 3.81187 8.13633 3.63997 8.75886C3.4679 9.38152 3.55596 10.0316 3.88926 10.5911C4.22253 11.1507 4.75925 11.5497 5.40158 11.7166C6.04367 11.8835 6.71204 11.798 7.28627 11.4766C7.86059 11.1552 8.27118 10.6368 8.44305 10.0143L8.57901 9.49113C8.59618 9.42508 8.55515 9.35797 8.48674 9.34018L7.83176 9.16996C7.76138 9.15167 7.6891 9.19246 7.67149 9.26037L7.53854 9.77231C7.31683 10.5736 6.46374 11.0507 5.6375 10.8362C4.81372 10.622 4.32398 9.79961 4.54447 9.00091C4.7635 8.20813 5.60109 7.73179 6.41984 7.93009L10.3185 8.94341C10.9606 9.11037 11.629 9.02485 12.2033 8.70341C12.7775 8.38204 13.1881 7.86367 13.36 7.24111C13.5321 6.61845 13.444 5.96842 13.1108 5.40882C12.7775 4.84924 12.2407 4.45028 11.5984 4.2834C10.9563 4.11644 10.288 4.20196 9.71373 4.52333C9.1394 4.84477 8.72882 5.36313 8.55695 5.9857L8.42832 6.39928C8.40738 6.46664 8.44835 6.53737 8.51904 6.55572L9.17401 6.72598C9.24212 6.74367 9.31249 6.70602 9.33272 6.64111L9.46145 6.22766C9.68316 5.42638 10.5363 4.94922 11.3625 5.16379C12.1863 5.37802 12.676 6.20036 12.4555 6.99905Z"
        fill="url(#paint0_linear_8_6)" />
    <defs>
        <linearGradient id="paint0_linear_8_6" x1="5.11594" y1="1.94123" x2="12.2699" y2="13.8784"
            gradientUnits="userSpaceOnUse">
            <stop stop-color="#62F91F" />
            <stop offset="1" stop-color="#45BD35" />
        </linearGradient>
    </defs>
</svg>