<svg width="16" height="16" viewBox="0 0 16 16" fill="none" xmlns="http://www.w3.org/2000/svg">
    <path fill-rule="evenodd" clip-rule="evenodd"
        d="M8.09998 14.6C11.6898 14.6 14.6 11.6899 14.6 8.10001C14.6 4.51015 11.6898 1.60001 8.09998 1.60001C4.90574 1.60001 2.24963 3.9041 1.70302 6.94093C2.3961 6.85725 3.20775 6.79994 3.80017 6.80087C4.56663 6.80205 5.69975 6.92423 6.30967 7.05053C6.58087 6.62061 7.09191 6.39236 7.60292 6.48695C7.89918 5.86743 8.08129 5.49473 8.62548 4.71943C9.19185 3.91255 10.3998 3.40353 10.3998 3.59988C10.3998 4.00017 10.3648 4.50401 9.79991 5.39969C9.39418 6.04298 8.87537 6.62065 8.44388 7.04308C8.65281 7.35802 8.72254 7.76068 8.59921 8.14554C8.55402 8.2865 8.48657 8.4138 8.40193 8.5249C8.71438 9.13373 9.03428 9.88138 9.32634 10.564C9.421 10.7852 9.51281 10.9998 9.60042 11.2004C9.99982 12.115 9.96052 13.6848 9.80007 13.5997C9.31527 13.3425 8.54554 12.4455 8.20026 11.6005C8.14884 11.4746 8.09073 11.3347 8.02897 11.1859L8.02846 11.1847C7.73143 10.4694 7.34954 9.54973 7.21546 9.00554C7.14321 8.99476 7.07082 8.97761 6.99898 8.95373C6.63498 8.83271 6.35982 8.56378 6.21902 8.23604L6.20036 8.23489C5.42698 8.18833 4.58807 8.13783 3.80247 8.0258C3.21975 7.94269 2.28134 7.62228 1.64121 7.36378C1.61397 7.60541 1.59998 7.85108 1.59998 8.10001C1.59998 11.6899 4.51012 14.6 8.09998 14.6Z"
        fill="url(#paint0_linear_16_541)" />
    <defs>
        <linearGradient id="paint0_linear_16_541" x1="4.84999" y1="2.47084" x2="11.35" y2="13.7292"
            gradientUnits="userSpaceOnUse">
            <stop stop-color="#62F91F" />
            <stop offset="1" stop-color="#45BD35" />
        </linearGradient>
    </defs>
</svg>