<svg width="16" height="16" viewBox="0 0 16 16" fill="none" xmlns="http://www.w3.org/2000/svg">
<path fill-rule="evenodd" clip-rule="evenodd" d="M1 2.99992C1 2.63173 1.29848 2.33325 1.66667 2.33325H14.3333C14.7015 2.33325 15 2.63173 15 2.99992V12.9999C15 13.3681 14.7015 13.6666 14.3333 13.6666H1.66667C1.29848 13.6666 1 13.3681 1 12.9999V2.99992ZM14.3333 2.99992H1.66667V12.9999H14.3333V2.99992ZM9.65137 6.5513C9.65137 5.90069 10.2254 5.33325 10.9847 5.33325C11.744 5.33325 12.318 5.90069 12.318 6.5513C12.318 7.20191 11.744 7.76935 10.9847 7.76935C10.2254 7.76935 9.65137 7.20191 9.65137 6.5513ZM10.9847 4.66659C9.90304 4.66659 8.9847 5.4883 8.9847 6.5513C8.9847 6.99375 9.1438 7.3944 9.40755 7.7114V10.9999C9.40755 11.1249 9.47746 11.2394 9.58864 11.2965C9.69982 11.3535 9.83359 11.3436 9.93515 11.2708L11.1245 10.4178L12.2128 11.2632C12.3133 11.3412 12.4495 11.3553 12.5638 11.2993C12.6781 11.2434 12.7506 11.1272 12.7506 10.9999V7.43878C12.8996 7.17625 12.9847 6.87496 12.9847 6.5513C12.9847 5.4883 12.0664 4.66659 10.9847 4.66659ZM12.0839 8.12552C11.7659 8.3226 11.3866 8.43602 10.9847 8.43602C10.6596 8.43602 10.3493 8.3618 10.0742 8.22912V10.3507L10.736 9.87604C10.9759 9.70399 11.3004 9.71021 11.5335 9.89131L12.0839 10.3189V8.12552ZM3.29769 7.59839C3.11359 7.59839 2.96436 7.74763 2.96436 7.93173C2.96436 8.11582 3.11359 8.26506 3.29769 8.26506H7.29769C7.48178 8.26506 7.63102 8.11582 7.63102 7.93173C7.63102 7.74763 7.48178 7.59839 7.29769 7.59839H3.29769ZM2.96436 9.92688C2.96436 9.74279 3.11359 9.59355 3.29769 9.59355H7.29769C7.48178 9.59355 7.63102 9.74279 7.63102 9.92688C7.63102 10.111 7.48178 10.2602 7.29769 10.2602H3.29769C3.11359 10.2602 2.96436 10.111 2.96436 9.92688ZM3.29769 5.5815C3.11359 5.5815 2.96436 5.73074 2.96436 5.91484C2.96436 6.09893 3.11359 6.24817 3.29769 6.24817H7.29769C7.48178 6.24817 7.63102 6.09893 7.63102 5.91484C7.63102 5.73074 7.48178 5.5815 7.29769 5.5815H3.29769Z" fill="#4F5162"/>
</svg>
