<svg width="41" height="21" viewBox="0 0 41 21" fill="none" xmlns="http://www.w3.org/2000/svg">
    <path
        d="M7.6321 14V6.72727H10.544C11.0791 6.72727 11.5253 6.80658 11.8828 6.9652C12.2403 7.12382 12.509 7.34399 12.6889 7.62571C12.8688 7.90507 12.9588 8.22704 12.9588 8.59162C12.9588 8.87571 12.902 9.12547 12.7884 9.34091C12.6747 9.55398 12.5185 9.72917 12.3196 9.86648C12.1231 10.0014 11.8982 10.0973 11.6449 10.1541V10.2251C11.9219 10.237 12.1811 10.3151 12.4226 10.4595C12.6664 10.6039 12.8641 10.8063 13.0156 11.0668C13.1671 11.3248 13.2429 11.6326 13.2429 11.9901C13.2429 12.3759 13.147 12.7204 12.9553 13.0234C12.7659 13.3241 12.4853 13.562 12.1136 13.7372C11.742 13.9124 11.2839 14 10.7393 14H7.6321ZM9.16974 12.7429H10.4233C10.8518 12.7429 11.1643 12.6612 11.3608 12.4979C11.5573 12.3321 11.6555 12.112 11.6555 11.8374C11.6555 11.6361 11.607 11.4586 11.5099 11.3047C11.4129 11.1508 11.2744 11.0301 11.0945 10.9425C10.9169 10.8549 10.705 10.8111 10.4588 10.8111H9.16974V12.7429ZM9.16974 9.7706H10.3097C10.5204 9.7706 10.7074 9.7339 10.8707 9.66051C11.0365 9.58475 11.1667 9.47822 11.2614 9.34091C11.3584 9.2036 11.407 9.03906 11.407 8.8473C11.407 8.58452 11.3134 8.37263 11.1264 8.21165C10.9418 8.05066 10.679 7.97017 10.3381 7.97017H9.16974V9.7706ZM14.2434 14V6.72727H19.144V7.99503H15.7811V9.72798H18.8919V10.9957H15.7811V12.7322H19.1582V14H14.2434ZM20.0895 7.99503V6.72727H26.0625V7.99503H23.8359V14H22.3161V7.99503H20.0895ZM27.411 14H25.7633L28.274 6.72727H30.2555L32.7626 14H31.1149L29.2931 8.3892H29.2363L27.411 14ZM27.3081 11.1413H31.2001V12.3416H27.3081V11.1413Z"
        fill="#4F5162" />
    <rect x="1" y="1" width="39" height="19" rx="4" stroke="#4F5162" />
</svg>