<svg width="24" height="24" viewBox="0 0 24 24" fill="none" xmlns="http://www.w3.org/2000/svg">
    <path fill-rule="evenodd" clip-rule="evenodd"
        d="M21.555 11.76C21.555 12.9387 21.3264 14.0848 20.927 15.1404C20.8537 15.3342 20.6062 15.3829 20.4588 15.2372L17.5268 12.3406C17.4045 12.2197 17.384 12.031 17.4638 11.8787C17.7818 11.271 17.9407 10.5758 17.9407 9.84893C17.9822 7.481 16.0297 5.52845 13.6202 5.52845C12.8552 5.52845 12.1541 5.72012 11.5449 6.04738C11.3949 6.12797 11.2082 6.10872 11.0871 5.98916L8.4771 3.41306C8.29321 3.23152 8.34942 2.92223 8.59071 2.8296C9.65194 2.42211 10.7795 2.20496 12 2.20496C17.276 2.20496 21.555 6.48394 21.555 11.76ZM6.46954 3.98411C6.6399 3.86408 6.87097 3.88903 7.01828 4.03638L9.98425 7.00229C10.1153 7.13338 10.1268 7.34064 10.0239 7.49482C9.56031 8.18972 9.29967 9.00754 9.29967 9.8905C9.29967 12.3 11.2522 14.2525 13.6618 14.2525C14.5447 14.2525 15.3625 13.9919 16.0574 13.5283C16.2116 13.4255 16.4189 13.4369 16.5499 13.568L19.7603 16.7784C19.9098 16.9279 19.933 17.1632 19.8081 17.3338C18.0452 19.7422 15.2336 21.3149 12 21.3149C6.72399 21.3149 2.44501 17.036 2.44501 11.76C2.44501 8.52351 4.0206 5.7098 6.46954 3.98411ZM13.6618 12.5908C15.282 12.5908 16.5698 11.303 16.5698 9.6828C16.5698 8.06256 15.282 6.77472 13.6618 6.77472C12.0415 6.77472 10.7537 8.06256 10.7537 9.6828C10.7537 11.303 12.0415 12.5908 13.6618 12.5908Z"
        fill="url(#paint0_linear_107_1589)" />
    <defs>
        <linearGradient id="paint0_linear_107_1589" x1="6.79599" y1="3.74646" x2="17.204" y2="19.7735"
            gradientUnits="userSpaceOnUse">
            <stop stop-color="#73DFE7" />
            <stop offset="1" stop-color="#0095F7" />
        </linearGradient>
    </defs>
</svg>