<svg width="24" height="24" viewBox="0 0 24 24" fill="none" xmlns="http://www.w3.org/2000/svg">
    <path fill-rule="evenodd" clip-rule="evenodd"
        d="M19.3004 17.9023C17.5477 19.9758 14.9276 21.2924 12 21.2924C9.07234 21.2924 6.45222 19.9757 4.6995 17.9022L9.12798 15.0841C9.89958 15.7469 10.903 16.1474 12 16.1474C13.097 16.1474 14.1003 15.7469 14.8719 15.0842L19.3004 17.9023ZM20.0844 16.833L15.7431 14.0704C16.1657 13.3937 16.41 12.5941 16.41 11.7374C16.41 9.52656 14.7831 7.6957 12.6612 7.37669V2.20496C17.6298 2.54456 21.555 6.68261 21.555 11.7374C21.555 13.6108 21.0159 15.3582 20.0844 16.833ZM11.3382 2.20499C6.36985 2.54488 2.44501 6.6828 2.44501 11.7374C2.44501 13.6107 2.98409 15.3581 3.91558 16.8329L8.25687 14.0703C7.83423 13.3936 7.59001 12.594 7.59001 11.7374C7.59001 9.5268 9.21658 7.69604 11.3382 7.37674V2.20499Z"
        fill="url(#paint0_linear_107_1594)" />
    <path fill-rule="evenodd" clip-rule="evenodd"
        d="M14.6151 9.76522C14.8644 10.0323 14.85 10.4509 14.5828 10.7002L11.4328 13.6402C11.1787 13.8774 10.7843 13.8774 10.5301 13.6402L9.27015 12.4642C9.00308 12.2149 8.98863 11.7963 9.23789 11.5292C9.4872 11.2621 9.90576 11.2477 10.1728 11.497L10.9815 12.2517L13.6801 9.73296C13.9472 9.4837 14.3658 9.4981 14.6151 9.76522Z"
        fill="url(#paint1_linear_107_1594)" />
    <defs>
        <linearGradient id="paint0_linear_107_1594" x1="7.66215" y1="3.24516" x2="16.3216" y2="20.2605"
            gradientUnits="userSpaceOnUse">
            <stop stop-color="#BEA1FF" />
            <stop offset="1" stop-color="#8A36FF" />
        </linearGradient>
        <linearGradient id="paint1_linear_107_1594" x1="10.6251" y1="9.78735" x2="12.2103" y2="13.9713"
            gradientUnits="userSpaceOnUse">
            <stop stop-color="#BEA1FF" />
            <stop offset="1" stop-color="#8A36FF" />
        </linearGradient>
    </defs>
</svg>