<svg width="24" height="24" viewBox="0 0 24 24" fill="none" xmlns="http://www.w3.org/2000/svg">
    <path fill-rule="evenodd" clip-rule="evenodd"
        d="M2.50005 3.04004C1.94777 3.04004 1.50005 3.48775 1.50005 4.04004V6.43258L1.5 18.54C1.5 19.3685 2.17157 20.04 3 20.04H18.2913H21C21.8284 20.04 22.5 19.3685 22.5 18.54L22.5001 6.43258L22.5001 4.04004C22.5001 3.48775 22.0523 3.04004 21.5001 3.04004H2.50005ZM2.50005 4.04004L21.5001 4.04004L21.5001 5.93258H2.50005V4.04004ZM2.50005 6.93258H21.5001L21.5 18.54C21.5 18.8162 21.2761 19.04 21 19.04H18.2913H3C2.72386 19.04 2.5 18.8162 2.5 18.54L2.50005 6.93258ZM9.91406 13.3435C10.0532 13.2508 10.1367 13.0947 10.1367 12.9275C10.1367 12.7603 10.0532 12.6042 9.91406 12.5115L6.91406 10.5115C6.76064 10.4092 6.56336 10.3996 6.40078 10.4867C6.23821 10.5737 6.13671 10.7431 6.13671 10.9275V14.9275C6.13671 15.1119 6.23821 15.2813 6.40078 15.3683C6.56336 15.4553 6.76064 15.4458 6.91406 15.3435L9.91406 13.3435ZM7.13671 13.9932V11.8617L8.73533 12.9275L7.13671 13.9932ZM13.4995 10.5016C13.4995 10.2254 13.7234 10.0016 13.9995 10.0016H18.9995C19.2757 10.0016 19.4995 10.2254 19.4995 10.5016C19.4995 10.7777 19.2757 11.0016 18.9995 11.0016H13.9995C13.7234 11.0016 13.4995 10.7777 13.4995 10.5016ZM13.9995 13.0057C13.7234 13.0057 13.4995 13.2295 13.4995 13.5057C13.4995 13.7818 13.7234 14.0057 13.9995 14.0057H18.9995C19.2757 14.0057 19.4995 13.7818 19.4995 13.5057C19.4995 13.2295 19.2757 13.0057 18.9995 13.0057H13.9995ZM13.4995 16.4997C13.4995 16.2236 13.7234 15.9997 13.9995 15.9997H18.9995C19.2757 15.9997 19.4995 16.2236 19.4995 16.4997C19.4995 16.7758 19.2757 16.9997 18.9995 16.9997H13.9995C13.7234 16.9997 13.4995 16.7758 13.4995 16.4997ZM4.52172 8.99969C4.24558 8.99969 4.02172 9.22355 4.02172 9.49969V16.4997C4.02172 16.7758 4.24558 16.9997 4.52172 16.9997H11.5217C11.7979 16.9997 12.0217 16.7758 12.0217 16.4997V9.49969C12.0217 9.22355 11.7979 8.99969 11.5217 8.99969H4.52172ZM5.02172 15.9997V9.99969H11.0217V15.9997H5.02172Z"
        fill="#4F5162" />
</svg>