<svg width="16" height="16" viewBox="0 0 16 16" fill="none" xmlns="http://www.w3.org/2000/svg">
    <path fill-rule="evenodd" clip-rule="evenodd"
        d="M10.167 7.09597C10.3516 7.28617 10.6508 7.28617 10.8354 7.09597C11.02 6.9058 11.02 6.59745 10.8354 6.40725L8.40057 3.89829L11.3487 2.14436C12.0382 1.73419 12.9 2.24691 12.9 3.06726V8.4274L9.33622 9.30593C9.08236 9.36852 8.92582 9.63128 8.98655 9.89286C9.04726 10.1544 9.3023 10.3158 9.55615 10.2532L12.9 9.42886V13.4328C12.9 14.2531 12.0382 14.7658 11.3487 14.3556L7.24703 11.9155L7.82095 7.64424C7.85676 7.37783 7.67619 7.13192 7.41763 7.09505C7.15907 7.05815 6.92047 7.24421 6.88467 7.51066L6.36342 11.3898L2.63709 9.1729C1.94763 8.76271 1.94763 7.73727 2.63709 7.32712L7.55308 4.40245L10.167 7.09597Z"
        fill="url(#paint0_linear_7_4)" />
    <defs>
        <linearGradient id="paint0_linear_7_4" x1="6.32627" y1="3.94798" x2="13.1776" y2="14.2802"
            gradientUnits="userSpaceOnUse">
            <stop stop-color="#FF61A2" />
            <stop offset="1" stop-color="#D8005A" />
        </linearGradient>
    </defs>
</svg>