<svg width="24" height="24" viewBox="0 0 24 24" fill="none" xmlns="http://www.w3.org/2000/svg">
    <path
        d="M5 16L5 8C5 5.79086 6.79086 4 9 4L13 4C15.2091 4 17 5.79086 17 8L17 12L20 16L17 16C17 18.2091 15.2091 20 13 20L9 20C6.79086 20 5 18.2091 5 16Z"
        stroke="#F3F3FA" stroke-linecap="round" stroke-linejoin="round" />
    <g opacity="0.5">
        <mask id="path-2-inside-1_925_112767" fill="white">
            <path fill-rule="evenodd" clip-rule="evenodd"
                d="M9.125 16C9.125 16.2761 9.34886 16.5 9.625 16.5C9.90114 16.5 10.125 16.2761 10.125 16L10.125 8C10.125 7.72386 9.90114 7.5 9.625 7.5C9.34886 7.5 9.125 7.72386 9.125 8L9.125 16ZM11.875 16C11.875 16.2761 12.0989 16.5 12.375 16.5C12.6511 16.5 12.875 16.2761 12.875 16L12.875 9C12.875 8.72386 12.6511 8.5 12.375 8.5C12.0989 8.5 11.875 8.72386 11.875 9L11.875 16Z" />
        </mask>
        <path
            d="M9.625 15.5C9.90114 15.5 10.125 15.7239 10.125 16L8.125 16C8.125 16.8284 8.79657 17.5 9.625 17.5L9.625 15.5ZM9.125 16C9.125 15.7239 9.34886 15.5 9.625 15.5L9.625 17.5C10.4534 17.5 11.125 16.8284 11.125 16L9.125 16ZM9.125 8L9.125 16L11.125 16L11.125 8L9.125 8ZM9.625 8.5C9.34886 8.5 9.125 8.27614 9.125 8L11.125 8C11.125 7.17157 10.4534 6.5 9.625 6.5L9.625 8.5ZM10.125 8C10.125 8.27614 9.90114 8.5 9.625 8.5L9.625 6.5C8.79657 6.5 8.125 7.17157 8.125 8L10.125 8ZM10.125 16L10.125 8L8.125 8L8.125 16L10.125 16ZM12.375 15.5C12.6511 15.5 12.875 15.7239 12.875 16L10.875 16C10.875 16.8284 11.5466 17.5 12.375 17.5L12.375 15.5ZM11.875 16C11.875 15.7239 12.0989 15.5 12.375 15.5L12.375 17.5C13.2034 17.5 13.875 16.8284 13.875 16L11.875 16ZM11.875 9L11.875 16L13.875 16L13.875 9L11.875 9ZM12.375 9.5C12.0989 9.5 11.875 9.27614 11.875 9L13.875 9C13.875 8.17157 13.2034 7.5 12.375 7.5L12.375 9.5ZM12.875 9C12.875 9.27614 12.6511 9.5 12.375 9.5L12.375 7.5C11.5466 7.5 10.875 8.17157 10.875 9L12.875 9ZM12.875 16L12.875 9L10.875 9L10.875 16L12.875 16Z"
            fill="#F3F3FA" mask="url(#path-2-inside-1_925_112767)" />
    </g>
</svg>