<svg width="50" height="49" viewBox="0 0 50 49" fill="none" xmlns="http://www.w3.org/2000/svg">
    <path fill-rule="evenodd" clip-rule="evenodd"
        d="M23.7477 3.44259C20.5844 5.29963 14.0429 9.12753 7.94036 9.6744C7.33181 9.72894 6.82161 10.1786 6.76673 10.7871C5.94661 19.8809 8.30758 37.9249 23.9447 45.5943C24.231 45.7347 24.5625 45.7585 24.8605 45.645C29.1134 44.0258 35.6394 39.0715 39.2935 29.3878L32.2061 26.4176C32.164 26.4 32.1232 26.3805 32.0838 26.3594C31.1513 27.8721 29.7297 29.0995 27.9387 29.7761C23.6341 31.4025 18.826 29.2314 17.1996 24.9267C15.5732 20.6221 17.7444 15.814 22.0491 14.1876C26.3537 12.5612 31.1618 14.7324 32.7882 19.037C33.3778 20.5976 33.4683 22.2244 33.139 23.7417C33.1942 23.7573 33.2492 23.7764 33.3035 23.7992L40.1974 26.6883C41.4931 22.2869 42.2078 17.0386 41.9664 10.8419C41.9421 10.2163 41.4432 9.70701 40.8248 9.60957C37.1743 9.03436 30.3792 6.72047 25.0361 3.4614C24.641 3.22039 24.1469 3.20828 23.7477 3.44259ZM23.0525 16.8434C20.2146 17.9156 18.7832 21.0854 19.8554 23.9233C20.9277 26.7612 24.0974 28.1925 26.9353 27.1203C29.7732 26.0481 31.2046 22.8783 30.1323 20.0404C29.0601 17.2026 25.8904 15.7712 23.0525 16.8434Z"
        fill="url(#paint0_linear_792_84765)" />
    <defs>
        <linearGradient id="paint0_linear_792_84765" x1="12.4794" y1="8.72446" x2="40.9518" y2="35.0897"
            gradientUnits="userSpaceOnUse">
            <stop stop-color="#4791FF" />
            <stop offset="1" stop-color="#2E1CF3" />
        </linearGradient>
    </defs>
</svg>