<svg width="16" height="16" viewBox="0 0 16 16" fill="none" xmlns="http://www.w3.org/2000/svg">
    <path fill-rule="evenodd" clip-rule="evenodd"
        d="M7.84003 14.6939C11.463 14.6939 14.4 11.6969 14.4 8C14.4 4.30308 11.463 1.30612 7.84003 1.30612C6.80038 1.30612 5.81721 1.55291 4.94371 1.99222L6.72317 3.70749C6.92291 3.56689 7.16355 3.48483 7.42259 3.48483C8.11424 3.48483 8.67494 4.07007 8.67494 4.79203C8.67494 5.02524 8.61645 5.24415 8.51392 5.4337L10.2344 7.09215C10.3948 7.01427 10.5736 6.97077 10.7622 6.97077C11.4539 6.97077 12.0146 7.55602 12.0146 8.27797C12.0146 8.99993 11.4539 9.58518 10.7622 9.58518C10.0706 9.58518 9.50985 8.99993 9.50985 8.27797C9.50985 8.07157 9.55568 7.87634 9.63728 7.70276L7.88035 6.00921C7.78192 6.04957 7.67737 6.07729 7.56861 6.09045L6.63779 10.6635C6.98432 10.896 7.21385 11.302 7.21385 11.7639C7.21385 12.4859 6.65315 13.0711 5.96147 13.0711C5.26982 13.0711 4.70909 12.4859 4.70909 11.7639C4.70909 11.0901 5.19744 10.5354 5.8248 10.4644L6.7543 5.8978C6.40326 5.66619 6.1702 5.25753 6.1702 4.79203C6.1702 4.66002 6.18893 4.53257 6.22381 4.41241L4.18102 2.44331C2.43114 3.64545 1.28003 5.68555 1.28003 8C1.28003 11.6969 4.21705 14.6939 7.84003 14.6939Z"
        fill="url(#paint0_linear_16_528)" />
    <defs>
        <linearGradient id="paint0_linear_16_528" x1="4.06307" y1="1.30612" x2="14.6589" y2="14.4857"
            gradientUnits="userSpaceOnUse">
            <stop stop-color="#FF679E" />
            <stop offset="1" stop-color="#F11D0D" />
        </linearGradient>
    </defs>
</svg>