<svg width="81" height="29" viewBox="0 0 81 29" fill="none" xmlns="http://www.w3.org/2000/svg">
<path d="M0 0.885986H81V28.886H0L9.12676 14.886L0 0.885986Z" fill="#D3FCFE"/>
<path d="M32.4013 9.70417V19.886H30.5419L26.1122 13.4776H26.0376V19.886H23.8849V9.70417H25.7741L30.169 16.1076H30.2585V9.70417H32.4013ZM34.3799 19.886V9.70417H41.2407V11.479H36.5326V13.9052H40.8877V15.68H36.5326V18.1111H41.2605V19.886H34.3799ZM45.444 19.886L42.5307 9.70417H44.8822L46.5676 16.7787H46.6521L48.5115 9.70417H50.525L52.3794 16.7937H52.4689L54.1543 9.70417H56.5058L53.5925 19.886H51.4945L49.5555 13.229H49.476L47.542 19.886H45.444ZM60.3488 9.70417L60.1549 16.8334H58.3353L58.1364 9.70417H60.3488ZM59.2451 20.0152C58.9169 20.0152 58.6352 19.8992 58.3999 19.6672C58.1646 19.4319 58.0486 19.1502 58.0519 18.8221C58.0486 18.4973 58.1646 18.2188 58.3999 17.9868C58.6352 17.7548 58.9169 17.6388 59.2451 17.6388C59.5599 17.6388 59.8367 17.7548 60.0753 17.9868C60.314 18.2188 60.4349 18.4973 60.4382 18.8221C60.4349 19.0408 60.3769 19.2413 60.2642 19.4236C60.1549 19.6026 60.0107 19.7468 59.8317 19.8562C59.6527 19.9622 59.4572 20.0152 59.2451 20.0152Z" fill="#07A0AB"/>
</svg>
