<svg width="174" height="127" viewBox="0 0 174 127" fill="none" xmlns="http://www.w3.org/2000/svg">
    <path
        d="M54.9939 86.1287L48.5951 79.2559L63.2886 83.2848L94.0976 81.1519L107.843 76.175C113.057 78.071 119.456 81.8629 119.456 81.8629C119.456 81.8629 108.712 86.3657 104.999 88.0247V120.256L71.1093 124.047L62.1036 114.094V88.0247L54.9939 86.1287Z"
        fill="white" />
    <path
        d="M71.7751 90.7875L53.5501 86.0625L48.4876 79.65L64.3501 83.3625L93.7126 81.675L109.238 76.95L120.038 81.675L106.2 87.75L71.7751 90.7875Z"
        fill="url(#paint0_linear_575_90348)" />
    <path fill-rule="evenodd" clip-rule="evenodd"
        d="M71.1738 90.3445C71.3602 90.3445 71.5113 90.4956 71.5113 90.682L71.5113 124.585C71.5113 124.771 71.3602 124.922 71.1738 124.922C70.9874 124.922 70.8363 124.771 70.8363 124.585L70.8363 90.682C70.8363 90.4956 70.9874 90.3445 71.1738 90.3445Z"
        fill="#22222A" />
    <path fill-rule="evenodd" clip-rule="evenodd"
        d="M105.031 85.97C105.218 85.97 105.369 86.1211 105.369 86.3075L105.369 120.648C105.369 120.834 105.218 120.985 105.031 120.985C104.845 120.985 104.694 120.834 104.694 120.648L104.694 86.3075C104.694 86.1211 104.845 85.97 105.031 85.97Z"
        fill="#22222A" />
    <path fill-rule="evenodd" clip-rule="evenodd"
        d="M106.181 120.389C106.203 120.574 106.07 120.742 105.885 120.764C96.3726 121.89 90.3636 122.516 84.0544 123.173C79.3409 123.664 74.4597 124.172 67.8249 124.92C67.6397 124.941 67.4726 124.808 67.4517 124.622C67.4309 124.437 67.5641 124.27 67.7493 124.249C74.3991 123.5 79.2813 122.992 83.9932 122.501C90.295 121.845 96.2922 121.22 105.806 120.094C105.991 120.072 106.159 120.204 106.181 120.389Z"
        fill="#22222A" />
    <path fill-rule="evenodd" clip-rule="evenodd"
        d="M60.7769 112.963C60.9135 112.837 61.1271 112.845 61.2539 112.981C63.5106 115.411 65.1136 117.119 66.5003 118.596C68.6048 120.838 70.2112 122.55 72.8488 125.451C72.9742 125.589 72.964 125.803 72.8261 125.928C72.6882 126.053 72.4747 126.043 72.3494 125.905C69.7145 123.007 68.1137 121.302 66.0128 119.063C64.6264 117.586 63.0222 115.877 60.7593 113.44C60.6324 113.304 60.6403 113.09 60.7769 112.963Z"
        fill="#22222A" />
    <path fill-rule="evenodd" clip-rule="evenodd"
        d="M62.1311 87.6538C62.3175 87.6538 62.4686 87.8049 62.4686 87.9913V115.836C62.4686 116.022 62.3175 116.173 62.1311 116.173C61.9447 116.173 61.7936 116.022 61.7936 115.836V87.9913C61.7936 87.8049 61.9447 87.6538 62.1311 87.6538Z"
        fill="#22222A" />
    <path fill-rule="evenodd" clip-rule="evenodd"
        d="M67.4503 91.1412C67.4624 91.3272 67.6231 91.4682 67.8091 91.4561C77.8744 90.7996 94.0641 89.4869 107.192 88.1742C107.377 88.1556 107.512 87.9902 107.494 87.8048C107.475 87.6193 107.31 87.484 107.124 87.5025C94.0046 88.8145 77.8226 90.1266 67.7651 90.7825C67.5791 90.7946 67.4382 90.9552 67.4503 91.1412Z"
        fill="#22222A" />
    <path fill-rule="evenodd" clip-rule="evenodd"
        d="M94.5898 81.2546C94.602 81.4406 94.4611 81.6013 94.2751 81.6135C80.9302 82.4886 74.9579 82.7981 62.991 83.3637C62.8048 83.3725 62.6468 83.2287 62.638 83.0425C62.6292 82.8563 62.773 82.6982 62.9591 82.6894C74.923 82.124 80.8911 81.8147 94.2309 80.9399C94.4169 80.9277 94.5776 81.0686 94.5898 81.2546Z"
        fill="#22222A" />
    <path fill-rule="evenodd" clip-rule="evenodd"
        d="M92.4571 79.974C92.5726 79.8277 92.7849 79.8028 92.9311 79.9184C96.7975 82.973 101.145 85.3575 105.495 87.7427C106.286 88.1768 107.078 88.6109 107.867 89.0491C108.03 89.1396 108.088 89.3451 107.998 89.5081C107.907 89.671 107.702 89.7297 107.539 89.6392C106.757 89.2047 105.97 88.7731 105.181 88.3404C100.832 85.9563 96.4273 83.5408 92.5127 80.448C92.3664 80.3325 92.3415 80.1202 92.4571 79.974Z"
        fill="#22222A" />
    <path fill-rule="evenodd" clip-rule="evenodd"
        d="M112.731 74.8376C112.784 75.0163 112.682 75.2042 112.503 75.2573C112.342 75.3052 112.183 75.3525 112.026 75.3994C104.262 77.7073 100.573 78.8038 94.1554 81.2715C93.9814 81.3384 93.7861 81.2516 93.7192 81.0776C93.6523 80.9037 93.7391 80.7084 93.9131 80.6415C100.356 78.1642 104.067 77.0611 111.826 74.7545C111.986 74.7069 112.148 74.6589 112.311 74.6103C112.49 74.5572 112.678 74.6589 112.731 74.8376Z"
        fill="#22222A" />
    <path fill-rule="evenodd" clip-rule="evenodd"
        d="M122.585 81.1943C122.637 81.3734 122.534 81.5605 122.355 81.6121C115.586 83.563 111.01 85.5239 105.108 88.1469C104.937 88.2226 104.738 88.1459 104.662 87.9756C104.587 87.8053 104.663 87.6058 104.834 87.5301C110.743 84.9037 115.353 82.9276 122.168 80.9635C122.347 80.9119 122.534 81.0152 122.585 81.1943Z"
        fill="#22222A" />
    <path fill-rule="evenodd" clip-rule="evenodd"
        d="M107.509 75.6634C107.589 75.4951 107.791 75.4237 107.959 75.5038C112.552 77.691 117.586 80.0983 121.963 82.2872C122.13 82.3705 122.198 82.5733 122.114 82.74C122.031 82.9067 121.828 82.9743 121.662 82.8909C117.29 80.7053 112.262 78.3006 107.669 76.1132C107.501 76.0331 107.429 75.8317 107.509 75.6634Z"
        fill="#22222A" />
    <path fill-rule="evenodd" clip-rule="evenodd"
        d="M48.311 79.0594C48.4484 78.9335 48.6619 78.9427 48.7878 79.0801C49.4115 79.7605 50.0184 80.4384 50.6204 81.1108C52.3541 83.0473 54.0475 84.9388 55.9851 86.7149C56.1225 86.8408 56.1318 87.0543 56.0058 87.1917C55.8799 87.3291 55.6664 87.3384 55.529 87.2124C53.5647 85.4119 51.8396 83.4849 50.0995 81.5412C49.5016 80.8734 48.902 80.2036 48.2903 79.5363C48.1643 79.3989 48.1736 79.1854 48.311 79.0594Z"
        fill="#22222A" />
    <path fill-rule="evenodd" clip-rule="evenodd"
        d="M62.2795 82.5903C62.3996 82.4478 62.6125 82.4295 62.7551 82.5496C66.918 86.0552 69.5499 88.4677 73.2752 92.1931C73.407 92.3249 73.407 92.5385 73.2752 92.6704C73.1434 92.8022 72.9297 92.8022 72.7979 92.6704C69.0866 88.959 66.469 86.5595 62.3203 83.0659C62.1777 82.9458 62.1595 82.7329 62.2795 82.5903Z"
        fill="#22222A" />
    <path fill-rule="evenodd" clip-rule="evenodd"
        d="M53.4605 85.7905C53.5044 85.6094 53.6869 85.4981 53.868 85.542C54.4151 85.6747 54.9435 85.8025 55.4556 85.9263C61.698 87.436 65.527 88.3619 71.3956 90.3626C71.572 90.4227 71.6662 90.6145 71.6061 90.7909C71.546 90.9674 71.3542 91.0616 71.1777 91.0015C65.3391 89.0111 61.5377 88.0917 55.2929 86.5814C54.7821 86.4579 54.2549 86.3304 53.709 86.198C53.5278 86.1541 53.4166 85.9717 53.4605 85.7905Z"
        fill="#22222A" />
    <path fill-rule="evenodd" clip-rule="evenodd"
        d="M48.2114 79.2276C48.2558 79.0465 48.4386 78.9358 48.6196 78.9803C51.1829 79.6096 53.7299 80.2998 56.2723 80.9887L56.4405 81.0343C59.0401 81.7387 61.6353 82.4404 64.2464 83.0756C64.4275 83.1196 64.5386 83.3022 64.4945 83.4833C64.4505 83.6644 64.2679 83.7755 64.0868 83.7315C61.4659 83.0939 58.8625 82.39 56.264 81.6858L56.099 81.6411C53.5543 80.9515 51.014 80.2632 48.4586 79.6358C48.2776 79.5914 48.1669 79.4086 48.2114 79.2276Z"
        fill="#22222A" />
    <path fill-rule="evenodd" clip-rule="evenodd"
        d="M93.9161 78.9707C94.1025 78.9707 94.2536 79.1218 94.2536 79.3082L94.2536 88.9322C94.2536 89.1186 94.1025 89.2697 93.9161 89.2697C93.7297 89.2697 93.5786 89.1186 93.5786 88.9322L93.5786 79.3082C93.5786 79.1218 93.7297 78.9707 93.9161 78.9707Z"
        fill="#22222A" />
    <path fill-rule="evenodd" clip-rule="evenodd"
        d="M68.7748 121.762C68.5973 121.705 68.4998 121.514 68.557 121.337L70.906 114.043C70.9631 113.866 71.1533 113.768 71.3307 113.825C71.5081 113.883 71.6056 114.073 71.5485 114.25L69.1995 121.544C69.1423 121.721 68.9522 121.819 68.7748 121.762ZM66.239 119.155C66.0616 119.098 65.9641 118.908 66.0212 118.73L70.906 103.563C70.9631 103.385 71.1533 103.288 71.3307 103.345C71.5081 103.402 71.6056 103.592 71.5485 103.77L66.6637 118.937C66.6066 119.114 66.4164 119.212 66.239 119.155ZM63.372 116.073C63.1956 116.016 63.099 115.826 63.1559 115.649C64.4099 111.755 65.7537 107.793 67.0806 103.883L67.1323 103.73C67.1497 103.679 67.1671 103.628 67.1845 103.576L70.906 92.424L70.9071 92.4207C70.9659 92.2445 71.1559 92.1489 71.3324 92.2068C71.5088 92.2646 71.6054 92.4542 71.5485 92.631C70.3896 96.2293 69.1153 99.987 67.8242 103.792L63.7984 115.856L63.7973 115.86C63.7385 116.036 63.5485 116.131 63.372 116.073Z"
        fill="white" />
    <path fill-rule="evenodd" clip-rule="evenodd"
        d="M62.1598 108.728C61.9823 108.671 61.8842 108.481 61.9408 108.304L67.8349 89.8182C67.8915 89.6406 68.0813 89.5425 68.2589 89.5992C68.4365 89.6558 68.5346 89.8457 68.478 90.0232L62.5839 108.509C62.5273 108.686 62.3374 108.784 62.1598 108.728ZM62.1589 98.0627C61.9815 98.0056 61.884 97.8154 61.9411 97.638L64.8415 88.6323C64.8986 88.4549 65.0887 88.3574 65.2662 88.4145C65.4436 88.4716 65.5411 88.6618 65.484 88.8392L62.5836 97.8449C62.5265 98.0223 62.3363 98.1198 62.1589 98.0627Z"
        fill="white" />
    <path fill-rule="evenodd" clip-rule="evenodd"
        d="M85.1202 90.2419C84.9428 90.1847 84.8453 89.9946 84.9024 89.8172L87.4975 81.7594C87.5546 81.582 87.7448 81.4845 87.9222 81.5416C88.0996 81.5988 88.1971 81.7889 88.14 81.9664L85.5449 90.0241C85.4878 90.2015 85.2977 90.299 85.1202 90.2419ZM89.2067 89.5309C89.0293 89.4738 88.9318 89.2836 88.9889 89.1062L91.355 81.7594C91.4121 81.582 91.6023 81.4845 91.7797 81.5416C91.9571 81.5988 92.0546 81.7889 91.9975 81.9664L89.6314 89.3131C89.5743 89.4905 89.3841 89.588 89.2067 89.5309ZM92.582 89.5309C92.4046 89.4738 92.3071 89.2836 92.3643 89.1062L93.5854 85.3143C93.6426 85.1369 93.8327 85.0394 94.0102 85.0965C94.1876 85.1537 94.2851 85.3438 94.2279 85.5212L93.0068 89.3131C92.9496 89.4905 92.7595 89.588 92.582 89.5309Z"
        fill="white" />
    <path fill-rule="evenodd" clip-rule="evenodd"
        d="M74.2532 91.1896C74.0757 91.1325 73.9782 90.9423 74.0354 90.7649L76.7831 82.2332C76.8402 82.0558 77.0304 81.9583 77.2078 82.0154C77.3852 82.0726 77.4827 82.2627 77.4256 82.4401L74.6779 90.9718C74.6207 91.1493 74.4306 91.2468 74.2532 91.1896ZM78.2773 90.6723C78.0999 90.6151 78.0024 90.425 78.0595 90.2476L80.6406 82.2332C80.6977 82.0558 80.8879 81.9583 81.0653 82.0154C81.2427 82.0726 81.3402 82.2627 81.2831 82.4401L78.702 90.4545C78.6449 90.6319 78.4547 90.7294 78.2773 90.6723ZM81.6705 90.6169C81.493 90.5598 81.3955 90.3696 81.4527 90.1922L84.0159 82.2332C84.073 82.0558 84.2632 81.9583 84.4406 82.0154C84.618 82.0725 84.7155 82.2627 84.6584 82.4401L82.0952 90.3991C82.038 90.5765 81.8479 90.674 81.6705 90.6169Z"
        fill="white" />
    <path fill-rule="evenodd" clip-rule="evenodd"
        d="M70.607 90.2418C70.4295 90.1846 70.332 89.9945 70.3892 89.817L72.6789 82.7073C72.7361 82.5299 72.9262 82.4323 73.1036 82.4895C73.2811 82.5466 73.3786 82.7368 73.3214 82.9142L71.0317 90.024C70.9745 90.2014 70.7844 90.2989 70.607 90.2418ZM68.0712 87.6348C67.8938 87.5777 67.7963 87.3876 67.8534 87.2101L69.3036 82.7073C69.3607 82.5299 69.5509 82.4324 69.7283 82.4895C69.9057 82.5466 70.0032 82.7368 69.9461 82.9142L68.4959 87.4171C68.4388 87.5945 68.2486 87.692 68.0712 87.6348ZM65.0533 85.0279C64.8759 84.9708 64.7783 84.7806 64.8355 84.6032L65.4461 82.7073C65.5032 82.5299 65.6934 82.4324 65.8708 82.4895C66.0482 82.5466 66.1457 82.7368 66.0886 82.9142L65.478 84.8101C65.4208 84.9876 65.2307 85.0851 65.0533 85.0279Z"
        fill="white" />
    <path fill-rule="evenodd" clip-rule="evenodd"
        d="M39.5528 48.8395C39.6716 48.6958 39.8843 48.6757 40.0279 48.7945C42.1756 50.5706 44.2616 52.4137 46.3438 54.2534C46.6416 54.5165 46.9394 54.7796 47.2372 55.0424C47.377 55.1657 47.3903 55.379 47.267 55.5188C47.1437 55.6585 46.9304 55.6719 46.7906 55.5485C46.4923 55.2853 46.1943 55.022 45.8964 54.7588C43.8134 52.9184 41.7363 51.0832 39.5978 49.3146C39.4541 49.1958 39.434 48.9831 39.5528 48.8395Z"
        fill="#22222A" />
    <path fill-rule="evenodd" clip-rule="evenodd"
        d="M44.7629 47.5905C44.9085 47.4741 45.1209 47.4978 45.2372 47.6434C46.6935 49.4659 48.1853 51.2547 49.6813 53.0486C49.8787 53.2853 50.0761 53.522 50.2736 53.759C50.3929 53.9021 50.3736 54.115 50.2304 54.2343C50.0872 54.3536 49.8744 54.3343 49.755 54.1911C49.5578 53.9544 49.3604 53.7177 49.1631 53.4811C47.6675 51.6877 46.1709 49.8932 44.7099 48.0648C44.5935 47.9192 44.6173 47.7068 44.7629 47.5905Z"
        fill="#22222A" />
    <path
        d="M60.9747 8.09995L56.2497 8.77495C57.0597 7.15495 53.2122 3.82495 51.1872 2.36245L56.2497 1.01245C57.8697 1.55245 60.0747 5.96245 60.9747 8.09995Z"
        fill="white" />
    <path
        d="M58.2747 64.125C52.0647 55.215 55.2372 49.1625 57.5997 47.25C59.9622 45.225 64.0122 45.9 70.0872 49.275C76.1622 52.65 75.8247 64.125 75.4872 66.15C75.1497 68.1749 66.0372 75.2625 58.2747 64.125Z"
        fill="white" />
    <path
        d="M74.29 52.7472C77.8598 58.9338 76.8529 66.1999 72.0411 68.9764C67.2292 71.7529 60.4346 68.9884 56.8648 62.8018C53.295 56.6151 54.3019 49.3491 59.1137 46.5726C63.9256 43.796 70.7202 46.5605 74.29 52.7472Z"
        fill="white" />
    <path fill-rule="evenodd" clip-rule="evenodd"
        d="M56.0737 48.2703C55.7301 48.6418 55.3986 49.0576 55.0812 49.5205C55.0096 49.6249 55.0047 49.7554 55.0571 49.8613C54.6199 50.7781 54.3556 51.784 54.2443 52.8357C53.8783 56.2927 55.1573 60.2849 57.4476 63.419C59.3007 65.9548 62.0031 68.1168 64.9292 69.171C67.8617 70.2275 71.0431 70.1767 73.7932 68.2355C76.1252 66.5893 76.7013 63.7039 76.3199 60.7183C75.9375 57.7244 74.5861 54.5341 72.9286 52.1269C71.4427 49.969 68.3878 47.3346 65.0123 46.2169C63.818 45.8214 62.5739 45.6127 61.3396 45.6884C61.2726 45.5548 61.1219 45.4776 60.9687 45.5097C58.8313 45.9577 57.2364 46.9103 56.1305 48.2031C56.1114 48.2254 56.0925 48.2478 56.0737 48.2703ZM56.5817 48.7151C57.6341 47.582 58.7893 46.9144 59.9788 46.5909C61.5414 46.166 63.1958 46.3264 64.8002 46.8577C68.0203 47.9239 70.9603 50.4586 72.3726 52.5097C73.9787 54.8423 75.2836 57.9323 75.6504 60.8039C76.0182 63.6839 75.4365 66.2492 73.4039 67.684C70.8752 69.469 67.9358 69.5367 65.158 68.5359C62.3738 67.5329 59.7764 65.4618 57.9926 63.0208C55.78 59.9931 54.5706 56.1646 54.9155 52.9067C55.084 51.3161 55.6213 49.8713 56.5817 48.7151Z"
        fill="#22222A" />
    <path fill-rule="evenodd" clip-rule="evenodd"
        d="M67.8215 47.4727C67.9669 47.5893 67.9902 47.8018 67.8735 47.9472C66.8746 49.1922 66.1697 50.1321 65.2282 51.5444C65.1248 51.6995 64.9153 51.7414 64.7602 51.638C64.6051 51.5346 64.5632 51.3251 64.6666 51.17C65.621 49.7384 66.3381 48.7824 67.347 47.5247C67.4637 47.3794 67.6761 47.3561 67.8215 47.4727Z"
        fill="#22222A" />
    <path fill-rule="evenodd" clip-rule="evenodd"
        d="M70.1352 48.8943C70.2808 49.0107 70.3044 49.2231 70.1879 49.3687C69.7931 49.8622 69.3946 50.3741 68.9801 50.9065C68.9649 50.926 68.9497 50.9455 68.9346 50.965C68.5041 51.5178 68.0566 52.0921 67.581 52.6865C67.4646 52.8321 67.2522 52.8557 67.1067 52.7393C66.9611 52.6228 66.9375 52.4104 67.0539 52.2649C67.5264 51.6744 67.9714 51.1033 68.402 50.5503C68.4175 50.5303 68.433 50.5104 68.4485 50.4905C68.8622 49.9592 69.2632 49.4441 69.6609 48.947C69.7773 48.8014 69.9897 48.7778 70.1352 48.8943Z"
        fill="#22222A" />
    <path fill-rule="evenodd" clip-rule="evenodd"
        d="M72.5286 50.3259C72.6689 50.4487 72.6831 50.6619 72.5603 50.8022C71.5038 52.0096 70.73 52.8389 69.9402 53.6854C69.4889 54.169 69.0324 54.6582 68.515 55.2267C68.3895 55.3646 68.176 55.3746 68.0382 55.2492C67.9003 55.1237 67.8903 54.9103 68.0158 54.7724C68.5446 54.1914 69.0049 53.6981 69.4573 53.2133C70.2412 52.3734 71.0012 51.559 72.0524 50.3577C72.1751 50.2174 72.3883 50.2032 72.5286 50.3259Z"
        fill="#22222A" />
    <path fill-rule="evenodd" clip-rule="evenodd"
        d="M73.9558 52.6945C74.0967 52.8166 74.1119 53.0297 73.9898 53.1706C73.9381 53.2303 73.8864 53.29 73.8346 53.3497C72.5225 54.8635 71.2165 56.3704 69.9482 57.915C69.8299 58.0591 69.6173 58.08 69.4732 57.9617C69.3291 57.8434 69.3082 57.6308 69.4265 57.4867C70.7006 55.9349 72.012 54.4219 73.3225 52.9099C73.3749 52.8494 73.4273 52.789 73.4797 52.7285C73.6018 52.5877 73.815 52.5724 73.9558 52.6945Z"
        fill="#22222A" />
    <path fill-rule="evenodd" clip-rule="evenodd"
        d="M75.0043 55.0475C75.1546 55.1578 75.1871 55.369 75.0769 55.5193C74.0686 56.8941 72.9033 58.0554 71.7232 59.2313C71.5982 59.3559 71.473 59.4806 71.3479 59.6058C71.2161 59.7376 71.0024 59.7376 70.8706 59.6058C70.7388 59.474 70.7388 59.2603 70.8706 59.1285C70.9955 59.0036 71.1198 58.8796 71.2436 58.7563C72.429 57.5747 73.557 56.4504 74.5325 55.1201C74.6428 54.9698 74.854 54.9373 75.0043 55.0475Z"
        fill="#22222A" />
    <path
        d="M133.2 34.0875L127.8 30.7125C134.82 29.6325 140.4 25.0875 142.312 22.95L149.4 26.325C146.7 30.645 137.475 33.3 133.2 34.0875Z"
        fill="white" />
    <path
        d="M144.337 12.4875L135.562 10.8C136.372 7.55999 132.75 3.37502 130.837 1.68755C137.047 1.14755 139.95 2.36255 140.625 3.03755L144.337 12.4875Z"
        fill="white" />
    <path
        d="M137.697 10.9105C137.697 9.26146 136.07 4.67514 131.732 1.96411H137.697L142.305 3.31963L146.372 12.8082C143.299 12.266 137.697 10.9105 137.697 10.9105Z"
        fill="white" fill-opacity="0.2" />
    <path fill-rule="evenodd" clip-rule="evenodd"
        d="M127.677 0.162753C127.774 0.00330426 127.981 -0.0476959 128.141 0.0488414C128.264 0.123209 128.387 0.197425 128.51 0.271656C130.857 1.68832 133.214 3.11053 134.64 5.70012C135.562 7.37525 135.901 9.04624 136.075 10.869C136.093 11.0545 135.957 11.2193 135.771 11.2369C135.585 11.2546 135.421 11.1185 135.403 10.933C135.234 9.15625 134.908 7.58764 134.048 6.0256C132.713 3.59924 130.502 2.26397 128.118 0.824029C128.01 0.758361 127.901 0.692475 127.791 0.626258C127.632 0.529721 127.581 0.322203 127.677 0.162753Z"
        fill="#22222A" />
    <path fill-rule="evenodd" clip-rule="evenodd"
        d="M134.614 10.4239C134.657 10.2426 134.839 10.1308 135.02 10.1741C135.965 10.4001 136.93 10.5964 137.908 10.7955C138.549 10.926 139.196 11.0576 139.847 11.1997C141.479 11.5555 143.11 11.971 144.634 12.5807C144.807 12.65 144.891 12.8464 144.822 13.0194C144.753 13.1925 144.556 13.2767 144.383 13.2074C142.911 12.6186 141.324 12.2125 139.703 11.8592C139.073 11.7217 138.433 11.5915 137.794 11.4613C136.804 11.2596 135.815 11.0581 134.863 10.8306C134.682 10.7873 134.57 10.6052 134.614 10.4239Z"
        fill="#22222A" />
    <path fill-rule="evenodd" clip-rule="evenodd"
        d="M140.124 2.66395C140.278 2.56031 140.488 2.60189 140.592 2.75681C142.839 6.11569 144.191 10.4357 144.904 13.2903C144.95 13.4711 144.84 13.6543 144.659 13.6995C144.478 13.7448 144.295 13.6348 144.25 13.454C143.541 10.6208 142.212 6.39233 140.031 3.13213C139.927 2.9772 139.969 2.76759 140.124 2.66395Z"
        fill="#22222A" />
    <path fill-rule="evenodd" clip-rule="evenodd"
        d="M132.263 2.03076C131.223 2.08762 130.072 2.1307 128.748 2.07002C128.562 2.06149 128.418 1.90363 128.426 1.71743C128.435 1.53123 128.593 1.3872 128.779 1.39573C130.07 1.4549 131.195 1.41313 132.226 1.35677C132.45 1.34451 132.671 1.33149 132.888 1.31867C133.664 1.27286 134.398 1.22952 135.107 1.23204C136.949 1.23858 138.653 1.5536 140.732 2.89825C140.888 2.99951 140.933 3.20846 140.832 3.36495C140.73 3.52144 140.521 3.56622 140.365 3.46496C138.414 2.20269 136.841 1.9132 135.105 1.90703C134.419 1.9046 133.713 1.94625 132.941 1.99178C132.721 2.00477 132.495 2.01808 132.263 2.03076Z"
        fill="#22222A" />
    <path fill-rule="evenodd" clip-rule="evenodd"
        d="M135.225 1.41187C135.292 1.23797 135.487 1.15141 135.661 1.21853C136.975 1.72567 138.307 2.65917 139.517 3.71138C140.73 4.76642 141.838 5.95594 142.703 6.99423C142.823 7.13742 142.803 7.35024 142.66 7.46957C142.517 7.5889 142.304 7.56955 142.185 7.42636C141.337 6.40855 140.254 5.24662 139.074 4.22073C137.891 3.19201 136.628 2.3151 135.418 1.84825C135.244 1.78114 135.158 1.58576 135.225 1.41187Z"
        fill="#22222A" />
    <path d="M118.067 84.7346L111.56 81.2102L119.422 79.3125L128.098 84.7346H118.067Z" fill="white" />
    <path fill-rule="evenodd" clip-rule="evenodd"
        d="M121.015 79.9106C116.321 79.9106 113.816 80.5503 110.732 82.011C110.564 82.0908 110.362 82.019 110.283 81.8505C110.203 81.6821 110.275 81.4808 110.443 81.401C113.626 79.8936 116.23 79.2356 121.015 79.2356C121.202 79.2356 121.353 79.3867 121.353 79.5731C121.353 79.7595 121.202 79.9106 121.015 79.9106Z"
        fill="#22222A" />
    <path fill-rule="evenodd" clip-rule="evenodd"
        d="M128.795 84.517C124.368 83.362 119.85 84.1018 115.416 85.3133C115.237 85.3624 115.051 85.2565 115.002 85.0767C114.953 84.8969 115.059 84.7113 115.239 84.6621C119.704 83.4421 124.363 82.6631 128.966 83.8639C129.146 83.9109 129.254 84.0953 129.207 84.2757C129.16 84.456 128.976 84.5641 128.795 84.517Z"
        fill="#22222A" />
    <path fill-rule="evenodd" clip-rule="evenodd"
        d="M111.926 80.8882C112.012 80.7226 112.215 80.6577 112.381 80.7433C114.547 81.8623 116.733 82.8934 118.946 83.9263C119.115 84.0051 119.188 84.2059 119.109 84.3748C119.03 84.5437 118.829 84.6168 118.661 84.5379C116.447 83.5049 114.25 82.4688 112.071 81.343C111.906 81.2574 111.841 81.0538 111.926 80.8882Z"
        fill="#22222A" />
    <path fill-rule="evenodd" clip-rule="evenodd"
        d="M118.502 79.2969C118.586 79.1305 118.789 79.0636 118.955 79.1475C122.389 80.8791 125.712 82.6631 128.951 84.7457C129.108 84.8465 129.153 85.0553 129.053 85.2121C128.952 85.3689 128.743 85.4143 128.586 85.3135C125.375 83.2492 122.076 81.4772 118.651 79.7503C118.485 79.6663 118.418 79.4634 118.502 79.2969Z"
        fill="#22222A" />
    <path fill-rule="evenodd" clip-rule="evenodd"
        d="M69.5365 67.8152C69.7032 67.7319 69.9059 67.7995 69.9893 67.9662C70.2186 68.4249 70.4485 68.8834 70.6783 69.342C74.0802 76.1291 77.489 82.9298 79.382 90.3564C79.4281 90.5371 79.319 90.7208 79.1384 90.7669C78.9577 90.8129 78.774 90.7038 78.7279 90.5232C76.8536 83.17 73.4761 76.431 70.0673 69.6294C69.8401 69.176 69.6127 68.7222 69.3856 68.268C69.3022 68.1013 69.3698 67.8986 69.5365 67.8152Z"
        fill="#22222A" />
    <path fill-rule="evenodd" clip-rule="evenodd"
        d="M75.7482 69.2172C75.9261 69.1614 76.1155 69.2604 76.1713 69.4382C76.887 71.7196 77.5834 74.0024 78.2794 76.2836C79.3485 79.7879 80.4165 83.2885 81.5515 86.7747C81.6092 86.952 81.5123 87.1424 81.3351 87.2001C81.1579 87.2578 80.9674 87.1609 80.9097 86.9837C79.7736 83.4941 78.7014 79.98 77.6303 76.4693C76.9346 74.189 76.2393 71.9101 75.5272 69.6403C75.4714 69.4624 75.5704 69.273 75.7482 69.2172Z"
        fill="#22222A" />
    <path fill-rule="evenodd" clip-rule="evenodd"
        d="M58.4585 71.7338C61.862 70.9484 65.3254 73.1248 67.4183 75.61C67.4771 75.6799 67.534 75.7599 67.5885 75.8479C68.0554 75.8658 68.5145 75.9519 68.9154 76.054C70.6632 76.4991 71.8094 77.3136 72.3448 78.4967C72.8745 79.6671 72.7663 81.113 72.2073 82.736C72.1466 82.9122 71.9545 83.0059 71.7783 82.9452C71.602 82.8845 71.5084 82.6924 71.5691 82.5162C72.1034 80.9648 72.1568 79.7183 71.7298 78.775C71.3087 77.8444 70.38 77.1235 68.7488 76.7081C68.4844 76.6408 68.2039 76.584 67.9216 76.5508C67.9889 76.7318 68.0494 76.9224 68.102 77.1157C68.2671 77.7223 68.3694 78.4072 68.3542 79.0036C68.3466 79.3016 68.3095 79.5908 68.2281 79.8419C68.1475 80.0906 68.0139 80.3309 67.7931 80.4893C67.3126 80.8338 66.6874 80.6415 66.0284 80.1507C65.5254 79.7762 65.0978 79.213 64.9163 78.592C64.7315 77.9595 64.8018 77.2541 65.3244 76.6662C65.7262 76.2142 66.2431 75.9883 66.7749 75.8964C64.7411 73.5576 61.5844 71.7052 58.6103 72.3915C58.4287 72.4334 58.2475 72.3202 58.2056 72.1386C58.1636 71.9569 58.2769 71.7757 58.4585 71.7338ZM67.1833 76.527C67.1685 76.528 67.1538 76.5291 67.139 76.5303C66.6143 76.573 66.1578 76.7446 65.8289 77.1146C65.4874 77.4988 65.4324 77.9517 65.5642 78.4026C65.6994 78.8651 66.0305 79.3107 66.4316 79.6094C67.0622 80.079 67.3163 80.0006 67.3997 79.9408C67.4609 79.8969 67.5304 79.8055 67.586 79.6339C67.6408 79.4646 67.6729 79.2449 67.6794 78.9864C67.6926 78.47 67.6028 77.8517 67.4507 77.293C67.3717 77.003 67.2796 76.7424 67.1833 76.527Z"
        fill="#22222A" />
    <path
        d="M149.083 25.821C151.58 28.0057 138.51 32.7793 133.63 34.2252L127.395 29.3453C130.223 29.4929 138.608 25.4017 142.305 22.8389C144.745 23.9233 146.914 23.9233 149.083 25.821Z"
        fill="white" />
    <path fill-rule="evenodd" clip-rule="evenodd"
        d="M127.064 30.2873C127.144 30.1193 127.346 30.0484 127.514 30.129C128.642 30.6697 129.673 31.3641 130.674 32.0441C130.707 32.0664 130.74 32.0887 130.772 32.111C131.745 32.7722 132.69 33.4144 133.698 33.9183C133.864 34.0017 133.932 34.2044 133.849 34.3711C133.765 34.5378 133.562 34.6054 133.396 34.522C132.347 33.9975 131.369 33.3325 130.407 32.6786C130.369 32.6532 130.332 32.6278 130.294 32.6024C129.289 31.9195 128.297 31.2533 127.222 30.7376C127.054 30.657 126.983 30.4554 127.064 30.2873Z"
        fill="#22222A" />
    <path fill-rule="evenodd" clip-rule="evenodd"
        d="M142.435 22.3654C142.572 22.491 142.582 22.7045 142.456 22.8422C137.404 28.3756 131.997 29.7154 126.445 30.9617C126.264 31.0026 126.083 30.8882 126.042 30.7064C126.001 30.5245 126.116 30.344 126.298 30.3031C131.833 29.0605 137.057 27.7552 141.958 22.387C142.084 22.2494 142.297 22.2397 142.435 22.3654Z"
        fill="#22222A" />
    <path fill-rule="evenodd" clip-rule="evenodd"
        d="M150.434 25.656C150.586 25.7629 150.623 25.9733 150.516 26.126C148.431 29.1057 145.213 30.9276 141.753 32.2048C139.131 33.1733 136.335 33.8396 133.758 34.4536C132.942 34.6481 132.148 34.8374 131.388 35.0293C131.208 35.075 131.024 34.9655 130.978 34.7848C130.933 34.6041 131.042 34.4206 131.223 34.3749C132.001 34.1784 132.807 33.9862 133.631 33.7898C136.199 33.1776 138.939 32.5246 141.52 31.5716C144.923 30.315 147.992 28.5557 149.963 25.739C150.07 25.5863 150.281 25.5491 150.434 25.656Z"
        fill="#22222A" />
    <path fill-rule="evenodd" clip-rule="evenodd"
        d="M141.411 22.3219C141.488 22.152 141.688 22.0766 141.857 22.1533C142.425 22.4099 142.991 22.6679 143.557 22.9255C146.544 24.2869 149.51 25.6383 152.593 26.7267C152.769 26.7888 152.861 26.9816 152.799 27.1573C152.737 27.3331 152.545 27.4253 152.369 27.3633C149.254 26.264 146.257 24.8982 143.27 23.5368C142.707 23.2799 142.143 23.0232 141.579 22.7684C141.41 22.6917 141.334 22.4917 141.411 22.3219Z"
        fill="#22222A" />
    <path fill-rule="evenodd" clip-rule="evenodd"
        d="M149.141 15.5818C149.308 15.4985 149.511 15.5661 149.594 15.7328C150.425 17.3949 150.073 19.1155 149.357 20.6823C148.818 21.8612 148.048 23.0037 147.369 24.0096C147.152 24.3318 146.944 24.6399 146.757 24.9308C146.655 25.0874 146.447 25.1324 146.29 25.0313C146.133 24.9302 146.088 24.7213 146.189 24.5647C146.392 24.2509 146.61 23.9274 146.834 23.5953C147.506 22.5987 148.23 21.5248 148.743 20.4017C149.423 18.9148 149.688 17.4307 148.99 16.0347C148.907 15.8679 148.974 15.6652 149.141 15.5818Z"
        fill="#22222A" />
    <path fill-rule="evenodd" clip-rule="evenodd"
        d="M147.683 14.4651C148.07 14.1623 148.596 13.9946 149.114 14.1154C149.387 14.1792 149.574 14.3456 149.69 14.5501C149.79 14.5495 149.89 14.5577 149.986 14.5755C150.335 14.6403 150.747 14.8669 150.791 15.3782C150.831 15.8353 150.657 16.3255 150.406 16.7238C150.155 17.1227 149.789 17.4865 149.377 17.657C149.064 17.7865 148.726 17.8186 148.473 17.5895C148.395 17.5193 148.34 17.4355 148.3 17.3469C148.117 17.2712 147.932 17.1828 147.765 17.0764C147.355 16.814 147.006 16.4095 147.006 15.7728C147.006 15.238 147.295 14.768 147.683 14.4651ZM149.635 16.6334C149.706 16.5517 149.774 16.4612 149.835 16.3637C150.039 16.0405 150.141 15.6976 150.119 15.4367C150.112 15.3557 150.063 15.2762 149.863 15.2392C149.862 15.2391 149.862 15.239 149.861 15.2389C149.864 15.2943 149.864 15.3491 149.863 15.4029C149.853 15.8598 149.733 16.3426 149.635 16.6334ZM148.902 14.7613C148.636 14.7197 148.341 14.8079 148.099 14.9969C147.839 15.2 147.681 15.4875 147.681 15.7728C147.681 16.1089 147.845 16.3261 148.129 16.5078C148.139 16.5141 148.149 16.5204 148.159 16.5266C148.174 16.2835 148.219 16.0066 148.294 15.7461C148.35 15.5487 148.427 15.3483 148.53 15.1731C148.62 15.0196 148.741 14.8675 148.902 14.7613ZM148.89 16.5763C148.892 16.5739 148.894 16.5715 148.897 16.5691C148.925 16.5408 148.947 16.515 148.962 16.4944C148.971 16.4813 148.976 16.4737 148.977 16.4715C149.06 16.2422 149.176 15.8014 149.187 15.4057C149.163 15.4347 149.138 15.4708 149.112 15.5151C149.084 15.5634 149.057 15.6176 149.032 15.6766C149.032 15.6963 149.031 15.7164 149.028 15.7365C149.018 15.7977 149.003 15.8739 148.988 15.9525C148.987 15.9597 148.986 15.9669 148.984 15.9741C148.967 16.0632 148.949 16.1603 148.932 16.262C148.914 16.3682 148.899 16.4746 148.89 16.5763Z"
        fill="#22222A" />
    <path fill-rule="evenodd" clip-rule="evenodd"
        d="M74.537 24.6286C73.5392 25.4121 72.9858 26.5264 73.3709 27.9538C73.5008 28.4352 73.6658 28.909 73.8378 29.391C73.8581 29.4477 73.8784 29.5046 73.8988 29.5616C74.0506 29.9854 74.2051 30.417 74.3367 30.8527C74.633 31.8342 74.8238 32.8696 74.624 33.9997C76.3453 35.0927 77.5088 36.3251 78.2508 37.6338C79.2441 39.3856 79.4634 41.2406 79.2956 43.0128C79.1281 44.781 78.5746 46.4777 78.0115 47.9276C77.7946 48.4862 77.5744 49.0126 77.374 49.4919C77.3144 49.6343 77.2566 49.7726 77.2011 49.9063C76.9563 50.4962 76.7602 50.9904 76.6478 51.3836C76.5966 51.5628 76.4098 51.6666 76.2306 51.6154C76.0514 51.5642 75.9476 51.3774 75.9988 51.1982C76.1235 50.762 76.3346 50.2332 76.5776 49.6476C76.6344 49.5107 76.6932 49.3703 76.7533 49.2264C76.9532 48.7484 77.1689 48.2329 77.3823 47.6833C77.9373 46.254 78.4649 44.6253 78.6236 42.9492C78.7819 41.2772 78.5722 39.5691 77.6636 37.9667C77.0117 36.8169 75.99 35.7043 74.4545 34.6938C74.1719 35.5877 73.6709 36.3319 72.9967 36.8671C72.1629 37.529 71.0842 37.8551 69.8762 37.768C68.7818 37.6891 67.4156 37.3965 66.3967 36.7464C65.8834 36.4189 65.4431 35.9907 65.1812 35.4385C64.9169 34.8812 64.8482 34.2261 65.0329 33.4753C65.2451 32.6121 65.7562 32.078 66.4324 31.8045C67.0868 31.5397 67.8703 31.5284 68.6405 31.6331C70.1837 31.8429 71.8299 32.5423 72.679 32.9403C73.1478 33.16 73.5869 33.3877 73.9978 33.6226C74.1035 32.7374 73.9475 31.899 73.6905 31.0478C73.5642 30.6297 73.4158 30.2151 73.2635 29.7896C73.2431 29.7326 73.2226 29.6754 73.2021 29.6179C73.0299 29.1355 72.8568 28.6394 72.7193 28.1296C72.2502 26.3913 72.953 25.0142 74.1202 24.0977C75.2714 23.1938 76.8849 22.7214 78.3379 22.7214C78.5243 22.7214 78.6754 22.8725 78.6754 23.0589C78.6754 23.2453 78.5243 23.3964 78.3379 23.3964C77.0106 23.3964 75.5507 23.8326 74.537 24.6286ZM73.8602 34.3233C73.4107 34.0575 72.9224 33.7999 72.3925 33.5515C71.5544 33.1586 69.9857 32.4972 68.5495 32.3019C67.8301 32.2041 67.1827 32.2291 66.6855 32.4302C66.21 32.6226 65.8488 32.984 65.6883 33.6365C65.5366 34.2536 65.6006 34.7476 65.7911 35.1493C65.9841 35.5562 66.3207 35.8972 66.7598 36.1773C67.6457 36.7426 68.8857 37.0199 69.9247 37.0948C70.979 37.1707 71.8869 36.8863 72.5771 36.3384C73.1756 35.8633 73.6254 35.178 73.8602 34.3233Z"
        fill="#22222A" />
    <path fill-rule="evenodd" clip-rule="evenodd"
        d="M80.0005 22.5086C80.1837 22.7656 80.2539 23.0966 80.1445 23.4561C80.0439 23.7866 79.8915 24.0513 79.6718 24.2104C79.4355 24.3815 79.1653 24.3987 78.9236 24.3103C78.6962 24.2272 78.5036 24.0564 78.3558 23.8603C78.3542 23.8582 78.3526 23.856 78.351 23.8539C78.223 23.8003 78.1032 23.7199 78.0064 23.6069C77.9909 23.5888 77.9762 23.5701 77.9625 23.551C77.8766 23.6608 77.7871 23.7954 77.6721 23.9683C77.656 23.9925 77.6393 24.0175 77.6221 24.0433C77.5187 24.1984 77.3092 24.2403 77.1541 24.1369C76.999 24.0335 76.9571 23.824 77.0605 23.6689C77.081 23.6381 77.1013 23.6075 77.1215 23.577C77.3058 23.2987 77.4812 23.034 77.7165 22.8299C77.7581 22.7938 77.801 22.7599 77.8457 22.7281C77.9366 22.3985 78.1549 22.1732 78.4268 22.058C78.7018 21.9415 79.0128 21.9438 79.2848 22.0213C79.5573 22.0989 79.8245 22.2615 80.0005 22.5086ZM78.7783 23.2666C79.0084 23.2787 79.2307 23.1675 79.32 23.0001C79.2833 22.9972 79.2389 22.9966 79.1878 22.999C79.1031 23.0031 79.0173 23.0146 78.947 23.0263C78.8543 23.0418 78.7716 23.0591 78.6974 23.0782C78.721 23.1449 78.7483 23.208 78.7783 23.2666ZM79.3518 22.9151C79.3519 22.915 79.3518 22.9158 79.3516 22.9175L79.3518 22.9151ZM79.4107 23.0176C79.4106 23.0176 79.4097 23.0172 79.4082 23.0164C79.41 23.0171 79.4107 23.0175 79.4107 23.0176Z"
        fill="#22222A" />
    <path fill-rule="evenodd" clip-rule="evenodd"
        d="M96.6907 2.10773C96.8314 2.23004 96.8462 2.44321 96.7239 2.58387C95.5812 3.89795 94.4237 5.25034 93.2815 6.58481C93.1653 6.72058 93.0493 6.85616 92.9334 6.9915C92.8122 7.1331 92.5992 7.14962 92.4576 7.02841C92.316 6.90719 92.2994 6.69414 92.4207 6.55254C92.5365 6.41719 92.6526 6.28157 92.7689 6.14574C93.9108 4.8116 95.07 3.45716 96.2146 2.14095C96.3369 2.00029 96.5501 1.98542 96.6907 2.10773Z"
        fill="white" />
    <path fill-rule="evenodd" clip-rule="evenodd"
        d="M94.3846 22.7669C94.4962 22.6176 94.7077 22.5869 94.857 22.6985C96.1737 23.6821 97.4554 24.6298 98.6371 25.494C98.7876 25.604 98.8204 25.8152 98.7103 25.9656C98.6003 26.1161 98.3892 26.1489 98.2387 26.0388C97.0549 25.1731 95.7714 24.2241 94.453 23.2393C94.3037 23.1277 94.2731 22.9162 94.3846 22.7669Z"
        fill="white" />
    <path fill-rule="evenodd" clip-rule="evenodd"
        d="M108.957 13.06C109.089 13.1918 109.089 13.4055 108.957 13.5373C107.591 14.9032 106.377 16.1556 105.219 17.3514C102.495 20.1627 100.075 22.6611 96.69 25.5841C96.5489 25.7059 96.3358 25.6903 96.214 25.5493C96.0921 25.4082 96.1077 25.1951 96.2488 25.0732C99.6097 22.1707 102 19.703 104.714 16.9017C105.876 15.7024 107.098 14.442 108.479 13.06C108.611 12.9282 108.825 12.9282 108.957 13.06Z"
        fill="white" />
    <path fill-rule="evenodd" clip-rule="evenodd"
        d="M95.1057 2.59767C95.2175 2.44855 95.429 2.41833 95.5782 2.53017C97.7299 4.14394 99.372 5.57698 101.02 7.0148C101.391 7.33899 101.763 7.66341 102.141 7.99021C104.195 9.76645 106.446 11.6255 109.862 13.9303C110.016 14.0345 110.057 14.2443 109.953 14.3988C109.848 14.5533 109.639 14.5941 109.484 14.4898C106.039 12.1652 103.766 10.2879 101.699 8.50081C101.318 8.17068 100.943 7.84407 100.57 7.51859C98.9241 6.08211 97.3032 4.66766 95.1732 3.07017C95.024 2.95833 94.9938 2.74678 95.1057 2.59767Z"
        fill="white" />
    <path fill-rule="evenodd" clip-rule="evenodd"
        d="M101.034 21.1879C100.857 21.1308 100.759 20.9407 100.816 20.7632L104.191 10.2837C104.248 10.1063 104.439 10.0087 104.616 10.0659C104.793 10.123 104.891 10.3132 104.834 10.4906L101.459 20.9702C101.402 21.1476 101.211 21.2451 101.034 21.1879ZM106.721 15.5088C106.543 15.4517 106.446 15.2615 106.503 15.0841L107.226 12.8388C107.283 12.6614 107.473 12.5639 107.651 12.621C107.828 12.6782 107.925 12.8683 107.868 13.0457L107.145 15.291C107.088 15.4685 106.898 15.566 106.721 15.5088Z"
        fill="white" />
    <path fill-rule="evenodd" clip-rule="evenodd"
        d="M96.8224 24.9588C96.645 24.9017 96.5475 24.7115 96.6046 24.5341L98.5611 18.4591C98.6183 18.2817 98.8084 18.1842 98.9858 18.2413C99.1633 18.2984 99.2608 18.4886 99.2036 18.666L97.2471 24.741C97.19 24.9184 96.9998 25.0159 96.8224 24.9588ZM100.518 13.4838C100.341 13.4267 100.243 13.2365 100.3 13.0591L101.713 8.67158C101.77 8.49416 101.961 8.39665 102.138 8.45379C102.315 8.51093 102.413 8.70108 102.356 8.8785L100.943 13.266C100.886 13.4434 100.695 13.5409 100.518 13.4838ZM97.7949 11.4588C97.6174 11.4017 97.5199 11.2115 97.5771 11.0341L99.0988 6.30908C99.1559 6.13166 99.3461 6.03415 99.5235 6.09129C99.7009 6.14843 99.7984 6.33858 99.7413 6.516L98.2196 11.241C98.1624 11.4184 97.9723 11.5159 97.7949 11.4588ZM94.6982 9.09629C94.5208 9.03915 94.4233 8.849 94.4804 8.67158L96.0696 3.73715C96.1267 3.55973 96.3169 3.46222 96.4943 3.51936C96.6717 3.5765 96.7692 3.76665 96.7121 3.94407L95.1229 8.8785C95.0658 9.05593 94.8756 9.15343 94.6982 9.09629Z"
        fill="white" />
    <path d="M92.0063 26.1277L80.0778 16.6391L91.4641 4.43945L104.206 14.4703L92.0063 26.1277Z"
        fill="url(#paint1_linear_575_90348)" />
    <path fill-rule="evenodd" clip-rule="evenodd"
        d="M90.6389 3.27985C90.7796 3.40216 90.7945 3.61533 90.6721 3.75599C89.5352 5.06342 88.3813 6.41163 87.2419 7.74283C84.0112 11.5175 80.8976 15.1554 78.6211 17.3391C78.4866 17.4682 78.273 17.4637 78.1439 17.3292C78.0149 17.1947 78.0193 16.9811 78.1538 16.852C80.4042 14.6932 83.4825 11.0967 86.7047 7.33213C87.8495 5.99469 89.0124 4.63602 90.1628 3.31307C90.2851 3.17241 90.4983 3.15754 90.6389 3.27985Z"
        fill="#22222A" />
    <path fill-rule="evenodd" clip-rule="evenodd"
        d="M77.2514 15.3508C77.3695 15.2065 77.5821 15.1853 77.7264 15.3034C81.4869 18.3823 88.6467 23.8214 92.5836 26.6648C92.7347 26.7739 92.7687 26.9849 92.6596 27.136C92.5505 27.2871 92.3395 27.3211 92.1884 27.212C88.2435 24.3629 81.0725 18.9153 77.2988 15.8257C77.1545 15.7076 77.1333 15.495 77.2514 15.3508Z"
        fill="#22222A" />
    <path fill-rule="evenodd" clip-rule="evenodd"
        d="M102.905 14.2322C103.037 14.364 103.037 14.5776 102.905 14.7094C101.539 16.0753 100.326 17.3277 99.167 18.5235C96.4432 21.3348 94.0227 23.8332 90.6381 26.7562C90.4971 26.878 90.2839 26.8624 90.1621 26.7214C90.0403 26.5803 90.0559 26.3672 90.1969 26.2453C93.5578 23.3428 95.9486 20.8751 98.6625 18.0738C99.8245 16.8745 101.046 15.6141 102.428 14.2322C102.559 14.1004 102.773 14.1004 102.905 14.2322Z"
        fill="#22222A" />
    <path fill-rule="evenodd" clip-rule="evenodd"
        d="M89.0538 3.76954C89.1656 3.62042 89.3772 3.5902 89.5263 3.70204C91.678 5.31582 93.3201 6.74886 94.9678 8.18668C95.3393 8.51086 95.711 8.83529 96.089 9.16208C98.1433 10.9383 100.394 12.7974 103.81 15.1022C103.964 15.2064 104.005 15.4162 103.901 15.5707C103.796 15.7252 103.587 15.7659 103.432 15.6617C99.9872 13.3371 97.7143 11.4598 95.6475 9.67268C95.2657 9.34256 94.8914 9.01595 94.5184 8.69047C92.8722 7.25398 91.2513 5.83954 89.1213 4.24204C88.9722 4.1302 88.9419 3.91866 89.0538 3.76954Z"
        fill="#22222A" />
    <path fill-rule="evenodd" clip-rule="evenodd"
        d="M95.1333 10.2776C95.2355 10.4336 95.1918 10.6428 95.0359 10.7449C93.0238 12.0627 91.8905 13.4572 91.2684 14.7461C90.6458 16.0359 90.5251 17.2405 90.5698 18.1926C90.6029 18.8971 90.7182 19.4209 90.7997 19.7911C90.8321 19.9379 90.8591 20.0606 90.8735 20.1608C90.8794 20.2013 90.8858 20.257 90.8823 20.3132C90.8805 20.3413 90.8754 20.3868 90.8564 20.437C90.8368 20.4886 90.7941 20.5661 90.7051 20.6199C90.5214 20.731 90.3495 20.6323 90.3225 20.6167L90.3222 20.6166C90.269 20.586 90.2229 20.5455 90.1895 20.514C90.0647 20.3964 89.861 20.1545 89.5644 19.8021C89.5467 19.781 89.5286 19.7596 89.5102 19.7378C89.1959 19.3645 88.9185 19.0091 88.6412 18.6537C87.8471 17.6363 87.0532 16.6189 85.3918 15.1824C85.2508 15.0605 85.2354 14.8474 85.3573 14.7064C85.4792 14.5654 85.6923 14.5499 85.8333 14.6718C87.5486 16.155 88.3922 17.2361 89.1945 18.2643C89.4612 18.6061 89.7233 18.9421 90.0115 19.2851C89.96 18.9758 89.9139 18.6138 89.8956 18.2243C89.8468 17.1864 89.9788 15.865 90.6605 14.4527C91.3426 13.0396 92.5652 11.5561 94.6661 10.1802C94.822 10.0781 95.0312 10.1217 95.1333 10.2776Z"
        fill="#22222A" />
    <path
        d="M63.9564 22.2727C62.4715 21.7374 58.6605 20.6133 58.2645 20.3992C57.4726 22.3262 58.5945 26.1981 59.2544 27.8932C60.5743 29.2314 63.7584 31.9614 62.9665 30.0344C62.1746 28.1073 63.2965 23.8785 63.9564 22.2727Z"
        fill="white" />
    <path fill-rule="evenodd" clip-rule="evenodd"
        d="M57.4353 19.8617C57.6197 19.8893 57.7467 20.0612 57.719 20.2455C57.2823 23.1569 57.9203 25.8457 59.2306 28.5285C59.3123 28.696 59.2429 28.8981 59.0754 28.9799C58.9079 29.0617 58.7058 28.9922 58.624 28.8247C57.2717 26.0558 56.5892 23.2276 57.0515 20.1454C57.0791 19.9611 57.251 19.834 57.4353 19.8617Z"
        fill="#22222A" />
    <path fill-rule="evenodd" clip-rule="evenodd"
        d="M63.4871 20.9153C63.6403 21.0214 63.6785 21.2316 63.5725 21.3849C61.6395 24.1769 61.6979 27.2333 62.4669 30.496C62.5097 30.6774 62.3973 30.8592 62.2159 30.9019C62.0344 30.9447 61.8527 30.8323 61.8099 30.6509C61.0225 27.3101 60.9255 24.0224 63.0175 21.0006C63.1236 20.8474 63.3338 20.8092 63.4871 20.9153Z"
        fill="#22222A" />
    <path fill-rule="evenodd" clip-rule="evenodd"
        d="M55.9124 19.4352C55.9774 19.2605 56.1717 19.1716 56.3464 19.2366C56.9616 19.4654 57.5831 19.6896 58.2073 19.9147C60.0483 20.5786 61.9114 21.2504 63.6949 22.0735C63.8641 22.1517 63.938 22.3522 63.8599 22.5214C63.7817 22.6907 63.5812 22.7645 63.412 22.6864C61.6574 21.8766 59.834 21.219 58.0004 20.5578C57.3711 20.3308 56.7405 20.1034 56.1111 19.8692C55.9364 19.8043 55.8475 19.6099 55.9124 19.4352Z"
        fill="#22222A" />
    <path fill-rule="evenodd" clip-rule="evenodd"
        d="M56.692 26.8675C56.7685 26.6976 56.9683 26.6218 57.1383 26.6983C58.9665 27.521 60.617 28.5367 62.2716 29.555C62.7549 29.8525 63.2386 30.1501 63.7271 30.4432C63.8869 30.5391 63.9388 30.7464 63.8429 30.9063C63.747 31.0661 63.5396 31.1179 63.3798 31.022C62.8768 30.7202 62.3838 30.4169 61.8949 30.116C60.2472 29.1022 58.6459 28.1169 56.8613 27.3138C56.6913 27.2373 56.6156 27.0375 56.692 26.8675Z"
        fill="#22222A" />
    <path
        d="M57.721 1.1509C56.2362 0.615609 54.4678 0.608746 51.2145 1.96423C55.01 5.21747 57.0611 6.2334 57.721 7.92848H62.0587C62.0587 7.92848 60.7031 4.67525 57.721 1.1509Z"
        fill="white" />
    <path fill-rule="evenodd" clip-rule="evenodd"
        d="M48.7172 1.31388C48.7836 1.13969 48.9786 1.05228 49.1527 1.11864C50.687 1.70312 52.3561 2.92596 53.7737 4.38218C55.1917 5.83871 56.39 7.5613 56.9551 9.17233C57.0168 9.34822 56.9242 9.54082 56.7483 9.60251C56.5724 9.66421 56.3798 9.57163 56.3181 9.39574C55.796 7.90709 54.6656 6.26595 53.2901 4.85304C51.9143 3.43981 50.3249 2.28749 48.9125 1.74942C48.7383 1.68306 48.6509 1.48806 48.7172 1.31388Z"
        fill="#22222A" />
    <path fill-rule="evenodd" clip-rule="evenodd"
        d="M55.9125 0.833495C55.9602 1.01368 55.8528 1.19842 55.6726 1.24612C53.9931 1.69071 52.3108 2.12523 50.6295 2.55947C50.1681 2.67865 49.7068 2.7978 49.2457 2.91713C49.0652 2.96383 48.8811 2.8554 48.8344 2.67494C48.7877 2.49449 48.8961 2.31035 49.0766 2.26366C49.5384 2.14415 50.0002 2.02488 50.4618 1.90564C52.1428 1.47147 53.8225 1.03761 55.4999 0.593595C55.6801 0.545898 55.8648 0.653305 55.9125 0.833495Z"
        fill="#22222A" />
    <path fill-rule="evenodd" clip-rule="evenodd"
        d="M54.7286 0.129C54.8437 -0.0175671 55.0559 -0.0430276 55.2025 0.0721319C58.5812 2.72689 60.3738 5.95097 61.466 8.49929C61.5394 8.67061 61.46 8.86902 61.2887 8.94245C61.1174 9.01587 60.919 8.93651 60.8455 8.76518C59.7779 6.27404 58.0424 3.16197 54.7854 0.602897C54.6389 0.487737 54.6134 0.275566 54.7286 0.129Z"
        fill="#22222A" />
    <path fill-rule="evenodd" clip-rule="evenodd"
        d="M62.3968 8.45356C59.7445 8.45356 57.1056 8.57335 54.447 8.71012C54.2609 8.7197 54.1022 8.57656 54.0926 8.39041C54.083 8.20426 54.2262 8.04559 54.4123 8.03602C57.072 7.89919 59.7258 7.77856 62.3968 7.77856C62.5832 7.77856 62.7343 7.92967 62.7343 8.11606C62.7343 8.30246 62.5832 8.45356 62.3968 8.45356Z"
        fill="#22222A" />
    <path
        d="M48.5036 75.9753C45.2504 74.0776 37.9306 73.2643 36.5751 72.9932L39.2861 70.5532L44.7082 71.9087C47.0577 73.8968 51.1062 77.4935 48.5036 75.9753Z"
        fill="white" />
    <path fill-rule="evenodd" clip-rule="evenodd"
        d="M47.8776 74.033C48.3343 74.2129 48.7843 74.39 49.2259 74.5598C49.3999 74.6266 49.4867 74.8219 49.4198 74.9959C49.353 75.1699 49.1577 75.2567 48.9837 75.1898C48.531 75.0158 48.0737 74.8358 47.6125 74.6542C46.1054 74.0608 44.556 73.4508 42.9828 72.9789C40.9322 72.3637 38.8757 71.9948 36.8822 72.2084C36.6968 72.2283 36.5305 72.0941 36.5106 71.9088C36.4908 71.7234 36.6249 71.5571 36.8102 71.5372C38.9307 71.3101 41.0855 71.7049 43.1767 72.3323C44.7797 72.8132 46.3656 73.4377 47.8776 74.033Z"
        fill="#22222A" />
    <path fill-rule="evenodd" clip-rule="evenodd"
        d="M41.1144 69.5074C41.2428 69.6425 41.2373 69.8562 41.1022 69.9845C39.6284 71.3847 38.836 71.806 36.9867 72.6536C36.8173 72.7312 36.617 72.6568 36.5393 72.4874C36.4617 72.3179 36.5361 72.1176 36.7055 72.0399C38.517 71.2097 39.237 70.8255 40.6373 69.4952C40.7724 69.3668 40.986 69.3723 41.1144 69.5074Z"
        fill="#22222A" />
    <path fill-rule="evenodd" clip-rule="evenodd"
        d="M39.5897 70.214C39.5897 70.0276 39.7408 69.8765 39.9272 69.8765C41.8855 69.8765 43.4943 70.2908 45.778 71.3565C45.9469 71.4353 46.02 71.6361 45.9411 71.8051C45.8623 71.974 45.6615 72.047 45.4926 71.9682C43.2712 70.9315 41.7607 70.5515 39.9272 70.5515C39.7408 70.5515 39.5897 70.4004 39.5897 70.214Z"
        fill="#22222A" />
    <path fill-rule="evenodd" clip-rule="evenodd"
        d="M44.663 70.9257C44.7935 70.7926 45.0071 70.7905 45.1402 70.921C46.9484 72.6936 48.8352 74.2916 50.8842 75.7715C51.0353 75.8806 51.0693 76.0916 50.9602 76.2427C50.8511 76.3938 50.6401 76.4278 50.489 76.3187C48.4118 74.8184 46.4992 73.1986 44.6677 71.403C44.5346 71.2725 44.5325 71.0588 44.663 70.9257Z"
        fill="#22222A" />
    <path d="M99.1998 74.3489L102.995 67.5713H110.857L99.1998 74.3489Z" fill="white" />
    <path fill-rule="evenodd" clip-rule="evenodd"
        d="M103.171 65.993C103.345 66.0585 103.434 66.253 103.368 66.4275C102.781 67.9943 101.972 69.4635 101.145 70.9007C101.008 71.1379 100.871 71.3741 100.734 71.6098C100.039 72.8086 99.352 73.9927 98.7733 75.2224C98.694 75.391 98.4929 75.4634 98.3242 75.384C98.1556 75.3047 98.0832 75.1036 98.1626 74.935C98.7547 73.6766 99.4588 72.4632 100.154 71.2643C100.29 71.0303 100.426 70.7969 100.56 70.5639C101.386 69.1295 102.169 67.7015 102.736 66.1905C102.802 66.016 102.996 65.9276 103.171 65.993Z"
        fill="#22222A" />
    <path fill-rule="evenodd" clip-rule="evenodd"
        d="M103.369 68.1407C102.806 68.1745 102.241 68.2084 101.676 68.2406C101.49 68.2512 101.33 68.1089 101.32 67.9228C101.309 67.7367 101.452 67.5772 101.638 67.5666C102.198 67.5347 102.759 67.501 103.321 67.4673C105.814 67.3177 108.315 67.1675 110.825 67.1675C111.011 67.1675 111.163 67.3186 111.163 67.505C111.163 67.6914 111.011 67.8425 110.825 67.8425C108.337 67.8425 105.861 67.9911 103.369 68.1407Z"
        fill="#22222A" />
    <path fill-rule="evenodd" clip-rule="evenodd"
        d="M110.504 67.2353C110.598 67.3959 110.545 67.6028 110.384 67.6973C109.156 68.4199 108.055 69.0406 107.024 69.6224C104.065 71.291 101.676 72.6384 98.4768 75.1452C98.3301 75.2601 98.118 75.2344 98.003 75.0877C97.888 74.9409 97.9138 74.7288 98.0605 74.6139C101.303 72.0733 103.746 70.6953 106.719 69.0186C107.746 68.4399 108.835 67.8255 110.042 67.1155C110.203 67.021 110.409 67.0746 110.504 67.2353Z"
        fill="#22222A" />
    <path d="M100.284 52.3895L94.3198 47.2386L114.653 37.2078L120.617 42.6298L100.284 52.3895Z" fill="white" />
    <path fill-rule="evenodd" clip-rule="evenodd"
        d="M96.7416 48.4871C96.8503 48.6385 96.8157 48.8494 96.6643 48.9581C93.7958 51.0176 90.4603 54.1404 88.2091 56.8685C85.5099 60.1396 83.9077 63.7039 84.7912 67.9005C85.0017 68.9007 85.3716 70.0087 85.9503 70.9392C86.0681 71.1287 86.194 71.3098 86.3283 71.4807C86.4674 69.3912 86.7202 67.5351 87.1423 66.2224C87.2983 65.7372 87.4816 65.3124 87.6995 64.9726C87.9165 64.6341 88.1808 64.3599 88.5064 64.2085C89.201 63.8853 89.9538 64.1982 90.7096 64.9386C91.5015 65.7143 91.77 66.9012 91.7852 68.0435C91.8006 69.196 91.5599 70.3757 91.2559 71.2182C91.0394 71.8183 90.6996 72.5086 90.1993 72.9973C89.6837 73.501 88.9853 73.7966 88.1195 73.5423C87.6794 73.4131 87.2823 73.2172 86.9247 72.9717C86.9033 73.489 86.8876 74.0178 86.8769 74.5541C86.7462 81.1197 87.3746 88.6269 87.5005 89.5285C87.5263 89.7131 87.3976 89.8836 87.213 89.9094C87.0284 89.9352 86.8578 89.8065 86.832 89.6219C86.7007 88.6815 86.0707 81.1385 86.202 74.5407C86.2163 73.8253 86.2394 73.119 86.2734 72.4317C85.9297 72.0931 85.6326 71.7064 85.3771 71.2957C84.7441 70.2779 84.3516 69.089 84.1307 68.0396C83.1881 63.5622 84.9212 59.7924 87.6885 56.4389C89.9765 53.6662 93.3545 50.5034 96.2706 48.4098C96.422 48.3011 96.6329 48.3357 96.7416 48.4871ZM86.964 72.1509C87.3564 72.4882 87.803 72.7459 88.3097 72.8947C88.8944 73.0664 89.3486 72.8847 89.7277 72.5144C90.1221 72.1292 90.4189 71.5491 90.621 70.9891C90.9002 70.2154 91.1245 69.1163 91.1103 68.0525C91.0959 66.9785 90.8403 66.0115 90.2372 65.4208C89.5372 64.735 89.0865 64.683 88.7911 64.8205C88.6216 64.8993 88.4441 65.0618 88.2677 65.3369C88.0922 65.6107 87.9305 65.9764 87.7849 66.429C87.3452 67.7964 87.0912 69.8308 86.964 72.1509Z"
        fill="#22222A" />
    <path fill-rule="evenodd" clip-rule="evenodd"
        d="M92.1072 52.1093C92.0432 52.1763 91.972 52.2261 91.9018 52.2534C91.8898 52.258 91.8775 52.2621 91.865 52.2657C91.849 52.1694 91.8366 52.0606 91.8291 51.9382C91.8203 51.7944 91.7226 51.6772 91.5928 51.6366C91.6703 51.5955 91.7586 51.5632 91.8573 51.5435C91.9133 51.5943 91.984 51.6932 92.0457 51.885C92.0711 51.9641 92.0914 52.0389 92.1072 52.1093ZM91.9796 50.85C91.9749 50.8486 91.9702 50.8471 91.9654 50.8457C91.6298 50.747 91.3106 50.8768 91.0936 51.0645C90.9836 51.1595 90.8873 51.2792 90.8162 51.4146C90.716 51.5376 90.6385 51.6758 90.5877 51.8238C90.4821 52.1321 90.498 52.4772 90.6725 52.7862C90.8463 53.0939 91.1578 53.3326 91.5848 53.4749C91.6585 53.4995 91.7348 53.4972 91.8028 53.4733C91.9383 53.546 92.0954 53.5736 92.2658 53.5232C92.577 53.4311 92.7402 53.1271 92.7989 52.8323C92.8316 52.6676 92.8391 52.4804 92.8178 52.2749C92.9513 52.0386 93.0333 51.745 92.9831 51.4713C92.9563 51.3251 92.8897 51.1776 92.7652 51.0608C92.6402 50.9434 92.48 50.8789 92.3046 50.8594C92.1931 50.847 92.0845 50.8442 91.9796 50.85Z"
        fill="#22222A" />
    <path fill-rule="evenodd" clip-rule="evenodd"
        d="M92.8127 45.7823C92.9215 45.631 93.1324 45.5965 93.2837 45.7054C94.5723 46.6322 95.6912 47.7386 96.7942 48.8293C97.1894 49.2201 97.5825 49.6088 97.9806 49.9865C97.9961 50.0012 98.012 50.0163 98.0283 50.0318C98.2835 50.2741 98.6388 50.6115 98.9746 50.8769C99.1545 51.0191 99.3145 51.129 99.4404 51.1924C99.4964 51.2206 99.5349 51.2341 99.5577 51.2396C99.7144 51.1875 99.8897 51.2571 99.9658 51.4091C100.049 51.5758 99.9815 51.7786 99.8148 51.8619C99.6804 51.9291 99.5423 51.9242 99.4384 51.9043C99.3329 51.884 99.2298 51.8422 99.1366 51.7952C98.9499 51.7011 98.748 51.5582 98.5561 51.4065C98.195 51.1211 97.8188 50.7638 97.567 50.5246C97.5494 50.5078 97.5324 50.4917 97.516 50.4762C97.0954 50.0771 96.6889 49.6752 96.2862 49.277C95.1952 48.1983 94.1318 47.1468 92.8896 46.2534C92.7383 46.1445 92.7038 45.9336 92.8127 45.7823ZM99.5738 51.2426C99.5738 51.2426 99.5733 51.2426 99.5722 51.2425L99.5738 51.2426Z"
        fill="#22222A" />
    <path fill-rule="evenodd" clip-rule="evenodd"
        d="M113.527 36.0806C113.601 36.2519 113.521 36.4503 113.35 36.5238C109.752 38.0658 106.277 39.8601 102.795 41.6692C102.667 41.7355 102.539 41.8018 102.412 41.8681C99.0603 43.6099 95.6978 45.3573 92.2261 46.8865C92.0556 46.9617 91.8564 46.8843 91.7812 46.7137C91.7061 46.5431 91.7835 46.3439 91.954 46.2688C95.4054 44.7486 98.7505 43.0102 102.107 41.2657C102.233 41.2005 102.358 41.1354 102.483 41.0703C105.963 39.2623 109.459 37.4567 113.084 35.9034C113.255 35.8299 113.454 35.9093 113.527 36.0806Z"
        fill="#22222A" />
    <path fill-rule="evenodd" clip-rule="evenodd"
        d="M120.084 41.0226C120.179 41.1824 120.128 41.3897 119.968 41.4856C117.547 42.9382 114.982 44.1515 112.442 45.3534C111.772 45.6703 111.104 45.9864 110.44 46.3059C108.016 47.4733 105.666 48.7312 103.306 49.9941C101.887 50.7534 100.465 51.5145 99.0213 52.2589C98.8556 52.3443 98.6521 52.2793 98.5667 52.1136C98.4812 51.9479 98.5463 51.7444 98.712 51.659C100.135 50.9251 101.549 50.1683 102.965 49.4105C105.337 48.1416 107.714 46.8697 110.147 45.6977C110.82 45.3736 111.495 45.0544 112.169 44.7356C114.705 43.5354 117.231 42.3405 119.621 40.9068C119.78 40.8109 119.988 40.8627 120.084 41.0226Z"
        fill="#22222A" />
    <path fill-rule="evenodd" clip-rule="evenodd"
        d="M113.168 35.5861C113.294 35.449 113.508 35.4403 113.645 35.5666C114.55 36.401 115.486 37.1846 116.429 37.9737C116.602 38.1186 116.775 38.2637 116.948 38.4093C118.063 39.3455 119.177 40.3013 120.232 41.3561C120.364 41.4879 120.364 41.7016 120.232 41.8334C120.1 41.9652 119.887 41.9652 119.755 41.8334C118.722 40.8008 117.627 39.861 116.514 38.9262C116.343 38.782 116.17 38.6378 115.998 38.4935C115.056 37.7045 114.106 36.9092 113.188 36.063C113.051 35.9367 113.042 35.7231 113.168 35.5861Z"
        fill="#22222A" />
    <path fill-rule="evenodd" clip-rule="evenodd"
        d="M123.705 35.7179C123.759 35.8964 123.657 36.0846 123.479 36.1382C122.3 36.4918 121.151 36.9848 120.001 37.517C119.636 37.6861 119.269 37.8598 118.901 38.0341C118.118 38.4049 117.329 38.7782 116.538 39.115C116.367 39.1881 116.168 39.1083 116.095 38.9368C116.022 38.7653 116.102 38.5671 116.274 38.494C117.052 38.1624 117.82 37.7989 118.596 37.4313C118.968 37.2556 119.341 37.0789 119.718 36.9044C120.876 36.3685 122.059 35.8593 123.285 35.4916C123.463 35.4381 123.651 35.5394 123.705 35.7179Z"
        fill="#22222A" />
    <path fill-rule="evenodd" clip-rule="evenodd"
        d="M125.273 34.4576C125.384 34.5702 125.446 34.7149 125.474 34.8687C125.511 35.0676 125.458 35.2504 125.381 35.3962C125.305 35.5413 125.196 35.6684 125.084 35.7728C124.865 35.9766 124.582 36.1438 124.359 36.2064C124.12 36.2731 123.894 36.2748 123.689 36.1997C123.485 36.125 123.337 35.9871 123.229 35.8374C123.185 35.7763 123.146 35.7104 123.111 35.6418C123.048 35.5914 122.993 35.5265 122.956 35.4438C122.908 35.338 122.904 35.2323 122.921 35.1399C122.9 35.067 122.881 34.9974 122.864 34.9338C122.861 34.9243 122.859 34.915 122.856 34.9058C122.808 34.7258 122.915 34.5407 123.095 34.4924C123.197 34.465 123.301 34.4875 123.381 34.5451C123.506 34.4595 123.649 34.3869 123.79 34.3396C123.949 34.2863 124.183 34.2394 124.394 34.3328C124.396 34.3338 124.398 34.3348 124.4 34.3358C124.553 34.2801 124.718 34.2481 124.881 34.2688C125.019 34.2863 125.159 34.343 125.273 34.4576ZM124.727 35.1675C124.751 35.1374 124.77 35.1087 124.784 35.0822C124.814 35.0248 124.812 34.9968 124.81 34.9895C124.805 34.9625 124.8 34.9467 124.796 34.9384C124.789 34.9376 124.782 34.9373 124.773 34.9375C124.771 34.9863 124.763 35.0329 124.754 35.0759C124.746 35.1067 124.738 35.1373 124.727 35.1675Z"
        fill="#22222A" />
    <path
        d="M81.4331 46.7639C81.7475 46.5518 84.4392 43.5922 85.7458 42.1389L86.5742 49.299C85.5193 52.679 83.16 59.493 82.162 59.7089C81.1641 59.9247 79.0684 58.9372 78.1453 58.4165C79.1103 54.6206 81.1188 46.976 81.4331 46.7639Z"
        fill="white" />
    <path d="M81.0359 59.4382L84.2892 50.2207L86.7291 49.6785L82.3915 59.7093L81.0359 59.4382Z" fill="#4FACDF" />
    <path fill-rule="evenodd" clip-rule="evenodd"
        d="M81.4727 46.5406C81.6543 46.5827 81.7673 46.7641 81.7253 46.9456C80.928 50.3844 79.9103 53.7644 78.8966 57.1312C78.7182 57.7238 78.5399 58.3159 78.3629 58.9079C78.3095 59.0865 78.1215 59.188 77.9429 59.1346C77.7643 59.0813 77.6628 58.8932 77.7162 58.7146C77.8939 58.12 78.0727 57.5261 78.2514 56.9326C79.2653 53.5652 80.2758 50.2088 81.0677 46.7932C81.1098 46.6116 81.2911 46.4985 81.4727 46.5406Z"
        fill="#22222A" />
    <path fill-rule="evenodd" clip-rule="evenodd"
        d="M86.3797 40.8439C86.5421 40.9355 86.5994 41.1413 86.5078 41.3037C84.9372 44.0879 82.8362 45.9523 80.5205 48.0073C80.3583 48.1513 80.195 48.2962 80.0308 48.4424C79.8915 48.5663 79.6782 48.554 79.5543 48.4148C79.4303 48.2755 79.4427 48.0622 79.5819 47.9383C79.741 47.7967 79.8987 47.6567 80.055 47.5179C82.3862 45.4483 84.4067 43.6545 85.9199 40.972C86.0115 40.8097 86.2174 40.7523 86.3797 40.8439Z"
        fill="#22222A" />
    <path fill-rule="evenodd" clip-rule="evenodd"
        d="M85.7087 40.4039C85.895 40.4097 86.0414 40.5655 86.0356 40.7518C86.0014 41.8488 86.2166 43.6404 86.4834 45.4654C86.6023 46.2789 86.7316 47.0999 86.8512 47.8595C86.9968 48.7834 87.128 49.6165 87.2087 50.2342C87.2328 50.419 87.1025 50.5884 86.9177 50.6126C86.7329 50.6367 86.5635 50.5065 86.5393 50.3216C86.4591 49.707 86.3307 48.8925 86.187 47.9808C86.0675 47.2225 85.9374 46.3969 85.8155 45.5631C85.5502 43.7485 85.3246 41.8975 85.3609 40.7308C85.3667 40.5445 85.5224 40.3981 85.7087 40.4039Z"
        fill="#22222A" />
    <path fill-rule="evenodd" clip-rule="evenodd"
        d="M87.4726 47.6732C87.6392 47.7567 87.7067 47.9594 87.6232 48.1261C85.6247 52.1164 84.0384 56.2133 82.5742 60.4362C82.5131 60.6123 82.3209 60.7056 82.1448 60.6445C81.9686 60.5834 81.8754 60.3912 81.9364 60.2151C83.4054 55.9784 85.0027 51.851 87.0197 47.8238C87.1031 47.6572 87.3059 47.5897 87.4726 47.6732Z"
        fill="#22222A" />
    <path fill-rule="evenodd" clip-rule="evenodd"
        d="M83.3184 59.7302C83.3376 59.9156 83.2028 60.0814 83.0174 60.1006C82.0573 60.1998 80.8444 59.9537 79.7776 59.5445C78.7204 59.1389 77.7212 58.5402 77.2446 57.8686C77.1367 57.7166 77.1725 57.5059 77.3245 57.398C77.4765 57.2902 77.6872 57.3259 77.7951 57.478C78.1538 57.9835 78.9981 58.5224 80.0194 58.9142C81.0313 59.3024 82.1321 59.5135 82.948 59.4292C83.1334 59.41 83.2993 59.5448 83.3184 59.7302Z"
        fill="#22222A" />
    <path fill-rule="evenodd" clip-rule="evenodd"
        d="M86.1214 44.4983C86.0858 44.6813 85.9087 44.8008 85.7257 44.7652C85.5263 44.7265 85.2202 44.6183 84.9415 44.5046C84.6606 44.3901 84.3649 44.2526 84.1873 44.1415C84.0293 44.0426 83.9814 43.8344 84.0803 43.6764C84.1792 43.5184 84.3875 43.4704 84.5455 43.5693C84.672 43.6485 84.9237 43.7684 85.1963 43.8796C85.4711 43.9916 85.7248 44.0775 85.8544 44.1026C86.0374 44.1382 86.1569 44.3153 86.1214 44.4983Z"
        fill="#22222A" />
    <path fill-rule="evenodd" clip-rule="evenodd"
        d="M86.8725 48.4872C86.8824 48.6734 86.7396 48.8323 86.5534 48.8422C86.4097 48.8498 86.2029 48.9 85.9423 48.9849C85.7179 49.058 85.4763 49.149 85.2286 49.2423C85.1942 49.2552 85.1598 49.2682 85.1252 49.2812C84.847 49.3858 84.5616 49.4911 84.3098 49.5625C84.0761 49.6287 83.8023 49.6876 83.5779 49.6401C83.4242 49.6075 83.2918 49.5263 83.1833 49.4386C83.073 49.3493 82.9691 49.2382 82.8725 49.12C82.6801 48.8845 82.4895 48.5872 82.311 48.2969C82.2561 48.2078 82.2025 48.1195 82.15 48.0328C82.0266 47.8296 81.9088 47.6355 81.793 47.4602C81.6232 47.2028 81.4887 47.0355 81.39 46.9596C81.2422 46.8459 81.2145 46.634 81.3281 46.4863C81.4418 46.3385 81.6537 46.3108 81.8014 46.4245C81.9998 46.577 82.1883 46.8337 82.3564 47.0883C82.4795 47.2749 82.6081 47.4867 82.7345 47.6949C82.7855 47.7789 82.8361 47.8623 82.8859 47.9433C83.0641 48.233 83.2342 48.4958 83.3952 48.6929C83.4754 48.7909 83.5464 48.8641 83.6079 48.9138C83.6712 48.9651 83.7073 48.9775 83.7178 48.9797C83.7612 48.9889 83.8869 48.9807 84.1257 48.913C84.3464 48.8505 84.6063 48.7551 84.8877 48.6494C84.9215 48.6367 84.9556 48.6238 84.99 48.6109C85.2358 48.5183 85.4931 48.4213 85.7332 48.3431C86.0019 48.2555 86.2799 48.1808 86.5176 48.1681C86.7037 48.1582 86.8626 48.3011 86.8725 48.4872Z"
        fill="#22222A" />
    <path fill-rule="evenodd" clip-rule="evenodd"
        d="M83.7555 48.99C83.9321 49.0494 84.0272 49.2408 83.9678 49.4175C82.3515 54.2234 81.5116 56.7906 80.6714 59.3583L80.6714 59.3584C80.6134 59.5356 80.4228 59.6322 80.2456 59.5742C80.0685 59.5163 79.9719 59.3257 80.0298 59.1485C80.8703 56.5799 81.7109 54.0108 83.328 49.2023C83.3874 49.0256 83.5788 48.9306 83.7555 48.99Z"
        fill="#22222A" />
    <path
        d="M44.4967 38.5199L38.4217 31.7699C37.8592 30.9824 36.9367 29.2724 37.7467 28.7324C38.7592 28.0574 43.4842 29.0699 46.1842 29.4074C48.3442 29.6774 49.3342 27.4949 49.5592 26.3699C51.4717 29.4074 55.8367 33.9974 55.2967 34.8074C54.6217 35.8199 50.9092 35.4824 46.1842 34.8074C42.4042 34.2674 43.9342 37.2824 44.4967 38.5199Z"
        fill="white" />
    <path fill-rule="evenodd" clip-rule="evenodd"
        d="M36.0989 29.4848C36.2307 29.353 36.4443 29.353 36.5761 29.4848C36.8805 29.7892 37.185 30.0932 37.4895 30.3972C43.0582 35.9564 48.6009 41.4897 52.4755 48.5234C52.5654 48.6867 52.5059 48.892 52.3427 48.9819C52.1794 49.0718 51.9741 49.0124 51.8842 48.8491C48.0576 41.9023 42.5784 36.4318 36.9939 30.8562C36.6958 30.5586 36.3973 30.2606 36.0989 29.9621C35.967 29.8303 35.967 29.6166 36.0989 29.4848Z"
        fill="#22222A" />
    <path fill-rule="evenodd" clip-rule="evenodd"
        d="M49.1132 23.6316C49.296 23.5951 49.4738 23.7136 49.5103 23.8964C49.7988 25.3388 49.7965 26.9437 49.0658 28.3581C48.5965 29.2667 47.7595 29.679 46.8863 29.8185C46.0202 29.9569 45.0853 29.8353 44.3319 29.6512C43.89 29.5433 43.4146 29.3849 42.9368 29.2258C42.9172 29.2193 42.8977 29.2128 42.8781 29.2062C42.3749 29.0387 41.8655 28.8708 41.3571 28.7455C40.3329 28.4931 39.3817 28.4326 38.5802 28.8493C38.3098 28.9899 38.1685 29.1847 38.0996 29.4156C38.0269 29.6596 38.0306 29.9619 38.0953 30.3043C38.2147 30.9361 38.5184 31.5987 38.7445 32.0918C38.7654 32.1374 38.7856 32.1815 38.805 32.224C38.8822 32.3936 38.8073 32.5937 38.6376 32.671C38.468 32.7482 38.2679 32.6733 38.1906 32.5036C38.1714 32.4615 38.1508 32.4166 38.1291 32.3693C37.9069 31.886 37.5678 31.1482 37.432 30.4297C37.357 30.0326 37.3372 29.6104 37.4528 29.2227C37.5723 28.822 37.8313 28.4779 38.2687 28.2505C39.2942 27.7172 40.4495 27.8267 41.5186 28.0901C42.0569 28.2228 42.5909 28.3992 43.0913 28.5658C43.1068 28.571 43.1222 28.5761 43.1376 28.5812C43.6259 28.7438 44.0778 28.8943 44.4921 28.9955C45.1997 29.1683 46.0366 29.2708 46.7798 29.152C47.5158 29.0343 48.1253 28.7081 48.4661 28.0483C49.1003 26.8206 49.1204 25.3886 48.8484 24.0288C48.8119 23.846 48.9304 23.6682 49.1132 23.6316Z"
        fill="#22222A" />
    <path fill-rule="evenodd" clip-rule="evenodd"
        d="M47.2787 36.0383C46.4447 35.8871 45.6678 35.8627 45.0336 36.1231C44.8386 36.2032 44.7344 36.3045 44.674 36.4065C44.611 36.5128 44.5787 36.649 44.5777 36.8226C44.5761 37.1368 44.6726 37.4857 44.7737 37.8514C44.7907 37.9127 44.8077 37.9745 44.8245 38.0367C44.8731 38.2167 44.7666 38.4019 44.5866 38.4505C44.4066 38.499 44.2214 38.3925 44.1728 38.2125C44.1588 38.1606 44.1434 38.1055 44.1274 38.048C44.0274 37.6903 43.9005 37.2359 43.9027 36.819C43.9041 36.5673 43.951 36.3026 44.0933 36.0624C44.2382 35.8177 44.4655 35.6268 44.7772 35.4988C45.5935 35.1635 46.5281 35.2162 47.3991 35.3741C47.9492 35.4739 48.5198 35.6266 49.0348 35.7645C49.3213 35.8412 49.5906 35.9132 49.8295 35.969C50.3893 36.0997 51.5702 36.3083 52.7401 36.3792C53.3251 36.4147 53.8965 36.415 54.3809 36.3576C54.8776 36.2987 55.231 36.1846 55.4261 36.0319C55.5729 35.917 55.785 35.9429 55.8999 36.0897C56.0147 36.2365 55.9889 36.4486 55.8421 36.5635C55.4962 36.8342 54.9879 36.9654 54.4604 37.0279C53.9207 37.0919 53.3053 37.0897 52.6993 37.053C51.487 36.9795 50.2682 36.7646 49.6761 36.6263C49.3927 36.5602 49.1041 36.4826 48.8093 36.4033C48.3179 36.2712 47.8092 36.1345 47.2787 36.0383Z"
        fill="#22222A" />
    <path fill-rule="evenodd" clip-rule="evenodd"
        d="M48.3595 26.0889C48.5146 25.9856 48.7241 26.0275 48.8275 26.1826C49.4312 27.0881 49.9825 27.9397 50.5029 28.7437C52.3277 31.5626 53.7738 33.7966 55.7744 35.721C55.9087 35.8502 55.9129 36.0638 55.7836 36.1982C55.6544 36.3325 55.4408 36.3367 55.3064 36.2074C53.2444 34.2239 51.744 31.9053 49.91 29.0711C49.3949 28.2751 48.8535 27.4384 48.2659 26.557C48.1625 26.4019 48.2044 26.1923 48.3595 26.0889Z"
        fill="#22222A" />
    <defs>
        <linearGradient id="paint0_linear_575_90348" x1="108.225" y1="77.6251" x2="57.2623" y2="105.3"
            gradientUnits="userSpaceOnUse">
            <stop offset="0.123566" stop-color="#8FD7FE" />
            <stop offset="0.528827" stop-color="#4FACDF" />
        </linearGradient>
        <linearGradient id="paint1_linear_575_90348" x1="115.987" y1="15.1875" x2="119.225" y2="-10.5191"
            gradientUnits="userSpaceOnUse">
            <stop stop-color="#8FD7FE" />
            <stop offset="0.640464" stop-color="#4FACDF" />
        </linearGradient>
    </defs>
</svg>