<svg width="50" height="50" viewBox="0 0 50 50" fill="none" xmlns="http://www.w3.org/2000/svg">
<g clip-path="url(#clip0_235_37461)">
<path d="M14.4263 21.3933C14.4263 21.9887 14.4908 22.4715 14.6036 22.8255C14.7326 23.1795 14.8938 23.5657 15.1194 23.9841C15.2 24.1128 15.2322 24.2416 15.2322 24.3542C15.2322 24.5151 15.1355 24.6761 14.926 24.837L13.9105 25.5128C13.7655 25.6094 13.6204 25.6577 13.4915 25.6577C13.3303 25.6577 13.1691 25.5772 13.0079 25.4324C12.7822 25.191 12.5888 24.9335 12.4276 24.6761C12.2665 24.4025 12.1053 24.0967 11.928 23.7266C10.6707 25.2071 9.09113 25.9473 7.18915 25.9473C5.83521 25.9473 4.75527 25.5611 3.96547 24.7887C3.17567 24.0163 2.77271 22.9864 2.77271 21.699C2.77271 20.3312 3.25626 19.2209 4.23948 18.3841C5.22271 17.5473 6.5283 17.1289 8.18849 17.1289C8.73652 17.1289 9.30067 17.1772 9.89705 17.2577C10.4934 17.3381 11.1059 17.4669 11.7507 17.6117V16.437C11.7507 15.214 11.4928 14.3611 10.9931 13.8623C10.4773 13.3634 9.60692 13.122 8.3658 13.122C7.80165 13.122 7.22139 13.1864 6.62501 13.3312C6.02863 13.4761 5.44836 13.6531 4.88422 13.8784C4.62632 13.991 4.4329 14.0554 4.32007 14.0876C4.20724 14.1197 4.12665 14.1358 4.06218 14.1358C3.83652 14.1358 3.72369 13.9749 3.72369 13.637V12.8485C3.72369 12.591 3.75593 12.3979 3.83652 12.2853C3.91711 12.1726 4.06218 12.06 4.28784 11.9473C4.85198 11.6577 5.52895 11.4163 6.31876 11.2232C7.10856 11.014 7.94672 10.9174 8.83323 10.9174C10.7513 10.9174 12.1536 11.3519 13.0563 12.2209C13.9428 13.0899 14.3941 14.4094 14.3941 16.1795V21.3933H14.4263ZM7.88224 23.8393C8.41415 23.8393 8.96218 23.7427 9.54244 23.5496C10.1227 23.3565 10.6385 23.0025 11.0737 22.5197C11.3316 22.214 11.525 21.8761 11.6217 21.4899C11.7184 21.1036 11.7829 20.637 11.7829 20.0899V19.414C11.3155 19.3013 10.8158 19.2048 10.3 19.1404C9.78422 19.0761 9.28455 19.0439 8.78488 19.0439C7.70494 19.0439 6.91514 19.2531 6.38323 19.6876C5.85132 20.122 5.59343 20.7335 5.59343 21.5381C5.59343 22.2944 5.78685 22.8577 6.18981 23.2439C6.57665 23.6462 7.1408 23.8393 7.88224 23.8393ZM20.8253 25.5772C20.5352 25.5772 20.3418 25.5289 20.2128 25.4163C20.0839 25.3197 19.9711 25.0944 19.8744 24.7887L16.0865 12.3496C15.9898 12.0278 15.9415 11.8186 15.9415 11.7059C15.9415 11.4485 16.0704 11.3036 16.3283 11.3036H17.9079C18.2142 11.3036 18.4237 11.3519 18.5365 11.4646C18.6655 11.5611 18.7622 11.7864 18.8589 12.0922L21.5668 22.745L24.0813 12.0922C24.1618 11.7703 24.2586 11.5611 24.3875 11.4646C24.5165 11.368 24.7421 11.3036 25.0322 11.3036H26.3217C26.628 11.3036 26.8375 11.3519 26.9665 11.4646C27.0954 11.5611 27.2082 11.7864 27.2727 12.0922L29.8194 22.8738L32.6079 12.0922C32.7046 11.7703 32.8174 11.5611 32.9303 11.4646C33.0592 11.368 33.2688 11.3036 33.5589 11.3036H35.0579C35.3158 11.3036 35.4609 11.4324 35.4609 11.7059C35.4609 11.7864 35.4447 11.8669 35.4286 11.9634C35.4125 12.06 35.3803 12.1887 35.3158 12.3657L31.4313 24.8048C31.3345 25.1266 31.2217 25.3358 31.0928 25.4324C30.9638 25.5289 30.7543 25.5933 30.4803 25.5933H29.0941C28.7878 25.5933 28.5783 25.545 28.4494 25.4324C28.3204 25.3197 28.2076 25.1105 28.1431 24.7887L25.6447 14.4094L23.1625 24.7726C23.0819 25.0944 22.9852 25.3036 22.8563 25.4163C22.7273 25.5289 22.5017 25.5772 22.2115 25.5772H20.8253ZM41.5375 26.0117C40.6994 26.0117 39.8612 25.9151 39.0553 25.722C38.2494 25.5289 37.6207 25.3197 37.2017 25.0784C36.9438 24.9335 36.7665 24.7726 36.702 24.6278C36.6375 24.483 36.6053 24.322 36.6053 24.1772V23.3565C36.6053 23.0186 36.7342 22.8577 36.976 22.8577C37.0727 22.8577 37.1694 22.8738 37.2661 22.9059C37.3628 22.9381 37.5079 23.0025 37.6691 23.0669C38.2171 23.3082 38.8135 23.5013 39.4421 23.6301C40.0869 23.7588 40.7155 23.8232 41.3602 23.8232C42.3757 23.8232 43.1655 23.6462 43.7135 23.2921C44.2615 22.9381 44.5517 22.4232 44.5517 21.7634C44.5517 21.3128 44.4066 20.9427 44.1165 20.637C43.8263 20.3312 43.2783 20.0577 42.4885 19.8002L40.1513 19.0761C38.9747 18.7059 38.1043 18.1588 37.5724 17.4347C37.0405 16.7266 36.7665 15.9381 36.7665 15.1013C36.7665 14.4255 36.9115 13.8301 37.2017 13.3151C37.4918 12.8002 37.8786 12.3496 38.3622 11.9956C38.8457 11.6255 39.3938 11.3519 40.0385 11.1588C40.6832 10.9657 41.3602 10.8853 42.0694 10.8853C42.424 10.8853 42.7947 10.9013 43.1494 10.9496C43.5201 10.9979 43.8586 11.0623 44.197 11.1266C44.5194 11.2071 44.8257 11.2876 45.1158 11.3841C45.4059 11.4807 45.6316 11.5772 45.7928 11.6738C46.0184 11.8025 46.1796 11.9312 46.2763 12.0761C46.373 12.2048 46.4214 12.3818 46.4214 12.6071V13.3634C46.4214 13.7013 46.2924 13.8784 46.0507 13.8784C45.9217 13.8784 45.7122 13.814 45.4382 13.6853C44.5194 13.2669 43.4878 13.0577 42.3434 13.0577C41.4247 13.0577 40.6994 13.2025 40.1997 13.5082C39.7 13.814 39.4421 14.2807 39.4421 14.9404C39.4421 15.391 39.6033 15.7772 39.9257 16.083C40.248 16.3887 40.8444 16.6944 41.6987 16.968L43.9875 17.6922C45.148 18.0623 45.9862 18.5772 46.4859 19.237C46.9855 19.8967 47.2273 20.6531 47.2273 21.4899C47.2273 22.1818 47.0822 22.8094 46.8082 23.3565C46.5181 23.9036 46.1313 24.3864 45.6316 24.7726C45.1319 25.1749 44.5355 25.4646 43.8424 25.6738C43.1171 25.899 42.3596 26.0117 41.5375 26.0117Z" fill="#252F3E"/>
<path fill-rule="evenodd" clip-rule="evenodd" d="M44.5838 33.8323C39.2809 37.7427 31.5763 39.8185 24.9516 39.8185C15.6674 39.8185 7.30192 36.3909 0.983499 30.6944C0.483828 30.2438 0.935144 29.6323 1.53153 29.9863C8.36574 33.945 16.7957 36.3427 25.5157 36.3427C31.399 36.3427 37.8625 35.1197 43.8102 32.6093C44.6967 32.207 45.4542 33.1886 44.5838 33.8323Z" fill="#FF9900"/>
<path fill-rule="evenodd" clip-rule="evenodd" d="M46.7921 31.322C46.1151 30.4531 42.3112 30.9037 40.5865 31.1128C40.0707 31.1772 39.9901 30.7266 40.4576 30.3887C43.4878 28.2646 48.4684 28.8761 49.0487 29.5841C49.629 30.3083 48.8875 35.2807 46.0507 37.6623C45.6155 38.0324 45.1964 37.8393 45.3898 37.3565C46.0345 35.7634 47.4691 32.1749 46.7921 31.322Z" fill="#FF9900"/>
</g>
<defs>
<clipPath id="clip0_235_37461">
<rect width="49" height="29.2874" fill="white" transform="translate(0.5 10.7083)"/>
</clipPath>
</defs>
</svg>
