<svg width="48" height="48" viewBox="0 0 48 48" fill="none" xmlns="http://www.w3.org/2000/svg">
<g clip-path="url(#clip0_189_43564)">
<path fill-rule="evenodd" clip-rule="evenodd" d="M14.2084 41.6249C14.2084 39.4618 15.9619 37.7083 18.125 37.7083C20.2882 37.7083 22.0417 39.4618 22.0417 41.6249C22.0417 43.788 20.2882 45.5416 18.125 45.5416C15.9619 45.5416 14.2084 43.788 14.2084 41.6249Z" fill="#0278D5"/>
<path fill-rule="evenodd" clip-rule="evenodd" d="M35.75 41.6249C35.75 39.4618 37.5036 37.7083 39.6667 37.7083C41.8298 37.7083 43.5833 39.4618 43.5833 41.6249C43.5833 43.788 41.8298 45.5416 39.6667 45.5416C37.5036 45.5416 35.75 43.788 35.75 41.6249Z" fill="#0278D5"/>
<path fill-rule="evenodd" clip-rule="evenodd" d="M0.5 2.45833C0.5 1.37678 1.37678 0.5 2.45833 0.5H10.2917C11.2251 0.5 12.0287 1.15875 12.2119 2.074L13.8567 10.2917H45.5417C46.1253 10.2917 46.6785 10.552 47.0506 11.0017C47.4226 11.4514 47.5747 12.0435 47.4653 12.6168L44.3292 29.0619C44.0606 30.4144 43.3248 31.6292 42.2507 32.4938C41.182 33.3541 39.8461 33.8131 38.4747 33.7917H19.4736C18.1022 33.8131 16.7663 33.3541 15.6976 32.4938C14.624 31.6295 13.8884 30.4153 13.6195 29.0636C13.6194 29.063 13.6196 29.0641 13.6195 29.0636L10.348 12.7184C10.3348 12.6644 10.3237 12.6094 10.3151 12.5537L8.68645 4.41667H2.45833C1.37678 4.41667 0.5 3.53989 0.5 2.45833ZM14.6406 14.2083L17.4608 28.2989C17.5504 28.7497 17.7956 29.1547 18.1536 29.4429C18.5116 29.7311 18.9596 29.8842 19.4191 29.8754L19.4567 29.875H38.4917L38.5292 29.8754C38.9887 29.8842 39.4367 29.7311 39.7947 29.4429C40.1511 29.156 40.3957 28.7535 40.4863 28.3052L43.1746 14.2083H14.6406Z" fill="#0278D5"/>
</g>
<defs>
<clipPath id="clip0_189_43564">
<rect width="47" height="47" fill="white" transform="translate(0.5 0.5)"/>
</clipPath>
</defs>
</svg>
