<svg width="50" height="50" viewBox="0 0 50 50" fill="none" xmlns="http://www.w3.org/2000/svg">
<g clip-path="url(#clip0_235_37663)">
<path d="M31.5921 15.4423H33.0873L37.3471 11.1825L37.5566 9.37504C29.6306 2.37944 17.531 3.13322 10.5354 11.0592C8.59033 13.261 7.17929 15.8798 6.41113 18.7141C6.88559 18.519 7.41139 18.4882 7.90638 18.6238L16.4239 17.2189C16.4239 17.2189 16.8573 16.5021 17.0812 16.5473C20.8706 12.3861 27.248 11.9013 31.6229 15.4423H31.5921Z" fill="#EA4335"/>
<path d="M43.4141 18.7141C42.4344 15.1095 40.4257 11.8685 37.6303 9.3894L31.6535 15.3663C34.1778 17.4284 35.6155 20.5359 35.5539 23.7955V24.8574C38.493 24.8574 40.8734 27.2399 40.8734 30.177C40.8734 33.1161 38.4909 35.4966 35.5539 35.4966H24.9127L23.8508 36.5728V42.9543L24.9127 44.0162H35.5539C41.6539 44.0634 47.0659 40.1097 48.8774 34.2848C50.6848 28.4579 48.4666 22.1318 43.4141 18.7141Z" fill="#4285F4"/>
<path d="M14.2571 43.9563H24.8983V35.4388H14.2571C13.4992 35.4388 12.7495 35.2765 12.0594 34.9602L10.5642 35.4223L6.27566 39.6821L5.90186 41.1774C8.30696 42.993 11.242 43.9686 14.2571 43.9563Z" fill="#34A853"/>
<path d="M14.257 16.3233C8.34591 16.3582 3.11051 20.1436 1.22502 25.7446C-0.660463 31.3456 1.21886 37.5278 5.90382 41.1304L12.0758 34.9584C9.39751 33.7486 8.2083 30.598 9.41805 27.9197C10.6278 25.2414 13.7785 24.0522 16.4568 25.2619C17.6357 25.7959 18.5805 26.7407 19.1145 27.9197L25.2865 21.7477C22.6596 18.3156 18.5785 16.3089 14.257 16.3233Z" fill="#FBBC05"/>
</g>
<defs>
<clipPath id="clip0_235_37663">
<rect width="49" height="39.4329" fill="white" transform="translate(0.5 4.58325)"/>
</clipPath>
</defs>
</svg>
