<svg width="50" height="50" viewBox="0 0 50 50" fill="none" xmlns="http://www.w3.org/2000/svg">
<path d="M29.1478 27.4139C29.0879 27.4021 29.0268 27.3974 28.9657 27.4001C28.8603 27.4057 28.7571 27.4325 28.6623 27.4789C28.4783 27.5677 28.3356 27.7241 28.2641 27.9156C28.1926 28.107 28.1977 28.3186 28.2783 28.5064L28.2728 28.5142L30.0888 32.9017C31.8263 31.793 33.1447 30.1368 33.8357 28.195L29.1559 27.4041L29.1478 27.4139ZM21.8662 28.0357C21.8268 27.8628 21.7305 27.708 21.5928 27.5963C21.455 27.4846 21.2837 27.4223 21.1064 27.4195C21.054 27.4188 21.0017 27.4235 20.9503 27.4333L20.9424 27.4237L16.3033 28.2112C16.9999 30.1377 18.3129 31.7805 20.0384 32.8846L21.8362 28.5404L21.8221 28.5234C21.8885 28.3697 21.9039 28.1988 21.8662 28.0357ZM25.7515 29.7393C25.6837 29.613 25.5829 29.5075 25.4599 29.434C25.3368 29.3604 25.1961 29.3217 25.0528 29.3219C24.9095 29.322 24.7689 29.3611 24.646 29.435C24.5231 29.5088 24.4226 29.6146 24.3551 29.741H24.3513L22.07 33.8663C23.7034 34.4225 25.4595 34.5128 27.1414 34.1272C27.4533 34.0562 27.758 33.971 28.0554 33.8717L25.7687 29.7391L25.7515 29.7393ZM32.9735 20.1566L29.4634 23.2982L29.4653 23.3082C29.3575 23.4025 29.2772 23.5242 29.233 23.6605C29.1887 23.7967 29.1822 23.9424 29.2141 24.082C29.246 24.2216 29.315 24.35 29.414 24.4536C29.513 24.5571 29.6382 24.6319 29.7762 24.6701L29.7805 24.689L34.327 25.9987C34.5235 23.956 34.0483 21.905 32.9735 20.157V20.1566ZM26.4523 20.5086C26.4589 20.6517 26.5041 20.7903 26.5832 20.9097C26.6622 21.0292 26.7721 21.125 26.9012 21.187C27.0304 21.249 27.1739 21.2749 27.3165 21.262C27.4592 21.249 27.5956 21.1976 27.7115 21.1134L27.7253 21.1191L31.5661 18.3959C30.1041 16.9639 28.2121 16.0519 26.1812 15.8L26.448 20.5073L26.4523 20.5086ZM22.3849 21.1306C22.5008 21.2148 22.6373 21.2661 22.78 21.2789C22.9226 21.2916 23.0661 21.2655 23.1951 21.2033C23.3241 21.141 23.4338 21.0449 23.5125 20.9252C23.5913 20.8056 23.6361 20.6668 23.6422 20.5237L23.6618 20.5145L23.9286 15.7998C23.6065 15.8385 23.2866 15.8937 22.9701 15.9651C21.2865 16.3435 19.7422 17.185 18.5116 18.3946L22.3775 21.1351L22.3849 21.1306ZM20.324 24.6931C20.4624 24.6553 20.5879 24.5807 20.6872 24.4772C20.7865 24.3737 20.8558 24.2452 20.8878 24.1053C20.9197 23.9655 20.9131 23.8196 20.8687 23.6832C20.8242 23.5469 20.7436 23.4251 20.6353 23.331L20.6392 23.3123L17.1097 20.1555C16.033 21.908 15.5708 23.9693 15.7962 26.0138L20.3204 24.7084L20.324 24.6931ZM23.7521 26.0798L25.0541 26.7059L26.3522 26.0811L26.6746 24.6796L25.7762 23.5561H24.3302L23.4292 24.6779L23.7521 26.0798Z" fill="#326CE5"/>
<path d="M46.5779 28.8411L42.8678 12.7261C42.7681 12.3092 42.577 11.9196 42.3084 11.5855C42.0399 11.2514 41.7005 10.981 41.3148 10.794L26.2973 3.62393C25.908 3.43819 25.4822 3.3418 25.051 3.3418C24.6197 3.3418 24.1939 3.43819 23.8047 3.62393L8.79015 10.7978C8.40435 10.9848 8.06487 11.255 7.79622 11.5891C7.52757 11.9232 7.33645 12.3128 7.23667 12.7297L3.5326 28.8443C3.44124 29.2517 3.44095 29.6741 3.53175 30.0816C3.55849 30.2057 3.59342 30.3279 3.63631 30.4474C3.7088 30.6514 3.80477 30.8462 3.9223 31.0279C3.9732 31.1057 4.02686 31.1813 4.08521 31.2545L14.4781 44.176C14.5234 44.2322 14.5735 44.2835 14.6231 44.3357C14.7862 44.5093 14.9703 44.6619 15.1712 44.7899C15.4253 44.9498 15.7023 45.0702 15.9926 45.147C16.2306 45.2123 16.4762 45.2461 16.723 45.2477H16.8846L33.3892 45.2439C33.4895 45.2435 33.5897 45.2376 33.6894 45.2262C33.8324 45.2101 33.974 45.1832 34.113 45.1457C34.2126 45.1195 34.3108 45.0881 34.4071 45.0516C34.4822 45.0229 34.5572 44.9941 34.6296 44.9594C34.738 44.9075 34.8432 44.849 34.9446 44.7844C35.2061 44.6199 35.4389 44.4138 35.6339 44.1742L35.9508 43.7803L46.0231 31.2503C46.2162 31.0082 46.3679 30.7358 46.472 30.4442C46.5155 30.3243 46.5511 30.2017 46.5785 30.0771C46.6695 29.6697 46.6694 29.2484 46.5779 28.8411ZM31.0011 35.1087C31.0433 35.2327 31.0933 35.3538 31.1508 35.4714C31.059 35.6321 31.034 35.8226 31.0812 36.0016C31.2997 36.502 31.5666 36.9799 31.8781 37.4284C32.0524 37.6577 32.2133 37.8969 32.36 38.1448C32.3962 38.2118 32.4435 38.3158 32.4777 38.3867C32.5424 38.4948 32.5838 38.6152 32.5991 38.7403C32.6145 38.8653 32.6035 38.9922 32.5669 39.1128C32.5302 39.2333 32.4688 39.3449 32.3864 39.4403C32.3041 39.5356 32.2027 39.6127 32.0888 39.6666C31.9749 39.7204 31.851 39.7498 31.7251 39.7529C31.5991 39.756 31.4739 39.7327 31.3575 39.6845C31.2411 39.6363 31.1361 39.5643 31.0492 39.473C30.9623 39.3818 30.8954 39.2734 30.8529 39.1548C30.8186 39.0845 30.7709 38.9908 30.7418 38.9244C30.6391 38.655 30.552 38.38 30.4809 38.1007C30.3251 37.578 30.1185 37.0718 29.8642 36.5894C29.7536 36.4402 29.5889 36.3403 29.4055 36.311C29.3767 36.2614 29.2703 36.0661 29.2132 35.9654C26.5399 36.9778 23.5873 36.9702 20.9192 35.9441L20.7158 36.3125C20.5706 36.3351 20.4356 36.4009 20.3285 36.5014C20.022 37.0044 19.7877 37.5479 19.6325 38.116C19.5621 38.3954 19.4755 38.6704 19.3732 38.9397C19.3444 39.0057 19.2963 39.0981 19.262 39.1682L19.2605 39.1718C19.2181 39.2906 19.1513 39.3992 19.0643 39.4905C18.9773 39.5819 18.8722 39.654 18.7557 39.7022C18.6391 39.7504 18.5138 39.7737 18.3877 39.7705C18.2616 39.7673 18.1376 39.7377 18.0236 39.6836C17.9097 39.6296 17.8084 39.5522 17.7261 39.4565C17.6439 39.3609 17.5827 39.2491 17.5464 39.1283C17.51 39.0075 17.4994 38.8805 17.5152 38.7553C17.531 38.6302 17.5728 38.5098 17.638 38.4018C17.6719 38.3305 17.7173 38.2272 17.753 38.1601C17.8996 37.9116 18.0605 37.6718 18.2347 37.4418C18.5518 36.9814 18.8242 36.4918 19.0482 35.9797C19.072 35.8061 19.0442 35.6293 18.9681 35.4714L19.1317 35.0795C16.6719 33.6278 14.8284 31.3261 13.9489 28.6086L13.5573 28.6753C13.4053 28.5674 13.2262 28.5044 13.0402 28.4932C12.5044 28.5957 11.9797 28.7501 11.4738 28.9542C11.211 29.0724 10.9418 29.1755 10.6673 29.263C10.6024 29.2809 10.5087 29.2988 10.4346 29.315C10.4286 29.3171 10.4235 29.3197 10.4175 29.3211C10.4129 29.3218 10.4083 29.3222 10.4037 29.3224C10.2844 29.3617 10.1582 29.3756 10.0332 29.3632C9.90827 29.3509 9.78725 29.3126 9.67793 29.2508C9.56861 29.189 9.47339 29.1051 9.39838 29.0044C9.32337 28.9036 9.27021 28.7884 9.24231 28.6659C9.21441 28.5435 9.21238 28.4166 9.23635 28.2933C9.26033 28.17 9.30977 28.0531 9.38153 27.9501C9.45329 27.847 9.54577 27.7601 9.65306 27.6948C9.76036 27.6296 9.88009 27.5874 10.0046 27.5711L10.0176 27.5679L10.0255 27.5658C10.1006 27.5481 10.1969 27.5232 10.2655 27.51C10.5514 27.4703 10.8393 27.4471 11.1279 27.4406C11.6722 27.405 12.2116 27.3164 12.7387 27.1761C12.8949 27.0766 13.0269 26.9434 13.125 26.7864L13.5013 26.6765C13.0929 23.8403 13.7461 20.9531 15.3354 18.5688L15.0473 18.312C15.0368 18.1256 14.9742 17.9459 14.8667 17.7933C14.4528 17.4374 14.0051 17.1229 13.53 16.8541C13.2735 16.7233 13.0247 16.5778 12.7849 16.4184C12.7304 16.3778 12.658 16.3167 12.5988 16.2685L12.5854 16.2592C12.3809 16.1123 12.2429 15.8905 12.2015 15.6423C12.1601 15.394 12.2186 15.1394 12.3643 14.9342C12.4504 14.8288 12.5601 14.7452 12.6845 14.6901C12.8089 14.6351 12.9446 14.6101 13.0805 14.6173C13.3092 14.6271 13.5288 14.71 13.707 14.8537C13.7681 14.9016 13.8518 14.9657 13.9061 15.0123C14.1153 15.2102 14.313 15.42 14.4981 15.6405C14.8654 16.0441 15.2712 16.4108 15.7098 16.7355C15.8741 16.8219 16.0658 16.8405 16.2436 16.7873C16.3507 16.8654 16.4587 16.9422 16.5678 17.0177C18.1471 15.3389 20.1921 14.1706 22.4403 13.6626C22.9754 13.5415 23.5183 13.458 24.0651 13.4129L24.0864 13.0329C24.226 12.9089 24.3272 12.7475 24.3782 12.5679C24.3978 12.0226 24.3642 11.4767 24.2781 10.9379C24.2209 10.6556 24.18 10.3702 24.1554 10.0832C24.1531 10.0178 24.1567 9.92749 24.1575 9.85295C24.1575 9.84444 24.1554 9.83592 24.1554 9.82783C24.1426 9.70218 24.1564 9.57526 24.1957 9.45525C24.235 9.33524 24.2991 9.22482 24.3837 9.13109C24.4684 9.03737 24.5717 8.96244 24.6871 8.91113C24.8025 8.85983 24.9274 8.83329 25.0537 8.83323C25.18 8.83317 25.3049 8.85959 25.4203 8.91079C25.5358 8.96198 25.6392 9.03682 25.7239 9.13046C25.8087 9.2241 25.8728 9.33447 25.9123 9.45444C25.9517 9.57441 25.9656 9.70132 25.9529 9.82697C25.9529 9.90577 25.9576 10.0101 25.9548 10.0825C25.9302 10.3695 25.8891 10.6548 25.8315 10.9371C25.7448 11.476 25.7108 12.022 25.7297 12.5674C25.7653 12.7498 25.8707 12.911 26.0234 13.0168C26.0266 13.0817 26.0373 13.2985 26.0451 13.418C28.8863 13.6764 31.5372 14.9572 33.5052 17.0226L33.8472 16.7783C34.0309 16.8098 34.2197 16.7893 34.3924 16.7191C34.8309 16.3939 35.2367 16.0267 35.6041 15.6229C35.7896 15.4022 35.9878 15.1924 36.1976 14.9947C36.2527 14.9474 36.336 14.8839 36.3969 14.8358C36.4871 14.7469 36.595 14.6779 36.7135 14.6334C36.8321 14.5888 36.9587 14.5697 37.0851 14.5773C37.2115 14.5849 37.335 14.619 37.4474 14.6773C37.5598 14.7357 37.6586 14.817 37.7376 14.9161C37.8165 15.0151 37.8737 15.1296 37.9055 15.2522C37.9373 15.3748 37.943 15.5027 37.9222 15.6277C37.9013 15.7526 37.8544 15.8717 37.7846 15.9774C37.7147 16.083 37.6234 16.1728 37.5166 16.2408C37.4563 16.2896 37.3767 16.3575 37.3188 16.4006C37.0784 16.5601 36.8291 16.7056 36.5719 16.8363C36.097 17.1052 35.6493 17.4197 35.2352 17.7754C35.1147 17.9165 35.0542 18.0992 35.0666 18.2843C35.0165 18.3303 34.8409 18.486 34.7478 18.5703C36.3416 20.9461 37.0078 23.8243 36.6201 26.6588L36.9829 26.7645C37.0736 26.9277 37.2078 27.0626 37.3705 27.1542C37.8978 27.2947 38.4376 27.3836 38.9821 27.4195C39.2704 27.4261 39.5581 27.4491 39.8437 27.4885C39.9193 27.5023 40.0286 27.5326 40.1056 27.5502C40.2302 27.5666 40.3499 27.6088 40.4572 27.6741C40.5644 27.7394 40.6569 27.8264 40.7286 27.9295C40.8003 28.0326 40.8497 28.1495 40.8736 28.2728C40.8975 28.3961 40.8955 28.523 40.8675 28.6454C40.8395 28.7679 40.7863 28.8831 40.7112 28.9838C40.6362 29.0845 40.5409 29.1684 40.4316 29.2301C40.3222 29.2919 40.2011 29.3301 40.0762 29.3424C39.9512 29.3546 39.825 29.3406 39.7057 29.3013L39.6927 29.2996C39.6868 29.2981 39.6812 29.2949 39.6751 29.2932C39.6009 29.2773 39.5079 29.2611 39.4429 29.2441C39.1685 29.1559 38.8994 29.0519 38.6369 28.9327C38.1305 28.7285 37.6053 28.5741 37.069 28.4717C36.8833 28.4658 36.7028 28.5328 36.566 28.6584C36.4382 28.6342 36.3101 28.6117 36.1818 28.5911C35.3128 31.3255 33.469 33.6453 31.0011 35.1087Z" fill="#326CE5"/>
<path d="M48.5368 29.254L44.4893 11.6728C44.3804 11.2179 44.172 10.7928 43.8789 10.4282C43.5859 10.0636 43.2155 9.76866 42.7946 9.5646L26.4112 1.74292C25.9866 1.54024 25.522 1.43506 25.0514 1.43506C24.5809 1.43506 24.1163 1.54024 23.6916 1.74292L7.30973 9.56929C6.88882 9.77316 6.51842 10.0679 6.22525 10.4323C5.93208 10.7967 5.72345 11.2216 5.61443 11.6764L1.5739 29.2587C1.48276 29.664 1.47339 30.0835 1.54633 30.4925C1.61928 30.9014 1.77308 31.2918 1.99873 31.6406C2.05431 31.7258 2.1133 31.8084 2.17719 31.888L13.516 45.9864C13.8132 46.3492 14.1867 46.642 14.6099 46.844C15.0332 47.046 15.4957 47.1521 15.9647 47.1549L34.1479 47.1506C34.6168 47.148 35.0793 47.042 35.5026 46.8403C35.9258 46.6386 36.2995 46.3461 36.5969 45.9837L47.9316 31.884C48.2219 31.5184 48.4269 31.0927 48.5316 30.6378C48.6363 30.1829 48.6381 29.7104 48.5368 29.2547V29.254ZM46.5783 30.0773C46.551 30.2018 46.5156 30.3244 46.4723 30.4442C46.368 30.7359 46.2162 31.0083 46.0229 31.2505L35.9506 43.7801L35.6341 44.1744C35.4389 44.4141 35.2059 44.6202 34.9442 44.7846C34.8432 44.8492 34.7383 44.9076 34.6303 44.9596C34.5574 44.9932 34.4833 45.0238 34.4077 45.0512C34.3113 45.0879 34.213 45.1195 34.1132 45.1459C33.9743 45.1834 33.8327 45.2104 33.6897 45.2266C33.59 45.2379 33.4897 45.2437 33.3894 45.2441L16.8849 45.2479H16.723C16.4763 45.2464 16.2308 45.2126 15.9928 45.1474C15.7026 45.0705 15.4258 44.9499 15.1719 44.7899C14.9708 44.662 14.7865 44.5095 14.6233 44.3359C14.5737 44.2835 14.5237 44.2322 14.4785 44.1762L4.08544 31.2545C4.02752 31.1815 3.97321 31.1059 3.92253 31.0275C3.80501 30.8457 3.70903 30.6509 3.63654 30.447C3.59364 30.3274 3.55871 30.2051 3.53198 30.0809C3.44122 29.6736 3.44151 29.2512 3.53283 28.8439L7.2369 12.7288C7.33674 12.312 7.52788 11.9225 7.79653 11.5885C8.06518 11.2545 8.40462 10.9843 8.79038 10.7974L23.8051 3.62413C24.1943 3.43839 24.6201 3.342 25.0514 3.342C25.4827 3.342 25.9085 3.43839 26.2977 3.62413L41.3148 10.7942C41.7005 10.9812 42.0399 11.2516 42.3085 11.5857C42.577 11.9198 42.7681 12.3094 42.8678 12.7263L46.5779 28.8411C46.6692 29.2483 46.6694 29.6706 46.5783 30.0777V30.0773Z" fill="white"/>
<path d="M40.1053 27.5503C40.0286 27.5326 39.9192 27.5023 39.844 27.4885C39.5584 27.449 39.2707 27.4258 38.9824 27.4191C38.4378 27.3835 37.8979 27.2949 37.3704 27.1546C37.2076 27.0629 37.0735 26.9278 36.9828 26.7645L36.6199 26.6588C37.0079 23.8244 36.3418 20.9462 34.7481 18.5703C34.841 18.486 35.0168 18.3303 35.0665 18.2846C35.0541 18.0994 35.1146 17.9167 35.2351 17.7756C35.6492 17.4199 36.0968 17.1054 36.5718 16.8365C36.829 16.7058 37.0783 16.5603 37.3186 16.4008C37.3766 16.3578 37.4558 16.2896 37.5165 16.2411C37.6233 16.173 37.7145 16.0833 37.7844 15.9777C37.8543 15.8721 37.9011 15.753 37.922 15.6281C37.9428 15.5032 37.9372 15.3753 37.9055 15.2527C37.8737 15.1301 37.8165 15.0156 37.7376 14.9165C37.6587 14.8175 37.5599 14.7361 37.4476 14.6777C37.3352 14.6193 37.2118 14.5852 37.0854 14.5776C36.959 14.57 36.8325 14.589 36.7139 14.6334C36.5953 14.6779 36.4874 14.7468 36.3972 14.8356C36.3359 14.8839 36.2524 14.9474 36.1979 14.9947C35.9879 15.1924 35.7896 15.4022 35.604 15.6229C35.2366 16.0267 34.8308 16.3939 34.3923 16.7192C34.2196 16.7894 34.0308 16.8099 33.8471 16.7784L33.5051 17.0226C31.537 14.9572 28.8862 13.6764 26.045 13.418C26.0367 13.2985 26.0265 13.0822 26.0233 13.0168C25.8707 12.911 25.7655 12.7497 25.7301 12.5675C25.7111 12.022 25.7452 11.476 25.8319 10.9371C25.8891 10.6549 25.93 10.3697 25.9543 10.0828C25.9571 10.0103 25.9528 9.90515 25.9528 9.827C25.9655 9.70134 25.9516 9.57443 25.9122 9.45446C25.8727 9.33449 25.8086 9.22412 25.7238 9.13048C25.6391 9.03684 25.5357 8.96201 25.4202 8.91081C25.3048 8.85961 25.1799 8.83319 25.0536 8.83325C24.9273 8.83331 24.8024 8.85985 24.687 8.91116C24.5716 8.96246 24.4683 9.03739 24.3836 9.13112C24.299 9.22484 24.2349 9.33527 24.1956 9.45528C24.1563 9.57528 24.1425 9.70221 24.1553 9.82785C24.1553 9.83637 24.1572 9.84446 24.1574 9.85298C24.1566 9.92751 24.1529 10.0178 24.1553 10.083C24.1798 10.3701 24.2208 10.6555 24.2779 10.938C24.3641 11.4767 24.3977 12.0226 24.378 12.5679C24.327 12.7474 24.2258 12.9086 24.0863 13.0325L24.065 13.4129C23.5182 13.458 22.9753 13.5415 22.4402 13.6627C20.1922 14.1707 18.1474 15.3389 16.5683 17.0175C16.459 16.9421 16.3506 16.8653 16.2433 16.7871C16.0655 16.8403 15.8739 16.8217 15.7097 16.7353C15.2711 16.4107 14.8653 16.044 14.498 15.6406C14.3131 15.42 14.1156 15.2102 13.9066 15.0123C13.8519 14.9655 13.7682 14.9016 13.7069 14.8526C13.5286 14.7089 13.3091 14.6261 13.0804 14.6163C12.9444 14.6091 12.8088 14.6342 12.6843 14.6893C12.5599 14.7444 12.4502 14.8281 12.3642 14.9336C12.2185 15.1388 12.16 15.3934 12.2014 15.6416C12.2428 15.8899 12.3808 16.1117 12.5852 16.2585L12.5991 16.2683C12.6579 16.3165 12.7303 16.378 12.7848 16.4178C13.0246 16.5774 13.2734 16.723 13.5299 16.8539C14.0049 17.1229 14.4525 17.4375 14.8664 17.7935C14.9739 17.946 15.0365 18.1255 15.0472 18.3118L15.3349 18.5691C13.7457 20.9534 13.0927 23.8406 13.5011 26.6767L13.1249 26.7862C13.0267 26.943 12.8947 27.0759 12.7386 27.1753C12.2115 27.3159 11.6719 27.4049 11.1276 27.4408C10.8391 27.4474 10.5512 27.4705 10.2654 27.5102C10.1964 27.523 10.1005 27.5473 10.0254 27.566L10.0175 27.5677L10.0047 27.5716C9.88022 27.5879 9.76052 27.6301 9.65327 27.6954C9.54601 27.7607 9.45357 27.8476 9.38185 27.9507C9.31013 28.0537 9.26072 28.1706 9.23677 28.2939C9.21283 28.4171 9.21487 28.544 9.24278 28.6664C9.27069 28.7889 9.32385 28.9041 9.39886 29.0048C9.47386 29.1055 9.56906 29.1894 9.67836 29.2512C9.78766 29.313 9.90866 29.3513 10.0336 29.3636C10.1586 29.3759 10.2847 29.3621 10.404 29.3229L10.4174 29.3207C10.4234 29.3195 10.4285 29.3165 10.4344 29.3154C10.5085 29.2984 10.6018 29.2807 10.667 29.263C10.9414 29.1754 11.2106 29.0723 11.4732 28.954C11.9793 28.7499 12.5041 28.5955 13.0401 28.493C13.226 28.5044 13.405 28.5676 13.5567 28.6755L13.9486 28.6084C14.8282 31.326 16.6718 33.6277 19.1318 35.0793L18.968 35.4712C19.0441 35.629 19.0721 35.8058 19.0483 35.9795C18.8243 36.4915 18.5519 36.981 18.2348 37.4412C18.0605 37.6711 17.8996 37.9108 17.7529 38.1593C17.7171 38.227 17.6718 38.3307 17.6375 38.4016C17.5726 38.5096 17.5311 38.6299 17.5155 38.7549C17.5 38.8799 17.5108 39.0068 17.5472 39.1274C17.5836 39.2479 17.6449 39.3596 17.727 39.455C17.8092 39.5505 17.9104 39.6277 18.0242 39.6817C18.138 39.7357 18.2619 39.7653 18.3878 39.7686C18.5137 39.7718 18.6389 39.7487 18.7554 39.7006C18.8718 39.6526 18.9769 39.5807 19.0639 39.4896C19.1508 39.3985 19.2178 39.2902 19.2604 39.1716L19.2619 39.1699V39.1678C19.296 39.0975 19.3443 39.0053 19.3731 38.9395C19.4754 38.6702 19.562 38.3952 19.6324 38.1158C19.7876 37.5477 20.0219 37.0042 20.3283 36.5012C20.4355 36.4007 20.5705 36.3348 20.7157 36.3121L20.9195 35.9437C23.5875 36.9697 26.5399 36.9772 29.2131 35.9648C29.2702 36.0666 29.3766 36.2612 29.4047 36.3104C29.5883 36.3398 29.7531 36.4399 29.8637 36.5894C30.1181 37.0718 30.3248 37.5779 30.4808 38.1005C30.5519 38.3798 30.639 38.6548 30.7416 38.9242C30.7708 38.9906 30.8183 39.0839 30.8528 39.1546C30.8953 39.2732 30.9621 39.3816 31.049 39.4728C31.1359 39.5641 31.241 39.6361 31.3574 39.6843C31.4738 39.7325 31.599 39.7558 31.7249 39.7527C31.8509 39.7496 31.9748 39.7202 32.0887 39.6664C32.2026 39.6125 32.304 39.5354 32.3863 39.4401C32.4687 39.3447 32.5301 39.2331 32.5667 39.1126C32.6034 38.992 32.6144 38.8652 32.599 38.7401C32.5837 38.615 32.5423 38.4946 32.4776 38.3865C32.4433 38.3156 32.3961 38.2119 32.3605 38.1446C32.2138 37.8967 32.0529 37.6575 31.8786 37.4282C31.5671 36.9797 31.3003 36.5018 31.0817 36.0014C31.0343 35.8225 31.0591 35.632 31.1507 35.4712C31.0932 35.3536 31.0432 35.2325 31.001 35.1085C33.4689 33.6451 35.3127 31.3255 36.1817 28.5912C36.298 28.6097 36.5005 28.645 36.5663 28.6585C36.703 28.533 36.8834 28.4659 37.0688 28.4717C37.605 28.5741 38.1299 28.7285 38.6362 28.9327C38.8988 29.052 39.1682 29.1559 39.4428 29.2441C39.5078 29.2611 39.6004 29.2773 39.6749 29.2937C39.6811 29.2954 39.6867 29.2979 39.6926 29.2996L39.7054 29.3016C39.8246 29.3407 39.9507 29.3545 40.0756 29.3421C40.2005 29.3298 40.3214 29.2915 40.4306 29.2297C40.5399 29.168 40.635 29.0841 40.71 28.9834C40.785 28.8828 40.8382 28.7676 40.8661 28.6453C40.894 28.523 40.8961 28.3961 40.8723 28.2729C40.8484 28.1497 40.7991 28.0329 40.7275 27.9298C40.6559 27.8267 40.5636 27.7397 40.4564 27.6744C40.3493 27.609 40.2297 27.5668 40.1053 27.5503ZM31.566 18.3961L27.725 21.1191L27.7116 21.1128C27.5958 21.1972 27.4594 21.2487 27.3167 21.2617C27.174 21.2748 27.0305 21.249 26.9013 21.187C26.7722 21.125 26.6622 21.0291 26.5832 20.9097C26.5041 20.7902 26.4589 20.6515 26.4524 20.5084L26.4481 20.5063L26.1813 15.7994C28.2122 16.0516 30.1042 16.9639 31.566 18.3961ZM24.3303 23.5555H25.7758L26.6745 24.679L26.3523 26.0803L25.0542 26.7051L23.7522 26.079L23.4293 24.6771L24.3303 23.5555ZM22.9704 15.9642C23.287 15.893 23.6071 15.838 23.9293 15.7994L23.6621 20.5135L23.6425 20.5229C23.6365 20.666 23.5917 20.8048 23.513 20.9246C23.4343 21.0443 23.3246 21.1404 23.1956 21.2028C23.0666 21.2651 22.9231 21.2912 22.7804 21.2785C22.6377 21.2657 22.5011 21.2145 22.3852 21.1302L22.3778 21.1345L18.5119 18.3934C19.7426 17.1839 21.2869 16.3425 22.9704 15.9642ZM17.11 20.1551L20.6395 23.3119L20.6356 23.3311C20.7438 23.4252 20.8244 23.5469 20.8688 23.6833C20.9133 23.8196 20.9199 23.9654 20.8879 24.1052C20.8559 24.245 20.7866 24.3735 20.6874 24.477C20.5881 24.5805 20.4626 24.6551 20.3243 24.6929L20.3207 24.7082L15.7965 26.0136C15.5711 23.9691 16.0333 21.9076 17.11 20.1551ZM21.8356 28.5411L20.0381 32.8847C18.3128 31.7803 17.0001 30.1374 16.3038 28.2108L20.9425 27.4229L20.9504 27.4333C21.0016 27.4235 21.0537 27.4189 21.1058 27.4195C21.2359 27.4214 21.3635 27.4554 21.4774 27.5183C21.5912 27.5813 21.6878 27.6713 21.7586 27.7804C21.8294 27.8896 21.8723 28.0145 21.8834 28.1441C21.8945 28.2737 21.8734 28.4041 21.8222 28.5237L21.8356 28.5411ZM27.1415 34.1268C25.4596 34.5125 23.7036 34.4224 22.0701 33.8664L24.3514 29.7411H24.3553C24.4231 29.6151 24.5238 29.5097 24.6466 29.4362C24.7695 29.3628 24.9099 29.3239 25.053 29.3238C25.1962 29.3237 25.3367 29.3623 25.4597 29.4355C25.5826 29.5087 25.6835 29.6139 25.7516 29.7398H25.7686L28.0557 33.8719C27.7588 33.971 27.4541 34.0557 27.1415 34.1268ZM30.089 32.9021L28.2729 28.5143L28.2784 28.5064C28.1979 28.3187 28.1929 28.1072 28.2644 27.9159C28.3359 27.7245 28.4785 27.5682 28.6624 27.4793C28.7572 27.4329 28.8604 27.4061 28.9659 27.4006C29.0269 27.3977 29.088 27.4022 29.1479 27.414L29.1558 27.4042L33.8358 28.1951C33.145 30.1371 31.8265 31.7933 30.089 32.9021ZM34.3273 25.9983L29.7804 24.6886L29.7761 24.6695C29.6381 24.6313 29.5129 24.5565 29.4139 24.453C29.3149 24.3494 29.2458 24.221 29.214 24.0814C29.1821 23.9418 29.1886 23.7961 29.2328 23.6599C29.2771 23.5236 29.3574 23.4019 29.4652 23.3076L29.4635 23.2985L32.9734 20.1572C34.0482 21.9052 34.5237 23.9558 34.3273 25.9983Z" fill="white"/>
</svg>
