<svg width="50" height="50" viewBox="0 0 50 50" fill="none" xmlns="http://www.w3.org/2000/svg">
<g clip-path="url(#clip0_189_43547)">
<path d="M49.4997 26.1778V21.6867C49.4997 17.8861 45.6991 15.8143 42.5907 15.8143C40.4273 15.9832 38.3721 16.8292 36.7168 18.2322C36.0037 17.4801 35.1472 16.8785 34.1978 16.463C33.2483 16.0474 32.2253 15.8264 31.189 15.8128C29.0044 15.8873 26.9197 16.7462 25.3166 18.2322C24.7325 17.4188 23.9492 16.7691 23.0419 16.3455C22.1345 15.9218 21.1335 15.7384 20.1349 15.8128C19.1036 15.733 18.0714 15.9542 17.1633 16.4494C16.2553 16.9446 15.5104 17.6926 15.019 18.6027L10.462 28.9417L5.39966 17.344C5.12927 16.7256 4.62532 16.2391 3.9977 15.9907C3.37008 15.7423 2.6697 15.7521 2.04928 16.018C1.73493 16.1524 1.45072 16.3484 1.21345 16.5946C0.976179 16.8407 0.790673 17.1319 0.6679 17.451C0.545127 17.77 0.487578 18.1105 0.498658 18.4522C0.509737 18.7939 0.58922 19.1299 0.732406 19.4403L7.00594 33.0868C7.00594 33.0868 8.04259 35.5062 10.1144 35.5062C10.7506 35.6005 11.4001 35.4824 11.9624 35.1701C12.5246 34.8579 12.9682 34.3689 13.2243 33.7789C13.7021 33.0593 17.3296 25.4336 19.5147 20.8093C19.5995 20.6309 19.7424 20.4868 19.9199 20.4004C20.0975 20.3141 20.2992 20.2908 20.4917 20.3342C20.6843 20.3777 20.8564 20.4854 20.9797 20.6396C21.1029 20.7939 21.1701 20.9854 21.17 21.1829V32.6474C21.1607 33.3607 21.4215 34.0512 21.9 34.5802C22.3786 35.1093 23.0395 35.4379 23.7502 35.5001C24.1278 35.5252 24.5065 35.4726 24.8629 35.3454C25.2193 35.2182 25.5458 35.0191 25.8222 34.7606C26.0985 34.502 26.3189 34.1895 26.4695 33.8423C26.6201 33.4951 26.6978 33.1207 26.6978 32.7423V23.2409C26.7153 22.4738 27.0324 21.744 27.5811 21.2076C28.1298 20.6713 28.8667 20.371 29.634 20.371C30.4013 20.371 31.1381 20.6713 31.6869 21.2076C32.2356 21.744 32.5526 22.4738 32.5702 23.2409V32.7423C32.5702 33.4753 32.8614 34.1783 33.3797 34.6967C33.898 35.215 34.601 35.5062 35.3341 35.5062C36.0671 35.5062 36.7701 35.215 37.2884 34.6967C37.8068 34.1783 38.098 33.4753 38.098 32.7423V23.2409C38.098 22.462 38.4074 21.7149 38.9582 21.1642C39.509 20.6134 40.256 20.3039 41.0349 20.3039C41.8138 20.3039 42.5609 20.6134 43.1116 21.1642C43.6624 21.7149 43.9718 22.462 43.9718 23.2409V32.7423C43.9718 33.4753 44.263 34.1783 44.7814 34.6967C45.2997 35.215 46.0027 35.5062 46.7357 35.5062C47.4688 35.5062 48.1718 35.215 48.6901 34.6967C49.2085 34.1783 49.4997 33.4753 49.4997 32.7423V26.1778Z" fill="black"/>
</g>
<defs>
<clipPath id="clip0_189_43547">
<rect width="49" height="49" fill="white" transform="translate(0.5 0.5)"/>
</clipPath>
</defs>
</svg>
