<svg width="680" height="400" viewBox="0 0 680 400" xmlns="http://www.w3.org/2000/svg" role="img">
  <title>Correct system-of-systems hierarchy showing upward aggregation</title>
  <desc>Tree with A as root, B and C as sub-systems, D E F G as components. Arrows flow upward from each child to its parent showing aggregation direction.</desc>
  <defs>
    <marker id="arr" viewBox="0 0 10 10" refX="8" refY="5" markerWidth="6" markerHeight="6" orient="auto-start-reverse">
      <path d="M2 1L8 5L2 9" fill="none" stroke="context-stroke" stroke-width="1.5" stroke-linecap="round" stroke-linejoin="round"/>
    </marker>
    <style>
      .node-teal rect { fill:#E1F5EE; stroke:#0F6E56; }
      .node-blue rect  { fill:#E6F1FB; stroke:#185FA5; }
      .node-gray rect  { fill:#F1EFE8; stroke:#5F5E5A; }
      .node-teal text  { fill:#085041; font-family: system-ui, sans-serif; font-size:14px; font-weight:500; }
      .node-blue text  { fill:#0C447C; font-family: system-ui, sans-serif; font-size:14px; font-weight:500; }
      .node-gray text  { fill:#444441; font-family: system-ui, sans-serif; font-size:14px; font-weight:500; }
      .label { fill:#5F5E5A; font-family: system-ui, sans-serif; font-size:12px; }
      .note  { fill:#888780; font-family: system-ui, sans-serif; font-size:12px; }
      .swatch { stroke-width:0.5; }
    </style>
  </defs>
  <line x1="40" y1="147" x2="558" y2="147" stroke="#D3D1C7" stroke-width="0.5" stroke-dasharray="4 4"/>
  <line x1="40" y1="265" x2="558" y2="265" stroke="#D3D1C7" stroke-width="0.5" stroke-dasharray="4 4"/>
  <line x1="80" y1="300" x2="159" y2="225" stroke="#888780" stroke-width="1.5" fill="none" marker-end="url(#arr)"/>
  <line x1="220" y1="300" x2="161" y2="225" stroke="#888780" stroke-width="1.5" fill="none" marker-end="url(#arr)"/>
  <line x1="160" y1="180" x2="313" y2="105" stroke="#888780" stroke-width="1.5" fill="none" marker-end="url(#arr)"/>
  <line x1="360" y1="300" x2="468" y2="225" stroke="#888780" stroke-width="1.5" fill="none" marker-end="url(#arr)"/>
  <line x1="500" y1="300" x2="472" y2="225" stroke="#888780" stroke-width="1.5" fill="none" marker-end="url(#arr)"/>
  <line x1="470" y1="180" x2="317" y2="105" stroke="#888780" stroke-width="1.5" fill="none" marker-end="url(#arr)"/>
  <g class="node-teal"><rect x="265" y="60" width="100" height="44" rx="8" class="swatch"/><text x="315" y="82" text-anchor="middle" dominant-baseline="central">A</text></g>
  <g class="node-blue"><rect x="110" y="180" width="100" height="44" rx="8" class="swatch"/><text x="160" y="202" text-anchor="middle" dominant-baseline="central">B</text></g>
  <g class="node-blue"><rect x="420" y="180" width="100" height="44" rx="8" class="swatch"/><text x="470" y="202" text-anchor="middle" dominant-baseline="central">C</text></g>
  <g class="node-gray"><rect x="30" y="300" width="100" height="44" rx="8" class="swatch"/><text x="80" y="322" text-anchor="middle" dominant-baseline="central">D</text></g>
  <g class="node-gray"><rect x="170" y="300" width="100" height="44" rx="8" class="swatch"/><text x="220" y="322" text-anchor="middle" dominant-baseline="central">E</text></g>
  <g class="node-gray"><rect x="310" y="300" width="100" height="44" rx="8" class="swatch"/><text x="360" y="322" text-anchor="middle" dominant-baseline="central">F</text></g>
  <g class="node-gray"><rect x="450" y="300" width="100" height="44" rx="8" class="swatch"/><text x="500" y="322" text-anchor="middle" dominant-baseline="central">G</text></g>
  <text class="label" x="563" y="82" dominant-baseline="central">Root system</text>
  <text class="label" x="563" y="202" dominant-baseline="central">Sub-systems</text>
  <text class="label" x="563" y="322" dominant-baseline="central">Components</text>
  <rect x="176" y="372" width="12" height="12" rx="2" fill="#E1F5EE" stroke="#0F6E56" stroke-width="0.5"/>
  <text class="note" x="194" y="378" dominant-baseline="central">Root</text>
  <rect x="264" y="372" width="12" height="12" rx="2" fill="#E6F1FB" stroke="#185FA5" stroke-width="0.5"/>
  <text class="note" x="282" y="378" dominant-baseline="central">Sub-system</text>
  <rect x="385" y="372" width="12" height="12" rx="2" fill="#F1EFE8" stroke="#5F5E5A" stroke-width="0.5"/>
  <text class="note" x="403" y="378" dominant-baseline="central">Component</text>
  <text class="note" x="315" y="354" text-anchor="middle" opacity="0.75">Values aggregate upward from components to root</text>
</svg>
