<svg width="610" height="127" viewBox="0 0 610 127" fill="none" xmlns="http://www.w3.org/2000/svg">
<path d="M177.021 22.8953L149.402 92.0809H161.664L167.118 78.2344H196.379L201.739 92.0809H214.289L186.717 22.8953H177.021ZM171.372 67.1865L181.751 40.6988L192.036 67.1865H171.372Z" fill="black"/>
<path d="M277.058 42.7743C273.739 42.7743 270.685 43.5387 267.885 45.0674C265.084 46.5961 263.007 48.6657 261.654 51.2645C258.788 45.6024 253.799 42.7743 246.685 42.7743C243.82 42.7743 241.06 43.3917 238.407 44.6323C235.753 45.8729 233.606 47.8602 231.964 50.5883V43.7856H221.002V92.0809H231.964V65.0111C231.964 61.154 233.017 58.2436 235.124 56.2798C237.23 54.316 239.766 53.3341 242.726 53.3341C246.009 53.3341 248.598 54.3689 250.498 56.4444C252.399 58.52 253.346 61.3716 253.346 65.0052V92.075H264.402V65.0052C264.402 61.1481 265.449 58.2377 267.538 56.2739C269.632 54.3101 272.174 53.3282 275.169 53.3282C278.417 53.3282 280.976 54.3631 282.847 56.4386C284.713 58.5141 285.648 61.3657 285.648 64.9993V92.0691H296.851V62.5416C296.851 56.5268 295.027 51.7231 291.373 48.1365C287.719 44.5676 282.947 42.7743 277.058 42.7743Z" fill="black"/>
<path d="M347.411 46.1492C343.886 43.8973 340.015 42.7743 335.796 42.7743C331.936 42.7743 328.535 43.6092 325.611 45.2849C322.681 46.9606 320.327 49.3536 318.562 52.4757V43.7915H307.601V108.973H318.562V83.4026C320.333 86.4894 322.681 88.8706 325.611 90.5404C328.541 92.2161 331.936 93.051 335.796 93.051C342.203 93.051 347.64 90.611 352.118 85.7426C356.589 80.8684 358.825 74.9418 358.825 67.9626C358.825 63.3942 357.801 59.1844 355.76 55.3214C353.718 51.4585 350.935 48.4011 347.411 46.1492ZM343.763 78.3049C340.932 81.1506 337.473 82.5735 333.384 82.5735C329.135 82.5735 325.599 81.1742 322.787 78.3755C319.968 75.5768 318.562 72.1019 318.562 67.9509C318.562 63.7352 319.968 60.2309 322.787 57.4322C325.605 54.6335 329.135 53.2342 333.384 53.2342C337.473 53.2342 340.932 54.657 343.763 57.5028C346.599 60.3485 348.011 63.8293 348.011 67.9509C348.017 72.0137 346.599 75.4592 343.763 78.3049Z" fill="black"/>
<path d="M378.483 22.8953H367.521V92.0809H378.483V22.8953Z" fill="black"/>
<path d="M400.089 43.7856H389.127V92.0809H400.089V43.7856Z" fill="black"/>
<path d="M394.681 21.3489C392.751 21.3489 391.092 22.0427 389.71 23.4244C388.327 24.8062 387.633 26.4466 387.633 28.3457C387.633 30.3095 388.321 31.9793 389.71 33.3669C391.092 34.7486 392.751 35.4424 394.681 35.4424C396.611 35.4424 398.282 34.7486 399.683 33.3669C401.083 31.9852 401.783 30.3095 401.783 28.3457C401.783 26.4466 401.083 24.8062 399.683 23.4244C398.276 22.0427 396.611 21.3489 394.681 21.3489Z" fill="black"/>
<path d="M427.319 30.8092H416.263V43.7856H407.09V54.2572H416.263V73.8952C416.263 79.91 417.87 84.5432 421.094 87.7887C424.312 91.0402 428.643 92.663 434.079 92.663C436.333 92.663 438.316 92.4689 440.016 92.0809V81.9032C439.022 82.1619 437.827 82.2913 436.445 82.2913C433.609 82.2913 431.385 81.5916 429.761 80.1923C428.137 78.7929 427.319 76.6292 427.319 73.7011V54.2572H440.016V43.7856H427.319V30.8092Z" fill="black"/>
<path d="M482.309 69.9382C482.309 73.7306 481.227 76.7703 479.05 79.0575C476.878 81.3388 474.007 82.4853 470.43 82.4853C466.888 82.4853 464.04 81.3447 461.881 79.0575C459.721 76.7762 458.644 73.7364 458.644 69.9382V43.7856H447.683V71.2376C447.683 78.0227 449.472 83.3555 453.043 87.2302C456.615 91.1049 461.522 93.0451 467.77 93.0451C470.959 93.0451 473.789 92.3043 476.267 90.8226C478.744 89.3469 480.756 87.2243 482.303 84.455V92.0809H493.359V43.7856H482.303V69.9382H482.309Z" fill="black"/>
<path d="M542.065 52.2758C540.294 49.2184 537.964 46.8724 535.064 45.232C532.169 43.5916 528.803 42.7743 524.973 42.7743C520.754 42.7743 516.877 43.8856 513.34 46.1022C509.798 48.3188 506.998 51.3586 504.938 55.2215C502.879 59.0844 501.849 63.2942 501.849 67.8627C501.849 72.4312 502.879 76.6527 504.938 80.5274C506.998 84.4021 509.798 87.4595 513.34 89.6938C516.883 91.928 520.76 93.0452 524.973 93.0452C528.803 93.0452 532.169 92.2338 535.064 90.6051C537.958 88.9823 540.294 86.6422 542.065 83.5848V92.075H553.174V22.8953H542.065V52.2758ZM537.847 78.3578C535.028 81.1742 531.527 82.5794 527.344 82.5794C523.255 82.5794 519.795 81.1565 516.965 78.3108C514.129 75.4651 512.717 71.9843 512.717 67.8627C512.717 63.8116 514.135 60.3603 516.965 57.5145C519.795 54.6688 523.255 53.2459 527.344 53.2459C531.527 53.2459 535.028 54.6453 537.847 57.444C540.665 60.2427 542.071 63.7175 542.071 67.8686C542.065 72.0431 540.659 75.5415 537.847 78.3578Z" fill="black"/>
<path d="M610 66.8984C610 62.3006 608.935 58.1437 606.811 54.4277C604.687 50.7118 601.827 47.8425 598.238 45.8141C594.649 43.7856 590.695 42.7743 586.382 42.7743C581.811 42.7743 577.621 43.8679 573.803 46.0551C569.99 48.2424 566.978 51.241 564.771 55.051C562.565 58.861 561.464 63.0708 561.464 67.6687C561.464 72.3959 562.565 76.7057 564.771 80.598C566.978 84.4903 569.996 87.5359 573.826 89.7408C577.657 91.9457 581.905 93.0451 586.577 93.0451C592.531 93.0451 597.597 91.4988 601.786 88.412C605.97 85.3252 608.511 81.2388 609.418 76.1588H598.362C597.879 78.2167 596.567 79.8924 594.426 81.1742C592.284 82.4618 589.736 83.1027 586.771 83.1027C582.94 83.1027 579.804 82.0737 577.357 80.0159C574.909 77.958 573.332 75.1299 572.626 71.5257H609.706C609.906 70.6614 610 69.115 610 66.8984ZM572.92 62.1183C573.726 59.155 575.25 56.856 577.51 55.2156C579.763 53.5752 582.511 52.752 585.765 52.752C589.048 52.752 591.79 53.6163 593.996 55.3332C596.203 57.0559 597.544 59.3137 598.026 62.1124H572.92V62.1183Z" fill="black"/>
<path d="M56.014 28.5868C55.6551 28.1281 55.2726 27.8753 54.8137 27.8753C54.4842 27.8988 54.1782 28.0047 53.8958 28.1811C50.5008 30.8328 45.882 42.0805 42.0811 56.9207L45.4525 56.9442C52.0895 57.0207 58.95 57.0971 65.7164 57.197C63.9277 50.4119 62.2449 44.597 60.6916 39.8815C58.4146 33.0259 56.8848 29.9391 56.014 28.5868Z" fill="black"/>
<path d="M63.5453 0C28.4542 0 0 28.4339 0 63.5C0 98.5661 28.4542 127 63.5453 127C98.6365 127 127.091 98.5661 127.091 63.5C127.091 28.4339 98.6365 0 63.5453 0ZM110.451 62.7356C110.275 63.4471 109.839 64.1409 109.227 64.6465C109.151 64.6994 109.074 64.7465 108.998 64.7994L108.921 64.8523L108.768 64.9523L108.639 65.0287C108.157 65.2815 107.615 65.4109 107.056 65.4109H76.9428C77.1723 66.4045 77.4547 67.5511 77.7312 68.7799C79.3905 75.8943 83.7563 94.8149 88.4222 94.8149H88.5222H88.5751H88.6752C92.2996 94.8149 94.1648 89.5644 98.2482 78.058L98.3011 77.9286C98.966 76.0942 99.7073 74.001 100.496 71.7844L100.702 71.2258C101.008 70.485 101.849 70.1028 102.59 70.4086C103.126 70.6144 103.508 71.1494 103.508 71.7374C103.508 71.8902 103.485 72.0196 103.455 72.1431L103.279 72.7016C102.843 74.0775 102.414 75.9413 101.873 78.1109C99.4485 88.1592 95.7711 103.334 86.3805 103.334H86.304C80.2319 103.282 76.6074 93.5919 75.0482 89.4351C72.1416 81.6798 69.9469 73.4425 67.8288 65.4403H40.1689L34.4263 83.8259L34.3498 83.7495C33.4849 85.1018 31.6726 85.5075 30.3194 84.6432C29.478 84.1081 28.9661 83.1909 28.9661 82.1972V82.0973L29.325 80.0041C30.1134 75.2887 31.0843 70.3615 32.1551 65.4168H20.4169L20.3639 65.3638C17.9633 65.0052 16.3041 62.765 16.663 60.3662C16.9454 58.5023 18.3752 57.0265 20.2109 56.6914C20.6699 56.6385 21.1288 56.615 21.5878 56.6385H22.1467C25.8477 56.6914 29.7781 56.7678 34.1144 56.8149C40.216 32.0263 47.2824 19.4263 55.1432 19.4028C63.563 19.4028 69.8175 38.5527 74.8187 57.297L74.8423 57.3734C85.1037 57.5792 96.077 57.885 106.715 58.6493L107.174 58.7022C107.35 58.7022 107.503 58.7257 107.686 58.7551H107.739L107.792 58.7787H107.815C109.633 59.1373 110.834 60.9247 110.451 62.7356Z" fill="black"/>
</svg>
