<svg width="14" height="14" viewBox="0 0 14 14" fill="none" xmlns="http://www.w3.org/2000/svg">
<mask id="mask0_4095_146" style="mask-type:alpha" maskUnits="userSpaceOnUse" x="0" y="0" width="14" height="14">
<path d="M7.4294 1.3396C10.1296 1.3396 12.3186 3.52858 12.3186 6.22881M6.57034 12.6603C3.8701 12.6603 1.68113 10.4714 1.68113 7.77112M12.7561 6.22879C12.7561 6.47041 12.5602 6.66629 12.3186 6.66629C12.077 6.66629 11.8811 6.47041 11.8811 6.22879C11.8811 5.98717 12.077 5.79129 12.3186 5.79129C12.5602 5.79129 12.7561 5.98717 12.7561 6.22879ZM1.24365 7.77115C1.24365 7.52952 1.43953 7.33365 1.68115 7.33365C1.92278 7.33365 2.11865 7.52952 2.11865 7.77115C2.11865 8.01277 1.92278 8.20865 1.68115 8.20865C1.43953 8.20865 1.24365 8.01277 1.24365 7.77115ZM12.7561 8.85464C12.7561 9.09627 12.5602 9.29214 12.3186 9.29214C12.077 9.29214 11.8811 9.09627 11.8811 8.85464C11.8811 8.61302 12.077 8.41714 12.3186 8.41714C12.5602 8.41714 12.7561 8.61302 12.7561 8.85464ZM1.24365 5.14529C1.24365 4.90367 1.43953 4.70779 1.68115 4.70779C1.92278 4.70779 2.11865 4.90367 2.11865 5.14529C2.11865 5.38692 1.92278 5.58279 1.68115 5.58279C1.43953 5.58279 1.24365 5.38692 1.24365 5.14529ZM7.18573 5.06517L7.04652 4.55677C7.03272 4.50639 6.96127 4.50639 6.94747 4.55677L6.80826 5.06517C6.57534 5.91577 5.91081 6.5803 5.06022 6.81321L4.55182 6.95243C4.50144 6.96622 4.50144 7.03768 4.55182 7.05147L5.06022 7.19068C5.91081 7.42359 6.57533 8.08811 6.80824 8.9387L6.94745 9.4471C6.96124 9.49748 7.0327 9.49748 7.0465 9.4471L7.18571 8.9387C7.41862 8.08811 8.08316 7.42358 8.93375 7.19066L9.44215 7.05145C9.49253 7.03766 9.49253 6.9662 9.44215 6.9524L8.93375 6.8132C8.08316 6.58029 7.41863 5.91577 7.18573 5.06517Z" stroke="black" stroke-width="1.1" stroke-linecap="round"/>
</mask>
<g mask="url(#mask0_4095_146)">
<rect width="14" height="14" fill="#343A47"/>
</g>
</svg>
