<svg width="14" height="14" viewBox="0 0 14 14" fill="none" xmlns="http://www.w3.org/2000/svg">
<mask id="mask0_15_6973" style="mask-type:alpha" maskUnits="userSpaceOnUse" x="1" y="1" width="12" height="12">
<path d="M2.03703 10.5993L1.50779 10.4496L1.50779 10.4496L2.03703 10.5993ZM11.963 10.5993L11.4337 10.749L11.4337 10.749L11.963 10.5993ZM6.51723 9.82936C6.21348 9.82936 5.96723 10.0756 5.96723 10.3794C5.96723 10.6831 6.21348 10.9294 6.51723 10.9294V10.3794V9.82936ZM7.48276 10.9294C7.78652 10.9294 8.03276 10.6831 8.03276 10.3794C8.03276 10.0756 7.78652 9.82936 7.48276 9.82936V10.3794V10.9294ZM8.35444 3.71451C8.13965 3.49972 7.79141 3.49972 7.57662 3.71451C7.36183 3.9293 7.36183 4.27754 7.57662 4.49233L7.96553 4.10342L8.35444 3.71451ZM8.93106 5.06895L9.31996 5.45786C9.53475 5.24307 9.53475 4.89483 9.31996 4.68004L8.93106 5.06895ZM7.57662 5.64557C7.36183 5.86036 7.36183 6.2086 7.57662 6.42339C7.79141 6.63818 8.13965 6.63818 8.35444 6.42339L7.96553 6.03448L7.57662 5.64557ZM6.42338 4.49233C6.63817 4.27754 6.63817 3.9293 6.42338 3.71451C6.20859 3.49972 5.86035 3.49972 5.64556 3.71451L6.03447 4.10342L6.42338 4.49233ZM5.06894 5.06895L4.68003 4.68004C4.46524 4.89483 4.46524 5.24307 4.68003 5.45786L5.06894 5.06895ZM5.64556 6.42339C5.86035 6.63818 6.20859 6.63818 6.42338 6.42339C6.63817 6.2086 6.63817 5.86036 6.42338 5.64557L6.03447 6.03448L5.64556 6.42339ZM2.75167 8.07281H3.30167V3.13789H2.75167H2.20167V8.07281H2.75167ZM2.75167 3.13789H3.30167C3.30167 2.9084 3.48771 2.72236 3.7172 2.72236V2.17236V1.62236C2.8802 1.62236 2.20167 2.30089 2.20167 3.13789H2.75167ZM3.7172 2.17236V2.72236H10.2828V2.17236V1.62236H3.7172V2.17236ZM10.2828 2.17236V2.72236C10.5123 2.72236 10.6983 2.9084 10.6983 3.13789H11.2483H11.7983C11.7983 2.30089 11.1198 1.62236 10.2828 1.62236V2.17236ZM11.2483 3.13789H10.6983V8.07281H11.2483H11.7983V3.13789H11.2483ZM2.75167 8.07281V8.62281H11.2483V8.07281V7.52281H2.75167V8.07281ZM2.75167 8.07281L2.22244 7.92311L1.50779 10.4496L2.03703 10.5993L2.56627 10.749L3.28091 8.22251L2.75167 8.07281ZM2.03703 10.5993L1.50779 10.4496C1.2342 11.4169 1.96087 12.3777 2.96611 12.3777V11.8277V11.2777C2.69051 11.2777 2.49125 11.0142 2.56627 10.749L2.03703 10.5993ZM2.96611 11.8277V12.3777H11.0339V11.8277V11.2777H2.96611V11.8277ZM11.0339 11.8277V12.3777C12.0391 12.3777 12.7658 11.4169 12.4922 10.4496L11.963 10.5993L11.4337 10.749C11.5088 11.0142 11.3095 11.2777 11.0339 11.2777V11.8277ZM11.963 10.5993L12.4922 10.4496L11.7776 7.92311L11.2483 8.07281L10.7191 8.22251L11.4337 10.749L11.963 10.5993ZM6.51723 10.3794V10.9294H7.48276V10.3794V9.82936H6.51723V10.3794ZM7.96553 4.10342L7.57662 4.49233L8.54215 5.45786L8.93106 5.06895L9.31996 4.68004L8.35444 3.71451L7.96553 4.10342ZM8.93106 5.06895L8.54215 4.68004L7.57662 5.64557L7.96553 6.03448L8.35444 6.42339L9.31996 5.45786L8.93106 5.06895ZM6.03447 4.10342L5.64556 3.71451L4.68003 4.68004L5.06894 5.06895L5.45785 5.45786L6.42338 4.49233L6.03447 4.10342ZM5.06894 5.06895L4.68003 5.45786L5.64556 6.42339L6.03447 6.03448L6.42338 5.64557L5.45785 4.68004L5.06894 5.06895Z" fill="black"/>
</mask>
<g mask="url(#mask0_15_6973)">
<rect width="14" height="14" fill="#343A47"/>
</g>
</svg>
