<svg width="14" height="14" viewBox="0 0 14 14" fill="none" xmlns="http://www.w3.org/2000/svg">
<mask id="mask0_3933_1776" style="mask-type:alpha" maskUnits="userSpaceOnUse" x="0" y="1" width="14" height="12">
<path d="M6.56027 11.7167C6.56027 11.9595 6.7571 12.1564 6.99991 12.1564C7.24272 12.1564 7.43955 11.9595 7.43955 11.7167C7.43955 11.4739 7.24272 11.2771 6.99991 11.2771C6.7571 11.2771 6.56027 11.4739 6.56027 11.7167Z" fill="black"/>
<path d="M7.21959 7.83702C7.42987 7.71561 7.50192 7.44673 7.38051 7.23645C7.25911 7.02617 6.99023 6.95413 6.77995 7.07553C6.56967 7.19694 6.49762 7.46582 6.61903 7.67609C6.74043 7.88637 7.00932 7.95842 7.21959 7.83702Z" fill="black"/>
<path d="M6.99992 11.7166H11.9807C12.5293 11.7166 12.8694 11.1196 12.5898 10.6477L7.60895 2.24254C7.33476 1.77983 6.66508 1.77983 6.39088 2.24254L1.41005 10.6477C1.13039 11.1196 1.47053 11.7166 2.01908 11.7166H3.52909C3.75485 11.7166 3.96708 11.6089 4.1004 11.4267L6.99989 7.46437M6.99991 12.1564C6.7571 12.1564 6.56027 11.9595 6.56027 11.7167C6.56027 11.4739 6.7571 11.2771 6.99991 11.2771C7.24272 11.2771 7.43955 11.4739 7.43955 11.7167C7.43955 11.9595 7.24272 12.1564 6.99991 12.1564ZM7.38051 7.23645C7.50192 7.44673 7.42987 7.71561 7.21959 7.83702C7.00932 7.95842 6.74043 7.88637 6.61903 7.67609C6.49762 7.46582 6.56967 7.19694 6.77995 7.07553C6.99023 6.95413 7.25911 7.02617 7.38051 7.23645Z" stroke="black" stroke-width="1.1" stroke-linecap="round" stroke-linejoin="round"/>
</mask>
<g mask="url(#mask0_3933_1776)">
<rect width="14" height="14" fill="#343A47"/>
</g>
</svg>
