<svg width="14" height="14" viewBox="0 0 14 14" fill="none" xmlns="http://www.w3.org/2000/svg">
<mask id="mask0_3933_1766" style="mask-type:alpha" maskUnits="userSpaceOnUse" x="0" y="1" width="13" height="12">
<path d="M9.06736 11.9963C8.8965 12.1671 8.61949 12.1671 8.44864 11.9963C8.27779 11.8254 8.27779 11.5484 8.44864 11.3776C8.61949 11.2067 8.8965 11.2067 9.06736 11.3776C9.23821 11.5484 9.23821 11.8254 9.06736 11.9963Z" fill="black"/>
<path d="M4.95383 3.26423C4.78298 3.43508 4.50597 3.43508 4.33511 3.26423C4.16426 3.09337 4.16426 2.81636 4.33511 2.64551C4.50597 2.47466 4.78298 2.47466 4.95383 2.64551C5.12469 2.81636 5.12469 3.09337 4.95383 3.26423Z" fill="black"/>
<path d="M11.7755 11.7756L8.65299 8.65308C8.61917 8.61926 8.61932 8.56456 8.6517 8.52936C8.966 8.18773 9.15746 7.74991 9.19401 7.28547C9.23283 6.7922 9.09437 6.30126 8.80354 5.90096C8.5127 5.50066 8.08858 5.21727 7.60745 5.10176C7.12632 4.98625 6.61977 5.0462 6.1789 5.27084C5.73803 5.49547 5.39179 5.87004 5.20243 6.32718C5.01308 6.78431 4.99306 7.29401 5.14596 7.76459C5.29886 8.23517 5.61465 8.63575 6.03654 8.89428C6.22457 9.0095 6.42817 9.09314 6.63938 9.14361C6.90207 9.20637 7.17652 9.21783 7.44742 9.17492M10.551 10.5511C12.4446 8.65748 12.4446 5.58736 10.551 3.69376C8.94987 2.09263 6.50757 1.84533 4.6466 2.95187M1.24463 3.20395L2.85604 4.81536C1.86127 6.65314 2.14048 8.99789 3.69367 10.5511C5.0614 11.9188 7.04293 12.2986 8.75158 11.6906M9.06736 11.9963C8.8965 12.1671 8.61949 12.1671 8.44864 11.9963C8.27779 11.8254 8.27779 11.5484 8.44864 11.3776C8.61949 11.2067 8.8965 11.2067 9.06736 11.3776C9.23821 11.5484 9.23821 11.8254 9.06736 11.9963ZM4.95383 3.26423C4.78298 3.43508 4.50597 3.43508 4.33511 3.26423C4.16426 3.09337 4.16426 2.81636 4.33511 2.64551C4.50597 2.47466 4.78298 2.47466 4.95383 2.64551C5.12469 2.81636 5.12469 3.09337 4.95383 3.26423Z" stroke="black" stroke-width="1.1" stroke-linecap="round" stroke-linejoin="round"/>
</mask>
<g mask="url(#mask0_3933_1766)">
<rect width="14" height="14" fill="#2A3142"/>
</g>
</svg>
