<svg width="14" height="14" viewBox="0 0 14 14" fill="none" xmlns="http://www.w3.org/2000/svg">
<mask id="mask0_59_139" style="mask-type:alpha" maskUnits="userSpaceOnUse" x="1" y="1" width="12" height="12">
<path fill-rule="evenodd" clip-rule="evenodd" d="M7 1.3125C10.1411 1.3125 12.6875 3.85888 12.6875 7C12.6875 10.1411 10.1411 12.6875 7 12.6875C3.85888 12.6875 1.3125 10.1411 1.3125 7C1.3125 3.85888 3.85888 1.3125 7 1.3125ZM9.60022 5.07312C9.40371 4.87694 9.08481 4.87674 8.88843 5.07312L6.10193 7.85962L5.11072 6.86841C4.91425 6.67241 4.59613 6.67221 4.39978 6.86841C4.2034 7.06479 4.2036 7.38369 4.39978 7.5802L5.74646 8.92688C5.94287 9.12296 6.26099 9.12296 6.4574 8.92688L9.60022 5.78406C9.7963 5.58765 9.7963 5.26953 9.60022 5.07312Z" fill="black"/>
</mask>
<g mask="url(#mask0_59_139)">
<rect width="14" height="14" fill="#343A47"/>
</g>
</svg>
