<svg width="14" height="14" viewBox="0 0 14 14" fill="none" xmlns="http://www.w3.org/2000/svg">
<mask id="mask0_3925_161" style="mask-type:alpha" maskUnits="userSpaceOnUse" x="1" y="0" width="12" height="14">
<path d="M9.99709 5.90792C9.99709 6.14918 9.80122 6.34476 9.55959 6.34476C9.31797 6.34476 9.12209 6.14918 9.12209 5.90792C9.12209 5.66666 9.31797 5.47108 9.55959 5.47108C9.80122 5.47108 9.99709 5.66666 9.99709 5.90792Z" fill="black"/>
<path d="M7.00021 7.23836V11.7773C7.00021 12.4098 7.68633 12.8039 8.23266 12.4852L11.7071 10.4584C11.9589 10.3115 12.1137 10.042 12.1137 9.75052V4.72619C12.1137 4.43472 11.9589 4.16518 11.7071 4.01831L7.41314 1.51349C7.15798 1.36464 6.84245 1.36464 6.58728 1.51349L4.44347 2.76405M7.00021 7.23836L9.55696 5.91264M7.00021 7.23836L3.11917 4.97441C2.57283 4.65572 1.88672 5.0498 1.88672 5.6823V9.75052C1.88672 10.042 2.04154 10.3115 2.29331 10.4584L4.36731 11.6682M9.99709 5.90792C9.99709 6.14918 9.80122 6.34476 9.55959 6.34476C9.31797 6.34476 9.12209 6.14918 9.12209 5.90792C9.12209 5.66666 9.31797 5.47108 9.55959 5.47108C9.80122 5.47108 9.99709 5.66666 9.99709 5.90792Z" stroke="black" stroke-width="1.1" stroke-linecap="round"/>
</mask>
<g mask="url(#mask0_3925_161)">
<rect width="14" height="14" fill="#343A47"/>
</g>
</svg>
