<svg width="14" height="14" viewBox="0 0 14 14" fill="none" xmlns="http://www.w3.org/2000/svg">
<mask id="mask0_15_6614" style="mask-type:alpha" maskUnits="userSpaceOnUse" x="1" y="1" width="12" height="12">
<path d="M1.45 10.4095C1.45 10.7133 1.69624 10.9595 2 10.9595C2.30376 10.9595 2.55 10.7133 2.55 10.4095H2H1.45ZM8.82849 6.60716L8.42185 6.23683L8.42185 6.23683L8.82849 6.60716ZM10.012 6.60716L10.4186 6.23683L10.4186 6.23683L10.012 6.60716ZM10.6411 6.86776L10.6154 6.31836L10.6154 6.31836L10.6411 6.86776ZM11.478 7.70461L12.0274 7.7303L12.0274 7.73029L11.478 7.70461ZM11.7385 8.33375L12.1089 7.92712L12.1089 7.92711L11.7385 8.33375ZM11.7385 9.51723L12.1089 9.92386L12.1089 9.92386L11.7385 9.51723ZM11.478 10.1464L12.0274 10.1207L12.0274 10.1207L11.478 10.1464ZM10.6411 10.9832L10.6154 11.5326L10.6154 11.5326L10.6411 10.9832ZM10.012 11.2438L10.4186 11.6142L10.4186 11.6141L10.012 11.2438ZM8.82849 11.2438L8.42185 11.6141L8.42185 11.6142L8.82849 11.2438ZM8.19935 10.9832L8.22503 11.5326L8.22504 11.5326L8.19935 10.9832ZM7.3625 10.1464L6.8131 10.1207L6.8131 10.1207L7.3625 10.1464ZM7.1019 9.51723L6.73156 9.92386L6.73156 9.92386L7.1019 9.51723ZM7.1019 8.33375L6.73156 7.92711L6.73156 7.92712L7.1019 8.33375ZM7.3625 7.70461L6.8131 7.73029L6.8131 7.7303L7.3625 7.70461ZM8.19935 6.86776L8.22504 6.31836L8.22503 6.31836L8.19935 6.86776ZM8.99962 8.53656C8.78482 8.32178 8.43658 8.3218 8.2218 8.5366C8.00702 8.7514 8.00704 9.09964 8.22184 9.31442L8.61073 8.92549L8.99962 8.53656ZM9.15042 9.46514L8.76153 9.85406C8.97632 10.0688 9.32455 10.0688 9.53933 9.85405L9.15042 9.46514ZM10.6186 8.77475C10.8334 8.55996 10.8334 8.21172 10.6186 7.99693C10.4038 7.78214 10.0556 7.78214 9.84081 7.99693L10.2297 8.38584L10.6186 8.77475ZM2 10.4095H2.55V9.91485H2H1.45V10.4095H2ZM2 9.91485H2.55C2.55 8.30617 3.85409 7.00208 5.46277 7.00208V6.45208V5.90208C3.24658 5.90208 1.45 7.69866 1.45 9.91485H2ZM8.82849 6.60716L9.23512 6.9775C9.33444 6.86845 9.50601 6.86845 9.60533 6.9775L10.012 6.60716L10.4186 6.23683C9.88294 5.64867 8.95751 5.64867 8.42185 6.23683L8.82849 6.60716ZM10.012 6.60716L9.60532 6.9775C9.87606 7.27477 10.2652 7.43594 10.6668 7.41716L10.6411 6.86776L10.6154 6.31836C10.541 6.32184 10.4688 6.29197 10.4186 6.23683L10.012 6.60716ZM10.6411 6.86776L10.6668 7.41716C10.8141 7.41028 10.9354 7.53162 10.9286 7.67894L11.478 7.70461L12.0274 7.73029C12.0645 6.93564 11.4101 6.28122 10.6154 6.31836L10.6411 6.86776ZM11.478 7.70461L10.9286 7.67893C10.9098 8.08056 11.0709 8.46966 11.3682 8.74039L11.7385 8.33375L12.1089 7.92711C12.0537 7.8769 12.0239 7.80475 12.0274 7.7303L11.478 7.70461ZM11.7385 8.33375L11.3682 8.74038C11.4773 8.8397 11.4773 9.01128 11.3682 9.11059L11.7385 9.51723L12.1089 9.92386C12.697 9.3882 12.697 8.46277 12.1089 7.92712L11.7385 8.33375ZM11.7385 9.51723L11.3682 9.11059C11.0709 9.38132 10.9098 9.77042 10.9286 10.1721L11.478 10.1464L12.0274 10.1207C12.0239 10.0462 12.0537 9.97408 12.1089 9.92386L11.7385 9.51723ZM11.478 10.1464L10.9286 10.172C10.9354 10.3194 10.8141 10.4407 10.6668 10.4338L10.6411 10.9832L10.6154 11.5326C11.4101 11.5698 12.0645 10.9153 12.0274 10.1207L11.478 10.1464ZM10.6411 10.9832L10.6668 10.4338C10.2652 10.415 9.87606 10.5762 9.60532 10.8735L10.012 11.2438L10.4186 11.6141C10.4688 11.559 10.541 11.5291 10.6154 11.5326L10.6411 10.9832ZM10.012 11.2438L9.60533 10.8735C9.50601 10.9825 9.33444 10.9825 9.23512 10.8735L8.82849 11.2438L8.42185 11.6142C8.95751 12.2023 9.88294 12.2023 10.4186 11.6142L10.012 11.2438ZM8.82849 11.2438L9.23512 10.8735C8.96439 10.5762 8.57529 10.415 8.17366 10.4338L8.19935 10.9832L8.22504 11.5326C8.29949 11.5291 8.37163 11.559 8.42185 11.6141L8.82849 11.2438ZM8.19935 10.9832L8.17367 10.4338C8.02635 10.4407 7.90501 10.3194 7.9119 10.172L7.3625 10.1464L6.8131 10.1207C6.77595 10.9153 7.43038 11.5698 8.22503 11.5326L8.19935 10.9832ZM7.3625 10.1464L7.9119 10.1721C7.93068 9.77042 7.7695 9.38132 7.47223 9.11059L7.1019 9.51723L6.73156 9.92386C6.78671 9.97408 6.81658 10.0462 6.8131 10.1207L7.3625 10.1464ZM7.1019 9.51723L7.47224 9.11059C7.36318 9.01128 7.36318 8.8397 7.47224 8.74038L7.1019 8.33375L6.73156 7.92712C6.14341 8.46277 6.14341 9.3882 6.73156 9.92386L7.1019 9.51723ZM7.1019 8.33375L7.47223 8.74039C7.7695 8.46966 7.93068 8.08056 7.9119 7.67893L7.3625 7.70461L6.8131 7.7303C6.81658 7.80475 6.78671 7.8769 6.73156 7.92711L7.1019 8.33375ZM7.3625 7.70461L7.9119 7.67894C7.90501 7.53162 8.02635 7.41028 8.17367 7.41716L8.19935 6.86776L8.22503 6.31836C7.43038 6.28122 6.77595 6.93564 6.8131 7.73029L7.3625 7.70461ZM8.19935 6.86776L8.17366 7.41716C8.57529 7.43594 8.96439 7.27477 9.23512 6.9775L8.82849 6.60716L8.42185 6.23683C8.37163 6.29197 8.29949 6.32184 8.22504 6.31836L8.19935 6.86776ZM8.61073 8.92549L8.22184 9.31442L8.76153 9.85406L9.15042 9.46514L9.53932 9.07621L8.99962 8.53656L8.61073 8.92549ZM9.15042 9.46514L9.53933 9.85405L10.6186 8.77475L10.2297 8.38584L9.84081 7.99693L8.76152 9.07623L9.15042 9.46514ZM5.46277 6.45208V7.00208C6.85933 7.00208 7.9915 5.86991 7.9915 4.47336H7.4415H6.8915C6.8915 5.2624 6.25182 5.90208 5.46277 5.90208V6.45208ZM7.4415 4.47336H7.9915C7.9915 3.07677 6.85933 1.94463 5.46277 1.94463V2.49463V3.04463C6.25182 3.04463 6.8915 3.68429 6.8915 4.47336H7.4415ZM5.46277 2.49463V1.94463C4.06619 1.94463 2.93404 3.07678 2.93404 4.47336H3.48404H4.03404C4.03404 3.68429 4.67371 3.04463 5.46277 3.04463V2.49463ZM3.48404 4.47336H2.93404C2.93404 5.86991 4.06619 7.00208 5.46277 7.00208V6.45208V5.90208C4.67371 5.90208 4.03404 5.2624 4.03404 4.47336H3.48404Z" fill="black"/>
</mask>
<g mask="url(#mask0_15_6614)">
<rect width="14" height="14" fill="#343A47"/>
</g>
</svg>
