<svg width="14" height="14" viewBox="0 0 14 14" fill="none" xmlns="http://www.w3.org/2000/svg">
<mask id="mask0_3015_6" style="mask-type:alpha" maskUnits="userSpaceOnUse" x="1" y="1" width="12" height="12">
<path d="M9.5 7C9.5 7.69036 10.0596 8.25 10.75 8.25C11.4404 8.25 12 7.69036 12 7C12 6.30964 11.4404 5.75 10.75 5.75C10.0596 5.75 9.5 6.30964 9.5 7ZM9.5 7H8.25M8.25 7C8.25 7.69036 7.69036 8.25 7 8.25C6.30964 8.25 5.75 7.69036 5.75 7M8.25 7C8.25 6.30964 7.69036 5.75 7 5.75C6.30964 5.75 5.75 6.30964 5.75 7M5.75 7H4.70833C4.2481 7 3.875 6.6269 3.875 6.16667V5.75M3.875 5.75C4.91053 5.75 5.75 4.91053 5.75 3.875C5.75 2.83947 4.91053 2 3.875 2C2.83947 2 2 2.83947 2 3.875C2 4.91053 2.83947 5.75 3.875 5.75ZM3.875 5.75V9.91667C3.875 10.3769 4.2481 10.75 4.70833 10.75H5.75M9.5 10.75C9.5 11.4404 10.0596 12 10.75 12C11.4404 12 12 11.4404 12 10.75C12 10.0596 11.4404 9.5 10.75 9.5C10.0596 9.5 9.5 10.0596 9.5 10.75ZM9.5 10.75H8.25M8.25 10.75C8.25 11.4404 7.69036 12 7 12C6.30964 12 5.75 11.4404 5.75 10.75M8.25 10.75C8.25 10.0596 7.69036 9.5 7 9.5C6.30964 9.5 5.75 10.0596 5.75 10.75M3.5625 4.39583V3.35417L4.39583 3.875L3.5625 4.39583Z" stroke="black" stroke-linejoin="round"/>
</mask>
<g mask="url(#mask0_3015_6)">
<rect width="14" height="14" fill="#343A47"/>
</g>
</svg>
