<svg width="14" height="14" viewBox="0 0 14 14" fill="none" xmlns="http://www.w3.org/2000/svg">
<mask id="mask0_3917_633" style="mask-type:alpha" maskUnits="userSpaceOnUse" x="1" y="1" width="12" height="12">
<path d="M6.60693 8.27026C6.60693 8.51189 6.41106 8.70776 6.16943 8.70776C5.92781 8.70776 5.73193 8.51189 5.73193 8.27026C5.73193 8.02864 5.92781 7.83276 6.16943 7.83276C6.41106 7.83276 6.60693 8.02864 6.60693 8.27026Z" fill="black"/>
<path d="M5.89903 7.92151L5.4449 8.23179V8.23179L5.89903 7.92151ZM6.11556 8.20728L6.53707 7.85397L6.53707 7.85397L6.11556 8.20728ZM5.75627 8.63312C5.95667 8.86139 6.30418 8.88399 6.53245 8.68358C6.76072 8.48318 6.78331 8.13567 6.58291 7.9074L6.16959 8.27026L5.75627 8.63312ZM10.9629 7.85397C10.7678 8.08676 10.7983 8.43366 11.0311 8.62879C11.2639 8.82392 11.6108 8.79339 11.8059 8.56059L11.3844 8.20728L10.9629 7.85397ZM8.75 8.27026H8.2C8.2 9.8995 6.87924 11.2203 5.25 11.2203V11.7703V12.3203C7.48675 12.3203 9.3 10.507 9.3 8.27026H8.75ZM5.25 11.7703V11.2203C3.62076 11.2203 2.3 9.8995 2.3 8.27026H1.75H1.2C1.2 10.507 3.01325 12.3203 5.25 12.3203V11.7703ZM1.75 8.27026H2.3C2.3 6.64102 3.62076 5.32026 5.25 5.32026V4.77026V4.22026C3.01325 4.22026 1.2 6.03351 1.2 8.27026H1.75ZM5.25 4.77026V5.32026C6.87924 5.32026 8.2 6.64102 8.2 8.27026H8.75H9.3C9.3 6.03351 7.48675 4.22026 5.25 4.22026V4.77026ZM5.25 5.80063H5.8C5.8 4.06283 7.14303 2.69526 8.75 2.69526V2.14526V1.59526C6.49098 1.59526 4.7 3.50083 4.7 5.80063H5.25ZM8.75 2.14526V2.69526C10.357 2.69526 11.7 4.06283 11.7 5.80063H12.25H12.8C12.8 3.50083 11.009 1.59526 8.75 1.59526V2.14526ZM5.89903 7.92151L6.35315 7.61123C6.00589 7.10298 5.8 6.47872 5.8 5.80063H5.25H4.7C4.7 6.70399 4.97491 7.54389 5.4449 8.23179L5.89903 7.92151ZM6.11556 8.20728L6.53707 7.85397C6.47209 7.77644 6.41068 7.69543 6.35315 7.61123L5.89903 7.92151L5.4449 8.23179C5.52272 8.34568 5.60589 8.45541 5.69405 8.56059L6.11556 8.20728ZM6.16959 8.27026L6.58291 7.9074C6.56744 7.88978 6.55216 7.87197 6.53707 7.85397L6.11556 8.20728L5.69405 8.56059C5.71452 8.58502 5.73526 8.6092 5.75627 8.63312L6.16959 8.27026ZM12.25 5.80063H11.7C11.7 6.59084 11.4203 7.30827 10.9629 7.85397L11.3844 8.20728L11.8059 8.56059C12.4264 7.82035 12.8 6.85378 12.8 5.80063H12.25ZM6.60693 8.27026H6.05693C6.05693 8.20813 6.1073 8.15776 6.16943 8.15776V8.70776V9.25776C6.71481 9.25776 7.15693 8.81564 7.15693 8.27026H6.60693ZM6.16943 8.70776V8.15776C6.23157 8.15776 6.28193 8.20813 6.28193 8.27026H5.73193H5.18193C5.18193 8.81564 5.62405 9.25776 6.16943 9.25776V8.70776ZM5.73193 8.27026H6.28193C6.28193 8.3324 6.23157 8.38276 6.16943 8.38276V7.83276V7.28276C5.62405 7.28276 5.18193 7.72488 5.18193 8.27026H5.73193ZM6.16943 7.83276V8.38276C6.1073 8.38276 6.05693 8.3324 6.05693 8.27026H6.60693H7.15693C7.15693 7.72488 6.71481 7.28276 6.16943 7.28276V7.83276Z" fill="black"/>
</mask>
<g mask="url(#mask0_3917_633)">
<rect width="14" height="14" fill="#343A47"/>
</g>
</svg>
