<svg width="14" height="14" viewBox="0 0 14 14" fill="none" xmlns="http://www.w3.org/2000/svg">
<mask id="mask0_3933_1807" style="mask-type:alpha" maskUnits="userSpaceOnUse" x="0" y="1" width="14" height="11">
<path d="M4.53977 10.6701C4.53977 10.9117 4.3436 11.1076 4.10161 11.1076C3.85962 11.1076 3.66345 10.9117 3.66345 10.6701C3.66345 10.4285 3.85962 10.2326 4.10161 10.2326C4.3436 10.2326 4.53977 10.4285 4.53977 10.6701Z" fill="black"/>
<path d="M10.2264 5.41546L10.7736 5.35982C10.7716 5.34065 10.7687 5.3216 10.7647 5.30275L10.2264 5.41546ZM2.56329 5.77066C2.53429 6.07303 2.75591 6.34165 3.05828 6.37065C3.36065 6.39964 3.62927 6.17803 3.65827 5.87566L3.11078 5.82316L2.56329 5.77066ZM9.69759 5.65162C9.72832 5.95381 9.99821 6.17388 10.3004 6.14315C10.6026 6.11242 10.8227 5.84253 10.7919 5.54033L10.2448 5.59597L9.69759 5.65162ZM5.65897 6.31579L5.33562 6.7607V6.7607L5.65897 6.31579ZM7.62852 8.42714C7.87423 8.60572 8.21819 8.5513 8.39678 8.30558C8.57536 8.05986 8.52093 7.7159 8.27522 7.53732L7.95187 7.98223L7.62852 8.42714ZM4.10428 11.2183C4.40787 11.2083 4.64589 10.9541 4.6359 10.6505C4.62592 10.3469 4.37171 10.1089 4.06812 10.1189L4.0862 10.6686L4.10428 11.2183ZM8.17962 6.31579L8.49527 6.7662L8.49527 6.7662L8.17962 6.31579ZM8.17962 10.1308L8.4953 9.6804L8.48918 9.67623L8.17962 10.1308ZM5.40647 7.57711C5.15539 7.40614 4.81326 7.47108 4.64229 7.72216C4.47133 7.97323 4.53627 8.31536 4.78734 8.48633L5.09691 8.03172L5.40647 7.57711ZM9.81065 10.6686L9.79322 11.2183V11.2183L9.81065 10.6686ZM7.42333 6.17419C7.17458 6.34852 7.11425 6.6915 7.28858 6.94025C7.46291 7.189 7.80588 7.24933 8.05464 7.075L7.73898 6.6246L7.42333 6.17419ZM4.53977 10.6701H3.98977C3.98977 10.6072 4.04063 10.5576 4.10161 10.5576V11.1076V11.6576C4.64657 11.6576 5.08977 11.2163 5.08977 10.6701H4.53977ZM4.10161 11.1076V10.5576C4.16259 10.5576 4.21345 10.6072 4.21345 10.6701H3.66345H3.11345C3.11345 11.2163 3.55665 11.6576 4.10161 11.6576V11.1076ZM3.66345 10.6701H4.21345C4.21345 10.733 4.16259 10.7826 4.10161 10.7826V10.2326V9.68262C3.55665 9.68262 3.11345 10.124 3.11345 10.6701H3.66345ZM4.10161 10.2326V10.7826C4.04063 10.7826 3.98977 10.733 3.98977 10.6701H4.53977H5.08977C5.08977 10.124 4.64657 9.68262 4.10161 9.68262V10.2326ZM6.69996 2.51367V3.06367C8.16018 3.06367 9.3918 4.11301 9.68809 5.52817L10.2264 5.41546L10.7647 5.30275C10.3667 3.40158 8.70452 1.96367 6.69996 1.96367V2.51367ZM3.11078 5.82316L3.65827 5.87566C3.81037 4.28949 5.12195 3.06367 6.69996 3.06367V2.51367V1.96367C4.53399 1.96367 2.76747 3.6415 2.56329 5.77066L3.11078 5.82316ZM10.2264 5.41546L9.67924 5.4711L9.69759 5.65162L10.2448 5.59597L10.7919 5.54033L10.7736 5.35982L10.2264 5.41546ZM5.65897 6.31579L5.98232 5.87089C4.92752 5.10428 3.6255 5.06729 2.59431 5.51755C1.56199 5.9683 0.740283 6.93979 0.740283 8.22332H1.29028H1.84028C1.84028 7.45852 2.32262 6.83647 3.03448 6.52564C3.74748 6.21432 4.6298 6.24773 5.33562 6.7607L5.65897 6.31579ZM7.95187 7.98223L8.27522 7.53732L5.98232 5.87089L5.65897 6.31579L5.33562 6.7607L7.62852 8.42714L7.95187 7.98223ZM1.29028 8.22332H0.740283C0.740283 10.1027 2.46013 11.2723 4.10428 11.2183L4.0862 10.6686L4.06812 10.1189C2.87403 10.1581 1.84028 9.32218 1.84028 8.22332H1.29028ZM8.17962 6.31579L8.49527 6.7662C9.23594 6.24712 10.1656 6.2125 10.9161 6.5285C11.6666 6.84446 12.1601 7.47008 12.1601 8.22332H12.7101H13.2601C13.2601 6.92824 12.4014 5.9603 11.343 5.51469C10.2847 5.06911 8.94913 5.10489 7.86397 5.86539L8.17962 6.31579ZM8.17962 10.1308L8.48918 9.67623L5.40647 7.57711L5.09691 8.03172L4.78734 8.48633L7.87006 10.5855L8.17962 10.1308ZM9.81065 10.6686L9.82808 10.1188C9.36402 10.1041 8.90001 9.96409 8.49527 9.68044L8.17962 10.1308L7.86397 10.5812C8.45641 10.9964 9.13097 11.1973 9.79322 11.2183L9.81065 10.6686ZM12.7101 8.22332H12.1601C12.1601 9.30483 11.0959 10.1591 9.82808 10.1188L9.81065 10.6686L9.79322 11.2183C11.4688 11.2714 13.2601 10.1201 13.2601 8.22332H12.7101ZM7.73898 6.6246L8.05464 7.075L8.49527 6.7662L8.17962 6.31579L7.86397 5.86539L7.42333 6.17419L7.73898 6.6246Z" fill="black"/>
</mask>
<g mask="url(#mask0_3933_1807)">
<rect width="14" height="14" fill="#343A47"/>
</g>
</svg>
