<svg width="14" height="14" viewBox="0 0 14 14" fill="none" xmlns="http://www.w3.org/2000/svg">
<mask id="mask0_3939_15" style="mask-type:alpha" maskUnits="userSpaceOnUse" x="1" y="1" width="12" height="12">
<path d="M2 11.9998L3.35 10.6491M5.99933 6.66667L5 7.66667M7.33333 8L6.33333 9M12 2L10.65 3.35067M10.65 3.35067C11.0876 3.78827 11.3335 4.38113 11.3335 5C11.3335 5.61887 11.0876 6.21239 10.65 6.65L10 7.33333L6.68333 4.01667L7.35 3.35C7.78761 2.91239 8.38113 2.66655 9 2.66655C9.61887 2.66655 10.2124 2.91306 10.65 3.35067ZM3.35 7.35C2.91239 7.78761 2.66655 8.38113 2.66655 9C2.66655 9.61887 2.91239 10.2124 3.35 10.65C3.78761 11.0876 4.38113 11.3335 5 11.3335C5.61887 11.3335 6.21239 11.0876 6.65 10.65L7.31667 9.98333L4 6.66667L3.35 7.35Z" stroke="black" stroke-width="1.1" stroke-linecap="round" stroke-linejoin="round"/>
</mask>
<g mask="url(#mask0_3939_15)">
<rect width="14" height="14" fill="#343A47"/>
</g>
</svg>
