<svg width="14" height="14" viewBox="0 0 14 14" fill="none" xmlns="http://www.w3.org/2000/svg">
<mask id="mask0_3917_658" style="mask-type:alpha" maskUnits="userSpaceOnUse" x="1" y="1" width="12" height="12">
<path d="M1.62277 5.67753L1.37912 6.11414H1.37912L1.62277 5.67753ZM1.62277 5.31626L1.86643 5.75288V5.75288L1.62277 5.31626ZM7.06848 8.60404L7.31214 9.04065V9.04065L7.06848 8.60404ZM6.86687 8.60404L6.62322 9.04065V9.04065L6.86687 8.60404ZM12.3126 5.31626L12.5562 4.87965V4.87965L12.3126 5.31626ZM12.3126 5.67753L12.5562 6.11414V6.11414L12.3126 5.67753ZM7.06848 2.38975L6.82482 2.82636V2.82636L7.06848 2.38975ZM6.86687 2.38975L6.62322 1.95313L6.86687 2.38975ZM1.62265 8.27501L1.379 7.83839H1.379L1.62265 8.27501ZM12.3125 8.27501L12.5561 7.83839V7.83839L12.3125 8.27501ZM5.55041 6.08309L5.79407 6.5197L5.80448 6.51389L5.8146 6.50759L5.55041 6.08309ZM7.14203 5.68146C7.37647 5.53555 7.44825 5.22721 7.30234 4.99276C7.15643 4.75832 6.84809 4.68655 6.61364 4.83245L6.87783 5.25696L7.14203 5.68146ZM3.88961 10.474C4.13074 10.6085 4.43531 10.5221 4.56988 10.281C4.70445 10.0399 4.61806 9.73529 4.37692 9.60073L4.13327 10.0373L3.88961 10.474ZM1.62265 8.63627L1.379 9.07289L1.379 9.07289L1.62265 8.63627ZM9.09327 10.4328L9.31696 10.8799L9.32707 10.8749L9.33693 10.8694L9.09327 10.4328ZM12.3125 8.63627L12.5561 9.07289L12.5561 9.07289L12.3125 8.63627ZM7.06848 2.38975L6.82482 2.82636L12.0689 5.75288L12.3126 5.31626L12.5562 4.87965L7.31214 1.95313L7.06848 2.38975ZM12.3126 5.67753L12.0689 5.24091L6.82482 8.16743L7.06848 8.60404L7.31214 9.04065L12.5562 6.11414L12.3126 5.67753ZM6.86687 8.60404L7.11053 8.16743L1.86643 5.24091L1.62277 5.67753L1.37912 6.11414L6.62322 9.04065L6.86687 8.60404ZM1.62277 5.31626L1.86643 5.75288L7.11053 2.82636L6.86687 2.38975L6.62322 1.95313L1.37912 4.87965L1.62277 5.31626ZM1.62277 5.67753L1.86643 5.24091C2.06682 5.35274 2.06682 5.64105 1.86643 5.75288L1.62277 5.31626L1.37912 4.87965C0.895922 5.1493 0.895924 5.84449 1.37912 6.11414L1.62277 5.67753ZM7.06848 8.60404L6.82482 8.16743C6.91361 8.11788 7.02174 8.11788 7.11053 8.16743L6.86687 8.60404L6.62322 9.04065C6.83732 9.16013 7.09804 9.16013 7.31214 9.04065L7.06848 8.60404ZM12.3126 5.31626L12.0689 5.75288C11.8685 5.64105 11.8685 5.35274 12.0689 5.24091L12.3126 5.67753L12.5562 6.11414C13.0394 5.84449 13.0394 5.1493 12.5562 4.87965L12.3126 5.31626ZM7.06848 2.38975L7.31214 1.95314C7.09804 1.83366 6.83732 1.83366 6.62322 1.95313L6.86687 2.38975L7.11053 2.82636C7.02174 2.87591 6.91361 2.87591 6.82482 2.82636L7.06848 2.38975ZM9.80185 6.87394L9.55819 7.31055L12.0688 8.71162L12.3125 8.27501L12.5561 7.83839L10.0455 6.43733L9.80185 6.87394ZM5.55041 6.08309L5.8146 6.50759L7.14203 5.68146L6.87783 5.25696L6.61364 4.83245L5.28622 5.65859L5.55041 6.08309ZM4.13327 10.0373L4.37692 9.60073L1.86631 8.19966L1.62265 8.63627L1.379 9.07289L3.88961 10.474L4.13327 10.0373ZM1.62265 8.27501L1.379 7.83839C0.895802 8.10805 0.895803 8.80323 1.379 9.07289L1.62265 8.63627L1.86631 8.19966C2.0667 8.31149 2.0667 8.59979 1.86631 8.71162L1.62265 8.27501ZM12.3125 8.27501L12.0688 8.71162C11.8684 8.59979 11.8684 8.31149 12.0688 8.19966L12.3125 8.63627L12.5561 9.07289C13.0393 8.80324 13.0393 8.10805 12.5561 7.83839L12.3125 8.27501ZM7.30153 5.23714H6.80153C6.80153 5.20262 6.82951 5.17464 6.86403 5.17464V5.67464V6.17464C7.3818 6.17464 7.80153 5.75491 7.80153 5.23714H7.30153ZM6.86403 5.67464V5.17464C6.89855 5.17464 6.92653 5.20262 6.92653 5.23714H6.42653H5.92653C5.92653 5.75491 6.34626 6.17464 6.86403 6.17464V5.67464ZM6.42653 5.23714H6.92653C6.92653 5.27166 6.89855 5.29964 6.86403 5.29964V4.79964V4.29964C6.34626 4.29964 5.92653 4.71937 5.92653 5.23714H6.42653ZM6.86403 4.79964V5.29964C6.82951 5.29964 6.80153 5.27166 6.80153 5.23714H7.30153H7.80153C7.80153 4.71937 7.3818 4.29964 6.86403 4.29964V4.79964ZM7.74343 11.3226H7.24343C7.24343 11.2881 7.27142 11.2601 7.30593 11.2601V11.7601V12.2601C7.8237 12.2601 8.24343 11.8403 8.24343 11.3226H7.74343ZM7.30593 11.7601V11.2601C7.34045 11.2601 7.36843 11.2881 7.36843 11.3226H6.86843H6.36843C6.36843 11.8403 6.78817 12.2601 7.30593 12.2601V11.7601ZM6.86843 11.3226H7.36843C7.36843 11.3571 7.34045 11.3851 7.30593 11.3851V10.8851V10.3851C6.78817 10.3851 6.36843 10.8048 6.36843 11.3226H6.86843ZM7.30593 10.8851V11.3851C7.27142 11.3851 7.24343 11.3571 7.24343 11.3226H7.74343H8.24343C8.24343 10.8048 7.8237 10.3851 7.30593 10.3851V10.8851ZM1.62265 8.27501L1.86631 8.71162L5.79407 6.5197L5.55041 6.08309L5.30675 5.64648L1.379 7.83839L1.62265 8.27501ZM12.3125 8.63627L12.0688 8.19966L8.84962 9.99615L9.09327 10.4328L9.33693 10.8694L12.5561 9.07289L12.3125 8.63627ZM9.09327 10.4328L8.86959 9.98559L7.08752 10.877L7.31121 11.3242L7.5349 11.7714L9.31696 10.8799L9.09327 10.4328Z" fill="black"/>
</mask>
<g mask="url(#mask0_3917_658)">
<rect width="14" height="14" fill="#343A47"/>
</g>
</svg>
