<svg width="14" height="14" viewBox="0 0 14 14" fill="none" xmlns="http://www.w3.org/2000/svg">
<mask id="mask0_2391_1103" style="mask-type:alpha" maskUnits="userSpaceOnUse" x="0" y="0" width="14" height="14">
<path d="M1.82955 12.6881C1.54399 12.6881 1.3125 12.4566 1.3125 12.1711C1.3125 11.8855 1.54399 11.654 1.82955 11.654C2.1151 11.654 2.34659 11.8855 2.34659 12.1711C2.34659 12.4566 2.1151 12.6881 1.82955 12.6881Z" fill="black"/>
<path d="M7 12.6881C6.71444 12.6881 6.48295 12.4566 6.48295 12.1711C6.48295 11.8855 6.71444 11.654 7 11.654C7.28556 11.654 7.51705 11.8855 7.51705 12.1711C7.51705 12.4566 7.28556 12.6881 7 12.6881Z" fill="black"/>
<path d="M12.1705 12.6881C11.8849 12.6881 11.6534 12.4566 11.6534 12.1711C11.6534 11.8855 11.8849 11.654 12.1705 11.654C12.456 11.654 12.6875 11.8855 12.6875 12.1711C12.6875 12.4566 12.456 12.6881 12.1705 12.6881Z" fill="black"/>
<path d="M1.82955 12.1711V8.55175C1.82955 8.26619 2.06103 8.0347 2.34659 8.0347H11.6534C11.939 8.0347 12.1705 8.26619 12.1705 8.55175V12.1711M7 8.0347V11.654M7 11.654C6.71444 11.654 6.48295 11.8855 6.48295 12.1711C6.48295 12.4566 6.71444 12.6881 7 12.6881C7.28556 12.6881 7.51705 12.4566 7.51705 12.1711C7.51705 11.8855 7.28556 11.654 7 11.654ZM1.82955 12.6881C1.54399 12.6881 1.3125 12.4566 1.3125 12.1711C1.3125 11.8855 1.54399 11.654 1.82955 11.654C2.1151 11.654 2.34659 11.8855 2.34659 12.1711C2.34659 12.4566 2.1151 12.6881 1.82955 12.6881ZM12.1705 12.6881C11.8849 12.6881 11.6534 12.4566 11.6534 12.1711C11.6534 11.8855 11.8849 11.654 12.1705 11.654C12.456 11.654 12.6875 11.8855 12.6875 12.1711C12.6875 12.4566 12.456 12.6881 12.1705 12.6881ZM5.13864 5.44947H8.86136C8.97559 5.44947 9.06818 5.35688 9.06818 5.24266V1.51993C9.06818 1.40571 8.97559 1.31311 8.86136 1.31311H5.13864C5.02441 1.31311 4.93182 1.40571 4.93182 1.51993V5.24266C4.93182 5.35688 5.02441 5.44947 5.13864 5.44947Z" stroke="black" stroke-width="1.1"/>
</mask>
<g mask="url(#mask0_2391_1103)">
<rect width="14" height="14" fill="#343A47"/>
</g>
</svg>
