<svg width="14" height="14" viewBox="0 0 14 14" fill="none" xmlns="http://www.w3.org/2000/svg">
<mask id="mask0_3917_609" style="mask-type:alpha" maskUnits="userSpaceOnUse" x="0" y="3" width="14" height="8">
<path d="M5.54822 7C5.54822 7.24162 5.35234 7.4375 5.11072 7.4375C4.86909 7.4375 4.67322 7.24162 4.67322 7C4.67322 6.75838 4.86909 6.5625 5.11072 6.5625C5.35234 6.5625 5.54822 6.75838 5.54822 7Z" fill="black"/>
<path d="M6.11223 4.78466L5.77669 5.22045V5.22045L6.11223 4.78466ZM8.56029 7.36376C8.80096 7.54908 9.1463 7.5042 9.33162 7.26352C9.51694 7.02284 9.47206 6.67751 9.23138 6.49219L8.89583 6.92797L8.56029 7.36376ZM3.86818 9.82555L3.79373 10.3705L3.80157 10.3715L3.86818 9.82555ZM6.91768 8.57286L7.36071 8.89884L7.3646 8.89341L6.91768 8.57286ZM7.9503 9.21643L8.28823 8.7825V8.7825L7.9503 9.21643ZM7.9503 4.78357L7.61233 4.3496L7.60687 4.35397L7.9503 4.78357ZM9.65423 4.15807L9.6736 4.70773L9.65423 4.15807ZM5.44217 6.56607C5.20251 6.37943 4.85694 6.42241 4.6703 6.66206C4.48366 6.90172 4.52664 7.2473 4.7663 7.43393L5.10423 7L5.44217 6.56607ZM6.99158 8.46982L7.32952 8.03588V8.03588L6.99158 8.46982ZM6.11223 4.78466L5.77669 5.22045L6.71226 5.94082L7.04781 5.50503L7.38335 5.06925L6.44778 4.34887L6.11223 4.78466ZM7.04781 5.50503L6.71226 5.94082L8.56029 7.36376L8.89583 6.92797L9.23138 6.49219L7.38335 5.06925L7.04781 5.50503ZM6.11223 4.78466L6.44778 4.34887C4.18362 2.60552 0.7625 4.12465 0.7625 7.00496H1.3125H1.8625C1.8625 5.11691 4.17219 3.98502 5.77669 5.22045L6.11223 4.78466ZM3.86818 9.82555L3.94261 9.28061C2.80533 9.12526 1.8625 8.2239 1.8625 7.00496H1.3125H0.7625C0.7625 8.86025 2.2017 10.153 3.79374 10.3705L3.86818 9.82555ZM3.86818 9.82555L3.80157 10.3715C4.19981 10.4201 4.82025 10.3997 5.46813 10.2024C6.12181 10.0033 6.83461 9.61378 7.36068 8.89882L6.91768 8.57286L6.47468 8.2469C6.12314 8.72466 5.6366 9.00119 5.14764 9.15011C4.65288 9.3008 4.18737 9.31041 3.93478 9.2796L3.86818 9.82555ZM7.9503 9.21643L7.61236 9.65037C9.86031 11.401 13.2376 9.86607 13.2376 7H12.6876H12.1376C12.1376 8.894 9.85859 10.0055 8.28823 8.7825L7.9503 9.21643ZM7.9503 4.78357L8.28823 5.2175C8.7184 4.88249 9.19994 4.72442 9.6736 4.70773L9.65423 4.15807L9.63486 3.60842C8.93744 3.63299 8.23122 3.86768 7.61236 4.34963L7.9503 4.78357ZM9.65423 4.15807L9.6736 4.70773C10.9533 4.66264 12.1376 5.62857 12.1376 7H12.6876H13.2376C13.2376 4.91913 11.4466 3.54457 9.63486 3.60842L9.65423 4.15807ZM7.9503 4.78357L7.60687 4.35397L6.70438 5.07543L7.04781 5.50503L7.39123 5.93463L8.29373 5.21316L7.9503 4.78357ZM5.10423 7L4.7663 7.43393L6.65365 8.90375L6.99158 8.46982L7.32952 8.03588L5.44217 6.56607L5.10423 7ZM6.99158 8.46982L6.65365 8.90375L7.61236 9.65037L7.9503 9.21643L8.28823 8.7825L7.32952 8.03588L6.99158 8.46982ZM6.91768 8.57286L7.3646 8.89341L7.43851 8.79037L6.99158 8.46982L6.54465 8.14926L6.47075 8.2523L6.91768 8.57286ZM5.54822 7H4.99822C4.99822 6.93787 5.04859 6.8875 5.11072 6.8875V7.4375V7.9875C5.6561 7.9875 6.09822 7.54538 6.09822 7H5.54822ZM5.11072 7.4375V6.8875C5.17285 6.8875 5.22322 6.93787 5.22322 7H4.67322H4.12322C4.12322 7.54538 4.56534 7.9875 5.11072 7.9875V7.4375ZM4.67322 7H5.22322C5.22322 7.06213 5.17285 7.1125 5.11072 7.1125V6.5625V6.0125C4.56534 6.0125 4.12322 6.45462 4.12322 7H4.67322ZM5.11072 6.5625V7.1125C5.04859 7.1125 4.99822 7.06213 4.99822 7H5.54822H6.09822C6.09822 6.45462 5.6561 6.0125 5.11072 6.0125V6.5625Z" fill="black"/>
</mask>
<g mask="url(#mask0_3917_609)">
<rect width="14" height="14" fill="#343A47"/>
</g>
</svg>
