<svg width="14" height="14" viewBox="0 0 14 14" fill="none" xmlns="http://www.w3.org/2000/svg">
<mask id="mask0_6177_342" style="mask-type:alpha" maskUnits="userSpaceOnUse" x="0" y="0" width="14" height="14">
<path d="M4.63004 10.3177C4.36828 10.3177 4.15609 10.1055 4.15609 9.84375C4.15609 9.58199 4.36828 9.36979 4.63004 9.36979C4.8918 9.36979 5.104 9.58199 5.104 9.84375C5.104 10.1055 4.8918 10.3177 4.63004 10.3177Z" fill="black"/>
<path d="M6.12974 12.5707L5.67212 12.2656V12.2656L6.12974 12.5707ZM10.8693 9.72693L10.4117 9.42185L10.4117 9.42185L10.8693 9.72693ZM12.5903 7.14552L13.0479 7.4506V7.4506L12.5903 7.14552ZM6.12974 1.42932L5.67212 1.7344V1.7344L6.12974 1.42932ZM1.40929 4.30177L1.86692 3.99668H1.86692L1.40929 4.30177ZM12.5903 6.85448L13.0479 6.5494V6.5494L12.5903 6.85448ZM10.8693 4.27307L10.4117 4.57815L10.4117 4.57815L10.8693 4.27307ZM1.40929 4.01073L1.86692 4.31582H1.86692L1.40929 4.01073ZM3.13024 1.42932L2.67261 1.12423L3.13024 1.42932ZM1.40929 9.69823L0.951666 9.39315L0.951666 9.39315L1.40929 9.69823ZM3.5245 12.0547L3.03256 11.8088H3.03256L3.5245 12.0547ZM1.40929 9.98927L0.951666 10.2944L0.951667 10.2944L1.40929 9.98927ZM1.56559 11.2152C1.73409 11.468 2.07556 11.5363 2.3283 11.3678C2.58104 11.1993 2.64934 10.8578 2.48085 10.6051L2.02322 10.9102L1.56559 11.2152ZM3.91557 12.6875V13.2375H5.91147V12.6875V12.1375H3.91557V12.6875ZM6.12974 12.5707L6.58737 12.8758L8.40533 10.1488L7.9477 9.84375L7.49007 9.53866L5.67212 12.2656L6.12974 12.5707ZM7.9477 9.84375V10.3938H10.651V9.84375V9.29375H7.9477V9.84375ZM10.8693 9.72693L11.327 10.032L13.0479 7.4506L12.5903 7.14552L12.1326 6.84043L10.4117 9.42185L10.8693 9.72693ZM10.651 4.15625V3.60625H7.9477V4.15625V4.70625H10.651V4.15625ZM7.9477 4.15625L7.49007 3.85116L5.59424 6.69491L6.05187 7L6.50949 7.30509L8.40533 4.46134L7.9477 4.15625ZM6.05187 7L5.59424 7.30509L7.49007 10.1488L7.9477 9.84375L8.40533 9.53866L6.50949 6.69491L6.05187 7ZM3.20811 7V7.55H6.05187V7V6.45H3.20811V7ZM7.9477 4.15625L8.40533 3.85116L6.58737 1.12423L6.12974 1.42932L5.67212 1.7344L7.49007 4.46134L7.9477 4.15625ZM5.91147 1.3125V0.7625H3.34851V1.3125V1.8625H5.91147V1.3125ZM1.40929 4.30177L0.951666 4.60685L2.75049 7.30509L3.20811 7L3.66574 6.69491L1.86692 3.99668L1.40929 4.30177ZM12.5903 6.85448L13.0479 6.5494L11.327 3.96798L10.8693 4.27307L10.4117 4.57815L12.1326 7.15957L12.5903 6.85448ZM1.40929 4.01073L1.86692 4.31582L3.58786 1.7344L3.13024 1.42932L2.67261 1.12423L0.951666 3.70565L1.40929 4.01073ZM1.40929 9.69823L1.86692 10.0033L3.66574 7.30509L3.20811 7L2.75049 6.69491L0.951666 9.39315L1.40929 9.69823ZM3.5245 12.0547L4.01643 12.3007L5.12192 10.0897L4.62999 9.84375L4.13805 9.59778L3.03256 11.8088L3.5245 12.0547ZM3.34851 1.3125V0.7625C3.07691 0.7625 2.82327 0.898243 2.67261 1.12423L3.13024 1.42932L3.58786 1.7344C3.53451 1.81443 3.44469 1.8625 3.34851 1.8625V1.3125ZM6.12974 1.42932L6.58737 1.12423C6.43671 0.898243 6.18307 0.7625 5.91147 0.7625V1.3125V1.8625C5.81529 1.8625 5.72547 1.81443 5.67212 1.7344L6.12974 1.42932ZM10.651 4.15625V4.70625C10.5549 4.70625 10.4651 4.65818 10.4117 4.57815L10.8693 4.27307L11.327 3.96799C11.1763 3.74199 10.9227 3.60625 10.651 3.60625V4.15625ZM10.651 9.84375V10.3938C10.9227 10.3938 11.1763 10.258 11.327 10.032L10.8693 9.72693L10.4117 9.42185C10.4651 9.34182 10.5549 9.29375 10.651 9.29375V9.84375ZM5.91147 12.6875V13.2375C6.18307 13.2375 6.43671 13.1018 6.58737 12.8758L6.12974 12.5707L5.67212 12.2656C5.72547 12.1856 5.81529 12.1375 5.91147 12.1375V12.6875ZM3.91557 12.6875V12.1375C3.9994 12.1375 4.05392 12.2257 4.01643 12.3007L3.5245 12.0547L3.03256 11.8088C2.70436 12.4652 3.18168 13.2375 3.91557 13.2375V12.6875ZM12.5903 7.14552L13.0479 7.4506C13.2298 7.17774 13.2298 6.82226 13.0479 6.5494L12.5903 6.85448L12.1326 7.15957C12.0682 7.06294 12.0682 6.93706 12.1326 6.84044L12.5903 7.14552ZM1.40929 4.30177L1.86692 3.99668C1.93134 4.09331 1.93134 4.21919 1.86692 4.31582L1.40929 4.01073L0.951666 3.70565C0.769757 3.97851 0.769757 4.33399 0.951666 4.60685L1.40929 4.30177ZM1.40929 9.69823L0.951666 9.39315C0.769757 9.66601 0.769757 10.0215 0.951666 10.2944L1.40929 9.98927L1.86692 9.68419C1.93134 9.78081 1.93134 9.90669 1.86692 10.0033L1.40929 9.69823ZM4.63004 10.3177V9.76771C4.67204 9.76771 4.70608 9.80175 4.70608 9.84375H4.15609H3.60608C3.60608 10.4093 4.06453 10.8677 4.63004 10.8677V10.3177ZM4.15609 9.84375H4.70608C4.70608 9.88575 4.67204 9.91979 4.63004 9.91979V9.36979V8.81979C4.06453 8.81979 3.60608 9.27823 3.60608 9.84375H4.15609ZM4.63004 9.36979V9.91979C4.58805 9.91979 4.554 9.88575 4.554 9.84375H5.104H5.654C5.654 9.27823 5.19556 8.81979 4.63004 8.81979V9.36979ZM5.104 9.84375H4.554C4.554 9.80175 4.58805 9.76771 4.63004 9.76771V10.3177V10.8677C5.19556 10.8677 5.654 10.4093 5.654 9.84375H5.104ZM1.40929 9.98927L0.951667 10.2944L1.56559 11.2152L2.02322 10.9102L2.48085 10.6051L1.86692 9.68419L1.40929 9.98927Z" fill="black"/>
</mask>
<g mask="url(#mask0_6177_342)">
<rect width="14" height="14" fill="#343A47"/>
</g>
</svg>
