<svg width="14" height="14" viewBox="0 0 14 14" fill="none" xmlns="http://www.w3.org/2000/svg">
<mask id="mask0_3930_221" style="mask-type:alpha" maskUnits="userSpaceOnUse" x="1" y="0" width="12" height="14">
<path d="M4.42746 12.1522C4.42746 12.3964 4.22948 12.5944 3.98526 12.5944C3.74104 12.5944 3.54307 12.3964 3.54307 12.1522C3.54307 11.908 3.74104 11.71 3.98526 11.71C4.22948 11.71 4.42746 11.908 4.42746 12.1522Z" fill="black"/>
<path d="M12.131 4.30555L11.8321 5.80001M11.8321 5.80001L11.0474 10.2137C11.0406 10.2521 11.0037 10.2775 10.9654 10.2702L4.67345 9.07537C4.63521 9.0681 4.61023 9.03104 4.61787 8.99287M11.8321 5.80001L5.46934 4.72279C5.4314 4.71637 5.39539 4.74177 5.38872 4.77967L4.85792 7.79261L4.61787 8.99287M4.61787 8.99287L3.98615 12.1515M11.3339 2.81134L3.45423 1.40662C3.41623 1.39984 3.37992 1.4251 3.37306 1.46308L1.8689 9.7855M4.42746 12.1522C4.42746 12.3964 4.22948 12.5944 3.98526 12.5944C3.74104 12.5944 3.54307 12.3964 3.54307 12.1522C3.54307 11.908 3.74104 11.71 3.98526 11.71C4.22948 11.71 4.42746 11.908 4.42746 12.1522Z" stroke="black" stroke-linecap="round"/>
</mask>
<g mask="url(#mask0_3930_221)">
<rect width="14" height="14" fill="#343A47"/>
</g>
</svg>
