<svg width="14" height="14" viewBox="0 0 14 14" fill="none" xmlns="http://www.w3.org/2000/svg">
<mask id="mask0_3930_241" style="mask-type:alpha" maskUnits="userSpaceOnUse" x="0" y="1" width="13" height="12">
<path d="M4.37221 6.98179C4.36798 7.59063 4.57527 8.18204 4.95866 8.65502C5.34206 9.128 5.87777 9.45319 6.4743 9.57505C7.07083 9.69692 7.69116 9.60789 8.22934 9.32318C8.76752 9.03846 9.19015 8.57573 9.42505 8.01402C9.65995 7.45231 9.69254 6.82646 9.51725 6.24339C9.34196 5.66032 8.96967 5.1562 8.46398 4.81713C7.95828 4.47806 7.35055 4.32508 6.74459 4.38433C6.13863 4.44357 5.57203 4.71137 5.14159 5.14197M1.75905 7.40098C1.85049 8.59634 2.3478 9.72452 3.16849 10.5984C3.98919 11.4723 5.08395 12.0394 6.27121 12.2056C7.45848 12.3719 8.6669 12.1273 9.69605 11.5124C10.7252 10.8975 11.5133 9.94935 11.9295 8.82508C12.3457 7.70082 12.3652 6.46805 11.9846 5.33123C11.6039 4.19441 10.8462 3.22185 9.83689 2.57485C8.82762 1.92786 7.6275 1.64531 6.43559 1.77406C5.24368 1.90282 4.13159 2.43514 3.28377 3.28274L7.0006 6.99957M2.17156 7.40687C2.17156 7.63156 1.98942 7.8137 1.76474 7.8137C1.54005 7.8137 1.35791 7.63156 1.35791 7.40687C1.35791 7.18219 1.54005 7.00005 1.76474 7.00005C1.98942 7.00005 2.17156 7.18219 2.17156 7.40687ZM7.40715 7.00004C7.40715 7.22472 7.22501 7.40687 7.00033 7.40687C6.77565 7.40687 6.5935 7.22472 6.5935 7.00004C6.5935 6.77536 6.77565 6.59321 7.00033 6.59321C7.22501 6.59321 7.40715 6.77536 7.40715 7.00004Z" stroke="black" stroke-width="1.1" stroke-linecap="round" stroke-linejoin="round"/>
</mask>
<g mask="url(#mask0_3930_241)">
<rect width="14" height="14" fill="#343A47"/>
</g>
</svg>
