<svg width="14" height="14" viewBox="0 0 14 14" fill="none" xmlns="http://www.w3.org/2000/svg">
<mask id="mask0_3923_141" style="mask-type:alpha" maskUnits="userSpaceOnUse" x="0" y="0" width="14" height="14">
<path d="M7.94077 5.10944C7.94077 5.35107 7.74489 5.54694 7.50327 5.54694C7.26165 5.54694 7.06577 5.35107 7.06577 5.10944C7.06577 4.86782 7.26165 4.67194 7.50327 4.67194C7.74489 4.67194 7.94077 4.86782 7.94077 5.10944Z" fill="black"/>
<path d="M2.42029 4.91503L3.05538 1.46818C3.07106 1.38307 3.15277 1.32678 3.23789 1.34247L12.5322 3.05498C12.6173 3.07066 12.6736 3.15237 12.6579 3.23748L12.1839 5.81003C12.1682 5.89514 12.0865 5.95143 12.0014 5.93575L7.5056 5.10784M11.8017 7.88465L10.9454 12.5318C10.9297 12.6169 10.848 12.6732 10.7629 12.6575L1.47013 10.9453C1.38442 10.9295 1.32806 10.8468 1.34471 10.7613L1.81312 8.35479L2.04992 7.0696C2.06568 6.98407 2.14808 6.92773 2.2335 6.94409L9.01785 8.24321C9.10353 8.25961 9.15932 8.34283 9.14194 8.42832L8.76459 10.2853M7.94077 5.10944C7.94077 5.35107 7.74489 5.54694 7.50327 5.54694C7.26165 5.54694 7.06577 5.35107 7.06577 5.10944C7.06577 4.86782 7.26165 4.67194 7.50327 4.67194C7.74489 4.67194 7.94077 4.86782 7.94077 5.10944Z" stroke="black" stroke-linecap="round"/>
</mask>
<g mask="url(#mask0_3923_141)">
<rect width="14" height="14" fill="#343A47"/>
</g>
</svg>
