<svg width="14" height="14" viewBox="0 0 14 14" fill="none" xmlns="http://www.w3.org/2000/svg">
<mask id="mask0_13_4235" style="mask-type:alpha" maskUnits="userSpaceOnUse" x="1" y="1" width="12" height="12">
<path d="M7.86521 11.5017C7.77729 11.6532 7.65112 11.7791 7.49924 11.8665C7.34742 11.9539 7.17529 12 7.00006 12C6.82483 12 6.65269 11.9539 6.50087 11.8665C6.34904 11.7791 6.22282 11.6532 6.1349 11.5017M10.0006 5.20056C10.0006 4.35172 9.68448 3.53764 9.12173 2.93742C8.55903 2.3372 7.79584 2 7.00006 2C6.20427 2 5.44107 2.3372 4.87836 2.93742C4.31566 3.53764 3.99953 4.35172 3.99953 5.20056C3.99953 8.93456 2.49927 10.0014 2.49927 10.0014H11.5008C11.5008 10.0014 10.0006 8.93456 10.0006 5.20056Z" stroke="black" stroke-width="1.1" stroke-linecap="round" stroke-linejoin="round"/>
</mask>
<g mask="url(#mask0_13_4235)">
<rect width="14" height="14" fill="#343A47"/>
</g>
</svg>
