<svg width="14" height="14" viewBox="0 0 14 14" fill="none" xmlns="http://www.w3.org/2000/svg">
<mask id="mask0_3794_51" style="mask-type:alpha" maskUnits="userSpaceOnUse" x="1" y="1" width="12" height="12">
<path d="M9.17665 9.89789C9.17665 10.1395 8.98078 10.3354 8.73915 10.3354C8.49753 10.3354 8.30165 10.1395 8.30165 9.89789C8.30165 9.65626 8.49753 9.46039 8.73915 9.46039C8.98078 9.46039 9.17665 9.65626 9.17665 9.89789Z" fill="#D9D9D9"/>
<path d="M8.75008 5.25H11.9001C12.0934 5.25 12.2501 5.4067 12.2501 5.6V11.9C12.2501 12.0933 12.0934 12.25 11.9001 12.25H2.10008C1.90678 12.25 1.75008 12.0933 1.75008 11.9L1.75 9.19561V5.95811L1.75008 3.26667C1.75008 3.07337 1.90678 2.91667 2.10008 2.91667H5.25008V2.1C5.25008 1.9067 5.40678 1.75 5.60008 1.75H8.40008C8.59339 1.75 8.75008 1.9067 8.75008 2.1V5.25ZM8.75008 5.25V9.91667M1.75 5.95811H5.25M1.75 9.19561H5.25M9.17665 9.89789C9.17665 10.1395 8.98078 10.3354 8.73915 10.3354C8.49753 10.3354 8.30165 10.1395 8.30165 9.89789C8.30165 9.65626 8.49753 9.46039 8.73915 9.46039C8.98078 9.46039 9.17665 9.65626 9.17665 9.89789Z" stroke="white" stroke-width="1.1" stroke-linecap="round" stroke-linejoin="round"/>
</mask>
<g mask="url(#mask0_3794_51)">
<rect width="14" height="14" fill="#343A47"/>
</g>
</svg>
