<svg width="14" height="14" viewBox="0 0 14 14" fill="none" xmlns="http://www.w3.org/2000/svg">
<mask id="mask0_2203_1004" style="mask-type:alpha" maskUnits="userSpaceOnUse" x="2" y="1" width="10" height="12">
<path d="M11.1562 6.34727C11.1562 6.5889 10.9604 6.78477 10.7188 6.78477C10.4771 6.78477 10.2812 6.5889 10.2812 6.34727C10.2812 6.10565 10.4771 5.90977 10.7188 5.90977C10.9604 5.90977 11.1562 6.10565 11.1562 6.34727Z" fill="black"/>
<path d="M3.71875 7.66119C3.71875 7.90281 3.52287 8.09869 3.28125 8.09869C3.03963 8.09869 2.84375 7.90281 2.84375 7.66119C2.84375 7.41956 3.03963 7.22369 3.28125 7.22369C3.52287 7.22369 3.71875 7.41956 3.71875 7.66119Z" fill="black"/>
<path d="M3.71875 10.3742C3.71875 10.6159 3.52287 10.8117 3.28125 10.8117C3.03963 10.8117 2.84375 10.6159 2.84375 10.3742C2.84375 10.1326 3.03963 9.93675 3.28125 9.93675C3.52287 9.93675 3.71875 10.1326 3.71875 10.3742Z" fill="black"/>
<path d="M11.1562 3.71705C11.1562 3.95868 10.9604 4.15455 10.7188 4.15455C10.4771 4.15455 10.2812 3.95868 10.2812 3.71705C10.2812 3.47543 10.4771 3.27955 10.7188 3.27955C10.9604 3.27955 11.1562 3.47543 11.1562 3.71705Z" fill="black"/>
<path d="M2.73125 7.65625C2.73125 7.96001 2.97749 8.20625 3.28125 8.20625C3.58501 8.20625 3.83125 7.96001 3.83125 7.65625H3.28125H2.73125ZM5.14062 1.96875V1.41875V1.96875ZM11.2688 6.34375C11.2688 6.03999 11.0225 5.79375 10.7188 5.79375C10.415 5.79375 10.1687 6.03999 10.1687 6.34375H10.7188H11.2688ZM3.28125 7.65625H3.83125V3.73333H3.28125H2.73125V7.65625H3.28125ZM3.28125 3.73333H3.83125C3.83125 3.42077 3.96182 3.11479 4.20446 2.88453L3.82585 2.48558L3.44724 2.08664C2.99248 2.51822 2.73125 3.10991 2.73125 3.73333H3.28125ZM3.82585 2.48558L4.20446 2.88453C4.44807 2.65334 4.78434 2.51875 5.14062 2.51875V1.96875V1.41875C4.51064 1.41875 3.90103 1.65599 3.44724 2.08664L3.82585 2.48558ZM5.14062 1.96875V2.51875C5.49691 2.51875 5.83318 2.65334 6.07679 2.88453L6.4554 2.48558L6.83401 2.08664C6.38022 1.65599 5.77062 1.41875 5.14062 1.41875V1.96875ZM6.4554 2.48558L6.07679 2.88453C6.31943 3.11479 6.45 3.42077 6.45 3.73333H7H7.55C7.55 3.10991 7.28877 2.51822 6.83401 2.08664L6.4554 2.48558ZM7 3.73333H6.45V10.2667H7H7.55V3.73333H7ZM7 10.2667H6.45C6.45 10.6616 6.50616 10.9837 6.64981 11.2704C6.78948 11.5491 6.99019 11.7465 7.16599 11.9134L7.5446 11.5144L7.9232 11.1155C7.7503 10.9514 7.67871 10.8683 7.63326 10.7776C7.59179 10.6948 7.55 10.5585 7.55 10.2667H7ZM7.5446 11.5144L7.16599 11.9134C7.61978 12.344 8.22939 12.5813 8.85938 12.5813V12.0312V11.4812C8.50309 11.4812 8.16682 11.3467 7.9232 11.1155L7.5446 11.5144ZM8.85938 12.0312V12.5813C9.48936 12.5813 10.099 12.344 10.5528 11.9134L10.1742 11.5144L9.79554 11.1155C9.55193 11.3467 9.21566 11.4812 8.85938 11.4812V12.0312ZM10.1742 11.5144L10.5528 11.9134C11.0075 11.4818 11.2688 10.8901 11.2688 10.2667H10.7188H10.1687C10.1687 10.5792 10.0382 10.8852 9.79554 11.1155L10.1742 11.5144ZM10.7188 10.2667H11.2688V6.34375H10.7188H10.1687V10.2667H10.7188ZM11.1562 6.34727H10.6062C10.6062 6.28514 10.6566 6.23477 10.7188 6.23477V6.78477V7.33477C11.2641 7.33477 11.7063 6.89266 11.7063 6.34727H11.1562ZM10.7188 6.78477V6.23477C10.7809 6.23477 10.8313 6.28514 10.8313 6.34727H10.2812H9.73125C9.73125 6.89266 10.1734 7.33477 10.7188 7.33477V6.78477ZM10.2812 6.34727H10.8313C10.8313 6.40941 10.7809 6.45977 10.7188 6.45977V5.90977V5.35977C10.1734 5.35977 9.73125 5.80189 9.73125 6.34727H10.2812ZM10.7188 5.90977V6.45977C10.6566 6.45977 10.6062 6.40941 10.6062 6.34727H11.1562H11.7063C11.7063 5.80189 11.2641 5.35977 10.7188 5.35977V5.90977ZM3.71875 7.66119H3.16875C3.16875 7.59905 3.21912 7.54869 3.28125 7.54869V8.09869V8.64868C3.82663 8.64868 4.26875 8.20657 4.26875 7.66119H3.71875ZM3.28125 8.09869V7.54869C3.34338 7.54869 3.39375 7.59905 3.39375 7.66119H2.84375H2.29375C2.29375 8.20657 2.73587 8.64868 3.28125 8.64868V8.09869ZM2.84375 7.66119H3.39375C3.39375 7.72332 3.34338 7.77368 3.28125 7.77368V7.22369V6.67369C2.73587 6.67369 2.29375 7.1158 2.29375 7.66119H2.84375ZM3.28125 7.22369V7.77368C3.21912 7.77368 3.16875 7.72332 3.16875 7.66119H3.71875H4.26875C4.26875 7.1158 3.82663 6.67369 3.28125 6.67369V7.22369ZM3.71875 10.3742H3.16875C3.16875 10.3121 3.21912 10.2617 3.28125 10.2617V10.8117V11.3617C3.82663 11.3617 4.26875 10.9196 4.26875 10.3742H3.71875ZM3.28125 10.8117V10.2617C3.34338 10.2617 3.39375 10.3121 3.39375 10.3742H2.84375H2.29375C2.29375 10.9196 2.73587 11.3617 3.28125 11.3617V10.8117ZM2.84375 10.3742H3.39375C3.39375 10.4364 3.34338 10.4867 3.28125 10.4867V9.93675V9.38675C2.73587 9.38675 2.29375 9.82887 2.29375 10.3742H2.84375ZM3.28125 9.93675V10.4867C3.21912 10.4867 3.16875 10.4364 3.16875 10.3742H3.71875H4.26875C4.26875 9.82887 3.82663 9.38675 3.28125 9.38675V9.93675ZM11.1562 3.71705H10.6062C10.6062 3.65492 10.6566 3.60455 10.7188 3.60455V4.15455V4.70455C11.2641 4.70455 11.7063 4.26243 11.7063 3.71705H11.1562ZM10.7188 4.15455V3.60455C10.7809 3.60455 10.8313 3.65492 10.8313 3.71705H10.2812H9.73125C9.73125 4.26243 10.1734 4.70455 10.7188 4.70455V4.15455ZM10.2812 3.71705H10.8313C10.8313 3.77918 10.7809 3.82955 10.7188 3.82955V3.27955V2.72955C10.1734 2.72955 9.73125 3.17167 9.73125 3.71705H10.2812ZM10.7188 3.27955V3.82955C10.6566 3.82955 10.6062 3.77918 10.6062 3.71705H11.1562H11.7063C11.7063 3.17167 11.2641 2.72955 10.7188 2.72955V3.27955Z" fill="black"/>
</mask>
<g mask="url(#mask0_2203_1004)">
<rect width="14" height="14" fill="#343A47"/>
</g>
</svg>
