<svg width="14" height="14" viewBox="0 0 14 14" fill="none" xmlns="http://www.w3.org/2000/svg">
<mask id="mask0_2913_237" style="mask-type:alpha" maskUnits="userSpaceOnUse" x="1" y="1" width="12" height="13">
<path d="M12.0615 5.07256L9.07283 2.06295C8.71883 1.72637 8.29675 1.46964 7.83508 1.31008C6.81201 0.966233 5.79215 1.22948 4.96447 2.05132L1.95136 5.04394C1.61481 5.39796 1.35809 5.82006 1.19855 6.28175C0.853488 7.30487 1.11672 8.32482 1.93973 9.15132L4.93216 12.1609C5.2856 12.4977 5.7073 12.7544 6.16867 12.9138C6.44818 13.0092 6.74121 13.0589 7.03653 13.061C7.75641 13.063 8.44649 12.7608 9.03929 12.1726L12.0475 9.17994C12.3844 8.82606 12.6416 8.40392 12.8015 7.94211C13.1453 6.919 12.8821 5.90029 12.0591 5.07255L12.0615 5.07256ZM7.24305 2.92856C7.46953 3.00189 7.67814 3.12198 7.85523 3.28106L8.73941 4.17152L7.00532 5.89469L5.28103 4.1605L6.17513 3.27017C6.41494 3.03291 6.75291 2.78122 7.2455 2.92734L7.24305 2.92856ZM2.81938 6.86768C2.89293 6.64101 3.01346 6.43239 3.17309 6.25546L4.06226 5.37124L5.78655 7.10543L4.05124 8.82983L3.1622 7.93444C2.92374 7.69583 2.67328 7.35785 2.81816 6.86522L2.81938 6.86768ZM6.75824 11.2916C6.53146 11.2189 6.32277 11.0988 6.14605 10.9392L5.26433 10.0597L6.99841 8.33412L8.72271 10.0683L7.82858 10.9586C7.58879 11.1958 7.25203 11.4475 6.75822 11.3015L6.75824 11.2916ZM11.1843 7.3611C11.1108 7.58752 10.9907 7.79606 10.8319 7.97333L9.94271 8.84651L8.21845 7.11231L9.9525 5.38792L10.8416 6.28207C11.08 6.52068 11.3305 6.85866 11.1856 7.35129" fill="#343A47"/>
</mask>
<g mask="url(#mask0_2913_237)">
<rect width="14" height="14" fill="#343A47"/>
</g>
</svg>
