<svg width="14" height="14" viewBox="0 0 14 14" fill="none" xmlns="http://www.w3.org/2000/svg">
<mask id="mask0_3925_151" style="mask-type:alpha" maskUnits="userSpaceOnUse" x="2" y="0" width="10" height="14">
<path d="M6.05213 6.51759V8.34289C6.05213 8.38155 6.02079 8.41289 5.98213 8.41289H2.80535C2.76669 8.41289 2.73535 8.38155 2.73535 8.34289V3.25697C2.73535 3.22416 2.75814 3.19575 2.79017 3.18864L8.89507 1.83199L11.179 1.32445C11.2227 1.31473 11.2642 1.348 11.2642 1.39278V12.6773M8.89507 1.83199V12.1155C8.89507 12.1605 8.8532 12.1938 8.80933 12.1837L2.73535 10.782M6.48187 6.55381C6.48187 6.79543 6.286 6.99131 6.04437 6.99131C5.80275 6.99131 5.60687 6.79543 5.60687 6.55381C5.60687 6.31219 5.80275 6.11631 6.04437 6.11631C6.286 6.11631 6.48187 6.31219 6.48187 6.55381Z" stroke="black" stroke-width="1.1" stroke-linecap="round"/>
</mask>
<g mask="url(#mask0_3925_151)">
<rect width="14" height="14" fill="#343A47"/>
</g>
</svg>
