<svg width="14" height="14" viewBox="0 0 14 14" fill="none" xmlns="http://www.w3.org/2000/svg">
<mask id="mask0_2177_1394" style="mask-type:alpha" maskUnits="userSpaceOnUse" x="1" y="1" width="12" height="12">
<path d="M10.5 9C9.67157 9 9 9.67157 9 10.5C9 11.3284 9.67157 12 10.5 12C11.3284 12 12 11.3284 12 10.5C12 9.67157 11.3284 9 10.5 9ZM7 2L7 5C7 5.82843 7.67157 6.5 8.5 6.5H9C9.82843 6.5 10.5 7.17157 10.5 8V9M3.5 9L3.5 8C3.5 7.17157 4.17157 6.5 5 6.5H5.5C6.32843 6.5 7 5.82843 7 5M3.5 9C2.67157 9 2 9.67157 2 10.5C2 11.3284 2.67157 12 3.5 12C4.32843 12 5 11.3284 5 10.5C5 9.67157 4.32843 9 3.5 9ZM5.75 3.25L7 2L8.25 3.25" stroke="white" stroke-width="1.1" stroke-linecap="round"/>
</mask>
<g mask="url(#mask0_2177_1394)">
<rect width="14" height="14" fill="#343A47"/>
</g>
</svg>
