<svg width="14" height="14" viewBox="0 0 14 14" fill="none" xmlns="http://www.w3.org/2000/svg">
<mask id="mask0_15_7281" style="mask-type:alpha" maskUnits="userSpaceOnUse" x="2" y="1" width="10" height="12">
<path d="M2.70959 9.65535V2.99821C2.70959 2.30884 3.26844 1.75 3.9578 1.75H10.4217C10.6286 1.75 10.7962 1.91765 10.7962 2.12446V9.65535M2.70959 9.65535H10.7962M2.70959 9.65535V10.4454C2.70959 11.1348 3.26844 11.6936 3.9578 11.6936H8.32509M10.7962 11.6936V9.65535M10.3021 11.7559C10.3021 12.0288 10.5233 12.25 10.7962 12.25C11.0691 12.25 11.2903 12.0288 11.2903 11.7559C11.2903 11.483 11.0691 11.2618 10.7962 11.2618C10.5233 11.2618 10.3021 11.483 10.3021 11.7559Z" stroke="black" stroke-linecap="round" stroke-linejoin="round"/>
</mask>
<g mask="url(#mask0_15_7281)">
<rect width="14" height="14" fill="#343A47"/>
</g>
</svg>
