<svg width="14" height="14" viewBox="0 0 14 14" fill="none" xmlns="http://www.w3.org/2000/svg">
<mask id="mask0_3930_211" style="mask-type:alpha" maskUnits="userSpaceOnUse" x="1" y="0" width="12" height="14">
<path d="M9.30417 6.85823C9.30417 7.09986 9.1083 7.29573 8.86667 7.29573C8.62505 7.29573 8.42917 7.09986 8.42917 6.85823C8.42917 6.61661 8.62505 6.42073 8.86667 6.42073C9.1083 6.42073 9.30417 6.61661 9.30417 6.85823Z" fill="black"/>
<path d="M5.97107 6.86583V9.35793C5.97107 9.52532 5.78986 9.62994 5.6449 9.54625L2.2241 7.4012C1.92921 7.23094 1.92921 6.80531 2.2241 6.63506L6.98591 3.88582M8.86921 6.86583V3.30692C8.86921 3.14889 8.95352 3.00287 9.09037 2.92385L11.6811 1.33389C11.976 1.16363 11.9979 1.41776 11.9979 1.75827V12.278C11.9979 12.6185 11.6293 12.8313 11.3344 12.6611L7.42881 10.4061M9.30417 6.85823C9.30417 7.09986 9.1083 7.29573 8.86667 7.29573C8.62505 7.29573 8.42917 7.09986 8.42917 6.85823C8.42917 6.61661 8.62505 6.42073 8.86667 6.42073C9.1083 6.42073 9.30417 6.61661 9.30417 6.85823Z" stroke="black" stroke-linecap="round"/>
</mask>
<g mask="url(#mask0_3930_211)">
<rect width="14" height="14" fill="#343A47"/>
</g>
</svg>
