<svg width="14" height="14" viewBox="0 0 14 14" fill="none" xmlns="http://www.w3.org/2000/svg">
<mask id="mask0_3933_1787" style="mask-type:alpha" maskUnits="userSpaceOnUse" x="1" y="0" width="12" height="14">
<path d="M9.9009 2.41814C10.0217 2.62739 9.95001 2.89496 9.74076 3.01577C9.53151 3.13659 9.26394 3.06489 9.14313 2.85564C9.02231 2.64638 9.09401 2.37881 9.30326 2.258C9.51251 2.13719 9.78008 2.20888 9.9009 2.41814Z" fill="black"/>
<path d="M9.5137 2.63547L7.40945 1.42059C7.15589 1.27419 6.84349 1.27419 6.58993 1.42059L2.38144 3.85036C2.12788 3.99675 1.97168 4.2673 1.97168 4.56008V9.41963C1.97168 9.71242 2.12788 9.98296 2.38144 10.1294L6.58993 12.5591C6.84349 12.7055 7.15589 12.7055 7.40945 12.5591L11.6179 10.1294C11.8715 9.98296 12.0277 9.71242 12.0277 9.41963V4.81267C12.0277 4.49012 11.6785 4.28853 11.3992 4.4498L9.5137 5.5384L8.25669 6.30632L7.04277 6.96643C7.01601 6.98098 6.9836 6.98057 6.95722 6.96534L4.48569 5.5384M9.9009 2.41814C10.0217 2.62739 9.95001 2.89496 9.74076 3.01577C9.53151 3.13659 9.26394 3.06489 9.14313 2.85564C9.02231 2.64638 9.09401 2.37881 9.30326 2.258C9.51251 2.13719 9.78008 2.20888 9.9009 2.41814Z" stroke="black" stroke-width="1.1" stroke-linecap="round"/>
</mask>
<g mask="url(#mask0_3933_1787)">
<rect width="14" height="14" fill="#343A47"/>
</g>
</svg>
