<svg width="14" height="14" viewBox="0 0 14 14" fill="none" xmlns="http://www.w3.org/2000/svg">
<mask id="mask0_6177_532" style="mask-type:alpha" maskUnits="userSpaceOnUse" x="0" y="0" width="14" height="14">
<path d="M6.86677 6.86653C6.68878 7.04452 6.4002 7.04452 6.22221 6.86653C6.04422 6.68854 6.04422 6.39996 6.22221 6.22197C6.4002 6.04398 6.68878 6.04398 6.86677 6.22197C7.04476 6.39996 7.04476 6.68854 6.86677 6.86653Z" fill="black"/>
<path d="M10.0269 10.1506L10.409 10.5462L10.409 10.5462L10.0269 10.1506ZM10.6747 8.23961C10.5592 8.52057 10.6934 8.84193 10.9743 8.95739C11.2553 9.07285 11.5766 8.93869 11.6921 8.65774L11.1834 8.44867L10.6747 8.23961ZM12.0804 12.8582C12.2952 13.0729 12.6434 13.0729 12.8582 12.8582C13.073 12.6434 13.073 12.2951 12.8582 12.0803L12.4693 12.4692L12.0804 12.8582ZM6.54449 3.32145L6.9334 2.93254C6.71862 2.71775 6.37037 2.71775 6.15559 2.93254L6.54449 3.32145ZM9.76729 6.54425L10.1562 6.93316C10.371 6.71837 10.371 6.37013 10.1562 6.15534L9.76729 6.54425ZM6.54449 9.76705L6.15559 10.156C6.37037 10.3707 6.71862 10.3707 6.9334 10.156L6.54449 9.76705ZM3.7106 6.15534C3.49582 5.94055 3.14758 5.94055 2.93279 6.15534C2.718 6.37013 2.718 6.71837 2.93279 6.93316L3.3217 6.54425L3.7106 6.15534ZM4.9331 4.93285L4.54419 4.54394C4.3294 4.75873 4.3294 5.10697 4.54419 5.32176L4.9331 4.93285ZM6.54426 11.5577V11.0077C4.07914 11.0077 2.08076 9.00932 2.08076 6.5442H1.53076H0.980762C0.980762 9.61683 3.47162 12.1077 6.54426 12.1077V11.5577ZM1.53076 6.5442H2.08076C2.08076 4.07908 4.07914 2.0807 6.54426 2.0807V1.5307V0.980701C3.47162 0.980701 0.980762 3.47156 0.980762 6.5442H1.53076ZM6.54426 1.5307V2.0807C9.00938 2.0807 11.0078 4.07908 11.0078 6.5442H11.5578H12.1078C12.1078 3.47156 9.6169 0.980701 6.54426 0.980701V1.5307ZM10.0269 10.1506L9.64483 9.75502C8.84133 10.5311 7.74902 11.0077 6.54426 11.0077V11.5577V12.1077C8.04544 12.1077 9.40872 11.5124 10.409 10.5462L10.0269 10.1506ZM11.5578 6.5442H11.0078C11.0078 7.14544 10.8892 7.7176 10.6747 8.23961L11.1834 8.44867L11.6921 8.65774C11.9602 8.00537 12.1078 7.29133 12.1078 6.5442H11.5578ZM10.1512 10.1511L9.7623 10.5401L12.0804 12.8582L12.4693 12.4692L12.8582 12.0803L10.5401 9.76224L10.1512 10.1511ZM10.0269 10.1506L10.409 10.5462C10.2324 10.7168 9.94464 10.7224 9.7623 10.5401L10.1512 10.1511L10.5401 9.76224C10.2894 9.51156 9.89094 9.51729 9.64482 9.75502L10.0269 10.1506ZM6.54449 3.32145L6.15559 3.71036L9.37838 6.93316L9.76729 6.54425L10.1562 6.15534L6.9334 2.93254L6.54449 3.32145ZM9.76729 6.54425L9.37838 6.15534L6.15559 9.37814L6.54449 9.76705L6.9334 10.156L10.1562 6.93316L9.76729 6.54425ZM6.54449 9.76705L6.9334 9.37814L3.7106 6.15534L3.3217 6.54425L2.93279 6.93316L6.15559 10.156L6.54449 9.76705ZM6.54449 3.32145L6.15559 2.93254L4.54419 4.54394L4.9331 4.93285L5.322 5.32176L6.9334 3.71036L6.54449 3.32145ZM4.9331 4.93285L4.54419 5.32176L5.8333 6.61088L6.22221 6.22197L6.61112 5.83306L5.32201 4.54394L4.9331 4.93285ZM6.86677 6.86653L6.47786 6.47762C6.51466 6.44082 6.57432 6.44082 6.61112 6.47762L6.22221 6.86653L5.8333 7.25544C6.22608 7.64821 6.8629 7.64821 7.25568 7.25544L6.86677 6.86653ZM6.22221 6.86653L6.61112 6.47762C6.64792 6.51442 6.64792 6.57408 6.61112 6.61088L6.22221 6.22197L5.8333 5.83306C5.44052 6.22584 5.44052 6.86266 5.8333 7.25544L6.22221 6.86653ZM6.22221 6.22197L6.61112 6.61088C6.57432 6.64768 6.51466 6.64768 6.47786 6.61088L6.86677 6.22197L7.25568 5.83306C6.8629 5.44028 6.22608 5.44028 5.8333 5.83306L6.22221 6.22197ZM6.86677 6.22197L6.47786 6.61088C6.44106 6.57408 6.44106 6.51442 6.47786 6.47762L6.86677 6.86653L7.25568 7.25544C7.64846 6.86266 7.64846 6.22584 7.25568 5.83306L6.86677 6.22197Z" fill="black"/>
</mask>
<g mask="url(#mask0_6177_532)">
<rect width="14" height="14" fill="#343A47"/>
</g>
</svg>
