<svg width="14" height="14" viewBox="0 0 14 14" fill="none" xmlns="http://www.w3.org/2000/svg">
<mask id="mask0_6045_414" style="mask-type:alpha" maskUnits="userSpaceOnUse" x="2" y="1" width="10" height="12">
<path fill-rule="evenodd" clip-rule="evenodd" d="M7.64497 1.85986C7.83527 1.85992 7.99915 1.99526 8.03435 2.18225L8.25765 3.37761C8.718 3.53549 9.14454 3.77913 9.51372 4.09636L10.6519 3.69582L10.7202 3.67837C10.8801 3.65235 11.043 3.72665 11.1264 3.87097L11.774 4.99376C11.8687 5.15841 11.8328 5.36735 11.6888 5.4913L10.767 6.28332C10.8154 6.51901 10.8415 6.759 10.8445 6.99998L10.8452 7.00975C10.8422 7.25008 10.8152 7.48924 10.767 7.72431L11.6881 8.51284C11.8326 8.63663 11.8688 8.84616 11.774 9.01109L11.1264 10.1339C11.0313 10.2988 10.8322 10.3728 10.6526 10.3097L9.51372 9.90848C9.14461 10.2258 8.71865 10.47 8.25835 10.6279L8.03435 11.8268C7.99931 12.014 7.83541 12.1498 7.64497 12.1499H6.35122C6.16082 12.1499 5.99699 12.0139 5.96184 11.8268L5.73784 10.6321C5.27738 10.4741 4.85098 10.2302 4.48177 9.91266L3.34363 10.3139C3.16396 10.377 2.96495 10.303 2.86981 10.1381L2.22294 9.01597C2.12799 8.85124 2.16323 8.64172 2.30737 8.51773L3.22849 7.72501C3.18027 7.48977 3.15469 7.25025 3.15173 7.00975V6.99998C3.15468 6.75904 3.18011 6.51897 3.22849 6.28332L2.30737 5.4913C2.16334 5.3673 2.12802 5.15843 2.22294 4.99376L2.86981 3.87097L2.91029 3.81375C3.01491 3.68967 3.18755 3.63992 3.34503 3.69582L4.48317 4.09985C4.85193 3.78306 5.27744 3.53894 5.73714 3.3811L5.96184 2.18295C5.99689 1.99571 6.16072 1.85986 6.35122 1.85986H7.64497ZM6.9981 5.18426C5.9927 5.18435 5.17749 5.99944 5.17749 7.00486C5.1776 8.01019 5.99276 8.82538 6.9981 8.82547C8.00343 8.82537 8.81859 8.01019 8.8187 7.00486C8.8187 5.99945 8.00349 5.18436 6.9981 5.18426Z" fill="black"/>
</mask>
<g mask="url(#mask0_6045_414)">
<rect width="14" height="14" fill="#343A47"/>
</g>
</svg>
