<svg width="14" height="14" viewBox="0 0 14 14" fill="none" xmlns="http://www.w3.org/2000/svg">
<mask id="mask0_2206_1265" style="mask-type:alpha" maskUnits="userSpaceOnUse" x="1" y="1" width="12" height="12">
<path d="M10.7368 7.00028C10.7329 6.68418 10.6884 6.3699 10.6042 6.06521L11.8 5.03664L11.0993 3.82106L9.62416 4.34095C9.16868 3.8946 8.60643 3.57266 7.99115 3.40589L7.70061 1.85742H6.29929L6.00875 3.40963C5.39347 3.5764 4.83122 3.89834 4.37574 4.34469L2.90061 3.82106L2.19995 5.03664L3.39575 6.06521C3.31155 6.3699 3.26696 6.68418 3.26309 7.00028C3.26696 7.31638 3.31155 7.63066 3.39575 7.93534L2.19995 8.96391L2.90061 10.1795L4.37574 9.66054C4.83122 10.1069 5.39347 10.4288 6.00875 10.5956L6.29929 12.1431H7.70061L7.99115 10.5909C8.60643 10.4242 9.16868 10.1022 9.62416 9.65586L11.0993 10.1748L11.8 8.95924L10.6042 7.93534C10.6884 7.63066 10.7329 7.31638 10.7368 7.00028Z" stroke="white" stroke-width="1.1" stroke-linecap="round" stroke-linejoin="round"/>
<path d="M6.99999 8.54309C7.85211 8.54309 8.54285 7.85236 8.54285 7.00024C8.54285 6.14812 7.85211 5.45738 6.99999 5.45738C6.14787 5.45738 5.45714 6.14812 5.45714 7.00024C5.45714 7.85236 6.14787 8.54309 6.99999 8.54309Z" stroke="white" stroke-width="1.1" stroke-linecap="round" stroke-linejoin="round"/>
</mask>
<g mask="url(#mask0_2206_1265)">
<rect width="14" height="14" fill="#343A47"/>
</g>
</svg>
