<svg width="14" height="14" viewBox="0 0 14 14" fill="none" xmlns="http://www.w3.org/2000/svg">
<mask id="mask0_3968_230" style="mask-type:alpha" maskUnits="userSpaceOnUse" x="1" y="0" width="12" height="14">
<path d="M5.9448 5.82495C5.9448 6.06657 6.14067 6.26245 6.3823 6.26245C6.62392 6.26245 6.8198 6.06657 6.8198 5.82495C6.8198 5.58332 6.62392 5.38745 6.3823 5.38745C6.14067 5.38745 5.9448 5.58332 5.9448 5.82495Z" fill="black"/>
<path d="M6.08973 8.51935C6.08973 8.76097 6.2856 8.95685 6.52723 8.95685C6.76885 8.95685 6.96473 8.76097 6.96473 8.51935C6.96473 8.27773 6.76885 8.08185 6.52723 8.08185C6.2856 8.08185 6.08973 8.27773 6.08973 8.51935Z" fill="black"/>
<path d="M2.83543 3.20874L2.54934 3.34413C2.31387 3.45556 2.17688 3.7059 2.20998 3.96429L2.3055 4.71023C2.40088 5.45498 2.57228 6.188 2.81702 6.89782L3.1851 7.96535L4.36295 10.1004L4.87826 10.8395C5.22011 11.3298 5.6291 11.7696 6.09325 12.1462L6.61555 12.5699C6.84472 12.7558 7.17491 12.748 7.39508 12.5516L7.78035 12.2077C8.24956 11.789 8.68244 11.3313 9.07435 10.8395C9.46575 10.3483 9.80107 9.81496 10.0741 9.24937L10.6939 7.96535L11.062 6.89782C11.3071 6.18703 11.5012 5.45971 11.6431 4.72136L11.7838 3.98881C11.8356 3.71932 11.6984 3.44896 11.4504 3.33157L7.27044 1.35347C7.10755 1.27638 6.91868 1.27638 6.75579 1.35347L4.87826 2.24199M4.36295 10.1004L6.52725 8.51964M3.1851 7.96535L6.37637 5.83029M5.9448 5.82495C5.9448 6.06657 6.14067 6.26245 6.3823 6.26245C6.62392 6.26245 6.8198 6.06657 6.8198 5.82495C6.8198 5.58332 6.62392 5.38745 6.3823 5.38745C6.14067 5.38745 5.9448 5.58332 5.9448 5.82495ZM6.08973 8.51935C6.08973 8.76097 6.2856 8.95685 6.52723 8.95685C6.76885 8.95685 6.96473 8.76097 6.96473 8.51935C6.96473 8.27773 6.76885 8.08185 6.52723 8.08185C6.2856 8.08185 6.08973 8.27773 6.08973 8.51935Z" stroke="black" stroke-width="1.1" stroke-linecap="round"/>
</mask>
<g mask="url(#mask0_3968_230)">
<rect width="14" height="14" fill="#343A47"/>
</g>
</svg>
