<svg width="14" height="14" viewBox="0 0 14 14" fill="none" xmlns="http://www.w3.org/2000/svg">
<mask id="mask0_2385_1552" style="mask-type:alpha" maskUnits="userSpaceOnUse" x="0" y="0" width="14" height="14">
<path d="M5.10403 3.20833V1.75C5.10403 1.50838 5.29991 1.3125 5.54153 1.3125H7.47383M10.3178 1.3125H12.2501C12.4918 1.3125 12.6876 1.50838 12.6876 1.75V3.68229M12.6874 6.52601V8.4583C12.6874 8.69992 12.4915 8.8958 12.2499 8.8958H10.7915M5.10403 8.89587H8.42174M8.89583 5.54163V12.25C8.89583 12.4916 8.69996 12.6875 8.45833 12.6875H1.75C1.50838 12.6875 1.3125 12.4916 1.3125 12.25V5.54163C1.3125 5.30001 1.50838 5.10413 1.75 5.10413H8.45833C8.69996 5.10413 8.89583 5.30001 8.89583 5.54163ZM5.57826 8.89583C5.57826 9.15759 5.36606 9.36979 5.1043 9.36979C4.84254 9.36979 4.63034 9.15759 4.63034 8.89583C4.63034 8.63407 4.84254 8.42187 5.1043 8.42187C5.36606 8.42187 5.57826 8.63407 5.57826 8.89583Z" stroke="black" stroke-width="1.1" stroke-linecap="round" stroke-linejoin="round"/>
</mask>
<g mask="url(#mask0_2385_1552)">
<rect width="14" height="14" fill="#343A47"/>
</g>
</svg>
