<svg width="14" height="14" viewBox="0 0 14 14" fill="none" xmlns="http://www.w3.org/2000/svg">
<mask id="mask0_5680_409" style="mask-type:alpha" maskUnits="userSpaceOnUse" x="1" y="1" width="12" height="12">
<path d="M7.83333 5.83331L6.66667 9.99998M5.5 6.66665L4.33333 7.83331L5.5 8.99998M9.16667 6.66665L10.3333 7.83331L9.16667 8.99998M4.08333 12H11.5833C11.8135 12 12 11.8135 12 11.5833V2.41667C12 2.18655 11.8135 2 11.5833 2H9.98173C9.94349 2 9.91019 2.02516 9.89869 2.06163C9.80367 2.36296 9.30739 3.66667 7.83333 3.66667C6.35928 3.66667 5.863 2.36296 5.76798 2.06163C5.75648 2.02516 5.72317 2 5.68494 2H4.08333C3.85321 2 3.66667 2.18655 3.66667 2.41667V5.68494C3.66667 5.72317 3.6415 5.75648 3.60503 5.76798C3.30371 5.863 2 6.35928 2 7.83333C2 9.30739 3.30371 9.80367 3.60503 9.89869C3.6415 9.91019 3.66667 9.94349 3.66667 9.98173V11.5833C3.66667 11.8135 3.85321 12 4.08333 12Z" stroke="black" stroke-width="1.1" stroke-linecap="round" stroke-linejoin="round"/>
</mask>
<g mask="url(#mask0_5680_409)">
<rect width="14" height="14" fill="#343A47"/>
</g>
</svg>
