<svg width="14" height="14" viewBox="0 0 14 14" fill="none" xmlns="http://www.w3.org/2000/svg">
<mask id="mask0_2385_1818" style="mask-type:alpha" maskUnits="userSpaceOnUse" x="0" y="1" width="14" height="12">
<path d="M7 4.27474C6.73824 4.27474 6.52604 4.06254 6.52604 3.80078C6.52604 3.53902 6.73824 3.32682 7 3.32682C7.26176 3.32682 7.47396 3.53902 7.47396 3.80078C7.47396 4.06254 7.26176 4.27474 7 4.27474Z" fill="black"/>
<path d="M3.44531 10.6732C3.18355 10.6732 2.97135 10.461 2.97135 10.1992C2.97135 9.93746 3.18355 9.72526 3.44531 9.72526C3.70707 9.72526 3.91927 9.93746 3.91927 10.1992C3.91927 10.461 3.70707 10.6732 3.44531 10.6732Z" fill="black"/>
<path d="M10.5547 10.6732C10.2929 10.6732 10.0807 10.461 10.0807 10.1992C10.0807 9.93746 10.2929 9.72526 10.5547 9.72526C10.8164 9.72526 11.0286 9.93746 11.0286 10.1992C11.0286 10.461 10.8164 10.6732 10.5547 10.6732Z" fill="black"/>
<path d="M9.10227 4.15537C9.24632 3.30242 8.85879 2.41182 8.06572 1.95392C7.04619 1.36527 5.74254 1.7146 5.15391 2.73417C4.56529 3.75374 4.91461 5.05746 5.93413 5.6461L3.66168 9.77742M9.24739 11.8797C9.9116 12.3954 10.8482 12.4884 11.6214 12.042C12.6409 11.4533 12.9902 10.1496 12.4016 9.13006C11.8129 8.11049 10.5093 7.76116 9.48976 8.34981L7.24625 4.20583M2.5984 8.24302C1.84185 8.57036 1.3125 9.32353 1.3125 10.2003C1.3125 11.3776 2.26684 12.332 3.44409 12.332C4.62133 12.332 5.57453 11.3729 5.57453 10.1956L10.0807 10.1992M10.0807 10.1992C10.0807 10.461 10.2929 10.6732 10.5547 10.6732C10.8164 10.6732 11.0286 10.461 11.0286 10.1992C11.0286 9.93746 10.8164 9.72526 10.5547 9.72526C10.2929 9.72526 10.0807 9.93746 10.0807 10.1992ZM7 4.27474C6.73824 4.27474 6.52604 4.06254 6.52604 3.80078C6.52604 3.53902 6.73824 3.32682 7 3.32682C7.26176 3.32682 7.47396 3.53902 7.47396 3.80078C7.47396 4.06254 7.26176 4.27474 7 4.27474ZM3.44531 10.6732C3.18355 10.6732 2.97135 10.461 2.97135 10.1992C2.97135 9.93746 3.18355 9.72526 3.44531 9.72526C3.70707 9.72526 3.91927 9.93746 3.91927 10.1992C3.91927 10.461 3.70707 10.6732 3.44531 10.6732Z" stroke="black" stroke-width="1.1" stroke-linecap="round" stroke-linejoin="round"/>
</mask>
<g mask="url(#mask0_2385_1818)">
<rect width="14" height="14" fill="#343A47"/>
</g>
</svg>
