<svg width="49" height="49" viewBox="0 0 49 49" fill="none" xmlns="http://www.w3.org/2000/svg">
<path d="M28.6478 26.9139C28.5879 26.9021 28.5268 26.8974 28.4657 26.9001C28.3603 26.9057 28.2571 26.9325 28.1623 26.9789C27.9783 27.0677 27.8356 27.2241 27.7641 27.4156C27.6926 27.607 27.6977 27.8186 27.7783 28.0064L27.7728 28.0142L29.5888 32.4017C31.3263 31.293 32.6447 29.6368 33.3357 27.695L28.6559 26.9041L28.6478 26.9139ZM21.3662 27.5357C21.3268 27.3628 21.2305 27.208 21.0928 27.0963C20.955 26.9846 20.7837 26.9223 20.6064 26.9195C20.554 26.9188 20.5017 26.9235 20.4503 26.9333L20.4424 26.9237L15.8033 27.7112C16.4999 29.6377 17.8129 31.2805 19.5384 32.3846L21.3362 28.0404L21.3221 28.0234C21.3885 27.8697 21.4039 27.6988 21.3662 27.5357ZM25.2515 29.2393C25.1837 29.113 25.0829 29.0075 24.9599 28.934C24.8368 28.8604 24.6961 28.8217 24.5528 28.8219C24.4095 28.822 24.2689 28.8611 24.146 28.935C24.0231 29.0088 23.9226 29.1146 23.8551 29.241H23.8513L21.57 33.3663C23.2034 33.9225 24.9595 34.0128 26.6414 33.6272C26.9533 33.5562 27.258 33.471 27.5554 33.3717L25.2687 29.2391L25.2515 29.2393ZM32.4735 19.6566L28.9634 22.7982L28.9653 22.8082C28.8575 22.9025 28.7772 23.0242 28.733 23.1605C28.6887 23.2967 28.6822 23.4424 28.7141 23.582C28.746 23.7216 28.815 23.85 28.914 23.9536C29.013 24.0571 29.1382 24.1319 29.2762 24.1701L29.2805 24.189L33.827 25.4987C34.0235 23.456 33.5483 21.405 32.4735 19.657V19.6566ZM25.9523 20.0086C25.9589 20.1517 26.0041 20.2903 26.0832 20.4097C26.1622 20.5292 26.2721 20.625 26.4012 20.687C26.5304 20.749 26.6739 20.7749 26.8165 20.762C26.9592 20.749 27.0956 20.6976 27.2115 20.6134L27.2253 20.6191L31.0661 17.8959C29.6041 16.4639 27.7121 15.5519 25.6812 15.3L25.948 20.0073L25.9523 20.0086ZM21.8849 20.6306C22.0008 20.7148 22.1373 20.7661 22.28 20.7789C22.4226 20.7916 22.5661 20.7655 22.6951 20.7033C22.8241 20.641 22.9338 20.5449 23.0125 20.4252C23.0913 20.3056 23.1361 20.1668 23.1422 20.0237L23.1618 20.0145L23.4286 15.2998C23.1065 15.3385 22.7866 15.3937 22.4701 15.4651C20.7865 15.8435 19.2422 16.685 18.0116 17.8946L21.8775 20.6351L21.8849 20.6306ZM19.824 24.1931C19.9624 24.1553 20.0879 24.0807 20.1872 23.9772C20.2865 23.8737 20.3558 23.7452 20.3878 23.6053C20.4197 23.4655 20.4131 23.3196 20.3687 23.1832C20.3242 23.0469 20.2436 22.9251 20.1353 22.831L20.1392 22.8123L16.6097 19.6555C15.533 21.408 15.0708 23.4693 15.2962 25.5138L19.8204 24.2084L19.824 24.1931ZM23.2521 25.5798L24.5541 26.2059L25.8522 25.5811L26.1746 24.1796L25.2762 23.0561H23.8302L22.9292 24.1779L23.2521 25.5798Z" fill="#326CE5"/>
<path d="M46.0779 28.3411L42.3678 12.2261C42.2681 11.8092 42.077 11.4196 41.8084 11.0855C41.5399 10.7514 41.2005 10.481 40.8148 10.294L25.7973 3.12393C25.408 2.93819 24.9822 2.8418 24.551 2.8418C24.1197 2.8418 23.6939 2.93819 23.3047 3.12393L8.29015 10.2978C7.90435 10.4848 7.56487 10.755 7.29622 11.0891C7.02757 11.4232 6.83645 11.8128 6.73667 12.2297L3.0326 28.3443C2.94124 28.7517 2.94095 29.1741 3.03175 29.5816C3.05849 29.7057 3.09342 29.8279 3.13631 29.9474C3.2088 30.1514 3.30477 30.3462 3.4223 30.5279C3.4732 30.6057 3.52686 30.6813 3.58521 30.7545L13.9781 43.676C14.0234 43.7322 14.0735 43.7835 14.1231 43.8357C14.2862 44.0093 14.4703 44.1619 14.6712 44.2899C14.9253 44.4498 15.2023 44.5702 15.4926 44.647C15.7306 44.7123 15.9762 44.7461 16.223 44.7477H16.3846L32.8892 44.7439C32.9895 44.7435 33.0897 44.7376 33.1894 44.7262C33.3324 44.7101 33.474 44.6832 33.613 44.6457C33.7126 44.6195 33.8108 44.5881 33.9071 44.5516C33.9822 44.5229 34.0572 44.4941 34.1296 44.4594C34.238 44.4075 34.3432 44.349 34.4446 44.2844C34.7061 44.1199 34.9389 43.9138 35.1339 43.6742L35.4508 43.2803L45.5231 30.7503C45.7162 30.5082 45.8679 30.2358 45.972 29.9442C46.0155 29.8243 46.0511 29.7017 46.0785 29.5771C46.1695 29.1697 46.1694 28.7484 46.0779 28.3411ZM30.5011 34.6087C30.5433 34.7327 30.5933 34.8538 30.6508 34.9714C30.559 35.1321 30.534 35.3226 30.5812 35.5016C30.7997 36.002 31.0666 36.4799 31.3781 36.9284C31.5524 37.1577 31.7133 37.3969 31.86 37.6448C31.8962 37.7118 31.9435 37.8158 31.9777 37.8867C32.0424 37.9948 32.0838 38.1152 32.0991 38.2403C32.1145 38.3653 32.1035 38.4922 32.0669 38.6128C32.0302 38.7333 31.9688 38.8449 31.8864 38.9403C31.8041 39.0356 31.7027 39.1127 31.5888 39.1666C31.4749 39.2204 31.351 39.2498 31.2251 39.2529C31.0991 39.256 30.9739 39.2327 30.8575 39.1845C30.7411 39.1363 30.6361 39.0643 30.5492 38.973C30.4623 38.8818 30.3954 38.7734 30.3529 38.6548C30.3186 38.5845 30.2709 38.4908 30.2418 38.4244C30.1391 38.155 30.052 37.88 29.9809 37.6007C29.8251 37.078 29.6185 36.5718 29.3642 36.0894C29.2536 35.9402 29.0889 35.8403 28.9055 35.811C28.8767 35.7614 28.7703 35.5661 28.7132 35.4654C26.0399 36.4778 23.0873 36.4702 20.4192 35.4441L20.2158 35.8125C20.0706 35.8351 19.9356 35.9009 19.8285 36.0014C19.522 36.5044 19.2877 37.0479 19.1325 37.616C19.0621 37.8954 18.9755 38.1704 18.8732 38.4397C18.8444 38.5057 18.7963 38.5981 18.762 38.6682L18.7605 38.6718C18.7181 38.7906 18.6513 38.8992 18.5643 38.9905C18.4773 39.0819 18.3722 39.154 18.2557 39.2022C18.1391 39.2504 18.0138 39.2737 17.8877 39.2705C17.7616 39.2673 17.6376 39.2377 17.5236 39.1836C17.4097 39.1296 17.3084 39.0522 17.2261 38.9565C17.1439 38.8609 17.0827 38.7491 17.0464 38.6283C17.01 38.5075 16.9994 38.3805 17.0152 38.2553C17.031 38.1302 17.0728 38.0098 17.138 37.9018C17.1719 37.8305 17.2173 37.7272 17.253 37.6601C17.3996 37.4116 17.5605 37.1718 17.7347 36.9418C18.0518 36.4814 18.3242 35.9918 18.5482 35.4797C18.572 35.3061 18.5442 35.1293 18.4681 34.9714L18.6317 34.5795C16.1719 33.1278 14.3284 30.8261 13.4489 28.1086L13.0573 28.1753C12.9053 28.0674 12.7262 28.0044 12.5402 27.9932C12.0044 28.0957 11.4797 28.2501 10.9738 28.4542C10.711 28.5724 10.4418 28.6755 10.1673 28.763C10.1024 28.7809 10.0087 28.7988 9.93455 28.815C9.92859 28.8171 9.92348 28.8197 9.91752 28.8211C9.91293 28.8218 9.90831 28.8222 9.90368 28.8224C9.78438 28.8617 9.65821 28.8756 9.53324 28.8632C9.40827 28.8509 9.28725 28.8126 9.17793 28.7508C9.06861 28.689 8.97339 28.6051 8.89838 28.5044C8.82337 28.4036 8.77021 28.2884 8.74231 28.1659C8.71441 28.0435 8.71238 27.9166 8.73635 27.7933C8.76033 27.67 8.80977 27.5531 8.88153 27.4501C8.95329 27.347 9.04577 27.2601 9.15306 27.1948C9.26036 27.1296 9.38009 27.0874 9.5046 27.0711L9.51759 27.0679L9.52547 27.0658C9.60065 27.0481 9.6969 27.0232 9.76547 27.01C10.0514 26.9703 10.3393 26.9471 10.6279 26.9406C11.1722 26.905 11.7116 26.8164 12.2387 26.6761C12.3949 26.5766 12.5269 26.4434 12.625 26.2864L13.0013 26.1765C12.5929 23.3403 13.2461 20.4531 14.8354 18.0688L14.5473 17.812C14.5368 17.6256 14.4742 17.4459 14.3667 17.2933C13.9528 16.9374 13.5051 16.6229 13.03 16.3541C12.7735 16.2233 12.5247 16.0778 12.2849 15.9184C12.2304 15.8778 12.158 15.8167 12.0988 15.7685L12.0854 15.7592C11.8809 15.6123 11.7429 15.3905 11.7015 15.1423C11.6601 14.894 11.7186 14.6394 11.8643 14.4342C11.9504 14.3288 12.0601 14.2452 12.1845 14.1901C12.3089 14.1351 12.4446 14.1101 12.5805 14.1173C12.8092 14.1271 13.0288 14.21 13.207 14.3537C13.2681 14.4016 13.3518 14.4657 13.4061 14.5123C13.6153 14.7102 13.813 14.92 13.9981 15.1405C14.3654 15.5441 14.7712 15.9108 15.2098 16.2355C15.3741 16.3219 15.5658 16.3405 15.7436 16.2873C15.8507 16.3654 15.9587 16.4422 16.0678 16.5177C17.6471 14.8389 19.6921 13.6706 21.9403 13.1626C22.4754 13.0415 23.0183 12.958 23.5651 12.9129L23.5864 12.5329C23.726 12.4089 23.8272 12.2475 23.8782 12.0679C23.8978 11.5226 23.8642 10.9767 23.7781 10.4379C23.7209 10.1556 23.68 9.87019 23.6554 9.58315C23.6531 9.51778 23.6567 9.42749 23.6575 9.35295C23.6575 9.34444 23.6554 9.33592 23.6554 9.32783C23.6426 9.20218 23.6564 9.07526 23.6957 8.95525C23.735 8.83524 23.7991 8.72482 23.8837 8.63109C23.9684 8.53737 24.0717 8.46244 24.1871 8.41113C24.3025 8.35983 24.4274 8.33329 24.5537 8.33323C24.68 8.33317 24.8049 8.35959 24.9203 8.41079C25.0358 8.46198 25.1392 8.53682 25.2239 8.63046C25.3087 8.7241 25.3728 8.83447 25.4123 8.95444C25.4517 9.07441 25.4656 9.20132 25.4529 9.32697C25.4529 9.40577 25.4576 9.51011 25.4548 9.58251C25.4302 9.86951 25.3891 10.1548 25.3315 10.4371C25.2448 10.976 25.2108 11.522 25.2297 12.0674C25.2653 12.2498 25.3707 12.411 25.5234 12.5168C25.5266 12.5817 25.5373 12.7985 25.5451 12.918C28.3863 13.1764 31.0372 14.4572 33.0052 16.5226L33.3472 16.2783C33.5309 16.3098 33.7197 16.2893 33.8924 16.2191C34.3309 15.8939 34.7367 15.5267 35.1041 15.1229C35.2896 14.9022 35.4878 14.6924 35.6976 14.4947C35.7527 14.4474 35.836 14.3839 35.8969 14.3358C35.9871 14.2469 36.095 14.1779 36.2135 14.1334C36.3321 14.0888 36.4587 14.0697 36.5851 14.0773C36.7115 14.0849 36.835 14.119 36.9474 14.1773C37.0598 14.2357 37.1586 14.317 37.2376 14.4161C37.3165 14.5151 37.3737 14.6296 37.4055 14.7522C37.4373 14.8748 37.443 15.0027 37.4222 15.1277C37.4013 15.2526 37.3544 15.3717 37.2846 15.4774C37.2147 15.583 37.1234 15.6728 37.0166 15.7408C36.9563 15.7896 36.8767 15.8575 36.8188 15.9006C36.5784 16.0601 36.3291 16.2056 36.0719 16.3363C35.597 16.6052 35.1493 16.9197 34.7352 17.2754C34.6147 17.4165 34.5542 17.5992 34.5666 17.7843C34.5165 17.8303 34.3409 17.986 34.2478 18.0703C35.8416 20.4461 36.5078 23.3243 36.1201 26.1588L36.4829 26.2645C36.5736 26.4277 36.7078 26.5626 36.8705 26.6542C37.3978 26.7947 37.9376 26.8836 38.4821 26.9195C38.7704 26.9261 39.0581 26.9491 39.3437 26.9885C39.4193 27.0023 39.5286 27.0326 39.6056 27.0502C39.7302 27.0666 39.8499 27.1088 39.9572 27.1741C40.0644 27.2394 40.1569 27.3264 40.2286 27.4295C40.3003 27.5326 40.3497 27.6495 40.3736 27.7728C40.3975 27.8961 40.3955 28.023 40.3675 28.1454C40.3395 28.2679 40.2863 28.3831 40.2112 28.4838C40.1362 28.5845 40.0409 28.6684 39.9316 28.7301C39.8222 28.7919 39.7011 28.8301 39.5762 28.8424C39.4512 28.8546 39.325 28.8406 39.2057 28.8013L39.1927 28.7996C39.1868 28.7981 39.1812 28.7949 39.1751 28.7932C39.1009 28.7773 39.0079 28.7611 38.9429 28.7441C38.6685 28.6559 38.3994 28.5519 38.1369 28.4327C37.6305 28.2285 37.1053 28.0741 36.569 27.9717C36.3833 27.9658 36.2028 28.0328 36.066 28.1584C35.9382 28.1342 35.8101 28.1117 35.6818 28.0911C34.8128 30.8255 32.969 33.1453 30.5011 34.6087Z" fill="#326CE5"/>
<path d="M48.0368 28.754L43.9893 11.1728C43.8804 10.7179 43.672 10.2928 43.3789 9.92821C43.0859 9.56363 42.7155 9.26866 42.2946 9.0646L25.9112 1.24292C25.4866 1.04024 25.022 0.935059 24.5514 0.935059C24.0809 0.935059 23.6163 1.04024 23.1916 1.24292L6.80973 9.06929C6.38882 9.27316 6.01842 9.56793 5.72525 9.93232C5.43208 10.2967 5.22345 10.7216 5.11443 11.1764L1.0739 28.7587C0.982756 29.164 0.973386 29.5835 1.04633 29.9925C1.11928 30.4014 1.27308 30.7918 1.49873 31.1406C1.55431 31.2258 1.6133 31.3084 1.67719 31.388L13.016 45.4864C13.3132 45.8492 13.6867 46.142 14.1099 46.344C14.5332 46.546 14.9957 46.6521 15.4647 46.6549L33.6479 46.6506C34.1168 46.648 34.5793 46.542 35.0026 46.3403C35.4258 46.1386 35.7995 45.8461 36.0969 45.4837L47.4316 31.384C47.7219 31.0184 47.9269 30.5927 48.0316 30.1378C48.1363 29.6829 48.1381 29.2104 48.0368 28.7547V28.754ZM46.0783 29.5773C46.051 29.7018 46.0156 29.8244 45.9723 29.9442C45.868 30.2359 45.7162 30.5083 45.5229 30.7505L35.4506 43.2801L35.1341 43.6744C34.9389 43.9141 34.7059 44.1202 34.4442 44.2846C34.3432 44.3492 34.2383 44.4076 34.1303 44.4596C34.0574 44.4932 33.9833 44.5238 33.9077 44.5512C33.8113 44.5879 33.713 44.6195 33.6132 44.6459C33.4743 44.6834 33.3327 44.7104 33.1897 44.7266C33.09 44.7379 32.9897 44.7437 32.8894 44.7441L16.3849 44.7479H16.223C15.9763 44.7464 15.7308 44.7126 15.4928 44.6474C15.2026 44.5705 14.9258 44.4499 14.6719 44.2899C14.4708 44.162 14.2865 44.0095 14.1233 43.8359C14.0737 43.7835 14.0237 43.7322 13.9785 43.6762L3.58544 30.7545C3.52752 30.6815 3.47321 30.6059 3.42253 30.5275C3.30501 30.3457 3.20903 30.1509 3.13654 29.947C3.09364 29.8274 3.05871 29.7051 3.03198 29.5809C2.94122 29.1736 2.94151 28.7512 3.03283 28.3439L6.7369 12.2288C6.83674 11.812 7.02788 11.4225 7.29653 11.0885C7.56518 10.7545 7.90462 10.4843 8.29038 10.2974L23.3051 3.12413C23.6943 2.93839 24.1201 2.842 24.5514 2.842C24.9827 2.842 25.4085 2.93839 25.7977 3.12413L40.8148 10.2942C41.2005 10.4812 41.5399 10.7516 41.8085 11.0857C42.077 11.4198 42.2681 11.8094 42.3678 12.2263L46.0779 28.3411C46.1692 28.7483 46.1694 29.1706 46.0783 29.5777V29.5773Z" fill="white"/>
<path d="M39.6053 27.0503C39.5286 27.0326 39.4192 27.0023 39.344 26.9885C39.0584 26.949 38.7707 26.9258 38.4824 26.9191C37.9378 26.8835 37.3979 26.7949 36.8704 26.6546C36.7076 26.5629 36.5735 26.4278 36.4828 26.2645L36.1199 26.1588C36.5079 23.3244 35.8418 20.4462 34.2481 18.0703C34.341 17.986 34.5168 17.8303 34.5665 17.7846C34.5541 17.5994 34.6146 17.4167 34.7351 17.2756C35.1492 16.9199 35.5968 16.6054 36.0718 16.3365C36.329 16.2058 36.5783 16.0603 36.8186 15.9008C36.8766 15.8578 36.9558 15.7896 37.0165 15.7411C37.1233 15.673 37.2145 15.5833 37.2844 15.4777C37.3543 15.3721 37.4011 15.253 37.422 15.1281C37.4428 15.0032 37.4372 14.8753 37.4055 14.7527C37.3737 14.6301 37.3165 14.5156 37.2376 14.4165C37.1587 14.3175 37.0599 14.2361 36.9476 14.1777C36.8352 14.1193 36.7118 14.0852 36.5854 14.0776C36.459 14.07 36.3325 14.089 36.2139 14.1334C36.0953 14.1779 35.9874 14.2468 35.8972 14.3356C35.8359 14.3839 35.7524 14.4474 35.6979 14.4947C35.4879 14.6924 35.2896 14.9022 35.104 15.1229C34.7366 15.5267 34.3308 15.8939 33.8923 16.2192C33.7196 16.2894 33.5308 16.3099 33.3471 16.2784L33.0051 16.5226C31.037 14.4572 28.3862 13.1764 25.545 12.918C25.5367 12.7985 25.5265 12.5822 25.5233 12.5168C25.3707 12.411 25.2655 12.2497 25.2301 12.0675C25.2111 11.522 25.2452 10.976 25.3319 10.4371C25.3891 10.1549 25.43 9.86966 25.4543 9.58275C25.4571 9.51035 25.4528 9.40515 25.4528 9.327C25.4655 9.20134 25.4516 9.07443 25.4122 8.95446C25.3727 8.83449 25.3086 8.72412 25.2238 8.63048C25.1391 8.53684 25.0357 8.46201 24.9202 8.41081C24.8048 8.35961 24.6799 8.33319 24.5536 8.33325C24.4273 8.33331 24.3024 8.35985 24.187 8.41116C24.0716 8.46246 23.9683 8.53739 23.8836 8.63112C23.799 8.72484 23.7349 8.83527 23.6956 8.95528C23.6563 9.07528 23.6425 9.20221 23.6553 9.32785C23.6553 9.33637 23.6572 9.34446 23.6574 9.35298C23.6566 9.42751 23.6529 9.5178 23.6553 9.58296C23.6798 9.87007 23.7208 10.1555 23.7779 10.438C23.8641 10.9767 23.8977 11.5226 23.878 12.0679C23.827 12.2474 23.7258 12.4086 23.5863 12.5325L23.565 12.9129C23.0182 12.958 22.4753 13.0415 21.9402 13.1627C19.6922 13.6707 17.6474 14.8389 16.0683 16.5175C15.959 16.4421 15.8506 16.3653 15.7433 16.2871C15.5655 16.3403 15.3739 16.3217 15.2097 16.2353C14.7711 15.9107 14.3653 15.544 13.998 15.1406C13.8131 14.92 13.6156 14.7102 13.4066 14.5123C13.3519 14.4655 13.2682 14.4016 13.2069 14.3526C13.0286 14.2089 12.8091 14.1261 12.5804 14.1163C12.4444 14.1091 12.3088 14.1342 12.1843 14.1893C12.0599 14.2444 11.9502 14.3281 11.8642 14.4336C11.7185 14.6388 11.66 14.8934 11.7014 15.1416C11.7428 15.3899 11.8808 15.6117 12.0852 15.7585L12.0991 15.7683C12.1579 15.8165 12.2303 15.878 12.2848 15.9178C12.5246 16.0774 12.7734 16.223 13.0299 16.3539C13.5049 16.6229 13.9525 16.9375 14.3664 17.2935C14.4739 17.446 14.5365 17.6255 14.5472 17.8118L14.8349 18.0691C13.2457 20.4534 12.5927 23.3406 13.0011 26.1767L12.6249 26.2862C12.5267 26.443 12.3947 26.5759 12.2386 26.6753C11.7115 26.8159 11.1719 26.9049 10.6276 26.9408C10.3391 26.9474 10.0512 26.9705 9.76535 27.0102C9.69636 27.023 9.60053 27.0473 9.52536 27.066L9.51748 27.0677L9.5047 27.0716C9.38022 27.0879 9.26052 27.1301 9.15327 27.1954C9.04601 27.2607 8.95357 27.3476 8.88185 27.4507C8.81013 27.5537 8.76072 27.6706 8.73677 27.7939C8.71283 27.9171 8.71487 28.044 8.74278 28.1664C8.77069 28.2889 8.82385 28.4041 8.89886 28.5048C8.97386 28.6055 9.06906 28.6894 9.17836 28.7512C9.28766 28.813 9.40866 28.8513 9.53361 28.8636C9.65856 28.8759 9.78471 28.8621 9.90399 28.8229L9.9174 28.8207C9.92336 28.8195 9.92847 28.8165 9.93444 28.8154C10.0085 28.7984 10.1018 28.7807 10.167 28.763C10.4414 28.6754 10.7106 28.5723 10.9732 28.454C11.4793 28.2499 12.0041 28.0955 12.5401 27.993C12.726 28.0044 12.905 28.0676 13.0567 28.1755L13.4486 28.1084C14.3282 30.826 16.1718 33.1277 18.6318 34.5793L18.468 34.9712C18.5441 35.129 18.5721 35.3058 18.5483 35.4795C18.3243 35.9915 18.0519 36.481 17.7348 36.9412C17.5605 37.1711 17.3996 37.4108 17.2529 37.6593C17.2171 37.727 17.1718 37.8307 17.1375 37.9016C17.0726 38.0096 17.0311 38.1299 17.0155 38.2549C17 38.3799 17.0108 38.5068 17.0472 38.6274C17.0836 38.7479 17.1449 38.8596 17.227 38.955C17.3092 39.0505 17.4104 39.1277 17.5242 39.1817C17.638 39.2357 17.7619 39.2653 17.8878 39.2686C18.0137 39.2718 18.1389 39.2487 18.2554 39.2006C18.3718 39.1526 18.4769 39.0807 18.5639 38.9896C18.6508 38.8985 18.7178 38.7902 18.7604 38.6716L18.7619 38.6699V38.6678C18.796 38.5975 18.8443 38.5053 18.8731 38.4395C18.9754 38.1702 19.062 37.8952 19.1324 37.6158C19.2876 37.0477 19.5219 36.5042 19.8283 36.0012C19.9355 35.9007 20.0705 35.8348 20.2157 35.8121L20.4195 35.4437C23.0875 36.4697 26.0399 36.4772 28.7131 35.4648C28.7702 35.5666 28.8766 35.7612 28.9047 35.8104C29.0883 35.8398 29.2531 35.9399 29.3637 36.0894C29.6181 36.5718 29.8248 37.0779 29.9808 37.6005C30.0519 37.8798 30.139 38.1548 30.2416 38.4242C30.2708 38.4906 30.3183 38.5839 30.3528 38.6546C30.3953 38.7732 30.4621 38.8816 30.549 38.9728C30.6359 39.0641 30.741 39.1361 30.8574 39.1843C30.9738 39.2325 31.099 39.2558 31.2249 39.2527C31.3509 39.2496 31.4748 39.2202 31.5887 39.1664C31.7026 39.1125 31.804 39.0354 31.8863 38.9401C31.9687 38.8447 32.0301 38.7331 32.0667 38.6126C32.1034 38.492 32.1144 38.3652 32.099 38.2401C32.0837 38.115 32.0423 37.9946 31.9776 37.8865C31.9433 37.8156 31.8961 37.7119 31.8605 37.6446C31.7138 37.3967 31.5529 37.1575 31.3786 36.9282C31.0671 36.4797 30.8003 36.0018 30.5817 35.5014C30.5343 35.3225 30.5591 35.132 30.6507 34.9712C30.5932 34.8536 30.5432 34.7325 30.501 34.6085C32.9689 33.1451 34.8127 30.8255 35.6817 28.0912C35.798 28.1097 36.0005 28.145 36.0663 28.1585C36.203 28.033 36.3834 27.9659 36.5688 27.9717C37.105 28.0741 37.6299 28.2285 38.1362 28.4327C38.3988 28.552 38.6682 28.6559 38.9428 28.7441C39.0078 28.7611 39.1004 28.7773 39.1749 28.7937C39.1811 28.7954 39.1867 28.7979 39.1926 28.7996L39.2054 28.8016C39.3246 28.8407 39.4507 28.8545 39.5756 28.8421C39.7005 28.8298 39.8214 28.7915 39.9306 28.7297C40.0399 28.668 40.135 28.5841 40.21 28.4834C40.285 28.3828 40.3382 28.2676 40.3661 28.1453C40.394 28.023 40.3961 27.8961 40.3723 27.7729C40.3484 27.6497 40.2991 27.5329 40.2275 27.4298C40.1559 27.3267 40.0636 27.2397 39.9564 27.1744C39.8493 27.109 39.7297 27.0668 39.6053 27.0503ZM31.066 17.8961L27.225 20.6191L27.2116 20.6128C27.0958 20.6972 26.9594 20.7487 26.8167 20.7617C26.674 20.7748 26.5305 20.749 26.4013 20.687C26.2722 20.625 26.1622 20.5291 26.0832 20.4097C26.0041 20.2902 25.9589 20.1515 25.9524 20.0084L25.9481 20.0063L25.6813 15.2994C27.7122 15.5516 29.6042 16.4639 31.066 17.8961ZM23.8303 23.0555H25.2758L26.1745 24.179L25.8523 25.5803L24.5542 26.2051L23.2522 25.579L22.9293 24.1771L23.8303 23.0555ZM22.4704 15.4642C22.787 15.393 23.1071 15.338 23.4293 15.2994L23.1621 20.0135L23.1425 20.0229C23.1365 20.166 23.0917 20.3048 23.013 20.4246C22.9343 20.5443 22.8246 20.6404 22.6956 20.7028C22.5666 20.7651 22.4231 20.7912 22.2804 20.7785C22.1377 20.7657 22.0011 20.7145 21.8852 20.6302L21.8778 20.6345L18.0119 17.8934C19.2426 16.6839 20.7869 15.8425 22.4704 15.4642ZM16.61 19.6551L20.1395 22.8119L20.1356 22.8311C20.2438 22.9252 20.3244 23.0469 20.3688 23.1833C20.4133 23.3196 20.4199 23.4654 20.3879 23.6052C20.3559 23.745 20.2866 23.8735 20.1874 23.977C20.0881 24.0805 19.9626 24.1551 19.8243 24.1929L19.8207 24.2082L15.2965 25.5136C15.0711 23.4691 15.5333 21.4076 16.61 19.6551ZM21.3356 28.0411L19.5381 32.3847C17.8128 31.2803 16.5001 29.6374 15.8038 27.7108L20.4425 26.9229L20.4504 26.9333C20.5016 26.9235 20.5537 26.9189 20.6058 26.9195C20.7359 26.9214 20.8635 26.9554 20.9774 27.0183C21.0912 27.0813 21.1878 27.1713 21.2586 27.2804C21.3294 27.3896 21.3723 27.5145 21.3834 27.6441C21.3945 27.7737 21.3734 27.9041 21.3222 28.0237L21.3356 28.0411ZM26.6415 33.6268C24.9596 34.0125 23.2036 33.9224 21.5701 33.3664L23.8514 29.2411H23.8553C23.9231 29.1151 24.0238 29.0097 24.1466 28.9362C24.2695 28.8628 24.4099 28.8239 24.553 28.8238C24.6962 28.8237 24.8367 28.8623 24.9597 28.9355C25.0826 29.0087 25.1835 29.1139 25.2516 29.2398H25.2686L27.5557 33.3719C27.2588 33.471 26.9541 33.5557 26.6415 33.6268ZM29.589 32.4021L27.7729 28.0143L27.7784 28.0064C27.6979 27.8187 27.6929 27.6072 27.7644 27.4159C27.8359 27.2245 27.9785 27.0682 28.1624 26.9793C28.2572 26.9329 28.3604 26.9061 28.4659 26.9006C28.5269 26.8977 28.588 26.9022 28.6479 26.914L28.6558 26.9042L33.3358 27.6951C32.645 29.6371 31.3265 31.2933 29.589 32.4021ZM33.8273 25.4983L29.2804 24.1886L29.2761 24.1695C29.1381 24.1313 29.0129 24.0565 28.9139 23.953C28.8149 23.8494 28.7458 23.721 28.714 23.5814C28.6821 23.4418 28.6886 23.2961 28.7328 23.1599C28.7771 23.0236 28.8574 22.9019 28.9652 22.8076L28.9635 22.7985L32.4734 19.6572C33.5482 21.4052 34.0237 23.4558 33.8273 25.4983Z" fill="white"/>
</svg>
