<?xml version="1.0" encoding="UTF-8"?>
<!DOCTYPE svg PUBLIC "-//W3C//DTD SVG 1.1//EN" "http://www.w3.org/Graphics/SVG/1.1/DTD/svg11.dtd">
<svg xmlns="http://www.w3.org/2000/svg" version="1.1" width="256px" height="249px" style="shape-rendering:geometricPrecision; text-rendering:geometricPrecision; image-rendering:optimizeQuality; fill-rule:evenodd; clip-rule:evenodd" xmlns:xlink="http://www.w3.org/1999/xlink">
<g><path style="opacity:0.94" fill="#fcfdfe" d="M 121.5,-0.5 C 125.833,-0.5 130.167,-0.5 134.5,-0.5C 159.62,11.8918 184.954,24.0585 210.5,36C 217.073,38.8673 223.239,42.3673 229,46.5C 231.442,49.0482 233.108,52.0482 234,55.5C 241.042,85.9955 248.209,116.329 255.5,146.5C 255.5,150.833 255.5,155.167 255.5,159.5C 253.877,163.4 251.711,167.067 249,170.5C 228.848,195.649 208.348,220.483 187.5,245C 185.075,246.213 182.741,247.379 180.5,248.5C 145.167,248.5 109.833,248.5 74.5,248.5C 69.8176,246.391 65.651,243.391 62,239.5C 44.3794,216.877 26.3794,194.544 8,172.5C 4.09374,168.011 1.26041,163.011 -0.5,157.5C -0.5,154.5 -0.5,151.5 -0.5,148.5C 6.79107,118.329 13.9577,87.9955 21,57.5C 22.5556,50.6153 26.3889,45.4487 32.5,42C 62.2577,27.7857 91.9244,13.619 121.5,-0.5 Z"/></g>
<g><path style="opacity:1" fill="#336de6" d="M 122.5,7.5 C 125.85,7.33499 129.183,7.50166 132.5,8C 161.864,22.0161 191.198,36.0161 220.5,50C 223.433,52.2643 225.6,55.0976 227,58.5C 233.228,86.2053 239.561,113.872 246,141.5C 247.299,147.119 247.632,152.786 247,158.5C 226.667,184.167 206.333,209.833 186,235.5C 183.749,237.377 181.249,238.877 178.5,240C 144.5,240.667 110.5,240.667 76.5,240C 71.3811,237.215 67.2144,233.382 64,228.5C 46.713,206.211 29.0463,184.211 11,162.5C 8.01483,155.328 7.6815,147.994 10,140.5C 15.998,114.507 21.998,88.5074 28,62.5C 28.9281,56.8126 31.7614,52.3126 36.5,49C 65.38,35.3919 94.0466,21.5585 122.5,7.5 Z"/></g>
<g><path style="opacity:1" fill="#fcfdfe" d="M 156.5,87.5 C 156.5,92.5 156.5,97.5 156.5,102.5C 159.167,102.5 161.833,102.5 164.5,102.5C 168.562,102.724 171.395,104.724 173,108.5C 173.667,130.5 173.667,152.5 173,174.5C 171.437,177.728 168.937,179.895 165.5,181C 140.833,181.667 116.167,181.667 91.5,181C 88.0629,179.895 85.5629,177.728 84,174.5C 83.3333,152.5 83.3333,130.5 84,108.5C 85.4802,105.183 87.9802,103.183 91.5,102.5C 94.5,102.5 97.5,102.5 100.5,102.5C 100.5,97.1667 100.5,91.8333 100.5,86.5C 103.296,71.2037 112.463,63.2037 128,62.5C 144.568,62.9072 154.068,71.2406 156.5,87.5 Z"/></g>
<g><path style="opacity:1" fill="#346de6" d="M 123.5,73.5 C 133.655,72.1607 140.822,76.1607 145,85.5C 145.499,90.8229 145.666,96.1563 145.5,101.5C 134.167,101.5 122.833,101.5 111.5,101.5C 108.463,88.9268 112.463,79.5935 123.5,73.5 Z"/></g>
<g><path style="opacity:1" fill="#9db8f3" d="M 100.5,86.5 C 100.5,91.8333 100.5,97.1667 100.5,102.5C 97.5,102.5 94.5,102.5 91.5,102.5C 93.9479,101.527 96.6146,101.194 99.5,101.5C 99.1795,96.3054 99.5128,91.3054 100.5,86.5 Z"/></g>
<g><path style="opacity:1" fill="#9fbaf3" d="M 156.5,87.5 C 157.486,91.97 157.819,96.6367 157.5,101.5C 160.059,101.198 162.393,101.532 164.5,102.5C 161.833,102.5 159.167,102.5 156.5,102.5C 156.5,97.5 156.5,92.5 156.5,87.5 Z"/></g>
<g><path style="opacity:1" fill="#346ee6" d="M 123.5,130.5 C 134.875,129.377 140.042,134.377 139,145.5C 135.96,151.603 131.126,153.769 124.5,152C 118.397,148.96 116.231,144.126 118,137.5C 119.666,135.004 121.5,132.671 123.5,130.5 Z"/></g>
</svg>
