<svg width="49" height="49" viewBox="0 0 49 49" fill="none" xmlns="http://www.w3.org/2000/svg">
<g clip-path="url(#clip0_262_40405)">
<path d="M48.9997 25.6778V21.1867C48.9997 17.3861 45.1991 15.3143 42.0907 15.3143C39.9273 15.4832 37.8721 16.3292 36.2168 17.7322C35.5037 16.9801 34.6472 16.3785 33.6978 15.963C32.7483 15.5474 31.7253 15.3264 30.689 15.3128C28.5044 15.3873 26.4197 16.2462 24.8166 17.7322C24.2325 16.9188 23.4492 16.2691 22.5419 15.8455C21.6345 15.4218 20.6335 15.2384 19.6349 15.3128C18.6036 15.233 17.5714 15.4542 16.6633 15.9494C15.7553 16.4446 15.0104 17.1926 14.519 18.1027L9.96197 28.4417L4.89966 16.844C4.62927 16.2256 4.12532 15.7391 3.4977 15.4907C2.87008 15.2423 2.1697 15.2521 1.54928 15.518C1.23493 15.6524 0.950715 15.8484 0.713447 16.0946C0.476179 16.3407 0.290673 16.6319 0.1679 16.951C0.0451266 17.27 -0.0124218 17.6105 -0.00134219 17.9522C0.00973744 18.2939 0.0892201 18.6299 0.232406 18.9403L6.50594 32.5868C6.50594 32.5868 7.54259 35.0062 9.61437 35.0062C10.2506 35.1005 10.9001 34.9824 11.4624 34.6701C12.0246 34.3579 12.4682 33.8689 12.7243 33.2789C13.2021 32.5593 16.8296 24.9336 19.0147 20.3093C19.0995 20.1309 19.2424 19.9868 19.4199 19.9004C19.5975 19.8141 19.7992 19.7908 19.9917 19.8342C20.1843 19.8777 20.3564 19.9854 20.4797 20.1396C20.6029 20.2939 20.6701 20.4854 20.67 20.6829V32.1474C20.6607 32.8607 20.9215 33.5512 21.4 34.0802C21.8786 34.6093 22.5395 34.9379 23.2502 35.0001C23.6278 35.0252 24.0065 34.9726 24.3629 34.8454C24.7193 34.7182 25.0458 34.5191 25.3222 34.2606C25.5985 34.002 25.8189 33.6895 25.9695 33.3423C26.1201 32.9951 26.1978 32.6207 26.1978 32.2423V22.7409C26.2153 21.9738 26.5324 21.244 27.0811 20.7076C27.6298 20.1713 28.3667 19.871 29.134 19.871C29.9013 19.871 30.6381 20.1713 31.1869 20.7076C31.7356 21.244 32.0526 21.9738 32.0702 22.7409V32.2423C32.0702 32.9753 32.3614 33.6783 32.8797 34.1967C33.398 34.715 34.101 35.0062 34.8341 35.0062C35.5671 35.0062 36.2701 34.715 36.7884 34.1967C37.3068 33.6783 37.598 32.9753 37.598 32.2423V22.7409C37.598 21.962 37.9074 21.2149 38.4582 20.6642C39.009 20.1134 39.756 19.8039 40.5349 19.8039C41.3138 19.8039 42.0609 20.1134 42.6116 20.6642C43.1624 21.2149 43.4718 21.962 43.4718 22.7409V32.2423C43.4718 32.9753 43.763 33.6783 44.2814 34.1967C44.7997 34.715 45.5027 35.0062 46.2357 35.0062C46.9688 35.0062 47.6718 34.715 48.1901 34.1967C48.7085 33.6783 48.9997 32.9753 48.9997 32.2423V25.6778Z" fill="black"/>
</g>
<defs>
<clipPath id="clip0_262_40405">
<rect width="49" height="49" fill="white"/>
</clipPath>
</defs>
</svg>
