<svg xmlns="http://www.w3.org/2000/svg" class="chakra-icon emotion-css-cache-lnoy37" viewBox="0 0 24 24">
<path fill="currentColor" clip-rule="evenodd" fill-rule="evenodd" d="M11.9929 3.71703C9.65298 1.67214 6.19252 1.25369 3.50521 3.54978C0.598423 6.0334 0.176093 10.2162 2.47471 13.1741C3.34724 14.2968 5.05023 15.9836 6.68684 17.5284C8.34261 19.0912 9.99457 20.568 10.8092 21.2895L10.8247 21.3032C10.9013 21.3711 10.9967 21.4557 11.0881 21.5245C11.1975 21.6069 11.3547 21.7092 11.5645 21.7718C11.8434 21.855 12.1432 21.855 12.4221 21.7718C12.6319 21.7092 12.789 21.6069 12.8984 21.5245C12.9898 21.4557 13.0852 21.3711 13.1618 21.3032L13.1773 21.2895C13.992 20.568 15.6439 19.0912 17.2997 17.5284C18.9363 15.9836 20.6393 14.2968 21.5118 13.1741C23.8016 10.2276 23.4445 6.0125 20.4709 3.54101C17.7537 1.28258 14.3301 1.67136 11.9929 3.71703ZM11.2333 5.78587C9.52828 3.7925 6.818 3.34987 4.80441 5.07033C2.7011 6.86745 2.41807 9.84183 4.05392 11.9468C4.81701 12.9288 6.40681 14.5138 8.05966 16.0739C9.6027 17.5304 11.1462 18.9146 11.9933 19.6664C12.8403 18.9146 14.3838 17.5304 15.9269 16.0739C17.5797 14.5138 19.1695 12.9288 19.9326 11.9468C21.5773 9.83046 21.3152 6.84332 19.1925 5.0791C17.1256 3.36117 14.4507 3.80131 12.7532 5.78587C12.5632 6.00798 12.2856 6.13586 11.9933 6.13586C11.701 6.13586 11.4233 6.00798 11.2333 5.78587Z"/>
</svg>