<svg xmlns="http://www.w3.org/2000/svg" class="chakra-icon emotion-css-cache-gic7d9" viewBox="0 0 24 24"><path fill="rgb(220, 104, 3)" clip-rule="evenodd" fill-rule="evenodd" d="M3.70523 3.95151C6.39253 1.65542 9.85299 2.07388 12.1929 4.11876C14.5302 2.0731 17.9537 1.68431 20.6709 3.94274C23.6445 6.41424 24.0016 10.6293 21.7118 13.5758C20.8393 14.6986 19.1363 16.3853 17.4997 17.9301C15.8439 19.4929 14.192 20.9698 13.3773 21.6912L13.3618 21.705C13.2852 21.7729 13.1899 21.8574 13.0984 21.9262C12.989 22.0086 12.8319 22.111 12.6221 22.1736C12.3432 22.2568 12.0434 22.2568 11.7645 22.1736C11.5547 22.111 11.3976 22.0086 11.2881 21.9262C11.1967 21.8574 11.1013 21.7729 11.0247 21.705L11.0092 21.6912C10.1946 20.9698 8.54263 19.4929 6.88686 17.9301C5.25024 16.3853 3.54725 14.6986 2.67472 13.5758C0.376106 10.6179 0.798435 6.43513 3.70523 3.95151ZM5.00442 5.47207C7.01801 3.75161 9.72829 4.19424 11.4334 6.1876C11.6233 6.40971 11.901 6.53759 12.1933 6.53759C12.4856 6.53759 12.7632 6.40971 12.9532 6.1876C14.6507 4.20305 17.3256 3.7629 19.3925 5.48083C21.5152 7.24505 21.7773 10.2322 20.1326 12.3486C19.3695 13.3305 17.7797 14.9156 16.1269 16.4757C14.5838 17.9321 13.0404 19.3163 12.1933 20.0681C11.3462 19.3163 9.80271 17.9321 8.25967 16.4757C6.60682 14.9156 5.01702 13.3305 4.25393 12.3486C2.61809 10.2436 2.90111 7.26918 5.00442 5.47207ZM13.2001 8.80177C13.2001 8.24949 12.7524 7.80177 12.2001 7.80177C11.6478 7.80177 11.2001 8.24949 11.2001 8.80177V12.8018C11.2001 13.3541 11.6478 13.8018 12.2001 13.8018C12.7524 13.8018 13.2001 13.3541 13.2001 12.8018V8.80177ZM12.2001 15.8018C11.6478 15.8018 11.2001 16.2495 11.2001 16.8018C11.2001 17.3541 11.6478 17.8018 12.2001 17.8018H12.2101C12.7624 17.8018 13.2101 17.3541 13.2101 16.8018C13.2101 16.2495 12.7624 15.8018 12.2101 15.8018H12.2001Z"/></svg>