<svg xmlns="http://www.w3.org/2000/svg" class="chakra-icon emotion-css-cache-1tbpnx3" viewBox="0 0 24 24"><path fill="rgb(21, 128, 61)" clip-rule="evenodd" fill-rule="evenodd" d="M11.9929 3.71703C9.65298 1.67214 6.19252 1.25369 3.50521 3.54978C0.598423 6.0334 0.176093 10.2162 2.47471 13.1741C3.26977 14.1971 4.74915 15.6828 6.23203 17.0969C7.73154 18.5269 9.2902 19.9357 10.2823 20.8211L10.3043 20.8407C10.4669 20.9858 10.6294 21.1309 10.7793 21.2445C10.9478 21.3723 11.1547 21.5038 11.4186 21.583C11.7907 21.6946 12.1958 21.6946 12.5679 21.583C12.8318 21.5038 13.0387 21.3723 13.2072 21.2445C13.3571 21.1309 13.5196 20.9858 13.6822 20.8407L13.7042 20.8211C14.6963 19.9357 16.255 18.5269 17.7545 17.0969C19.2374 15.6828 20.7168 14.1971 21.5118 13.1741C23.8016 10.2276 23.4445 6.0125 20.4709 3.54101C17.7537 1.28258 14.3301 1.67136 11.9929 3.71703ZM11.2333 5.78587C9.52828 3.7925 6.818 3.34987 4.80441 5.07033C2.7011 6.86745 2.41807 9.84183 4.05392 11.9468C4.74475 12.8358 6.11892 14.2254 7.61229 15.6495C9.08904 17.0578 10.6293 18.4502 11.6139 19.3288C11.8074 19.5015 11.9095 19.5915 11.9877 19.6508C11.9896 19.6523 11.9915 19.6537 11.9933 19.655C11.9951 19.6537 11.9969 19.6523 11.9988 19.6508C12.0771 19.5915 12.1791 19.5015 12.3726 19.3288C13.3572 18.4502 14.8975 17.0578 16.3742 15.6495C17.8676 14.2254 19.2418 12.8358 19.9326 11.9468C21.5773 9.83046 21.3152 6.84332 19.1925 5.0791C17.1256 3.36117 14.4507 3.80131 12.7532 5.78587C12.5632 6.00798 12.2856 6.13586 11.9933 6.13586C11.701 6.13586 11.4233 6.00798 11.2333 5.78587ZM16.2072 7.79293C16.5977 8.18346 16.5977 8.81662 16.2072 9.20715L11.7072 13.7071C11.3167 14.0977 10.6835 14.0977 10.293 13.7071L8.29301 11.7071C7.90249 11.3166 7.90249 10.6835 8.29301 10.2929C8.68353 9.90241 9.3167 9.90241 9.70722 10.2929L11.0001 11.5858L14.793 7.79293C15.1835 7.40241 15.8167 7.40241 16.2072 7.79293Z"/></svg>