<svg width="51" height="51" viewBox="0 0 51 51" fill="none" xmlns="http://www.w3.org/2000/svg">
<path fill-rule="evenodd" clip-rule="evenodd" d="M32.2236 22.3917C32.8179 22.9918 33.7815 22.9918 34.3758 22.3917C34.9701 21.7915 34.9701 20.8185 34.3758 20.2184L26.5356 12.3012L36.0285 6.76658C38.2486 5.47225 41.0236 7.09016 41.0236 9.67883L41.0236 26.593L29.5484 29.3653C28.731 29.5628 28.2269 30.392 28.4225 31.2174C28.618 32.0429 29.4392 32.5519 30.2566 32.3545L41.0236 29.7533V42.3877C41.0236 44.9764 38.2486 46.5943 36.0285 45.2999L22.8213 37.5998L24.6693 24.1217C24.7846 23.281 24.2032 22.5051 23.3706 22.3887C22.5381 22.2723 21.7698 22.8595 21.6545 23.7002L19.9761 35.941L7.97752 28.9455C5.75749 27.6512 5.75749 24.4153 7.97753 23.121L23.8068 13.8921L32.2236 22.3917Z" fill="#FF61A2"/>
</svg>
