<svg width="180" height="90" viewBox="0 0 180 90" fill="none" xmlns="http://www.w3.org/2000/svg">
<path d="M140 24L57.5 75M56 14L140 66" stroke="black" stroke-width="2"/>
<rect x="3" y="45" width="59.8332" height="59.8332" rx="20" transform="rotate(-45 3 45)" fill="#00ADE4" stroke="black" stroke-width="2"/>
<rect x="118.692" y="45" width="43.3516" height="43.3516" rx="15" transform="rotate(-45 118.692 45)" fill="white" stroke="black" stroke-width="2"/>
<path d="M28.2121 31.9037C29.8412 32.1073 40.7665 34.5134 45.3122 34.5134C49.858 34.5134 60.7757 32.1073 62.4047 31.9037C64.2389 31.6744 65.3453 32.5766 65.5413 33.8051C65.7731 35.2575 65.131 36.1789 63.5782 36.6407C62.0255 37.1023 53.1439 39.0223 51.8836 39.7097C50.9503 40.2188 50.8655 43.1885 51.3745 45.9036C51.8249 48.3054 54.7365 60.1365 56.4618 65.991C56.9832 67.7602 56.2143 69.0447 54.9587 69.4865C53.0711 70.1507 51.8827 69.2046 51.1835 67.7737C50.4681 66.3097 47.1421 56.8894 45.4362 52.1823C43.6544 56.8207 40.1488 66.3097 39.4334 67.7737C38.7342 69.2046 37.5458 70.1507 35.6582 69.4865C34.4026 69.0447 33.6337 67.7602 34.1551 65.991C35.8803 60.1365 38.792 48.3054 39.2423 45.9036C39.7514 43.1885 39.6666 40.2188 38.7332 39.7097C37.473 39.0223 28.5914 37.1023 27.0387 36.6407C25.4859 36.1789 24.8438 35.2575 25.0756 33.8051C25.2716 32.5766 26.378 31.6744 28.2121 31.9037Z" fill="white"/>
<path d="M28.2121 31.9037L28.3362 30.9114L28.2121 31.9037ZM27.0387 36.6407L26.7536 37.5992H26.7536L27.0387 36.6407ZM38.7332 39.7097L38.2544 40.5876L38.7332 39.7097ZM39.2423 45.9036L40.2252 46.0879L39.2423 45.9036ZM34.1551 65.991L35.1143 66.2736L34.1551 65.991ZM35.6582 69.4865L35.3263 70.4298L35.6582 69.4865ZM39.4334 67.7737L38.5349 67.3346L39.4334 67.7737ZM45.4362 52.1823L46.3764 51.8416C46.2341 51.4492 45.8631 51.1864 45.4457 51.1824C45.0283 51.1784 44.6524 51.4341 44.5027 51.8237L45.4362 52.1823ZM25.0756 33.8051L24.088 33.6475L24.088 33.6475L25.0756 33.8051ZM62.4047 31.9037L62.2807 30.9114L62.4047 31.9037ZM63.5782 36.6407L63.8632 37.5992L63.5782 36.6407ZM51.8836 39.7097L51.4048 38.8318L51.8836 39.7097ZM51.3745 45.9036L52.3574 45.7193V45.7193L51.3745 45.9036ZM56.4618 65.991L57.421 65.7083L56.4618 65.991ZM54.9587 69.4865L54.6268 68.5432H54.6268L54.9587 69.4865ZM51.1835 67.7737L50.285 68.2127L51.1835 67.7737ZM65.5413 33.8051L66.5288 33.6475V33.6475L65.5413 33.8051ZM45.3122 33.5134C43.1441 33.5134 39.3661 32.9308 35.8446 32.3006C32.4129 31.6864 29.1817 31.0171 28.3362 30.9114L28.0881 32.896C28.8717 32.9939 31.9176 33.6295 35.4923 34.2693C38.9771 34.893 42.9346 35.5134 45.3122 35.5134V33.5134ZM26.7536 37.5992C27.5624 37.8397 30.2304 38.449 32.76 39.0624C34.0439 39.3737 35.3088 39.6897 36.3279 39.9694C36.838 40.1094 37.2778 40.238 37.6233 40.3504C37.9909 40.4699 38.1871 40.5509 38.2544 40.5876L39.2121 38.8318C38.9644 38.6967 38.6073 38.5673 38.2419 38.4484C37.8544 38.3224 37.3814 38.1846 36.8573 38.0408C35.8082 37.7528 34.5194 37.431 33.2313 37.1187C30.6168 36.4848 28.0676 35.9033 27.3237 35.6821L26.7536 37.5992ZM38.2544 40.5876C38.1504 40.5309 38.2237 40.5106 38.3298 40.8277C38.4235 41.1079 38.4967 41.5179 38.5308 42.0441C38.5986 43.0897 38.502 44.4258 38.2595 45.7193L40.2252 46.0879C40.4918 44.6663 40.6073 43.1599 40.5266 41.9147C40.4865 41.2954 40.3953 40.6978 40.2265 40.1933C40.07 39.7255 39.7827 39.1431 39.2121 38.8318L38.2544 40.5876ZM38.2595 45.7193C37.8175 48.0765 34.9155 59.8727 33.1959 65.7083L35.1143 66.2736C36.8451 60.4002 39.7665 48.5342 40.2252 46.0879L38.2595 45.7193ZM33.1959 65.7083C32.8781 66.7868 32.9299 67.8092 33.3371 68.6658C33.7443 69.5225 34.4672 70.1276 35.3263 70.4298L35.9901 68.5432C35.5935 68.4037 35.3043 68.1456 35.1435 67.8073C34.9826 67.4689 34.9107 66.9644 35.1143 66.2736L33.1959 65.7083ZM35.3263 70.4298C36.4905 70.8395 37.557 70.7829 38.4636 70.2972C39.3352 69.8304 39.9296 69.0359 40.3319 68.2127L38.5349 67.3346C38.2379 67.9424 37.8886 68.3364 37.5192 68.5343C37.1849 68.7133 36.7135 68.7977 35.9901 68.5432L35.3263 70.4298ZM40.3319 68.2127C40.7158 67.427 41.7937 64.6255 42.9699 61.5229C44.1613 58.3805 45.4796 54.8581 46.3697 52.5409L44.5027 51.8237C43.611 54.1449 42.2856 57.6862 41.0998 60.8139C39.899 63.9814 38.8664 66.6564 38.5349 67.3346L40.3319 68.2127ZM28.3362 30.9114C27.2357 30.7739 26.2484 30.9645 25.4783 31.4734C24.7019 31.9864 24.2279 32.7713 24.088 33.6475L26.0631 33.9627C26.1193 33.6104 26.2964 33.3299 26.5808 33.1421C26.8714 32.95 27.3543 32.8043 28.0881 32.896L28.3362 30.9114ZM24.088 33.6475C23.9439 34.5506 24.054 35.4256 24.5662 36.1642C25.0672 36.8867 25.8515 37.3309 26.7536 37.5992L27.3237 35.6821C26.6731 35.4887 26.36 35.2413 26.2097 35.0245C26.0706 34.8239 25.9754 34.512 26.0631 33.9627L24.088 33.6475ZM45.3122 35.5134C47.6899 35.5134 51.6455 34.893 55.1285 34.2693C56.8864 33.9545 58.5521 33.6334 59.8746 33.3794C61.2221 33.1207 62.1636 32.9416 62.5288 32.896L62.2807 30.9114C61.8314 30.9676 60.7973 31.1657 59.4974 31.4153C58.1726 31.6698 56.5194 31.9884 54.776 32.3006C51.2564 32.9308 47.4803 33.5134 45.3122 33.5134V35.5134ZM63.2932 35.6821C62.5492 35.9033 60.0001 36.4848 57.3856 37.1187C56.0975 37.431 54.8087 37.7528 53.7595 38.0408C53.2355 38.1846 52.7625 38.3224 52.375 38.4484C52.0096 38.5673 51.6525 38.6967 51.4048 38.8318L52.3625 40.5876C52.4298 40.5509 52.626 40.4699 52.9936 40.3504C53.3391 40.238 53.7789 40.1094 54.289 39.9694C55.3081 39.6897 56.573 39.3737 57.8569 39.0624C60.3864 38.449 63.0545 37.8397 63.8632 37.5992L63.2932 35.6821ZM51.4048 38.8318C50.8342 39.1431 50.5468 39.7255 50.3904 40.1933C50.2216 40.6979 50.1304 41.2954 50.0903 41.9147C50.0096 43.1599 50.1251 44.6663 50.3917 46.0879L52.3574 45.7193C52.1149 44.4258 52.0183 43.0897 52.0861 42.0441C52.1202 41.5179 52.1934 41.1079 52.2871 40.8276C52.3932 40.5106 52.4664 40.5309 52.3625 40.5876L51.4048 38.8318ZM50.3917 46.0879C50.8504 48.5342 53.7718 60.4002 55.5026 66.2736L57.421 65.7083C55.7013 59.8727 52.7994 48.0765 52.3574 45.7193L50.3917 46.0879ZM55.5026 66.2736C55.7061 66.9644 55.6343 67.4689 55.4734 67.8073C55.3126 68.1456 55.0233 68.4037 54.6268 68.5432L55.2906 70.4298C56.1496 70.1276 56.8726 69.5225 57.2798 68.6658C57.6869 67.8092 57.7388 66.7868 57.421 65.7083L55.5026 66.2736ZM54.6268 68.5432C53.9034 68.7977 53.4319 68.7133 53.0977 68.5343C52.7283 68.3364 52.379 67.9424 52.082 67.3346L50.285 68.2127C50.6873 69.0359 51.2817 69.8304 52.1533 70.2973C53.0599 70.7829 54.1264 70.8395 55.2906 70.4298L54.6268 68.5432ZM52.082 67.3346C51.7545 66.6646 50.7686 64.0156 49.6214 60.8531C48.473 57.6874 47.2465 54.2424 46.3764 51.8416L44.496 52.5231C45.3319 54.8293 46.6213 58.448 47.7412 61.5352C48.8623 64.6257 49.8971 67.4188 50.285 68.2127L52.082 67.3346ZM62.5288 32.896C63.2625 32.8043 63.7455 32.95 64.0361 33.1421C64.3204 33.3299 64.4976 33.6104 64.5538 33.9627L66.5288 33.6475C66.389 32.7713 65.915 31.9864 65.1386 31.4734C64.3685 30.9645 63.3811 30.7739 62.2807 30.9114L62.5288 32.896ZM64.5538 33.9627C64.6415 34.512 64.5463 34.8239 64.4072 35.0245C64.2569 35.2413 63.9438 35.4887 63.2932 35.6821L63.8632 37.5992C64.7654 37.3309 65.5497 36.8867 66.0507 36.1642C66.5629 35.4256 66.6729 34.5506 66.5288 33.6475L64.5538 33.9627Z" fill="black"/>
<circle cx="45.1652" cy="25.1367" r="4.83981" fill="white" stroke="black" stroke-width="2"/>
<path d="M161.335 32.3447L160.003 33.6769L161.335 32.3447ZM137.357 32.3447L138.689 33.6769L137.357 32.3447ZM161.335 50.9946L160.003 49.6624L161.335 50.9946ZM137.357 50.9946L138.689 49.6624L137.357 50.9946ZM145.349 53.6588H153.342H145.349ZM146.682 57.6552H152.01H146.682ZM149.346 33.6769C144.017 33.6769 141.289 36.2745 141.353 40.3375C141.384 42.3184 142.019 43.6678 143.351 45C144.683 46.3321 145.349 46.9982 145.349 49.6624H153.342C153.342 46.9982 154.008 46.3321 155.34 45C156.673 43.6678 157.308 42.3184 157.339 40.3375C157.403 36.2745 154.674 33.6769 149.346 33.6769Z" fill="#00ADE4"/>
<path d="M161.335 32.3447L160.003 33.6769M137.357 32.3447L138.689 33.6769M161.335 50.9946L160.003 49.6624M137.357 50.9946L138.689 49.6624M145.349 53.6588H153.342M146.682 57.6552H152.01M149.346 33.6769C144.017 33.6769 141.289 36.2745 141.353 40.3375C141.384 42.3184 142.019 43.6678 143.351 45C144.683 46.3321 145.349 46.9982 145.349 49.6624H153.342C153.342 46.9982 154.008 46.3321 155.34 45C156.673 43.6678 157.308 42.3184 157.339 40.3375C157.403 36.2745 154.674 33.6769 149.346 33.6769Z" stroke="black" stroke-width="2" stroke-linecap="round" stroke-linejoin="round"/>
</svg>
