<svg width="50" height="50" viewBox="0 0 50 50" fill="none" xmlns="http://www.w3.org/2000/svg">
<path fill-rule="evenodd" clip-rule="evenodd" d="M28.3139 10.0456C29.1404 10.2244 29.6656 11.0393 29.4869 11.8659L23.3964 39.1048C23.2177 39.9314 22.4027 40.4566 21.5761 40.2778C20.7495 40.0991 20.2244 39.2842 20.4031 38.4576L26.4936 11.2187C26.6723 10.3921 27.4873 9.86693 28.3139 10.0456ZM33.0587 14.7778C33.6302 14.1544 34.5988 14.1122 35.2222 14.6837L44.4097 23.1056C44.7098 23.3806 44.888 23.7638 44.9049 24.1705C44.9219 24.5772 44.7763 24.9739 44.5002 25.273L35.3127 35.2261C34.7391 35.8475 33.7703 35.8862 33.1489 35.3126C32.5275 34.739 32.4887 33.7703 33.0623 33.1489L41.2076 24.3248L33.1528 16.9412C32.5294 16.3698 32.4873 15.4012 33.0587 14.7778ZM14.7541 14.7059C15.3652 14.1214 16.3345 14.1429 16.919 14.754C17.5036 15.3652 17.4821 16.3344 16.8709 16.919L8.79103 24.6476L16.918 33.128C17.5032 33.7386 17.4826 34.7079 16.872 35.293C16.2614 35.8781 15.2921 35.8575 14.707 35.2469L5.51946 25.66C5.23829 25.3666 5.08528 24.9735 5.09411 24.5672C5.10295 24.1609 5.27291 23.7748 5.56657 23.494L14.7541 14.7059Z" fill="black"/>
</svg>
