<svg width="1364" height="615" viewBox="0 0 1364 615" fill="none" xmlns="http://www.w3.org/2000/svg">
<rect width="1364" height="615" fill="url(#paint0_radial_8_144)" fill-opacity="0.3"/>
<path d="M449 279.474L469 291.021V267.927L449 279.474ZM458.107 281.474H464.179V277.474H458.107V281.474ZM470.25 281.474H476.321V277.474H470.25V281.474ZM482.393 281.474H488.464V277.474H482.393V281.474ZM494.536 281.474H500.607V277.474H494.536V281.474ZM506.679 281.474H512.75V277.474H506.679V281.474ZM518.821 281.474H524.893V277.474H518.821V281.474ZM530.964 281.474H537.036V277.474H530.964V281.474ZM543.107 281.474H549.179V277.474H543.107V281.474ZM555.25 281.474H561.321V277.474H555.25V281.474ZM567.393 281.474H573.464V277.474H567.393V281.474ZM579.536 281.474H585.607V277.474H579.536V281.474ZM591.679 281.474H597.75V277.474H591.679V281.474ZM603.821 281.474H609.893V277.474H603.821V281.474ZM615.964 281.474H622.036V277.474H615.964V281.474ZM628.107 281.474H634.179V277.474H628.107V281.474ZM640.25 281.474H646.321V277.474H640.25V281.474ZM652.393 281.474H658.464V277.474H652.393V281.474ZM664.536 281.474H670.607V277.474H664.536V281.474ZM676.679 281.474H682.75V277.474H676.679V281.474ZM688.821 281.474H694.893V277.474H688.821V281.474ZM700.964 281.474H704V277.474H700.964V281.474Z" fill="#B16DDF"/>
<path d="M704 367.474L684 355.927V379.021L704 367.474ZM449 369.474H452.036V365.474H449V369.474ZM458.107 369.474H464.179V365.474H458.107V369.474ZM470.25 369.474H476.321V365.474H470.25V369.474ZM482.393 369.474H488.464V365.474H482.393V369.474ZM494.536 369.474H500.607V365.474H494.536V369.474ZM506.679 369.474H512.75V365.474H506.679V369.474ZM518.821 369.474H524.893V365.474H518.821V369.474ZM530.964 369.474H537.036V365.474H530.964V369.474ZM543.107 369.474H549.179V365.474H543.107V369.474ZM555.25 369.474H561.321V365.474H555.25V369.474ZM567.393 369.474H573.464V365.474H567.393V369.474ZM579.536 369.474H585.607V365.474H579.536V369.474ZM591.679 369.474H597.75V365.474H591.679V369.474ZM603.821 369.474H609.893V365.474H603.821V369.474ZM615.964 369.474H622.036V365.474H615.964V369.474ZM628.107 369.474H634.179V365.474H628.107V369.474ZM640.25 369.474H646.321V365.474H640.25V369.474ZM652.393 369.474H658.464V365.474H652.393V369.474ZM664.536 369.474H670.607V365.474H664.536V369.474ZM676.679 369.474H682.75V365.474H676.679V369.474ZM688.821 369.474H694.893V365.474H688.821V369.474Z" fill="#B16DDF"/>
<path d="M796.75 432.325C769.519 432.325 746.256 422.899 726.961 404.047C707.666 385.195 698.012 362.153 698 334.922C698 311.581 705.032 290.784 719.097 272.53C733.161 254.276 751.564 242.606 774.307 237.519C781.788 209.988 796.75 187.695 819.193 170.638C841.636 153.581 867.072 145.053 895.5 145.053C930.511 145.053 960.214 157.25 984.608 181.644C1009 206.038 1021.19 235.735 1021.18 270.735C1041.83 273.128 1058.96 282.034 1072.59 297.451C1086.21 312.868 1093.01 330.894 1093 351.53C1093 373.973 1085.15 393.053 1069.44 408.769C1053.74 424.485 1034.66 432.337 1012.2 432.325H796.75Z" fill="white" fill-opacity="0.67"/>
<path fill-rule="evenodd" clip-rule="evenodd" d="M905.712 180.636L879.357 176.066C869.398 174.34 859.924 181.013 858.197 190.973L849.105 243.414C847.378 253.373 854.052 262.847 864.011 264.573L880.02 267.349L900.28 250.25L864.498 221.112C863.694 220.457 863.222 219.477 863.211 218.44C863.2 217.402 863.65 216.413 864.441 215.74L905.712 180.636ZM889.01 268.908L915.679 273.532C925.639 275.259 935.112 268.585 936.839 258.625L945.931 206.184C947.658 196.225 940.984 186.752 931.025 185.025L914.673 182.19L893.787 199.955L929.158 229.672C929.948 230.335 930.404 231.313 930.405 232.344C930.406 233.375 929.952 234.353 929.164 235.018L889.01 268.908ZM921.485 232.354L905.715 245.663L872.167 218.344L888.388 204.547L921.485 232.354Z" fill="url(#paint1_linear_8_144)"/>
<g opacity="0.65" filter="url(#filter0_dd_8_144)">
<rect x="752" y="301.053" width="138" height="97" rx="8" fill="white"/>
<path d="M774.513 345.553V335.613H781.373V337.405H775.465L776.641 336.187V340.737L775.465 339.813H781.121V341.577H775.465L776.641 340.653V345.553H774.513ZM786.252 345.721C785.486 345.721 784.819 345.562 784.25 345.245C783.68 344.918 783.242 344.461 782.934 343.873C782.626 343.285 782.472 342.594 782.472 341.801C782.472 341.007 782.626 340.321 782.934 339.743C783.242 339.155 783.676 338.697 784.236 338.371C784.805 338.044 785.472 337.881 786.238 337.881C786.975 337.881 787.619 338.044 788.17 338.371C788.73 338.697 789.159 339.164 789.458 339.771C789.756 340.377 789.906 341.101 789.906 341.941V342.361H784.642C784.67 342.958 784.828 343.401 785.118 343.691C785.416 343.98 785.808 344.125 786.294 344.125C786.648 344.125 786.942 344.05 787.176 343.901C787.418 343.751 787.591 343.523 787.694 343.215L789.808 343.341C789.602 344.087 789.182 344.671 788.548 345.091C787.922 345.511 787.157 345.721 786.252 345.721ZM784.642 341.073H787.764C787.736 340.522 787.582 340.111 787.302 339.841C787.031 339.57 786.676 339.435 786.238 339.435C785.799 339.435 785.435 339.579 785.146 339.869C784.866 340.149 784.698 340.55 784.642 341.073ZM793.553 345.721C792.769 345.721 792.134 345.543 791.649 345.189C791.164 344.825 790.921 344.321 790.921 343.677C790.921 343.014 791.126 342.505 791.537 342.151C791.957 341.787 792.573 341.521 793.385 341.353L795.807 340.877C795.807 340.391 795.695 340.027 795.471 339.785C795.256 339.533 794.939 339.407 794.519 339.407C794.127 339.407 793.819 339.5 793.595 339.687C793.371 339.864 793.222 340.13 793.147 340.485L791.047 340.387C791.187 339.565 791.556 338.945 792.153 338.525C792.76 338.095 793.548 337.881 794.519 337.881C795.639 337.881 796.484 338.147 797.053 338.679C797.622 339.211 797.907 339.99 797.907 341.017V343.579C797.907 343.793 797.94 343.938 798.005 344.013C798.08 344.078 798.187 344.111 798.327 344.111H798.537V345.553C798.472 345.571 798.364 345.59 798.215 345.609C798.075 345.627 797.93 345.637 797.781 345.637C797.492 345.637 797.216 345.585 796.955 345.483C796.694 345.38 796.484 345.207 796.325 344.965C796.176 344.713 796.101 344.358 796.101 343.901L796.283 344.041C796.19 344.377 796.022 344.671 795.779 344.923C795.546 345.175 795.238 345.371 794.855 345.511C794.482 345.651 794.048 345.721 793.553 345.721ZM794.057 344.279C794.402 344.279 794.706 344.213 794.967 344.083C795.228 343.943 795.434 343.742 795.583 343.481C795.732 343.219 795.807 342.911 795.807 342.557V342.193L794.099 342.557C793.754 342.622 793.497 342.734 793.329 342.893C793.161 343.042 793.077 343.238 793.077 343.481C793.077 343.733 793.161 343.929 793.329 344.069C793.497 344.209 793.74 344.279 794.057 344.279ZM802.391 345.553C801.617 345.553 801.047 345.375 800.683 345.021C800.319 344.657 800.137 344.083 800.137 343.299V336.285H802.237V343.047C802.237 343.411 802.312 343.658 802.461 343.789C802.62 343.919 802.853 343.985 803.161 343.985H804.211V345.553H802.391ZM798.933 339.617V338.049H804.211V339.617H798.933ZM808.009 345.721C807.234 345.721 806.628 345.473 806.189 344.979C805.76 344.475 805.545 343.775 805.545 342.879V338.049H807.645V342.389C807.645 342.967 807.734 343.392 807.911 343.663C808.088 343.924 808.368 344.055 808.751 344.055C809.18 344.055 809.512 343.91 809.745 343.621C809.988 343.322 810.109 342.879 810.109 342.291V338.049H812.209V345.553H810.291L810.235 343.397L810.501 343.453C810.389 344.199 810.123 344.764 809.703 345.147C809.283 345.529 808.718 345.721 808.009 345.721ZM814.049 345.553V338.049H816.037L816.107 340.233L815.953 340.191C816.074 339.435 816.289 338.889 816.597 338.553C816.905 338.217 817.33 338.049 817.871 338.049H818.557V339.785H817.871C817.479 339.785 817.157 339.836 816.905 339.939C816.653 340.041 816.462 340.205 816.331 340.429C816.21 340.653 816.149 340.956 816.149 341.339V345.553H814.049ZM822.906 345.721C822.141 345.721 821.473 345.562 820.904 345.245C820.335 344.918 819.896 344.461 819.588 343.873C819.28 343.285 819.126 342.594 819.126 341.801C819.126 341.007 819.28 340.321 819.588 339.743C819.896 339.155 820.33 338.697 820.89 338.371C821.459 338.044 822.127 337.881 822.892 337.881C823.629 337.881 824.273 338.044 824.824 338.371C825.384 338.697 825.813 339.164 826.112 339.771C826.411 340.377 826.56 341.101 826.56 341.941V342.361H821.296C821.324 342.958 821.483 343.401 821.772 343.691C822.071 343.98 822.463 344.125 822.948 344.125C823.303 344.125 823.597 344.05 823.83 343.901C824.073 343.751 824.245 343.523 824.348 343.215L826.462 343.341C826.257 344.087 825.837 344.671 825.202 345.091C824.577 345.511 823.811 345.721 822.906 345.721ZM821.296 341.073H824.418C824.39 340.522 824.236 340.111 823.956 339.841C823.685 339.57 823.331 339.435 822.892 339.435C822.453 339.435 822.089 339.579 821.8 339.869C821.52 340.149 821.352 340.55 821.296 341.073ZM831.333 345.553V335.613H838.193V337.405H832.285L833.461 336.187V340.737L832.285 339.813H837.941V341.577H832.285L833.461 340.653V345.553H831.333ZM841.63 345.553C841.014 345.553 840.533 345.399 840.188 345.091C839.843 344.783 839.67 344.283 839.67 343.593V335.613H841.77V343.369C841.77 343.593 841.821 343.751 841.924 343.845C842.027 343.938 842.176 343.985 842.372 343.985H842.876V345.553H841.63ZM846.491 345.721C845.707 345.721 845.072 345.543 844.587 345.189C844.101 344.825 843.859 344.321 843.859 343.677C843.859 343.014 844.064 342.505 844.475 342.151C844.895 341.787 845.511 341.521 846.323 341.353L848.745 340.877C848.745 340.391 848.633 340.027 848.409 339.785C848.194 339.533 847.877 339.407 847.457 339.407C847.065 339.407 846.757 339.5 846.533 339.687C846.309 339.864 846.159 340.13 846.085 340.485L843.985 340.387C844.125 339.565 844.493 338.945 845.091 338.525C845.697 338.095 846.486 337.881 847.457 337.881C848.577 337.881 849.421 338.147 849.991 338.679C850.56 339.211 850.845 339.99 850.845 341.017V343.579C850.845 343.793 850.877 343.938 850.943 344.013C851.017 344.078 851.125 344.111 851.265 344.111H851.475V345.553C851.409 345.571 851.302 345.59 851.153 345.609C851.013 345.627 850.868 345.637 850.719 345.637C850.429 345.637 850.154 345.585 849.893 345.483C849.631 345.38 849.421 345.207 849.263 344.965C849.113 344.713 849.039 344.358 849.039 343.901L849.221 344.041C849.127 344.377 848.959 344.671 848.717 344.923C848.483 345.175 848.175 345.371 847.793 345.511C847.419 345.651 846.985 345.721 846.491 345.721ZM846.995 344.279C847.34 344.279 847.643 344.213 847.905 344.083C848.166 343.943 848.371 343.742 848.521 343.481C848.67 343.219 848.745 342.911 848.745 342.557V342.193L847.037 342.557C846.691 342.622 846.435 342.734 846.267 342.893C846.099 343.042 846.015 343.238 846.015 343.481C846.015 343.733 846.099 343.929 846.267 344.069C846.435 344.209 846.677 344.279 846.995 344.279ZM856.074 347.821C855.355 347.821 854.753 347.732 854.268 347.555C853.792 347.377 853.409 347.13 853.12 346.813C852.84 346.495 852.644 346.131 852.532 345.721L854.688 345.567C854.762 345.809 854.902 346.001 855.108 346.141C855.313 346.281 855.635 346.351 856.074 346.351C856.568 346.351 856.951 346.229 857.222 345.987C857.492 345.753 857.628 345.375 857.628 344.853V344.055C857.45 344.4 857.166 344.68 856.774 344.895C856.382 345.1 855.943 345.203 855.458 345.203C854.842 345.203 854.296 345.053 853.82 344.755C853.344 344.447 852.97 344.022 852.7 343.481C852.438 342.93 852.308 342.286 852.308 341.549C852.308 340.83 852.438 340.195 852.7 339.645C852.961 339.094 853.33 338.665 853.806 338.357C854.282 338.039 854.823 337.881 855.43 337.881C855.98 337.881 856.442 338.002 856.816 338.245C857.198 338.487 857.488 338.809 857.684 339.211V338.049H859.742V344.811C859.742 345.483 859.588 346.038 859.28 346.477C858.972 346.925 858.542 347.261 857.992 347.485C857.441 347.709 856.802 347.821 856.074 347.821ZM856.06 343.649C856.536 343.649 856.914 343.462 857.194 343.089C857.483 342.715 857.632 342.197 857.642 341.535C857.642 341.096 857.576 340.718 857.446 340.401C857.324 340.083 857.142 339.841 856.9 339.673C856.666 339.505 856.386 339.421 856.06 339.421C855.556 339.421 855.164 339.612 854.884 339.995C854.604 340.377 854.464 340.891 854.464 341.535C854.464 342.188 854.608 342.706 854.898 343.089C855.187 343.462 855.574 343.649 856.06 343.649ZM864.615 345.721C863.84 345.721 863.191 345.613 862.669 345.399C862.155 345.175 861.759 344.876 861.479 344.503C861.208 344.12 861.054 343.681 861.017 343.187L863.145 343.117C863.21 343.471 863.359 343.747 863.593 343.943C863.826 344.139 864.171 344.237 864.629 344.237C865.002 344.237 865.291 344.176 865.497 344.055C865.711 343.933 865.819 343.747 865.819 343.495C865.819 343.336 865.777 343.205 865.693 343.103C865.618 342.991 865.473 342.897 865.259 342.823C865.044 342.739 864.722 342.664 864.293 342.599C863.499 342.459 862.879 342.295 862.431 342.109C861.983 341.922 861.665 341.679 861.479 341.381C861.292 341.082 861.199 340.718 861.199 340.289C861.199 339.57 861.474 338.991 862.025 338.553C862.585 338.105 863.42 337.881 864.531 337.881C865.24 337.881 865.833 337.993 866.309 338.217C866.794 338.441 867.167 338.749 867.429 339.141C867.699 339.523 867.863 339.962 867.919 340.457L865.819 340.541C865.781 340.298 865.707 340.093 865.595 339.925C865.483 339.747 865.333 339.612 865.147 339.519C864.969 339.416 864.755 339.365 864.503 339.365C864.139 339.365 863.854 339.444 863.649 339.603C863.453 339.752 863.355 339.953 863.355 340.205C863.355 340.391 863.397 340.545 863.481 340.667C863.574 340.779 863.723 340.872 863.929 340.947C864.134 341.021 864.409 341.082 864.755 341.129C865.557 341.241 866.192 341.399 866.659 341.605C867.135 341.801 867.471 342.048 867.667 342.347C867.872 342.645 867.975 343.014 867.975 343.453C867.975 343.938 867.835 344.349 867.555 344.685C867.284 345.021 866.897 345.277 866.393 345.455C865.898 345.632 865.305 345.721 864.615 345.721ZM776.764 363.721C775.98 363.721 775.345 363.543 774.86 363.189C774.375 362.825 774.132 362.321 774.132 361.677C774.132 361.014 774.337 360.505 774.748 360.151C775.168 359.787 775.784 359.521 776.596 359.353L779.018 358.877C779.018 358.391 778.906 358.027 778.682 357.785C778.467 357.533 778.15 357.407 777.73 357.407C777.338 357.407 777.03 357.5 776.806 357.687C776.582 357.864 776.433 358.13 776.358 358.485L774.258 358.387C774.398 357.565 774.767 356.945 775.364 356.525C775.971 356.095 776.759 355.881 777.73 355.881C778.85 355.881 779.695 356.147 780.264 356.679C780.833 357.211 781.118 357.99 781.118 359.017V361.579C781.118 361.793 781.151 361.938 781.216 362.013C781.291 362.078 781.398 362.111 781.538 362.111H781.748V363.553C781.683 363.571 781.575 363.59 781.426 363.609C781.286 363.627 781.141 363.637 780.992 363.637C780.703 363.637 780.427 363.585 780.166 363.483C779.905 363.38 779.695 363.207 779.536 362.965C779.387 362.713 779.312 362.358 779.312 361.901L779.494 362.041C779.401 362.377 779.233 362.671 778.99 362.923C778.757 363.175 778.449 363.371 778.066 363.511C777.693 363.651 777.259 363.721 776.764 363.721ZM777.268 362.279C777.613 362.279 777.917 362.213 778.178 362.083C778.439 361.943 778.645 361.742 778.794 361.481C778.943 361.219 779.018 360.911 779.018 360.557V360.193L777.31 360.557C776.965 360.622 776.708 360.734 776.54 360.893C776.372 361.042 776.288 361.238 776.288 361.481C776.288 361.733 776.372 361.929 776.54 362.069C776.708 362.209 776.951 362.279 777.268 362.279ZM783.028 363.553V356.049H784.918L785.002 358.247L784.736 358.177C784.81 357.617 784.96 357.169 785.184 356.833C785.417 356.497 785.706 356.254 786.052 356.105C786.397 355.955 786.775 355.881 787.186 355.881C787.727 355.881 788.184 355.997 788.558 356.231C788.94 356.464 789.23 356.795 789.426 357.225C789.631 357.645 789.734 358.144 789.734 358.723V363.553H787.634V359.423C787.634 359.021 787.601 358.681 787.536 358.401C787.47 358.121 787.354 357.911 787.186 357.771C787.018 357.621 786.784 357.547 786.486 357.547C786.047 357.547 785.711 357.71 785.478 358.037C785.244 358.354 785.128 358.816 785.128 359.423V363.553H783.028ZM794.096 363.721C793.471 363.721 792.925 363.562 792.458 363.245C792.001 362.918 791.646 362.465 791.394 361.887C791.152 361.299 791.03 360.603 791.03 359.801C791.03 358.998 791.156 358.307 791.408 357.729C791.66 357.141 792.015 356.688 792.472 356.371C792.939 356.044 793.48 355.881 794.096 355.881C794.638 355.881 795.1 355.993 795.482 356.217C795.874 356.431 796.168 356.73 796.364 357.113V353.613H798.464V363.553H796.448L796.406 362.447C796.201 362.848 795.893 363.161 795.482 363.385C795.081 363.609 794.619 363.721 794.096 363.721ZM794.796 362.111C795.132 362.111 795.417 362.022 795.65 361.845C795.884 361.667 796.061 361.411 796.182 361.075C796.304 360.729 796.364 360.305 796.364 359.801C796.364 359.287 796.304 358.863 796.182 358.527C796.061 358.181 795.884 357.925 795.65 357.757C795.417 357.579 795.132 357.491 794.796 357.491C794.302 357.491 793.91 357.701 793.62 358.121C793.331 358.531 793.186 359.091 793.186 359.801C793.186 360.501 793.331 361.061 793.62 361.481C793.919 361.901 794.311 362.111 794.796 362.111ZM805.846 363.553V355.405H802.878V353.613H810.956V355.405H807.988V363.553H805.846ZM813.459 363.721C812.675 363.721 812.041 363.543 811.555 363.189C811.07 362.825 810.827 362.321 810.827 361.677C810.827 361.014 811.033 360.505 811.443 360.151C811.863 359.787 812.479 359.521 813.291 359.353L815.713 358.877C815.713 358.391 815.601 358.027 815.377 357.785C815.163 357.533 814.845 357.407 814.425 357.407C814.033 357.407 813.725 357.5 813.501 357.687C813.277 357.864 813.128 358.13 813.053 358.485L810.953 358.387C811.093 357.565 811.462 356.945 812.059 356.525C812.666 356.095 813.455 355.881 814.425 355.881C815.545 355.881 816.39 356.147 816.959 356.679C817.529 357.211 817.813 357.99 817.813 359.017V361.579C817.813 361.793 817.846 361.938 817.911 362.013C817.986 362.078 818.093 362.111 818.233 362.111H818.443V363.553C818.378 363.571 818.271 363.59 818.121 363.609C817.981 363.627 817.837 363.637 817.687 363.637C817.398 363.637 817.123 363.585 816.861 363.483C816.6 363.38 816.39 363.207 816.231 362.965C816.082 362.713 816.007 362.358 816.007 361.901L816.189 362.041C816.096 362.377 815.928 362.671 815.685 362.923C815.452 363.175 815.144 363.371 814.761 363.511C814.388 363.651 813.954 363.721 813.459 363.721ZM813.963 362.279C814.309 362.279 814.612 362.213 814.873 362.083C815.135 361.943 815.34 361.742 815.489 361.481C815.639 361.219 815.713 360.911 815.713 360.557V360.193L814.005 360.557C813.66 360.622 813.403 360.734 813.235 360.893C813.067 361.042 812.983 361.238 812.983 361.481C812.983 361.733 813.067 361.929 813.235 362.069C813.403 362.209 813.646 362.279 813.963 362.279ZM819.723 363.553V356.049H821.711L821.781 358.233L821.627 358.191C821.748 357.435 821.963 356.889 822.271 356.553C822.579 356.217 823.003 356.049 823.545 356.049H824.231V357.785H823.545C823.153 357.785 822.831 357.836 822.579 357.939C822.327 358.041 822.135 358.205 822.005 358.429C821.883 358.653 821.823 358.956 821.823 359.339V363.553H819.723ZM828.566 365.821C827.847 365.821 827.245 365.732 826.76 365.555C826.284 365.377 825.901 365.13 825.612 364.813C825.332 364.495 825.136 364.131 825.024 363.721L827.18 363.567C827.255 363.809 827.395 364.001 827.6 364.141C827.805 364.281 828.127 364.351 828.566 364.351C829.061 364.351 829.443 364.229 829.714 363.987C829.985 363.753 830.12 363.375 830.12 362.853V362.055C829.943 362.4 829.658 362.68 829.266 362.895C828.874 363.1 828.435 363.203 827.95 363.203C827.334 363.203 826.788 363.053 826.312 362.755C825.836 362.447 825.463 362.022 825.192 361.481C824.931 360.93 824.8 360.286 824.8 359.549C824.8 358.83 824.931 358.195 825.192 357.645C825.453 357.094 825.822 356.665 826.298 356.357C826.774 356.039 827.315 355.881 827.922 355.881C828.473 355.881 828.935 356.002 829.308 356.245C829.691 356.487 829.98 356.809 830.176 357.211V356.049H832.234V362.811C832.234 363.483 832.08 364.038 831.772 364.477C831.464 364.925 831.035 365.261 830.484 365.485C829.933 365.709 829.294 365.821 828.566 365.821ZM828.552 361.649C829.028 361.649 829.406 361.462 829.686 361.089C829.975 360.715 830.125 360.197 830.134 359.535C830.134 359.096 830.069 358.718 829.938 358.401C829.817 358.083 829.635 357.841 829.392 357.673C829.159 357.505 828.879 357.421 828.552 357.421C828.048 357.421 827.656 357.612 827.376 357.995C827.096 358.377 826.956 358.891 826.956 359.535C826.956 360.188 827.101 360.706 827.39 361.089C827.679 361.462 828.067 361.649 828.552 361.649ZM837.289 363.721C836.524 363.721 835.856 363.562 835.287 363.245C834.718 362.918 834.279 362.461 833.971 361.873C833.663 361.285 833.509 360.594 833.509 359.801C833.509 359.007 833.663 358.321 833.971 357.743C834.279 357.155 834.713 356.697 835.273 356.371C835.842 356.044 836.51 355.881 837.275 355.881C838.012 355.881 838.656 356.044 839.207 356.371C839.767 356.697 840.196 357.164 840.495 357.771C840.794 358.377 840.943 359.101 840.943 359.941V360.361H835.679C835.707 360.958 835.866 361.401 836.155 361.691C836.454 361.98 836.846 362.125 837.331 362.125C837.686 362.125 837.98 362.05 838.213 361.901C838.456 361.751 838.628 361.523 838.731 361.215L840.845 361.341C840.64 362.087 840.22 362.671 839.585 363.091C838.96 363.511 838.194 363.721 837.289 363.721ZM835.679 359.073H838.801C838.773 358.522 838.619 358.111 838.339 357.841C838.068 357.57 837.714 357.435 837.275 357.435C836.836 357.435 836.472 357.579 836.183 357.869C835.903 358.149 835.735 358.55 835.679 359.073ZM845.157 363.553C844.382 363.553 843.813 363.375 843.449 363.021C843.085 362.657 842.903 362.083 842.903 361.299V354.285H845.003V361.047C845.003 361.411 845.078 361.658 845.227 361.789C845.386 361.919 845.619 361.985 845.927 361.985H846.977V363.553H845.157ZM841.699 357.617V356.049H846.977V357.617H841.699ZM848.311 363.553V356.049H850.411V363.553H848.311ZM848.269 355.125V353.445H850.439V355.125H848.269ZM852.07 363.553V356.049H853.96L854.044 358.247L853.778 358.177C853.853 357.617 854.002 357.169 854.226 356.833C854.46 356.497 854.749 356.254 855.094 356.105C855.44 355.955 855.818 355.881 856.228 355.881C856.77 355.881 857.227 355.997 857.6 356.231C857.983 356.464 858.272 356.795 858.468 357.225C858.674 357.645 858.776 358.144 858.776 358.723V363.553H856.676V359.423C856.676 359.021 856.644 358.681 856.578 358.401C856.513 358.121 856.396 357.911 856.228 357.771C856.06 357.621 855.827 357.547 855.528 357.547C855.09 357.547 854.754 357.71 854.52 358.037C854.287 358.354 854.17 358.816 854.17 359.423V363.553H852.07ZM863.839 365.821C863.121 365.821 862.519 365.732 862.033 365.555C861.557 365.377 861.175 365.13 860.885 364.813C860.605 364.495 860.409 364.131 860.297 363.721L862.453 363.567C862.528 363.809 862.668 364.001 862.873 364.141C863.079 364.281 863.401 364.351 863.839 364.351C864.334 364.351 864.717 364.229 864.987 363.987C865.258 363.753 865.393 363.375 865.393 362.853V362.055C865.216 362.4 864.931 362.68 864.539 362.895C864.147 363.1 863.709 363.203 863.223 363.203C862.607 363.203 862.061 363.053 861.585 362.755C861.109 362.447 860.736 362.022 860.465 361.481C860.204 360.93 860.073 360.286 860.073 359.549C860.073 358.83 860.204 358.195 860.465 357.645C860.727 357.094 861.095 356.665 861.571 356.357C862.047 356.039 862.589 355.881 863.195 355.881C863.746 355.881 864.208 356.002 864.581 356.245C864.964 356.487 865.253 356.809 865.449 357.211V356.049H867.507V362.811C867.507 363.483 867.353 364.038 867.045 364.477C866.737 364.925 866.308 365.261 865.757 365.485C865.207 365.709 864.567 365.821 863.839 365.821ZM863.825 361.649C864.301 361.649 864.679 361.462 864.959 361.089C865.249 360.715 865.398 360.197 865.407 359.535C865.407 359.096 865.342 358.718 865.211 358.401C865.09 358.083 864.908 357.841 864.665 357.673C864.432 357.505 864.152 357.421 863.825 357.421C863.321 357.421 862.929 357.612 862.649 357.995C862.369 358.377 862.229 358.891 862.229 359.535C862.229 360.188 862.374 360.706 862.663 361.089C862.953 361.462 863.34 361.649 863.825 361.649Z" fill="black"/>
</g>
<g opacity="0.65" filter="url(#filter1_dd_8_144)">
<rect x="906" y="301.053" width="138" height="97" rx="8" fill="white"/>
<path d="M942.449 354.553L946.033 344.613H948.553L952.137 354.553H949.925L949.197 352.439H945.375L944.647 354.553H942.449ZM945.977 350.689H948.609L947.293 346.853L945.977 350.689ZM953.222 354.553V347.049H955.112L955.196 349.247L954.93 349.177C955.005 348.617 955.154 348.169 955.378 347.833C955.611 347.497 955.901 347.254 956.246 347.105C956.591 346.955 956.969 346.881 957.38 346.881C957.921 346.881 958.379 346.997 958.752 347.231C959.135 347.464 959.424 347.795 959.62 348.225C959.825 348.645 959.928 349.144 959.928 349.723V354.553H957.828V350.423C957.828 350.021 957.795 349.681 957.73 349.401C957.665 349.121 957.548 348.911 957.38 348.771C957.212 348.621 956.979 348.547 956.68 348.547C956.241 348.547 955.905 348.71 955.672 349.037C955.439 349.354 955.322 349.816 955.322 350.423V354.553H953.222ZM963.857 354.721C963.073 354.721 962.438 354.543 961.953 354.189C961.467 353.825 961.225 353.321 961.225 352.677C961.225 352.014 961.43 351.505 961.841 351.151C962.261 350.787 962.877 350.521 963.689 350.353L966.111 349.877C966.111 349.391 965.999 349.027 965.775 348.785C965.56 348.533 965.243 348.407 964.823 348.407C964.431 348.407 964.123 348.5 963.899 348.687C963.675 348.864 963.525 349.13 963.451 349.485L961.351 349.387C961.491 348.565 961.859 347.945 962.457 347.525C963.063 347.095 963.852 346.881 964.823 346.881C965.943 346.881 966.787 347.147 967.357 347.679C967.926 348.211 968.211 348.99 968.211 350.017V352.579C968.211 352.793 968.243 352.938 968.309 353.013C968.383 353.078 968.491 353.111 968.631 353.111H968.841V354.553C968.775 354.571 968.668 354.59 968.519 354.609C968.379 354.627 968.234 354.637 968.085 354.637C967.795 354.637 967.52 354.585 967.259 354.483C966.997 354.38 966.787 354.207 966.629 353.965C966.479 353.713 966.405 353.358 966.405 352.901L966.587 353.041C966.493 353.377 966.325 353.671 966.083 353.923C965.849 354.175 965.541 354.371 965.159 354.511C964.785 354.651 964.351 354.721 963.857 354.721ZM964.361 353.279C964.706 353.279 965.009 353.213 965.271 353.083C965.532 352.943 965.737 352.742 965.887 352.481C966.036 352.219 966.111 351.911 966.111 351.557V351.193L964.403 351.557C964.057 351.622 963.801 351.734 963.633 351.893C963.465 352.042 963.381 352.238 963.381 352.481C963.381 352.733 963.465 352.929 963.633 353.069C963.801 353.209 964.043 353.279 964.361 353.279ZM971.985 354.553C971.369 354.553 970.888 354.399 970.543 354.091C970.197 353.783 970.025 353.283 970.025 352.593V344.613H972.125V352.369C972.125 352.593 972.176 352.751 972.279 352.845C972.381 352.938 972.531 352.985 972.727 352.985H973.231V354.553H971.985ZM974.742 356.653V355.085H975.736C975.979 355.085 976.156 355.047 976.268 354.973C976.38 354.907 976.469 354.786 976.534 354.609L976.702 354.175H976.128L973.482 347.049H975.638L977.346 352.215L978.97 347.049H981.112L978.228 355.267C978.051 355.761 977.804 356.116 977.486 356.331C977.178 356.545 976.74 356.653 976.17 356.653H974.742ZM985.437 354.553C984.663 354.553 984.093 354.375 983.729 354.021C983.365 353.657 983.183 353.083 983.183 352.299V345.285H985.283V352.047C985.283 352.411 985.358 352.658 985.507 352.789C985.666 352.919 985.899 352.985 986.207 352.985H987.257V354.553H985.437ZM981.979 348.617V347.049H987.257V348.617H981.979ZM988.591 354.553V347.049H990.691V354.553H988.591ZM988.549 346.125V344.445H990.719V346.125H988.549ZM995.904 354.721C995.138 354.721 994.466 354.562 993.888 354.245C993.318 353.918 992.875 353.461 992.558 352.873C992.25 352.285 992.096 351.594 992.096 350.801C992.096 350.007 992.25 349.321 992.558 348.743C992.875 348.155 993.318 347.697 993.888 347.371C994.466 347.044 995.138 346.881 995.904 346.881C996.566 346.881 997.159 346.997 997.682 347.231C998.214 347.464 998.643 347.8 998.97 348.239C999.296 348.677 999.497 349.205 999.572 349.821L997.402 349.919C997.336 349.452 997.168 349.102 996.898 348.869C996.636 348.626 996.305 348.505 995.904 348.505C995.381 348.505 994.975 348.705 994.686 349.107C994.396 349.508 994.252 350.073 994.252 350.801C994.252 351.529 994.396 352.098 994.686 352.509C994.975 352.91 995.381 353.111 995.904 353.111C996.305 353.111 996.641 352.989 996.912 352.747C997.182 352.495 997.346 352.117 997.402 351.613L999.572 351.697C999.497 352.313 999.296 352.849 998.97 353.307C998.652 353.755 998.232 354.105 997.71 354.357C997.187 354.599 996.585 354.721 995.904 354.721ZM1003.99 354.721C1003.22 354.721 1002.57 354.613 1002.05 354.399C1001.53 354.175 1001.14 353.876 1000.86 353.503C1000.59 353.12 1000.43 352.681 1000.39 352.187L1002.52 352.117C1002.59 352.471 1002.74 352.747 1002.97 352.943C1003.2 353.139 1003.55 353.237 1004.01 353.237C1004.38 353.237 1004.67 353.176 1004.87 353.055C1005.09 352.933 1005.2 352.747 1005.2 352.495C1005.2 352.336 1005.15 352.205 1005.07 352.103C1005 351.991 1004.85 351.897 1004.64 351.823C1004.42 351.739 1004.1 351.664 1003.67 351.599C1002.88 351.459 1002.26 351.295 1001.81 351.109C1001.36 350.922 1001.04 350.679 1000.86 350.381C1000.67 350.082 1000.58 349.718 1000.58 349.289C1000.58 348.57 1000.85 347.991 1001.4 347.553C1001.96 347.105 1002.8 346.881 1003.91 346.881C1004.62 346.881 1005.21 346.993 1005.69 347.217C1006.17 347.441 1006.55 347.749 1006.81 348.141C1007.08 348.523 1007.24 348.962 1007.3 349.457L1005.2 349.541C1005.16 349.298 1005.08 349.093 1004.97 348.925C1004.86 348.747 1004.71 348.612 1004.52 348.519C1004.35 348.416 1004.13 348.365 1003.88 348.365C1003.52 348.365 1003.23 348.444 1003.03 348.603C1002.83 348.752 1002.73 348.953 1002.73 349.205C1002.73 349.391 1002.77 349.545 1002.86 349.667C1002.95 349.779 1003.1 349.872 1003.31 349.947C1003.51 350.021 1003.79 350.082 1004.13 350.129C1004.94 350.241 1005.57 350.399 1006.04 350.605C1006.51 350.801 1006.85 351.048 1007.04 351.347C1007.25 351.645 1007.35 352.014 1007.35 352.453C1007.35 352.938 1007.21 353.349 1006.93 353.685C1006.66 354.021 1006.27 354.277 1005.77 354.455C1005.28 354.632 1004.68 354.721 1003.99 354.721Z" fill="black"/>
</g>
<rect x="487" y="247.053" width="180" height="64" rx="8" fill="url(#paint2_linear_8_144)" fill-opacity="0.3"/>
<rect x="487" y="247.053" width="180" height="64" rx="8" fill="white" fill-opacity="0.73"/>
<rect x="487.5" y="247.553" width="179" height="63" rx="7.5" stroke="white" stroke-opacity="0.22"/>
<path d="M531.036 284.474V274.534H535.39C536.118 274.534 536.748 274.655 537.28 274.898C537.821 275.14 538.237 275.486 538.526 275.934C538.815 276.372 538.96 276.895 538.96 277.502C538.96 277.959 538.862 278.365 538.666 278.72C538.479 279.074 538.218 279.364 537.882 279.588C537.555 279.812 537.177 279.952 536.748 280.008L536.706 279.882C537.369 279.882 537.873 280.026 538.218 280.316C538.563 280.596 538.759 281.03 538.806 281.618L539.058 284.474H536.888L536.706 281.954C536.678 281.571 536.557 281.291 536.342 281.114C536.137 280.927 535.782 280.834 535.278 280.834H533.164V284.474H531.036ZM533.164 279.056H535.152C535.665 279.056 536.062 278.939 536.342 278.706C536.631 278.463 536.776 278.122 536.776 277.684C536.776 277.236 536.631 276.9 536.342 276.676C536.053 276.442 535.633 276.326 535.082 276.326H533.164V279.056ZM543.856 284.642C543.091 284.642 542.419 284.483 541.84 284.166C541.271 283.839 540.827 283.382 540.51 282.794C540.202 282.206 540.048 281.515 540.048 280.722C540.048 279.928 540.202 279.242 540.51 278.664C540.827 278.076 541.271 277.618 541.84 277.292C542.419 276.965 543.091 276.802 543.856 276.802C544.621 276.802 545.289 276.965 545.858 277.292C546.427 277.618 546.871 278.076 547.188 278.664C547.505 279.242 547.664 279.928 547.664 280.722C547.664 281.515 547.505 282.206 547.188 282.794C546.871 283.382 546.427 283.839 545.858 284.166C545.289 284.483 544.621 284.642 543.856 284.642ZM543.856 283.032C544.379 283.032 544.78 282.831 545.06 282.43C545.349 282.019 545.494 281.45 545.494 280.722C545.494 279.994 545.349 279.429 545.06 279.028C544.78 278.617 544.379 278.412 543.856 278.412C543.333 278.412 542.927 278.617 542.638 279.028C542.349 279.429 542.204 279.994 542.204 280.722C542.204 281.45 542.349 282.019 542.638 282.43C542.927 282.831 543.333 283.032 543.856 283.032ZM551.027 284.474C550.411 284.474 549.93 284.32 549.585 284.012C549.239 283.704 549.067 283.204 549.067 282.514V274.534H551.167V282.29C551.167 282.514 551.218 282.672 551.321 282.766C551.423 282.859 551.573 282.906 551.769 282.906H552.273V284.474H551.027ZM555.484 284.474C554.868 284.474 554.387 284.32 554.042 284.012C553.696 283.704 553.524 283.204 553.524 282.514V274.534H555.624V282.29C555.624 282.514 555.675 282.672 555.778 282.766C555.88 282.859 556.03 282.906 556.226 282.906H556.73V284.474H555.484ZM561.438 284.642C560.673 284.642 560.001 284.483 559.422 284.166C558.853 283.839 558.409 283.382 558.092 282.794C557.784 282.206 557.63 281.515 557.63 280.722C557.63 279.928 557.784 279.242 558.092 278.664C558.409 278.076 558.853 277.618 559.422 277.292C560.001 276.965 560.673 276.802 561.438 276.802C562.203 276.802 562.871 276.965 563.44 277.292C564.009 277.618 564.453 278.076 564.77 278.664C565.087 279.242 565.246 279.928 565.246 280.722C565.246 281.515 565.087 282.206 564.77 282.794C564.453 283.382 564.009 283.839 563.44 284.166C562.871 284.483 562.203 284.642 561.438 284.642ZM561.438 283.032C561.961 283.032 562.362 282.831 562.642 282.43C562.931 282.019 563.076 281.45 563.076 280.722C563.076 279.994 562.931 279.429 562.642 279.028C562.362 278.617 561.961 278.412 561.438 278.412C560.915 278.412 560.509 278.617 560.22 279.028C559.931 279.429 559.786 279.994 559.786 280.722C559.786 281.45 559.931 282.019 560.22 282.43C560.509 282.831 560.915 283.032 561.438 283.032ZM569.017 284.642C568.242 284.642 567.636 284.394 567.197 283.9C566.768 283.396 566.553 282.696 566.553 281.8V276.97H568.653V281.31C568.653 281.888 568.742 282.313 568.919 282.584C569.096 282.845 569.376 282.976 569.759 282.976C570.188 282.976 570.52 282.831 570.753 282.542C570.996 282.243 571.117 281.8 571.117 281.212V276.97H573.217V284.474H571.299L571.243 282.318L571.509 282.374C571.397 283.12 571.131 283.685 570.711 284.068C570.291 284.45 569.726 284.642 569.017 284.642ZM578.028 284.474C577.253 284.474 576.684 284.296 576.32 283.942C575.956 283.578 575.774 283.004 575.774 282.22V275.206H577.874V281.968C577.874 282.332 577.949 282.579 578.098 282.71C578.257 282.84 578.49 282.906 578.798 282.906H579.848V284.474H578.028ZM574.57 278.538V276.97H579.848V278.538H574.57ZM584.479 284.474V274.534H588.455C589.65 274.534 590.583 274.823 591.255 275.402C591.937 275.98 592.277 276.774 592.277 277.782C592.277 278.444 592.123 279.023 591.815 279.518C591.517 280.003 591.078 280.381 590.499 280.652C589.93 280.913 589.249 281.044 588.455 281.044H586.607V284.474H584.479ZM586.607 279.252H588.329C588.889 279.252 589.323 279.13 589.631 278.888C589.939 278.636 590.093 278.267 590.093 277.782C590.093 277.306 589.939 276.946 589.631 276.704C589.333 276.452 588.899 276.326 588.329 276.326H586.607V279.252ZM595.734 284.474C595.118 284.474 594.637 284.32 594.292 284.012C593.946 283.704 593.774 283.204 593.774 282.514V274.534H595.874V282.29C595.874 282.514 595.925 282.672 596.028 282.766C596.13 282.859 596.28 282.906 596.476 282.906H596.98V284.474H595.734ZM600.594 284.642C599.81 284.642 599.175 284.464 598.69 284.11C598.205 283.746 597.962 283.242 597.962 282.598C597.962 281.935 598.167 281.426 598.578 281.072C598.998 280.708 599.614 280.442 600.426 280.274L602.848 279.798C602.848 279.312 602.736 278.948 602.512 278.706C602.297 278.454 601.98 278.328 601.56 278.328C601.168 278.328 600.86 278.421 600.636 278.608C600.412 278.785 600.263 279.051 600.188 279.406L598.088 279.308C598.228 278.486 598.597 277.866 599.194 277.446C599.801 277.016 600.589 276.802 601.56 276.802C602.68 276.802 603.525 277.068 604.094 277.6C604.663 278.132 604.948 278.911 604.948 279.938V282.5C604.948 282.714 604.981 282.859 605.046 282.934C605.121 282.999 605.228 283.032 605.368 283.032H605.578V284.474C605.513 284.492 605.405 284.511 605.256 284.53C605.116 284.548 604.971 284.558 604.822 284.558C604.533 284.558 604.257 284.506 603.996 284.404C603.735 284.301 603.525 284.128 603.366 283.886C603.217 283.634 603.142 283.279 603.142 282.822L603.324 282.962C603.231 283.298 603.063 283.592 602.82 283.844C602.587 284.096 602.279 284.292 601.896 284.432C601.523 284.572 601.089 284.642 600.594 284.642ZM601.098 283.2C601.443 283.2 601.747 283.134 602.008 283.004C602.269 282.864 602.475 282.663 602.624 282.402C602.773 282.14 602.848 281.832 602.848 281.478V281.114L601.14 281.478C600.795 281.543 600.538 281.655 600.37 281.814C600.202 281.963 600.118 282.159 600.118 282.402C600.118 282.654 600.202 282.85 600.37 282.99C600.538 283.13 600.781 283.2 601.098 283.2ZM606.858 284.474V276.97H608.748L608.832 279.168L608.566 279.098C608.64 278.538 608.79 278.09 609.014 277.754C609.247 277.418 609.536 277.175 609.882 277.026C610.227 276.876 610.605 276.802 611.016 276.802C611.557 276.802 612.014 276.918 612.388 277.152C612.77 277.385 613.06 277.716 613.256 278.146C613.461 278.566 613.564 279.065 613.564 279.644V284.474H611.464V280.344C611.464 279.942 611.431 279.602 611.366 279.322C611.3 279.042 611.184 278.832 611.016 278.692C610.848 278.542 610.614 278.468 610.316 278.468C609.877 278.468 609.541 278.631 609.308 278.958C609.074 279.275 608.958 279.737 608.958 280.344V284.474H606.858ZM618.458 284.642C617.684 284.642 617.035 284.534 616.512 284.32C615.999 284.096 615.602 283.797 615.322 283.424C615.052 283.041 614.898 282.602 614.86 282.108L616.988 282.038C617.054 282.392 617.203 282.668 617.436 282.864C617.67 283.06 618.015 283.158 618.472 283.158C618.846 283.158 619.135 283.097 619.34 282.976C619.555 282.854 619.662 282.668 619.662 282.416C619.662 282.257 619.62 282.126 619.536 282.024C619.462 281.912 619.317 281.818 619.102 281.744C618.888 281.66 618.566 281.585 618.136 281.52C617.343 281.38 616.722 281.216 616.274 281.03C615.826 280.843 615.509 280.6 615.322 280.302C615.136 280.003 615.042 279.639 615.042 279.21C615.042 278.491 615.318 277.912 615.868 277.474C616.428 277.026 617.264 276.802 618.374 276.802C619.084 276.802 619.676 276.914 620.152 277.138C620.638 277.362 621.011 277.67 621.272 278.062C621.543 278.444 621.706 278.883 621.762 279.378L619.662 279.462C619.625 279.219 619.55 279.014 619.438 278.846C619.326 278.668 619.177 278.533 618.99 278.44C618.813 278.337 618.598 278.286 618.346 278.286C617.982 278.286 617.698 278.365 617.492 278.524C617.296 278.673 617.198 278.874 617.198 279.126C617.198 279.312 617.24 279.466 617.324 279.588C617.418 279.7 617.567 279.793 617.772 279.868C617.978 279.942 618.253 280.003 618.598 280.05C619.401 280.162 620.036 280.32 620.502 280.526C620.978 280.722 621.314 280.969 621.51 281.268C621.716 281.566 621.818 281.935 621.818 282.374C621.818 282.859 621.678 283.27 621.398 283.606C621.128 283.942 620.74 284.198 620.236 284.376C619.742 284.553 619.149 284.642 618.458 284.642Z" fill="#2D2C2F"/>
<rect x="487" y="332.474" width="180" height="64" rx="8" fill="url(#paint3_linear_8_144)" fill-opacity="0.3"/>
<rect x="487" y="332.474" width="180" height="64" rx="8" fill="white" fill-opacity="0.73"/>
<rect x="487.5" y="332.974" width="179" height="63" rx="7.5" stroke="white" stroke-opacity="0.22"/>
<path d="M526.036 360.474V350.534H530.012C531.207 350.534 532.14 350.823 532.812 351.402C533.493 351.98 533.834 352.774 533.834 353.782C533.834 354.444 533.68 355.023 533.372 355.518C533.073 356.003 532.635 356.381 532.056 356.652C531.487 356.913 530.805 357.044 530.012 357.044H528.164V360.474H526.036ZM528.164 355.252H529.886C530.446 355.252 530.88 355.13 531.188 354.888C531.496 354.636 531.65 354.267 531.65 353.782C531.65 353.306 531.496 352.946 531.188 352.704C530.889 352.452 530.455 352.326 529.886 352.326H528.164V355.252ZM538.404 360.642C537.639 360.642 536.971 360.483 536.402 360.166C535.833 359.839 535.394 359.382 535.086 358.794C534.778 358.206 534.624 357.515 534.624 356.722C534.624 355.928 534.778 355.242 535.086 354.664C535.394 354.076 535.828 353.618 536.388 353.292C536.957 352.965 537.625 352.802 538.39 352.802C539.127 352.802 539.771 352.965 540.322 353.292C540.882 353.618 541.311 354.085 541.61 354.692C541.909 355.298 542.058 356.022 542.058 356.862V357.282H536.794C536.822 357.879 536.981 358.322 537.27 358.612C537.569 358.901 537.961 359.046 538.446 359.046C538.801 359.046 539.095 358.971 539.328 358.822C539.571 358.672 539.743 358.444 539.846 358.136L541.96 358.262C541.755 359.008 541.335 359.592 540.7 360.012C540.075 360.432 539.309 360.642 538.404 360.642ZM536.794 355.994H539.916C539.888 355.443 539.734 355.032 539.454 354.762C539.183 354.491 538.829 354.356 538.39 354.356C537.951 354.356 537.587 354.5 537.298 354.79C537.018 355.07 536.85 355.471 536.794 355.994ZM543.41 360.474V352.97H545.398L545.468 355.154L545.314 355.112C545.436 354.356 545.65 353.81 545.958 353.474C546.266 353.138 546.691 352.97 547.232 352.97H547.918V354.706H547.232C546.84 354.706 546.518 354.757 546.266 354.86C546.014 354.962 545.823 355.126 545.692 355.35C545.571 355.574 545.51 355.877 545.51 356.26V360.474H543.41ZM550.047 360.474V352.872C550.047 352.125 550.247 351.551 550.649 351.15C551.05 350.739 551.675 350.534 552.525 350.534H554.121V352.102H552.973C552.683 352.102 552.473 352.176 552.343 352.326C552.212 352.466 552.147 352.68 552.147 352.97V360.474H550.047ZM548.955 354.818V353.25H554.009V354.818H548.955ZM558.516 360.642C557.751 360.642 557.079 360.483 556.5 360.166C555.931 359.839 555.487 359.382 555.17 358.794C554.862 358.206 554.708 357.515 554.708 356.722C554.708 355.928 554.862 355.242 555.17 354.664C555.487 354.076 555.931 353.618 556.5 353.292C557.079 352.965 557.751 352.802 558.516 352.802C559.281 352.802 559.949 352.965 560.518 353.292C561.087 353.618 561.531 354.076 561.848 354.664C562.165 355.242 562.324 355.928 562.324 356.722C562.324 357.515 562.165 358.206 561.848 358.794C561.531 359.382 561.087 359.839 560.518 360.166C559.949 360.483 559.281 360.642 558.516 360.642ZM558.516 359.032C559.039 359.032 559.44 358.831 559.72 358.43C560.009 358.019 560.154 357.45 560.154 356.722C560.154 355.994 560.009 355.429 559.72 355.028C559.44 354.617 559.039 354.412 558.516 354.412C557.993 354.412 557.587 354.617 557.298 355.028C557.009 355.429 556.864 355.994 556.864 356.722C556.864 357.45 557.009 358.019 557.298 358.43C557.587 358.831 557.993 359.032 558.516 359.032ZM563.672 360.474V352.97H565.66L565.73 355.154L565.576 355.112C565.697 354.356 565.912 353.81 566.22 353.474C566.528 353.138 566.953 352.97 567.494 352.97H568.18V354.706H567.494C567.102 354.706 566.78 354.757 566.528 354.86C566.276 354.962 566.085 355.126 565.954 355.35C565.833 355.574 565.772 355.877 565.772 356.26V360.474H563.672ZM569.346 360.474V352.97H571.236L571.306 354.776L571.11 354.692C571.213 354.29 571.367 353.95 571.572 353.67C571.787 353.39 572.043 353.175 572.342 353.026C572.641 352.876 572.967 352.802 573.322 352.802C573.947 352.802 574.451 352.984 574.834 353.348C575.226 353.712 575.478 354.202 575.59 354.818L575.324 354.832C575.408 354.393 575.553 354.024 575.758 353.726C575.973 353.418 576.234 353.189 576.542 353.04C576.85 352.881 577.195 352.802 577.578 352.802C578.101 352.802 578.549 352.909 578.922 353.124C579.295 353.338 579.585 353.66 579.79 354.09C579.995 354.51 580.098 355.028 580.098 355.644V360.474H577.998V356.232C577.998 355.644 577.909 355.205 577.732 354.916C577.555 354.617 577.265 354.468 576.864 354.468C576.612 354.468 576.397 354.538 576.22 354.678C576.043 354.818 575.903 355.023 575.8 355.294C575.707 355.555 575.66 355.877 575.66 356.26V360.474H573.77V356.26C573.77 355.681 573.686 355.238 573.518 354.93C573.35 354.622 573.061 354.468 572.65 354.468C572.398 354.468 572.179 354.538 571.992 354.678C571.815 354.818 571.679 355.023 571.586 355.294C571.493 355.564 571.446 355.886 571.446 356.26V360.474H569.346ZM584.028 360.642C583.244 360.642 582.609 360.464 582.124 360.11C581.638 359.746 581.396 359.242 581.396 358.598C581.396 357.935 581.601 357.426 582.012 357.072C582.432 356.708 583.048 356.442 583.86 356.274L586.282 355.798C586.282 355.312 586.17 354.948 585.946 354.706C585.731 354.454 585.414 354.328 584.994 354.328C584.602 354.328 584.294 354.421 584.07 354.608C583.846 354.785 583.696 355.051 583.622 355.406L581.522 355.308C581.662 354.486 582.03 353.866 582.628 353.446C583.234 353.016 584.023 352.802 584.994 352.802C586.114 352.802 586.958 353.068 587.528 353.6C588.097 354.132 588.382 354.911 588.382 355.938V358.5C588.382 358.714 588.414 358.859 588.48 358.934C588.554 358.999 588.662 359.032 588.802 359.032H589.012V360.474C588.946 360.492 588.839 360.511 588.69 360.53C588.55 360.548 588.405 360.558 588.256 360.558C587.966 360.558 587.691 360.506 587.43 360.404C587.168 360.301 586.958 360.128 586.8 359.886C586.65 359.634 586.576 359.279 586.576 358.822L586.758 358.962C586.664 359.298 586.496 359.592 586.254 359.844C586.02 360.096 585.712 360.292 585.33 360.432C584.956 360.572 584.522 360.642 584.028 360.642ZM584.532 359.2C584.877 359.2 585.18 359.134 585.442 359.004C585.703 358.864 585.908 358.663 586.058 358.402C586.207 358.14 586.282 357.832 586.282 357.478V357.114L584.574 357.478C584.228 357.543 583.972 357.655 583.804 357.814C583.636 357.963 583.552 358.159 583.552 358.402C583.552 358.654 583.636 358.85 583.804 358.99C583.972 359.13 584.214 359.2 584.532 359.2ZM590.291 360.474V352.97H592.181L592.265 355.168L591.999 355.098C592.074 354.538 592.223 354.09 592.447 353.754C592.681 353.418 592.97 353.175 593.315 353.026C593.661 352.876 594.039 352.802 594.449 352.802C594.991 352.802 595.448 352.918 595.821 353.152C596.204 353.385 596.493 353.716 596.689 354.146C596.895 354.566 596.997 355.065 596.997 355.644V360.474H594.897V356.344C594.897 355.942 594.865 355.602 594.799 355.322C594.734 355.042 594.617 354.832 594.449 354.692C594.281 354.542 594.048 354.468 593.749 354.468C593.311 354.468 592.975 354.631 592.741 354.958C592.508 355.275 592.391 355.737 592.391 356.344V360.474H590.291ZM602.102 360.642C601.337 360.642 600.665 360.483 600.086 360.166C599.517 359.839 599.073 359.382 598.756 358.794C598.448 358.206 598.294 357.515 598.294 356.722C598.294 355.928 598.448 355.242 598.756 354.664C599.073 354.076 599.517 353.618 600.086 353.292C600.665 352.965 601.337 352.802 602.102 352.802C602.765 352.802 603.357 352.918 603.88 353.152C604.412 353.385 604.841 353.721 605.168 354.16C605.495 354.598 605.695 355.126 605.77 355.742L603.6 355.84C603.535 355.373 603.367 355.023 603.096 354.79C602.835 354.547 602.503 354.426 602.102 354.426C601.579 354.426 601.173 354.626 600.884 355.028C600.595 355.429 600.45 355.994 600.45 356.722C600.45 357.45 600.595 358.019 600.884 358.43C601.173 358.831 601.579 359.032 602.102 359.032C602.503 359.032 602.839 358.91 603.11 358.668C603.381 358.416 603.544 358.038 603.6 357.534L605.77 357.618C605.695 358.234 605.495 358.77 605.168 359.228C604.851 359.676 604.431 360.026 603.908 360.278C603.385 360.52 602.783 360.642 602.102 360.642ZM610.373 360.642C609.608 360.642 608.94 360.483 608.371 360.166C607.802 359.839 607.363 359.382 607.055 358.794C606.747 358.206 606.593 357.515 606.593 356.722C606.593 355.928 606.747 355.242 607.055 354.664C607.363 354.076 607.797 353.618 608.357 353.292C608.926 352.965 609.594 352.802 610.359 352.802C611.096 352.802 611.74 352.965 612.291 353.292C612.851 353.618 613.28 354.085 613.579 354.692C613.878 355.298 614.027 356.022 614.027 356.862V357.282H608.763C608.791 357.879 608.95 358.322 609.239 358.612C609.538 358.901 609.93 359.046 610.415 359.046C610.77 359.046 611.064 358.971 611.297 358.822C611.54 358.672 611.712 358.444 611.815 358.136L613.929 358.262C613.724 359.008 613.304 359.592 612.669 360.012C612.044 360.432 611.278 360.642 610.373 360.642ZM608.763 355.994H611.885C611.857 355.443 611.703 355.032 611.423 354.762C611.152 354.491 610.798 354.356 610.359 354.356C609.92 354.356 609.556 354.5 609.267 354.79C608.987 355.07 608.819 355.471 608.763 355.994ZM621.824 360.698C620.666 360.698 619.784 360.469 619.178 360.012C618.571 359.545 618.268 358.882 618.268 358.024C618.268 357.594 618.333 357.212 618.464 356.876C618.604 356.54 618.828 356.222 619.136 355.924C619.444 355.625 619.845 355.326 620.34 355.028C620.125 354.794 619.938 354.566 619.78 354.342C619.63 354.108 619.514 353.875 619.43 353.642C619.346 353.399 619.304 353.133 619.304 352.844C619.304 352.069 619.56 351.453 620.074 350.996C620.596 350.538 621.343 350.31 622.314 350.31C622.976 350.31 623.532 350.412 623.98 350.618C624.428 350.823 624.764 351.108 624.988 351.472C625.212 351.826 625.324 352.232 625.324 352.69C625.324 353.278 625.146 353.777 624.792 354.188C624.446 354.589 623.91 354.995 623.182 355.406L624.75 357.366C624.983 357.02 625.104 356.526 625.114 355.882L627.242 356.092C627.204 356.624 627.088 357.137 626.892 357.632C626.696 358.126 626.439 358.551 626.122 358.906L627.48 360.474H625.002L624.638 360.04C624.339 360.236 623.942 360.394 623.448 360.516C622.962 360.637 622.421 360.698 621.824 360.698ZM621.992 358.878C622.3 358.878 622.556 358.845 622.762 358.78C622.976 358.714 623.144 358.635 623.266 358.542L621.446 356.302C621.1 356.526 620.848 356.754 620.69 356.988C620.531 357.221 620.452 357.487 620.452 357.786C620.452 358.112 620.582 358.378 620.844 358.584C621.114 358.78 621.497 358.878 621.992 358.878ZM622.104 354.174C622.356 354.034 622.556 353.898 622.706 353.768C622.864 353.628 622.981 353.488 623.056 353.348C623.13 353.208 623.168 353.049 623.168 352.872C623.168 352.629 623.093 352.442 622.944 352.312C622.804 352.172 622.608 352.102 622.356 352.102C622.076 352.102 621.856 352.176 621.698 352.326C621.548 352.475 621.474 352.676 621.474 352.928C621.474 353.058 621.492 353.189 621.53 353.32C621.567 353.441 621.632 353.572 621.726 353.712C621.828 353.852 621.954 354.006 622.104 354.174ZM526.036 378.474V368.534H529.9C531.132 368.534 532.075 368.753 532.728 369.192C533.381 369.621 533.708 370.302 533.708 371.236C533.708 371.646 533.624 372.006 533.456 372.314C533.288 372.612 533.041 372.85 532.714 373.028C532.397 373.205 532.009 373.312 531.552 373.35V373.322C532.383 373.378 533.017 373.62 533.456 374.05C533.904 374.47 534.128 375.03 534.128 375.73C534.128 376.654 533.801 377.344 533.148 377.802C532.504 378.25 531.58 378.474 530.376 378.474H526.036ZM528.164 376.738H530.278C530.791 376.738 531.202 376.635 531.51 376.43C531.827 376.215 531.986 375.898 531.986 375.478C531.986 375.058 531.827 374.74 531.51 374.526C531.202 374.302 530.791 374.19 530.278 374.19H528.164V376.738ZM528.164 372.65H529.844C530.367 372.65 530.782 372.547 531.09 372.342C531.407 372.136 531.566 371.842 531.566 371.46C531.566 371.049 531.412 370.75 531.104 370.564C530.805 370.368 530.385 370.27 529.844 370.27H528.164V372.65ZM539.17 378.642C538.404 378.642 537.737 378.483 537.168 378.166C536.598 377.839 536.16 377.382 535.852 376.794C535.544 376.206 535.39 375.515 535.39 374.722C535.39 373.928 535.544 373.242 535.852 372.664C536.16 372.076 536.594 371.618 537.154 371.292C537.723 370.965 538.39 370.802 539.156 370.802C539.893 370.802 540.537 370.965 541.088 371.292C541.648 371.618 542.077 372.085 542.376 372.692C542.674 373.298 542.824 374.022 542.824 374.862V375.282H537.56C537.588 375.879 537.746 376.322 538.036 376.612C538.334 376.901 538.726 377.046 539.212 377.046C539.566 377.046 539.86 376.971 540.094 376.822C540.336 376.672 540.509 376.444 540.612 376.136L542.726 376.262C542.52 377.008 542.1 377.592 541.466 378.012C540.84 378.432 540.075 378.642 539.17 378.642ZM537.56 373.994H540.682C540.654 373.443 540.5 373.032 540.22 372.762C539.949 372.491 539.594 372.356 539.156 372.356C538.717 372.356 538.353 372.5 538.064 372.79C537.784 373.07 537.616 373.471 537.56 373.994ZM544.121 378.474V368.534H546.221V372.72H545.941C546.016 372.281 546.161 371.922 546.375 371.642C546.599 371.362 546.875 371.152 547.201 371.012C547.537 370.872 547.901 370.802 548.293 370.802C548.853 370.802 549.32 370.923 549.693 371.166C550.067 371.408 550.347 371.744 550.533 372.174C550.729 372.603 550.827 373.093 550.827 373.644V378.474H548.727V374.148C548.727 373.588 548.639 373.168 548.461 372.888C548.293 372.608 548.004 372.468 547.593 372.468C547.164 372.468 546.828 372.612 546.585 372.902C546.343 373.191 546.221 373.625 546.221 374.204V378.474H544.121ZM554.756 378.642C553.972 378.642 553.337 378.464 552.852 378.11C552.367 377.746 552.124 377.242 552.124 376.598C552.124 375.935 552.329 375.426 552.74 375.072C553.16 374.708 553.776 374.442 554.588 374.274L557.01 373.798C557.01 373.312 556.898 372.948 556.674 372.706C556.459 372.454 556.142 372.328 555.722 372.328C555.33 372.328 555.022 372.421 554.798 372.608C554.574 372.785 554.425 373.051 554.35 373.406L552.25 373.308C552.39 372.486 552.759 371.866 553.356 371.446C553.963 371.016 554.751 370.802 555.722 370.802C556.842 370.802 557.687 371.068 558.256 371.6C558.825 372.132 559.11 372.911 559.11 373.938V376.5C559.11 376.714 559.143 376.859 559.208 376.934C559.283 376.999 559.39 377.032 559.53 377.032H559.74V378.474C559.675 378.492 559.567 378.511 559.418 378.53C559.278 378.548 559.133 378.558 558.984 378.558C558.695 378.558 558.419 378.506 558.158 378.404C557.897 378.301 557.687 378.128 557.528 377.886C557.379 377.634 557.304 377.279 557.304 376.822L557.486 376.962C557.393 377.298 557.225 377.592 556.982 377.844C556.749 378.096 556.441 378.292 556.058 378.432C555.685 378.572 555.251 378.642 554.756 378.642ZM555.26 377.2C555.605 377.2 555.909 377.134 556.17 377.004C556.431 376.864 556.637 376.663 556.786 376.402C556.935 376.14 557.01 375.832 557.01 375.478V375.114L555.302 375.478C554.957 375.543 554.7 375.655 554.532 375.814C554.364 375.963 554.28 376.159 554.28 376.402C554.28 376.654 554.364 376.85 554.532 376.99C554.7 377.13 554.943 377.2 555.26 377.2ZM562.669 378.474L559.925 370.97H562.123L563.901 376.36L565.679 370.97H567.863L565.119 378.474H562.669ZM569.086 378.474V370.97H571.186V378.474H569.086ZM569.044 370.046V368.366H571.214V370.046H569.044ZM576.399 378.642C575.634 378.642 574.962 378.483 574.383 378.166C573.814 377.839 573.37 377.382 573.053 376.794C572.745 376.206 572.591 375.515 572.591 374.722C572.591 373.928 572.745 373.242 573.053 372.664C573.37 372.076 573.814 371.618 574.383 371.292C574.962 370.965 575.634 370.802 576.399 370.802C577.164 370.802 577.832 370.965 578.401 371.292C578.97 371.618 579.414 372.076 579.731 372.664C580.048 373.242 580.207 373.928 580.207 374.722C580.207 375.515 580.048 376.206 579.731 376.794C579.414 377.382 578.97 377.839 578.401 378.166C577.832 378.483 577.164 378.642 576.399 378.642ZM576.399 377.032C576.922 377.032 577.323 376.831 577.603 376.43C577.892 376.019 578.037 375.45 578.037 374.722C578.037 373.994 577.892 373.429 577.603 373.028C577.323 372.617 576.922 372.412 576.399 372.412C575.876 372.412 575.47 372.617 575.181 373.028C574.892 373.429 574.747 373.994 574.747 374.722C574.747 375.45 574.892 376.019 575.181 376.43C575.47 376.831 575.876 377.032 576.399 377.032ZM581.555 378.474V370.97H583.543L583.613 373.154L583.459 373.112C583.58 372.356 583.795 371.81 584.103 371.474C584.411 371.138 584.836 370.97 585.377 370.97H586.063V372.706H585.377C584.985 372.706 584.663 372.757 584.411 372.86C584.159 372.962 583.968 373.126 583.837 373.35C583.716 373.574 583.655 373.877 583.655 374.26V378.474H581.555ZM589.483 378.642C588.699 378.642 588.064 378.464 587.579 378.11C587.093 377.746 586.851 377.242 586.851 376.598C586.851 375.935 587.056 375.426 587.467 375.072C587.887 374.708 588.503 374.442 589.315 374.274L591.737 373.798C591.737 373.312 591.625 372.948 591.401 372.706C591.186 372.454 590.869 372.328 590.449 372.328C590.057 372.328 589.749 372.421 589.525 372.608C589.301 372.785 589.151 373.051 589.077 373.406L586.977 373.308C587.117 372.486 587.485 371.866 588.083 371.446C588.689 371.016 589.478 370.802 590.449 370.802C591.569 370.802 592.413 371.068 592.983 371.6C593.552 372.132 593.837 372.911 593.837 373.938V376.5C593.837 376.714 593.869 376.859 593.935 376.934C594.009 376.999 594.117 377.032 594.257 377.032H594.467V378.474C594.401 378.492 594.294 378.511 594.145 378.53C594.005 378.548 593.86 378.558 593.711 378.558C593.421 378.558 593.146 378.506 592.885 378.404C592.623 378.301 592.413 378.128 592.255 377.886C592.105 377.634 592.031 377.279 592.031 376.822L592.213 376.962C592.119 377.298 591.951 377.592 591.709 377.844C591.475 378.096 591.167 378.292 590.785 378.432C590.411 378.572 589.977 378.642 589.483 378.642ZM589.987 377.2C590.332 377.2 590.635 377.134 590.897 377.004C591.158 376.864 591.363 376.663 591.513 376.402C591.662 376.14 591.737 375.832 591.737 375.478V375.114L590.029 375.478C589.683 375.543 589.427 375.655 589.259 375.814C589.091 375.963 589.007 376.159 589.007 376.402C589.007 376.654 589.091 376.85 589.259 376.99C589.427 377.13 589.669 377.2 589.987 377.2ZM597.611 378.474C596.995 378.474 596.514 378.32 596.169 378.012C595.823 377.704 595.651 377.204 595.651 376.514V368.534H597.751V376.29C597.751 376.514 597.802 376.672 597.905 376.766C598.007 376.859 598.157 376.906 598.353 376.906H598.857V378.474H597.611ZM603.542 378.474V368.534H606.972C608.587 368.534 609.828 368.968 610.696 369.836C611.564 370.694 611.998 371.922 611.998 373.518C611.998 375.104 611.569 376.327 610.71 377.186C609.861 378.044 608.643 378.474 607.056 378.474H603.542ZM605.67 376.682H606.972C607.933 376.682 608.643 376.425 609.1 375.912C609.567 375.389 609.8 374.586 609.8 373.504C609.8 372.421 609.567 371.623 609.1 371.11C608.643 370.587 607.933 370.326 606.972 370.326H605.67V376.682ZM615.733 378.642C614.949 378.642 614.314 378.464 613.829 378.11C613.343 377.746 613.101 377.242 613.101 376.598C613.101 375.935 613.306 375.426 613.717 375.072C614.137 374.708 614.753 374.442 615.565 374.274L617.987 373.798C617.987 373.312 617.875 372.948 617.651 372.706C617.436 372.454 617.119 372.328 616.699 372.328C616.307 372.328 615.999 372.421 615.775 372.608C615.551 372.785 615.401 373.051 615.327 373.406L613.227 373.308C613.367 372.486 613.735 371.866 614.333 371.446C614.939 371.016 615.728 370.802 616.699 370.802C617.819 370.802 618.663 371.068 619.233 371.6C619.802 372.132 620.087 372.911 620.087 373.938V376.5C620.087 376.714 620.119 376.859 620.185 376.934C620.259 376.999 620.367 377.032 620.507 377.032H620.717V378.474C620.651 378.492 620.544 378.511 620.395 378.53C620.255 378.548 620.11 378.558 619.961 378.558C619.671 378.558 619.396 378.506 619.135 378.404C618.873 378.301 618.663 378.128 618.505 377.886C618.355 377.634 618.281 377.279 618.281 376.822L618.463 376.962C618.369 377.298 618.201 377.592 617.959 377.844C617.725 378.096 617.417 378.292 617.035 378.432C616.661 378.572 616.227 378.642 615.733 378.642ZM616.237 377.2C616.582 377.2 616.885 377.134 617.147 377.004C617.408 376.864 617.613 376.663 617.763 376.402C617.912 376.14 617.987 375.832 617.987 375.478V375.114L616.279 375.478C615.933 375.543 615.677 375.655 615.509 375.814C615.341 375.963 615.257 376.159 615.257 376.402C615.257 376.654 615.341 376.85 615.509 376.99C615.677 377.13 615.919 377.2 616.237 377.2ZM624.571 378.474C623.796 378.474 623.227 378.296 622.863 377.942C622.499 377.578 622.317 377.004 622.317 376.22V369.206H624.417V375.968C624.417 376.332 624.492 376.579 624.641 376.71C624.8 376.84 625.033 376.906 625.341 376.906H626.391V378.474H624.571ZM621.113 372.538V370.97H626.391V372.538H621.113ZM629.979 378.642C629.195 378.642 628.56 378.464 628.075 378.11C627.589 377.746 627.347 377.242 627.347 376.598C627.347 375.935 627.552 375.426 627.963 375.072C628.383 374.708 628.999 374.442 629.811 374.274L632.233 373.798C632.233 373.312 632.121 372.948 631.897 372.706C631.682 372.454 631.365 372.328 630.945 372.328C630.553 372.328 630.245 372.421 630.021 372.608C629.797 372.785 629.647 373.051 629.573 373.406L627.473 373.308C627.613 372.486 627.981 371.866 628.579 371.446C629.185 371.016 629.974 370.802 630.945 370.802C632.065 370.802 632.909 371.068 633.479 371.6C634.048 372.132 634.333 372.911 634.333 373.938V376.5C634.333 376.714 634.365 376.859 634.431 376.934C634.505 376.999 634.613 377.032 634.753 377.032H634.963V378.474C634.897 378.492 634.79 378.511 634.641 378.53C634.501 378.548 634.356 378.558 634.207 378.558C633.917 378.558 633.642 378.506 633.381 378.404C633.119 378.301 632.909 378.128 632.751 377.886C632.601 377.634 632.527 377.279 632.527 376.822L632.709 376.962C632.615 377.298 632.447 377.592 632.205 377.844C631.971 378.096 631.663 378.292 631.281 378.432C630.907 378.572 630.473 378.642 629.979 378.642ZM630.483 377.2C630.828 377.2 631.131 377.134 631.393 377.004C631.654 376.864 631.859 376.663 632.009 376.402C632.158 376.14 632.233 375.832 632.233 375.478V375.114L630.525 375.478C630.179 375.543 629.923 375.655 629.755 375.814C629.587 375.963 629.503 376.159 629.503 376.402C629.503 376.654 629.587 376.85 629.755 376.99C629.923 377.13 630.165 377.2 630.483 377.2Z" fill="#2D2C2F"/>
<rect x="276" y="169.053" width="173" height="250" rx="8" fill="url(#paint4_linear_8_144)" fill-opacity="0.3"/>
<rect x="276" y="169.053" width="173" height="250" rx="8" fill="white" fill-opacity="0.73"/>
<rect x="276.5" y="169.553" width="172" height="249" rx="7.5" stroke="white" stroke-opacity="0.22"/>
<g filter="url(#filter2_dd_8_144)">
<rect x="284" y="365.053" width="156" height="46" rx="8" fill="url(#paint5_linear_8_144)"/>
<path d="M348.06 395.373C346.847 395.373 345.8 395.166 344.92 394.753C344.04 394.339 343.353 393.759 342.86 393.013C342.367 392.266 342.087 391.386 342.02 390.373L345.08 390.233C345.147 390.793 345.307 391.273 345.56 391.673C345.813 392.059 346.147 392.353 346.56 392.553C346.987 392.753 347.5 392.853 348.1 392.853C348.607 392.853 349.033 392.793 349.38 392.673C349.74 392.553 350.013 392.373 350.2 392.133C350.387 391.879 350.48 391.573 350.48 391.213C350.48 390.879 350.4 390.593 350.24 390.353C350.093 390.099 349.793 389.873 349.34 389.673C348.887 389.459 348.213 389.253 347.32 389.053C346.107 388.773 345.133 388.459 344.4 388.113C343.667 387.766 343.127 387.333 342.78 386.813C342.447 386.279 342.28 385.613 342.28 384.813C342.28 383.959 342.493 383.213 342.92 382.573C343.347 381.933 343.953 381.433 344.74 381.073C345.54 380.713 346.493 380.533 347.6 380.533C348.787 380.533 349.78 380.739 350.58 381.153C351.393 381.566 352.027 382.133 352.48 382.853C352.947 383.573 353.233 384.399 353.34 385.333L350.3 385.493C350.247 384.999 350.107 384.573 349.88 384.213C349.653 383.839 349.347 383.553 348.96 383.353C348.573 383.153 348.107 383.053 347.56 383.053C346.88 383.053 346.34 383.206 345.94 383.513C345.553 383.819 345.36 384.219 345.36 384.713C345.36 385.059 345.447 385.353 345.62 385.593C345.793 385.819 346.093 386.019 346.52 386.193C346.947 386.366 347.547 386.533 348.32 386.693C349.627 386.959 350.66 387.299 351.42 387.713C352.193 388.113 352.74 388.593 353.06 389.153C353.393 389.713 353.56 390.353 353.56 391.073C353.56 391.953 353.333 392.719 352.88 393.373C352.44 394.013 351.807 394.506 350.98 394.853C350.167 395.199 349.193 395.373 348.06 395.373ZM355.625 395.053V380.853H360.525C362.831 380.853 364.605 381.473 365.845 382.713C367.085 383.939 367.705 385.693 367.705 387.973C367.705 390.239 367.091 391.986 365.865 393.213C364.651 394.439 362.911 395.053 360.645 395.053H355.625ZM358.665 392.493H360.525C361.898 392.493 362.911 392.126 363.565 391.393C364.231 390.646 364.565 389.499 364.565 387.953C364.565 386.406 364.231 385.266 363.565 384.533C362.911 383.786 361.898 383.413 360.525 383.413H358.665V392.493ZM369.707 395.053V380.853H372.747V387.053L377.907 380.853H381.447L376.227 387.113L381.767 395.053H378.307L374.227 389.153L372.747 390.873V395.053H369.707Z" fill="white"/>
</g>
<g opacity="0.56" filter="url(#filter3_dd_8_144)">
<rect x="284" y="177.053" width="156" height="121" rx="8" fill="white"/>
</g>
<path opacity="0.51" fill-rule="evenodd" clip-rule="evenodd" d="M336.5 208.329C320.36 208.329 307.277 221.413 307.277 237.553C307.277 249.592 314.556 259.93 324.953 264.407V221.862C324.954 221.17 325.133 220.487 325.474 219.885C325.815 219.282 326.306 218.778 326.899 218.421C327.492 218.064 328.167 217.866 328.859 217.846C329.552 217.827 330.237 217.986 330.849 218.309L351.767 229.38C352.4 229.714 352.933 230.211 353.31 230.82C353.687 231.429 353.894 232.127 353.911 232.843C353.927 233.559 353.752 234.266 353.403 234.892C353.055 235.517 352.546 236.038 351.929 236.401L329.23 249.752V265.865C331.554 266.46 333.99 266.776 336.5 266.776C352.64 266.776 365.723 253.693 365.723 237.553C365.723 221.413 352.64 208.329 336.5 208.329ZM329.23 244.791L349.365 232.947L329.23 222.291V244.791ZM303 237.553C303 219.051 317.998 204.053 336.5 204.053C355.002 204.053 370 219.051 370 237.553C370 256.055 355.002 271.053 336.5 271.053C317.998 271.053 303 256.055 303 237.553Z" fill="url(#paint6_linear_8_144)"/>
<circle cx="406" cy="213.053" r="22" fill="#DDDDDD"/>
<circle cx="406" cy="263.053" r="22" fill="#02D8C2"/>
<path d="M399.5 220.053L404.62 205.853H408.22L413.34 220.053H410.18L409.14 217.033H403.68L402.64 220.053H399.5ZM404.54 214.533H408.3L406.42 209.053L404.54 214.533Z" fill="black" fill-opacity="0.26"/>
<path d="M400.48 270.053V255.853H406C407.76 255.853 409.107 256.166 410.04 256.793C410.973 257.406 411.44 258.379 411.44 259.713C411.44 260.299 411.32 260.813 411.08 261.253C410.84 261.679 410.487 262.019 410.02 262.273C409.567 262.526 409.013 262.679 408.36 262.733V262.693C409.547 262.773 410.453 263.119 411.08 263.733C411.72 264.333 412.04 265.133 412.04 266.133C412.04 267.453 411.573 268.439 410.64 269.093C409.72 269.733 408.4 270.053 406.68 270.053H400.48ZM403.52 267.573H406.54C407.273 267.573 407.86 267.426 408.3 267.133C408.753 266.826 408.98 266.373 408.98 265.773C408.98 265.173 408.753 264.719 408.3 264.413C407.86 264.093 407.273 263.933 406.54 263.933H403.52V267.573ZM403.52 261.733H405.92C406.667 261.733 407.26 261.586 407.7 261.293C408.153 260.999 408.38 260.579 408.38 260.033C408.38 259.446 408.16 259.019 407.72 258.753C407.293 258.473 406.693 258.333 405.92 258.333H403.52V261.733Z" fill="black"/>
<path d="M414 299.053L402.453 319.053L425.547 319.053L414 299.053ZM412 307.303L412 312.803L416 312.803L416 307.303L412 307.303ZM412 318.303L412 323.803L416 323.803L416 318.303L412 318.303ZM412 329.303L412 334.803L416 334.803L416 329.303L412 329.303ZM412 340.303L412 345.803L416 345.803L416 340.303L412 340.303ZM412 351.303L412 356.803L416 356.803L416 351.303L412 351.303ZM412 362.303L412 365.053L416 365.053L416 362.303L412 362.303Z" fill="#B16DDF"/>
<path d="M312 365.053L323.547 345.053L300.453 345.053L312 365.053ZM310 299.053L310 301.803L314 301.803L314 299.053L310 299.053ZM310 307.303L310 312.803L314 312.803L314 307.303L310 307.303ZM310 318.303L310 323.803L314 323.803L314 318.303L310 318.303ZM310 329.303L310 334.803L314 334.803L314 329.303L310 329.303ZM310 340.303L310 345.803L314 345.803L314 340.303L310 340.303ZM310 351.303L310 356.803L314 356.803L314 351.303L310 351.303Z" fill="#B16DDF"/>
<path d="M353.342 344.682C352.588 344.682 351.951 344.569 351.431 344.344C350.911 344.118 350.508 343.798 350.222 343.382C349.936 342.966 349.771 342.48 349.728 341.926L351.73 341.835C351.808 342.233 351.981 342.532 352.25 342.732C352.527 342.922 352.891 343.018 353.342 343.018C353.845 343.018 354.239 342.875 354.525 342.589C354.82 342.303 354.967 341.908 354.967 341.406C354.967 341.076 354.898 340.79 354.759 340.548C354.629 340.305 354.443 340.114 354.2 339.976C353.957 339.837 353.667 339.768 353.329 339.768C352.956 339.768 352.636 339.85 352.367 340.015C352.098 340.179 351.912 340.387 351.808 340.639H349.832L350.469 335.244H356.358V336.908H352.146L351.808 339.599L351.587 339.404C351.734 339.178 351.916 338.988 352.133 338.832C352.358 338.667 352.618 338.541 352.913 338.455C353.208 338.359 353.533 338.312 353.888 338.312C354.529 338.312 355.08 338.446 355.539 338.715C356.007 338.983 356.367 339.352 356.618 339.82C356.869 340.288 356.995 340.816 356.995 341.406C356.995 342.073 356.843 342.654 356.54 343.148C356.237 343.642 355.812 344.023 355.266 344.292C354.72 344.552 354.079 344.682 353.342 344.682ZM358.58 344.474V337.506H360.335L360.4 339.183L360.218 339.105C360.313 338.732 360.456 338.416 360.647 338.156C360.846 337.896 361.084 337.696 361.362 337.558C361.639 337.419 361.942 337.35 362.272 337.35C362.852 337.35 363.32 337.519 363.676 337.857C364.04 338.195 364.274 338.65 364.378 339.222L364.131 339.235C364.209 338.827 364.343 338.485 364.534 338.208C364.733 337.922 364.976 337.709 365.262 337.571C365.548 337.423 365.868 337.35 366.224 337.35C366.709 337.35 367.125 337.449 367.472 337.649C367.818 337.848 368.087 338.147 368.278 338.546C368.468 338.936 368.564 339.417 368.564 339.989V344.474H366.614V340.535C366.614 339.989 366.531 339.581 366.367 339.313C366.202 339.035 365.933 338.897 365.561 338.897C365.327 338.897 365.127 338.962 364.963 339.092C364.798 339.222 364.668 339.412 364.573 339.664C364.486 339.906 364.443 340.205 364.443 340.561V344.474H362.688V340.561C362.688 340.023 362.61 339.612 362.454 339.326C362.298 339.04 362.029 338.897 361.648 338.897C361.414 338.897 361.21 338.962 361.037 339.092C360.872 339.222 360.746 339.412 360.66 339.664C360.573 339.915 360.53 340.214 360.53 340.561V344.474H358.58ZM373.11 344.63C372.39 344.63 371.788 344.53 371.303 344.331C370.826 344.123 370.458 343.845 370.198 343.499C369.946 343.143 369.803 342.736 369.769 342.277L371.745 342.212C371.805 342.541 371.944 342.797 372.161 342.979C372.377 343.161 372.698 343.252 373.123 343.252C373.469 343.252 373.738 343.195 373.929 343.083C374.128 342.97 374.228 342.797 374.228 342.563C374.228 342.415 374.189 342.294 374.111 342.199C374.041 342.095 373.907 342.008 373.708 341.939C373.508 341.861 373.209 341.791 372.811 341.731C372.074 341.601 371.498 341.449 371.082 341.276C370.666 341.102 370.371 340.877 370.198 340.6C370.024 340.322 369.938 339.984 369.938 339.586C369.938 338.918 370.193 338.381 370.705 337.974C371.225 337.558 372 337.35 373.032 337.35C373.69 337.35 374.241 337.454 374.683 337.662C375.133 337.87 375.48 338.156 375.723 338.52C375.974 338.875 376.126 339.282 376.178 339.742L374.228 339.82C374.193 339.594 374.124 339.404 374.02 339.248C373.916 339.083 373.777 338.957 373.604 338.871C373.439 338.775 373.24 338.728 373.006 338.728C372.668 338.728 372.403 338.801 372.213 338.949C372.031 339.087 371.94 339.274 371.94 339.508C371.94 339.681 371.979 339.824 372.057 339.937C372.143 340.041 372.282 340.127 372.473 340.197C372.663 340.266 372.919 340.322 373.24 340.366C373.985 340.47 374.574 340.617 375.008 340.808C375.45 340.99 375.762 341.219 375.944 341.497C376.134 341.774 376.23 342.116 376.23 342.524C376.23 342.974 376.1 343.356 375.84 343.668C375.588 343.98 375.229 344.218 374.761 344.383C374.301 344.547 373.751 344.63 373.11 344.63Z" fill="#B16DDF"/>
<path d="M368 318.807V320.474M368 330.474V332.14M363 325.474H361.333M374.667 325.474H373M372.719 330.193L371.536 329.01M363.281 330.193L364.465 329.009M363.281 320.807L364.439 321.965" stroke="#B16DDF" stroke-width="1.5" stroke-linecap="round" stroke-linejoin="round"/>
<path d="M372.719 320.807L369 324.474M374.667 325.474C374.667 329.156 371.682 332.14 368 332.14C364.318 332.14 361.333 329.156 361.333 325.474C361.333 321.792 364.318 318.807 368 318.807C371.682 318.807 374.667 321.792 374.667 325.474ZM369.333 325.474C369.333 326.21 368.736 326.807 368 326.807C367.264 326.807 366.667 326.21 366.667 325.474C366.667 324.737 367.264 324.14 368 324.14C368.736 324.14 369.333 324.737 369.333 325.474Z" stroke="#B16DDF" stroke-width="1.25" stroke-linecap="round" stroke-linejoin="round"/>
<line x1="359" y1="320.974" x2="352" y2="320.974" stroke="#B16DDF"/>
<line x1="359" y1="328.974" x2="354" y2="328.974" stroke="#B16DDF"/>
<line x1="359" y1="324.974" x2="348" y2="324.974" stroke="#B16DDF"/>
<path d="M325.82 451.474V445.954L320.9 437.274H324.26L327.36 442.994L330.44 437.274H333.8L328.88 445.954V451.474H325.82ZM338.574 451.714C337.48 451.714 336.52 451.487 335.694 451.034C334.88 450.567 334.247 449.914 333.794 449.074C333.354 448.234 333.134 447.247 333.134 446.114C333.134 444.98 333.354 444 333.794 443.174C334.247 442.334 334.88 441.68 335.694 441.214C336.52 440.747 337.48 440.514 338.574 440.514C339.667 440.514 340.62 440.747 341.434 441.214C342.247 441.68 342.88 442.334 343.334 443.174C343.787 444 344.014 444.98 344.014 446.114C344.014 447.247 343.787 448.234 343.334 449.074C342.88 449.914 342.247 450.567 341.434 451.034C340.62 451.487 339.667 451.714 338.574 451.714ZM338.574 449.414C339.32 449.414 339.894 449.127 340.294 448.554C340.707 447.967 340.914 447.154 340.914 446.114C340.914 445.074 340.707 444.267 340.294 443.694C339.894 443.107 339.32 442.814 338.574 442.814C337.827 442.814 337.247 443.107 336.834 443.694C336.42 444.267 336.214 445.074 336.214 446.114C336.214 447.154 336.42 447.967 336.834 448.554C337.247 449.127 337.827 449.414 338.574 449.414ZM349.401 451.714C348.294 451.714 347.427 451.36 346.801 450.654C346.187 449.934 345.881 448.934 345.881 447.654V440.754H348.881V446.954C348.881 447.78 349.007 448.387 349.261 448.774C349.514 449.147 349.914 449.334 350.461 449.334C351.074 449.334 351.547 449.127 351.881 448.714C352.227 448.287 352.401 447.654 352.401 446.814V440.754H355.401V451.474H352.661L352.581 448.394L352.961 448.474C352.801 449.54 352.421 450.347 351.821 450.894C351.221 451.44 350.414 451.714 349.401 451.714ZM358.029 451.474V440.754H360.869L360.969 443.874L360.749 443.814C360.922 442.734 361.229 441.954 361.669 441.474C362.109 440.994 362.716 440.754 363.489 440.754H364.469V443.234H363.489C362.929 443.234 362.469 443.307 362.109 443.454C361.749 443.6 361.476 443.834 361.289 444.154C361.116 444.474 361.029 444.907 361.029 445.454V451.474H358.029ZM370.275 451.474L375.395 437.274H378.995L384.115 451.474H380.955L379.915 448.454H374.455L373.415 451.474H370.275ZM375.315 445.954H379.075L377.195 440.474L375.315 445.954ZM385.666 454.474V440.754H388.546L388.606 443.014L388.366 442.914C388.632 442.14 389.066 441.547 389.666 441.134C390.266 440.72 390.966 440.514 391.766 440.514C392.766 440.514 393.599 440.76 394.266 441.254C394.932 441.747 395.432 442.42 395.766 443.274C396.112 444.114 396.286 445.06 396.286 446.114C396.286 447.154 396.112 448.1 395.766 448.954C395.432 449.807 394.926 450.48 394.246 450.974C393.579 451.467 392.746 451.714 391.746 451.714C391.226 451.714 390.739 451.62 390.286 451.434C389.832 451.234 389.439 450.96 389.106 450.614C388.786 450.267 388.552 449.854 388.406 449.374L388.666 449.214V454.474H385.666ZM390.926 449.414C391.632 449.414 392.186 449.12 392.586 448.534C392.999 447.947 393.206 447.14 393.206 446.114C393.206 445.087 392.999 444.28 392.586 443.694C392.186 443.107 391.632 442.814 390.926 442.814C390.459 442.814 390.052 442.94 389.706 443.194C389.372 443.434 389.112 443.8 388.926 444.294C388.752 444.787 388.666 445.394 388.666 446.114C388.666 446.834 388.752 447.44 388.926 447.934C389.112 448.427 389.372 448.8 389.706 449.054C390.052 449.294 390.459 449.414 390.926 449.414ZM398.205 454.474V440.754H401.085L401.145 443.014L400.905 442.914C401.171 442.14 401.605 441.547 402.205 441.134C402.805 440.72 403.505 440.514 404.305 440.514C405.305 440.514 406.138 440.76 406.805 441.254C407.471 441.747 407.971 442.42 408.305 443.274C408.651 444.114 408.825 445.06 408.825 446.114C408.825 447.154 408.651 448.1 408.305 448.954C407.971 449.807 407.465 450.48 406.785 450.974C406.118 451.467 405.285 451.714 404.285 451.714C403.765 451.714 403.278 451.62 402.825 451.434C402.371 451.234 401.978 450.96 401.645 450.614C401.325 450.267 401.091 449.854 400.945 449.374L401.205 449.214V454.474H398.205ZM403.465 449.414C404.171 449.414 404.725 449.12 405.125 448.534C405.538 447.947 405.745 447.14 405.745 446.114C405.745 445.087 405.538 444.28 405.125 443.694C404.725 443.107 404.171 442.814 403.465 442.814C402.998 442.814 402.591 442.94 402.245 443.194C401.911 443.434 401.651 443.8 401.465 444.294C401.291 444.787 401.205 445.394 401.205 446.114C401.205 446.834 401.291 447.44 401.465 447.934C401.651 448.427 401.911 448.8 402.245 449.054C402.591 449.294 402.998 449.414 403.465 449.414Z" fill="white"/>
<defs>
<filter id="filter0_dd_8_144" x="748" y="299.053" width="146" height="105" filterUnits="userSpaceOnUse" color-interpolation-filters="sRGB">
<feFlood flood-opacity="0" result="BackgroundImageFix"/>
<feColorMatrix in="SourceAlpha" type="matrix" values="0 0 0 0 0 0 0 0 0 0 0 0 0 0 0 0 0 0 127 0" result="hardAlpha"/>
<feOffset dy="2"/>
<feGaussianBlur stdDeviation="2"/>
<feColorMatrix type="matrix" values="0 0 0 0 0 0 0 0 0 0 0 0 0 0 0 0 0 0 0.32 0"/>
<feBlend mode="normal" in2="BackgroundImageFix" result="effect1_dropShadow_8_144"/>
<feColorMatrix in="SourceAlpha" type="matrix" values="0 0 0 0 0 0 0 0 0 0 0 0 0 0 0 0 0 0 127 0" result="hardAlpha"/>
<feOffset/>
<feGaussianBlur stdDeviation="0.5"/>
<feColorMatrix type="matrix" values="0 0 0 0 0 0 0 0 0 0 0 0 0 0 0 0 0 0 0.04 0"/>
<feBlend mode="normal" in2="effect1_dropShadow_8_144" result="effect2_dropShadow_8_144"/>
<feBlend mode="normal" in="SourceGraphic" in2="effect2_dropShadow_8_144" result="shape"/>
</filter>
<filter id="filter1_dd_8_144" x="902" y="299.053" width="146" height="105" filterUnits="userSpaceOnUse" color-interpolation-filters="sRGB">
<feFlood flood-opacity="0" result="BackgroundImageFix"/>
<feColorMatrix in="SourceAlpha" type="matrix" values="0 0 0 0 0 0 0 0 0 0 0 0 0 0 0 0 0 0 127 0" result="hardAlpha"/>
<feOffset dy="2"/>
<feGaussianBlur stdDeviation="2"/>
<feColorMatrix type="matrix" values="0 0 0 0 0 0 0 0 0 0 0 0 0 0 0 0 0 0 0.32 0"/>
<feBlend mode="normal" in2="BackgroundImageFix" result="effect1_dropShadow_8_144"/>
<feColorMatrix in="SourceAlpha" type="matrix" values="0 0 0 0 0 0 0 0 0 0 0 0 0 0 0 0 0 0 127 0" result="hardAlpha"/>
<feOffset/>
<feGaussianBlur stdDeviation="0.5"/>
<feColorMatrix type="matrix" values="0 0 0 0 0 0 0 0 0 0 0 0 0 0 0 0 0 0 0.04 0"/>
<feBlend mode="normal" in2="effect1_dropShadow_8_144" result="effect2_dropShadow_8_144"/>
<feBlend mode="normal" in="SourceGraphic" in2="effect2_dropShadow_8_144" result="shape"/>
</filter>
<filter id="filter2_dd_8_144" x="280" y="363.053" width="164" height="54" filterUnits="userSpaceOnUse" color-interpolation-filters="sRGB">
<feFlood flood-opacity="0" result="BackgroundImageFix"/>
<feColorMatrix in="SourceAlpha" type="matrix" values="0 0 0 0 0 0 0 0 0 0 0 0 0 0 0 0 0 0 127 0" result="hardAlpha"/>
<feOffset dy="2"/>
<feGaussianBlur stdDeviation="2"/>
<feColorMatrix type="matrix" values="0 0 0 0 0 0 0 0 0 0 0 0 0 0 0 0 0 0 0.32 0"/>
<feBlend mode="normal" in2="BackgroundImageFix" result="effect1_dropShadow_8_144"/>
<feColorMatrix in="SourceAlpha" type="matrix" values="0 0 0 0 0 0 0 0 0 0 0 0 0 0 0 0 0 0 127 0" result="hardAlpha"/>
<feOffset/>
<feGaussianBlur stdDeviation="0.5"/>
<feColorMatrix type="matrix" values="0 0 0 0 0 0 0 0 0 0 0 0 0 0 0 0 0 0 0.04 0"/>
<feBlend mode="normal" in2="effect1_dropShadow_8_144" result="effect2_dropShadow_8_144"/>
<feBlend mode="normal" in="SourceGraphic" in2="effect2_dropShadow_8_144" result="shape"/>
</filter>
<filter id="filter3_dd_8_144" x="280" y="175.053" width="164" height="129" filterUnits="userSpaceOnUse" color-interpolation-filters="sRGB">
<feFlood flood-opacity="0" result="BackgroundImageFix"/>
<feColorMatrix in="SourceAlpha" type="matrix" values="0 0 0 0 0 0 0 0 0 0 0 0 0 0 0 0 0 0 127 0" result="hardAlpha"/>
<feOffset dy="2"/>
<feGaussianBlur stdDeviation="2"/>
<feColorMatrix type="matrix" values="0 0 0 0 0 0 0 0 0 0 0 0 0 0 0 0 0 0 0.32 0"/>
<feBlend mode="normal" in2="BackgroundImageFix" result="effect1_dropShadow_8_144"/>
<feColorMatrix in="SourceAlpha" type="matrix" values="0 0 0 0 0 0 0 0 0 0 0 0 0 0 0 0 0 0 127 0" result="hardAlpha"/>
<feOffset/>
<feGaussianBlur stdDeviation="0.5"/>
<feColorMatrix type="matrix" values="0 0 0 0 0 0 0 0 0 0 0 0 0 0 0 0 0 0 0.04 0"/>
<feBlend mode="normal" in2="effect1_dropShadow_8_144" result="effect2_dropShadow_8_144"/>
<feBlend mode="normal" in="SourceGraphic" in2="effect2_dropShadow_8_144" result="shape"/>
</filter>
<radialGradient id="paint0_radial_8_144" cx="0" cy="0" r="1" gradientUnits="userSpaceOnUse" gradientTransform="translate(676.032 288.052) rotate(90) scale(327.489 617.782)">
<stop stop-color="#FB00D1"/>
<stop offset="0.234446" stop-color="#A704CA"/>
<stop offset="0.51" stop-color="#5B07C4"/>
<stop offset="0.825"/>
</radialGradient>
<linearGradient id="paint1_linear_8_144" x1="870.499" y1="186.278" x2="940.975" y2="297.03" gradientUnits="userSpaceOnUse">
<stop stop-color="#B336FF"/>
<stop offset="1" stop-color="#58159B"/>
</linearGradient>
<linearGradient id="paint2_linear_8_144" x1="506.65" y1="258.74" x2="623.259" y2="331.435" gradientUnits="userSpaceOnUse">
<stop stop-color="#FB00D1"/>
<stop offset="1" stop-color="#5B07C4"/>
</linearGradient>
<linearGradient id="paint3_linear_8_144" x1="506.65" y1="344.161" x2="623.259" y2="416.856" gradientUnits="userSpaceOnUse">
<stop stop-color="#FB00D1"/>
<stop offset="1" stop-color="#5B07C4"/>
</linearGradient>
<linearGradient id="paint4_linear_8_144" x1="294.886" y1="214.705" x2="446.939" y2="238.028" gradientUnits="userSpaceOnUse">
<stop stop-color="#FB00D1"/>
<stop offset="1" stop-color="#5B07C4"/>
</linearGradient>
<linearGradient id="paint5_linear_8_144" x1="318.711" y1="369.973" x2="331.868" y2="440.549" gradientUnits="userSpaceOnUse">
<stop stop-color="#B336FF"/>
<stop offset="1" stop-color="#58159B"/>
</linearGradient>
<linearGradient id="paint6_linear_8_144" x1="317.908" y1="211.219" x2="365.952" y2="287.215" gradientUnits="userSpaceOnUse">
<stop stop-color="#B336FF"/>
<stop offset="1" stop-color="#58159B"/>
</linearGradient>
</defs>
</svg>
