<svg width="1364" height="616" viewBox="0 0 1364 616" fill="none" xmlns="http://www.w3.org/2000/svg">
<rect width="1364" height="615" transform="translate(0 0.526367)" fill="url(#paint0_radial_4_13)" fill-opacity="0.3"/>
<path d="M449 280L469 291.547V268.453L449 280ZM458.107 282H464.179V278H458.107V282ZM470.25 282H476.321V278H470.25V282ZM482.393 282H488.464V278H482.393V282ZM494.536 282H500.607V278H494.536V282ZM506.679 282H512.75V278H506.679V282ZM518.821 282H524.893V278H518.821V282ZM530.964 282H537.036V278H530.964V282ZM543.107 282H549.179V278H543.107V282ZM555.25 282H561.321V278H555.25V282ZM567.393 282H573.464V278H567.393V282ZM579.536 282H585.607V278H579.536V282ZM591.679 282H597.75V278H591.679V282ZM603.821 282H609.893V278H603.821V282ZM615.964 282H622.036V278H615.964V282ZM628.107 282H634.179V278H628.107V282ZM640.25 282H646.321V278H640.25V282ZM652.393 282H658.464V278H652.393V282ZM664.536 282H670.607V278H664.536V282ZM676.679 282H682.75V278H676.679V282ZM688.821 282H694.893V278H688.821V282ZM700.964 282H704V278H700.964V282Z" fill="#B16DDF"/>
<path d="M704 368L684 356.453V379.547L704 368ZM449 370H452.036V366H449V370ZM458.107 370H464.179V366H458.107V370ZM470.25 370H476.321V366H470.25V370ZM482.393 370H488.464V366H482.393V370ZM494.536 370H500.607V366H494.536V370ZM506.679 370H512.75V366H506.679V370ZM518.821 370H524.893V366H518.821V370ZM530.964 370H537.036V366H530.964V370ZM543.107 370H549.179V366H543.107V370ZM555.25 370H561.321V366H555.25V370ZM567.393 370H573.464V366H567.393V370ZM579.536 370H585.607V366H579.536V370ZM591.679 370H597.75V366H591.679V370ZM603.821 370H609.893V366H603.821V370ZM615.964 370H622.036V366H615.964V370ZM628.107 370H634.179V366H628.107V370ZM640.25 370H646.321V366H640.25V370ZM652.393 370H658.464V366H652.393V370ZM664.536 370H670.607V366H664.536V370ZM676.679 370H682.75V366H676.679V370ZM688.821 370H694.893V366H688.821V370Z" fill="#B16DDF"/>
<path d="M796.75 432.852C769.519 432.852 746.256 423.426 726.961 404.573C707.666 385.721 698.012 362.679 698 335.448C698 312.108 705.032 291.31 719.097 273.056C733.161 254.803 751.564 243.132 774.307 238.045C781.788 210.515 796.75 188.221 819.193 171.164C841.636 154.108 867.072 145.579 895.5 145.579C930.511 145.579 960.214 157.776 984.608 182.17C1009 206.565 1021.19 236.262 1021.18 271.261C1041.83 273.655 1058.96 282.56 1072.59 297.977C1086.21 313.394 1093.01 331.421 1093 352.056C1093 374.5 1085.15 393.579 1069.44 409.295C1053.74 425.012 1034.66 432.864 1012.2 432.852H796.75Z" fill="white" fill-opacity="0.67"/>
<path fill-rule="evenodd" clip-rule="evenodd" d="M905.712 181.162L879.357 176.593C869.398 174.866 859.924 181.54 858.197 191.499L849.105 243.94C847.378 253.9 854.052 263.373 864.011 265.1L880.02 267.875L900.28 250.777L864.498 221.638C863.694 220.983 863.222 220.004 863.211 218.966C863.2 217.928 863.65 216.939 864.441 216.267L905.712 181.162ZM889.01 269.434L915.679 274.058C925.639 275.785 935.112 269.111 936.839 259.152L945.931 206.711C947.658 196.751 940.984 187.278 931.025 185.551L914.673 182.716L893.787 200.481L929.158 230.198C929.948 230.862 930.404 231.839 930.405 232.87C930.406 233.901 929.952 234.88 929.164 235.545L889.01 269.434ZM921.485 232.88L905.715 246.189L872.167 218.87L888.388 205.073L921.485 232.88Z" fill="url(#paint1_linear_4_13)"/>
<g opacity="0.65" filter="url(#filter0_dd_4_13)">
<rect x="752" y="301.579" width="138" height="97" rx="8" fill="white"/>
<path d="M774.513 346.079V336.139H781.373V337.931H775.465L776.641 336.713V341.263L775.465 340.339H781.121V342.103H775.465L776.641 341.179V346.079H774.513ZM786.252 346.247C785.486 346.247 784.819 346.088 784.25 345.771C783.68 345.444 783.242 344.987 782.934 344.399C782.626 343.811 782.472 343.12 782.472 342.327C782.472 341.534 782.626 340.848 782.934 340.269C783.242 339.681 783.676 339.224 784.236 338.897C784.805 338.57 785.472 338.407 786.238 338.407C786.975 338.407 787.619 338.57 788.17 338.897C788.73 339.224 789.159 339.69 789.458 340.297C789.756 340.904 789.906 341.627 789.906 342.467V342.887H784.642C784.67 343.484 784.828 343.928 785.118 344.217C785.416 344.506 785.808 344.651 786.294 344.651C786.648 344.651 786.942 344.576 787.176 344.427C787.418 344.278 787.591 344.049 787.694 343.741L789.808 343.867C789.602 344.614 789.182 345.197 788.548 345.617C787.922 346.037 787.157 346.247 786.252 346.247ZM784.642 341.599H787.764C787.736 341.048 787.582 340.638 787.302 340.367C787.031 340.096 786.676 339.961 786.238 339.961C785.799 339.961 785.435 340.106 785.146 340.395C784.866 340.675 784.698 341.076 784.642 341.599ZM793.553 346.247C792.769 346.247 792.134 346.07 791.649 345.715C791.164 345.351 790.921 344.847 790.921 344.203C790.921 343.54 791.126 343.032 791.537 342.677C791.957 342.313 792.573 342.047 793.385 341.879L795.807 341.403C795.807 340.918 795.695 340.554 795.471 340.311C795.256 340.059 794.939 339.933 794.519 339.933C794.127 339.933 793.819 340.026 793.595 340.213C793.371 340.39 793.222 340.656 793.147 341.011L791.047 340.913C791.187 340.092 791.556 339.471 792.153 339.051C792.76 338.622 793.548 338.407 794.519 338.407C795.639 338.407 796.484 338.673 797.053 339.205C797.622 339.737 797.907 340.516 797.907 341.543V344.105C797.907 344.32 797.94 344.464 798.005 344.539C798.08 344.604 798.187 344.637 798.327 344.637H798.537V346.079C798.472 346.098 798.364 346.116 798.215 346.135C798.075 346.154 797.93 346.163 797.781 346.163C797.492 346.163 797.216 346.112 796.955 346.009C796.694 345.906 796.484 345.734 796.325 345.491C796.176 345.239 796.101 344.884 796.101 344.427L796.283 344.567C796.19 344.903 796.022 345.197 795.779 345.449C795.546 345.701 795.238 345.897 794.855 346.037C794.482 346.177 794.048 346.247 793.553 346.247ZM794.057 344.805C794.402 344.805 794.706 344.74 794.967 344.609C795.228 344.469 795.434 344.268 795.583 344.007C795.732 343.746 795.807 343.438 795.807 343.083V342.719L794.099 343.083C793.754 343.148 793.497 343.26 793.329 343.419C793.161 343.568 793.077 343.764 793.077 344.007C793.077 344.259 793.161 344.455 793.329 344.595C793.497 344.735 793.74 344.805 794.057 344.805ZM802.391 346.079C801.617 346.079 801.047 345.902 800.683 345.547C800.319 345.183 800.137 344.609 800.137 343.825V336.811H802.237V343.573C802.237 343.937 802.312 344.184 802.461 344.315C802.62 344.446 802.853 344.511 803.161 344.511H804.211V346.079H802.391ZM798.933 340.143V338.575H804.211V340.143H798.933ZM808.009 346.247C807.234 346.247 806.628 346 806.189 345.505C805.76 345.001 805.545 344.301 805.545 343.405V338.575H807.645V342.915C807.645 343.494 807.734 343.918 807.911 344.189C808.088 344.45 808.368 344.581 808.751 344.581C809.18 344.581 809.512 344.436 809.745 344.147C809.988 343.848 810.109 343.405 810.109 342.817V338.575H812.209V346.079H810.291L810.235 343.923L810.501 343.979C810.389 344.726 810.123 345.29 809.703 345.673C809.283 346.056 808.718 346.247 808.009 346.247ZM814.049 346.079V338.575H816.037L816.107 340.759L815.953 340.717C816.074 339.961 816.289 339.415 816.597 339.079C816.905 338.743 817.33 338.575 817.871 338.575H818.557V340.311H817.871C817.479 340.311 817.157 340.362 816.905 340.465C816.653 340.568 816.462 340.731 816.331 340.955C816.21 341.179 816.149 341.482 816.149 341.865V346.079H814.049ZM822.906 346.247C822.141 346.247 821.473 346.088 820.904 345.771C820.335 345.444 819.896 344.987 819.588 344.399C819.28 343.811 819.126 343.12 819.126 342.327C819.126 341.534 819.28 340.848 819.588 340.269C819.896 339.681 820.33 339.224 820.89 338.897C821.459 338.57 822.127 338.407 822.892 338.407C823.629 338.407 824.273 338.57 824.824 338.897C825.384 339.224 825.813 339.69 826.112 340.297C826.411 340.904 826.56 341.627 826.56 342.467V342.887H821.296C821.324 343.484 821.483 343.928 821.772 344.217C822.071 344.506 822.463 344.651 822.948 344.651C823.303 344.651 823.597 344.576 823.83 344.427C824.073 344.278 824.245 344.049 824.348 343.741L826.462 343.867C826.257 344.614 825.837 345.197 825.202 345.617C824.577 346.037 823.811 346.247 822.906 346.247ZM821.296 341.599H824.418C824.39 341.048 824.236 340.638 823.956 340.367C823.685 340.096 823.331 339.961 822.892 339.961C822.453 339.961 822.089 340.106 821.8 340.395C821.52 340.675 821.352 341.076 821.296 341.599ZM831.333 346.079V336.139H838.193V337.931H832.285L833.461 336.713V341.263L832.285 340.339H837.941V342.103H832.285L833.461 341.179V346.079H831.333ZM841.63 346.079C841.014 346.079 840.533 345.925 840.188 345.617C839.843 345.309 839.67 344.81 839.67 344.119V336.139H841.77V343.895C841.77 344.119 841.821 344.278 841.924 344.371C842.027 344.464 842.176 344.511 842.372 344.511H842.876V346.079H841.63ZM846.491 346.247C845.707 346.247 845.072 346.07 844.587 345.715C844.101 345.351 843.859 344.847 843.859 344.203C843.859 343.54 844.064 343.032 844.475 342.677C844.895 342.313 845.511 342.047 846.323 341.879L848.745 341.403C848.745 340.918 848.633 340.554 848.409 340.311C848.194 340.059 847.877 339.933 847.457 339.933C847.065 339.933 846.757 340.026 846.533 340.213C846.309 340.39 846.159 340.656 846.085 341.011L843.985 340.913C844.125 340.092 844.493 339.471 845.091 339.051C845.697 338.622 846.486 338.407 847.457 338.407C848.577 338.407 849.421 338.673 849.991 339.205C850.56 339.737 850.845 340.516 850.845 341.543V344.105C850.845 344.32 850.877 344.464 850.943 344.539C851.017 344.604 851.125 344.637 851.265 344.637H851.475V346.079C851.409 346.098 851.302 346.116 851.153 346.135C851.013 346.154 850.868 346.163 850.719 346.163C850.429 346.163 850.154 346.112 849.893 346.009C849.631 345.906 849.421 345.734 849.263 345.491C849.113 345.239 849.039 344.884 849.039 344.427L849.221 344.567C849.127 344.903 848.959 345.197 848.717 345.449C848.483 345.701 848.175 345.897 847.793 346.037C847.419 346.177 846.985 346.247 846.491 346.247ZM846.995 344.805C847.34 344.805 847.643 344.74 847.905 344.609C848.166 344.469 848.371 344.268 848.521 344.007C848.67 343.746 848.745 343.438 848.745 343.083V342.719L847.037 343.083C846.691 343.148 846.435 343.26 846.267 343.419C846.099 343.568 846.015 343.764 846.015 344.007C846.015 344.259 846.099 344.455 846.267 344.595C846.435 344.735 846.677 344.805 846.995 344.805ZM856.074 348.347C855.355 348.347 854.753 348.258 854.268 348.081C853.792 347.904 853.409 347.656 853.12 347.339C852.84 347.022 852.644 346.658 852.532 346.247L854.688 346.093C854.762 346.336 854.902 346.527 855.108 346.667C855.313 346.807 855.635 346.877 856.074 346.877C856.568 346.877 856.951 346.756 857.222 346.513C857.492 346.28 857.628 345.902 857.628 345.379V344.581C857.45 344.926 857.166 345.206 856.774 345.421C856.382 345.626 855.943 345.729 855.458 345.729C854.842 345.729 854.296 345.58 853.82 345.281C853.344 344.973 852.97 344.548 852.7 344.007C852.438 343.456 852.308 342.812 852.308 342.075C852.308 341.356 852.438 340.722 852.7 340.171C852.961 339.62 853.33 339.191 853.806 338.883C854.282 338.566 854.823 338.407 855.43 338.407C855.98 338.407 856.442 338.528 856.816 338.771C857.198 339.014 857.488 339.336 857.684 339.737V338.575H859.742V345.337C859.742 346.009 859.588 346.564 859.28 347.003C858.972 347.451 858.542 347.787 857.992 348.011C857.441 348.235 856.802 348.347 856.074 348.347ZM856.06 344.175C856.536 344.175 856.914 343.988 857.194 343.615C857.483 343.242 857.632 342.724 857.642 342.061C857.642 341.622 857.576 341.244 857.446 340.927C857.324 340.61 857.142 340.367 856.9 340.199C856.666 340.031 856.386 339.947 856.06 339.947C855.556 339.947 855.164 340.138 854.884 340.521C854.604 340.904 854.464 341.417 854.464 342.061C854.464 342.714 854.608 343.232 854.898 343.615C855.187 343.988 855.574 344.175 856.06 344.175ZM864.615 346.247C863.84 346.247 863.191 346.14 862.669 345.925C862.155 345.701 861.759 345.402 861.479 345.029C861.208 344.646 861.054 344.208 861.017 343.713L863.145 343.643C863.21 343.998 863.359 344.273 863.593 344.469C863.826 344.665 864.171 344.763 864.629 344.763C865.002 344.763 865.291 344.702 865.497 344.581C865.711 344.46 865.819 344.273 865.819 344.021C865.819 343.862 865.777 343.732 865.693 343.629C865.618 343.517 865.473 343.424 865.259 343.349C865.044 343.265 864.722 343.19 864.293 343.125C863.499 342.985 862.879 342.822 862.431 342.635C861.983 342.448 861.665 342.206 861.479 341.907C861.292 341.608 861.199 341.244 861.199 340.815C861.199 340.096 861.474 339.518 862.025 339.079C862.585 338.631 863.42 338.407 864.531 338.407C865.24 338.407 865.833 338.519 866.309 338.743C866.794 338.967 867.167 339.275 867.429 339.667C867.699 340.05 867.863 340.488 867.919 340.983L865.819 341.067C865.781 340.824 865.707 340.619 865.595 340.451C865.483 340.274 865.333 340.138 865.147 340.045C864.969 339.942 864.755 339.891 864.503 339.891C864.139 339.891 863.854 339.97 863.649 340.129C863.453 340.278 863.355 340.479 863.355 340.731C863.355 340.918 863.397 341.072 863.481 341.193C863.574 341.305 863.723 341.398 863.929 341.473C864.134 341.548 864.409 341.608 864.755 341.655C865.557 341.767 866.192 341.926 866.659 342.131C867.135 342.327 867.471 342.574 867.667 342.873C867.872 343.172 867.975 343.54 867.975 343.979C867.975 344.464 867.835 344.875 867.555 345.211C867.284 345.547 866.897 345.804 866.393 345.981C865.898 346.158 865.305 346.247 864.615 346.247ZM776.764 364.247C775.98 364.247 775.345 364.07 774.86 363.715C774.375 363.351 774.132 362.847 774.132 362.203C774.132 361.54 774.337 361.032 774.748 360.677C775.168 360.313 775.784 360.047 776.596 359.879L779.018 359.403C779.018 358.918 778.906 358.554 778.682 358.311C778.467 358.059 778.15 357.933 777.73 357.933C777.338 357.933 777.03 358.026 776.806 358.213C776.582 358.39 776.433 358.656 776.358 359.011L774.258 358.913C774.398 358.092 774.767 357.471 775.364 357.051C775.971 356.622 776.759 356.407 777.73 356.407C778.85 356.407 779.695 356.673 780.264 357.205C780.833 357.737 781.118 358.516 781.118 359.543V362.105C781.118 362.32 781.151 362.464 781.216 362.539C781.291 362.604 781.398 362.637 781.538 362.637H781.748V364.079C781.683 364.098 781.575 364.116 781.426 364.135C781.286 364.154 781.141 364.163 780.992 364.163C780.703 364.163 780.427 364.112 780.166 364.009C779.905 363.906 779.695 363.734 779.536 363.491C779.387 363.239 779.312 362.884 779.312 362.427L779.494 362.567C779.401 362.903 779.233 363.197 778.99 363.449C778.757 363.701 778.449 363.897 778.066 364.037C777.693 364.177 777.259 364.247 776.764 364.247ZM777.268 362.805C777.613 362.805 777.917 362.74 778.178 362.609C778.439 362.469 778.645 362.268 778.794 362.007C778.943 361.746 779.018 361.438 779.018 361.083V360.719L777.31 361.083C776.965 361.148 776.708 361.26 776.54 361.419C776.372 361.568 776.288 361.764 776.288 362.007C776.288 362.259 776.372 362.455 776.54 362.595C776.708 362.735 776.951 362.805 777.268 362.805ZM783.028 364.079V356.575H784.918L785.002 358.773L784.736 358.703C784.81 358.143 784.96 357.695 785.184 357.359C785.417 357.023 785.706 356.78 786.052 356.631C786.397 356.482 786.775 356.407 787.186 356.407C787.727 356.407 788.184 356.524 788.558 356.757C788.94 356.99 789.23 357.322 789.426 357.751C789.631 358.171 789.734 358.67 789.734 359.249V364.079H787.634V359.949C787.634 359.548 787.601 359.207 787.536 358.927C787.47 358.647 787.354 358.437 787.186 358.297C787.018 358.148 786.784 358.073 786.486 358.073C786.047 358.073 785.711 358.236 785.478 358.563C785.244 358.88 785.128 359.342 785.128 359.949V364.079H783.028ZM794.096 364.247C793.471 364.247 792.925 364.088 792.458 363.771C792.001 363.444 791.646 362.992 791.394 362.413C791.152 361.825 791.03 361.13 791.03 360.327C791.03 359.524 791.156 358.834 791.408 358.255C791.66 357.667 792.015 357.214 792.472 356.897C792.939 356.57 793.48 356.407 794.096 356.407C794.638 356.407 795.1 356.519 795.482 356.743C795.874 356.958 796.168 357.256 796.364 357.639V354.139H798.464V364.079H796.448L796.406 362.973C796.201 363.374 795.893 363.687 795.482 363.911C795.081 364.135 794.619 364.247 794.096 364.247ZM794.796 362.637C795.132 362.637 795.417 362.548 795.65 362.371C795.884 362.194 796.061 361.937 796.182 361.601C796.304 361.256 796.364 360.831 796.364 360.327C796.364 359.814 796.304 359.389 796.182 359.053C796.061 358.708 795.884 358.451 795.65 358.283C795.417 358.106 795.132 358.017 794.796 358.017C794.302 358.017 793.91 358.227 793.62 358.647C793.331 359.058 793.186 359.618 793.186 360.327C793.186 361.027 793.331 361.587 793.62 362.007C793.919 362.427 794.311 362.637 794.796 362.637ZM805.846 364.079V355.931H802.878V354.139H810.956V355.931H807.988V364.079H805.846ZM813.459 364.247C812.675 364.247 812.041 364.07 811.555 363.715C811.07 363.351 810.827 362.847 810.827 362.203C810.827 361.54 811.033 361.032 811.443 360.677C811.863 360.313 812.479 360.047 813.291 359.879L815.713 359.403C815.713 358.918 815.601 358.554 815.377 358.311C815.163 358.059 814.845 357.933 814.425 357.933C814.033 357.933 813.725 358.026 813.501 358.213C813.277 358.39 813.128 358.656 813.053 359.011L810.953 358.913C811.093 358.092 811.462 357.471 812.059 357.051C812.666 356.622 813.455 356.407 814.425 356.407C815.545 356.407 816.39 356.673 816.959 357.205C817.529 357.737 817.813 358.516 817.813 359.543V362.105C817.813 362.32 817.846 362.464 817.911 362.539C817.986 362.604 818.093 362.637 818.233 362.637H818.443V364.079C818.378 364.098 818.271 364.116 818.121 364.135C817.981 364.154 817.837 364.163 817.687 364.163C817.398 364.163 817.123 364.112 816.861 364.009C816.6 363.906 816.39 363.734 816.231 363.491C816.082 363.239 816.007 362.884 816.007 362.427L816.189 362.567C816.096 362.903 815.928 363.197 815.685 363.449C815.452 363.701 815.144 363.897 814.761 364.037C814.388 364.177 813.954 364.247 813.459 364.247ZM813.963 362.805C814.309 362.805 814.612 362.74 814.873 362.609C815.135 362.469 815.34 362.268 815.489 362.007C815.639 361.746 815.713 361.438 815.713 361.083V360.719L814.005 361.083C813.66 361.148 813.403 361.26 813.235 361.419C813.067 361.568 812.983 361.764 812.983 362.007C812.983 362.259 813.067 362.455 813.235 362.595C813.403 362.735 813.646 362.805 813.963 362.805ZM819.723 364.079V356.575H821.711L821.781 358.759L821.627 358.717C821.748 357.961 821.963 357.415 822.271 357.079C822.579 356.743 823.003 356.575 823.545 356.575H824.231V358.311H823.545C823.153 358.311 822.831 358.362 822.579 358.465C822.327 358.568 822.135 358.731 822.005 358.955C821.883 359.179 821.823 359.482 821.823 359.865V364.079H819.723ZM828.566 366.347C827.847 366.347 827.245 366.258 826.76 366.081C826.284 365.904 825.901 365.656 825.612 365.339C825.332 365.022 825.136 364.658 825.024 364.247L827.18 364.093C827.255 364.336 827.395 364.527 827.6 364.667C827.805 364.807 828.127 364.877 828.566 364.877C829.061 364.877 829.443 364.756 829.714 364.513C829.985 364.28 830.12 363.902 830.12 363.379V362.581C829.943 362.926 829.658 363.206 829.266 363.421C828.874 363.626 828.435 363.729 827.95 363.729C827.334 363.729 826.788 363.58 826.312 363.281C825.836 362.973 825.463 362.548 825.192 362.007C824.931 361.456 824.8 360.812 824.8 360.075C824.8 359.356 824.931 358.722 825.192 358.171C825.453 357.62 825.822 357.191 826.298 356.883C826.774 356.566 827.315 356.407 827.922 356.407C828.473 356.407 828.935 356.528 829.308 356.771C829.691 357.014 829.98 357.336 830.176 357.737V356.575H832.234V363.337C832.234 364.009 832.08 364.564 831.772 365.003C831.464 365.451 831.035 365.787 830.484 366.011C829.933 366.235 829.294 366.347 828.566 366.347ZM828.552 362.175C829.028 362.175 829.406 361.988 829.686 361.615C829.975 361.242 830.125 360.724 830.134 360.061C830.134 359.622 830.069 359.244 829.938 358.927C829.817 358.61 829.635 358.367 829.392 358.199C829.159 358.031 828.879 357.947 828.552 357.947C828.048 357.947 827.656 358.138 827.376 358.521C827.096 358.904 826.956 359.417 826.956 360.061C826.956 360.714 827.101 361.232 827.39 361.615C827.679 361.988 828.067 362.175 828.552 362.175ZM837.289 364.247C836.524 364.247 835.856 364.088 835.287 363.771C834.718 363.444 834.279 362.987 833.971 362.399C833.663 361.811 833.509 361.12 833.509 360.327C833.509 359.534 833.663 358.848 833.971 358.269C834.279 357.681 834.713 357.224 835.273 356.897C835.842 356.57 836.51 356.407 837.275 356.407C838.012 356.407 838.656 356.57 839.207 356.897C839.767 357.224 840.196 357.69 840.495 358.297C840.794 358.904 840.943 359.627 840.943 360.467V360.887H835.679C835.707 361.484 835.866 361.928 836.155 362.217C836.454 362.506 836.846 362.651 837.331 362.651C837.686 362.651 837.98 362.576 838.213 362.427C838.456 362.278 838.628 362.049 838.731 361.741L840.845 361.867C840.64 362.614 840.22 363.197 839.585 363.617C838.96 364.037 838.194 364.247 837.289 364.247ZM835.679 359.599H838.801C838.773 359.048 838.619 358.638 838.339 358.367C838.068 358.096 837.714 357.961 837.275 357.961C836.836 357.961 836.472 358.106 836.183 358.395C835.903 358.675 835.735 359.076 835.679 359.599ZM845.157 364.079C844.382 364.079 843.813 363.902 843.449 363.547C843.085 363.183 842.903 362.609 842.903 361.825V354.811H845.003V361.573C845.003 361.937 845.078 362.184 845.227 362.315C845.386 362.446 845.619 362.511 845.927 362.511H846.977V364.079H845.157ZM841.699 358.143V356.575H846.977V358.143H841.699ZM848.311 364.079V356.575H850.411V364.079H848.311ZM848.269 355.651V353.971H850.439V355.651H848.269ZM852.07 364.079V356.575H853.96L854.044 358.773L853.778 358.703C853.853 358.143 854.002 357.695 854.226 357.359C854.46 357.023 854.749 356.78 855.094 356.631C855.44 356.482 855.818 356.407 856.228 356.407C856.77 356.407 857.227 356.524 857.6 356.757C857.983 356.99 858.272 357.322 858.468 357.751C858.674 358.171 858.776 358.67 858.776 359.249V364.079H856.676V359.949C856.676 359.548 856.644 359.207 856.578 358.927C856.513 358.647 856.396 358.437 856.228 358.297C856.06 358.148 855.827 358.073 855.528 358.073C855.09 358.073 854.754 358.236 854.52 358.563C854.287 358.88 854.17 359.342 854.17 359.949V364.079H852.07ZM863.839 366.347C863.121 366.347 862.519 366.258 862.033 366.081C861.557 365.904 861.175 365.656 860.885 365.339C860.605 365.022 860.409 364.658 860.297 364.247L862.453 364.093C862.528 364.336 862.668 364.527 862.873 364.667C863.079 364.807 863.401 364.877 863.839 364.877C864.334 364.877 864.717 364.756 864.987 364.513C865.258 364.28 865.393 363.902 865.393 363.379V362.581C865.216 362.926 864.931 363.206 864.539 363.421C864.147 363.626 863.709 363.729 863.223 363.729C862.607 363.729 862.061 363.58 861.585 363.281C861.109 362.973 860.736 362.548 860.465 362.007C860.204 361.456 860.073 360.812 860.073 360.075C860.073 359.356 860.204 358.722 860.465 358.171C860.727 357.62 861.095 357.191 861.571 356.883C862.047 356.566 862.589 356.407 863.195 356.407C863.746 356.407 864.208 356.528 864.581 356.771C864.964 357.014 865.253 357.336 865.449 357.737V356.575H867.507V363.337C867.507 364.009 867.353 364.564 867.045 365.003C866.737 365.451 866.308 365.787 865.757 366.011C865.207 366.235 864.567 366.347 863.839 366.347ZM863.825 362.175C864.301 362.175 864.679 361.988 864.959 361.615C865.249 361.242 865.398 360.724 865.407 360.061C865.407 359.622 865.342 359.244 865.211 358.927C865.09 358.61 864.908 358.367 864.665 358.199C864.432 358.031 864.152 357.947 863.825 357.947C863.321 357.947 862.929 358.138 862.649 358.521C862.369 358.904 862.229 359.417 862.229 360.061C862.229 360.714 862.374 361.232 862.663 361.615C862.953 361.988 863.34 362.175 863.825 362.175Z" fill="black"/>
</g>
<g opacity="0.65" filter="url(#filter1_dd_4_13)">
<rect x="906" y="301.579" width="138" height="97" rx="8" fill="white"/>
<path d="M942.449 355.079L946.033 345.139H948.553L952.137 355.079H949.925L949.197 352.965H945.375L944.647 355.079H942.449ZM945.977 351.215H948.609L947.293 347.379L945.977 351.215ZM953.222 355.079V347.575H955.112L955.196 349.773L954.93 349.703C955.005 349.143 955.154 348.695 955.378 348.359C955.611 348.023 955.901 347.78 956.246 347.631C956.591 347.482 956.969 347.407 957.38 347.407C957.921 347.407 958.379 347.524 958.752 347.757C959.135 347.99 959.424 348.322 959.62 348.751C959.825 349.171 959.928 349.67 959.928 350.249V355.079H957.828V350.949C957.828 350.548 957.795 350.207 957.73 349.927C957.665 349.647 957.548 349.437 957.38 349.297C957.212 349.148 956.979 349.073 956.68 349.073C956.241 349.073 955.905 349.236 955.672 349.563C955.439 349.88 955.322 350.342 955.322 350.949V355.079H953.222ZM963.857 355.247C963.073 355.247 962.438 355.07 961.953 354.715C961.467 354.351 961.225 353.847 961.225 353.203C961.225 352.54 961.43 352.032 961.841 351.677C962.261 351.313 962.877 351.047 963.689 350.879L966.111 350.403C966.111 349.918 965.999 349.554 965.775 349.311C965.56 349.059 965.243 348.933 964.823 348.933C964.431 348.933 964.123 349.026 963.899 349.213C963.675 349.39 963.525 349.656 963.451 350.011L961.351 349.913C961.491 349.092 961.859 348.471 962.457 348.051C963.063 347.622 963.852 347.407 964.823 347.407C965.943 347.407 966.787 347.673 967.357 348.205C967.926 348.737 968.211 349.516 968.211 350.543V353.105C968.211 353.32 968.243 353.464 968.309 353.539C968.383 353.604 968.491 353.637 968.631 353.637H968.841V355.079C968.775 355.098 968.668 355.116 968.519 355.135C968.379 355.154 968.234 355.163 968.085 355.163C967.795 355.163 967.52 355.112 967.259 355.009C966.997 354.906 966.787 354.734 966.629 354.491C966.479 354.239 966.405 353.884 966.405 353.427L966.587 353.567C966.493 353.903 966.325 354.197 966.083 354.449C965.849 354.701 965.541 354.897 965.159 355.037C964.785 355.177 964.351 355.247 963.857 355.247ZM964.361 353.805C964.706 353.805 965.009 353.74 965.271 353.609C965.532 353.469 965.737 353.268 965.887 353.007C966.036 352.746 966.111 352.438 966.111 352.083V351.719L964.403 352.083C964.057 352.148 963.801 352.26 963.633 352.419C963.465 352.568 963.381 352.764 963.381 353.007C963.381 353.259 963.465 353.455 963.633 353.595C963.801 353.735 964.043 353.805 964.361 353.805ZM971.985 355.079C971.369 355.079 970.888 354.925 970.543 354.617C970.197 354.309 970.025 353.81 970.025 353.119V345.139H972.125V352.895C972.125 353.119 972.176 353.278 972.279 353.371C972.381 353.464 972.531 353.511 972.727 353.511H973.231V355.079H971.985ZM974.742 357.179V355.611H975.736C975.979 355.611 976.156 355.574 976.268 355.499C976.38 355.434 976.469 355.312 976.534 355.135L976.702 354.701H976.128L973.482 347.575H975.638L977.346 352.741L978.97 347.575H981.112L978.228 355.793C978.051 356.288 977.804 356.642 977.486 356.857C977.178 357.072 976.74 357.179 976.17 357.179H974.742ZM985.437 355.079C984.663 355.079 984.093 354.902 983.729 354.547C983.365 354.183 983.183 353.609 983.183 352.825V345.811H985.283V352.573C985.283 352.937 985.358 353.184 985.507 353.315C985.666 353.446 985.899 353.511 986.207 353.511H987.257V355.079H985.437ZM981.979 349.143V347.575H987.257V349.143H981.979ZM988.591 355.079V347.575H990.691V355.079H988.591ZM988.549 346.651V344.971H990.719V346.651H988.549ZM995.904 355.247C995.138 355.247 994.466 355.088 993.888 354.771C993.318 354.444 992.875 353.987 992.558 353.399C992.25 352.811 992.096 352.12 992.096 351.327C992.096 350.534 992.25 349.848 992.558 349.269C992.875 348.681 993.318 348.224 993.888 347.897C994.466 347.57 995.138 347.407 995.904 347.407C996.566 347.407 997.159 347.524 997.682 347.757C998.214 347.99 998.643 348.326 998.97 348.765C999.296 349.204 999.497 349.731 999.572 350.347L997.402 350.445C997.336 349.978 997.168 349.628 996.898 349.395C996.636 349.152 996.305 349.031 995.904 349.031C995.381 349.031 994.975 349.232 994.686 349.633C994.396 350.034 994.252 350.599 994.252 351.327C994.252 352.055 994.396 352.624 994.686 353.035C994.975 353.436 995.381 353.637 995.904 353.637C996.305 353.637 996.641 353.516 996.912 353.273C997.182 353.021 997.346 352.643 997.402 352.139L999.572 352.223C999.497 352.839 999.296 353.376 998.97 353.833C998.652 354.281 998.232 354.631 997.71 354.883C997.187 355.126 996.585 355.247 995.904 355.247ZM1003.99 355.247C1003.22 355.247 1002.57 355.14 1002.05 354.925C1001.53 354.701 1001.14 354.402 1000.86 354.029C1000.59 353.646 1000.43 353.208 1000.39 352.713L1002.52 352.643C1002.59 352.998 1002.74 353.273 1002.97 353.469C1003.2 353.665 1003.55 353.763 1004.01 353.763C1004.38 353.763 1004.67 353.702 1004.87 353.581C1005.09 353.46 1005.2 353.273 1005.2 353.021C1005.2 352.862 1005.15 352.732 1005.07 352.629C1005 352.517 1004.85 352.424 1004.64 352.349C1004.42 352.265 1004.1 352.19 1003.67 352.125C1002.88 351.985 1002.26 351.822 1001.81 351.635C1001.36 351.448 1001.04 351.206 1000.86 350.907C1000.67 350.608 1000.58 350.244 1000.58 349.815C1000.58 349.096 1000.85 348.518 1001.4 348.079C1001.96 347.631 1002.8 347.407 1003.91 347.407C1004.62 347.407 1005.21 347.519 1005.69 347.743C1006.17 347.967 1006.55 348.275 1006.81 348.667C1007.08 349.05 1007.24 349.488 1007.3 349.983L1005.2 350.067C1005.16 349.824 1005.08 349.619 1004.97 349.451C1004.86 349.274 1004.71 349.138 1004.52 349.045C1004.35 348.942 1004.13 348.891 1003.88 348.891C1003.52 348.891 1003.23 348.97 1003.03 349.129C1002.83 349.278 1002.73 349.479 1002.73 349.731C1002.73 349.918 1002.77 350.072 1002.86 350.193C1002.95 350.305 1003.1 350.398 1003.31 350.473C1003.51 350.548 1003.79 350.608 1004.13 350.655C1004.94 350.767 1005.57 350.926 1006.04 351.131C1006.51 351.327 1006.85 351.574 1007.04 351.873C1007.25 352.172 1007.35 352.54 1007.35 352.979C1007.35 353.464 1007.21 353.875 1006.93 354.211C1006.66 354.547 1006.27 354.804 1005.77 354.981C1005.28 355.158 1004.68 355.247 1003.99 355.247Z" fill="black"/>
</g>
<rect x="487" y="247.579" width="180" height="64" rx="8" fill="url(#paint2_linear_4_13)" fill-opacity="0.3"/>
<rect x="487" y="247.579" width="180" height="64" rx="8" fill="white" fill-opacity="0.73"/>
<rect x="487.5" y="248.079" width="179" height="63" rx="7.5" stroke="white" stroke-opacity="0.22"/>
<path d="M531.036 285V275.06H535.39C536.118 275.06 536.748 275.181 537.28 275.424C537.821 275.667 538.237 276.012 538.526 276.46C538.815 276.899 538.96 277.421 538.96 278.028C538.96 278.485 538.862 278.891 538.666 279.246C538.479 279.601 538.218 279.89 537.882 280.114C537.555 280.338 537.177 280.478 536.748 280.534L536.706 280.408C537.369 280.408 537.873 280.553 538.218 280.842C538.563 281.122 538.759 281.556 538.806 282.144L539.058 285H536.888L536.706 282.48C536.678 282.097 536.557 281.817 536.342 281.64C536.137 281.453 535.782 281.36 535.278 281.36H533.164V285H531.036ZM533.164 279.582H535.152C535.665 279.582 536.062 279.465 536.342 279.232C536.631 278.989 536.776 278.649 536.776 278.21C536.776 277.762 536.631 277.426 536.342 277.202C536.053 276.969 535.633 276.852 535.082 276.852H533.164V279.582ZM543.856 285.168C543.091 285.168 542.419 285.009 541.84 284.692C541.271 284.365 540.827 283.908 540.51 283.32C540.202 282.732 540.048 282.041 540.048 281.248C540.048 280.455 540.202 279.769 540.51 279.19C540.827 278.602 541.271 278.145 541.84 277.818C542.419 277.491 543.091 277.328 543.856 277.328C544.621 277.328 545.289 277.491 545.858 277.818C546.427 278.145 546.871 278.602 547.188 279.19C547.505 279.769 547.664 280.455 547.664 281.248C547.664 282.041 547.505 282.732 547.188 283.32C546.871 283.908 546.427 284.365 545.858 284.692C545.289 285.009 544.621 285.168 543.856 285.168ZM543.856 283.558C544.379 283.558 544.78 283.357 545.06 282.956C545.349 282.545 545.494 281.976 545.494 281.248C545.494 280.52 545.349 279.955 545.06 279.554C544.78 279.143 544.379 278.938 543.856 278.938C543.333 278.938 542.927 279.143 542.638 279.554C542.349 279.955 542.204 280.52 542.204 281.248C542.204 281.976 542.349 282.545 542.638 282.956C542.927 283.357 543.333 283.558 543.856 283.558ZM551.027 285C550.411 285 549.93 284.846 549.585 284.538C549.239 284.23 549.067 283.731 549.067 283.04V275.06H551.167V282.816C551.167 283.04 551.218 283.199 551.321 283.292C551.423 283.385 551.573 283.432 551.769 283.432H552.273V285H551.027ZM555.484 285C554.868 285 554.387 284.846 554.042 284.538C553.696 284.23 553.524 283.731 553.524 283.04V275.06H555.624V282.816C555.624 283.04 555.675 283.199 555.778 283.292C555.88 283.385 556.03 283.432 556.226 283.432H556.73V285H555.484ZM561.438 285.168C560.673 285.168 560.001 285.009 559.422 284.692C558.853 284.365 558.409 283.908 558.092 283.32C557.784 282.732 557.63 282.041 557.63 281.248C557.63 280.455 557.784 279.769 558.092 279.19C558.409 278.602 558.853 278.145 559.422 277.818C560.001 277.491 560.673 277.328 561.438 277.328C562.203 277.328 562.871 277.491 563.44 277.818C564.009 278.145 564.453 278.602 564.77 279.19C565.087 279.769 565.246 280.455 565.246 281.248C565.246 282.041 565.087 282.732 564.77 283.32C564.453 283.908 564.009 284.365 563.44 284.692C562.871 285.009 562.203 285.168 561.438 285.168ZM561.438 283.558C561.961 283.558 562.362 283.357 562.642 282.956C562.931 282.545 563.076 281.976 563.076 281.248C563.076 280.52 562.931 279.955 562.642 279.554C562.362 279.143 561.961 278.938 561.438 278.938C560.915 278.938 560.509 279.143 560.22 279.554C559.931 279.955 559.786 280.52 559.786 281.248C559.786 281.976 559.931 282.545 560.22 282.956C560.509 283.357 560.915 283.558 561.438 283.558ZM569.017 285.168C568.242 285.168 567.636 284.921 567.197 284.426C566.768 283.922 566.553 283.222 566.553 282.326V277.496H568.653V281.836C568.653 282.415 568.742 282.839 568.919 283.11C569.096 283.371 569.376 283.502 569.759 283.502C570.188 283.502 570.52 283.357 570.753 283.068C570.996 282.769 571.117 282.326 571.117 281.738V277.496H573.217V285H571.299L571.243 282.844L571.509 282.9C571.397 283.647 571.131 284.211 570.711 284.594C570.291 284.977 569.726 285.168 569.017 285.168ZM578.028 285C577.253 285 576.684 284.823 576.32 284.468C575.956 284.104 575.774 283.53 575.774 282.746V275.732H577.874V282.494C577.874 282.858 577.949 283.105 578.098 283.236C578.257 283.367 578.49 283.432 578.798 283.432H579.848V285H578.028ZM574.57 279.064V277.496H579.848V279.064H574.57ZM584.479 285V275.06H588.455C589.65 275.06 590.583 275.349 591.255 275.928C591.937 276.507 592.277 277.3 592.277 278.308C592.277 278.971 592.123 279.549 591.815 280.044C591.517 280.529 591.078 280.907 590.499 281.178C589.93 281.439 589.249 281.57 588.455 281.57H586.607V285H584.479ZM586.607 279.778H588.329C588.889 279.778 589.323 279.657 589.631 279.414C589.939 279.162 590.093 278.793 590.093 278.308C590.093 277.832 589.939 277.473 589.631 277.23C589.333 276.978 588.899 276.852 588.329 276.852H586.607V279.778ZM595.734 285C595.118 285 594.637 284.846 594.292 284.538C593.946 284.23 593.774 283.731 593.774 283.04V275.06H595.874V282.816C595.874 283.04 595.925 283.199 596.028 283.292C596.13 283.385 596.28 283.432 596.476 283.432H596.98V285H595.734ZM600.594 285.168C599.81 285.168 599.175 284.991 598.69 284.636C598.205 284.272 597.962 283.768 597.962 283.124C597.962 282.461 598.167 281.953 598.578 281.598C598.998 281.234 599.614 280.968 600.426 280.8L602.848 280.324C602.848 279.839 602.736 279.475 602.512 279.232C602.297 278.98 601.98 278.854 601.56 278.854C601.168 278.854 600.86 278.947 600.636 279.134C600.412 279.311 600.263 279.577 600.188 279.932L598.088 279.834C598.228 279.013 598.597 278.392 599.194 277.972C599.801 277.543 600.589 277.328 601.56 277.328C602.68 277.328 603.525 277.594 604.094 278.126C604.663 278.658 604.948 279.437 604.948 280.464V283.026C604.948 283.241 604.981 283.385 605.046 283.46C605.121 283.525 605.228 283.558 605.368 283.558H605.578V285C605.513 285.019 605.405 285.037 605.256 285.056C605.116 285.075 604.971 285.084 604.822 285.084C604.533 285.084 604.257 285.033 603.996 284.93C603.735 284.827 603.525 284.655 603.366 284.412C603.217 284.16 603.142 283.805 603.142 283.348L603.324 283.488C603.231 283.824 603.063 284.118 602.82 284.37C602.587 284.622 602.279 284.818 601.896 284.958C601.523 285.098 601.089 285.168 600.594 285.168ZM601.098 283.726C601.443 283.726 601.747 283.661 602.008 283.53C602.269 283.39 602.475 283.189 602.624 282.928C602.773 282.667 602.848 282.359 602.848 282.004V281.64L601.14 282.004C600.795 282.069 600.538 282.181 600.37 282.34C600.202 282.489 600.118 282.685 600.118 282.928C600.118 283.18 600.202 283.376 600.37 283.516C600.538 283.656 600.781 283.726 601.098 283.726ZM606.858 285V277.496H608.748L608.832 279.694L608.566 279.624C608.64 279.064 608.79 278.616 609.014 278.28C609.247 277.944 609.536 277.701 609.882 277.552C610.227 277.403 610.605 277.328 611.016 277.328C611.557 277.328 612.014 277.445 612.388 277.678C612.77 277.911 613.06 278.243 613.256 278.672C613.461 279.092 613.564 279.591 613.564 280.17V285H611.464V280.87C611.464 280.469 611.431 280.128 611.366 279.848C611.3 279.568 611.184 279.358 611.016 279.218C610.848 279.069 610.614 278.994 610.316 278.994C609.877 278.994 609.541 279.157 609.308 279.484C609.074 279.801 608.958 280.263 608.958 280.87V285H606.858ZM618.458 285.168C617.684 285.168 617.035 285.061 616.512 284.846C615.999 284.622 615.602 284.323 615.322 283.95C615.052 283.567 614.898 283.129 614.86 282.634L616.988 282.564C617.054 282.919 617.203 283.194 617.436 283.39C617.67 283.586 618.015 283.684 618.472 283.684C618.846 283.684 619.135 283.623 619.34 283.502C619.555 283.381 619.662 283.194 619.662 282.942C619.662 282.783 619.62 282.653 619.536 282.55C619.462 282.438 619.317 282.345 619.102 282.27C618.888 282.186 618.566 282.111 618.136 282.046C617.343 281.906 616.722 281.743 616.274 281.556C615.826 281.369 615.509 281.127 615.322 280.828C615.136 280.529 615.042 280.165 615.042 279.736C615.042 279.017 615.318 278.439 615.868 278C616.428 277.552 617.264 277.328 618.374 277.328C619.084 277.328 619.676 277.44 620.152 277.664C620.638 277.888 621.011 278.196 621.272 278.588C621.543 278.971 621.706 279.409 621.762 279.904L619.662 279.988C619.625 279.745 619.55 279.54 619.438 279.372C619.326 279.195 619.177 279.059 618.99 278.966C618.813 278.863 618.598 278.812 618.346 278.812C617.982 278.812 617.698 278.891 617.492 279.05C617.296 279.199 617.198 279.4 617.198 279.652C617.198 279.839 617.24 279.993 617.324 280.114C617.418 280.226 617.567 280.319 617.772 280.394C617.978 280.469 618.253 280.529 618.598 280.576C619.401 280.688 620.036 280.847 620.502 281.052C620.978 281.248 621.314 281.495 621.51 281.794C621.716 282.093 621.818 282.461 621.818 282.9C621.818 283.385 621.678 283.796 621.398 284.132C621.128 284.468 620.74 284.725 620.236 284.902C619.742 285.079 619.149 285.168 618.458 285.168Z" fill="#2D2C2F"/>
<rect x="487" y="333" width="180" height="64" rx="8" fill="url(#paint3_linear_4_13)" fill-opacity="0.3"/>
<rect x="487" y="333" width="180" height="64" rx="8" fill="white" fill-opacity="0.73"/>
<rect x="487.5" y="333.5" width="179" height="63" rx="7.5" stroke="white" stroke-opacity="0.22"/>
<path d="M526.036 361V351.06H530.012C531.207 351.06 532.14 351.349 532.812 351.928C533.493 352.507 533.834 353.3 533.834 354.308C533.834 354.971 533.68 355.549 533.372 356.044C533.073 356.529 532.635 356.907 532.056 357.178C531.487 357.439 530.805 357.57 530.012 357.57H528.164V361H526.036ZM528.164 355.778H529.886C530.446 355.778 530.88 355.657 531.188 355.414C531.496 355.162 531.65 354.793 531.65 354.308C531.65 353.832 531.496 353.473 531.188 353.23C530.889 352.978 530.455 352.852 529.886 352.852H528.164V355.778ZM538.404 361.168C537.639 361.168 536.971 361.009 536.402 360.692C535.833 360.365 535.394 359.908 535.086 359.32C534.778 358.732 534.624 358.041 534.624 357.248C534.624 356.455 534.778 355.769 535.086 355.19C535.394 354.602 535.828 354.145 536.388 353.818C536.957 353.491 537.625 353.328 538.39 353.328C539.127 353.328 539.771 353.491 540.322 353.818C540.882 354.145 541.311 354.611 541.61 355.218C541.909 355.825 542.058 356.548 542.058 357.388V357.808H536.794C536.822 358.405 536.981 358.849 537.27 359.138C537.569 359.427 537.961 359.572 538.446 359.572C538.801 359.572 539.095 359.497 539.328 359.348C539.571 359.199 539.743 358.97 539.846 358.662L541.96 358.788C541.755 359.535 541.335 360.118 540.7 360.538C540.075 360.958 539.309 361.168 538.404 361.168ZM536.794 356.52H539.916C539.888 355.969 539.734 355.559 539.454 355.288C539.183 355.017 538.829 354.882 538.39 354.882C537.951 354.882 537.587 355.027 537.298 355.316C537.018 355.596 536.85 355.997 536.794 356.52ZM543.41 361V353.496H545.398L545.468 355.68L545.314 355.638C545.436 354.882 545.65 354.336 545.958 354C546.266 353.664 546.691 353.496 547.232 353.496H547.918V355.232H547.232C546.84 355.232 546.518 355.283 546.266 355.386C546.014 355.489 545.823 355.652 545.692 355.876C545.571 356.1 545.51 356.403 545.51 356.786V361H543.41ZM550.047 361V353.398C550.047 352.651 550.247 352.077 550.649 351.676C551.05 351.265 551.675 351.06 552.525 351.06H554.121V352.628H552.973C552.683 352.628 552.473 352.703 552.343 352.852C552.212 352.992 552.147 353.207 552.147 353.496V361H550.047ZM548.955 355.344V353.776H554.009V355.344H548.955ZM558.516 361.168C557.751 361.168 557.079 361.009 556.5 360.692C555.931 360.365 555.487 359.908 555.17 359.32C554.862 358.732 554.708 358.041 554.708 357.248C554.708 356.455 554.862 355.769 555.17 355.19C555.487 354.602 555.931 354.145 556.5 353.818C557.079 353.491 557.751 353.328 558.516 353.328C559.281 353.328 559.949 353.491 560.518 353.818C561.087 354.145 561.531 354.602 561.848 355.19C562.165 355.769 562.324 356.455 562.324 357.248C562.324 358.041 562.165 358.732 561.848 359.32C561.531 359.908 561.087 360.365 560.518 360.692C559.949 361.009 559.281 361.168 558.516 361.168ZM558.516 359.558C559.039 359.558 559.44 359.357 559.72 358.956C560.009 358.545 560.154 357.976 560.154 357.248C560.154 356.52 560.009 355.955 559.72 355.554C559.44 355.143 559.039 354.938 558.516 354.938C557.993 354.938 557.587 355.143 557.298 355.554C557.009 355.955 556.864 356.52 556.864 357.248C556.864 357.976 557.009 358.545 557.298 358.956C557.587 359.357 557.993 359.558 558.516 359.558ZM563.672 361V353.496H565.66L565.73 355.68L565.576 355.638C565.697 354.882 565.912 354.336 566.22 354C566.528 353.664 566.953 353.496 567.494 353.496H568.18V355.232H567.494C567.102 355.232 566.78 355.283 566.528 355.386C566.276 355.489 566.085 355.652 565.954 355.876C565.833 356.1 565.772 356.403 565.772 356.786V361H563.672ZM569.346 361V353.496H571.236L571.306 355.302L571.11 355.218C571.213 354.817 571.367 354.476 571.572 354.196C571.787 353.916 572.043 353.701 572.342 353.552C572.641 353.403 572.967 353.328 573.322 353.328C573.947 353.328 574.451 353.51 574.834 353.874C575.226 354.238 575.478 354.728 575.59 355.344L575.324 355.358C575.408 354.919 575.553 354.551 575.758 354.252C575.973 353.944 576.234 353.715 576.542 353.566C576.85 353.407 577.195 353.328 577.578 353.328C578.101 353.328 578.549 353.435 578.922 353.65C579.295 353.865 579.585 354.187 579.79 354.616C579.995 355.036 580.098 355.554 580.098 356.17V361H577.998V356.758C577.998 356.17 577.909 355.731 577.732 355.442C577.555 355.143 577.265 354.994 576.864 354.994C576.612 354.994 576.397 355.064 576.22 355.204C576.043 355.344 575.903 355.549 575.8 355.82C575.707 356.081 575.66 356.403 575.66 356.786V361H573.77V356.786C573.77 356.207 573.686 355.764 573.518 355.456C573.35 355.148 573.061 354.994 572.65 354.994C572.398 354.994 572.179 355.064 571.992 355.204C571.815 355.344 571.679 355.549 571.586 355.82C571.493 356.091 571.446 356.413 571.446 356.786V361H569.346ZM584.028 361.168C583.244 361.168 582.609 360.991 582.124 360.636C581.638 360.272 581.396 359.768 581.396 359.124C581.396 358.461 581.601 357.953 582.012 357.598C582.432 357.234 583.048 356.968 583.86 356.8L586.282 356.324C586.282 355.839 586.17 355.475 585.946 355.232C585.731 354.98 585.414 354.854 584.994 354.854C584.602 354.854 584.294 354.947 584.07 355.134C583.846 355.311 583.696 355.577 583.622 355.932L581.522 355.834C581.662 355.013 582.03 354.392 582.628 353.972C583.234 353.543 584.023 353.328 584.994 353.328C586.114 353.328 586.958 353.594 587.528 354.126C588.097 354.658 588.382 355.437 588.382 356.464V359.026C588.382 359.241 588.414 359.385 588.48 359.46C588.554 359.525 588.662 359.558 588.802 359.558H589.012V361C588.946 361.019 588.839 361.037 588.69 361.056C588.55 361.075 588.405 361.084 588.256 361.084C587.966 361.084 587.691 361.033 587.43 360.93C587.168 360.827 586.958 360.655 586.8 360.412C586.65 360.16 586.576 359.805 586.576 359.348L586.758 359.488C586.664 359.824 586.496 360.118 586.254 360.37C586.02 360.622 585.712 360.818 585.33 360.958C584.956 361.098 584.522 361.168 584.028 361.168ZM584.532 359.726C584.877 359.726 585.18 359.661 585.442 359.53C585.703 359.39 585.908 359.189 586.058 358.928C586.207 358.667 586.282 358.359 586.282 358.004V357.64L584.574 358.004C584.228 358.069 583.972 358.181 583.804 358.34C583.636 358.489 583.552 358.685 583.552 358.928C583.552 359.18 583.636 359.376 583.804 359.516C583.972 359.656 584.214 359.726 584.532 359.726ZM590.291 361V353.496H592.181L592.265 355.694L591.999 355.624C592.074 355.064 592.223 354.616 592.447 354.28C592.681 353.944 592.97 353.701 593.315 353.552C593.661 353.403 594.039 353.328 594.449 353.328C594.991 353.328 595.448 353.445 595.821 353.678C596.204 353.911 596.493 354.243 596.689 354.672C596.895 355.092 596.997 355.591 596.997 356.17V361H594.897V356.87C594.897 356.469 594.865 356.128 594.799 355.848C594.734 355.568 594.617 355.358 594.449 355.218C594.281 355.069 594.048 354.994 593.749 354.994C593.311 354.994 592.975 355.157 592.741 355.484C592.508 355.801 592.391 356.263 592.391 356.87V361H590.291ZM602.102 361.168C601.337 361.168 600.665 361.009 600.086 360.692C599.517 360.365 599.073 359.908 598.756 359.32C598.448 358.732 598.294 358.041 598.294 357.248C598.294 356.455 598.448 355.769 598.756 355.19C599.073 354.602 599.517 354.145 600.086 353.818C600.665 353.491 601.337 353.328 602.102 353.328C602.765 353.328 603.357 353.445 603.88 353.678C604.412 353.911 604.841 354.247 605.168 354.686C605.495 355.125 605.695 355.652 605.77 356.268L603.6 356.366C603.535 355.899 603.367 355.549 603.096 355.316C602.835 355.073 602.503 354.952 602.102 354.952C601.579 354.952 601.173 355.153 600.884 355.554C600.595 355.955 600.45 356.52 600.45 357.248C600.45 357.976 600.595 358.545 600.884 358.956C601.173 359.357 601.579 359.558 602.102 359.558C602.503 359.558 602.839 359.437 603.11 359.194C603.381 358.942 603.544 358.564 603.6 358.06L605.77 358.144C605.695 358.76 605.495 359.297 605.168 359.754C604.851 360.202 604.431 360.552 603.908 360.804C603.385 361.047 602.783 361.168 602.102 361.168ZM610.373 361.168C609.608 361.168 608.94 361.009 608.371 360.692C607.802 360.365 607.363 359.908 607.055 359.32C606.747 358.732 606.593 358.041 606.593 357.248C606.593 356.455 606.747 355.769 607.055 355.19C607.363 354.602 607.797 354.145 608.357 353.818C608.926 353.491 609.594 353.328 610.359 353.328C611.096 353.328 611.74 353.491 612.291 353.818C612.851 354.145 613.28 354.611 613.579 355.218C613.878 355.825 614.027 356.548 614.027 357.388V357.808H608.763C608.791 358.405 608.95 358.849 609.239 359.138C609.538 359.427 609.93 359.572 610.415 359.572C610.77 359.572 611.064 359.497 611.297 359.348C611.54 359.199 611.712 358.97 611.815 358.662L613.929 358.788C613.724 359.535 613.304 360.118 612.669 360.538C612.044 360.958 611.278 361.168 610.373 361.168ZM608.763 356.52H611.885C611.857 355.969 611.703 355.559 611.423 355.288C611.152 355.017 610.798 354.882 610.359 354.882C609.92 354.882 609.556 355.027 609.267 355.316C608.987 355.596 608.819 355.997 608.763 356.52ZM621.824 361.224C620.666 361.224 619.784 360.995 619.178 360.538C618.571 360.071 618.268 359.409 618.268 358.55C618.268 358.121 618.333 357.738 618.464 357.402C618.604 357.066 618.828 356.749 619.136 356.45C619.444 356.151 619.845 355.853 620.34 355.554C620.125 355.321 619.938 355.092 619.78 354.868C619.63 354.635 619.514 354.401 619.43 354.168C619.346 353.925 619.304 353.659 619.304 353.37C619.304 352.595 619.56 351.979 620.074 351.522C620.596 351.065 621.343 350.836 622.314 350.836C622.976 350.836 623.532 350.939 623.98 351.144C624.428 351.349 624.764 351.634 624.988 351.998C625.212 352.353 625.324 352.759 625.324 353.216C625.324 353.804 625.146 354.303 624.792 354.714C624.446 355.115 623.91 355.521 623.182 355.932L624.75 357.892C624.983 357.547 625.104 357.052 625.114 356.408L627.242 356.618C627.204 357.15 627.088 357.663 626.892 358.158C626.696 358.653 626.439 359.077 626.122 359.432L627.48 361H625.002L624.638 360.566C624.339 360.762 623.942 360.921 623.448 361.042C622.962 361.163 622.421 361.224 621.824 361.224ZM621.992 359.404C622.3 359.404 622.556 359.371 622.762 359.306C622.976 359.241 623.144 359.161 623.266 359.068L621.446 356.828C621.1 357.052 620.848 357.281 620.69 357.514C620.531 357.747 620.452 358.013 620.452 358.312C620.452 358.639 620.582 358.905 620.844 359.11C621.114 359.306 621.497 359.404 621.992 359.404ZM622.104 354.7C622.356 354.56 622.556 354.425 622.706 354.294C622.864 354.154 622.981 354.014 623.056 353.874C623.13 353.734 623.168 353.575 623.168 353.398C623.168 353.155 623.093 352.969 622.944 352.838C622.804 352.698 622.608 352.628 622.356 352.628C622.076 352.628 621.856 352.703 621.698 352.852C621.548 353.001 621.474 353.202 621.474 353.454C621.474 353.585 621.492 353.715 621.53 353.846C621.567 353.967 621.632 354.098 621.726 354.238C621.828 354.378 621.954 354.532 622.104 354.7ZM526.036 379V369.06H529.9C531.132 369.06 532.075 369.279 532.728 369.718C533.381 370.147 533.708 370.829 533.708 371.762C533.708 372.173 533.624 372.532 533.456 372.84C533.288 373.139 533.041 373.377 532.714 373.554C532.397 373.731 532.009 373.839 531.552 373.876V373.848C532.383 373.904 533.017 374.147 533.456 374.576C533.904 374.996 534.128 375.556 534.128 376.256C534.128 377.18 533.801 377.871 533.148 378.328C532.504 378.776 531.58 379 530.376 379H526.036ZM528.164 377.264H530.278C530.791 377.264 531.202 377.161 531.51 376.956C531.827 376.741 531.986 376.424 531.986 376.004C531.986 375.584 531.827 375.267 531.51 375.052C531.202 374.828 530.791 374.716 530.278 374.716H528.164V377.264ZM528.164 373.176H529.844C530.367 373.176 530.782 373.073 531.09 372.868C531.407 372.663 531.566 372.369 531.566 371.986C531.566 371.575 531.412 371.277 531.104 371.09C530.805 370.894 530.385 370.796 529.844 370.796H528.164V373.176ZM539.17 379.168C538.404 379.168 537.737 379.009 537.168 378.692C536.598 378.365 536.16 377.908 535.852 377.32C535.544 376.732 535.39 376.041 535.39 375.248C535.39 374.455 535.544 373.769 535.852 373.19C536.16 372.602 536.594 372.145 537.154 371.818C537.723 371.491 538.39 371.328 539.156 371.328C539.893 371.328 540.537 371.491 541.088 371.818C541.648 372.145 542.077 372.611 542.376 373.218C542.674 373.825 542.824 374.548 542.824 375.388V375.808H537.56C537.588 376.405 537.746 376.849 538.036 377.138C538.334 377.427 538.726 377.572 539.212 377.572C539.566 377.572 539.86 377.497 540.094 377.348C540.336 377.199 540.509 376.97 540.612 376.662L542.726 376.788C542.52 377.535 542.1 378.118 541.466 378.538C540.84 378.958 540.075 379.168 539.17 379.168ZM537.56 374.52H540.682C540.654 373.969 540.5 373.559 540.22 373.288C539.949 373.017 539.594 372.882 539.156 372.882C538.717 372.882 538.353 373.027 538.064 373.316C537.784 373.596 537.616 373.997 537.56 374.52ZM544.121 379V369.06H546.221V373.246H545.941C546.016 372.807 546.161 372.448 546.375 372.168C546.599 371.888 546.875 371.678 547.201 371.538C547.537 371.398 547.901 371.328 548.293 371.328C548.853 371.328 549.32 371.449 549.693 371.692C550.067 371.935 550.347 372.271 550.533 372.7C550.729 373.129 550.827 373.619 550.827 374.17V379H548.727V374.674C548.727 374.114 548.639 373.694 548.461 373.414C548.293 373.134 548.004 372.994 547.593 372.994C547.164 372.994 546.828 373.139 546.585 373.428C546.343 373.717 546.221 374.151 546.221 374.73V379H544.121ZM554.756 379.168C553.972 379.168 553.337 378.991 552.852 378.636C552.367 378.272 552.124 377.768 552.124 377.124C552.124 376.461 552.329 375.953 552.74 375.598C553.16 375.234 553.776 374.968 554.588 374.8L557.01 374.324C557.01 373.839 556.898 373.475 556.674 373.232C556.459 372.98 556.142 372.854 555.722 372.854C555.33 372.854 555.022 372.947 554.798 373.134C554.574 373.311 554.425 373.577 554.35 373.932L552.25 373.834C552.39 373.013 552.759 372.392 553.356 371.972C553.963 371.543 554.751 371.328 555.722 371.328C556.842 371.328 557.687 371.594 558.256 372.126C558.825 372.658 559.11 373.437 559.11 374.464V377.026C559.11 377.241 559.143 377.385 559.208 377.46C559.283 377.525 559.39 377.558 559.53 377.558H559.74V379C559.675 379.019 559.567 379.037 559.418 379.056C559.278 379.075 559.133 379.084 558.984 379.084C558.695 379.084 558.419 379.033 558.158 378.93C557.897 378.827 557.687 378.655 557.528 378.412C557.379 378.16 557.304 377.805 557.304 377.348L557.486 377.488C557.393 377.824 557.225 378.118 556.982 378.37C556.749 378.622 556.441 378.818 556.058 378.958C555.685 379.098 555.251 379.168 554.756 379.168ZM555.26 377.726C555.605 377.726 555.909 377.661 556.17 377.53C556.431 377.39 556.637 377.189 556.786 376.928C556.935 376.667 557.01 376.359 557.01 376.004V375.64L555.302 376.004C554.957 376.069 554.7 376.181 554.532 376.34C554.364 376.489 554.28 376.685 554.28 376.928C554.28 377.18 554.364 377.376 554.532 377.516C554.7 377.656 554.943 377.726 555.26 377.726ZM562.669 379L559.925 371.496H562.123L563.901 376.886L565.679 371.496H567.863L565.119 379H562.669ZM569.086 379V371.496H571.186V379H569.086ZM569.044 370.572V368.892H571.214V370.572H569.044ZM576.399 379.168C575.634 379.168 574.962 379.009 574.383 378.692C573.814 378.365 573.37 377.908 573.053 377.32C572.745 376.732 572.591 376.041 572.591 375.248C572.591 374.455 572.745 373.769 573.053 373.19C573.37 372.602 573.814 372.145 574.383 371.818C574.962 371.491 575.634 371.328 576.399 371.328C577.164 371.328 577.832 371.491 578.401 371.818C578.97 372.145 579.414 372.602 579.731 373.19C580.048 373.769 580.207 374.455 580.207 375.248C580.207 376.041 580.048 376.732 579.731 377.32C579.414 377.908 578.97 378.365 578.401 378.692C577.832 379.009 577.164 379.168 576.399 379.168ZM576.399 377.558C576.922 377.558 577.323 377.357 577.603 376.956C577.892 376.545 578.037 375.976 578.037 375.248C578.037 374.52 577.892 373.955 577.603 373.554C577.323 373.143 576.922 372.938 576.399 372.938C575.876 372.938 575.47 373.143 575.181 373.554C574.892 373.955 574.747 374.52 574.747 375.248C574.747 375.976 574.892 376.545 575.181 376.956C575.47 377.357 575.876 377.558 576.399 377.558ZM581.555 379V371.496H583.543L583.613 373.68L583.459 373.638C583.58 372.882 583.795 372.336 584.103 372C584.411 371.664 584.836 371.496 585.377 371.496H586.063V373.232H585.377C584.985 373.232 584.663 373.283 584.411 373.386C584.159 373.489 583.968 373.652 583.837 373.876C583.716 374.1 583.655 374.403 583.655 374.786V379H581.555ZM589.483 379.168C588.699 379.168 588.064 378.991 587.579 378.636C587.093 378.272 586.851 377.768 586.851 377.124C586.851 376.461 587.056 375.953 587.467 375.598C587.887 375.234 588.503 374.968 589.315 374.8L591.737 374.324C591.737 373.839 591.625 373.475 591.401 373.232C591.186 372.98 590.869 372.854 590.449 372.854C590.057 372.854 589.749 372.947 589.525 373.134C589.301 373.311 589.151 373.577 589.077 373.932L586.977 373.834C587.117 373.013 587.485 372.392 588.083 371.972C588.689 371.543 589.478 371.328 590.449 371.328C591.569 371.328 592.413 371.594 592.983 372.126C593.552 372.658 593.837 373.437 593.837 374.464V377.026C593.837 377.241 593.869 377.385 593.935 377.46C594.009 377.525 594.117 377.558 594.257 377.558H594.467V379C594.401 379.019 594.294 379.037 594.145 379.056C594.005 379.075 593.86 379.084 593.711 379.084C593.421 379.084 593.146 379.033 592.885 378.93C592.623 378.827 592.413 378.655 592.255 378.412C592.105 378.16 592.031 377.805 592.031 377.348L592.213 377.488C592.119 377.824 591.951 378.118 591.709 378.37C591.475 378.622 591.167 378.818 590.785 378.958C590.411 379.098 589.977 379.168 589.483 379.168ZM589.987 377.726C590.332 377.726 590.635 377.661 590.897 377.53C591.158 377.39 591.363 377.189 591.513 376.928C591.662 376.667 591.737 376.359 591.737 376.004V375.64L590.029 376.004C589.683 376.069 589.427 376.181 589.259 376.34C589.091 376.489 589.007 376.685 589.007 376.928C589.007 377.18 589.091 377.376 589.259 377.516C589.427 377.656 589.669 377.726 589.987 377.726ZM597.611 379C596.995 379 596.514 378.846 596.169 378.538C595.823 378.23 595.651 377.731 595.651 377.04V369.06H597.751V376.816C597.751 377.04 597.802 377.199 597.905 377.292C598.007 377.385 598.157 377.432 598.353 377.432H598.857V379H597.611ZM603.542 379V369.06H606.972C608.587 369.06 609.828 369.494 610.696 370.362C611.564 371.221 611.998 372.448 611.998 374.044C611.998 375.631 611.569 376.853 610.71 377.712C609.861 378.571 608.643 379 607.056 379H603.542ZM605.67 377.208H606.972C607.933 377.208 608.643 376.951 609.1 376.438C609.567 375.915 609.8 375.113 609.8 374.03C609.8 372.947 609.567 372.149 609.1 371.636C608.643 371.113 607.933 370.852 606.972 370.852H605.67V377.208ZM615.733 379.168C614.949 379.168 614.314 378.991 613.829 378.636C613.343 378.272 613.101 377.768 613.101 377.124C613.101 376.461 613.306 375.953 613.717 375.598C614.137 375.234 614.753 374.968 615.565 374.8L617.987 374.324C617.987 373.839 617.875 373.475 617.651 373.232C617.436 372.98 617.119 372.854 616.699 372.854C616.307 372.854 615.999 372.947 615.775 373.134C615.551 373.311 615.401 373.577 615.327 373.932L613.227 373.834C613.367 373.013 613.735 372.392 614.333 371.972C614.939 371.543 615.728 371.328 616.699 371.328C617.819 371.328 618.663 371.594 619.233 372.126C619.802 372.658 620.087 373.437 620.087 374.464V377.026C620.087 377.241 620.119 377.385 620.185 377.46C620.259 377.525 620.367 377.558 620.507 377.558H620.717V379C620.651 379.019 620.544 379.037 620.395 379.056C620.255 379.075 620.11 379.084 619.961 379.084C619.671 379.084 619.396 379.033 619.135 378.93C618.873 378.827 618.663 378.655 618.505 378.412C618.355 378.16 618.281 377.805 618.281 377.348L618.463 377.488C618.369 377.824 618.201 378.118 617.959 378.37C617.725 378.622 617.417 378.818 617.035 378.958C616.661 379.098 616.227 379.168 615.733 379.168ZM616.237 377.726C616.582 377.726 616.885 377.661 617.147 377.53C617.408 377.39 617.613 377.189 617.763 376.928C617.912 376.667 617.987 376.359 617.987 376.004V375.64L616.279 376.004C615.933 376.069 615.677 376.181 615.509 376.34C615.341 376.489 615.257 376.685 615.257 376.928C615.257 377.18 615.341 377.376 615.509 377.516C615.677 377.656 615.919 377.726 616.237 377.726ZM624.571 379C623.796 379 623.227 378.823 622.863 378.468C622.499 378.104 622.317 377.53 622.317 376.746V369.732H624.417V376.494C624.417 376.858 624.492 377.105 624.641 377.236C624.8 377.367 625.033 377.432 625.341 377.432H626.391V379H624.571ZM621.113 373.064V371.496H626.391V373.064H621.113ZM629.979 379.168C629.195 379.168 628.56 378.991 628.075 378.636C627.589 378.272 627.347 377.768 627.347 377.124C627.347 376.461 627.552 375.953 627.963 375.598C628.383 375.234 628.999 374.968 629.811 374.8L632.233 374.324C632.233 373.839 632.121 373.475 631.897 373.232C631.682 372.98 631.365 372.854 630.945 372.854C630.553 372.854 630.245 372.947 630.021 373.134C629.797 373.311 629.647 373.577 629.573 373.932L627.473 373.834C627.613 373.013 627.981 372.392 628.579 371.972C629.185 371.543 629.974 371.328 630.945 371.328C632.065 371.328 632.909 371.594 633.479 372.126C634.048 372.658 634.333 373.437 634.333 374.464V377.026C634.333 377.241 634.365 377.385 634.431 377.46C634.505 377.525 634.613 377.558 634.753 377.558H634.963V379C634.897 379.019 634.79 379.037 634.641 379.056C634.501 379.075 634.356 379.084 634.207 379.084C633.917 379.084 633.642 379.033 633.381 378.93C633.119 378.827 632.909 378.655 632.751 378.412C632.601 378.16 632.527 377.805 632.527 377.348L632.709 377.488C632.615 377.824 632.447 378.118 632.205 378.37C631.971 378.622 631.663 378.818 631.281 378.958C630.907 379.098 630.473 379.168 629.979 379.168ZM630.483 377.726C630.828 377.726 631.131 377.661 631.393 377.53C631.654 377.39 631.859 377.189 632.009 376.928C632.158 376.667 632.233 376.359 632.233 376.004V375.64L630.525 376.004C630.179 376.069 629.923 376.181 629.755 376.34C629.587 376.489 629.503 376.685 629.503 376.928C629.503 377.18 629.587 377.376 629.755 377.516C629.923 377.656 630.165 377.726 630.483 377.726Z" fill="#2D2C2F"/>
<rect x="276" y="169.579" width="173" height="250" rx="8" fill="url(#paint4_linear_4_13)" fill-opacity="0.3"/>
<rect x="276" y="169.579" width="173" height="250" rx="8" fill="white" fill-opacity="0.73"/>
<rect x="276.5" y="170.079" width="172" height="249" rx="7.5" stroke="white" stroke-opacity="0.22"/>
<g filter="url(#filter2_dd_4_13)">
<rect x="284" y="365.579" width="156" height="46" rx="8" fill="url(#paint5_linear_4_13)"/>
<path d="M348.06 395.899C346.847 395.899 345.8 395.692 344.92 395.279C344.04 394.866 343.353 394.286 342.86 393.539C342.367 392.792 342.087 391.912 342.02 390.899L345.08 390.759C345.147 391.319 345.307 391.799 345.56 392.199C345.813 392.586 346.147 392.879 346.56 393.079C346.987 393.279 347.5 393.379 348.1 393.379C348.607 393.379 349.033 393.319 349.38 393.199C349.74 393.079 350.013 392.899 350.2 392.659C350.387 392.406 350.48 392.099 350.48 391.739C350.48 391.406 350.4 391.119 350.24 390.879C350.093 390.626 349.793 390.399 349.34 390.199C348.887 389.986 348.213 389.779 347.32 389.579C346.107 389.299 345.133 388.986 344.4 388.639C343.667 388.292 343.127 387.859 342.78 387.339C342.447 386.806 342.28 386.139 342.28 385.339C342.28 384.486 342.493 383.739 342.92 383.099C343.347 382.459 343.953 381.959 344.74 381.599C345.54 381.239 346.493 381.059 347.6 381.059C348.787 381.059 349.78 381.266 350.58 381.679C351.393 382.092 352.027 382.659 352.48 383.379C352.947 384.099 353.233 384.926 353.34 385.859L350.3 386.019C350.247 385.526 350.107 385.099 349.88 384.739C349.653 384.366 349.347 384.079 348.96 383.879C348.573 383.679 348.107 383.579 347.56 383.579C346.88 383.579 346.34 383.732 345.94 384.039C345.553 384.346 345.36 384.746 345.36 385.239C345.36 385.586 345.447 385.879 345.62 386.119C345.793 386.346 346.093 386.546 346.52 386.719C346.947 386.892 347.547 387.059 348.32 387.219C349.627 387.486 350.66 387.826 351.42 388.239C352.193 388.639 352.74 389.119 353.06 389.679C353.393 390.239 353.56 390.879 353.56 391.599C353.56 392.479 353.333 393.246 352.88 393.899C352.44 394.539 351.807 395.032 350.98 395.379C350.167 395.726 349.193 395.899 348.06 395.899ZM355.625 395.579V381.379H360.525C362.831 381.379 364.605 381.999 365.845 383.239C367.085 384.466 367.705 386.219 367.705 388.499C367.705 390.766 367.091 392.512 365.865 393.739C364.651 394.966 362.911 395.579 360.645 395.579H355.625ZM358.665 393.019H360.525C361.898 393.019 362.911 392.652 363.565 391.919C364.231 391.172 364.565 390.026 364.565 388.479C364.565 386.932 364.231 385.792 363.565 385.059C362.911 384.312 361.898 383.939 360.525 383.939H358.665V393.019ZM369.707 395.579V381.379H372.747V387.579L377.907 381.379H381.447L376.227 387.639L381.767 395.579H378.307L374.227 389.679L372.747 391.399V395.579H369.707Z" fill="white"/>
</g>
<g opacity="0.56" filter="url(#filter3_dd_4_13)">
<rect x="284" y="177.579" width="156" height="121" rx="8" fill="white"/>
</g>
<path opacity="0.51" fill-rule="evenodd" clip-rule="evenodd" d="M336.5 208.856C320.36 208.856 307.277 221.939 307.277 238.079C307.277 250.118 314.556 260.456 324.953 264.933V222.389C324.954 221.697 325.133 221.014 325.474 220.411C325.815 219.809 326.306 219.304 326.899 218.947C327.492 218.59 328.167 218.392 328.859 218.373C329.552 218.353 330.237 218.512 330.849 218.836L351.767 229.906C352.4 230.24 352.933 230.737 353.31 231.346C353.687 231.955 353.894 232.654 353.911 233.37C353.927 234.086 353.752 234.793 353.403 235.418C353.055 236.043 352.546 236.564 351.929 236.927L329.23 250.279V266.391C331.554 266.986 333.99 267.303 336.5 267.303C352.64 267.303 365.723 254.219 365.723 238.079C365.723 221.939 352.64 208.856 336.5 208.856ZM329.23 245.317L349.365 233.473L329.23 222.817V245.317ZM303 238.079C303 219.577 317.998 204.579 336.5 204.579C355.002 204.579 370 219.577 370 238.079C370 256.581 355.002 271.579 336.5 271.579C317.998 271.579 303 256.581 303 238.079Z" fill="url(#paint6_linear_4_13)"/>
<circle cx="406" cy="213.579" r="22" fill="#DDDDDD"/>
<circle cx="406" cy="263.579" r="22" fill="#02D8C2"/>
<path d="M399.5 220.579L404.62 206.379H408.22L413.34 220.579H410.18L409.14 217.559H403.68L402.64 220.579H399.5ZM404.54 215.059H408.3L406.42 209.579L404.54 215.059Z" fill="black" fill-opacity="0.26"/>
<path d="M400.48 270.579V256.379H406C407.76 256.379 409.107 256.692 410.04 257.319C410.973 257.932 411.44 258.906 411.44 260.239C411.44 260.826 411.32 261.339 411.08 261.779C410.84 262.206 410.487 262.546 410.02 262.799C409.567 263.052 409.013 263.206 408.36 263.259V263.219C409.547 263.299 410.453 263.646 411.08 264.259C411.72 264.859 412.04 265.659 412.04 266.659C412.04 267.979 411.573 268.966 410.64 269.619C409.72 270.259 408.4 270.579 406.68 270.579H400.48ZM403.52 268.099H406.54C407.273 268.099 407.86 267.952 408.3 267.659C408.753 267.352 408.98 266.899 408.98 266.299C408.98 265.699 408.753 265.246 408.3 264.939C407.86 264.619 407.273 264.459 406.54 264.459H403.52V268.099ZM403.52 262.259H405.92C406.667 262.259 407.26 262.112 407.7 261.819C408.153 261.526 408.38 261.106 408.38 260.559C408.38 259.972 408.16 259.546 407.72 259.279C407.293 258.999 406.693 258.859 405.92 258.859H403.52V262.259Z" fill="black"/>
<path d="M414 299.579L402.453 319.579L425.547 319.579L414 299.579ZM412 307.829L412 313.329L416 313.329L416 307.829L412 307.829ZM412 318.829L412 324.329L416 324.329L416 318.829L412 318.829ZM412 329.829L412 335.329L416 335.329L416 329.829L412 329.829ZM412 340.829L412 346.329L416 346.329L416 340.829L412 340.829ZM412 351.829L412 357.329L416 357.329L416 351.829L412 351.829ZM412 362.829L412 365.579L416 365.579L416 362.829L412 362.829Z" fill="#B16DDF"/>
<path d="M312 365.579L323.547 345.579L300.453 345.579L312 365.579ZM310 299.579L310 302.329L314 302.329L314 299.579L310 299.579ZM310 307.829L310 313.329L314 313.329L314 307.829L310 307.829ZM310 318.829L310 324.329L314 324.329L314 318.829L310 318.829ZM310 329.829L310 335.329L314 335.329L314 329.829L310 329.829ZM310 340.829L310 346.329L314 346.329L314 340.829L310 340.829ZM310 351.829L310 357.329L314 357.329L314 351.829L310 351.829Z" fill="#B16DDF"/>
<path d="M353.342 345.208C352.588 345.208 351.951 345.095 351.431 344.87C350.911 344.645 350.508 344.324 350.222 343.908C349.936 343.492 349.771 343.007 349.728 342.452L351.73 342.361C351.808 342.76 351.981 343.059 352.25 343.258C352.527 343.449 352.891 343.544 353.342 343.544C353.845 343.544 354.239 343.401 354.525 343.115C354.82 342.829 354.967 342.435 354.967 341.932C354.967 341.603 354.898 341.317 354.759 341.074C354.629 340.831 354.443 340.641 354.2 340.502C353.957 340.363 353.667 340.294 353.329 340.294C352.956 340.294 352.636 340.376 352.367 340.541C352.098 340.706 351.912 340.914 351.808 341.165H349.832L350.469 335.77H356.358V337.434H352.146L351.808 340.125L351.587 339.93C351.734 339.705 351.916 339.514 352.133 339.358C352.358 339.193 352.618 339.068 352.913 338.981C353.208 338.886 353.533 338.838 353.888 338.838C354.529 338.838 355.08 338.972 355.539 339.241C356.007 339.51 356.367 339.878 356.618 340.346C356.869 340.814 356.995 341.343 356.995 341.932C356.995 342.599 356.843 343.18 356.54 343.674C356.237 344.168 355.812 344.549 355.266 344.818C354.72 345.078 354.079 345.208 353.342 345.208ZM358.58 345V338.032H360.335L360.4 339.709L360.218 339.631C360.313 339.258 360.456 338.942 360.647 338.682C360.846 338.422 361.084 338.223 361.362 338.084C361.639 337.945 361.942 337.876 362.272 337.876C362.852 337.876 363.32 338.045 363.676 338.383C364.04 338.721 364.274 339.176 364.378 339.748L364.131 339.761C364.209 339.354 364.343 339.011 364.534 338.734C364.733 338.448 364.976 338.236 365.262 338.097C365.548 337.95 365.868 337.876 366.224 337.876C366.709 337.876 367.125 337.976 367.472 338.175C367.818 338.374 368.087 338.673 368.278 339.072C368.468 339.462 368.564 339.943 368.564 340.515V345H366.614V341.061C366.614 340.515 366.531 340.108 366.367 339.839C366.202 339.562 365.933 339.423 365.561 339.423C365.327 339.423 365.127 339.488 364.963 339.618C364.798 339.748 364.668 339.939 364.573 340.19C364.486 340.433 364.443 340.732 364.443 341.087V345H362.688V341.087C362.688 340.55 362.61 340.138 362.454 339.852C362.298 339.566 362.029 339.423 361.648 339.423C361.414 339.423 361.21 339.488 361.037 339.618C360.872 339.748 360.746 339.939 360.66 340.19C360.573 340.441 360.53 340.74 360.53 341.087V345H358.58ZM373.11 345.156C372.39 345.156 371.788 345.056 371.303 344.857C370.826 344.649 370.458 344.372 370.198 344.025C369.946 343.67 369.803 343.262 369.769 342.803L371.745 342.738C371.805 343.067 371.944 343.323 372.161 343.505C372.377 343.687 372.698 343.778 373.123 343.778C373.469 343.778 373.738 343.722 373.929 343.609C374.128 343.496 374.228 343.323 374.228 343.089C374.228 342.942 374.189 342.82 374.111 342.725C374.041 342.621 373.907 342.534 373.708 342.465C373.508 342.387 373.209 342.318 372.811 342.257C372.074 342.127 371.498 341.975 371.082 341.802C370.666 341.629 370.371 341.403 370.198 341.126C370.024 340.849 369.938 340.511 369.938 340.112C369.938 339.445 370.193 338.907 370.705 338.5C371.225 338.084 372 337.876 373.032 337.876C373.69 337.876 374.241 337.98 374.683 338.188C375.133 338.396 375.48 338.682 375.723 339.046C375.974 339.401 376.126 339.809 376.178 340.268L374.228 340.346C374.193 340.121 374.124 339.93 374.02 339.774C373.916 339.609 373.777 339.484 373.604 339.397C373.439 339.302 373.24 339.254 373.006 339.254C372.668 339.254 372.403 339.328 372.213 339.475C372.031 339.614 371.94 339.8 371.94 340.034C371.94 340.207 371.979 340.35 372.057 340.463C372.143 340.567 372.282 340.654 372.473 340.723C372.663 340.792 372.919 340.849 373.24 340.892C373.985 340.996 374.574 341.143 375.008 341.334C375.45 341.516 375.762 341.746 375.944 342.023C376.134 342.3 376.23 342.643 376.23 343.05C376.23 343.501 376.1 343.882 375.84 344.194C375.588 344.506 375.229 344.744 374.761 344.909C374.301 345.074 373.751 345.156 373.11 345.156Z" fill="#B16DDF"/>
<g clip-path="url(#clip0_4_13)">
<path d="M368 319.333V321M368 331V332.667M363 326H361.333M374.667 326H373M372.719 330.719L371.536 329.536M363.281 330.719L364.465 329.535M363.281 321.333L364.439 322.491" stroke="#B16DDF" stroke-width="1.5" stroke-linecap="round" stroke-linejoin="round"/>
<path d="M372.719 321.333L369 325M374.667 326C374.667 329.682 371.682 332.667 368 332.667C364.318 332.667 361.333 329.682 361.333 326C361.333 322.318 364.318 319.333 368 319.333C371.682 319.333 374.667 322.318 374.667 326ZM369.333 326C369.333 326.736 368.736 327.333 368 327.333C367.264 327.333 366.667 326.736 366.667 326C366.667 325.264 367.264 324.667 368 324.667C368.736 324.667 369.333 325.264 369.333 326Z" stroke="#B16DDF" stroke-width="1.25" stroke-linecap="round" stroke-linejoin="round"/>
</g>
<line x1="359" y1="321.5" x2="352" y2="321.5" stroke="#B16DDF"/>
<line x1="359" y1="329.5" x2="354" y2="329.5" stroke="#B16DDF"/>
<line x1="359" y1="325.5" x2="348" y2="325.5" stroke="#B16DDF"/>
<path d="M325.82 452V446.48L320.9 437.8H324.26L327.36 443.52L330.44 437.8H333.8L328.88 446.48V452H325.82ZM338.574 452.24C337.48 452.24 336.52 452.013 335.694 451.56C334.88 451.093 334.247 450.44 333.794 449.6C333.354 448.76 333.134 447.773 333.134 446.64C333.134 445.507 333.354 444.527 333.794 443.7C334.247 442.86 334.88 442.207 335.694 441.74C336.52 441.273 337.48 441.04 338.574 441.04C339.667 441.04 340.62 441.273 341.434 441.74C342.247 442.207 342.88 442.86 343.334 443.7C343.787 444.527 344.014 445.507 344.014 446.64C344.014 447.773 343.787 448.76 343.334 449.6C342.88 450.44 342.247 451.093 341.434 451.56C340.62 452.013 339.667 452.24 338.574 452.24ZM338.574 449.94C339.32 449.94 339.894 449.653 340.294 449.08C340.707 448.493 340.914 447.68 340.914 446.64C340.914 445.6 340.707 444.793 340.294 444.22C339.894 443.633 339.32 443.34 338.574 443.34C337.827 443.34 337.247 443.633 336.834 444.22C336.42 444.793 336.214 445.6 336.214 446.64C336.214 447.68 336.42 448.493 336.834 449.08C337.247 449.653 337.827 449.94 338.574 449.94ZM349.401 452.24C348.294 452.24 347.427 451.887 346.801 451.18C346.187 450.46 345.881 449.46 345.881 448.18V441.28H348.881V447.48C348.881 448.307 349.007 448.913 349.261 449.3C349.514 449.673 349.914 449.86 350.461 449.86C351.074 449.86 351.547 449.653 351.881 449.24C352.227 448.813 352.401 448.18 352.401 447.34V441.28H355.401V452H352.661L352.581 448.92L352.961 449C352.801 450.067 352.421 450.873 351.821 451.42C351.221 451.967 350.414 452.24 349.401 452.24ZM358.029 452V441.28H360.869L360.969 444.4L360.749 444.34C360.922 443.26 361.229 442.48 361.669 442C362.109 441.52 362.716 441.28 363.489 441.28H364.469V443.76H363.489C362.929 443.76 362.469 443.833 362.109 443.98C361.749 444.127 361.476 444.36 361.289 444.68C361.116 445 361.029 445.433 361.029 445.98V452H358.029ZM370.275 452L375.395 437.8H378.995L384.115 452H380.955L379.915 448.98H374.455L373.415 452H370.275ZM375.315 446.48H379.075L377.195 441L375.315 446.48ZM385.666 455V441.28H388.546L388.606 443.54L388.366 443.44C388.632 442.667 389.066 442.073 389.666 441.66C390.266 441.247 390.966 441.04 391.766 441.04C392.766 441.04 393.599 441.287 394.266 441.78C394.932 442.273 395.432 442.947 395.766 443.8C396.112 444.64 396.286 445.587 396.286 446.64C396.286 447.68 396.112 448.627 395.766 449.48C395.432 450.333 394.926 451.007 394.246 451.5C393.579 451.993 392.746 452.24 391.746 452.24C391.226 452.24 390.739 452.147 390.286 451.96C389.832 451.76 389.439 451.487 389.106 451.14C388.786 450.793 388.552 450.38 388.406 449.9L388.666 449.74V455H385.666ZM390.926 449.94C391.632 449.94 392.186 449.647 392.586 449.06C392.999 448.473 393.206 447.667 393.206 446.64C393.206 445.613 392.999 444.807 392.586 444.22C392.186 443.633 391.632 443.34 390.926 443.34C390.459 443.34 390.052 443.467 389.706 443.72C389.372 443.96 389.112 444.327 388.926 444.82C388.752 445.313 388.666 445.92 388.666 446.64C388.666 447.36 388.752 447.967 388.926 448.46C389.112 448.953 389.372 449.327 389.706 449.58C390.052 449.82 390.459 449.94 390.926 449.94ZM398.205 455V441.28H401.085L401.145 443.54L400.905 443.44C401.171 442.667 401.605 442.073 402.205 441.66C402.805 441.247 403.505 441.04 404.305 441.04C405.305 441.04 406.138 441.287 406.805 441.78C407.471 442.273 407.971 442.947 408.305 443.8C408.651 444.64 408.825 445.587 408.825 446.64C408.825 447.68 408.651 448.627 408.305 449.48C407.971 450.333 407.465 451.007 406.785 451.5C406.118 451.993 405.285 452.24 404.285 452.24C403.765 452.24 403.278 452.147 402.825 451.96C402.371 451.76 401.978 451.487 401.645 451.14C401.325 450.793 401.091 450.38 400.945 449.9L401.205 449.74V455H398.205ZM403.465 449.94C404.171 449.94 404.725 449.647 405.125 449.06C405.538 448.473 405.745 447.667 405.745 446.64C405.745 445.613 405.538 444.807 405.125 444.22C404.725 443.633 404.171 443.34 403.465 443.34C402.998 443.34 402.591 443.467 402.245 443.72C401.911 443.96 401.651 444.327 401.465 444.82C401.291 445.313 401.205 445.92 401.205 446.64C401.205 447.36 401.291 447.967 401.465 448.46C401.651 448.953 401.911 449.327 402.245 449.58C402.591 449.82 402.998 449.94 403.465 449.94Z" fill="#555057"/>
<defs>
<filter id="filter0_dd_4_13" x="748" y="299.579" width="146" height="105" filterUnits="userSpaceOnUse" color-interpolation-filters="sRGB">
<feFlood flood-opacity="0" result="BackgroundImageFix"/>
<feColorMatrix in="SourceAlpha" type="matrix" values="0 0 0 0 0 0 0 0 0 0 0 0 0 0 0 0 0 0 127 0" result="hardAlpha"/>
<feOffset dy="2"/>
<feGaussianBlur stdDeviation="2"/>
<feColorMatrix type="matrix" values="0 0 0 0 0 0 0 0 0 0 0 0 0 0 0 0 0 0 0.32 0"/>
<feBlend mode="normal" in2="BackgroundImageFix" result="effect1_dropShadow_4_13"/>
<feColorMatrix in="SourceAlpha" type="matrix" values="0 0 0 0 0 0 0 0 0 0 0 0 0 0 0 0 0 0 127 0" result="hardAlpha"/>
<feOffset/>
<feGaussianBlur stdDeviation="0.5"/>
<feColorMatrix type="matrix" values="0 0 0 0 0 0 0 0 0 0 0 0 0 0 0 0 0 0 0.04 0"/>
<feBlend mode="normal" in2="effect1_dropShadow_4_13" result="effect2_dropShadow_4_13"/>
<feBlend mode="normal" in="SourceGraphic" in2="effect2_dropShadow_4_13" result="shape"/>
</filter>
<filter id="filter1_dd_4_13" x="902" y="299.579" width="146" height="105" filterUnits="userSpaceOnUse" color-interpolation-filters="sRGB">
<feFlood flood-opacity="0" result="BackgroundImageFix"/>
<feColorMatrix in="SourceAlpha" type="matrix" values="0 0 0 0 0 0 0 0 0 0 0 0 0 0 0 0 0 0 127 0" result="hardAlpha"/>
<feOffset dy="2"/>
<feGaussianBlur stdDeviation="2"/>
<feColorMatrix type="matrix" values="0 0 0 0 0 0 0 0 0 0 0 0 0 0 0 0 0 0 0.32 0"/>
<feBlend mode="normal" in2="BackgroundImageFix" result="effect1_dropShadow_4_13"/>
<feColorMatrix in="SourceAlpha" type="matrix" values="0 0 0 0 0 0 0 0 0 0 0 0 0 0 0 0 0 0 127 0" result="hardAlpha"/>
<feOffset/>
<feGaussianBlur stdDeviation="0.5"/>
<feColorMatrix type="matrix" values="0 0 0 0 0 0 0 0 0 0 0 0 0 0 0 0 0 0 0.04 0"/>
<feBlend mode="normal" in2="effect1_dropShadow_4_13" result="effect2_dropShadow_4_13"/>
<feBlend mode="normal" in="SourceGraphic" in2="effect2_dropShadow_4_13" result="shape"/>
</filter>
<filter id="filter2_dd_4_13" x="280" y="363.579" width="164" height="54" filterUnits="userSpaceOnUse" color-interpolation-filters="sRGB">
<feFlood flood-opacity="0" result="BackgroundImageFix"/>
<feColorMatrix in="SourceAlpha" type="matrix" values="0 0 0 0 0 0 0 0 0 0 0 0 0 0 0 0 0 0 127 0" result="hardAlpha"/>
<feOffset dy="2"/>
<feGaussianBlur stdDeviation="2"/>
<feColorMatrix type="matrix" values="0 0 0 0 0 0 0 0 0 0 0 0 0 0 0 0 0 0 0.32 0"/>
<feBlend mode="normal" in2="BackgroundImageFix" result="effect1_dropShadow_4_13"/>
<feColorMatrix in="SourceAlpha" type="matrix" values="0 0 0 0 0 0 0 0 0 0 0 0 0 0 0 0 0 0 127 0" result="hardAlpha"/>
<feOffset/>
<feGaussianBlur stdDeviation="0.5"/>
<feColorMatrix type="matrix" values="0 0 0 0 0 0 0 0 0 0 0 0 0 0 0 0 0 0 0.04 0"/>
<feBlend mode="normal" in2="effect1_dropShadow_4_13" result="effect2_dropShadow_4_13"/>
<feBlend mode="normal" in="SourceGraphic" in2="effect2_dropShadow_4_13" result="shape"/>
</filter>
<filter id="filter3_dd_4_13" x="280" y="175.579" width="164" height="129" filterUnits="userSpaceOnUse" color-interpolation-filters="sRGB">
<feFlood flood-opacity="0" result="BackgroundImageFix"/>
<feColorMatrix in="SourceAlpha" type="matrix" values="0 0 0 0 0 0 0 0 0 0 0 0 0 0 0 0 0 0 127 0" result="hardAlpha"/>
<feOffset dy="2"/>
<feGaussianBlur stdDeviation="2"/>
<feColorMatrix type="matrix" values="0 0 0 0 0 0 0 0 0 0 0 0 0 0 0 0 0 0 0.32 0"/>
<feBlend mode="normal" in2="BackgroundImageFix" result="effect1_dropShadow_4_13"/>
<feColorMatrix in="SourceAlpha" type="matrix" values="0 0 0 0 0 0 0 0 0 0 0 0 0 0 0 0 0 0 127 0" result="hardAlpha"/>
<feOffset/>
<feGaussianBlur stdDeviation="0.5"/>
<feColorMatrix type="matrix" values="0 0 0 0 0 0 0 0 0 0 0 0 0 0 0 0 0 0 0.04 0"/>
<feBlend mode="normal" in2="effect1_dropShadow_4_13" result="effect2_dropShadow_4_13"/>
<feBlend mode="normal" in="SourceGraphic" in2="effect2_dropShadow_4_13" result="shape"/>
</filter>
<radialGradient id="paint0_radial_4_13" cx="0" cy="0" r="1" gradientUnits="userSpaceOnUse" gradientTransform="translate(676.032 288.052) rotate(90) scale(327.489 617.782)">
<stop stop-color="#FB00D1"/>
<stop offset="0.234446" stop-color="#A704CA"/>
<stop offset="0.51" stop-color="#5B07C4"/>
<stop offset="0.825" stop-color="white"/>
</radialGradient>
<linearGradient id="paint1_linear_4_13" x1="870.499" y1="186.804" x2="940.975" y2="297.556" gradientUnits="userSpaceOnUse">
<stop stop-color="#B336FF"/>
<stop offset="1" stop-color="#58159B"/>
</linearGradient>
<linearGradient id="paint2_linear_4_13" x1="506.65" y1="259.266" x2="623.259" y2="331.961" gradientUnits="userSpaceOnUse">
<stop stop-color="#FB00D1"/>
<stop offset="1" stop-color="#5B07C4"/>
</linearGradient>
<linearGradient id="paint3_linear_4_13" x1="506.65" y1="344.687" x2="623.259" y2="417.382" gradientUnits="userSpaceOnUse">
<stop stop-color="#FB00D1"/>
<stop offset="1" stop-color="#5B07C4"/>
</linearGradient>
<linearGradient id="paint4_linear_4_13" x1="294.886" y1="215.231" x2="446.939" y2="238.554" gradientUnits="userSpaceOnUse">
<stop stop-color="#FB00D1"/>
<stop offset="1" stop-color="#5B07C4"/>
</linearGradient>
<linearGradient id="paint5_linear_4_13" x1="318.711" y1="370.499" x2="331.868" y2="441.076" gradientUnits="userSpaceOnUse">
<stop stop-color="#B336FF"/>
<stop offset="1" stop-color="#58159B"/>
</linearGradient>
<linearGradient id="paint6_linear_4_13" x1="317.908" y1="211.746" x2="365.952" y2="287.741" gradientUnits="userSpaceOnUse">
<stop stop-color="#B336FF"/>
<stop offset="1" stop-color="#58159B"/>
</linearGradient>
<clipPath id="clip0_4_13">
<rect width="16" height="16" fill="white" transform="translate(360 318)"/>
</clipPath>
</defs>
</svg>
